M48
;DRILL file {Pcbnew (2011-nov-30)-testing} date ven. 21 sept. 2012 14:12:40 CEST
;FORMAT={-:-/ absolute / inch / decimal}
FMAT,2
INCH,TZ
T1C0.025
T2C0.035
T3C0.039
T4C0.040
T5C0.052
T6C0.063
T7C0.128
%
G90
G05
M72
T1
X2.0079Y4.813
X2.2441Y6.752
X2.3Y5.56
X2.4213Y5.8858
X2.4606Y5.9646
X2.4902Y6.5256
X2.5Y6.0138
X2.5Y6.1417
X2.5295Y5.748
X2.5787Y7.185
X2.5827Y5.815
X2.6378Y5.8957
X2.6378Y5.9941
X2.66Y5.5
X2.6772Y5.689
X2.76Y5.71
X2.7795Y6.
X2.7953Y6.1024
X2.7953Y6.1909
X2.8051Y3.9961
X2.83Y5.52
X2.8445Y5.9055
X2.8642Y4.1831
X2.9035Y5.1181
X2.9134Y4.3406
X2.9233Y5.8957
X2.9429Y6.1516
X2.9606Y6.8937
X3.0217Y4.9508
X3.0512Y5.5413
X3.1201Y5.0984
X3.1732Y6.1378
X3.189Y4.9114
X3.2579Y4.6358
X3.2677Y6.1142
X3.315Y6.3189
X3.3268Y4.7638
X3.4055Y6.1693
X3.4724Y4.9409
X3.5138Y6.0335
X3.5157Y4.7953
X3.5531Y5.2067
X3.5551Y6.4882
X3.6378Y6.4843
X3.7Y5.24
X3.7Y5.3
X3.7283Y6.2165
X3.752Y6.1535
X3.86Y4.515
X3.9Y4.6
T2
X3.3368Y4.5133
X3.384Y4.4129
X3.4352Y4.5133
X3.4864Y4.4129
X3.5336Y4.5133
X3.5848Y4.4129
X3.636Y4.5133
X3.6832Y4.4129
T3
X3.2482Y4.0054
X3.3486Y4.0054
X3.6714Y4.0054
X3.7718Y4.0054
T4
X2.076Y4.6063
X2.1547Y4.8705
X2.1547Y4.9705
X2.1547Y5.0705
X2.176Y4.6063
X2.2039Y6.4173
X2.2547Y4.8705
X2.2547Y4.9705
X2.2547Y5.0705
X2.3016Y6.9874
X2.3016Y7.0874
X2.3039Y6.4173
X2.3705Y5.511
X2.3705Y5.611
X2.4016Y6.9874
X2.4016Y7.0874
X2.4705Y5.511
X2.4705Y5.611
X2.4961Y6.4173
X2.5016Y6.9874
X2.5016Y7.0874
X2.5705Y5.511
X2.5705Y5.611
X2.5961Y6.4173
X2.6961Y6.4173
X2.7232Y6.5937
X2.7232Y6.6937
X2.7961Y6.4173
X2.8232Y6.5937
X2.8232Y6.6937
X2.8961Y6.4173
X2.9232Y6.5937
X2.9232Y6.6937
X2.9961Y6.4173
X3.0232Y6.5937
X3.0232Y6.6937
X3.1232Y6.5937
X3.1232Y6.6937
X3.7591Y5.6268
X3.7591Y5.7268
X3.7591Y5.8268
X3.7591Y5.9268
X3.7591Y6.0268
X3.8591Y5.6268
X3.8591Y5.7268
X3.8591Y5.8268
X3.8591Y5.9268
X3.8591Y6.0268
T5
X2.282Y4.25
X2.479Y4.25
T6
X3.2049Y4.281
X3.8112Y4.281
T7
X3.2856Y4.1648
X3.7344Y4.1629
T0
M30
