G04 (created by PCBNEW (2011-nov-30)-testing) date ven. 21 sept. 2012 14:12:35 CEST*
%MOIN*%
G04 Gerber Fmt 3.4, Leading zero omitted, Abs format*
%FSLAX34Y34*%
G01*
G70*
G90*
G04 APERTURE LIST*
%ADD10C,0.006*%
%ADD11C,0.015*%
%ADD12R,0.035X0.055*%
%ADD13R,0.055X0.035*%
%ADD14R,0.045X0.025*%
%ADD15R,0.025X0.045*%
%ADD16R,0.06X0.06*%
%ADD17C,0.06*%
%ADD18O,0.078X0.156*%
%ADD19R,0.05X0.02*%
%ADD20R,0.02X0.045*%
%ADD21R,0.0787X0.2165*%
%ADD22C,0.1417*%
%ADD23R,0.07X0.07*%
%ADD24C,0.08*%
%ADD25C,0.1*%
%ADD26C,0.035*%
%ADD27C,0.02*%
%ADD28C,0.01*%
%ADD29C,0.008*%
%ADD30C,0.005*%
G04 APERTURE END LIST*
G54D10*
G54D11*
X19700Y-39375D02*
X19700Y-39400D01*
X41300Y-39375D02*
X19700Y-39375D01*
X41300Y-73225D02*
X41300Y-39375D01*
X39375Y-73225D02*
X41300Y-73225D01*
X19685Y-73228D02*
X19685Y-39370D01*
X39370Y-73228D02*
X19685Y-73228D01*
G54D12*
X23247Y-40748D03*
X23997Y-40748D03*
G54D13*
X21260Y-42538D03*
X21260Y-43288D03*
X32480Y-54349D03*
X32480Y-55099D03*
X28346Y-51495D03*
X28346Y-52245D03*
X27165Y-39979D03*
X27165Y-40729D03*
G54D12*
X29743Y-39961D03*
X30493Y-39961D03*
G54D13*
X30217Y-48308D03*
X30217Y-47558D03*
G54D14*
X24016Y-72643D03*
X24016Y-72043D03*
X36319Y-60330D03*
X36319Y-60930D03*
G54D15*
X30802Y-49508D03*
X31402Y-49508D03*
G54D14*
X24016Y-68106D03*
X24016Y-68706D03*
G54D15*
X29424Y-41831D03*
X30024Y-41831D03*
G54D14*
X28642Y-40448D03*
X28642Y-41048D03*
X31102Y-42918D03*
X31102Y-42318D03*
G54D15*
X36245Y-64055D03*
X35645Y-64055D03*
G54D14*
X38681Y-54720D03*
X38681Y-55320D03*
X36122Y-54926D03*
X36122Y-54326D03*
G54D15*
X29720Y-43504D03*
X30320Y-43504D03*
G54D14*
X28642Y-62200D03*
X28642Y-62800D03*
X27067Y-59936D03*
X27067Y-60536D03*
X37992Y-47741D03*
X37992Y-47141D03*
G54D15*
X23420Y-59646D03*
X24020Y-59646D03*
G54D16*
X23705Y-56110D03*
G54D17*
X23705Y-55110D03*
X24705Y-56110D03*
X24705Y-55110D03*
X25705Y-56110D03*
X25705Y-55110D03*
G54D16*
X24961Y-64173D03*
G54D17*
X25961Y-64173D03*
X26961Y-64173D03*
X27961Y-64173D03*
X28961Y-64173D03*
X29961Y-64173D03*
G54D18*
X24790Y-42500D03*
X22820Y-42500D03*
G54D19*
X32550Y-53545D03*
X32550Y-53045D03*
X32550Y-52545D03*
X32550Y-52045D03*
X32550Y-51545D03*
X32550Y-51045D03*
X32550Y-50545D03*
X32550Y-50045D03*
X32550Y-49545D03*
X32550Y-49045D03*
X32550Y-48545D03*
X32550Y-48045D03*
X32550Y-47545D03*
X32550Y-47045D03*
X36150Y-47045D03*
X36150Y-47545D03*
X36150Y-48045D03*
X36150Y-48545D03*
X36150Y-49045D03*
X36150Y-49545D03*
X36150Y-50045D03*
X36150Y-50545D03*
X36150Y-51045D03*
X36150Y-51545D03*
X36150Y-52045D03*
X36150Y-52545D03*
X36150Y-53045D03*
X36150Y-53545D03*
G54D20*
X32654Y-56183D03*
X33154Y-56183D03*
X33654Y-56183D03*
X34154Y-56183D03*
X34654Y-56183D03*
X35154Y-56183D03*
X35654Y-56183D03*
X35654Y-58283D03*
X35154Y-58283D03*
X34654Y-58283D03*
X34154Y-58283D03*
X33654Y-58283D03*
X33154Y-58283D03*
X32654Y-58283D03*
G54D21*
X37992Y-49430D03*
X37992Y-53130D03*
G54D16*
X22039Y-64173D03*
G54D17*
X23039Y-64173D03*
G54D14*
X36000Y-42050D03*
X36000Y-41450D03*
X34250Y-42050D03*
X34250Y-41450D03*
G54D22*
X32856Y-41648D03*
X37344Y-41629D03*
G54D23*
X36832Y-44129D03*
G54D24*
X36360Y-45133D03*
X35848Y-44129D03*
X35336Y-45133D03*
X34864Y-44129D03*
X34352Y-45133D03*
X33840Y-44129D03*
X33368Y-45133D03*
X37718Y-40054D03*
X36714Y-40054D03*
X33486Y-40054D03*
X32482Y-40054D03*
G54D25*
X38112Y-42810D03*
X32049Y-42810D03*
G54D16*
X23016Y-70874D03*
G54D17*
X23016Y-69874D03*
X24016Y-70874D03*
X24016Y-69874D03*
X25016Y-70874D03*
X25016Y-69874D03*
G54D16*
X22547Y-50705D03*
G54D17*
X21547Y-50705D03*
X22547Y-49705D03*
X21547Y-49705D03*
X22547Y-48705D03*
X21547Y-48705D03*
G54D16*
X27232Y-66937D03*
G54D17*
X27232Y-65937D03*
X28232Y-66937D03*
X28232Y-65937D03*
X29232Y-66937D03*
X29232Y-65937D03*
X30232Y-66937D03*
X30232Y-65937D03*
X31232Y-66937D03*
X31232Y-65937D03*
G54D16*
X37591Y-56268D03*
G54D17*
X38591Y-56268D03*
X37591Y-57268D03*
X38591Y-57268D03*
X37591Y-58268D03*
X38591Y-58268D03*
X37591Y-59268D03*
X38591Y-59268D03*
X37591Y-60268D03*
X38591Y-60268D03*
G54D16*
X21760Y-46063D03*
G54D17*
X20760Y-46063D03*
G54D26*
X28051Y-39961D03*
X35157Y-47953D03*
X34724Y-49409D03*
X35551Y-64882D03*
X37283Y-62165D03*
X35531Y-52067D03*
X26378Y-59941D03*
X25787Y-71850D03*
X29035Y-51181D03*
X22441Y-67520D03*
X20079Y-48130D03*
X25295Y-57480D03*
X37520Y-61535D03*
X35138Y-60335D03*
X30217Y-49508D03*
X27953Y-61909D03*
X24902Y-65256D03*
X31201Y-50984D03*
X31890Y-49114D03*
X24606Y-59646D03*
X29606Y-68937D03*
X26772Y-56890D03*
X29233Y-58957D03*
X27953Y-61024D03*
X36378Y-64843D03*
X25000Y-60138D03*
X30512Y-55413D03*
X28300Y-55200D03*
X27600Y-57100D03*
X26600Y-55000D03*
X23000Y-55600D03*
X38600Y-45150D03*
X37000Y-52400D03*
X37000Y-53000D03*
X39000Y-46000D03*
X33268Y-47638D03*
X32579Y-46358D03*
X29134Y-43406D03*
X28642Y-41831D03*
X25000Y-61417D03*
X27795Y-60000D03*
X31732Y-61378D03*
X24213Y-58858D03*
X26378Y-58957D03*
X32677Y-61142D03*
X25827Y-58150D03*
X34055Y-61693D03*
X29429Y-61516D03*
X33150Y-63189D03*
X28445Y-59055D03*
G54D27*
X22820Y-42500D02*
X21298Y-42500D01*
X21298Y-42500D02*
X21260Y-42538D01*
X23247Y-40748D02*
X23247Y-40336D01*
X20760Y-40839D02*
X20472Y-40839D01*
X21260Y-41339D02*
X20760Y-40839D01*
X23247Y-40336D02*
X23604Y-39979D01*
X28543Y-39961D02*
X28642Y-40060D01*
X28051Y-39961D02*
X29743Y-39961D01*
X28543Y-39961D02*
X28051Y-39961D01*
X28051Y-39961D02*
X27183Y-39961D01*
X23604Y-39979D02*
X27165Y-39979D01*
X28642Y-40448D02*
X28642Y-40060D01*
X22820Y-41175D02*
X23247Y-40748D01*
X22820Y-42500D02*
X22820Y-41175D01*
X21260Y-42538D02*
X21260Y-41339D01*
X27183Y-39961D02*
X27165Y-39979D01*
G54D28*
X37717Y-62165D02*
X38071Y-61811D01*
X36688Y-54326D02*
X36122Y-54326D01*
G54D27*
X36150Y-49045D02*
X36150Y-49545D01*
G54D28*
X38071Y-55709D02*
X36688Y-54326D01*
G54D27*
X35632Y-53545D02*
X36150Y-53545D01*
X35593Y-47045D02*
X36150Y-47045D01*
X36150Y-54298D02*
X36122Y-54326D01*
X35118Y-49045D02*
X35118Y-47953D01*
X35645Y-64788D02*
X35551Y-64882D01*
X35088Y-49045D02*
X35118Y-49045D01*
X35531Y-52067D02*
X35531Y-53444D01*
X34724Y-49409D02*
X35088Y-49045D01*
X36150Y-53545D02*
X36150Y-54298D01*
X35531Y-53444D02*
X35632Y-53545D01*
X35531Y-52067D02*
X35553Y-52045D01*
X35553Y-52045D02*
X36150Y-52045D01*
X35118Y-47520D02*
X35593Y-47045D01*
X35118Y-49045D02*
X36150Y-49045D01*
X35645Y-64055D02*
X35645Y-64788D01*
G54D28*
X37283Y-62165D02*
X37717Y-62165D01*
G54D27*
X35157Y-47953D02*
X35118Y-47953D01*
G54D28*
X38071Y-61811D02*
X38071Y-55709D01*
G54D27*
X35118Y-47953D02*
X35118Y-47520D01*
X35138Y-60335D02*
X35143Y-60330D01*
X32972Y-59154D02*
X34547Y-59154D01*
X22540Y-67421D02*
X22441Y-67520D01*
G54D28*
X26181Y-59941D02*
X25295Y-59055D01*
X27961Y-64173D02*
X27961Y-63181D01*
G54D27*
X32654Y-58283D02*
X32654Y-58836D01*
G54D28*
X25295Y-59055D02*
X25295Y-57480D01*
X28346Y-51495D02*
X28721Y-51495D01*
X21265Y-72643D02*
X20079Y-71457D01*
G54D27*
X24994Y-72643D02*
X25787Y-71850D01*
X26280Y-65649D02*
X26280Y-69587D01*
G54D28*
X24016Y-72643D02*
X21265Y-72643D01*
G54D27*
X29233Y-70570D02*
X27263Y-70570D01*
G54D28*
X28721Y-51495D02*
X29035Y-51181D01*
G54D27*
X27854Y-65256D02*
X26673Y-65256D01*
G54D28*
X30224Y-66937D02*
X29724Y-66437D01*
X28838Y-64862D02*
X28149Y-64173D01*
X20079Y-71457D02*
X20079Y-48130D01*
X27953Y-61909D02*
X27658Y-61614D01*
G54D27*
X26378Y-59941D02*
X26383Y-59936D01*
X26673Y-65256D02*
X26280Y-65649D01*
X24016Y-72643D02*
X24994Y-72643D01*
G54D28*
X29724Y-65453D02*
X29133Y-64862D01*
X29724Y-66437D02*
X29724Y-65453D01*
X29133Y-64862D02*
X28838Y-64862D01*
X28149Y-64173D02*
X27961Y-64173D01*
G54D27*
X27263Y-70570D02*
X26280Y-69587D01*
G54D28*
X27961Y-63181D02*
X28342Y-62800D01*
G54D27*
X28232Y-65634D02*
X27854Y-65256D01*
X35143Y-60330D02*
X36319Y-60330D01*
X35138Y-59745D02*
X35138Y-60335D01*
X32654Y-58836D02*
X32972Y-59154D01*
G54D28*
X36929Y-60944D02*
X36929Y-60629D01*
G54D27*
X34547Y-59154D02*
X35138Y-59745D01*
X26383Y-59936D02*
X27067Y-59936D01*
G54D28*
X28342Y-62800D02*
X28642Y-62800D01*
G54D27*
X30217Y-49508D02*
X30802Y-49508D01*
G54D28*
X26378Y-61023D02*
X26378Y-59941D01*
X37520Y-61535D02*
X36929Y-60944D01*
X26969Y-61614D02*
X26378Y-61023D01*
G54D27*
X30232Y-69571D02*
X29233Y-70570D01*
G54D28*
X36929Y-60629D02*
X36630Y-60330D01*
G54D27*
X26280Y-69587D02*
X26280Y-71357D01*
G54D28*
X30232Y-66937D02*
X30224Y-66937D01*
X36630Y-60330D02*
X36319Y-60330D01*
X30217Y-48308D02*
X30217Y-49508D01*
G54D27*
X28232Y-65937D02*
X28232Y-65634D01*
X23720Y-67421D02*
X22540Y-67421D01*
X30232Y-66937D02*
X30232Y-69571D01*
G54D28*
X27559Y-61614D02*
X26969Y-61614D01*
X27658Y-61614D02*
X27559Y-61614D01*
X26378Y-59941D02*
X26181Y-59941D01*
G54D27*
X24016Y-68106D02*
X24016Y-67717D01*
X26280Y-71357D02*
X25787Y-71850D01*
X24016Y-67717D02*
X23720Y-67421D01*
G54D29*
X24902Y-65256D02*
X21654Y-65256D01*
X23425Y-52363D02*
X23425Y-49311D01*
X23425Y-49311D02*
X22819Y-48705D01*
X21654Y-65256D02*
X21260Y-64862D01*
X25016Y-70874D02*
X25008Y-70874D01*
X24508Y-65551D02*
X24803Y-65256D01*
X24803Y-65256D02*
X24902Y-65256D01*
X22819Y-48705D02*
X22547Y-48705D01*
X24508Y-70374D02*
X24508Y-65551D01*
X25008Y-70874D02*
X24508Y-70374D01*
X21260Y-64862D02*
X21260Y-54528D01*
X21260Y-54528D02*
X23425Y-52363D01*
X25705Y-56283D02*
X25705Y-56110D01*
X32550Y-49045D02*
X31959Y-49045D01*
X26181Y-63189D02*
X26476Y-63484D01*
X25590Y-63189D02*
X26181Y-63189D01*
X31201Y-50984D02*
X31201Y-51099D01*
X24606Y-62205D02*
X25590Y-63189D01*
X29376Y-68725D02*
X28740Y-68089D01*
X28249Y-64764D02*
X29232Y-65747D01*
X29376Y-68707D02*
X29606Y-68937D01*
X24606Y-59646D02*
X24606Y-62205D01*
X24606Y-59646D02*
X24606Y-57382D01*
X29376Y-68701D02*
X29376Y-68707D01*
X29376Y-68701D02*
X29376Y-68725D01*
X25705Y-56110D02*
X25705Y-56087D01*
X24606Y-59646D02*
X24020Y-59646D01*
X28740Y-66429D02*
X29232Y-65937D01*
X24606Y-57382D02*
X25705Y-56283D01*
X26476Y-63484D02*
X26476Y-64566D01*
X26190Y-56110D02*
X25705Y-56110D01*
X26476Y-64566D02*
X26674Y-64764D01*
X31890Y-49114D02*
X31959Y-49045D01*
X29376Y-68702D02*
X29376Y-68701D01*
X28740Y-68089D02*
X28740Y-66429D01*
X26674Y-64764D02*
X28249Y-64764D01*
X29232Y-65747D02*
X29232Y-65937D01*
X31201Y-51099D02*
X26190Y-56110D01*
X33268Y-49804D02*
X33009Y-49545D01*
X27067Y-56595D02*
X27067Y-55709D01*
X33268Y-50492D02*
X33268Y-49804D01*
X32973Y-50787D02*
X33268Y-50492D01*
X26772Y-56890D02*
X27067Y-56595D01*
X31439Y-49545D02*
X31402Y-49508D01*
X32550Y-49545D02*
X31439Y-49545D01*
X27067Y-55709D02*
X31989Y-50787D01*
X31989Y-50787D02*
X32973Y-50787D01*
X33009Y-49545D02*
X32550Y-49545D01*
X34449Y-57480D02*
X35154Y-56775D01*
X29233Y-58957D02*
X30710Y-57480D01*
X30710Y-57480D02*
X34449Y-57480D01*
X35154Y-56183D02*
X35154Y-56775D01*
G54D27*
X28642Y-62200D02*
X28642Y-61713D01*
X28642Y-61713D02*
X27953Y-61024D01*
X36245Y-64055D02*
X36245Y-64710D01*
X36245Y-64710D02*
X36378Y-64843D01*
G54D29*
X23039Y-64173D02*
X24961Y-64173D01*
X22638Y-59646D02*
X22039Y-60245D01*
X23420Y-59646D02*
X22638Y-59646D01*
X22039Y-60245D02*
X22039Y-64173D01*
X28300Y-55200D02*
X27600Y-55900D01*
X27600Y-55900D02*
X27600Y-57100D01*
X23017Y-55617D02*
X25900Y-55617D01*
X25983Y-55617D02*
X26600Y-55000D01*
X25900Y-55617D02*
X25917Y-55617D01*
X23000Y-55600D02*
X23017Y-55617D01*
X25983Y-55617D02*
X25900Y-55617D01*
X32550Y-53545D02*
X32550Y-54279D01*
X32550Y-54279D02*
X32480Y-54349D01*
X33071Y-54724D02*
X31988Y-54724D01*
X31890Y-54626D02*
X31890Y-51378D01*
X31988Y-54724D02*
X31890Y-54626D01*
X33154Y-56183D02*
X32654Y-56183D01*
X31890Y-51378D02*
X32223Y-51045D01*
X33154Y-56183D02*
X33154Y-54807D01*
X32223Y-51045D02*
X32550Y-51045D01*
X33154Y-54807D02*
X33071Y-54724D01*
X34250Y-41000D02*
X34000Y-40750D01*
X34250Y-41450D02*
X34250Y-41000D01*
X33178Y-40750D02*
X32482Y-40054D01*
X34000Y-40750D02*
X33178Y-40750D01*
X37500Y-44797D02*
X36832Y-44129D01*
X37500Y-47500D02*
X37500Y-44797D01*
X36150Y-48045D02*
X36955Y-48045D01*
X36955Y-48045D02*
X37500Y-47500D01*
X34352Y-47148D02*
X34352Y-45133D01*
X33455Y-48045D02*
X34352Y-47148D01*
X32550Y-48045D02*
X33455Y-48045D01*
X36855Y-52545D02*
X36150Y-52545D01*
X34250Y-42400D02*
X34700Y-42850D01*
X37000Y-52400D02*
X36855Y-52545D01*
X34250Y-42050D02*
X34250Y-42400D01*
X38600Y-44750D02*
X38600Y-45150D01*
X36700Y-42850D02*
X38600Y-44750D01*
X34700Y-42850D02*
X36700Y-42850D01*
X37000Y-47500D02*
X37000Y-45773D01*
X37000Y-45773D02*
X36360Y-45133D01*
X36955Y-47545D02*
X37000Y-47500D01*
X36150Y-47545D02*
X36955Y-47545D01*
X39000Y-45000D02*
X39000Y-44800D01*
X37000Y-53000D02*
X36955Y-53045D01*
X39000Y-45000D02*
X39000Y-46000D01*
X39000Y-44800D02*
X36250Y-42050D01*
X36250Y-42050D02*
X36000Y-42050D01*
X36150Y-53045D02*
X36955Y-53045D01*
X37022Y-40750D02*
X37718Y-40054D01*
X36000Y-41250D02*
X36500Y-40750D01*
X36500Y-40750D02*
X37022Y-40750D01*
X36000Y-41450D02*
X36000Y-41250D01*
X33268Y-47638D02*
X33175Y-47545D01*
X33175Y-47545D02*
X32550Y-47545D01*
X32550Y-52045D02*
X33147Y-52045D01*
X34154Y-53052D02*
X34154Y-56183D01*
X34654Y-56183D02*
X34154Y-56183D01*
X33147Y-52045D02*
X34154Y-53052D01*
X32579Y-46358D02*
X32550Y-46387D01*
X32550Y-46387D02*
X32550Y-47045D01*
X38681Y-54720D02*
X38681Y-53819D01*
X37076Y-51545D02*
X36150Y-51545D01*
X38681Y-53819D02*
X37992Y-53130D01*
X37992Y-52461D02*
X37076Y-51545D01*
X37992Y-53130D02*
X37992Y-52461D01*
X37992Y-47741D02*
X37992Y-49430D01*
X36750Y-51045D02*
X36150Y-51045D01*
X37992Y-49430D02*
X37992Y-49803D01*
X37992Y-49803D02*
X36750Y-51045D01*
X30905Y-43504D02*
X31102Y-43307D01*
X31102Y-43307D02*
X31102Y-42918D01*
X30320Y-43504D02*
X30905Y-43504D01*
X29720Y-43504D02*
X29232Y-43504D01*
X29232Y-43504D02*
X29134Y-43406D01*
X29424Y-41831D02*
X28938Y-41831D01*
X28938Y-41831D02*
X28790Y-41683D01*
X28790Y-41683D02*
X28642Y-41831D01*
X28790Y-41683D02*
X28642Y-41535D01*
X28642Y-41535D02*
X28642Y-41048D01*
X25000Y-62008D02*
X25000Y-61417D01*
X26181Y-62697D02*
X25689Y-62697D01*
X25689Y-62697D02*
X25000Y-62008D01*
X26961Y-63477D02*
X26181Y-62697D01*
X26961Y-64173D02*
X26961Y-63477D01*
X21161Y-49213D02*
X22055Y-49213D01*
X20472Y-70669D02*
X20472Y-49902D01*
X20472Y-49902D02*
X21161Y-49213D01*
X24016Y-72043D02*
X24016Y-70874D01*
X21846Y-72043D02*
X20472Y-70669D01*
X24016Y-72043D02*
X21846Y-72043D01*
X22055Y-49213D02*
X22547Y-49705D01*
X24016Y-68706D02*
X22840Y-68706D01*
X20866Y-66732D02*
X20866Y-50386D01*
X24016Y-68706D02*
X24016Y-69874D01*
X22840Y-68706D02*
X20866Y-66732D01*
X20866Y-50386D02*
X21547Y-49705D01*
X30787Y-60433D02*
X28228Y-60433D01*
X28228Y-60433D02*
X27795Y-60000D01*
X24213Y-58858D02*
X22638Y-57283D01*
X22638Y-57283D02*
X22638Y-54822D01*
X27415Y-50045D02*
X32550Y-50045D01*
X22638Y-54822D02*
X27415Y-50045D01*
X31732Y-61378D02*
X30787Y-60433D01*
X26378Y-58957D02*
X26673Y-58957D01*
X28740Y-56890D02*
X26673Y-58957D01*
X33654Y-56183D02*
X33654Y-56504D01*
X33654Y-56504D02*
X33268Y-56890D01*
X33268Y-56890D02*
X28740Y-56890D01*
X31220Y-59685D02*
X28386Y-59685D01*
X26378Y-58957D02*
X27658Y-58957D01*
X28386Y-59685D02*
X27658Y-58957D01*
X32677Y-61142D02*
X31220Y-59685D01*
X26024Y-59134D02*
X26378Y-59488D01*
X25827Y-58150D02*
X26024Y-58347D01*
X27677Y-59488D02*
X27874Y-59488D01*
X26024Y-58347D02*
X26024Y-59134D01*
X28195Y-50545D02*
X32550Y-50545D01*
X24705Y-54035D02*
X28195Y-50545D01*
X26378Y-59488D02*
X27677Y-59488D01*
X28425Y-60039D02*
X31063Y-60039D01*
X24705Y-55110D02*
X24705Y-54035D01*
X31063Y-60039D02*
X32717Y-61693D01*
X27874Y-59488D02*
X28425Y-60039D01*
X32717Y-61693D02*
X34055Y-61693D01*
X31890Y-65256D02*
X31890Y-66279D01*
X29331Y-61614D02*
X29331Y-63287D01*
X30118Y-63484D02*
X31890Y-65256D01*
X29331Y-63287D02*
X29528Y-63484D01*
X31890Y-66279D02*
X31232Y-66937D01*
X29528Y-63484D02*
X30118Y-63484D01*
X29429Y-61516D02*
X29331Y-61614D01*
X36319Y-61476D02*
X35197Y-62598D01*
X35197Y-62598D02*
X33347Y-62598D01*
X33347Y-62598D02*
X33150Y-62795D01*
X33150Y-62795D02*
X33150Y-63189D01*
X36319Y-60930D02*
X36319Y-61476D01*
X28445Y-59055D02*
X28839Y-59449D01*
X28839Y-59449D02*
X32186Y-59449D01*
X32186Y-59449D02*
X33667Y-60930D01*
X33667Y-60930D02*
X36319Y-60930D01*
G54D10*
G36*
X31080Y-50710D02*
X31032Y-50730D01*
X30948Y-50814D01*
X30902Y-50924D01*
X30902Y-51043D01*
X30937Y-51129D01*
X29334Y-52732D01*
X29334Y-51241D01*
X29334Y-51122D01*
X29289Y-51012D01*
X29205Y-50928D01*
X29095Y-50882D01*
X28976Y-50882D01*
X28866Y-50927D01*
X28782Y-51011D01*
X28736Y-51121D01*
X28736Y-51232D01*
X28723Y-51245D01*
X28692Y-51214D01*
X28646Y-51195D01*
X28596Y-51195D01*
X28046Y-51195D01*
X28000Y-51214D01*
X27965Y-51249D01*
X27946Y-51295D01*
X27946Y-51345D01*
X27946Y-51695D01*
X27965Y-51741D01*
X28000Y-51776D01*
X28046Y-51795D01*
X28096Y-51795D01*
X28646Y-51795D01*
X28692Y-51776D01*
X28727Y-51741D01*
X28746Y-51695D01*
X28746Y-51665D01*
X28788Y-51657D01*
X28845Y-51619D01*
X28984Y-51480D01*
X29094Y-51480D01*
X29204Y-51435D01*
X29288Y-51351D01*
X29334Y-51241D01*
X29334Y-52732D01*
X28696Y-53370D01*
X28696Y-52435D01*
X28696Y-52350D01*
X28696Y-52140D01*
X28696Y-52055D01*
X28685Y-52027D01*
X28663Y-52006D01*
X28636Y-51995D01*
X28606Y-51995D01*
X28501Y-51995D01*
X28483Y-52013D01*
X28483Y-52158D01*
X28678Y-52158D01*
X28696Y-52140D01*
X28696Y-52350D01*
X28678Y-52332D01*
X28483Y-52332D01*
X28483Y-52477D01*
X28501Y-52495D01*
X28606Y-52495D01*
X28636Y-52495D01*
X28663Y-52484D01*
X28685Y-52463D01*
X28696Y-52435D01*
X28696Y-53370D01*
X28209Y-53857D01*
X28209Y-52477D01*
X28209Y-52332D01*
X28209Y-52158D01*
X28209Y-52013D01*
X28191Y-51995D01*
X28086Y-51995D01*
X28056Y-51995D01*
X28029Y-52006D01*
X28007Y-52027D01*
X27996Y-52055D01*
X27996Y-52140D01*
X28014Y-52158D01*
X28209Y-52158D01*
X28209Y-52332D01*
X28014Y-52332D01*
X27996Y-52350D01*
X27996Y-52435D01*
X28007Y-52463D01*
X28029Y-52484D01*
X28056Y-52495D01*
X28086Y-52495D01*
X28191Y-52495D01*
X28209Y-52477D01*
X28209Y-53857D01*
X26121Y-55945D01*
X26096Y-55945D01*
X26066Y-55870D01*
X25978Y-55782D01*
X25983Y-55782D01*
X26046Y-55769D01*
X26100Y-55734D01*
X26535Y-55297D01*
X26540Y-55299D01*
X26659Y-55299D01*
X26769Y-55254D01*
X26853Y-55170D01*
X26899Y-55060D01*
X26899Y-54941D01*
X26854Y-54831D01*
X26770Y-54747D01*
X26660Y-54701D01*
X26541Y-54701D01*
X26431Y-54746D01*
X26347Y-54830D01*
X26301Y-54940D01*
X26301Y-55059D01*
X26302Y-55063D01*
X26073Y-55292D01*
X26073Y-55044D01*
X26071Y-55030D01*
X26039Y-54988D01*
X25917Y-55110D01*
X26039Y-55232D01*
X26071Y-55190D01*
X26073Y-55044D01*
X26073Y-55292D01*
X25914Y-55452D01*
X25900Y-55452D01*
X25816Y-55452D01*
X25827Y-55444D01*
X25827Y-54776D01*
X25785Y-54744D01*
X25639Y-54742D01*
X25625Y-54744D01*
X25583Y-54776D01*
X25705Y-54898D01*
X25827Y-54776D01*
X25827Y-55444D01*
X25705Y-55322D01*
X25583Y-55444D01*
X25593Y-55452D01*
X25493Y-55452D01*
X25493Y-55110D01*
X25371Y-54988D01*
X25339Y-55030D01*
X25337Y-55176D01*
X25339Y-55190D01*
X25371Y-55232D01*
X25493Y-55110D01*
X25493Y-55452D01*
X24964Y-55452D01*
X25065Y-55351D01*
X25130Y-55195D01*
X25130Y-55026D01*
X25066Y-54870D01*
X24946Y-54750D01*
X24870Y-54718D01*
X24870Y-54103D01*
X28263Y-50710D01*
X31080Y-50710D01*
X31080Y-50710D01*
G37*
G54D30*
X31080Y-50710D02*
X31032Y-50730D01*
X30948Y-50814D01*
X30902Y-50924D01*
X30902Y-51043D01*
X30937Y-51129D01*
X29334Y-52732D01*
X29334Y-51241D01*
X29334Y-51122D01*
X29289Y-51012D01*
X29205Y-50928D01*
X29095Y-50882D01*
X28976Y-50882D01*
X28866Y-50927D01*
X28782Y-51011D01*
X28736Y-51121D01*
X28736Y-51232D01*
X28723Y-51245D01*
X28692Y-51214D01*
X28646Y-51195D01*
X28596Y-51195D01*
X28046Y-51195D01*
X28000Y-51214D01*
X27965Y-51249D01*
X27946Y-51295D01*
X27946Y-51345D01*
X27946Y-51695D01*
X27965Y-51741D01*
X28000Y-51776D01*
X28046Y-51795D01*
X28096Y-51795D01*
X28646Y-51795D01*
X28692Y-51776D01*
X28727Y-51741D01*
X28746Y-51695D01*
X28746Y-51665D01*
X28788Y-51657D01*
X28845Y-51619D01*
X28984Y-51480D01*
X29094Y-51480D01*
X29204Y-51435D01*
X29288Y-51351D01*
X29334Y-51241D01*
X29334Y-52732D01*
X28696Y-53370D01*
X28696Y-52435D01*
X28696Y-52350D01*
X28696Y-52140D01*
X28696Y-52055D01*
X28685Y-52027D01*
X28663Y-52006D01*
X28636Y-51995D01*
X28606Y-51995D01*
X28501Y-51995D01*
X28483Y-52013D01*
X28483Y-52158D01*
X28678Y-52158D01*
X28696Y-52140D01*
X28696Y-52350D01*
X28678Y-52332D01*
X28483Y-52332D01*
X28483Y-52477D01*
X28501Y-52495D01*
X28606Y-52495D01*
X28636Y-52495D01*
X28663Y-52484D01*
X28685Y-52463D01*
X28696Y-52435D01*
X28696Y-53370D01*
X28209Y-53857D01*
X28209Y-52477D01*
X28209Y-52332D01*
X28209Y-52158D01*
X28209Y-52013D01*
X28191Y-51995D01*
X28086Y-51995D01*
X28056Y-51995D01*
X28029Y-52006D01*
X28007Y-52027D01*
X27996Y-52055D01*
X27996Y-52140D01*
X28014Y-52158D01*
X28209Y-52158D01*
X28209Y-52332D01*
X28014Y-52332D01*
X27996Y-52350D01*
X27996Y-52435D01*
X28007Y-52463D01*
X28029Y-52484D01*
X28056Y-52495D01*
X28086Y-52495D01*
X28191Y-52495D01*
X28209Y-52477D01*
X28209Y-53857D01*
X26121Y-55945D01*
X26096Y-55945D01*
X26066Y-55870D01*
X25978Y-55782D01*
X25983Y-55782D01*
X26046Y-55769D01*
X26100Y-55734D01*
X26535Y-55297D01*
X26540Y-55299D01*
X26659Y-55299D01*
X26769Y-55254D01*
X26853Y-55170D01*
X26899Y-55060D01*
X26899Y-54941D01*
X26854Y-54831D01*
X26770Y-54747D01*
X26660Y-54701D01*
X26541Y-54701D01*
X26431Y-54746D01*
X26347Y-54830D01*
X26301Y-54940D01*
X26301Y-55059D01*
X26302Y-55063D01*
X26073Y-55292D01*
X26073Y-55044D01*
X26071Y-55030D01*
X26039Y-54988D01*
X25917Y-55110D01*
X26039Y-55232D01*
X26071Y-55190D01*
X26073Y-55044D01*
X26073Y-55292D01*
X25914Y-55452D01*
X25900Y-55452D01*
X25816Y-55452D01*
X25827Y-55444D01*
X25827Y-54776D01*
X25785Y-54744D01*
X25639Y-54742D01*
X25625Y-54744D01*
X25583Y-54776D01*
X25705Y-54898D01*
X25827Y-54776D01*
X25827Y-55444D01*
X25705Y-55322D01*
X25583Y-55444D01*
X25593Y-55452D01*
X25493Y-55452D01*
X25493Y-55110D01*
X25371Y-54988D01*
X25339Y-55030D01*
X25337Y-55176D01*
X25339Y-55190D01*
X25371Y-55232D01*
X25493Y-55110D01*
X25493Y-55452D01*
X24964Y-55452D01*
X25065Y-55351D01*
X25130Y-55195D01*
X25130Y-55026D01*
X25066Y-54870D01*
X24946Y-54750D01*
X24870Y-54718D01*
X24870Y-54103D01*
X28263Y-50710D01*
X31080Y-50710D01*
G54D10*
G36*
X39170Y-73028D02*
X39031Y-73028D01*
X39031Y-54870D01*
X39031Y-54820D01*
X39031Y-54570D01*
X39012Y-54524D01*
X38977Y-54489D01*
X38931Y-54470D01*
X38881Y-54470D01*
X38846Y-54470D01*
X38846Y-53819D01*
X38833Y-53756D01*
X38798Y-53702D01*
X38795Y-53700D01*
X38510Y-53414D01*
X38510Y-52023D01*
X38510Y-50537D01*
X38510Y-50487D01*
X38510Y-48323D01*
X38491Y-48277D01*
X38456Y-48242D01*
X38410Y-48223D01*
X38360Y-48223D01*
X38157Y-48223D01*
X38157Y-47991D01*
X38242Y-47991D01*
X38288Y-47972D01*
X38323Y-47937D01*
X38342Y-47891D01*
X38342Y-47841D01*
X38342Y-47591D01*
X38323Y-47545D01*
X38292Y-47514D01*
X38292Y-47281D01*
X38292Y-47221D01*
X38292Y-47061D01*
X38292Y-47001D01*
X38281Y-46973D01*
X38259Y-46952D01*
X38232Y-46941D01*
X38202Y-46941D01*
X38122Y-46941D01*
X38104Y-46959D01*
X38104Y-47079D01*
X38274Y-47079D01*
X38292Y-47061D01*
X38292Y-47221D01*
X38274Y-47203D01*
X38104Y-47203D01*
X38104Y-47323D01*
X38122Y-47341D01*
X38202Y-47341D01*
X38232Y-47341D01*
X38259Y-47330D01*
X38281Y-47309D01*
X38292Y-47281D01*
X38292Y-47514D01*
X38288Y-47510D01*
X38242Y-47491D01*
X38192Y-47491D01*
X37880Y-47491D01*
X37880Y-47323D01*
X37880Y-47203D01*
X37880Y-47079D01*
X37880Y-46959D01*
X37862Y-46941D01*
X37782Y-46941D01*
X37752Y-46941D01*
X37725Y-46952D01*
X37703Y-46973D01*
X37692Y-47001D01*
X37692Y-47061D01*
X37710Y-47079D01*
X37880Y-47079D01*
X37880Y-47203D01*
X37710Y-47203D01*
X37692Y-47221D01*
X37692Y-47281D01*
X37703Y-47309D01*
X37725Y-47330D01*
X37752Y-47341D01*
X37782Y-47341D01*
X37862Y-47341D01*
X37880Y-47323D01*
X37880Y-47491D01*
X37742Y-47491D01*
X37696Y-47510D01*
X37665Y-47541D01*
X37665Y-47501D01*
X37664Y-47500D01*
X37665Y-47500D01*
X37665Y-44797D01*
X37652Y-44734D01*
X37617Y-44680D01*
X37614Y-44678D01*
X37307Y-44370D01*
X37307Y-43754D01*
X37288Y-43708D01*
X37253Y-43673D01*
X37207Y-43654D01*
X37157Y-43654D01*
X36457Y-43654D01*
X36411Y-43673D01*
X36376Y-43708D01*
X36357Y-43754D01*
X36357Y-43804D01*
X36357Y-43986D01*
X36293Y-43832D01*
X36146Y-43684D01*
X35953Y-43604D01*
X35744Y-43604D01*
X35551Y-43684D01*
X35403Y-43831D01*
X35355Y-43944D01*
X35309Y-43832D01*
X35162Y-43684D01*
X34969Y-43604D01*
X34760Y-43604D01*
X34567Y-43684D01*
X34419Y-43831D01*
X34351Y-43993D01*
X34285Y-43832D01*
X34138Y-43684D01*
X33945Y-43604D01*
X33736Y-43604D01*
X33543Y-43684D01*
X33395Y-43831D01*
X33315Y-44024D01*
X33315Y-44233D01*
X33395Y-44426D01*
X33542Y-44574D01*
X33735Y-44654D01*
X33944Y-44654D01*
X34137Y-44574D01*
X34285Y-44427D01*
X34352Y-44264D01*
X34419Y-44426D01*
X34566Y-44574D01*
X34759Y-44654D01*
X34968Y-44654D01*
X35161Y-44574D01*
X35309Y-44427D01*
X35356Y-44313D01*
X35403Y-44426D01*
X35550Y-44574D01*
X35743Y-44654D01*
X35952Y-44654D01*
X36145Y-44574D01*
X36293Y-44427D01*
X36357Y-44272D01*
X36357Y-44504D01*
X36376Y-44550D01*
X36411Y-44585D01*
X36457Y-44604D01*
X36507Y-44604D01*
X37073Y-44604D01*
X37335Y-44865D01*
X37335Y-47431D01*
X37165Y-47601D01*
X37165Y-47500D01*
X37165Y-45773D01*
X37152Y-45710D01*
X37117Y-45656D01*
X36830Y-45369D01*
X36885Y-45238D01*
X36885Y-45029D01*
X36805Y-44836D01*
X36658Y-44688D01*
X36465Y-44608D01*
X36256Y-44608D01*
X36063Y-44688D01*
X35915Y-44835D01*
X35847Y-44997D01*
X35781Y-44836D01*
X35634Y-44688D01*
X35441Y-44608D01*
X35232Y-44608D01*
X35039Y-44688D01*
X34891Y-44835D01*
X34843Y-44948D01*
X34797Y-44836D01*
X34650Y-44688D01*
X34457Y-44608D01*
X34248Y-44608D01*
X34055Y-44688D01*
X33907Y-44835D01*
X33859Y-44948D01*
X33813Y-44836D01*
X33666Y-44688D01*
X33473Y-44608D01*
X33264Y-44608D01*
X33071Y-44688D01*
X32923Y-44835D01*
X32843Y-45028D01*
X32843Y-45237D01*
X32923Y-45430D01*
X33070Y-45578D01*
X33263Y-45658D01*
X33472Y-45658D01*
X33665Y-45578D01*
X33813Y-45431D01*
X33860Y-45317D01*
X33907Y-45430D01*
X34054Y-45578D01*
X34187Y-45633D01*
X34187Y-47079D01*
X33567Y-47698D01*
X33567Y-47579D01*
X33522Y-47469D01*
X33438Y-47385D01*
X33328Y-47339D01*
X33209Y-47339D01*
X33108Y-47380D01*
X32925Y-47380D01*
X32925Y-47170D01*
X32925Y-47120D01*
X32925Y-46920D01*
X32906Y-46874D01*
X32871Y-46839D01*
X32825Y-46820D01*
X32775Y-46820D01*
X32715Y-46820D01*
X32715Y-46625D01*
X32748Y-46612D01*
X32832Y-46528D01*
X32878Y-46418D01*
X32878Y-46299D01*
X32833Y-46189D01*
X32749Y-46105D01*
X32639Y-46059D01*
X32615Y-46059D01*
X32615Y-42715D01*
X32609Y-42681D01*
X32568Y-42609D01*
X32367Y-42810D01*
X32568Y-43011D01*
X32609Y-42939D01*
X32615Y-42715D01*
X32615Y-46059D01*
X32520Y-46059D01*
X32410Y-46104D01*
X32326Y-46188D01*
X32280Y-46298D01*
X32280Y-46417D01*
X32325Y-46527D01*
X32385Y-46587D01*
X32385Y-46820D01*
X32275Y-46820D01*
X32250Y-46830D01*
X32250Y-43329D01*
X32250Y-42291D01*
X32178Y-42250D01*
X31954Y-42244D01*
X31920Y-42250D01*
X31848Y-42291D01*
X32049Y-42492D01*
X32250Y-42291D01*
X32250Y-43329D01*
X32049Y-43128D01*
X31848Y-43329D01*
X31920Y-43370D01*
X32144Y-43376D01*
X32178Y-43370D01*
X32250Y-43329D01*
X32250Y-46830D01*
X32229Y-46839D01*
X32194Y-46874D01*
X32175Y-46920D01*
X32175Y-46970D01*
X32175Y-47170D01*
X32194Y-47216D01*
X32229Y-47251D01*
X32275Y-47270D01*
X32325Y-47270D01*
X32825Y-47270D01*
X32871Y-47251D01*
X32906Y-47216D01*
X32925Y-47170D01*
X32925Y-47380D01*
X32908Y-47380D01*
X32906Y-47374D01*
X32871Y-47339D01*
X32825Y-47320D01*
X32775Y-47320D01*
X32275Y-47320D01*
X32229Y-47339D01*
X32194Y-47374D01*
X32175Y-47420D01*
X32175Y-47470D01*
X32175Y-47670D01*
X32194Y-47716D01*
X32229Y-47751D01*
X32275Y-47770D01*
X32325Y-47770D01*
X32825Y-47770D01*
X32871Y-47751D01*
X32906Y-47716D01*
X32908Y-47710D01*
X32974Y-47710D01*
X33014Y-47807D01*
X33087Y-47880D01*
X32908Y-47880D01*
X32906Y-47874D01*
X32871Y-47839D01*
X32825Y-47820D01*
X32775Y-47820D01*
X32275Y-47820D01*
X32229Y-47839D01*
X32194Y-47874D01*
X32175Y-47920D01*
X32175Y-47970D01*
X32175Y-48170D01*
X32194Y-48216D01*
X32229Y-48251D01*
X32275Y-48270D01*
X32325Y-48270D01*
X32825Y-48270D01*
X32871Y-48251D01*
X32906Y-48216D01*
X32908Y-48210D01*
X33455Y-48210D01*
X33518Y-48197D01*
X33572Y-48162D01*
X34466Y-47266D01*
X34468Y-47265D01*
X34469Y-47265D01*
X34504Y-47211D01*
X34517Y-47148D01*
X34517Y-45632D01*
X34649Y-45578D01*
X34797Y-45431D01*
X34844Y-45317D01*
X34891Y-45430D01*
X35038Y-45578D01*
X35231Y-45658D01*
X35440Y-45658D01*
X35633Y-45578D01*
X35781Y-45431D01*
X35848Y-45268D01*
X35915Y-45430D01*
X36062Y-45578D01*
X36255Y-45658D01*
X36464Y-45658D01*
X36596Y-45603D01*
X36835Y-45842D01*
X36835Y-47380D01*
X36508Y-47380D01*
X36506Y-47374D01*
X36471Y-47339D01*
X36425Y-47320D01*
X36375Y-47320D01*
X35875Y-47320D01*
X35829Y-47339D01*
X35794Y-47374D01*
X35775Y-47420D01*
X35775Y-47470D01*
X35775Y-47670D01*
X35794Y-47716D01*
X35829Y-47751D01*
X35875Y-47770D01*
X35925Y-47770D01*
X36425Y-47770D01*
X36471Y-47751D01*
X36506Y-47716D01*
X36508Y-47710D01*
X36955Y-47710D01*
X37018Y-47697D01*
X37072Y-47662D01*
X37114Y-47618D01*
X37116Y-47617D01*
X37117Y-47617D01*
X37152Y-47563D01*
X37165Y-47500D01*
X37165Y-47601D01*
X36886Y-47880D01*
X36508Y-47880D01*
X36506Y-47874D01*
X36471Y-47839D01*
X36425Y-47820D01*
X36375Y-47820D01*
X35875Y-47820D01*
X35829Y-47839D01*
X35794Y-47874D01*
X35775Y-47920D01*
X35775Y-47970D01*
X35775Y-48170D01*
X35794Y-48216D01*
X35829Y-48251D01*
X35875Y-48270D01*
X35925Y-48270D01*
X36425Y-48270D01*
X36471Y-48251D01*
X36506Y-48216D01*
X36508Y-48210D01*
X36955Y-48210D01*
X37018Y-48197D01*
X37072Y-48162D01*
X37614Y-47618D01*
X37616Y-47617D01*
X37617Y-47617D01*
X37652Y-47563D01*
X37665Y-47501D01*
X37665Y-47541D01*
X37661Y-47545D01*
X37642Y-47591D01*
X37642Y-47641D01*
X37642Y-47891D01*
X37661Y-47937D01*
X37696Y-47972D01*
X37742Y-47991D01*
X37792Y-47991D01*
X37827Y-47991D01*
X37827Y-48223D01*
X37574Y-48223D01*
X37528Y-48242D01*
X37493Y-48277D01*
X37474Y-48323D01*
X37474Y-48373D01*
X37474Y-50087D01*
X36681Y-50880D01*
X36525Y-50880D01*
X36525Y-49670D01*
X36525Y-49620D01*
X36525Y-49420D01*
X36506Y-49374D01*
X36471Y-49339D01*
X36425Y-49320D01*
X36375Y-49320D01*
X36375Y-49270D01*
X36425Y-49270D01*
X36471Y-49251D01*
X36506Y-49216D01*
X36525Y-49170D01*
X36525Y-49120D01*
X36525Y-48920D01*
X36506Y-48874D01*
X36475Y-48843D01*
X36475Y-48660D01*
X36475Y-48613D01*
X36475Y-48477D01*
X36475Y-48430D01*
X36464Y-48402D01*
X36442Y-48381D01*
X36415Y-48370D01*
X36385Y-48370D01*
X36293Y-48370D01*
X36275Y-48388D01*
X36275Y-48495D01*
X36457Y-48495D01*
X36475Y-48477D01*
X36475Y-48613D01*
X36457Y-48595D01*
X36275Y-48595D01*
X36275Y-48702D01*
X36293Y-48720D01*
X36385Y-48720D01*
X36415Y-48720D01*
X36442Y-48709D01*
X36464Y-48688D01*
X36475Y-48660D01*
X36475Y-48843D01*
X36471Y-48839D01*
X36425Y-48820D01*
X36375Y-48820D01*
X36150Y-48820D01*
X36025Y-48820D01*
X36025Y-48702D01*
X36025Y-48595D01*
X36025Y-48495D01*
X36025Y-48388D01*
X36007Y-48370D01*
X35915Y-48370D01*
X35885Y-48370D01*
X35858Y-48381D01*
X35836Y-48402D01*
X35825Y-48430D01*
X35825Y-48477D01*
X35843Y-48495D01*
X36025Y-48495D01*
X36025Y-48595D01*
X35843Y-48595D01*
X35825Y-48613D01*
X35825Y-48660D01*
X35836Y-48688D01*
X35858Y-48709D01*
X35885Y-48720D01*
X35915Y-48720D01*
X36007Y-48720D01*
X36025Y-48702D01*
X36025Y-48820D01*
X35875Y-48820D01*
X35343Y-48820D01*
X35343Y-48190D01*
X35410Y-48123D01*
X35456Y-48013D01*
X35456Y-47894D01*
X35411Y-47784D01*
X35343Y-47716D01*
X35343Y-47613D01*
X35686Y-47270D01*
X35875Y-47270D01*
X35925Y-47270D01*
X36150Y-47270D01*
X36425Y-47270D01*
X36471Y-47251D01*
X36506Y-47216D01*
X36525Y-47170D01*
X36525Y-47120D01*
X36525Y-46920D01*
X36506Y-46874D01*
X36471Y-46839D01*
X36425Y-46820D01*
X36375Y-46820D01*
X36150Y-46820D01*
X35875Y-46820D01*
X35593Y-46820D01*
X35507Y-46837D01*
X35482Y-46853D01*
X35433Y-46886D01*
X34959Y-47361D01*
X34910Y-47434D01*
X34893Y-47520D01*
X34893Y-47809D01*
X34858Y-47893D01*
X34858Y-48012D01*
X34893Y-48097D01*
X34893Y-48921D01*
X34704Y-49110D01*
X34665Y-49110D01*
X34555Y-49155D01*
X34471Y-49239D01*
X34425Y-49349D01*
X34425Y-49468D01*
X34470Y-49578D01*
X34554Y-49662D01*
X34664Y-49708D01*
X34783Y-49708D01*
X34893Y-49663D01*
X34977Y-49579D01*
X35023Y-49469D01*
X35023Y-49428D01*
X35181Y-49270D01*
X35875Y-49270D01*
X35925Y-49270D01*
X35925Y-49320D01*
X35875Y-49320D01*
X35829Y-49339D01*
X35794Y-49374D01*
X35775Y-49420D01*
X35775Y-49470D01*
X35775Y-49670D01*
X35794Y-49716D01*
X35829Y-49751D01*
X35875Y-49770D01*
X35925Y-49770D01*
X36150Y-49770D01*
X36425Y-49770D01*
X36471Y-49751D01*
X36506Y-49716D01*
X36525Y-49670D01*
X36525Y-50880D01*
X36508Y-50880D01*
X36506Y-50874D01*
X36475Y-50843D01*
X36475Y-50660D01*
X36475Y-50613D01*
X36475Y-50477D01*
X36475Y-50430D01*
X36475Y-50160D01*
X36475Y-50113D01*
X36475Y-49977D01*
X36475Y-49930D01*
X36464Y-49902D01*
X36442Y-49881D01*
X36415Y-49870D01*
X36385Y-49870D01*
X36293Y-49870D01*
X36275Y-49888D01*
X36275Y-49995D01*
X36457Y-49995D01*
X36475Y-49977D01*
X36475Y-50113D01*
X36457Y-50095D01*
X36275Y-50095D01*
X36275Y-50202D01*
X36293Y-50220D01*
X36385Y-50220D01*
X36415Y-50220D01*
X36442Y-50209D01*
X36464Y-50188D01*
X36475Y-50160D01*
X36475Y-50430D01*
X36464Y-50402D01*
X36442Y-50381D01*
X36415Y-50370D01*
X36385Y-50370D01*
X36293Y-50370D01*
X36275Y-50388D01*
X36275Y-50495D01*
X36457Y-50495D01*
X36475Y-50477D01*
X36475Y-50613D01*
X36457Y-50595D01*
X36275Y-50595D01*
X36275Y-50702D01*
X36293Y-50720D01*
X36385Y-50720D01*
X36415Y-50720D01*
X36442Y-50709D01*
X36464Y-50688D01*
X36475Y-50660D01*
X36475Y-50843D01*
X36471Y-50839D01*
X36425Y-50820D01*
X36375Y-50820D01*
X36025Y-50820D01*
X36025Y-50702D01*
X36025Y-50595D01*
X36025Y-50495D01*
X36025Y-50388D01*
X36025Y-50202D01*
X36025Y-50095D01*
X36025Y-49995D01*
X36025Y-49888D01*
X36007Y-49870D01*
X35915Y-49870D01*
X35885Y-49870D01*
X35858Y-49881D01*
X35836Y-49902D01*
X35825Y-49930D01*
X35825Y-49977D01*
X35843Y-49995D01*
X36025Y-49995D01*
X36025Y-50095D01*
X35843Y-50095D01*
X35825Y-50113D01*
X35825Y-50160D01*
X35836Y-50188D01*
X35858Y-50209D01*
X35885Y-50220D01*
X35915Y-50220D01*
X36007Y-50220D01*
X36025Y-50202D01*
X36025Y-50388D01*
X36007Y-50370D01*
X35915Y-50370D01*
X35885Y-50370D01*
X35858Y-50381D01*
X35836Y-50402D01*
X35825Y-50430D01*
X35825Y-50477D01*
X35843Y-50495D01*
X36025Y-50495D01*
X36025Y-50595D01*
X35843Y-50595D01*
X35825Y-50613D01*
X35825Y-50660D01*
X35836Y-50688D01*
X35858Y-50709D01*
X35885Y-50720D01*
X35915Y-50720D01*
X36007Y-50720D01*
X36025Y-50702D01*
X36025Y-50820D01*
X35875Y-50820D01*
X35829Y-50839D01*
X35794Y-50874D01*
X35775Y-50920D01*
X35775Y-50970D01*
X35775Y-51170D01*
X35794Y-51216D01*
X35829Y-51251D01*
X35875Y-51270D01*
X35925Y-51270D01*
X36425Y-51270D01*
X36471Y-51251D01*
X36506Y-51216D01*
X36508Y-51210D01*
X36750Y-51210D01*
X36813Y-51197D01*
X36867Y-51162D01*
X37479Y-50549D01*
X37493Y-50583D01*
X37528Y-50618D01*
X37574Y-50637D01*
X37624Y-50637D01*
X38410Y-50637D01*
X38456Y-50618D01*
X38491Y-50583D01*
X38510Y-50537D01*
X38510Y-52023D01*
X38491Y-51977D01*
X38456Y-51942D01*
X38410Y-51923D01*
X38360Y-51923D01*
X37687Y-51923D01*
X37193Y-51428D01*
X37139Y-51393D01*
X37076Y-51380D01*
X36508Y-51380D01*
X36506Y-51374D01*
X36471Y-51339D01*
X36425Y-51320D01*
X36375Y-51320D01*
X35875Y-51320D01*
X35829Y-51339D01*
X35794Y-51374D01*
X35775Y-51420D01*
X35775Y-51470D01*
X35775Y-51670D01*
X35794Y-51716D01*
X35829Y-51751D01*
X35875Y-51770D01*
X35925Y-51770D01*
X36425Y-51770D01*
X36471Y-51751D01*
X36506Y-51716D01*
X36508Y-51710D01*
X37007Y-51710D01*
X37474Y-52176D01*
X37474Y-54237D01*
X37493Y-54283D01*
X37528Y-54318D01*
X37574Y-54337D01*
X37624Y-54337D01*
X38410Y-54337D01*
X38456Y-54318D01*
X38491Y-54283D01*
X38510Y-54237D01*
X38510Y-54187D01*
X38510Y-53881D01*
X38516Y-53887D01*
X38516Y-54470D01*
X38431Y-54470D01*
X38385Y-54489D01*
X38350Y-54524D01*
X38331Y-54570D01*
X38331Y-54620D01*
X38331Y-54870D01*
X38350Y-54916D01*
X38385Y-54951D01*
X38431Y-54970D01*
X38481Y-54970D01*
X38931Y-54970D01*
X38977Y-54951D01*
X39012Y-54916D01*
X39031Y-54870D01*
X39031Y-73028D01*
X39016Y-73028D01*
X39016Y-59353D01*
X39016Y-59184D01*
X38952Y-59028D01*
X38832Y-58908D01*
X38676Y-58843D01*
X38507Y-58843D01*
X38351Y-58907D01*
X38246Y-59012D01*
X38246Y-58524D01*
X38350Y-58628D01*
X38506Y-58693D01*
X38675Y-58693D01*
X38831Y-58629D01*
X38951Y-58509D01*
X39016Y-58353D01*
X39016Y-58184D01*
X38952Y-58028D01*
X38832Y-57908D01*
X38676Y-57843D01*
X38507Y-57843D01*
X38351Y-57907D01*
X38246Y-58012D01*
X38246Y-57524D01*
X38350Y-57628D01*
X38506Y-57693D01*
X38675Y-57693D01*
X38831Y-57629D01*
X38951Y-57509D01*
X39016Y-57353D01*
X39016Y-57184D01*
X38952Y-57028D01*
X38832Y-56908D01*
X38676Y-56843D01*
X38507Y-56843D01*
X38351Y-56907D01*
X38246Y-57012D01*
X38246Y-56524D01*
X38350Y-56628D01*
X38506Y-56693D01*
X38675Y-56693D01*
X38831Y-56629D01*
X38951Y-56509D01*
X39016Y-56353D01*
X39016Y-56184D01*
X38981Y-56098D01*
X38981Y-55460D01*
X38981Y-55400D01*
X38981Y-55240D01*
X38981Y-55180D01*
X38970Y-55152D01*
X38948Y-55131D01*
X38921Y-55120D01*
X38891Y-55120D01*
X38811Y-55120D01*
X38793Y-55138D01*
X38793Y-55258D01*
X38963Y-55258D01*
X38981Y-55240D01*
X38981Y-55400D01*
X38963Y-55382D01*
X38793Y-55382D01*
X38793Y-55502D01*
X38811Y-55520D01*
X38891Y-55520D01*
X38921Y-55520D01*
X38948Y-55509D01*
X38970Y-55488D01*
X38981Y-55460D01*
X38981Y-56098D01*
X38952Y-56028D01*
X38832Y-55908D01*
X38676Y-55843D01*
X38569Y-55843D01*
X38569Y-55502D01*
X38569Y-55382D01*
X38569Y-55258D01*
X38569Y-55138D01*
X38551Y-55120D01*
X38471Y-55120D01*
X38441Y-55120D01*
X38414Y-55131D01*
X38392Y-55152D01*
X38381Y-55180D01*
X38381Y-55240D01*
X38399Y-55258D01*
X38569Y-55258D01*
X38569Y-55382D01*
X38399Y-55382D01*
X38381Y-55400D01*
X38381Y-55460D01*
X38392Y-55488D01*
X38414Y-55509D01*
X38441Y-55520D01*
X38471Y-55520D01*
X38551Y-55520D01*
X38569Y-55502D01*
X38569Y-55843D01*
X38507Y-55843D01*
X38351Y-55907D01*
X38246Y-56012D01*
X38246Y-55709D01*
X38245Y-55708D01*
X38246Y-55708D01*
X38243Y-55695D01*
X38233Y-55642D01*
X38232Y-55641D01*
X38195Y-55585D01*
X38192Y-55583D01*
X37299Y-54689D01*
X37299Y-53060D01*
X37299Y-52941D01*
X37299Y-52460D01*
X37299Y-52341D01*
X37254Y-52231D01*
X37170Y-52147D01*
X37060Y-52101D01*
X36941Y-52101D01*
X36831Y-52146D01*
X36747Y-52230D01*
X36701Y-52340D01*
X36701Y-52380D01*
X36508Y-52380D01*
X36506Y-52374D01*
X36471Y-52339D01*
X36425Y-52320D01*
X36375Y-52320D01*
X35875Y-52320D01*
X35829Y-52339D01*
X35794Y-52374D01*
X35775Y-52420D01*
X35775Y-52470D01*
X35775Y-52670D01*
X35794Y-52716D01*
X35829Y-52751D01*
X35875Y-52770D01*
X35925Y-52770D01*
X36425Y-52770D01*
X36471Y-52751D01*
X36506Y-52716D01*
X36508Y-52710D01*
X36855Y-52710D01*
X36918Y-52697D01*
X36924Y-52692D01*
X36940Y-52699D01*
X37059Y-52699D01*
X37169Y-52654D01*
X37253Y-52570D01*
X37299Y-52460D01*
X37299Y-52941D01*
X37254Y-52831D01*
X37170Y-52747D01*
X37060Y-52701D01*
X36941Y-52701D01*
X36831Y-52746D01*
X36747Y-52830D01*
X36726Y-52880D01*
X36508Y-52880D01*
X36506Y-52874D01*
X36471Y-52839D01*
X36425Y-52820D01*
X36375Y-52820D01*
X35875Y-52820D01*
X35829Y-52839D01*
X35794Y-52874D01*
X35775Y-52920D01*
X35775Y-52970D01*
X35775Y-53170D01*
X35794Y-53216D01*
X35829Y-53251D01*
X35875Y-53270D01*
X35925Y-53270D01*
X36425Y-53270D01*
X36471Y-53251D01*
X36506Y-53216D01*
X36508Y-53210D01*
X36787Y-53210D01*
X36830Y-53253D01*
X36940Y-53299D01*
X37059Y-53299D01*
X37169Y-53254D01*
X37253Y-53170D01*
X37299Y-53060D01*
X37299Y-54689D01*
X36812Y-54202D01*
X36755Y-54164D01*
X36688Y-54151D01*
X36461Y-54151D01*
X36453Y-54130D01*
X36418Y-54095D01*
X36375Y-54077D01*
X36375Y-53770D01*
X36425Y-53770D01*
X36471Y-53751D01*
X36506Y-53716D01*
X36525Y-53670D01*
X36525Y-53620D01*
X36525Y-53420D01*
X36506Y-53374D01*
X36471Y-53339D01*
X36425Y-53320D01*
X36375Y-53320D01*
X36150Y-53320D01*
X35875Y-53320D01*
X35756Y-53320D01*
X35756Y-52270D01*
X35875Y-52270D01*
X35925Y-52270D01*
X36150Y-52270D01*
X36425Y-52270D01*
X36471Y-52251D01*
X36506Y-52216D01*
X36525Y-52170D01*
X36525Y-52120D01*
X36525Y-51920D01*
X36506Y-51874D01*
X36471Y-51839D01*
X36425Y-51820D01*
X36375Y-51820D01*
X36150Y-51820D01*
X35875Y-51820D01*
X35707Y-51820D01*
X35701Y-51814D01*
X35591Y-51768D01*
X35472Y-51768D01*
X35362Y-51813D01*
X35278Y-51897D01*
X35232Y-52007D01*
X35232Y-52126D01*
X35277Y-52236D01*
X35306Y-52265D01*
X35306Y-53444D01*
X35323Y-53530D01*
X35372Y-53603D01*
X35472Y-53704D01*
X35473Y-53704D01*
X35521Y-53736D01*
X35545Y-53752D01*
X35546Y-53753D01*
X35631Y-53769D01*
X35632Y-53770D01*
X35875Y-53770D01*
X35925Y-53770D01*
X35925Y-54076D01*
X35872Y-54076D01*
X35826Y-54095D01*
X35791Y-54130D01*
X35772Y-54176D01*
X35772Y-54226D01*
X35772Y-54476D01*
X35791Y-54522D01*
X35826Y-54557D01*
X35872Y-54576D01*
X35922Y-54576D01*
X36372Y-54576D01*
X36418Y-54557D01*
X36453Y-54522D01*
X36461Y-54501D01*
X36615Y-54501D01*
X37896Y-55781D01*
X37896Y-55843D01*
X37866Y-55843D01*
X37266Y-55843D01*
X37220Y-55862D01*
X37185Y-55897D01*
X37166Y-55943D01*
X37166Y-55993D01*
X37166Y-56593D01*
X37185Y-56639D01*
X37220Y-56674D01*
X37266Y-56693D01*
X37316Y-56693D01*
X37896Y-56693D01*
X37896Y-56972D01*
X37832Y-56908D01*
X37676Y-56843D01*
X37507Y-56843D01*
X37351Y-56907D01*
X37231Y-57027D01*
X37166Y-57183D01*
X37166Y-57352D01*
X37230Y-57508D01*
X37350Y-57628D01*
X37506Y-57693D01*
X37675Y-57693D01*
X37831Y-57629D01*
X37896Y-57564D01*
X37896Y-57972D01*
X37832Y-57908D01*
X37676Y-57843D01*
X37507Y-57843D01*
X37351Y-57907D01*
X37231Y-58027D01*
X37166Y-58183D01*
X37166Y-58352D01*
X37230Y-58508D01*
X37350Y-58628D01*
X37506Y-58693D01*
X37675Y-58693D01*
X37831Y-58629D01*
X37896Y-58564D01*
X37896Y-58972D01*
X37832Y-58908D01*
X37676Y-58843D01*
X37507Y-58843D01*
X37351Y-58907D01*
X37231Y-59027D01*
X37166Y-59183D01*
X37166Y-59352D01*
X37230Y-59508D01*
X37350Y-59628D01*
X37506Y-59693D01*
X37675Y-59693D01*
X37831Y-59629D01*
X37896Y-59564D01*
X37896Y-60175D01*
X37803Y-60268D01*
X37896Y-60361D01*
X37896Y-61738D01*
X37819Y-61815D01*
X37819Y-61595D01*
X37819Y-61476D01*
X37774Y-61366D01*
X37713Y-61305D01*
X37713Y-60602D01*
X37713Y-59934D01*
X37671Y-59902D01*
X37525Y-59900D01*
X37511Y-59902D01*
X37469Y-59934D01*
X37591Y-60056D01*
X37713Y-59934D01*
X37713Y-60602D01*
X37591Y-60480D01*
X37469Y-60602D01*
X37511Y-60634D01*
X37657Y-60636D01*
X37671Y-60634D01*
X37713Y-60602D01*
X37713Y-61305D01*
X37690Y-61282D01*
X37580Y-61236D01*
X37468Y-61236D01*
X37379Y-61146D01*
X37379Y-60268D01*
X37257Y-60146D01*
X37225Y-60188D01*
X37223Y-60334D01*
X37225Y-60348D01*
X37257Y-60390D01*
X37379Y-60268D01*
X37379Y-61146D01*
X37104Y-60871D01*
X37104Y-60629D01*
X37103Y-60628D01*
X37104Y-60628D01*
X37101Y-60615D01*
X37091Y-60562D01*
X37090Y-60561D01*
X37053Y-60505D01*
X37050Y-60503D01*
X36754Y-60206D01*
X36697Y-60168D01*
X36661Y-60161D01*
X36650Y-60134D01*
X36615Y-60099D01*
X36569Y-60080D01*
X36519Y-60080D01*
X36422Y-60080D01*
X36422Y-55066D01*
X36422Y-55006D01*
X36422Y-54846D01*
X36422Y-54786D01*
X36411Y-54758D01*
X36389Y-54737D01*
X36362Y-54726D01*
X36332Y-54726D01*
X36252Y-54726D01*
X36234Y-54744D01*
X36234Y-54864D01*
X36404Y-54864D01*
X36422Y-54846D01*
X36422Y-55006D01*
X36404Y-54988D01*
X36234Y-54988D01*
X36234Y-55108D01*
X36252Y-55126D01*
X36332Y-55126D01*
X36362Y-55126D01*
X36389Y-55115D01*
X36411Y-55094D01*
X36422Y-55066D01*
X36422Y-60080D01*
X36069Y-60080D01*
X36023Y-60099D01*
X36017Y-60105D01*
X36010Y-60105D01*
X36010Y-55108D01*
X36010Y-54988D01*
X36010Y-54864D01*
X36010Y-54744D01*
X35992Y-54726D01*
X35912Y-54726D01*
X35882Y-54726D01*
X35855Y-54737D01*
X35833Y-54758D01*
X35822Y-54786D01*
X35822Y-54846D01*
X35840Y-54864D01*
X36010Y-54864D01*
X36010Y-54988D01*
X35840Y-54988D01*
X35822Y-55006D01*
X35822Y-55066D01*
X35833Y-55094D01*
X35855Y-55115D01*
X35882Y-55126D01*
X35912Y-55126D01*
X35992Y-55126D01*
X36010Y-55108D01*
X36010Y-60105D01*
X35879Y-60105D01*
X35879Y-58533D01*
X35879Y-58483D01*
X35879Y-58033D01*
X35860Y-57987D01*
X35829Y-57956D01*
X35829Y-56423D01*
X35829Y-56393D01*
X35829Y-56313D01*
X35829Y-56053D01*
X35829Y-55973D01*
X35829Y-55943D01*
X35818Y-55916D01*
X35797Y-55894D01*
X35769Y-55883D01*
X35722Y-55883D01*
X35704Y-55901D01*
X35704Y-56071D01*
X35811Y-56071D01*
X35829Y-56053D01*
X35829Y-56313D01*
X35811Y-56295D01*
X35704Y-56295D01*
X35704Y-56465D01*
X35722Y-56483D01*
X35769Y-56483D01*
X35797Y-56472D01*
X35818Y-56450D01*
X35829Y-56423D01*
X35829Y-57956D01*
X35825Y-57952D01*
X35779Y-57933D01*
X35729Y-57933D01*
X35604Y-57933D01*
X35604Y-56465D01*
X35604Y-56295D01*
X35604Y-56071D01*
X35604Y-55901D01*
X35586Y-55883D01*
X35539Y-55883D01*
X35511Y-55894D01*
X35490Y-55916D01*
X35479Y-55943D01*
X35479Y-55973D01*
X35479Y-56053D01*
X35497Y-56071D01*
X35604Y-56071D01*
X35604Y-56295D01*
X35497Y-56295D01*
X35479Y-56313D01*
X35479Y-56393D01*
X35479Y-56423D01*
X35490Y-56450D01*
X35511Y-56472D01*
X35539Y-56483D01*
X35586Y-56483D01*
X35604Y-56465D01*
X35604Y-57933D01*
X35529Y-57933D01*
X35483Y-57952D01*
X35448Y-57987D01*
X35429Y-58033D01*
X35429Y-58083D01*
X35429Y-58533D01*
X35448Y-58579D01*
X35483Y-58614D01*
X35529Y-58633D01*
X35579Y-58633D01*
X35779Y-58633D01*
X35825Y-58614D01*
X35860Y-58579D01*
X35879Y-58533D01*
X35879Y-60105D01*
X35379Y-60105D01*
X35379Y-58533D01*
X35379Y-58483D01*
X35379Y-58033D01*
X35379Y-56433D01*
X35379Y-56383D01*
X35379Y-55933D01*
X35360Y-55887D01*
X35325Y-55852D01*
X35279Y-55833D01*
X35229Y-55833D01*
X35029Y-55833D01*
X34983Y-55852D01*
X34948Y-55887D01*
X34929Y-55933D01*
X34929Y-55983D01*
X34929Y-56433D01*
X34948Y-56479D01*
X34983Y-56514D01*
X34989Y-56516D01*
X34989Y-56706D01*
X34879Y-56816D01*
X34879Y-56433D01*
X34879Y-56383D01*
X34879Y-55933D01*
X34860Y-55887D01*
X34825Y-55852D01*
X34779Y-55833D01*
X34729Y-55833D01*
X34529Y-55833D01*
X34483Y-55852D01*
X34448Y-55887D01*
X34429Y-55933D01*
X34429Y-55983D01*
X34429Y-56018D01*
X34379Y-56018D01*
X34379Y-55933D01*
X34360Y-55887D01*
X34325Y-55852D01*
X34319Y-55849D01*
X34319Y-53052D01*
X34306Y-52989D01*
X34271Y-52935D01*
X33264Y-51928D01*
X33210Y-51893D01*
X33147Y-51880D01*
X32925Y-51880D01*
X32925Y-51670D01*
X32925Y-51620D01*
X32925Y-51420D01*
X32906Y-51374D01*
X32871Y-51339D01*
X32825Y-51320D01*
X32775Y-51320D01*
X32275Y-51320D01*
X32229Y-51339D01*
X32194Y-51374D01*
X32175Y-51420D01*
X32175Y-51470D01*
X32175Y-51670D01*
X32194Y-51716D01*
X32229Y-51751D01*
X32275Y-51770D01*
X32325Y-51770D01*
X32825Y-51770D01*
X32871Y-51751D01*
X32906Y-51716D01*
X32925Y-51670D01*
X32925Y-51880D01*
X32908Y-51880D01*
X32906Y-51874D01*
X32871Y-51839D01*
X32825Y-51820D01*
X32775Y-51820D01*
X32275Y-51820D01*
X32229Y-51839D01*
X32194Y-51874D01*
X32175Y-51920D01*
X32175Y-51970D01*
X32175Y-52170D01*
X32194Y-52216D01*
X32229Y-52251D01*
X32275Y-52270D01*
X32325Y-52270D01*
X32825Y-52270D01*
X32871Y-52251D01*
X32906Y-52216D01*
X32908Y-52210D01*
X33078Y-52210D01*
X33989Y-53121D01*
X33989Y-55849D01*
X33983Y-55852D01*
X33948Y-55887D01*
X33929Y-55933D01*
X33929Y-55983D01*
X33929Y-56433D01*
X33948Y-56479D01*
X33983Y-56514D01*
X34029Y-56533D01*
X34079Y-56533D01*
X34279Y-56533D01*
X34325Y-56514D01*
X34360Y-56479D01*
X34379Y-56433D01*
X34379Y-56383D01*
X34379Y-56348D01*
X34429Y-56348D01*
X34429Y-56433D01*
X34448Y-56479D01*
X34483Y-56514D01*
X34529Y-56533D01*
X34579Y-56533D01*
X34779Y-56533D01*
X34825Y-56514D01*
X34860Y-56479D01*
X34879Y-56433D01*
X34879Y-56816D01*
X34380Y-57315D01*
X30710Y-57315D01*
X30709Y-57315D01*
X30698Y-57317D01*
X30647Y-57328D01*
X30593Y-57363D01*
X30591Y-57365D01*
X29296Y-58659D01*
X29293Y-58658D01*
X29174Y-58658D01*
X29064Y-58703D01*
X28980Y-58787D01*
X28934Y-58897D01*
X28934Y-59016D01*
X28979Y-59126D01*
X29063Y-59210D01*
X29173Y-59256D01*
X29292Y-59256D01*
X29402Y-59211D01*
X29486Y-59127D01*
X29532Y-59017D01*
X29532Y-58898D01*
X29530Y-58893D01*
X30778Y-57645D01*
X34449Y-57645D01*
X34512Y-57632D01*
X34566Y-57597D01*
X35271Y-56892D01*
X35306Y-56838D01*
X35319Y-56775D01*
X35319Y-56516D01*
X35325Y-56514D01*
X35360Y-56479D01*
X35379Y-56433D01*
X35379Y-58033D01*
X35360Y-57987D01*
X35325Y-57952D01*
X35279Y-57933D01*
X35229Y-57933D01*
X35029Y-57933D01*
X34983Y-57952D01*
X34948Y-57987D01*
X34929Y-58033D01*
X34929Y-58083D01*
X34929Y-58533D01*
X34948Y-58579D01*
X34983Y-58614D01*
X35029Y-58633D01*
X35079Y-58633D01*
X35279Y-58633D01*
X35325Y-58614D01*
X35360Y-58579D01*
X35379Y-58533D01*
X35379Y-60105D01*
X35363Y-60105D01*
X35363Y-59745D01*
X35362Y-59744D01*
X35346Y-59659D01*
X35345Y-59658D01*
X35329Y-59634D01*
X35297Y-59586D01*
X35297Y-59585D01*
X34879Y-59167D01*
X34879Y-58533D01*
X34879Y-58483D01*
X34879Y-58033D01*
X34860Y-57987D01*
X34825Y-57952D01*
X34779Y-57933D01*
X34729Y-57933D01*
X34529Y-57933D01*
X34483Y-57952D01*
X34448Y-57987D01*
X34429Y-58033D01*
X34429Y-58083D01*
X34429Y-58533D01*
X34448Y-58579D01*
X34483Y-58614D01*
X34529Y-58633D01*
X34579Y-58633D01*
X34779Y-58633D01*
X34825Y-58614D01*
X34860Y-58579D01*
X34879Y-58533D01*
X34879Y-59167D01*
X34706Y-58995D01*
X34633Y-58946D01*
X34547Y-58929D01*
X34379Y-58929D01*
X34379Y-58533D01*
X34379Y-58483D01*
X34379Y-58033D01*
X34360Y-57987D01*
X34325Y-57952D01*
X34279Y-57933D01*
X34229Y-57933D01*
X34029Y-57933D01*
X33983Y-57952D01*
X33948Y-57987D01*
X33929Y-58033D01*
X33929Y-58083D01*
X33929Y-58533D01*
X33948Y-58579D01*
X33983Y-58614D01*
X34029Y-58633D01*
X34079Y-58633D01*
X34279Y-58633D01*
X34325Y-58614D01*
X34360Y-58579D01*
X34379Y-58533D01*
X34379Y-58929D01*
X33879Y-58929D01*
X33879Y-58533D01*
X33879Y-58483D01*
X33879Y-58033D01*
X33860Y-57987D01*
X33825Y-57952D01*
X33779Y-57933D01*
X33729Y-57933D01*
X33529Y-57933D01*
X33483Y-57952D01*
X33448Y-57987D01*
X33429Y-58033D01*
X33429Y-58083D01*
X33429Y-58533D01*
X33448Y-58579D01*
X33483Y-58614D01*
X33529Y-58633D01*
X33579Y-58633D01*
X33779Y-58633D01*
X33825Y-58614D01*
X33860Y-58579D01*
X33879Y-58533D01*
X33879Y-58929D01*
X33379Y-58929D01*
X33379Y-58533D01*
X33379Y-58483D01*
X33379Y-58033D01*
X33360Y-57987D01*
X33325Y-57952D01*
X33279Y-57933D01*
X33229Y-57933D01*
X33029Y-57933D01*
X32983Y-57952D01*
X32948Y-57987D01*
X32929Y-58033D01*
X32929Y-58083D01*
X32929Y-58533D01*
X32948Y-58579D01*
X32983Y-58614D01*
X33029Y-58633D01*
X33079Y-58633D01*
X33279Y-58633D01*
X33325Y-58614D01*
X33360Y-58579D01*
X33379Y-58533D01*
X33379Y-58929D01*
X33065Y-58929D01*
X32879Y-58742D01*
X32879Y-58533D01*
X32879Y-58483D01*
X32879Y-58283D01*
X32879Y-58033D01*
X32860Y-57987D01*
X32825Y-57952D01*
X32779Y-57933D01*
X32729Y-57933D01*
X32529Y-57933D01*
X32483Y-57952D01*
X32448Y-57987D01*
X32429Y-58033D01*
X32429Y-58083D01*
X32429Y-58283D01*
X32429Y-58533D01*
X32429Y-58836D01*
X32446Y-58922D01*
X32495Y-58995D01*
X32812Y-59313D01*
X32813Y-59313D01*
X32861Y-59345D01*
X32885Y-59361D01*
X32886Y-59362D01*
X32971Y-59378D01*
X32972Y-59379D01*
X34453Y-59379D01*
X34913Y-59838D01*
X34913Y-60137D01*
X34885Y-60165D01*
X34839Y-60275D01*
X34839Y-60394D01*
X34884Y-60504D01*
X34968Y-60588D01*
X35078Y-60634D01*
X35197Y-60634D01*
X35307Y-60589D01*
X35341Y-60555D01*
X36017Y-60555D01*
X36023Y-60561D01*
X36069Y-60580D01*
X36119Y-60580D01*
X36569Y-60580D01*
X36613Y-60561D01*
X36754Y-60701D01*
X36754Y-60944D01*
X36767Y-61011D01*
X36805Y-61068D01*
X37221Y-61483D01*
X37221Y-61594D01*
X37266Y-61704D01*
X37350Y-61788D01*
X37460Y-61834D01*
X37579Y-61834D01*
X37689Y-61789D01*
X37773Y-61705D01*
X37819Y-61595D01*
X37819Y-61815D01*
X37644Y-61990D01*
X37531Y-61990D01*
X37453Y-61912D01*
X37343Y-61866D01*
X37224Y-61866D01*
X37114Y-61911D01*
X37030Y-61995D01*
X36984Y-62105D01*
X36984Y-62224D01*
X37029Y-62334D01*
X37113Y-62418D01*
X37223Y-62464D01*
X37342Y-62464D01*
X37452Y-62419D01*
X37531Y-62340D01*
X37717Y-62340D01*
X37784Y-62327D01*
X37841Y-62289D01*
X38192Y-61936D01*
X38194Y-61935D01*
X38195Y-61935D01*
X38232Y-61879D01*
X38233Y-61878D01*
X38246Y-61811D01*
X38246Y-60375D01*
X38257Y-60390D01*
X38379Y-60268D01*
X38257Y-60146D01*
X38246Y-60160D01*
X38246Y-59524D01*
X38350Y-59628D01*
X38506Y-59693D01*
X38675Y-59693D01*
X38831Y-59629D01*
X38951Y-59509D01*
X39016Y-59353D01*
X39016Y-73028D01*
X38959Y-73028D01*
X38959Y-60202D01*
X38957Y-60188D01*
X38925Y-60146D01*
X38803Y-60268D01*
X38925Y-60390D01*
X38957Y-60348D01*
X38959Y-60202D01*
X38959Y-73028D01*
X38713Y-73028D01*
X38713Y-60602D01*
X38713Y-59934D01*
X38671Y-59902D01*
X38525Y-59900D01*
X38511Y-59902D01*
X38469Y-59934D01*
X38591Y-60056D01*
X38713Y-59934D01*
X38713Y-60602D01*
X38591Y-60480D01*
X38469Y-60602D01*
X38511Y-60634D01*
X38657Y-60636D01*
X38671Y-60634D01*
X38713Y-60602D01*
X38713Y-73028D01*
X36669Y-73028D01*
X36669Y-61080D01*
X36669Y-61030D01*
X36669Y-60780D01*
X36650Y-60734D01*
X36615Y-60699D01*
X36569Y-60680D01*
X36519Y-60680D01*
X36069Y-60680D01*
X36023Y-60699D01*
X35988Y-60734D01*
X35975Y-60765D01*
X33735Y-60765D01*
X32303Y-59332D01*
X32249Y-59297D01*
X32186Y-59284D01*
X28908Y-59284D01*
X28742Y-59118D01*
X28744Y-59115D01*
X28744Y-58996D01*
X28699Y-58886D01*
X28615Y-58802D01*
X28505Y-58756D01*
X28386Y-58756D01*
X28276Y-58801D01*
X28192Y-58885D01*
X28146Y-58995D01*
X28146Y-59114D01*
X28191Y-59224D01*
X28275Y-59308D01*
X28385Y-59354D01*
X28504Y-59354D01*
X28508Y-59352D01*
X28676Y-59520D01*
X28454Y-59520D01*
X27775Y-58840D01*
X27721Y-58805D01*
X27658Y-58792D01*
X27072Y-58792D01*
X28809Y-57055D01*
X33268Y-57055D01*
X33331Y-57042D01*
X33385Y-57007D01*
X33768Y-56622D01*
X33770Y-56621D01*
X33771Y-56621D01*
X33805Y-56568D01*
X33806Y-56567D01*
X33816Y-56518D01*
X33816Y-56517D01*
X33825Y-56514D01*
X33860Y-56479D01*
X33879Y-56433D01*
X33879Y-56383D01*
X33879Y-55933D01*
X33860Y-55887D01*
X33825Y-55852D01*
X33779Y-55833D01*
X33729Y-55833D01*
X33529Y-55833D01*
X33483Y-55852D01*
X33448Y-55887D01*
X33429Y-55933D01*
X33429Y-55983D01*
X33429Y-56433D01*
X33447Y-56477D01*
X33199Y-56725D01*
X32343Y-56725D01*
X32343Y-55331D01*
X32343Y-55186D01*
X32148Y-55186D01*
X32130Y-55204D01*
X32130Y-55289D01*
X32141Y-55317D01*
X32163Y-55338D01*
X32190Y-55349D01*
X32220Y-55349D01*
X32325Y-55349D01*
X32343Y-55331D01*
X32343Y-56725D01*
X28740Y-56725D01*
X28677Y-56738D01*
X28623Y-56773D01*
X28599Y-56797D01*
X28599Y-55260D01*
X28599Y-55141D01*
X28554Y-55031D01*
X28470Y-54947D01*
X28360Y-54901D01*
X28241Y-54901D01*
X28131Y-54946D01*
X28047Y-55030D01*
X28001Y-55140D01*
X28001Y-55259D01*
X28002Y-55263D01*
X27483Y-55783D01*
X27448Y-55837D01*
X27435Y-55900D01*
X27435Y-56844D01*
X27431Y-56846D01*
X27347Y-56930D01*
X27301Y-57040D01*
X27301Y-57159D01*
X27346Y-57269D01*
X27430Y-57353D01*
X27540Y-57399D01*
X27659Y-57399D01*
X27769Y-57354D01*
X27853Y-57270D01*
X27899Y-57160D01*
X27899Y-57041D01*
X27854Y-56931D01*
X27770Y-56847D01*
X27765Y-56844D01*
X27765Y-55968D01*
X28235Y-55497D01*
X28240Y-55499D01*
X28359Y-55499D01*
X28469Y-55454D01*
X28553Y-55370D01*
X28599Y-55260D01*
X28599Y-56797D01*
X26620Y-58776D01*
X26548Y-58704D01*
X26438Y-58658D01*
X26319Y-58658D01*
X26209Y-58703D01*
X26189Y-58723D01*
X26189Y-58347D01*
X26176Y-58284D01*
X26141Y-58230D01*
X26138Y-58228D01*
X26124Y-58214D01*
X26126Y-58210D01*
X26126Y-58091D01*
X26081Y-57981D01*
X25997Y-57897D01*
X25887Y-57851D01*
X25768Y-57851D01*
X25658Y-57896D01*
X25574Y-57980D01*
X25528Y-58090D01*
X25528Y-58209D01*
X25573Y-58319D01*
X25657Y-58403D01*
X25767Y-58449D01*
X25859Y-58449D01*
X25859Y-59134D01*
X25872Y-59197D01*
X25907Y-59251D01*
X26259Y-59602D01*
X26261Y-59605D01*
X26315Y-59640D01*
X26324Y-59642D01*
X26319Y-59642D01*
X26209Y-59687D01*
X26191Y-59704D01*
X25470Y-58982D01*
X25470Y-57728D01*
X25548Y-57650D01*
X25594Y-57540D01*
X25594Y-57421D01*
X25549Y-57311D01*
X25465Y-57227D01*
X25355Y-57181D01*
X25236Y-57181D01*
X25126Y-57226D01*
X25042Y-57310D01*
X24996Y-57420D01*
X24996Y-57539D01*
X25041Y-57649D01*
X25120Y-57728D01*
X25120Y-59055D01*
X25133Y-59122D01*
X25171Y-59179D01*
X26055Y-60062D01*
X26057Y-60065D01*
X26113Y-60102D01*
X26114Y-60103D01*
X26121Y-60104D01*
X26124Y-60110D01*
X26203Y-60189D01*
X26203Y-61023D01*
X26216Y-61090D01*
X26254Y-61147D01*
X26843Y-61735D01*
X26845Y-61738D01*
X26901Y-61775D01*
X26902Y-61776D01*
X26955Y-61786D01*
X26968Y-61789D01*
X26968Y-61788D01*
X26969Y-61789D01*
X27559Y-61789D01*
X27585Y-61789D01*
X27654Y-61858D01*
X27654Y-61968D01*
X27699Y-62078D01*
X27783Y-62162D01*
X27893Y-62208D01*
X28012Y-62208D01*
X28122Y-62163D01*
X28206Y-62079D01*
X28252Y-61969D01*
X28252Y-61850D01*
X28207Y-61740D01*
X28123Y-61656D01*
X28013Y-61610D01*
X27902Y-61610D01*
X27782Y-61490D01*
X27725Y-61452D01*
X27658Y-61439D01*
X27559Y-61439D01*
X27367Y-61439D01*
X27367Y-60676D01*
X27367Y-60616D01*
X27367Y-60456D01*
X27367Y-60396D01*
X27356Y-60368D01*
X27334Y-60347D01*
X27307Y-60336D01*
X27277Y-60336D01*
X27197Y-60336D01*
X27179Y-60354D01*
X27179Y-60474D01*
X27349Y-60474D01*
X27367Y-60456D01*
X27367Y-60616D01*
X27349Y-60598D01*
X27179Y-60598D01*
X27179Y-60718D01*
X27197Y-60736D01*
X27277Y-60736D01*
X27307Y-60736D01*
X27334Y-60725D01*
X27356Y-60704D01*
X27367Y-60676D01*
X27367Y-61439D01*
X27041Y-61439D01*
X26955Y-61352D01*
X26955Y-60718D01*
X26955Y-60598D01*
X26955Y-60474D01*
X26955Y-60354D01*
X26937Y-60336D01*
X26857Y-60336D01*
X26827Y-60336D01*
X26800Y-60347D01*
X26778Y-60368D01*
X26767Y-60396D01*
X26767Y-60456D01*
X26785Y-60474D01*
X26955Y-60474D01*
X26955Y-60598D01*
X26785Y-60598D01*
X26767Y-60616D01*
X26767Y-60676D01*
X26778Y-60704D01*
X26800Y-60725D01*
X26827Y-60736D01*
X26857Y-60736D01*
X26937Y-60736D01*
X26955Y-60718D01*
X26955Y-61352D01*
X26553Y-60950D01*
X26553Y-60189D01*
X26581Y-60161D01*
X26765Y-60161D01*
X26771Y-60167D01*
X26817Y-60186D01*
X26867Y-60186D01*
X27317Y-60186D01*
X27363Y-60167D01*
X27398Y-60132D01*
X27417Y-60086D01*
X27417Y-60036D01*
X27417Y-59786D01*
X27398Y-59740D01*
X27363Y-59705D01*
X27317Y-59686D01*
X27267Y-59686D01*
X26817Y-59686D01*
X26771Y-59705D01*
X26765Y-59711D01*
X26571Y-59711D01*
X26548Y-59688D01*
X26464Y-59653D01*
X27677Y-59653D01*
X27805Y-59653D01*
X27853Y-59701D01*
X27736Y-59701D01*
X27626Y-59746D01*
X27542Y-59830D01*
X27496Y-59940D01*
X27496Y-60059D01*
X27541Y-60169D01*
X27625Y-60253D01*
X27735Y-60299D01*
X27854Y-60299D01*
X27858Y-60297D01*
X28109Y-60547D01*
X28111Y-60550D01*
X28165Y-60585D01*
X28228Y-60598D01*
X30718Y-60598D01*
X31434Y-61313D01*
X31433Y-61318D01*
X31433Y-61437D01*
X31478Y-61547D01*
X31562Y-61631D01*
X31672Y-61677D01*
X31791Y-61677D01*
X31901Y-61632D01*
X31985Y-61548D01*
X32031Y-61438D01*
X32031Y-61319D01*
X31986Y-61209D01*
X31902Y-61125D01*
X31792Y-61079D01*
X31673Y-61079D01*
X31668Y-61080D01*
X30904Y-60316D01*
X30850Y-60281D01*
X30787Y-60268D01*
X28296Y-60268D01*
X28092Y-60063D01*
X28094Y-60060D01*
X28094Y-59942D01*
X28308Y-60156D01*
X28362Y-60191D01*
X28425Y-60204D01*
X30994Y-60204D01*
X32600Y-61810D01*
X32654Y-61845D01*
X32717Y-61858D01*
X33799Y-61858D01*
X33801Y-61862D01*
X33885Y-61946D01*
X33995Y-61992D01*
X34114Y-61992D01*
X34224Y-61947D01*
X34308Y-61863D01*
X34354Y-61753D01*
X34354Y-61634D01*
X34309Y-61524D01*
X34225Y-61440D01*
X34115Y-61394D01*
X33996Y-61394D01*
X33886Y-61439D01*
X33802Y-61523D01*
X33799Y-61528D01*
X32786Y-61528D01*
X32699Y-61441D01*
X32736Y-61441D01*
X32846Y-61396D01*
X32930Y-61312D01*
X32976Y-61202D01*
X32976Y-61083D01*
X32931Y-60973D01*
X32847Y-60889D01*
X32737Y-60843D01*
X32618Y-60843D01*
X32613Y-60844D01*
X31382Y-59614D01*
X32117Y-59614D01*
X33548Y-61044D01*
X33550Y-61047D01*
X33604Y-61082D01*
X33667Y-61095D01*
X35975Y-61095D01*
X35988Y-61126D01*
X36023Y-61161D01*
X36069Y-61180D01*
X36119Y-61180D01*
X36154Y-61180D01*
X36154Y-61407D01*
X35128Y-62433D01*
X33347Y-62433D01*
X33284Y-62446D01*
X33230Y-62481D01*
X33228Y-62483D01*
X33033Y-62678D01*
X32998Y-62732D01*
X32985Y-62795D01*
X32985Y-62933D01*
X32981Y-62935D01*
X32897Y-63019D01*
X32851Y-63129D01*
X32851Y-63248D01*
X32896Y-63358D01*
X32980Y-63442D01*
X33090Y-63488D01*
X33209Y-63488D01*
X33319Y-63443D01*
X33403Y-63359D01*
X33449Y-63249D01*
X33449Y-63130D01*
X33404Y-63020D01*
X33320Y-62936D01*
X33315Y-62933D01*
X33315Y-62863D01*
X33415Y-62763D01*
X35197Y-62763D01*
X35260Y-62750D01*
X35314Y-62715D01*
X36433Y-61594D01*
X36435Y-61593D01*
X36436Y-61593D01*
X36470Y-61539D01*
X36471Y-61539D01*
X36481Y-61487D01*
X36484Y-61477D01*
X36483Y-61476D01*
X36484Y-61476D01*
X36484Y-61180D01*
X36569Y-61180D01*
X36615Y-61161D01*
X36650Y-61126D01*
X36669Y-61080D01*
X36669Y-73028D01*
X36445Y-73028D01*
X36445Y-64295D01*
X36445Y-64265D01*
X36445Y-64185D01*
X36445Y-63925D01*
X36445Y-63845D01*
X36445Y-63815D01*
X36434Y-63788D01*
X36413Y-63766D01*
X36385Y-63755D01*
X36325Y-63755D01*
X36307Y-63773D01*
X36307Y-63943D01*
X36427Y-63943D01*
X36445Y-63925D01*
X36445Y-64185D01*
X36427Y-64167D01*
X36307Y-64167D01*
X36307Y-64337D01*
X36325Y-64355D01*
X36385Y-64355D01*
X36413Y-64344D01*
X36434Y-64322D01*
X36445Y-64295D01*
X36445Y-73028D01*
X36183Y-73028D01*
X36183Y-64337D01*
X36183Y-64167D01*
X36183Y-63943D01*
X36183Y-63773D01*
X36165Y-63755D01*
X36105Y-63755D01*
X36077Y-63766D01*
X36056Y-63788D01*
X36045Y-63815D01*
X36045Y-63845D01*
X36045Y-63925D01*
X36063Y-63943D01*
X36183Y-63943D01*
X36183Y-64167D01*
X36063Y-64167D01*
X36045Y-64185D01*
X36045Y-64265D01*
X36045Y-64295D01*
X36056Y-64322D01*
X36077Y-64344D01*
X36105Y-64355D01*
X36165Y-64355D01*
X36183Y-64337D01*
X36183Y-73028D01*
X35895Y-73028D01*
X35895Y-64305D01*
X35895Y-64255D01*
X35895Y-63805D01*
X35876Y-63759D01*
X35841Y-63724D01*
X35795Y-63705D01*
X35745Y-63705D01*
X35495Y-63705D01*
X35449Y-63724D01*
X35414Y-63759D01*
X35395Y-63805D01*
X35395Y-63855D01*
X35395Y-64305D01*
X35414Y-64351D01*
X35420Y-64357D01*
X35420Y-64612D01*
X35382Y-64628D01*
X35298Y-64712D01*
X35252Y-64822D01*
X35252Y-64941D01*
X35297Y-65051D01*
X35381Y-65135D01*
X35491Y-65181D01*
X35610Y-65181D01*
X35720Y-65136D01*
X35804Y-65052D01*
X35850Y-64942D01*
X35850Y-64878D01*
X35850Y-64877D01*
X35852Y-64875D01*
X35853Y-64874D01*
X35869Y-64789D01*
X35870Y-64788D01*
X35870Y-64357D01*
X35876Y-64351D01*
X35895Y-64305D01*
X35895Y-73028D01*
X32055Y-73028D01*
X32055Y-66279D01*
X32055Y-65256D01*
X32054Y-65255D01*
X32055Y-65255D01*
X32052Y-65242D01*
X32042Y-65193D01*
X32041Y-65192D01*
X32007Y-65139D01*
X32004Y-65137D01*
X30235Y-63367D01*
X30181Y-63332D01*
X30118Y-63319D01*
X29596Y-63319D01*
X29496Y-63218D01*
X29496Y-61811D01*
X29598Y-61770D01*
X29682Y-61686D01*
X29728Y-61576D01*
X29728Y-61457D01*
X29683Y-61347D01*
X29599Y-61263D01*
X29489Y-61217D01*
X29370Y-61217D01*
X29260Y-61262D01*
X29176Y-61346D01*
X29130Y-61456D01*
X29130Y-61575D01*
X29166Y-61663D01*
X29166Y-63287D01*
X29179Y-63350D01*
X29214Y-63404D01*
X29409Y-63598D01*
X29411Y-63601D01*
X29465Y-63636D01*
X29528Y-63649D01*
X30049Y-63649D01*
X31725Y-65324D01*
X31725Y-66210D01*
X31600Y-66335D01*
X31600Y-65871D01*
X31598Y-65857D01*
X31566Y-65815D01*
X31444Y-65937D01*
X31566Y-66059D01*
X31598Y-66017D01*
X31600Y-65871D01*
X31600Y-66335D01*
X31392Y-66543D01*
X31354Y-66527D01*
X31354Y-66271D01*
X31354Y-65603D01*
X31312Y-65571D01*
X31166Y-65569D01*
X31152Y-65571D01*
X31110Y-65603D01*
X31232Y-65725D01*
X31354Y-65603D01*
X31354Y-66271D01*
X31232Y-66149D01*
X31110Y-66271D01*
X31152Y-66303D01*
X31298Y-66305D01*
X31312Y-66303D01*
X31354Y-66271D01*
X31354Y-66527D01*
X31317Y-66512D01*
X31148Y-66512D01*
X31020Y-66564D01*
X31020Y-65937D01*
X30898Y-65815D01*
X30866Y-65857D01*
X30864Y-66003D01*
X30866Y-66017D01*
X30898Y-66059D01*
X31020Y-65937D01*
X31020Y-66564D01*
X30992Y-66576D01*
X30872Y-66696D01*
X30807Y-66852D01*
X30807Y-67021D01*
X30871Y-67177D01*
X30991Y-67297D01*
X31147Y-67362D01*
X31316Y-67362D01*
X31472Y-67298D01*
X31592Y-67178D01*
X31657Y-67022D01*
X31657Y-66853D01*
X31625Y-66776D01*
X32004Y-66397D01*
X32006Y-66396D01*
X32007Y-66396D01*
X32042Y-66342D01*
X32055Y-66279D01*
X32055Y-73028D01*
X19885Y-73028D01*
X19885Y-48359D01*
X19904Y-48378D01*
X19904Y-71457D01*
X19917Y-71524D01*
X19955Y-71581D01*
X21141Y-72767D01*
X21198Y-72805D01*
X21265Y-72818D01*
X23676Y-72818D01*
X23685Y-72839D01*
X23720Y-72874D01*
X23766Y-72893D01*
X23816Y-72893D01*
X24266Y-72893D01*
X24312Y-72874D01*
X24318Y-72868D01*
X24994Y-72868D01*
X25080Y-72851D01*
X25153Y-72802D01*
X25806Y-72149D01*
X25846Y-72149D01*
X25956Y-72104D01*
X26040Y-72020D01*
X26086Y-71910D01*
X26086Y-71869D01*
X26439Y-71516D01*
X26488Y-71443D01*
X26505Y-71357D01*
X26505Y-70130D01*
X27104Y-70729D01*
X27177Y-70778D01*
X27263Y-70795D01*
X29233Y-70795D01*
X29319Y-70778D01*
X29392Y-70729D01*
X30391Y-69731D01*
X30391Y-69730D01*
X30423Y-69682D01*
X30439Y-69658D01*
X30440Y-69657D01*
X30456Y-69572D01*
X30457Y-69571D01*
X30457Y-67304D01*
X30472Y-67298D01*
X30592Y-67178D01*
X30657Y-67022D01*
X30657Y-66853D01*
X30593Y-66697D01*
X30473Y-66577D01*
X30317Y-66512D01*
X30148Y-66512D01*
X30076Y-66541D01*
X29899Y-66364D01*
X29899Y-66205D01*
X29991Y-66297D01*
X30147Y-66362D01*
X30316Y-66362D01*
X30472Y-66298D01*
X30592Y-66178D01*
X30657Y-66022D01*
X30657Y-65853D01*
X30593Y-65697D01*
X30473Y-65577D01*
X30329Y-65517D01*
X30329Y-64107D01*
X30327Y-64093D01*
X30295Y-64051D01*
X30173Y-64173D01*
X30295Y-64295D01*
X30327Y-64253D01*
X30329Y-64107D01*
X30329Y-65517D01*
X30317Y-65512D01*
X30148Y-65512D01*
X30083Y-65538D01*
X30083Y-64507D01*
X30083Y-63839D01*
X30041Y-63807D01*
X29895Y-63805D01*
X29881Y-63807D01*
X29839Y-63839D01*
X29961Y-63961D01*
X30083Y-63839D01*
X30083Y-64507D01*
X29961Y-64385D01*
X29839Y-64507D01*
X29881Y-64539D01*
X30027Y-64541D01*
X30041Y-64539D01*
X30083Y-64507D01*
X30083Y-65538D01*
X29992Y-65576D01*
X29899Y-65669D01*
X29899Y-65453D01*
X29898Y-65452D01*
X29899Y-65452D01*
X29896Y-65439D01*
X29886Y-65386D01*
X29885Y-65385D01*
X29848Y-65329D01*
X29845Y-65327D01*
X29749Y-65230D01*
X29749Y-64173D01*
X29627Y-64051D01*
X29595Y-64093D01*
X29593Y-64239D01*
X29595Y-64253D01*
X29627Y-64295D01*
X29749Y-64173D01*
X29749Y-65230D01*
X29329Y-64810D01*
X29329Y-64107D01*
X29327Y-64093D01*
X29295Y-64051D01*
X29173Y-64173D01*
X29295Y-64295D01*
X29327Y-64253D01*
X29329Y-64107D01*
X29329Y-64810D01*
X29257Y-64738D01*
X29200Y-64700D01*
X29133Y-64687D01*
X29083Y-64687D01*
X29083Y-64507D01*
X29083Y-63839D01*
X29041Y-63807D01*
X28895Y-63805D01*
X28881Y-63807D01*
X28839Y-63839D01*
X28961Y-63961D01*
X29083Y-63839D01*
X29083Y-64507D01*
X28961Y-64385D01*
X28839Y-64507D01*
X28881Y-64539D01*
X29027Y-64541D01*
X29041Y-64539D01*
X29083Y-64507D01*
X29083Y-64687D01*
X28910Y-64687D01*
X28749Y-64525D01*
X28749Y-64173D01*
X28627Y-64051D01*
X28595Y-64093D01*
X28593Y-64239D01*
X28595Y-64253D01*
X28627Y-64295D01*
X28749Y-64173D01*
X28749Y-64525D01*
X28386Y-64162D01*
X28386Y-64089D01*
X28322Y-63933D01*
X28202Y-63813D01*
X28136Y-63785D01*
X28136Y-63253D01*
X28354Y-63034D01*
X28392Y-63050D01*
X28442Y-63050D01*
X28892Y-63050D01*
X28938Y-63031D01*
X28973Y-62996D01*
X28992Y-62950D01*
X28992Y-62900D01*
X28992Y-62650D01*
X28973Y-62604D01*
X28942Y-62573D01*
X28942Y-62340D01*
X28942Y-62280D01*
X28942Y-62120D01*
X28942Y-62060D01*
X28931Y-62032D01*
X28909Y-62011D01*
X28882Y-62000D01*
X28852Y-62000D01*
X28772Y-62000D01*
X28754Y-62018D01*
X28754Y-62138D01*
X28924Y-62138D01*
X28942Y-62120D01*
X28942Y-62280D01*
X28924Y-62262D01*
X28754Y-62262D01*
X28754Y-62382D01*
X28772Y-62400D01*
X28852Y-62400D01*
X28882Y-62400D01*
X28909Y-62389D01*
X28931Y-62368D01*
X28942Y-62340D01*
X28942Y-62573D01*
X28938Y-62569D01*
X28892Y-62550D01*
X28842Y-62550D01*
X28530Y-62550D01*
X28530Y-62382D01*
X28530Y-62262D01*
X28530Y-62138D01*
X28530Y-62018D01*
X28512Y-62000D01*
X28432Y-62000D01*
X28402Y-62000D01*
X28375Y-62011D01*
X28353Y-62032D01*
X28342Y-62060D01*
X28342Y-62120D01*
X28360Y-62138D01*
X28530Y-62138D01*
X28530Y-62262D01*
X28360Y-62262D01*
X28342Y-62280D01*
X28342Y-62340D01*
X28353Y-62368D01*
X28375Y-62389D01*
X28402Y-62400D01*
X28432Y-62400D01*
X28512Y-62400D01*
X28530Y-62382D01*
X28530Y-62550D01*
X28392Y-62550D01*
X28346Y-62569D01*
X28311Y-62604D01*
X28298Y-62633D01*
X28275Y-62638D01*
X28218Y-62676D01*
X28216Y-62678D01*
X27837Y-63057D01*
X27799Y-63114D01*
X27786Y-63181D01*
X27786Y-63785D01*
X27721Y-63812D01*
X27601Y-63932D01*
X27536Y-64088D01*
X27536Y-64257D01*
X27600Y-64413D01*
X27720Y-64533D01*
X27876Y-64598D01*
X28045Y-64598D01*
X28201Y-64534D01*
X28231Y-64503D01*
X28712Y-64983D01*
X28714Y-64986D01*
X28771Y-65024D01*
X28838Y-65037D01*
X29060Y-65037D01*
X29549Y-65525D01*
X29549Y-65653D01*
X29473Y-65577D01*
X29317Y-65512D01*
X29231Y-65512D01*
X28366Y-64647D01*
X28312Y-64612D01*
X28249Y-64599D01*
X26743Y-64599D01*
X26641Y-64497D01*
X26641Y-64454D01*
X26720Y-64533D01*
X26876Y-64598D01*
X27045Y-64598D01*
X27201Y-64534D01*
X27321Y-64414D01*
X27386Y-64258D01*
X27386Y-64089D01*
X27322Y-63933D01*
X27202Y-63813D01*
X27126Y-63781D01*
X27126Y-63477D01*
X27113Y-63414D01*
X27078Y-63360D01*
X26298Y-62580D01*
X26244Y-62545D01*
X26181Y-62532D01*
X25757Y-62532D01*
X25165Y-61939D01*
X25165Y-61672D01*
X25169Y-61671D01*
X25253Y-61587D01*
X25299Y-61477D01*
X25299Y-61358D01*
X25254Y-61248D01*
X25170Y-61164D01*
X25060Y-61118D01*
X24941Y-61118D01*
X24831Y-61163D01*
X24771Y-61223D01*
X24771Y-59901D01*
X24775Y-59900D01*
X24859Y-59816D01*
X24905Y-59706D01*
X24905Y-59587D01*
X24860Y-59477D01*
X24776Y-59393D01*
X24771Y-59390D01*
X24771Y-57451D01*
X25687Y-56535D01*
X25789Y-56535D01*
X25945Y-56471D01*
X26065Y-56351D01*
X26096Y-56275D01*
X26190Y-56275D01*
X26253Y-56262D01*
X26307Y-56227D01*
X31250Y-51283D01*
X31259Y-51283D01*
X26950Y-55592D01*
X26915Y-55646D01*
X26902Y-55709D01*
X26902Y-56526D01*
X26835Y-56592D01*
X26832Y-56591D01*
X26713Y-56591D01*
X26603Y-56636D01*
X26519Y-56720D01*
X26473Y-56830D01*
X26473Y-56949D01*
X26518Y-57059D01*
X26602Y-57143D01*
X26712Y-57189D01*
X26831Y-57189D01*
X26941Y-57144D01*
X27025Y-57060D01*
X27071Y-56950D01*
X27071Y-56831D01*
X27069Y-56826D01*
X27184Y-56712D01*
X27219Y-56658D01*
X27232Y-56595D01*
X27232Y-55777D01*
X32057Y-50952D01*
X32082Y-50952D01*
X31773Y-51261D01*
X31738Y-51315D01*
X31725Y-51378D01*
X31725Y-54626D01*
X31738Y-54689D01*
X31773Y-54743D01*
X31869Y-54838D01*
X31871Y-54841D01*
X31925Y-54876D01*
X31988Y-54889D01*
X32137Y-54889D01*
X32130Y-54909D01*
X32130Y-54994D01*
X32148Y-55012D01*
X32343Y-55012D01*
X32343Y-54924D01*
X32617Y-54924D01*
X32617Y-55012D01*
X32812Y-55012D01*
X32830Y-54994D01*
X32830Y-54909D01*
X32822Y-54889D01*
X32989Y-54889D01*
X32989Y-55849D01*
X32983Y-55852D01*
X32948Y-55887D01*
X32929Y-55933D01*
X32929Y-55983D01*
X32929Y-56018D01*
X32879Y-56018D01*
X32879Y-55933D01*
X32860Y-55887D01*
X32830Y-55857D01*
X32830Y-55289D01*
X32830Y-55204D01*
X32812Y-55186D01*
X32617Y-55186D01*
X32617Y-55331D01*
X32635Y-55349D01*
X32740Y-55349D01*
X32770Y-55349D01*
X32797Y-55338D01*
X32819Y-55317D01*
X32830Y-55289D01*
X32830Y-55857D01*
X32825Y-55852D01*
X32779Y-55833D01*
X32729Y-55833D01*
X32529Y-55833D01*
X32483Y-55852D01*
X32448Y-55887D01*
X32429Y-55933D01*
X32429Y-55983D01*
X32429Y-56433D01*
X32448Y-56479D01*
X32483Y-56514D01*
X32529Y-56533D01*
X32579Y-56533D01*
X32779Y-56533D01*
X32825Y-56514D01*
X32860Y-56479D01*
X32879Y-56433D01*
X32879Y-56383D01*
X32879Y-56348D01*
X32929Y-56348D01*
X32929Y-56433D01*
X32948Y-56479D01*
X32983Y-56514D01*
X33029Y-56533D01*
X33079Y-56533D01*
X33279Y-56533D01*
X33325Y-56514D01*
X33360Y-56479D01*
X33379Y-56433D01*
X33379Y-56383D01*
X33379Y-55933D01*
X33360Y-55887D01*
X33325Y-55852D01*
X33319Y-55849D01*
X33319Y-54807D01*
X33306Y-54744D01*
X33271Y-54690D01*
X33268Y-54688D01*
X33188Y-54607D01*
X33134Y-54572D01*
X33071Y-54559D01*
X32875Y-54559D01*
X32880Y-54549D01*
X32880Y-54499D01*
X32880Y-54149D01*
X32861Y-54103D01*
X32826Y-54068D01*
X32780Y-54049D01*
X32730Y-54049D01*
X32715Y-54049D01*
X32715Y-53770D01*
X32825Y-53770D01*
X32871Y-53751D01*
X32906Y-53716D01*
X32925Y-53670D01*
X32925Y-53620D01*
X32925Y-53420D01*
X32925Y-52670D01*
X32925Y-52620D01*
X32925Y-52420D01*
X32906Y-52374D01*
X32871Y-52339D01*
X32825Y-52320D01*
X32775Y-52320D01*
X32275Y-52320D01*
X32229Y-52339D01*
X32194Y-52374D01*
X32175Y-52420D01*
X32175Y-52470D01*
X32175Y-52670D01*
X32194Y-52716D01*
X32229Y-52751D01*
X32275Y-52770D01*
X32325Y-52770D01*
X32825Y-52770D01*
X32871Y-52751D01*
X32906Y-52716D01*
X32925Y-52670D01*
X32925Y-53420D01*
X32906Y-53374D01*
X32875Y-53343D01*
X32875Y-53160D01*
X32875Y-53113D01*
X32875Y-52977D01*
X32875Y-52930D01*
X32864Y-52902D01*
X32842Y-52881D01*
X32815Y-52870D01*
X32785Y-52870D01*
X32693Y-52870D01*
X32675Y-52888D01*
X32675Y-52995D01*
X32857Y-52995D01*
X32875Y-52977D01*
X32875Y-53113D01*
X32857Y-53095D01*
X32675Y-53095D01*
X32675Y-53202D01*
X32693Y-53220D01*
X32785Y-53220D01*
X32815Y-53220D01*
X32842Y-53209D01*
X32864Y-53188D01*
X32875Y-53160D01*
X32875Y-53343D01*
X32871Y-53339D01*
X32825Y-53320D01*
X32775Y-53320D01*
X32425Y-53320D01*
X32425Y-53202D01*
X32425Y-53095D01*
X32425Y-52995D01*
X32425Y-52888D01*
X32407Y-52870D01*
X32315Y-52870D01*
X32285Y-52870D01*
X32258Y-52881D01*
X32236Y-52902D01*
X32225Y-52930D01*
X32225Y-52977D01*
X32243Y-52995D01*
X32425Y-52995D01*
X32425Y-53095D01*
X32243Y-53095D01*
X32225Y-53113D01*
X32225Y-53160D01*
X32236Y-53188D01*
X32258Y-53209D01*
X32285Y-53220D01*
X32315Y-53220D01*
X32407Y-53220D01*
X32425Y-53202D01*
X32425Y-53320D01*
X32275Y-53320D01*
X32229Y-53339D01*
X32194Y-53374D01*
X32175Y-53420D01*
X32175Y-53470D01*
X32175Y-53670D01*
X32194Y-53716D01*
X32229Y-53751D01*
X32275Y-53770D01*
X32325Y-53770D01*
X32385Y-53770D01*
X32385Y-54049D01*
X32180Y-54049D01*
X32134Y-54068D01*
X32099Y-54103D01*
X32080Y-54149D01*
X32080Y-54199D01*
X32080Y-54549D01*
X32084Y-54559D01*
X32056Y-54559D01*
X32055Y-54557D01*
X32055Y-51446D01*
X32244Y-51257D01*
X32275Y-51270D01*
X32325Y-51270D01*
X32825Y-51270D01*
X32871Y-51251D01*
X32906Y-51216D01*
X32925Y-51170D01*
X32925Y-51120D01*
X32925Y-50952D01*
X32973Y-50952D01*
X33036Y-50939D01*
X33090Y-50904D01*
X33385Y-50609D01*
X33420Y-50555D01*
X33433Y-50492D01*
X33433Y-49804D01*
X33420Y-49741D01*
X33385Y-49687D01*
X33382Y-49685D01*
X33126Y-49428D01*
X33072Y-49393D01*
X33009Y-49380D01*
X32908Y-49380D01*
X32906Y-49374D01*
X32871Y-49339D01*
X32825Y-49320D01*
X32775Y-49320D01*
X32275Y-49320D01*
X32229Y-49339D01*
X32194Y-49374D01*
X32191Y-49380D01*
X32029Y-49380D01*
X32059Y-49368D01*
X32143Y-49284D01*
X32173Y-49210D01*
X32191Y-49210D01*
X32194Y-49216D01*
X32229Y-49251D01*
X32275Y-49270D01*
X32325Y-49270D01*
X32825Y-49270D01*
X32871Y-49251D01*
X32906Y-49216D01*
X32925Y-49170D01*
X32925Y-49120D01*
X32925Y-48920D01*
X32906Y-48874D01*
X32875Y-48843D01*
X32875Y-48660D01*
X32875Y-48613D01*
X32875Y-48477D01*
X32875Y-48430D01*
X32864Y-48402D01*
X32842Y-48381D01*
X32815Y-48370D01*
X32785Y-48370D01*
X32693Y-48370D01*
X32675Y-48388D01*
X32675Y-48495D01*
X32857Y-48495D01*
X32875Y-48477D01*
X32875Y-48613D01*
X32857Y-48595D01*
X32675Y-48595D01*
X32675Y-48702D01*
X32693Y-48720D01*
X32785Y-48720D01*
X32815Y-48720D01*
X32842Y-48709D01*
X32864Y-48688D01*
X32875Y-48660D01*
X32875Y-48843D01*
X32871Y-48839D01*
X32825Y-48820D01*
X32775Y-48820D01*
X32425Y-48820D01*
X32425Y-48702D01*
X32425Y-48595D01*
X32425Y-48495D01*
X32425Y-48388D01*
X32407Y-48370D01*
X32315Y-48370D01*
X32285Y-48370D01*
X32258Y-48381D01*
X32236Y-48402D01*
X32225Y-48430D01*
X32225Y-48477D01*
X32243Y-48495D01*
X32425Y-48495D01*
X32425Y-48595D01*
X32243Y-48595D01*
X32225Y-48613D01*
X32225Y-48660D01*
X32236Y-48688D01*
X32258Y-48709D01*
X32285Y-48720D01*
X32315Y-48720D01*
X32407Y-48720D01*
X32425Y-48702D01*
X32425Y-48820D01*
X32275Y-48820D01*
X32229Y-48839D01*
X32194Y-48874D01*
X32191Y-48880D01*
X32079Y-48880D01*
X32060Y-48861D01*
X31950Y-48815D01*
X31831Y-48815D01*
X31731Y-48855D01*
X31731Y-42810D01*
X31530Y-42609D01*
X31489Y-42681D01*
X31483Y-42905D01*
X31489Y-42939D01*
X31530Y-43011D01*
X31731Y-42810D01*
X31731Y-48855D01*
X31721Y-48860D01*
X31637Y-48944D01*
X31591Y-49054D01*
X31591Y-49173D01*
X31591Y-49174D01*
X31552Y-49158D01*
X31502Y-49158D01*
X31452Y-49158D01*
X31452Y-43068D01*
X31452Y-43018D01*
X31452Y-42768D01*
X31433Y-42722D01*
X31402Y-42691D01*
X31402Y-42458D01*
X31402Y-42398D01*
X31402Y-42238D01*
X31402Y-42178D01*
X31391Y-42150D01*
X31369Y-42129D01*
X31342Y-42118D01*
X31312Y-42118D01*
X31232Y-42118D01*
X31214Y-42136D01*
X31214Y-42256D01*
X31384Y-42256D01*
X31402Y-42238D01*
X31402Y-42398D01*
X31384Y-42380D01*
X31214Y-42380D01*
X31214Y-42500D01*
X31232Y-42518D01*
X31312Y-42518D01*
X31342Y-42518D01*
X31369Y-42507D01*
X31391Y-42486D01*
X31402Y-42458D01*
X31402Y-42691D01*
X31398Y-42687D01*
X31352Y-42668D01*
X31302Y-42668D01*
X30990Y-42668D01*
X30990Y-42500D01*
X30990Y-42380D01*
X30990Y-42256D01*
X30990Y-42136D01*
X30972Y-42118D01*
X30892Y-42118D01*
X30862Y-42118D01*
X30835Y-42129D01*
X30813Y-42150D01*
X30802Y-42178D01*
X30802Y-42238D01*
X30820Y-42256D01*
X30990Y-42256D01*
X30990Y-42380D01*
X30820Y-42380D01*
X30802Y-42398D01*
X30802Y-42458D01*
X30813Y-42486D01*
X30835Y-42507D01*
X30862Y-42518D01*
X30892Y-42518D01*
X30972Y-42518D01*
X30990Y-42500D01*
X30990Y-42668D01*
X30852Y-42668D01*
X30806Y-42687D01*
X30771Y-42722D01*
X30752Y-42768D01*
X30752Y-42818D01*
X30752Y-43068D01*
X30771Y-43114D01*
X30806Y-43149D01*
X30852Y-43168D01*
X30902Y-43168D01*
X30937Y-43168D01*
X30937Y-43238D01*
X30836Y-43339D01*
X30743Y-43339D01*
X30743Y-40251D01*
X30743Y-40221D01*
X30743Y-40116D01*
X30743Y-39806D01*
X30743Y-39701D01*
X30743Y-39671D01*
X30732Y-39644D01*
X30711Y-39622D01*
X30683Y-39611D01*
X30598Y-39611D01*
X30580Y-39629D01*
X30580Y-39824D01*
X30725Y-39824D01*
X30743Y-39806D01*
X30743Y-40116D01*
X30725Y-40098D01*
X30580Y-40098D01*
X30580Y-40293D01*
X30598Y-40311D01*
X30683Y-40311D01*
X30711Y-40300D01*
X30732Y-40278D01*
X30743Y-40251D01*
X30743Y-43339D01*
X30570Y-43339D01*
X30570Y-43254D01*
X30551Y-43208D01*
X30516Y-43173D01*
X30470Y-43154D01*
X30420Y-43154D01*
X30406Y-43154D01*
X30406Y-40293D01*
X30406Y-40098D01*
X30406Y-39824D01*
X30406Y-39629D01*
X30388Y-39611D01*
X30303Y-39611D01*
X30275Y-39622D01*
X30254Y-39644D01*
X30243Y-39671D01*
X30243Y-39701D01*
X30243Y-39806D01*
X30261Y-39824D01*
X30406Y-39824D01*
X30406Y-40098D01*
X30261Y-40098D01*
X30243Y-40116D01*
X30243Y-40221D01*
X30243Y-40251D01*
X30254Y-40278D01*
X30275Y-40300D01*
X30303Y-40311D01*
X30388Y-40311D01*
X30406Y-40293D01*
X30406Y-43154D01*
X30224Y-43154D01*
X30224Y-42071D01*
X30224Y-42041D01*
X30224Y-41961D01*
X30224Y-41701D01*
X30224Y-41621D01*
X30224Y-41591D01*
X30213Y-41564D01*
X30192Y-41542D01*
X30164Y-41531D01*
X30104Y-41531D01*
X30086Y-41549D01*
X30086Y-41719D01*
X30206Y-41719D01*
X30224Y-41701D01*
X30224Y-41961D01*
X30206Y-41943D01*
X30086Y-41943D01*
X30086Y-42113D01*
X30104Y-42131D01*
X30164Y-42131D01*
X30192Y-42120D01*
X30213Y-42098D01*
X30224Y-42071D01*
X30224Y-43154D01*
X30170Y-43154D01*
X30124Y-43173D01*
X30089Y-43208D01*
X30070Y-43254D01*
X30070Y-43304D01*
X30070Y-43754D01*
X30089Y-43800D01*
X30124Y-43835D01*
X30170Y-43854D01*
X30220Y-43854D01*
X30470Y-43854D01*
X30516Y-43835D01*
X30551Y-43800D01*
X30570Y-43754D01*
X30570Y-43704D01*
X30570Y-43669D01*
X30905Y-43669D01*
X30968Y-43656D01*
X31022Y-43621D01*
X31216Y-43425D01*
X31218Y-43424D01*
X31219Y-43424D01*
X31254Y-43370D01*
X31267Y-43307D01*
X31267Y-43168D01*
X31352Y-43168D01*
X31398Y-43149D01*
X31433Y-43114D01*
X31452Y-43068D01*
X31452Y-49158D01*
X31252Y-49158D01*
X31206Y-49177D01*
X31171Y-49212D01*
X31152Y-49258D01*
X31152Y-49308D01*
X31152Y-49758D01*
X31171Y-49804D01*
X31206Y-49839D01*
X31252Y-49858D01*
X31302Y-49858D01*
X31552Y-49858D01*
X31598Y-49839D01*
X31633Y-49804D01*
X31652Y-49758D01*
X31652Y-49710D01*
X32191Y-49710D01*
X32194Y-49716D01*
X32229Y-49751D01*
X32275Y-49770D01*
X32325Y-49770D01*
X32825Y-49770D01*
X32871Y-49751D01*
X32906Y-49716D01*
X32908Y-49710D01*
X32940Y-49710D01*
X33103Y-49872D01*
X33103Y-50423D01*
X32925Y-50601D01*
X32925Y-50420D01*
X32906Y-50374D01*
X32871Y-50339D01*
X32825Y-50320D01*
X32775Y-50320D01*
X32275Y-50320D01*
X32229Y-50339D01*
X32194Y-50374D01*
X32191Y-50380D01*
X28195Y-50380D01*
X28132Y-50393D01*
X28078Y-50428D01*
X28076Y-50430D01*
X24588Y-53918D01*
X24553Y-53972D01*
X24540Y-54035D01*
X24540Y-54718D01*
X24465Y-54749D01*
X24345Y-54869D01*
X24280Y-55025D01*
X24280Y-55194D01*
X24344Y-55350D01*
X24446Y-55452D01*
X23964Y-55452D01*
X24065Y-55351D01*
X24130Y-55195D01*
X24130Y-55026D01*
X24066Y-54870D01*
X23946Y-54750D01*
X23790Y-54685D01*
X23621Y-54685D01*
X23465Y-54749D01*
X23345Y-54869D01*
X23280Y-55025D01*
X23280Y-55194D01*
X23344Y-55350D01*
X23446Y-55452D01*
X23262Y-55452D01*
X23254Y-55431D01*
X23170Y-55347D01*
X23060Y-55301D01*
X22941Y-55301D01*
X22831Y-55346D01*
X22803Y-55374D01*
X22803Y-54890D01*
X27483Y-50210D01*
X32191Y-50210D01*
X32194Y-50216D01*
X32229Y-50251D01*
X32275Y-50270D01*
X32325Y-50270D01*
X32825Y-50270D01*
X32871Y-50251D01*
X32906Y-50216D01*
X32925Y-50170D01*
X32925Y-50120D01*
X32925Y-49920D01*
X32906Y-49874D01*
X32871Y-49839D01*
X32825Y-49820D01*
X32775Y-49820D01*
X32275Y-49820D01*
X32229Y-49839D01*
X32194Y-49874D01*
X32191Y-49880D01*
X31052Y-49880D01*
X31052Y-49758D01*
X31052Y-49708D01*
X31052Y-49258D01*
X31033Y-49212D01*
X30998Y-49177D01*
X30952Y-49158D01*
X30902Y-49158D01*
X30652Y-49158D01*
X30606Y-49177D01*
X30571Y-49212D01*
X30552Y-49258D01*
X30552Y-49283D01*
X30415Y-49283D01*
X30392Y-49260D01*
X30392Y-48608D01*
X30517Y-48608D01*
X30563Y-48589D01*
X30598Y-48554D01*
X30617Y-48508D01*
X30617Y-48458D01*
X30617Y-48108D01*
X30598Y-48062D01*
X30567Y-48031D01*
X30567Y-47748D01*
X30567Y-47663D01*
X30567Y-47453D01*
X30567Y-47368D01*
X30556Y-47340D01*
X30534Y-47319D01*
X30507Y-47308D01*
X30477Y-47308D01*
X30372Y-47308D01*
X30354Y-47326D01*
X30354Y-47471D01*
X30549Y-47471D01*
X30567Y-47453D01*
X30567Y-47663D01*
X30549Y-47645D01*
X30354Y-47645D01*
X30354Y-47790D01*
X30372Y-47808D01*
X30477Y-47808D01*
X30507Y-47808D01*
X30534Y-47797D01*
X30556Y-47776D01*
X30567Y-47748D01*
X30567Y-48031D01*
X30563Y-48027D01*
X30517Y-48008D01*
X30467Y-48008D01*
X30080Y-48008D01*
X30080Y-47790D01*
X30080Y-47645D01*
X30080Y-47471D01*
X30080Y-47326D01*
X30062Y-47308D01*
X29970Y-47308D01*
X29970Y-43754D01*
X29970Y-43704D01*
X29970Y-43254D01*
X29962Y-43234D01*
X29962Y-42113D01*
X29962Y-41943D01*
X29962Y-41719D01*
X29962Y-41549D01*
X29944Y-41531D01*
X29884Y-41531D01*
X29856Y-41542D01*
X29835Y-41564D01*
X29824Y-41591D01*
X29824Y-41621D01*
X29824Y-41701D01*
X29842Y-41719D01*
X29962Y-41719D01*
X29962Y-41943D01*
X29842Y-41943D01*
X29824Y-41961D01*
X29824Y-42041D01*
X29824Y-42071D01*
X29835Y-42098D01*
X29856Y-42120D01*
X29884Y-42131D01*
X29944Y-42131D01*
X29962Y-42113D01*
X29962Y-43234D01*
X29951Y-43208D01*
X29916Y-43173D01*
X29870Y-43154D01*
X29820Y-43154D01*
X29674Y-43154D01*
X29674Y-42081D01*
X29674Y-42031D01*
X29674Y-41581D01*
X29655Y-41535D01*
X29620Y-41500D01*
X29574Y-41481D01*
X29524Y-41481D01*
X29274Y-41481D01*
X29228Y-41500D01*
X29193Y-41535D01*
X29174Y-41581D01*
X29174Y-41631D01*
X29174Y-41666D01*
X29006Y-41666D01*
X28907Y-41566D01*
X28904Y-41564D01*
X28807Y-41466D01*
X28807Y-41298D01*
X28892Y-41298D01*
X28938Y-41279D01*
X28973Y-41244D01*
X28992Y-41198D01*
X28992Y-41148D01*
X28992Y-40898D01*
X28973Y-40852D01*
X28938Y-40817D01*
X28892Y-40798D01*
X28842Y-40798D01*
X28392Y-40798D01*
X28346Y-40817D01*
X28311Y-40852D01*
X28292Y-40898D01*
X28292Y-40948D01*
X28292Y-41198D01*
X28311Y-41244D01*
X28346Y-41279D01*
X28392Y-41298D01*
X28442Y-41298D01*
X28477Y-41298D01*
X28477Y-41535D01*
X28484Y-41572D01*
X28473Y-41577D01*
X28389Y-41661D01*
X28343Y-41771D01*
X28343Y-41890D01*
X28388Y-42000D01*
X28472Y-42084D01*
X28582Y-42130D01*
X28701Y-42130D01*
X28811Y-42085D01*
X28895Y-42001D01*
X28900Y-41988D01*
X28938Y-41996D01*
X29174Y-41996D01*
X29174Y-42081D01*
X29193Y-42127D01*
X29228Y-42162D01*
X29274Y-42181D01*
X29324Y-42181D01*
X29574Y-42181D01*
X29620Y-42162D01*
X29655Y-42127D01*
X29674Y-42081D01*
X29674Y-43154D01*
X29570Y-43154D01*
X29524Y-43173D01*
X29489Y-43208D01*
X29470Y-43254D01*
X29470Y-43304D01*
X29470Y-43339D01*
X29429Y-43339D01*
X29388Y-43237D01*
X29304Y-43153D01*
X29194Y-43107D01*
X29075Y-43107D01*
X28965Y-43152D01*
X28881Y-43236D01*
X28835Y-43346D01*
X28835Y-43465D01*
X28880Y-43575D01*
X28964Y-43659D01*
X29074Y-43705D01*
X29193Y-43705D01*
X29281Y-43669D01*
X29470Y-43669D01*
X29470Y-43754D01*
X29489Y-43800D01*
X29524Y-43835D01*
X29570Y-43854D01*
X29620Y-43854D01*
X29870Y-43854D01*
X29916Y-43835D01*
X29951Y-43800D01*
X29970Y-43754D01*
X29970Y-47308D01*
X29957Y-47308D01*
X29927Y-47308D01*
X29900Y-47319D01*
X29878Y-47340D01*
X29867Y-47368D01*
X29867Y-47453D01*
X29885Y-47471D01*
X30080Y-47471D01*
X30080Y-47645D01*
X29885Y-47645D01*
X29867Y-47663D01*
X29867Y-47748D01*
X29878Y-47776D01*
X29900Y-47797D01*
X29927Y-47808D01*
X29957Y-47808D01*
X30062Y-47808D01*
X30080Y-47790D01*
X30080Y-48008D01*
X29917Y-48008D01*
X29871Y-48027D01*
X29836Y-48062D01*
X29817Y-48108D01*
X29817Y-48158D01*
X29817Y-48508D01*
X29836Y-48554D01*
X29871Y-48589D01*
X29917Y-48608D01*
X29967Y-48608D01*
X30042Y-48608D01*
X30042Y-49260D01*
X29964Y-49338D01*
X29918Y-49448D01*
X29918Y-49567D01*
X29963Y-49677D01*
X30047Y-49761D01*
X30157Y-49807D01*
X30276Y-49807D01*
X30386Y-49762D01*
X30415Y-49733D01*
X30552Y-49733D01*
X30552Y-49758D01*
X30571Y-49804D01*
X30606Y-49839D01*
X30652Y-49858D01*
X30702Y-49858D01*
X30952Y-49858D01*
X30998Y-49839D01*
X31033Y-49804D01*
X31052Y-49758D01*
X31052Y-49880D01*
X27515Y-49880D01*
X27515Y-40919D01*
X27515Y-40834D01*
X27515Y-40624D01*
X27515Y-40539D01*
X27504Y-40511D01*
X27482Y-40490D01*
X27455Y-40479D01*
X27425Y-40479D01*
X27320Y-40479D01*
X27302Y-40497D01*
X27302Y-40642D01*
X27497Y-40642D01*
X27515Y-40624D01*
X27515Y-40834D01*
X27497Y-40816D01*
X27302Y-40816D01*
X27302Y-40961D01*
X27320Y-40979D01*
X27425Y-40979D01*
X27455Y-40979D01*
X27482Y-40968D01*
X27504Y-40947D01*
X27515Y-40919D01*
X27515Y-49880D01*
X27415Y-49880D01*
X27352Y-49893D01*
X27298Y-49928D01*
X27296Y-49930D01*
X27028Y-50198D01*
X27028Y-40961D01*
X27028Y-40816D01*
X27028Y-40642D01*
X27028Y-40497D01*
X27010Y-40479D01*
X26905Y-40479D01*
X26875Y-40479D01*
X26848Y-40490D01*
X26826Y-40511D01*
X26815Y-40539D01*
X26815Y-40624D01*
X26833Y-40642D01*
X27028Y-40642D01*
X27028Y-40816D01*
X26833Y-40816D01*
X26815Y-40834D01*
X26815Y-40919D01*
X26826Y-40947D01*
X26848Y-40968D01*
X26875Y-40979D01*
X26905Y-40979D01*
X27010Y-40979D01*
X27028Y-40961D01*
X27028Y-50198D01*
X25275Y-51951D01*
X25275Y-42800D01*
X25275Y-42200D01*
X25273Y-42008D01*
X25197Y-41831D01*
X25049Y-41724D01*
X24985Y-41708D01*
X24985Y-42275D01*
X25237Y-42275D01*
X25275Y-42200D01*
X25275Y-42800D01*
X25237Y-42725D01*
X24985Y-42725D01*
X24985Y-43292D01*
X25049Y-43276D01*
X25197Y-43169D01*
X25273Y-42992D01*
X25275Y-42800D01*
X25275Y-51951D01*
X24595Y-52631D01*
X24595Y-43292D01*
X24595Y-42725D01*
X24595Y-42275D01*
X24595Y-41708D01*
X24531Y-41724D01*
X24383Y-41831D01*
X24307Y-42008D01*
X24305Y-42200D01*
X24343Y-42275D01*
X24595Y-42275D01*
X24595Y-42725D01*
X24343Y-42725D01*
X24305Y-42800D01*
X24307Y-42992D01*
X24383Y-43169D01*
X24531Y-43276D01*
X24595Y-43292D01*
X24595Y-52631D01*
X24247Y-52979D01*
X24247Y-41038D01*
X24247Y-41008D01*
X24247Y-40903D01*
X24247Y-40593D01*
X24247Y-40488D01*
X24247Y-40458D01*
X24236Y-40431D01*
X24215Y-40409D01*
X24187Y-40398D01*
X24102Y-40398D01*
X24084Y-40416D01*
X24084Y-40611D01*
X24229Y-40611D01*
X24247Y-40593D01*
X24247Y-40903D01*
X24229Y-40885D01*
X24084Y-40885D01*
X24084Y-41080D01*
X24102Y-41098D01*
X24187Y-41098D01*
X24215Y-41087D01*
X24236Y-41065D01*
X24247Y-41038D01*
X24247Y-52979D01*
X23910Y-53316D01*
X23910Y-41080D01*
X23910Y-40885D01*
X23910Y-40611D01*
X23910Y-40416D01*
X23892Y-40398D01*
X23807Y-40398D01*
X23779Y-40409D01*
X23758Y-40431D01*
X23747Y-40458D01*
X23747Y-40488D01*
X23747Y-40593D01*
X23765Y-40611D01*
X23910Y-40611D01*
X23910Y-40885D01*
X23765Y-40885D01*
X23747Y-40903D01*
X23747Y-41008D01*
X23747Y-41038D01*
X23758Y-41065D01*
X23779Y-41087D01*
X23807Y-41098D01*
X23892Y-41098D01*
X23910Y-41080D01*
X23910Y-53316D01*
X22521Y-54705D01*
X22486Y-54759D01*
X22473Y-54822D01*
X22473Y-57283D01*
X22486Y-57346D01*
X22521Y-57400D01*
X23915Y-58793D01*
X23914Y-58798D01*
X23914Y-58917D01*
X23959Y-59027D01*
X24043Y-59111D01*
X24153Y-59157D01*
X24272Y-59157D01*
X24382Y-59112D01*
X24441Y-59053D01*
X24441Y-59390D01*
X24437Y-59392D01*
X24353Y-59476D01*
X24350Y-59481D01*
X24270Y-59481D01*
X24270Y-59396D01*
X24251Y-59350D01*
X24216Y-59315D01*
X24170Y-59296D01*
X24120Y-59296D01*
X23870Y-59296D01*
X23824Y-59315D01*
X23789Y-59350D01*
X23770Y-59396D01*
X23770Y-59446D01*
X23770Y-59896D01*
X23789Y-59942D01*
X23824Y-59977D01*
X23870Y-59996D01*
X23920Y-59996D01*
X24170Y-59996D01*
X24216Y-59977D01*
X24251Y-59942D01*
X24270Y-59896D01*
X24270Y-59846D01*
X24270Y-59811D01*
X24350Y-59811D01*
X24352Y-59815D01*
X24436Y-59899D01*
X24441Y-59901D01*
X24441Y-62205D01*
X24454Y-62268D01*
X24489Y-62322D01*
X25471Y-63303D01*
X25473Y-63306D01*
X25527Y-63341D01*
X25590Y-63354D01*
X26112Y-63354D01*
X26311Y-63553D01*
X26311Y-63922D01*
X26202Y-63813D01*
X26046Y-63748D01*
X25877Y-63748D01*
X25721Y-63812D01*
X25601Y-63932D01*
X25536Y-64088D01*
X25536Y-64257D01*
X25600Y-64413D01*
X25720Y-64533D01*
X25876Y-64598D01*
X26045Y-64598D01*
X26201Y-64534D01*
X26311Y-64424D01*
X26311Y-64566D01*
X26324Y-64629D01*
X26359Y-64683D01*
X26557Y-64881D01*
X26611Y-64916D01*
X26674Y-64929D01*
X28180Y-64929D01*
X28909Y-65658D01*
X28872Y-65696D01*
X28807Y-65852D01*
X28807Y-66021D01*
X28838Y-66097D01*
X28623Y-66312D01*
X28588Y-66366D01*
X28575Y-66429D01*
X28575Y-66679D01*
X28473Y-66577D01*
X28317Y-66512D01*
X28148Y-66512D01*
X27992Y-66576D01*
X27872Y-66696D01*
X27807Y-66852D01*
X27807Y-67021D01*
X27871Y-67177D01*
X27991Y-67297D01*
X28147Y-67362D01*
X28316Y-67362D01*
X28472Y-67298D01*
X28575Y-67195D01*
X28575Y-68089D01*
X28588Y-68152D01*
X28623Y-68206D01*
X29257Y-68839D01*
X29259Y-68842D01*
X29308Y-68873D01*
X29307Y-68877D01*
X29307Y-68996D01*
X29352Y-69106D01*
X29436Y-69190D01*
X29546Y-69236D01*
X29665Y-69236D01*
X29775Y-69191D01*
X29859Y-69107D01*
X29905Y-68997D01*
X29905Y-68878D01*
X29860Y-68768D01*
X29776Y-68684D01*
X29666Y-68638D01*
X29547Y-68638D01*
X29542Y-68639D01*
X29504Y-68601D01*
X29493Y-68584D01*
X29439Y-68549D01*
X29431Y-68547D01*
X28905Y-68020D01*
X28905Y-67211D01*
X28991Y-67297D01*
X29147Y-67362D01*
X29316Y-67362D01*
X29472Y-67298D01*
X29592Y-67178D01*
X29657Y-67022D01*
X29657Y-66853D01*
X29593Y-66697D01*
X29473Y-66577D01*
X29317Y-66512D01*
X29148Y-66512D01*
X28992Y-66576D01*
X28905Y-66663D01*
X28905Y-66497D01*
X29071Y-66330D01*
X29147Y-66362D01*
X29316Y-66362D01*
X29472Y-66298D01*
X29549Y-66221D01*
X29549Y-66437D01*
X29562Y-66504D01*
X29600Y-66561D01*
X29831Y-66792D01*
X29807Y-66852D01*
X29807Y-67021D01*
X29871Y-67177D01*
X29991Y-67297D01*
X30007Y-67303D01*
X30007Y-69477D01*
X29139Y-70345D01*
X27657Y-70345D01*
X27657Y-67262D01*
X27657Y-67212D01*
X27657Y-66612D01*
X27638Y-66566D01*
X27603Y-66531D01*
X27600Y-66529D01*
X27600Y-65871D01*
X27598Y-65857D01*
X27566Y-65815D01*
X27444Y-65937D01*
X27566Y-66059D01*
X27598Y-66017D01*
X27600Y-65871D01*
X27600Y-66529D01*
X27557Y-66512D01*
X27507Y-66512D01*
X27354Y-66512D01*
X27354Y-66271D01*
X27354Y-65603D01*
X27312Y-65571D01*
X27166Y-65569D01*
X27152Y-65571D01*
X27110Y-65603D01*
X27232Y-65725D01*
X27354Y-65603D01*
X27354Y-66271D01*
X27232Y-66149D01*
X27110Y-66271D01*
X27152Y-66303D01*
X27298Y-66305D01*
X27312Y-66303D01*
X27354Y-66271D01*
X27354Y-66512D01*
X27020Y-66512D01*
X27020Y-65937D01*
X26898Y-65815D01*
X26866Y-65857D01*
X26864Y-66003D01*
X26866Y-66017D01*
X26898Y-66059D01*
X27020Y-65937D01*
X27020Y-66512D01*
X26907Y-66512D01*
X26861Y-66531D01*
X26826Y-66566D01*
X26807Y-66612D01*
X26807Y-66662D01*
X26807Y-67262D01*
X26826Y-67308D01*
X26861Y-67343D01*
X26907Y-67362D01*
X26957Y-67362D01*
X27557Y-67362D01*
X27603Y-67343D01*
X27638Y-67308D01*
X27657Y-67262D01*
X27657Y-70345D01*
X27356Y-70345D01*
X26505Y-69494D01*
X26505Y-65742D01*
X26766Y-65481D01*
X27760Y-65481D01*
X27923Y-65644D01*
X27872Y-65696D01*
X27807Y-65852D01*
X27807Y-66021D01*
X27871Y-66177D01*
X27991Y-66297D01*
X28147Y-66362D01*
X28316Y-66362D01*
X28472Y-66298D01*
X28592Y-66178D01*
X28657Y-66022D01*
X28657Y-65853D01*
X28593Y-65697D01*
X28473Y-65577D01*
X28443Y-65564D01*
X28440Y-65548D01*
X28439Y-65547D01*
X28423Y-65523D01*
X28391Y-65475D01*
X28391Y-65474D01*
X28013Y-65097D01*
X27940Y-65048D01*
X27854Y-65031D01*
X26673Y-65031D01*
X26587Y-65048D01*
X26562Y-65064D01*
X26513Y-65097D01*
X26121Y-65490D01*
X26072Y-65563D01*
X26055Y-65649D01*
X26055Y-69587D01*
X26055Y-71264D01*
X25768Y-71551D01*
X25728Y-71551D01*
X25618Y-71596D01*
X25534Y-71680D01*
X25488Y-71790D01*
X25488Y-71831D01*
X25441Y-71878D01*
X25441Y-70959D01*
X25441Y-70790D01*
X25377Y-70634D01*
X25257Y-70514D01*
X25101Y-70449D01*
X24932Y-70449D01*
X24850Y-70482D01*
X24673Y-70305D01*
X24673Y-70132D01*
X24775Y-70234D01*
X24931Y-70299D01*
X25100Y-70299D01*
X25256Y-70235D01*
X25376Y-70115D01*
X25441Y-69959D01*
X25441Y-69790D01*
X25386Y-69655D01*
X25386Y-64498D01*
X25386Y-64448D01*
X25386Y-63848D01*
X25367Y-63802D01*
X25332Y-63767D01*
X25286Y-63748D01*
X25236Y-63748D01*
X24636Y-63748D01*
X24590Y-63767D01*
X24555Y-63802D01*
X24536Y-63848D01*
X24536Y-63898D01*
X24536Y-64008D01*
X23670Y-64008D01*
X23670Y-59896D01*
X23670Y-59846D01*
X23670Y-59396D01*
X23651Y-59350D01*
X23616Y-59315D01*
X23570Y-59296D01*
X23520Y-59296D01*
X23270Y-59296D01*
X23224Y-59315D01*
X23189Y-59350D01*
X23170Y-59396D01*
X23170Y-59446D01*
X23170Y-59481D01*
X22638Y-59481D01*
X22575Y-59494D01*
X22521Y-59529D01*
X21922Y-60128D01*
X21887Y-60182D01*
X21874Y-60245D01*
X21874Y-63748D01*
X21714Y-63748D01*
X21668Y-63767D01*
X21633Y-63802D01*
X21614Y-63848D01*
X21614Y-63898D01*
X21614Y-64498D01*
X21633Y-64544D01*
X21668Y-64579D01*
X21714Y-64598D01*
X21764Y-64598D01*
X22364Y-64598D01*
X22410Y-64579D01*
X22445Y-64544D01*
X22464Y-64498D01*
X22464Y-64448D01*
X22464Y-63848D01*
X22445Y-63802D01*
X22410Y-63767D01*
X22364Y-63748D01*
X22314Y-63748D01*
X22204Y-63748D01*
X22204Y-60314D01*
X22707Y-59811D01*
X23170Y-59811D01*
X23170Y-59896D01*
X23189Y-59942D01*
X23224Y-59977D01*
X23270Y-59996D01*
X23320Y-59996D01*
X23570Y-59996D01*
X23616Y-59977D01*
X23651Y-59942D01*
X23670Y-59896D01*
X23670Y-64008D01*
X23430Y-64008D01*
X23400Y-63933D01*
X23280Y-63813D01*
X23124Y-63748D01*
X22955Y-63748D01*
X22799Y-63812D01*
X22679Y-63932D01*
X22614Y-64088D01*
X22614Y-64257D01*
X22678Y-64413D01*
X22798Y-64533D01*
X22954Y-64598D01*
X23123Y-64598D01*
X23279Y-64534D01*
X23399Y-64414D01*
X23430Y-64338D01*
X24536Y-64338D01*
X24536Y-64498D01*
X24555Y-64544D01*
X24590Y-64579D01*
X24636Y-64598D01*
X24686Y-64598D01*
X25286Y-64598D01*
X25332Y-64579D01*
X25367Y-64544D01*
X25386Y-64498D01*
X25386Y-69655D01*
X25377Y-69634D01*
X25257Y-69514D01*
X25101Y-69449D01*
X24932Y-69449D01*
X24776Y-69513D01*
X24673Y-69616D01*
X24673Y-65620D01*
X24768Y-65524D01*
X24842Y-65555D01*
X24961Y-65555D01*
X25071Y-65510D01*
X25155Y-65426D01*
X25201Y-65316D01*
X25201Y-65197D01*
X25156Y-65087D01*
X25072Y-65003D01*
X24962Y-64957D01*
X24843Y-64957D01*
X24733Y-65002D01*
X24649Y-65086D01*
X24646Y-65091D01*
X21723Y-65091D01*
X21425Y-64793D01*
X21425Y-54596D01*
X23539Y-52481D01*
X23541Y-52480D01*
X23542Y-52480D01*
X23576Y-52426D01*
X23577Y-52426D01*
X23587Y-52374D01*
X23590Y-52364D01*
X23589Y-52363D01*
X23590Y-52363D01*
X23590Y-49311D01*
X23577Y-49248D01*
X23542Y-49194D01*
X22972Y-48624D01*
X22972Y-48621D01*
X22908Y-48465D01*
X22788Y-48345D01*
X22632Y-48280D01*
X22463Y-48280D01*
X22307Y-48344D01*
X22187Y-48464D01*
X22185Y-48468D01*
X22185Y-46388D01*
X22185Y-46338D01*
X22185Y-45738D01*
X22166Y-45692D01*
X22131Y-45657D01*
X22085Y-45638D01*
X22035Y-45638D01*
X21610Y-45638D01*
X21610Y-43478D01*
X21610Y-43393D01*
X21610Y-43183D01*
X21610Y-43098D01*
X21599Y-43070D01*
X21577Y-43049D01*
X21550Y-43038D01*
X21520Y-43038D01*
X21415Y-43038D01*
X21397Y-43056D01*
X21397Y-43201D01*
X21592Y-43201D01*
X21610Y-43183D01*
X21610Y-43393D01*
X21592Y-43375D01*
X21397Y-43375D01*
X21397Y-43520D01*
X21415Y-43538D01*
X21520Y-43538D01*
X21550Y-43538D01*
X21577Y-43527D01*
X21599Y-43506D01*
X21610Y-43478D01*
X21610Y-45638D01*
X21435Y-45638D01*
X21389Y-45657D01*
X21354Y-45692D01*
X21335Y-45738D01*
X21335Y-45788D01*
X21335Y-46388D01*
X21354Y-46434D01*
X21389Y-46469D01*
X21435Y-46488D01*
X21485Y-46488D01*
X22085Y-46488D01*
X22131Y-46469D01*
X22166Y-46434D01*
X22185Y-46388D01*
X22185Y-48468D01*
X22122Y-48620D01*
X22122Y-48789D01*
X22186Y-48945D01*
X22306Y-49065D01*
X22462Y-49130D01*
X22631Y-49130D01*
X22787Y-49066D01*
X22866Y-48986D01*
X23260Y-49380D01*
X23260Y-52294D01*
X22972Y-52582D01*
X22972Y-51030D01*
X22972Y-50980D01*
X22972Y-50380D01*
X22953Y-50334D01*
X22918Y-50299D01*
X22872Y-50280D01*
X22822Y-50280D01*
X22222Y-50280D01*
X22176Y-50299D01*
X22141Y-50334D01*
X22122Y-50380D01*
X22122Y-50430D01*
X22122Y-51030D01*
X22141Y-51076D01*
X22176Y-51111D01*
X22222Y-51130D01*
X22272Y-51130D01*
X22872Y-51130D01*
X22918Y-51111D01*
X22953Y-51076D01*
X22972Y-51030D01*
X22972Y-52582D01*
X21915Y-53639D01*
X21915Y-50639D01*
X21913Y-50625D01*
X21881Y-50583D01*
X21759Y-50705D01*
X21881Y-50827D01*
X21913Y-50785D01*
X21915Y-50639D01*
X21915Y-53639D01*
X21669Y-53885D01*
X21669Y-51039D01*
X21669Y-50371D01*
X21627Y-50339D01*
X21481Y-50337D01*
X21467Y-50339D01*
X21425Y-50371D01*
X21547Y-50493D01*
X21669Y-50371D01*
X21669Y-51039D01*
X21547Y-50917D01*
X21425Y-51039D01*
X21467Y-51071D01*
X21613Y-51073D01*
X21627Y-51071D01*
X21669Y-51039D01*
X21669Y-53885D01*
X21335Y-54219D01*
X21335Y-50705D01*
X21213Y-50583D01*
X21181Y-50625D01*
X21179Y-50771D01*
X21181Y-50785D01*
X21213Y-50827D01*
X21335Y-50705D01*
X21335Y-54219D01*
X21143Y-54411D01*
X21108Y-54465D01*
X21095Y-54528D01*
X21095Y-64862D01*
X21108Y-64925D01*
X21143Y-64979D01*
X21537Y-65373D01*
X21591Y-65408D01*
X21654Y-65421D01*
X24404Y-65421D01*
X24391Y-65434D01*
X24356Y-65488D01*
X24343Y-65551D01*
X24343Y-67906D01*
X24312Y-67875D01*
X24266Y-67856D01*
X24241Y-67856D01*
X24241Y-67717D01*
X24224Y-67631D01*
X24223Y-67630D01*
X24207Y-67606D01*
X24175Y-67558D01*
X24175Y-67557D01*
X23879Y-67262D01*
X23806Y-67213D01*
X23720Y-67196D01*
X22540Y-67196D01*
X22454Y-67213D01*
X22442Y-67221D01*
X22382Y-67221D01*
X22272Y-67266D01*
X22188Y-67350D01*
X22142Y-67460D01*
X22142Y-67579D01*
X22187Y-67689D01*
X22271Y-67773D01*
X22381Y-67819D01*
X22500Y-67819D01*
X22610Y-67774D01*
X22694Y-67690D01*
X22712Y-67646D01*
X23626Y-67646D01*
X23791Y-67810D01*
X23791Y-67856D01*
X23766Y-67856D01*
X23720Y-67875D01*
X23685Y-67910D01*
X23666Y-67956D01*
X23666Y-68006D01*
X23666Y-68256D01*
X23685Y-68302D01*
X23720Y-68337D01*
X23766Y-68356D01*
X23816Y-68356D01*
X24266Y-68356D01*
X24312Y-68337D01*
X24343Y-68306D01*
X24343Y-68506D01*
X24312Y-68475D01*
X24266Y-68456D01*
X24216Y-68456D01*
X23766Y-68456D01*
X23720Y-68475D01*
X23685Y-68510D01*
X23672Y-68541D01*
X22908Y-68541D01*
X21031Y-66663D01*
X21031Y-50455D01*
X21387Y-50098D01*
X21462Y-50130D01*
X21631Y-50130D01*
X21787Y-50066D01*
X21907Y-49946D01*
X21972Y-49790D01*
X21972Y-49621D01*
X21908Y-49465D01*
X21821Y-49378D01*
X21986Y-49378D01*
X22153Y-49544D01*
X22122Y-49620D01*
X22122Y-49789D01*
X22186Y-49945D01*
X22306Y-50065D01*
X22462Y-50130D01*
X22631Y-50130D01*
X22787Y-50066D01*
X22907Y-49946D01*
X22972Y-49790D01*
X22972Y-49621D01*
X22908Y-49465D01*
X22788Y-49345D01*
X22632Y-49280D01*
X22463Y-49280D01*
X22386Y-49311D01*
X22172Y-49096D01*
X22118Y-49061D01*
X22055Y-49048D01*
X21805Y-49048D01*
X21907Y-48946D01*
X21972Y-48790D01*
X21972Y-48621D01*
X21908Y-48465D01*
X21788Y-48345D01*
X21632Y-48280D01*
X21463Y-48280D01*
X21307Y-48344D01*
X21187Y-48464D01*
X21128Y-48605D01*
X21128Y-45997D01*
X21126Y-45983D01*
X21123Y-45979D01*
X21123Y-43520D01*
X21123Y-43375D01*
X21123Y-43201D01*
X21123Y-43056D01*
X21105Y-43038D01*
X21000Y-43038D01*
X20970Y-43038D01*
X20943Y-43049D01*
X20921Y-43070D01*
X20910Y-43098D01*
X20910Y-43183D01*
X20928Y-43201D01*
X21123Y-43201D01*
X21123Y-43375D01*
X20928Y-43375D01*
X20910Y-43393D01*
X20910Y-43478D01*
X20921Y-43506D01*
X20943Y-43527D01*
X20970Y-43538D01*
X21000Y-43538D01*
X21105Y-43538D01*
X21123Y-43520D01*
X21123Y-45979D01*
X21094Y-45941D01*
X20972Y-46063D01*
X21094Y-46185D01*
X21126Y-46143D01*
X21128Y-45997D01*
X21128Y-48605D01*
X21122Y-48620D01*
X21122Y-48789D01*
X21186Y-48945D01*
X21289Y-49048D01*
X21161Y-49048D01*
X21098Y-49061D01*
X21044Y-49096D01*
X21042Y-49098D01*
X20882Y-49258D01*
X20882Y-46397D01*
X20882Y-45729D01*
X20840Y-45697D01*
X20694Y-45695D01*
X20680Y-45697D01*
X20638Y-45729D01*
X20760Y-45851D01*
X20882Y-45729D01*
X20882Y-46397D01*
X20760Y-46275D01*
X20638Y-46397D01*
X20680Y-46429D01*
X20826Y-46431D01*
X20840Y-46429D01*
X20882Y-46397D01*
X20882Y-49258D01*
X20548Y-49592D01*
X20548Y-46063D01*
X20426Y-45941D01*
X20394Y-45983D01*
X20392Y-46129D01*
X20394Y-46143D01*
X20426Y-46185D01*
X20548Y-46063D01*
X20548Y-49592D01*
X20355Y-49785D01*
X20320Y-49839D01*
X20307Y-49902D01*
X20307Y-70669D01*
X20320Y-70732D01*
X20355Y-70786D01*
X21729Y-72160D01*
X21783Y-72195D01*
X21846Y-72208D01*
X23672Y-72208D01*
X23685Y-72239D01*
X23720Y-72274D01*
X23766Y-72293D01*
X23816Y-72293D01*
X24266Y-72293D01*
X24312Y-72274D01*
X24347Y-72239D01*
X24366Y-72193D01*
X24366Y-72143D01*
X24366Y-71893D01*
X24347Y-71847D01*
X24312Y-71812D01*
X24266Y-71793D01*
X24216Y-71793D01*
X24181Y-71793D01*
X24181Y-71265D01*
X24256Y-71235D01*
X24376Y-71115D01*
X24441Y-70959D01*
X24441Y-70790D01*
X24377Y-70634D01*
X24257Y-70514D01*
X24101Y-70449D01*
X23932Y-70449D01*
X23776Y-70513D01*
X23656Y-70633D01*
X23591Y-70789D01*
X23591Y-70958D01*
X23655Y-71114D01*
X23775Y-71234D01*
X23851Y-71265D01*
X23851Y-71793D01*
X23766Y-71793D01*
X23720Y-71812D01*
X23685Y-71847D01*
X23672Y-71878D01*
X23441Y-71878D01*
X23441Y-71199D01*
X23441Y-71149D01*
X23441Y-70549D01*
X23422Y-70503D01*
X23387Y-70468D01*
X23384Y-70466D01*
X23384Y-69808D01*
X23382Y-69794D01*
X23350Y-69752D01*
X23228Y-69874D01*
X23350Y-69996D01*
X23382Y-69954D01*
X23384Y-69808D01*
X23384Y-70466D01*
X23341Y-70449D01*
X23291Y-70449D01*
X23138Y-70449D01*
X23138Y-70208D01*
X23138Y-69540D01*
X23096Y-69508D01*
X22950Y-69506D01*
X22936Y-69508D01*
X22894Y-69540D01*
X23016Y-69662D01*
X23138Y-69540D01*
X23138Y-70208D01*
X23016Y-70086D01*
X22894Y-70208D01*
X22936Y-70240D01*
X23082Y-70242D01*
X23096Y-70240D01*
X23138Y-70208D01*
X23138Y-70449D01*
X22804Y-70449D01*
X22804Y-69874D01*
X22682Y-69752D01*
X22650Y-69794D01*
X22648Y-69940D01*
X22650Y-69954D01*
X22682Y-69996D01*
X22804Y-69874D01*
X22804Y-70449D01*
X22691Y-70449D01*
X22645Y-70468D01*
X22610Y-70503D01*
X22591Y-70549D01*
X22591Y-70599D01*
X22591Y-71199D01*
X22610Y-71245D01*
X22645Y-71280D01*
X22691Y-71299D01*
X22741Y-71299D01*
X23341Y-71299D01*
X23387Y-71280D01*
X23422Y-71245D01*
X23441Y-71199D01*
X23441Y-71878D01*
X21915Y-71878D01*
X20637Y-70600D01*
X20637Y-49970D01*
X21229Y-49378D01*
X21273Y-49378D01*
X21187Y-49464D01*
X21122Y-49620D01*
X21122Y-49789D01*
X21153Y-49864D01*
X20749Y-50269D01*
X20714Y-50323D01*
X20701Y-50386D01*
X20701Y-66732D01*
X20714Y-66795D01*
X20749Y-66849D01*
X22721Y-68820D01*
X22723Y-68823D01*
X22777Y-68858D01*
X22840Y-68871D01*
X23672Y-68871D01*
X23685Y-68902D01*
X23720Y-68937D01*
X23766Y-68956D01*
X23816Y-68956D01*
X23851Y-68956D01*
X23851Y-69482D01*
X23776Y-69513D01*
X23656Y-69633D01*
X23591Y-69789D01*
X23591Y-69958D01*
X23655Y-70114D01*
X23775Y-70234D01*
X23931Y-70299D01*
X24100Y-70299D01*
X24256Y-70235D01*
X24343Y-70148D01*
X24343Y-70374D01*
X24356Y-70437D01*
X24391Y-70491D01*
X24619Y-70719D01*
X24591Y-70789D01*
X24591Y-70958D01*
X24655Y-71114D01*
X24775Y-71234D01*
X24931Y-71299D01*
X25100Y-71299D01*
X25256Y-71235D01*
X25376Y-71115D01*
X25441Y-70959D01*
X25441Y-71878D01*
X24901Y-72418D01*
X24318Y-72418D01*
X24312Y-72412D01*
X24266Y-72393D01*
X24216Y-72393D01*
X23766Y-72393D01*
X23720Y-72412D01*
X23685Y-72447D01*
X23676Y-72468D01*
X21338Y-72468D01*
X20254Y-71384D01*
X20254Y-48378D01*
X20332Y-48300D01*
X20378Y-48190D01*
X20378Y-48071D01*
X20333Y-47961D01*
X20249Y-47877D01*
X20139Y-47831D01*
X20020Y-47831D01*
X19910Y-47876D01*
X19885Y-47901D01*
X19885Y-39570D01*
X29521Y-39570D01*
X29497Y-39580D01*
X29462Y-39615D01*
X29443Y-39661D01*
X29443Y-39711D01*
X29443Y-39736D01*
X28543Y-39736D01*
X28249Y-39736D01*
X28221Y-39708D01*
X28111Y-39662D01*
X27992Y-39662D01*
X27882Y-39707D01*
X27853Y-39736D01*
X27547Y-39736D01*
X27546Y-39733D01*
X27511Y-39698D01*
X27465Y-39679D01*
X27415Y-39679D01*
X26865Y-39679D01*
X26819Y-39698D01*
X26784Y-39733D01*
X26775Y-39754D01*
X23604Y-39754D01*
X23518Y-39771D01*
X23445Y-39820D01*
X23444Y-39820D01*
X23444Y-39821D01*
X23088Y-40177D01*
X23039Y-40250D01*
X23022Y-40336D01*
X23022Y-40358D01*
X23001Y-40367D01*
X22966Y-40402D01*
X22947Y-40448D01*
X22947Y-40498D01*
X22947Y-40730D01*
X22661Y-41016D01*
X22612Y-41089D01*
X22595Y-41175D01*
X22595Y-41639D01*
X22534Y-41665D01*
X22392Y-41807D01*
X22315Y-41992D01*
X22315Y-42193D01*
X22315Y-42275D01*
X21624Y-42275D01*
X21606Y-42257D01*
X21560Y-42238D01*
X21510Y-42238D01*
X21485Y-42238D01*
X21485Y-41339D01*
X21468Y-41253D01*
X21419Y-41180D01*
X20919Y-40680D01*
X20846Y-40631D01*
X20760Y-40614D01*
X20472Y-40614D01*
X20386Y-40631D01*
X20313Y-40680D01*
X20264Y-40753D01*
X20247Y-40839D01*
X20264Y-40925D01*
X20313Y-40998D01*
X20386Y-41047D01*
X20472Y-41064D01*
X20667Y-41064D01*
X21035Y-41432D01*
X21035Y-42238D01*
X20960Y-42238D01*
X20914Y-42257D01*
X20879Y-42292D01*
X20860Y-42338D01*
X20860Y-42388D01*
X20860Y-42738D01*
X20879Y-42784D01*
X20914Y-42819D01*
X20960Y-42838D01*
X21010Y-42838D01*
X21560Y-42838D01*
X21606Y-42819D01*
X21641Y-42784D01*
X21660Y-42738D01*
X21660Y-42725D01*
X22315Y-42725D01*
X22315Y-43007D01*
X22392Y-43193D01*
X22534Y-43335D01*
X22719Y-43412D01*
X22920Y-43412D01*
X23106Y-43335D01*
X23248Y-43193D01*
X23325Y-43008D01*
X23325Y-42807D01*
X23325Y-41993D01*
X23248Y-41807D01*
X23106Y-41665D01*
X23045Y-41639D01*
X23045Y-41268D01*
X23165Y-41148D01*
X23447Y-41148D01*
X23493Y-41129D01*
X23528Y-41094D01*
X23547Y-41048D01*
X23547Y-40998D01*
X23547Y-40448D01*
X23528Y-40402D01*
X23513Y-40387D01*
X23697Y-40204D01*
X26775Y-40204D01*
X26784Y-40225D01*
X26819Y-40260D01*
X26865Y-40279D01*
X26915Y-40279D01*
X27465Y-40279D01*
X27511Y-40260D01*
X27546Y-40225D01*
X27562Y-40186D01*
X27853Y-40186D01*
X27881Y-40214D01*
X27991Y-40260D01*
X28110Y-40260D01*
X28220Y-40215D01*
X28249Y-40186D01*
X28417Y-40186D01*
X28417Y-40198D01*
X28392Y-40198D01*
X28346Y-40217D01*
X28311Y-40252D01*
X28292Y-40298D01*
X28292Y-40348D01*
X28292Y-40598D01*
X28311Y-40644D01*
X28346Y-40679D01*
X28392Y-40698D01*
X28442Y-40698D01*
X28892Y-40698D01*
X28938Y-40679D01*
X28973Y-40644D01*
X28992Y-40598D01*
X28992Y-40548D01*
X28992Y-40298D01*
X28973Y-40252D01*
X28938Y-40217D01*
X28892Y-40198D01*
X28867Y-40198D01*
X28867Y-40186D01*
X29443Y-40186D01*
X29443Y-40261D01*
X29462Y-40307D01*
X29497Y-40342D01*
X29543Y-40361D01*
X29593Y-40361D01*
X29943Y-40361D01*
X29989Y-40342D01*
X30024Y-40307D01*
X30043Y-40261D01*
X30043Y-40211D01*
X30043Y-39661D01*
X30024Y-39615D01*
X29989Y-39580D01*
X29964Y-39570D01*
X32279Y-39570D01*
X32185Y-39609D01*
X32037Y-39756D01*
X31957Y-39949D01*
X31957Y-40158D01*
X32037Y-40351D01*
X32184Y-40499D01*
X32377Y-40579D01*
X32586Y-40579D01*
X32718Y-40524D01*
X33009Y-40815D01*
X32691Y-40815D01*
X32385Y-40942D01*
X32150Y-41176D01*
X32023Y-41482D01*
X32023Y-41813D01*
X32150Y-42119D01*
X32384Y-42354D01*
X32690Y-42481D01*
X33021Y-42481D01*
X33327Y-42354D01*
X33562Y-42120D01*
X33689Y-41814D01*
X33689Y-41483D01*
X33562Y-41177D01*
X33328Y-40942D01*
X33262Y-40915D01*
X33931Y-40915D01*
X34085Y-41068D01*
X34085Y-41200D01*
X34000Y-41200D01*
X33954Y-41219D01*
X33919Y-41254D01*
X33900Y-41300D01*
X33900Y-41350D01*
X33900Y-41600D01*
X33919Y-41646D01*
X33954Y-41681D01*
X34000Y-41700D01*
X34050Y-41700D01*
X34500Y-41700D01*
X34546Y-41681D01*
X34581Y-41646D01*
X34600Y-41600D01*
X34600Y-41550D01*
X34600Y-41300D01*
X34581Y-41254D01*
X34546Y-41219D01*
X34500Y-41200D01*
X34450Y-41200D01*
X34415Y-41200D01*
X34415Y-41000D01*
X34402Y-40937D01*
X34367Y-40883D01*
X34364Y-40881D01*
X34117Y-40633D01*
X34063Y-40598D01*
X34000Y-40585D01*
X33951Y-40585D01*
X33951Y-40145D01*
X33951Y-39963D01*
X33917Y-39906D01*
X33769Y-40054D01*
X33917Y-40202D01*
X33951Y-40145D01*
X33951Y-40585D01*
X33634Y-40585D01*
X33634Y-40485D01*
X33634Y-39623D01*
X33577Y-39589D01*
X33395Y-39589D01*
X33338Y-39623D01*
X33486Y-39771D01*
X33634Y-39623D01*
X33634Y-40485D01*
X33486Y-40337D01*
X33338Y-40485D01*
X33395Y-40519D01*
X33577Y-40519D01*
X33634Y-40485D01*
X33634Y-40585D01*
X33246Y-40585D01*
X33203Y-40541D01*
X33203Y-40054D01*
X33055Y-39906D01*
X33021Y-39963D01*
X33021Y-40145D01*
X33055Y-40202D01*
X33203Y-40054D01*
X33203Y-40541D01*
X32952Y-40290D01*
X33007Y-40159D01*
X33007Y-39950D01*
X32927Y-39757D01*
X32780Y-39609D01*
X32685Y-39570D01*
X37515Y-39570D01*
X37421Y-39609D01*
X37273Y-39756D01*
X37193Y-39949D01*
X37193Y-40158D01*
X37247Y-40290D01*
X37179Y-40358D01*
X37179Y-40145D01*
X37179Y-39963D01*
X37145Y-39906D01*
X36997Y-40054D01*
X37145Y-40202D01*
X37179Y-40145D01*
X37179Y-40358D01*
X36953Y-40585D01*
X36862Y-40585D01*
X36862Y-40485D01*
X36862Y-39623D01*
X36805Y-39589D01*
X36623Y-39589D01*
X36566Y-39623D01*
X36714Y-39771D01*
X36862Y-39623D01*
X36862Y-40485D01*
X36714Y-40337D01*
X36566Y-40485D01*
X36623Y-40519D01*
X36805Y-40519D01*
X36862Y-40485D01*
X36862Y-40585D01*
X36500Y-40585D01*
X36437Y-40598D01*
X36431Y-40601D01*
X36431Y-40054D01*
X36283Y-39906D01*
X36249Y-39963D01*
X36249Y-40145D01*
X36283Y-40202D01*
X36431Y-40054D01*
X36431Y-40601D01*
X36383Y-40633D01*
X35883Y-41133D01*
X35848Y-41187D01*
X35845Y-41200D01*
X35750Y-41200D01*
X35704Y-41219D01*
X35669Y-41254D01*
X35650Y-41300D01*
X35650Y-41350D01*
X35650Y-41600D01*
X35669Y-41646D01*
X35704Y-41681D01*
X35750Y-41700D01*
X35800Y-41700D01*
X36250Y-41700D01*
X36296Y-41681D01*
X36331Y-41646D01*
X36350Y-41600D01*
X36350Y-41550D01*
X36350Y-41300D01*
X36331Y-41254D01*
X36296Y-41219D01*
X36274Y-41209D01*
X36569Y-40915D01*
X36892Y-40915D01*
X36873Y-40923D01*
X36638Y-41157D01*
X36511Y-41463D01*
X36511Y-41794D01*
X36638Y-42100D01*
X36872Y-42335D01*
X37178Y-42462D01*
X37509Y-42462D01*
X37815Y-42335D01*
X38050Y-42101D01*
X38177Y-41795D01*
X38177Y-41464D01*
X38050Y-41158D01*
X37816Y-40923D01*
X37510Y-40796D01*
X37209Y-40796D01*
X37481Y-40524D01*
X37613Y-40579D01*
X37822Y-40579D01*
X38015Y-40499D01*
X38163Y-40352D01*
X38243Y-40159D01*
X38243Y-39950D01*
X38163Y-39757D01*
X38016Y-39609D01*
X37921Y-39570D01*
X39170Y-39570D01*
X39170Y-45747D01*
X39165Y-45744D01*
X39165Y-45000D01*
X39165Y-44800D01*
X39152Y-44737D01*
X39117Y-44683D01*
X38678Y-44244D01*
X38678Y-42715D01*
X38672Y-42681D01*
X38631Y-42609D01*
X38430Y-42810D01*
X38631Y-43011D01*
X38672Y-42939D01*
X38678Y-42715D01*
X38678Y-44244D01*
X38313Y-43879D01*
X38313Y-43329D01*
X38313Y-42291D01*
X38241Y-42250D01*
X38017Y-42244D01*
X37983Y-42250D01*
X37911Y-42291D01*
X38112Y-42492D01*
X38313Y-42291D01*
X38313Y-43329D01*
X38112Y-43128D01*
X37911Y-43329D01*
X37983Y-43370D01*
X38207Y-43376D01*
X38241Y-43370D01*
X38313Y-43329D01*
X38313Y-43879D01*
X37794Y-43360D01*
X37794Y-42810D01*
X37593Y-42609D01*
X37552Y-42681D01*
X37546Y-42905D01*
X37552Y-42939D01*
X37593Y-43011D01*
X37794Y-42810D01*
X37794Y-43360D01*
X36367Y-41933D01*
X36350Y-41921D01*
X36350Y-41900D01*
X36331Y-41854D01*
X36296Y-41819D01*
X36250Y-41800D01*
X36200Y-41800D01*
X35750Y-41800D01*
X35704Y-41819D01*
X35669Y-41854D01*
X35650Y-41900D01*
X35650Y-41950D01*
X35650Y-42200D01*
X35669Y-42246D01*
X35704Y-42281D01*
X35750Y-42300D01*
X35800Y-42300D01*
X36250Y-42300D01*
X36261Y-42295D01*
X36651Y-42685D01*
X34768Y-42685D01*
X34415Y-42331D01*
X34415Y-42300D01*
X34500Y-42300D01*
X34546Y-42281D01*
X34581Y-42246D01*
X34600Y-42200D01*
X34600Y-42150D01*
X34600Y-41900D01*
X34581Y-41854D01*
X34546Y-41819D01*
X34500Y-41800D01*
X34450Y-41800D01*
X34000Y-41800D01*
X33954Y-41819D01*
X33919Y-41854D01*
X33900Y-41900D01*
X33900Y-41950D01*
X33900Y-42200D01*
X33919Y-42246D01*
X33954Y-42281D01*
X34000Y-42300D01*
X34050Y-42300D01*
X34085Y-42300D01*
X34085Y-42400D01*
X34098Y-42463D01*
X34133Y-42517D01*
X34581Y-42964D01*
X34583Y-42967D01*
X34637Y-43002D01*
X34700Y-43015D01*
X36631Y-43015D01*
X38435Y-44819D01*
X38435Y-44894D01*
X38431Y-44896D01*
X38347Y-44980D01*
X38301Y-45090D01*
X38301Y-45209D01*
X38346Y-45319D01*
X38430Y-45403D01*
X38540Y-45449D01*
X38659Y-45449D01*
X38769Y-45404D01*
X38835Y-45338D01*
X38835Y-45744D01*
X38831Y-45746D01*
X38747Y-45830D01*
X38701Y-45940D01*
X38701Y-46059D01*
X38746Y-46169D01*
X38830Y-46253D01*
X38940Y-46299D01*
X39059Y-46299D01*
X39169Y-46254D01*
X39170Y-46253D01*
X39170Y-73028D01*
X39170Y-73028D01*
G37*
G54D30*
X39170Y-73028D02*
X39031Y-73028D01*
X39031Y-54870D01*
X39031Y-54820D01*
X39031Y-54570D01*
X39012Y-54524D01*
X38977Y-54489D01*
X38931Y-54470D01*
X38881Y-54470D01*
X38846Y-54470D01*
X38846Y-53819D01*
X38833Y-53756D01*
X38798Y-53702D01*
X38795Y-53700D01*
X38510Y-53414D01*
X38510Y-52023D01*
X38510Y-50537D01*
X38510Y-50487D01*
X38510Y-48323D01*
X38491Y-48277D01*
X38456Y-48242D01*
X38410Y-48223D01*
X38360Y-48223D01*
X38157Y-48223D01*
X38157Y-47991D01*
X38242Y-47991D01*
X38288Y-47972D01*
X38323Y-47937D01*
X38342Y-47891D01*
X38342Y-47841D01*
X38342Y-47591D01*
X38323Y-47545D01*
X38292Y-47514D01*
X38292Y-47281D01*
X38292Y-47221D01*
X38292Y-47061D01*
X38292Y-47001D01*
X38281Y-46973D01*
X38259Y-46952D01*
X38232Y-46941D01*
X38202Y-46941D01*
X38122Y-46941D01*
X38104Y-46959D01*
X38104Y-47079D01*
X38274Y-47079D01*
X38292Y-47061D01*
X38292Y-47221D01*
X38274Y-47203D01*
X38104Y-47203D01*
X38104Y-47323D01*
X38122Y-47341D01*
X38202Y-47341D01*
X38232Y-47341D01*
X38259Y-47330D01*
X38281Y-47309D01*
X38292Y-47281D01*
X38292Y-47514D01*
X38288Y-47510D01*
X38242Y-47491D01*
X38192Y-47491D01*
X37880Y-47491D01*
X37880Y-47323D01*
X37880Y-47203D01*
X37880Y-47079D01*
X37880Y-46959D01*
X37862Y-46941D01*
X37782Y-46941D01*
X37752Y-46941D01*
X37725Y-46952D01*
X37703Y-46973D01*
X37692Y-47001D01*
X37692Y-47061D01*
X37710Y-47079D01*
X37880Y-47079D01*
X37880Y-47203D01*
X37710Y-47203D01*
X37692Y-47221D01*
X37692Y-47281D01*
X37703Y-47309D01*
X37725Y-47330D01*
X37752Y-47341D01*
X37782Y-47341D01*
X37862Y-47341D01*
X37880Y-47323D01*
X37880Y-47491D01*
X37742Y-47491D01*
X37696Y-47510D01*
X37665Y-47541D01*
X37665Y-47501D01*
X37664Y-47500D01*
X37665Y-47500D01*
X37665Y-44797D01*
X37652Y-44734D01*
X37617Y-44680D01*
X37614Y-44678D01*
X37307Y-44370D01*
X37307Y-43754D01*
X37288Y-43708D01*
X37253Y-43673D01*
X37207Y-43654D01*
X37157Y-43654D01*
X36457Y-43654D01*
X36411Y-43673D01*
X36376Y-43708D01*
X36357Y-43754D01*
X36357Y-43804D01*
X36357Y-43986D01*
X36293Y-43832D01*
X36146Y-43684D01*
X35953Y-43604D01*
X35744Y-43604D01*
X35551Y-43684D01*
X35403Y-43831D01*
X35355Y-43944D01*
X35309Y-43832D01*
X35162Y-43684D01*
X34969Y-43604D01*
X34760Y-43604D01*
X34567Y-43684D01*
X34419Y-43831D01*
X34351Y-43993D01*
X34285Y-43832D01*
X34138Y-43684D01*
X33945Y-43604D01*
X33736Y-43604D01*
X33543Y-43684D01*
X33395Y-43831D01*
X33315Y-44024D01*
X33315Y-44233D01*
X33395Y-44426D01*
X33542Y-44574D01*
X33735Y-44654D01*
X33944Y-44654D01*
X34137Y-44574D01*
X34285Y-44427D01*
X34352Y-44264D01*
X34419Y-44426D01*
X34566Y-44574D01*
X34759Y-44654D01*
X34968Y-44654D01*
X35161Y-44574D01*
X35309Y-44427D01*
X35356Y-44313D01*
X35403Y-44426D01*
X35550Y-44574D01*
X35743Y-44654D01*
X35952Y-44654D01*
X36145Y-44574D01*
X36293Y-44427D01*
X36357Y-44272D01*
X36357Y-44504D01*
X36376Y-44550D01*
X36411Y-44585D01*
X36457Y-44604D01*
X36507Y-44604D01*
X37073Y-44604D01*
X37335Y-44865D01*
X37335Y-47431D01*
X37165Y-47601D01*
X37165Y-47500D01*
X37165Y-45773D01*
X37152Y-45710D01*
X37117Y-45656D01*
X36830Y-45369D01*
X36885Y-45238D01*
X36885Y-45029D01*
X36805Y-44836D01*
X36658Y-44688D01*
X36465Y-44608D01*
X36256Y-44608D01*
X36063Y-44688D01*
X35915Y-44835D01*
X35847Y-44997D01*
X35781Y-44836D01*
X35634Y-44688D01*
X35441Y-44608D01*
X35232Y-44608D01*
X35039Y-44688D01*
X34891Y-44835D01*
X34843Y-44948D01*
X34797Y-44836D01*
X34650Y-44688D01*
X34457Y-44608D01*
X34248Y-44608D01*
X34055Y-44688D01*
X33907Y-44835D01*
X33859Y-44948D01*
X33813Y-44836D01*
X33666Y-44688D01*
X33473Y-44608D01*
X33264Y-44608D01*
X33071Y-44688D01*
X32923Y-44835D01*
X32843Y-45028D01*
X32843Y-45237D01*
X32923Y-45430D01*
X33070Y-45578D01*
X33263Y-45658D01*
X33472Y-45658D01*
X33665Y-45578D01*
X33813Y-45431D01*
X33860Y-45317D01*
X33907Y-45430D01*
X34054Y-45578D01*
X34187Y-45633D01*
X34187Y-47079D01*
X33567Y-47698D01*
X33567Y-47579D01*
X33522Y-47469D01*
X33438Y-47385D01*
X33328Y-47339D01*
X33209Y-47339D01*
X33108Y-47380D01*
X32925Y-47380D01*
X32925Y-47170D01*
X32925Y-47120D01*
X32925Y-46920D01*
X32906Y-46874D01*
X32871Y-46839D01*
X32825Y-46820D01*
X32775Y-46820D01*
X32715Y-46820D01*
X32715Y-46625D01*
X32748Y-46612D01*
X32832Y-46528D01*
X32878Y-46418D01*
X32878Y-46299D01*
X32833Y-46189D01*
X32749Y-46105D01*
X32639Y-46059D01*
X32615Y-46059D01*
X32615Y-42715D01*
X32609Y-42681D01*
X32568Y-42609D01*
X32367Y-42810D01*
X32568Y-43011D01*
X32609Y-42939D01*
X32615Y-42715D01*
X32615Y-46059D01*
X32520Y-46059D01*
X32410Y-46104D01*
X32326Y-46188D01*
X32280Y-46298D01*
X32280Y-46417D01*
X32325Y-46527D01*
X32385Y-46587D01*
X32385Y-46820D01*
X32275Y-46820D01*
X32250Y-46830D01*
X32250Y-43329D01*
X32250Y-42291D01*
X32178Y-42250D01*
X31954Y-42244D01*
X31920Y-42250D01*
X31848Y-42291D01*
X32049Y-42492D01*
X32250Y-42291D01*
X32250Y-43329D01*
X32049Y-43128D01*
X31848Y-43329D01*
X31920Y-43370D01*
X32144Y-43376D01*
X32178Y-43370D01*
X32250Y-43329D01*
X32250Y-46830D01*
X32229Y-46839D01*
X32194Y-46874D01*
X32175Y-46920D01*
X32175Y-46970D01*
X32175Y-47170D01*
X32194Y-47216D01*
X32229Y-47251D01*
X32275Y-47270D01*
X32325Y-47270D01*
X32825Y-47270D01*
X32871Y-47251D01*
X32906Y-47216D01*
X32925Y-47170D01*
X32925Y-47380D01*
X32908Y-47380D01*
X32906Y-47374D01*
X32871Y-47339D01*
X32825Y-47320D01*
X32775Y-47320D01*
X32275Y-47320D01*
X32229Y-47339D01*
X32194Y-47374D01*
X32175Y-47420D01*
X32175Y-47470D01*
X32175Y-47670D01*
X32194Y-47716D01*
X32229Y-47751D01*
X32275Y-47770D01*
X32325Y-47770D01*
X32825Y-47770D01*
X32871Y-47751D01*
X32906Y-47716D01*
X32908Y-47710D01*
X32974Y-47710D01*
X33014Y-47807D01*
X33087Y-47880D01*
X32908Y-47880D01*
X32906Y-47874D01*
X32871Y-47839D01*
X32825Y-47820D01*
X32775Y-47820D01*
X32275Y-47820D01*
X32229Y-47839D01*
X32194Y-47874D01*
X32175Y-47920D01*
X32175Y-47970D01*
X32175Y-48170D01*
X32194Y-48216D01*
X32229Y-48251D01*
X32275Y-48270D01*
X32325Y-48270D01*
X32825Y-48270D01*
X32871Y-48251D01*
X32906Y-48216D01*
X32908Y-48210D01*
X33455Y-48210D01*
X33518Y-48197D01*
X33572Y-48162D01*
X34466Y-47266D01*
X34468Y-47265D01*
X34469Y-47265D01*
X34504Y-47211D01*
X34517Y-47148D01*
X34517Y-45632D01*
X34649Y-45578D01*
X34797Y-45431D01*
X34844Y-45317D01*
X34891Y-45430D01*
X35038Y-45578D01*
X35231Y-45658D01*
X35440Y-45658D01*
X35633Y-45578D01*
X35781Y-45431D01*
X35848Y-45268D01*
X35915Y-45430D01*
X36062Y-45578D01*
X36255Y-45658D01*
X36464Y-45658D01*
X36596Y-45603D01*
X36835Y-45842D01*
X36835Y-47380D01*
X36508Y-47380D01*
X36506Y-47374D01*
X36471Y-47339D01*
X36425Y-47320D01*
X36375Y-47320D01*
X35875Y-47320D01*
X35829Y-47339D01*
X35794Y-47374D01*
X35775Y-47420D01*
X35775Y-47470D01*
X35775Y-47670D01*
X35794Y-47716D01*
X35829Y-47751D01*
X35875Y-47770D01*
X35925Y-47770D01*
X36425Y-47770D01*
X36471Y-47751D01*
X36506Y-47716D01*
X36508Y-47710D01*
X36955Y-47710D01*
X37018Y-47697D01*
X37072Y-47662D01*
X37114Y-47618D01*
X37116Y-47617D01*
X37117Y-47617D01*
X37152Y-47563D01*
X37165Y-47500D01*
X37165Y-47601D01*
X36886Y-47880D01*
X36508Y-47880D01*
X36506Y-47874D01*
X36471Y-47839D01*
X36425Y-47820D01*
X36375Y-47820D01*
X35875Y-47820D01*
X35829Y-47839D01*
X35794Y-47874D01*
X35775Y-47920D01*
X35775Y-47970D01*
X35775Y-48170D01*
X35794Y-48216D01*
X35829Y-48251D01*
X35875Y-48270D01*
X35925Y-48270D01*
X36425Y-48270D01*
X36471Y-48251D01*
X36506Y-48216D01*
X36508Y-48210D01*
X36955Y-48210D01*
X37018Y-48197D01*
X37072Y-48162D01*
X37614Y-47618D01*
X37616Y-47617D01*
X37617Y-47617D01*
X37652Y-47563D01*
X37665Y-47501D01*
X37665Y-47541D01*
X37661Y-47545D01*
X37642Y-47591D01*
X37642Y-47641D01*
X37642Y-47891D01*
X37661Y-47937D01*
X37696Y-47972D01*
X37742Y-47991D01*
X37792Y-47991D01*
X37827Y-47991D01*
X37827Y-48223D01*
X37574Y-48223D01*
X37528Y-48242D01*
X37493Y-48277D01*
X37474Y-48323D01*
X37474Y-48373D01*
X37474Y-50087D01*
X36681Y-50880D01*
X36525Y-50880D01*
X36525Y-49670D01*
X36525Y-49620D01*
X36525Y-49420D01*
X36506Y-49374D01*
X36471Y-49339D01*
X36425Y-49320D01*
X36375Y-49320D01*
X36375Y-49270D01*
X36425Y-49270D01*
X36471Y-49251D01*
X36506Y-49216D01*
X36525Y-49170D01*
X36525Y-49120D01*
X36525Y-48920D01*
X36506Y-48874D01*
X36475Y-48843D01*
X36475Y-48660D01*
X36475Y-48613D01*
X36475Y-48477D01*
X36475Y-48430D01*
X36464Y-48402D01*
X36442Y-48381D01*
X36415Y-48370D01*
X36385Y-48370D01*
X36293Y-48370D01*
X36275Y-48388D01*
X36275Y-48495D01*
X36457Y-48495D01*
X36475Y-48477D01*
X36475Y-48613D01*
X36457Y-48595D01*
X36275Y-48595D01*
X36275Y-48702D01*
X36293Y-48720D01*
X36385Y-48720D01*
X36415Y-48720D01*
X36442Y-48709D01*
X36464Y-48688D01*
X36475Y-48660D01*
X36475Y-48843D01*
X36471Y-48839D01*
X36425Y-48820D01*
X36375Y-48820D01*
X36150Y-48820D01*
X36025Y-48820D01*
X36025Y-48702D01*
X36025Y-48595D01*
X36025Y-48495D01*
X36025Y-48388D01*
X36007Y-48370D01*
X35915Y-48370D01*
X35885Y-48370D01*
X35858Y-48381D01*
X35836Y-48402D01*
X35825Y-48430D01*
X35825Y-48477D01*
X35843Y-48495D01*
X36025Y-48495D01*
X36025Y-48595D01*
X35843Y-48595D01*
X35825Y-48613D01*
X35825Y-48660D01*
X35836Y-48688D01*
X35858Y-48709D01*
X35885Y-48720D01*
X35915Y-48720D01*
X36007Y-48720D01*
X36025Y-48702D01*
X36025Y-48820D01*
X35875Y-48820D01*
X35343Y-48820D01*
X35343Y-48190D01*
X35410Y-48123D01*
X35456Y-48013D01*
X35456Y-47894D01*
X35411Y-47784D01*
X35343Y-47716D01*
X35343Y-47613D01*
X35686Y-47270D01*
X35875Y-47270D01*
X35925Y-47270D01*
X36150Y-47270D01*
X36425Y-47270D01*
X36471Y-47251D01*
X36506Y-47216D01*
X36525Y-47170D01*
X36525Y-47120D01*
X36525Y-46920D01*
X36506Y-46874D01*
X36471Y-46839D01*
X36425Y-46820D01*
X36375Y-46820D01*
X36150Y-46820D01*
X35875Y-46820D01*
X35593Y-46820D01*
X35507Y-46837D01*
X35482Y-46853D01*
X35433Y-46886D01*
X34959Y-47361D01*
X34910Y-47434D01*
X34893Y-47520D01*
X34893Y-47809D01*
X34858Y-47893D01*
X34858Y-48012D01*
X34893Y-48097D01*
X34893Y-48921D01*
X34704Y-49110D01*
X34665Y-49110D01*
X34555Y-49155D01*
X34471Y-49239D01*
X34425Y-49349D01*
X34425Y-49468D01*
X34470Y-49578D01*
X34554Y-49662D01*
X34664Y-49708D01*
X34783Y-49708D01*
X34893Y-49663D01*
X34977Y-49579D01*
X35023Y-49469D01*
X35023Y-49428D01*
X35181Y-49270D01*
X35875Y-49270D01*
X35925Y-49270D01*
X35925Y-49320D01*
X35875Y-49320D01*
X35829Y-49339D01*
X35794Y-49374D01*
X35775Y-49420D01*
X35775Y-49470D01*
X35775Y-49670D01*
X35794Y-49716D01*
X35829Y-49751D01*
X35875Y-49770D01*
X35925Y-49770D01*
X36150Y-49770D01*
X36425Y-49770D01*
X36471Y-49751D01*
X36506Y-49716D01*
X36525Y-49670D01*
X36525Y-50880D01*
X36508Y-50880D01*
X36506Y-50874D01*
X36475Y-50843D01*
X36475Y-50660D01*
X36475Y-50613D01*
X36475Y-50477D01*
X36475Y-50430D01*
X36475Y-50160D01*
X36475Y-50113D01*
X36475Y-49977D01*
X36475Y-49930D01*
X36464Y-49902D01*
X36442Y-49881D01*
X36415Y-49870D01*
X36385Y-49870D01*
X36293Y-49870D01*
X36275Y-49888D01*
X36275Y-49995D01*
X36457Y-49995D01*
X36475Y-49977D01*
X36475Y-50113D01*
X36457Y-50095D01*
X36275Y-50095D01*
X36275Y-50202D01*
X36293Y-50220D01*
X36385Y-50220D01*
X36415Y-50220D01*
X36442Y-50209D01*
X36464Y-50188D01*
X36475Y-50160D01*
X36475Y-50430D01*
X36464Y-50402D01*
X36442Y-50381D01*
X36415Y-50370D01*
X36385Y-50370D01*
X36293Y-50370D01*
X36275Y-50388D01*
X36275Y-50495D01*
X36457Y-50495D01*
X36475Y-50477D01*
X36475Y-50613D01*
X36457Y-50595D01*
X36275Y-50595D01*
X36275Y-50702D01*
X36293Y-50720D01*
X36385Y-50720D01*
X36415Y-50720D01*
X36442Y-50709D01*
X36464Y-50688D01*
X36475Y-50660D01*
X36475Y-50843D01*
X36471Y-50839D01*
X36425Y-50820D01*
X36375Y-50820D01*
X36025Y-50820D01*
X36025Y-50702D01*
X36025Y-50595D01*
X36025Y-50495D01*
X36025Y-50388D01*
X36025Y-50202D01*
X36025Y-50095D01*
X36025Y-49995D01*
X36025Y-49888D01*
X36007Y-49870D01*
X35915Y-49870D01*
X35885Y-49870D01*
X35858Y-49881D01*
X35836Y-49902D01*
X35825Y-49930D01*
X35825Y-49977D01*
X35843Y-49995D01*
X36025Y-49995D01*
X36025Y-50095D01*
X35843Y-50095D01*
X35825Y-50113D01*
X35825Y-50160D01*
X35836Y-50188D01*
X35858Y-50209D01*
X35885Y-50220D01*
X35915Y-50220D01*
X36007Y-50220D01*
X36025Y-50202D01*
X36025Y-50388D01*
X36007Y-50370D01*
X35915Y-50370D01*
X35885Y-50370D01*
X35858Y-50381D01*
X35836Y-50402D01*
X35825Y-50430D01*
X35825Y-50477D01*
X35843Y-50495D01*
X36025Y-50495D01*
X36025Y-50595D01*
X35843Y-50595D01*
X35825Y-50613D01*
X35825Y-50660D01*
X35836Y-50688D01*
X35858Y-50709D01*
X35885Y-50720D01*
X35915Y-50720D01*
X36007Y-50720D01*
X36025Y-50702D01*
X36025Y-50820D01*
X35875Y-50820D01*
X35829Y-50839D01*
X35794Y-50874D01*
X35775Y-50920D01*
X35775Y-50970D01*
X35775Y-51170D01*
X35794Y-51216D01*
X35829Y-51251D01*
X35875Y-51270D01*
X35925Y-51270D01*
X36425Y-51270D01*
X36471Y-51251D01*
X36506Y-51216D01*
X36508Y-51210D01*
X36750Y-51210D01*
X36813Y-51197D01*
X36867Y-51162D01*
X37479Y-50549D01*
X37493Y-50583D01*
X37528Y-50618D01*
X37574Y-50637D01*
X37624Y-50637D01*
X38410Y-50637D01*
X38456Y-50618D01*
X38491Y-50583D01*
X38510Y-50537D01*
X38510Y-52023D01*
X38491Y-51977D01*
X38456Y-51942D01*
X38410Y-51923D01*
X38360Y-51923D01*
X37687Y-51923D01*
X37193Y-51428D01*
X37139Y-51393D01*
X37076Y-51380D01*
X36508Y-51380D01*
X36506Y-51374D01*
X36471Y-51339D01*
X36425Y-51320D01*
X36375Y-51320D01*
X35875Y-51320D01*
X35829Y-51339D01*
X35794Y-51374D01*
X35775Y-51420D01*
X35775Y-51470D01*
X35775Y-51670D01*
X35794Y-51716D01*
X35829Y-51751D01*
X35875Y-51770D01*
X35925Y-51770D01*
X36425Y-51770D01*
X36471Y-51751D01*
X36506Y-51716D01*
X36508Y-51710D01*
X37007Y-51710D01*
X37474Y-52176D01*
X37474Y-54237D01*
X37493Y-54283D01*
X37528Y-54318D01*
X37574Y-54337D01*
X37624Y-54337D01*
X38410Y-54337D01*
X38456Y-54318D01*
X38491Y-54283D01*
X38510Y-54237D01*
X38510Y-54187D01*
X38510Y-53881D01*
X38516Y-53887D01*
X38516Y-54470D01*
X38431Y-54470D01*
X38385Y-54489D01*
X38350Y-54524D01*
X38331Y-54570D01*
X38331Y-54620D01*
X38331Y-54870D01*
X38350Y-54916D01*
X38385Y-54951D01*
X38431Y-54970D01*
X38481Y-54970D01*
X38931Y-54970D01*
X38977Y-54951D01*
X39012Y-54916D01*
X39031Y-54870D01*
X39031Y-73028D01*
X39016Y-73028D01*
X39016Y-59353D01*
X39016Y-59184D01*
X38952Y-59028D01*
X38832Y-58908D01*
X38676Y-58843D01*
X38507Y-58843D01*
X38351Y-58907D01*
X38246Y-59012D01*
X38246Y-58524D01*
X38350Y-58628D01*
X38506Y-58693D01*
X38675Y-58693D01*
X38831Y-58629D01*
X38951Y-58509D01*
X39016Y-58353D01*
X39016Y-58184D01*
X38952Y-58028D01*
X38832Y-57908D01*
X38676Y-57843D01*
X38507Y-57843D01*
X38351Y-57907D01*
X38246Y-58012D01*
X38246Y-57524D01*
X38350Y-57628D01*
X38506Y-57693D01*
X38675Y-57693D01*
X38831Y-57629D01*
X38951Y-57509D01*
X39016Y-57353D01*
X39016Y-57184D01*
X38952Y-57028D01*
X38832Y-56908D01*
X38676Y-56843D01*
X38507Y-56843D01*
X38351Y-56907D01*
X38246Y-57012D01*
X38246Y-56524D01*
X38350Y-56628D01*
X38506Y-56693D01*
X38675Y-56693D01*
X38831Y-56629D01*
X38951Y-56509D01*
X39016Y-56353D01*
X39016Y-56184D01*
X38981Y-56098D01*
X38981Y-55460D01*
X38981Y-55400D01*
X38981Y-55240D01*
X38981Y-55180D01*
X38970Y-55152D01*
X38948Y-55131D01*
X38921Y-55120D01*
X38891Y-55120D01*
X38811Y-55120D01*
X38793Y-55138D01*
X38793Y-55258D01*
X38963Y-55258D01*
X38981Y-55240D01*
X38981Y-55400D01*
X38963Y-55382D01*
X38793Y-55382D01*
X38793Y-55502D01*
X38811Y-55520D01*
X38891Y-55520D01*
X38921Y-55520D01*
X38948Y-55509D01*
X38970Y-55488D01*
X38981Y-55460D01*
X38981Y-56098D01*
X38952Y-56028D01*
X38832Y-55908D01*
X38676Y-55843D01*
X38569Y-55843D01*
X38569Y-55502D01*
X38569Y-55382D01*
X38569Y-55258D01*
X38569Y-55138D01*
X38551Y-55120D01*
X38471Y-55120D01*
X38441Y-55120D01*
X38414Y-55131D01*
X38392Y-55152D01*
X38381Y-55180D01*
X38381Y-55240D01*
X38399Y-55258D01*
X38569Y-55258D01*
X38569Y-55382D01*
X38399Y-55382D01*
X38381Y-55400D01*
X38381Y-55460D01*
X38392Y-55488D01*
X38414Y-55509D01*
X38441Y-55520D01*
X38471Y-55520D01*
X38551Y-55520D01*
X38569Y-55502D01*
X38569Y-55843D01*
X38507Y-55843D01*
X38351Y-55907D01*
X38246Y-56012D01*
X38246Y-55709D01*
X38245Y-55708D01*
X38246Y-55708D01*
X38243Y-55695D01*
X38233Y-55642D01*
X38232Y-55641D01*
X38195Y-55585D01*
X38192Y-55583D01*
X37299Y-54689D01*
X37299Y-53060D01*
X37299Y-52941D01*
X37299Y-52460D01*
X37299Y-52341D01*
X37254Y-52231D01*
X37170Y-52147D01*
X37060Y-52101D01*
X36941Y-52101D01*
X36831Y-52146D01*
X36747Y-52230D01*
X36701Y-52340D01*
X36701Y-52380D01*
X36508Y-52380D01*
X36506Y-52374D01*
X36471Y-52339D01*
X36425Y-52320D01*
X36375Y-52320D01*
X35875Y-52320D01*
X35829Y-52339D01*
X35794Y-52374D01*
X35775Y-52420D01*
X35775Y-52470D01*
X35775Y-52670D01*
X35794Y-52716D01*
X35829Y-52751D01*
X35875Y-52770D01*
X35925Y-52770D01*
X36425Y-52770D01*
X36471Y-52751D01*
X36506Y-52716D01*
X36508Y-52710D01*
X36855Y-52710D01*
X36918Y-52697D01*
X36924Y-52692D01*
X36940Y-52699D01*
X37059Y-52699D01*
X37169Y-52654D01*
X37253Y-52570D01*
X37299Y-52460D01*
X37299Y-52941D01*
X37254Y-52831D01*
X37170Y-52747D01*
X37060Y-52701D01*
X36941Y-52701D01*
X36831Y-52746D01*
X36747Y-52830D01*
X36726Y-52880D01*
X36508Y-52880D01*
X36506Y-52874D01*
X36471Y-52839D01*
X36425Y-52820D01*
X36375Y-52820D01*
X35875Y-52820D01*
X35829Y-52839D01*
X35794Y-52874D01*
X35775Y-52920D01*
X35775Y-52970D01*
X35775Y-53170D01*
X35794Y-53216D01*
X35829Y-53251D01*
X35875Y-53270D01*
X35925Y-53270D01*
X36425Y-53270D01*
X36471Y-53251D01*
X36506Y-53216D01*
X36508Y-53210D01*
X36787Y-53210D01*
X36830Y-53253D01*
X36940Y-53299D01*
X37059Y-53299D01*
X37169Y-53254D01*
X37253Y-53170D01*
X37299Y-53060D01*
X37299Y-54689D01*
X36812Y-54202D01*
X36755Y-54164D01*
X36688Y-54151D01*
X36461Y-54151D01*
X36453Y-54130D01*
X36418Y-54095D01*
X36375Y-54077D01*
X36375Y-53770D01*
X36425Y-53770D01*
X36471Y-53751D01*
X36506Y-53716D01*
X36525Y-53670D01*
X36525Y-53620D01*
X36525Y-53420D01*
X36506Y-53374D01*
X36471Y-53339D01*
X36425Y-53320D01*
X36375Y-53320D01*
X36150Y-53320D01*
X35875Y-53320D01*
X35756Y-53320D01*
X35756Y-52270D01*
X35875Y-52270D01*
X35925Y-52270D01*
X36150Y-52270D01*
X36425Y-52270D01*
X36471Y-52251D01*
X36506Y-52216D01*
X36525Y-52170D01*
X36525Y-52120D01*
X36525Y-51920D01*
X36506Y-51874D01*
X36471Y-51839D01*
X36425Y-51820D01*
X36375Y-51820D01*
X36150Y-51820D01*
X35875Y-51820D01*
X35707Y-51820D01*
X35701Y-51814D01*
X35591Y-51768D01*
X35472Y-51768D01*
X35362Y-51813D01*
X35278Y-51897D01*
X35232Y-52007D01*
X35232Y-52126D01*
X35277Y-52236D01*
X35306Y-52265D01*
X35306Y-53444D01*
X35323Y-53530D01*
X35372Y-53603D01*
X35472Y-53704D01*
X35473Y-53704D01*
X35521Y-53736D01*
X35545Y-53752D01*
X35546Y-53753D01*
X35631Y-53769D01*
X35632Y-53770D01*
X35875Y-53770D01*
X35925Y-53770D01*
X35925Y-54076D01*
X35872Y-54076D01*
X35826Y-54095D01*
X35791Y-54130D01*
X35772Y-54176D01*
X35772Y-54226D01*
X35772Y-54476D01*
X35791Y-54522D01*
X35826Y-54557D01*
X35872Y-54576D01*
X35922Y-54576D01*
X36372Y-54576D01*
X36418Y-54557D01*
X36453Y-54522D01*
X36461Y-54501D01*
X36615Y-54501D01*
X37896Y-55781D01*
X37896Y-55843D01*
X37866Y-55843D01*
X37266Y-55843D01*
X37220Y-55862D01*
X37185Y-55897D01*
X37166Y-55943D01*
X37166Y-55993D01*
X37166Y-56593D01*
X37185Y-56639D01*
X37220Y-56674D01*
X37266Y-56693D01*
X37316Y-56693D01*
X37896Y-56693D01*
X37896Y-56972D01*
X37832Y-56908D01*
X37676Y-56843D01*
X37507Y-56843D01*
X37351Y-56907D01*
X37231Y-57027D01*
X37166Y-57183D01*
X37166Y-57352D01*
X37230Y-57508D01*
X37350Y-57628D01*
X37506Y-57693D01*
X37675Y-57693D01*
X37831Y-57629D01*
X37896Y-57564D01*
X37896Y-57972D01*
X37832Y-57908D01*
X37676Y-57843D01*
X37507Y-57843D01*
X37351Y-57907D01*
X37231Y-58027D01*
X37166Y-58183D01*
X37166Y-58352D01*
X37230Y-58508D01*
X37350Y-58628D01*
X37506Y-58693D01*
X37675Y-58693D01*
X37831Y-58629D01*
X37896Y-58564D01*
X37896Y-58972D01*
X37832Y-58908D01*
X37676Y-58843D01*
X37507Y-58843D01*
X37351Y-58907D01*
X37231Y-59027D01*
X37166Y-59183D01*
X37166Y-59352D01*
X37230Y-59508D01*
X37350Y-59628D01*
X37506Y-59693D01*
X37675Y-59693D01*
X37831Y-59629D01*
X37896Y-59564D01*
X37896Y-60175D01*
X37803Y-60268D01*
X37896Y-60361D01*
X37896Y-61738D01*
X37819Y-61815D01*
X37819Y-61595D01*
X37819Y-61476D01*
X37774Y-61366D01*
X37713Y-61305D01*
X37713Y-60602D01*
X37713Y-59934D01*
X37671Y-59902D01*
X37525Y-59900D01*
X37511Y-59902D01*
X37469Y-59934D01*
X37591Y-60056D01*
X37713Y-59934D01*
X37713Y-60602D01*
X37591Y-60480D01*
X37469Y-60602D01*
X37511Y-60634D01*
X37657Y-60636D01*
X37671Y-60634D01*
X37713Y-60602D01*
X37713Y-61305D01*
X37690Y-61282D01*
X37580Y-61236D01*
X37468Y-61236D01*
X37379Y-61146D01*
X37379Y-60268D01*
X37257Y-60146D01*
X37225Y-60188D01*
X37223Y-60334D01*
X37225Y-60348D01*
X37257Y-60390D01*
X37379Y-60268D01*
X37379Y-61146D01*
X37104Y-60871D01*
X37104Y-60629D01*
X37103Y-60628D01*
X37104Y-60628D01*
X37101Y-60615D01*
X37091Y-60562D01*
X37090Y-60561D01*
X37053Y-60505D01*
X37050Y-60503D01*
X36754Y-60206D01*
X36697Y-60168D01*
X36661Y-60161D01*
X36650Y-60134D01*
X36615Y-60099D01*
X36569Y-60080D01*
X36519Y-60080D01*
X36422Y-60080D01*
X36422Y-55066D01*
X36422Y-55006D01*
X36422Y-54846D01*
X36422Y-54786D01*
X36411Y-54758D01*
X36389Y-54737D01*
X36362Y-54726D01*
X36332Y-54726D01*
X36252Y-54726D01*
X36234Y-54744D01*
X36234Y-54864D01*
X36404Y-54864D01*
X36422Y-54846D01*
X36422Y-55006D01*
X36404Y-54988D01*
X36234Y-54988D01*
X36234Y-55108D01*
X36252Y-55126D01*
X36332Y-55126D01*
X36362Y-55126D01*
X36389Y-55115D01*
X36411Y-55094D01*
X36422Y-55066D01*
X36422Y-60080D01*
X36069Y-60080D01*
X36023Y-60099D01*
X36017Y-60105D01*
X36010Y-60105D01*
X36010Y-55108D01*
X36010Y-54988D01*
X36010Y-54864D01*
X36010Y-54744D01*
X35992Y-54726D01*
X35912Y-54726D01*
X35882Y-54726D01*
X35855Y-54737D01*
X35833Y-54758D01*
X35822Y-54786D01*
X35822Y-54846D01*
X35840Y-54864D01*
X36010Y-54864D01*
X36010Y-54988D01*
X35840Y-54988D01*
X35822Y-55006D01*
X35822Y-55066D01*
X35833Y-55094D01*
X35855Y-55115D01*
X35882Y-55126D01*
X35912Y-55126D01*
X35992Y-55126D01*
X36010Y-55108D01*
X36010Y-60105D01*
X35879Y-60105D01*
X35879Y-58533D01*
X35879Y-58483D01*
X35879Y-58033D01*
X35860Y-57987D01*
X35829Y-57956D01*
X35829Y-56423D01*
X35829Y-56393D01*
X35829Y-56313D01*
X35829Y-56053D01*
X35829Y-55973D01*
X35829Y-55943D01*
X35818Y-55916D01*
X35797Y-55894D01*
X35769Y-55883D01*
X35722Y-55883D01*
X35704Y-55901D01*
X35704Y-56071D01*
X35811Y-56071D01*
X35829Y-56053D01*
X35829Y-56313D01*
X35811Y-56295D01*
X35704Y-56295D01*
X35704Y-56465D01*
X35722Y-56483D01*
X35769Y-56483D01*
X35797Y-56472D01*
X35818Y-56450D01*
X35829Y-56423D01*
X35829Y-57956D01*
X35825Y-57952D01*
X35779Y-57933D01*
X35729Y-57933D01*
X35604Y-57933D01*
X35604Y-56465D01*
X35604Y-56295D01*
X35604Y-56071D01*
X35604Y-55901D01*
X35586Y-55883D01*
X35539Y-55883D01*
X35511Y-55894D01*
X35490Y-55916D01*
X35479Y-55943D01*
X35479Y-55973D01*
X35479Y-56053D01*
X35497Y-56071D01*
X35604Y-56071D01*
X35604Y-56295D01*
X35497Y-56295D01*
X35479Y-56313D01*
X35479Y-56393D01*
X35479Y-56423D01*
X35490Y-56450D01*
X35511Y-56472D01*
X35539Y-56483D01*
X35586Y-56483D01*
X35604Y-56465D01*
X35604Y-57933D01*
X35529Y-57933D01*
X35483Y-57952D01*
X35448Y-57987D01*
X35429Y-58033D01*
X35429Y-58083D01*
X35429Y-58533D01*
X35448Y-58579D01*
X35483Y-58614D01*
X35529Y-58633D01*
X35579Y-58633D01*
X35779Y-58633D01*
X35825Y-58614D01*
X35860Y-58579D01*
X35879Y-58533D01*
X35879Y-60105D01*
X35379Y-60105D01*
X35379Y-58533D01*
X35379Y-58483D01*
X35379Y-58033D01*
X35379Y-56433D01*
X35379Y-56383D01*
X35379Y-55933D01*
X35360Y-55887D01*
X35325Y-55852D01*
X35279Y-55833D01*
X35229Y-55833D01*
X35029Y-55833D01*
X34983Y-55852D01*
X34948Y-55887D01*
X34929Y-55933D01*
X34929Y-55983D01*
X34929Y-56433D01*
X34948Y-56479D01*
X34983Y-56514D01*
X34989Y-56516D01*
X34989Y-56706D01*
X34879Y-56816D01*
X34879Y-56433D01*
X34879Y-56383D01*
X34879Y-55933D01*
X34860Y-55887D01*
X34825Y-55852D01*
X34779Y-55833D01*
X34729Y-55833D01*
X34529Y-55833D01*
X34483Y-55852D01*
X34448Y-55887D01*
X34429Y-55933D01*
X34429Y-55983D01*
X34429Y-56018D01*
X34379Y-56018D01*
X34379Y-55933D01*
X34360Y-55887D01*
X34325Y-55852D01*
X34319Y-55849D01*
X34319Y-53052D01*
X34306Y-52989D01*
X34271Y-52935D01*
X33264Y-51928D01*
X33210Y-51893D01*
X33147Y-51880D01*
X32925Y-51880D01*
X32925Y-51670D01*
X32925Y-51620D01*
X32925Y-51420D01*
X32906Y-51374D01*
X32871Y-51339D01*
X32825Y-51320D01*
X32775Y-51320D01*
X32275Y-51320D01*
X32229Y-51339D01*
X32194Y-51374D01*
X32175Y-51420D01*
X32175Y-51470D01*
X32175Y-51670D01*
X32194Y-51716D01*
X32229Y-51751D01*
X32275Y-51770D01*
X32325Y-51770D01*
X32825Y-51770D01*
X32871Y-51751D01*
X32906Y-51716D01*
X32925Y-51670D01*
X32925Y-51880D01*
X32908Y-51880D01*
X32906Y-51874D01*
X32871Y-51839D01*
X32825Y-51820D01*
X32775Y-51820D01*
X32275Y-51820D01*
X32229Y-51839D01*
X32194Y-51874D01*
X32175Y-51920D01*
X32175Y-51970D01*
X32175Y-52170D01*
X32194Y-52216D01*
X32229Y-52251D01*
X32275Y-52270D01*
X32325Y-52270D01*
X32825Y-52270D01*
X32871Y-52251D01*
X32906Y-52216D01*
X32908Y-52210D01*
X33078Y-52210D01*
X33989Y-53121D01*
X33989Y-55849D01*
X33983Y-55852D01*
X33948Y-55887D01*
X33929Y-55933D01*
X33929Y-55983D01*
X33929Y-56433D01*
X33948Y-56479D01*
X33983Y-56514D01*
X34029Y-56533D01*
X34079Y-56533D01*
X34279Y-56533D01*
X34325Y-56514D01*
X34360Y-56479D01*
X34379Y-56433D01*
X34379Y-56383D01*
X34379Y-56348D01*
X34429Y-56348D01*
X34429Y-56433D01*
X34448Y-56479D01*
X34483Y-56514D01*
X34529Y-56533D01*
X34579Y-56533D01*
X34779Y-56533D01*
X34825Y-56514D01*
X34860Y-56479D01*
X34879Y-56433D01*
X34879Y-56816D01*
X34380Y-57315D01*
X30710Y-57315D01*
X30709Y-57315D01*
X30698Y-57317D01*
X30647Y-57328D01*
X30593Y-57363D01*
X30591Y-57365D01*
X29296Y-58659D01*
X29293Y-58658D01*
X29174Y-58658D01*
X29064Y-58703D01*
X28980Y-58787D01*
X28934Y-58897D01*
X28934Y-59016D01*
X28979Y-59126D01*
X29063Y-59210D01*
X29173Y-59256D01*
X29292Y-59256D01*
X29402Y-59211D01*
X29486Y-59127D01*
X29532Y-59017D01*
X29532Y-58898D01*
X29530Y-58893D01*
X30778Y-57645D01*
X34449Y-57645D01*
X34512Y-57632D01*
X34566Y-57597D01*
X35271Y-56892D01*
X35306Y-56838D01*
X35319Y-56775D01*
X35319Y-56516D01*
X35325Y-56514D01*
X35360Y-56479D01*
X35379Y-56433D01*
X35379Y-58033D01*
X35360Y-57987D01*
X35325Y-57952D01*
X35279Y-57933D01*
X35229Y-57933D01*
X35029Y-57933D01*
X34983Y-57952D01*
X34948Y-57987D01*
X34929Y-58033D01*
X34929Y-58083D01*
X34929Y-58533D01*
X34948Y-58579D01*
X34983Y-58614D01*
X35029Y-58633D01*
X35079Y-58633D01*
X35279Y-58633D01*
X35325Y-58614D01*
X35360Y-58579D01*
X35379Y-58533D01*
X35379Y-60105D01*
X35363Y-60105D01*
X35363Y-59745D01*
X35362Y-59744D01*
X35346Y-59659D01*
X35345Y-59658D01*
X35329Y-59634D01*
X35297Y-59586D01*
X35297Y-59585D01*
X34879Y-59167D01*
X34879Y-58533D01*
X34879Y-58483D01*
X34879Y-58033D01*
X34860Y-57987D01*
X34825Y-57952D01*
X34779Y-57933D01*
X34729Y-57933D01*
X34529Y-57933D01*
X34483Y-57952D01*
X34448Y-57987D01*
X34429Y-58033D01*
X34429Y-58083D01*
X34429Y-58533D01*
X34448Y-58579D01*
X34483Y-58614D01*
X34529Y-58633D01*
X34579Y-58633D01*
X34779Y-58633D01*
X34825Y-58614D01*
X34860Y-58579D01*
X34879Y-58533D01*
X34879Y-59167D01*
X34706Y-58995D01*
X34633Y-58946D01*
X34547Y-58929D01*
X34379Y-58929D01*
X34379Y-58533D01*
X34379Y-58483D01*
X34379Y-58033D01*
X34360Y-57987D01*
X34325Y-57952D01*
X34279Y-57933D01*
X34229Y-57933D01*
X34029Y-57933D01*
X33983Y-57952D01*
X33948Y-57987D01*
X33929Y-58033D01*
X33929Y-58083D01*
X33929Y-58533D01*
X33948Y-58579D01*
X33983Y-58614D01*
X34029Y-58633D01*
X34079Y-58633D01*
X34279Y-58633D01*
X34325Y-58614D01*
X34360Y-58579D01*
X34379Y-58533D01*
X34379Y-58929D01*
X33879Y-58929D01*
X33879Y-58533D01*
X33879Y-58483D01*
X33879Y-58033D01*
X33860Y-57987D01*
X33825Y-57952D01*
X33779Y-57933D01*
X33729Y-57933D01*
X33529Y-57933D01*
X33483Y-57952D01*
X33448Y-57987D01*
X33429Y-58033D01*
X33429Y-58083D01*
X33429Y-58533D01*
X33448Y-58579D01*
X33483Y-58614D01*
X33529Y-58633D01*
X33579Y-58633D01*
X33779Y-58633D01*
X33825Y-58614D01*
X33860Y-58579D01*
X33879Y-58533D01*
X33879Y-58929D01*
X33379Y-58929D01*
X33379Y-58533D01*
X33379Y-58483D01*
X33379Y-58033D01*
X33360Y-57987D01*
X33325Y-57952D01*
X33279Y-57933D01*
X33229Y-57933D01*
X33029Y-57933D01*
X32983Y-57952D01*
X32948Y-57987D01*
X32929Y-58033D01*
X32929Y-58083D01*
X32929Y-58533D01*
X32948Y-58579D01*
X32983Y-58614D01*
X33029Y-58633D01*
X33079Y-58633D01*
X33279Y-58633D01*
X33325Y-58614D01*
X33360Y-58579D01*
X33379Y-58533D01*
X33379Y-58929D01*
X33065Y-58929D01*
X32879Y-58742D01*
X32879Y-58533D01*
X32879Y-58483D01*
X32879Y-58283D01*
X32879Y-58033D01*
X32860Y-57987D01*
X32825Y-57952D01*
X32779Y-57933D01*
X32729Y-57933D01*
X32529Y-57933D01*
X32483Y-57952D01*
X32448Y-57987D01*
X32429Y-58033D01*
X32429Y-58083D01*
X32429Y-58283D01*
X32429Y-58533D01*
X32429Y-58836D01*
X32446Y-58922D01*
X32495Y-58995D01*
X32812Y-59313D01*
X32813Y-59313D01*
X32861Y-59345D01*
X32885Y-59361D01*
X32886Y-59362D01*
X32971Y-59378D01*
X32972Y-59379D01*
X34453Y-59379D01*
X34913Y-59838D01*
X34913Y-60137D01*
X34885Y-60165D01*
X34839Y-60275D01*
X34839Y-60394D01*
X34884Y-60504D01*
X34968Y-60588D01*
X35078Y-60634D01*
X35197Y-60634D01*
X35307Y-60589D01*
X35341Y-60555D01*
X36017Y-60555D01*
X36023Y-60561D01*
X36069Y-60580D01*
X36119Y-60580D01*
X36569Y-60580D01*
X36613Y-60561D01*
X36754Y-60701D01*
X36754Y-60944D01*
X36767Y-61011D01*
X36805Y-61068D01*
X37221Y-61483D01*
X37221Y-61594D01*
X37266Y-61704D01*
X37350Y-61788D01*
X37460Y-61834D01*
X37579Y-61834D01*
X37689Y-61789D01*
X37773Y-61705D01*
X37819Y-61595D01*
X37819Y-61815D01*
X37644Y-61990D01*
X37531Y-61990D01*
X37453Y-61912D01*
X37343Y-61866D01*
X37224Y-61866D01*
X37114Y-61911D01*
X37030Y-61995D01*
X36984Y-62105D01*
X36984Y-62224D01*
X37029Y-62334D01*
X37113Y-62418D01*
X37223Y-62464D01*
X37342Y-62464D01*
X37452Y-62419D01*
X37531Y-62340D01*
X37717Y-62340D01*
X37784Y-62327D01*
X37841Y-62289D01*
X38192Y-61936D01*
X38194Y-61935D01*
X38195Y-61935D01*
X38232Y-61879D01*
X38233Y-61878D01*
X38246Y-61811D01*
X38246Y-60375D01*
X38257Y-60390D01*
X38379Y-60268D01*
X38257Y-60146D01*
X38246Y-60160D01*
X38246Y-59524D01*
X38350Y-59628D01*
X38506Y-59693D01*
X38675Y-59693D01*
X38831Y-59629D01*
X38951Y-59509D01*
X39016Y-59353D01*
X39016Y-73028D01*
X38959Y-73028D01*
X38959Y-60202D01*
X38957Y-60188D01*
X38925Y-60146D01*
X38803Y-60268D01*
X38925Y-60390D01*
X38957Y-60348D01*
X38959Y-60202D01*
X38959Y-73028D01*
X38713Y-73028D01*
X38713Y-60602D01*
X38713Y-59934D01*
X38671Y-59902D01*
X38525Y-59900D01*
X38511Y-59902D01*
X38469Y-59934D01*
X38591Y-60056D01*
X38713Y-59934D01*
X38713Y-60602D01*
X38591Y-60480D01*
X38469Y-60602D01*
X38511Y-60634D01*
X38657Y-60636D01*
X38671Y-60634D01*
X38713Y-60602D01*
X38713Y-73028D01*
X36669Y-73028D01*
X36669Y-61080D01*
X36669Y-61030D01*
X36669Y-60780D01*
X36650Y-60734D01*
X36615Y-60699D01*
X36569Y-60680D01*
X36519Y-60680D01*
X36069Y-60680D01*
X36023Y-60699D01*
X35988Y-60734D01*
X35975Y-60765D01*
X33735Y-60765D01*
X32303Y-59332D01*
X32249Y-59297D01*
X32186Y-59284D01*
X28908Y-59284D01*
X28742Y-59118D01*
X28744Y-59115D01*
X28744Y-58996D01*
X28699Y-58886D01*
X28615Y-58802D01*
X28505Y-58756D01*
X28386Y-58756D01*
X28276Y-58801D01*
X28192Y-58885D01*
X28146Y-58995D01*
X28146Y-59114D01*
X28191Y-59224D01*
X28275Y-59308D01*
X28385Y-59354D01*
X28504Y-59354D01*
X28508Y-59352D01*
X28676Y-59520D01*
X28454Y-59520D01*
X27775Y-58840D01*
X27721Y-58805D01*
X27658Y-58792D01*
X27072Y-58792D01*
X28809Y-57055D01*
X33268Y-57055D01*
X33331Y-57042D01*
X33385Y-57007D01*
X33768Y-56622D01*
X33770Y-56621D01*
X33771Y-56621D01*
X33805Y-56568D01*
X33806Y-56567D01*
X33816Y-56518D01*
X33816Y-56517D01*
X33825Y-56514D01*
X33860Y-56479D01*
X33879Y-56433D01*
X33879Y-56383D01*
X33879Y-55933D01*
X33860Y-55887D01*
X33825Y-55852D01*
X33779Y-55833D01*
X33729Y-55833D01*
X33529Y-55833D01*
X33483Y-55852D01*
X33448Y-55887D01*
X33429Y-55933D01*
X33429Y-55983D01*
X33429Y-56433D01*
X33447Y-56477D01*
X33199Y-56725D01*
X32343Y-56725D01*
X32343Y-55331D01*
X32343Y-55186D01*
X32148Y-55186D01*
X32130Y-55204D01*
X32130Y-55289D01*
X32141Y-55317D01*
X32163Y-55338D01*
X32190Y-55349D01*
X32220Y-55349D01*
X32325Y-55349D01*
X32343Y-55331D01*
X32343Y-56725D01*
X28740Y-56725D01*
X28677Y-56738D01*
X28623Y-56773D01*
X28599Y-56797D01*
X28599Y-55260D01*
X28599Y-55141D01*
X28554Y-55031D01*
X28470Y-54947D01*
X28360Y-54901D01*
X28241Y-54901D01*
X28131Y-54946D01*
X28047Y-55030D01*
X28001Y-55140D01*
X28001Y-55259D01*
X28002Y-55263D01*
X27483Y-55783D01*
X27448Y-55837D01*
X27435Y-55900D01*
X27435Y-56844D01*
X27431Y-56846D01*
X27347Y-56930D01*
X27301Y-57040D01*
X27301Y-57159D01*
X27346Y-57269D01*
X27430Y-57353D01*
X27540Y-57399D01*
X27659Y-57399D01*
X27769Y-57354D01*
X27853Y-57270D01*
X27899Y-57160D01*
X27899Y-57041D01*
X27854Y-56931D01*
X27770Y-56847D01*
X27765Y-56844D01*
X27765Y-55968D01*
X28235Y-55497D01*
X28240Y-55499D01*
X28359Y-55499D01*
X28469Y-55454D01*
X28553Y-55370D01*
X28599Y-55260D01*
X28599Y-56797D01*
X26620Y-58776D01*
X26548Y-58704D01*
X26438Y-58658D01*
X26319Y-58658D01*
X26209Y-58703D01*
X26189Y-58723D01*
X26189Y-58347D01*
X26176Y-58284D01*
X26141Y-58230D01*
X26138Y-58228D01*
X26124Y-58214D01*
X26126Y-58210D01*
X26126Y-58091D01*
X26081Y-57981D01*
X25997Y-57897D01*
X25887Y-57851D01*
X25768Y-57851D01*
X25658Y-57896D01*
X25574Y-57980D01*
X25528Y-58090D01*
X25528Y-58209D01*
X25573Y-58319D01*
X25657Y-58403D01*
X25767Y-58449D01*
X25859Y-58449D01*
X25859Y-59134D01*
X25872Y-59197D01*
X25907Y-59251D01*
X26259Y-59602D01*
X26261Y-59605D01*
X26315Y-59640D01*
X26324Y-59642D01*
X26319Y-59642D01*
X26209Y-59687D01*
X26191Y-59704D01*
X25470Y-58982D01*
X25470Y-57728D01*
X25548Y-57650D01*
X25594Y-57540D01*
X25594Y-57421D01*
X25549Y-57311D01*
X25465Y-57227D01*
X25355Y-57181D01*
X25236Y-57181D01*
X25126Y-57226D01*
X25042Y-57310D01*
X24996Y-57420D01*
X24996Y-57539D01*
X25041Y-57649D01*
X25120Y-57728D01*
X25120Y-59055D01*
X25133Y-59122D01*
X25171Y-59179D01*
X26055Y-60062D01*
X26057Y-60065D01*
X26113Y-60102D01*
X26114Y-60103D01*
X26121Y-60104D01*
X26124Y-60110D01*
X26203Y-60189D01*
X26203Y-61023D01*
X26216Y-61090D01*
X26254Y-61147D01*
X26843Y-61735D01*
X26845Y-61738D01*
X26901Y-61775D01*
X26902Y-61776D01*
X26955Y-61786D01*
X26968Y-61789D01*
X26968Y-61788D01*
X26969Y-61789D01*
X27559Y-61789D01*
X27585Y-61789D01*
X27654Y-61858D01*
X27654Y-61968D01*
X27699Y-62078D01*
X27783Y-62162D01*
X27893Y-62208D01*
X28012Y-62208D01*
X28122Y-62163D01*
X28206Y-62079D01*
X28252Y-61969D01*
X28252Y-61850D01*
X28207Y-61740D01*
X28123Y-61656D01*
X28013Y-61610D01*
X27902Y-61610D01*
X27782Y-61490D01*
X27725Y-61452D01*
X27658Y-61439D01*
X27559Y-61439D01*
X27367Y-61439D01*
X27367Y-60676D01*
X27367Y-60616D01*
X27367Y-60456D01*
X27367Y-60396D01*
X27356Y-60368D01*
X27334Y-60347D01*
X27307Y-60336D01*
X27277Y-60336D01*
X27197Y-60336D01*
X27179Y-60354D01*
X27179Y-60474D01*
X27349Y-60474D01*
X27367Y-60456D01*
X27367Y-60616D01*
X27349Y-60598D01*
X27179Y-60598D01*
X27179Y-60718D01*
X27197Y-60736D01*
X27277Y-60736D01*
X27307Y-60736D01*
X27334Y-60725D01*
X27356Y-60704D01*
X27367Y-60676D01*
X27367Y-61439D01*
X27041Y-61439D01*
X26955Y-61352D01*
X26955Y-60718D01*
X26955Y-60598D01*
X26955Y-60474D01*
X26955Y-60354D01*
X26937Y-60336D01*
X26857Y-60336D01*
X26827Y-60336D01*
X26800Y-60347D01*
X26778Y-60368D01*
X26767Y-60396D01*
X26767Y-60456D01*
X26785Y-60474D01*
X26955Y-60474D01*
X26955Y-60598D01*
X26785Y-60598D01*
X26767Y-60616D01*
X26767Y-60676D01*
X26778Y-60704D01*
X26800Y-60725D01*
X26827Y-60736D01*
X26857Y-60736D01*
X26937Y-60736D01*
X26955Y-60718D01*
X26955Y-61352D01*
X26553Y-60950D01*
X26553Y-60189D01*
X26581Y-60161D01*
X26765Y-60161D01*
X26771Y-60167D01*
X26817Y-60186D01*
X26867Y-60186D01*
X27317Y-60186D01*
X27363Y-60167D01*
X27398Y-60132D01*
X27417Y-60086D01*
X27417Y-60036D01*
X27417Y-59786D01*
X27398Y-59740D01*
X27363Y-59705D01*
X27317Y-59686D01*
X27267Y-59686D01*
X26817Y-59686D01*
X26771Y-59705D01*
X26765Y-59711D01*
X26571Y-59711D01*
X26548Y-59688D01*
X26464Y-59653D01*
X27677Y-59653D01*
X27805Y-59653D01*
X27853Y-59701D01*
X27736Y-59701D01*
X27626Y-59746D01*
X27542Y-59830D01*
X27496Y-59940D01*
X27496Y-60059D01*
X27541Y-60169D01*
X27625Y-60253D01*
X27735Y-60299D01*
X27854Y-60299D01*
X27858Y-60297D01*
X28109Y-60547D01*
X28111Y-60550D01*
X28165Y-60585D01*
X28228Y-60598D01*
X30718Y-60598D01*
X31434Y-61313D01*
X31433Y-61318D01*
X31433Y-61437D01*
X31478Y-61547D01*
X31562Y-61631D01*
X31672Y-61677D01*
X31791Y-61677D01*
X31901Y-61632D01*
X31985Y-61548D01*
X32031Y-61438D01*
X32031Y-61319D01*
X31986Y-61209D01*
X31902Y-61125D01*
X31792Y-61079D01*
X31673Y-61079D01*
X31668Y-61080D01*
X30904Y-60316D01*
X30850Y-60281D01*
X30787Y-60268D01*
X28296Y-60268D01*
X28092Y-60063D01*
X28094Y-60060D01*
X28094Y-59942D01*
X28308Y-60156D01*
X28362Y-60191D01*
X28425Y-60204D01*
X30994Y-60204D01*
X32600Y-61810D01*
X32654Y-61845D01*
X32717Y-61858D01*
X33799Y-61858D01*
X33801Y-61862D01*
X33885Y-61946D01*
X33995Y-61992D01*
X34114Y-61992D01*
X34224Y-61947D01*
X34308Y-61863D01*
X34354Y-61753D01*
X34354Y-61634D01*
X34309Y-61524D01*
X34225Y-61440D01*
X34115Y-61394D01*
X33996Y-61394D01*
X33886Y-61439D01*
X33802Y-61523D01*
X33799Y-61528D01*
X32786Y-61528D01*
X32699Y-61441D01*
X32736Y-61441D01*
X32846Y-61396D01*
X32930Y-61312D01*
X32976Y-61202D01*
X32976Y-61083D01*
X32931Y-60973D01*
X32847Y-60889D01*
X32737Y-60843D01*
X32618Y-60843D01*
X32613Y-60844D01*
X31382Y-59614D01*
X32117Y-59614D01*
X33548Y-61044D01*
X33550Y-61047D01*
X33604Y-61082D01*
X33667Y-61095D01*
X35975Y-61095D01*
X35988Y-61126D01*
X36023Y-61161D01*
X36069Y-61180D01*
X36119Y-61180D01*
X36154Y-61180D01*
X36154Y-61407D01*
X35128Y-62433D01*
X33347Y-62433D01*
X33284Y-62446D01*
X33230Y-62481D01*
X33228Y-62483D01*
X33033Y-62678D01*
X32998Y-62732D01*
X32985Y-62795D01*
X32985Y-62933D01*
X32981Y-62935D01*
X32897Y-63019D01*
X32851Y-63129D01*
X32851Y-63248D01*
X32896Y-63358D01*
X32980Y-63442D01*
X33090Y-63488D01*
X33209Y-63488D01*
X33319Y-63443D01*
X33403Y-63359D01*
X33449Y-63249D01*
X33449Y-63130D01*
X33404Y-63020D01*
X33320Y-62936D01*
X33315Y-62933D01*
X33315Y-62863D01*
X33415Y-62763D01*
X35197Y-62763D01*
X35260Y-62750D01*
X35314Y-62715D01*
X36433Y-61594D01*
X36435Y-61593D01*
X36436Y-61593D01*
X36470Y-61539D01*
X36471Y-61539D01*
X36481Y-61487D01*
X36484Y-61477D01*
X36483Y-61476D01*
X36484Y-61476D01*
X36484Y-61180D01*
X36569Y-61180D01*
X36615Y-61161D01*
X36650Y-61126D01*
X36669Y-61080D01*
X36669Y-73028D01*
X36445Y-73028D01*
X36445Y-64295D01*
X36445Y-64265D01*
X36445Y-64185D01*
X36445Y-63925D01*
X36445Y-63845D01*
X36445Y-63815D01*
X36434Y-63788D01*
X36413Y-63766D01*
X36385Y-63755D01*
X36325Y-63755D01*
X36307Y-63773D01*
X36307Y-63943D01*
X36427Y-63943D01*
X36445Y-63925D01*
X36445Y-64185D01*
X36427Y-64167D01*
X36307Y-64167D01*
X36307Y-64337D01*
X36325Y-64355D01*
X36385Y-64355D01*
X36413Y-64344D01*
X36434Y-64322D01*
X36445Y-64295D01*
X36445Y-73028D01*
X36183Y-73028D01*
X36183Y-64337D01*
X36183Y-64167D01*
X36183Y-63943D01*
X36183Y-63773D01*
X36165Y-63755D01*
X36105Y-63755D01*
X36077Y-63766D01*
X36056Y-63788D01*
X36045Y-63815D01*
X36045Y-63845D01*
X36045Y-63925D01*
X36063Y-63943D01*
X36183Y-63943D01*
X36183Y-64167D01*
X36063Y-64167D01*
X36045Y-64185D01*
X36045Y-64265D01*
X36045Y-64295D01*
X36056Y-64322D01*
X36077Y-64344D01*
X36105Y-64355D01*
X36165Y-64355D01*
X36183Y-64337D01*
X36183Y-73028D01*
X35895Y-73028D01*
X35895Y-64305D01*
X35895Y-64255D01*
X35895Y-63805D01*
X35876Y-63759D01*
X35841Y-63724D01*
X35795Y-63705D01*
X35745Y-63705D01*
X35495Y-63705D01*
X35449Y-63724D01*
X35414Y-63759D01*
X35395Y-63805D01*
X35395Y-63855D01*
X35395Y-64305D01*
X35414Y-64351D01*
X35420Y-64357D01*
X35420Y-64612D01*
X35382Y-64628D01*
X35298Y-64712D01*
X35252Y-64822D01*
X35252Y-64941D01*
X35297Y-65051D01*
X35381Y-65135D01*
X35491Y-65181D01*
X35610Y-65181D01*
X35720Y-65136D01*
X35804Y-65052D01*
X35850Y-64942D01*
X35850Y-64878D01*
X35850Y-64877D01*
X35852Y-64875D01*
X35853Y-64874D01*
X35869Y-64789D01*
X35870Y-64788D01*
X35870Y-64357D01*
X35876Y-64351D01*
X35895Y-64305D01*
X35895Y-73028D01*
X32055Y-73028D01*
X32055Y-66279D01*
X32055Y-65256D01*
X32054Y-65255D01*
X32055Y-65255D01*
X32052Y-65242D01*
X32042Y-65193D01*
X32041Y-65192D01*
X32007Y-65139D01*
X32004Y-65137D01*
X30235Y-63367D01*
X30181Y-63332D01*
X30118Y-63319D01*
X29596Y-63319D01*
X29496Y-63218D01*
X29496Y-61811D01*
X29598Y-61770D01*
X29682Y-61686D01*
X29728Y-61576D01*
X29728Y-61457D01*
X29683Y-61347D01*
X29599Y-61263D01*
X29489Y-61217D01*
X29370Y-61217D01*
X29260Y-61262D01*
X29176Y-61346D01*
X29130Y-61456D01*
X29130Y-61575D01*
X29166Y-61663D01*
X29166Y-63287D01*
X29179Y-63350D01*
X29214Y-63404D01*
X29409Y-63598D01*
X29411Y-63601D01*
X29465Y-63636D01*
X29528Y-63649D01*
X30049Y-63649D01*
X31725Y-65324D01*
X31725Y-66210D01*
X31600Y-66335D01*
X31600Y-65871D01*
X31598Y-65857D01*
X31566Y-65815D01*
X31444Y-65937D01*
X31566Y-66059D01*
X31598Y-66017D01*
X31600Y-65871D01*
X31600Y-66335D01*
X31392Y-66543D01*
X31354Y-66527D01*
X31354Y-66271D01*
X31354Y-65603D01*
X31312Y-65571D01*
X31166Y-65569D01*
X31152Y-65571D01*
X31110Y-65603D01*
X31232Y-65725D01*
X31354Y-65603D01*
X31354Y-66271D01*
X31232Y-66149D01*
X31110Y-66271D01*
X31152Y-66303D01*
X31298Y-66305D01*
X31312Y-66303D01*
X31354Y-66271D01*
X31354Y-66527D01*
X31317Y-66512D01*
X31148Y-66512D01*
X31020Y-66564D01*
X31020Y-65937D01*
X30898Y-65815D01*
X30866Y-65857D01*
X30864Y-66003D01*
X30866Y-66017D01*
X30898Y-66059D01*
X31020Y-65937D01*
X31020Y-66564D01*
X30992Y-66576D01*
X30872Y-66696D01*
X30807Y-66852D01*
X30807Y-67021D01*
X30871Y-67177D01*
X30991Y-67297D01*
X31147Y-67362D01*
X31316Y-67362D01*
X31472Y-67298D01*
X31592Y-67178D01*
X31657Y-67022D01*
X31657Y-66853D01*
X31625Y-66776D01*
X32004Y-66397D01*
X32006Y-66396D01*
X32007Y-66396D01*
X32042Y-66342D01*
X32055Y-66279D01*
X32055Y-73028D01*
X19885Y-73028D01*
X19885Y-48359D01*
X19904Y-48378D01*
X19904Y-71457D01*
X19917Y-71524D01*
X19955Y-71581D01*
X21141Y-72767D01*
X21198Y-72805D01*
X21265Y-72818D01*
X23676Y-72818D01*
X23685Y-72839D01*
X23720Y-72874D01*
X23766Y-72893D01*
X23816Y-72893D01*
X24266Y-72893D01*
X24312Y-72874D01*
X24318Y-72868D01*
X24994Y-72868D01*
X25080Y-72851D01*
X25153Y-72802D01*
X25806Y-72149D01*
X25846Y-72149D01*
X25956Y-72104D01*
X26040Y-72020D01*
X26086Y-71910D01*
X26086Y-71869D01*
X26439Y-71516D01*
X26488Y-71443D01*
X26505Y-71357D01*
X26505Y-70130D01*
X27104Y-70729D01*
X27177Y-70778D01*
X27263Y-70795D01*
X29233Y-70795D01*
X29319Y-70778D01*
X29392Y-70729D01*
X30391Y-69731D01*
X30391Y-69730D01*
X30423Y-69682D01*
X30439Y-69658D01*
X30440Y-69657D01*
X30456Y-69572D01*
X30457Y-69571D01*
X30457Y-67304D01*
X30472Y-67298D01*
X30592Y-67178D01*
X30657Y-67022D01*
X30657Y-66853D01*
X30593Y-66697D01*
X30473Y-66577D01*
X30317Y-66512D01*
X30148Y-66512D01*
X30076Y-66541D01*
X29899Y-66364D01*
X29899Y-66205D01*
X29991Y-66297D01*
X30147Y-66362D01*
X30316Y-66362D01*
X30472Y-66298D01*
X30592Y-66178D01*
X30657Y-66022D01*
X30657Y-65853D01*
X30593Y-65697D01*
X30473Y-65577D01*
X30329Y-65517D01*
X30329Y-64107D01*
X30327Y-64093D01*
X30295Y-64051D01*
X30173Y-64173D01*
X30295Y-64295D01*
X30327Y-64253D01*
X30329Y-64107D01*
X30329Y-65517D01*
X30317Y-65512D01*
X30148Y-65512D01*
X30083Y-65538D01*
X30083Y-64507D01*
X30083Y-63839D01*
X30041Y-63807D01*
X29895Y-63805D01*
X29881Y-63807D01*
X29839Y-63839D01*
X29961Y-63961D01*
X30083Y-63839D01*
X30083Y-64507D01*
X29961Y-64385D01*
X29839Y-64507D01*
X29881Y-64539D01*
X30027Y-64541D01*
X30041Y-64539D01*
X30083Y-64507D01*
X30083Y-65538D01*
X29992Y-65576D01*
X29899Y-65669D01*
X29899Y-65453D01*
X29898Y-65452D01*
X29899Y-65452D01*
X29896Y-65439D01*
X29886Y-65386D01*
X29885Y-65385D01*
X29848Y-65329D01*
X29845Y-65327D01*
X29749Y-65230D01*
X29749Y-64173D01*
X29627Y-64051D01*
X29595Y-64093D01*
X29593Y-64239D01*
X29595Y-64253D01*
X29627Y-64295D01*
X29749Y-64173D01*
X29749Y-65230D01*
X29329Y-64810D01*
X29329Y-64107D01*
X29327Y-64093D01*
X29295Y-64051D01*
X29173Y-64173D01*
X29295Y-64295D01*
X29327Y-64253D01*
X29329Y-64107D01*
X29329Y-64810D01*
X29257Y-64738D01*
X29200Y-64700D01*
X29133Y-64687D01*
X29083Y-64687D01*
X29083Y-64507D01*
X29083Y-63839D01*
X29041Y-63807D01*
X28895Y-63805D01*
X28881Y-63807D01*
X28839Y-63839D01*
X28961Y-63961D01*
X29083Y-63839D01*
X29083Y-64507D01*
X28961Y-64385D01*
X28839Y-64507D01*
X28881Y-64539D01*
X29027Y-64541D01*
X29041Y-64539D01*
X29083Y-64507D01*
X29083Y-64687D01*
X28910Y-64687D01*
X28749Y-64525D01*
X28749Y-64173D01*
X28627Y-64051D01*
X28595Y-64093D01*
X28593Y-64239D01*
X28595Y-64253D01*
X28627Y-64295D01*
X28749Y-64173D01*
X28749Y-64525D01*
X28386Y-64162D01*
X28386Y-64089D01*
X28322Y-63933D01*
X28202Y-63813D01*
X28136Y-63785D01*
X28136Y-63253D01*
X28354Y-63034D01*
X28392Y-63050D01*
X28442Y-63050D01*
X28892Y-63050D01*
X28938Y-63031D01*
X28973Y-62996D01*
X28992Y-62950D01*
X28992Y-62900D01*
X28992Y-62650D01*
X28973Y-62604D01*
X28942Y-62573D01*
X28942Y-62340D01*
X28942Y-62280D01*
X28942Y-62120D01*
X28942Y-62060D01*
X28931Y-62032D01*
X28909Y-62011D01*
X28882Y-62000D01*
X28852Y-62000D01*
X28772Y-62000D01*
X28754Y-62018D01*
X28754Y-62138D01*
X28924Y-62138D01*
X28942Y-62120D01*
X28942Y-62280D01*
X28924Y-62262D01*
X28754Y-62262D01*
X28754Y-62382D01*
X28772Y-62400D01*
X28852Y-62400D01*
X28882Y-62400D01*
X28909Y-62389D01*
X28931Y-62368D01*
X28942Y-62340D01*
X28942Y-62573D01*
X28938Y-62569D01*
X28892Y-62550D01*
X28842Y-62550D01*
X28530Y-62550D01*
X28530Y-62382D01*
X28530Y-62262D01*
X28530Y-62138D01*
X28530Y-62018D01*
X28512Y-62000D01*
X28432Y-62000D01*
X28402Y-62000D01*
X28375Y-62011D01*
X28353Y-62032D01*
X28342Y-62060D01*
X28342Y-62120D01*
X28360Y-62138D01*
X28530Y-62138D01*
X28530Y-62262D01*
X28360Y-62262D01*
X28342Y-62280D01*
X28342Y-62340D01*
X28353Y-62368D01*
X28375Y-62389D01*
X28402Y-62400D01*
X28432Y-62400D01*
X28512Y-62400D01*
X28530Y-62382D01*
X28530Y-62550D01*
X28392Y-62550D01*
X28346Y-62569D01*
X28311Y-62604D01*
X28298Y-62633D01*
X28275Y-62638D01*
X28218Y-62676D01*
X28216Y-62678D01*
X27837Y-63057D01*
X27799Y-63114D01*
X27786Y-63181D01*
X27786Y-63785D01*
X27721Y-63812D01*
X27601Y-63932D01*
X27536Y-64088D01*
X27536Y-64257D01*
X27600Y-64413D01*
X27720Y-64533D01*
X27876Y-64598D01*
X28045Y-64598D01*
X28201Y-64534D01*
X28231Y-64503D01*
X28712Y-64983D01*
X28714Y-64986D01*
X28771Y-65024D01*
X28838Y-65037D01*
X29060Y-65037D01*
X29549Y-65525D01*
X29549Y-65653D01*
X29473Y-65577D01*
X29317Y-65512D01*
X29231Y-65512D01*
X28366Y-64647D01*
X28312Y-64612D01*
X28249Y-64599D01*
X26743Y-64599D01*
X26641Y-64497D01*
X26641Y-64454D01*
X26720Y-64533D01*
X26876Y-64598D01*
X27045Y-64598D01*
X27201Y-64534D01*
X27321Y-64414D01*
X27386Y-64258D01*
X27386Y-64089D01*
X27322Y-63933D01*
X27202Y-63813D01*
X27126Y-63781D01*
X27126Y-63477D01*
X27113Y-63414D01*
X27078Y-63360D01*
X26298Y-62580D01*
X26244Y-62545D01*
X26181Y-62532D01*
X25757Y-62532D01*
X25165Y-61939D01*
X25165Y-61672D01*
X25169Y-61671D01*
X25253Y-61587D01*
X25299Y-61477D01*
X25299Y-61358D01*
X25254Y-61248D01*
X25170Y-61164D01*
X25060Y-61118D01*
X24941Y-61118D01*
X24831Y-61163D01*
X24771Y-61223D01*
X24771Y-59901D01*
X24775Y-59900D01*
X24859Y-59816D01*
X24905Y-59706D01*
X24905Y-59587D01*
X24860Y-59477D01*
X24776Y-59393D01*
X24771Y-59390D01*
X24771Y-57451D01*
X25687Y-56535D01*
X25789Y-56535D01*
X25945Y-56471D01*
X26065Y-56351D01*
X26096Y-56275D01*
X26190Y-56275D01*
X26253Y-56262D01*
X26307Y-56227D01*
X31250Y-51283D01*
X31259Y-51283D01*
X26950Y-55592D01*
X26915Y-55646D01*
X26902Y-55709D01*
X26902Y-56526D01*
X26835Y-56592D01*
X26832Y-56591D01*
X26713Y-56591D01*
X26603Y-56636D01*
X26519Y-56720D01*
X26473Y-56830D01*
X26473Y-56949D01*
X26518Y-57059D01*
X26602Y-57143D01*
X26712Y-57189D01*
X26831Y-57189D01*
X26941Y-57144D01*
X27025Y-57060D01*
X27071Y-56950D01*
X27071Y-56831D01*
X27069Y-56826D01*
X27184Y-56712D01*
X27219Y-56658D01*
X27232Y-56595D01*
X27232Y-55777D01*
X32057Y-50952D01*
X32082Y-50952D01*
X31773Y-51261D01*
X31738Y-51315D01*
X31725Y-51378D01*
X31725Y-54626D01*
X31738Y-54689D01*
X31773Y-54743D01*
X31869Y-54838D01*
X31871Y-54841D01*
X31925Y-54876D01*
X31988Y-54889D01*
X32137Y-54889D01*
X32130Y-54909D01*
X32130Y-54994D01*
X32148Y-55012D01*
X32343Y-55012D01*
X32343Y-54924D01*
X32617Y-54924D01*
X32617Y-55012D01*
X32812Y-55012D01*
X32830Y-54994D01*
X32830Y-54909D01*
X32822Y-54889D01*
X32989Y-54889D01*
X32989Y-55849D01*
X32983Y-55852D01*
X32948Y-55887D01*
X32929Y-55933D01*
X32929Y-55983D01*
X32929Y-56018D01*
X32879Y-56018D01*
X32879Y-55933D01*
X32860Y-55887D01*
X32830Y-55857D01*
X32830Y-55289D01*
X32830Y-55204D01*
X32812Y-55186D01*
X32617Y-55186D01*
X32617Y-55331D01*
X32635Y-55349D01*
X32740Y-55349D01*
X32770Y-55349D01*
X32797Y-55338D01*
X32819Y-55317D01*
X32830Y-55289D01*
X32830Y-55857D01*
X32825Y-55852D01*
X32779Y-55833D01*
X32729Y-55833D01*
X32529Y-55833D01*
X32483Y-55852D01*
X32448Y-55887D01*
X32429Y-55933D01*
X32429Y-55983D01*
X32429Y-56433D01*
X32448Y-56479D01*
X32483Y-56514D01*
X32529Y-56533D01*
X32579Y-56533D01*
X32779Y-56533D01*
X32825Y-56514D01*
X32860Y-56479D01*
X32879Y-56433D01*
X32879Y-56383D01*
X32879Y-56348D01*
X32929Y-56348D01*
X32929Y-56433D01*
X32948Y-56479D01*
X32983Y-56514D01*
X33029Y-56533D01*
X33079Y-56533D01*
X33279Y-56533D01*
X33325Y-56514D01*
X33360Y-56479D01*
X33379Y-56433D01*
X33379Y-56383D01*
X33379Y-55933D01*
X33360Y-55887D01*
X33325Y-55852D01*
X33319Y-55849D01*
X33319Y-54807D01*
X33306Y-54744D01*
X33271Y-54690D01*
X33268Y-54688D01*
X33188Y-54607D01*
X33134Y-54572D01*
X33071Y-54559D01*
X32875Y-54559D01*
X32880Y-54549D01*
X32880Y-54499D01*
X32880Y-54149D01*
X32861Y-54103D01*
X32826Y-54068D01*
X32780Y-54049D01*
X32730Y-54049D01*
X32715Y-54049D01*
X32715Y-53770D01*
X32825Y-53770D01*
X32871Y-53751D01*
X32906Y-53716D01*
X32925Y-53670D01*
X32925Y-53620D01*
X32925Y-53420D01*
X32925Y-52670D01*
X32925Y-52620D01*
X32925Y-52420D01*
X32906Y-52374D01*
X32871Y-52339D01*
X32825Y-52320D01*
X32775Y-52320D01*
X32275Y-52320D01*
X32229Y-52339D01*
X32194Y-52374D01*
X32175Y-52420D01*
X32175Y-52470D01*
X32175Y-52670D01*
X32194Y-52716D01*
X32229Y-52751D01*
X32275Y-52770D01*
X32325Y-52770D01*
X32825Y-52770D01*
X32871Y-52751D01*
X32906Y-52716D01*
X32925Y-52670D01*
X32925Y-53420D01*
X32906Y-53374D01*
X32875Y-53343D01*
X32875Y-53160D01*
X32875Y-53113D01*
X32875Y-52977D01*
X32875Y-52930D01*
X32864Y-52902D01*
X32842Y-52881D01*
X32815Y-52870D01*
X32785Y-52870D01*
X32693Y-52870D01*
X32675Y-52888D01*
X32675Y-52995D01*
X32857Y-52995D01*
X32875Y-52977D01*
X32875Y-53113D01*
X32857Y-53095D01*
X32675Y-53095D01*
X32675Y-53202D01*
X32693Y-53220D01*
X32785Y-53220D01*
X32815Y-53220D01*
X32842Y-53209D01*
X32864Y-53188D01*
X32875Y-53160D01*
X32875Y-53343D01*
X32871Y-53339D01*
X32825Y-53320D01*
X32775Y-53320D01*
X32425Y-53320D01*
X32425Y-53202D01*
X32425Y-53095D01*
X32425Y-52995D01*
X32425Y-52888D01*
X32407Y-52870D01*
X32315Y-52870D01*
X32285Y-52870D01*
X32258Y-52881D01*
X32236Y-52902D01*
X32225Y-52930D01*
X32225Y-52977D01*
X32243Y-52995D01*
X32425Y-52995D01*
X32425Y-53095D01*
X32243Y-53095D01*
X32225Y-53113D01*
X32225Y-53160D01*
X32236Y-53188D01*
X32258Y-53209D01*
X32285Y-53220D01*
X32315Y-53220D01*
X32407Y-53220D01*
X32425Y-53202D01*
X32425Y-53320D01*
X32275Y-53320D01*
X32229Y-53339D01*
X32194Y-53374D01*
X32175Y-53420D01*
X32175Y-53470D01*
X32175Y-53670D01*
X32194Y-53716D01*
X32229Y-53751D01*
X32275Y-53770D01*
X32325Y-53770D01*
X32385Y-53770D01*
X32385Y-54049D01*
X32180Y-54049D01*
X32134Y-54068D01*
X32099Y-54103D01*
X32080Y-54149D01*
X32080Y-54199D01*
X32080Y-54549D01*
X32084Y-54559D01*
X32056Y-54559D01*
X32055Y-54557D01*
X32055Y-51446D01*
X32244Y-51257D01*
X32275Y-51270D01*
X32325Y-51270D01*
X32825Y-51270D01*
X32871Y-51251D01*
X32906Y-51216D01*
X32925Y-51170D01*
X32925Y-51120D01*
X32925Y-50952D01*
X32973Y-50952D01*
X33036Y-50939D01*
X33090Y-50904D01*
X33385Y-50609D01*
X33420Y-50555D01*
X33433Y-50492D01*
X33433Y-49804D01*
X33420Y-49741D01*
X33385Y-49687D01*
X33382Y-49685D01*
X33126Y-49428D01*
X33072Y-49393D01*
X33009Y-49380D01*
X32908Y-49380D01*
X32906Y-49374D01*
X32871Y-49339D01*
X32825Y-49320D01*
X32775Y-49320D01*
X32275Y-49320D01*
X32229Y-49339D01*
X32194Y-49374D01*
X32191Y-49380D01*
X32029Y-49380D01*
X32059Y-49368D01*
X32143Y-49284D01*
X32173Y-49210D01*
X32191Y-49210D01*
X32194Y-49216D01*
X32229Y-49251D01*
X32275Y-49270D01*
X32325Y-49270D01*
X32825Y-49270D01*
X32871Y-49251D01*
X32906Y-49216D01*
X32925Y-49170D01*
X32925Y-49120D01*
X32925Y-48920D01*
X32906Y-48874D01*
X32875Y-48843D01*
X32875Y-48660D01*
X32875Y-48613D01*
X32875Y-48477D01*
X32875Y-48430D01*
X32864Y-48402D01*
X32842Y-48381D01*
X32815Y-48370D01*
X32785Y-48370D01*
X32693Y-48370D01*
X32675Y-48388D01*
X32675Y-48495D01*
X32857Y-48495D01*
X32875Y-48477D01*
X32875Y-48613D01*
X32857Y-48595D01*
X32675Y-48595D01*
X32675Y-48702D01*
X32693Y-48720D01*
X32785Y-48720D01*
X32815Y-48720D01*
X32842Y-48709D01*
X32864Y-48688D01*
X32875Y-48660D01*
X32875Y-48843D01*
X32871Y-48839D01*
X32825Y-48820D01*
X32775Y-48820D01*
X32425Y-48820D01*
X32425Y-48702D01*
X32425Y-48595D01*
X32425Y-48495D01*
X32425Y-48388D01*
X32407Y-48370D01*
X32315Y-48370D01*
X32285Y-48370D01*
X32258Y-48381D01*
X32236Y-48402D01*
X32225Y-48430D01*
X32225Y-48477D01*
X32243Y-48495D01*
X32425Y-48495D01*
X32425Y-48595D01*
X32243Y-48595D01*
X32225Y-48613D01*
X32225Y-48660D01*
X32236Y-48688D01*
X32258Y-48709D01*
X32285Y-48720D01*
X32315Y-48720D01*
X32407Y-48720D01*
X32425Y-48702D01*
X32425Y-48820D01*
X32275Y-48820D01*
X32229Y-48839D01*
X32194Y-48874D01*
X32191Y-48880D01*
X32079Y-48880D01*
X32060Y-48861D01*
X31950Y-48815D01*
X31831Y-48815D01*
X31731Y-48855D01*
X31731Y-42810D01*
X31530Y-42609D01*
X31489Y-42681D01*
X31483Y-42905D01*
X31489Y-42939D01*
X31530Y-43011D01*
X31731Y-42810D01*
X31731Y-48855D01*
X31721Y-48860D01*
X31637Y-48944D01*
X31591Y-49054D01*
X31591Y-49173D01*
X31591Y-49174D01*
X31552Y-49158D01*
X31502Y-49158D01*
X31452Y-49158D01*
X31452Y-43068D01*
X31452Y-43018D01*
X31452Y-42768D01*
X31433Y-42722D01*
X31402Y-42691D01*
X31402Y-42458D01*
X31402Y-42398D01*
X31402Y-42238D01*
X31402Y-42178D01*
X31391Y-42150D01*
X31369Y-42129D01*
X31342Y-42118D01*
X31312Y-42118D01*
X31232Y-42118D01*
X31214Y-42136D01*
X31214Y-42256D01*
X31384Y-42256D01*
X31402Y-42238D01*
X31402Y-42398D01*
X31384Y-42380D01*
X31214Y-42380D01*
X31214Y-42500D01*
X31232Y-42518D01*
X31312Y-42518D01*
X31342Y-42518D01*
X31369Y-42507D01*
X31391Y-42486D01*
X31402Y-42458D01*
X31402Y-42691D01*
X31398Y-42687D01*
X31352Y-42668D01*
X31302Y-42668D01*
X30990Y-42668D01*
X30990Y-42500D01*
X30990Y-42380D01*
X30990Y-42256D01*
X30990Y-42136D01*
X30972Y-42118D01*
X30892Y-42118D01*
X30862Y-42118D01*
X30835Y-42129D01*
X30813Y-42150D01*
X30802Y-42178D01*
X30802Y-42238D01*
X30820Y-42256D01*
X30990Y-42256D01*
X30990Y-42380D01*
X30820Y-42380D01*
X30802Y-42398D01*
X30802Y-42458D01*
X30813Y-42486D01*
X30835Y-42507D01*
X30862Y-42518D01*
X30892Y-42518D01*
X30972Y-42518D01*
X30990Y-42500D01*
X30990Y-42668D01*
X30852Y-42668D01*
X30806Y-42687D01*
X30771Y-42722D01*
X30752Y-42768D01*
X30752Y-42818D01*
X30752Y-43068D01*
X30771Y-43114D01*
X30806Y-43149D01*
X30852Y-43168D01*
X30902Y-43168D01*
X30937Y-43168D01*
X30937Y-43238D01*
X30836Y-43339D01*
X30743Y-43339D01*
X30743Y-40251D01*
X30743Y-40221D01*
X30743Y-40116D01*
X30743Y-39806D01*
X30743Y-39701D01*
X30743Y-39671D01*
X30732Y-39644D01*
X30711Y-39622D01*
X30683Y-39611D01*
X30598Y-39611D01*
X30580Y-39629D01*
X30580Y-39824D01*
X30725Y-39824D01*
X30743Y-39806D01*
X30743Y-40116D01*
X30725Y-40098D01*
X30580Y-40098D01*
X30580Y-40293D01*
X30598Y-40311D01*
X30683Y-40311D01*
X30711Y-40300D01*
X30732Y-40278D01*
X30743Y-40251D01*
X30743Y-43339D01*
X30570Y-43339D01*
X30570Y-43254D01*
X30551Y-43208D01*
X30516Y-43173D01*
X30470Y-43154D01*
X30420Y-43154D01*
X30406Y-43154D01*
X30406Y-40293D01*
X30406Y-40098D01*
X30406Y-39824D01*
X30406Y-39629D01*
X30388Y-39611D01*
X30303Y-39611D01*
X30275Y-39622D01*
X30254Y-39644D01*
X30243Y-39671D01*
X30243Y-39701D01*
X30243Y-39806D01*
X30261Y-39824D01*
X30406Y-39824D01*
X30406Y-40098D01*
X30261Y-40098D01*
X30243Y-40116D01*
X30243Y-40221D01*
X30243Y-40251D01*
X30254Y-40278D01*
X30275Y-40300D01*
X30303Y-40311D01*
X30388Y-40311D01*
X30406Y-40293D01*
X30406Y-43154D01*
X30224Y-43154D01*
X30224Y-42071D01*
X30224Y-42041D01*
X30224Y-41961D01*
X30224Y-41701D01*
X30224Y-41621D01*
X30224Y-41591D01*
X30213Y-41564D01*
X30192Y-41542D01*
X30164Y-41531D01*
X30104Y-41531D01*
X30086Y-41549D01*
X30086Y-41719D01*
X30206Y-41719D01*
X30224Y-41701D01*
X30224Y-41961D01*
X30206Y-41943D01*
X30086Y-41943D01*
X30086Y-42113D01*
X30104Y-42131D01*
X30164Y-42131D01*
X30192Y-42120D01*
X30213Y-42098D01*
X30224Y-42071D01*
X30224Y-43154D01*
X30170Y-43154D01*
X30124Y-43173D01*
X30089Y-43208D01*
X30070Y-43254D01*
X30070Y-43304D01*
X30070Y-43754D01*
X30089Y-43800D01*
X30124Y-43835D01*
X30170Y-43854D01*
X30220Y-43854D01*
X30470Y-43854D01*
X30516Y-43835D01*
X30551Y-43800D01*
X30570Y-43754D01*
X30570Y-43704D01*
X30570Y-43669D01*
X30905Y-43669D01*
X30968Y-43656D01*
X31022Y-43621D01*
X31216Y-43425D01*
X31218Y-43424D01*
X31219Y-43424D01*
X31254Y-43370D01*
X31267Y-43307D01*
X31267Y-43168D01*
X31352Y-43168D01*
X31398Y-43149D01*
X31433Y-43114D01*
X31452Y-43068D01*
X31452Y-49158D01*
X31252Y-49158D01*
X31206Y-49177D01*
X31171Y-49212D01*
X31152Y-49258D01*
X31152Y-49308D01*
X31152Y-49758D01*
X31171Y-49804D01*
X31206Y-49839D01*
X31252Y-49858D01*
X31302Y-49858D01*
X31552Y-49858D01*
X31598Y-49839D01*
X31633Y-49804D01*
X31652Y-49758D01*
X31652Y-49710D01*
X32191Y-49710D01*
X32194Y-49716D01*
X32229Y-49751D01*
X32275Y-49770D01*
X32325Y-49770D01*
X32825Y-49770D01*
X32871Y-49751D01*
X32906Y-49716D01*
X32908Y-49710D01*
X32940Y-49710D01*
X33103Y-49872D01*
X33103Y-50423D01*
X32925Y-50601D01*
X32925Y-50420D01*
X32906Y-50374D01*
X32871Y-50339D01*
X32825Y-50320D01*
X32775Y-50320D01*
X32275Y-50320D01*
X32229Y-50339D01*
X32194Y-50374D01*
X32191Y-50380D01*
X28195Y-50380D01*
X28132Y-50393D01*
X28078Y-50428D01*
X28076Y-50430D01*
X24588Y-53918D01*
X24553Y-53972D01*
X24540Y-54035D01*
X24540Y-54718D01*
X24465Y-54749D01*
X24345Y-54869D01*
X24280Y-55025D01*
X24280Y-55194D01*
X24344Y-55350D01*
X24446Y-55452D01*
X23964Y-55452D01*
X24065Y-55351D01*
X24130Y-55195D01*
X24130Y-55026D01*
X24066Y-54870D01*
X23946Y-54750D01*
X23790Y-54685D01*
X23621Y-54685D01*
X23465Y-54749D01*
X23345Y-54869D01*
X23280Y-55025D01*
X23280Y-55194D01*
X23344Y-55350D01*
X23446Y-55452D01*
X23262Y-55452D01*
X23254Y-55431D01*
X23170Y-55347D01*
X23060Y-55301D01*
X22941Y-55301D01*
X22831Y-55346D01*
X22803Y-55374D01*
X22803Y-54890D01*
X27483Y-50210D01*
X32191Y-50210D01*
X32194Y-50216D01*
X32229Y-50251D01*
X32275Y-50270D01*
X32325Y-50270D01*
X32825Y-50270D01*
X32871Y-50251D01*
X32906Y-50216D01*
X32925Y-50170D01*
X32925Y-50120D01*
X32925Y-49920D01*
X32906Y-49874D01*
X32871Y-49839D01*
X32825Y-49820D01*
X32775Y-49820D01*
X32275Y-49820D01*
X32229Y-49839D01*
X32194Y-49874D01*
X32191Y-49880D01*
X31052Y-49880D01*
X31052Y-49758D01*
X31052Y-49708D01*
X31052Y-49258D01*
X31033Y-49212D01*
X30998Y-49177D01*
X30952Y-49158D01*
X30902Y-49158D01*
X30652Y-49158D01*
X30606Y-49177D01*
X30571Y-49212D01*
X30552Y-49258D01*
X30552Y-49283D01*
X30415Y-49283D01*
X30392Y-49260D01*
X30392Y-48608D01*
X30517Y-48608D01*
X30563Y-48589D01*
X30598Y-48554D01*
X30617Y-48508D01*
X30617Y-48458D01*
X30617Y-48108D01*
X30598Y-48062D01*
X30567Y-48031D01*
X30567Y-47748D01*
X30567Y-47663D01*
X30567Y-47453D01*
X30567Y-47368D01*
X30556Y-47340D01*
X30534Y-47319D01*
X30507Y-47308D01*
X30477Y-47308D01*
X30372Y-47308D01*
X30354Y-47326D01*
X30354Y-47471D01*
X30549Y-47471D01*
X30567Y-47453D01*
X30567Y-47663D01*
X30549Y-47645D01*
X30354Y-47645D01*
X30354Y-47790D01*
X30372Y-47808D01*
X30477Y-47808D01*
X30507Y-47808D01*
X30534Y-47797D01*
X30556Y-47776D01*
X30567Y-47748D01*
X30567Y-48031D01*
X30563Y-48027D01*
X30517Y-48008D01*
X30467Y-48008D01*
X30080Y-48008D01*
X30080Y-47790D01*
X30080Y-47645D01*
X30080Y-47471D01*
X30080Y-47326D01*
X30062Y-47308D01*
X29970Y-47308D01*
X29970Y-43754D01*
X29970Y-43704D01*
X29970Y-43254D01*
X29962Y-43234D01*
X29962Y-42113D01*
X29962Y-41943D01*
X29962Y-41719D01*
X29962Y-41549D01*
X29944Y-41531D01*
X29884Y-41531D01*
X29856Y-41542D01*
X29835Y-41564D01*
X29824Y-41591D01*
X29824Y-41621D01*
X29824Y-41701D01*
X29842Y-41719D01*
X29962Y-41719D01*
X29962Y-41943D01*
X29842Y-41943D01*
X29824Y-41961D01*
X29824Y-42041D01*
X29824Y-42071D01*
X29835Y-42098D01*
X29856Y-42120D01*
X29884Y-42131D01*
X29944Y-42131D01*
X29962Y-42113D01*
X29962Y-43234D01*
X29951Y-43208D01*
X29916Y-43173D01*
X29870Y-43154D01*
X29820Y-43154D01*
X29674Y-43154D01*
X29674Y-42081D01*
X29674Y-42031D01*
X29674Y-41581D01*
X29655Y-41535D01*
X29620Y-41500D01*
X29574Y-41481D01*
X29524Y-41481D01*
X29274Y-41481D01*
X29228Y-41500D01*
X29193Y-41535D01*
X29174Y-41581D01*
X29174Y-41631D01*
X29174Y-41666D01*
X29006Y-41666D01*
X28907Y-41566D01*
X28904Y-41564D01*
X28807Y-41466D01*
X28807Y-41298D01*
X28892Y-41298D01*
X28938Y-41279D01*
X28973Y-41244D01*
X28992Y-41198D01*
X28992Y-41148D01*
X28992Y-40898D01*
X28973Y-40852D01*
X28938Y-40817D01*
X28892Y-40798D01*
X28842Y-40798D01*
X28392Y-40798D01*
X28346Y-40817D01*
X28311Y-40852D01*
X28292Y-40898D01*
X28292Y-40948D01*
X28292Y-41198D01*
X28311Y-41244D01*
X28346Y-41279D01*
X28392Y-41298D01*
X28442Y-41298D01*
X28477Y-41298D01*
X28477Y-41535D01*
X28484Y-41572D01*
X28473Y-41577D01*
X28389Y-41661D01*
X28343Y-41771D01*
X28343Y-41890D01*
X28388Y-42000D01*
X28472Y-42084D01*
X28582Y-42130D01*
X28701Y-42130D01*
X28811Y-42085D01*
X28895Y-42001D01*
X28900Y-41988D01*
X28938Y-41996D01*
X29174Y-41996D01*
X29174Y-42081D01*
X29193Y-42127D01*
X29228Y-42162D01*
X29274Y-42181D01*
X29324Y-42181D01*
X29574Y-42181D01*
X29620Y-42162D01*
X29655Y-42127D01*
X29674Y-42081D01*
X29674Y-43154D01*
X29570Y-43154D01*
X29524Y-43173D01*
X29489Y-43208D01*
X29470Y-43254D01*
X29470Y-43304D01*
X29470Y-43339D01*
X29429Y-43339D01*
X29388Y-43237D01*
X29304Y-43153D01*
X29194Y-43107D01*
X29075Y-43107D01*
X28965Y-43152D01*
X28881Y-43236D01*
X28835Y-43346D01*
X28835Y-43465D01*
X28880Y-43575D01*
X28964Y-43659D01*
X29074Y-43705D01*
X29193Y-43705D01*
X29281Y-43669D01*
X29470Y-43669D01*
X29470Y-43754D01*
X29489Y-43800D01*
X29524Y-43835D01*
X29570Y-43854D01*
X29620Y-43854D01*
X29870Y-43854D01*
X29916Y-43835D01*
X29951Y-43800D01*
X29970Y-43754D01*
X29970Y-47308D01*
X29957Y-47308D01*
X29927Y-47308D01*
X29900Y-47319D01*
X29878Y-47340D01*
X29867Y-47368D01*
X29867Y-47453D01*
X29885Y-47471D01*
X30080Y-47471D01*
X30080Y-47645D01*
X29885Y-47645D01*
X29867Y-47663D01*
X29867Y-47748D01*
X29878Y-47776D01*
X29900Y-47797D01*
X29927Y-47808D01*
X29957Y-47808D01*
X30062Y-47808D01*
X30080Y-47790D01*
X30080Y-48008D01*
X29917Y-48008D01*
X29871Y-48027D01*
X29836Y-48062D01*
X29817Y-48108D01*
X29817Y-48158D01*
X29817Y-48508D01*
X29836Y-48554D01*
X29871Y-48589D01*
X29917Y-48608D01*
X29967Y-48608D01*
X30042Y-48608D01*
X30042Y-49260D01*
X29964Y-49338D01*
X29918Y-49448D01*
X29918Y-49567D01*
X29963Y-49677D01*
X30047Y-49761D01*
X30157Y-49807D01*
X30276Y-49807D01*
X30386Y-49762D01*
X30415Y-49733D01*
X30552Y-49733D01*
X30552Y-49758D01*
X30571Y-49804D01*
X30606Y-49839D01*
X30652Y-49858D01*
X30702Y-49858D01*
X30952Y-49858D01*
X30998Y-49839D01*
X31033Y-49804D01*
X31052Y-49758D01*
X31052Y-49880D01*
X27515Y-49880D01*
X27515Y-40919D01*
X27515Y-40834D01*
X27515Y-40624D01*
X27515Y-40539D01*
X27504Y-40511D01*
X27482Y-40490D01*
X27455Y-40479D01*
X27425Y-40479D01*
X27320Y-40479D01*
X27302Y-40497D01*
X27302Y-40642D01*
X27497Y-40642D01*
X27515Y-40624D01*
X27515Y-40834D01*
X27497Y-40816D01*
X27302Y-40816D01*
X27302Y-40961D01*
X27320Y-40979D01*
X27425Y-40979D01*
X27455Y-40979D01*
X27482Y-40968D01*
X27504Y-40947D01*
X27515Y-40919D01*
X27515Y-49880D01*
X27415Y-49880D01*
X27352Y-49893D01*
X27298Y-49928D01*
X27296Y-49930D01*
X27028Y-50198D01*
X27028Y-40961D01*
X27028Y-40816D01*
X27028Y-40642D01*
X27028Y-40497D01*
X27010Y-40479D01*
X26905Y-40479D01*
X26875Y-40479D01*
X26848Y-40490D01*
X26826Y-40511D01*
X26815Y-40539D01*
X26815Y-40624D01*
X26833Y-40642D01*
X27028Y-40642D01*
X27028Y-40816D01*
X26833Y-40816D01*
X26815Y-40834D01*
X26815Y-40919D01*
X26826Y-40947D01*
X26848Y-40968D01*
X26875Y-40979D01*
X26905Y-40979D01*
X27010Y-40979D01*
X27028Y-40961D01*
X27028Y-50198D01*
X25275Y-51951D01*
X25275Y-42800D01*
X25275Y-42200D01*
X25273Y-42008D01*
X25197Y-41831D01*
X25049Y-41724D01*
X24985Y-41708D01*
X24985Y-42275D01*
X25237Y-42275D01*
X25275Y-42200D01*
X25275Y-42800D01*
X25237Y-42725D01*
X24985Y-42725D01*
X24985Y-43292D01*
X25049Y-43276D01*
X25197Y-43169D01*
X25273Y-42992D01*
X25275Y-42800D01*
X25275Y-51951D01*
X24595Y-52631D01*
X24595Y-43292D01*
X24595Y-42725D01*
X24595Y-42275D01*
X24595Y-41708D01*
X24531Y-41724D01*
X24383Y-41831D01*
X24307Y-42008D01*
X24305Y-42200D01*
X24343Y-42275D01*
X24595Y-42275D01*
X24595Y-42725D01*
X24343Y-42725D01*
X24305Y-42800D01*
X24307Y-42992D01*
X24383Y-43169D01*
X24531Y-43276D01*
X24595Y-43292D01*
X24595Y-52631D01*
X24247Y-52979D01*
X24247Y-41038D01*
X24247Y-41008D01*
X24247Y-40903D01*
X24247Y-40593D01*
X24247Y-40488D01*
X24247Y-40458D01*
X24236Y-40431D01*
X24215Y-40409D01*
X24187Y-40398D01*
X24102Y-40398D01*
X24084Y-40416D01*
X24084Y-40611D01*
X24229Y-40611D01*
X24247Y-40593D01*
X24247Y-40903D01*
X24229Y-40885D01*
X24084Y-40885D01*
X24084Y-41080D01*
X24102Y-41098D01*
X24187Y-41098D01*
X24215Y-41087D01*
X24236Y-41065D01*
X24247Y-41038D01*
X24247Y-52979D01*
X23910Y-53316D01*
X23910Y-41080D01*
X23910Y-40885D01*
X23910Y-40611D01*
X23910Y-40416D01*
X23892Y-40398D01*
X23807Y-40398D01*
X23779Y-40409D01*
X23758Y-40431D01*
X23747Y-40458D01*
X23747Y-40488D01*
X23747Y-40593D01*
X23765Y-40611D01*
X23910Y-40611D01*
X23910Y-40885D01*
X23765Y-40885D01*
X23747Y-40903D01*
X23747Y-41008D01*
X23747Y-41038D01*
X23758Y-41065D01*
X23779Y-41087D01*
X23807Y-41098D01*
X23892Y-41098D01*
X23910Y-41080D01*
X23910Y-53316D01*
X22521Y-54705D01*
X22486Y-54759D01*
X22473Y-54822D01*
X22473Y-57283D01*
X22486Y-57346D01*
X22521Y-57400D01*
X23915Y-58793D01*
X23914Y-58798D01*
X23914Y-58917D01*
X23959Y-59027D01*
X24043Y-59111D01*
X24153Y-59157D01*
X24272Y-59157D01*
X24382Y-59112D01*
X24441Y-59053D01*
X24441Y-59390D01*
X24437Y-59392D01*
X24353Y-59476D01*
X24350Y-59481D01*
X24270Y-59481D01*
X24270Y-59396D01*
X24251Y-59350D01*
X24216Y-59315D01*
X24170Y-59296D01*
X24120Y-59296D01*
X23870Y-59296D01*
X23824Y-59315D01*
X23789Y-59350D01*
X23770Y-59396D01*
X23770Y-59446D01*
X23770Y-59896D01*
X23789Y-59942D01*
X23824Y-59977D01*
X23870Y-59996D01*
X23920Y-59996D01*
X24170Y-59996D01*
X24216Y-59977D01*
X24251Y-59942D01*
X24270Y-59896D01*
X24270Y-59846D01*
X24270Y-59811D01*
X24350Y-59811D01*
X24352Y-59815D01*
X24436Y-59899D01*
X24441Y-59901D01*
X24441Y-62205D01*
X24454Y-62268D01*
X24489Y-62322D01*
X25471Y-63303D01*
X25473Y-63306D01*
X25527Y-63341D01*
X25590Y-63354D01*
X26112Y-63354D01*
X26311Y-63553D01*
X26311Y-63922D01*
X26202Y-63813D01*
X26046Y-63748D01*
X25877Y-63748D01*
X25721Y-63812D01*
X25601Y-63932D01*
X25536Y-64088D01*
X25536Y-64257D01*
X25600Y-64413D01*
X25720Y-64533D01*
X25876Y-64598D01*
X26045Y-64598D01*
X26201Y-64534D01*
X26311Y-64424D01*
X26311Y-64566D01*
X26324Y-64629D01*
X26359Y-64683D01*
X26557Y-64881D01*
X26611Y-64916D01*
X26674Y-64929D01*
X28180Y-64929D01*
X28909Y-65658D01*
X28872Y-65696D01*
X28807Y-65852D01*
X28807Y-66021D01*
X28838Y-66097D01*
X28623Y-66312D01*
X28588Y-66366D01*
X28575Y-66429D01*
X28575Y-66679D01*
X28473Y-66577D01*
X28317Y-66512D01*
X28148Y-66512D01*
X27992Y-66576D01*
X27872Y-66696D01*
X27807Y-66852D01*
X27807Y-67021D01*
X27871Y-67177D01*
X27991Y-67297D01*
X28147Y-67362D01*
X28316Y-67362D01*
X28472Y-67298D01*
X28575Y-67195D01*
X28575Y-68089D01*
X28588Y-68152D01*
X28623Y-68206D01*
X29257Y-68839D01*
X29259Y-68842D01*
X29308Y-68873D01*
X29307Y-68877D01*
X29307Y-68996D01*
X29352Y-69106D01*
X29436Y-69190D01*
X29546Y-69236D01*
X29665Y-69236D01*
X29775Y-69191D01*
X29859Y-69107D01*
X29905Y-68997D01*
X29905Y-68878D01*
X29860Y-68768D01*
X29776Y-68684D01*
X29666Y-68638D01*
X29547Y-68638D01*
X29542Y-68639D01*
X29504Y-68601D01*
X29493Y-68584D01*
X29439Y-68549D01*
X29431Y-68547D01*
X28905Y-68020D01*
X28905Y-67211D01*
X28991Y-67297D01*
X29147Y-67362D01*
X29316Y-67362D01*
X29472Y-67298D01*
X29592Y-67178D01*
X29657Y-67022D01*
X29657Y-66853D01*
X29593Y-66697D01*
X29473Y-66577D01*
X29317Y-66512D01*
X29148Y-66512D01*
X28992Y-66576D01*
X28905Y-66663D01*
X28905Y-66497D01*
X29071Y-66330D01*
X29147Y-66362D01*
X29316Y-66362D01*
X29472Y-66298D01*
X29549Y-66221D01*
X29549Y-66437D01*
X29562Y-66504D01*
X29600Y-66561D01*
X29831Y-66792D01*
X29807Y-66852D01*
X29807Y-67021D01*
X29871Y-67177D01*
X29991Y-67297D01*
X30007Y-67303D01*
X30007Y-69477D01*
X29139Y-70345D01*
X27657Y-70345D01*
X27657Y-67262D01*
X27657Y-67212D01*
X27657Y-66612D01*
X27638Y-66566D01*
X27603Y-66531D01*
X27600Y-66529D01*
X27600Y-65871D01*
X27598Y-65857D01*
X27566Y-65815D01*
X27444Y-65937D01*
X27566Y-66059D01*
X27598Y-66017D01*
X27600Y-65871D01*
X27600Y-66529D01*
X27557Y-66512D01*
X27507Y-66512D01*
X27354Y-66512D01*
X27354Y-66271D01*
X27354Y-65603D01*
X27312Y-65571D01*
X27166Y-65569D01*
X27152Y-65571D01*
X27110Y-65603D01*
X27232Y-65725D01*
X27354Y-65603D01*
X27354Y-66271D01*
X27232Y-66149D01*
X27110Y-66271D01*
X27152Y-66303D01*
X27298Y-66305D01*
X27312Y-66303D01*
X27354Y-66271D01*
X27354Y-66512D01*
X27020Y-66512D01*
X27020Y-65937D01*
X26898Y-65815D01*
X26866Y-65857D01*
X26864Y-66003D01*
X26866Y-66017D01*
X26898Y-66059D01*
X27020Y-65937D01*
X27020Y-66512D01*
X26907Y-66512D01*
X26861Y-66531D01*
X26826Y-66566D01*
X26807Y-66612D01*
X26807Y-66662D01*
X26807Y-67262D01*
X26826Y-67308D01*
X26861Y-67343D01*
X26907Y-67362D01*
X26957Y-67362D01*
X27557Y-67362D01*
X27603Y-67343D01*
X27638Y-67308D01*
X27657Y-67262D01*
X27657Y-70345D01*
X27356Y-70345D01*
X26505Y-69494D01*
X26505Y-65742D01*
X26766Y-65481D01*
X27760Y-65481D01*
X27923Y-65644D01*
X27872Y-65696D01*
X27807Y-65852D01*
X27807Y-66021D01*
X27871Y-66177D01*
X27991Y-66297D01*
X28147Y-66362D01*
X28316Y-66362D01*
X28472Y-66298D01*
X28592Y-66178D01*
X28657Y-66022D01*
X28657Y-65853D01*
X28593Y-65697D01*
X28473Y-65577D01*
X28443Y-65564D01*
X28440Y-65548D01*
X28439Y-65547D01*
X28423Y-65523D01*
X28391Y-65475D01*
X28391Y-65474D01*
X28013Y-65097D01*
X27940Y-65048D01*
X27854Y-65031D01*
X26673Y-65031D01*
X26587Y-65048D01*
X26562Y-65064D01*
X26513Y-65097D01*
X26121Y-65490D01*
X26072Y-65563D01*
X26055Y-65649D01*
X26055Y-69587D01*
X26055Y-71264D01*
X25768Y-71551D01*
X25728Y-71551D01*
X25618Y-71596D01*
X25534Y-71680D01*
X25488Y-71790D01*
X25488Y-71831D01*
X25441Y-71878D01*
X25441Y-70959D01*
X25441Y-70790D01*
X25377Y-70634D01*
X25257Y-70514D01*
X25101Y-70449D01*
X24932Y-70449D01*
X24850Y-70482D01*
X24673Y-70305D01*
X24673Y-70132D01*
X24775Y-70234D01*
X24931Y-70299D01*
X25100Y-70299D01*
X25256Y-70235D01*
X25376Y-70115D01*
X25441Y-69959D01*
X25441Y-69790D01*
X25386Y-69655D01*
X25386Y-64498D01*
X25386Y-64448D01*
X25386Y-63848D01*
X25367Y-63802D01*
X25332Y-63767D01*
X25286Y-63748D01*
X25236Y-63748D01*
X24636Y-63748D01*
X24590Y-63767D01*
X24555Y-63802D01*
X24536Y-63848D01*
X24536Y-63898D01*
X24536Y-64008D01*
X23670Y-64008D01*
X23670Y-59896D01*
X23670Y-59846D01*
X23670Y-59396D01*
X23651Y-59350D01*
X23616Y-59315D01*
X23570Y-59296D01*
X23520Y-59296D01*
X23270Y-59296D01*
X23224Y-59315D01*
X23189Y-59350D01*
X23170Y-59396D01*
X23170Y-59446D01*
X23170Y-59481D01*
X22638Y-59481D01*
X22575Y-59494D01*
X22521Y-59529D01*
X21922Y-60128D01*
X21887Y-60182D01*
X21874Y-60245D01*
X21874Y-63748D01*
X21714Y-63748D01*
X21668Y-63767D01*
X21633Y-63802D01*
X21614Y-63848D01*
X21614Y-63898D01*
X21614Y-64498D01*
X21633Y-64544D01*
X21668Y-64579D01*
X21714Y-64598D01*
X21764Y-64598D01*
X22364Y-64598D01*
X22410Y-64579D01*
X22445Y-64544D01*
X22464Y-64498D01*
X22464Y-64448D01*
X22464Y-63848D01*
X22445Y-63802D01*
X22410Y-63767D01*
X22364Y-63748D01*
X22314Y-63748D01*
X22204Y-63748D01*
X22204Y-60314D01*
X22707Y-59811D01*
X23170Y-59811D01*
X23170Y-59896D01*
X23189Y-59942D01*
X23224Y-59977D01*
X23270Y-59996D01*
X23320Y-59996D01*
X23570Y-59996D01*
X23616Y-59977D01*
X23651Y-59942D01*
X23670Y-59896D01*
X23670Y-64008D01*
X23430Y-64008D01*
X23400Y-63933D01*
X23280Y-63813D01*
X23124Y-63748D01*
X22955Y-63748D01*
X22799Y-63812D01*
X22679Y-63932D01*
X22614Y-64088D01*
X22614Y-64257D01*
X22678Y-64413D01*
X22798Y-64533D01*
X22954Y-64598D01*
X23123Y-64598D01*
X23279Y-64534D01*
X23399Y-64414D01*
X23430Y-64338D01*
X24536Y-64338D01*
X24536Y-64498D01*
X24555Y-64544D01*
X24590Y-64579D01*
X24636Y-64598D01*
X24686Y-64598D01*
X25286Y-64598D01*
X25332Y-64579D01*
X25367Y-64544D01*
X25386Y-64498D01*
X25386Y-69655D01*
X25377Y-69634D01*
X25257Y-69514D01*
X25101Y-69449D01*
X24932Y-69449D01*
X24776Y-69513D01*
X24673Y-69616D01*
X24673Y-65620D01*
X24768Y-65524D01*
X24842Y-65555D01*
X24961Y-65555D01*
X25071Y-65510D01*
X25155Y-65426D01*
X25201Y-65316D01*
X25201Y-65197D01*
X25156Y-65087D01*
X25072Y-65003D01*
X24962Y-64957D01*
X24843Y-64957D01*
X24733Y-65002D01*
X24649Y-65086D01*
X24646Y-65091D01*
X21723Y-65091D01*
X21425Y-64793D01*
X21425Y-54596D01*
X23539Y-52481D01*
X23541Y-52480D01*
X23542Y-52480D01*
X23576Y-52426D01*
X23577Y-52426D01*
X23587Y-52374D01*
X23590Y-52364D01*
X23589Y-52363D01*
X23590Y-52363D01*
X23590Y-49311D01*
X23577Y-49248D01*
X23542Y-49194D01*
X22972Y-48624D01*
X22972Y-48621D01*
X22908Y-48465D01*
X22788Y-48345D01*
X22632Y-48280D01*
X22463Y-48280D01*
X22307Y-48344D01*
X22187Y-48464D01*
X22185Y-48468D01*
X22185Y-46388D01*
X22185Y-46338D01*
X22185Y-45738D01*
X22166Y-45692D01*
X22131Y-45657D01*
X22085Y-45638D01*
X22035Y-45638D01*
X21610Y-45638D01*
X21610Y-43478D01*
X21610Y-43393D01*
X21610Y-43183D01*
X21610Y-43098D01*
X21599Y-43070D01*
X21577Y-43049D01*
X21550Y-43038D01*
X21520Y-43038D01*
X21415Y-43038D01*
X21397Y-43056D01*
X21397Y-43201D01*
X21592Y-43201D01*
X21610Y-43183D01*
X21610Y-43393D01*
X21592Y-43375D01*
X21397Y-43375D01*
X21397Y-43520D01*
X21415Y-43538D01*
X21520Y-43538D01*
X21550Y-43538D01*
X21577Y-43527D01*
X21599Y-43506D01*
X21610Y-43478D01*
X21610Y-45638D01*
X21435Y-45638D01*
X21389Y-45657D01*
X21354Y-45692D01*
X21335Y-45738D01*
X21335Y-45788D01*
X21335Y-46388D01*
X21354Y-46434D01*
X21389Y-46469D01*
X21435Y-46488D01*
X21485Y-46488D01*
X22085Y-46488D01*
X22131Y-46469D01*
X22166Y-46434D01*
X22185Y-46388D01*
X22185Y-48468D01*
X22122Y-48620D01*
X22122Y-48789D01*
X22186Y-48945D01*
X22306Y-49065D01*
X22462Y-49130D01*
X22631Y-49130D01*
X22787Y-49066D01*
X22866Y-48986D01*
X23260Y-49380D01*
X23260Y-52294D01*
X22972Y-52582D01*
X22972Y-51030D01*
X22972Y-50980D01*
X22972Y-50380D01*
X22953Y-50334D01*
X22918Y-50299D01*
X22872Y-50280D01*
X22822Y-50280D01*
X22222Y-50280D01*
X22176Y-50299D01*
X22141Y-50334D01*
X22122Y-50380D01*
X22122Y-50430D01*
X22122Y-51030D01*
X22141Y-51076D01*
X22176Y-51111D01*
X22222Y-51130D01*
X22272Y-51130D01*
X22872Y-51130D01*
X22918Y-51111D01*
X22953Y-51076D01*
X22972Y-51030D01*
X22972Y-52582D01*
X21915Y-53639D01*
X21915Y-50639D01*
X21913Y-50625D01*
X21881Y-50583D01*
X21759Y-50705D01*
X21881Y-50827D01*
X21913Y-50785D01*
X21915Y-50639D01*
X21915Y-53639D01*
X21669Y-53885D01*
X21669Y-51039D01*
X21669Y-50371D01*
X21627Y-50339D01*
X21481Y-50337D01*
X21467Y-50339D01*
X21425Y-50371D01*
X21547Y-50493D01*
X21669Y-50371D01*
X21669Y-51039D01*
X21547Y-50917D01*
X21425Y-51039D01*
X21467Y-51071D01*
X21613Y-51073D01*
X21627Y-51071D01*
X21669Y-51039D01*
X21669Y-53885D01*
X21335Y-54219D01*
X21335Y-50705D01*
X21213Y-50583D01*
X21181Y-50625D01*
X21179Y-50771D01*
X21181Y-50785D01*
X21213Y-50827D01*
X21335Y-50705D01*
X21335Y-54219D01*
X21143Y-54411D01*
X21108Y-54465D01*
X21095Y-54528D01*
X21095Y-64862D01*
X21108Y-64925D01*
X21143Y-64979D01*
X21537Y-65373D01*
X21591Y-65408D01*
X21654Y-65421D01*
X24404Y-65421D01*
X24391Y-65434D01*
X24356Y-65488D01*
X24343Y-65551D01*
X24343Y-67906D01*
X24312Y-67875D01*
X24266Y-67856D01*
X24241Y-67856D01*
X24241Y-67717D01*
X24224Y-67631D01*
X24223Y-67630D01*
X24207Y-67606D01*
X24175Y-67558D01*
X24175Y-67557D01*
X23879Y-67262D01*
X23806Y-67213D01*
X23720Y-67196D01*
X22540Y-67196D01*
X22454Y-67213D01*
X22442Y-67221D01*
X22382Y-67221D01*
X22272Y-67266D01*
X22188Y-67350D01*
X22142Y-67460D01*
X22142Y-67579D01*
X22187Y-67689D01*
X22271Y-67773D01*
X22381Y-67819D01*
X22500Y-67819D01*
X22610Y-67774D01*
X22694Y-67690D01*
X22712Y-67646D01*
X23626Y-67646D01*
X23791Y-67810D01*
X23791Y-67856D01*
X23766Y-67856D01*
X23720Y-67875D01*
X23685Y-67910D01*
X23666Y-67956D01*
X23666Y-68006D01*
X23666Y-68256D01*
X23685Y-68302D01*
X23720Y-68337D01*
X23766Y-68356D01*
X23816Y-68356D01*
X24266Y-68356D01*
X24312Y-68337D01*
X24343Y-68306D01*
X24343Y-68506D01*
X24312Y-68475D01*
X24266Y-68456D01*
X24216Y-68456D01*
X23766Y-68456D01*
X23720Y-68475D01*
X23685Y-68510D01*
X23672Y-68541D01*
X22908Y-68541D01*
X21031Y-66663D01*
X21031Y-50455D01*
X21387Y-50098D01*
X21462Y-50130D01*
X21631Y-50130D01*
X21787Y-50066D01*
X21907Y-49946D01*
X21972Y-49790D01*
X21972Y-49621D01*
X21908Y-49465D01*
X21821Y-49378D01*
X21986Y-49378D01*
X22153Y-49544D01*
X22122Y-49620D01*
X22122Y-49789D01*
X22186Y-49945D01*
X22306Y-50065D01*
X22462Y-50130D01*
X22631Y-50130D01*
X22787Y-50066D01*
X22907Y-49946D01*
X22972Y-49790D01*
X22972Y-49621D01*
X22908Y-49465D01*
X22788Y-49345D01*
X22632Y-49280D01*
X22463Y-49280D01*
X22386Y-49311D01*
X22172Y-49096D01*
X22118Y-49061D01*
X22055Y-49048D01*
X21805Y-49048D01*
X21907Y-48946D01*
X21972Y-48790D01*
X21972Y-48621D01*
X21908Y-48465D01*
X21788Y-48345D01*
X21632Y-48280D01*
X21463Y-48280D01*
X21307Y-48344D01*
X21187Y-48464D01*
X21128Y-48605D01*
X21128Y-45997D01*
X21126Y-45983D01*
X21123Y-45979D01*
X21123Y-43520D01*
X21123Y-43375D01*
X21123Y-43201D01*
X21123Y-43056D01*
X21105Y-43038D01*
X21000Y-43038D01*
X20970Y-43038D01*
X20943Y-43049D01*
X20921Y-43070D01*
X20910Y-43098D01*
X20910Y-43183D01*
X20928Y-43201D01*
X21123Y-43201D01*
X21123Y-43375D01*
X20928Y-43375D01*
X20910Y-43393D01*
X20910Y-43478D01*
X20921Y-43506D01*
X20943Y-43527D01*
X20970Y-43538D01*
X21000Y-43538D01*
X21105Y-43538D01*
X21123Y-43520D01*
X21123Y-45979D01*
X21094Y-45941D01*
X20972Y-46063D01*
X21094Y-46185D01*
X21126Y-46143D01*
X21128Y-45997D01*
X21128Y-48605D01*
X21122Y-48620D01*
X21122Y-48789D01*
X21186Y-48945D01*
X21289Y-49048D01*
X21161Y-49048D01*
X21098Y-49061D01*
X21044Y-49096D01*
X21042Y-49098D01*
X20882Y-49258D01*
X20882Y-46397D01*
X20882Y-45729D01*
X20840Y-45697D01*
X20694Y-45695D01*
X20680Y-45697D01*
X20638Y-45729D01*
X20760Y-45851D01*
X20882Y-45729D01*
X20882Y-46397D01*
X20760Y-46275D01*
X20638Y-46397D01*
X20680Y-46429D01*
X20826Y-46431D01*
X20840Y-46429D01*
X20882Y-46397D01*
X20882Y-49258D01*
X20548Y-49592D01*
X20548Y-46063D01*
X20426Y-45941D01*
X20394Y-45983D01*
X20392Y-46129D01*
X20394Y-46143D01*
X20426Y-46185D01*
X20548Y-46063D01*
X20548Y-49592D01*
X20355Y-49785D01*
X20320Y-49839D01*
X20307Y-49902D01*
X20307Y-70669D01*
X20320Y-70732D01*
X20355Y-70786D01*
X21729Y-72160D01*
X21783Y-72195D01*
X21846Y-72208D01*
X23672Y-72208D01*
X23685Y-72239D01*
X23720Y-72274D01*
X23766Y-72293D01*
X23816Y-72293D01*
X24266Y-72293D01*
X24312Y-72274D01*
X24347Y-72239D01*
X24366Y-72193D01*
X24366Y-72143D01*
X24366Y-71893D01*
X24347Y-71847D01*
X24312Y-71812D01*
X24266Y-71793D01*
X24216Y-71793D01*
X24181Y-71793D01*
X24181Y-71265D01*
X24256Y-71235D01*
X24376Y-71115D01*
X24441Y-70959D01*
X24441Y-70790D01*
X24377Y-70634D01*
X24257Y-70514D01*
X24101Y-70449D01*
X23932Y-70449D01*
X23776Y-70513D01*
X23656Y-70633D01*
X23591Y-70789D01*
X23591Y-70958D01*
X23655Y-71114D01*
X23775Y-71234D01*
X23851Y-71265D01*
X23851Y-71793D01*
X23766Y-71793D01*
X23720Y-71812D01*
X23685Y-71847D01*
X23672Y-71878D01*
X23441Y-71878D01*
X23441Y-71199D01*
X23441Y-71149D01*
X23441Y-70549D01*
X23422Y-70503D01*
X23387Y-70468D01*
X23384Y-70466D01*
X23384Y-69808D01*
X23382Y-69794D01*
X23350Y-69752D01*
X23228Y-69874D01*
X23350Y-69996D01*
X23382Y-69954D01*
X23384Y-69808D01*
X23384Y-70466D01*
X23341Y-70449D01*
X23291Y-70449D01*
X23138Y-70449D01*
X23138Y-70208D01*
X23138Y-69540D01*
X23096Y-69508D01*
X22950Y-69506D01*
X22936Y-69508D01*
X22894Y-69540D01*
X23016Y-69662D01*
X23138Y-69540D01*
X23138Y-70208D01*
X23016Y-70086D01*
X22894Y-70208D01*
X22936Y-70240D01*
X23082Y-70242D01*
X23096Y-70240D01*
X23138Y-70208D01*
X23138Y-70449D01*
X22804Y-70449D01*
X22804Y-69874D01*
X22682Y-69752D01*
X22650Y-69794D01*
X22648Y-69940D01*
X22650Y-69954D01*
X22682Y-69996D01*
X22804Y-69874D01*
X22804Y-70449D01*
X22691Y-70449D01*
X22645Y-70468D01*
X22610Y-70503D01*
X22591Y-70549D01*
X22591Y-70599D01*
X22591Y-71199D01*
X22610Y-71245D01*
X22645Y-71280D01*
X22691Y-71299D01*
X22741Y-71299D01*
X23341Y-71299D01*
X23387Y-71280D01*
X23422Y-71245D01*
X23441Y-71199D01*
X23441Y-71878D01*
X21915Y-71878D01*
X20637Y-70600D01*
X20637Y-49970D01*
X21229Y-49378D01*
X21273Y-49378D01*
X21187Y-49464D01*
X21122Y-49620D01*
X21122Y-49789D01*
X21153Y-49864D01*
X20749Y-50269D01*
X20714Y-50323D01*
X20701Y-50386D01*
X20701Y-66732D01*
X20714Y-66795D01*
X20749Y-66849D01*
X22721Y-68820D01*
X22723Y-68823D01*
X22777Y-68858D01*
X22840Y-68871D01*
X23672Y-68871D01*
X23685Y-68902D01*
X23720Y-68937D01*
X23766Y-68956D01*
X23816Y-68956D01*
X23851Y-68956D01*
X23851Y-69482D01*
X23776Y-69513D01*
X23656Y-69633D01*
X23591Y-69789D01*
X23591Y-69958D01*
X23655Y-70114D01*
X23775Y-70234D01*
X23931Y-70299D01*
X24100Y-70299D01*
X24256Y-70235D01*
X24343Y-70148D01*
X24343Y-70374D01*
X24356Y-70437D01*
X24391Y-70491D01*
X24619Y-70719D01*
X24591Y-70789D01*
X24591Y-70958D01*
X24655Y-71114D01*
X24775Y-71234D01*
X24931Y-71299D01*
X25100Y-71299D01*
X25256Y-71235D01*
X25376Y-71115D01*
X25441Y-70959D01*
X25441Y-71878D01*
X24901Y-72418D01*
X24318Y-72418D01*
X24312Y-72412D01*
X24266Y-72393D01*
X24216Y-72393D01*
X23766Y-72393D01*
X23720Y-72412D01*
X23685Y-72447D01*
X23676Y-72468D01*
X21338Y-72468D01*
X20254Y-71384D01*
X20254Y-48378D01*
X20332Y-48300D01*
X20378Y-48190D01*
X20378Y-48071D01*
X20333Y-47961D01*
X20249Y-47877D01*
X20139Y-47831D01*
X20020Y-47831D01*
X19910Y-47876D01*
X19885Y-47901D01*
X19885Y-39570D01*
X29521Y-39570D01*
X29497Y-39580D01*
X29462Y-39615D01*
X29443Y-39661D01*
X29443Y-39711D01*
X29443Y-39736D01*
X28543Y-39736D01*
X28249Y-39736D01*
X28221Y-39708D01*
X28111Y-39662D01*
X27992Y-39662D01*
X27882Y-39707D01*
X27853Y-39736D01*
X27547Y-39736D01*
X27546Y-39733D01*
X27511Y-39698D01*
X27465Y-39679D01*
X27415Y-39679D01*
X26865Y-39679D01*
X26819Y-39698D01*
X26784Y-39733D01*
X26775Y-39754D01*
X23604Y-39754D01*
X23518Y-39771D01*
X23445Y-39820D01*
X23444Y-39820D01*
X23444Y-39821D01*
X23088Y-40177D01*
X23039Y-40250D01*
X23022Y-40336D01*
X23022Y-40358D01*
X23001Y-40367D01*
X22966Y-40402D01*
X22947Y-40448D01*
X22947Y-40498D01*
X22947Y-40730D01*
X22661Y-41016D01*
X22612Y-41089D01*
X22595Y-41175D01*
X22595Y-41639D01*
X22534Y-41665D01*
X22392Y-41807D01*
X22315Y-41992D01*
X22315Y-42193D01*
X22315Y-42275D01*
X21624Y-42275D01*
X21606Y-42257D01*
X21560Y-42238D01*
X21510Y-42238D01*
X21485Y-42238D01*
X21485Y-41339D01*
X21468Y-41253D01*
X21419Y-41180D01*
X20919Y-40680D01*
X20846Y-40631D01*
X20760Y-40614D01*
X20472Y-40614D01*
X20386Y-40631D01*
X20313Y-40680D01*
X20264Y-40753D01*
X20247Y-40839D01*
X20264Y-40925D01*
X20313Y-40998D01*
X20386Y-41047D01*
X20472Y-41064D01*
X20667Y-41064D01*
X21035Y-41432D01*
X21035Y-42238D01*
X20960Y-42238D01*
X20914Y-42257D01*
X20879Y-42292D01*
X20860Y-42338D01*
X20860Y-42388D01*
X20860Y-42738D01*
X20879Y-42784D01*
X20914Y-42819D01*
X20960Y-42838D01*
X21010Y-42838D01*
X21560Y-42838D01*
X21606Y-42819D01*
X21641Y-42784D01*
X21660Y-42738D01*
X21660Y-42725D01*
X22315Y-42725D01*
X22315Y-43007D01*
X22392Y-43193D01*
X22534Y-43335D01*
X22719Y-43412D01*
X22920Y-43412D01*
X23106Y-43335D01*
X23248Y-43193D01*
X23325Y-43008D01*
X23325Y-42807D01*
X23325Y-41993D01*
X23248Y-41807D01*
X23106Y-41665D01*
X23045Y-41639D01*
X23045Y-41268D01*
X23165Y-41148D01*
X23447Y-41148D01*
X23493Y-41129D01*
X23528Y-41094D01*
X23547Y-41048D01*
X23547Y-40998D01*
X23547Y-40448D01*
X23528Y-40402D01*
X23513Y-40387D01*
X23697Y-40204D01*
X26775Y-40204D01*
X26784Y-40225D01*
X26819Y-40260D01*
X26865Y-40279D01*
X26915Y-40279D01*
X27465Y-40279D01*
X27511Y-40260D01*
X27546Y-40225D01*
X27562Y-40186D01*
X27853Y-40186D01*
X27881Y-40214D01*
X27991Y-40260D01*
X28110Y-40260D01*
X28220Y-40215D01*
X28249Y-40186D01*
X28417Y-40186D01*
X28417Y-40198D01*
X28392Y-40198D01*
X28346Y-40217D01*
X28311Y-40252D01*
X28292Y-40298D01*
X28292Y-40348D01*
X28292Y-40598D01*
X28311Y-40644D01*
X28346Y-40679D01*
X28392Y-40698D01*
X28442Y-40698D01*
X28892Y-40698D01*
X28938Y-40679D01*
X28973Y-40644D01*
X28992Y-40598D01*
X28992Y-40548D01*
X28992Y-40298D01*
X28973Y-40252D01*
X28938Y-40217D01*
X28892Y-40198D01*
X28867Y-40198D01*
X28867Y-40186D01*
X29443Y-40186D01*
X29443Y-40261D01*
X29462Y-40307D01*
X29497Y-40342D01*
X29543Y-40361D01*
X29593Y-40361D01*
X29943Y-40361D01*
X29989Y-40342D01*
X30024Y-40307D01*
X30043Y-40261D01*
X30043Y-40211D01*
X30043Y-39661D01*
X30024Y-39615D01*
X29989Y-39580D01*
X29964Y-39570D01*
X32279Y-39570D01*
X32185Y-39609D01*
X32037Y-39756D01*
X31957Y-39949D01*
X31957Y-40158D01*
X32037Y-40351D01*
X32184Y-40499D01*
X32377Y-40579D01*
X32586Y-40579D01*
X32718Y-40524D01*
X33009Y-40815D01*
X32691Y-40815D01*
X32385Y-40942D01*
X32150Y-41176D01*
X32023Y-41482D01*
X32023Y-41813D01*
X32150Y-42119D01*
X32384Y-42354D01*
X32690Y-42481D01*
X33021Y-42481D01*
X33327Y-42354D01*
X33562Y-42120D01*
X33689Y-41814D01*
X33689Y-41483D01*
X33562Y-41177D01*
X33328Y-40942D01*
X33262Y-40915D01*
X33931Y-40915D01*
X34085Y-41068D01*
X34085Y-41200D01*
X34000Y-41200D01*
X33954Y-41219D01*
X33919Y-41254D01*
X33900Y-41300D01*
X33900Y-41350D01*
X33900Y-41600D01*
X33919Y-41646D01*
X33954Y-41681D01*
X34000Y-41700D01*
X34050Y-41700D01*
X34500Y-41700D01*
X34546Y-41681D01*
X34581Y-41646D01*
X34600Y-41600D01*
X34600Y-41550D01*
X34600Y-41300D01*
X34581Y-41254D01*
X34546Y-41219D01*
X34500Y-41200D01*
X34450Y-41200D01*
X34415Y-41200D01*
X34415Y-41000D01*
X34402Y-40937D01*
X34367Y-40883D01*
X34364Y-40881D01*
X34117Y-40633D01*
X34063Y-40598D01*
X34000Y-40585D01*
X33951Y-40585D01*
X33951Y-40145D01*
X33951Y-39963D01*
X33917Y-39906D01*
X33769Y-40054D01*
X33917Y-40202D01*
X33951Y-40145D01*
X33951Y-40585D01*
X33634Y-40585D01*
X33634Y-40485D01*
X33634Y-39623D01*
X33577Y-39589D01*
X33395Y-39589D01*
X33338Y-39623D01*
X33486Y-39771D01*
X33634Y-39623D01*
X33634Y-40485D01*
X33486Y-40337D01*
X33338Y-40485D01*
X33395Y-40519D01*
X33577Y-40519D01*
X33634Y-40485D01*
X33634Y-40585D01*
X33246Y-40585D01*
X33203Y-40541D01*
X33203Y-40054D01*
X33055Y-39906D01*
X33021Y-39963D01*
X33021Y-40145D01*
X33055Y-40202D01*
X33203Y-40054D01*
X33203Y-40541D01*
X32952Y-40290D01*
X33007Y-40159D01*
X33007Y-39950D01*
X32927Y-39757D01*
X32780Y-39609D01*
X32685Y-39570D01*
X37515Y-39570D01*
X37421Y-39609D01*
X37273Y-39756D01*
X37193Y-39949D01*
X37193Y-40158D01*
X37247Y-40290D01*
X37179Y-40358D01*
X37179Y-40145D01*
X37179Y-39963D01*
X37145Y-39906D01*
X36997Y-40054D01*
X37145Y-40202D01*
X37179Y-40145D01*
X37179Y-40358D01*
X36953Y-40585D01*
X36862Y-40585D01*
X36862Y-40485D01*
X36862Y-39623D01*
X36805Y-39589D01*
X36623Y-39589D01*
X36566Y-39623D01*
X36714Y-39771D01*
X36862Y-39623D01*
X36862Y-40485D01*
X36714Y-40337D01*
X36566Y-40485D01*
X36623Y-40519D01*
X36805Y-40519D01*
X36862Y-40485D01*
X36862Y-40585D01*
X36500Y-40585D01*
X36437Y-40598D01*
X36431Y-40601D01*
X36431Y-40054D01*
X36283Y-39906D01*
X36249Y-39963D01*
X36249Y-40145D01*
X36283Y-40202D01*
X36431Y-40054D01*
X36431Y-40601D01*
X36383Y-40633D01*
X35883Y-41133D01*
X35848Y-41187D01*
X35845Y-41200D01*
X35750Y-41200D01*
X35704Y-41219D01*
X35669Y-41254D01*
X35650Y-41300D01*
X35650Y-41350D01*
X35650Y-41600D01*
X35669Y-41646D01*
X35704Y-41681D01*
X35750Y-41700D01*
X35800Y-41700D01*
X36250Y-41700D01*
X36296Y-41681D01*
X36331Y-41646D01*
X36350Y-41600D01*
X36350Y-41550D01*
X36350Y-41300D01*
X36331Y-41254D01*
X36296Y-41219D01*
X36274Y-41209D01*
X36569Y-40915D01*
X36892Y-40915D01*
X36873Y-40923D01*
X36638Y-41157D01*
X36511Y-41463D01*
X36511Y-41794D01*
X36638Y-42100D01*
X36872Y-42335D01*
X37178Y-42462D01*
X37509Y-42462D01*
X37815Y-42335D01*
X38050Y-42101D01*
X38177Y-41795D01*
X38177Y-41464D01*
X38050Y-41158D01*
X37816Y-40923D01*
X37510Y-40796D01*
X37209Y-40796D01*
X37481Y-40524D01*
X37613Y-40579D01*
X37822Y-40579D01*
X38015Y-40499D01*
X38163Y-40352D01*
X38243Y-40159D01*
X38243Y-39950D01*
X38163Y-39757D01*
X38016Y-39609D01*
X37921Y-39570D01*
X39170Y-39570D01*
X39170Y-45747D01*
X39165Y-45744D01*
X39165Y-45000D01*
X39165Y-44800D01*
X39152Y-44737D01*
X39117Y-44683D01*
X38678Y-44244D01*
X38678Y-42715D01*
X38672Y-42681D01*
X38631Y-42609D01*
X38430Y-42810D01*
X38631Y-43011D01*
X38672Y-42939D01*
X38678Y-42715D01*
X38678Y-44244D01*
X38313Y-43879D01*
X38313Y-43329D01*
X38313Y-42291D01*
X38241Y-42250D01*
X38017Y-42244D01*
X37983Y-42250D01*
X37911Y-42291D01*
X38112Y-42492D01*
X38313Y-42291D01*
X38313Y-43329D01*
X38112Y-43128D01*
X37911Y-43329D01*
X37983Y-43370D01*
X38207Y-43376D01*
X38241Y-43370D01*
X38313Y-43329D01*
X38313Y-43879D01*
X37794Y-43360D01*
X37794Y-42810D01*
X37593Y-42609D01*
X37552Y-42681D01*
X37546Y-42905D01*
X37552Y-42939D01*
X37593Y-43011D01*
X37794Y-42810D01*
X37794Y-43360D01*
X36367Y-41933D01*
X36350Y-41921D01*
X36350Y-41900D01*
X36331Y-41854D01*
X36296Y-41819D01*
X36250Y-41800D01*
X36200Y-41800D01*
X35750Y-41800D01*
X35704Y-41819D01*
X35669Y-41854D01*
X35650Y-41900D01*
X35650Y-41950D01*
X35650Y-42200D01*
X35669Y-42246D01*
X35704Y-42281D01*
X35750Y-42300D01*
X35800Y-42300D01*
X36250Y-42300D01*
X36261Y-42295D01*
X36651Y-42685D01*
X34768Y-42685D01*
X34415Y-42331D01*
X34415Y-42300D01*
X34500Y-42300D01*
X34546Y-42281D01*
X34581Y-42246D01*
X34600Y-42200D01*
X34600Y-42150D01*
X34600Y-41900D01*
X34581Y-41854D01*
X34546Y-41819D01*
X34500Y-41800D01*
X34450Y-41800D01*
X34000Y-41800D01*
X33954Y-41819D01*
X33919Y-41854D01*
X33900Y-41900D01*
X33900Y-41950D01*
X33900Y-42200D01*
X33919Y-42246D01*
X33954Y-42281D01*
X34000Y-42300D01*
X34050Y-42300D01*
X34085Y-42300D01*
X34085Y-42400D01*
X34098Y-42463D01*
X34133Y-42517D01*
X34581Y-42964D01*
X34583Y-42967D01*
X34637Y-43002D01*
X34700Y-43015D01*
X36631Y-43015D01*
X38435Y-44819D01*
X38435Y-44894D01*
X38431Y-44896D01*
X38347Y-44980D01*
X38301Y-45090D01*
X38301Y-45209D01*
X38346Y-45319D01*
X38430Y-45403D01*
X38540Y-45449D01*
X38659Y-45449D01*
X38769Y-45404D01*
X38835Y-45338D01*
X38835Y-45744D01*
X38831Y-45746D01*
X38747Y-45830D01*
X38701Y-45940D01*
X38701Y-46059D01*
X38746Y-46169D01*
X38830Y-46253D01*
X38940Y-46299D01*
X39059Y-46299D01*
X39169Y-46254D01*
X39170Y-46253D01*
X39170Y-73028D01*
M02*
