G04 (created by PCBNEW (2011-nov-30)-testing) date ven. 21 sept. 2012 14:12:35 CEST*
%MOIN*%
G04 Gerber Fmt 3.4, Leading zero omitted, Abs format*
%FSLAX34Y34*%
G01*
G70*
G90*
G04 APERTURE LIST*
%ADD10C,0.006*%
%ADD11C,0.015*%
%ADD12C,0.005*%
%ADD13C,0.012*%
%ADD14C,0.008*%
%ADD15C,0.01*%
%ADD16C,0.0045*%
G04 APERTURE END LIST*
G54D10*
G54D11*
X39400Y-39925D02*
X39400Y-72600D01*
X19700Y-39375D02*
X19700Y-39400D01*
X41300Y-39375D02*
X19700Y-39375D01*
X41300Y-73225D02*
X41300Y-39375D01*
X39375Y-73225D02*
X41300Y-73225D01*
G54D12*
X32284Y-56201D02*
G75*
G03X32284Y-56201I-99J0D01*
G74*
G01*
G54D11*
X19685Y-73228D02*
X19685Y-39370D01*
X39370Y-73228D02*
X19685Y-73228D01*
G54D12*
X23022Y-40448D02*
G75*
G03X23022Y-40448I-50J0D01*
G74*
G01*
X23422Y-40448D02*
X23022Y-40448D01*
X23022Y-40448D02*
X23022Y-41048D01*
X23022Y-41048D02*
X23422Y-41048D01*
X23822Y-41048D02*
X24222Y-41048D01*
X24222Y-41048D02*
X24222Y-40448D01*
X24222Y-40448D02*
X23822Y-40448D01*
X21610Y-42263D02*
G75*
G03X21610Y-42263I-50J0D01*
G74*
G01*
X21560Y-42713D02*
X21560Y-42313D01*
X21560Y-42313D02*
X20960Y-42313D01*
X20960Y-42313D02*
X20960Y-42713D01*
X20960Y-43113D02*
X20960Y-43513D01*
X20960Y-43513D02*
X21560Y-43513D01*
X21560Y-43513D02*
X21560Y-43113D01*
X32830Y-54074D02*
G75*
G03X32830Y-54074I-50J0D01*
G74*
G01*
X32780Y-54524D02*
X32780Y-54124D01*
X32780Y-54124D02*
X32180Y-54124D01*
X32180Y-54124D02*
X32180Y-54524D01*
X32180Y-54924D02*
X32180Y-55324D01*
X32180Y-55324D02*
X32780Y-55324D01*
X32780Y-55324D02*
X32780Y-54924D01*
X28696Y-51220D02*
G75*
G03X28696Y-51220I-50J0D01*
G74*
G01*
X28646Y-51670D02*
X28646Y-51270D01*
X28646Y-51270D02*
X28046Y-51270D01*
X28046Y-51270D02*
X28046Y-51670D01*
X28046Y-52070D02*
X28046Y-52470D01*
X28046Y-52470D02*
X28646Y-52470D01*
X28646Y-52470D02*
X28646Y-52070D01*
X27515Y-39704D02*
G75*
G03X27515Y-39704I-50J0D01*
G74*
G01*
X27465Y-40154D02*
X27465Y-39754D01*
X27465Y-39754D02*
X26865Y-39754D01*
X26865Y-39754D02*
X26865Y-40154D01*
X26865Y-40554D02*
X26865Y-40954D01*
X26865Y-40954D02*
X27465Y-40954D01*
X27465Y-40954D02*
X27465Y-40554D01*
X29518Y-39661D02*
G75*
G03X29518Y-39661I-50J0D01*
G74*
G01*
X29918Y-39661D02*
X29518Y-39661D01*
X29518Y-39661D02*
X29518Y-40261D01*
X29518Y-40261D02*
X29918Y-40261D01*
X30318Y-40261D02*
X30718Y-40261D01*
X30718Y-40261D02*
X30718Y-39661D01*
X30718Y-39661D02*
X30318Y-39661D01*
X29967Y-48583D02*
G75*
G03X29967Y-48583I-50J0D01*
G74*
G01*
X29917Y-48133D02*
X29917Y-48533D01*
X29917Y-48533D02*
X30517Y-48533D01*
X30517Y-48533D02*
X30517Y-48133D01*
X30517Y-47733D02*
X30517Y-47333D01*
X30517Y-47333D02*
X29917Y-47333D01*
X29917Y-47333D02*
X29917Y-47733D01*
X24266Y-72793D02*
X24266Y-71893D01*
X24266Y-71893D02*
X23766Y-71893D01*
X23766Y-71893D02*
X23766Y-72793D01*
X23766Y-72793D02*
X24266Y-72793D01*
X36069Y-60180D02*
X36069Y-61080D01*
X36069Y-61080D02*
X36569Y-61080D01*
X36569Y-61080D02*
X36569Y-60180D01*
X36569Y-60180D02*
X36069Y-60180D01*
X30652Y-49758D02*
X31552Y-49758D01*
X31552Y-49758D02*
X31552Y-49258D01*
X31552Y-49258D02*
X30652Y-49258D01*
X30652Y-49258D02*
X30652Y-49758D01*
X23766Y-67956D02*
X23766Y-68856D01*
X23766Y-68856D02*
X24266Y-68856D01*
X24266Y-68856D02*
X24266Y-67956D01*
X24266Y-67956D02*
X23766Y-67956D01*
X29274Y-42081D02*
X30174Y-42081D01*
X30174Y-42081D02*
X30174Y-41581D01*
X30174Y-41581D02*
X29274Y-41581D01*
X29274Y-41581D02*
X29274Y-42081D01*
X28392Y-40298D02*
X28392Y-41198D01*
X28392Y-41198D02*
X28892Y-41198D01*
X28892Y-41198D02*
X28892Y-40298D01*
X28892Y-40298D02*
X28392Y-40298D01*
X31352Y-43068D02*
X31352Y-42168D01*
X31352Y-42168D02*
X30852Y-42168D01*
X30852Y-42168D02*
X30852Y-43068D01*
X30852Y-43068D02*
X31352Y-43068D01*
X36395Y-63805D02*
X35495Y-63805D01*
X35495Y-63805D02*
X35495Y-64305D01*
X35495Y-64305D02*
X36395Y-64305D01*
X36395Y-64305D02*
X36395Y-63805D01*
X38431Y-54570D02*
X38431Y-55470D01*
X38431Y-55470D02*
X38931Y-55470D01*
X38931Y-55470D02*
X38931Y-54570D01*
X38931Y-54570D02*
X38431Y-54570D01*
X36372Y-55076D02*
X36372Y-54176D01*
X36372Y-54176D02*
X35872Y-54176D01*
X35872Y-54176D02*
X35872Y-55076D01*
X35872Y-55076D02*
X36372Y-55076D01*
X29570Y-43754D02*
X30470Y-43754D01*
X30470Y-43754D02*
X30470Y-43254D01*
X30470Y-43254D02*
X29570Y-43254D01*
X29570Y-43254D02*
X29570Y-43754D01*
X28392Y-62050D02*
X28392Y-62950D01*
X28392Y-62950D02*
X28892Y-62950D01*
X28892Y-62950D02*
X28892Y-62050D01*
X28892Y-62050D02*
X28392Y-62050D01*
X26817Y-59786D02*
X26817Y-60686D01*
X26817Y-60686D02*
X27317Y-60686D01*
X27317Y-60686D02*
X27317Y-59786D01*
X27317Y-59786D02*
X26817Y-59786D01*
X38242Y-47891D02*
X38242Y-46991D01*
X38242Y-46991D02*
X37742Y-46991D01*
X37742Y-46991D02*
X37742Y-47891D01*
X37742Y-47891D02*
X38242Y-47891D01*
X23270Y-59896D02*
X24170Y-59896D01*
X24170Y-59896D02*
X24170Y-59396D01*
X24170Y-59396D02*
X23270Y-59396D01*
X23270Y-59396D02*
X23270Y-59896D01*
G54D13*
X35350Y-46795D02*
X32850Y-46795D01*
X32850Y-46795D02*
X32850Y-53795D01*
X32850Y-53795D02*
X35850Y-53795D01*
X35850Y-53795D02*
X35850Y-46795D01*
X35850Y-46795D02*
X35350Y-46795D01*
X34600Y-53795D02*
X34600Y-53295D01*
X34600Y-53295D02*
X34100Y-53295D01*
X34100Y-53295D02*
X34100Y-53795D01*
G54D14*
X32254Y-57983D02*
X36054Y-57983D01*
X36054Y-57983D02*
X36054Y-56483D01*
X36054Y-56483D02*
X32254Y-56483D01*
X32254Y-56483D02*
X32254Y-57983D01*
X32254Y-57483D02*
X32554Y-57483D01*
X32554Y-57483D02*
X32554Y-57083D01*
X32554Y-57083D02*
X32254Y-57083D01*
X37342Y-49330D02*
X37492Y-49330D01*
X38642Y-49330D02*
X38492Y-49330D01*
X38642Y-53230D02*
X38492Y-53230D01*
X37342Y-53230D02*
X37492Y-53230D01*
X36992Y-53530D02*
X37492Y-53530D01*
X38992Y-53530D02*
X38492Y-53530D01*
X38992Y-49030D02*
X38492Y-49030D01*
X36992Y-49030D02*
X37492Y-49030D01*
X38642Y-49330D02*
X38892Y-49580D01*
X38892Y-49580D02*
X38892Y-52980D01*
X38892Y-52980D02*
X38642Y-53230D01*
X37342Y-53230D02*
X37092Y-52980D01*
X37092Y-52980D02*
X37092Y-49580D01*
X37092Y-49580D02*
X37342Y-49330D01*
X38992Y-53530D02*
X38992Y-49030D01*
X36992Y-49030D02*
X36992Y-53530D01*
G54D12*
X36250Y-42200D02*
X36250Y-41300D01*
X36250Y-41300D02*
X35750Y-41300D01*
X35750Y-41300D02*
X35750Y-42200D01*
X35750Y-42200D02*
X36250Y-42200D01*
X34500Y-42200D02*
X34500Y-41300D01*
X34500Y-41300D02*
X34000Y-41300D01*
X34000Y-41300D02*
X34000Y-42200D01*
X34000Y-42200D02*
X34500Y-42200D01*
G54D15*
X37300Y-69400D02*
X34900Y-69400D01*
X34900Y-69400D02*
X34500Y-69600D01*
X34500Y-69600D02*
X33500Y-69600D01*
X33500Y-69600D02*
X33100Y-69400D01*
X37300Y-69200D02*
X34900Y-69200D01*
X34900Y-69200D02*
X34500Y-69400D01*
X34500Y-69400D02*
X33500Y-69400D01*
X33500Y-69400D02*
X33100Y-69200D01*
X33500Y-69200D02*
X33100Y-69000D01*
X34500Y-69200D02*
X33500Y-69200D01*
X34900Y-69000D02*
X34500Y-69200D01*
X37300Y-69000D02*
X34900Y-69000D01*
X37300Y-69000D02*
X34900Y-69000D01*
X34900Y-69000D02*
X34500Y-69200D01*
X34500Y-69200D02*
X33500Y-69200D01*
X33500Y-69200D02*
X33100Y-69000D01*
X33500Y-69200D02*
X33100Y-69000D01*
X34500Y-69200D02*
X33500Y-69200D01*
X34900Y-69000D02*
X34500Y-69200D01*
X37300Y-69000D02*
X34900Y-69000D01*
X37300Y-69000D02*
X34900Y-69000D01*
X34900Y-69000D02*
X34500Y-69200D01*
X34500Y-69200D02*
X33500Y-69200D01*
X33500Y-69200D02*
X33100Y-69000D01*
X33500Y-69200D02*
X33100Y-69000D01*
X34500Y-69200D02*
X33500Y-69200D01*
X34900Y-69000D02*
X34500Y-69200D01*
X37300Y-69000D02*
X34900Y-69000D01*
X37300Y-69000D02*
X34900Y-69000D01*
X34900Y-69000D02*
X34500Y-69200D01*
X34500Y-69200D02*
X33500Y-69200D01*
X33500Y-69200D02*
X33100Y-69000D01*
X33500Y-69200D02*
X33100Y-69000D01*
X34500Y-69200D02*
X33500Y-69200D01*
X34900Y-69000D02*
X34500Y-69200D01*
X37300Y-69000D02*
X34900Y-69000D01*
X37300Y-69000D02*
X34900Y-69000D01*
X34900Y-69000D02*
X34500Y-69200D01*
X34500Y-69200D02*
X33500Y-69200D01*
X33500Y-69200D02*
X33100Y-69000D01*
X33225Y-68700D02*
X33125Y-68625D01*
X33450Y-68600D02*
X33350Y-68700D01*
X34275Y-68700D02*
X34225Y-68700D01*
X34500Y-68700D02*
X34250Y-68700D01*
X34500Y-68100D02*
X34225Y-68100D01*
X34350Y-68675D02*
X34350Y-68150D01*
X33475Y-68500D02*
X33450Y-68600D01*
X33350Y-68700D02*
X33225Y-68700D01*
X33075Y-68475D02*
X33100Y-68600D01*
X33475Y-68275D02*
X33450Y-68175D01*
X33450Y-68175D02*
X33375Y-68100D01*
X33375Y-68100D02*
X33325Y-68075D01*
X33325Y-68075D02*
X33225Y-68075D01*
X33225Y-68075D02*
X33175Y-68100D01*
X33175Y-68100D02*
X33125Y-68125D01*
X33125Y-68125D02*
X33100Y-68175D01*
X33100Y-68175D02*
X33075Y-68250D01*
X33075Y-68250D02*
X33075Y-68300D01*
X33075Y-68300D02*
X33075Y-68475D01*
X33475Y-68300D02*
X33475Y-68500D01*
X34075Y-68700D02*
X34075Y-68075D01*
X34075Y-68100D02*
X33725Y-68700D01*
X33725Y-68700D02*
X33725Y-68075D01*
X34975Y-68100D02*
X34975Y-68575D01*
X34975Y-68575D02*
X34950Y-68625D01*
X34950Y-68625D02*
X34925Y-68650D01*
X34925Y-68650D02*
X34900Y-68675D01*
X34900Y-68675D02*
X34850Y-68700D01*
X34850Y-68700D02*
X34800Y-68700D01*
X34800Y-68700D02*
X34750Y-68700D01*
X34750Y-68700D02*
X34700Y-68675D01*
X34700Y-68675D02*
X34675Y-68650D01*
X34675Y-68650D02*
X34650Y-68625D01*
X34650Y-68625D02*
X34650Y-68575D01*
X34650Y-68575D02*
X34650Y-68100D01*
X35575Y-68100D02*
X35450Y-68100D01*
X35450Y-68100D02*
X35350Y-68125D01*
X35350Y-68125D02*
X35300Y-68175D01*
X35300Y-68175D02*
X35275Y-68250D01*
X35275Y-68250D02*
X35250Y-68350D01*
X35250Y-68350D02*
X35250Y-68425D01*
X35250Y-68425D02*
X35250Y-68475D01*
X35250Y-68475D02*
X35275Y-68550D01*
X35275Y-68550D02*
X35300Y-68600D01*
X35300Y-68600D02*
X35350Y-68650D01*
X35350Y-68650D02*
X35425Y-68700D01*
X35425Y-68700D02*
X35475Y-68700D01*
X35475Y-68700D02*
X35600Y-68700D01*
X35600Y-68700D02*
X35600Y-68100D01*
X36075Y-68100D02*
X36075Y-68700D01*
X36075Y-68700D02*
X35800Y-68700D01*
X36675Y-68100D02*
X36650Y-68100D01*
X36650Y-68100D02*
X36425Y-68100D01*
X36425Y-68100D02*
X36375Y-68125D01*
X36375Y-68125D02*
X36350Y-68150D01*
X36350Y-68150D02*
X36325Y-68200D01*
X36325Y-68200D02*
X36325Y-68250D01*
X36325Y-68250D02*
X36325Y-68300D01*
X36325Y-68300D02*
X36350Y-68350D01*
X36350Y-68350D02*
X36400Y-68375D01*
X36400Y-68375D02*
X36450Y-68400D01*
X36450Y-68400D02*
X36675Y-68400D01*
X36675Y-68675D02*
X36675Y-68100D01*
X37200Y-68300D02*
X36900Y-68700D01*
X37225Y-68700D02*
X36925Y-68300D01*
G54D10*
X33534Y-41648D02*
G75*
G03X33534Y-41648I-678J0D01*
G74*
G01*
X38022Y-41629D02*
G75*
G03X38022Y-41629I-678J0D01*
G74*
G01*
X38088Y-40054D02*
G75*
G03X38088Y-40054I-370J0D01*
G74*
G01*
X37084Y-40054D02*
G75*
G03X37084Y-40054I-370J0D01*
G74*
G01*
X33856Y-40054D02*
G75*
G03X33856Y-40054I-370J0D01*
G74*
G01*
X32852Y-40054D02*
G75*
G03X32852Y-40054I-370J0D01*
G74*
G01*
X38582Y-42810D02*
G75*
G03X38582Y-42810I-470J0D01*
G74*
G01*
X32519Y-42810D02*
G75*
G03X32519Y-42810I-470J0D01*
G74*
G01*
G54D12*
X23902Y-40235D02*
X23914Y-40247D01*
X23949Y-40259D01*
X23973Y-40259D01*
X24009Y-40247D01*
X24033Y-40223D01*
X24044Y-40200D01*
X24056Y-40152D01*
X24056Y-40116D01*
X24044Y-40069D01*
X24033Y-40045D01*
X24009Y-40021D01*
X23973Y-40009D01*
X23949Y-40009D01*
X23914Y-40021D01*
X23902Y-40033D01*
X23818Y-40009D02*
X23664Y-40009D01*
X23747Y-40104D01*
X23711Y-40104D01*
X23687Y-40116D01*
X23675Y-40128D01*
X23664Y-40152D01*
X23664Y-40212D01*
X23675Y-40235D01*
X23687Y-40247D01*
X23711Y-40259D01*
X23783Y-40259D01*
X23806Y-40247D01*
X23818Y-40235D01*
X23509Y-40009D02*
X23485Y-40009D01*
X23461Y-40021D01*
X23449Y-40033D01*
X23437Y-40057D01*
X23426Y-40104D01*
X23426Y-40164D01*
X23437Y-40212D01*
X23449Y-40235D01*
X23461Y-40247D01*
X23485Y-40259D01*
X23509Y-40259D01*
X23533Y-40247D01*
X23545Y-40235D01*
X23556Y-40212D01*
X23568Y-40164D01*
X23568Y-40104D01*
X23556Y-40057D01*
X23545Y-40033D01*
X23533Y-40021D01*
X23509Y-40009D01*
X23342Y-40009D02*
X23188Y-40009D01*
X23271Y-40104D01*
X23235Y-40104D01*
X23211Y-40116D01*
X23199Y-40128D01*
X23188Y-40152D01*
X23188Y-40212D01*
X23199Y-40235D01*
X23211Y-40247D01*
X23235Y-40259D01*
X23307Y-40259D01*
X23330Y-40247D01*
X23342Y-40235D01*
X20648Y-42633D02*
X20660Y-42621D01*
X20672Y-42586D01*
X20672Y-42562D01*
X20660Y-42526D01*
X20636Y-42502D01*
X20613Y-42491D01*
X20565Y-42479D01*
X20529Y-42479D01*
X20482Y-42491D01*
X20458Y-42502D01*
X20434Y-42526D01*
X20422Y-42562D01*
X20422Y-42586D01*
X20434Y-42621D01*
X20446Y-42633D01*
X20422Y-42717D02*
X20422Y-42871D01*
X20517Y-42788D01*
X20517Y-42824D01*
X20529Y-42848D01*
X20541Y-42860D01*
X20565Y-42871D01*
X20625Y-42871D01*
X20648Y-42860D01*
X20660Y-42848D01*
X20672Y-42824D01*
X20672Y-42752D01*
X20660Y-42729D01*
X20648Y-42717D01*
X20422Y-43026D02*
X20422Y-43050D01*
X20434Y-43074D01*
X20446Y-43086D01*
X20470Y-43098D01*
X20517Y-43109D01*
X20577Y-43109D01*
X20625Y-43098D01*
X20648Y-43086D01*
X20660Y-43074D01*
X20672Y-43050D01*
X20672Y-43026D01*
X20660Y-43002D01*
X20648Y-42990D01*
X20625Y-42979D01*
X20577Y-42967D01*
X20517Y-42967D01*
X20470Y-42979D01*
X20446Y-42990D01*
X20434Y-43002D01*
X20422Y-43026D01*
X20506Y-43324D02*
X20672Y-43324D01*
X20410Y-43264D02*
X20589Y-43205D01*
X20589Y-43359D01*
X31868Y-54444D02*
X31880Y-54432D01*
X31892Y-54397D01*
X31892Y-54373D01*
X31880Y-54337D01*
X31856Y-54313D01*
X31833Y-54302D01*
X31785Y-54290D01*
X31749Y-54290D01*
X31702Y-54302D01*
X31678Y-54313D01*
X31654Y-54337D01*
X31642Y-54373D01*
X31642Y-54397D01*
X31654Y-54432D01*
X31666Y-54444D01*
X31666Y-54540D02*
X31654Y-54552D01*
X31642Y-54575D01*
X31642Y-54635D01*
X31654Y-54659D01*
X31666Y-54671D01*
X31690Y-54682D01*
X31714Y-54682D01*
X31749Y-54671D01*
X31892Y-54528D01*
X31892Y-54682D01*
X31642Y-54837D02*
X31642Y-54861D01*
X31654Y-54885D01*
X31666Y-54897D01*
X31690Y-54909D01*
X31737Y-54920D01*
X31797Y-54920D01*
X31845Y-54909D01*
X31868Y-54897D01*
X31880Y-54885D01*
X31892Y-54861D01*
X31892Y-54837D01*
X31880Y-54813D01*
X31868Y-54801D01*
X31845Y-54790D01*
X31797Y-54778D01*
X31737Y-54778D01*
X31690Y-54790D01*
X31666Y-54801D01*
X31654Y-54813D01*
X31642Y-54837D01*
X31749Y-55063D02*
X31737Y-55039D01*
X31726Y-55028D01*
X31702Y-55016D01*
X31690Y-55016D01*
X31666Y-55028D01*
X31654Y-55039D01*
X31642Y-55063D01*
X31642Y-55111D01*
X31654Y-55135D01*
X31666Y-55147D01*
X31690Y-55158D01*
X31702Y-55158D01*
X31726Y-55147D01*
X31737Y-55135D01*
X31749Y-55111D01*
X31749Y-55063D01*
X31761Y-55039D01*
X31773Y-55028D01*
X31797Y-55016D01*
X31845Y-55016D01*
X31868Y-55028D01*
X31880Y-55039D01*
X31892Y-55063D01*
X31892Y-55111D01*
X31880Y-55135D01*
X31868Y-55147D01*
X31845Y-55158D01*
X31797Y-55158D01*
X31773Y-55147D01*
X31761Y-55135D01*
X31749Y-55111D01*
X27734Y-51590D02*
X27746Y-51578D01*
X27758Y-51543D01*
X27758Y-51519D01*
X27746Y-51483D01*
X27722Y-51459D01*
X27699Y-51448D01*
X27651Y-51436D01*
X27615Y-51436D01*
X27568Y-51448D01*
X27544Y-51459D01*
X27520Y-51483D01*
X27508Y-51519D01*
X27508Y-51543D01*
X27520Y-51578D01*
X27532Y-51590D01*
X27508Y-51674D02*
X27508Y-51828D01*
X27603Y-51745D01*
X27603Y-51781D01*
X27615Y-51805D01*
X27627Y-51817D01*
X27651Y-51828D01*
X27711Y-51828D01*
X27734Y-51817D01*
X27746Y-51805D01*
X27758Y-51781D01*
X27758Y-51709D01*
X27746Y-51686D01*
X27734Y-51674D01*
X27508Y-51983D02*
X27508Y-52007D01*
X27520Y-52031D01*
X27532Y-52043D01*
X27556Y-52055D01*
X27603Y-52066D01*
X27663Y-52066D01*
X27711Y-52055D01*
X27734Y-52043D01*
X27746Y-52031D01*
X27758Y-52007D01*
X27758Y-51983D01*
X27746Y-51959D01*
X27734Y-51947D01*
X27711Y-51936D01*
X27663Y-51924D01*
X27603Y-51924D01*
X27556Y-51936D01*
X27532Y-51947D01*
X27520Y-51959D01*
X27508Y-51983D01*
X27508Y-52150D02*
X27508Y-52316D01*
X27758Y-52209D01*
X26553Y-40074D02*
X26565Y-40062D01*
X26577Y-40027D01*
X26577Y-40003D01*
X26565Y-39967D01*
X26541Y-39943D01*
X26518Y-39932D01*
X26470Y-39920D01*
X26434Y-39920D01*
X26387Y-39932D01*
X26363Y-39943D01*
X26339Y-39967D01*
X26327Y-40003D01*
X26327Y-40027D01*
X26339Y-40062D01*
X26351Y-40074D01*
X26327Y-40158D02*
X26327Y-40312D01*
X26422Y-40229D01*
X26422Y-40265D01*
X26434Y-40289D01*
X26446Y-40301D01*
X26470Y-40312D01*
X26530Y-40312D01*
X26553Y-40301D01*
X26565Y-40289D01*
X26577Y-40265D01*
X26577Y-40193D01*
X26565Y-40170D01*
X26553Y-40158D01*
X26577Y-40550D02*
X26577Y-40408D01*
X26577Y-40479D02*
X26327Y-40479D01*
X26363Y-40455D01*
X26387Y-40431D01*
X26399Y-40408D01*
X26327Y-40705D02*
X26327Y-40729D01*
X26339Y-40753D01*
X26351Y-40765D01*
X26375Y-40777D01*
X26422Y-40788D01*
X26482Y-40788D01*
X26530Y-40777D01*
X26553Y-40765D01*
X26565Y-40753D01*
X26577Y-40729D01*
X26577Y-40705D01*
X26565Y-40681D01*
X26553Y-40669D01*
X26530Y-40658D01*
X26482Y-40646D01*
X26422Y-40646D01*
X26375Y-40658D01*
X26351Y-40669D01*
X26339Y-40681D01*
X26327Y-40705D01*
X30398Y-40628D02*
X30410Y-40640D01*
X30445Y-40652D01*
X30469Y-40652D01*
X30505Y-40640D01*
X30529Y-40616D01*
X30540Y-40593D01*
X30552Y-40545D01*
X30552Y-40509D01*
X30540Y-40462D01*
X30529Y-40438D01*
X30505Y-40414D01*
X30469Y-40402D01*
X30445Y-40402D01*
X30410Y-40414D01*
X30398Y-40426D01*
X30314Y-40402D02*
X30160Y-40402D01*
X30243Y-40497D01*
X30207Y-40497D01*
X30183Y-40509D01*
X30171Y-40521D01*
X30160Y-40545D01*
X30160Y-40605D01*
X30171Y-40628D01*
X30183Y-40640D01*
X30207Y-40652D01*
X30279Y-40652D01*
X30302Y-40640D01*
X30314Y-40628D01*
X29922Y-40652D02*
X30064Y-40652D01*
X29993Y-40652D02*
X29993Y-40402D01*
X30017Y-40438D01*
X30041Y-40462D01*
X30064Y-40474D01*
X29684Y-40652D02*
X29826Y-40652D01*
X29755Y-40652D02*
X29755Y-40402D01*
X29779Y-40438D01*
X29803Y-40462D01*
X29826Y-40474D01*
X30983Y-47653D02*
X30995Y-47641D01*
X31007Y-47606D01*
X31007Y-47582D01*
X30995Y-47546D01*
X30971Y-47522D01*
X30948Y-47511D01*
X30900Y-47499D01*
X30864Y-47499D01*
X30817Y-47511D01*
X30793Y-47522D01*
X30769Y-47546D01*
X30757Y-47582D01*
X30757Y-47606D01*
X30769Y-47641D01*
X30781Y-47653D01*
X30757Y-47737D02*
X30757Y-47891D01*
X30852Y-47808D01*
X30852Y-47844D01*
X30864Y-47868D01*
X30876Y-47880D01*
X30900Y-47891D01*
X30960Y-47891D01*
X30983Y-47880D01*
X30995Y-47868D01*
X31007Y-47844D01*
X31007Y-47772D01*
X30995Y-47749D01*
X30983Y-47737D01*
X31007Y-48129D02*
X31007Y-47987D01*
X31007Y-48058D02*
X30757Y-48058D01*
X30793Y-48034D01*
X30817Y-48010D01*
X30829Y-47987D01*
X30781Y-48225D02*
X30769Y-48237D01*
X30757Y-48260D01*
X30757Y-48320D01*
X30769Y-48344D01*
X30781Y-48356D01*
X30805Y-48367D01*
X30829Y-48367D01*
X30864Y-48356D01*
X31007Y-48213D01*
X31007Y-48367D01*
G54D16*
X24687Y-72143D02*
X24592Y-72083D01*
X24687Y-72040D02*
X24487Y-72040D01*
X24487Y-72108D01*
X24496Y-72126D01*
X24506Y-72134D01*
X24525Y-72143D01*
X24554Y-72143D01*
X24573Y-72134D01*
X24582Y-72126D01*
X24592Y-72108D01*
X24592Y-72040D01*
X24687Y-72314D02*
X24687Y-72211D01*
X24687Y-72263D02*
X24487Y-72263D01*
X24516Y-72246D01*
X24535Y-72228D01*
X24544Y-72211D01*
X24487Y-72425D02*
X24487Y-72442D01*
X24496Y-72459D01*
X24506Y-72468D01*
X24525Y-72477D01*
X24563Y-72485D01*
X24611Y-72485D01*
X24649Y-72477D01*
X24668Y-72468D01*
X24677Y-72459D01*
X24687Y-72442D01*
X24687Y-72425D01*
X24677Y-72408D01*
X24668Y-72399D01*
X24649Y-72391D01*
X24611Y-72382D01*
X24563Y-72382D01*
X24525Y-72391D01*
X24506Y-72399D01*
X24496Y-72408D01*
X24487Y-72425D01*
X24487Y-72639D02*
X24487Y-72605D01*
X24496Y-72588D01*
X24506Y-72579D01*
X24535Y-72562D01*
X24573Y-72553D01*
X24649Y-72553D01*
X24668Y-72562D01*
X24677Y-72570D01*
X24687Y-72588D01*
X24687Y-72622D01*
X24677Y-72639D01*
X24668Y-72648D01*
X24649Y-72656D01*
X24601Y-72656D01*
X24582Y-72648D01*
X24573Y-72639D01*
X24563Y-72622D01*
X24563Y-72588D01*
X24573Y-72570D01*
X24582Y-72562D01*
X24601Y-72553D01*
X36990Y-60430D02*
X36895Y-60370D01*
X36990Y-60327D02*
X36790Y-60327D01*
X36790Y-60395D01*
X36799Y-60413D01*
X36809Y-60421D01*
X36828Y-60430D01*
X36857Y-60430D01*
X36876Y-60421D01*
X36885Y-60413D01*
X36895Y-60395D01*
X36895Y-60327D01*
X36990Y-60601D02*
X36990Y-60498D01*
X36990Y-60550D02*
X36790Y-60550D01*
X36819Y-60533D01*
X36838Y-60515D01*
X36847Y-60498D01*
X36790Y-60712D02*
X36790Y-60729D01*
X36799Y-60746D01*
X36809Y-60755D01*
X36828Y-60764D01*
X36866Y-60772D01*
X36914Y-60772D01*
X36952Y-60764D01*
X36971Y-60755D01*
X36980Y-60746D01*
X36990Y-60729D01*
X36990Y-60712D01*
X36980Y-60695D01*
X36971Y-60686D01*
X36952Y-60678D01*
X36914Y-60669D01*
X36866Y-60669D01*
X36828Y-60678D01*
X36809Y-60686D01*
X36799Y-60695D01*
X36790Y-60712D01*
X36790Y-60832D02*
X36790Y-60943D01*
X36866Y-60883D01*
X36866Y-60909D01*
X36876Y-60926D01*
X36885Y-60935D01*
X36904Y-60943D01*
X36952Y-60943D01*
X36971Y-60935D01*
X36980Y-60926D01*
X36990Y-60909D01*
X36990Y-60857D01*
X36980Y-60840D01*
X36971Y-60832D01*
X31302Y-50179D02*
X31362Y-50084D01*
X31405Y-50179D02*
X31405Y-49979D01*
X31337Y-49979D01*
X31319Y-49988D01*
X31311Y-49998D01*
X31302Y-50017D01*
X31302Y-50046D01*
X31311Y-50065D01*
X31319Y-50074D01*
X31337Y-50084D01*
X31405Y-50084D01*
X31131Y-50179D02*
X31234Y-50179D01*
X31182Y-50179D02*
X31182Y-49979D01*
X31199Y-50008D01*
X31217Y-50027D01*
X31234Y-50036D01*
X31020Y-49979D02*
X31003Y-49979D01*
X30986Y-49988D01*
X30977Y-49998D01*
X30968Y-50017D01*
X30960Y-50055D01*
X30960Y-50103D01*
X30968Y-50141D01*
X30977Y-50160D01*
X30986Y-50169D01*
X31003Y-50179D01*
X31020Y-50179D01*
X31037Y-50169D01*
X31046Y-50160D01*
X31054Y-50141D01*
X31063Y-50103D01*
X31063Y-50055D01*
X31054Y-50017D01*
X31046Y-49998D01*
X31037Y-49988D01*
X31020Y-49979D01*
X30789Y-50179D02*
X30892Y-50179D01*
X30840Y-50179D02*
X30840Y-49979D01*
X30857Y-50008D01*
X30875Y-50027D01*
X30892Y-50036D01*
X24786Y-68206D02*
X24691Y-68146D01*
X24786Y-68103D02*
X24586Y-68103D01*
X24586Y-68171D01*
X24595Y-68189D01*
X24605Y-68197D01*
X24624Y-68206D01*
X24653Y-68206D01*
X24672Y-68197D01*
X24681Y-68189D01*
X24691Y-68171D01*
X24691Y-68103D01*
X24786Y-68377D02*
X24786Y-68274D01*
X24786Y-68326D02*
X24586Y-68326D01*
X24615Y-68309D01*
X24634Y-68291D01*
X24643Y-68274D01*
X24586Y-68488D02*
X24586Y-68505D01*
X24595Y-68522D01*
X24605Y-68531D01*
X24624Y-68540D01*
X24662Y-68548D01*
X24710Y-68548D01*
X24748Y-68540D01*
X24767Y-68531D01*
X24776Y-68522D01*
X24786Y-68505D01*
X24786Y-68488D01*
X24776Y-68471D01*
X24767Y-68462D01*
X24748Y-68454D01*
X24710Y-68445D01*
X24662Y-68445D01*
X24624Y-68454D01*
X24605Y-68462D01*
X24595Y-68471D01*
X24586Y-68488D01*
X24586Y-68711D02*
X24586Y-68625D01*
X24681Y-68616D01*
X24672Y-68625D01*
X24662Y-68642D01*
X24662Y-68685D01*
X24672Y-68702D01*
X24681Y-68711D01*
X24700Y-68719D01*
X24748Y-68719D01*
X24767Y-68711D01*
X24776Y-68702D01*
X24786Y-68685D01*
X24786Y-68642D01*
X24776Y-68625D01*
X24767Y-68616D01*
X29924Y-41420D02*
X29984Y-41325D01*
X30027Y-41420D02*
X30027Y-41220D01*
X29959Y-41220D01*
X29941Y-41229D01*
X29933Y-41239D01*
X29924Y-41258D01*
X29924Y-41287D01*
X29933Y-41306D01*
X29941Y-41315D01*
X29959Y-41325D01*
X30027Y-41325D01*
X29864Y-41220D02*
X29753Y-41220D01*
X29813Y-41296D01*
X29787Y-41296D01*
X29770Y-41306D01*
X29761Y-41315D01*
X29753Y-41334D01*
X29753Y-41382D01*
X29761Y-41401D01*
X29770Y-41410D01*
X29787Y-41420D01*
X29839Y-41420D01*
X29856Y-41410D01*
X29864Y-41401D01*
X29642Y-41220D02*
X29625Y-41220D01*
X29608Y-41229D01*
X29599Y-41239D01*
X29590Y-41258D01*
X29582Y-41296D01*
X29582Y-41344D01*
X29590Y-41382D01*
X29599Y-41401D01*
X29608Y-41410D01*
X29625Y-41420D01*
X29642Y-41420D01*
X29659Y-41410D01*
X29668Y-41401D01*
X29676Y-41382D01*
X29685Y-41344D01*
X29685Y-41296D01*
X29676Y-41258D01*
X29668Y-41239D01*
X29659Y-41229D01*
X29642Y-41220D01*
X29411Y-41420D02*
X29514Y-41420D01*
X29462Y-41420D02*
X29462Y-41220D01*
X29479Y-41249D01*
X29497Y-41268D01*
X29514Y-41277D01*
X28231Y-40548D02*
X28136Y-40488D01*
X28231Y-40445D02*
X28031Y-40445D01*
X28031Y-40513D01*
X28040Y-40531D01*
X28050Y-40539D01*
X28069Y-40548D01*
X28098Y-40548D01*
X28117Y-40539D01*
X28126Y-40531D01*
X28136Y-40513D01*
X28136Y-40445D01*
X28031Y-40608D02*
X28031Y-40719D01*
X28107Y-40659D01*
X28107Y-40685D01*
X28117Y-40702D01*
X28126Y-40711D01*
X28145Y-40719D01*
X28193Y-40719D01*
X28212Y-40711D01*
X28221Y-40702D01*
X28231Y-40685D01*
X28231Y-40633D01*
X28221Y-40616D01*
X28212Y-40608D01*
X28031Y-40830D02*
X28031Y-40847D01*
X28040Y-40864D01*
X28050Y-40873D01*
X28069Y-40882D01*
X28107Y-40890D01*
X28155Y-40890D01*
X28193Y-40882D01*
X28212Y-40873D01*
X28221Y-40864D01*
X28231Y-40847D01*
X28231Y-40830D01*
X28221Y-40813D01*
X28212Y-40804D01*
X28193Y-40796D01*
X28155Y-40787D01*
X28107Y-40787D01*
X28069Y-40796D01*
X28050Y-40804D01*
X28040Y-40813D01*
X28031Y-40830D01*
X28050Y-40958D02*
X28040Y-40967D01*
X28031Y-40984D01*
X28031Y-41027D01*
X28040Y-41044D01*
X28050Y-41053D01*
X28069Y-41061D01*
X28088Y-41061D01*
X28117Y-41053D01*
X28231Y-40950D01*
X28231Y-41061D01*
X30691Y-42418D02*
X30596Y-42358D01*
X30691Y-42315D02*
X30491Y-42315D01*
X30491Y-42383D01*
X30500Y-42401D01*
X30510Y-42409D01*
X30529Y-42418D01*
X30558Y-42418D01*
X30577Y-42409D01*
X30586Y-42401D01*
X30596Y-42383D01*
X30596Y-42315D01*
X30491Y-42478D02*
X30491Y-42589D01*
X30567Y-42529D01*
X30567Y-42555D01*
X30577Y-42572D01*
X30586Y-42581D01*
X30605Y-42589D01*
X30653Y-42589D01*
X30672Y-42581D01*
X30681Y-42572D01*
X30691Y-42555D01*
X30691Y-42503D01*
X30681Y-42486D01*
X30672Y-42478D01*
X30491Y-42700D02*
X30491Y-42717D01*
X30500Y-42734D01*
X30510Y-42743D01*
X30529Y-42752D01*
X30567Y-42760D01*
X30615Y-42760D01*
X30653Y-42752D01*
X30672Y-42743D01*
X30681Y-42734D01*
X30691Y-42717D01*
X30691Y-42700D01*
X30681Y-42683D01*
X30672Y-42674D01*
X30653Y-42666D01*
X30615Y-42657D01*
X30567Y-42657D01*
X30529Y-42666D01*
X30510Y-42674D01*
X30500Y-42683D01*
X30491Y-42700D01*
X30558Y-42914D02*
X30691Y-42914D01*
X30481Y-42871D02*
X30624Y-42828D01*
X30624Y-42940D01*
X35161Y-64117D02*
X35170Y-64126D01*
X35196Y-64136D01*
X35213Y-64136D01*
X35238Y-64126D01*
X35256Y-64107D01*
X35264Y-64088D01*
X35273Y-64050D01*
X35273Y-64022D01*
X35264Y-63984D01*
X35256Y-63965D01*
X35238Y-63945D01*
X35213Y-63936D01*
X35196Y-63936D01*
X35170Y-63945D01*
X35161Y-63955D01*
X35093Y-63955D02*
X35084Y-63945D01*
X35067Y-63936D01*
X35024Y-63936D01*
X35007Y-63945D01*
X34998Y-63955D01*
X34990Y-63974D01*
X34990Y-63993D01*
X34998Y-64022D01*
X35101Y-64136D01*
X34990Y-64136D01*
X34819Y-64136D02*
X34922Y-64136D01*
X34870Y-64136D02*
X34870Y-63936D01*
X34887Y-63965D01*
X34905Y-63984D01*
X34922Y-63993D01*
X34656Y-63936D02*
X34742Y-63936D01*
X34751Y-64031D01*
X34742Y-64022D01*
X34725Y-64012D01*
X34682Y-64012D01*
X34665Y-64022D01*
X34656Y-64031D01*
X34648Y-64050D01*
X34648Y-64098D01*
X34656Y-64117D01*
X34665Y-64126D01*
X34682Y-64136D01*
X34725Y-64136D01*
X34742Y-64126D01*
X34751Y-64117D01*
X38153Y-54820D02*
X38162Y-54811D01*
X38172Y-54785D01*
X38172Y-54768D01*
X38162Y-54743D01*
X38143Y-54725D01*
X38124Y-54717D01*
X38086Y-54708D01*
X38058Y-54708D01*
X38020Y-54717D01*
X38001Y-54725D01*
X37981Y-54743D01*
X37972Y-54768D01*
X37972Y-54785D01*
X37981Y-54811D01*
X37991Y-54820D01*
X37991Y-54888D02*
X37981Y-54897D01*
X37972Y-54914D01*
X37972Y-54957D01*
X37981Y-54974D01*
X37991Y-54983D01*
X38010Y-54991D01*
X38029Y-54991D01*
X38058Y-54983D01*
X38172Y-54880D01*
X38172Y-54991D01*
X37972Y-55102D02*
X37972Y-55119D01*
X37981Y-55136D01*
X37991Y-55145D01*
X38010Y-55154D01*
X38048Y-55162D01*
X38096Y-55162D01*
X38134Y-55154D01*
X38153Y-55145D01*
X38162Y-55136D01*
X38172Y-55119D01*
X38172Y-55102D01*
X38162Y-55085D01*
X38153Y-55076D01*
X38134Y-55068D01*
X38096Y-55059D01*
X38048Y-55059D01*
X38010Y-55068D01*
X37991Y-55076D01*
X37981Y-55085D01*
X37972Y-55102D01*
X37991Y-55230D02*
X37981Y-55239D01*
X37972Y-55256D01*
X37972Y-55299D01*
X37981Y-55316D01*
X37991Y-55325D01*
X38010Y-55333D01*
X38029Y-55333D01*
X38058Y-55325D01*
X38172Y-55222D01*
X38172Y-55333D01*
X36775Y-54426D02*
X36784Y-54417D01*
X36794Y-54391D01*
X36794Y-54374D01*
X36784Y-54349D01*
X36765Y-54331D01*
X36746Y-54323D01*
X36708Y-54314D01*
X36680Y-54314D01*
X36642Y-54323D01*
X36623Y-54331D01*
X36603Y-54349D01*
X36594Y-54374D01*
X36594Y-54391D01*
X36603Y-54417D01*
X36613Y-54426D01*
X36613Y-54494D02*
X36603Y-54503D01*
X36594Y-54520D01*
X36594Y-54563D01*
X36603Y-54580D01*
X36613Y-54589D01*
X36632Y-54597D01*
X36651Y-54597D01*
X36680Y-54589D01*
X36794Y-54486D01*
X36794Y-54597D01*
X36594Y-54708D02*
X36594Y-54725D01*
X36603Y-54742D01*
X36613Y-54751D01*
X36632Y-54760D01*
X36670Y-54768D01*
X36718Y-54768D01*
X36756Y-54760D01*
X36775Y-54751D01*
X36784Y-54742D01*
X36794Y-54725D01*
X36794Y-54708D01*
X36784Y-54691D01*
X36775Y-54682D01*
X36756Y-54674D01*
X36718Y-54665D01*
X36670Y-54665D01*
X36632Y-54674D01*
X36613Y-54682D01*
X36603Y-54691D01*
X36594Y-54708D01*
X36661Y-54922D02*
X36794Y-54922D01*
X36584Y-54879D02*
X36727Y-54836D01*
X36727Y-54948D01*
X30220Y-44156D02*
X30229Y-44165D01*
X30255Y-44175D01*
X30272Y-44175D01*
X30297Y-44165D01*
X30315Y-44146D01*
X30323Y-44127D01*
X30332Y-44089D01*
X30332Y-44061D01*
X30323Y-44023D01*
X30315Y-44004D01*
X30297Y-43984D01*
X30272Y-43975D01*
X30255Y-43975D01*
X30229Y-43984D01*
X30220Y-43994D01*
X30160Y-43975D02*
X30049Y-43975D01*
X30109Y-44051D01*
X30083Y-44051D01*
X30066Y-44061D01*
X30057Y-44070D01*
X30049Y-44089D01*
X30049Y-44137D01*
X30057Y-44156D01*
X30066Y-44165D01*
X30083Y-44175D01*
X30135Y-44175D01*
X30152Y-44165D01*
X30160Y-44156D01*
X29938Y-43975D02*
X29921Y-43975D01*
X29904Y-43984D01*
X29895Y-43994D01*
X29886Y-44013D01*
X29878Y-44051D01*
X29878Y-44099D01*
X29886Y-44137D01*
X29895Y-44156D01*
X29904Y-44165D01*
X29921Y-44175D01*
X29938Y-44175D01*
X29955Y-44165D01*
X29964Y-44156D01*
X29972Y-44137D01*
X29981Y-44099D01*
X29981Y-44051D01*
X29972Y-44013D01*
X29964Y-43994D01*
X29955Y-43984D01*
X29938Y-43975D01*
X29810Y-43994D02*
X29801Y-43984D01*
X29784Y-43975D01*
X29741Y-43975D01*
X29724Y-43984D01*
X29715Y-43994D01*
X29707Y-44013D01*
X29707Y-44032D01*
X29715Y-44061D01*
X29818Y-44175D01*
X29707Y-44175D01*
X29294Y-62300D02*
X29303Y-62291D01*
X29313Y-62265D01*
X29313Y-62248D01*
X29303Y-62223D01*
X29284Y-62205D01*
X29265Y-62197D01*
X29227Y-62188D01*
X29199Y-62188D01*
X29161Y-62197D01*
X29142Y-62205D01*
X29122Y-62223D01*
X29113Y-62248D01*
X29113Y-62265D01*
X29122Y-62291D01*
X29132Y-62300D01*
X29313Y-62471D02*
X29313Y-62368D01*
X29313Y-62420D02*
X29113Y-62420D01*
X29142Y-62403D01*
X29161Y-62385D01*
X29170Y-62368D01*
X29113Y-62582D02*
X29113Y-62599D01*
X29122Y-62616D01*
X29132Y-62625D01*
X29151Y-62634D01*
X29189Y-62642D01*
X29237Y-62642D01*
X29275Y-62634D01*
X29294Y-62625D01*
X29303Y-62616D01*
X29313Y-62599D01*
X29313Y-62582D01*
X29303Y-62565D01*
X29294Y-62556D01*
X29275Y-62548D01*
X29237Y-62539D01*
X29189Y-62539D01*
X29151Y-62548D01*
X29132Y-62556D01*
X29122Y-62565D01*
X29113Y-62582D01*
X29180Y-62796D02*
X29313Y-62796D01*
X29103Y-62753D02*
X29246Y-62710D01*
X29246Y-62822D01*
X27129Y-61020D02*
X27138Y-61011D01*
X27148Y-60985D01*
X27148Y-60968D01*
X27138Y-60943D01*
X27119Y-60925D01*
X27100Y-60917D01*
X27062Y-60908D01*
X27034Y-60908D01*
X26996Y-60917D01*
X26977Y-60925D01*
X26957Y-60943D01*
X26948Y-60968D01*
X26948Y-60985D01*
X26957Y-61011D01*
X26967Y-61020D01*
X27148Y-61191D02*
X27148Y-61088D01*
X27148Y-61140D02*
X26948Y-61140D01*
X26977Y-61123D01*
X26996Y-61105D01*
X27005Y-61088D01*
X26948Y-61302D02*
X26948Y-61319D01*
X26957Y-61336D01*
X26967Y-61345D01*
X26986Y-61354D01*
X27024Y-61362D01*
X27072Y-61362D01*
X27110Y-61354D01*
X27129Y-61345D01*
X27138Y-61336D01*
X27148Y-61319D01*
X27148Y-61302D01*
X27138Y-61285D01*
X27129Y-61276D01*
X27110Y-61268D01*
X27072Y-61259D01*
X27024Y-61259D01*
X26986Y-61268D01*
X26967Y-61276D01*
X26957Y-61285D01*
X26948Y-61302D01*
X26948Y-61422D02*
X26948Y-61533D01*
X27024Y-61473D01*
X27024Y-61499D01*
X27034Y-61516D01*
X27043Y-61525D01*
X27062Y-61533D01*
X27110Y-61533D01*
X27129Y-61525D01*
X27138Y-61516D01*
X27148Y-61499D01*
X27148Y-61447D01*
X27138Y-61430D01*
X27129Y-61422D01*
X38645Y-47241D02*
X38654Y-47232D01*
X38664Y-47206D01*
X38664Y-47189D01*
X38654Y-47164D01*
X38635Y-47146D01*
X38616Y-47138D01*
X38578Y-47129D01*
X38550Y-47129D01*
X38512Y-47138D01*
X38493Y-47146D01*
X38473Y-47164D01*
X38464Y-47189D01*
X38464Y-47206D01*
X38473Y-47232D01*
X38483Y-47241D01*
X38483Y-47309D02*
X38473Y-47318D01*
X38464Y-47335D01*
X38464Y-47378D01*
X38473Y-47395D01*
X38483Y-47404D01*
X38502Y-47412D01*
X38521Y-47412D01*
X38550Y-47404D01*
X38664Y-47301D01*
X38664Y-47412D01*
X38464Y-47523D02*
X38464Y-47540D01*
X38473Y-47557D01*
X38483Y-47566D01*
X38502Y-47575D01*
X38540Y-47583D01*
X38588Y-47583D01*
X38626Y-47575D01*
X38645Y-47566D01*
X38654Y-47557D01*
X38664Y-47540D01*
X38664Y-47523D01*
X38654Y-47506D01*
X38645Y-47497D01*
X38626Y-47489D01*
X38588Y-47480D01*
X38540Y-47480D01*
X38502Y-47489D01*
X38483Y-47497D01*
X38473Y-47506D01*
X38464Y-47523D01*
X38664Y-47754D02*
X38664Y-47651D01*
X38664Y-47703D02*
X38464Y-47703D01*
X38493Y-47686D01*
X38512Y-47668D01*
X38521Y-47651D01*
X23920Y-60298D02*
X23929Y-60307D01*
X23955Y-60317D01*
X23972Y-60317D01*
X23997Y-60307D01*
X24015Y-60288D01*
X24023Y-60269D01*
X24032Y-60231D01*
X24032Y-60203D01*
X24023Y-60165D01*
X24015Y-60146D01*
X23997Y-60126D01*
X23972Y-60117D01*
X23955Y-60117D01*
X23929Y-60126D01*
X23920Y-60136D01*
X23749Y-60317D02*
X23852Y-60317D01*
X23800Y-60317D02*
X23800Y-60117D01*
X23817Y-60146D01*
X23835Y-60165D01*
X23852Y-60174D01*
X23638Y-60117D02*
X23621Y-60117D01*
X23604Y-60126D01*
X23595Y-60136D01*
X23586Y-60155D01*
X23578Y-60193D01*
X23578Y-60241D01*
X23586Y-60279D01*
X23595Y-60298D01*
X23604Y-60307D01*
X23621Y-60317D01*
X23638Y-60317D01*
X23655Y-60307D01*
X23664Y-60298D01*
X23672Y-60279D01*
X23681Y-60241D01*
X23681Y-60193D01*
X23672Y-60155D01*
X23664Y-60136D01*
X23655Y-60126D01*
X23638Y-60117D01*
X23518Y-60117D02*
X23398Y-60117D01*
X23475Y-60317D01*
G54D12*
X34778Y-46209D02*
X34778Y-46412D01*
X34767Y-46435D01*
X34755Y-46447D01*
X34731Y-46459D01*
X34683Y-46459D01*
X34659Y-46447D01*
X34648Y-46435D01*
X34636Y-46412D01*
X34636Y-46209D01*
X34528Y-46233D02*
X34516Y-46221D01*
X34493Y-46209D01*
X34433Y-46209D01*
X34409Y-46221D01*
X34397Y-46233D01*
X34386Y-46257D01*
X34386Y-46281D01*
X34397Y-46316D01*
X34540Y-46459D01*
X34386Y-46459D01*
X34231Y-46209D02*
X34207Y-46209D01*
X34183Y-46221D01*
X34171Y-46233D01*
X34159Y-46257D01*
X34148Y-46304D01*
X34148Y-46364D01*
X34159Y-46412D01*
X34171Y-46435D01*
X34183Y-46447D01*
X34207Y-46459D01*
X34231Y-46459D01*
X34255Y-46447D01*
X34267Y-46435D01*
X34278Y-46412D01*
X34290Y-46364D01*
X34290Y-46304D01*
X34278Y-46257D01*
X34267Y-46233D01*
X34255Y-46221D01*
X34231Y-46209D01*
X33910Y-46459D02*
X34052Y-46459D01*
X33981Y-46459D02*
X33981Y-46209D01*
X34005Y-46245D01*
X34029Y-46269D01*
X34052Y-46281D01*
X31741Y-56855D02*
X31944Y-56855D01*
X31967Y-56866D01*
X31979Y-56878D01*
X31991Y-56902D01*
X31991Y-56950D01*
X31979Y-56974D01*
X31967Y-56985D01*
X31944Y-56997D01*
X31741Y-56997D01*
X31741Y-57093D02*
X31741Y-57247D01*
X31836Y-57164D01*
X31836Y-57200D01*
X31848Y-57224D01*
X31860Y-57236D01*
X31884Y-57247D01*
X31944Y-57247D01*
X31967Y-57236D01*
X31979Y-57224D01*
X31991Y-57200D01*
X31991Y-57128D01*
X31979Y-57105D01*
X31967Y-57093D01*
X31741Y-57402D02*
X31741Y-57426D01*
X31753Y-57450D01*
X31765Y-57462D01*
X31789Y-57474D01*
X31836Y-57485D01*
X31896Y-57485D01*
X31944Y-57474D01*
X31967Y-57462D01*
X31979Y-57450D01*
X31991Y-57426D01*
X31991Y-57402D01*
X31979Y-57378D01*
X31967Y-57366D01*
X31944Y-57355D01*
X31896Y-57343D01*
X31836Y-57343D01*
X31789Y-57355D01*
X31765Y-57366D01*
X31753Y-57378D01*
X31741Y-57402D01*
X31991Y-57723D02*
X31991Y-57581D01*
X31991Y-57652D02*
X31741Y-57652D01*
X31777Y-57628D01*
X31801Y-57604D01*
X31813Y-57581D01*
X36957Y-47788D02*
X37207Y-47954D01*
X36957Y-47954D02*
X37207Y-47788D01*
X36981Y-48038D02*
X36969Y-48050D01*
X36957Y-48073D01*
X36957Y-48133D01*
X36969Y-48157D01*
X36981Y-48169D01*
X37005Y-48180D01*
X37029Y-48180D01*
X37064Y-48169D01*
X37207Y-48026D01*
X37207Y-48180D01*
X36957Y-48335D02*
X36957Y-48359D01*
X36969Y-48383D01*
X36981Y-48395D01*
X37005Y-48407D01*
X37052Y-48418D01*
X37112Y-48418D01*
X37160Y-48407D01*
X37183Y-48395D01*
X37195Y-48383D01*
X37207Y-48359D01*
X37207Y-48335D01*
X37195Y-48311D01*
X37183Y-48299D01*
X37160Y-48288D01*
X37112Y-48276D01*
X37052Y-48276D01*
X37005Y-48288D01*
X36981Y-48299D01*
X36969Y-48311D01*
X36957Y-48335D01*
X37207Y-48656D02*
X37207Y-48514D01*
X37207Y-48585D02*
X36957Y-48585D01*
X36993Y-48561D01*
X37017Y-48537D01*
X37029Y-48514D01*
G54D16*
X36081Y-40664D02*
X35986Y-40604D01*
X36081Y-40561D02*
X35881Y-40561D01*
X35881Y-40629D01*
X35890Y-40647D01*
X35900Y-40655D01*
X35919Y-40664D01*
X35948Y-40664D01*
X35967Y-40655D01*
X35976Y-40647D01*
X35986Y-40629D01*
X35986Y-40561D01*
X35948Y-40818D02*
X36081Y-40818D01*
X35871Y-40775D02*
X36014Y-40732D01*
X36014Y-40844D01*
X35881Y-40946D02*
X35881Y-40963D01*
X35890Y-40980D01*
X35900Y-40989D01*
X35919Y-40998D01*
X35957Y-41006D01*
X36005Y-41006D01*
X36043Y-40998D01*
X36062Y-40989D01*
X36071Y-40980D01*
X36081Y-40963D01*
X36081Y-40946D01*
X36071Y-40929D01*
X36062Y-40920D01*
X36043Y-40912D01*
X36005Y-40903D01*
X35957Y-40903D01*
X35919Y-40912D01*
X35900Y-40920D01*
X35890Y-40929D01*
X35881Y-40946D01*
X36081Y-41177D02*
X36081Y-41074D01*
X36081Y-41126D02*
X35881Y-41126D01*
X35910Y-41109D01*
X35929Y-41091D01*
X35938Y-41074D01*
X34331Y-40664D02*
X34236Y-40604D01*
X34331Y-40561D02*
X34131Y-40561D01*
X34131Y-40629D01*
X34140Y-40647D01*
X34150Y-40655D01*
X34169Y-40664D01*
X34198Y-40664D01*
X34217Y-40655D01*
X34226Y-40647D01*
X34236Y-40629D01*
X34236Y-40561D01*
X34198Y-40818D02*
X34331Y-40818D01*
X34121Y-40775D02*
X34264Y-40732D01*
X34264Y-40844D01*
X34131Y-40946D02*
X34131Y-40963D01*
X34140Y-40980D01*
X34150Y-40989D01*
X34169Y-40998D01*
X34207Y-41006D01*
X34255Y-41006D01*
X34293Y-40998D01*
X34312Y-40989D01*
X34321Y-40980D01*
X34331Y-40963D01*
X34331Y-40946D01*
X34321Y-40929D01*
X34312Y-40920D01*
X34293Y-40912D01*
X34255Y-40903D01*
X34207Y-40903D01*
X34169Y-40912D01*
X34150Y-40920D01*
X34140Y-40929D01*
X34131Y-40946D01*
X34150Y-41074D02*
X34140Y-41083D01*
X34131Y-41100D01*
X34131Y-41143D01*
X34140Y-41160D01*
X34150Y-41169D01*
X34169Y-41177D01*
X34188Y-41177D01*
X34217Y-41169D01*
X34331Y-41066D01*
X34331Y-41177D01*
M02*
