G04 (created by PCBNEW (2011-nov-30)-testing) date ven. 21 sept. 2012 14:12:35 CEST*
%MOIN*%
G04 Gerber Fmt 3.4, Leading zero omitted, Abs format*
%FSLAX34Y34*%
G01*
G70*
G90*
G04 APERTURE LIST*
%ADD10C,0.006*%
%ADD11C,0.015*%
%ADD12R,0.055X0.075*%
%ADD13R,0.075X0.055*%
%ADD14R,0.065X0.045*%
%ADD15R,0.045X0.065*%
%ADD16R,0.08X0.08*%
%ADD17C,0.08*%
%ADD18R,0.07X0.04*%
%ADD19R,0.04X0.065*%
%ADD20R,0.0987X0.2365*%
%ADD21C,0.1617*%
%ADD22R,0.09X0.09*%
%ADD23C,0.1*%
%ADD24C,0.12*%
G04 APERTURE END LIST*
G54D10*
G54D11*
X19700Y-39375D02*
X19700Y-39400D01*
X41300Y-39375D02*
X19700Y-39375D01*
X41300Y-73225D02*
X41300Y-39375D01*
X39375Y-73225D02*
X41300Y-73225D01*
X19685Y-73228D02*
X19685Y-39370D01*
X39370Y-73228D02*
X19685Y-73228D01*
G54D12*
X23247Y-40748D03*
X23997Y-40748D03*
G54D13*
X21260Y-42538D03*
X21260Y-43288D03*
X32480Y-54349D03*
X32480Y-55099D03*
X28346Y-51495D03*
X28346Y-52245D03*
X27165Y-39979D03*
X27165Y-40729D03*
G54D12*
X29743Y-39961D03*
X30493Y-39961D03*
G54D13*
X30217Y-48308D03*
X30217Y-47558D03*
G54D14*
X24016Y-72643D03*
X24016Y-72043D03*
X36319Y-60330D03*
X36319Y-60930D03*
G54D15*
X30802Y-49508D03*
X31402Y-49508D03*
G54D14*
X24016Y-68106D03*
X24016Y-68706D03*
G54D15*
X29424Y-41831D03*
X30024Y-41831D03*
G54D14*
X28642Y-40448D03*
X28642Y-41048D03*
X31102Y-42918D03*
X31102Y-42318D03*
G54D15*
X36245Y-64055D03*
X35645Y-64055D03*
G54D14*
X38681Y-54720D03*
X38681Y-55320D03*
X36122Y-54926D03*
X36122Y-54326D03*
G54D15*
X29720Y-43504D03*
X30320Y-43504D03*
G54D14*
X28642Y-62200D03*
X28642Y-62800D03*
X27067Y-59936D03*
X27067Y-60536D03*
X37992Y-47741D03*
X37992Y-47141D03*
G54D15*
X23420Y-59646D03*
X24020Y-59646D03*
G54D16*
X23705Y-56110D03*
G54D17*
X23705Y-55110D03*
X24705Y-56110D03*
X24705Y-55110D03*
X25705Y-56110D03*
X25705Y-55110D03*
G54D16*
X24961Y-64173D03*
G54D17*
X25961Y-64173D03*
X26961Y-64173D03*
X27961Y-64173D03*
X28961Y-64173D03*
X29961Y-64173D03*
G54D18*
X32550Y-53545D03*
X32550Y-53045D03*
X32550Y-52545D03*
X32550Y-52045D03*
X32550Y-51545D03*
X32550Y-51045D03*
X32550Y-50545D03*
X32550Y-50045D03*
X32550Y-49545D03*
X32550Y-49045D03*
X32550Y-48545D03*
X32550Y-48045D03*
X32550Y-47545D03*
X32550Y-47045D03*
X36150Y-47045D03*
X36150Y-47545D03*
X36150Y-48045D03*
X36150Y-48545D03*
X36150Y-49045D03*
X36150Y-49545D03*
X36150Y-50045D03*
X36150Y-50545D03*
X36150Y-51045D03*
X36150Y-51545D03*
X36150Y-52045D03*
X36150Y-52545D03*
X36150Y-53045D03*
X36150Y-53545D03*
G54D19*
X32654Y-56183D03*
X33154Y-56183D03*
X33654Y-56183D03*
X34154Y-56183D03*
X34654Y-56183D03*
X35154Y-56183D03*
X35654Y-56183D03*
X35654Y-58283D03*
X35154Y-58283D03*
X34654Y-58283D03*
X34154Y-58283D03*
X33654Y-58283D03*
X33154Y-58283D03*
X32654Y-58283D03*
G54D20*
X37992Y-49430D03*
X37992Y-53130D03*
G54D16*
X22039Y-64173D03*
G54D17*
X23039Y-64173D03*
G54D14*
X36000Y-42050D03*
X36000Y-41450D03*
X34250Y-42050D03*
X34250Y-41450D03*
G54D21*
X32856Y-41648D03*
X37344Y-41629D03*
G54D22*
X36832Y-44129D03*
G54D23*
X36360Y-45133D03*
X35848Y-44129D03*
X35336Y-45133D03*
X34864Y-44129D03*
X34352Y-45133D03*
X33840Y-44129D03*
X33368Y-45133D03*
X37718Y-40054D03*
X36714Y-40054D03*
X33486Y-40054D03*
X32482Y-40054D03*
G54D24*
X38112Y-42810D03*
X32049Y-42810D03*
G54D16*
X23016Y-70874D03*
G54D17*
X23016Y-69874D03*
X24016Y-70874D03*
X24016Y-69874D03*
X25016Y-70874D03*
X25016Y-69874D03*
G54D16*
X22547Y-50705D03*
G54D17*
X21547Y-50705D03*
X22547Y-49705D03*
X21547Y-49705D03*
X22547Y-48705D03*
X21547Y-48705D03*
G54D16*
X27232Y-66937D03*
G54D17*
X27232Y-65937D03*
X28232Y-66937D03*
X28232Y-65937D03*
X29232Y-66937D03*
X29232Y-65937D03*
X30232Y-66937D03*
X30232Y-65937D03*
X31232Y-66937D03*
X31232Y-65937D03*
G54D16*
X37591Y-56268D03*
G54D17*
X38591Y-56268D03*
X37591Y-57268D03*
X38591Y-57268D03*
X37591Y-58268D03*
X38591Y-58268D03*
X37591Y-59268D03*
X38591Y-59268D03*
X37591Y-60268D03*
X38591Y-60268D03*
G54D16*
X21760Y-46063D03*
G54D17*
X20760Y-46063D03*
M02*
