G04 (created by PCBNEW-RS274X (2012-01-19 BZR 3256)-stable) date 15/05/2012 08:43:50*
G01*
G70*
G90*
%MOIN*%
G04 Gerber Fmt 3.4, Leading zero omitted, Abs format*
%FSLAX34Y34*%
G04 APERTURE LIST*
%ADD10C,0.006000*%
%ADD11C,0.015000*%
%ADD12C,0.098700*%
%ADD13R,0.080000X0.080000*%
%ADD14C,0.080000*%
%ADD15C,0.090900*%
%ADD16C,0.083000*%
%ADD17R,0.045000X0.095000*%
%ADD18R,0.080000X0.100000*%
%ADD19C,0.180000*%
G04 APERTURE END LIST*
G54D10*
G54D11*
X12980Y-08873D02*
X12980Y-08773D01*
X74005Y-08898D02*
X74005Y-08773D01*
X12980Y-08844D02*
X12980Y-25773D01*
X12980Y-25773D02*
X74003Y-25773D01*
X74004Y-08769D02*
X12980Y-08769D01*
X74004Y-25773D02*
X74004Y-08844D01*
G54D12*
X14580Y-22973D03*
X16580Y-22973D03*
X18580Y-22973D03*
X20880Y-22973D03*
X22880Y-22973D03*
X24880Y-22973D03*
X27180Y-22973D03*
X29180Y-22973D03*
X31180Y-22973D03*
X35380Y-22973D03*
X37380Y-22973D03*
X39380Y-22973D03*
X47580Y-22973D03*
X49580Y-22973D03*
X51580Y-22973D03*
X55980Y-22973D03*
X57980Y-22973D03*
X59980Y-22973D03*
X62280Y-22973D03*
X64280Y-22973D03*
X66280Y-22973D03*
X68580Y-22973D03*
X70580Y-22973D03*
X72580Y-22973D03*
G54D13*
X45080Y-16773D03*
G54D14*
X46080Y-16773D03*
X45080Y-17773D03*
X46080Y-17773D03*
X45080Y-18773D03*
X46080Y-18773D03*
G54D13*
X40880Y-16773D03*
G54D14*
X41880Y-16773D03*
X40880Y-17773D03*
X41880Y-17773D03*
X40880Y-18773D03*
X41880Y-18773D03*
G54D15*
X16480Y-12827D03*
G54D16*
X14118Y-13614D03*
X18842Y-13614D03*
X14118Y-18417D03*
X18842Y-18417D03*
G54D15*
X22980Y-12827D03*
G54D16*
X20618Y-13614D03*
X25342Y-13614D03*
X20618Y-18417D03*
X25342Y-18417D03*
G54D15*
X29480Y-12827D03*
G54D16*
X27118Y-13614D03*
X31842Y-13614D03*
X27118Y-18417D03*
X31842Y-18417D03*
G54D15*
X35980Y-12827D03*
G54D16*
X33618Y-13614D03*
X38342Y-13614D03*
X33618Y-18417D03*
X38342Y-18417D03*
G54D15*
X50980Y-12827D03*
G54D16*
X48618Y-13614D03*
X53342Y-13614D03*
X48618Y-18417D03*
X53342Y-18417D03*
G54D15*
X57480Y-12827D03*
G54D16*
X55118Y-13614D03*
X59842Y-13614D03*
X55118Y-18417D03*
X59842Y-18417D03*
G54D15*
X63980Y-12827D03*
G54D16*
X61618Y-13614D03*
X66342Y-13614D03*
X61618Y-18417D03*
X66342Y-18417D03*
G54D15*
X70530Y-12827D03*
G54D16*
X68168Y-13614D03*
X72892Y-13614D03*
X68168Y-18417D03*
X72892Y-18417D03*
G54D13*
X45080Y-14273D03*
G54D14*
X45080Y-13273D03*
X45080Y-12273D03*
G54D13*
X46080Y-14273D03*
G54D14*
X46080Y-13273D03*
X46080Y-12273D03*
G54D13*
X47080Y-14273D03*
G54D14*
X47080Y-13273D03*
X47080Y-12273D03*
G54D17*
X44130Y-13373D03*
X43630Y-13373D03*
X43130Y-13373D03*
X42630Y-13373D03*
X42130Y-13373D03*
X41630Y-13373D03*
X41130Y-13373D03*
X40630Y-13373D03*
X40630Y-09373D03*
X41130Y-09373D03*
X41630Y-09373D03*
X42130Y-09373D03*
X42630Y-09373D03*
X43130Y-09373D03*
X43630Y-09373D03*
X44130Y-09373D03*
G54D13*
X41780Y-14273D03*
G54D14*
X40780Y-14273D03*
G54D18*
X41530Y-21373D03*
X42830Y-21373D03*
X45430Y-21373D03*
X44130Y-21373D03*
G54D13*
X42780Y-14273D03*
G54D14*
X43780Y-14273D03*
G54D19*
X53780Y-23228D03*
X33280Y-23228D03*
M02*
