G04 (created by PCBNEW-RS274X (2012-01-19 BZR 3256)-stable) date 15/05/2012 08:43:50*
G01*
G70*
G90*
%MOIN*%
G04 Gerber Fmt 3.4, Leading zero omitted, Abs format*
%FSLAX34Y34*%
G04 APERTURE LIST*
%ADD10C,0.006000*%
%ADD11C,0.015000*%
%ADD12R,0.036000X0.036000*%
%ADD13R,0.033500X0.033500*%
%ADD14R,0.060000X0.080000*%
%ADD15R,0.080000X0.060000*%
%ADD16C,0.078700*%
%ADD17R,0.062900X0.070900*%
%ADD18R,0.060000X0.060000*%
%ADD19C,0.060000*%
%ADD20C,0.070900*%
%ADD21C,0.063000*%
%ADD22C,0.160000*%
%ADD23C,0.035000*%
%ADD24C,0.019700*%
%ADD25C,0.008000*%
G04 APERTURE END LIST*
G54D10*
G54D11*
X12980Y-08873D02*
X12980Y-08773D01*
X74005Y-08898D02*
X74005Y-08773D01*
X12980Y-08844D02*
X12980Y-25773D01*
X12980Y-25773D02*
X74003Y-25773D01*
X74004Y-08769D02*
X12980Y-08769D01*
X74004Y-25773D02*
X74004Y-08844D01*
G54D12*
X15830Y-10473D03*
X15130Y-10473D03*
X15480Y-09673D03*
X72280Y-10123D03*
X72280Y-09423D03*
X73080Y-09773D03*
X65880Y-10123D03*
X65880Y-09423D03*
X66680Y-09773D03*
X59380Y-10123D03*
X59380Y-09423D03*
X60180Y-09773D03*
X52880Y-10123D03*
X52880Y-09423D03*
X53680Y-09773D03*
X37980Y-10123D03*
X37980Y-09423D03*
X38780Y-09773D03*
X31480Y-10123D03*
X31480Y-09423D03*
X32280Y-09773D03*
X25080Y-10123D03*
X25080Y-09423D03*
X25880Y-09773D03*
X22130Y-10473D03*
X21430Y-10473D03*
X21780Y-09673D03*
X28530Y-10473D03*
X27830Y-10473D03*
X28180Y-09673D03*
X35030Y-10473D03*
X34330Y-10473D03*
X34680Y-09673D03*
X49930Y-10473D03*
X49230Y-10473D03*
X49580Y-09673D03*
X56430Y-10473D03*
X55730Y-10473D03*
X56080Y-09673D03*
X62930Y-10473D03*
X62230Y-10473D03*
X62580Y-09673D03*
X69330Y-10473D03*
X68630Y-10473D03*
X68980Y-09673D03*
X18680Y-10123D03*
X18680Y-09423D03*
X19480Y-09773D03*
G54D13*
X72039Y-11273D03*
X70721Y-11273D03*
X65639Y-11273D03*
X64321Y-11273D03*
X59139Y-11273D03*
X57821Y-11273D03*
X52639Y-11273D03*
X51321Y-11273D03*
X37739Y-11273D03*
X36421Y-11273D03*
X31239Y-11273D03*
X29921Y-11273D03*
X24939Y-11273D03*
X23621Y-11273D03*
X18539Y-11273D03*
X17221Y-11273D03*
G54D14*
X65030Y-10473D03*
X63730Y-10473D03*
X58530Y-10473D03*
X57230Y-10473D03*
X52030Y-10473D03*
X50730Y-10473D03*
X37130Y-10473D03*
X35830Y-10473D03*
X30630Y-10473D03*
X29330Y-10473D03*
X24230Y-10473D03*
X22930Y-10473D03*
X17930Y-10473D03*
X16630Y-10473D03*
G54D15*
X67680Y-09723D03*
X67680Y-11023D03*
X61280Y-09723D03*
X61280Y-11023D03*
X54780Y-09723D03*
X54780Y-11023D03*
X48280Y-09723D03*
X48280Y-11023D03*
X33380Y-09623D03*
X33380Y-10923D03*
X26880Y-09623D03*
X26880Y-10923D03*
G54D14*
X41830Y-11473D03*
X43130Y-11473D03*
X42530Y-12573D03*
X43830Y-12573D03*
X45330Y-09873D03*
X46630Y-09873D03*
G54D15*
X14180Y-09623D03*
X14180Y-10923D03*
X20480Y-09623D03*
X20480Y-10923D03*
G54D14*
X70130Y-09473D03*
X71430Y-09473D03*
X63730Y-09473D03*
X65030Y-09473D03*
X57230Y-09473D03*
X58530Y-09473D03*
X50730Y-09473D03*
X52030Y-09473D03*
X35830Y-09473D03*
X37130Y-09473D03*
X29330Y-09473D03*
X30630Y-09473D03*
X22930Y-09473D03*
X24230Y-09473D03*
X16630Y-09473D03*
X17930Y-09473D03*
X71430Y-10473D03*
X70130Y-10473D03*
G54D16*
X14580Y-22973D03*
X16580Y-22973D03*
X18580Y-22973D03*
X20880Y-22973D03*
X22880Y-22973D03*
X24880Y-22973D03*
X27180Y-22973D03*
X29180Y-22973D03*
X31180Y-22973D03*
X35380Y-22973D03*
X37380Y-22973D03*
X39380Y-22973D03*
X47580Y-22973D03*
X49580Y-22973D03*
X51580Y-22973D03*
X55980Y-22973D03*
X57980Y-22973D03*
X59980Y-22973D03*
X62280Y-22973D03*
X64280Y-22973D03*
X66280Y-22973D03*
X68580Y-22973D03*
X70580Y-22973D03*
X72580Y-22973D03*
G54D17*
X16621Y-20673D03*
X17739Y-20673D03*
X22721Y-20673D03*
X23839Y-20673D03*
X29121Y-20673D03*
X30239Y-20673D03*
X37421Y-20673D03*
X38539Y-20673D03*
X49521Y-20673D03*
X50639Y-20673D03*
X57821Y-20673D03*
X58939Y-20673D03*
X64121Y-20673D03*
X65239Y-20673D03*
X70321Y-20673D03*
X71439Y-20673D03*
G54D18*
X45080Y-16773D03*
G54D19*
X46080Y-16773D03*
X45080Y-17773D03*
X46080Y-17773D03*
X45080Y-18773D03*
X46080Y-18773D03*
G54D18*
X40880Y-16773D03*
G54D19*
X41880Y-16773D03*
X40880Y-17773D03*
X41880Y-17773D03*
X40880Y-18773D03*
X41880Y-18773D03*
G54D20*
X16480Y-12827D03*
G54D21*
X14118Y-13614D03*
X18842Y-13614D03*
X14118Y-18417D03*
X18842Y-18417D03*
G54D20*
X22980Y-12827D03*
G54D21*
X20618Y-13614D03*
X25342Y-13614D03*
X20618Y-18417D03*
X25342Y-18417D03*
G54D20*
X29480Y-12827D03*
G54D21*
X27118Y-13614D03*
X31842Y-13614D03*
X27118Y-18417D03*
X31842Y-18417D03*
G54D20*
X35980Y-12827D03*
G54D21*
X33618Y-13614D03*
X38342Y-13614D03*
X33618Y-18417D03*
X38342Y-18417D03*
G54D20*
X50980Y-12827D03*
G54D21*
X48618Y-13614D03*
X53342Y-13614D03*
X48618Y-18417D03*
X53342Y-18417D03*
G54D20*
X57480Y-12827D03*
G54D21*
X55118Y-13614D03*
X59842Y-13614D03*
X55118Y-18417D03*
X59842Y-18417D03*
G54D20*
X63980Y-12827D03*
G54D21*
X61618Y-13614D03*
X66342Y-13614D03*
X61618Y-18417D03*
X66342Y-18417D03*
G54D20*
X70530Y-12827D03*
G54D21*
X68168Y-13614D03*
X72892Y-13614D03*
X68168Y-18417D03*
X72892Y-18417D03*
G54D18*
X45080Y-14273D03*
G54D19*
X45080Y-13273D03*
X45080Y-12273D03*
G54D18*
X46080Y-14273D03*
G54D19*
X46080Y-13273D03*
X46080Y-12273D03*
G54D18*
X47080Y-14273D03*
G54D19*
X47080Y-13273D03*
X47080Y-12273D03*
G54D18*
X41780Y-14273D03*
G54D19*
X40780Y-14273D03*
G54D17*
X42839Y-21373D03*
X41721Y-21373D03*
X45339Y-21373D03*
X44221Y-21373D03*
G54D18*
X42780Y-14273D03*
G54D19*
X43780Y-14273D03*
G54D22*
X53780Y-23228D03*
X33280Y-23228D03*
G54D23*
X62180Y-11473D03*
X55680Y-11473D03*
X38880Y-11773D03*
X46880Y-16973D03*
X69580Y-11273D03*
X45380Y-20173D03*
X21380Y-11473D03*
X15180Y-11773D03*
X34480Y-11473D03*
X49280Y-12273D03*
X28680Y-11473D03*
X21780Y-11073D03*
X42480Y-15773D03*
X56080Y-11073D03*
X34980Y-11073D03*
X62580Y-11073D03*
X38880Y-11173D03*
X15680Y-10973D03*
X49680Y-11073D03*
X68980Y-11073D03*
X28180Y-11073D03*
X44380Y-10473D03*
X14980Y-09273D03*
X21280Y-09673D03*
X26880Y-10273D03*
X33380Y-10273D03*
X48080Y-10373D03*
X54780Y-10273D03*
X60580Y-10273D03*
X67080Y-10273D03*
X43180Y-10473D03*
X43680Y-10473D03*
X52880Y-10673D03*
X31480Y-10673D03*
X18680Y-10673D03*
X37880Y-10673D03*
X25080Y-10673D03*
X42980Y-20173D03*
X65880Y-10673D03*
X72280Y-10673D03*
X59380Y-10673D03*
X43480Y-21373D03*
X45280Y-22073D03*
G54D24*
X14118Y-13614D02*
X14118Y-12273D01*
X64321Y-11273D02*
X64280Y-11273D01*
X64080Y-11473D02*
X62180Y-11473D01*
X57821Y-11273D02*
X57580Y-11273D01*
X57580Y-11273D02*
X57380Y-11473D01*
X14118Y-12273D02*
X14118Y-12210D01*
X64280Y-11273D02*
X64080Y-11473D01*
X39480Y-11773D02*
X40180Y-12473D01*
X38880Y-11773D02*
X39480Y-11773D01*
X14480Y-11773D02*
X15180Y-11773D01*
X14118Y-12273D02*
X14118Y-12135D01*
X51321Y-11273D02*
X50280Y-11273D01*
X40180Y-13473D02*
X40680Y-13473D01*
X17080Y-11273D02*
X16880Y-11473D01*
X42780Y-14273D02*
X42780Y-13673D01*
X15180Y-11773D02*
X15480Y-11473D01*
X16880Y-11473D02*
X15780Y-11473D01*
X40180Y-12473D02*
X40180Y-13473D01*
X14118Y-12135D02*
X14480Y-11773D01*
X41780Y-13473D02*
X41780Y-14273D01*
X42580Y-13473D02*
X42780Y-13673D01*
X40680Y-13473D02*
X41780Y-13473D01*
X69580Y-11273D02*
X70721Y-11273D01*
X23580Y-11273D02*
X23621Y-11273D01*
X23580Y-11273D02*
X23380Y-11473D01*
X34480Y-11473D02*
X35680Y-11473D01*
X22480Y-11473D02*
X21980Y-11473D01*
X21380Y-11473D02*
X21980Y-11473D01*
X15480Y-11473D02*
X15780Y-11473D01*
X40780Y-19773D02*
X40180Y-19173D01*
X45380Y-19773D02*
X40780Y-19773D01*
X40180Y-19173D02*
X40180Y-13473D01*
X35880Y-11273D02*
X35680Y-11473D01*
X35880Y-11273D02*
X36421Y-11273D01*
X23380Y-11473D02*
X22480Y-11473D01*
X46180Y-19773D02*
X45380Y-19773D01*
X46680Y-17173D02*
X46880Y-16973D01*
X46680Y-19273D02*
X46680Y-17173D01*
X46180Y-19773D02*
X46680Y-19273D01*
X50280Y-11273D02*
X49280Y-12273D01*
X41780Y-13473D02*
X42580Y-13473D01*
X17080Y-11273D02*
X17221Y-11273D01*
X36421Y-11273D02*
X36380Y-11273D01*
X45380Y-20173D02*
X45380Y-19773D01*
X29480Y-11473D02*
X28680Y-11473D01*
X29921Y-11273D02*
X29680Y-11273D01*
X29680Y-11273D02*
X29480Y-11473D01*
X57380Y-11473D02*
X55680Y-11473D01*
X40880Y-10073D02*
X40080Y-10073D01*
X47380Y-09473D02*
X47380Y-11373D01*
X22130Y-10473D02*
X22130Y-10723D01*
X22130Y-10723D02*
X21780Y-11073D01*
X42530Y-12573D02*
X40880Y-12573D01*
X40880Y-12373D02*
X40880Y-11473D01*
X39880Y-10073D02*
X38980Y-10973D01*
X28530Y-10723D02*
X28180Y-11073D01*
X28530Y-10473D02*
X28530Y-10723D01*
X40880Y-11473D02*
X40880Y-10073D01*
X41830Y-11473D02*
X40880Y-11473D01*
X44030Y-10073D02*
X43980Y-10073D01*
X47380Y-11373D02*
X48380Y-12373D01*
X62930Y-10723D02*
X62580Y-11073D01*
X35030Y-10473D02*
X35030Y-11023D01*
X49930Y-10473D02*
X49930Y-10823D01*
X40880Y-16273D02*
X40880Y-16773D01*
X45330Y-09873D02*
X45330Y-09823D01*
X40880Y-12573D02*
X40880Y-12373D01*
X49930Y-10823D02*
X49680Y-11073D01*
X62930Y-10473D02*
X62930Y-10723D01*
X56430Y-10723D02*
X56080Y-11073D01*
X56430Y-10473D02*
X56430Y-10723D01*
X40880Y-10073D02*
X44030Y-10073D01*
X47080Y-09173D02*
X47380Y-09473D01*
X45980Y-09173D02*
X47080Y-09173D01*
X45130Y-10073D02*
X45330Y-09873D01*
X38980Y-10973D02*
X38980Y-11073D01*
X69330Y-10723D02*
X68980Y-11073D01*
X43980Y-10073D02*
X44380Y-10473D01*
X69330Y-10473D02*
X69330Y-10723D01*
X49680Y-11073D02*
X48380Y-12373D01*
X41380Y-15773D02*
X40880Y-16273D01*
X44030Y-10073D02*
X45130Y-10073D01*
X42480Y-15773D02*
X41380Y-15773D01*
X35030Y-11023D02*
X34980Y-11073D01*
X45330Y-09823D02*
X45980Y-09173D01*
X39880Y-10073D02*
X40080Y-10073D01*
X45080Y-16473D02*
X45080Y-16773D01*
X47880Y-12873D02*
X47880Y-15173D01*
X45680Y-15873D02*
X45080Y-16473D01*
X47880Y-15173D02*
X47180Y-15873D01*
X48380Y-12373D02*
X47880Y-12873D01*
X15830Y-10473D02*
X15830Y-10823D01*
X15830Y-10823D02*
X15680Y-10973D01*
X47180Y-15873D02*
X45680Y-15873D01*
X38980Y-11073D02*
X38880Y-11173D01*
G54D25*
X44380Y-19473D02*
X45080Y-18773D01*
X41280Y-19473D02*
X44380Y-19473D01*
X40880Y-19073D02*
X41280Y-19473D01*
X40880Y-18773D02*
X40880Y-19073D01*
X14180Y-09623D02*
X14230Y-09623D01*
X14580Y-09273D02*
X14980Y-09273D01*
X14230Y-09623D02*
X14580Y-09273D01*
X21280Y-09673D02*
X21230Y-09623D01*
X21230Y-09623D02*
X20480Y-09623D01*
X26880Y-10273D02*
X26880Y-09623D01*
X33380Y-09623D02*
X33380Y-10273D01*
X48280Y-10173D02*
X48280Y-09723D01*
X48080Y-10373D02*
X48280Y-10173D01*
X54780Y-09723D02*
X54780Y-10273D01*
X60580Y-10273D02*
X61130Y-09723D01*
X61130Y-09723D02*
X61280Y-09723D01*
X67630Y-09723D02*
X67680Y-09723D01*
X67080Y-10273D02*
X67630Y-09723D01*
X16630Y-09473D02*
X15680Y-09473D01*
X15680Y-09473D02*
X15480Y-09673D01*
X16630Y-10473D02*
X16630Y-09473D01*
X22930Y-10473D02*
X22930Y-09473D01*
X21980Y-09473D02*
X21780Y-09673D01*
X22930Y-09473D02*
X21980Y-09473D01*
X29330Y-09473D02*
X28380Y-09473D01*
X28380Y-09473D02*
X28180Y-09673D01*
X29330Y-10473D02*
X29330Y-09473D01*
X35830Y-09473D02*
X34880Y-09473D01*
X34880Y-09473D02*
X34680Y-09673D01*
X35830Y-10473D02*
X35830Y-09473D01*
X49780Y-09473D02*
X49580Y-09673D01*
X50730Y-10473D02*
X50730Y-09473D01*
X50730Y-09473D02*
X49780Y-09473D01*
X57230Y-10473D02*
X57230Y-09473D01*
X57230Y-09473D02*
X56280Y-09473D01*
X56280Y-09473D02*
X56080Y-09673D01*
X63730Y-09473D02*
X62780Y-09473D01*
X62780Y-09473D02*
X62580Y-09673D01*
X63730Y-10473D02*
X63730Y-09473D01*
X70130Y-09473D02*
X69180Y-09473D01*
X70130Y-09473D02*
X70130Y-10473D01*
X70130Y-10473D02*
X70130Y-09473D01*
X69180Y-09473D02*
X68980Y-09673D01*
X43180Y-11423D02*
X43130Y-11473D01*
X42780Y-17273D02*
X43280Y-16773D01*
X43280Y-11623D02*
X43130Y-11473D01*
X44580Y-18273D02*
X45080Y-17773D01*
X40880Y-17773D02*
X40980Y-17773D01*
X43180Y-11523D02*
X43130Y-11473D01*
X41480Y-17273D02*
X42780Y-17273D01*
X43180Y-10473D02*
X43180Y-11423D01*
X40880Y-17773D02*
X41380Y-18273D01*
X43280Y-16773D02*
X43280Y-11623D01*
X41380Y-18273D02*
X44580Y-18273D01*
X40980Y-17773D02*
X41480Y-17273D01*
X43830Y-12573D02*
X43830Y-10623D01*
X44180Y-12573D02*
X43830Y-12573D01*
X44180Y-12573D02*
X44280Y-12673D01*
X44280Y-12673D02*
X44280Y-16673D01*
X43830Y-10623D02*
X43680Y-10473D01*
X43180Y-17773D02*
X44280Y-16673D01*
X41880Y-17773D02*
X43180Y-17773D01*
G54D24*
X42980Y-20573D02*
X43980Y-20573D01*
X23839Y-21373D02*
X23880Y-21373D01*
X37880Y-10673D02*
X37980Y-10573D01*
X58939Y-20673D02*
X58939Y-21373D01*
X44221Y-22214D02*
X44221Y-21373D01*
X42980Y-20573D02*
X42980Y-20173D01*
X44780Y-22773D02*
X44221Y-22214D01*
X50580Y-21373D02*
X46980Y-21373D01*
X41721Y-21373D02*
X41721Y-20732D01*
X41721Y-20732D02*
X41880Y-20573D01*
X23880Y-21373D02*
X30280Y-21373D01*
X17739Y-21132D02*
X17980Y-21373D01*
X71439Y-21114D02*
X71180Y-21373D01*
X31480Y-10673D02*
X31480Y-10123D01*
X18680Y-10123D02*
X18680Y-10673D01*
X30239Y-20673D02*
X30239Y-21373D01*
X43980Y-20573D02*
X44221Y-20814D01*
X30239Y-21373D02*
X30280Y-21373D01*
X58939Y-21373D02*
X58980Y-21373D01*
X25080Y-10673D02*
X25080Y-10123D01*
X71180Y-21373D02*
X65180Y-21373D01*
X71439Y-20673D02*
X71439Y-21114D01*
X46980Y-21373D02*
X45580Y-22773D01*
X65239Y-20673D02*
X65239Y-21373D01*
X65239Y-21373D02*
X65180Y-21373D01*
X65180Y-21373D02*
X58980Y-21373D01*
X38539Y-21373D02*
X38580Y-21373D01*
X38539Y-20673D02*
X38539Y-21373D01*
X30280Y-21373D02*
X38580Y-21373D01*
X38580Y-21373D02*
X41721Y-21373D01*
X65880Y-10673D02*
X65880Y-10123D01*
X17980Y-21373D02*
X23880Y-21373D01*
X23839Y-20673D02*
X23839Y-21373D01*
X17739Y-20673D02*
X17739Y-21132D01*
X58980Y-21373D02*
X50580Y-21373D01*
X44221Y-20814D02*
X44221Y-21373D01*
X45580Y-22773D02*
X44780Y-22773D01*
X50639Y-21373D02*
X50580Y-21373D01*
X50639Y-20673D02*
X50639Y-21373D01*
X59380Y-10673D02*
X59380Y-10123D01*
X72280Y-10123D02*
X72280Y-10673D01*
X41880Y-20573D02*
X42980Y-20573D01*
X52880Y-10673D02*
X52880Y-10123D01*
X37980Y-10573D02*
X37980Y-10123D01*
G54D25*
X68630Y-10473D02*
X68230Y-10473D01*
X68230Y-10473D02*
X67680Y-11023D01*
X61830Y-10473D02*
X61280Y-11023D01*
X62230Y-10473D02*
X61830Y-10473D01*
X65480Y-14473D02*
X65680Y-14273D01*
X64121Y-15832D02*
X65480Y-14473D01*
X65680Y-12273D02*
X65480Y-12073D01*
X65680Y-14273D02*
X65680Y-12273D01*
X65030Y-11623D02*
X65030Y-10473D01*
X64121Y-20673D02*
X64121Y-15832D01*
X65480Y-12073D02*
X65030Y-11623D01*
X71680Y-09423D02*
X71430Y-09473D01*
X72280Y-09423D02*
X71680Y-09423D01*
X70321Y-16032D02*
X70321Y-20673D01*
X72180Y-14173D02*
X72180Y-12273D01*
X72180Y-12273D02*
X71980Y-12073D01*
X71430Y-10473D02*
X71430Y-11523D01*
X71980Y-12073D02*
X71430Y-11523D01*
X70321Y-16032D02*
X71980Y-14373D01*
X71980Y-14373D02*
X72180Y-14173D01*
X30880Y-09423D02*
X30630Y-09473D01*
X31480Y-09423D02*
X30880Y-09423D01*
X27330Y-10473D02*
X26880Y-10923D01*
X27830Y-10473D02*
X27330Y-10473D01*
X65880Y-09423D02*
X65280Y-09423D01*
X65280Y-09423D02*
X65030Y-09473D01*
G54D24*
X66680Y-11273D02*
X66680Y-11573D01*
X66680Y-13026D02*
X66680Y-13276D01*
X66680Y-11573D02*
X66680Y-13026D01*
X65639Y-11273D02*
X66680Y-11273D01*
X66680Y-13276D02*
X66342Y-13614D01*
X66680Y-09773D02*
X66680Y-11273D01*
G54D25*
X52280Y-09423D02*
X52030Y-09473D01*
X52880Y-09423D02*
X52280Y-09423D01*
X48830Y-10473D02*
X48280Y-11023D01*
X49230Y-10473D02*
X48830Y-10473D01*
X59380Y-09423D02*
X58780Y-09423D01*
X58780Y-09423D02*
X58530Y-09473D01*
X49521Y-20673D02*
X49521Y-19832D01*
X52580Y-16773D02*
X52680Y-16673D01*
X52030Y-11523D02*
X52030Y-10473D01*
X52580Y-12073D02*
X52030Y-11523D01*
X52680Y-12173D02*
X52580Y-12073D01*
X49521Y-19832D02*
X52580Y-16773D01*
X52680Y-16673D02*
X52680Y-12173D01*
X55330Y-10473D02*
X54780Y-11023D01*
X55730Y-10473D02*
X55330Y-10473D01*
X59080Y-14573D02*
X59180Y-14473D01*
X57821Y-20673D02*
X57821Y-15832D01*
X57821Y-15832D02*
X59080Y-14573D01*
X59080Y-12073D02*
X58530Y-11523D01*
X58530Y-11523D02*
X58530Y-10473D01*
X59180Y-12173D02*
X59080Y-12073D01*
X59180Y-14473D02*
X59180Y-12173D01*
X47080Y-12273D02*
X46580Y-12273D01*
X46630Y-12223D02*
X46580Y-12273D01*
X46630Y-09873D02*
X46630Y-12223D01*
X46580Y-12273D02*
X46080Y-12273D01*
X46630Y-12273D02*
X46580Y-12273D01*
X46080Y-12273D02*
X45080Y-12273D01*
X18680Y-09423D02*
X18180Y-09423D01*
X18180Y-09423D02*
X17930Y-09473D01*
G54D24*
X19480Y-11273D02*
X19480Y-11573D01*
X19480Y-09773D02*
X19480Y-11273D01*
X19480Y-13076D02*
X18842Y-13614D01*
X19480Y-11573D02*
X19480Y-13076D01*
X18539Y-11273D02*
X19480Y-11273D01*
G54D25*
X15130Y-10473D02*
X14630Y-10473D01*
X14630Y-10473D02*
X14180Y-10923D01*
X37380Y-09423D02*
X37130Y-09473D01*
X37980Y-09423D02*
X37380Y-09423D01*
G54D24*
X38280Y-11573D02*
X38280Y-13252D01*
X38280Y-13252D02*
X38342Y-13614D01*
X38780Y-09773D02*
X38780Y-10573D01*
X38280Y-11073D02*
X38280Y-11273D01*
X38280Y-11273D02*
X38280Y-11373D01*
X38280Y-11373D02*
X38280Y-11573D01*
X38780Y-10573D02*
X38280Y-11073D01*
X37739Y-11273D02*
X38280Y-11273D01*
G54D25*
X31080Y-14373D02*
X31180Y-14273D01*
X31080Y-11973D02*
X30630Y-11523D01*
X30630Y-10473D02*
X30630Y-11523D01*
X29121Y-16332D02*
X29121Y-20673D01*
X29121Y-16332D02*
X31080Y-14373D01*
X31180Y-12073D02*
X31080Y-11973D01*
X31180Y-14273D02*
X31180Y-12073D01*
X33830Y-10473D02*
X33380Y-10923D01*
X34330Y-10473D02*
X33830Y-10473D01*
X37580Y-14273D02*
X37680Y-14173D01*
X37421Y-20314D02*
X36380Y-19273D01*
X37580Y-11973D02*
X37130Y-11523D01*
X36380Y-15473D02*
X37580Y-14273D01*
X36380Y-19273D02*
X36380Y-15473D01*
X37130Y-10473D02*
X37130Y-11523D01*
X37421Y-20314D02*
X37421Y-20673D01*
X37680Y-12073D02*
X37580Y-11973D01*
X37680Y-14173D02*
X37680Y-12073D01*
X21430Y-10473D02*
X20930Y-10473D01*
X20930Y-10473D02*
X20480Y-10923D01*
X24580Y-14273D02*
X24680Y-14173D01*
X24580Y-11773D02*
X24230Y-11423D01*
X22721Y-16132D02*
X24580Y-14273D01*
X22721Y-20673D02*
X22721Y-16132D01*
X24230Y-11423D02*
X24230Y-10473D01*
X24680Y-11873D02*
X24580Y-11773D01*
X24680Y-14173D02*
X24680Y-11873D01*
X18080Y-14473D02*
X18180Y-14373D01*
X16621Y-15932D02*
X18080Y-14473D01*
X18080Y-11773D02*
X17930Y-11623D01*
X17930Y-10473D02*
X17930Y-11623D01*
X16621Y-15932D02*
X16621Y-20673D01*
X18180Y-11873D02*
X18080Y-11773D01*
X18180Y-14373D02*
X18180Y-11873D01*
X24480Y-09423D02*
X24230Y-09473D01*
X25080Y-09423D02*
X24480Y-09423D01*
G54D24*
X25880Y-09773D02*
X25880Y-11273D01*
X24939Y-11273D02*
X25880Y-11273D01*
X25880Y-11273D02*
X25880Y-11573D01*
X25880Y-13076D02*
X25342Y-13614D01*
X25880Y-11573D02*
X25880Y-13076D01*
X42839Y-21373D02*
X43480Y-21373D01*
G54D25*
X45339Y-22014D02*
X45280Y-22073D01*
X45339Y-21373D02*
X45339Y-22014D01*
G54D24*
X31239Y-11273D02*
X32280Y-11273D01*
X32280Y-13126D02*
X31842Y-13614D01*
X32280Y-11673D02*
X32280Y-13126D01*
X32280Y-09773D02*
X32280Y-11373D01*
X32280Y-11373D02*
X32280Y-11673D01*
X32280Y-11573D02*
X32280Y-11673D01*
X32280Y-11273D02*
X32280Y-11373D01*
X60180Y-11273D02*
X60180Y-11573D01*
X60180Y-09773D02*
X60180Y-11273D01*
X60180Y-13076D02*
X59842Y-13614D01*
X60180Y-11573D02*
X60180Y-13076D01*
X59139Y-11273D02*
X60180Y-11273D01*
X52639Y-11273D02*
X53680Y-11273D01*
X53680Y-11573D02*
X53680Y-13126D01*
X53680Y-09773D02*
X53680Y-11273D01*
X53680Y-11273D02*
X53680Y-11573D01*
X53680Y-13126D02*
X53342Y-13614D01*
X73080Y-11273D02*
X72039Y-11273D01*
X73080Y-13076D02*
X73080Y-13426D01*
X73080Y-11573D02*
X73080Y-13076D01*
X73080Y-09773D02*
X73080Y-11273D01*
X73080Y-11273D02*
X73080Y-11573D01*
X73080Y-13426D02*
X72892Y-13614D01*
M02*
