G04 (created by PCBNEW-RS274X (2012-01-19 BZR 3256)-stable) date 15/05/2012 08:43:50*
G01*
G70*
G90*
%MOIN*%
G04 Gerber Fmt 3.4, Leading zero omitted, Abs format*
%FSLAX34Y34*%
G04 APERTURE LIST*
%ADD10C,0.006000*%
%ADD11C,0.015000*%
%ADD12R,0.056000X0.056000*%
%ADD13R,0.053500X0.053500*%
%ADD14R,0.080000X0.100000*%
%ADD15R,0.100000X0.080000*%
%ADD16C,0.098700*%
%ADD17R,0.082900X0.090900*%
%ADD18R,0.080000X0.080000*%
%ADD19C,0.080000*%
%ADD20C,0.090900*%
%ADD21C,0.083000*%
%ADD22C,0.180000*%
G04 APERTURE END LIST*
G54D10*
G54D11*
X12980Y-08873D02*
X12980Y-08773D01*
X74005Y-08898D02*
X74005Y-08773D01*
X12980Y-08844D02*
X12980Y-25773D01*
X12980Y-25773D02*
X74003Y-25773D01*
X74004Y-08769D02*
X12980Y-08769D01*
X74004Y-25773D02*
X74004Y-08844D01*
G54D12*
X15830Y-10473D03*
X15130Y-10473D03*
X15480Y-09673D03*
X72280Y-10123D03*
X72280Y-09423D03*
X73080Y-09773D03*
X65880Y-10123D03*
X65880Y-09423D03*
X66680Y-09773D03*
X59380Y-10123D03*
X59380Y-09423D03*
X60180Y-09773D03*
X52880Y-10123D03*
X52880Y-09423D03*
X53680Y-09773D03*
X37980Y-10123D03*
X37980Y-09423D03*
X38780Y-09773D03*
X31480Y-10123D03*
X31480Y-09423D03*
X32280Y-09773D03*
X25080Y-10123D03*
X25080Y-09423D03*
X25880Y-09773D03*
X22130Y-10473D03*
X21430Y-10473D03*
X21780Y-09673D03*
X28530Y-10473D03*
X27830Y-10473D03*
X28180Y-09673D03*
X35030Y-10473D03*
X34330Y-10473D03*
X34680Y-09673D03*
X49930Y-10473D03*
X49230Y-10473D03*
X49580Y-09673D03*
X56430Y-10473D03*
X55730Y-10473D03*
X56080Y-09673D03*
X62930Y-10473D03*
X62230Y-10473D03*
X62580Y-09673D03*
X69330Y-10473D03*
X68630Y-10473D03*
X68980Y-09673D03*
X18680Y-10123D03*
X18680Y-09423D03*
X19480Y-09773D03*
G54D13*
X72039Y-11273D03*
X70721Y-11273D03*
X65639Y-11273D03*
X64321Y-11273D03*
X59139Y-11273D03*
X57821Y-11273D03*
X52639Y-11273D03*
X51321Y-11273D03*
X37739Y-11273D03*
X36421Y-11273D03*
X31239Y-11273D03*
X29921Y-11273D03*
X24939Y-11273D03*
X23621Y-11273D03*
X18539Y-11273D03*
X17221Y-11273D03*
G54D14*
X65030Y-10473D03*
X63730Y-10473D03*
X58530Y-10473D03*
X57230Y-10473D03*
X52030Y-10473D03*
X50730Y-10473D03*
X37130Y-10473D03*
X35830Y-10473D03*
X30630Y-10473D03*
X29330Y-10473D03*
X24230Y-10473D03*
X22930Y-10473D03*
X17930Y-10473D03*
X16630Y-10473D03*
G54D15*
X67680Y-09723D03*
X67680Y-11023D03*
X61280Y-09723D03*
X61280Y-11023D03*
X54780Y-09723D03*
X54780Y-11023D03*
X48280Y-09723D03*
X48280Y-11023D03*
X33380Y-09623D03*
X33380Y-10923D03*
X26880Y-09623D03*
X26880Y-10923D03*
G54D14*
X41830Y-11473D03*
X43130Y-11473D03*
X42530Y-12573D03*
X43830Y-12573D03*
X45330Y-09873D03*
X46630Y-09873D03*
G54D15*
X14180Y-09623D03*
X14180Y-10923D03*
X20480Y-09623D03*
X20480Y-10923D03*
G54D14*
X70130Y-09473D03*
X71430Y-09473D03*
X63730Y-09473D03*
X65030Y-09473D03*
X57230Y-09473D03*
X58530Y-09473D03*
X50730Y-09473D03*
X52030Y-09473D03*
X35830Y-09473D03*
X37130Y-09473D03*
X29330Y-09473D03*
X30630Y-09473D03*
X22930Y-09473D03*
X24230Y-09473D03*
X16630Y-09473D03*
X17930Y-09473D03*
X71430Y-10473D03*
X70130Y-10473D03*
G54D16*
X14580Y-22973D03*
X16580Y-22973D03*
X18580Y-22973D03*
X20880Y-22973D03*
X22880Y-22973D03*
X24880Y-22973D03*
X27180Y-22973D03*
X29180Y-22973D03*
X31180Y-22973D03*
X35380Y-22973D03*
X37380Y-22973D03*
X39380Y-22973D03*
X47580Y-22973D03*
X49580Y-22973D03*
X51580Y-22973D03*
X55980Y-22973D03*
X57980Y-22973D03*
X59980Y-22973D03*
X62280Y-22973D03*
X64280Y-22973D03*
X66280Y-22973D03*
X68580Y-22973D03*
X70580Y-22973D03*
X72580Y-22973D03*
G54D17*
X16621Y-20673D03*
X17739Y-20673D03*
X22721Y-20673D03*
X23839Y-20673D03*
X29121Y-20673D03*
X30239Y-20673D03*
X37421Y-20673D03*
X38539Y-20673D03*
X49521Y-20673D03*
X50639Y-20673D03*
X57821Y-20673D03*
X58939Y-20673D03*
X64121Y-20673D03*
X65239Y-20673D03*
X70321Y-20673D03*
X71439Y-20673D03*
G54D18*
X45080Y-16773D03*
G54D19*
X46080Y-16773D03*
X45080Y-17773D03*
X46080Y-17773D03*
X45080Y-18773D03*
X46080Y-18773D03*
G54D18*
X40880Y-16773D03*
G54D19*
X41880Y-16773D03*
X40880Y-17773D03*
X41880Y-17773D03*
X40880Y-18773D03*
X41880Y-18773D03*
G54D20*
X16480Y-12827D03*
G54D21*
X14118Y-13614D03*
X18842Y-13614D03*
X14118Y-18417D03*
X18842Y-18417D03*
G54D20*
X22980Y-12827D03*
G54D21*
X20618Y-13614D03*
X25342Y-13614D03*
X20618Y-18417D03*
X25342Y-18417D03*
G54D20*
X29480Y-12827D03*
G54D21*
X27118Y-13614D03*
X31842Y-13614D03*
X27118Y-18417D03*
X31842Y-18417D03*
G54D20*
X35980Y-12827D03*
G54D21*
X33618Y-13614D03*
X38342Y-13614D03*
X33618Y-18417D03*
X38342Y-18417D03*
G54D20*
X50980Y-12827D03*
G54D21*
X48618Y-13614D03*
X53342Y-13614D03*
X48618Y-18417D03*
X53342Y-18417D03*
G54D20*
X57480Y-12827D03*
G54D21*
X55118Y-13614D03*
X59842Y-13614D03*
X55118Y-18417D03*
X59842Y-18417D03*
G54D20*
X63980Y-12827D03*
G54D21*
X61618Y-13614D03*
X66342Y-13614D03*
X61618Y-18417D03*
X66342Y-18417D03*
G54D20*
X70530Y-12827D03*
G54D21*
X68168Y-13614D03*
X72892Y-13614D03*
X68168Y-18417D03*
X72892Y-18417D03*
G54D18*
X45080Y-14273D03*
G54D19*
X45080Y-13273D03*
X45080Y-12273D03*
G54D18*
X46080Y-14273D03*
G54D19*
X46080Y-13273D03*
X46080Y-12273D03*
G54D18*
X47080Y-14273D03*
G54D19*
X47080Y-13273D03*
X47080Y-12273D03*
G54D18*
X41780Y-14273D03*
G54D19*
X40780Y-14273D03*
G54D17*
X42839Y-21373D03*
X41721Y-21373D03*
X45339Y-21373D03*
X44221Y-21373D03*
G54D18*
X42780Y-14273D03*
G54D19*
X43780Y-14273D03*
G54D22*
X53780Y-23228D03*
X33280Y-23228D03*
M02*
