G04 (created by PCBNEW (2013-mar-13)-testing) date jeu. 09 mai 2013 08:54:36 CEST*
%MOIN*%
G04 Gerber Fmt 3.4, Leading zero omitted, Abs format*
%FSLAX34Y34*%
G01*
G70*
G90*
G04 APERTURE LIST*
%ADD10C,0.005*%
%ADD11C,0.015*%
%ADD12C,0.00787402*%
%ADD13C,0.011811*%
G04 APERTURE END LIST*
G54D10*
G54D11*
X71500Y-62000D02*
X110900Y-62000D01*
X71500Y-28000D02*
X110900Y-28000D01*
X110900Y-28000D02*
X110800Y-28000D01*
X110900Y-62000D02*
X110900Y-28000D01*
X71500Y-62000D02*
X71500Y-28000D01*
G54D12*
X73375Y-46625D02*
X73625Y-46875D01*
X73625Y-46625D02*
X73375Y-46875D01*
X74875Y-50875D02*
X75125Y-51125D01*
X75125Y-50875D02*
X74875Y-51125D01*
X75875Y-57375D02*
X76125Y-57625D01*
X76125Y-57375D02*
X75875Y-57625D01*
X77625Y-50875D02*
X77875Y-51125D01*
X77875Y-50875D02*
X77625Y-51125D01*
X78375Y-57375D02*
X78625Y-57625D01*
X78625Y-57375D02*
X78375Y-57625D01*
X80875Y-50875D02*
X81125Y-51125D01*
X81125Y-50875D02*
X80875Y-51125D01*
X83625Y-50875D02*
X83875Y-51125D01*
X83875Y-50875D02*
X83625Y-51125D01*
X86375Y-55875D02*
X86625Y-56125D01*
X86625Y-55875D02*
X86375Y-56125D01*
X87375Y-51775D02*
X87625Y-52025D01*
X87625Y-51775D02*
X87375Y-52025D01*
X88275Y-55425D02*
X88525Y-55675D01*
X88525Y-55425D02*
X88275Y-55675D01*
X88675Y-42625D02*
X88925Y-42875D01*
X88925Y-42625D02*
X88675Y-42875D01*
X89175Y-42625D02*
X89425Y-42875D01*
X89425Y-42625D02*
X89175Y-42875D01*
X89675Y-42625D02*
X89925Y-42875D01*
X89925Y-42625D02*
X89675Y-42875D01*
X90175Y-42625D02*
X90425Y-42875D01*
X90425Y-42625D02*
X90175Y-42875D01*
X90625Y-51825D02*
X90875Y-52075D01*
X90875Y-51825D02*
X90625Y-52075D01*
X90675Y-44125D02*
X90925Y-44375D01*
X90925Y-44125D02*
X90675Y-44375D01*
X91175Y-44125D02*
X91425Y-44375D01*
X91425Y-44125D02*
X91175Y-44375D01*
X91625Y-56375D02*
X91875Y-56625D01*
X91875Y-56375D02*
X91625Y-56625D01*
X91675Y-44125D02*
X91925Y-44375D01*
X91925Y-44125D02*
X91675Y-44375D01*
X92175Y-44125D02*
X92425Y-44375D01*
X92425Y-44125D02*
X92175Y-44375D01*
X92375Y-47975D02*
X92625Y-48225D01*
X92625Y-47975D02*
X92375Y-48225D01*
X92375Y-55125D02*
X92625Y-55375D01*
X92625Y-55125D02*
X92375Y-55375D01*
X93075Y-50475D02*
X93325Y-50725D01*
X93325Y-50475D02*
X93075Y-50725D01*
X93375Y-39875D02*
X93625Y-40125D01*
X93625Y-39875D02*
X93375Y-40125D01*
X93375Y-43775D02*
X93625Y-44025D01*
X93625Y-43775D02*
X93375Y-44025D01*
X93575Y-50475D02*
X93825Y-50725D01*
X93825Y-50475D02*
X93575Y-50725D01*
X93625Y-46975D02*
X93875Y-47225D01*
X93875Y-46975D02*
X93625Y-47225D01*
X93625Y-52625D02*
X93875Y-52875D01*
X93875Y-52625D02*
X93625Y-52875D01*
X93775Y-48875D02*
X94025Y-49125D01*
X94025Y-48875D02*
X93775Y-49125D01*
X94275Y-47475D02*
X94525Y-47725D01*
X94525Y-47475D02*
X94275Y-47725D01*
X95175Y-49675D02*
X95425Y-49925D01*
X95425Y-49675D02*
X95175Y-49925D01*
X97275Y-46675D02*
X97525Y-46925D01*
X97525Y-46675D02*
X97275Y-46925D01*
X99775Y-47425D02*
X100025Y-47675D01*
X100025Y-47425D02*
X99775Y-47675D01*
X101025Y-49175D02*
X101275Y-49425D01*
X101275Y-49175D02*
X101025Y-49425D01*
X101675Y-48525D02*
X101925Y-48775D01*
X101925Y-48525D02*
X101675Y-48775D01*
X103475Y-46475D02*
X103725Y-46725D01*
X103725Y-46475D02*
X103475Y-46725D01*
X105375Y-53575D02*
X105625Y-53825D01*
X105625Y-53575D02*
X105375Y-53825D01*
X98826Y-56400D02*
G75*
G03X98826Y-56400I-176J0D01*
G74*
G01*
X99326Y-55400D02*
G75*
G03X99326Y-55400I-176J0D01*
G74*
G01*
X99826Y-56400D02*
G75*
G03X99826Y-56400I-176J0D01*
G74*
G01*
X100326Y-55400D02*
G75*
G03X100326Y-55400I-176J0D01*
G74*
G01*
X100826Y-56400D02*
G75*
G03X100826Y-56400I-176J0D01*
G74*
G01*
X101326Y-55400D02*
G75*
G03X101326Y-55400I-176J0D01*
G74*
G01*
X101826Y-56400D02*
G75*
G03X101826Y-56400I-176J0D01*
G74*
G01*
X102326Y-55400D02*
G75*
G03X102326Y-55400I-176J0D01*
G74*
G01*
X105426Y-56400D02*
G75*
G03X105426Y-56400I-176J0D01*
G74*
G01*
X105926Y-55400D02*
G75*
G03X105926Y-55400I-176J0D01*
G74*
G01*
X106426Y-56400D02*
G75*
G03X106426Y-56400I-176J0D01*
G74*
G01*
X106926Y-55400D02*
G75*
G03X106926Y-55400I-176J0D01*
G74*
G01*
X107426Y-56400D02*
G75*
G03X107426Y-56400I-176J0D01*
G74*
G01*
X107926Y-55400D02*
G75*
G03X107926Y-55400I-176J0D01*
G74*
G01*
X108426Y-56400D02*
G75*
G03X108426Y-56400I-176J0D01*
G74*
G01*
X108926Y-55400D02*
G75*
G03X108926Y-55400I-176J0D01*
G74*
G01*
X77150Y-46700D02*
X77150Y-47100D01*
X76950Y-46900D02*
X77350Y-46900D01*
X77150Y-47700D02*
X77150Y-48100D01*
X76950Y-47900D02*
X77350Y-47900D01*
X78150Y-46700D02*
X78150Y-47100D01*
X77950Y-46900D02*
X78350Y-46900D01*
X78150Y-47700D02*
X78150Y-48100D01*
X77950Y-47900D02*
X78350Y-47900D01*
X79150Y-46700D02*
X79150Y-47100D01*
X78950Y-46900D02*
X79350Y-46900D01*
X79150Y-47700D02*
X79150Y-48100D01*
X78950Y-47900D02*
X79350Y-47900D01*
X80150Y-46700D02*
X80150Y-47100D01*
X79950Y-46900D02*
X80350Y-46900D01*
X80150Y-47700D02*
X80150Y-48100D01*
X79950Y-47900D02*
X80350Y-47900D01*
X81150Y-46700D02*
X81150Y-47100D01*
X80950Y-46900D02*
X81350Y-46900D01*
X81150Y-47700D02*
X81150Y-48100D01*
X80950Y-47900D02*
X81350Y-47900D01*
X82150Y-46700D02*
X82150Y-47100D01*
X81950Y-46900D02*
X82350Y-46900D01*
X82150Y-47700D02*
X82150Y-48100D01*
X81950Y-47900D02*
X82350Y-47900D01*
X83150Y-46700D02*
X83150Y-47100D01*
X82950Y-46900D02*
X83350Y-46900D01*
X83150Y-47700D02*
X83150Y-48100D01*
X82950Y-47900D02*
X83350Y-47900D01*
X84150Y-46700D02*
X84150Y-47100D01*
X83950Y-46900D02*
X84350Y-46900D01*
X84150Y-47700D02*
X84150Y-48100D01*
X83950Y-47900D02*
X84350Y-47900D01*
X85150Y-46700D02*
X85150Y-47100D01*
X84950Y-46900D02*
X85350Y-46900D01*
X85150Y-47700D02*
X85150Y-48100D01*
X84950Y-47900D02*
X85350Y-47900D01*
X86150Y-46700D02*
X86150Y-47100D01*
X85950Y-46900D02*
X86350Y-46900D01*
X86150Y-47700D02*
X86150Y-48100D01*
X85950Y-47900D02*
X86350Y-47900D01*
X87900Y-46750D02*
X87900Y-47150D01*
X87700Y-46950D02*
X88100Y-46950D01*
X87900Y-47750D02*
X87900Y-48150D01*
X87700Y-47950D02*
X88100Y-47950D01*
X88900Y-46750D02*
X88900Y-47150D01*
X88700Y-46950D02*
X89100Y-46950D01*
X88900Y-47750D02*
X88900Y-48150D01*
X88700Y-47950D02*
X89100Y-47950D01*
X89900Y-46750D02*
X89900Y-47150D01*
X89700Y-46950D02*
X90100Y-46950D01*
X89900Y-47750D02*
X89900Y-48150D01*
X89700Y-47950D02*
X90100Y-47950D01*
X96950Y-49100D02*
X96950Y-49500D01*
X96750Y-49300D02*
X97150Y-49300D01*
X96950Y-50100D02*
X96950Y-50500D01*
X96750Y-50300D02*
X97150Y-50300D01*
X97600Y-52500D02*
X97600Y-52900D01*
X97400Y-52700D02*
X97800Y-52700D01*
X97950Y-49100D02*
X97950Y-49500D01*
X97750Y-49300D02*
X98150Y-49300D01*
X97950Y-50100D02*
X97950Y-50500D01*
X97750Y-50300D02*
X98150Y-50300D01*
X98600Y-52500D02*
X98600Y-52900D01*
X98400Y-52700D02*
X98800Y-52700D01*
X98950Y-49100D02*
X98950Y-49500D01*
X98750Y-49300D02*
X99150Y-49300D01*
X98950Y-50100D02*
X98950Y-50500D01*
X98750Y-50300D02*
X99150Y-50300D01*
X99600Y-52500D02*
X99600Y-52900D01*
X99400Y-52700D02*
X99800Y-52700D01*
X99950Y-49100D02*
X99950Y-49500D01*
X99750Y-49300D02*
X100150Y-49300D01*
X99950Y-50100D02*
X99950Y-50500D01*
X99750Y-50300D02*
X100150Y-50300D01*
X101600Y-52500D02*
X101600Y-52900D01*
X101400Y-52700D02*
X101800Y-52700D01*
X102600Y-52500D02*
X102600Y-52900D01*
X102400Y-52700D02*
X102800Y-52700D01*
X105400Y-51700D02*
X105400Y-52100D01*
X105200Y-51900D02*
X105600Y-51900D01*
X105400Y-52700D02*
X105400Y-53100D01*
X105200Y-52900D02*
X105600Y-52900D01*
X106400Y-51700D02*
X106400Y-52100D01*
X106200Y-51900D02*
X106600Y-51900D01*
X106400Y-52700D02*
X106400Y-53100D01*
X106200Y-52900D02*
X106600Y-52900D01*
X107400Y-51700D02*
X107400Y-52100D01*
X107200Y-51900D02*
X107600Y-51900D01*
X107400Y-52700D02*
X107400Y-53100D01*
X107200Y-52900D02*
X107600Y-52900D01*
X108200Y-43350D02*
X108200Y-43750D01*
X108000Y-43550D02*
X108400Y-43550D01*
X109200Y-43350D02*
X109200Y-43750D01*
X109000Y-43550D02*
X109400Y-43550D01*
X73606Y-34456D02*
X73606Y-34149D01*
X73299Y-34149D01*
X73299Y-34456D01*
X73606Y-34456D01*
X73606Y-41740D02*
X73606Y-41433D01*
X73299Y-41433D01*
X73299Y-41740D01*
X73606Y-41740D01*
X75456Y-35834D02*
X75456Y-35527D01*
X75149Y-35527D01*
X75149Y-35834D01*
X75456Y-35834D01*
X75456Y-41740D02*
X75456Y-41433D01*
X75149Y-41433D01*
X75149Y-41740D01*
X75456Y-41740D01*
X77606Y-34456D02*
X77606Y-34149D01*
X77299Y-34149D01*
X77299Y-34456D01*
X77606Y-34456D01*
X77606Y-41740D02*
X77606Y-41433D01*
X77299Y-41433D01*
X77299Y-41740D01*
X77606Y-41740D01*
X79456Y-35834D02*
X79456Y-35527D01*
X79149Y-35527D01*
X79149Y-35834D01*
X79456Y-35834D01*
X79456Y-41740D02*
X79456Y-41433D01*
X79149Y-41433D01*
X79149Y-41740D01*
X79456Y-41740D01*
X81606Y-34456D02*
X81606Y-34149D01*
X81299Y-34149D01*
X81299Y-34456D01*
X81606Y-34456D01*
X81606Y-41740D02*
X81606Y-41433D01*
X81299Y-41433D01*
X81299Y-41740D01*
X81606Y-41740D01*
X83456Y-35834D02*
X83456Y-35527D01*
X83149Y-35527D01*
X83149Y-35834D01*
X83456Y-35834D01*
X83456Y-41740D02*
X83456Y-41433D01*
X83149Y-41433D01*
X83149Y-41740D01*
X83456Y-41740D01*
X85606Y-34456D02*
X85606Y-34149D01*
X85299Y-34149D01*
X85299Y-34456D01*
X85606Y-34456D01*
X85606Y-41740D02*
X85606Y-41433D01*
X85299Y-41433D01*
X85299Y-41740D01*
X85606Y-41740D01*
X87456Y-35834D02*
X87456Y-35527D01*
X87149Y-35527D01*
X87149Y-35834D01*
X87456Y-35834D01*
X87456Y-41740D02*
X87456Y-41433D01*
X87149Y-41433D01*
X87149Y-41740D01*
X87456Y-41740D01*
X95106Y-34456D02*
X95106Y-34149D01*
X94799Y-34149D01*
X94799Y-34456D01*
X95106Y-34456D01*
X95106Y-41740D02*
X95106Y-41433D01*
X94799Y-41433D01*
X94799Y-41740D01*
X95106Y-41740D01*
X96956Y-35834D02*
X96956Y-35527D01*
X96649Y-35527D01*
X96649Y-35834D01*
X96956Y-35834D01*
X96956Y-41740D02*
X96956Y-41433D01*
X96649Y-41433D01*
X96649Y-41740D01*
X96956Y-41740D01*
X99106Y-34456D02*
X99106Y-34149D01*
X98799Y-34149D01*
X98799Y-34456D01*
X99106Y-34456D01*
X99106Y-41740D02*
X99106Y-41433D01*
X98799Y-41433D01*
X98799Y-41740D01*
X99106Y-41740D01*
X100956Y-35834D02*
X100956Y-35527D01*
X100649Y-35527D01*
X100649Y-35834D01*
X100956Y-35834D01*
X100956Y-41740D02*
X100956Y-41433D01*
X100649Y-41433D01*
X100649Y-41740D01*
X100956Y-41740D01*
X103106Y-34456D02*
X103106Y-34149D01*
X102799Y-34149D01*
X102799Y-34456D01*
X103106Y-34456D01*
X103106Y-41740D02*
X103106Y-41433D01*
X102799Y-41433D01*
X102799Y-41740D01*
X103106Y-41740D01*
X104956Y-35834D02*
X104956Y-35527D01*
X104649Y-35527D01*
X104649Y-35834D01*
X104956Y-35834D01*
X104956Y-41740D02*
X104956Y-41433D01*
X104649Y-41433D01*
X104649Y-41740D01*
X104956Y-41740D01*
X107106Y-34456D02*
X107106Y-34149D01*
X106799Y-34149D01*
X106799Y-34456D01*
X107106Y-34456D01*
X107106Y-41740D02*
X107106Y-41433D01*
X106799Y-41433D01*
X106799Y-41740D01*
X107106Y-41740D01*
X108956Y-35834D02*
X108956Y-35527D01*
X108649Y-35527D01*
X108649Y-35834D01*
X108956Y-35834D01*
X108956Y-41740D02*
X108956Y-41433D01*
X108649Y-41433D01*
X108649Y-41740D01*
X108956Y-41740D01*
X73020Y-31259D02*
X73279Y-31000D01*
X73020Y-30740D01*
X72760Y-31000D01*
X73020Y-31259D01*
X73500Y-59259D02*
X73759Y-59000D01*
X73500Y-58740D01*
X73240Y-59000D01*
X73500Y-59259D01*
X74990Y-31259D02*
X75249Y-31000D01*
X74990Y-30740D01*
X74730Y-31000D01*
X74990Y-31259D01*
X75015Y-59259D02*
X75275Y-59000D01*
X75015Y-58740D01*
X74755Y-59000D01*
X75015Y-59259D01*
X76531Y-59259D02*
X76791Y-59000D01*
X76531Y-58740D01*
X76271Y-59000D01*
X76531Y-59259D01*
X77820Y-31259D02*
X78079Y-31000D01*
X77820Y-30740D01*
X77560Y-31000D01*
X77820Y-31259D01*
X78047Y-59259D02*
X78307Y-59000D01*
X78047Y-58740D01*
X77787Y-59000D01*
X78047Y-59259D01*
X79562Y-59259D02*
X79822Y-59000D01*
X79562Y-58740D01*
X79302Y-59000D01*
X79562Y-59259D01*
X79790Y-31259D02*
X80049Y-31000D01*
X79790Y-30740D01*
X79530Y-31000D01*
X79790Y-31259D01*
X82000Y-59259D02*
X82259Y-59000D01*
X82000Y-58740D01*
X81740Y-59000D01*
X82000Y-59259D01*
X82620Y-31259D02*
X82879Y-31000D01*
X82620Y-30740D01*
X82360Y-31000D01*
X82620Y-31259D01*
X83515Y-59259D02*
X83775Y-59000D01*
X83515Y-58740D01*
X83255Y-59000D01*
X83515Y-59259D01*
X84590Y-31259D02*
X84849Y-31000D01*
X84590Y-30740D01*
X84330Y-31000D01*
X84590Y-31259D01*
X85031Y-59259D02*
X85291Y-59000D01*
X85031Y-58740D01*
X84771Y-59000D01*
X85031Y-59259D01*
X86547Y-59259D02*
X86807Y-59000D01*
X86547Y-58740D01*
X86287Y-59000D01*
X86547Y-59259D01*
X87420Y-31259D02*
X87679Y-31000D01*
X87420Y-30740D01*
X87160Y-31000D01*
X87420Y-31259D01*
X88062Y-59259D02*
X88322Y-59000D01*
X88062Y-58740D01*
X87802Y-59000D01*
X88062Y-59259D01*
X89390Y-31259D02*
X89649Y-31000D01*
X89390Y-30740D01*
X89130Y-31000D01*
X89390Y-31259D01*
X93020Y-31259D02*
X93279Y-31000D01*
X93020Y-30740D01*
X92760Y-31000D01*
X93020Y-31259D01*
X94350Y-59209D02*
X94609Y-58950D01*
X94350Y-58690D01*
X94090Y-58950D01*
X94350Y-59209D01*
X94990Y-31259D02*
X95249Y-31000D01*
X94990Y-30740D01*
X94730Y-31000D01*
X94990Y-31259D01*
X95865Y-59209D02*
X96125Y-58950D01*
X95865Y-58690D01*
X95605Y-58950D01*
X95865Y-59209D01*
X97820Y-31259D02*
X98079Y-31000D01*
X97820Y-30740D01*
X97560Y-31000D01*
X97820Y-31259D01*
X99790Y-31259D02*
X100049Y-31000D01*
X99790Y-30740D01*
X99530Y-31000D01*
X99790Y-31259D01*
X102620Y-31259D02*
X102879Y-31000D01*
X102620Y-30740D01*
X102360Y-31000D01*
X102620Y-31259D01*
X104590Y-31259D02*
X104849Y-31000D01*
X104590Y-30740D01*
X104330Y-31000D01*
X104590Y-31259D01*
X107420Y-31259D02*
X107679Y-31000D01*
X107420Y-30740D01*
X107160Y-31000D01*
X107420Y-31259D01*
X109390Y-31259D02*
X109649Y-31000D01*
X109390Y-30740D01*
X109130Y-31000D01*
X109390Y-31259D01*
G54D13*
X72493Y-63908D02*
X72493Y-62727D01*
X72774Y-62727D01*
X72943Y-62783D01*
X73056Y-62896D01*
X73112Y-63008D01*
X73168Y-63233D01*
X73168Y-63402D01*
X73112Y-63627D01*
X73056Y-63739D01*
X72943Y-63852D01*
X72774Y-63908D01*
X72493Y-63908D01*
X73674Y-63908D02*
X73674Y-63121D01*
X73674Y-63346D02*
X73730Y-63233D01*
X73787Y-63177D01*
X73899Y-63121D01*
X74012Y-63121D01*
X74405Y-63908D02*
X74405Y-63121D01*
X74405Y-62727D02*
X74349Y-62783D01*
X74405Y-62839D01*
X74462Y-62783D01*
X74405Y-62727D01*
X74405Y-62839D01*
X75137Y-63908D02*
X75024Y-63852D01*
X74968Y-63739D01*
X74968Y-62727D01*
X75755Y-63908D02*
X75643Y-63852D01*
X75586Y-63739D01*
X75586Y-62727D01*
X77105Y-63908D02*
X77105Y-62727D01*
X77499Y-63571D01*
X77892Y-62727D01*
X77892Y-63908D01*
X78961Y-63908D02*
X78961Y-63289D01*
X78905Y-63177D01*
X78792Y-63121D01*
X78567Y-63121D01*
X78455Y-63177D01*
X78961Y-63852D02*
X78849Y-63908D01*
X78567Y-63908D01*
X78455Y-63852D01*
X78399Y-63739D01*
X78399Y-63627D01*
X78455Y-63514D01*
X78567Y-63458D01*
X78849Y-63458D01*
X78961Y-63402D01*
X79523Y-63121D02*
X79523Y-64302D01*
X79523Y-63177D02*
X79636Y-63121D01*
X79861Y-63121D01*
X79973Y-63177D01*
X80030Y-63233D01*
X80086Y-63346D01*
X80086Y-63683D01*
X80030Y-63796D01*
X79973Y-63852D01*
X79861Y-63908D01*
X79636Y-63908D01*
X79523Y-63852D01*
X80592Y-63796D02*
X80648Y-63852D01*
X80592Y-63908D01*
X80536Y-63852D01*
X80592Y-63796D01*
X80592Y-63908D01*
X80592Y-63177D02*
X80648Y-63233D01*
X80592Y-63289D01*
X80536Y-63233D01*
X80592Y-63177D01*
X80592Y-63289D01*
X71174Y-65729D02*
X71424Y-65979D01*
X71424Y-65729D02*
X71174Y-65979D01*
X72718Y-65207D02*
X72831Y-65207D01*
X72943Y-65263D01*
X72999Y-65320D01*
X73056Y-65432D01*
X73112Y-65657D01*
X73112Y-65938D01*
X73056Y-66163D01*
X72999Y-66276D01*
X72943Y-66332D01*
X72831Y-66388D01*
X72718Y-66388D01*
X72606Y-66332D01*
X72549Y-66276D01*
X72493Y-66163D01*
X72437Y-65938D01*
X72437Y-65657D01*
X72493Y-65432D01*
X72549Y-65320D01*
X72606Y-65263D01*
X72718Y-65207D01*
X73618Y-66276D02*
X73674Y-66332D01*
X73618Y-66388D01*
X73562Y-66332D01*
X73618Y-66276D01*
X73618Y-66388D01*
X74687Y-65207D02*
X74462Y-65207D01*
X74349Y-65263D01*
X74293Y-65320D01*
X74180Y-65488D01*
X74124Y-65713D01*
X74124Y-66163D01*
X74180Y-66276D01*
X74237Y-66332D01*
X74349Y-66388D01*
X74574Y-66388D01*
X74687Y-66332D01*
X74743Y-66276D01*
X74799Y-66163D01*
X74799Y-65882D01*
X74743Y-65770D01*
X74687Y-65713D01*
X74574Y-65657D01*
X74349Y-65657D01*
X74237Y-65713D01*
X74180Y-65770D01*
X74124Y-65882D01*
X75811Y-65601D02*
X75811Y-66388D01*
X75530Y-65151D02*
X75249Y-65995D01*
X75980Y-65995D01*
X76430Y-66388D02*
X76430Y-65601D01*
X76430Y-65713D02*
X76486Y-65657D01*
X76599Y-65601D01*
X76768Y-65601D01*
X76880Y-65657D01*
X76936Y-65770D01*
X76936Y-66388D01*
X76936Y-65770D02*
X76993Y-65657D01*
X77105Y-65601D01*
X77274Y-65601D01*
X77386Y-65657D01*
X77442Y-65770D01*
X77442Y-66388D01*
X78005Y-66388D02*
X78005Y-65601D01*
X78005Y-65713D02*
X78061Y-65657D01*
X78174Y-65601D01*
X78342Y-65601D01*
X78455Y-65657D01*
X78511Y-65770D01*
X78511Y-66388D01*
X78511Y-65770D02*
X78567Y-65657D01*
X78680Y-65601D01*
X78849Y-65601D01*
X78961Y-65657D01*
X79017Y-65770D01*
X79017Y-66388D01*
X81323Y-65151D02*
X80311Y-66670D01*
X82842Y-65207D02*
X82954Y-65207D01*
X83067Y-65263D01*
X83123Y-65320D01*
X83179Y-65432D01*
X83236Y-65657D01*
X83236Y-65938D01*
X83179Y-66163D01*
X83123Y-66276D01*
X83067Y-66332D01*
X82954Y-66388D01*
X82842Y-66388D01*
X82729Y-66332D01*
X82673Y-66276D01*
X82617Y-66163D01*
X82561Y-65938D01*
X82561Y-65657D01*
X82617Y-65432D01*
X82673Y-65320D01*
X82729Y-65263D01*
X82842Y-65207D01*
X83742Y-66276D02*
X83798Y-66332D01*
X83742Y-66388D01*
X83685Y-66332D01*
X83742Y-66276D01*
X83742Y-66388D01*
X84529Y-65207D02*
X84642Y-65207D01*
X84754Y-65263D01*
X84810Y-65320D01*
X84867Y-65432D01*
X84923Y-65657D01*
X84923Y-65938D01*
X84867Y-66163D01*
X84810Y-66276D01*
X84754Y-66332D01*
X84642Y-66388D01*
X84529Y-66388D01*
X84417Y-66332D01*
X84360Y-66276D01*
X84304Y-66163D01*
X84248Y-65938D01*
X84248Y-65657D01*
X84304Y-65432D01*
X84360Y-65320D01*
X84417Y-65263D01*
X84529Y-65207D01*
X85373Y-65320D02*
X85429Y-65263D01*
X85541Y-65207D01*
X85823Y-65207D01*
X85935Y-65263D01*
X85991Y-65320D01*
X86048Y-65432D01*
X86048Y-65545D01*
X85991Y-65713D01*
X85317Y-66388D01*
X86048Y-66388D01*
X87116Y-65207D02*
X86554Y-65207D01*
X86498Y-65770D01*
X86554Y-65713D01*
X86666Y-65657D01*
X86948Y-65657D01*
X87060Y-65713D01*
X87116Y-65770D01*
X87173Y-65882D01*
X87173Y-66163D01*
X87116Y-66276D01*
X87060Y-66332D01*
X86948Y-66388D01*
X86666Y-66388D01*
X86554Y-66332D01*
X86498Y-66276D01*
X87622Y-65207D02*
X87622Y-65432D01*
X88072Y-65207D02*
X88072Y-65432D01*
X89816Y-66838D02*
X89760Y-66782D01*
X89647Y-66613D01*
X89591Y-66501D01*
X89535Y-66332D01*
X89478Y-66051D01*
X89478Y-65826D01*
X89535Y-65545D01*
X89591Y-65376D01*
X89647Y-65263D01*
X89760Y-65095D01*
X89816Y-65039D01*
X90153Y-65207D02*
X90885Y-65207D01*
X90491Y-65657D01*
X90660Y-65657D01*
X90772Y-65713D01*
X90828Y-65770D01*
X90885Y-65882D01*
X90885Y-66163D01*
X90828Y-66276D01*
X90772Y-66332D01*
X90660Y-66388D01*
X90322Y-66388D01*
X90210Y-66332D01*
X90153Y-66276D01*
X91278Y-65207D02*
X92066Y-65207D01*
X91559Y-66388D01*
X93416Y-66388D02*
X93416Y-65207D01*
X93922Y-66388D02*
X93922Y-65770D01*
X93865Y-65657D01*
X93753Y-65601D01*
X93584Y-65601D01*
X93472Y-65657D01*
X93416Y-65713D01*
X94653Y-66388D02*
X94540Y-66332D01*
X94484Y-66276D01*
X94428Y-66163D01*
X94428Y-65826D01*
X94484Y-65713D01*
X94540Y-65657D01*
X94653Y-65601D01*
X94822Y-65601D01*
X94934Y-65657D01*
X94990Y-65713D01*
X95047Y-65826D01*
X95047Y-66163D01*
X94990Y-66276D01*
X94934Y-66332D01*
X94822Y-66388D01*
X94653Y-66388D01*
X95721Y-66388D02*
X95609Y-66332D01*
X95553Y-66220D01*
X95553Y-65207D01*
X96621Y-66332D02*
X96509Y-66388D01*
X96284Y-66388D01*
X96171Y-66332D01*
X96115Y-66220D01*
X96115Y-65770D01*
X96171Y-65657D01*
X96284Y-65601D01*
X96509Y-65601D01*
X96621Y-65657D01*
X96678Y-65770D01*
X96678Y-65882D01*
X96115Y-65995D01*
X97128Y-66332D02*
X97240Y-66388D01*
X97465Y-66388D01*
X97577Y-66332D01*
X97634Y-66220D01*
X97634Y-66163D01*
X97577Y-66051D01*
X97465Y-65995D01*
X97296Y-65995D01*
X97184Y-65938D01*
X97128Y-65826D01*
X97128Y-65770D01*
X97184Y-65657D01*
X97296Y-65601D01*
X97465Y-65601D01*
X97577Y-65657D01*
X98027Y-66838D02*
X98084Y-66782D01*
X98196Y-66613D01*
X98252Y-66501D01*
X98309Y-66332D01*
X98365Y-66051D01*
X98365Y-65826D01*
X98309Y-65545D01*
X98252Y-65376D01*
X98196Y-65263D01*
X98084Y-65095D01*
X98027Y-65039D01*
G54D12*
X71424Y-67413D02*
G75*
G03X71424Y-67413I-176J0D01*
G74*
G01*
G54D13*
X72718Y-66766D02*
X72831Y-66766D01*
X72943Y-66823D01*
X72999Y-66879D01*
X73056Y-66991D01*
X73112Y-67216D01*
X73112Y-67497D01*
X73056Y-67722D01*
X72999Y-67835D01*
X72943Y-67891D01*
X72831Y-67947D01*
X72718Y-67947D01*
X72606Y-67891D01*
X72549Y-67835D01*
X72493Y-67722D01*
X72437Y-67497D01*
X72437Y-67216D01*
X72493Y-66991D01*
X72549Y-66879D01*
X72606Y-66823D01*
X72718Y-66766D01*
X73618Y-67835D02*
X73674Y-67891D01*
X73618Y-67947D01*
X73562Y-67891D01*
X73618Y-67835D01*
X73618Y-67947D01*
X74237Y-67947D02*
X74462Y-67947D01*
X74574Y-67891D01*
X74630Y-67835D01*
X74743Y-67666D01*
X74799Y-67441D01*
X74799Y-66991D01*
X74743Y-66879D01*
X74687Y-66823D01*
X74574Y-66766D01*
X74349Y-66766D01*
X74237Y-66823D01*
X74180Y-66879D01*
X74124Y-66991D01*
X74124Y-67272D01*
X74180Y-67385D01*
X74237Y-67441D01*
X74349Y-67497D01*
X74574Y-67497D01*
X74687Y-67441D01*
X74743Y-67385D01*
X74799Y-67272D01*
X75530Y-66766D02*
X75643Y-66766D01*
X75755Y-66823D01*
X75811Y-66879D01*
X75868Y-66991D01*
X75924Y-67216D01*
X75924Y-67497D01*
X75868Y-67722D01*
X75811Y-67835D01*
X75755Y-67891D01*
X75643Y-67947D01*
X75530Y-67947D01*
X75418Y-67891D01*
X75362Y-67835D01*
X75305Y-67722D01*
X75249Y-67497D01*
X75249Y-67216D01*
X75305Y-66991D01*
X75362Y-66879D01*
X75418Y-66823D01*
X75530Y-66766D01*
X76430Y-67947D02*
X76430Y-67160D01*
X76430Y-67272D02*
X76486Y-67216D01*
X76599Y-67160D01*
X76768Y-67160D01*
X76880Y-67216D01*
X76936Y-67329D01*
X76936Y-67947D01*
X76936Y-67329D02*
X76993Y-67216D01*
X77105Y-67160D01*
X77274Y-67160D01*
X77386Y-67216D01*
X77442Y-67329D01*
X77442Y-67947D01*
X78005Y-67947D02*
X78005Y-67160D01*
X78005Y-67272D02*
X78061Y-67216D01*
X78174Y-67160D01*
X78342Y-67160D01*
X78455Y-67216D01*
X78511Y-67329D01*
X78511Y-67947D01*
X78511Y-67329D02*
X78567Y-67216D01*
X78680Y-67160D01*
X78849Y-67160D01*
X78961Y-67216D01*
X79017Y-67329D01*
X79017Y-67947D01*
X81323Y-66710D02*
X80311Y-68229D01*
X82842Y-66766D02*
X82954Y-66766D01*
X83067Y-66823D01*
X83123Y-66879D01*
X83179Y-66991D01*
X83236Y-67216D01*
X83236Y-67497D01*
X83179Y-67722D01*
X83123Y-67835D01*
X83067Y-67891D01*
X82954Y-67947D01*
X82842Y-67947D01*
X82729Y-67891D01*
X82673Y-67835D01*
X82617Y-67722D01*
X82561Y-67497D01*
X82561Y-67216D01*
X82617Y-66991D01*
X82673Y-66879D01*
X82729Y-66823D01*
X82842Y-66766D01*
X83742Y-67835D02*
X83798Y-67891D01*
X83742Y-67947D01*
X83685Y-67891D01*
X83742Y-67835D01*
X83742Y-67947D01*
X84529Y-66766D02*
X84642Y-66766D01*
X84754Y-66823D01*
X84810Y-66879D01*
X84867Y-66991D01*
X84923Y-67216D01*
X84923Y-67497D01*
X84867Y-67722D01*
X84810Y-67835D01*
X84754Y-67891D01*
X84642Y-67947D01*
X84529Y-67947D01*
X84417Y-67891D01*
X84360Y-67835D01*
X84304Y-67722D01*
X84248Y-67497D01*
X84248Y-67216D01*
X84304Y-66991D01*
X84360Y-66879D01*
X84417Y-66823D01*
X84529Y-66766D01*
X85317Y-66766D02*
X86048Y-66766D01*
X85654Y-67216D01*
X85823Y-67216D01*
X85935Y-67272D01*
X85991Y-67329D01*
X86048Y-67441D01*
X86048Y-67722D01*
X85991Y-67835D01*
X85935Y-67891D01*
X85823Y-67947D01*
X85485Y-67947D01*
X85373Y-67891D01*
X85317Y-67835D01*
X87116Y-66766D02*
X86554Y-66766D01*
X86498Y-67329D01*
X86554Y-67272D01*
X86666Y-67216D01*
X86948Y-67216D01*
X87060Y-67272D01*
X87116Y-67329D01*
X87173Y-67441D01*
X87173Y-67722D01*
X87116Y-67835D01*
X87060Y-67891D01*
X86948Y-67947D01*
X86666Y-67947D01*
X86554Y-67891D01*
X86498Y-67835D01*
X87622Y-66766D02*
X87622Y-66991D01*
X88072Y-66766D02*
X88072Y-66991D01*
X89816Y-68397D02*
X89760Y-68341D01*
X89647Y-68172D01*
X89591Y-68060D01*
X89535Y-67891D01*
X89478Y-67610D01*
X89478Y-67385D01*
X89535Y-67104D01*
X89591Y-66935D01*
X89647Y-66823D01*
X89760Y-66654D01*
X89816Y-66598D01*
X90885Y-67947D02*
X90210Y-67947D01*
X90547Y-67947D02*
X90547Y-66766D01*
X90435Y-66935D01*
X90322Y-67048D01*
X90210Y-67104D01*
X91897Y-66766D02*
X91672Y-66766D01*
X91559Y-66823D01*
X91503Y-66879D01*
X91391Y-67048D01*
X91335Y-67272D01*
X91335Y-67722D01*
X91391Y-67835D01*
X91447Y-67891D01*
X91559Y-67947D01*
X91784Y-67947D01*
X91897Y-67891D01*
X91953Y-67835D01*
X92009Y-67722D01*
X92009Y-67441D01*
X91953Y-67329D01*
X91897Y-67272D01*
X91784Y-67216D01*
X91559Y-67216D01*
X91447Y-67272D01*
X91391Y-67329D01*
X91335Y-67441D01*
X93416Y-67947D02*
X93416Y-66766D01*
X93922Y-67947D02*
X93922Y-67329D01*
X93865Y-67216D01*
X93753Y-67160D01*
X93584Y-67160D01*
X93472Y-67216D01*
X93416Y-67272D01*
X94653Y-67947D02*
X94540Y-67891D01*
X94484Y-67835D01*
X94428Y-67722D01*
X94428Y-67385D01*
X94484Y-67272D01*
X94540Y-67216D01*
X94653Y-67160D01*
X94822Y-67160D01*
X94934Y-67216D01*
X94990Y-67272D01*
X95047Y-67385D01*
X95047Y-67722D01*
X94990Y-67835D01*
X94934Y-67891D01*
X94822Y-67947D01*
X94653Y-67947D01*
X95721Y-67947D02*
X95609Y-67891D01*
X95553Y-67779D01*
X95553Y-66766D01*
X96621Y-67891D02*
X96509Y-67947D01*
X96284Y-67947D01*
X96171Y-67891D01*
X96115Y-67779D01*
X96115Y-67329D01*
X96171Y-67216D01*
X96284Y-67160D01*
X96509Y-67160D01*
X96621Y-67216D01*
X96678Y-67329D01*
X96678Y-67441D01*
X96115Y-67554D01*
X97128Y-67891D02*
X97240Y-67947D01*
X97465Y-67947D01*
X97577Y-67891D01*
X97634Y-67779D01*
X97634Y-67722D01*
X97577Y-67610D01*
X97465Y-67554D01*
X97296Y-67554D01*
X97184Y-67497D01*
X97128Y-67385D01*
X97128Y-67329D01*
X97184Y-67216D01*
X97296Y-67160D01*
X97465Y-67160D01*
X97577Y-67216D01*
X98027Y-68397D02*
X98084Y-68341D01*
X98196Y-68172D01*
X98252Y-68060D01*
X98309Y-67891D01*
X98365Y-67610D01*
X98365Y-67385D01*
X98309Y-67104D01*
X98252Y-66935D01*
X98196Y-66823D01*
X98084Y-66654D01*
X98027Y-66598D01*
X71224Y-68772D02*
X71224Y-69172D01*
X71024Y-68972D02*
X71424Y-68972D01*
X73112Y-69506D02*
X72437Y-69506D01*
X72774Y-69506D02*
X72774Y-68325D01*
X72662Y-68494D01*
X72549Y-68607D01*
X72437Y-68663D01*
X73618Y-69394D02*
X73674Y-69450D01*
X73618Y-69506D01*
X73562Y-69450D01*
X73618Y-69394D01*
X73618Y-69506D01*
X74405Y-68325D02*
X74518Y-68325D01*
X74630Y-68382D01*
X74687Y-68438D01*
X74743Y-68550D01*
X74799Y-68775D01*
X74799Y-69057D01*
X74743Y-69281D01*
X74687Y-69394D01*
X74630Y-69450D01*
X74518Y-69506D01*
X74405Y-69506D01*
X74293Y-69450D01*
X74237Y-69394D01*
X74180Y-69281D01*
X74124Y-69057D01*
X74124Y-68775D01*
X74180Y-68550D01*
X74237Y-68438D01*
X74293Y-68382D01*
X74405Y-68325D01*
X75249Y-68438D02*
X75305Y-68382D01*
X75418Y-68325D01*
X75699Y-68325D01*
X75811Y-68382D01*
X75868Y-68438D01*
X75924Y-68550D01*
X75924Y-68663D01*
X75868Y-68832D01*
X75193Y-69506D01*
X75924Y-69506D01*
X76430Y-69506D02*
X76430Y-68719D01*
X76430Y-68832D02*
X76486Y-68775D01*
X76599Y-68719D01*
X76768Y-68719D01*
X76880Y-68775D01*
X76936Y-68888D01*
X76936Y-69506D01*
X76936Y-68888D02*
X76993Y-68775D01*
X77105Y-68719D01*
X77274Y-68719D01*
X77386Y-68775D01*
X77442Y-68888D01*
X77442Y-69506D01*
X78005Y-69506D02*
X78005Y-68719D01*
X78005Y-68832D02*
X78061Y-68775D01*
X78174Y-68719D01*
X78342Y-68719D01*
X78455Y-68775D01*
X78511Y-68888D01*
X78511Y-69506D01*
X78511Y-68888D02*
X78567Y-68775D01*
X78680Y-68719D01*
X78849Y-68719D01*
X78961Y-68775D01*
X79017Y-68888D01*
X79017Y-69506D01*
X81323Y-68269D02*
X80311Y-69788D01*
X82842Y-68325D02*
X82954Y-68325D01*
X83067Y-68382D01*
X83123Y-68438D01*
X83179Y-68550D01*
X83236Y-68775D01*
X83236Y-69057D01*
X83179Y-69281D01*
X83123Y-69394D01*
X83067Y-69450D01*
X82954Y-69506D01*
X82842Y-69506D01*
X82729Y-69450D01*
X82673Y-69394D01*
X82617Y-69281D01*
X82561Y-69057D01*
X82561Y-68775D01*
X82617Y-68550D01*
X82673Y-68438D01*
X82729Y-68382D01*
X82842Y-68325D01*
X83742Y-69394D02*
X83798Y-69450D01*
X83742Y-69506D01*
X83685Y-69450D01*
X83742Y-69394D01*
X83742Y-69506D01*
X84529Y-68325D02*
X84642Y-68325D01*
X84754Y-68382D01*
X84810Y-68438D01*
X84867Y-68550D01*
X84923Y-68775D01*
X84923Y-69057D01*
X84867Y-69281D01*
X84810Y-69394D01*
X84754Y-69450D01*
X84642Y-69506D01*
X84529Y-69506D01*
X84417Y-69450D01*
X84360Y-69394D01*
X84304Y-69281D01*
X84248Y-69057D01*
X84248Y-68775D01*
X84304Y-68550D01*
X84360Y-68438D01*
X84417Y-68382D01*
X84529Y-68325D01*
X85935Y-68719D02*
X85935Y-69506D01*
X85654Y-68269D02*
X85373Y-69113D01*
X86104Y-69113D01*
X86779Y-68325D02*
X86891Y-68325D01*
X87004Y-68382D01*
X87060Y-68438D01*
X87116Y-68550D01*
X87173Y-68775D01*
X87173Y-69057D01*
X87116Y-69281D01*
X87060Y-69394D01*
X87004Y-69450D01*
X86891Y-69506D01*
X86779Y-69506D01*
X86666Y-69450D01*
X86610Y-69394D01*
X86554Y-69281D01*
X86498Y-69057D01*
X86498Y-68775D01*
X86554Y-68550D01*
X86610Y-68438D01*
X86666Y-68382D01*
X86779Y-68325D01*
X87622Y-68325D02*
X87622Y-68550D01*
X88072Y-68325D02*
X88072Y-68550D01*
X89816Y-69956D02*
X89760Y-69900D01*
X89647Y-69731D01*
X89591Y-69619D01*
X89535Y-69450D01*
X89478Y-69169D01*
X89478Y-68944D01*
X89535Y-68663D01*
X89591Y-68494D01*
X89647Y-68382D01*
X89760Y-68213D01*
X89816Y-68157D01*
X90772Y-68719D02*
X90772Y-69506D01*
X90491Y-68269D02*
X90210Y-69113D01*
X90941Y-69113D01*
X91278Y-68325D02*
X92066Y-68325D01*
X91559Y-69506D01*
X93416Y-69506D02*
X93416Y-68325D01*
X93922Y-69506D02*
X93922Y-68888D01*
X93865Y-68775D01*
X93753Y-68719D01*
X93584Y-68719D01*
X93472Y-68775D01*
X93416Y-68832D01*
X94653Y-69506D02*
X94540Y-69450D01*
X94484Y-69394D01*
X94428Y-69281D01*
X94428Y-68944D01*
X94484Y-68832D01*
X94540Y-68775D01*
X94653Y-68719D01*
X94822Y-68719D01*
X94934Y-68775D01*
X94990Y-68832D01*
X95047Y-68944D01*
X95047Y-69281D01*
X94990Y-69394D01*
X94934Y-69450D01*
X94822Y-69506D01*
X94653Y-69506D01*
X95721Y-69506D02*
X95609Y-69450D01*
X95553Y-69338D01*
X95553Y-68325D01*
X96621Y-69450D02*
X96509Y-69506D01*
X96284Y-69506D01*
X96171Y-69450D01*
X96115Y-69338D01*
X96115Y-68888D01*
X96171Y-68775D01*
X96284Y-68719D01*
X96509Y-68719D01*
X96621Y-68775D01*
X96678Y-68888D01*
X96678Y-69000D01*
X96115Y-69113D01*
X97128Y-69450D02*
X97240Y-69506D01*
X97465Y-69506D01*
X97577Y-69450D01*
X97634Y-69338D01*
X97634Y-69281D01*
X97577Y-69169D01*
X97465Y-69113D01*
X97296Y-69113D01*
X97184Y-69057D01*
X97128Y-68944D01*
X97128Y-68888D01*
X97184Y-68775D01*
X97296Y-68719D01*
X97465Y-68719D01*
X97577Y-68775D01*
X98027Y-69956D02*
X98084Y-69900D01*
X98196Y-69731D01*
X98252Y-69619D01*
X98309Y-69450D01*
X98365Y-69169D01*
X98365Y-68944D01*
X98309Y-68663D01*
X98252Y-68494D01*
X98196Y-68382D01*
X98084Y-68213D01*
X98027Y-68157D01*
G54D12*
X71361Y-70684D02*
X71361Y-70378D01*
X71055Y-70378D01*
X71055Y-70684D01*
X71361Y-70684D01*
G54D13*
X73112Y-71066D02*
X72437Y-71066D01*
X72774Y-71066D02*
X72774Y-69884D01*
X72662Y-70053D01*
X72549Y-70166D01*
X72437Y-70222D01*
X73618Y-70953D02*
X73674Y-71009D01*
X73618Y-71066D01*
X73562Y-71009D01*
X73618Y-70953D01*
X73618Y-71066D01*
X74799Y-71066D02*
X74124Y-71066D01*
X74462Y-71066D02*
X74462Y-69884D01*
X74349Y-70053D01*
X74237Y-70166D01*
X74124Y-70222D01*
X75530Y-69884D02*
X75643Y-69884D01*
X75755Y-69941D01*
X75811Y-69997D01*
X75868Y-70109D01*
X75924Y-70334D01*
X75924Y-70616D01*
X75868Y-70841D01*
X75811Y-70953D01*
X75755Y-71009D01*
X75643Y-71066D01*
X75530Y-71066D01*
X75418Y-71009D01*
X75362Y-70953D01*
X75305Y-70841D01*
X75249Y-70616D01*
X75249Y-70334D01*
X75305Y-70109D01*
X75362Y-69997D01*
X75418Y-69941D01*
X75530Y-69884D01*
X76430Y-71066D02*
X76430Y-70278D01*
X76430Y-70391D02*
X76486Y-70334D01*
X76599Y-70278D01*
X76768Y-70278D01*
X76880Y-70334D01*
X76936Y-70447D01*
X76936Y-71066D01*
X76936Y-70447D02*
X76993Y-70334D01*
X77105Y-70278D01*
X77274Y-70278D01*
X77386Y-70334D01*
X77442Y-70447D01*
X77442Y-71066D01*
X78005Y-71066D02*
X78005Y-70278D01*
X78005Y-70391D02*
X78061Y-70334D01*
X78174Y-70278D01*
X78342Y-70278D01*
X78455Y-70334D01*
X78511Y-70447D01*
X78511Y-71066D01*
X78511Y-70447D02*
X78567Y-70334D01*
X78680Y-70278D01*
X78849Y-70278D01*
X78961Y-70334D01*
X79017Y-70447D01*
X79017Y-71066D01*
X81323Y-69828D02*
X80311Y-71347D01*
X82842Y-69884D02*
X82954Y-69884D01*
X83067Y-69941D01*
X83123Y-69997D01*
X83179Y-70109D01*
X83236Y-70334D01*
X83236Y-70616D01*
X83179Y-70841D01*
X83123Y-70953D01*
X83067Y-71009D01*
X82954Y-71066D01*
X82842Y-71066D01*
X82729Y-71009D01*
X82673Y-70953D01*
X82617Y-70841D01*
X82561Y-70616D01*
X82561Y-70334D01*
X82617Y-70109D01*
X82673Y-69997D01*
X82729Y-69941D01*
X82842Y-69884D01*
X83742Y-70953D02*
X83798Y-71009D01*
X83742Y-71066D01*
X83685Y-71009D01*
X83742Y-70953D01*
X83742Y-71066D01*
X84529Y-69884D02*
X84642Y-69884D01*
X84754Y-69941D01*
X84810Y-69997D01*
X84867Y-70109D01*
X84923Y-70334D01*
X84923Y-70616D01*
X84867Y-70841D01*
X84810Y-70953D01*
X84754Y-71009D01*
X84642Y-71066D01*
X84529Y-71066D01*
X84417Y-71009D01*
X84360Y-70953D01*
X84304Y-70841D01*
X84248Y-70616D01*
X84248Y-70334D01*
X84304Y-70109D01*
X84360Y-69997D01*
X84417Y-69941D01*
X84529Y-69884D01*
X85935Y-70278D02*
X85935Y-71066D01*
X85654Y-69828D02*
X85373Y-70672D01*
X86104Y-70672D01*
X86441Y-69884D02*
X87173Y-69884D01*
X86779Y-70334D01*
X86948Y-70334D01*
X87060Y-70391D01*
X87116Y-70447D01*
X87173Y-70559D01*
X87173Y-70841D01*
X87116Y-70953D01*
X87060Y-71009D01*
X86948Y-71066D01*
X86610Y-71066D01*
X86498Y-71009D01*
X86441Y-70953D01*
X87622Y-69884D02*
X87622Y-70109D01*
X88072Y-69884D02*
X88072Y-70109D01*
X89816Y-71515D02*
X89760Y-71459D01*
X89647Y-71290D01*
X89591Y-71178D01*
X89535Y-71009D01*
X89478Y-70728D01*
X89478Y-70503D01*
X89535Y-70222D01*
X89591Y-70053D01*
X89647Y-69941D01*
X89760Y-69772D01*
X89816Y-69716D01*
X90153Y-69884D02*
X90885Y-69884D01*
X90491Y-70334D01*
X90660Y-70334D01*
X90772Y-70391D01*
X90828Y-70447D01*
X90885Y-70559D01*
X90885Y-70841D01*
X90828Y-70953D01*
X90772Y-71009D01*
X90660Y-71066D01*
X90322Y-71066D01*
X90210Y-71009D01*
X90153Y-70953D01*
X91335Y-69997D02*
X91391Y-69941D01*
X91503Y-69884D01*
X91784Y-69884D01*
X91897Y-69941D01*
X91953Y-69997D01*
X92009Y-70109D01*
X92009Y-70222D01*
X91953Y-70391D01*
X91278Y-71066D01*
X92009Y-71066D01*
X93416Y-71066D02*
X93416Y-69884D01*
X93922Y-71066D02*
X93922Y-70447D01*
X93865Y-70334D01*
X93753Y-70278D01*
X93584Y-70278D01*
X93472Y-70334D01*
X93416Y-70391D01*
X94653Y-71066D02*
X94540Y-71009D01*
X94484Y-70953D01*
X94428Y-70841D01*
X94428Y-70503D01*
X94484Y-70391D01*
X94540Y-70334D01*
X94653Y-70278D01*
X94822Y-70278D01*
X94934Y-70334D01*
X94990Y-70391D01*
X95047Y-70503D01*
X95047Y-70841D01*
X94990Y-70953D01*
X94934Y-71009D01*
X94822Y-71066D01*
X94653Y-71066D01*
X95721Y-71066D02*
X95609Y-71009D01*
X95553Y-70897D01*
X95553Y-69884D01*
X96621Y-71009D02*
X96509Y-71066D01*
X96284Y-71066D01*
X96171Y-71009D01*
X96115Y-70897D01*
X96115Y-70447D01*
X96171Y-70334D01*
X96284Y-70278D01*
X96509Y-70278D01*
X96621Y-70334D01*
X96678Y-70447D01*
X96678Y-70559D01*
X96115Y-70672D01*
X97128Y-71009D02*
X97240Y-71066D01*
X97465Y-71066D01*
X97577Y-71009D01*
X97634Y-70897D01*
X97634Y-70841D01*
X97577Y-70728D01*
X97465Y-70672D01*
X97296Y-70672D01*
X97184Y-70616D01*
X97128Y-70503D01*
X97128Y-70447D01*
X97184Y-70334D01*
X97296Y-70278D01*
X97465Y-70278D01*
X97577Y-70334D01*
X98027Y-71515D02*
X98084Y-71459D01*
X98196Y-71290D01*
X98252Y-71178D01*
X98309Y-71009D01*
X98365Y-70728D01*
X98365Y-70503D01*
X98309Y-70222D01*
X98252Y-70053D01*
X98196Y-69941D01*
X98084Y-69772D01*
X98027Y-69716D01*
G54D12*
X71164Y-72350D02*
X71424Y-72090D01*
X71164Y-71830D01*
X70905Y-72090D01*
X71164Y-72350D01*
G54D13*
X73112Y-72625D02*
X72437Y-72625D01*
X72774Y-72625D02*
X72774Y-71443D01*
X72662Y-71612D01*
X72549Y-71725D01*
X72437Y-71781D01*
X73618Y-72512D02*
X73674Y-72568D01*
X73618Y-72625D01*
X73562Y-72568D01*
X73618Y-72512D01*
X73618Y-72625D01*
X74068Y-71443D02*
X74799Y-71443D01*
X74405Y-71893D01*
X74574Y-71893D01*
X74687Y-71950D01*
X74743Y-72006D01*
X74799Y-72118D01*
X74799Y-72400D01*
X74743Y-72512D01*
X74687Y-72568D01*
X74574Y-72625D01*
X74237Y-72625D01*
X74124Y-72568D01*
X74068Y-72512D01*
X75249Y-71556D02*
X75305Y-71500D01*
X75418Y-71443D01*
X75699Y-71443D01*
X75811Y-71500D01*
X75868Y-71556D01*
X75924Y-71668D01*
X75924Y-71781D01*
X75868Y-71950D01*
X75193Y-72625D01*
X75924Y-72625D01*
X76430Y-72625D02*
X76430Y-71837D01*
X76430Y-71950D02*
X76486Y-71893D01*
X76599Y-71837D01*
X76768Y-71837D01*
X76880Y-71893D01*
X76936Y-72006D01*
X76936Y-72625D01*
X76936Y-72006D02*
X76993Y-71893D01*
X77105Y-71837D01*
X77274Y-71837D01*
X77386Y-71893D01*
X77442Y-72006D01*
X77442Y-72625D01*
X78005Y-72625D02*
X78005Y-71837D01*
X78005Y-71950D02*
X78061Y-71893D01*
X78174Y-71837D01*
X78342Y-71837D01*
X78455Y-71893D01*
X78511Y-72006D01*
X78511Y-72625D01*
X78511Y-72006D02*
X78567Y-71893D01*
X78680Y-71837D01*
X78849Y-71837D01*
X78961Y-71893D01*
X79017Y-72006D01*
X79017Y-72625D01*
X81323Y-71387D02*
X80311Y-72906D01*
X82842Y-71443D02*
X82954Y-71443D01*
X83067Y-71500D01*
X83123Y-71556D01*
X83179Y-71668D01*
X83236Y-71893D01*
X83236Y-72175D01*
X83179Y-72400D01*
X83123Y-72512D01*
X83067Y-72568D01*
X82954Y-72625D01*
X82842Y-72625D01*
X82729Y-72568D01*
X82673Y-72512D01*
X82617Y-72400D01*
X82561Y-72175D01*
X82561Y-71893D01*
X82617Y-71668D01*
X82673Y-71556D01*
X82729Y-71500D01*
X82842Y-71443D01*
X83742Y-72512D02*
X83798Y-72568D01*
X83742Y-72625D01*
X83685Y-72568D01*
X83742Y-72512D01*
X83742Y-72625D01*
X84529Y-71443D02*
X84642Y-71443D01*
X84754Y-71500D01*
X84810Y-71556D01*
X84867Y-71668D01*
X84923Y-71893D01*
X84923Y-72175D01*
X84867Y-72400D01*
X84810Y-72512D01*
X84754Y-72568D01*
X84642Y-72625D01*
X84529Y-72625D01*
X84417Y-72568D01*
X84360Y-72512D01*
X84304Y-72400D01*
X84248Y-72175D01*
X84248Y-71893D01*
X84304Y-71668D01*
X84360Y-71556D01*
X84417Y-71500D01*
X84529Y-71443D01*
X85991Y-71443D02*
X85429Y-71443D01*
X85373Y-72006D01*
X85429Y-71950D01*
X85541Y-71893D01*
X85823Y-71893D01*
X85935Y-71950D01*
X85991Y-72006D01*
X86048Y-72118D01*
X86048Y-72400D01*
X85991Y-72512D01*
X85935Y-72568D01*
X85823Y-72625D01*
X85541Y-72625D01*
X85429Y-72568D01*
X85373Y-72512D01*
X86498Y-71556D02*
X86554Y-71500D01*
X86666Y-71443D01*
X86948Y-71443D01*
X87060Y-71500D01*
X87116Y-71556D01*
X87173Y-71668D01*
X87173Y-71781D01*
X87116Y-71950D01*
X86441Y-72625D01*
X87173Y-72625D01*
X87622Y-71443D02*
X87622Y-71668D01*
X88072Y-71443D02*
X88072Y-71668D01*
X89816Y-73074D02*
X89760Y-73018D01*
X89647Y-72850D01*
X89591Y-72737D01*
X89535Y-72568D01*
X89478Y-72287D01*
X89478Y-72062D01*
X89535Y-71781D01*
X89591Y-71612D01*
X89647Y-71500D01*
X89760Y-71331D01*
X89816Y-71275D01*
X90210Y-71556D02*
X90266Y-71500D01*
X90378Y-71443D01*
X90660Y-71443D01*
X90772Y-71500D01*
X90828Y-71556D01*
X90885Y-71668D01*
X90885Y-71781D01*
X90828Y-71950D01*
X90153Y-72625D01*
X90885Y-72625D01*
X91559Y-71950D02*
X91447Y-71893D01*
X91391Y-71837D01*
X91335Y-71725D01*
X91335Y-71668D01*
X91391Y-71556D01*
X91447Y-71500D01*
X91559Y-71443D01*
X91784Y-71443D01*
X91897Y-71500D01*
X91953Y-71556D01*
X92009Y-71668D01*
X92009Y-71725D01*
X91953Y-71837D01*
X91897Y-71893D01*
X91784Y-71950D01*
X91559Y-71950D01*
X91447Y-72006D01*
X91391Y-72062D01*
X91335Y-72175D01*
X91335Y-72400D01*
X91391Y-72512D01*
X91447Y-72568D01*
X91559Y-72625D01*
X91784Y-72625D01*
X91897Y-72568D01*
X91953Y-72512D01*
X92009Y-72400D01*
X92009Y-72175D01*
X91953Y-72062D01*
X91897Y-72006D01*
X91784Y-71950D01*
X93416Y-72625D02*
X93416Y-71443D01*
X93922Y-72625D02*
X93922Y-72006D01*
X93865Y-71893D01*
X93753Y-71837D01*
X93584Y-71837D01*
X93472Y-71893D01*
X93416Y-71950D01*
X94653Y-72625D02*
X94540Y-72568D01*
X94484Y-72512D01*
X94428Y-72400D01*
X94428Y-72062D01*
X94484Y-71950D01*
X94540Y-71893D01*
X94653Y-71837D01*
X94822Y-71837D01*
X94934Y-71893D01*
X94990Y-71950D01*
X95047Y-72062D01*
X95047Y-72400D01*
X94990Y-72512D01*
X94934Y-72568D01*
X94822Y-72625D01*
X94653Y-72625D01*
X95721Y-72625D02*
X95609Y-72568D01*
X95553Y-72456D01*
X95553Y-71443D01*
X96621Y-72568D02*
X96509Y-72625D01*
X96284Y-72625D01*
X96171Y-72568D01*
X96115Y-72456D01*
X96115Y-72006D01*
X96171Y-71893D01*
X96284Y-71837D01*
X96509Y-71837D01*
X96621Y-71893D01*
X96678Y-72006D01*
X96678Y-72118D01*
X96115Y-72231D01*
X97128Y-72568D02*
X97240Y-72625D01*
X97465Y-72625D01*
X97577Y-72568D01*
X97634Y-72456D01*
X97634Y-72400D01*
X97577Y-72287D01*
X97465Y-72231D01*
X97296Y-72231D01*
X97184Y-72175D01*
X97128Y-72062D01*
X97128Y-72006D01*
X97184Y-71893D01*
X97296Y-71837D01*
X97465Y-71837D01*
X97577Y-71893D01*
X98027Y-73074D02*
X98084Y-73018D01*
X98196Y-72850D01*
X98252Y-72737D01*
X98309Y-72568D01*
X98365Y-72287D01*
X98365Y-72062D01*
X98309Y-71781D01*
X98252Y-71612D01*
X98196Y-71500D01*
X98084Y-71331D01*
X98027Y-71275D01*
M02*
