G04 (created by PCBNEW (2013-mar-13)-testing) date jeu. 09 mai 2013 09:34:03 CEST*
%MOIN*%
G04 Gerber Fmt 3.4, Leading zero omitted, Abs format*
%FSLAX34Y34*%
G01*
G70*
G90*
G04 APERTURE LIST*
%ADD10C,2.3622e-06*%
%ADD11C,0.015*%
%ADD12R,0.08X0.08*%
%ADD13C,0.08*%
%ADD14O,0.098X0.176*%
%ADD15C,0.1637*%
%ADD16R,0.0791X0.0791*%
%ADD17C,0.0791*%
%ADD18C,0.09*%
%ADD19R,0.09X0.09*%
%ADD20C,0.083*%
%ADD21C,0.12*%
G04 APERTURE END LIST*
G54D10*
G54D11*
X71500Y-62000D02*
X110900Y-62000D01*
X71500Y-28000D02*
X110900Y-28000D01*
X110900Y-28000D02*
X110800Y-28000D01*
X110900Y-62000D02*
X110900Y-28000D01*
X71500Y-62000D02*
X71500Y-28000D01*
G54D12*
X77150Y-47900D03*
G54D13*
X77150Y-46900D03*
X78150Y-47900D03*
X78150Y-46900D03*
X79150Y-47900D03*
X79150Y-46900D03*
X80150Y-47900D03*
X80150Y-46900D03*
X81150Y-47900D03*
X81150Y-46900D03*
X82150Y-47900D03*
X82150Y-46900D03*
X83150Y-47900D03*
X83150Y-46900D03*
X84150Y-47900D03*
X84150Y-46900D03*
X85150Y-47900D03*
X85150Y-46900D03*
X86150Y-47900D03*
X86150Y-46900D03*
G54D12*
X102600Y-52700D03*
G54D13*
X101600Y-52700D03*
G54D14*
X82000Y-59000D03*
X83515Y-59000D03*
X85031Y-59000D03*
X86547Y-59000D03*
X88062Y-59000D03*
X73500Y-59000D03*
X75015Y-59000D03*
X76531Y-59000D03*
X78047Y-59000D03*
X79562Y-59000D03*
G54D12*
X107400Y-51900D03*
G54D13*
X107400Y-52900D03*
X106400Y-51900D03*
X106400Y-52900D03*
X105400Y-51900D03*
X105400Y-52900D03*
G54D14*
X89390Y-31000D03*
X87420Y-31000D03*
X84590Y-31000D03*
X82620Y-31000D03*
X79790Y-31000D03*
X77820Y-31000D03*
X94990Y-31000D03*
X93020Y-31000D03*
X74990Y-31000D03*
X73020Y-31000D03*
X99790Y-31000D03*
X97820Y-31000D03*
X109390Y-31000D03*
X107420Y-31000D03*
X104590Y-31000D03*
X102620Y-31000D03*
G54D12*
X99950Y-50300D03*
G54D13*
X99950Y-49300D03*
G54D12*
X98950Y-50300D03*
G54D13*
X98950Y-49300D03*
G54D12*
X96950Y-50300D03*
G54D13*
X96950Y-49300D03*
G54D12*
X108200Y-43550D03*
G54D13*
X109200Y-43550D03*
G54D12*
X97950Y-50300D03*
G54D13*
X97950Y-49300D03*
G54D15*
X102738Y-58900D03*
X98065Y-58900D03*
G54D16*
X98650Y-56400D03*
G54D17*
X99150Y-55400D03*
X99650Y-56400D03*
X100150Y-55400D03*
X100650Y-56400D03*
X101150Y-55400D03*
X101650Y-56400D03*
X102150Y-55400D03*
G54D15*
X109338Y-58900D03*
X104665Y-58900D03*
G54D16*
X105250Y-56400D03*
G54D17*
X105750Y-55400D03*
X106250Y-56400D03*
X106750Y-55400D03*
X107250Y-56400D03*
X107750Y-55400D03*
X108250Y-56400D03*
X108750Y-55400D03*
G54D12*
X89900Y-46950D03*
G54D13*
X89900Y-47950D03*
X88900Y-46950D03*
X88900Y-47950D03*
X87900Y-46950D03*
X87900Y-47950D03*
G54D18*
X97600Y-52700D03*
X98600Y-52700D03*
G54D19*
X99600Y-52700D03*
G54D20*
X73453Y-41587D03*
X75303Y-41587D03*
G54D21*
X75303Y-35681D03*
X73453Y-34303D03*
G54D20*
X77453Y-41587D03*
X79303Y-41587D03*
G54D21*
X79303Y-35681D03*
X77453Y-34303D03*
G54D20*
X81453Y-41587D03*
X83303Y-41587D03*
G54D21*
X83303Y-35681D03*
X81453Y-34303D03*
G54D20*
X85453Y-41587D03*
X87303Y-41587D03*
G54D21*
X87303Y-35681D03*
X85453Y-34303D03*
G54D20*
X94953Y-41587D03*
X96803Y-41587D03*
G54D21*
X96803Y-35681D03*
X94953Y-34303D03*
G54D20*
X98953Y-41587D03*
X100803Y-41587D03*
G54D21*
X100803Y-35681D03*
X98953Y-34303D03*
G54D20*
X102953Y-41587D03*
X104803Y-41587D03*
G54D21*
X104803Y-35681D03*
X102953Y-34303D03*
G54D20*
X106953Y-41587D03*
X108803Y-41587D03*
G54D21*
X108803Y-35681D03*
X106953Y-34303D03*
G54D14*
X94350Y-58950D03*
X95865Y-58950D03*
M02*
