G04 (created by PCBNEW (2013-mar-13)-testing) date jeu. 20 juin 2013 21:39:04 CEST*
%MOIN*%
G04 Gerber Fmt 3.4, Leading zero omitted, Abs format*
%FSLAX34Y34*%
G01*
G70*
G90*
G04 APERTURE LIST*
%ADD10C,0.005906*%
%ADD11C,0.015000*%
%ADD12C,0.063000*%
%ADD13C,0.100000*%
%ADD14O,0.078000X0.156000*%
%ADD15R,0.060000X0.080000*%
%ADD16R,0.080000X0.060000*%
%ADD17C,0.070000*%
%ADD18R,0.070000X0.070000*%
%ADD19R,0.090000X0.062000*%
%ADD20R,0.060000X0.060000*%
%ADD21C,0.060000*%
%ADD22R,0.070900X0.062900*%
%ADD23R,0.062000X0.090000*%
%ADD24R,0.017700X0.078700*%
%ADD25R,0.078700X0.017700*%
%ADD26R,0.030000X0.078740*%
%ADD27C,0.143700*%
%ADD28R,0.059100X0.059100*%
%ADD29C,0.059100*%
%ADD30C,0.035000*%
%ADD31C,0.019700*%
%ADD32C,0.011811*%
%ADD33C,0.010000*%
G04 APERTURE END LIST*
G54D10*
G54D11*
X71500Y-62000D02*
X110900Y-62000D01*
X71500Y-28000D02*
X110900Y-28000D01*
X110900Y-28000D02*
X110800Y-28000D01*
X110900Y-62000D02*
X110900Y-28000D01*
X71500Y-62000D02*
X71500Y-28000D01*
G54D12*
X92250Y-41350D03*
X95242Y-41350D03*
G54D13*
X95242Y-36350D03*
X92250Y-35350D03*
G54D12*
X97100Y-41350D03*
X100092Y-41350D03*
G54D13*
X100092Y-36350D03*
X97100Y-35350D03*
G54D12*
X101950Y-41350D03*
X104942Y-41350D03*
G54D13*
X104942Y-36350D03*
X101950Y-35350D03*
G54D12*
X106800Y-41350D03*
X109792Y-41350D03*
G54D13*
X109792Y-36350D03*
X106800Y-35350D03*
G54D14*
X109390Y-31889D03*
X107420Y-31889D03*
X104590Y-31889D03*
X102620Y-31889D03*
X99790Y-31889D03*
X97820Y-31889D03*
X94990Y-31889D03*
X93020Y-31889D03*
X89390Y-31889D03*
X87420Y-31889D03*
X84590Y-31889D03*
X82620Y-31889D03*
X79790Y-31889D03*
X77820Y-31889D03*
X74990Y-31889D03*
X73020Y-31889D03*
G54D12*
X87150Y-41350D03*
X90142Y-41350D03*
G54D13*
X90142Y-36350D03*
X87150Y-35350D03*
G54D12*
X82250Y-41350D03*
X85242Y-41350D03*
G54D13*
X85242Y-36350D03*
X82250Y-35350D03*
G54D12*
X77350Y-41350D03*
X80342Y-41350D03*
G54D13*
X80342Y-36350D03*
X77350Y-35350D03*
G54D12*
X72450Y-41350D03*
X75442Y-41350D03*
G54D13*
X75442Y-36350D03*
X72450Y-35350D03*
G54D15*
X93900Y-50700D03*
X92600Y-50700D03*
G54D14*
X94400Y-59645D03*
X95915Y-59645D03*
G54D16*
X106600Y-47350D03*
X106600Y-48650D03*
X107600Y-47350D03*
X107600Y-48650D03*
G54D17*
X97775Y-52450D03*
X98775Y-52450D03*
G54D18*
X99775Y-52450D03*
G54D15*
X73650Y-49750D03*
X72350Y-49750D03*
G54D19*
X72550Y-46600D03*
X72550Y-47600D03*
X72550Y-48500D03*
X75750Y-48500D03*
X75750Y-47500D03*
X75750Y-46500D03*
G54D20*
X100725Y-49150D03*
G54D21*
X100725Y-50150D03*
X99725Y-49150D03*
X99725Y-50150D03*
X98725Y-49150D03*
X98725Y-50150D03*
G54D15*
X91150Y-55500D03*
X89850Y-55500D03*
X87450Y-56500D03*
X88750Y-56500D03*
X95000Y-56300D03*
X93700Y-56300D03*
X81050Y-56500D03*
X82350Y-56500D03*
X74600Y-56500D03*
X75900Y-56500D03*
G54D16*
X108550Y-48650D03*
X108550Y-47350D03*
G54D15*
X77850Y-56500D03*
X79150Y-56500D03*
G54D16*
X107050Y-44825D03*
X107050Y-46125D03*
G54D15*
X94150Y-44800D03*
X92850Y-44800D03*
G54D16*
X102450Y-48600D03*
X102450Y-47300D03*
X104600Y-48650D03*
X104600Y-47350D03*
X105600Y-48650D03*
X105600Y-47350D03*
G54D15*
X84350Y-56500D03*
X85650Y-56500D03*
G54D20*
X99350Y-46750D03*
G54D21*
X99350Y-45750D03*
G54D20*
X105725Y-45000D03*
G54D21*
X105725Y-46000D03*
G54D20*
X98350Y-46750D03*
G54D21*
X98350Y-45750D03*
G54D20*
X100350Y-46750D03*
G54D21*
X100350Y-45750D03*
G54D20*
X101350Y-46750D03*
G54D21*
X101350Y-45750D03*
G54D22*
X103500Y-47441D03*
X103500Y-48559D03*
X108200Y-46059D03*
X108200Y-44941D03*
X109100Y-46059D03*
X109100Y-44941D03*
G54D20*
X107400Y-51112D03*
G54D21*
X107400Y-52112D03*
X106400Y-51112D03*
X106400Y-52112D03*
X105400Y-51112D03*
X105400Y-52112D03*
G54D14*
X73500Y-59645D03*
X75015Y-59645D03*
X76531Y-59645D03*
X78047Y-59645D03*
X79562Y-59645D03*
X82000Y-59645D03*
X83515Y-59645D03*
X85031Y-59645D03*
X86547Y-59645D03*
X88062Y-59645D03*
G54D23*
X73600Y-55100D03*
X74600Y-55100D03*
X75500Y-55100D03*
X75500Y-51900D03*
X74500Y-51900D03*
X73500Y-51900D03*
X76850Y-55100D03*
X77850Y-55100D03*
X78750Y-55100D03*
X78750Y-51900D03*
X77750Y-51900D03*
X76750Y-51900D03*
X80100Y-55100D03*
X81100Y-55100D03*
X82000Y-55100D03*
X82000Y-51900D03*
X81000Y-51900D03*
X80000Y-51900D03*
X83350Y-55100D03*
X84350Y-55100D03*
X85250Y-55100D03*
X85250Y-51900D03*
X84250Y-51900D03*
X83250Y-51900D03*
X86600Y-54200D03*
X87600Y-54200D03*
X88500Y-54200D03*
X88500Y-51000D03*
X87500Y-51000D03*
X86500Y-51000D03*
X93100Y-55100D03*
X94100Y-55100D03*
X95000Y-55100D03*
X95000Y-51900D03*
X94000Y-51900D03*
X93000Y-51900D03*
X89850Y-54200D03*
X90850Y-54200D03*
X91750Y-54200D03*
X91750Y-51000D03*
X90750Y-51000D03*
X89750Y-51000D03*
G54D24*
X93657Y-45854D03*
X93972Y-45854D03*
X94287Y-45854D03*
X94602Y-45854D03*
X94917Y-45854D03*
X95232Y-45854D03*
X95547Y-45854D03*
X95862Y-45854D03*
X95860Y-49620D03*
X93650Y-49620D03*
X93970Y-49620D03*
X94290Y-49620D03*
X94600Y-49620D03*
X94920Y-49620D03*
X95230Y-49620D03*
X95550Y-49620D03*
G54D25*
X96650Y-46638D03*
X96650Y-46952D03*
X96650Y-47268D03*
X96650Y-47582D03*
X96650Y-47898D03*
X96650Y-48212D03*
X96650Y-48528D03*
X96650Y-48842D03*
X92870Y-46640D03*
X92870Y-46950D03*
X92870Y-47270D03*
X92870Y-47580D03*
X92870Y-47890D03*
X92870Y-48210D03*
X92870Y-48530D03*
X92870Y-48850D03*
G54D20*
X102625Y-52400D03*
G54D21*
X101625Y-52400D03*
G54D20*
X77100Y-49200D03*
G54D21*
X77100Y-48200D03*
X78100Y-49200D03*
X78100Y-48200D03*
X79100Y-49200D03*
X79100Y-48200D03*
X80100Y-49200D03*
X80100Y-48200D03*
X81100Y-49200D03*
X81100Y-48200D03*
X82100Y-49200D03*
X82100Y-48200D03*
X83100Y-49200D03*
X83100Y-48200D03*
X84100Y-49200D03*
X84100Y-48200D03*
X85100Y-49200D03*
X85100Y-48200D03*
X86100Y-49200D03*
X86100Y-48200D03*
G54D26*
X87200Y-48150D03*
X87700Y-48150D03*
X88200Y-48150D03*
X88700Y-48150D03*
X89200Y-48150D03*
X89700Y-48150D03*
X90200Y-48150D03*
X90700Y-48150D03*
X91200Y-48150D03*
X91200Y-44450D03*
X90700Y-44450D03*
X90200Y-44450D03*
X87200Y-44449D03*
X87700Y-44450D03*
X88200Y-44450D03*
X88700Y-44450D03*
X89200Y-44450D03*
X89700Y-44450D03*
G54D27*
X109338Y-58112D03*
X104665Y-58112D03*
G54D28*
X105250Y-55612D03*
G54D29*
X105750Y-54612D03*
X106250Y-55612D03*
X106750Y-54612D03*
X107250Y-55612D03*
X107750Y-54612D03*
X108250Y-55612D03*
X108750Y-54612D03*
G54D27*
X102738Y-58112D03*
X98065Y-58112D03*
G54D28*
X98650Y-55612D03*
G54D29*
X99150Y-54612D03*
X99650Y-55612D03*
X100150Y-54612D03*
X100650Y-55612D03*
X101150Y-54612D03*
X101650Y-55612D03*
X102150Y-54612D03*
G54D30*
X91900Y-44500D03*
X94010Y-48020D03*
X102250Y-49700D03*
X94950Y-44950D03*
X97500Y-47200D03*
X94250Y-46650D03*
X95900Y-47275D03*
X97550Y-48600D03*
X97300Y-49900D03*
X96200Y-51050D03*
X95800Y-50750D03*
X95400Y-50500D03*
X94900Y-50500D03*
X78500Y-57500D03*
X76000Y-57500D03*
X91750Y-56500D03*
X94400Y-47100D03*
X95325Y-46625D03*
X94000Y-61150D03*
X95250Y-48800D03*
X75500Y-53000D03*
X84800Y-52900D03*
X73500Y-46750D03*
X86500Y-56000D03*
X88400Y-55550D03*
X92500Y-55250D03*
X95350Y-47450D03*
X92520Y-49400D03*
X97250Y-49250D03*
X91800Y-49400D03*
X96600Y-50650D03*
X86700Y-45050D03*
X87700Y-45400D03*
X88250Y-45700D03*
X88700Y-45950D03*
X89200Y-46200D03*
X89700Y-46450D03*
X90200Y-46700D03*
X90700Y-47050D03*
X98550Y-47500D03*
X95875Y-47850D03*
X93250Y-49800D03*
X96600Y-49950D03*
G54D31*
X109140Y-56185D02*
X109140Y-56250D01*
X109140Y-56250D02*
X109140Y-56185D01*
X109500Y-44200D02*
X109670Y-44200D01*
X109940Y-55385D02*
X109140Y-56185D01*
X109940Y-44470D02*
X109940Y-55385D01*
X109670Y-44200D02*
X109940Y-44470D01*
X96800Y-53500D02*
X96800Y-53425D01*
X95150Y-58050D02*
X94400Y-58800D01*
X94400Y-59645D02*
X94400Y-58800D01*
X96800Y-56200D02*
X96800Y-57150D01*
X96800Y-56200D02*
X96800Y-55700D01*
X96800Y-55700D02*
X96800Y-53500D01*
X96800Y-57150D02*
X95900Y-58050D01*
X95900Y-58050D02*
X95150Y-58050D01*
X96800Y-53425D02*
X97775Y-52450D01*
X101250Y-61000D02*
X104325Y-61000D01*
X94400Y-60700D02*
X94400Y-59645D01*
X94700Y-61000D02*
X101250Y-61000D01*
X94400Y-60700D02*
X94700Y-61000D01*
X104325Y-61000D02*
X109140Y-56185D01*
X105725Y-45000D02*
X106850Y-45000D01*
X107025Y-44825D02*
X107650Y-44200D01*
X107000Y-44850D02*
X107025Y-44825D01*
X109500Y-44200D02*
X107650Y-44200D01*
X106850Y-45000D02*
X107000Y-44850D01*
X91200Y-44450D02*
X91850Y-44450D01*
X91850Y-44450D02*
X91900Y-44500D01*
X93970Y-48370D02*
X94620Y-48370D01*
X94917Y-47300D02*
X94917Y-45854D01*
X94917Y-47300D02*
X94917Y-47533D01*
X94917Y-48073D02*
X94917Y-47533D01*
X94620Y-48370D02*
X94917Y-48073D01*
X93970Y-48060D02*
X93970Y-48370D01*
X93970Y-48370D02*
X93970Y-48410D01*
X93970Y-48410D02*
X93970Y-49620D01*
X93970Y-48060D02*
X94010Y-48020D01*
X94010Y-48020D02*
X93970Y-48060D01*
X93970Y-49620D02*
X93970Y-50630D01*
X93970Y-50630D02*
X93900Y-50700D01*
X102450Y-49250D02*
X105400Y-49250D01*
X102450Y-48600D02*
X102450Y-49250D01*
X105600Y-49050D02*
X105600Y-48650D01*
X105400Y-49250D02*
X105600Y-49050D01*
X106600Y-47350D02*
X106600Y-47950D01*
X106600Y-47950D02*
X106600Y-47900D01*
X106600Y-47900D02*
X106600Y-47950D01*
X107600Y-47350D02*
X107600Y-47950D01*
X107600Y-47950D02*
X107550Y-47950D01*
X105600Y-48650D02*
X105600Y-48400D01*
X105600Y-48400D02*
X106050Y-47950D01*
X106050Y-47950D02*
X106600Y-47950D01*
X108550Y-48100D02*
X108550Y-48650D01*
X108400Y-47950D02*
X108550Y-48100D01*
X106600Y-47950D02*
X107550Y-47950D01*
X107550Y-47950D02*
X108400Y-47950D01*
X102450Y-49500D02*
X102250Y-49700D01*
X102450Y-49300D02*
X102450Y-49500D01*
X102450Y-48600D02*
X102450Y-49300D01*
X94950Y-44950D02*
X94300Y-44950D01*
X94300Y-44950D02*
X94150Y-44800D01*
X94917Y-45854D02*
X94917Y-44983D01*
X94917Y-44983D02*
X94950Y-44950D01*
G54D32*
X105400Y-51112D02*
X104337Y-51112D01*
X104050Y-51400D02*
X104050Y-55075D01*
X104337Y-51112D02*
X104050Y-51400D01*
X100650Y-55612D02*
X100712Y-55612D01*
X100712Y-55612D02*
X101250Y-55075D01*
X101250Y-55075D02*
X104050Y-55075D01*
X104050Y-55075D02*
X106712Y-55075D01*
X106712Y-55075D02*
X107250Y-55612D01*
X97252Y-46952D02*
X97500Y-47200D01*
X96650Y-46952D02*
X97252Y-46952D01*
X96175Y-45475D02*
X95862Y-45788D01*
X95862Y-45788D02*
X95862Y-45854D01*
X98350Y-45750D02*
X98075Y-45475D01*
X98075Y-45475D02*
X96175Y-45475D01*
X99350Y-45750D02*
X99350Y-45650D01*
X99350Y-45650D02*
X98850Y-45150D01*
X98850Y-45150D02*
X95800Y-45150D01*
X95800Y-45150D02*
X95547Y-45403D01*
X95547Y-45403D02*
X95547Y-45854D01*
X95232Y-45854D02*
X95232Y-45268D01*
X100350Y-45450D02*
X100350Y-45750D01*
X99750Y-44850D02*
X100350Y-45450D01*
X95650Y-44850D02*
X99750Y-44850D01*
X95232Y-45268D02*
X95650Y-44850D01*
X94287Y-45854D02*
X94250Y-45891D01*
X94250Y-45891D02*
X94250Y-46650D01*
X96650Y-47268D02*
X95907Y-47268D01*
X96632Y-47250D02*
X96650Y-47268D01*
X95907Y-47268D02*
X95900Y-47275D01*
X95800Y-47250D02*
X96632Y-47250D01*
X77100Y-49200D02*
X75150Y-49200D01*
X75150Y-49200D02*
X74950Y-49000D01*
X74950Y-49000D02*
X74950Y-47750D01*
X74950Y-47750D02*
X75200Y-47500D01*
X75200Y-47500D02*
X75750Y-47500D01*
X97478Y-48528D02*
X96650Y-48528D01*
X97550Y-48600D02*
X97478Y-48528D01*
X74500Y-51900D02*
X74500Y-51500D01*
X74500Y-51500D02*
X75950Y-50050D01*
X75950Y-50050D02*
X77250Y-50050D01*
X77250Y-50050D02*
X78100Y-49200D01*
X96650Y-48842D02*
X96650Y-49250D01*
X96650Y-49250D02*
X97300Y-49900D01*
X77750Y-51900D02*
X77750Y-50550D01*
X77750Y-50550D02*
X79100Y-49200D01*
X96200Y-49960D02*
X95860Y-49620D01*
X96200Y-51050D02*
X96200Y-49960D01*
X81000Y-51900D02*
X81000Y-50100D01*
X81000Y-50100D02*
X80100Y-49200D01*
X95550Y-50100D02*
X95550Y-49620D01*
X95800Y-50350D02*
X95550Y-50100D01*
X95800Y-50750D02*
X95800Y-50350D01*
X81100Y-49200D02*
X81100Y-49300D01*
X81100Y-49300D02*
X82750Y-50950D01*
X82750Y-50950D02*
X83900Y-50950D01*
X83900Y-50950D02*
X84250Y-51300D01*
X84250Y-51300D02*
X84250Y-51900D01*
X95230Y-50330D02*
X95230Y-49620D01*
X95400Y-50500D02*
X95230Y-50330D01*
X82100Y-49200D02*
X82100Y-49650D01*
X82100Y-49650D02*
X83050Y-50600D01*
X83050Y-50600D02*
X85300Y-50600D01*
X85300Y-50600D02*
X85900Y-51200D01*
X85900Y-51200D02*
X85900Y-51750D01*
X85900Y-51750D02*
X86150Y-52000D01*
X86150Y-52000D02*
X86950Y-52000D01*
X86950Y-52000D02*
X87500Y-51450D01*
X87500Y-51450D02*
X87500Y-51000D01*
G54D33*
X87500Y-51250D02*
X87250Y-51000D01*
G54D32*
X94900Y-50500D02*
X94900Y-50350D01*
X94600Y-50050D02*
X94600Y-49620D01*
X94900Y-50350D02*
X94600Y-50050D01*
X83100Y-49200D02*
X83100Y-49300D01*
X83100Y-49300D02*
X84000Y-50200D01*
X84000Y-50200D02*
X90250Y-50200D01*
X90250Y-50200D02*
X90750Y-50700D01*
X90750Y-50700D02*
X90750Y-51000D01*
G54D33*
X90750Y-51250D02*
X90500Y-51000D01*
G54D32*
X90300Y-49900D02*
X92850Y-49900D01*
X93250Y-51150D02*
X94000Y-51900D01*
X93250Y-50300D02*
X93250Y-51150D01*
X92850Y-49900D02*
X93250Y-50300D01*
X94290Y-49620D02*
X94290Y-50048D01*
X94290Y-50048D02*
X94450Y-50208D01*
X94450Y-50208D02*
X94450Y-51450D01*
X94450Y-51450D02*
X94000Y-51900D01*
X89900Y-49900D02*
X90300Y-49900D01*
X90300Y-49900D02*
X90350Y-49900D01*
G54D33*
X84100Y-49200D02*
X84100Y-49500D01*
X84100Y-49500D02*
X84500Y-49900D01*
G54D32*
X84500Y-49900D02*
X89900Y-49900D01*
G54D31*
X80200Y-58200D02*
X79562Y-58837D01*
X79562Y-58837D02*
X79562Y-59645D01*
X79562Y-59000D02*
X79562Y-58837D01*
X80200Y-58200D02*
X80900Y-57500D01*
X80900Y-57500D02*
X81800Y-57500D01*
X81800Y-57500D02*
X82350Y-56950D01*
X82350Y-56950D02*
X82350Y-56500D01*
X72350Y-59650D02*
X72350Y-60250D01*
X79562Y-60637D02*
X79562Y-59645D01*
X79100Y-61100D02*
X79562Y-60637D01*
X73200Y-61100D02*
X79100Y-61100D01*
X72350Y-60250D02*
X73200Y-61100D01*
X72350Y-49750D02*
X72350Y-59650D01*
X79150Y-56500D02*
X79150Y-56850D01*
X79150Y-56850D02*
X78500Y-57500D01*
X75900Y-56500D02*
X75900Y-57400D01*
X75900Y-57400D02*
X76000Y-57500D01*
X88750Y-56500D02*
X88850Y-56500D01*
X88850Y-56500D02*
X89850Y-55500D01*
X88750Y-56500D02*
X88750Y-56350D01*
X91750Y-56500D02*
X93500Y-56500D01*
X93500Y-56500D02*
X93700Y-56300D01*
X85650Y-56500D02*
X85650Y-57350D01*
X86050Y-57750D02*
X88062Y-57750D01*
X85650Y-57350D02*
X86050Y-57750D01*
X88062Y-59000D02*
X88062Y-57750D01*
X88100Y-57800D02*
X88100Y-57750D01*
X88100Y-57787D02*
X88100Y-57800D01*
X88062Y-57750D02*
X88100Y-57787D01*
X88000Y-58937D02*
X88062Y-59000D01*
X88100Y-57750D02*
X88250Y-57750D01*
X88250Y-57750D02*
X88750Y-57250D01*
X88750Y-57250D02*
X88750Y-56500D01*
G54D32*
X94600Y-45856D02*
X94600Y-46900D01*
X94600Y-46900D02*
X94400Y-47100D01*
X94602Y-45854D02*
X94600Y-45856D01*
X94920Y-49620D02*
X94920Y-49130D01*
X94920Y-49130D02*
X95250Y-48800D01*
G54D33*
X75500Y-51900D02*
X75500Y-53000D01*
X85250Y-51900D02*
X85250Y-52450D01*
X85250Y-52450D02*
X84800Y-52900D01*
G54D32*
X104600Y-47550D02*
X104600Y-47350D01*
G54D31*
X72650Y-46600D02*
X73350Y-46600D01*
X73350Y-46600D02*
X73500Y-46750D01*
X74800Y-58300D02*
X75015Y-58515D01*
X75015Y-58515D02*
X75015Y-59645D01*
X75015Y-59000D02*
X75015Y-58515D01*
X73600Y-57100D02*
X73600Y-55100D01*
X74800Y-58300D02*
X73600Y-57100D01*
X76531Y-58650D02*
X76531Y-59645D01*
X76531Y-59000D02*
X76531Y-58650D01*
X76531Y-58650D02*
X76531Y-57718D01*
X76850Y-57400D02*
X76850Y-55100D01*
X76531Y-57718D02*
X76850Y-57400D01*
X78700Y-58300D02*
X78047Y-58952D01*
X78047Y-58952D02*
X78047Y-59645D01*
X78047Y-59000D02*
X78047Y-58952D01*
X80100Y-56900D02*
X80100Y-55100D01*
X78700Y-58300D02*
X80100Y-56900D01*
X82000Y-59000D02*
X82000Y-58750D01*
X83350Y-57400D02*
X83350Y-55100D01*
X82000Y-58750D02*
X83350Y-57400D01*
X86600Y-55150D02*
X86600Y-54200D01*
X86600Y-55900D02*
X86600Y-55150D01*
X86600Y-55150D02*
X86600Y-55100D01*
X86500Y-56000D02*
X86600Y-55900D01*
X89850Y-54200D02*
X89750Y-54200D01*
X89750Y-54200D02*
X88400Y-55550D01*
X93100Y-55100D02*
X92650Y-55100D01*
X92650Y-55100D02*
X92500Y-55250D01*
G54D32*
X96650Y-46638D02*
X95862Y-46638D01*
X95350Y-47150D02*
X95350Y-47450D01*
X95862Y-46638D02*
X95350Y-47150D01*
X96650Y-46638D02*
X97012Y-46638D01*
X103500Y-46800D02*
X103500Y-47441D01*
X102950Y-46250D02*
X103500Y-46800D01*
X97400Y-46250D02*
X102950Y-46250D01*
X97012Y-46638D02*
X97400Y-46250D01*
X92870Y-49050D02*
X92520Y-49400D01*
X92870Y-49050D02*
X92870Y-48850D01*
X100125Y-48475D02*
X100525Y-48475D01*
X100725Y-48675D02*
X100725Y-49150D01*
X100525Y-48475D02*
X100725Y-48675D01*
X97250Y-49250D02*
X97525Y-49250D01*
X98300Y-48475D02*
X100125Y-48475D01*
X97525Y-49250D02*
X98300Y-48475D01*
X96987Y-51037D02*
X97250Y-51300D01*
X97250Y-51300D02*
X99450Y-51300D01*
X99725Y-50150D02*
X99725Y-51025D01*
X99450Y-51300D02*
X99725Y-51025D01*
X92370Y-48530D02*
X92870Y-48530D01*
X91800Y-49100D02*
X91800Y-49400D01*
X92370Y-48530D02*
X91800Y-49100D01*
X96600Y-50650D02*
X96987Y-51037D01*
X87600Y-54200D02*
X87600Y-56350D01*
X87600Y-56350D02*
X87450Y-56500D01*
G54D33*
X87600Y-56350D02*
X87450Y-56500D01*
G54D32*
X91150Y-55500D02*
X91150Y-55000D01*
X91150Y-55000D02*
X90850Y-54700D01*
X90850Y-54700D02*
X90850Y-54200D01*
X94100Y-55100D02*
X94100Y-55400D01*
X94100Y-55400D02*
X95000Y-56300D01*
G54D33*
X94100Y-55400D02*
X95000Y-56300D01*
X94150Y-55150D02*
X94100Y-55100D01*
G54D32*
X84350Y-56500D02*
X84350Y-55100D01*
G54D33*
X84250Y-55200D02*
X84350Y-55100D01*
G54D32*
X81050Y-56500D02*
X81050Y-55150D01*
X81050Y-55150D02*
X81100Y-55100D01*
X103500Y-48559D02*
X104509Y-48559D01*
X104509Y-48559D02*
X104600Y-48650D01*
G54D33*
X73650Y-49750D02*
X73650Y-48150D01*
X73100Y-47600D02*
X72650Y-47600D01*
X73650Y-48150D02*
X73100Y-47600D01*
G54D32*
X74600Y-56500D02*
X74600Y-55100D01*
X77850Y-56500D02*
X77850Y-55100D01*
X107050Y-46125D02*
X108134Y-46125D01*
X108134Y-46125D02*
X108200Y-46059D01*
X108109Y-46150D02*
X108200Y-46059D01*
X109100Y-46059D02*
X109100Y-46800D01*
X109100Y-46800D02*
X108550Y-47350D01*
X86700Y-45050D02*
X91750Y-45050D01*
X91750Y-45050D02*
X92554Y-45854D01*
X92554Y-45854D02*
X93657Y-45854D01*
X87200Y-48150D02*
X87200Y-45550D01*
X87200Y-45550D02*
X86700Y-45050D01*
X93972Y-45854D02*
X93972Y-46428D01*
X87700Y-45350D02*
X87700Y-45400D01*
X93200Y-46200D02*
X93550Y-46550D01*
X93150Y-46200D02*
X93200Y-46200D01*
X92450Y-46200D02*
X93150Y-46200D01*
X91600Y-45350D02*
X92450Y-46200D01*
X91550Y-45350D02*
X91600Y-45350D01*
X91150Y-45350D02*
X91550Y-45350D01*
X87700Y-45350D02*
X91150Y-45350D01*
X93850Y-46550D02*
X93550Y-46550D01*
X93972Y-46428D02*
X93850Y-46550D01*
X87700Y-45400D02*
X87700Y-48150D01*
X91050Y-45600D02*
X91450Y-45600D01*
X92490Y-46640D02*
X92870Y-46640D01*
X91450Y-45600D02*
X92490Y-46640D01*
X88400Y-45600D02*
X91050Y-45600D01*
X88300Y-45700D02*
X88400Y-45600D01*
X88250Y-45700D02*
X88300Y-45700D01*
X88200Y-45750D02*
X88200Y-48150D01*
X88250Y-45700D02*
X88200Y-45750D01*
X92840Y-46640D02*
X92870Y-46640D01*
X92870Y-46950D02*
X92400Y-46950D01*
X88800Y-45850D02*
X88700Y-45950D01*
X91300Y-45850D02*
X88800Y-45850D01*
X92400Y-46950D02*
X91300Y-45850D01*
X88700Y-48150D02*
X88700Y-45950D01*
X90950Y-46100D02*
X91200Y-46100D01*
X91200Y-46100D02*
X92370Y-47270D01*
X92370Y-47270D02*
X92870Y-47270D01*
X89200Y-48150D02*
X89200Y-46200D01*
X92370Y-47270D02*
X92870Y-47270D01*
X89200Y-46200D02*
X89300Y-46100D01*
X89300Y-46100D02*
X90950Y-46100D01*
X90750Y-46350D02*
X91050Y-46350D01*
X92280Y-47580D02*
X92870Y-47580D01*
X91050Y-46350D02*
X92280Y-47580D01*
X89700Y-48150D02*
X89700Y-46450D01*
X89700Y-46450D02*
X89800Y-46350D01*
X89800Y-46350D02*
X90750Y-46350D01*
X90800Y-46700D02*
X90950Y-46700D01*
X92140Y-47890D02*
X92870Y-47890D01*
X90950Y-46700D02*
X92140Y-47890D01*
X90200Y-48150D02*
X90200Y-46700D01*
X90200Y-46700D02*
X90800Y-46700D01*
X91550Y-47650D02*
X92110Y-48210D01*
X92110Y-48210D02*
X92870Y-48210D01*
X90700Y-47500D02*
X91400Y-47500D01*
X91400Y-47500D02*
X91550Y-47650D01*
X90700Y-47050D02*
X90700Y-47500D01*
X90700Y-47500D02*
X90700Y-48150D01*
G54D31*
X87200Y-44449D02*
X87099Y-44449D01*
X75550Y-43450D02*
X75550Y-43447D01*
X76300Y-44200D02*
X75550Y-43450D01*
X86850Y-44200D02*
X76300Y-44200D01*
X87099Y-44449D02*
X86850Y-44200D01*
X75402Y-42450D02*
X75402Y-41389D01*
X75402Y-41389D02*
X75442Y-41350D01*
X75402Y-43300D02*
X75402Y-42450D01*
X75550Y-43447D02*
X75402Y-43300D01*
X87700Y-44450D02*
X87700Y-43800D01*
X80750Y-43400D02*
X80342Y-42992D01*
X87300Y-43400D02*
X80750Y-43400D01*
X87700Y-43800D02*
X87300Y-43400D01*
X80342Y-42992D02*
X80342Y-41350D01*
X80342Y-42000D02*
X80342Y-41350D01*
X80342Y-42000D02*
X80342Y-41950D01*
X88200Y-44450D02*
X88200Y-43150D01*
X85242Y-42342D02*
X85242Y-41350D01*
X85700Y-42800D02*
X85242Y-42342D01*
X87850Y-42800D02*
X85700Y-42800D01*
X88200Y-43150D02*
X87850Y-42800D01*
X85242Y-42000D02*
X85242Y-41350D01*
X85242Y-42000D02*
X85242Y-41950D01*
X90142Y-41350D02*
X90142Y-41950D01*
X90142Y-41957D02*
X88700Y-43400D01*
X88700Y-43400D02*
X88700Y-44450D01*
X90142Y-41950D02*
X90142Y-41957D01*
X89200Y-44450D02*
X89200Y-43750D01*
X94442Y-42150D02*
X95242Y-41350D01*
X90800Y-42150D02*
X94442Y-42150D01*
X89200Y-43750D02*
X90800Y-42150D01*
X89700Y-44450D02*
X89700Y-43850D01*
X98842Y-42600D02*
X100092Y-41350D01*
X90950Y-42600D02*
X98842Y-42600D01*
X89700Y-43850D02*
X90950Y-42600D01*
X90200Y-44450D02*
X90200Y-43900D01*
X104942Y-41907D02*
X104942Y-41350D01*
X103800Y-43050D02*
X104942Y-41907D01*
X91050Y-43050D02*
X103800Y-43050D01*
X90200Y-43900D02*
X91050Y-43050D01*
X90700Y-44450D02*
X90700Y-44000D01*
X90700Y-44000D02*
X91200Y-43500D01*
X109792Y-42457D02*
X109792Y-41350D01*
X108750Y-43500D02*
X109792Y-42457D01*
X91200Y-43500D02*
X108750Y-43500D01*
G54D32*
X98550Y-47582D02*
X98550Y-47500D01*
X96143Y-47582D02*
X96650Y-47582D01*
X95875Y-47850D02*
X96143Y-47582D01*
X100350Y-47582D02*
X101432Y-47582D01*
X101800Y-47950D02*
X105450Y-47950D01*
X105450Y-47950D02*
X105600Y-47800D01*
X105600Y-47350D02*
X105600Y-47800D01*
X100350Y-47582D02*
X98550Y-47582D01*
X98550Y-47582D02*
X96650Y-47582D01*
X101432Y-47582D02*
X101800Y-47950D01*
X97400Y-50700D02*
X97600Y-50900D01*
X99000Y-50900D02*
X99225Y-50675D01*
X97600Y-50900D02*
X99000Y-50900D01*
X99225Y-50050D02*
X99225Y-49650D01*
X93650Y-49620D02*
X93430Y-49620D01*
X93430Y-49620D02*
X93250Y-49800D01*
X96650Y-49950D02*
X97400Y-50700D01*
X99225Y-50675D02*
X99225Y-50050D01*
X96600Y-49950D02*
X96650Y-49950D01*
X99225Y-49650D02*
X99725Y-49150D01*
X106600Y-49925D02*
X106600Y-50912D01*
X106600Y-50912D02*
X106400Y-51112D01*
X100250Y-47898D02*
X101273Y-47898D01*
X101650Y-48275D02*
X101650Y-49250D01*
X101273Y-47898D02*
X101650Y-48275D01*
X101650Y-51082D02*
X101650Y-51150D01*
X101650Y-49250D02*
X101650Y-51082D01*
X96650Y-47898D02*
X100250Y-47898D01*
X99912Y-55612D02*
X99650Y-55612D01*
X100625Y-54900D02*
X99912Y-55612D01*
X100625Y-52175D02*
X100625Y-54900D01*
X101650Y-51150D02*
X100625Y-52175D01*
X106600Y-49950D02*
X106600Y-49925D01*
X106600Y-49925D02*
X106600Y-48650D01*
X106900Y-49600D02*
X106900Y-49450D01*
X107600Y-48750D02*
X107600Y-48650D01*
X106900Y-49450D02*
X107600Y-48750D01*
X106900Y-50700D02*
X106900Y-49600D01*
X100300Y-48212D02*
X101112Y-48212D01*
X101400Y-48500D02*
X101400Y-49250D01*
X101112Y-48212D02*
X101400Y-48500D01*
X100402Y-52035D02*
X100402Y-53372D01*
X101400Y-49250D02*
X101400Y-51037D01*
X101400Y-51037D02*
X100402Y-52035D01*
X96650Y-48212D02*
X100300Y-48212D01*
X98650Y-54150D02*
X98650Y-55612D01*
X99000Y-53800D02*
X98650Y-54150D01*
X99975Y-53800D02*
X99000Y-53800D01*
X100402Y-53372D02*
X99975Y-53800D01*
X106900Y-51612D02*
X106400Y-52112D01*
X106900Y-50700D02*
X106900Y-51612D01*
X98650Y-55612D02*
X98650Y-55800D01*
X105250Y-56375D02*
X105250Y-55612D01*
X105025Y-56600D02*
X105250Y-56375D01*
X99450Y-56600D02*
X105025Y-56600D01*
X98650Y-55800D02*
X99450Y-56600D01*
G54D10*
G36*
X94668Y-47970D02*
X94517Y-48121D01*
X94319Y-48121D01*
X94334Y-48084D01*
X94335Y-47955D01*
X94285Y-47836D01*
X94194Y-47744D01*
X94074Y-47695D01*
X93945Y-47694D01*
X93826Y-47744D01*
X93734Y-47835D01*
X93685Y-47955D01*
X93684Y-48084D01*
X93721Y-48172D01*
X93721Y-48370D01*
X93721Y-48410D01*
X93721Y-49076D01*
X93708Y-49076D01*
X93531Y-49076D01*
X93476Y-49099D01*
X93434Y-49141D01*
X93411Y-49196D01*
X93411Y-49256D01*
X93411Y-49414D01*
X93349Y-49426D01*
X93282Y-49472D01*
X93282Y-49472D01*
X93279Y-49475D01*
X93185Y-49474D01*
X93066Y-49524D01*
X92974Y-49615D01*
X92935Y-49710D01*
X92930Y-49706D01*
X92850Y-49690D01*
X92666Y-49690D01*
X92703Y-49675D01*
X92795Y-49584D01*
X92844Y-49464D01*
X92845Y-49370D01*
X93017Y-49197D01*
X93063Y-49130D01*
X93071Y-49088D01*
X93293Y-49088D01*
X93348Y-49065D01*
X93390Y-49023D01*
X93413Y-48968D01*
X93413Y-48908D01*
X93413Y-48731D01*
X93396Y-48689D01*
X93413Y-48648D01*
X93413Y-48588D01*
X93413Y-48411D01*
X93396Y-48369D01*
X93413Y-48328D01*
X93413Y-48268D01*
X93413Y-48091D01*
X93396Y-48049D01*
X93413Y-48008D01*
X93413Y-47948D01*
X93413Y-47771D01*
X93398Y-47734D01*
X93413Y-47698D01*
X93413Y-47638D01*
X93413Y-47461D01*
X93398Y-47424D01*
X93413Y-47388D01*
X93413Y-47328D01*
X93413Y-47151D01*
X93396Y-47109D01*
X93413Y-47068D01*
X93413Y-47008D01*
X93413Y-46831D01*
X93398Y-46794D01*
X93413Y-46758D01*
X93413Y-46705D01*
X93469Y-46743D01*
X93550Y-46759D01*
X93550Y-46759D01*
X93550Y-46759D01*
X93850Y-46759D01*
X93930Y-46743D01*
X93935Y-46739D01*
X93974Y-46833D01*
X94065Y-46925D01*
X94185Y-46974D01*
X94314Y-46975D01*
X94433Y-46925D01*
X94525Y-46834D01*
X94574Y-46714D01*
X94575Y-46585D01*
X94525Y-46466D01*
X94459Y-46399D01*
X94459Y-46375D01*
X94460Y-46374D01*
X94502Y-46332D01*
X94517Y-46297D01*
X94523Y-46297D01*
X94545Y-46297D01*
X94557Y-46285D01*
X94557Y-45904D01*
X94544Y-45904D01*
X94544Y-45804D01*
X94557Y-45804D01*
X94557Y-45423D01*
X94545Y-45410D01*
X94523Y-45410D01*
X94517Y-45410D01*
X94502Y-45375D01*
X94477Y-45350D01*
X94479Y-45350D01*
X94534Y-45327D01*
X94577Y-45284D01*
X94600Y-45229D01*
X94600Y-45198D01*
X94668Y-45198D01*
X94668Y-45410D01*
X94658Y-45410D01*
X94646Y-45423D01*
X94646Y-45804D01*
X94659Y-45804D01*
X94659Y-45904D01*
X94646Y-45904D01*
X94646Y-46285D01*
X94658Y-46297D01*
X94668Y-46297D01*
X94668Y-47300D01*
X94668Y-47533D01*
X94668Y-47970D01*
X94668Y-47970D01*
G37*
G54D33*
X94668Y-47970D02*
X94517Y-48121D01*
X94319Y-48121D01*
X94334Y-48084D01*
X94335Y-47955D01*
X94285Y-47836D01*
X94194Y-47744D01*
X94074Y-47695D01*
X93945Y-47694D01*
X93826Y-47744D01*
X93734Y-47835D01*
X93685Y-47955D01*
X93684Y-48084D01*
X93721Y-48172D01*
X93721Y-48370D01*
X93721Y-48410D01*
X93721Y-49076D01*
X93708Y-49076D01*
X93531Y-49076D01*
X93476Y-49099D01*
X93434Y-49141D01*
X93411Y-49196D01*
X93411Y-49256D01*
X93411Y-49414D01*
X93349Y-49426D01*
X93282Y-49472D01*
X93282Y-49472D01*
X93279Y-49475D01*
X93185Y-49474D01*
X93066Y-49524D01*
X92974Y-49615D01*
X92935Y-49710D01*
X92930Y-49706D01*
X92850Y-49690D01*
X92666Y-49690D01*
X92703Y-49675D01*
X92795Y-49584D01*
X92844Y-49464D01*
X92845Y-49370D01*
X93017Y-49197D01*
X93063Y-49130D01*
X93071Y-49088D01*
X93293Y-49088D01*
X93348Y-49065D01*
X93390Y-49023D01*
X93413Y-48968D01*
X93413Y-48908D01*
X93413Y-48731D01*
X93396Y-48689D01*
X93413Y-48648D01*
X93413Y-48588D01*
X93413Y-48411D01*
X93396Y-48369D01*
X93413Y-48328D01*
X93413Y-48268D01*
X93413Y-48091D01*
X93396Y-48049D01*
X93413Y-48008D01*
X93413Y-47948D01*
X93413Y-47771D01*
X93398Y-47734D01*
X93413Y-47698D01*
X93413Y-47638D01*
X93413Y-47461D01*
X93398Y-47424D01*
X93413Y-47388D01*
X93413Y-47328D01*
X93413Y-47151D01*
X93396Y-47109D01*
X93413Y-47068D01*
X93413Y-47008D01*
X93413Y-46831D01*
X93398Y-46794D01*
X93413Y-46758D01*
X93413Y-46705D01*
X93469Y-46743D01*
X93550Y-46759D01*
X93550Y-46759D01*
X93550Y-46759D01*
X93850Y-46759D01*
X93930Y-46743D01*
X93935Y-46739D01*
X93974Y-46833D01*
X94065Y-46925D01*
X94185Y-46974D01*
X94314Y-46975D01*
X94433Y-46925D01*
X94525Y-46834D01*
X94574Y-46714D01*
X94575Y-46585D01*
X94525Y-46466D01*
X94459Y-46399D01*
X94459Y-46375D01*
X94460Y-46374D01*
X94502Y-46332D01*
X94517Y-46297D01*
X94523Y-46297D01*
X94545Y-46297D01*
X94557Y-46285D01*
X94557Y-45904D01*
X94544Y-45904D01*
X94544Y-45804D01*
X94557Y-45804D01*
X94557Y-45423D01*
X94545Y-45410D01*
X94523Y-45410D01*
X94517Y-45410D01*
X94502Y-45375D01*
X94477Y-45350D01*
X94479Y-45350D01*
X94534Y-45327D01*
X94577Y-45284D01*
X94600Y-45229D01*
X94600Y-45198D01*
X94668Y-45198D01*
X94668Y-45410D01*
X94658Y-45410D01*
X94646Y-45423D01*
X94646Y-45804D01*
X94659Y-45804D01*
X94659Y-45904D01*
X94646Y-45904D01*
X94646Y-46285D01*
X94658Y-46297D01*
X94668Y-46297D01*
X94668Y-47300D01*
X94668Y-47533D01*
X94668Y-47970D01*
G54D10*
G36*
X96775Y-49670D02*
X96664Y-49625D01*
X96535Y-49624D01*
X96416Y-49674D01*
X96324Y-49765D01*
X96317Y-49782D01*
X96098Y-49562D01*
X96098Y-49196D01*
X96075Y-49141D01*
X96033Y-49099D01*
X95978Y-49076D01*
X95918Y-49076D01*
X95741Y-49076D01*
X95704Y-49091D01*
X95668Y-49076D01*
X95608Y-49076D01*
X95431Y-49076D01*
X95389Y-49093D01*
X95348Y-49076D01*
X95288Y-49076D01*
X95111Y-49076D01*
X95056Y-49099D01*
X95014Y-49141D01*
X94999Y-49176D01*
X94998Y-49176D01*
X94976Y-49176D01*
X94964Y-49189D01*
X94964Y-49570D01*
X94977Y-49570D01*
X94977Y-49670D01*
X94964Y-49670D01*
X94964Y-50051D01*
X94976Y-50063D01*
X94998Y-50063D01*
X94999Y-50063D01*
X95014Y-50098D01*
X95020Y-50105D01*
X95020Y-50175D01*
X94875Y-50030D01*
X94875Y-49670D01*
X94862Y-49670D01*
X94862Y-49570D01*
X94875Y-49570D01*
X94875Y-49189D01*
X94863Y-49176D01*
X94841Y-49176D01*
X94830Y-49176D01*
X94815Y-49141D01*
X94773Y-49099D01*
X94718Y-49076D01*
X94658Y-49076D01*
X94481Y-49076D01*
X94444Y-49091D01*
X94408Y-49076D01*
X94348Y-49076D01*
X94218Y-49076D01*
X94218Y-48618D01*
X94620Y-48618D01*
X94715Y-48599D01*
X94795Y-48545D01*
X95092Y-48248D01*
X95092Y-48248D01*
X95092Y-48248D01*
X95125Y-48200D01*
X95146Y-48168D01*
X95146Y-48168D01*
X95165Y-48073D01*
X95165Y-47725D01*
X95165Y-47725D01*
X95285Y-47774D01*
X95414Y-47775D01*
X95533Y-47725D01*
X95625Y-47634D01*
X95674Y-47514D01*
X95674Y-47509D01*
X95715Y-47550D01*
X95732Y-47557D01*
X95691Y-47574D01*
X95599Y-47665D01*
X95550Y-47785D01*
X95549Y-47914D01*
X95599Y-48033D01*
X95690Y-48125D01*
X95810Y-48174D01*
X95939Y-48175D01*
X96058Y-48125D01*
X96117Y-48067D01*
X96106Y-48093D01*
X96106Y-48153D01*
X96106Y-48330D01*
X96122Y-48370D01*
X96106Y-48409D01*
X96106Y-48469D01*
X96106Y-48646D01*
X96122Y-48685D01*
X96106Y-48723D01*
X96106Y-48783D01*
X96106Y-48960D01*
X96129Y-49015D01*
X96171Y-49057D01*
X96226Y-49080D01*
X96286Y-49080D01*
X96440Y-49080D01*
X96440Y-49250D01*
X96456Y-49330D01*
X96502Y-49397D01*
X96775Y-49670D01*
X96775Y-49670D01*
G37*
G54D33*
X96775Y-49670D02*
X96664Y-49625D01*
X96535Y-49624D01*
X96416Y-49674D01*
X96324Y-49765D01*
X96317Y-49782D01*
X96098Y-49562D01*
X96098Y-49196D01*
X96075Y-49141D01*
X96033Y-49099D01*
X95978Y-49076D01*
X95918Y-49076D01*
X95741Y-49076D01*
X95704Y-49091D01*
X95668Y-49076D01*
X95608Y-49076D01*
X95431Y-49076D01*
X95389Y-49093D01*
X95348Y-49076D01*
X95288Y-49076D01*
X95111Y-49076D01*
X95056Y-49099D01*
X95014Y-49141D01*
X94999Y-49176D01*
X94998Y-49176D01*
X94976Y-49176D01*
X94964Y-49189D01*
X94964Y-49570D01*
X94977Y-49570D01*
X94977Y-49670D01*
X94964Y-49670D01*
X94964Y-50051D01*
X94976Y-50063D01*
X94998Y-50063D01*
X94999Y-50063D01*
X95014Y-50098D01*
X95020Y-50105D01*
X95020Y-50175D01*
X94875Y-50030D01*
X94875Y-49670D01*
X94862Y-49670D01*
X94862Y-49570D01*
X94875Y-49570D01*
X94875Y-49189D01*
X94863Y-49176D01*
X94841Y-49176D01*
X94830Y-49176D01*
X94815Y-49141D01*
X94773Y-49099D01*
X94718Y-49076D01*
X94658Y-49076D01*
X94481Y-49076D01*
X94444Y-49091D01*
X94408Y-49076D01*
X94348Y-49076D01*
X94218Y-49076D01*
X94218Y-48618D01*
X94620Y-48618D01*
X94715Y-48599D01*
X94795Y-48545D01*
X95092Y-48248D01*
X95092Y-48248D01*
X95092Y-48248D01*
X95125Y-48200D01*
X95146Y-48168D01*
X95146Y-48168D01*
X95165Y-48073D01*
X95165Y-47725D01*
X95165Y-47725D01*
X95285Y-47774D01*
X95414Y-47775D01*
X95533Y-47725D01*
X95625Y-47634D01*
X95674Y-47514D01*
X95674Y-47509D01*
X95715Y-47550D01*
X95732Y-47557D01*
X95691Y-47574D01*
X95599Y-47665D01*
X95550Y-47785D01*
X95549Y-47914D01*
X95599Y-48033D01*
X95690Y-48125D01*
X95810Y-48174D01*
X95939Y-48175D01*
X96058Y-48125D01*
X96117Y-48067D01*
X96106Y-48093D01*
X96106Y-48153D01*
X96106Y-48330D01*
X96122Y-48370D01*
X96106Y-48409D01*
X96106Y-48469D01*
X96106Y-48646D01*
X96122Y-48685D01*
X96106Y-48723D01*
X96106Y-48783D01*
X96106Y-48960D01*
X96129Y-49015D01*
X96171Y-49057D01*
X96226Y-49080D01*
X96286Y-49080D01*
X96440Y-49080D01*
X96440Y-49250D01*
X96456Y-49330D01*
X96502Y-49397D01*
X96775Y-49670D01*
G54D10*
G36*
X98004Y-46040D02*
X97400Y-46040D01*
X97400Y-46040D01*
X97319Y-46056D01*
X97252Y-46102D01*
X96954Y-46399D01*
X96226Y-46399D01*
X96171Y-46422D01*
X96164Y-46428D01*
X95862Y-46428D01*
X95781Y-46444D01*
X95714Y-46490D01*
X95714Y-46490D01*
X95202Y-47002D01*
X95165Y-47057D01*
X95165Y-46397D01*
X95173Y-46397D01*
X95350Y-46397D01*
X95389Y-46381D01*
X95428Y-46397D01*
X95488Y-46397D01*
X95665Y-46397D01*
X95704Y-46381D01*
X95743Y-46397D01*
X95803Y-46397D01*
X95980Y-46397D01*
X96035Y-46374D01*
X96077Y-46332D01*
X96100Y-46277D01*
X96100Y-46217D01*
X96100Y-45845D01*
X96261Y-45684D01*
X97900Y-45684D01*
X97899Y-45839D01*
X97968Y-46004D01*
X98004Y-46040D01*
X98004Y-46040D01*
G37*
G54D33*
X98004Y-46040D02*
X97400Y-46040D01*
X97400Y-46040D01*
X97319Y-46056D01*
X97252Y-46102D01*
X96954Y-46399D01*
X96226Y-46399D01*
X96171Y-46422D01*
X96164Y-46428D01*
X95862Y-46428D01*
X95781Y-46444D01*
X95714Y-46490D01*
X95714Y-46490D01*
X95202Y-47002D01*
X95165Y-47057D01*
X95165Y-46397D01*
X95173Y-46397D01*
X95350Y-46397D01*
X95389Y-46381D01*
X95428Y-46397D01*
X95488Y-46397D01*
X95665Y-46397D01*
X95704Y-46381D01*
X95743Y-46397D01*
X95803Y-46397D01*
X95980Y-46397D01*
X96035Y-46374D01*
X96077Y-46332D01*
X96100Y-46277D01*
X96100Y-46217D01*
X96100Y-45845D01*
X96261Y-45684D01*
X97900Y-45684D01*
X97899Y-45839D01*
X97968Y-46004D01*
X98004Y-46040D01*
G54D10*
G36*
X103290Y-46976D02*
X103115Y-46976D01*
X103060Y-46999D01*
X103018Y-47041D01*
X102995Y-47096D01*
X102995Y-47156D01*
X102995Y-47740D01*
X102900Y-47740D01*
X102900Y-47609D01*
X102900Y-47362D01*
X102900Y-47237D01*
X102900Y-46990D01*
X102892Y-46971D01*
X102878Y-46957D01*
X102859Y-46950D01*
X102840Y-46950D01*
X102512Y-46950D01*
X102500Y-46962D01*
X102500Y-47250D01*
X102887Y-47250D01*
X102900Y-47237D01*
X102900Y-47362D01*
X102887Y-47350D01*
X102500Y-47350D01*
X102500Y-47637D01*
X102512Y-47650D01*
X102840Y-47650D01*
X102859Y-47650D01*
X102878Y-47642D01*
X102892Y-47628D01*
X102900Y-47609D01*
X102900Y-47740D01*
X102400Y-47740D01*
X102400Y-47637D01*
X102400Y-47350D01*
X102400Y-47250D01*
X102400Y-46962D01*
X102387Y-46950D01*
X102059Y-46950D01*
X102040Y-46950D01*
X102021Y-46957D01*
X102007Y-46971D01*
X102000Y-46990D01*
X102000Y-47237D01*
X102012Y-47250D01*
X102400Y-47250D01*
X102400Y-47350D01*
X102012Y-47350D01*
X102000Y-47362D01*
X102000Y-47609D01*
X102007Y-47628D01*
X102021Y-47642D01*
X102040Y-47650D01*
X102059Y-47650D01*
X102387Y-47650D01*
X102400Y-47637D01*
X102400Y-47740D01*
X101886Y-47740D01*
X101700Y-47554D01*
X101700Y-47059D01*
X101700Y-46812D01*
X101687Y-46800D01*
X101400Y-46800D01*
X101400Y-47087D01*
X101412Y-47100D01*
X101640Y-47100D01*
X101659Y-47100D01*
X101678Y-47092D01*
X101692Y-47078D01*
X101700Y-47059D01*
X101700Y-47554D01*
X101579Y-47434D01*
X101512Y-47388D01*
X101432Y-47372D01*
X101300Y-47372D01*
X101300Y-47087D01*
X101300Y-46800D01*
X101012Y-46800D01*
X101000Y-46812D01*
X101000Y-47059D01*
X101007Y-47078D01*
X101021Y-47092D01*
X101040Y-47100D01*
X101059Y-47100D01*
X101287Y-47100D01*
X101300Y-47087D01*
X101300Y-47372D01*
X100700Y-47372D01*
X100700Y-47059D01*
X100700Y-46812D01*
X100687Y-46800D01*
X100400Y-46800D01*
X100400Y-47087D01*
X100412Y-47100D01*
X100640Y-47100D01*
X100659Y-47100D01*
X100678Y-47092D01*
X100692Y-47078D01*
X100700Y-47059D01*
X100700Y-47372D01*
X100350Y-47372D01*
X100300Y-47372D01*
X100300Y-47087D01*
X100300Y-46800D01*
X100012Y-46800D01*
X100000Y-46812D01*
X100000Y-47059D01*
X100007Y-47078D01*
X100021Y-47092D01*
X100040Y-47100D01*
X100059Y-47100D01*
X100287Y-47100D01*
X100300Y-47087D01*
X100300Y-47372D01*
X99700Y-47372D01*
X99700Y-47059D01*
X99700Y-46812D01*
X99687Y-46800D01*
X99400Y-46800D01*
X99400Y-47087D01*
X99412Y-47100D01*
X99640Y-47100D01*
X99659Y-47100D01*
X99678Y-47092D01*
X99692Y-47078D01*
X99700Y-47059D01*
X99700Y-47372D01*
X99300Y-47372D01*
X99300Y-47087D01*
X99300Y-46800D01*
X99012Y-46800D01*
X99000Y-46812D01*
X99000Y-47059D01*
X99007Y-47078D01*
X99021Y-47092D01*
X99040Y-47100D01*
X99059Y-47100D01*
X99287Y-47100D01*
X99300Y-47087D01*
X99300Y-47372D01*
X98849Y-47372D01*
X98825Y-47316D01*
X98734Y-47224D01*
X98700Y-47210D01*
X98700Y-47059D01*
X98700Y-46812D01*
X98687Y-46800D01*
X98400Y-46800D01*
X98400Y-47087D01*
X98412Y-47100D01*
X98640Y-47100D01*
X98659Y-47100D01*
X98678Y-47092D01*
X98692Y-47078D01*
X98700Y-47059D01*
X98700Y-47210D01*
X98614Y-47175D01*
X98485Y-47174D01*
X98366Y-47224D01*
X98300Y-47290D01*
X98300Y-47087D01*
X98300Y-46800D01*
X98012Y-46800D01*
X98000Y-46812D01*
X98000Y-47059D01*
X98007Y-47078D01*
X98021Y-47092D01*
X98040Y-47100D01*
X98059Y-47100D01*
X98287Y-47100D01*
X98300Y-47087D01*
X98300Y-47290D01*
X98274Y-47315D01*
X98250Y-47372D01*
X97780Y-47372D01*
X97824Y-47264D01*
X97825Y-47135D01*
X97775Y-47016D01*
X97684Y-46924D01*
X97564Y-46875D01*
X97470Y-46874D01*
X97399Y-46804D01*
X97332Y-46758D01*
X97252Y-46742D01*
X97202Y-46742D01*
X97486Y-46459D01*
X98000Y-46459D01*
X98000Y-46687D01*
X98012Y-46700D01*
X98300Y-46700D01*
X98300Y-46692D01*
X98400Y-46692D01*
X98400Y-46700D01*
X98687Y-46700D01*
X98700Y-46687D01*
X98700Y-46459D01*
X99000Y-46459D01*
X99000Y-46687D01*
X99012Y-46700D01*
X99300Y-46700D01*
X99300Y-46692D01*
X99400Y-46692D01*
X99400Y-46700D01*
X99687Y-46700D01*
X99700Y-46687D01*
X99700Y-46459D01*
X100000Y-46459D01*
X100000Y-46687D01*
X100012Y-46700D01*
X100300Y-46700D01*
X100300Y-46692D01*
X100400Y-46692D01*
X100400Y-46700D01*
X100687Y-46700D01*
X100700Y-46687D01*
X100700Y-46459D01*
X101000Y-46459D01*
X101000Y-46687D01*
X101012Y-46700D01*
X101300Y-46700D01*
X101300Y-46692D01*
X101400Y-46692D01*
X101400Y-46700D01*
X101687Y-46700D01*
X101700Y-46687D01*
X101700Y-46459D01*
X102863Y-46459D01*
X103290Y-46886D01*
X103290Y-46976D01*
X103290Y-46976D01*
G37*
G54D33*
X103290Y-46976D02*
X103115Y-46976D01*
X103060Y-46999D01*
X103018Y-47041D01*
X102995Y-47096D01*
X102995Y-47156D01*
X102995Y-47740D01*
X102900Y-47740D01*
X102900Y-47609D01*
X102900Y-47362D01*
X102900Y-47237D01*
X102900Y-46990D01*
X102892Y-46971D01*
X102878Y-46957D01*
X102859Y-46950D01*
X102840Y-46950D01*
X102512Y-46950D01*
X102500Y-46962D01*
X102500Y-47250D01*
X102887Y-47250D01*
X102900Y-47237D01*
X102900Y-47362D01*
X102887Y-47350D01*
X102500Y-47350D01*
X102500Y-47637D01*
X102512Y-47650D01*
X102840Y-47650D01*
X102859Y-47650D01*
X102878Y-47642D01*
X102892Y-47628D01*
X102900Y-47609D01*
X102900Y-47740D01*
X102400Y-47740D01*
X102400Y-47637D01*
X102400Y-47350D01*
X102400Y-47250D01*
X102400Y-46962D01*
X102387Y-46950D01*
X102059Y-46950D01*
X102040Y-46950D01*
X102021Y-46957D01*
X102007Y-46971D01*
X102000Y-46990D01*
X102000Y-47237D01*
X102012Y-47250D01*
X102400Y-47250D01*
X102400Y-47350D01*
X102012Y-47350D01*
X102000Y-47362D01*
X102000Y-47609D01*
X102007Y-47628D01*
X102021Y-47642D01*
X102040Y-47650D01*
X102059Y-47650D01*
X102387Y-47650D01*
X102400Y-47637D01*
X102400Y-47740D01*
X101886Y-47740D01*
X101700Y-47554D01*
X101700Y-47059D01*
X101700Y-46812D01*
X101687Y-46800D01*
X101400Y-46800D01*
X101400Y-47087D01*
X101412Y-47100D01*
X101640Y-47100D01*
X101659Y-47100D01*
X101678Y-47092D01*
X101692Y-47078D01*
X101700Y-47059D01*
X101700Y-47554D01*
X101579Y-47434D01*
X101512Y-47388D01*
X101432Y-47372D01*
X101300Y-47372D01*
X101300Y-47087D01*
X101300Y-46800D01*
X101012Y-46800D01*
X101000Y-46812D01*
X101000Y-47059D01*
X101007Y-47078D01*
X101021Y-47092D01*
X101040Y-47100D01*
X101059Y-47100D01*
X101287Y-47100D01*
X101300Y-47087D01*
X101300Y-47372D01*
X100700Y-47372D01*
X100700Y-47059D01*
X100700Y-46812D01*
X100687Y-46800D01*
X100400Y-46800D01*
X100400Y-47087D01*
X100412Y-47100D01*
X100640Y-47100D01*
X100659Y-47100D01*
X100678Y-47092D01*
X100692Y-47078D01*
X100700Y-47059D01*
X100700Y-47372D01*
X100350Y-47372D01*
X100300Y-47372D01*
X100300Y-47087D01*
X100300Y-46800D01*
X100012Y-46800D01*
X100000Y-46812D01*
X100000Y-47059D01*
X100007Y-47078D01*
X100021Y-47092D01*
X100040Y-47100D01*
X100059Y-47100D01*
X100287Y-47100D01*
X100300Y-47087D01*
X100300Y-47372D01*
X99700Y-47372D01*
X99700Y-47059D01*
X99700Y-46812D01*
X99687Y-46800D01*
X99400Y-46800D01*
X99400Y-47087D01*
X99412Y-47100D01*
X99640Y-47100D01*
X99659Y-47100D01*
X99678Y-47092D01*
X99692Y-47078D01*
X99700Y-47059D01*
X99700Y-47372D01*
X99300Y-47372D01*
X99300Y-47087D01*
X99300Y-46800D01*
X99012Y-46800D01*
X99000Y-46812D01*
X99000Y-47059D01*
X99007Y-47078D01*
X99021Y-47092D01*
X99040Y-47100D01*
X99059Y-47100D01*
X99287Y-47100D01*
X99300Y-47087D01*
X99300Y-47372D01*
X98849Y-47372D01*
X98825Y-47316D01*
X98734Y-47224D01*
X98700Y-47210D01*
X98700Y-47059D01*
X98700Y-46812D01*
X98687Y-46800D01*
X98400Y-46800D01*
X98400Y-47087D01*
X98412Y-47100D01*
X98640Y-47100D01*
X98659Y-47100D01*
X98678Y-47092D01*
X98692Y-47078D01*
X98700Y-47059D01*
X98700Y-47210D01*
X98614Y-47175D01*
X98485Y-47174D01*
X98366Y-47224D01*
X98300Y-47290D01*
X98300Y-47087D01*
X98300Y-46800D01*
X98012Y-46800D01*
X98000Y-46812D01*
X98000Y-47059D01*
X98007Y-47078D01*
X98021Y-47092D01*
X98040Y-47100D01*
X98059Y-47100D01*
X98287Y-47100D01*
X98300Y-47087D01*
X98300Y-47290D01*
X98274Y-47315D01*
X98250Y-47372D01*
X97780Y-47372D01*
X97824Y-47264D01*
X97825Y-47135D01*
X97775Y-47016D01*
X97684Y-46924D01*
X97564Y-46875D01*
X97470Y-46874D01*
X97399Y-46804D01*
X97332Y-46758D01*
X97252Y-46742D01*
X97202Y-46742D01*
X97486Y-46459D01*
X98000Y-46459D01*
X98000Y-46687D01*
X98012Y-46700D01*
X98300Y-46700D01*
X98300Y-46692D01*
X98400Y-46692D01*
X98400Y-46700D01*
X98687Y-46700D01*
X98700Y-46687D01*
X98700Y-46459D01*
X99000Y-46459D01*
X99000Y-46687D01*
X99012Y-46700D01*
X99300Y-46700D01*
X99300Y-46692D01*
X99400Y-46692D01*
X99400Y-46700D01*
X99687Y-46700D01*
X99700Y-46687D01*
X99700Y-46459D01*
X100000Y-46459D01*
X100000Y-46687D01*
X100012Y-46700D01*
X100300Y-46700D01*
X100300Y-46692D01*
X100400Y-46692D01*
X100400Y-46700D01*
X100687Y-46700D01*
X100700Y-46687D01*
X100700Y-46459D01*
X101000Y-46459D01*
X101000Y-46687D01*
X101012Y-46700D01*
X101300Y-46700D01*
X101300Y-46692D01*
X101400Y-46692D01*
X101400Y-46700D01*
X101687Y-46700D01*
X101700Y-46687D01*
X101700Y-46459D01*
X102863Y-46459D01*
X103290Y-46886D01*
X103290Y-46976D01*
G54D10*
G36*
X105040Y-56288D02*
X104938Y-56390D01*
X99536Y-56390D01*
X99092Y-55946D01*
X99095Y-55937D01*
X99095Y-55878D01*
X99095Y-55287D01*
X99072Y-55232D01*
X99030Y-55189D01*
X98975Y-55167D01*
X98915Y-55167D01*
X98859Y-55167D01*
X98859Y-54797D01*
X98877Y-54814D01*
X99079Y-54612D01*
X98877Y-54410D01*
X98859Y-54427D01*
X98859Y-54236D01*
X99086Y-54009D01*
X99975Y-54009D01*
X100055Y-53993D01*
X100122Y-53947D01*
X100415Y-53654D01*
X100415Y-54417D01*
X100352Y-54481D01*
X100352Y-54339D01*
X100314Y-54301D01*
X100182Y-54261D01*
X100046Y-54276D01*
X99985Y-54301D01*
X99947Y-54339D01*
X100150Y-54541D01*
X100352Y-54339D01*
X100352Y-54481D01*
X100220Y-54612D01*
X100226Y-54618D01*
X100155Y-54688D01*
X100150Y-54683D01*
X100079Y-54754D01*
X100079Y-54612D01*
X99877Y-54410D01*
X99838Y-54448D01*
X99799Y-54579D01*
X99813Y-54716D01*
X99838Y-54777D01*
X99877Y-54814D01*
X100079Y-54612D01*
X100079Y-54754D01*
X99947Y-54885D01*
X99985Y-54924D01*
X100117Y-54963D01*
X100253Y-54949D01*
X100298Y-54930D01*
X99948Y-55280D01*
X99902Y-55235D01*
X99739Y-55167D01*
X99561Y-55167D01*
X99500Y-55192D01*
X99500Y-54645D01*
X99486Y-54508D01*
X99461Y-54448D01*
X99422Y-54410D01*
X99352Y-54481D01*
X99352Y-54339D01*
X99314Y-54301D01*
X99182Y-54261D01*
X99046Y-54276D01*
X98985Y-54301D01*
X98947Y-54339D01*
X99150Y-54541D01*
X99352Y-54339D01*
X99352Y-54481D01*
X99220Y-54612D01*
X99422Y-54814D01*
X99461Y-54777D01*
X99500Y-54645D01*
X99500Y-55192D01*
X99397Y-55234D01*
X99352Y-55280D01*
X99352Y-54885D01*
X99150Y-54683D01*
X98947Y-54885D01*
X98985Y-54924D01*
X99117Y-54963D01*
X99253Y-54949D01*
X99314Y-54924D01*
X99352Y-54885D01*
X99352Y-55280D01*
X99272Y-55359D01*
X99204Y-55523D01*
X99204Y-55700D01*
X99272Y-55864D01*
X99397Y-55990D01*
X99560Y-56058D01*
X99738Y-56058D01*
X99902Y-55990D01*
X100027Y-55865D01*
X100078Y-55742D01*
X100204Y-55616D01*
X100204Y-55700D01*
X100272Y-55864D01*
X100397Y-55990D01*
X100560Y-56058D01*
X100738Y-56058D01*
X100902Y-55990D01*
X101027Y-55865D01*
X101095Y-55701D01*
X101095Y-55525D01*
X101336Y-55284D01*
X101348Y-55284D01*
X101272Y-55359D01*
X101204Y-55523D01*
X101204Y-55700D01*
X101272Y-55864D01*
X101397Y-55990D01*
X101560Y-56058D01*
X101738Y-56058D01*
X101902Y-55990D01*
X102027Y-55865D01*
X102095Y-55701D01*
X102095Y-55524D01*
X102027Y-55360D01*
X101951Y-55284D01*
X104050Y-55284D01*
X104805Y-55284D01*
X104804Y-55287D01*
X104804Y-55346D01*
X104804Y-55937D01*
X104827Y-55993D01*
X104869Y-56035D01*
X104924Y-56058D01*
X104984Y-56058D01*
X105040Y-56058D01*
X105040Y-56288D01*
X105040Y-56288D01*
G37*
G54D33*
X105040Y-56288D02*
X104938Y-56390D01*
X99536Y-56390D01*
X99092Y-55946D01*
X99095Y-55937D01*
X99095Y-55878D01*
X99095Y-55287D01*
X99072Y-55232D01*
X99030Y-55189D01*
X98975Y-55167D01*
X98915Y-55167D01*
X98859Y-55167D01*
X98859Y-54797D01*
X98877Y-54814D01*
X99079Y-54612D01*
X98877Y-54410D01*
X98859Y-54427D01*
X98859Y-54236D01*
X99086Y-54009D01*
X99975Y-54009D01*
X100055Y-53993D01*
X100122Y-53947D01*
X100415Y-53654D01*
X100415Y-54417D01*
X100352Y-54481D01*
X100352Y-54339D01*
X100314Y-54301D01*
X100182Y-54261D01*
X100046Y-54276D01*
X99985Y-54301D01*
X99947Y-54339D01*
X100150Y-54541D01*
X100352Y-54339D01*
X100352Y-54481D01*
X100220Y-54612D01*
X100226Y-54618D01*
X100155Y-54688D01*
X100150Y-54683D01*
X100079Y-54754D01*
X100079Y-54612D01*
X99877Y-54410D01*
X99838Y-54448D01*
X99799Y-54579D01*
X99813Y-54716D01*
X99838Y-54777D01*
X99877Y-54814D01*
X100079Y-54612D01*
X100079Y-54754D01*
X99947Y-54885D01*
X99985Y-54924D01*
X100117Y-54963D01*
X100253Y-54949D01*
X100298Y-54930D01*
X99948Y-55280D01*
X99902Y-55235D01*
X99739Y-55167D01*
X99561Y-55167D01*
X99500Y-55192D01*
X99500Y-54645D01*
X99486Y-54508D01*
X99461Y-54448D01*
X99422Y-54410D01*
X99352Y-54481D01*
X99352Y-54339D01*
X99314Y-54301D01*
X99182Y-54261D01*
X99046Y-54276D01*
X98985Y-54301D01*
X98947Y-54339D01*
X99150Y-54541D01*
X99352Y-54339D01*
X99352Y-54481D01*
X99220Y-54612D01*
X99422Y-54814D01*
X99461Y-54777D01*
X99500Y-54645D01*
X99500Y-55192D01*
X99397Y-55234D01*
X99352Y-55280D01*
X99352Y-54885D01*
X99150Y-54683D01*
X98947Y-54885D01*
X98985Y-54924D01*
X99117Y-54963D01*
X99253Y-54949D01*
X99314Y-54924D01*
X99352Y-54885D01*
X99352Y-55280D01*
X99272Y-55359D01*
X99204Y-55523D01*
X99204Y-55700D01*
X99272Y-55864D01*
X99397Y-55990D01*
X99560Y-56058D01*
X99738Y-56058D01*
X99902Y-55990D01*
X100027Y-55865D01*
X100078Y-55742D01*
X100204Y-55616D01*
X100204Y-55700D01*
X100272Y-55864D01*
X100397Y-55990D01*
X100560Y-56058D01*
X100738Y-56058D01*
X100902Y-55990D01*
X101027Y-55865D01*
X101095Y-55701D01*
X101095Y-55525D01*
X101336Y-55284D01*
X101348Y-55284D01*
X101272Y-55359D01*
X101204Y-55523D01*
X101204Y-55700D01*
X101272Y-55864D01*
X101397Y-55990D01*
X101560Y-56058D01*
X101738Y-56058D01*
X101902Y-55990D01*
X102027Y-55865D01*
X102095Y-55701D01*
X102095Y-55524D01*
X102027Y-55360D01*
X101951Y-55284D01*
X104050Y-55284D01*
X104805Y-55284D01*
X104804Y-55287D01*
X104804Y-55346D01*
X104804Y-55937D01*
X104827Y-55993D01*
X104869Y-56035D01*
X104924Y-56058D01*
X104984Y-56058D01*
X105040Y-56058D01*
X105040Y-56288D01*
G54D10*
G36*
X110550Y-61550D02*
X110257Y-61550D01*
X110257Y-41257D01*
X110186Y-41086D01*
X110055Y-40956D01*
X109885Y-40885D01*
X109700Y-40884D01*
X109529Y-40955D01*
X109398Y-41086D01*
X109327Y-41257D01*
X109327Y-41442D01*
X109397Y-41613D01*
X109528Y-41743D01*
X109543Y-41750D01*
X109543Y-42354D01*
X108647Y-43251D01*
X107265Y-43251D01*
X107265Y-41257D01*
X107194Y-41086D01*
X107063Y-40956D01*
X106892Y-40885D01*
X106707Y-40884D01*
X106536Y-40955D01*
X106406Y-41086D01*
X106335Y-41257D01*
X106334Y-41442D01*
X106405Y-41613D01*
X106536Y-41743D01*
X106707Y-41814D01*
X106892Y-41815D01*
X107063Y-41744D01*
X107193Y-41613D01*
X107264Y-41442D01*
X107265Y-41257D01*
X107265Y-43251D01*
X103937Y-43251D01*
X103975Y-43225D01*
X105117Y-42083D01*
X105117Y-42083D01*
X105117Y-42083D01*
X105171Y-42002D01*
X105190Y-41907D01*
X105190Y-41907D01*
X105190Y-41907D01*
X105190Y-41750D01*
X105205Y-41744D01*
X105336Y-41613D01*
X105407Y-41442D01*
X105407Y-41257D01*
X105336Y-41086D01*
X105205Y-40956D01*
X105035Y-40885D01*
X104850Y-40884D01*
X104679Y-40955D01*
X104548Y-41086D01*
X104477Y-41257D01*
X104477Y-41442D01*
X104547Y-41613D01*
X104678Y-41743D01*
X104693Y-41750D01*
X104693Y-41804D01*
X103697Y-42801D01*
X102415Y-42801D01*
X102415Y-41257D01*
X102344Y-41086D01*
X102213Y-40956D01*
X102042Y-40885D01*
X101857Y-40884D01*
X101686Y-40955D01*
X101556Y-41086D01*
X101485Y-41257D01*
X101484Y-41442D01*
X101555Y-41613D01*
X101686Y-41743D01*
X101857Y-41814D01*
X102042Y-41815D01*
X102213Y-41744D01*
X102343Y-41613D01*
X102414Y-41442D01*
X102415Y-41257D01*
X102415Y-42801D01*
X98979Y-42801D01*
X99017Y-42775D01*
X99984Y-41808D01*
X99999Y-41814D01*
X100184Y-41815D01*
X100355Y-41744D01*
X100486Y-41613D01*
X100557Y-41442D01*
X100557Y-41257D01*
X100486Y-41086D01*
X100355Y-40956D01*
X100185Y-40885D01*
X100000Y-40884D01*
X99829Y-40955D01*
X99698Y-41086D01*
X99627Y-41257D01*
X99627Y-41442D01*
X99633Y-41457D01*
X98739Y-42351D01*
X97565Y-42351D01*
X97565Y-41257D01*
X97494Y-41086D01*
X97363Y-40956D01*
X97192Y-40885D01*
X97007Y-40884D01*
X96836Y-40955D01*
X96706Y-41086D01*
X96635Y-41257D01*
X96634Y-41442D01*
X96705Y-41613D01*
X96836Y-41743D01*
X97007Y-41814D01*
X97192Y-41815D01*
X97363Y-41744D01*
X97493Y-41613D01*
X97564Y-41442D01*
X97565Y-41257D01*
X97565Y-42351D01*
X94579Y-42351D01*
X94617Y-42325D01*
X95134Y-41808D01*
X95149Y-41814D01*
X95334Y-41815D01*
X95505Y-41744D01*
X95636Y-41613D01*
X95707Y-41442D01*
X95707Y-41257D01*
X95636Y-41086D01*
X95505Y-40956D01*
X95335Y-40885D01*
X95150Y-40884D01*
X94979Y-40955D01*
X94848Y-41086D01*
X94777Y-41257D01*
X94777Y-41442D01*
X94783Y-41457D01*
X94339Y-41901D01*
X92715Y-41901D01*
X92715Y-41257D01*
X92644Y-41086D01*
X92513Y-40956D01*
X92342Y-40885D01*
X92157Y-40884D01*
X91986Y-40955D01*
X91856Y-41086D01*
X91785Y-41257D01*
X91784Y-41442D01*
X91855Y-41613D01*
X91986Y-41743D01*
X92157Y-41814D01*
X92342Y-41815D01*
X92513Y-41744D01*
X92643Y-41613D01*
X92714Y-41442D01*
X92715Y-41257D01*
X92715Y-41901D01*
X90800Y-41901D01*
X90704Y-41920D01*
X90624Y-41974D01*
X89024Y-43574D01*
X88970Y-43654D01*
X88951Y-43750D01*
X88951Y-43942D01*
X88949Y-43944D01*
X88948Y-43942D01*
X88948Y-43502D01*
X90317Y-42133D01*
X90371Y-42052D01*
X90390Y-41957D01*
X90390Y-41950D01*
X90390Y-41750D01*
X90405Y-41744D01*
X90536Y-41613D01*
X90607Y-41442D01*
X90607Y-41257D01*
X90536Y-41086D01*
X90405Y-40956D01*
X90235Y-40885D01*
X90050Y-40884D01*
X89879Y-40955D01*
X89748Y-41086D01*
X89677Y-41257D01*
X89677Y-41442D01*
X89747Y-41613D01*
X89878Y-41743D01*
X89893Y-41750D01*
X89893Y-41854D01*
X88524Y-43224D01*
X88470Y-43304D01*
X88451Y-43400D01*
X88451Y-43942D01*
X88449Y-43944D01*
X88448Y-43942D01*
X88448Y-43150D01*
X88429Y-43054D01*
X88375Y-42974D01*
X88025Y-42624D01*
X87945Y-42570D01*
X87850Y-42551D01*
X87615Y-42551D01*
X87615Y-41257D01*
X87544Y-41086D01*
X87413Y-40956D01*
X87242Y-40885D01*
X87057Y-40884D01*
X86886Y-40955D01*
X86756Y-41086D01*
X86685Y-41257D01*
X86684Y-41442D01*
X86755Y-41613D01*
X86886Y-41743D01*
X87057Y-41814D01*
X87242Y-41815D01*
X87413Y-41744D01*
X87543Y-41613D01*
X87614Y-41442D01*
X87615Y-41257D01*
X87615Y-42551D01*
X85802Y-42551D01*
X85490Y-42239D01*
X85490Y-42000D01*
X85490Y-41950D01*
X85490Y-41750D01*
X85505Y-41744D01*
X85636Y-41613D01*
X85707Y-41442D01*
X85707Y-41257D01*
X85636Y-41086D01*
X85505Y-40956D01*
X85335Y-40885D01*
X85150Y-40884D01*
X84979Y-40955D01*
X84848Y-41086D01*
X84777Y-41257D01*
X84777Y-41442D01*
X84847Y-41613D01*
X84978Y-41743D01*
X84993Y-41750D01*
X84993Y-41950D01*
X84993Y-42000D01*
X84993Y-42342D01*
X85012Y-42437D01*
X85066Y-42517D01*
X85524Y-42975D01*
X85524Y-42975D01*
X85572Y-43008D01*
X85604Y-43029D01*
X85604Y-43029D01*
X85700Y-43048D01*
X87747Y-43048D01*
X87951Y-43252D01*
X87951Y-43942D01*
X87949Y-43944D01*
X87948Y-43942D01*
X87948Y-43800D01*
X87929Y-43704D01*
X87875Y-43624D01*
X87475Y-43224D01*
X87395Y-43170D01*
X87300Y-43151D01*
X82715Y-43151D01*
X82715Y-41257D01*
X82644Y-41086D01*
X82513Y-40956D01*
X82342Y-40885D01*
X82157Y-40884D01*
X81986Y-40955D01*
X81856Y-41086D01*
X81785Y-41257D01*
X81784Y-41442D01*
X81855Y-41613D01*
X81986Y-41743D01*
X82157Y-41814D01*
X82342Y-41815D01*
X82513Y-41744D01*
X82643Y-41613D01*
X82714Y-41442D01*
X82715Y-41257D01*
X82715Y-43151D01*
X80852Y-43151D01*
X80590Y-42889D01*
X80590Y-42000D01*
X80590Y-41950D01*
X80590Y-41750D01*
X80605Y-41744D01*
X80736Y-41613D01*
X80807Y-41442D01*
X80807Y-41257D01*
X80736Y-41086D01*
X80605Y-40956D01*
X80435Y-40885D01*
X80250Y-40884D01*
X80079Y-40955D01*
X79948Y-41086D01*
X79877Y-41257D01*
X79877Y-41442D01*
X79947Y-41613D01*
X80078Y-41743D01*
X80093Y-41750D01*
X80093Y-41950D01*
X80093Y-42000D01*
X80093Y-42992D01*
X80112Y-43087D01*
X80166Y-43167D01*
X80574Y-43575D01*
X80654Y-43629D01*
X80750Y-43648D01*
X87197Y-43648D01*
X87451Y-43902D01*
X87451Y-43942D01*
X87450Y-43943D01*
X87434Y-43928D01*
X87379Y-43905D01*
X87320Y-43905D01*
X87020Y-43905D01*
X86965Y-43928D01*
X86926Y-43966D01*
X86850Y-43951D01*
X77815Y-43951D01*
X77815Y-41257D01*
X77744Y-41086D01*
X77613Y-40956D01*
X77442Y-40885D01*
X77257Y-40884D01*
X77086Y-40955D01*
X76956Y-41086D01*
X76885Y-41257D01*
X76884Y-41442D01*
X76955Y-41613D01*
X77086Y-41743D01*
X77257Y-41814D01*
X77442Y-41815D01*
X77613Y-41744D01*
X77743Y-41613D01*
X77814Y-41442D01*
X77815Y-41257D01*
X77815Y-43951D01*
X76402Y-43951D01*
X75731Y-43279D01*
X75725Y-43271D01*
X75651Y-43197D01*
X75651Y-42450D01*
X75651Y-41766D01*
X75705Y-41744D01*
X75836Y-41613D01*
X75907Y-41442D01*
X75907Y-41257D01*
X75836Y-41086D01*
X75705Y-40956D01*
X75535Y-40885D01*
X75350Y-40884D01*
X75179Y-40955D01*
X75048Y-41086D01*
X74977Y-41257D01*
X74977Y-41442D01*
X75047Y-41613D01*
X75154Y-41719D01*
X75154Y-42450D01*
X75154Y-43300D01*
X75173Y-43395D01*
X75227Y-43475D01*
X75368Y-43617D01*
X75374Y-43625D01*
X76124Y-44375D01*
X76204Y-44429D01*
X76300Y-44448D01*
X86747Y-44448D01*
X86900Y-44601D01*
X86900Y-44790D01*
X86884Y-44774D01*
X86764Y-44725D01*
X86635Y-44724D01*
X86516Y-44774D01*
X86424Y-44865D01*
X86375Y-44985D01*
X86374Y-45114D01*
X86424Y-45233D01*
X86515Y-45325D01*
X86635Y-45374D01*
X86729Y-45375D01*
X86990Y-45636D01*
X86990Y-47618D01*
X86965Y-47629D01*
X86922Y-47671D01*
X86900Y-47726D01*
X86900Y-47786D01*
X86900Y-48573D01*
X86922Y-48629D01*
X86965Y-48671D01*
X87020Y-48694D01*
X87079Y-48694D01*
X87379Y-48694D01*
X87434Y-48671D01*
X87450Y-48656D01*
X87465Y-48670D01*
X87520Y-48693D01*
X87579Y-48693D01*
X87879Y-48693D01*
X87934Y-48670D01*
X87950Y-48655D01*
X87965Y-48670D01*
X88020Y-48693D01*
X88079Y-48693D01*
X88379Y-48693D01*
X88434Y-48670D01*
X88450Y-48655D01*
X88465Y-48670D01*
X88520Y-48693D01*
X88579Y-48693D01*
X88879Y-48693D01*
X88934Y-48670D01*
X88950Y-48655D01*
X88965Y-48670D01*
X89020Y-48693D01*
X89079Y-48693D01*
X89379Y-48693D01*
X89434Y-48670D01*
X89450Y-48655D01*
X89465Y-48670D01*
X89520Y-48693D01*
X89579Y-48693D01*
X89879Y-48693D01*
X89934Y-48670D01*
X89950Y-48655D01*
X89965Y-48670D01*
X90020Y-48693D01*
X90079Y-48693D01*
X90379Y-48693D01*
X90434Y-48670D01*
X90450Y-48655D01*
X90465Y-48670D01*
X90520Y-48693D01*
X90579Y-48693D01*
X90879Y-48693D01*
X90934Y-48670D01*
X90977Y-48628D01*
X91000Y-48573D01*
X91000Y-48553D01*
X91007Y-48572D01*
X91021Y-48586D01*
X91040Y-48593D01*
X91137Y-48593D01*
X91150Y-48581D01*
X91150Y-48200D01*
X91012Y-48200D01*
X91000Y-48212D01*
X91000Y-48087D01*
X91012Y-48100D01*
X91150Y-48100D01*
X91150Y-48092D01*
X91250Y-48092D01*
X91250Y-48100D01*
X91387Y-48100D01*
X91400Y-48087D01*
X91400Y-47795D01*
X91402Y-47797D01*
X91402Y-47797D01*
X91962Y-48357D01*
X91962Y-48357D01*
X92029Y-48403D01*
X92110Y-48419D01*
X92185Y-48419D01*
X91652Y-48952D01*
X91606Y-49019D01*
X91590Y-49100D01*
X91590Y-49149D01*
X91524Y-49215D01*
X91475Y-49335D01*
X91474Y-49464D01*
X91524Y-49583D01*
X91615Y-49675D01*
X91653Y-49690D01*
X91400Y-49690D01*
X91400Y-48553D01*
X91400Y-48533D01*
X91400Y-48212D01*
X91387Y-48200D01*
X91250Y-48200D01*
X91250Y-48581D01*
X91262Y-48593D01*
X91359Y-48593D01*
X91378Y-48586D01*
X91392Y-48572D01*
X91400Y-48553D01*
X91400Y-49690D01*
X90350Y-49690D01*
X90300Y-49690D01*
X89900Y-49690D01*
X86550Y-49690D01*
X86550Y-48110D01*
X86481Y-47945D01*
X86355Y-47818D01*
X86189Y-47750D01*
X86010Y-47749D01*
X85845Y-47818D01*
X85718Y-47944D01*
X85650Y-48110D01*
X85649Y-48289D01*
X85718Y-48454D01*
X85844Y-48581D01*
X86010Y-48649D01*
X86189Y-48650D01*
X86354Y-48581D01*
X86481Y-48455D01*
X86549Y-48289D01*
X86550Y-48110D01*
X86550Y-49690D01*
X86455Y-49690D01*
X86455Y-49233D01*
X86441Y-49095D01*
X86415Y-49032D01*
X86376Y-48994D01*
X86305Y-49065D01*
X86305Y-48923D01*
X86267Y-48884D01*
X86133Y-48844D01*
X85995Y-48858D01*
X85932Y-48884D01*
X85894Y-48923D01*
X86100Y-49129D01*
X86305Y-48923D01*
X86305Y-49065D01*
X86170Y-49200D01*
X86376Y-49405D01*
X86415Y-49367D01*
X86455Y-49233D01*
X86455Y-49690D01*
X86305Y-49690D01*
X86305Y-49476D01*
X86100Y-49270D01*
X86029Y-49341D01*
X86029Y-49200D01*
X85823Y-48994D01*
X85784Y-49032D01*
X85744Y-49166D01*
X85758Y-49304D01*
X85784Y-49367D01*
X85823Y-49405D01*
X86029Y-49200D01*
X86029Y-49341D01*
X85894Y-49476D01*
X85932Y-49515D01*
X86066Y-49555D01*
X86204Y-49541D01*
X86267Y-49515D01*
X86305Y-49476D01*
X86305Y-49690D01*
X85550Y-49690D01*
X85550Y-49110D01*
X85550Y-48110D01*
X85481Y-47945D01*
X85355Y-47818D01*
X85189Y-47750D01*
X85010Y-47749D01*
X84845Y-47818D01*
X84718Y-47944D01*
X84650Y-48110D01*
X84649Y-48289D01*
X84718Y-48454D01*
X84844Y-48581D01*
X85010Y-48649D01*
X85189Y-48650D01*
X85354Y-48581D01*
X85481Y-48455D01*
X85549Y-48289D01*
X85550Y-48110D01*
X85550Y-49110D01*
X85481Y-48945D01*
X85355Y-48818D01*
X85189Y-48750D01*
X85010Y-48749D01*
X84845Y-48818D01*
X84718Y-48944D01*
X84650Y-49110D01*
X84649Y-49289D01*
X84718Y-49454D01*
X84844Y-49581D01*
X85010Y-49649D01*
X85189Y-49650D01*
X85354Y-49581D01*
X85481Y-49455D01*
X85549Y-49289D01*
X85550Y-49110D01*
X85550Y-49690D01*
X84573Y-49690D01*
X84409Y-49526D01*
X84481Y-49455D01*
X84549Y-49289D01*
X84550Y-49110D01*
X84550Y-48110D01*
X84481Y-47945D01*
X84355Y-47818D01*
X84189Y-47750D01*
X84010Y-47749D01*
X83845Y-47818D01*
X83718Y-47944D01*
X83650Y-48110D01*
X83649Y-48289D01*
X83718Y-48454D01*
X83844Y-48581D01*
X84010Y-48649D01*
X84189Y-48650D01*
X84354Y-48581D01*
X84481Y-48455D01*
X84549Y-48289D01*
X84550Y-48110D01*
X84550Y-49110D01*
X84481Y-48945D01*
X84355Y-48818D01*
X84189Y-48750D01*
X84010Y-48749D01*
X83845Y-48818D01*
X83718Y-48944D01*
X83650Y-49110D01*
X83649Y-49289D01*
X83718Y-49454D01*
X83844Y-49581D01*
X83946Y-49623D01*
X83958Y-49641D01*
X84308Y-49990D01*
X84086Y-49990D01*
X83501Y-49406D01*
X83549Y-49289D01*
X83550Y-49110D01*
X83550Y-48110D01*
X83481Y-47945D01*
X83355Y-47818D01*
X83189Y-47750D01*
X83010Y-47749D01*
X82845Y-47818D01*
X82718Y-47944D01*
X82650Y-48110D01*
X82649Y-48289D01*
X82718Y-48454D01*
X82844Y-48581D01*
X83010Y-48649D01*
X83189Y-48650D01*
X83354Y-48581D01*
X83481Y-48455D01*
X83549Y-48289D01*
X83550Y-48110D01*
X83550Y-49110D01*
X83481Y-48945D01*
X83355Y-48818D01*
X83189Y-48750D01*
X83010Y-48749D01*
X82845Y-48818D01*
X82718Y-48944D01*
X82650Y-49110D01*
X82649Y-49289D01*
X82718Y-49454D01*
X82844Y-49581D01*
X83010Y-49649D01*
X83154Y-49650D01*
X83852Y-50347D01*
X83916Y-50390D01*
X83136Y-50390D01*
X82335Y-49589D01*
X82354Y-49581D01*
X82481Y-49455D01*
X82549Y-49289D01*
X82550Y-49110D01*
X82550Y-48110D01*
X82481Y-47945D01*
X82355Y-47818D01*
X82189Y-47750D01*
X82010Y-47749D01*
X81845Y-47818D01*
X81718Y-47944D01*
X81650Y-48110D01*
X81649Y-48289D01*
X81718Y-48454D01*
X81844Y-48581D01*
X82010Y-48649D01*
X82189Y-48650D01*
X82354Y-48581D01*
X82481Y-48455D01*
X82549Y-48289D01*
X82550Y-48110D01*
X82550Y-49110D01*
X82481Y-48945D01*
X82355Y-48818D01*
X82189Y-48750D01*
X82010Y-48749D01*
X81845Y-48818D01*
X81718Y-48944D01*
X81650Y-49110D01*
X81649Y-49289D01*
X81718Y-49454D01*
X81844Y-49581D01*
X81890Y-49600D01*
X81890Y-49650D01*
X81906Y-49730D01*
X81952Y-49797D01*
X82895Y-50740D01*
X82836Y-50740D01*
X81501Y-49406D01*
X81549Y-49289D01*
X81550Y-49110D01*
X81550Y-48110D01*
X81481Y-47945D01*
X81355Y-47818D01*
X81189Y-47750D01*
X81010Y-47749D01*
X80845Y-47818D01*
X80718Y-47944D01*
X80650Y-48110D01*
X80649Y-48289D01*
X80718Y-48454D01*
X80844Y-48581D01*
X81010Y-48649D01*
X81189Y-48650D01*
X81354Y-48581D01*
X81481Y-48455D01*
X81549Y-48289D01*
X81550Y-48110D01*
X81550Y-49110D01*
X81481Y-48945D01*
X81355Y-48818D01*
X81189Y-48750D01*
X81010Y-48749D01*
X80845Y-48818D01*
X80718Y-48944D01*
X80650Y-49110D01*
X80649Y-49289D01*
X80718Y-49454D01*
X80844Y-49581D01*
X81010Y-49649D01*
X81154Y-49650D01*
X82602Y-51097D01*
X82669Y-51143D01*
X82750Y-51159D01*
X83813Y-51159D01*
X83954Y-51300D01*
X83910Y-51300D01*
X83855Y-51322D01*
X83812Y-51365D01*
X83790Y-51420D01*
X83790Y-51479D01*
X83790Y-52379D01*
X83812Y-52434D01*
X83855Y-52477D01*
X83910Y-52500D01*
X83969Y-52500D01*
X84589Y-52500D01*
X84644Y-52477D01*
X84687Y-52434D01*
X84710Y-52379D01*
X84710Y-52320D01*
X84710Y-51420D01*
X84687Y-51365D01*
X84644Y-51322D01*
X84589Y-51300D01*
X84530Y-51300D01*
X84459Y-51300D01*
X84443Y-51219D01*
X84397Y-51152D01*
X84054Y-50809D01*
X85213Y-50809D01*
X85690Y-51286D01*
X85690Y-51750D01*
X85706Y-51830D01*
X85752Y-51897D01*
X86002Y-52147D01*
X86002Y-52147D01*
X86002Y-52147D01*
X86069Y-52193D01*
X86150Y-52209D01*
X86150Y-52209D01*
X86150Y-52209D01*
X86950Y-52209D01*
X87030Y-52193D01*
X87097Y-52147D01*
X87645Y-51600D01*
X87839Y-51600D01*
X87894Y-51577D01*
X87937Y-51534D01*
X87960Y-51479D01*
X87960Y-51420D01*
X87960Y-50520D01*
X87937Y-50465D01*
X87894Y-50422D01*
X87861Y-50409D01*
X89388Y-50409D01*
X89355Y-50422D01*
X89312Y-50465D01*
X89290Y-50520D01*
X89290Y-50579D01*
X89290Y-51479D01*
X89312Y-51534D01*
X89355Y-51577D01*
X89410Y-51600D01*
X89469Y-51600D01*
X90089Y-51600D01*
X90144Y-51577D01*
X90187Y-51534D01*
X90210Y-51479D01*
X90210Y-51420D01*
X90210Y-50520D01*
X90187Y-50465D01*
X90144Y-50422D01*
X90111Y-50409D01*
X90163Y-50409D01*
X90290Y-50535D01*
X90290Y-50579D01*
X90290Y-51479D01*
X90312Y-51534D01*
X90355Y-51577D01*
X90410Y-51600D01*
X90469Y-51600D01*
X91089Y-51600D01*
X91144Y-51577D01*
X91187Y-51534D01*
X91210Y-51479D01*
X91210Y-51420D01*
X91210Y-50520D01*
X91187Y-50465D01*
X91144Y-50422D01*
X91089Y-50400D01*
X91030Y-50400D01*
X90745Y-50400D01*
X90454Y-50109D01*
X92763Y-50109D01*
X92904Y-50250D01*
X92662Y-50250D01*
X92650Y-50262D01*
X92650Y-50650D01*
X92937Y-50650D01*
X92950Y-50637D01*
X92950Y-50309D01*
X92950Y-50295D01*
X93040Y-50386D01*
X93040Y-51150D01*
X93056Y-51230D01*
X93102Y-51297D01*
X93104Y-51300D01*
X92950Y-51300D01*
X92950Y-51109D01*
X92950Y-51090D01*
X92950Y-50762D01*
X92937Y-50750D01*
X92650Y-50750D01*
X92650Y-51137D01*
X92662Y-51150D01*
X92909Y-51150D01*
X92928Y-51142D01*
X92942Y-51128D01*
X92950Y-51109D01*
X92950Y-51300D01*
X92660Y-51300D01*
X92605Y-51322D01*
X92562Y-51365D01*
X92550Y-51396D01*
X92550Y-51137D01*
X92550Y-50750D01*
X92550Y-50650D01*
X92550Y-50262D01*
X92537Y-50250D01*
X92290Y-50250D01*
X92271Y-50257D01*
X92257Y-50271D01*
X92250Y-50290D01*
X92250Y-50309D01*
X92250Y-50637D01*
X92262Y-50650D01*
X92550Y-50650D01*
X92550Y-50750D01*
X92262Y-50750D01*
X92250Y-50762D01*
X92250Y-51090D01*
X92250Y-51109D01*
X92257Y-51128D01*
X92271Y-51142D01*
X92290Y-51150D01*
X92537Y-51150D01*
X92550Y-51137D01*
X92550Y-51396D01*
X92540Y-51420D01*
X92540Y-51479D01*
X92540Y-52379D01*
X92562Y-52434D01*
X92605Y-52477D01*
X92660Y-52500D01*
X92719Y-52500D01*
X93339Y-52500D01*
X93394Y-52477D01*
X93437Y-52434D01*
X93460Y-52379D01*
X93460Y-52320D01*
X93460Y-51655D01*
X93540Y-51735D01*
X93540Y-52379D01*
X93562Y-52434D01*
X93605Y-52477D01*
X93660Y-52500D01*
X93719Y-52500D01*
X94339Y-52500D01*
X94394Y-52477D01*
X94437Y-52434D01*
X94460Y-52379D01*
X94460Y-52320D01*
X94460Y-51735D01*
X94597Y-51597D01*
X94640Y-51534D01*
X94640Y-51837D01*
X94652Y-51850D01*
X94950Y-51850D01*
X94950Y-51412D01*
X94937Y-51400D01*
X94680Y-51400D01*
X94661Y-51407D01*
X94659Y-51410D01*
X94659Y-50718D01*
X94715Y-50775D01*
X94835Y-50824D01*
X94964Y-50825D01*
X95083Y-50775D01*
X95150Y-50709D01*
X95215Y-50775D01*
X95335Y-50824D01*
X95464Y-50825D01*
X95477Y-50819D01*
X95524Y-50933D01*
X95615Y-51025D01*
X95735Y-51074D01*
X95864Y-51075D01*
X95874Y-51070D01*
X95874Y-51114D01*
X95924Y-51233D01*
X96015Y-51325D01*
X96135Y-51374D01*
X96264Y-51375D01*
X96383Y-51325D01*
X96475Y-51234D01*
X96524Y-51114D01*
X96525Y-50985D01*
X96517Y-50967D01*
X96535Y-50974D01*
X96629Y-50975D01*
X96839Y-51185D01*
X96839Y-51185D01*
X97102Y-51447D01*
X97169Y-51493D01*
X97250Y-51509D01*
X99450Y-51509D01*
X99530Y-51493D01*
X99597Y-51447D01*
X99872Y-51172D01*
X99918Y-51105D01*
X99934Y-51025D01*
X99934Y-50550D01*
X99979Y-50531D01*
X100106Y-50405D01*
X100174Y-50239D01*
X100175Y-50060D01*
X100106Y-49895D01*
X99980Y-49768D01*
X99814Y-49700D01*
X99635Y-49699D01*
X99470Y-49768D01*
X99434Y-49804D01*
X99434Y-49736D01*
X99589Y-49581D01*
X99635Y-49599D01*
X99814Y-49600D01*
X99979Y-49531D01*
X100106Y-49405D01*
X100174Y-49239D01*
X100175Y-49060D01*
X100106Y-48895D01*
X99980Y-48768D01*
X99814Y-48700D01*
X99635Y-48699D01*
X99470Y-48768D01*
X99343Y-48894D01*
X99275Y-49060D01*
X99274Y-49239D01*
X99294Y-49285D01*
X99175Y-49404D01*
X99175Y-49060D01*
X99106Y-48895D01*
X98980Y-48768D01*
X98814Y-48700D01*
X98635Y-48699D01*
X98470Y-48768D01*
X98343Y-48894D01*
X98275Y-49060D01*
X98274Y-49239D01*
X98343Y-49404D01*
X98469Y-49531D01*
X98635Y-49599D01*
X98814Y-49600D01*
X98979Y-49531D01*
X99106Y-49405D01*
X99174Y-49239D01*
X99175Y-49060D01*
X99175Y-49404D01*
X99077Y-49502D01*
X99031Y-49569D01*
X99015Y-49650D01*
X99015Y-49958D01*
X99001Y-49944D01*
X98930Y-50015D01*
X98930Y-49873D01*
X98892Y-49834D01*
X98758Y-49794D01*
X98620Y-49808D01*
X98557Y-49834D01*
X98519Y-49873D01*
X98725Y-50079D01*
X98930Y-49873D01*
X98930Y-50015D01*
X98795Y-50150D01*
X99001Y-50355D01*
X99015Y-50341D01*
X99015Y-50588D01*
X98930Y-50673D01*
X98930Y-50426D01*
X98725Y-50220D01*
X98654Y-50291D01*
X98654Y-50150D01*
X98448Y-49944D01*
X98409Y-49982D01*
X98369Y-50116D01*
X98383Y-50254D01*
X98409Y-50317D01*
X98448Y-50355D01*
X98654Y-50150D01*
X98654Y-50291D01*
X98519Y-50426D01*
X98557Y-50465D01*
X98691Y-50505D01*
X98829Y-50491D01*
X98892Y-50465D01*
X98930Y-50426D01*
X98930Y-50673D01*
X98913Y-50690D01*
X97686Y-50690D01*
X97547Y-50552D01*
X97210Y-50214D01*
X97235Y-50224D01*
X97364Y-50225D01*
X97483Y-50175D01*
X97575Y-50084D01*
X97624Y-49964D01*
X97625Y-49835D01*
X97575Y-49716D01*
X97484Y-49624D01*
X97364Y-49575D01*
X97314Y-49575D01*
X97433Y-49525D01*
X97500Y-49459D01*
X97525Y-49459D01*
X97605Y-49443D01*
X97672Y-49397D01*
X98386Y-48684D01*
X100125Y-48684D01*
X100438Y-48684D01*
X100454Y-48700D01*
X100395Y-48700D01*
X100340Y-48722D01*
X100297Y-48765D01*
X100275Y-48820D01*
X100275Y-48879D01*
X100275Y-49479D01*
X100297Y-49534D01*
X100340Y-49577D01*
X100395Y-49600D01*
X100454Y-49600D01*
X101054Y-49600D01*
X101109Y-49577D01*
X101152Y-49534D01*
X101175Y-49479D01*
X101175Y-49420D01*
X101175Y-48820D01*
X101152Y-48765D01*
X101109Y-48722D01*
X101054Y-48700D01*
X100995Y-48700D01*
X100934Y-48700D01*
X100934Y-48675D01*
X100918Y-48594D01*
X100872Y-48527D01*
X100872Y-48527D01*
X100766Y-48421D01*
X101025Y-48421D01*
X101190Y-48586D01*
X101190Y-49250D01*
X101190Y-50950D01*
X101175Y-50966D01*
X101175Y-50060D01*
X101106Y-49895D01*
X100980Y-49768D01*
X100814Y-49700D01*
X100635Y-49699D01*
X100470Y-49768D01*
X100343Y-49894D01*
X100275Y-50060D01*
X100274Y-50239D01*
X100343Y-50404D01*
X100469Y-50531D01*
X100635Y-50599D01*
X100814Y-50600D01*
X100979Y-50531D01*
X101106Y-50405D01*
X101174Y-50239D01*
X101175Y-50060D01*
X101175Y-50966D01*
X100254Y-51887D01*
X100209Y-51955D01*
X100205Y-51971D01*
X100154Y-51950D01*
X100095Y-51950D01*
X99395Y-51950D01*
X99340Y-51972D01*
X99297Y-52015D01*
X99275Y-52070D01*
X99275Y-52129D01*
X99275Y-52829D01*
X99297Y-52884D01*
X99340Y-52927D01*
X99395Y-52950D01*
X99454Y-52950D01*
X100154Y-52950D01*
X100193Y-52934D01*
X100193Y-53286D01*
X99888Y-53590D01*
X99180Y-53590D01*
X99180Y-52495D01*
X99166Y-52337D01*
X99131Y-52252D01*
X99087Y-52208D01*
X99016Y-52278D01*
X99016Y-52137D01*
X98972Y-52093D01*
X98820Y-52044D01*
X98662Y-52058D01*
X98577Y-52093D01*
X98533Y-52137D01*
X98775Y-52379D01*
X99016Y-52137D01*
X99016Y-52278D01*
X98845Y-52450D01*
X99087Y-52691D01*
X99131Y-52647D01*
X99180Y-52495D01*
X99180Y-53590D01*
X99016Y-53590D01*
X99016Y-52762D01*
X98775Y-52520D01*
X98704Y-52591D01*
X98704Y-52450D01*
X98462Y-52208D01*
X98418Y-52252D01*
X98369Y-52404D01*
X98383Y-52562D01*
X98418Y-52647D01*
X98462Y-52691D01*
X98704Y-52450D01*
X98704Y-52591D01*
X98533Y-52762D01*
X98577Y-52806D01*
X98729Y-52855D01*
X98887Y-52841D01*
X98972Y-52806D01*
X99016Y-52762D01*
X99016Y-53590D01*
X99000Y-53590D01*
X99000Y-53590D01*
X98919Y-53606D01*
X98852Y-53652D01*
X98502Y-54002D01*
X98456Y-54069D01*
X98440Y-54150D01*
X98440Y-55167D01*
X98324Y-55167D01*
X98269Y-55189D01*
X98227Y-55232D01*
X98204Y-55287D01*
X98204Y-55346D01*
X98204Y-55937D01*
X98227Y-55993D01*
X98269Y-56035D01*
X98324Y-56058D01*
X98384Y-56058D01*
X98612Y-56058D01*
X99302Y-56747D01*
X99369Y-56793D01*
X99450Y-56809D01*
X105025Y-56809D01*
X105105Y-56793D01*
X105172Y-56747D01*
X105397Y-56522D01*
X105443Y-56455D01*
X105459Y-56375D01*
X105459Y-56058D01*
X105575Y-56058D01*
X105630Y-56035D01*
X105672Y-55993D01*
X105695Y-55937D01*
X105695Y-55878D01*
X105695Y-55287D01*
X105694Y-55284D01*
X105948Y-55284D01*
X105872Y-55359D01*
X105804Y-55523D01*
X105804Y-55700D01*
X105872Y-55864D01*
X105997Y-55990D01*
X106160Y-56058D01*
X106338Y-56058D01*
X106502Y-55990D01*
X106627Y-55865D01*
X106695Y-55701D01*
X106695Y-55524D01*
X106627Y-55360D01*
X106551Y-55284D01*
X106625Y-55284D01*
X106822Y-55480D01*
X106804Y-55523D01*
X106804Y-55700D01*
X106872Y-55864D01*
X106997Y-55990D01*
X107160Y-56058D01*
X107338Y-56058D01*
X107502Y-55990D01*
X107627Y-55865D01*
X107695Y-55701D01*
X107695Y-55524D01*
X107627Y-55360D01*
X107502Y-55235D01*
X107339Y-55167D01*
X107161Y-55167D01*
X107118Y-55185D01*
X107100Y-55167D01*
X107100Y-54645D01*
X107086Y-54508D01*
X107061Y-54448D01*
X107022Y-54410D01*
X106952Y-54481D01*
X106952Y-54339D01*
X106914Y-54301D01*
X106782Y-54261D01*
X106646Y-54276D01*
X106585Y-54301D01*
X106547Y-54339D01*
X106750Y-54541D01*
X106952Y-54339D01*
X106952Y-54481D01*
X106820Y-54612D01*
X107022Y-54814D01*
X107061Y-54777D01*
X107100Y-54645D01*
X107100Y-55167D01*
X106873Y-54940D01*
X106914Y-54924D01*
X106952Y-54885D01*
X106750Y-54683D01*
X106679Y-54754D01*
X106679Y-54612D01*
X106477Y-54410D01*
X106438Y-54448D01*
X106399Y-54579D01*
X106413Y-54716D01*
X106438Y-54777D01*
X106477Y-54814D01*
X106679Y-54612D01*
X106679Y-54754D01*
X106567Y-54865D01*
X106100Y-54865D01*
X106100Y-54645D01*
X106086Y-54508D01*
X106061Y-54448D01*
X106022Y-54410D01*
X105952Y-54481D01*
X105952Y-54339D01*
X105914Y-54301D01*
X105850Y-54281D01*
X105850Y-52023D01*
X105781Y-51858D01*
X105655Y-51731D01*
X105489Y-51662D01*
X105310Y-51662D01*
X105145Y-51730D01*
X105018Y-51857D01*
X104950Y-52022D01*
X104949Y-52201D01*
X105018Y-52367D01*
X105144Y-52493D01*
X105310Y-52562D01*
X105489Y-52562D01*
X105654Y-52494D01*
X105781Y-52367D01*
X105849Y-52202D01*
X105850Y-52023D01*
X105850Y-54281D01*
X105782Y-54261D01*
X105646Y-54276D01*
X105585Y-54301D01*
X105547Y-54339D01*
X105750Y-54541D01*
X105952Y-54339D01*
X105952Y-54481D01*
X105820Y-54612D01*
X106022Y-54814D01*
X106061Y-54777D01*
X106100Y-54645D01*
X106100Y-54865D01*
X105932Y-54865D01*
X105750Y-54683D01*
X105679Y-54754D01*
X105679Y-54612D01*
X105477Y-54410D01*
X105438Y-54448D01*
X105399Y-54579D01*
X105413Y-54716D01*
X105438Y-54777D01*
X105477Y-54814D01*
X105679Y-54612D01*
X105679Y-54754D01*
X105567Y-54865D01*
X104259Y-54865D01*
X104259Y-51486D01*
X104423Y-51321D01*
X104999Y-51321D01*
X105018Y-51367D01*
X105144Y-51493D01*
X105310Y-51562D01*
X105489Y-51562D01*
X105654Y-51494D01*
X105781Y-51367D01*
X105849Y-51202D01*
X105850Y-51023D01*
X105781Y-50858D01*
X105655Y-50731D01*
X105489Y-50662D01*
X105310Y-50662D01*
X105145Y-50730D01*
X105018Y-50857D01*
X104999Y-50903D01*
X104337Y-50903D01*
X104257Y-50919D01*
X104189Y-50964D01*
X103902Y-51252D01*
X103856Y-51319D01*
X103840Y-51400D01*
X103840Y-54865D01*
X103075Y-54865D01*
X103075Y-52729D01*
X103075Y-52670D01*
X103075Y-52070D01*
X103052Y-52015D01*
X103009Y-51972D01*
X102954Y-51950D01*
X102895Y-51950D01*
X102295Y-51950D01*
X102240Y-51972D01*
X102197Y-52015D01*
X102175Y-52070D01*
X102175Y-52129D01*
X102175Y-52729D01*
X102197Y-52784D01*
X102240Y-52827D01*
X102295Y-52850D01*
X102354Y-52850D01*
X102954Y-52850D01*
X103009Y-52827D01*
X103052Y-52784D01*
X103075Y-52729D01*
X103075Y-54865D01*
X102526Y-54865D01*
X102527Y-54865D01*
X102595Y-54701D01*
X102595Y-54524D01*
X102527Y-54360D01*
X102402Y-54235D01*
X102239Y-54167D01*
X102075Y-54167D01*
X102075Y-52310D01*
X102006Y-52145D01*
X101880Y-52018D01*
X101714Y-51950D01*
X101535Y-51949D01*
X101370Y-52018D01*
X101243Y-52144D01*
X101175Y-52310D01*
X101174Y-52489D01*
X101243Y-52654D01*
X101369Y-52781D01*
X101535Y-52849D01*
X101714Y-52850D01*
X101879Y-52781D01*
X102006Y-52655D01*
X102074Y-52489D01*
X102075Y-52310D01*
X102075Y-54167D01*
X102061Y-54167D01*
X101897Y-54234D01*
X101772Y-54359D01*
X101704Y-54523D01*
X101704Y-54700D01*
X101772Y-54864D01*
X101773Y-54865D01*
X101500Y-54865D01*
X101500Y-54645D01*
X101486Y-54508D01*
X101461Y-54448D01*
X101422Y-54410D01*
X101352Y-54481D01*
X101352Y-54339D01*
X101314Y-54301D01*
X101182Y-54261D01*
X101046Y-54276D01*
X100985Y-54301D01*
X100947Y-54339D01*
X101150Y-54541D01*
X101352Y-54339D01*
X101352Y-54481D01*
X101220Y-54612D01*
X101422Y-54814D01*
X101461Y-54777D01*
X101500Y-54645D01*
X101500Y-54865D01*
X101332Y-54865D01*
X101150Y-54683D01*
X100947Y-54885D01*
X100985Y-54924D01*
X101077Y-54951D01*
X100826Y-55203D01*
X100739Y-55167D01*
X100653Y-55167D01*
X100772Y-55047D01*
X100772Y-55047D01*
X100772Y-55047D01*
X100818Y-54980D01*
X100818Y-54980D01*
X100820Y-54966D01*
X100834Y-54900D01*
X100834Y-54900D01*
X100834Y-54899D01*
X100834Y-54766D01*
X100838Y-54777D01*
X100877Y-54814D01*
X101079Y-54612D01*
X100877Y-54410D01*
X100838Y-54448D01*
X100834Y-54463D01*
X100834Y-52261D01*
X101797Y-51297D01*
X101843Y-51230D01*
X101859Y-51150D01*
X101859Y-51082D01*
X101859Y-49250D01*
X101859Y-48275D01*
X101859Y-48275D01*
X101859Y-48275D01*
X101843Y-48194D01*
X101819Y-48159D01*
X101998Y-48159D01*
X101965Y-48172D01*
X101922Y-48215D01*
X101900Y-48270D01*
X101900Y-48329D01*
X101900Y-48929D01*
X101922Y-48984D01*
X101965Y-49027D01*
X102020Y-49050D01*
X102079Y-49050D01*
X102201Y-49050D01*
X102201Y-49250D01*
X102201Y-49300D01*
X102201Y-49374D01*
X102185Y-49374D01*
X102066Y-49424D01*
X101974Y-49515D01*
X101925Y-49635D01*
X101924Y-49764D01*
X101974Y-49883D01*
X102065Y-49975D01*
X102185Y-50024D01*
X102314Y-50025D01*
X102433Y-49975D01*
X102525Y-49884D01*
X102574Y-49764D01*
X102574Y-49726D01*
X102625Y-49675D01*
X102625Y-49675D01*
X102625Y-49675D01*
X102658Y-49627D01*
X102679Y-49595D01*
X102679Y-49595D01*
X102698Y-49500D01*
X102698Y-49498D01*
X105400Y-49498D01*
X105495Y-49479D01*
X105575Y-49425D01*
X105775Y-49225D01*
X105775Y-49225D01*
X105775Y-49225D01*
X105808Y-49177D01*
X105829Y-49145D01*
X105829Y-49145D01*
X105838Y-49100D01*
X106029Y-49100D01*
X106084Y-49077D01*
X106100Y-49062D01*
X106115Y-49077D01*
X106170Y-49100D01*
X106229Y-49100D01*
X106390Y-49100D01*
X106390Y-49925D01*
X106390Y-49950D01*
X106390Y-50662D01*
X106310Y-50662D01*
X106145Y-50730D01*
X106018Y-50857D01*
X105950Y-51022D01*
X105949Y-51201D01*
X106018Y-51367D01*
X106144Y-51493D01*
X106310Y-51562D01*
X106489Y-51562D01*
X106654Y-51494D01*
X106690Y-51458D01*
X106690Y-51526D01*
X106535Y-51681D01*
X106489Y-51662D01*
X106310Y-51662D01*
X106145Y-51730D01*
X106018Y-51857D01*
X105950Y-52022D01*
X105949Y-52201D01*
X106018Y-52367D01*
X106144Y-52493D01*
X106310Y-52562D01*
X106489Y-52562D01*
X106654Y-52494D01*
X106781Y-52367D01*
X106849Y-52202D01*
X106850Y-52023D01*
X106830Y-51977D01*
X107047Y-51760D01*
X107093Y-51692D01*
X107109Y-51612D01*
X107109Y-51562D01*
X107129Y-51562D01*
X107729Y-51562D01*
X107784Y-51539D01*
X107827Y-51497D01*
X107850Y-51442D01*
X107850Y-51382D01*
X107850Y-50782D01*
X107827Y-50727D01*
X107784Y-50685D01*
X107729Y-50662D01*
X107670Y-50662D01*
X107109Y-50662D01*
X107109Y-49600D01*
X107109Y-49536D01*
X107545Y-49100D01*
X108029Y-49100D01*
X108075Y-49081D01*
X108120Y-49100D01*
X108179Y-49100D01*
X108979Y-49100D01*
X109034Y-49077D01*
X109077Y-49034D01*
X109100Y-48979D01*
X109100Y-48920D01*
X109100Y-48320D01*
X109077Y-48265D01*
X109034Y-48222D01*
X108979Y-48200D01*
X108920Y-48200D01*
X108798Y-48200D01*
X108798Y-48100D01*
X108779Y-48004D01*
X108779Y-48004D01*
X108758Y-47972D01*
X108725Y-47924D01*
X108725Y-47924D01*
X108601Y-47800D01*
X108979Y-47800D01*
X109034Y-47777D01*
X109077Y-47734D01*
X109100Y-47679D01*
X109100Y-47620D01*
X109100Y-47095D01*
X109247Y-46947D01*
X109247Y-46947D01*
X109247Y-46947D01*
X109293Y-46880D01*
X109309Y-46800D01*
X109309Y-46523D01*
X109484Y-46523D01*
X109539Y-46500D01*
X109581Y-46458D01*
X109604Y-46403D01*
X109604Y-46343D01*
X109604Y-45714D01*
X109581Y-45659D01*
X109539Y-45617D01*
X109504Y-45602D01*
X109504Y-45265D01*
X109504Y-45003D01*
X109504Y-44878D01*
X109504Y-44616D01*
X109496Y-44598D01*
X109482Y-44584D01*
X109464Y-44576D01*
X109444Y-44576D01*
X109162Y-44576D01*
X109150Y-44589D01*
X109150Y-44891D01*
X109492Y-44891D01*
X109504Y-44878D01*
X109504Y-45003D01*
X109492Y-44991D01*
X109150Y-44991D01*
X109150Y-45293D01*
X109162Y-45305D01*
X109444Y-45305D01*
X109464Y-45305D01*
X109482Y-45297D01*
X109496Y-45283D01*
X109504Y-45265D01*
X109504Y-45602D01*
X109484Y-45594D01*
X109424Y-45594D01*
X109050Y-45594D01*
X109050Y-45293D01*
X109050Y-44991D01*
X109050Y-44891D01*
X109050Y-44589D01*
X109037Y-44576D01*
X108755Y-44576D01*
X108735Y-44576D01*
X108717Y-44584D01*
X108703Y-44598D01*
X108695Y-44616D01*
X108695Y-44878D01*
X108708Y-44891D01*
X109050Y-44891D01*
X109050Y-44991D01*
X108708Y-44991D01*
X108695Y-45003D01*
X108695Y-45265D01*
X108703Y-45283D01*
X108717Y-45297D01*
X108735Y-45305D01*
X108755Y-45305D01*
X109037Y-45305D01*
X109050Y-45293D01*
X109050Y-45594D01*
X108715Y-45594D01*
X108660Y-45617D01*
X108649Y-45627D01*
X108639Y-45617D01*
X108604Y-45602D01*
X108604Y-45265D01*
X108604Y-45003D01*
X108604Y-44878D01*
X108604Y-44616D01*
X108596Y-44598D01*
X108582Y-44584D01*
X108564Y-44576D01*
X108544Y-44576D01*
X108262Y-44576D01*
X108250Y-44589D01*
X108250Y-44891D01*
X108592Y-44891D01*
X108604Y-44878D01*
X108604Y-45003D01*
X108592Y-44991D01*
X108250Y-44991D01*
X108250Y-45293D01*
X108262Y-45305D01*
X108544Y-45305D01*
X108564Y-45305D01*
X108582Y-45297D01*
X108596Y-45283D01*
X108604Y-45265D01*
X108604Y-45602D01*
X108584Y-45594D01*
X108524Y-45594D01*
X108150Y-45594D01*
X108150Y-45293D01*
X108150Y-44991D01*
X108150Y-44891D01*
X108150Y-44589D01*
X108137Y-44576D01*
X107855Y-44576D01*
X107835Y-44576D01*
X107817Y-44584D01*
X107803Y-44598D01*
X107795Y-44616D01*
X107795Y-44878D01*
X107808Y-44891D01*
X108150Y-44891D01*
X108150Y-44991D01*
X107808Y-44991D01*
X107795Y-45003D01*
X107795Y-45265D01*
X107803Y-45283D01*
X107817Y-45297D01*
X107835Y-45305D01*
X107855Y-45305D01*
X108137Y-45305D01*
X108150Y-45293D01*
X108150Y-45594D01*
X107815Y-45594D01*
X107760Y-45617D01*
X107718Y-45659D01*
X107695Y-45714D01*
X107695Y-45774D01*
X107695Y-45915D01*
X107600Y-45915D01*
X107600Y-45795D01*
X107577Y-45740D01*
X107534Y-45697D01*
X107479Y-45675D01*
X107420Y-45675D01*
X106620Y-45675D01*
X106565Y-45697D01*
X106522Y-45740D01*
X106500Y-45795D01*
X106500Y-45854D01*
X106500Y-46454D01*
X106522Y-46509D01*
X106565Y-46552D01*
X106620Y-46575D01*
X106679Y-46575D01*
X107479Y-46575D01*
X107534Y-46552D01*
X107577Y-46509D01*
X107600Y-46454D01*
X107600Y-46395D01*
X107600Y-46334D01*
X107695Y-46334D01*
X107695Y-46403D01*
X107718Y-46458D01*
X107760Y-46500D01*
X107815Y-46523D01*
X107875Y-46523D01*
X108584Y-46523D01*
X108639Y-46500D01*
X108650Y-46490D01*
X108660Y-46500D01*
X108715Y-46523D01*
X108775Y-46523D01*
X108890Y-46523D01*
X108890Y-46713D01*
X108704Y-46900D01*
X108120Y-46900D01*
X108074Y-46918D01*
X108029Y-46900D01*
X107970Y-46900D01*
X107170Y-46900D01*
X107115Y-46922D01*
X107099Y-46937D01*
X107084Y-46922D01*
X107029Y-46900D01*
X106970Y-46900D01*
X106170Y-46900D01*
X106115Y-46922D01*
X106099Y-46937D01*
X106084Y-46922D01*
X106080Y-46920D01*
X106080Y-46033D01*
X106066Y-45895D01*
X106040Y-45832D01*
X106001Y-45794D01*
X105930Y-45865D01*
X105930Y-45723D01*
X105892Y-45684D01*
X105758Y-45644D01*
X105620Y-45658D01*
X105557Y-45684D01*
X105519Y-45723D01*
X105725Y-45929D01*
X105930Y-45723D01*
X105930Y-45865D01*
X105795Y-46000D01*
X106001Y-46205D01*
X106040Y-46167D01*
X106080Y-46033D01*
X106080Y-46920D01*
X106029Y-46900D01*
X105970Y-46900D01*
X105930Y-46900D01*
X105930Y-46276D01*
X105725Y-46070D01*
X105654Y-46141D01*
X105654Y-46000D01*
X105448Y-45794D01*
X105409Y-45832D01*
X105369Y-45966D01*
X105383Y-46104D01*
X105409Y-46167D01*
X105448Y-46205D01*
X105654Y-46000D01*
X105654Y-46141D01*
X105519Y-46276D01*
X105557Y-46315D01*
X105691Y-46355D01*
X105829Y-46341D01*
X105892Y-46315D01*
X105930Y-46276D01*
X105930Y-46900D01*
X105170Y-46900D01*
X105115Y-46922D01*
X105072Y-46965D01*
X105050Y-47020D01*
X105050Y-47040D01*
X105042Y-47021D01*
X105028Y-47007D01*
X105009Y-47000D01*
X104990Y-47000D01*
X104662Y-47000D01*
X104650Y-47012D01*
X104650Y-47300D01*
X104657Y-47300D01*
X104657Y-47400D01*
X104650Y-47400D01*
X104650Y-47687D01*
X104662Y-47700D01*
X104990Y-47700D01*
X105009Y-47700D01*
X105028Y-47692D01*
X105042Y-47678D01*
X105050Y-47659D01*
X105050Y-47679D01*
X105072Y-47734D01*
X105078Y-47740D01*
X104550Y-47740D01*
X104550Y-47687D01*
X104550Y-47400D01*
X104550Y-47300D01*
X104550Y-47012D01*
X104537Y-47000D01*
X104209Y-47000D01*
X104190Y-47000D01*
X104171Y-47007D01*
X104157Y-47021D01*
X104150Y-47040D01*
X104150Y-47287D01*
X104162Y-47300D01*
X104550Y-47300D01*
X104550Y-47400D01*
X104162Y-47400D01*
X104150Y-47412D01*
X104150Y-47659D01*
X104157Y-47678D01*
X104171Y-47692D01*
X104190Y-47700D01*
X104209Y-47700D01*
X104537Y-47700D01*
X104550Y-47687D01*
X104550Y-47740D01*
X104004Y-47740D01*
X104004Y-47725D01*
X104004Y-47096D01*
X103981Y-47041D01*
X103939Y-46999D01*
X103884Y-46976D01*
X103824Y-46976D01*
X103709Y-46976D01*
X103709Y-46800D01*
X103693Y-46719D01*
X103647Y-46652D01*
X103647Y-46652D01*
X103097Y-46102D01*
X103030Y-46056D01*
X102950Y-46040D01*
X101695Y-46040D01*
X101731Y-46005D01*
X101799Y-45839D01*
X101800Y-45660D01*
X101731Y-45495D01*
X101605Y-45368D01*
X101439Y-45300D01*
X101260Y-45299D01*
X101095Y-45368D01*
X100968Y-45494D01*
X100900Y-45660D01*
X100899Y-45839D01*
X100968Y-46004D01*
X101004Y-46040D01*
X100695Y-46040D01*
X100731Y-46005D01*
X100799Y-45839D01*
X100800Y-45660D01*
X100731Y-45495D01*
X100605Y-45368D01*
X100518Y-45332D01*
X100518Y-45332D01*
X100497Y-45302D01*
X100497Y-45302D01*
X99897Y-44702D01*
X99830Y-44656D01*
X99750Y-44640D01*
X95650Y-44640D01*
X95650Y-44640D01*
X95569Y-44656D01*
X95502Y-44702D01*
X95275Y-44929D01*
X95275Y-44885D01*
X95225Y-44766D01*
X95134Y-44674D01*
X95014Y-44625D01*
X94885Y-44624D01*
X94766Y-44674D01*
X94738Y-44701D01*
X94600Y-44701D01*
X94600Y-44370D01*
X94577Y-44315D01*
X94534Y-44272D01*
X94479Y-44250D01*
X94420Y-44250D01*
X93820Y-44250D01*
X93765Y-44272D01*
X93722Y-44315D01*
X93700Y-44370D01*
X93700Y-44429D01*
X93700Y-45229D01*
X93722Y-45284D01*
X93748Y-45310D01*
X93715Y-45310D01*
X93538Y-45310D01*
X93483Y-45333D01*
X93441Y-45375D01*
X93418Y-45430D01*
X93418Y-45490D01*
X93418Y-45644D01*
X93200Y-45644D01*
X93200Y-45209D01*
X93200Y-45190D01*
X93200Y-44862D01*
X93200Y-44737D01*
X93200Y-44409D01*
X93200Y-44390D01*
X93192Y-44371D01*
X93178Y-44357D01*
X93159Y-44350D01*
X92912Y-44350D01*
X92900Y-44362D01*
X92900Y-44750D01*
X93187Y-44750D01*
X93200Y-44737D01*
X93200Y-44862D01*
X93187Y-44850D01*
X92900Y-44850D01*
X92900Y-45237D01*
X92912Y-45250D01*
X93159Y-45250D01*
X93178Y-45242D01*
X93192Y-45228D01*
X93200Y-45209D01*
X93200Y-45644D01*
X92800Y-45644D01*
X92800Y-45237D01*
X92800Y-44850D01*
X92800Y-44750D01*
X92800Y-44362D01*
X92787Y-44350D01*
X92540Y-44350D01*
X92521Y-44357D01*
X92507Y-44371D01*
X92500Y-44390D01*
X92500Y-44409D01*
X92500Y-44737D01*
X92512Y-44750D01*
X92800Y-44750D01*
X92800Y-44850D01*
X92512Y-44850D01*
X92500Y-44862D01*
X92500Y-45190D01*
X92500Y-45209D01*
X92507Y-45228D01*
X92521Y-45242D01*
X92540Y-45250D01*
X92787Y-45250D01*
X92800Y-45237D01*
X92800Y-45644D01*
X92640Y-45644D01*
X91897Y-44902D01*
X91830Y-44856D01*
X91750Y-44840D01*
X91500Y-44840D01*
X91500Y-44813D01*
X91500Y-44698D01*
X91638Y-44698D01*
X91715Y-44775D01*
X91835Y-44824D01*
X91964Y-44825D01*
X92083Y-44775D01*
X92175Y-44684D01*
X92224Y-44564D01*
X92225Y-44435D01*
X92175Y-44316D01*
X92084Y-44224D01*
X91964Y-44175D01*
X91835Y-44174D01*
X91771Y-44201D01*
X91500Y-44201D01*
X91500Y-44026D01*
X91477Y-43971D01*
X91434Y-43929D01*
X91379Y-43906D01*
X91320Y-43906D01*
X91145Y-43906D01*
X91302Y-43748D01*
X108750Y-43748D01*
X108845Y-43729D01*
X108925Y-43675D01*
X109967Y-42633D01*
X110021Y-42552D01*
X110040Y-42457D01*
X110040Y-41750D01*
X110055Y-41744D01*
X110186Y-41613D01*
X110257Y-41442D01*
X110257Y-41257D01*
X110257Y-61550D01*
X110206Y-61550D01*
X110206Y-57940D01*
X110188Y-57896D01*
X110188Y-44470D01*
X110169Y-44374D01*
X110115Y-44294D01*
X110115Y-44294D01*
X110115Y-44294D01*
X109845Y-44024D01*
X109765Y-43970D01*
X109670Y-43951D01*
X109500Y-43951D01*
X107650Y-43951D01*
X107554Y-43970D01*
X107474Y-44024D01*
X107123Y-44375D01*
X106620Y-44375D01*
X106565Y-44397D01*
X106522Y-44440D01*
X106500Y-44495D01*
X106500Y-44554D01*
X106500Y-44751D01*
X106175Y-44751D01*
X106175Y-44670D01*
X106152Y-44615D01*
X106109Y-44572D01*
X106054Y-44550D01*
X105995Y-44550D01*
X105395Y-44550D01*
X105340Y-44572D01*
X105297Y-44615D01*
X105275Y-44670D01*
X105275Y-44729D01*
X105275Y-45329D01*
X105297Y-45384D01*
X105340Y-45427D01*
X105395Y-45450D01*
X105454Y-45450D01*
X106054Y-45450D01*
X106109Y-45427D01*
X106152Y-45384D01*
X106175Y-45329D01*
X106175Y-45270D01*
X106175Y-45248D01*
X106561Y-45248D01*
X106565Y-45252D01*
X106620Y-45275D01*
X106679Y-45275D01*
X107479Y-45275D01*
X107534Y-45252D01*
X107577Y-45209D01*
X107600Y-45154D01*
X107600Y-45095D01*
X107600Y-44601D01*
X107752Y-44448D01*
X109500Y-44448D01*
X109567Y-44448D01*
X109691Y-44572D01*
X109691Y-55282D01*
X109195Y-55777D01*
X109195Y-54524D01*
X109127Y-54360D01*
X109002Y-54235D01*
X108839Y-54167D01*
X108661Y-54167D01*
X108497Y-54234D01*
X108372Y-54359D01*
X108304Y-54523D01*
X108304Y-54700D01*
X108372Y-54864D01*
X108497Y-54990D01*
X108660Y-55058D01*
X108838Y-55058D01*
X109002Y-54990D01*
X109127Y-54865D01*
X109195Y-54701D01*
X109195Y-54524D01*
X109195Y-55777D01*
X108964Y-56009D01*
X108695Y-56277D01*
X108695Y-55524D01*
X108627Y-55360D01*
X108502Y-55235D01*
X108339Y-55167D01*
X108161Y-55167D01*
X108100Y-55192D01*
X108100Y-54645D01*
X108086Y-54508D01*
X108061Y-54448D01*
X108022Y-54410D01*
X107952Y-54481D01*
X107952Y-54339D01*
X107914Y-54301D01*
X107782Y-54261D01*
X107755Y-54264D01*
X107755Y-52146D01*
X107741Y-52007D01*
X107715Y-51945D01*
X107676Y-51907D01*
X107605Y-51977D01*
X107605Y-51836D01*
X107567Y-51797D01*
X107433Y-51757D01*
X107295Y-51771D01*
X107232Y-51797D01*
X107194Y-51836D01*
X107400Y-52041D01*
X107605Y-51836D01*
X107605Y-51977D01*
X107470Y-52112D01*
X107676Y-52318D01*
X107715Y-52279D01*
X107755Y-52146D01*
X107755Y-54264D01*
X107646Y-54276D01*
X107605Y-54292D01*
X107605Y-52388D01*
X107400Y-52183D01*
X107329Y-52254D01*
X107329Y-52112D01*
X107123Y-51907D01*
X107084Y-51945D01*
X107044Y-52078D01*
X107058Y-52217D01*
X107084Y-52279D01*
X107123Y-52318D01*
X107329Y-52112D01*
X107329Y-52254D01*
X107194Y-52388D01*
X107232Y-52427D01*
X107366Y-52467D01*
X107504Y-52453D01*
X107567Y-52427D01*
X107605Y-52388D01*
X107605Y-54292D01*
X107585Y-54301D01*
X107547Y-54339D01*
X107750Y-54541D01*
X107952Y-54339D01*
X107952Y-54481D01*
X107820Y-54612D01*
X108022Y-54814D01*
X108061Y-54777D01*
X108100Y-54645D01*
X108100Y-55192D01*
X107997Y-55234D01*
X107952Y-55280D01*
X107952Y-54885D01*
X107750Y-54683D01*
X107679Y-54754D01*
X107679Y-54612D01*
X107477Y-54410D01*
X107438Y-54448D01*
X107399Y-54579D01*
X107413Y-54716D01*
X107438Y-54777D01*
X107477Y-54814D01*
X107679Y-54612D01*
X107679Y-54754D01*
X107547Y-54885D01*
X107585Y-54924D01*
X107717Y-54963D01*
X107853Y-54949D01*
X107914Y-54924D01*
X107952Y-54885D01*
X107952Y-55280D01*
X107872Y-55359D01*
X107804Y-55523D01*
X107804Y-55700D01*
X107872Y-55864D01*
X107997Y-55990D01*
X108160Y-56058D01*
X108338Y-56058D01*
X108502Y-55990D01*
X108627Y-55865D01*
X108695Y-55701D01*
X108695Y-55524D01*
X108695Y-56277D01*
X105533Y-59439D01*
X105533Y-57940D01*
X105401Y-57621D01*
X105157Y-57376D01*
X104838Y-57244D01*
X104493Y-57243D01*
X104173Y-57375D01*
X103929Y-57619D01*
X103796Y-57939D01*
X103796Y-58284D01*
X103928Y-58603D01*
X104172Y-58848D01*
X104491Y-58980D01*
X104836Y-58981D01*
X105156Y-58849D01*
X105400Y-58605D01*
X105533Y-58286D01*
X105533Y-57940D01*
X105533Y-59439D01*
X104222Y-60751D01*
X103606Y-60751D01*
X103606Y-57940D01*
X103474Y-57621D01*
X103230Y-57376D01*
X102911Y-57244D01*
X102566Y-57243D01*
X102246Y-57375D01*
X102002Y-57619D01*
X101869Y-57939D01*
X101869Y-58284D01*
X102001Y-58603D01*
X102245Y-58848D01*
X102564Y-58980D01*
X102909Y-58981D01*
X103229Y-58849D01*
X103473Y-58605D01*
X103606Y-58286D01*
X103606Y-57940D01*
X103606Y-60751D01*
X101250Y-60751D01*
X98933Y-60751D01*
X98933Y-57940D01*
X98801Y-57621D01*
X98557Y-57376D01*
X98238Y-57244D01*
X97893Y-57243D01*
X97573Y-57375D01*
X97329Y-57619D01*
X97196Y-57939D01*
X97196Y-58284D01*
X97328Y-58603D01*
X97572Y-58848D01*
X97891Y-58980D01*
X98236Y-58981D01*
X98556Y-58849D01*
X98800Y-58605D01*
X98933Y-58286D01*
X98933Y-57940D01*
X98933Y-60751D01*
X96355Y-60751D01*
X96355Y-60085D01*
X96355Y-59695D01*
X96355Y-59595D01*
X96355Y-59205D01*
X96303Y-59041D01*
X96191Y-58909D01*
X96033Y-58831D01*
X95965Y-58831D01*
X95965Y-59595D01*
X96355Y-59595D01*
X96355Y-59695D01*
X95965Y-59695D01*
X95965Y-60460D01*
X96033Y-60459D01*
X96191Y-60382D01*
X96303Y-60250D01*
X96355Y-60085D01*
X96355Y-60751D01*
X95865Y-60751D01*
X95865Y-60460D01*
X95865Y-59695D01*
X95865Y-59595D01*
X95865Y-58831D01*
X95797Y-58831D01*
X95639Y-58909D01*
X95528Y-59041D01*
X95475Y-59205D01*
X95475Y-59595D01*
X95865Y-59595D01*
X95865Y-59695D01*
X95475Y-59695D01*
X95475Y-60085D01*
X95528Y-60250D01*
X95639Y-60382D01*
X95797Y-60459D01*
X95865Y-60460D01*
X95865Y-60751D01*
X94802Y-60751D01*
X94648Y-60597D01*
X94648Y-60524D01*
X94781Y-60435D01*
X94898Y-60260D01*
X94940Y-60053D01*
X94940Y-59237D01*
X94898Y-59030D01*
X94781Y-58855D01*
X94730Y-58821D01*
X95252Y-58298D01*
X95900Y-58298D01*
X95995Y-58279D01*
X96075Y-58225D01*
X96975Y-57325D01*
X97029Y-57245D01*
X97048Y-57150D01*
X97048Y-56200D01*
X97048Y-55700D01*
X97048Y-53527D01*
X97640Y-52935D01*
X97675Y-52949D01*
X97874Y-52950D01*
X98057Y-52874D01*
X98198Y-52733D01*
X98274Y-52549D01*
X98275Y-52350D01*
X98199Y-52167D01*
X98058Y-52026D01*
X97874Y-51950D01*
X97675Y-51949D01*
X97492Y-52025D01*
X97351Y-52166D01*
X97275Y-52350D01*
X97274Y-52549D01*
X97289Y-52584D01*
X96624Y-53249D01*
X96570Y-53329D01*
X96551Y-53425D01*
X96551Y-53500D01*
X96551Y-55700D01*
X96551Y-56200D01*
X96551Y-57047D01*
X95797Y-57801D01*
X95150Y-57801D01*
X95054Y-57820D01*
X94974Y-57874D01*
X94224Y-58624D01*
X94170Y-58704D01*
X94159Y-58761D01*
X94018Y-58855D01*
X93901Y-59030D01*
X93860Y-59237D01*
X93860Y-60053D01*
X93901Y-60260D01*
X94018Y-60435D01*
X94151Y-60524D01*
X94151Y-60700D01*
X94170Y-60795D01*
X94224Y-60875D01*
X94524Y-61175D01*
X94604Y-61229D01*
X94700Y-61248D01*
X94700Y-61248D01*
X94700Y-61248D01*
X101250Y-61248D01*
X104325Y-61248D01*
X104420Y-61229D01*
X104500Y-61175D01*
X109187Y-56489D01*
X109235Y-56479D01*
X109315Y-56425D01*
X109369Y-56345D01*
X109379Y-56297D01*
X110115Y-55560D01*
X110169Y-55480D01*
X110188Y-55385D01*
X110188Y-44470D01*
X110188Y-44470D01*
X110188Y-44470D01*
X110188Y-57896D01*
X110074Y-57621D01*
X109830Y-57376D01*
X109511Y-57244D01*
X109166Y-57243D01*
X108846Y-57375D01*
X108602Y-57619D01*
X108469Y-57939D01*
X108469Y-58284D01*
X108601Y-58603D01*
X108845Y-58848D01*
X109164Y-58980D01*
X109509Y-58981D01*
X109829Y-58849D01*
X110073Y-58605D01*
X110206Y-58286D01*
X110206Y-57940D01*
X110206Y-61550D01*
X93100Y-61550D01*
X93100Y-57650D01*
X95620Y-57650D01*
X96050Y-57220D01*
X96050Y-53350D01*
X95360Y-53350D01*
X95360Y-52359D01*
X95360Y-52340D01*
X95360Y-51962D01*
X95360Y-51837D01*
X95360Y-51459D01*
X95360Y-51440D01*
X95352Y-51421D01*
X95338Y-51407D01*
X95319Y-51400D01*
X95062Y-51400D01*
X95050Y-51412D01*
X95050Y-51850D01*
X95347Y-51850D01*
X95360Y-51837D01*
X95360Y-51962D01*
X95347Y-51950D01*
X95050Y-51950D01*
X95050Y-52387D01*
X95062Y-52400D01*
X95319Y-52400D01*
X95338Y-52392D01*
X95352Y-52378D01*
X95360Y-52359D01*
X95360Y-53350D01*
X94950Y-53350D01*
X94950Y-52387D01*
X94950Y-51950D01*
X94652Y-51950D01*
X94640Y-51962D01*
X94640Y-52340D01*
X94640Y-52359D01*
X94647Y-52378D01*
X94661Y-52392D01*
X94680Y-52400D01*
X94937Y-52400D01*
X94950Y-52387D01*
X94950Y-53350D01*
X93341Y-53350D01*
X92491Y-52500D01*
X92110Y-52500D01*
X92110Y-51459D01*
X92110Y-51440D01*
X92110Y-51062D01*
X92110Y-50937D01*
X92110Y-50559D01*
X92110Y-50540D01*
X92102Y-50521D01*
X92088Y-50507D01*
X92069Y-50500D01*
X91812Y-50500D01*
X91800Y-50512D01*
X91800Y-50950D01*
X92097Y-50950D01*
X92110Y-50937D01*
X92110Y-51062D01*
X92097Y-51050D01*
X91800Y-51050D01*
X91800Y-51487D01*
X91812Y-51500D01*
X92069Y-51500D01*
X92088Y-51492D01*
X92102Y-51478D01*
X92110Y-51459D01*
X92110Y-52500D01*
X91900Y-52500D01*
X91750Y-52500D01*
X91700Y-52500D01*
X91700Y-51487D01*
X91700Y-51050D01*
X91700Y-50950D01*
X91700Y-50512D01*
X91687Y-50500D01*
X91430Y-50500D01*
X91411Y-50507D01*
X91397Y-50521D01*
X91390Y-50540D01*
X91390Y-50559D01*
X91390Y-50937D01*
X91402Y-50950D01*
X91700Y-50950D01*
X91700Y-51050D01*
X91402Y-51050D01*
X91390Y-51062D01*
X91390Y-51440D01*
X91390Y-51459D01*
X91397Y-51478D01*
X91411Y-51492D01*
X91430Y-51500D01*
X91687Y-51500D01*
X91700Y-51487D01*
X91700Y-52500D01*
X88860Y-52500D01*
X88860Y-51459D01*
X88860Y-51440D01*
X88860Y-51062D01*
X88860Y-50937D01*
X88860Y-50559D01*
X88860Y-50540D01*
X88852Y-50521D01*
X88838Y-50507D01*
X88819Y-50500D01*
X88562Y-50500D01*
X88550Y-50512D01*
X88550Y-50950D01*
X88847Y-50950D01*
X88860Y-50937D01*
X88860Y-51062D01*
X88847Y-51050D01*
X88550Y-51050D01*
X88550Y-51487D01*
X88562Y-51500D01*
X88819Y-51500D01*
X88838Y-51492D01*
X88852Y-51478D01*
X88860Y-51459D01*
X88860Y-52500D01*
X88450Y-52500D01*
X88450Y-51487D01*
X88450Y-51050D01*
X88450Y-50950D01*
X88450Y-50512D01*
X88437Y-50500D01*
X88180Y-50500D01*
X88161Y-50507D01*
X88147Y-50521D01*
X88140Y-50540D01*
X88140Y-50559D01*
X88140Y-50937D01*
X88152Y-50950D01*
X88450Y-50950D01*
X88450Y-51050D01*
X88152Y-51050D01*
X88140Y-51062D01*
X88140Y-51440D01*
X88140Y-51459D01*
X88147Y-51478D01*
X88161Y-51492D01*
X88180Y-51500D01*
X88437Y-51500D01*
X88450Y-51487D01*
X88450Y-52500D01*
X86300Y-52500D01*
X86200Y-52500D01*
X85810Y-52500D01*
X85610Y-52688D01*
X85610Y-52359D01*
X85610Y-52340D01*
X85610Y-51962D01*
X85610Y-51837D01*
X85610Y-51459D01*
X85610Y-51440D01*
X85602Y-51421D01*
X85588Y-51407D01*
X85569Y-51400D01*
X85312Y-51400D01*
X85300Y-51412D01*
X85300Y-51850D01*
X85597Y-51850D01*
X85610Y-51837D01*
X85610Y-51962D01*
X85597Y-51950D01*
X85300Y-51950D01*
X85300Y-52387D01*
X85312Y-52400D01*
X85569Y-52400D01*
X85588Y-52392D01*
X85602Y-52378D01*
X85610Y-52359D01*
X85610Y-52688D01*
X85200Y-53074D01*
X85200Y-52387D01*
X85200Y-51950D01*
X85200Y-51850D01*
X85200Y-51412D01*
X85187Y-51400D01*
X84930Y-51400D01*
X84911Y-51407D01*
X84897Y-51421D01*
X84890Y-51440D01*
X84890Y-51459D01*
X84890Y-51837D01*
X84902Y-51850D01*
X85200Y-51850D01*
X85200Y-51950D01*
X84902Y-51950D01*
X84890Y-51962D01*
X84890Y-52340D01*
X84890Y-52359D01*
X84897Y-52378D01*
X84911Y-52392D01*
X84930Y-52400D01*
X85187Y-52400D01*
X85200Y-52387D01*
X85200Y-53074D01*
X84907Y-53350D01*
X83710Y-53350D01*
X83710Y-52379D01*
X83710Y-52320D01*
X83710Y-51420D01*
X83687Y-51365D01*
X83644Y-51322D01*
X83589Y-51300D01*
X83530Y-51300D01*
X82910Y-51300D01*
X82855Y-51322D01*
X82812Y-51365D01*
X82790Y-51420D01*
X82790Y-51479D01*
X82790Y-52379D01*
X82812Y-52434D01*
X82855Y-52477D01*
X82910Y-52500D01*
X82969Y-52500D01*
X83589Y-52500D01*
X83644Y-52477D01*
X83687Y-52434D01*
X83710Y-52379D01*
X83710Y-53350D01*
X82360Y-53350D01*
X82360Y-52359D01*
X82360Y-52340D01*
X82360Y-51962D01*
X82360Y-51837D01*
X82360Y-51459D01*
X82360Y-51440D01*
X82352Y-51421D01*
X82338Y-51407D01*
X82319Y-51400D01*
X82062Y-51400D01*
X82050Y-51412D01*
X82050Y-51850D01*
X82347Y-51850D01*
X82360Y-51837D01*
X82360Y-51962D01*
X82347Y-51950D01*
X82050Y-51950D01*
X82050Y-52387D01*
X82062Y-52400D01*
X82319Y-52400D01*
X82338Y-52392D01*
X82352Y-52378D01*
X82360Y-52359D01*
X82360Y-53350D01*
X81950Y-53350D01*
X81950Y-52387D01*
X81950Y-51950D01*
X81950Y-51850D01*
X81950Y-51412D01*
X81937Y-51400D01*
X81680Y-51400D01*
X81661Y-51407D01*
X81647Y-51421D01*
X81640Y-51440D01*
X81640Y-51459D01*
X81640Y-51837D01*
X81652Y-51850D01*
X81950Y-51850D01*
X81950Y-51950D01*
X81652Y-51950D01*
X81640Y-51962D01*
X81640Y-52340D01*
X81640Y-52359D01*
X81647Y-52378D01*
X81661Y-52392D01*
X81680Y-52400D01*
X81937Y-52400D01*
X81950Y-52387D01*
X81950Y-53350D01*
X81460Y-53350D01*
X81460Y-52379D01*
X81460Y-52320D01*
X81460Y-51420D01*
X81437Y-51365D01*
X81394Y-51322D01*
X81339Y-51300D01*
X81280Y-51300D01*
X81209Y-51300D01*
X81209Y-50100D01*
X81193Y-50019D01*
X81147Y-49952D01*
X80531Y-49335D01*
X80549Y-49289D01*
X80550Y-49110D01*
X80550Y-48110D01*
X80481Y-47945D01*
X80355Y-47818D01*
X80189Y-47750D01*
X80010Y-47749D01*
X79845Y-47818D01*
X79718Y-47944D01*
X79650Y-48110D01*
X79649Y-48289D01*
X79718Y-48454D01*
X79844Y-48581D01*
X80010Y-48649D01*
X80189Y-48650D01*
X80354Y-48581D01*
X80481Y-48455D01*
X80549Y-48289D01*
X80550Y-48110D01*
X80550Y-49110D01*
X80481Y-48945D01*
X80355Y-48818D01*
X80189Y-48750D01*
X80010Y-48749D01*
X79845Y-48818D01*
X79718Y-48944D01*
X79650Y-49110D01*
X79649Y-49289D01*
X79718Y-49454D01*
X79844Y-49581D01*
X80010Y-49649D01*
X80189Y-49650D01*
X80235Y-49630D01*
X80790Y-50186D01*
X80790Y-51300D01*
X80660Y-51300D01*
X80605Y-51322D01*
X80562Y-51365D01*
X80540Y-51420D01*
X80540Y-51479D01*
X80540Y-52379D01*
X80562Y-52434D01*
X80605Y-52477D01*
X80660Y-52500D01*
X80719Y-52500D01*
X81339Y-52500D01*
X81394Y-52477D01*
X81437Y-52434D01*
X81460Y-52379D01*
X81460Y-53350D01*
X80460Y-53350D01*
X80460Y-52379D01*
X80460Y-52320D01*
X80460Y-51420D01*
X80437Y-51365D01*
X80394Y-51322D01*
X80339Y-51300D01*
X80280Y-51300D01*
X79660Y-51300D01*
X79605Y-51322D01*
X79562Y-51365D01*
X79550Y-51395D01*
X79550Y-49110D01*
X79550Y-48110D01*
X79481Y-47945D01*
X79355Y-47818D01*
X79189Y-47750D01*
X79010Y-47749D01*
X78845Y-47818D01*
X78718Y-47944D01*
X78650Y-48110D01*
X78649Y-48289D01*
X78718Y-48454D01*
X78844Y-48581D01*
X79010Y-48649D01*
X79189Y-48650D01*
X79354Y-48581D01*
X79481Y-48455D01*
X79549Y-48289D01*
X79550Y-48110D01*
X79550Y-49110D01*
X79481Y-48945D01*
X79355Y-48818D01*
X79189Y-48750D01*
X79010Y-48749D01*
X78845Y-48818D01*
X78718Y-48944D01*
X78650Y-49110D01*
X78649Y-49289D01*
X78669Y-49335D01*
X77602Y-50402D01*
X77556Y-50469D01*
X77540Y-50550D01*
X77540Y-51300D01*
X77410Y-51300D01*
X77355Y-51322D01*
X77312Y-51365D01*
X77290Y-51420D01*
X77290Y-51479D01*
X77290Y-52379D01*
X77312Y-52434D01*
X77355Y-52477D01*
X77410Y-52500D01*
X77469Y-52500D01*
X78089Y-52500D01*
X78144Y-52477D01*
X78187Y-52434D01*
X78210Y-52379D01*
X78210Y-52320D01*
X78210Y-51420D01*
X78187Y-51365D01*
X78144Y-51322D01*
X78089Y-51300D01*
X78030Y-51300D01*
X77959Y-51300D01*
X77959Y-50636D01*
X78964Y-49631D01*
X79010Y-49649D01*
X79189Y-49650D01*
X79354Y-49581D01*
X79481Y-49455D01*
X79549Y-49289D01*
X79550Y-49110D01*
X79550Y-51395D01*
X79540Y-51420D01*
X79540Y-51479D01*
X79540Y-52379D01*
X79562Y-52434D01*
X79605Y-52477D01*
X79660Y-52500D01*
X79719Y-52500D01*
X80339Y-52500D01*
X80394Y-52477D01*
X80437Y-52434D01*
X80460Y-52379D01*
X80460Y-53350D01*
X79110Y-53350D01*
X79110Y-52359D01*
X79110Y-52340D01*
X79110Y-51962D01*
X79110Y-51837D01*
X79110Y-51459D01*
X79110Y-51440D01*
X79102Y-51421D01*
X79088Y-51407D01*
X79069Y-51400D01*
X78812Y-51400D01*
X78800Y-51412D01*
X78800Y-51850D01*
X79097Y-51850D01*
X79110Y-51837D01*
X79110Y-51962D01*
X79097Y-51950D01*
X78800Y-51950D01*
X78800Y-52387D01*
X78812Y-52400D01*
X79069Y-52400D01*
X79088Y-52392D01*
X79102Y-52378D01*
X79110Y-52359D01*
X79110Y-53350D01*
X78700Y-53350D01*
X78700Y-52387D01*
X78700Y-51950D01*
X78700Y-51850D01*
X78700Y-51412D01*
X78687Y-51400D01*
X78430Y-51400D01*
X78411Y-51407D01*
X78397Y-51421D01*
X78390Y-51440D01*
X78390Y-51459D01*
X78390Y-51837D01*
X78402Y-51850D01*
X78700Y-51850D01*
X78700Y-51950D01*
X78402Y-51950D01*
X78390Y-51962D01*
X78390Y-52340D01*
X78390Y-52359D01*
X78397Y-52378D01*
X78411Y-52392D01*
X78430Y-52400D01*
X78687Y-52400D01*
X78700Y-52387D01*
X78700Y-53350D01*
X77210Y-53350D01*
X77210Y-52379D01*
X77210Y-52320D01*
X77210Y-51420D01*
X77187Y-51365D01*
X77144Y-51322D01*
X77089Y-51300D01*
X77030Y-51300D01*
X76410Y-51300D01*
X76355Y-51322D01*
X76312Y-51365D01*
X76290Y-51420D01*
X76290Y-51479D01*
X76290Y-52379D01*
X76312Y-52434D01*
X76355Y-52477D01*
X76410Y-52500D01*
X76469Y-52500D01*
X77089Y-52500D01*
X77144Y-52477D01*
X77187Y-52434D01*
X77210Y-52379D01*
X77210Y-53350D01*
X75860Y-53350D01*
X75860Y-52359D01*
X75860Y-52340D01*
X75860Y-51962D01*
X75860Y-51837D01*
X75860Y-51459D01*
X75860Y-51440D01*
X75852Y-51421D01*
X75838Y-51407D01*
X75819Y-51400D01*
X75562Y-51400D01*
X75550Y-51412D01*
X75550Y-51850D01*
X75847Y-51850D01*
X75860Y-51837D01*
X75860Y-51962D01*
X75847Y-51950D01*
X75550Y-51950D01*
X75550Y-52387D01*
X75562Y-52400D01*
X75819Y-52400D01*
X75838Y-52392D01*
X75852Y-52378D01*
X75860Y-52359D01*
X75860Y-53350D01*
X75450Y-53350D01*
X75450Y-52387D01*
X75450Y-51950D01*
X75450Y-51850D01*
X75450Y-51412D01*
X75437Y-51400D01*
X75180Y-51400D01*
X75161Y-51407D01*
X75147Y-51421D01*
X75140Y-51440D01*
X75140Y-51459D01*
X75140Y-51837D01*
X75152Y-51850D01*
X75450Y-51850D01*
X75450Y-51950D01*
X75152Y-51950D01*
X75140Y-51962D01*
X75140Y-52340D01*
X75140Y-52359D01*
X75147Y-52378D01*
X75161Y-52392D01*
X75180Y-52400D01*
X75437Y-52400D01*
X75450Y-52387D01*
X75450Y-53350D01*
X73960Y-53350D01*
X73960Y-52379D01*
X73960Y-52320D01*
X73960Y-51420D01*
X73937Y-51365D01*
X73894Y-51322D01*
X73839Y-51300D01*
X73780Y-51300D01*
X73160Y-51300D01*
X73105Y-51322D01*
X73062Y-51365D01*
X73040Y-51420D01*
X73040Y-51479D01*
X73040Y-52379D01*
X73062Y-52434D01*
X73105Y-52477D01*
X73160Y-52500D01*
X73219Y-52500D01*
X73839Y-52500D01*
X73894Y-52477D01*
X73937Y-52434D01*
X73960Y-52379D01*
X73960Y-53350D01*
X72850Y-53350D01*
X72850Y-50850D01*
X74420Y-50850D01*
X74850Y-50420D01*
X74850Y-49195D01*
X75002Y-49347D01*
X75002Y-49347D01*
X75069Y-49393D01*
X75150Y-49409D01*
X76650Y-49409D01*
X76650Y-49529D01*
X76672Y-49584D01*
X76715Y-49627D01*
X76770Y-49650D01*
X76829Y-49650D01*
X77354Y-49650D01*
X77163Y-49840D01*
X75950Y-49840D01*
X75950Y-49840D01*
X75883Y-49854D01*
X75869Y-49856D01*
X75802Y-49902D01*
X75802Y-49902D01*
X74404Y-51300D01*
X74160Y-51300D01*
X74105Y-51322D01*
X74062Y-51365D01*
X74040Y-51420D01*
X74040Y-51479D01*
X74040Y-52379D01*
X74062Y-52434D01*
X74105Y-52477D01*
X74160Y-52500D01*
X74219Y-52500D01*
X74839Y-52500D01*
X74894Y-52477D01*
X74937Y-52434D01*
X74960Y-52379D01*
X74960Y-52320D01*
X74960Y-51420D01*
X74937Y-51365D01*
X74933Y-51361D01*
X76036Y-50259D01*
X77250Y-50259D01*
X77330Y-50243D01*
X77397Y-50197D01*
X77964Y-49631D01*
X78010Y-49649D01*
X78189Y-49650D01*
X78354Y-49581D01*
X78481Y-49455D01*
X78549Y-49289D01*
X78550Y-49110D01*
X78550Y-48110D01*
X78481Y-47945D01*
X78355Y-47818D01*
X78189Y-47750D01*
X78010Y-47749D01*
X77845Y-47818D01*
X77718Y-47944D01*
X77650Y-48110D01*
X77649Y-48289D01*
X77718Y-48454D01*
X77844Y-48581D01*
X78010Y-48649D01*
X78189Y-48650D01*
X78354Y-48581D01*
X78481Y-48455D01*
X78549Y-48289D01*
X78550Y-48110D01*
X78550Y-49110D01*
X78481Y-48945D01*
X78355Y-48818D01*
X78189Y-48750D01*
X78010Y-48749D01*
X77845Y-48818D01*
X77718Y-48944D01*
X77650Y-49110D01*
X77649Y-49289D01*
X77669Y-49335D01*
X77550Y-49454D01*
X77550Y-48110D01*
X77481Y-47945D01*
X77355Y-47818D01*
X77189Y-47750D01*
X77010Y-47749D01*
X76845Y-47818D01*
X76718Y-47944D01*
X76650Y-48110D01*
X76649Y-48289D01*
X76718Y-48454D01*
X76844Y-48581D01*
X77010Y-48649D01*
X77189Y-48650D01*
X77354Y-48581D01*
X77481Y-48455D01*
X77549Y-48289D01*
X77550Y-48110D01*
X77550Y-49454D01*
X77550Y-49454D01*
X77550Y-48870D01*
X77527Y-48815D01*
X77484Y-48772D01*
X77429Y-48750D01*
X77370Y-48750D01*
X76770Y-48750D01*
X76715Y-48772D01*
X76672Y-48815D01*
X76650Y-48870D01*
X76650Y-48929D01*
X76650Y-48990D01*
X76250Y-48990D01*
X76250Y-48819D01*
X76250Y-48562D01*
X76250Y-48437D01*
X76250Y-48180D01*
X76242Y-48161D01*
X76228Y-48147D01*
X76209Y-48140D01*
X76190Y-48140D01*
X75812Y-48140D01*
X75800Y-48152D01*
X75800Y-48450D01*
X76237Y-48450D01*
X76250Y-48437D01*
X76250Y-48562D01*
X76237Y-48550D01*
X75800Y-48550D01*
X75800Y-48847D01*
X75812Y-48860D01*
X76190Y-48860D01*
X76209Y-48860D01*
X76228Y-48852D01*
X76242Y-48838D01*
X76250Y-48819D01*
X76250Y-48990D01*
X75700Y-48990D01*
X75700Y-48847D01*
X75700Y-48550D01*
X75700Y-48450D01*
X75700Y-48152D01*
X75687Y-48140D01*
X75309Y-48140D01*
X75290Y-48140D01*
X75271Y-48147D01*
X75257Y-48161D01*
X75250Y-48180D01*
X75250Y-48437D01*
X75262Y-48450D01*
X75700Y-48450D01*
X75700Y-48550D01*
X75262Y-48550D01*
X75250Y-48562D01*
X75250Y-48819D01*
X75257Y-48838D01*
X75271Y-48852D01*
X75290Y-48860D01*
X75309Y-48860D01*
X75687Y-48860D01*
X75700Y-48847D01*
X75700Y-48990D01*
X75236Y-48990D01*
X75159Y-48913D01*
X75159Y-47861D01*
X75172Y-47894D01*
X75215Y-47937D01*
X75270Y-47960D01*
X75329Y-47960D01*
X76229Y-47960D01*
X76284Y-47937D01*
X76327Y-47894D01*
X76350Y-47839D01*
X76350Y-47780D01*
X76350Y-47160D01*
X76350Y-46839D01*
X76350Y-46780D01*
X76350Y-46160D01*
X76327Y-46105D01*
X76284Y-46062D01*
X76229Y-46040D01*
X76170Y-46040D01*
X75270Y-46040D01*
X75215Y-46062D01*
X75172Y-46105D01*
X75150Y-46160D01*
X75150Y-46219D01*
X75150Y-46839D01*
X75172Y-46894D01*
X75215Y-46937D01*
X75270Y-46960D01*
X75329Y-46960D01*
X76229Y-46960D01*
X76284Y-46937D01*
X76327Y-46894D01*
X76350Y-46839D01*
X76350Y-47160D01*
X76327Y-47105D01*
X76284Y-47062D01*
X76229Y-47040D01*
X76170Y-47040D01*
X75270Y-47040D01*
X75215Y-47062D01*
X75172Y-47105D01*
X75150Y-47160D01*
X75150Y-47219D01*
X75150Y-47300D01*
X75119Y-47306D01*
X75052Y-47352D01*
X75052Y-47352D01*
X74850Y-47554D01*
X74850Y-45150D01*
X72915Y-45150D01*
X72915Y-41257D01*
X72844Y-41086D01*
X72713Y-40956D01*
X72542Y-40885D01*
X72357Y-40884D01*
X72186Y-40955D01*
X72056Y-41086D01*
X71985Y-41257D01*
X71984Y-41442D01*
X72055Y-41613D01*
X72186Y-41743D01*
X72357Y-41814D01*
X72542Y-41815D01*
X72713Y-41744D01*
X72843Y-41613D01*
X72914Y-41442D01*
X72915Y-41257D01*
X72915Y-45150D01*
X71850Y-45150D01*
X71850Y-40350D01*
X110550Y-40350D01*
X110550Y-61550D01*
X110550Y-61550D01*
G37*
G54D33*
X110550Y-61550D02*
X110257Y-61550D01*
X110257Y-41257D01*
X110186Y-41086D01*
X110055Y-40956D01*
X109885Y-40885D01*
X109700Y-40884D01*
X109529Y-40955D01*
X109398Y-41086D01*
X109327Y-41257D01*
X109327Y-41442D01*
X109397Y-41613D01*
X109528Y-41743D01*
X109543Y-41750D01*
X109543Y-42354D01*
X108647Y-43251D01*
X107265Y-43251D01*
X107265Y-41257D01*
X107194Y-41086D01*
X107063Y-40956D01*
X106892Y-40885D01*
X106707Y-40884D01*
X106536Y-40955D01*
X106406Y-41086D01*
X106335Y-41257D01*
X106334Y-41442D01*
X106405Y-41613D01*
X106536Y-41743D01*
X106707Y-41814D01*
X106892Y-41815D01*
X107063Y-41744D01*
X107193Y-41613D01*
X107264Y-41442D01*
X107265Y-41257D01*
X107265Y-43251D01*
X103937Y-43251D01*
X103975Y-43225D01*
X105117Y-42083D01*
X105117Y-42083D01*
X105117Y-42083D01*
X105171Y-42002D01*
X105190Y-41907D01*
X105190Y-41907D01*
X105190Y-41907D01*
X105190Y-41750D01*
X105205Y-41744D01*
X105336Y-41613D01*
X105407Y-41442D01*
X105407Y-41257D01*
X105336Y-41086D01*
X105205Y-40956D01*
X105035Y-40885D01*
X104850Y-40884D01*
X104679Y-40955D01*
X104548Y-41086D01*
X104477Y-41257D01*
X104477Y-41442D01*
X104547Y-41613D01*
X104678Y-41743D01*
X104693Y-41750D01*
X104693Y-41804D01*
X103697Y-42801D01*
X102415Y-42801D01*
X102415Y-41257D01*
X102344Y-41086D01*
X102213Y-40956D01*
X102042Y-40885D01*
X101857Y-40884D01*
X101686Y-40955D01*
X101556Y-41086D01*
X101485Y-41257D01*
X101484Y-41442D01*
X101555Y-41613D01*
X101686Y-41743D01*
X101857Y-41814D01*
X102042Y-41815D01*
X102213Y-41744D01*
X102343Y-41613D01*
X102414Y-41442D01*
X102415Y-41257D01*
X102415Y-42801D01*
X98979Y-42801D01*
X99017Y-42775D01*
X99984Y-41808D01*
X99999Y-41814D01*
X100184Y-41815D01*
X100355Y-41744D01*
X100486Y-41613D01*
X100557Y-41442D01*
X100557Y-41257D01*
X100486Y-41086D01*
X100355Y-40956D01*
X100185Y-40885D01*
X100000Y-40884D01*
X99829Y-40955D01*
X99698Y-41086D01*
X99627Y-41257D01*
X99627Y-41442D01*
X99633Y-41457D01*
X98739Y-42351D01*
X97565Y-42351D01*
X97565Y-41257D01*
X97494Y-41086D01*
X97363Y-40956D01*
X97192Y-40885D01*
X97007Y-40884D01*
X96836Y-40955D01*
X96706Y-41086D01*
X96635Y-41257D01*
X96634Y-41442D01*
X96705Y-41613D01*
X96836Y-41743D01*
X97007Y-41814D01*
X97192Y-41815D01*
X97363Y-41744D01*
X97493Y-41613D01*
X97564Y-41442D01*
X97565Y-41257D01*
X97565Y-42351D01*
X94579Y-42351D01*
X94617Y-42325D01*
X95134Y-41808D01*
X95149Y-41814D01*
X95334Y-41815D01*
X95505Y-41744D01*
X95636Y-41613D01*
X95707Y-41442D01*
X95707Y-41257D01*
X95636Y-41086D01*
X95505Y-40956D01*
X95335Y-40885D01*
X95150Y-40884D01*
X94979Y-40955D01*
X94848Y-41086D01*
X94777Y-41257D01*
X94777Y-41442D01*
X94783Y-41457D01*
X94339Y-41901D01*
X92715Y-41901D01*
X92715Y-41257D01*
X92644Y-41086D01*
X92513Y-40956D01*
X92342Y-40885D01*
X92157Y-40884D01*
X91986Y-40955D01*
X91856Y-41086D01*
X91785Y-41257D01*
X91784Y-41442D01*
X91855Y-41613D01*
X91986Y-41743D01*
X92157Y-41814D01*
X92342Y-41815D01*
X92513Y-41744D01*
X92643Y-41613D01*
X92714Y-41442D01*
X92715Y-41257D01*
X92715Y-41901D01*
X90800Y-41901D01*
X90704Y-41920D01*
X90624Y-41974D01*
X89024Y-43574D01*
X88970Y-43654D01*
X88951Y-43750D01*
X88951Y-43942D01*
X88949Y-43944D01*
X88948Y-43942D01*
X88948Y-43502D01*
X90317Y-42133D01*
X90371Y-42052D01*
X90390Y-41957D01*
X90390Y-41950D01*
X90390Y-41750D01*
X90405Y-41744D01*
X90536Y-41613D01*
X90607Y-41442D01*
X90607Y-41257D01*
X90536Y-41086D01*
X90405Y-40956D01*
X90235Y-40885D01*
X90050Y-40884D01*
X89879Y-40955D01*
X89748Y-41086D01*
X89677Y-41257D01*
X89677Y-41442D01*
X89747Y-41613D01*
X89878Y-41743D01*
X89893Y-41750D01*
X89893Y-41854D01*
X88524Y-43224D01*
X88470Y-43304D01*
X88451Y-43400D01*
X88451Y-43942D01*
X88449Y-43944D01*
X88448Y-43942D01*
X88448Y-43150D01*
X88429Y-43054D01*
X88375Y-42974D01*
X88025Y-42624D01*
X87945Y-42570D01*
X87850Y-42551D01*
X87615Y-42551D01*
X87615Y-41257D01*
X87544Y-41086D01*
X87413Y-40956D01*
X87242Y-40885D01*
X87057Y-40884D01*
X86886Y-40955D01*
X86756Y-41086D01*
X86685Y-41257D01*
X86684Y-41442D01*
X86755Y-41613D01*
X86886Y-41743D01*
X87057Y-41814D01*
X87242Y-41815D01*
X87413Y-41744D01*
X87543Y-41613D01*
X87614Y-41442D01*
X87615Y-41257D01*
X87615Y-42551D01*
X85802Y-42551D01*
X85490Y-42239D01*
X85490Y-42000D01*
X85490Y-41950D01*
X85490Y-41750D01*
X85505Y-41744D01*
X85636Y-41613D01*
X85707Y-41442D01*
X85707Y-41257D01*
X85636Y-41086D01*
X85505Y-40956D01*
X85335Y-40885D01*
X85150Y-40884D01*
X84979Y-40955D01*
X84848Y-41086D01*
X84777Y-41257D01*
X84777Y-41442D01*
X84847Y-41613D01*
X84978Y-41743D01*
X84993Y-41750D01*
X84993Y-41950D01*
X84993Y-42000D01*
X84993Y-42342D01*
X85012Y-42437D01*
X85066Y-42517D01*
X85524Y-42975D01*
X85524Y-42975D01*
X85572Y-43008D01*
X85604Y-43029D01*
X85604Y-43029D01*
X85700Y-43048D01*
X87747Y-43048D01*
X87951Y-43252D01*
X87951Y-43942D01*
X87949Y-43944D01*
X87948Y-43942D01*
X87948Y-43800D01*
X87929Y-43704D01*
X87875Y-43624D01*
X87475Y-43224D01*
X87395Y-43170D01*
X87300Y-43151D01*
X82715Y-43151D01*
X82715Y-41257D01*
X82644Y-41086D01*
X82513Y-40956D01*
X82342Y-40885D01*
X82157Y-40884D01*
X81986Y-40955D01*
X81856Y-41086D01*
X81785Y-41257D01*
X81784Y-41442D01*
X81855Y-41613D01*
X81986Y-41743D01*
X82157Y-41814D01*
X82342Y-41815D01*
X82513Y-41744D01*
X82643Y-41613D01*
X82714Y-41442D01*
X82715Y-41257D01*
X82715Y-43151D01*
X80852Y-43151D01*
X80590Y-42889D01*
X80590Y-42000D01*
X80590Y-41950D01*
X80590Y-41750D01*
X80605Y-41744D01*
X80736Y-41613D01*
X80807Y-41442D01*
X80807Y-41257D01*
X80736Y-41086D01*
X80605Y-40956D01*
X80435Y-40885D01*
X80250Y-40884D01*
X80079Y-40955D01*
X79948Y-41086D01*
X79877Y-41257D01*
X79877Y-41442D01*
X79947Y-41613D01*
X80078Y-41743D01*
X80093Y-41750D01*
X80093Y-41950D01*
X80093Y-42000D01*
X80093Y-42992D01*
X80112Y-43087D01*
X80166Y-43167D01*
X80574Y-43575D01*
X80654Y-43629D01*
X80750Y-43648D01*
X87197Y-43648D01*
X87451Y-43902D01*
X87451Y-43942D01*
X87450Y-43943D01*
X87434Y-43928D01*
X87379Y-43905D01*
X87320Y-43905D01*
X87020Y-43905D01*
X86965Y-43928D01*
X86926Y-43966D01*
X86850Y-43951D01*
X77815Y-43951D01*
X77815Y-41257D01*
X77744Y-41086D01*
X77613Y-40956D01*
X77442Y-40885D01*
X77257Y-40884D01*
X77086Y-40955D01*
X76956Y-41086D01*
X76885Y-41257D01*
X76884Y-41442D01*
X76955Y-41613D01*
X77086Y-41743D01*
X77257Y-41814D01*
X77442Y-41815D01*
X77613Y-41744D01*
X77743Y-41613D01*
X77814Y-41442D01*
X77815Y-41257D01*
X77815Y-43951D01*
X76402Y-43951D01*
X75731Y-43279D01*
X75725Y-43271D01*
X75651Y-43197D01*
X75651Y-42450D01*
X75651Y-41766D01*
X75705Y-41744D01*
X75836Y-41613D01*
X75907Y-41442D01*
X75907Y-41257D01*
X75836Y-41086D01*
X75705Y-40956D01*
X75535Y-40885D01*
X75350Y-40884D01*
X75179Y-40955D01*
X75048Y-41086D01*
X74977Y-41257D01*
X74977Y-41442D01*
X75047Y-41613D01*
X75154Y-41719D01*
X75154Y-42450D01*
X75154Y-43300D01*
X75173Y-43395D01*
X75227Y-43475D01*
X75368Y-43617D01*
X75374Y-43625D01*
X76124Y-44375D01*
X76204Y-44429D01*
X76300Y-44448D01*
X86747Y-44448D01*
X86900Y-44601D01*
X86900Y-44790D01*
X86884Y-44774D01*
X86764Y-44725D01*
X86635Y-44724D01*
X86516Y-44774D01*
X86424Y-44865D01*
X86375Y-44985D01*
X86374Y-45114D01*
X86424Y-45233D01*
X86515Y-45325D01*
X86635Y-45374D01*
X86729Y-45375D01*
X86990Y-45636D01*
X86990Y-47618D01*
X86965Y-47629D01*
X86922Y-47671D01*
X86900Y-47726D01*
X86900Y-47786D01*
X86900Y-48573D01*
X86922Y-48629D01*
X86965Y-48671D01*
X87020Y-48694D01*
X87079Y-48694D01*
X87379Y-48694D01*
X87434Y-48671D01*
X87450Y-48656D01*
X87465Y-48670D01*
X87520Y-48693D01*
X87579Y-48693D01*
X87879Y-48693D01*
X87934Y-48670D01*
X87950Y-48655D01*
X87965Y-48670D01*
X88020Y-48693D01*
X88079Y-48693D01*
X88379Y-48693D01*
X88434Y-48670D01*
X88450Y-48655D01*
X88465Y-48670D01*
X88520Y-48693D01*
X88579Y-48693D01*
X88879Y-48693D01*
X88934Y-48670D01*
X88950Y-48655D01*
X88965Y-48670D01*
X89020Y-48693D01*
X89079Y-48693D01*
X89379Y-48693D01*
X89434Y-48670D01*
X89450Y-48655D01*
X89465Y-48670D01*
X89520Y-48693D01*
X89579Y-48693D01*
X89879Y-48693D01*
X89934Y-48670D01*
X89950Y-48655D01*
X89965Y-48670D01*
X90020Y-48693D01*
X90079Y-48693D01*
X90379Y-48693D01*
X90434Y-48670D01*
X90450Y-48655D01*
X90465Y-48670D01*
X90520Y-48693D01*
X90579Y-48693D01*
X90879Y-48693D01*
X90934Y-48670D01*
X90977Y-48628D01*
X91000Y-48573D01*
X91000Y-48553D01*
X91007Y-48572D01*
X91021Y-48586D01*
X91040Y-48593D01*
X91137Y-48593D01*
X91150Y-48581D01*
X91150Y-48200D01*
X91012Y-48200D01*
X91000Y-48212D01*
X91000Y-48087D01*
X91012Y-48100D01*
X91150Y-48100D01*
X91150Y-48092D01*
X91250Y-48092D01*
X91250Y-48100D01*
X91387Y-48100D01*
X91400Y-48087D01*
X91400Y-47795D01*
X91402Y-47797D01*
X91402Y-47797D01*
X91962Y-48357D01*
X91962Y-48357D01*
X92029Y-48403D01*
X92110Y-48419D01*
X92185Y-48419D01*
X91652Y-48952D01*
X91606Y-49019D01*
X91590Y-49100D01*
X91590Y-49149D01*
X91524Y-49215D01*
X91475Y-49335D01*
X91474Y-49464D01*
X91524Y-49583D01*
X91615Y-49675D01*
X91653Y-49690D01*
X91400Y-49690D01*
X91400Y-48553D01*
X91400Y-48533D01*
X91400Y-48212D01*
X91387Y-48200D01*
X91250Y-48200D01*
X91250Y-48581D01*
X91262Y-48593D01*
X91359Y-48593D01*
X91378Y-48586D01*
X91392Y-48572D01*
X91400Y-48553D01*
X91400Y-49690D01*
X90350Y-49690D01*
X90300Y-49690D01*
X89900Y-49690D01*
X86550Y-49690D01*
X86550Y-48110D01*
X86481Y-47945D01*
X86355Y-47818D01*
X86189Y-47750D01*
X86010Y-47749D01*
X85845Y-47818D01*
X85718Y-47944D01*
X85650Y-48110D01*
X85649Y-48289D01*
X85718Y-48454D01*
X85844Y-48581D01*
X86010Y-48649D01*
X86189Y-48650D01*
X86354Y-48581D01*
X86481Y-48455D01*
X86549Y-48289D01*
X86550Y-48110D01*
X86550Y-49690D01*
X86455Y-49690D01*
X86455Y-49233D01*
X86441Y-49095D01*
X86415Y-49032D01*
X86376Y-48994D01*
X86305Y-49065D01*
X86305Y-48923D01*
X86267Y-48884D01*
X86133Y-48844D01*
X85995Y-48858D01*
X85932Y-48884D01*
X85894Y-48923D01*
X86100Y-49129D01*
X86305Y-48923D01*
X86305Y-49065D01*
X86170Y-49200D01*
X86376Y-49405D01*
X86415Y-49367D01*
X86455Y-49233D01*
X86455Y-49690D01*
X86305Y-49690D01*
X86305Y-49476D01*
X86100Y-49270D01*
X86029Y-49341D01*
X86029Y-49200D01*
X85823Y-48994D01*
X85784Y-49032D01*
X85744Y-49166D01*
X85758Y-49304D01*
X85784Y-49367D01*
X85823Y-49405D01*
X86029Y-49200D01*
X86029Y-49341D01*
X85894Y-49476D01*
X85932Y-49515D01*
X86066Y-49555D01*
X86204Y-49541D01*
X86267Y-49515D01*
X86305Y-49476D01*
X86305Y-49690D01*
X85550Y-49690D01*
X85550Y-49110D01*
X85550Y-48110D01*
X85481Y-47945D01*
X85355Y-47818D01*
X85189Y-47750D01*
X85010Y-47749D01*
X84845Y-47818D01*
X84718Y-47944D01*
X84650Y-48110D01*
X84649Y-48289D01*
X84718Y-48454D01*
X84844Y-48581D01*
X85010Y-48649D01*
X85189Y-48650D01*
X85354Y-48581D01*
X85481Y-48455D01*
X85549Y-48289D01*
X85550Y-48110D01*
X85550Y-49110D01*
X85481Y-48945D01*
X85355Y-48818D01*
X85189Y-48750D01*
X85010Y-48749D01*
X84845Y-48818D01*
X84718Y-48944D01*
X84650Y-49110D01*
X84649Y-49289D01*
X84718Y-49454D01*
X84844Y-49581D01*
X85010Y-49649D01*
X85189Y-49650D01*
X85354Y-49581D01*
X85481Y-49455D01*
X85549Y-49289D01*
X85550Y-49110D01*
X85550Y-49690D01*
X84573Y-49690D01*
X84409Y-49526D01*
X84481Y-49455D01*
X84549Y-49289D01*
X84550Y-49110D01*
X84550Y-48110D01*
X84481Y-47945D01*
X84355Y-47818D01*
X84189Y-47750D01*
X84010Y-47749D01*
X83845Y-47818D01*
X83718Y-47944D01*
X83650Y-48110D01*
X83649Y-48289D01*
X83718Y-48454D01*
X83844Y-48581D01*
X84010Y-48649D01*
X84189Y-48650D01*
X84354Y-48581D01*
X84481Y-48455D01*
X84549Y-48289D01*
X84550Y-48110D01*
X84550Y-49110D01*
X84481Y-48945D01*
X84355Y-48818D01*
X84189Y-48750D01*
X84010Y-48749D01*
X83845Y-48818D01*
X83718Y-48944D01*
X83650Y-49110D01*
X83649Y-49289D01*
X83718Y-49454D01*
X83844Y-49581D01*
X83946Y-49623D01*
X83958Y-49641D01*
X84308Y-49990D01*
X84086Y-49990D01*
X83501Y-49406D01*
X83549Y-49289D01*
X83550Y-49110D01*
X83550Y-48110D01*
X83481Y-47945D01*
X83355Y-47818D01*
X83189Y-47750D01*
X83010Y-47749D01*
X82845Y-47818D01*
X82718Y-47944D01*
X82650Y-48110D01*
X82649Y-48289D01*
X82718Y-48454D01*
X82844Y-48581D01*
X83010Y-48649D01*
X83189Y-48650D01*
X83354Y-48581D01*
X83481Y-48455D01*
X83549Y-48289D01*
X83550Y-48110D01*
X83550Y-49110D01*
X83481Y-48945D01*
X83355Y-48818D01*
X83189Y-48750D01*
X83010Y-48749D01*
X82845Y-48818D01*
X82718Y-48944D01*
X82650Y-49110D01*
X82649Y-49289D01*
X82718Y-49454D01*
X82844Y-49581D01*
X83010Y-49649D01*
X83154Y-49650D01*
X83852Y-50347D01*
X83916Y-50390D01*
X83136Y-50390D01*
X82335Y-49589D01*
X82354Y-49581D01*
X82481Y-49455D01*
X82549Y-49289D01*
X82550Y-49110D01*
X82550Y-48110D01*
X82481Y-47945D01*
X82355Y-47818D01*
X82189Y-47750D01*
X82010Y-47749D01*
X81845Y-47818D01*
X81718Y-47944D01*
X81650Y-48110D01*
X81649Y-48289D01*
X81718Y-48454D01*
X81844Y-48581D01*
X82010Y-48649D01*
X82189Y-48650D01*
X82354Y-48581D01*
X82481Y-48455D01*
X82549Y-48289D01*
X82550Y-48110D01*
X82550Y-49110D01*
X82481Y-48945D01*
X82355Y-48818D01*
X82189Y-48750D01*
X82010Y-48749D01*
X81845Y-48818D01*
X81718Y-48944D01*
X81650Y-49110D01*
X81649Y-49289D01*
X81718Y-49454D01*
X81844Y-49581D01*
X81890Y-49600D01*
X81890Y-49650D01*
X81906Y-49730D01*
X81952Y-49797D01*
X82895Y-50740D01*
X82836Y-50740D01*
X81501Y-49406D01*
X81549Y-49289D01*
X81550Y-49110D01*
X81550Y-48110D01*
X81481Y-47945D01*
X81355Y-47818D01*
X81189Y-47750D01*
X81010Y-47749D01*
X80845Y-47818D01*
X80718Y-47944D01*
X80650Y-48110D01*
X80649Y-48289D01*
X80718Y-48454D01*
X80844Y-48581D01*
X81010Y-48649D01*
X81189Y-48650D01*
X81354Y-48581D01*
X81481Y-48455D01*
X81549Y-48289D01*
X81550Y-48110D01*
X81550Y-49110D01*
X81481Y-48945D01*
X81355Y-48818D01*
X81189Y-48750D01*
X81010Y-48749D01*
X80845Y-48818D01*
X80718Y-48944D01*
X80650Y-49110D01*
X80649Y-49289D01*
X80718Y-49454D01*
X80844Y-49581D01*
X81010Y-49649D01*
X81154Y-49650D01*
X82602Y-51097D01*
X82669Y-51143D01*
X82750Y-51159D01*
X83813Y-51159D01*
X83954Y-51300D01*
X83910Y-51300D01*
X83855Y-51322D01*
X83812Y-51365D01*
X83790Y-51420D01*
X83790Y-51479D01*
X83790Y-52379D01*
X83812Y-52434D01*
X83855Y-52477D01*
X83910Y-52500D01*
X83969Y-52500D01*
X84589Y-52500D01*
X84644Y-52477D01*
X84687Y-52434D01*
X84710Y-52379D01*
X84710Y-52320D01*
X84710Y-51420D01*
X84687Y-51365D01*
X84644Y-51322D01*
X84589Y-51300D01*
X84530Y-51300D01*
X84459Y-51300D01*
X84443Y-51219D01*
X84397Y-51152D01*
X84054Y-50809D01*
X85213Y-50809D01*
X85690Y-51286D01*
X85690Y-51750D01*
X85706Y-51830D01*
X85752Y-51897D01*
X86002Y-52147D01*
X86002Y-52147D01*
X86002Y-52147D01*
X86069Y-52193D01*
X86150Y-52209D01*
X86150Y-52209D01*
X86150Y-52209D01*
X86950Y-52209D01*
X87030Y-52193D01*
X87097Y-52147D01*
X87645Y-51600D01*
X87839Y-51600D01*
X87894Y-51577D01*
X87937Y-51534D01*
X87960Y-51479D01*
X87960Y-51420D01*
X87960Y-50520D01*
X87937Y-50465D01*
X87894Y-50422D01*
X87861Y-50409D01*
X89388Y-50409D01*
X89355Y-50422D01*
X89312Y-50465D01*
X89290Y-50520D01*
X89290Y-50579D01*
X89290Y-51479D01*
X89312Y-51534D01*
X89355Y-51577D01*
X89410Y-51600D01*
X89469Y-51600D01*
X90089Y-51600D01*
X90144Y-51577D01*
X90187Y-51534D01*
X90210Y-51479D01*
X90210Y-51420D01*
X90210Y-50520D01*
X90187Y-50465D01*
X90144Y-50422D01*
X90111Y-50409D01*
X90163Y-50409D01*
X90290Y-50535D01*
X90290Y-50579D01*
X90290Y-51479D01*
X90312Y-51534D01*
X90355Y-51577D01*
X90410Y-51600D01*
X90469Y-51600D01*
X91089Y-51600D01*
X91144Y-51577D01*
X91187Y-51534D01*
X91210Y-51479D01*
X91210Y-51420D01*
X91210Y-50520D01*
X91187Y-50465D01*
X91144Y-50422D01*
X91089Y-50400D01*
X91030Y-50400D01*
X90745Y-50400D01*
X90454Y-50109D01*
X92763Y-50109D01*
X92904Y-50250D01*
X92662Y-50250D01*
X92650Y-50262D01*
X92650Y-50650D01*
X92937Y-50650D01*
X92950Y-50637D01*
X92950Y-50309D01*
X92950Y-50295D01*
X93040Y-50386D01*
X93040Y-51150D01*
X93056Y-51230D01*
X93102Y-51297D01*
X93104Y-51300D01*
X92950Y-51300D01*
X92950Y-51109D01*
X92950Y-51090D01*
X92950Y-50762D01*
X92937Y-50750D01*
X92650Y-50750D01*
X92650Y-51137D01*
X92662Y-51150D01*
X92909Y-51150D01*
X92928Y-51142D01*
X92942Y-51128D01*
X92950Y-51109D01*
X92950Y-51300D01*
X92660Y-51300D01*
X92605Y-51322D01*
X92562Y-51365D01*
X92550Y-51396D01*
X92550Y-51137D01*
X92550Y-50750D01*
X92550Y-50650D01*
X92550Y-50262D01*
X92537Y-50250D01*
X92290Y-50250D01*
X92271Y-50257D01*
X92257Y-50271D01*
X92250Y-50290D01*
X92250Y-50309D01*
X92250Y-50637D01*
X92262Y-50650D01*
X92550Y-50650D01*
X92550Y-50750D01*
X92262Y-50750D01*
X92250Y-50762D01*
X92250Y-51090D01*
X92250Y-51109D01*
X92257Y-51128D01*
X92271Y-51142D01*
X92290Y-51150D01*
X92537Y-51150D01*
X92550Y-51137D01*
X92550Y-51396D01*
X92540Y-51420D01*
X92540Y-51479D01*
X92540Y-52379D01*
X92562Y-52434D01*
X92605Y-52477D01*
X92660Y-52500D01*
X92719Y-52500D01*
X93339Y-52500D01*
X93394Y-52477D01*
X93437Y-52434D01*
X93460Y-52379D01*
X93460Y-52320D01*
X93460Y-51655D01*
X93540Y-51735D01*
X93540Y-52379D01*
X93562Y-52434D01*
X93605Y-52477D01*
X93660Y-52500D01*
X93719Y-52500D01*
X94339Y-52500D01*
X94394Y-52477D01*
X94437Y-52434D01*
X94460Y-52379D01*
X94460Y-52320D01*
X94460Y-51735D01*
X94597Y-51597D01*
X94640Y-51534D01*
X94640Y-51837D01*
X94652Y-51850D01*
X94950Y-51850D01*
X94950Y-51412D01*
X94937Y-51400D01*
X94680Y-51400D01*
X94661Y-51407D01*
X94659Y-51410D01*
X94659Y-50718D01*
X94715Y-50775D01*
X94835Y-50824D01*
X94964Y-50825D01*
X95083Y-50775D01*
X95150Y-50709D01*
X95215Y-50775D01*
X95335Y-50824D01*
X95464Y-50825D01*
X95477Y-50819D01*
X95524Y-50933D01*
X95615Y-51025D01*
X95735Y-51074D01*
X95864Y-51075D01*
X95874Y-51070D01*
X95874Y-51114D01*
X95924Y-51233D01*
X96015Y-51325D01*
X96135Y-51374D01*
X96264Y-51375D01*
X96383Y-51325D01*
X96475Y-51234D01*
X96524Y-51114D01*
X96525Y-50985D01*
X96517Y-50967D01*
X96535Y-50974D01*
X96629Y-50975D01*
X96839Y-51185D01*
X96839Y-51185D01*
X97102Y-51447D01*
X97169Y-51493D01*
X97250Y-51509D01*
X99450Y-51509D01*
X99530Y-51493D01*
X99597Y-51447D01*
X99872Y-51172D01*
X99918Y-51105D01*
X99934Y-51025D01*
X99934Y-50550D01*
X99979Y-50531D01*
X100106Y-50405D01*
X100174Y-50239D01*
X100175Y-50060D01*
X100106Y-49895D01*
X99980Y-49768D01*
X99814Y-49700D01*
X99635Y-49699D01*
X99470Y-49768D01*
X99434Y-49804D01*
X99434Y-49736D01*
X99589Y-49581D01*
X99635Y-49599D01*
X99814Y-49600D01*
X99979Y-49531D01*
X100106Y-49405D01*
X100174Y-49239D01*
X100175Y-49060D01*
X100106Y-48895D01*
X99980Y-48768D01*
X99814Y-48700D01*
X99635Y-48699D01*
X99470Y-48768D01*
X99343Y-48894D01*
X99275Y-49060D01*
X99274Y-49239D01*
X99294Y-49285D01*
X99175Y-49404D01*
X99175Y-49060D01*
X99106Y-48895D01*
X98980Y-48768D01*
X98814Y-48700D01*
X98635Y-48699D01*
X98470Y-48768D01*
X98343Y-48894D01*
X98275Y-49060D01*
X98274Y-49239D01*
X98343Y-49404D01*
X98469Y-49531D01*
X98635Y-49599D01*
X98814Y-49600D01*
X98979Y-49531D01*
X99106Y-49405D01*
X99174Y-49239D01*
X99175Y-49060D01*
X99175Y-49404D01*
X99077Y-49502D01*
X99031Y-49569D01*
X99015Y-49650D01*
X99015Y-49958D01*
X99001Y-49944D01*
X98930Y-50015D01*
X98930Y-49873D01*
X98892Y-49834D01*
X98758Y-49794D01*
X98620Y-49808D01*
X98557Y-49834D01*
X98519Y-49873D01*
X98725Y-50079D01*
X98930Y-49873D01*
X98930Y-50015D01*
X98795Y-50150D01*
X99001Y-50355D01*
X99015Y-50341D01*
X99015Y-50588D01*
X98930Y-50673D01*
X98930Y-50426D01*
X98725Y-50220D01*
X98654Y-50291D01*
X98654Y-50150D01*
X98448Y-49944D01*
X98409Y-49982D01*
X98369Y-50116D01*
X98383Y-50254D01*
X98409Y-50317D01*
X98448Y-50355D01*
X98654Y-50150D01*
X98654Y-50291D01*
X98519Y-50426D01*
X98557Y-50465D01*
X98691Y-50505D01*
X98829Y-50491D01*
X98892Y-50465D01*
X98930Y-50426D01*
X98930Y-50673D01*
X98913Y-50690D01*
X97686Y-50690D01*
X97547Y-50552D01*
X97210Y-50214D01*
X97235Y-50224D01*
X97364Y-50225D01*
X97483Y-50175D01*
X97575Y-50084D01*
X97624Y-49964D01*
X97625Y-49835D01*
X97575Y-49716D01*
X97484Y-49624D01*
X97364Y-49575D01*
X97314Y-49575D01*
X97433Y-49525D01*
X97500Y-49459D01*
X97525Y-49459D01*
X97605Y-49443D01*
X97672Y-49397D01*
X98386Y-48684D01*
X100125Y-48684D01*
X100438Y-48684D01*
X100454Y-48700D01*
X100395Y-48700D01*
X100340Y-48722D01*
X100297Y-48765D01*
X100275Y-48820D01*
X100275Y-48879D01*
X100275Y-49479D01*
X100297Y-49534D01*
X100340Y-49577D01*
X100395Y-49600D01*
X100454Y-49600D01*
X101054Y-49600D01*
X101109Y-49577D01*
X101152Y-49534D01*
X101175Y-49479D01*
X101175Y-49420D01*
X101175Y-48820D01*
X101152Y-48765D01*
X101109Y-48722D01*
X101054Y-48700D01*
X100995Y-48700D01*
X100934Y-48700D01*
X100934Y-48675D01*
X100918Y-48594D01*
X100872Y-48527D01*
X100872Y-48527D01*
X100766Y-48421D01*
X101025Y-48421D01*
X101190Y-48586D01*
X101190Y-49250D01*
X101190Y-50950D01*
X101175Y-50966D01*
X101175Y-50060D01*
X101106Y-49895D01*
X100980Y-49768D01*
X100814Y-49700D01*
X100635Y-49699D01*
X100470Y-49768D01*
X100343Y-49894D01*
X100275Y-50060D01*
X100274Y-50239D01*
X100343Y-50404D01*
X100469Y-50531D01*
X100635Y-50599D01*
X100814Y-50600D01*
X100979Y-50531D01*
X101106Y-50405D01*
X101174Y-50239D01*
X101175Y-50060D01*
X101175Y-50966D01*
X100254Y-51887D01*
X100209Y-51955D01*
X100205Y-51971D01*
X100154Y-51950D01*
X100095Y-51950D01*
X99395Y-51950D01*
X99340Y-51972D01*
X99297Y-52015D01*
X99275Y-52070D01*
X99275Y-52129D01*
X99275Y-52829D01*
X99297Y-52884D01*
X99340Y-52927D01*
X99395Y-52950D01*
X99454Y-52950D01*
X100154Y-52950D01*
X100193Y-52934D01*
X100193Y-53286D01*
X99888Y-53590D01*
X99180Y-53590D01*
X99180Y-52495D01*
X99166Y-52337D01*
X99131Y-52252D01*
X99087Y-52208D01*
X99016Y-52278D01*
X99016Y-52137D01*
X98972Y-52093D01*
X98820Y-52044D01*
X98662Y-52058D01*
X98577Y-52093D01*
X98533Y-52137D01*
X98775Y-52379D01*
X99016Y-52137D01*
X99016Y-52278D01*
X98845Y-52450D01*
X99087Y-52691D01*
X99131Y-52647D01*
X99180Y-52495D01*
X99180Y-53590D01*
X99016Y-53590D01*
X99016Y-52762D01*
X98775Y-52520D01*
X98704Y-52591D01*
X98704Y-52450D01*
X98462Y-52208D01*
X98418Y-52252D01*
X98369Y-52404D01*
X98383Y-52562D01*
X98418Y-52647D01*
X98462Y-52691D01*
X98704Y-52450D01*
X98704Y-52591D01*
X98533Y-52762D01*
X98577Y-52806D01*
X98729Y-52855D01*
X98887Y-52841D01*
X98972Y-52806D01*
X99016Y-52762D01*
X99016Y-53590D01*
X99000Y-53590D01*
X99000Y-53590D01*
X98919Y-53606D01*
X98852Y-53652D01*
X98502Y-54002D01*
X98456Y-54069D01*
X98440Y-54150D01*
X98440Y-55167D01*
X98324Y-55167D01*
X98269Y-55189D01*
X98227Y-55232D01*
X98204Y-55287D01*
X98204Y-55346D01*
X98204Y-55937D01*
X98227Y-55993D01*
X98269Y-56035D01*
X98324Y-56058D01*
X98384Y-56058D01*
X98612Y-56058D01*
X99302Y-56747D01*
X99369Y-56793D01*
X99450Y-56809D01*
X105025Y-56809D01*
X105105Y-56793D01*
X105172Y-56747D01*
X105397Y-56522D01*
X105443Y-56455D01*
X105459Y-56375D01*
X105459Y-56058D01*
X105575Y-56058D01*
X105630Y-56035D01*
X105672Y-55993D01*
X105695Y-55937D01*
X105695Y-55878D01*
X105695Y-55287D01*
X105694Y-55284D01*
X105948Y-55284D01*
X105872Y-55359D01*
X105804Y-55523D01*
X105804Y-55700D01*
X105872Y-55864D01*
X105997Y-55990D01*
X106160Y-56058D01*
X106338Y-56058D01*
X106502Y-55990D01*
X106627Y-55865D01*
X106695Y-55701D01*
X106695Y-55524D01*
X106627Y-55360D01*
X106551Y-55284D01*
X106625Y-55284D01*
X106822Y-55480D01*
X106804Y-55523D01*
X106804Y-55700D01*
X106872Y-55864D01*
X106997Y-55990D01*
X107160Y-56058D01*
X107338Y-56058D01*
X107502Y-55990D01*
X107627Y-55865D01*
X107695Y-55701D01*
X107695Y-55524D01*
X107627Y-55360D01*
X107502Y-55235D01*
X107339Y-55167D01*
X107161Y-55167D01*
X107118Y-55185D01*
X107100Y-55167D01*
X107100Y-54645D01*
X107086Y-54508D01*
X107061Y-54448D01*
X107022Y-54410D01*
X106952Y-54481D01*
X106952Y-54339D01*
X106914Y-54301D01*
X106782Y-54261D01*
X106646Y-54276D01*
X106585Y-54301D01*
X106547Y-54339D01*
X106750Y-54541D01*
X106952Y-54339D01*
X106952Y-54481D01*
X106820Y-54612D01*
X107022Y-54814D01*
X107061Y-54777D01*
X107100Y-54645D01*
X107100Y-55167D01*
X106873Y-54940D01*
X106914Y-54924D01*
X106952Y-54885D01*
X106750Y-54683D01*
X106679Y-54754D01*
X106679Y-54612D01*
X106477Y-54410D01*
X106438Y-54448D01*
X106399Y-54579D01*
X106413Y-54716D01*
X106438Y-54777D01*
X106477Y-54814D01*
X106679Y-54612D01*
X106679Y-54754D01*
X106567Y-54865D01*
X106100Y-54865D01*
X106100Y-54645D01*
X106086Y-54508D01*
X106061Y-54448D01*
X106022Y-54410D01*
X105952Y-54481D01*
X105952Y-54339D01*
X105914Y-54301D01*
X105850Y-54281D01*
X105850Y-52023D01*
X105781Y-51858D01*
X105655Y-51731D01*
X105489Y-51662D01*
X105310Y-51662D01*
X105145Y-51730D01*
X105018Y-51857D01*
X104950Y-52022D01*
X104949Y-52201D01*
X105018Y-52367D01*
X105144Y-52493D01*
X105310Y-52562D01*
X105489Y-52562D01*
X105654Y-52494D01*
X105781Y-52367D01*
X105849Y-52202D01*
X105850Y-52023D01*
X105850Y-54281D01*
X105782Y-54261D01*
X105646Y-54276D01*
X105585Y-54301D01*
X105547Y-54339D01*
X105750Y-54541D01*
X105952Y-54339D01*
X105952Y-54481D01*
X105820Y-54612D01*
X106022Y-54814D01*
X106061Y-54777D01*
X106100Y-54645D01*
X106100Y-54865D01*
X105932Y-54865D01*
X105750Y-54683D01*
X105679Y-54754D01*
X105679Y-54612D01*
X105477Y-54410D01*
X105438Y-54448D01*
X105399Y-54579D01*
X105413Y-54716D01*
X105438Y-54777D01*
X105477Y-54814D01*
X105679Y-54612D01*
X105679Y-54754D01*
X105567Y-54865D01*
X104259Y-54865D01*
X104259Y-51486D01*
X104423Y-51321D01*
X104999Y-51321D01*
X105018Y-51367D01*
X105144Y-51493D01*
X105310Y-51562D01*
X105489Y-51562D01*
X105654Y-51494D01*
X105781Y-51367D01*
X105849Y-51202D01*
X105850Y-51023D01*
X105781Y-50858D01*
X105655Y-50731D01*
X105489Y-50662D01*
X105310Y-50662D01*
X105145Y-50730D01*
X105018Y-50857D01*
X104999Y-50903D01*
X104337Y-50903D01*
X104257Y-50919D01*
X104189Y-50964D01*
X103902Y-51252D01*
X103856Y-51319D01*
X103840Y-51400D01*
X103840Y-54865D01*
X103075Y-54865D01*
X103075Y-52729D01*
X103075Y-52670D01*
X103075Y-52070D01*
X103052Y-52015D01*
X103009Y-51972D01*
X102954Y-51950D01*
X102895Y-51950D01*
X102295Y-51950D01*
X102240Y-51972D01*
X102197Y-52015D01*
X102175Y-52070D01*
X102175Y-52129D01*
X102175Y-52729D01*
X102197Y-52784D01*
X102240Y-52827D01*
X102295Y-52850D01*
X102354Y-52850D01*
X102954Y-52850D01*
X103009Y-52827D01*
X103052Y-52784D01*
X103075Y-52729D01*
X103075Y-54865D01*
X102526Y-54865D01*
X102527Y-54865D01*
X102595Y-54701D01*
X102595Y-54524D01*
X102527Y-54360D01*
X102402Y-54235D01*
X102239Y-54167D01*
X102075Y-54167D01*
X102075Y-52310D01*
X102006Y-52145D01*
X101880Y-52018D01*
X101714Y-51950D01*
X101535Y-51949D01*
X101370Y-52018D01*
X101243Y-52144D01*
X101175Y-52310D01*
X101174Y-52489D01*
X101243Y-52654D01*
X101369Y-52781D01*
X101535Y-52849D01*
X101714Y-52850D01*
X101879Y-52781D01*
X102006Y-52655D01*
X102074Y-52489D01*
X102075Y-52310D01*
X102075Y-54167D01*
X102061Y-54167D01*
X101897Y-54234D01*
X101772Y-54359D01*
X101704Y-54523D01*
X101704Y-54700D01*
X101772Y-54864D01*
X101773Y-54865D01*
X101500Y-54865D01*
X101500Y-54645D01*
X101486Y-54508D01*
X101461Y-54448D01*
X101422Y-54410D01*
X101352Y-54481D01*
X101352Y-54339D01*
X101314Y-54301D01*
X101182Y-54261D01*
X101046Y-54276D01*
X100985Y-54301D01*
X100947Y-54339D01*
X101150Y-54541D01*
X101352Y-54339D01*
X101352Y-54481D01*
X101220Y-54612D01*
X101422Y-54814D01*
X101461Y-54777D01*
X101500Y-54645D01*
X101500Y-54865D01*
X101332Y-54865D01*
X101150Y-54683D01*
X100947Y-54885D01*
X100985Y-54924D01*
X101077Y-54951D01*
X100826Y-55203D01*
X100739Y-55167D01*
X100653Y-55167D01*
X100772Y-55047D01*
X100772Y-55047D01*
X100772Y-55047D01*
X100818Y-54980D01*
X100818Y-54980D01*
X100820Y-54966D01*
X100834Y-54900D01*
X100834Y-54900D01*
X100834Y-54899D01*
X100834Y-54766D01*
X100838Y-54777D01*
X100877Y-54814D01*
X101079Y-54612D01*
X100877Y-54410D01*
X100838Y-54448D01*
X100834Y-54463D01*
X100834Y-52261D01*
X101797Y-51297D01*
X101843Y-51230D01*
X101859Y-51150D01*
X101859Y-51082D01*
X101859Y-49250D01*
X101859Y-48275D01*
X101859Y-48275D01*
X101859Y-48275D01*
X101843Y-48194D01*
X101819Y-48159D01*
X101998Y-48159D01*
X101965Y-48172D01*
X101922Y-48215D01*
X101900Y-48270D01*
X101900Y-48329D01*
X101900Y-48929D01*
X101922Y-48984D01*
X101965Y-49027D01*
X102020Y-49050D01*
X102079Y-49050D01*
X102201Y-49050D01*
X102201Y-49250D01*
X102201Y-49300D01*
X102201Y-49374D01*
X102185Y-49374D01*
X102066Y-49424D01*
X101974Y-49515D01*
X101925Y-49635D01*
X101924Y-49764D01*
X101974Y-49883D01*
X102065Y-49975D01*
X102185Y-50024D01*
X102314Y-50025D01*
X102433Y-49975D01*
X102525Y-49884D01*
X102574Y-49764D01*
X102574Y-49726D01*
X102625Y-49675D01*
X102625Y-49675D01*
X102625Y-49675D01*
X102658Y-49627D01*
X102679Y-49595D01*
X102679Y-49595D01*
X102698Y-49500D01*
X102698Y-49498D01*
X105400Y-49498D01*
X105495Y-49479D01*
X105575Y-49425D01*
X105775Y-49225D01*
X105775Y-49225D01*
X105775Y-49225D01*
X105808Y-49177D01*
X105829Y-49145D01*
X105829Y-49145D01*
X105838Y-49100D01*
X106029Y-49100D01*
X106084Y-49077D01*
X106100Y-49062D01*
X106115Y-49077D01*
X106170Y-49100D01*
X106229Y-49100D01*
X106390Y-49100D01*
X106390Y-49925D01*
X106390Y-49950D01*
X106390Y-50662D01*
X106310Y-50662D01*
X106145Y-50730D01*
X106018Y-50857D01*
X105950Y-51022D01*
X105949Y-51201D01*
X106018Y-51367D01*
X106144Y-51493D01*
X106310Y-51562D01*
X106489Y-51562D01*
X106654Y-51494D01*
X106690Y-51458D01*
X106690Y-51526D01*
X106535Y-51681D01*
X106489Y-51662D01*
X106310Y-51662D01*
X106145Y-51730D01*
X106018Y-51857D01*
X105950Y-52022D01*
X105949Y-52201D01*
X106018Y-52367D01*
X106144Y-52493D01*
X106310Y-52562D01*
X106489Y-52562D01*
X106654Y-52494D01*
X106781Y-52367D01*
X106849Y-52202D01*
X106850Y-52023D01*
X106830Y-51977D01*
X107047Y-51760D01*
X107093Y-51692D01*
X107109Y-51612D01*
X107109Y-51562D01*
X107129Y-51562D01*
X107729Y-51562D01*
X107784Y-51539D01*
X107827Y-51497D01*
X107850Y-51442D01*
X107850Y-51382D01*
X107850Y-50782D01*
X107827Y-50727D01*
X107784Y-50685D01*
X107729Y-50662D01*
X107670Y-50662D01*
X107109Y-50662D01*
X107109Y-49600D01*
X107109Y-49536D01*
X107545Y-49100D01*
X108029Y-49100D01*
X108075Y-49081D01*
X108120Y-49100D01*
X108179Y-49100D01*
X108979Y-49100D01*
X109034Y-49077D01*
X109077Y-49034D01*
X109100Y-48979D01*
X109100Y-48920D01*
X109100Y-48320D01*
X109077Y-48265D01*
X109034Y-48222D01*
X108979Y-48200D01*
X108920Y-48200D01*
X108798Y-48200D01*
X108798Y-48100D01*
X108779Y-48004D01*
X108779Y-48004D01*
X108758Y-47972D01*
X108725Y-47924D01*
X108725Y-47924D01*
X108601Y-47800D01*
X108979Y-47800D01*
X109034Y-47777D01*
X109077Y-47734D01*
X109100Y-47679D01*
X109100Y-47620D01*
X109100Y-47095D01*
X109247Y-46947D01*
X109247Y-46947D01*
X109247Y-46947D01*
X109293Y-46880D01*
X109309Y-46800D01*
X109309Y-46523D01*
X109484Y-46523D01*
X109539Y-46500D01*
X109581Y-46458D01*
X109604Y-46403D01*
X109604Y-46343D01*
X109604Y-45714D01*
X109581Y-45659D01*
X109539Y-45617D01*
X109504Y-45602D01*
X109504Y-45265D01*
X109504Y-45003D01*
X109504Y-44878D01*
X109504Y-44616D01*
X109496Y-44598D01*
X109482Y-44584D01*
X109464Y-44576D01*
X109444Y-44576D01*
X109162Y-44576D01*
X109150Y-44589D01*
X109150Y-44891D01*
X109492Y-44891D01*
X109504Y-44878D01*
X109504Y-45003D01*
X109492Y-44991D01*
X109150Y-44991D01*
X109150Y-45293D01*
X109162Y-45305D01*
X109444Y-45305D01*
X109464Y-45305D01*
X109482Y-45297D01*
X109496Y-45283D01*
X109504Y-45265D01*
X109504Y-45602D01*
X109484Y-45594D01*
X109424Y-45594D01*
X109050Y-45594D01*
X109050Y-45293D01*
X109050Y-44991D01*
X109050Y-44891D01*
X109050Y-44589D01*
X109037Y-44576D01*
X108755Y-44576D01*
X108735Y-44576D01*
X108717Y-44584D01*
X108703Y-44598D01*
X108695Y-44616D01*
X108695Y-44878D01*
X108708Y-44891D01*
X109050Y-44891D01*
X109050Y-44991D01*
X108708Y-44991D01*
X108695Y-45003D01*
X108695Y-45265D01*
X108703Y-45283D01*
X108717Y-45297D01*
X108735Y-45305D01*
X108755Y-45305D01*
X109037Y-45305D01*
X109050Y-45293D01*
X109050Y-45594D01*
X108715Y-45594D01*
X108660Y-45617D01*
X108649Y-45627D01*
X108639Y-45617D01*
X108604Y-45602D01*
X108604Y-45265D01*
X108604Y-45003D01*
X108604Y-44878D01*
X108604Y-44616D01*
X108596Y-44598D01*
X108582Y-44584D01*
X108564Y-44576D01*
X108544Y-44576D01*
X108262Y-44576D01*
X108250Y-44589D01*
X108250Y-44891D01*
X108592Y-44891D01*
X108604Y-44878D01*
X108604Y-45003D01*
X108592Y-44991D01*
X108250Y-44991D01*
X108250Y-45293D01*
X108262Y-45305D01*
X108544Y-45305D01*
X108564Y-45305D01*
X108582Y-45297D01*
X108596Y-45283D01*
X108604Y-45265D01*
X108604Y-45602D01*
X108584Y-45594D01*
X108524Y-45594D01*
X108150Y-45594D01*
X108150Y-45293D01*
X108150Y-44991D01*
X108150Y-44891D01*
X108150Y-44589D01*
X108137Y-44576D01*
X107855Y-44576D01*
X107835Y-44576D01*
X107817Y-44584D01*
X107803Y-44598D01*
X107795Y-44616D01*
X107795Y-44878D01*
X107808Y-44891D01*
X108150Y-44891D01*
X108150Y-44991D01*
X107808Y-44991D01*
X107795Y-45003D01*
X107795Y-45265D01*
X107803Y-45283D01*
X107817Y-45297D01*
X107835Y-45305D01*
X107855Y-45305D01*
X108137Y-45305D01*
X108150Y-45293D01*
X108150Y-45594D01*
X107815Y-45594D01*
X107760Y-45617D01*
X107718Y-45659D01*
X107695Y-45714D01*
X107695Y-45774D01*
X107695Y-45915D01*
X107600Y-45915D01*
X107600Y-45795D01*
X107577Y-45740D01*
X107534Y-45697D01*
X107479Y-45675D01*
X107420Y-45675D01*
X106620Y-45675D01*
X106565Y-45697D01*
X106522Y-45740D01*
X106500Y-45795D01*
X106500Y-45854D01*
X106500Y-46454D01*
X106522Y-46509D01*
X106565Y-46552D01*
X106620Y-46575D01*
X106679Y-46575D01*
X107479Y-46575D01*
X107534Y-46552D01*
X107577Y-46509D01*
X107600Y-46454D01*
X107600Y-46395D01*
X107600Y-46334D01*
X107695Y-46334D01*
X107695Y-46403D01*
X107718Y-46458D01*
X107760Y-46500D01*
X107815Y-46523D01*
X107875Y-46523D01*
X108584Y-46523D01*
X108639Y-46500D01*
X108650Y-46490D01*
X108660Y-46500D01*
X108715Y-46523D01*
X108775Y-46523D01*
X108890Y-46523D01*
X108890Y-46713D01*
X108704Y-46900D01*
X108120Y-46900D01*
X108074Y-46918D01*
X108029Y-46900D01*
X107970Y-46900D01*
X107170Y-46900D01*
X107115Y-46922D01*
X107099Y-46937D01*
X107084Y-46922D01*
X107029Y-46900D01*
X106970Y-46900D01*
X106170Y-46900D01*
X106115Y-46922D01*
X106099Y-46937D01*
X106084Y-46922D01*
X106080Y-46920D01*
X106080Y-46033D01*
X106066Y-45895D01*
X106040Y-45832D01*
X106001Y-45794D01*
X105930Y-45865D01*
X105930Y-45723D01*
X105892Y-45684D01*
X105758Y-45644D01*
X105620Y-45658D01*
X105557Y-45684D01*
X105519Y-45723D01*
X105725Y-45929D01*
X105930Y-45723D01*
X105930Y-45865D01*
X105795Y-46000D01*
X106001Y-46205D01*
X106040Y-46167D01*
X106080Y-46033D01*
X106080Y-46920D01*
X106029Y-46900D01*
X105970Y-46900D01*
X105930Y-46900D01*
X105930Y-46276D01*
X105725Y-46070D01*
X105654Y-46141D01*
X105654Y-46000D01*
X105448Y-45794D01*
X105409Y-45832D01*
X105369Y-45966D01*
X105383Y-46104D01*
X105409Y-46167D01*
X105448Y-46205D01*
X105654Y-46000D01*
X105654Y-46141D01*
X105519Y-46276D01*
X105557Y-46315D01*
X105691Y-46355D01*
X105829Y-46341D01*
X105892Y-46315D01*
X105930Y-46276D01*
X105930Y-46900D01*
X105170Y-46900D01*
X105115Y-46922D01*
X105072Y-46965D01*
X105050Y-47020D01*
X105050Y-47040D01*
X105042Y-47021D01*
X105028Y-47007D01*
X105009Y-47000D01*
X104990Y-47000D01*
X104662Y-47000D01*
X104650Y-47012D01*
X104650Y-47300D01*
X104657Y-47300D01*
X104657Y-47400D01*
X104650Y-47400D01*
X104650Y-47687D01*
X104662Y-47700D01*
X104990Y-47700D01*
X105009Y-47700D01*
X105028Y-47692D01*
X105042Y-47678D01*
X105050Y-47659D01*
X105050Y-47679D01*
X105072Y-47734D01*
X105078Y-47740D01*
X104550Y-47740D01*
X104550Y-47687D01*
X104550Y-47400D01*
X104550Y-47300D01*
X104550Y-47012D01*
X104537Y-47000D01*
X104209Y-47000D01*
X104190Y-47000D01*
X104171Y-47007D01*
X104157Y-47021D01*
X104150Y-47040D01*
X104150Y-47287D01*
X104162Y-47300D01*
X104550Y-47300D01*
X104550Y-47400D01*
X104162Y-47400D01*
X104150Y-47412D01*
X104150Y-47659D01*
X104157Y-47678D01*
X104171Y-47692D01*
X104190Y-47700D01*
X104209Y-47700D01*
X104537Y-47700D01*
X104550Y-47687D01*
X104550Y-47740D01*
X104004Y-47740D01*
X104004Y-47725D01*
X104004Y-47096D01*
X103981Y-47041D01*
X103939Y-46999D01*
X103884Y-46976D01*
X103824Y-46976D01*
X103709Y-46976D01*
X103709Y-46800D01*
X103693Y-46719D01*
X103647Y-46652D01*
X103647Y-46652D01*
X103097Y-46102D01*
X103030Y-46056D01*
X102950Y-46040D01*
X101695Y-46040D01*
X101731Y-46005D01*
X101799Y-45839D01*
X101800Y-45660D01*
X101731Y-45495D01*
X101605Y-45368D01*
X101439Y-45300D01*
X101260Y-45299D01*
X101095Y-45368D01*
X100968Y-45494D01*
X100900Y-45660D01*
X100899Y-45839D01*
X100968Y-46004D01*
X101004Y-46040D01*
X100695Y-46040D01*
X100731Y-46005D01*
X100799Y-45839D01*
X100800Y-45660D01*
X100731Y-45495D01*
X100605Y-45368D01*
X100518Y-45332D01*
X100518Y-45332D01*
X100497Y-45302D01*
X100497Y-45302D01*
X99897Y-44702D01*
X99830Y-44656D01*
X99750Y-44640D01*
X95650Y-44640D01*
X95650Y-44640D01*
X95569Y-44656D01*
X95502Y-44702D01*
X95275Y-44929D01*
X95275Y-44885D01*
X95225Y-44766D01*
X95134Y-44674D01*
X95014Y-44625D01*
X94885Y-44624D01*
X94766Y-44674D01*
X94738Y-44701D01*
X94600Y-44701D01*
X94600Y-44370D01*
X94577Y-44315D01*
X94534Y-44272D01*
X94479Y-44250D01*
X94420Y-44250D01*
X93820Y-44250D01*
X93765Y-44272D01*
X93722Y-44315D01*
X93700Y-44370D01*
X93700Y-44429D01*
X93700Y-45229D01*
X93722Y-45284D01*
X93748Y-45310D01*
X93715Y-45310D01*
X93538Y-45310D01*
X93483Y-45333D01*
X93441Y-45375D01*
X93418Y-45430D01*
X93418Y-45490D01*
X93418Y-45644D01*
X93200Y-45644D01*
X93200Y-45209D01*
X93200Y-45190D01*
X93200Y-44862D01*
X93200Y-44737D01*
X93200Y-44409D01*
X93200Y-44390D01*
X93192Y-44371D01*
X93178Y-44357D01*
X93159Y-44350D01*
X92912Y-44350D01*
X92900Y-44362D01*
X92900Y-44750D01*
X93187Y-44750D01*
X93200Y-44737D01*
X93200Y-44862D01*
X93187Y-44850D01*
X92900Y-44850D01*
X92900Y-45237D01*
X92912Y-45250D01*
X93159Y-45250D01*
X93178Y-45242D01*
X93192Y-45228D01*
X93200Y-45209D01*
X93200Y-45644D01*
X92800Y-45644D01*
X92800Y-45237D01*
X92800Y-44850D01*
X92800Y-44750D01*
X92800Y-44362D01*
X92787Y-44350D01*
X92540Y-44350D01*
X92521Y-44357D01*
X92507Y-44371D01*
X92500Y-44390D01*
X92500Y-44409D01*
X92500Y-44737D01*
X92512Y-44750D01*
X92800Y-44750D01*
X92800Y-44850D01*
X92512Y-44850D01*
X92500Y-44862D01*
X92500Y-45190D01*
X92500Y-45209D01*
X92507Y-45228D01*
X92521Y-45242D01*
X92540Y-45250D01*
X92787Y-45250D01*
X92800Y-45237D01*
X92800Y-45644D01*
X92640Y-45644D01*
X91897Y-44902D01*
X91830Y-44856D01*
X91750Y-44840D01*
X91500Y-44840D01*
X91500Y-44813D01*
X91500Y-44698D01*
X91638Y-44698D01*
X91715Y-44775D01*
X91835Y-44824D01*
X91964Y-44825D01*
X92083Y-44775D01*
X92175Y-44684D01*
X92224Y-44564D01*
X92225Y-44435D01*
X92175Y-44316D01*
X92084Y-44224D01*
X91964Y-44175D01*
X91835Y-44174D01*
X91771Y-44201D01*
X91500Y-44201D01*
X91500Y-44026D01*
X91477Y-43971D01*
X91434Y-43929D01*
X91379Y-43906D01*
X91320Y-43906D01*
X91145Y-43906D01*
X91302Y-43748D01*
X108750Y-43748D01*
X108845Y-43729D01*
X108925Y-43675D01*
X109967Y-42633D01*
X110021Y-42552D01*
X110040Y-42457D01*
X110040Y-41750D01*
X110055Y-41744D01*
X110186Y-41613D01*
X110257Y-41442D01*
X110257Y-41257D01*
X110257Y-61550D01*
X110206Y-61550D01*
X110206Y-57940D01*
X110188Y-57896D01*
X110188Y-44470D01*
X110169Y-44374D01*
X110115Y-44294D01*
X110115Y-44294D01*
X110115Y-44294D01*
X109845Y-44024D01*
X109765Y-43970D01*
X109670Y-43951D01*
X109500Y-43951D01*
X107650Y-43951D01*
X107554Y-43970D01*
X107474Y-44024D01*
X107123Y-44375D01*
X106620Y-44375D01*
X106565Y-44397D01*
X106522Y-44440D01*
X106500Y-44495D01*
X106500Y-44554D01*
X106500Y-44751D01*
X106175Y-44751D01*
X106175Y-44670D01*
X106152Y-44615D01*
X106109Y-44572D01*
X106054Y-44550D01*
X105995Y-44550D01*
X105395Y-44550D01*
X105340Y-44572D01*
X105297Y-44615D01*
X105275Y-44670D01*
X105275Y-44729D01*
X105275Y-45329D01*
X105297Y-45384D01*
X105340Y-45427D01*
X105395Y-45450D01*
X105454Y-45450D01*
X106054Y-45450D01*
X106109Y-45427D01*
X106152Y-45384D01*
X106175Y-45329D01*
X106175Y-45270D01*
X106175Y-45248D01*
X106561Y-45248D01*
X106565Y-45252D01*
X106620Y-45275D01*
X106679Y-45275D01*
X107479Y-45275D01*
X107534Y-45252D01*
X107577Y-45209D01*
X107600Y-45154D01*
X107600Y-45095D01*
X107600Y-44601D01*
X107752Y-44448D01*
X109500Y-44448D01*
X109567Y-44448D01*
X109691Y-44572D01*
X109691Y-55282D01*
X109195Y-55777D01*
X109195Y-54524D01*
X109127Y-54360D01*
X109002Y-54235D01*
X108839Y-54167D01*
X108661Y-54167D01*
X108497Y-54234D01*
X108372Y-54359D01*
X108304Y-54523D01*
X108304Y-54700D01*
X108372Y-54864D01*
X108497Y-54990D01*
X108660Y-55058D01*
X108838Y-55058D01*
X109002Y-54990D01*
X109127Y-54865D01*
X109195Y-54701D01*
X109195Y-54524D01*
X109195Y-55777D01*
X108964Y-56009D01*
X108695Y-56277D01*
X108695Y-55524D01*
X108627Y-55360D01*
X108502Y-55235D01*
X108339Y-55167D01*
X108161Y-55167D01*
X108100Y-55192D01*
X108100Y-54645D01*
X108086Y-54508D01*
X108061Y-54448D01*
X108022Y-54410D01*
X107952Y-54481D01*
X107952Y-54339D01*
X107914Y-54301D01*
X107782Y-54261D01*
X107755Y-54264D01*
X107755Y-52146D01*
X107741Y-52007D01*
X107715Y-51945D01*
X107676Y-51907D01*
X107605Y-51977D01*
X107605Y-51836D01*
X107567Y-51797D01*
X107433Y-51757D01*
X107295Y-51771D01*
X107232Y-51797D01*
X107194Y-51836D01*
X107400Y-52041D01*
X107605Y-51836D01*
X107605Y-51977D01*
X107470Y-52112D01*
X107676Y-52318D01*
X107715Y-52279D01*
X107755Y-52146D01*
X107755Y-54264D01*
X107646Y-54276D01*
X107605Y-54292D01*
X107605Y-52388D01*
X107400Y-52183D01*
X107329Y-52254D01*
X107329Y-52112D01*
X107123Y-51907D01*
X107084Y-51945D01*
X107044Y-52078D01*
X107058Y-52217D01*
X107084Y-52279D01*
X107123Y-52318D01*
X107329Y-52112D01*
X107329Y-52254D01*
X107194Y-52388D01*
X107232Y-52427D01*
X107366Y-52467D01*
X107504Y-52453D01*
X107567Y-52427D01*
X107605Y-52388D01*
X107605Y-54292D01*
X107585Y-54301D01*
X107547Y-54339D01*
X107750Y-54541D01*
X107952Y-54339D01*
X107952Y-54481D01*
X107820Y-54612D01*
X108022Y-54814D01*
X108061Y-54777D01*
X108100Y-54645D01*
X108100Y-55192D01*
X107997Y-55234D01*
X107952Y-55280D01*
X107952Y-54885D01*
X107750Y-54683D01*
X107679Y-54754D01*
X107679Y-54612D01*
X107477Y-54410D01*
X107438Y-54448D01*
X107399Y-54579D01*
X107413Y-54716D01*
X107438Y-54777D01*
X107477Y-54814D01*
X107679Y-54612D01*
X107679Y-54754D01*
X107547Y-54885D01*
X107585Y-54924D01*
X107717Y-54963D01*
X107853Y-54949D01*
X107914Y-54924D01*
X107952Y-54885D01*
X107952Y-55280D01*
X107872Y-55359D01*
X107804Y-55523D01*
X107804Y-55700D01*
X107872Y-55864D01*
X107997Y-55990D01*
X108160Y-56058D01*
X108338Y-56058D01*
X108502Y-55990D01*
X108627Y-55865D01*
X108695Y-55701D01*
X108695Y-55524D01*
X108695Y-56277D01*
X105533Y-59439D01*
X105533Y-57940D01*
X105401Y-57621D01*
X105157Y-57376D01*
X104838Y-57244D01*
X104493Y-57243D01*
X104173Y-57375D01*
X103929Y-57619D01*
X103796Y-57939D01*
X103796Y-58284D01*
X103928Y-58603D01*
X104172Y-58848D01*
X104491Y-58980D01*
X104836Y-58981D01*
X105156Y-58849D01*
X105400Y-58605D01*
X105533Y-58286D01*
X105533Y-57940D01*
X105533Y-59439D01*
X104222Y-60751D01*
X103606Y-60751D01*
X103606Y-57940D01*
X103474Y-57621D01*
X103230Y-57376D01*
X102911Y-57244D01*
X102566Y-57243D01*
X102246Y-57375D01*
X102002Y-57619D01*
X101869Y-57939D01*
X101869Y-58284D01*
X102001Y-58603D01*
X102245Y-58848D01*
X102564Y-58980D01*
X102909Y-58981D01*
X103229Y-58849D01*
X103473Y-58605D01*
X103606Y-58286D01*
X103606Y-57940D01*
X103606Y-60751D01*
X101250Y-60751D01*
X98933Y-60751D01*
X98933Y-57940D01*
X98801Y-57621D01*
X98557Y-57376D01*
X98238Y-57244D01*
X97893Y-57243D01*
X97573Y-57375D01*
X97329Y-57619D01*
X97196Y-57939D01*
X97196Y-58284D01*
X97328Y-58603D01*
X97572Y-58848D01*
X97891Y-58980D01*
X98236Y-58981D01*
X98556Y-58849D01*
X98800Y-58605D01*
X98933Y-58286D01*
X98933Y-57940D01*
X98933Y-60751D01*
X96355Y-60751D01*
X96355Y-60085D01*
X96355Y-59695D01*
X96355Y-59595D01*
X96355Y-59205D01*
X96303Y-59041D01*
X96191Y-58909D01*
X96033Y-58831D01*
X95965Y-58831D01*
X95965Y-59595D01*
X96355Y-59595D01*
X96355Y-59695D01*
X95965Y-59695D01*
X95965Y-60460D01*
X96033Y-60459D01*
X96191Y-60382D01*
X96303Y-60250D01*
X96355Y-60085D01*
X96355Y-60751D01*
X95865Y-60751D01*
X95865Y-60460D01*
X95865Y-59695D01*
X95865Y-59595D01*
X95865Y-58831D01*
X95797Y-58831D01*
X95639Y-58909D01*
X95528Y-59041D01*
X95475Y-59205D01*
X95475Y-59595D01*
X95865Y-59595D01*
X95865Y-59695D01*
X95475Y-59695D01*
X95475Y-60085D01*
X95528Y-60250D01*
X95639Y-60382D01*
X95797Y-60459D01*
X95865Y-60460D01*
X95865Y-60751D01*
X94802Y-60751D01*
X94648Y-60597D01*
X94648Y-60524D01*
X94781Y-60435D01*
X94898Y-60260D01*
X94940Y-60053D01*
X94940Y-59237D01*
X94898Y-59030D01*
X94781Y-58855D01*
X94730Y-58821D01*
X95252Y-58298D01*
X95900Y-58298D01*
X95995Y-58279D01*
X96075Y-58225D01*
X96975Y-57325D01*
X97029Y-57245D01*
X97048Y-57150D01*
X97048Y-56200D01*
X97048Y-55700D01*
X97048Y-53527D01*
X97640Y-52935D01*
X97675Y-52949D01*
X97874Y-52950D01*
X98057Y-52874D01*
X98198Y-52733D01*
X98274Y-52549D01*
X98275Y-52350D01*
X98199Y-52167D01*
X98058Y-52026D01*
X97874Y-51950D01*
X97675Y-51949D01*
X97492Y-52025D01*
X97351Y-52166D01*
X97275Y-52350D01*
X97274Y-52549D01*
X97289Y-52584D01*
X96624Y-53249D01*
X96570Y-53329D01*
X96551Y-53425D01*
X96551Y-53500D01*
X96551Y-55700D01*
X96551Y-56200D01*
X96551Y-57047D01*
X95797Y-57801D01*
X95150Y-57801D01*
X95054Y-57820D01*
X94974Y-57874D01*
X94224Y-58624D01*
X94170Y-58704D01*
X94159Y-58761D01*
X94018Y-58855D01*
X93901Y-59030D01*
X93860Y-59237D01*
X93860Y-60053D01*
X93901Y-60260D01*
X94018Y-60435D01*
X94151Y-60524D01*
X94151Y-60700D01*
X94170Y-60795D01*
X94224Y-60875D01*
X94524Y-61175D01*
X94604Y-61229D01*
X94700Y-61248D01*
X94700Y-61248D01*
X94700Y-61248D01*
X101250Y-61248D01*
X104325Y-61248D01*
X104420Y-61229D01*
X104500Y-61175D01*
X109187Y-56489D01*
X109235Y-56479D01*
X109315Y-56425D01*
X109369Y-56345D01*
X109379Y-56297D01*
X110115Y-55560D01*
X110169Y-55480D01*
X110188Y-55385D01*
X110188Y-44470D01*
X110188Y-44470D01*
X110188Y-44470D01*
X110188Y-57896D01*
X110074Y-57621D01*
X109830Y-57376D01*
X109511Y-57244D01*
X109166Y-57243D01*
X108846Y-57375D01*
X108602Y-57619D01*
X108469Y-57939D01*
X108469Y-58284D01*
X108601Y-58603D01*
X108845Y-58848D01*
X109164Y-58980D01*
X109509Y-58981D01*
X109829Y-58849D01*
X110073Y-58605D01*
X110206Y-58286D01*
X110206Y-57940D01*
X110206Y-61550D01*
X93100Y-61550D01*
X93100Y-57650D01*
X95620Y-57650D01*
X96050Y-57220D01*
X96050Y-53350D01*
X95360Y-53350D01*
X95360Y-52359D01*
X95360Y-52340D01*
X95360Y-51962D01*
X95360Y-51837D01*
X95360Y-51459D01*
X95360Y-51440D01*
X95352Y-51421D01*
X95338Y-51407D01*
X95319Y-51400D01*
X95062Y-51400D01*
X95050Y-51412D01*
X95050Y-51850D01*
X95347Y-51850D01*
X95360Y-51837D01*
X95360Y-51962D01*
X95347Y-51950D01*
X95050Y-51950D01*
X95050Y-52387D01*
X95062Y-52400D01*
X95319Y-52400D01*
X95338Y-52392D01*
X95352Y-52378D01*
X95360Y-52359D01*
X95360Y-53350D01*
X94950Y-53350D01*
X94950Y-52387D01*
X94950Y-51950D01*
X94652Y-51950D01*
X94640Y-51962D01*
X94640Y-52340D01*
X94640Y-52359D01*
X94647Y-52378D01*
X94661Y-52392D01*
X94680Y-52400D01*
X94937Y-52400D01*
X94950Y-52387D01*
X94950Y-53350D01*
X93341Y-53350D01*
X92491Y-52500D01*
X92110Y-52500D01*
X92110Y-51459D01*
X92110Y-51440D01*
X92110Y-51062D01*
X92110Y-50937D01*
X92110Y-50559D01*
X92110Y-50540D01*
X92102Y-50521D01*
X92088Y-50507D01*
X92069Y-50500D01*
X91812Y-50500D01*
X91800Y-50512D01*
X91800Y-50950D01*
X92097Y-50950D01*
X92110Y-50937D01*
X92110Y-51062D01*
X92097Y-51050D01*
X91800Y-51050D01*
X91800Y-51487D01*
X91812Y-51500D01*
X92069Y-51500D01*
X92088Y-51492D01*
X92102Y-51478D01*
X92110Y-51459D01*
X92110Y-52500D01*
X91900Y-52500D01*
X91750Y-52500D01*
X91700Y-52500D01*
X91700Y-51487D01*
X91700Y-51050D01*
X91700Y-50950D01*
X91700Y-50512D01*
X91687Y-50500D01*
X91430Y-50500D01*
X91411Y-50507D01*
X91397Y-50521D01*
X91390Y-50540D01*
X91390Y-50559D01*
X91390Y-50937D01*
X91402Y-50950D01*
X91700Y-50950D01*
X91700Y-51050D01*
X91402Y-51050D01*
X91390Y-51062D01*
X91390Y-51440D01*
X91390Y-51459D01*
X91397Y-51478D01*
X91411Y-51492D01*
X91430Y-51500D01*
X91687Y-51500D01*
X91700Y-51487D01*
X91700Y-52500D01*
X88860Y-52500D01*
X88860Y-51459D01*
X88860Y-51440D01*
X88860Y-51062D01*
X88860Y-50937D01*
X88860Y-50559D01*
X88860Y-50540D01*
X88852Y-50521D01*
X88838Y-50507D01*
X88819Y-50500D01*
X88562Y-50500D01*
X88550Y-50512D01*
X88550Y-50950D01*
X88847Y-50950D01*
X88860Y-50937D01*
X88860Y-51062D01*
X88847Y-51050D01*
X88550Y-51050D01*
X88550Y-51487D01*
X88562Y-51500D01*
X88819Y-51500D01*
X88838Y-51492D01*
X88852Y-51478D01*
X88860Y-51459D01*
X88860Y-52500D01*
X88450Y-52500D01*
X88450Y-51487D01*
X88450Y-51050D01*
X88450Y-50950D01*
X88450Y-50512D01*
X88437Y-50500D01*
X88180Y-50500D01*
X88161Y-50507D01*
X88147Y-50521D01*
X88140Y-50540D01*
X88140Y-50559D01*
X88140Y-50937D01*
X88152Y-50950D01*
X88450Y-50950D01*
X88450Y-51050D01*
X88152Y-51050D01*
X88140Y-51062D01*
X88140Y-51440D01*
X88140Y-51459D01*
X88147Y-51478D01*
X88161Y-51492D01*
X88180Y-51500D01*
X88437Y-51500D01*
X88450Y-51487D01*
X88450Y-52500D01*
X86300Y-52500D01*
X86200Y-52500D01*
X85810Y-52500D01*
X85610Y-52688D01*
X85610Y-52359D01*
X85610Y-52340D01*
X85610Y-51962D01*
X85610Y-51837D01*
X85610Y-51459D01*
X85610Y-51440D01*
X85602Y-51421D01*
X85588Y-51407D01*
X85569Y-51400D01*
X85312Y-51400D01*
X85300Y-51412D01*
X85300Y-51850D01*
X85597Y-51850D01*
X85610Y-51837D01*
X85610Y-51962D01*
X85597Y-51950D01*
X85300Y-51950D01*
X85300Y-52387D01*
X85312Y-52400D01*
X85569Y-52400D01*
X85588Y-52392D01*
X85602Y-52378D01*
X85610Y-52359D01*
X85610Y-52688D01*
X85200Y-53074D01*
X85200Y-52387D01*
X85200Y-51950D01*
X85200Y-51850D01*
X85200Y-51412D01*
X85187Y-51400D01*
X84930Y-51400D01*
X84911Y-51407D01*
X84897Y-51421D01*
X84890Y-51440D01*
X84890Y-51459D01*
X84890Y-51837D01*
X84902Y-51850D01*
X85200Y-51850D01*
X85200Y-51950D01*
X84902Y-51950D01*
X84890Y-51962D01*
X84890Y-52340D01*
X84890Y-52359D01*
X84897Y-52378D01*
X84911Y-52392D01*
X84930Y-52400D01*
X85187Y-52400D01*
X85200Y-52387D01*
X85200Y-53074D01*
X84907Y-53350D01*
X83710Y-53350D01*
X83710Y-52379D01*
X83710Y-52320D01*
X83710Y-51420D01*
X83687Y-51365D01*
X83644Y-51322D01*
X83589Y-51300D01*
X83530Y-51300D01*
X82910Y-51300D01*
X82855Y-51322D01*
X82812Y-51365D01*
X82790Y-51420D01*
X82790Y-51479D01*
X82790Y-52379D01*
X82812Y-52434D01*
X82855Y-52477D01*
X82910Y-52500D01*
X82969Y-52500D01*
X83589Y-52500D01*
X83644Y-52477D01*
X83687Y-52434D01*
X83710Y-52379D01*
X83710Y-53350D01*
X82360Y-53350D01*
X82360Y-52359D01*
X82360Y-52340D01*
X82360Y-51962D01*
X82360Y-51837D01*
X82360Y-51459D01*
X82360Y-51440D01*
X82352Y-51421D01*
X82338Y-51407D01*
X82319Y-51400D01*
X82062Y-51400D01*
X82050Y-51412D01*
X82050Y-51850D01*
X82347Y-51850D01*
X82360Y-51837D01*
X82360Y-51962D01*
X82347Y-51950D01*
X82050Y-51950D01*
X82050Y-52387D01*
X82062Y-52400D01*
X82319Y-52400D01*
X82338Y-52392D01*
X82352Y-52378D01*
X82360Y-52359D01*
X82360Y-53350D01*
X81950Y-53350D01*
X81950Y-52387D01*
X81950Y-51950D01*
X81950Y-51850D01*
X81950Y-51412D01*
X81937Y-51400D01*
X81680Y-51400D01*
X81661Y-51407D01*
X81647Y-51421D01*
X81640Y-51440D01*
X81640Y-51459D01*
X81640Y-51837D01*
X81652Y-51850D01*
X81950Y-51850D01*
X81950Y-51950D01*
X81652Y-51950D01*
X81640Y-51962D01*
X81640Y-52340D01*
X81640Y-52359D01*
X81647Y-52378D01*
X81661Y-52392D01*
X81680Y-52400D01*
X81937Y-52400D01*
X81950Y-52387D01*
X81950Y-53350D01*
X81460Y-53350D01*
X81460Y-52379D01*
X81460Y-52320D01*
X81460Y-51420D01*
X81437Y-51365D01*
X81394Y-51322D01*
X81339Y-51300D01*
X81280Y-51300D01*
X81209Y-51300D01*
X81209Y-50100D01*
X81193Y-50019D01*
X81147Y-49952D01*
X80531Y-49335D01*
X80549Y-49289D01*
X80550Y-49110D01*
X80550Y-48110D01*
X80481Y-47945D01*
X80355Y-47818D01*
X80189Y-47750D01*
X80010Y-47749D01*
X79845Y-47818D01*
X79718Y-47944D01*
X79650Y-48110D01*
X79649Y-48289D01*
X79718Y-48454D01*
X79844Y-48581D01*
X80010Y-48649D01*
X80189Y-48650D01*
X80354Y-48581D01*
X80481Y-48455D01*
X80549Y-48289D01*
X80550Y-48110D01*
X80550Y-49110D01*
X80481Y-48945D01*
X80355Y-48818D01*
X80189Y-48750D01*
X80010Y-48749D01*
X79845Y-48818D01*
X79718Y-48944D01*
X79650Y-49110D01*
X79649Y-49289D01*
X79718Y-49454D01*
X79844Y-49581D01*
X80010Y-49649D01*
X80189Y-49650D01*
X80235Y-49630D01*
X80790Y-50186D01*
X80790Y-51300D01*
X80660Y-51300D01*
X80605Y-51322D01*
X80562Y-51365D01*
X80540Y-51420D01*
X80540Y-51479D01*
X80540Y-52379D01*
X80562Y-52434D01*
X80605Y-52477D01*
X80660Y-52500D01*
X80719Y-52500D01*
X81339Y-52500D01*
X81394Y-52477D01*
X81437Y-52434D01*
X81460Y-52379D01*
X81460Y-53350D01*
X80460Y-53350D01*
X80460Y-52379D01*
X80460Y-52320D01*
X80460Y-51420D01*
X80437Y-51365D01*
X80394Y-51322D01*
X80339Y-51300D01*
X80280Y-51300D01*
X79660Y-51300D01*
X79605Y-51322D01*
X79562Y-51365D01*
X79550Y-51395D01*
X79550Y-49110D01*
X79550Y-48110D01*
X79481Y-47945D01*
X79355Y-47818D01*
X79189Y-47750D01*
X79010Y-47749D01*
X78845Y-47818D01*
X78718Y-47944D01*
X78650Y-48110D01*
X78649Y-48289D01*
X78718Y-48454D01*
X78844Y-48581D01*
X79010Y-48649D01*
X79189Y-48650D01*
X79354Y-48581D01*
X79481Y-48455D01*
X79549Y-48289D01*
X79550Y-48110D01*
X79550Y-49110D01*
X79481Y-48945D01*
X79355Y-48818D01*
X79189Y-48750D01*
X79010Y-48749D01*
X78845Y-48818D01*
X78718Y-48944D01*
X78650Y-49110D01*
X78649Y-49289D01*
X78669Y-49335D01*
X77602Y-50402D01*
X77556Y-50469D01*
X77540Y-50550D01*
X77540Y-51300D01*
X77410Y-51300D01*
X77355Y-51322D01*
X77312Y-51365D01*
X77290Y-51420D01*
X77290Y-51479D01*
X77290Y-52379D01*
X77312Y-52434D01*
X77355Y-52477D01*
X77410Y-52500D01*
X77469Y-52500D01*
X78089Y-52500D01*
X78144Y-52477D01*
X78187Y-52434D01*
X78210Y-52379D01*
X78210Y-52320D01*
X78210Y-51420D01*
X78187Y-51365D01*
X78144Y-51322D01*
X78089Y-51300D01*
X78030Y-51300D01*
X77959Y-51300D01*
X77959Y-50636D01*
X78964Y-49631D01*
X79010Y-49649D01*
X79189Y-49650D01*
X79354Y-49581D01*
X79481Y-49455D01*
X79549Y-49289D01*
X79550Y-49110D01*
X79550Y-51395D01*
X79540Y-51420D01*
X79540Y-51479D01*
X79540Y-52379D01*
X79562Y-52434D01*
X79605Y-52477D01*
X79660Y-52500D01*
X79719Y-52500D01*
X80339Y-52500D01*
X80394Y-52477D01*
X80437Y-52434D01*
X80460Y-52379D01*
X80460Y-53350D01*
X79110Y-53350D01*
X79110Y-52359D01*
X79110Y-52340D01*
X79110Y-51962D01*
X79110Y-51837D01*
X79110Y-51459D01*
X79110Y-51440D01*
X79102Y-51421D01*
X79088Y-51407D01*
X79069Y-51400D01*
X78812Y-51400D01*
X78800Y-51412D01*
X78800Y-51850D01*
X79097Y-51850D01*
X79110Y-51837D01*
X79110Y-51962D01*
X79097Y-51950D01*
X78800Y-51950D01*
X78800Y-52387D01*
X78812Y-52400D01*
X79069Y-52400D01*
X79088Y-52392D01*
X79102Y-52378D01*
X79110Y-52359D01*
X79110Y-53350D01*
X78700Y-53350D01*
X78700Y-52387D01*
X78700Y-51950D01*
X78700Y-51850D01*
X78700Y-51412D01*
X78687Y-51400D01*
X78430Y-51400D01*
X78411Y-51407D01*
X78397Y-51421D01*
X78390Y-51440D01*
X78390Y-51459D01*
X78390Y-51837D01*
X78402Y-51850D01*
X78700Y-51850D01*
X78700Y-51950D01*
X78402Y-51950D01*
X78390Y-51962D01*
X78390Y-52340D01*
X78390Y-52359D01*
X78397Y-52378D01*
X78411Y-52392D01*
X78430Y-52400D01*
X78687Y-52400D01*
X78700Y-52387D01*
X78700Y-53350D01*
X77210Y-53350D01*
X77210Y-52379D01*
X77210Y-52320D01*
X77210Y-51420D01*
X77187Y-51365D01*
X77144Y-51322D01*
X77089Y-51300D01*
X77030Y-51300D01*
X76410Y-51300D01*
X76355Y-51322D01*
X76312Y-51365D01*
X76290Y-51420D01*
X76290Y-51479D01*
X76290Y-52379D01*
X76312Y-52434D01*
X76355Y-52477D01*
X76410Y-52500D01*
X76469Y-52500D01*
X77089Y-52500D01*
X77144Y-52477D01*
X77187Y-52434D01*
X77210Y-52379D01*
X77210Y-53350D01*
X75860Y-53350D01*
X75860Y-52359D01*
X75860Y-52340D01*
X75860Y-51962D01*
X75860Y-51837D01*
X75860Y-51459D01*
X75860Y-51440D01*
X75852Y-51421D01*
X75838Y-51407D01*
X75819Y-51400D01*
X75562Y-51400D01*
X75550Y-51412D01*
X75550Y-51850D01*
X75847Y-51850D01*
X75860Y-51837D01*
X75860Y-51962D01*
X75847Y-51950D01*
X75550Y-51950D01*
X75550Y-52387D01*
X75562Y-52400D01*
X75819Y-52400D01*
X75838Y-52392D01*
X75852Y-52378D01*
X75860Y-52359D01*
X75860Y-53350D01*
X75450Y-53350D01*
X75450Y-52387D01*
X75450Y-51950D01*
X75450Y-51850D01*
X75450Y-51412D01*
X75437Y-51400D01*
X75180Y-51400D01*
X75161Y-51407D01*
X75147Y-51421D01*
X75140Y-51440D01*
X75140Y-51459D01*
X75140Y-51837D01*
X75152Y-51850D01*
X75450Y-51850D01*
X75450Y-51950D01*
X75152Y-51950D01*
X75140Y-51962D01*
X75140Y-52340D01*
X75140Y-52359D01*
X75147Y-52378D01*
X75161Y-52392D01*
X75180Y-52400D01*
X75437Y-52400D01*
X75450Y-52387D01*
X75450Y-53350D01*
X73960Y-53350D01*
X73960Y-52379D01*
X73960Y-52320D01*
X73960Y-51420D01*
X73937Y-51365D01*
X73894Y-51322D01*
X73839Y-51300D01*
X73780Y-51300D01*
X73160Y-51300D01*
X73105Y-51322D01*
X73062Y-51365D01*
X73040Y-51420D01*
X73040Y-51479D01*
X73040Y-52379D01*
X73062Y-52434D01*
X73105Y-52477D01*
X73160Y-52500D01*
X73219Y-52500D01*
X73839Y-52500D01*
X73894Y-52477D01*
X73937Y-52434D01*
X73960Y-52379D01*
X73960Y-53350D01*
X72850Y-53350D01*
X72850Y-50850D01*
X74420Y-50850D01*
X74850Y-50420D01*
X74850Y-49195D01*
X75002Y-49347D01*
X75002Y-49347D01*
X75069Y-49393D01*
X75150Y-49409D01*
X76650Y-49409D01*
X76650Y-49529D01*
X76672Y-49584D01*
X76715Y-49627D01*
X76770Y-49650D01*
X76829Y-49650D01*
X77354Y-49650D01*
X77163Y-49840D01*
X75950Y-49840D01*
X75950Y-49840D01*
X75883Y-49854D01*
X75869Y-49856D01*
X75802Y-49902D01*
X75802Y-49902D01*
X74404Y-51300D01*
X74160Y-51300D01*
X74105Y-51322D01*
X74062Y-51365D01*
X74040Y-51420D01*
X74040Y-51479D01*
X74040Y-52379D01*
X74062Y-52434D01*
X74105Y-52477D01*
X74160Y-52500D01*
X74219Y-52500D01*
X74839Y-52500D01*
X74894Y-52477D01*
X74937Y-52434D01*
X74960Y-52379D01*
X74960Y-52320D01*
X74960Y-51420D01*
X74937Y-51365D01*
X74933Y-51361D01*
X76036Y-50259D01*
X77250Y-50259D01*
X77330Y-50243D01*
X77397Y-50197D01*
X77964Y-49631D01*
X78010Y-49649D01*
X78189Y-49650D01*
X78354Y-49581D01*
X78481Y-49455D01*
X78549Y-49289D01*
X78550Y-49110D01*
X78550Y-48110D01*
X78481Y-47945D01*
X78355Y-47818D01*
X78189Y-47750D01*
X78010Y-47749D01*
X77845Y-47818D01*
X77718Y-47944D01*
X77650Y-48110D01*
X77649Y-48289D01*
X77718Y-48454D01*
X77844Y-48581D01*
X78010Y-48649D01*
X78189Y-48650D01*
X78354Y-48581D01*
X78481Y-48455D01*
X78549Y-48289D01*
X78550Y-48110D01*
X78550Y-49110D01*
X78481Y-48945D01*
X78355Y-48818D01*
X78189Y-48750D01*
X78010Y-48749D01*
X77845Y-48818D01*
X77718Y-48944D01*
X77650Y-49110D01*
X77649Y-49289D01*
X77669Y-49335D01*
X77550Y-49454D01*
X77550Y-48110D01*
X77481Y-47945D01*
X77355Y-47818D01*
X77189Y-47750D01*
X77010Y-47749D01*
X76845Y-47818D01*
X76718Y-47944D01*
X76650Y-48110D01*
X76649Y-48289D01*
X76718Y-48454D01*
X76844Y-48581D01*
X77010Y-48649D01*
X77189Y-48650D01*
X77354Y-48581D01*
X77481Y-48455D01*
X77549Y-48289D01*
X77550Y-48110D01*
X77550Y-49454D01*
X77550Y-49454D01*
X77550Y-48870D01*
X77527Y-48815D01*
X77484Y-48772D01*
X77429Y-48750D01*
X77370Y-48750D01*
X76770Y-48750D01*
X76715Y-48772D01*
X76672Y-48815D01*
X76650Y-48870D01*
X76650Y-48929D01*
X76650Y-48990D01*
X76250Y-48990D01*
X76250Y-48819D01*
X76250Y-48562D01*
X76250Y-48437D01*
X76250Y-48180D01*
X76242Y-48161D01*
X76228Y-48147D01*
X76209Y-48140D01*
X76190Y-48140D01*
X75812Y-48140D01*
X75800Y-48152D01*
X75800Y-48450D01*
X76237Y-48450D01*
X76250Y-48437D01*
X76250Y-48562D01*
X76237Y-48550D01*
X75800Y-48550D01*
X75800Y-48847D01*
X75812Y-48860D01*
X76190Y-48860D01*
X76209Y-48860D01*
X76228Y-48852D01*
X76242Y-48838D01*
X76250Y-48819D01*
X76250Y-48990D01*
X75700Y-48990D01*
X75700Y-48847D01*
X75700Y-48550D01*
X75700Y-48450D01*
X75700Y-48152D01*
X75687Y-48140D01*
X75309Y-48140D01*
X75290Y-48140D01*
X75271Y-48147D01*
X75257Y-48161D01*
X75250Y-48180D01*
X75250Y-48437D01*
X75262Y-48450D01*
X75700Y-48450D01*
X75700Y-48550D01*
X75262Y-48550D01*
X75250Y-48562D01*
X75250Y-48819D01*
X75257Y-48838D01*
X75271Y-48852D01*
X75290Y-48860D01*
X75309Y-48860D01*
X75687Y-48860D01*
X75700Y-48847D01*
X75700Y-48990D01*
X75236Y-48990D01*
X75159Y-48913D01*
X75159Y-47861D01*
X75172Y-47894D01*
X75215Y-47937D01*
X75270Y-47960D01*
X75329Y-47960D01*
X76229Y-47960D01*
X76284Y-47937D01*
X76327Y-47894D01*
X76350Y-47839D01*
X76350Y-47780D01*
X76350Y-47160D01*
X76350Y-46839D01*
X76350Y-46780D01*
X76350Y-46160D01*
X76327Y-46105D01*
X76284Y-46062D01*
X76229Y-46040D01*
X76170Y-46040D01*
X75270Y-46040D01*
X75215Y-46062D01*
X75172Y-46105D01*
X75150Y-46160D01*
X75150Y-46219D01*
X75150Y-46839D01*
X75172Y-46894D01*
X75215Y-46937D01*
X75270Y-46960D01*
X75329Y-46960D01*
X76229Y-46960D01*
X76284Y-46937D01*
X76327Y-46894D01*
X76350Y-46839D01*
X76350Y-47160D01*
X76327Y-47105D01*
X76284Y-47062D01*
X76229Y-47040D01*
X76170Y-47040D01*
X75270Y-47040D01*
X75215Y-47062D01*
X75172Y-47105D01*
X75150Y-47160D01*
X75150Y-47219D01*
X75150Y-47300D01*
X75119Y-47306D01*
X75052Y-47352D01*
X75052Y-47352D01*
X74850Y-47554D01*
X74850Y-45150D01*
X72915Y-45150D01*
X72915Y-41257D01*
X72844Y-41086D01*
X72713Y-40956D01*
X72542Y-40885D01*
X72357Y-40884D01*
X72186Y-40955D01*
X72056Y-41086D01*
X71985Y-41257D01*
X71984Y-41442D01*
X72055Y-41613D01*
X72186Y-41743D01*
X72357Y-41814D01*
X72542Y-41815D01*
X72713Y-41744D01*
X72843Y-41613D01*
X72914Y-41442D01*
X72915Y-41257D01*
X72915Y-45150D01*
X71850Y-45150D01*
X71850Y-40350D01*
X110550Y-40350D01*
X110550Y-61550D01*
X72666Y-31850D02*
X73350Y-31850D01*
X72650Y-31930D02*
X73350Y-31930D01*
X72635Y-32010D02*
X73350Y-32010D01*
X72619Y-32090D02*
X73350Y-32090D01*
X72604Y-32170D02*
X73350Y-32170D01*
X72589Y-32250D02*
X73350Y-32250D01*
X72573Y-32330D02*
X73350Y-32330D01*
X72558Y-32410D02*
X73344Y-32410D01*
X72542Y-32490D02*
X73331Y-32490D01*
X72527Y-32570D02*
X73319Y-32570D01*
X72511Y-32650D02*
X73307Y-32650D01*
X72496Y-32730D02*
X73295Y-32730D01*
X72481Y-32810D02*
X73283Y-32810D01*
X72465Y-32890D02*
X73271Y-32890D01*
X72450Y-32970D02*
X73258Y-32970D01*
X72434Y-33050D02*
X73246Y-33050D01*
X72419Y-33130D02*
X73234Y-33130D01*
X72403Y-33210D02*
X73222Y-33210D01*
X72388Y-33290D02*
X73210Y-33290D01*
X72373Y-33370D02*
X73198Y-33370D01*
X72357Y-33450D02*
X73186Y-33450D01*
X72342Y-33530D02*
X73173Y-33530D01*
X72326Y-33610D02*
X73161Y-33610D01*
X72311Y-33690D02*
X73149Y-33690D01*
X72295Y-33770D02*
X73137Y-33770D01*
X72280Y-33850D02*
X73125Y-33850D01*
X72265Y-33930D02*
X73113Y-33930D01*
X72249Y-34010D02*
X73100Y-34010D01*
X72234Y-34090D02*
X73088Y-34090D01*
X72218Y-34170D02*
X73076Y-34170D01*
X72203Y-34250D02*
X73064Y-34250D01*
X72187Y-34330D02*
X73052Y-34330D01*
X72172Y-34410D02*
X73040Y-34410D01*
X72157Y-34490D02*
X73027Y-34490D01*
X72141Y-34570D02*
X73015Y-34570D01*
X72126Y-34650D02*
X73003Y-34650D01*
X72110Y-34730D02*
X72991Y-34730D01*
X72095Y-34810D02*
X72979Y-34810D01*
X72079Y-34890D02*
X72967Y-34890D01*
X72064Y-34970D02*
X72954Y-34970D01*
X72049Y-35050D02*
X72942Y-35050D01*
X72033Y-35130D02*
X72930Y-35130D01*
X72018Y-35210D02*
X72918Y-35210D01*
X72150Y-35290D02*
X72906Y-35290D01*
X72540Y-35370D02*
X72894Y-35370D01*
X73350Y-32371D02*
X72883Y-35440D01*
X72008Y-35260D01*
X72666Y-31850D01*
X73350Y-31850D01*
X73350Y-32371D01*
X74650Y-31750D02*
X75355Y-31750D01*
X74650Y-31830D02*
X75365Y-31830D01*
X74650Y-31910D02*
X75374Y-31910D01*
X74650Y-31990D02*
X75383Y-31990D01*
X74650Y-32070D02*
X75393Y-32070D01*
X74650Y-32150D02*
X75402Y-32150D01*
X74650Y-32230D02*
X75412Y-32230D01*
X74650Y-32310D02*
X75421Y-32310D01*
X74653Y-32390D02*
X75431Y-32390D01*
X74660Y-32470D02*
X75440Y-32470D01*
X74667Y-32550D02*
X75450Y-32550D01*
X74673Y-32630D02*
X75459Y-32630D01*
X74680Y-32710D02*
X75469Y-32710D01*
X74687Y-32790D02*
X75478Y-32790D01*
X74694Y-32870D02*
X75488Y-32870D01*
X74700Y-32950D02*
X75497Y-32950D01*
X74707Y-33030D02*
X75506Y-33030D01*
X74714Y-33110D02*
X75516Y-33110D01*
X74721Y-33190D02*
X75525Y-33190D01*
X74727Y-33270D02*
X75535Y-33270D01*
X74734Y-33350D02*
X75544Y-33350D01*
X74741Y-33430D02*
X75554Y-33430D01*
X74748Y-33510D02*
X75563Y-33510D01*
X74754Y-33590D02*
X75573Y-33590D01*
X74761Y-33670D02*
X75582Y-33670D01*
X74768Y-33750D02*
X75592Y-33750D01*
X74774Y-33830D02*
X75601Y-33830D01*
X74781Y-33910D02*
X75611Y-33910D01*
X74788Y-33990D02*
X75620Y-33990D01*
X74795Y-34070D02*
X75629Y-34070D01*
X74801Y-34150D02*
X75639Y-34150D01*
X74808Y-34230D02*
X75648Y-34230D01*
X74815Y-34310D02*
X75658Y-34310D01*
X74822Y-34390D02*
X75667Y-34390D01*
X74828Y-34470D02*
X75677Y-34470D01*
X74835Y-34550D02*
X75686Y-34550D01*
X74842Y-34630D02*
X75696Y-34630D01*
X74849Y-34710D02*
X75705Y-34710D01*
X74855Y-34790D02*
X75715Y-34790D01*
X74862Y-34870D02*
X75724Y-34870D01*
X74869Y-34950D02*
X75734Y-34950D01*
X74876Y-35030D02*
X75743Y-35030D01*
X74882Y-35110D02*
X75752Y-35110D01*
X74889Y-35190D02*
X75762Y-35190D01*
X74896Y-35270D02*
X75771Y-35270D01*
X74903Y-35350D02*
X75781Y-35350D01*
X74909Y-35430D02*
X75790Y-35430D01*
X74916Y-35510D02*
X75800Y-35510D01*
X74923Y-35590D02*
X75809Y-35590D01*
X74930Y-35670D02*
X75819Y-35670D01*
X74936Y-35750D02*
X75828Y-35750D01*
X74943Y-35830D02*
X75838Y-35830D01*
X74950Y-35910D02*
X75847Y-35910D01*
X74957Y-35990D02*
X75857Y-35990D01*
X74963Y-36070D02*
X75866Y-36070D01*
X74970Y-36150D02*
X75875Y-36150D01*
X74977Y-36230D02*
X75885Y-36230D01*
X74984Y-36310D02*
X75879Y-36310D01*
X74990Y-36390D02*
X75346Y-36390D01*
X75894Y-36307D02*
X74995Y-36442D01*
X74650Y-32347D01*
X74650Y-31750D01*
X75355Y-31750D01*
X75894Y-36307D01*
X77467Y-31675D02*
X78150Y-31675D01*
X77455Y-31755D02*
X78150Y-31755D01*
X77442Y-31835D02*
X78150Y-31835D01*
X77429Y-31915D02*
X78150Y-31915D01*
X77417Y-31995D02*
X78150Y-31995D01*
X77404Y-32075D02*
X78150Y-32075D01*
X77392Y-32155D02*
X78150Y-32155D01*
X77379Y-32235D02*
X78150Y-32235D01*
X77366Y-32315D02*
X78150Y-32315D01*
X77354Y-32395D02*
X78144Y-32395D01*
X77341Y-32475D02*
X78135Y-32475D01*
X77329Y-32555D02*
X78125Y-32555D01*
X77316Y-32635D02*
X78116Y-32635D01*
X77303Y-32715D02*
X78106Y-32715D01*
X77291Y-32795D02*
X78097Y-32795D01*
X77278Y-32875D02*
X78088Y-32875D01*
X77266Y-32955D02*
X78078Y-32955D01*
X77253Y-33035D02*
X78069Y-33035D01*
X77240Y-33115D02*
X78060Y-33115D01*
X77228Y-33195D02*
X78050Y-33195D01*
X77215Y-33275D02*
X78041Y-33275D01*
X77203Y-33355D02*
X78031Y-33355D01*
X77190Y-33435D02*
X78022Y-33435D01*
X77177Y-33515D02*
X78013Y-33515D01*
X77165Y-33595D02*
X78003Y-33595D01*
X77152Y-33675D02*
X77994Y-33675D01*
X77140Y-33755D02*
X77985Y-33755D01*
X77127Y-33835D02*
X77975Y-33835D01*
X77114Y-33915D02*
X77966Y-33915D01*
X77102Y-33995D02*
X77956Y-33995D01*
X77089Y-34075D02*
X77947Y-34075D01*
X77077Y-34155D02*
X77938Y-34155D01*
X77064Y-34235D02*
X77928Y-34235D01*
X77051Y-34315D02*
X77919Y-34315D01*
X77039Y-34395D02*
X77910Y-34395D01*
X77026Y-34475D02*
X77900Y-34475D01*
X77014Y-34555D02*
X77891Y-34555D01*
X77001Y-34635D02*
X77881Y-34635D01*
X76988Y-34715D02*
X77872Y-34715D01*
X76976Y-34795D02*
X77863Y-34795D01*
X76963Y-34875D02*
X77853Y-34875D01*
X76951Y-34955D02*
X77844Y-34955D01*
X76938Y-35035D02*
X77835Y-35035D01*
X76925Y-35115D02*
X77825Y-35115D01*
X76913Y-35195D02*
X77816Y-35195D01*
X76900Y-35275D02*
X77806Y-35275D01*
X76900Y-35355D02*
X77797Y-35355D01*
X77193Y-35435D02*
X77788Y-35435D01*
X78150Y-32347D02*
X77781Y-35495D01*
X76900Y-35404D01*
X76900Y-35278D01*
X77467Y-31675D01*
X78150Y-31675D01*
X78150Y-32347D01*
X82283Y-31540D02*
X82960Y-31540D01*
X82273Y-31620D02*
X82960Y-31620D01*
X82263Y-31700D02*
X82960Y-31700D01*
X82253Y-31780D02*
X82960Y-31780D01*
X82242Y-31860D02*
X82960Y-31860D01*
X82232Y-31940D02*
X82960Y-31940D01*
X82222Y-32020D02*
X82960Y-32020D01*
X82211Y-32100D02*
X82960Y-32100D01*
X82201Y-32180D02*
X82960Y-32180D01*
X82191Y-32260D02*
X82960Y-32260D01*
X82181Y-32340D02*
X82958Y-32340D01*
X82170Y-32420D02*
X82950Y-32420D01*
X82160Y-32500D02*
X82943Y-32500D01*
X82150Y-32580D02*
X82936Y-32580D01*
X82139Y-32660D02*
X82929Y-32660D01*
X82129Y-32740D02*
X82922Y-32740D01*
X82119Y-32820D02*
X82915Y-32820D01*
X82109Y-32900D02*
X82908Y-32900D01*
X82098Y-32980D02*
X82901Y-32980D01*
X82088Y-33060D02*
X82894Y-33060D01*
X82078Y-33140D02*
X82887Y-33140D01*
X82067Y-33220D02*
X82880Y-33220D01*
X82057Y-33300D02*
X82872Y-33300D01*
X82047Y-33380D02*
X82865Y-33380D01*
X82037Y-33460D02*
X82858Y-33460D01*
X82026Y-33540D02*
X82851Y-33540D01*
X82016Y-33620D02*
X82844Y-33620D01*
X82006Y-33700D02*
X82837Y-33700D01*
X81995Y-33780D02*
X82830Y-33780D01*
X81985Y-33860D02*
X82823Y-33860D01*
X81975Y-33940D02*
X82816Y-33940D01*
X81965Y-34020D02*
X82809Y-34020D01*
X81954Y-34100D02*
X82802Y-34100D01*
X81944Y-34180D02*
X82794Y-34180D01*
X81934Y-34260D02*
X82787Y-34260D01*
X81923Y-34340D02*
X82780Y-34340D01*
X81913Y-34420D02*
X82773Y-34420D01*
X81903Y-34500D02*
X82766Y-34500D01*
X81893Y-34580D02*
X82759Y-34580D01*
X81882Y-34660D02*
X82752Y-34660D01*
X81872Y-34740D02*
X82745Y-34740D01*
X81862Y-34820D02*
X82738Y-34820D01*
X81851Y-34900D02*
X82731Y-34900D01*
X81841Y-34980D02*
X82724Y-34980D01*
X81831Y-35060D02*
X82717Y-35060D01*
X81820Y-35140D02*
X82709Y-35140D01*
X81810Y-35220D02*
X82702Y-35220D01*
X81802Y-35300D02*
X82695Y-35300D01*
X81824Y-35380D02*
X82688Y-35380D01*
X81865Y-35460D02*
X82679Y-35460D01*
X81922Y-35540D02*
X82602Y-35540D01*
X81979Y-35620D02*
X82525Y-35620D01*
X82035Y-35700D02*
X82448Y-35700D01*
X82960Y-32317D02*
X82681Y-35457D01*
X82429Y-35719D01*
X82036Y-35701D01*
X81835Y-35418D01*
X81800Y-35296D01*
X82283Y-31540D01*
X82960Y-31540D01*
X82960Y-32317D01*
X79450Y-31580D02*
X80136Y-31580D01*
X79450Y-31660D02*
X80147Y-31660D01*
X79450Y-31740D02*
X80158Y-31740D01*
X79450Y-31820D02*
X80169Y-31820D01*
X79450Y-31900D02*
X80180Y-31900D01*
X79450Y-31980D02*
X80191Y-31980D01*
X79450Y-32060D02*
X80202Y-32060D01*
X79450Y-32140D02*
X80213Y-32140D01*
X79450Y-32220D02*
X80224Y-32220D01*
X79451Y-32300D02*
X80235Y-32300D01*
X79459Y-32380D02*
X80246Y-32380D01*
X79468Y-32460D02*
X80257Y-32460D01*
X79477Y-32540D02*
X80268Y-32540D01*
X79485Y-32620D02*
X80280Y-32620D01*
X79494Y-32700D02*
X80291Y-32700D01*
X79502Y-32780D02*
X80302Y-32780D01*
X79511Y-32860D02*
X80313Y-32860D01*
X79520Y-32940D02*
X80324Y-32940D01*
X79528Y-33020D02*
X80335Y-33020D01*
X79537Y-33100D02*
X80346Y-33100D01*
X79545Y-33180D02*
X80357Y-33180D01*
X79554Y-33260D02*
X80368Y-33260D01*
X79562Y-33340D02*
X80379Y-33340D01*
X79571Y-33420D02*
X80390Y-33420D01*
X79580Y-33500D02*
X80401Y-33500D01*
X79588Y-33580D02*
X80412Y-33580D01*
X79597Y-33660D02*
X80423Y-33660D01*
X79605Y-33740D02*
X80434Y-33740D01*
X79614Y-33820D02*
X80445Y-33820D01*
X79623Y-33900D02*
X80456Y-33900D01*
X79631Y-33980D02*
X80467Y-33980D01*
X79640Y-34060D02*
X80478Y-34060D01*
X79648Y-34140D02*
X80489Y-34140D01*
X79657Y-34220D02*
X80500Y-34220D01*
X79665Y-34300D02*
X80511Y-34300D01*
X79674Y-34380D02*
X80523Y-34380D01*
X79683Y-34460D02*
X80534Y-34460D01*
X79691Y-34540D02*
X80545Y-34540D01*
X79700Y-34620D02*
X80556Y-34620D01*
X79708Y-34700D02*
X80567Y-34700D01*
X79717Y-34780D02*
X80578Y-34780D01*
X79726Y-34860D02*
X80589Y-34860D01*
X79734Y-34940D02*
X80600Y-34940D01*
X79743Y-35020D02*
X80611Y-35020D01*
X79751Y-35100D02*
X80622Y-35100D01*
X79760Y-35180D02*
X80633Y-35180D01*
X79769Y-35260D02*
X80644Y-35260D01*
X79777Y-35340D02*
X80655Y-35340D01*
X79786Y-35420D02*
X80666Y-35420D01*
X79794Y-35500D02*
X80677Y-35500D01*
X79803Y-35580D02*
X80688Y-35580D01*
X79811Y-35660D02*
X80699Y-35660D01*
X79820Y-35740D02*
X80710Y-35740D01*
X79829Y-35820D02*
X80721Y-35820D01*
X79837Y-35900D02*
X80732Y-35900D01*
X79846Y-35980D02*
X80743Y-35980D01*
X79854Y-36060D02*
X80755Y-36060D01*
X79863Y-36140D02*
X80766Y-36140D01*
X79872Y-36220D02*
X80777Y-36220D01*
X79880Y-36300D02*
X80788Y-36300D01*
X79892Y-36380D02*
X80749Y-36380D01*
X79951Y-36460D02*
X80709Y-36460D01*
X80017Y-36540D02*
X80669Y-36540D01*
X80788Y-36301D02*
X80648Y-36581D01*
X80082Y-36618D01*
X79910Y-36411D01*
X79888Y-36373D01*
X79450Y-32287D01*
X79450Y-31580D01*
X80136Y-31580D01*
X80788Y-36301D01*
X84250Y-31560D02*
X84930Y-31560D01*
X84250Y-31640D02*
X84930Y-31640D01*
X84250Y-31720D02*
X84930Y-31720D01*
X84250Y-31800D02*
X84930Y-31800D01*
X84250Y-31880D02*
X84930Y-31880D01*
X84250Y-31960D02*
X84930Y-31960D01*
X84250Y-32040D02*
X84930Y-32040D01*
X84250Y-32120D02*
X84930Y-32120D01*
X84250Y-32200D02*
X84930Y-32200D01*
X84250Y-32280D02*
X84930Y-32280D01*
X84254Y-32360D02*
X84934Y-32360D01*
X84265Y-32440D02*
X84950Y-32440D01*
X84275Y-32520D02*
X84965Y-32520D01*
X84286Y-32600D02*
X84980Y-32600D01*
X84296Y-32680D02*
X84996Y-32680D01*
X84307Y-32760D02*
X85011Y-32760D01*
X84318Y-32840D02*
X85026Y-32840D01*
X84328Y-32920D02*
X85042Y-32920D01*
X84339Y-33000D02*
X85057Y-33000D01*
X84350Y-33080D02*
X85072Y-33080D01*
X84360Y-33160D02*
X85087Y-33160D01*
X84371Y-33240D02*
X85103Y-33240D01*
X84382Y-33320D02*
X85118Y-33320D01*
X84392Y-33400D02*
X85133Y-33400D01*
X84403Y-33480D02*
X85149Y-33480D01*
X84414Y-33560D02*
X85164Y-33560D01*
X84424Y-33640D02*
X85179Y-33640D01*
X84435Y-33720D02*
X85195Y-33720D01*
X84445Y-33800D02*
X85210Y-33800D01*
X84456Y-33880D02*
X85225Y-33880D01*
X84467Y-33960D02*
X85241Y-33960D01*
X84477Y-34040D02*
X85256Y-34040D01*
X84488Y-34120D02*
X85271Y-34120D01*
X84499Y-34200D02*
X85287Y-34200D01*
X84509Y-34280D02*
X85302Y-34280D01*
X84520Y-34360D02*
X85317Y-34360D01*
X84531Y-34440D02*
X85333Y-34440D01*
X84541Y-34520D02*
X85348Y-34520D01*
X84552Y-34600D02*
X85363Y-34600D01*
X84563Y-34680D02*
X85378Y-34680D01*
X84573Y-34760D02*
X85394Y-34760D01*
X84584Y-34840D02*
X85409Y-34840D01*
X84594Y-34920D02*
X85424Y-34920D01*
X84605Y-35000D02*
X85440Y-35000D01*
X84616Y-35080D02*
X85455Y-35080D01*
X84626Y-35160D02*
X85470Y-35160D01*
X84637Y-35240D02*
X85486Y-35240D01*
X84648Y-35320D02*
X85501Y-35320D01*
X84658Y-35400D02*
X85516Y-35400D01*
X84669Y-35480D02*
X85532Y-35480D01*
X84680Y-35560D02*
X85547Y-35560D01*
X84690Y-35640D02*
X85562Y-35640D01*
X84701Y-35720D02*
X85578Y-35720D01*
X84711Y-35800D02*
X85593Y-35800D01*
X84722Y-35880D02*
X85608Y-35880D01*
X84733Y-35960D02*
X85624Y-35960D01*
X84743Y-36040D02*
X85639Y-36040D01*
X84754Y-36120D02*
X85654Y-36120D01*
X84765Y-36200D02*
X85669Y-36200D01*
X84775Y-36280D02*
X85685Y-36280D01*
X84786Y-36360D02*
X85667Y-36360D01*
X84816Y-36440D02*
X85640Y-36440D01*
X84954Y-36520D02*
X85575Y-36520D01*
X85097Y-36600D02*
X85375Y-36600D01*
X85688Y-36296D02*
X85619Y-36502D01*
X85213Y-36664D01*
X84818Y-36444D01*
X84788Y-36376D01*
X84250Y-32326D01*
X84250Y-31560D01*
X84930Y-31560D01*
X84930Y-32334D01*
X85688Y-36296D01*
X87080Y-31570D02*
X87760Y-31570D01*
X87080Y-31650D02*
X87760Y-31650D01*
X87080Y-31730D02*
X87760Y-31730D01*
X87080Y-31810D02*
X87760Y-31810D01*
X87080Y-31890D02*
X87760Y-31890D01*
X87080Y-31970D02*
X87760Y-31970D01*
X87080Y-32050D02*
X87760Y-32050D01*
X87080Y-32130D02*
X87760Y-32130D01*
X87080Y-32210D02*
X87760Y-32210D01*
X87070Y-32290D02*
X87760Y-32290D01*
X87060Y-32370D02*
X87756Y-32370D01*
X87051Y-32450D02*
X87751Y-32450D01*
X87041Y-32530D02*
X87747Y-32530D01*
X87031Y-32610D02*
X87743Y-32610D01*
X87021Y-32690D02*
X87738Y-32690D01*
X87012Y-32770D02*
X87734Y-32770D01*
X87002Y-32850D02*
X87730Y-32850D01*
X86992Y-32930D02*
X87725Y-32930D01*
X86982Y-33010D02*
X87721Y-33010D01*
X86973Y-33090D02*
X87717Y-33090D01*
X86963Y-33170D02*
X87712Y-33170D01*
X86953Y-33250D02*
X87708Y-33250D01*
X86943Y-33330D02*
X87704Y-33330D01*
X86934Y-33410D02*
X87700Y-33410D01*
X86924Y-33490D02*
X87695Y-33490D01*
X86914Y-33570D02*
X87691Y-33570D01*
X86904Y-33650D02*
X87687Y-33650D01*
X86895Y-33730D02*
X87682Y-33730D01*
X86885Y-33810D02*
X87678Y-33810D01*
X86875Y-33890D02*
X87674Y-33890D01*
X86866Y-33970D02*
X87669Y-33970D01*
X86856Y-34050D02*
X87665Y-34050D01*
X86846Y-34130D02*
X87661Y-34130D01*
X86836Y-34210D02*
X87656Y-34210D01*
X86827Y-34290D02*
X87652Y-34290D01*
X86817Y-34370D02*
X87648Y-34370D01*
X86807Y-34450D02*
X87643Y-34450D01*
X86797Y-34530D02*
X87639Y-34530D01*
X86788Y-34610D02*
X87635Y-34610D01*
X86778Y-34690D02*
X87630Y-34690D01*
X86768Y-34770D02*
X87626Y-34770D01*
X86758Y-34850D02*
X87622Y-34850D01*
X86749Y-34930D02*
X87617Y-34930D01*
X86739Y-35010D02*
X87613Y-35010D01*
X86729Y-35090D02*
X87609Y-35090D01*
X86719Y-35170D02*
X87605Y-35170D01*
X86710Y-35250D02*
X87600Y-35250D01*
X86700Y-35330D02*
X87596Y-35330D01*
X86713Y-35410D02*
X87592Y-35410D01*
X86725Y-35490D02*
X87549Y-35490D01*
X86818Y-35570D02*
X87491Y-35570D01*
X86914Y-35650D02*
X87433Y-35650D01*
X87760Y-32298D02*
X87590Y-35432D01*
X87405Y-35688D01*
X86938Y-35670D01*
X86726Y-35493D01*
X86700Y-35329D01*
X87080Y-32213D01*
X87080Y-31570D01*
X87760Y-31570D01*
X87760Y-32298D01*
X89050Y-31570D02*
X89738Y-31570D01*
X89050Y-31650D02*
X89752Y-31650D01*
X89050Y-31730D02*
X89767Y-31730D01*
X89050Y-31810D02*
X89781Y-31810D01*
X89050Y-31890D02*
X89795Y-31890D01*
X89050Y-31970D02*
X89810Y-31970D01*
X89050Y-32050D02*
X89824Y-32050D01*
X89050Y-32130D02*
X89839Y-32130D01*
X89050Y-32210D02*
X89853Y-32210D01*
X89050Y-32290D02*
X89868Y-32290D01*
X89063Y-32370D02*
X89882Y-32370D01*
X89075Y-32450D02*
X89897Y-32450D01*
X89087Y-32530D02*
X89911Y-32530D01*
X89100Y-32610D02*
X89925Y-32610D01*
X89112Y-32690D02*
X89940Y-32690D01*
X89125Y-32770D02*
X89954Y-32770D01*
X89137Y-32850D02*
X89969Y-32850D01*
X89150Y-32930D02*
X89983Y-32930D01*
X89162Y-33010D02*
X89998Y-33010D01*
X89175Y-33090D02*
X90012Y-33090D01*
X89187Y-33170D02*
X90026Y-33170D01*
X89200Y-33250D02*
X90041Y-33250D01*
X89212Y-33330D02*
X90055Y-33330D01*
X89225Y-33410D02*
X90070Y-33410D01*
X89237Y-33490D02*
X90084Y-33490D01*
X89249Y-33570D02*
X90099Y-33570D01*
X89262Y-33650D02*
X90113Y-33650D01*
X89274Y-33730D02*
X90128Y-33730D01*
X89287Y-33810D02*
X90142Y-33810D01*
X89299Y-33890D02*
X90156Y-33890D01*
X89312Y-33970D02*
X90171Y-33970D01*
X89324Y-34050D02*
X90185Y-34050D01*
X89337Y-34130D02*
X90200Y-34130D01*
X89349Y-34210D02*
X90214Y-34210D01*
X89362Y-34290D02*
X90229Y-34290D01*
X89374Y-34370D02*
X90243Y-34370D01*
X89386Y-34450D02*
X90257Y-34450D01*
X89399Y-34530D02*
X90272Y-34530D01*
X89411Y-34610D02*
X90286Y-34610D01*
X89424Y-34690D02*
X90301Y-34690D01*
X89436Y-34770D02*
X90315Y-34770D01*
X89449Y-34850D02*
X90330Y-34850D01*
X89461Y-34930D02*
X90344Y-34930D01*
X89474Y-35010D02*
X90359Y-35010D01*
X89486Y-35090D02*
X90373Y-35090D01*
X89499Y-35170D02*
X90387Y-35170D01*
X89511Y-35250D02*
X90402Y-35250D01*
X89523Y-35330D02*
X90416Y-35330D01*
X89536Y-35410D02*
X90431Y-35410D01*
X89548Y-35490D02*
X90445Y-35490D01*
X89561Y-35570D02*
X90460Y-35570D01*
X89573Y-35650D02*
X90474Y-35650D01*
X89586Y-35730D02*
X90488Y-35730D01*
X89598Y-35810D02*
X90503Y-35810D01*
X89611Y-35890D02*
X90517Y-35890D01*
X89623Y-35970D02*
X90532Y-35970D01*
X89636Y-36050D02*
X90546Y-36050D01*
X89648Y-36130D02*
X90561Y-36130D01*
X89661Y-36210D02*
X90575Y-36210D01*
X89673Y-36290D02*
X90584Y-36290D01*
X89685Y-36370D02*
X90571Y-36370D01*
X89744Y-36450D02*
X90495Y-36450D01*
X89858Y-36530D02*
X90420Y-36530D01*
X90098Y-36610D02*
X90344Y-36610D01*
X90588Y-36351D02*
X90285Y-36672D01*
X89789Y-36507D01*
X89687Y-36379D01*
X89050Y-32286D01*
X89050Y-31570D01*
X89738Y-31570D01*
X90580Y-36236D01*
X90588Y-36351D01*
X92669Y-31590D02*
X93360Y-31590D01*
X92650Y-31670D02*
X93360Y-31670D01*
X92631Y-31750D02*
X93360Y-31750D01*
X92612Y-31830D02*
X93360Y-31830D01*
X92594Y-31910D02*
X93360Y-31910D01*
X92575Y-31990D02*
X93360Y-31990D01*
X92556Y-32070D02*
X93360Y-32070D01*
X92537Y-32150D02*
X93360Y-32150D01*
X92518Y-32230D02*
X93360Y-32230D01*
X92499Y-32310D02*
X93359Y-32310D01*
X92480Y-32390D02*
X93348Y-32390D01*
X92462Y-32470D02*
X93331Y-32470D01*
X92443Y-32550D02*
X93314Y-32550D01*
X92424Y-32630D02*
X93297Y-32630D01*
X92405Y-32710D02*
X93280Y-32710D01*
X92386Y-32790D02*
X93262Y-32790D01*
X92367Y-32870D02*
X93245Y-32870D01*
X92348Y-32950D02*
X93228Y-32950D01*
X92330Y-33030D02*
X93211Y-33030D01*
X92311Y-33110D02*
X93194Y-33110D01*
X92292Y-33190D02*
X93177Y-33190D01*
X92273Y-33270D02*
X93159Y-33270D01*
X92254Y-33350D02*
X93142Y-33350D01*
X92235Y-33430D02*
X93125Y-33430D01*
X92216Y-33510D02*
X93108Y-33510D01*
X92198Y-33590D02*
X93091Y-33590D01*
X92179Y-33670D02*
X93073Y-33670D01*
X92160Y-33750D02*
X93056Y-33750D01*
X92141Y-33830D02*
X93039Y-33830D01*
X92122Y-33910D02*
X93022Y-33910D01*
X92103Y-33990D02*
X93005Y-33990D01*
X92084Y-34070D02*
X92988Y-34070D01*
X92066Y-34150D02*
X92970Y-34150D01*
X92047Y-34230D02*
X92953Y-34230D01*
X92028Y-34310D02*
X92936Y-34310D01*
X92009Y-34390D02*
X92919Y-34390D01*
X91990Y-34470D02*
X92902Y-34470D01*
X91971Y-34550D02*
X92885Y-34550D01*
X91952Y-34630D02*
X92867Y-34630D01*
X91933Y-34710D02*
X92850Y-34710D01*
X91915Y-34790D02*
X92833Y-34790D01*
X91896Y-34870D02*
X92816Y-34870D01*
X91877Y-34950D02*
X92799Y-34950D01*
X91858Y-35030D02*
X92781Y-35030D01*
X91839Y-35110D02*
X92764Y-35110D01*
X91820Y-35190D02*
X92747Y-35190D01*
X91806Y-35270D02*
X92730Y-35270D01*
X91819Y-35350D02*
X92713Y-35350D01*
X91896Y-35430D02*
X92696Y-35430D01*
X91972Y-35510D02*
X92647Y-35510D01*
X92296Y-35590D02*
X92542Y-35590D01*
X93360Y-32306D02*
X93350Y-32381D01*
X92684Y-35481D01*
X92506Y-35617D01*
X92013Y-35552D01*
X91801Y-35331D01*
X91809Y-35237D01*
X92669Y-31590D01*
X93360Y-31590D01*
X93360Y-32306D01*
X94650Y-31580D02*
X95333Y-31580D01*
X94650Y-31660D02*
X95339Y-31660D01*
X94650Y-31740D02*
X95345Y-31740D01*
X94650Y-31820D02*
X95351Y-31820D01*
X94650Y-31900D02*
X95357Y-31900D01*
X94650Y-31980D02*
X95363Y-31980D01*
X94650Y-32060D02*
X95370Y-32060D01*
X94650Y-32140D02*
X95376Y-32140D01*
X94650Y-32220D02*
X95382Y-32220D01*
X94650Y-32300D02*
X95388Y-32300D01*
X94653Y-32380D02*
X95394Y-32380D01*
X94656Y-32460D02*
X95400Y-32460D01*
X94658Y-32540D02*
X95406Y-32540D01*
X94661Y-32620D02*
X95412Y-32620D01*
X94664Y-32700D02*
X95418Y-32700D01*
X94667Y-32780D02*
X95424Y-32780D01*
X94669Y-32860D02*
X95430Y-32860D01*
X94672Y-32940D02*
X95436Y-32940D01*
X94675Y-33020D02*
X95442Y-33020D01*
X94678Y-33100D02*
X95448Y-33100D01*
X94680Y-33180D02*
X95454Y-33180D01*
X94683Y-33260D02*
X95460Y-33260D01*
X94686Y-33340D02*
X95467Y-33340D01*
X94688Y-33420D02*
X95473Y-33420D01*
X94691Y-33500D02*
X95479Y-33500D01*
X94694Y-33580D02*
X95485Y-33580D01*
X94697Y-33660D02*
X95491Y-33660D01*
X94699Y-33740D02*
X95497Y-33740D01*
X94702Y-33820D02*
X95503Y-33820D01*
X94705Y-33900D02*
X95509Y-33900D01*
X94708Y-33980D02*
X95515Y-33980D01*
X94710Y-34060D02*
X95521Y-34060D01*
X94713Y-34140D02*
X95527Y-34140D01*
X94716Y-34220D02*
X95533Y-34220D01*
X94719Y-34300D02*
X95539Y-34300D01*
X94721Y-34380D02*
X95545Y-34380D01*
X94724Y-34460D02*
X95551Y-34460D01*
X94727Y-34540D02*
X95557Y-34540D01*
X94729Y-34620D02*
X95564Y-34620D01*
X94732Y-34700D02*
X95570Y-34700D01*
X94735Y-34780D02*
X95576Y-34780D01*
X94738Y-34860D02*
X95582Y-34860D01*
X94740Y-34940D02*
X95588Y-34940D01*
X94743Y-35020D02*
X95594Y-35020D01*
X94746Y-35100D02*
X95600Y-35100D01*
X94749Y-35180D02*
X95606Y-35180D01*
X94751Y-35260D02*
X95612Y-35260D01*
X94754Y-35340D02*
X95618Y-35340D01*
X94757Y-35420D02*
X95624Y-35420D01*
X94759Y-35500D02*
X95630Y-35500D01*
X94762Y-35580D02*
X95636Y-35580D01*
X94765Y-35660D02*
X95642Y-35660D01*
X94768Y-35740D02*
X95648Y-35740D01*
X94770Y-35820D02*
X95654Y-35820D01*
X94773Y-35900D02*
X95661Y-35900D01*
X94776Y-35980D02*
X95667Y-35980D01*
X94779Y-36060D02*
X95673Y-36060D01*
X94781Y-36140D02*
X95679Y-36140D01*
X94784Y-36220D02*
X95685Y-36220D01*
X94787Y-36300D02*
X95670Y-36300D01*
X94801Y-36380D02*
X95624Y-36380D01*
X94857Y-36460D02*
X95577Y-36460D01*
X94913Y-36540D02*
X95531Y-36540D01*
X94969Y-36620D02*
X95484Y-36620D01*
X95688Y-36268D02*
X95462Y-36658D01*
X94977Y-36631D01*
X94789Y-36363D01*
X94650Y-32279D01*
X94650Y-31580D01*
X95333Y-31580D01*
X95688Y-36268D01*
X97472Y-31640D02*
X98160Y-31640D01*
X97454Y-31720D02*
X98160Y-31720D01*
X97436Y-31800D02*
X98160Y-31800D01*
X97418Y-31880D02*
X98160Y-31880D01*
X97400Y-31960D02*
X98160Y-31960D01*
X97382Y-32040D02*
X98160Y-32040D01*
X97364Y-32120D02*
X98160Y-32120D01*
X97346Y-32200D02*
X98160Y-32200D01*
X97328Y-32280D02*
X98160Y-32280D01*
X97310Y-32360D02*
X98147Y-32360D01*
X97292Y-32440D02*
X98131Y-32440D01*
X97274Y-32520D02*
X98115Y-32520D01*
X97256Y-32600D02*
X98100Y-32600D01*
X97238Y-32680D02*
X98084Y-32680D01*
X97220Y-32760D02*
X98068Y-32760D01*
X97202Y-32840D02*
X98053Y-32840D01*
X97184Y-32920D02*
X98037Y-32920D01*
X97166Y-33000D02*
X98021Y-33000D01*
X97148Y-33080D02*
X98006Y-33080D01*
X97130Y-33160D02*
X97990Y-33160D01*
X97112Y-33240D02*
X97974Y-33240D01*
X97094Y-33320D02*
X97958Y-33320D01*
X97076Y-33400D02*
X97943Y-33400D01*
X97058Y-33480D02*
X97927Y-33480D01*
X97040Y-33560D02*
X97911Y-33560D01*
X97022Y-33640D02*
X97896Y-33640D01*
X97004Y-33720D02*
X97880Y-33720D01*
X96986Y-33800D02*
X97864Y-33800D01*
X96969Y-33880D02*
X97849Y-33880D01*
X96951Y-33960D02*
X97833Y-33960D01*
X96933Y-34040D02*
X97817Y-34040D01*
X96915Y-34120D02*
X97801Y-34120D01*
X96897Y-34200D02*
X97786Y-34200D01*
X96879Y-34280D02*
X97770Y-34280D01*
X96861Y-34360D02*
X97754Y-34360D01*
X96843Y-34440D02*
X97739Y-34440D01*
X96825Y-34520D02*
X97723Y-34520D01*
X96807Y-34600D02*
X97707Y-34600D01*
X96789Y-34680D02*
X97692Y-34680D01*
X96771Y-34760D02*
X97676Y-34760D01*
X96753Y-34840D02*
X97660Y-34840D01*
X96735Y-34920D02*
X97644Y-34920D01*
X96717Y-35000D02*
X97629Y-35000D01*
X96699Y-35080D02*
X97613Y-35080D01*
X96681Y-35160D02*
X97597Y-35160D01*
X96663Y-35240D02*
X97582Y-35240D01*
X96695Y-35320D02*
X97566Y-35320D01*
X96730Y-35400D02*
X97550Y-35400D01*
X96766Y-35480D02*
X97505Y-35480D01*
X96801Y-35560D02*
X97435Y-35560D01*
X96991Y-35640D02*
X97364Y-35640D01*
X98160Y-32295D02*
X97543Y-35437D01*
X97348Y-35658D01*
X96833Y-35631D01*
X96662Y-35244D01*
X97472Y-31640D01*
X98160Y-31640D01*
X98160Y-32295D01*
X99450Y-31601D02*
X99450Y-31601D01*
X99450Y-31681D02*
X100138Y-31681D01*
X99450Y-31761D02*
X100145Y-31761D01*
X99450Y-31841D02*
X100152Y-31841D01*
X99450Y-31921D02*
X100159Y-31921D01*
X99450Y-32001D02*
X100166Y-32001D01*
X99450Y-32081D02*
X100173Y-32081D01*
X99450Y-32161D02*
X100180Y-32161D01*
X99450Y-32241D02*
X100187Y-32241D01*
X99452Y-32321D02*
X100194Y-32321D01*
X99456Y-32401D02*
X100201Y-32401D01*
X99460Y-32481D02*
X100208Y-32481D01*
X99464Y-32561D02*
X100215Y-32561D01*
X99467Y-32641D02*
X100222Y-32641D01*
X99471Y-32721D02*
X100229Y-32721D01*
X99475Y-32801D02*
X100235Y-32801D01*
X99478Y-32881D02*
X100242Y-32881D01*
X99482Y-32961D02*
X100249Y-32961D01*
X99486Y-33041D02*
X100256Y-33041D01*
X99489Y-33121D02*
X100263Y-33121D01*
X99493Y-33201D02*
X100270Y-33201D01*
X99497Y-33281D02*
X100277Y-33281D01*
X99500Y-33361D02*
X100284Y-33361D01*
X99504Y-33441D02*
X100291Y-33441D01*
X99508Y-33521D02*
X100298Y-33521D01*
X99512Y-33601D02*
X100305Y-33601D01*
X99515Y-33681D02*
X100312Y-33681D01*
X99519Y-33761D02*
X100319Y-33761D01*
X99523Y-33841D02*
X100326Y-33841D01*
X99526Y-33921D02*
X100333Y-33921D01*
X99530Y-34001D02*
X100340Y-34001D01*
X99534Y-34081D02*
X100347Y-34081D01*
X99537Y-34161D02*
X100354Y-34161D01*
X99541Y-34241D02*
X100361Y-34241D01*
X99545Y-34321D02*
X100367Y-34321D01*
X99549Y-34401D02*
X100374Y-34401D01*
X99552Y-34481D02*
X100381Y-34481D01*
X99556Y-34561D02*
X100388Y-34561D01*
X99560Y-34641D02*
X100395Y-34641D01*
X99563Y-34721D02*
X100402Y-34721D01*
X99567Y-34801D02*
X100409Y-34801D01*
X99571Y-34881D02*
X100416Y-34881D01*
X99574Y-34961D02*
X100423Y-34961D01*
X99578Y-35041D02*
X100430Y-35041D01*
X99582Y-35121D02*
X100437Y-35121D01*
X99586Y-35201D02*
X100444Y-35201D01*
X99589Y-35281D02*
X100451Y-35281D01*
X99593Y-35361D02*
X100458Y-35361D01*
X99597Y-35441D02*
X100465Y-35441D01*
X99600Y-35521D02*
X100472Y-35521D01*
X99604Y-35601D02*
X100479Y-35601D01*
X99608Y-35681D02*
X100486Y-35681D01*
X99611Y-35761D02*
X100493Y-35761D01*
X99615Y-35841D02*
X100500Y-35841D01*
X99619Y-35921D02*
X100506Y-35921D01*
X99623Y-36001D02*
X100513Y-36001D01*
X99626Y-36081D02*
X100520Y-36081D01*
X99630Y-36161D02*
X100527Y-36161D01*
X99634Y-36241D02*
X100534Y-36241D01*
X99637Y-36321D02*
X100498Y-36321D01*
X99681Y-36401D02*
X100420Y-36401D01*
X99748Y-36481D02*
X100342Y-36481D01*
X99815Y-36561D02*
X100264Y-36561D01*
X100123Y-36641D02*
X100186Y-36641D01*
X100538Y-36281D02*
X100174Y-36654D01*
X99817Y-36565D01*
X99639Y-36350D01*
X99450Y-32258D01*
X99450Y-31601D01*
X100134Y-31628D01*
X100538Y-36281D01*
X102270Y-31640D02*
X102960Y-31640D01*
X102253Y-31720D02*
X102960Y-31720D01*
X102236Y-31800D02*
X102960Y-31800D01*
X102219Y-31880D02*
X102960Y-31880D01*
X102203Y-31960D02*
X102960Y-31960D01*
X102186Y-32040D02*
X102960Y-32040D01*
X102169Y-32120D02*
X102960Y-32120D01*
X102152Y-32200D02*
X102960Y-32200D01*
X102135Y-32280D02*
X102960Y-32280D01*
X102118Y-32360D02*
X102951Y-32360D01*
X102101Y-32440D02*
X102937Y-32440D01*
X102084Y-32520D02*
X102923Y-32520D01*
X102068Y-32600D02*
X102908Y-32600D01*
X102051Y-32680D02*
X102894Y-32680D01*
X102034Y-32760D02*
X102879Y-32760D01*
X102017Y-32840D02*
X102865Y-32840D01*
X102000Y-32920D02*
X102850Y-32920D01*
X101983Y-33000D02*
X102836Y-33000D01*
X101966Y-33080D02*
X102821Y-33080D01*
X101949Y-33160D02*
X102807Y-33160D01*
X101933Y-33240D02*
X102792Y-33240D01*
X101916Y-33320D02*
X102778Y-33320D01*
X101899Y-33400D02*
X102764Y-33400D01*
X101882Y-33480D02*
X102749Y-33480D01*
X101865Y-33560D02*
X102735Y-33560D01*
X101848Y-33640D02*
X102720Y-33640D01*
X101831Y-33720D02*
X102706Y-33720D01*
X101814Y-33800D02*
X102691Y-33800D01*
X101798Y-33880D02*
X102677Y-33880D01*
X101781Y-33960D02*
X102662Y-33960D01*
X101764Y-34040D02*
X102648Y-34040D01*
X101747Y-34120D02*
X102634Y-34120D01*
X101730Y-34200D02*
X102619Y-34200D01*
X101713Y-34280D02*
X102605Y-34280D01*
X101696Y-34360D02*
X102590Y-34360D01*
X101679Y-34440D02*
X102576Y-34440D01*
X101662Y-34520D02*
X102561Y-34520D01*
X101646Y-34600D02*
X102547Y-34600D01*
X101629Y-34680D02*
X102532Y-34680D01*
X101612Y-34760D02*
X102518Y-34760D01*
X101595Y-34840D02*
X102503Y-34840D01*
X101578Y-34920D02*
X102489Y-34920D01*
X101561Y-35000D02*
X102475Y-35000D01*
X101544Y-35080D02*
X102460Y-35080D01*
X101527Y-35160D02*
X102446Y-35160D01*
X101511Y-35240D02*
X102431Y-35240D01*
X101502Y-35320D02*
X102417Y-35320D01*
X101551Y-35400D02*
X102402Y-35400D01*
X101605Y-35480D02*
X102338Y-35480D01*
X101659Y-35560D02*
X102275Y-35560D01*
X102960Y-32315D02*
X102403Y-35398D01*
X102236Y-35609D01*
X101686Y-35600D01*
X101501Y-35326D01*
X101509Y-35247D01*
X102270Y-31640D01*
X102960Y-31640D01*
X102960Y-32315D01*
X104250Y-31610D02*
X104934Y-31610D01*
X104250Y-31690D02*
X104942Y-31690D01*
X104250Y-31770D02*
X104950Y-31770D01*
X104250Y-31850D02*
X104957Y-31850D01*
X104250Y-31930D02*
X104965Y-31930D01*
X104250Y-32010D02*
X104973Y-32010D01*
X104250Y-32090D02*
X104981Y-32090D01*
X104250Y-32170D02*
X104988Y-32170D01*
X104250Y-32250D02*
X104996Y-32250D01*
X104253Y-32330D02*
X105004Y-32330D01*
X104257Y-32410D02*
X105012Y-32410D01*
X104262Y-32490D02*
X105019Y-32490D01*
X104267Y-32570D02*
X105027Y-32570D01*
X104271Y-32650D02*
X105035Y-32650D01*
X104276Y-32730D02*
X105043Y-32730D01*
X104281Y-32810D02*
X105050Y-32810D01*
X104286Y-32890D02*
X105058Y-32890D01*
X104290Y-32970D02*
X105066Y-32970D01*
X104295Y-33050D02*
X105074Y-33050D01*
X104300Y-33130D02*
X105081Y-33130D01*
X104304Y-33210D02*
X105089Y-33210D01*
X104309Y-33290D02*
X105097Y-33290D01*
X104314Y-33370D02*
X105105Y-33370D01*
X104319Y-33450D02*
X105112Y-33450D01*
X104323Y-33530D02*
X105120Y-33530D01*
X104328Y-33610D02*
X105128Y-33610D01*
X104333Y-33690D02*
X105136Y-33690D01*
X104337Y-33770D02*
X105143Y-33770D01*
X104342Y-33850D02*
X105151Y-33850D01*
X104347Y-33930D02*
X105159Y-33930D01*
X104352Y-34010D02*
X105167Y-34010D01*
X104356Y-34090D02*
X105174Y-34090D01*
X104361Y-34170D02*
X105182Y-34170D01*
X104366Y-34250D02*
X105190Y-34250D01*
X104370Y-34330D02*
X105198Y-34330D01*
X104375Y-34410D02*
X105205Y-34410D01*
X104380Y-34490D02*
X105213Y-34490D01*
X104385Y-34570D02*
X105221Y-34570D01*
X104389Y-34650D02*
X105229Y-34650D01*
X104394Y-34730D02*
X105236Y-34730D01*
X104399Y-34810D02*
X105244Y-34810D01*
X104403Y-34890D02*
X105252Y-34890D01*
X104408Y-34970D02*
X105259Y-34970D01*
X104413Y-35050D02*
X105267Y-35050D01*
X104418Y-35130D02*
X105275Y-35130D01*
X104422Y-35210D02*
X105283Y-35210D01*
X104427Y-35290D02*
X105290Y-35290D01*
X104432Y-35370D02*
X105298Y-35370D01*
X104437Y-35450D02*
X105306Y-35450D01*
X104441Y-35530D02*
X105314Y-35530D01*
X104446Y-35610D02*
X105321Y-35610D01*
X104451Y-35690D02*
X105329Y-35690D01*
X104455Y-35770D02*
X105337Y-35770D01*
X104460Y-35850D02*
X105345Y-35850D01*
X104465Y-35930D02*
X105352Y-35930D01*
X104470Y-36010D02*
X105360Y-36010D01*
X104474Y-36090D02*
X105368Y-36090D01*
X104479Y-36170D02*
X105376Y-36170D01*
X104484Y-36250D02*
X105383Y-36250D01*
X104488Y-36330D02*
X105372Y-36330D01*
X104552Y-36410D02*
X105329Y-36410D01*
X104656Y-36490D02*
X105286Y-36490D01*
X104760Y-36570D02*
X105202Y-36570D01*
X104864Y-36650D02*
X104994Y-36650D01*
X105388Y-36299D02*
X105254Y-36550D01*
X104908Y-36683D01*
X104509Y-36377D01*
X104489Y-36336D01*
X104250Y-32278D01*
X104250Y-31610D01*
X104934Y-31610D01*
X105388Y-36299D01*
X107080Y-31600D02*
X107760Y-31600D01*
X107078Y-31680D02*
X107760Y-31680D01*
X107062Y-31760D02*
X107760Y-31760D01*
X107046Y-31840D02*
X107760Y-31840D01*
X107030Y-31920D02*
X107760Y-31920D01*
X107014Y-32000D02*
X107760Y-32000D01*
X106998Y-32080D02*
X107760Y-32080D01*
X106982Y-32160D02*
X107760Y-32160D01*
X106966Y-32240D02*
X107760Y-32240D01*
X106950Y-32320D02*
X107759Y-32320D01*
X106934Y-32400D02*
X107745Y-32400D01*
X106918Y-32480D02*
X107732Y-32480D01*
X106902Y-32560D02*
X107719Y-32560D01*
X106885Y-32640D02*
X107705Y-32640D01*
X106869Y-32720D02*
X107692Y-32720D01*
X106853Y-32800D02*
X107679Y-32800D01*
X106837Y-32880D02*
X107665Y-32880D01*
X106821Y-32960D02*
X107652Y-32960D01*
X106805Y-33040D02*
X107639Y-33040D01*
X106789Y-33120D02*
X107625Y-33120D01*
X106773Y-33200D02*
X107612Y-33200D01*
X106757Y-33280D02*
X107599Y-33280D01*
X106741Y-33360D02*
X107585Y-33360D01*
X106725Y-33440D02*
X107572Y-33440D01*
X106708Y-33520D02*
X107559Y-33520D01*
X106692Y-33600D02*
X107545Y-33600D01*
X106676Y-33680D02*
X107532Y-33680D01*
X106660Y-33760D02*
X107519Y-33760D01*
X106644Y-33840D02*
X107505Y-33840D01*
X106628Y-33920D02*
X107492Y-33920D01*
X106612Y-34000D02*
X107479Y-34000D01*
X106596Y-34080D02*
X107465Y-34080D01*
X106580Y-34160D02*
X107452Y-34160D01*
X106564Y-34240D02*
X107439Y-34240D01*
X106548Y-34320D02*
X107425Y-34320D01*
X106531Y-34400D02*
X107412Y-34400D01*
X106515Y-34480D02*
X107399Y-34480D01*
X106499Y-34560D02*
X107385Y-34560D01*
X106483Y-34640D02*
X107372Y-34640D01*
X106467Y-34720D02*
X107359Y-34720D01*
X106451Y-34800D02*
X107345Y-34800D01*
X106435Y-34880D02*
X107332Y-34880D01*
X106419Y-34960D02*
X107319Y-34960D01*
X106403Y-35040D02*
X107305Y-35040D01*
X106387Y-35120D02*
X107292Y-35120D01*
X106371Y-35200D02*
X107279Y-35200D01*
X106355Y-35280D02*
X107265Y-35280D01*
X106393Y-35360D02*
X107252Y-35360D01*
X106440Y-35440D02*
X107220Y-35440D01*
X106487Y-35520D02*
X107142Y-35520D01*
X106534Y-35600D02*
X107065Y-35600D01*
X106791Y-35680D02*
X106987Y-35680D01*
X107760Y-32315D02*
X107243Y-35416D01*
X106962Y-35706D01*
X106561Y-35644D01*
X106352Y-35291D01*
X107080Y-31674D01*
X107080Y-31600D01*
X107760Y-31600D01*
X107760Y-32315D01*
X109050Y-31570D02*
X109735Y-31570D01*
X109050Y-31650D02*
X109743Y-31650D01*
X109050Y-31730D02*
X109752Y-31730D01*
X109050Y-31810D02*
X109760Y-31810D01*
X109050Y-31890D02*
X109769Y-31890D01*
X109050Y-31970D02*
X109778Y-31970D01*
X109050Y-32050D02*
X109786Y-32050D01*
X109050Y-32130D02*
X109795Y-32130D01*
X109050Y-32210D02*
X109803Y-32210D01*
X109050Y-32290D02*
X109812Y-32290D01*
X109055Y-32370D02*
X109821Y-32370D01*
X109060Y-32450D02*
X109829Y-32450D01*
X109066Y-32530D02*
X109838Y-32530D01*
X109072Y-32610D02*
X109846Y-32610D01*
X109077Y-32690D02*
X109855Y-32690D01*
X109083Y-32770D02*
X109864Y-32770D01*
X109089Y-32850D02*
X109872Y-32850D01*
X109094Y-32930D02*
X109881Y-32930D01*
X109100Y-33010D02*
X109890Y-33010D01*
X109106Y-33090D02*
X109898Y-33090D01*
X109111Y-33170D02*
X109907Y-33170D01*
X109117Y-33250D02*
X109915Y-33250D01*
X109123Y-33330D02*
X109924Y-33330D01*
X109128Y-33410D02*
X109933Y-33410D01*
X109134Y-33490D02*
X109941Y-33490D01*
X109140Y-33570D02*
X109950Y-33570D01*
X109145Y-33650D02*
X109958Y-33650D01*
X109151Y-33730D02*
X109967Y-33730D01*
X109157Y-33810D02*
X109976Y-33810D01*
X109162Y-33890D02*
X109984Y-33890D01*
X109168Y-33970D02*
X109993Y-33970D01*
X109174Y-34050D02*
X110001Y-34050D01*
X109179Y-34130D02*
X110010Y-34130D01*
X109185Y-34210D02*
X110019Y-34210D01*
X109191Y-34290D02*
X110027Y-34290D01*
X109196Y-34370D02*
X110036Y-34370D01*
X109202Y-34450D02*
X110044Y-34450D01*
X109208Y-34530D02*
X110053Y-34530D01*
X109213Y-34610D02*
X110062Y-34610D01*
X109219Y-34690D02*
X110070Y-34690D01*
X109225Y-34770D02*
X110079Y-34770D01*
X109230Y-34850D02*
X110088Y-34850D01*
X109236Y-34930D02*
X110096Y-34930D01*
X109242Y-35010D02*
X110105Y-35010D01*
X109247Y-35090D02*
X110113Y-35090D01*
X109253Y-35170D02*
X110122Y-35170D01*
X109259Y-35250D02*
X110131Y-35250D01*
X109264Y-35330D02*
X110139Y-35330D01*
X109270Y-35410D02*
X110148Y-35410D01*
X109276Y-35490D02*
X110156Y-35490D01*
X109281Y-35570D02*
X110165Y-35570D01*
X109287Y-35650D02*
X110174Y-35650D01*
X109293Y-35730D02*
X110182Y-35730D01*
X109299Y-35810D02*
X110191Y-35810D01*
X109304Y-35890D02*
X110199Y-35890D01*
X109310Y-35970D02*
X110208Y-35970D01*
X109316Y-36050D02*
X110217Y-36050D01*
X109321Y-36130D02*
X110225Y-36130D01*
X109327Y-36210D02*
X110234Y-36210D01*
X109333Y-36290D02*
X110240Y-36290D01*
X109338Y-36370D02*
X110213Y-36370D01*
X109378Y-36450D02*
X110139Y-36450D01*
X109420Y-36530D02*
X110066Y-36530D01*
X109752Y-36610D02*
X109993Y-36610D01*
X110240Y-36340D02*
X109952Y-36654D01*
X109423Y-36536D01*
X109339Y-36375D01*
X109050Y-32298D01*
X109050Y-31570D01*
X109735Y-31570D01*
X110240Y-36262D01*
X110240Y-36340D01*
M02*
