G04 (created by PCBNEW-RS274X (2011-12-21 BZR 3253)-stable) date 08/08/2012 23:37:51*
G01*
G70*
G90*
%MOIN*%
G04 Gerber Fmt 3.4, Leading zero omitted, Abs format*
%FSLAX34Y34*%
G04 APERTURE LIST*
%ADD10C,0.006000*%
%ADD11R,0.020000X0.012000*%
%ADD12R,0.012000X0.020000*%
%ADD13R,0.035000X0.055000*%
%ADD14R,0.055000X0.035000*%
%ADD15R,0.025000X0.045000*%
%ADD16R,0.045000X0.025000*%
%ADD17R,0.031400X0.031400*%
%ADD18R,0.020000X0.045000*%
%ADD19R,0.016000X0.060000*%
%ADD20R,0.060000X0.016000*%
%ADD21O,0.078000X0.156000*%
%ADD22R,0.090600X0.078700*%
%ADD23R,0.098400X0.151600*%
%ADD24R,0.080000X0.144000*%
%ADD25R,0.080000X0.040000*%
%ADD26R,0.078700X0.216500*%
G04 APERTURE END LIST*
G54D10*
G54D11*
X33065Y-62250D03*
X33065Y-62750D03*
X33865Y-62250D03*
X33065Y-62500D03*
X33865Y-62750D03*
X34541Y-61364D03*
X34541Y-61864D03*
X35341Y-61364D03*
X34541Y-61614D03*
X35341Y-61864D03*
G54D12*
X36963Y-62297D03*
X36463Y-62297D03*
X36963Y-63097D03*
X36713Y-62297D03*
X36463Y-63097D03*
G54D13*
X22066Y-44980D03*
X22816Y-44980D03*
X26655Y-53937D03*
X25905Y-53937D03*
G54D14*
X25098Y-48406D03*
X25098Y-47656D03*
G54D13*
X30432Y-51575D03*
X31182Y-51575D03*
G54D14*
X25689Y-51495D03*
X25689Y-52245D03*
G54D15*
X23627Y-65846D03*
X23027Y-65846D03*
G54D16*
X26772Y-55507D03*
X26772Y-56107D03*
X31594Y-60733D03*
X31594Y-60133D03*
G54D15*
X31993Y-46161D03*
X31393Y-46161D03*
G54D16*
X36713Y-47150D03*
X36713Y-46550D03*
X38189Y-47150D03*
X38189Y-46550D03*
X33957Y-49217D03*
X33957Y-48617D03*
X33957Y-47436D03*
X33957Y-48036D03*
G54D15*
X30409Y-41043D03*
X31009Y-41043D03*
G54D16*
X30660Y-42379D03*
X30660Y-41779D03*
X30660Y-43058D03*
X30660Y-43658D03*
G54D15*
X34346Y-65748D03*
X34946Y-65748D03*
X36914Y-48031D03*
X36314Y-48031D03*
G54D16*
X35335Y-49995D03*
X35335Y-50595D03*
G54D15*
X34946Y-52067D03*
X34346Y-52067D03*
G54D16*
X34547Y-50586D03*
X34547Y-51186D03*
G54D15*
X34838Y-48622D03*
X35438Y-48622D03*
G54D16*
X34744Y-46550D03*
X34744Y-47150D03*
G54D15*
X31590Y-52559D03*
X32190Y-52559D03*
X31590Y-53346D03*
X32190Y-53346D03*
G54D16*
X26969Y-52859D03*
X26969Y-52259D03*
X27264Y-41629D03*
X27264Y-42229D03*
G54D15*
X21363Y-58268D03*
X20763Y-58268D03*
X28834Y-55709D03*
X29434Y-55709D03*
X21363Y-62008D03*
X20763Y-62008D03*
G54D17*
X25590Y-65846D03*
X25000Y-65846D03*
G54D18*
X28138Y-40536D03*
X28138Y-42636D03*
X28638Y-40536D03*
X29138Y-40536D03*
X29638Y-40536D03*
X28638Y-42636D03*
X29138Y-42636D03*
X29638Y-42636D03*
G54D19*
X27953Y-57986D03*
X27638Y-57986D03*
X27323Y-57986D03*
X27008Y-57986D03*
X26693Y-57986D03*
X26378Y-57986D03*
X28268Y-57986D03*
X28583Y-57986D03*
X28898Y-57986D03*
X29213Y-57986D03*
X29528Y-57986D03*
X27953Y-62486D03*
X27638Y-62486D03*
X27323Y-62486D03*
X27008Y-62486D03*
X26693Y-62486D03*
X26378Y-62486D03*
X28268Y-62486D03*
X28583Y-62486D03*
X28898Y-62486D03*
X29213Y-62486D03*
X29528Y-62486D03*
G54D20*
X25703Y-60236D03*
X30203Y-60236D03*
X25703Y-60551D03*
X30203Y-60551D03*
X30203Y-60866D03*
X25703Y-60866D03*
X25703Y-61181D03*
X30203Y-61181D03*
X30203Y-61496D03*
X25703Y-61496D03*
X25703Y-61811D03*
X30203Y-61811D03*
X30203Y-59921D03*
X25703Y-59921D03*
X25703Y-59606D03*
X30203Y-59606D03*
X30203Y-59291D03*
X25703Y-59291D03*
X25703Y-58976D03*
X30203Y-58976D03*
X30203Y-58661D03*
X25703Y-58661D03*
G54D21*
X23529Y-42421D03*
X21559Y-42421D03*
G54D22*
X26181Y-41083D03*
X26181Y-42775D03*
G54D23*
X28889Y-45041D03*
X27707Y-45041D03*
X27707Y-48959D03*
X28889Y-48959D03*
G54D24*
X27932Y-53543D03*
G54D25*
X30532Y-53543D03*
X30532Y-52643D03*
X30532Y-54443D03*
G54D26*
X22835Y-58288D03*
X22835Y-61988D03*
G54D14*
X35630Y-47225D03*
X35630Y-46475D03*
M02*
