G04 (created by PCBNEW (2011-nov-30)-testing) date ven. 21 sept. 2012 14:12:35 CEST*
%MOIN*%
G04 Gerber Fmt 3.4, Leading zero omitted, Abs format*
%FSLAX34Y34*%
G01*
G70*
G90*
G04 APERTURE LIST*
%ADD10C,0.006*%
%ADD11C,0.0099*%
%ADD12C,0.015*%
%ADD13C,0.005*%
%ADD14C,0.008*%
%ADD15C,0.0045*%
%ADD16C,0.0026*%
%ADD17C,0.004*%
%ADD18C,0.003*%
%ADD19C,0.0059*%
%ADD20C,0.012*%
%ADD21C,0.0094*%
%ADD22C,0.01*%
G04 APERTURE END LIST*
G54D10*
G54D11*
X31693Y-59211D02*
X31749Y-59239D01*
X31843Y-59239D01*
X31881Y-59211D01*
X31899Y-59182D01*
X31918Y-59126D01*
X31918Y-59070D01*
X31899Y-59014D01*
X31881Y-58985D01*
X31843Y-58957D01*
X31768Y-58929D01*
X31731Y-58901D01*
X31712Y-58873D01*
X31693Y-58817D01*
X31693Y-58760D01*
X31712Y-58704D01*
X31731Y-58676D01*
X31768Y-58648D01*
X31862Y-58648D01*
X31918Y-58676D01*
X32368Y-58620D02*
X32031Y-59379D01*
X32500Y-59239D02*
X32500Y-58648D01*
X32725Y-59239D01*
X32725Y-58648D01*
X32913Y-59182D02*
X32932Y-59211D01*
X32913Y-59239D01*
X32894Y-59211D01*
X32913Y-59182D01*
X32913Y-59239D01*
X32913Y-58873D02*
X32932Y-58901D01*
X32913Y-58929D01*
X32894Y-58901D01*
X32913Y-58873D01*
X32913Y-58929D01*
X33588Y-58648D02*
X33401Y-58648D01*
X33382Y-58929D01*
X33401Y-58901D01*
X33438Y-58873D01*
X33532Y-58873D01*
X33570Y-58901D01*
X33588Y-58929D01*
X33607Y-58985D01*
X33607Y-59126D01*
X33588Y-59182D01*
X33570Y-59211D01*
X33532Y-59239D01*
X33438Y-59239D01*
X33401Y-59211D01*
X33382Y-59182D01*
X33795Y-59239D02*
X33870Y-59239D01*
X33907Y-59211D01*
X33926Y-59182D01*
X33963Y-59098D01*
X33982Y-58985D01*
X33982Y-58760D01*
X33963Y-58704D01*
X33945Y-58676D01*
X33907Y-58648D01*
X33832Y-58648D01*
X33795Y-58676D01*
X33776Y-58704D01*
X33757Y-58760D01*
X33757Y-58901D01*
X33776Y-58957D01*
X33795Y-58985D01*
X33832Y-59014D01*
X33907Y-59014D01*
X33945Y-58985D01*
X33963Y-58957D01*
X33982Y-58901D01*
X34207Y-58901D02*
X34170Y-58873D01*
X34151Y-58845D01*
X34132Y-58788D01*
X34132Y-58760D01*
X34151Y-58704D01*
X34170Y-58676D01*
X34207Y-58648D01*
X34282Y-58648D01*
X34320Y-58676D01*
X34338Y-58704D01*
X34357Y-58760D01*
X34357Y-58788D01*
X34338Y-58845D01*
X34320Y-58873D01*
X34282Y-58901D01*
X34207Y-58901D01*
X34170Y-58929D01*
X34151Y-58957D01*
X34132Y-59014D01*
X34132Y-59126D01*
X34151Y-59182D01*
X34170Y-59211D01*
X34207Y-59239D01*
X34282Y-59239D01*
X34320Y-59211D01*
X34338Y-59182D01*
X34357Y-59126D01*
X34357Y-59014D01*
X34338Y-58957D01*
X34320Y-58929D01*
X34282Y-58901D01*
X34507Y-58704D02*
X34526Y-58676D01*
X34563Y-58648D01*
X34657Y-58648D01*
X34695Y-58676D01*
X34713Y-58704D01*
X34732Y-58760D01*
X34732Y-58817D01*
X34713Y-58901D01*
X34488Y-59239D01*
X34732Y-59239D01*
X34863Y-58648D02*
X35126Y-58648D01*
X34957Y-59239D01*
G54D12*
X39400Y-72675D02*
X39400Y-39925D01*
X19700Y-39375D02*
X19700Y-39400D01*
X41300Y-39375D02*
X19700Y-39375D01*
X41300Y-73225D02*
X41300Y-39375D01*
X39375Y-73225D02*
X41300Y-73225D01*
G54D13*
X26763Y-40491D02*
X26751Y-40514D01*
X26751Y-40550D01*
X26763Y-40586D01*
X26787Y-40610D01*
X26811Y-40621D01*
X26858Y-40633D01*
X26894Y-40633D01*
X26942Y-40621D01*
X26965Y-40610D01*
X26989Y-40586D01*
X27001Y-40550D01*
X27001Y-40526D01*
X26989Y-40491D01*
X26977Y-40479D01*
X26894Y-40479D01*
X26894Y-40526D01*
X27001Y-40371D02*
X26751Y-40371D01*
X27001Y-40229D01*
X26751Y-40229D01*
X27001Y-40109D02*
X26751Y-40109D01*
X26751Y-40050D01*
X26763Y-40014D01*
X26787Y-39990D01*
X26811Y-39979D01*
X26858Y-39967D01*
X26894Y-39967D01*
X26942Y-39979D01*
X26965Y-39990D01*
X26989Y-40014D01*
X27001Y-40050D01*
X27001Y-40109D01*
X20801Y-40543D02*
X20801Y-40685D01*
X20801Y-40614D02*
X20551Y-40614D01*
X20587Y-40638D01*
X20611Y-40662D01*
X20623Y-40685D01*
X20575Y-40447D02*
X20563Y-40435D01*
X20551Y-40412D01*
X20551Y-40352D01*
X20563Y-40328D01*
X20575Y-40316D01*
X20599Y-40305D01*
X20623Y-40305D01*
X20658Y-40316D01*
X20801Y-40459D01*
X20801Y-40305D01*
X20635Y-40221D02*
X20801Y-40162D01*
X20635Y-40102D01*
G54D14*
X28155Y-56962D02*
X28155Y-56562D01*
X28327Y-56962D02*
X28327Y-56752D01*
X28308Y-56714D01*
X28270Y-56695D01*
X28212Y-56695D01*
X28174Y-56714D01*
X28155Y-56733D01*
X28574Y-56962D02*
X28536Y-56943D01*
X28517Y-56924D01*
X28498Y-56886D01*
X28498Y-56771D01*
X28517Y-56733D01*
X28536Y-56714D01*
X28574Y-56695D01*
X28632Y-56695D01*
X28670Y-56714D01*
X28689Y-56733D01*
X28708Y-56771D01*
X28708Y-56886D01*
X28689Y-56924D01*
X28670Y-56943D01*
X28632Y-56962D01*
X28574Y-56962D01*
X28879Y-56962D02*
X28879Y-56695D01*
X28879Y-56733D02*
X28898Y-56714D01*
X28936Y-56695D01*
X28994Y-56695D01*
X29032Y-56714D01*
X29051Y-56752D01*
X29051Y-56962D01*
X29051Y-56752D02*
X29070Y-56714D01*
X29108Y-56695D01*
X29165Y-56695D01*
X29203Y-56714D01*
X29222Y-56752D01*
X29222Y-56962D01*
X29565Y-56943D02*
X29527Y-56962D01*
X29450Y-56962D01*
X29412Y-56943D01*
X29393Y-56905D01*
X29393Y-56752D01*
X29412Y-56714D01*
X29450Y-56695D01*
X29527Y-56695D01*
X29565Y-56714D01*
X29584Y-56752D01*
X29584Y-56790D01*
X29393Y-56829D01*
X30232Y-56962D02*
X30232Y-56752D01*
X30213Y-56714D01*
X30175Y-56695D01*
X30098Y-56695D01*
X30060Y-56714D01*
X30232Y-56943D02*
X30194Y-56962D01*
X30098Y-56962D01*
X30060Y-56943D01*
X30041Y-56905D01*
X30041Y-56867D01*
X30060Y-56829D01*
X30098Y-56810D01*
X30194Y-56810D01*
X30232Y-56790D01*
X30594Y-56695D02*
X30594Y-56962D01*
X30422Y-56695D02*
X30422Y-56905D01*
X30441Y-56943D01*
X30479Y-56962D01*
X30537Y-56962D01*
X30575Y-56943D01*
X30594Y-56924D01*
X30727Y-56695D02*
X30879Y-56695D01*
X30784Y-56562D02*
X30784Y-56905D01*
X30803Y-56943D01*
X30841Y-56962D01*
X30879Y-56962D01*
X31070Y-56962D02*
X31032Y-56943D01*
X31013Y-56924D01*
X30994Y-56886D01*
X30994Y-56771D01*
X31013Y-56733D01*
X31032Y-56714D01*
X31070Y-56695D01*
X31128Y-56695D01*
X31166Y-56714D01*
X31185Y-56733D01*
X31204Y-56771D01*
X31204Y-56886D01*
X31185Y-56924D01*
X31166Y-56943D01*
X31128Y-56962D01*
X31070Y-56962D01*
X31375Y-56962D02*
X31375Y-56695D01*
X31375Y-56733D02*
X31394Y-56714D01*
X31432Y-56695D01*
X31490Y-56695D01*
X31528Y-56714D01*
X31547Y-56752D01*
X31547Y-56962D01*
X31547Y-56752D02*
X31566Y-56714D01*
X31604Y-56695D01*
X31661Y-56695D01*
X31699Y-56714D01*
X31718Y-56752D01*
X31718Y-56962D01*
X32080Y-56962D02*
X32080Y-56752D01*
X32061Y-56714D01*
X32023Y-56695D01*
X31946Y-56695D01*
X31908Y-56714D01*
X32080Y-56943D02*
X32042Y-56962D01*
X31946Y-56962D01*
X31908Y-56943D01*
X31889Y-56905D01*
X31889Y-56867D01*
X31908Y-56829D01*
X31946Y-56810D01*
X32042Y-56810D01*
X32080Y-56790D01*
X32213Y-56695D02*
X32365Y-56695D01*
X32270Y-56562D02*
X32270Y-56905D01*
X32289Y-56943D01*
X32327Y-56962D01*
X32365Y-56962D01*
X32499Y-56962D02*
X32499Y-56695D01*
X32499Y-56562D02*
X32480Y-56581D01*
X32499Y-56600D01*
X32518Y-56581D01*
X32499Y-56562D01*
X32499Y-56600D01*
X32746Y-56962D02*
X32708Y-56943D01*
X32689Y-56924D01*
X32670Y-56886D01*
X32670Y-56771D01*
X32689Y-56733D01*
X32708Y-56714D01*
X32746Y-56695D01*
X32804Y-56695D01*
X32842Y-56714D01*
X32861Y-56733D01*
X32880Y-56771D01*
X32880Y-56886D01*
X32861Y-56924D01*
X32842Y-56943D01*
X32804Y-56962D01*
X32746Y-56962D01*
X33051Y-56695D02*
X33051Y-56962D01*
X33051Y-56733D02*
X33070Y-56714D01*
X33108Y-56695D01*
X33166Y-56695D01*
X33204Y-56714D01*
X33223Y-56752D01*
X33223Y-56962D01*
X33890Y-56943D02*
X33852Y-56962D01*
X33775Y-56962D01*
X33737Y-56943D01*
X33718Y-56924D01*
X33699Y-56886D01*
X33699Y-56771D01*
X33718Y-56733D01*
X33737Y-56714D01*
X33775Y-56695D01*
X33852Y-56695D01*
X33890Y-56714D01*
X34118Y-56962D02*
X34080Y-56943D01*
X34061Y-56924D01*
X34042Y-56886D01*
X34042Y-56771D01*
X34061Y-56733D01*
X34080Y-56714D01*
X34118Y-56695D01*
X34176Y-56695D01*
X34214Y-56714D01*
X34233Y-56733D01*
X34252Y-56771D01*
X34252Y-56886D01*
X34233Y-56924D01*
X34214Y-56943D01*
X34176Y-56962D01*
X34118Y-56962D01*
X34423Y-56695D02*
X34423Y-56962D01*
X34423Y-56733D02*
X34442Y-56714D01*
X34480Y-56695D01*
X34538Y-56695D01*
X34576Y-56714D01*
X34595Y-56752D01*
X34595Y-56962D01*
X34728Y-56695D02*
X34880Y-56695D01*
X34785Y-56562D02*
X34785Y-56905D01*
X34804Y-56943D01*
X34842Y-56962D01*
X34880Y-56962D01*
X35014Y-56962D02*
X35014Y-56695D01*
X35014Y-56771D02*
X35033Y-56733D01*
X35052Y-56714D01*
X35090Y-56695D01*
X35129Y-56695D01*
X35319Y-56962D02*
X35281Y-56943D01*
X35262Y-56924D01*
X35243Y-56886D01*
X35243Y-56771D01*
X35262Y-56733D01*
X35281Y-56714D01*
X35319Y-56695D01*
X35377Y-56695D01*
X35415Y-56714D01*
X35434Y-56733D01*
X35453Y-56771D01*
X35453Y-56886D01*
X35434Y-56924D01*
X35415Y-56943D01*
X35377Y-56962D01*
X35319Y-56962D01*
X35681Y-56962D02*
X35643Y-56943D01*
X35624Y-56905D01*
X35624Y-56562D01*
X35891Y-56962D02*
X35853Y-56943D01*
X35834Y-56905D01*
X35834Y-56562D01*
X36197Y-56943D02*
X36159Y-56962D01*
X36082Y-56962D01*
X36044Y-56943D01*
X36025Y-56905D01*
X36025Y-56752D01*
X36044Y-56714D01*
X36082Y-56695D01*
X36159Y-56695D01*
X36197Y-56714D01*
X36216Y-56752D01*
X36216Y-56790D01*
X36025Y-56829D01*
X36387Y-56962D02*
X36387Y-56695D01*
X36387Y-56771D02*
X36406Y-56733D01*
X36425Y-56714D01*
X36463Y-56695D01*
X36502Y-56695D01*
X31729Y-57335D02*
X31824Y-57602D01*
X31920Y-57335D01*
X32148Y-57202D02*
X32187Y-57202D01*
X32225Y-57221D01*
X32244Y-57240D01*
X32263Y-57278D01*
X32282Y-57354D01*
X32282Y-57450D01*
X32263Y-57526D01*
X32244Y-57564D01*
X32225Y-57583D01*
X32187Y-57602D01*
X32148Y-57602D01*
X32110Y-57583D01*
X32091Y-57564D01*
X32072Y-57526D01*
X32053Y-57450D01*
X32053Y-57354D01*
X32072Y-57278D01*
X32091Y-57240D01*
X32110Y-57221D01*
X32148Y-57202D01*
X32453Y-57564D02*
X32472Y-57583D01*
X32453Y-57602D01*
X32434Y-57583D01*
X32453Y-57564D01*
X32453Y-57602D01*
X32719Y-57202D02*
X32758Y-57202D01*
X32796Y-57221D01*
X32815Y-57240D01*
X32834Y-57278D01*
X32853Y-57354D01*
X32853Y-57450D01*
X32834Y-57526D01*
X32815Y-57564D01*
X32796Y-57583D01*
X32758Y-57602D01*
X32719Y-57602D01*
X32681Y-57583D01*
X32662Y-57564D01*
X32643Y-57526D01*
X32624Y-57450D01*
X32624Y-57354D01*
X32643Y-57278D01*
X32662Y-57240D01*
X32681Y-57221D01*
X32719Y-57202D01*
X20589Y-53705D02*
X20589Y-53438D01*
X20589Y-53305D02*
X20570Y-53324D01*
X20589Y-53343D01*
X20608Y-53324D01*
X20589Y-53305D01*
X20589Y-53343D01*
X20760Y-53343D02*
X20779Y-53324D01*
X20817Y-53305D01*
X20913Y-53305D01*
X20951Y-53324D01*
X20970Y-53343D01*
X20989Y-53381D01*
X20989Y-53419D01*
X20970Y-53476D01*
X20741Y-53705D01*
X20989Y-53705D01*
X21332Y-53686D02*
X21294Y-53705D01*
X21217Y-53705D01*
X21179Y-53686D01*
X21160Y-53667D01*
X21141Y-53629D01*
X21141Y-53514D01*
X21160Y-53476D01*
X21179Y-53457D01*
X21217Y-53438D01*
X21294Y-53438D01*
X21332Y-53457D01*
X21808Y-53438D02*
X21808Y-53838D01*
X21808Y-53457D02*
X21846Y-53438D01*
X21923Y-53438D01*
X21961Y-53457D01*
X21980Y-53476D01*
X21999Y-53514D01*
X21999Y-53629D01*
X21980Y-53667D01*
X21961Y-53686D01*
X21923Y-53705D01*
X21846Y-53705D01*
X21808Y-53686D01*
X22227Y-53705D02*
X22189Y-53686D01*
X22170Y-53667D01*
X22151Y-53629D01*
X22151Y-53514D01*
X22170Y-53476D01*
X22189Y-53457D01*
X22227Y-53438D01*
X22285Y-53438D01*
X22323Y-53457D01*
X22342Y-53476D01*
X22361Y-53514D01*
X22361Y-53629D01*
X22342Y-53667D01*
X22323Y-53686D01*
X22285Y-53705D01*
X22227Y-53705D01*
X22532Y-53705D02*
X22532Y-53438D01*
X22532Y-53514D02*
X22551Y-53476D01*
X22570Y-53457D01*
X22608Y-53438D01*
X22647Y-53438D01*
X22723Y-53438D02*
X22875Y-53438D01*
X22780Y-53305D02*
X22780Y-53648D01*
X22799Y-53686D01*
X22837Y-53705D01*
X22875Y-53705D01*
X23524Y-53705D02*
X23295Y-53705D01*
X23409Y-53705D02*
X23409Y-53305D01*
X23371Y-53362D01*
X23333Y-53400D01*
X23295Y-53419D01*
G54D15*
X22004Y-65042D02*
X21944Y-64947D01*
X21901Y-65042D02*
X21901Y-64842D01*
X21969Y-64842D01*
X21987Y-64851D01*
X21995Y-64861D01*
X22004Y-64880D01*
X22004Y-64909D01*
X21995Y-64928D01*
X21987Y-64937D01*
X21969Y-64947D01*
X21901Y-64947D01*
X22055Y-64842D02*
X22158Y-64842D01*
X22107Y-65042D02*
X22107Y-64842D01*
X22209Y-65032D02*
X22235Y-65042D01*
X22278Y-65042D01*
X22295Y-65032D01*
X22304Y-65023D01*
X22312Y-65004D01*
X22312Y-64985D01*
X22304Y-64966D01*
X22295Y-64956D01*
X22278Y-64947D01*
X22244Y-64937D01*
X22226Y-64928D01*
X22218Y-64918D01*
X22209Y-64899D01*
X22209Y-64880D01*
X22218Y-64861D01*
X22226Y-64851D01*
X22244Y-64842D01*
X22286Y-64842D01*
X22312Y-64851D01*
X22629Y-65042D02*
X22569Y-64947D01*
X22526Y-65042D02*
X22526Y-64842D01*
X22594Y-64842D01*
X22612Y-64851D01*
X22620Y-64861D01*
X22629Y-64880D01*
X22629Y-64909D01*
X22620Y-64928D01*
X22612Y-64937D01*
X22594Y-64947D01*
X22526Y-64947D01*
X22774Y-65032D02*
X22757Y-65042D01*
X22723Y-65042D01*
X22706Y-65032D01*
X22697Y-65013D01*
X22697Y-64937D01*
X22706Y-64918D01*
X22723Y-64909D01*
X22757Y-64909D01*
X22774Y-64918D01*
X22783Y-64937D01*
X22783Y-64956D01*
X22697Y-64975D01*
X22851Y-65032D02*
X22868Y-65042D01*
X22903Y-65042D01*
X22920Y-65032D01*
X22928Y-65013D01*
X22928Y-65004D01*
X22920Y-64985D01*
X22903Y-64975D01*
X22877Y-64975D01*
X22860Y-64966D01*
X22851Y-64947D01*
X22851Y-64937D01*
X22860Y-64918D01*
X22877Y-64909D01*
X22903Y-64909D01*
X22920Y-64918D01*
X23074Y-65032D02*
X23057Y-65042D01*
X23023Y-65042D01*
X23006Y-65032D01*
X22997Y-65013D01*
X22997Y-64937D01*
X23006Y-64918D01*
X23023Y-64909D01*
X23057Y-64909D01*
X23074Y-64918D01*
X23083Y-64937D01*
X23083Y-64956D01*
X22997Y-64975D01*
X23134Y-64909D02*
X23203Y-64909D01*
X23160Y-64842D02*
X23160Y-65013D01*
X23168Y-65032D01*
X23186Y-65042D01*
X23203Y-65042D01*
X27127Y-65047D02*
X27110Y-65038D01*
X27084Y-65038D01*
X27059Y-65047D01*
X27041Y-65067D01*
X27033Y-65086D01*
X27024Y-65124D01*
X27024Y-65152D01*
X27033Y-65190D01*
X27041Y-65209D01*
X27059Y-65228D01*
X27084Y-65238D01*
X27101Y-65238D01*
X27127Y-65228D01*
X27136Y-65219D01*
X27136Y-65152D01*
X27101Y-65152D01*
X27213Y-65238D02*
X27213Y-65038D01*
X27316Y-65238D01*
X27316Y-65038D01*
X27402Y-65238D02*
X27402Y-65038D01*
X27445Y-65038D01*
X27470Y-65047D01*
X27488Y-65067D01*
X27496Y-65086D01*
X27505Y-65124D01*
X27505Y-65152D01*
X27496Y-65190D01*
X27488Y-65209D01*
X27470Y-65228D01*
X27445Y-65238D01*
X27402Y-65238D01*
X31064Y-65047D02*
X31047Y-65038D01*
X31021Y-65038D01*
X30996Y-65047D01*
X30978Y-65067D01*
X30970Y-65086D01*
X30961Y-65124D01*
X30961Y-65152D01*
X30970Y-65190D01*
X30978Y-65209D01*
X30996Y-65228D01*
X31021Y-65238D01*
X31038Y-65238D01*
X31064Y-65228D01*
X31073Y-65219D01*
X31073Y-65152D01*
X31038Y-65152D01*
X31150Y-65238D02*
X31150Y-65038D01*
X31253Y-65238D01*
X31253Y-65038D01*
X31339Y-65238D02*
X31339Y-65038D01*
X31382Y-65038D01*
X31407Y-65047D01*
X31425Y-65067D01*
X31433Y-65086D01*
X31442Y-65124D01*
X31442Y-65152D01*
X31433Y-65190D01*
X31425Y-65209D01*
X31407Y-65228D01*
X31382Y-65238D01*
X31339Y-65238D01*
X28971Y-65238D02*
X28911Y-65143D01*
X28868Y-65238D02*
X28868Y-65038D01*
X28936Y-65038D01*
X28954Y-65047D01*
X28962Y-65057D01*
X28971Y-65076D01*
X28971Y-65105D01*
X28962Y-65124D01*
X28954Y-65133D01*
X28936Y-65143D01*
X28868Y-65143D01*
X29048Y-65133D02*
X29108Y-65133D01*
X29134Y-65238D02*
X29048Y-65238D01*
X29048Y-65038D01*
X29134Y-65038D01*
X29202Y-65228D02*
X29228Y-65238D01*
X29271Y-65238D01*
X29288Y-65228D01*
X29297Y-65219D01*
X29305Y-65200D01*
X29305Y-65181D01*
X29297Y-65162D01*
X29288Y-65152D01*
X29271Y-65143D01*
X29237Y-65133D01*
X29219Y-65124D01*
X29211Y-65114D01*
X29202Y-65095D01*
X29202Y-65076D01*
X29211Y-65057D01*
X29219Y-65047D01*
X29237Y-65038D01*
X29279Y-65038D01*
X29305Y-65047D01*
X29382Y-65133D02*
X29442Y-65133D01*
X29468Y-65238D02*
X29382Y-65238D01*
X29382Y-65038D01*
X29468Y-65038D01*
X29519Y-65038D02*
X29622Y-65038D01*
X29571Y-65238D02*
X29571Y-65038D01*
X28223Y-65038D02*
X28137Y-65038D01*
X28128Y-65133D01*
X28137Y-65124D01*
X28154Y-65114D01*
X28197Y-65114D01*
X28214Y-65124D01*
X28223Y-65133D01*
X28231Y-65152D01*
X28231Y-65200D01*
X28223Y-65219D01*
X28214Y-65228D01*
X28197Y-65238D01*
X28154Y-65238D01*
X28137Y-65228D01*
X28128Y-65219D01*
X28291Y-65105D02*
X28334Y-65238D01*
X28376Y-65105D01*
X27033Y-67598D02*
X27136Y-67598D01*
X27085Y-67798D02*
X27085Y-67598D01*
X27299Y-67779D02*
X27290Y-67788D01*
X27264Y-67798D01*
X27247Y-67798D01*
X27222Y-67788D01*
X27204Y-67769D01*
X27196Y-67750D01*
X27187Y-67712D01*
X27187Y-67684D01*
X27196Y-67646D01*
X27204Y-67627D01*
X27222Y-67607D01*
X27247Y-67598D01*
X27264Y-67598D01*
X27290Y-67607D01*
X27299Y-67617D01*
X27376Y-67798D02*
X27376Y-67598D01*
X27479Y-67798D02*
X27402Y-67684D01*
X27479Y-67598D02*
X27376Y-67712D01*
X28012Y-67598D02*
X28115Y-67598D01*
X28064Y-67798D02*
X28064Y-67598D01*
X28175Y-67798D02*
X28175Y-67598D01*
X28218Y-67598D01*
X28243Y-67607D01*
X28261Y-67627D01*
X28269Y-67646D01*
X28278Y-67684D01*
X28278Y-67712D01*
X28269Y-67750D01*
X28261Y-67769D01*
X28243Y-67788D01*
X28218Y-67798D01*
X28175Y-67798D01*
X28389Y-67598D02*
X28423Y-67598D01*
X28441Y-67607D01*
X28458Y-67627D01*
X28466Y-67665D01*
X28466Y-67731D01*
X28458Y-67769D01*
X28441Y-67788D01*
X28423Y-67798D01*
X28389Y-67798D01*
X28372Y-67788D01*
X28355Y-67769D01*
X28346Y-67731D01*
X28346Y-67665D01*
X28355Y-67627D01*
X28372Y-67607D01*
X28389Y-67598D01*
X28992Y-67598D02*
X29095Y-67598D01*
X29044Y-67798D02*
X29044Y-67598D01*
X29155Y-67798D02*
X29155Y-67598D01*
X29215Y-67741D01*
X29275Y-67598D01*
X29275Y-67798D01*
X29352Y-67788D02*
X29378Y-67798D01*
X29421Y-67798D01*
X29438Y-67788D01*
X29447Y-67779D01*
X29455Y-67760D01*
X29455Y-67741D01*
X29447Y-67722D01*
X29438Y-67712D01*
X29421Y-67703D01*
X29387Y-67693D01*
X29369Y-67684D01*
X29361Y-67674D01*
X29352Y-67655D01*
X29352Y-67636D01*
X29361Y-67617D01*
X29369Y-67607D01*
X29387Y-67598D01*
X29429Y-67598D01*
X29455Y-67607D01*
X31017Y-67598D02*
X31120Y-67598D01*
X31069Y-67798D02*
X31069Y-67598D01*
X31180Y-67798D02*
X31180Y-67598D01*
X31223Y-67598D01*
X31248Y-67607D01*
X31266Y-67627D01*
X31274Y-67646D01*
X31283Y-67684D01*
X31283Y-67712D01*
X31274Y-67750D01*
X31266Y-67769D01*
X31248Y-67788D01*
X31223Y-67798D01*
X31180Y-67798D01*
X31360Y-67798D02*
X31360Y-67598D01*
X30192Y-67598D02*
X30106Y-67598D01*
X30097Y-67693D01*
X30106Y-67684D01*
X30123Y-67674D01*
X30166Y-67674D01*
X30183Y-67684D01*
X30192Y-67693D01*
X30200Y-67712D01*
X30200Y-67760D01*
X30192Y-67779D01*
X30183Y-67788D01*
X30166Y-67798D01*
X30123Y-67798D01*
X30106Y-67788D01*
X30097Y-67779D01*
X30260Y-67665D02*
X30303Y-67798D01*
X30345Y-67665D01*
X29292Y-63276D02*
X29275Y-63267D01*
X29249Y-63267D01*
X29224Y-63276D01*
X29206Y-63296D01*
X29198Y-63315D01*
X29189Y-63353D01*
X29189Y-63381D01*
X29198Y-63419D01*
X29206Y-63438D01*
X29224Y-63457D01*
X29249Y-63467D01*
X29266Y-63467D01*
X29292Y-63457D01*
X29301Y-63448D01*
X29301Y-63381D01*
X29266Y-63381D01*
X29378Y-63467D02*
X29378Y-63267D01*
X29481Y-63467D01*
X29481Y-63267D01*
X29567Y-63467D02*
X29567Y-63267D01*
X29610Y-63267D01*
X29635Y-63276D01*
X29653Y-63296D01*
X29661Y-63315D01*
X29670Y-63353D01*
X29670Y-63381D01*
X29661Y-63419D01*
X29653Y-63438D01*
X29635Y-63457D01*
X29610Y-63467D01*
X29567Y-63467D01*
X27928Y-63267D02*
X27842Y-63267D01*
X27833Y-63362D01*
X27842Y-63353D01*
X27859Y-63343D01*
X27902Y-63343D01*
X27919Y-63353D01*
X27928Y-63362D01*
X27936Y-63381D01*
X27936Y-63429D01*
X27928Y-63448D01*
X27919Y-63457D01*
X27902Y-63467D01*
X27859Y-63467D01*
X27842Y-63457D01*
X27833Y-63448D01*
X27996Y-63334D02*
X28039Y-63467D01*
X28081Y-63334D01*
X24902Y-63467D02*
X24842Y-63372D01*
X24799Y-63467D02*
X24799Y-63267D01*
X24867Y-63267D01*
X24885Y-63276D01*
X24893Y-63286D01*
X24902Y-63305D01*
X24902Y-63334D01*
X24893Y-63353D01*
X24885Y-63362D01*
X24867Y-63372D01*
X24799Y-63372D01*
X24953Y-63267D02*
X25056Y-63267D01*
X25005Y-63467D02*
X25005Y-63267D01*
X25107Y-63457D02*
X25133Y-63467D01*
X25176Y-63467D01*
X25193Y-63457D01*
X25202Y-63448D01*
X25210Y-63429D01*
X25210Y-63410D01*
X25202Y-63391D01*
X25193Y-63381D01*
X25176Y-63372D01*
X25142Y-63362D01*
X25124Y-63353D01*
X25116Y-63343D01*
X25107Y-63324D01*
X25107Y-63305D01*
X25116Y-63286D01*
X25124Y-63276D01*
X25142Y-63267D01*
X25184Y-63267D01*
X25210Y-63276D01*
X26940Y-63467D02*
X26880Y-63372D01*
X26837Y-63467D02*
X26837Y-63267D01*
X26905Y-63267D01*
X26923Y-63276D01*
X26931Y-63286D01*
X26940Y-63305D01*
X26940Y-63334D01*
X26931Y-63353D01*
X26923Y-63362D01*
X26905Y-63372D01*
X26837Y-63372D01*
X27000Y-63267D02*
X27120Y-63467D01*
X27120Y-63267D02*
X27000Y-63467D01*
X25847Y-63267D02*
X25950Y-63267D01*
X25899Y-63467D02*
X25899Y-63267D01*
X25993Y-63267D02*
X26113Y-63467D01*
X26113Y-63267D02*
X25993Y-63467D01*
G54D13*
X22837Y-55978D02*
X22587Y-55978D01*
X22813Y-55717D02*
X22825Y-55729D01*
X22837Y-55764D01*
X22837Y-55788D01*
X22825Y-55824D01*
X22801Y-55848D01*
X22778Y-55859D01*
X22730Y-55871D01*
X22694Y-55871D01*
X22647Y-55859D01*
X22623Y-55848D01*
X22599Y-55824D01*
X22587Y-55788D01*
X22587Y-55764D01*
X22599Y-55729D01*
X22611Y-55717D01*
X22825Y-55621D02*
X22837Y-55586D01*
X22837Y-55526D01*
X22825Y-55502D01*
X22813Y-55490D01*
X22790Y-55479D01*
X22766Y-55479D01*
X22742Y-55490D01*
X22730Y-55502D01*
X22718Y-55526D01*
X22706Y-55574D01*
X22694Y-55598D01*
X22682Y-55609D01*
X22659Y-55621D01*
X22635Y-55621D01*
X22611Y-55609D01*
X22599Y-55598D01*
X22587Y-55574D01*
X22587Y-55514D01*
X22599Y-55479D01*
X22837Y-55371D02*
X22587Y-55371D01*
X22587Y-55276D01*
X22599Y-55252D01*
X22611Y-55241D01*
X22635Y-55229D01*
X22671Y-55229D01*
X22694Y-55241D01*
X22706Y-55252D01*
X22718Y-55276D01*
X22718Y-55371D01*
G54D15*
X26463Y-54490D02*
X26446Y-54481D01*
X26420Y-54481D01*
X26395Y-54490D01*
X26377Y-54510D01*
X26369Y-54529D01*
X26360Y-54567D01*
X26360Y-54595D01*
X26369Y-54633D01*
X26377Y-54652D01*
X26395Y-54671D01*
X26420Y-54681D01*
X26437Y-54681D01*
X26463Y-54671D01*
X26472Y-54662D01*
X26472Y-54595D01*
X26437Y-54595D01*
X26549Y-54681D02*
X26549Y-54481D01*
X26652Y-54681D01*
X26652Y-54481D01*
X26738Y-54681D02*
X26738Y-54481D01*
X26781Y-54481D01*
X26806Y-54490D01*
X26824Y-54510D01*
X26832Y-54529D01*
X26841Y-54567D01*
X26841Y-54595D01*
X26832Y-54633D01*
X26824Y-54652D01*
X26806Y-54671D01*
X26781Y-54681D01*
X26738Y-54681D01*
X25428Y-57069D02*
X25368Y-56974D01*
X25325Y-57069D02*
X25325Y-56869D01*
X25393Y-56869D01*
X25411Y-56878D01*
X25419Y-56888D01*
X25428Y-56907D01*
X25428Y-56936D01*
X25419Y-56955D01*
X25411Y-56964D01*
X25393Y-56974D01*
X25325Y-56974D01*
X25505Y-56964D02*
X25565Y-56964D01*
X25591Y-57069D02*
X25505Y-57069D01*
X25505Y-56869D01*
X25591Y-56869D01*
X25659Y-57059D02*
X25685Y-57069D01*
X25728Y-57069D01*
X25745Y-57059D01*
X25754Y-57050D01*
X25762Y-57031D01*
X25762Y-57012D01*
X25754Y-56993D01*
X25745Y-56983D01*
X25728Y-56974D01*
X25694Y-56964D01*
X25676Y-56955D01*
X25668Y-56945D01*
X25659Y-56926D01*
X25659Y-56907D01*
X25668Y-56888D01*
X25676Y-56878D01*
X25694Y-56869D01*
X25736Y-56869D01*
X25762Y-56878D01*
X25839Y-56964D02*
X25899Y-56964D01*
X25925Y-57069D02*
X25839Y-57069D01*
X25839Y-56869D01*
X25925Y-56869D01*
X25976Y-56869D02*
X26079Y-56869D01*
X26028Y-57069D02*
X26028Y-56869D01*
X23437Y-57069D02*
X23437Y-56869D01*
X23497Y-57012D01*
X23557Y-56869D01*
X23557Y-57069D01*
X23643Y-57069D02*
X23643Y-56869D01*
X23720Y-57059D02*
X23746Y-57069D01*
X23789Y-57069D01*
X23806Y-57059D01*
X23815Y-57050D01*
X23823Y-57031D01*
X23823Y-57012D01*
X23815Y-56993D01*
X23806Y-56983D01*
X23789Y-56974D01*
X23755Y-56964D01*
X23737Y-56955D01*
X23729Y-56945D01*
X23720Y-56926D01*
X23720Y-56907D01*
X23729Y-56888D01*
X23737Y-56878D01*
X23755Y-56869D01*
X23797Y-56869D01*
X23823Y-56878D01*
X23934Y-56869D02*
X23968Y-56869D01*
X23986Y-56878D01*
X24003Y-56898D01*
X24011Y-56936D01*
X24011Y-57002D01*
X24003Y-57040D01*
X23986Y-57059D01*
X23968Y-57069D01*
X23934Y-57069D01*
X23917Y-57059D01*
X23900Y-57040D01*
X23891Y-57002D01*
X23891Y-56936D01*
X23900Y-56898D01*
X23917Y-56878D01*
X23934Y-56869D01*
X23695Y-54212D02*
X23609Y-54212D01*
X23600Y-54307D01*
X23609Y-54298D01*
X23626Y-54288D01*
X23669Y-54288D01*
X23686Y-54298D01*
X23695Y-54307D01*
X23703Y-54326D01*
X23703Y-54374D01*
X23695Y-54393D01*
X23686Y-54402D01*
X23669Y-54412D01*
X23626Y-54412D01*
X23609Y-54402D01*
X23600Y-54393D01*
X23763Y-54279D02*
X23806Y-54412D01*
X23848Y-54279D01*
X24422Y-54412D02*
X24422Y-54212D01*
X24482Y-54355D01*
X24542Y-54212D01*
X24542Y-54412D01*
X24662Y-54212D02*
X24696Y-54212D01*
X24714Y-54221D01*
X24731Y-54241D01*
X24739Y-54279D01*
X24739Y-54345D01*
X24731Y-54383D01*
X24714Y-54402D01*
X24696Y-54412D01*
X24662Y-54412D01*
X24645Y-54402D01*
X24628Y-54383D01*
X24619Y-54345D01*
X24619Y-54279D01*
X24628Y-54241D01*
X24645Y-54221D01*
X24662Y-54212D01*
X24808Y-54402D02*
X24834Y-54412D01*
X24877Y-54412D01*
X24894Y-54402D01*
X24903Y-54393D01*
X24911Y-54374D01*
X24911Y-54355D01*
X24903Y-54336D01*
X24894Y-54326D01*
X24877Y-54317D01*
X24843Y-54307D01*
X24825Y-54298D01*
X24817Y-54288D01*
X24808Y-54269D01*
X24808Y-54250D01*
X24817Y-54231D01*
X24825Y-54221D01*
X24843Y-54212D01*
X24885Y-54212D01*
X24911Y-54221D01*
X24988Y-54412D02*
X24988Y-54212D01*
G54D13*
X24659Y-44263D02*
X24636Y-44251D01*
X24600Y-44251D01*
X24564Y-44263D01*
X24540Y-44287D01*
X24529Y-44311D01*
X24517Y-44358D01*
X24517Y-44394D01*
X24529Y-44442D01*
X24540Y-44465D01*
X24564Y-44489D01*
X24600Y-44501D01*
X24624Y-44501D01*
X24659Y-44489D01*
X24671Y-44477D01*
X24671Y-44394D01*
X24624Y-44394D01*
X24779Y-44501D02*
X24779Y-44251D01*
X24921Y-44501D01*
X24921Y-44251D01*
X25041Y-44501D02*
X25041Y-44251D01*
X25100Y-44251D01*
X25136Y-44263D01*
X25160Y-44287D01*
X25171Y-44311D01*
X25183Y-44358D01*
X25183Y-44394D01*
X25171Y-44442D01*
X25160Y-44465D01*
X25136Y-44489D01*
X25100Y-44501D01*
X25041Y-44501D01*
X22707Y-44501D02*
X22565Y-44501D01*
X22636Y-44501D02*
X22636Y-44251D01*
X22612Y-44287D01*
X22588Y-44311D01*
X22565Y-44323D01*
X22803Y-44275D02*
X22815Y-44263D01*
X22838Y-44251D01*
X22898Y-44251D01*
X22922Y-44263D01*
X22934Y-44275D01*
X22945Y-44299D01*
X22945Y-44323D01*
X22934Y-44358D01*
X22791Y-44501D01*
X22945Y-44501D01*
X23029Y-44335D02*
X23088Y-44501D01*
X23148Y-44335D01*
G54D14*
X27936Y-68355D02*
X28127Y-68355D01*
X27898Y-68469D02*
X28031Y-68069D01*
X28165Y-68469D01*
X28241Y-68069D02*
X28374Y-68469D01*
X28508Y-68069D01*
X28870Y-68469D02*
X28736Y-68278D01*
X28641Y-68469D02*
X28641Y-68069D01*
X28794Y-68069D01*
X28832Y-68088D01*
X28851Y-68107D01*
X28870Y-68145D01*
X28870Y-68202D01*
X28851Y-68240D01*
X28832Y-68259D01*
X28794Y-68278D01*
X28641Y-68278D01*
X29461Y-68069D02*
X29461Y-68355D01*
X29441Y-68412D01*
X29403Y-68450D01*
X29346Y-68469D01*
X29308Y-68469D01*
X29594Y-68069D02*
X29823Y-68069D01*
X29708Y-68469D02*
X29708Y-68069D01*
X29937Y-68355D02*
X30128Y-68355D01*
X29899Y-68469D02*
X30032Y-68069D01*
X30166Y-68469D01*
X30509Y-68088D02*
X30471Y-68069D01*
X30414Y-68069D01*
X30356Y-68088D01*
X30318Y-68126D01*
X30299Y-68164D01*
X30280Y-68240D01*
X30280Y-68297D01*
X30299Y-68374D01*
X30318Y-68412D01*
X30356Y-68450D01*
X30414Y-68469D01*
X30452Y-68469D01*
X30509Y-68450D01*
X30528Y-68431D01*
X30528Y-68297D01*
X30452Y-68297D01*
X21142Y-68062D02*
X21142Y-67795D01*
X21142Y-67662D02*
X21123Y-67681D01*
X21142Y-67700D01*
X21161Y-67681D01*
X21142Y-67662D01*
X21142Y-67700D01*
X21313Y-67700D02*
X21332Y-67681D01*
X21370Y-67662D01*
X21466Y-67662D01*
X21504Y-67681D01*
X21523Y-67700D01*
X21542Y-67738D01*
X21542Y-67776D01*
X21523Y-67833D01*
X21294Y-68062D01*
X21542Y-68062D01*
X21885Y-68043D02*
X21847Y-68062D01*
X21770Y-68062D01*
X21732Y-68043D01*
X21713Y-68024D01*
X21694Y-67986D01*
X21694Y-67871D01*
X21713Y-67833D01*
X21732Y-67814D01*
X21770Y-67795D01*
X21847Y-67795D01*
X21885Y-67814D01*
X22361Y-67795D02*
X22361Y-68195D01*
X22361Y-67814D02*
X22399Y-67795D01*
X22476Y-67795D01*
X22514Y-67814D01*
X22533Y-67833D01*
X22552Y-67871D01*
X22552Y-67986D01*
X22533Y-68024D01*
X22514Y-68043D01*
X22476Y-68062D01*
X22399Y-68062D01*
X22361Y-68043D01*
X22780Y-68062D02*
X22742Y-68043D01*
X22723Y-68024D01*
X22704Y-67986D01*
X22704Y-67871D01*
X22723Y-67833D01*
X22742Y-67814D01*
X22780Y-67795D01*
X22838Y-67795D01*
X22876Y-67814D01*
X22895Y-67833D01*
X22914Y-67871D01*
X22914Y-67986D01*
X22895Y-68024D01*
X22876Y-68043D01*
X22838Y-68062D01*
X22780Y-68062D01*
X23085Y-68062D02*
X23085Y-67795D01*
X23085Y-67871D02*
X23104Y-67833D01*
X23123Y-67814D01*
X23161Y-67795D01*
X23200Y-67795D01*
X23276Y-67795D02*
X23428Y-67795D01*
X23333Y-67662D02*
X23333Y-68005D01*
X23352Y-68043D01*
X23390Y-68062D01*
X23428Y-68062D01*
X23943Y-67662D02*
X23982Y-67662D01*
X24020Y-67681D01*
X24039Y-67700D01*
X24058Y-67738D01*
X24077Y-67814D01*
X24077Y-67910D01*
X24058Y-67986D01*
X24039Y-68024D01*
X24020Y-68043D01*
X23982Y-68062D01*
X23943Y-68062D01*
X23905Y-68043D01*
X23886Y-68024D01*
X23867Y-67986D01*
X23848Y-67910D01*
X23848Y-67814D01*
X23867Y-67738D01*
X23886Y-67700D01*
X23905Y-67681D01*
X23943Y-67662D01*
G54D12*
X19685Y-73228D02*
X19685Y-39370D01*
X39370Y-73228D02*
X19685Y-73228D01*
G54D10*
X38124Y-63707D02*
X38124Y-62907D01*
X38124Y-62907D02*
X37624Y-62907D01*
X37624Y-62907D02*
X37624Y-63707D01*
X37624Y-63707D02*
X38124Y-63707D01*
X36017Y-62415D02*
X36817Y-62415D01*
X36817Y-62415D02*
X36817Y-61915D01*
X36817Y-61915D02*
X36017Y-61915D01*
X36017Y-61915D02*
X36017Y-62415D01*
X34915Y-62415D02*
X35715Y-62415D01*
X35715Y-62415D02*
X35715Y-61915D01*
X35715Y-61915D02*
X34915Y-61915D01*
X34915Y-61915D02*
X34915Y-62415D01*
X34463Y-63707D02*
X34463Y-62907D01*
X34463Y-62907D02*
X33963Y-62907D01*
X33963Y-62907D02*
X33963Y-63707D01*
X33963Y-63707D02*
X34463Y-63707D01*
G54D13*
X21566Y-44582D02*
G75*
G03X21566Y-44582I-50J0D01*
G74*
G01*
X21066Y-44582D02*
X21466Y-44582D01*
X21466Y-44582D02*
X21466Y-45182D01*
X21466Y-45182D02*
X21066Y-45182D01*
X20666Y-45182D02*
X20266Y-45182D01*
X20266Y-45182D02*
X20266Y-44582D01*
X20266Y-44582D02*
X20666Y-44582D01*
X26980Y-53637D02*
G75*
G03X26980Y-53637I-50J0D01*
G74*
G01*
X26480Y-53637D02*
X26880Y-53637D01*
X26880Y-53637D02*
X26880Y-54237D01*
X26880Y-54237D02*
X26480Y-54237D01*
X26080Y-54237D02*
X25680Y-54237D01*
X25680Y-54237D02*
X25680Y-53637D01*
X25680Y-53637D02*
X26080Y-53637D01*
X25448Y-48681D02*
G75*
G03X25448Y-48681I-50J0D01*
G74*
G01*
X25398Y-48231D02*
X25398Y-48631D01*
X25398Y-48631D02*
X24798Y-48631D01*
X24798Y-48631D02*
X24798Y-48231D01*
X24798Y-47831D02*
X24798Y-47431D01*
X24798Y-47431D02*
X25398Y-47431D01*
X25398Y-47431D02*
X25398Y-47831D01*
X30207Y-51875D02*
G75*
G03X30207Y-51875I-50J0D01*
G74*
G01*
X30607Y-51875D02*
X30207Y-51875D01*
X30207Y-51875D02*
X30207Y-51275D01*
X30207Y-51275D02*
X30607Y-51275D01*
X31007Y-51275D02*
X31407Y-51275D01*
X31407Y-51275D02*
X31407Y-51875D01*
X31407Y-51875D02*
X31007Y-51875D01*
X25439Y-51220D02*
G75*
G03X25439Y-51220I-50J0D01*
G74*
G01*
X25389Y-51670D02*
X25389Y-51270D01*
X25389Y-51270D02*
X25989Y-51270D01*
X25989Y-51270D02*
X25989Y-51670D01*
X25989Y-52070D02*
X25989Y-52470D01*
X25989Y-52470D02*
X25389Y-52470D01*
X25389Y-52470D02*
X25389Y-52070D01*
X23777Y-66096D02*
X22877Y-66096D01*
X22877Y-66096D02*
X22877Y-65596D01*
X22877Y-65596D02*
X23777Y-65596D01*
X23777Y-65596D02*
X23777Y-66096D01*
X27022Y-55357D02*
X27022Y-56257D01*
X27022Y-56257D02*
X26522Y-56257D01*
X26522Y-56257D02*
X26522Y-55357D01*
X26522Y-55357D02*
X27022Y-55357D01*
X31344Y-60883D02*
X31344Y-59983D01*
X31344Y-59983D02*
X31844Y-59983D01*
X31844Y-59983D02*
X31844Y-60883D01*
X31844Y-60883D02*
X31344Y-60883D01*
X32143Y-46411D02*
X31243Y-46411D01*
X31243Y-46411D02*
X31243Y-45911D01*
X31243Y-45911D02*
X32143Y-45911D01*
X32143Y-45911D02*
X32143Y-46411D01*
X36463Y-47300D02*
X36463Y-46400D01*
X36463Y-46400D02*
X36963Y-46400D01*
X36963Y-46400D02*
X36963Y-47300D01*
X36963Y-47300D02*
X36463Y-47300D01*
X37939Y-47300D02*
X37939Y-46400D01*
X37939Y-46400D02*
X38439Y-46400D01*
X38439Y-46400D02*
X38439Y-47300D01*
X38439Y-47300D02*
X37939Y-47300D01*
X33707Y-49367D02*
X33707Y-48467D01*
X33707Y-48467D02*
X34207Y-48467D01*
X34207Y-48467D02*
X34207Y-49367D01*
X34207Y-49367D02*
X33707Y-49367D01*
X34207Y-47286D02*
X34207Y-48186D01*
X34207Y-48186D02*
X33707Y-48186D01*
X33707Y-48186D02*
X33707Y-47286D01*
X33707Y-47286D02*
X34207Y-47286D01*
X30259Y-40793D02*
X31159Y-40793D01*
X31159Y-40793D02*
X31159Y-41293D01*
X31159Y-41293D02*
X30259Y-41293D01*
X30259Y-41293D02*
X30259Y-40793D01*
X30410Y-42529D02*
X30410Y-41629D01*
X30410Y-41629D02*
X30910Y-41629D01*
X30910Y-41629D02*
X30910Y-42529D01*
X30910Y-42529D02*
X30410Y-42529D01*
X30910Y-42908D02*
X30910Y-43808D01*
X30910Y-43808D02*
X30410Y-43808D01*
X30410Y-43808D02*
X30410Y-42908D01*
X30410Y-42908D02*
X30910Y-42908D01*
X37064Y-48281D02*
X36164Y-48281D01*
X36164Y-48281D02*
X36164Y-47781D01*
X36164Y-47781D02*
X37064Y-47781D01*
X37064Y-47781D02*
X37064Y-48281D01*
X35250Y-49950D02*
X35250Y-49050D01*
X35250Y-49050D02*
X35750Y-49050D01*
X35750Y-49050D02*
X35750Y-49950D01*
X35750Y-49950D02*
X35250Y-49950D01*
X35096Y-52317D02*
X34196Y-52317D01*
X34196Y-52317D02*
X34196Y-51817D01*
X34196Y-51817D02*
X35096Y-51817D01*
X35096Y-51817D02*
X35096Y-52317D01*
X34797Y-50436D02*
X34797Y-51336D01*
X34797Y-51336D02*
X34297Y-51336D01*
X34297Y-51336D02*
X34297Y-50436D01*
X34297Y-50436D02*
X34797Y-50436D01*
X34688Y-48372D02*
X35588Y-48372D01*
X35588Y-48372D02*
X35588Y-48872D01*
X35588Y-48872D02*
X34688Y-48872D01*
X34688Y-48872D02*
X34688Y-48372D01*
X34994Y-46400D02*
X34994Y-47300D01*
X34994Y-47300D02*
X34494Y-47300D01*
X34494Y-47300D02*
X34494Y-46400D01*
X34494Y-46400D02*
X34994Y-46400D01*
X31440Y-52309D02*
X32340Y-52309D01*
X32340Y-52309D02*
X32340Y-52809D01*
X32340Y-52809D02*
X31440Y-52809D01*
X31440Y-52809D02*
X31440Y-52309D01*
X31440Y-53096D02*
X32340Y-53096D01*
X32340Y-53096D02*
X32340Y-53596D01*
X32340Y-53596D02*
X31440Y-53596D01*
X31440Y-53596D02*
X31440Y-53096D01*
X26719Y-53009D02*
X26719Y-52109D01*
X26719Y-52109D02*
X27219Y-52109D01*
X27219Y-52109D02*
X27219Y-53009D01*
X27219Y-53009D02*
X26719Y-53009D01*
X27514Y-41479D02*
X27514Y-42379D01*
X27514Y-42379D02*
X27014Y-42379D01*
X27014Y-42379D02*
X27014Y-41479D01*
X27014Y-41479D02*
X27514Y-41479D01*
X21513Y-58518D02*
X20613Y-58518D01*
X20613Y-58518D02*
X20613Y-58018D01*
X20613Y-58018D02*
X21513Y-58018D01*
X21513Y-58018D02*
X21513Y-58518D01*
X28684Y-55459D02*
X29584Y-55459D01*
X29584Y-55459D02*
X29584Y-55959D01*
X29584Y-55959D02*
X28684Y-55959D01*
X28684Y-55959D02*
X28684Y-55459D01*
X21513Y-62258D02*
X20613Y-62258D01*
X20613Y-62258D02*
X20613Y-61758D01*
X20613Y-61758D02*
X21513Y-61758D01*
X21513Y-61758D02*
X21513Y-62258D01*
G54D16*
X25118Y-66023D02*
X25118Y-65669D01*
X25118Y-65669D02*
X24961Y-65669D01*
X24961Y-66023D02*
X24961Y-65669D01*
X25118Y-66023D02*
X24961Y-66023D01*
X25629Y-66023D02*
X25629Y-65669D01*
X25629Y-65669D02*
X25472Y-65669D01*
X25472Y-66023D02*
X25472Y-65669D01*
X25629Y-66023D02*
X25472Y-66023D01*
X25295Y-66023D02*
X25295Y-65964D01*
X25295Y-65964D02*
X25177Y-65964D01*
X25177Y-66023D02*
X25177Y-65964D01*
X25295Y-66023D02*
X25177Y-66023D01*
X25295Y-65728D02*
X25295Y-65669D01*
X25295Y-65669D02*
X25177Y-65669D01*
X25177Y-65728D02*
X25177Y-65669D01*
X25295Y-65728D02*
X25177Y-65728D01*
X25295Y-65905D02*
X25295Y-65787D01*
X25295Y-65787D02*
X25177Y-65787D01*
X25177Y-65905D02*
X25177Y-65787D01*
X25295Y-65905D02*
X25177Y-65905D01*
G54D17*
X25118Y-66003D02*
X25472Y-66003D01*
X25118Y-65689D02*
X25472Y-65689D01*
G54D13*
X27838Y-42286D02*
X27838Y-42336D01*
X27838Y-42336D02*
X29938Y-42336D01*
X29938Y-40836D02*
X27838Y-40836D01*
X27838Y-40836D02*
X27838Y-42286D01*
X27838Y-41386D02*
X28038Y-41386D01*
X28038Y-41386D02*
X28038Y-41786D01*
X28038Y-41786D02*
X27838Y-41786D01*
X29938Y-40836D02*
X29938Y-42336D01*
G54D18*
X38307Y-66496D02*
X37834Y-66496D01*
X37834Y-66496D02*
X37834Y-68150D01*
X37834Y-68150D02*
X38307Y-68150D01*
X38307Y-68150D02*
X38307Y-66496D01*
X32441Y-66496D02*
X33189Y-66496D01*
X33189Y-66496D02*
X33189Y-68150D01*
X33189Y-68150D02*
X32441Y-68150D01*
X32441Y-68150D02*
X32441Y-66496D01*
G54D19*
X32755Y-71142D02*
X32755Y-65472D01*
X32755Y-65472D02*
X38189Y-65472D01*
X38189Y-65472D02*
X38189Y-71142D01*
X38189Y-71142D02*
X32755Y-71142D01*
G54D20*
X29923Y-58266D02*
X29923Y-62206D01*
X29923Y-62206D02*
X25983Y-62206D01*
X25983Y-58456D02*
X25983Y-62206D01*
X26173Y-58266D02*
X29923Y-58266D01*
X25983Y-58456D02*
X26173Y-58266D01*
G54D14*
X26703Y-58736D02*
G75*
G03X26703Y-58736I-250J0D01*
G74*
G01*
X26205Y-56610D02*
X23205Y-56610D01*
X23205Y-54610D02*
X26205Y-54610D01*
X26205Y-54610D02*
X26205Y-56610D01*
X23205Y-56610D02*
X23205Y-54610D01*
G54D20*
X24461Y-64673D02*
X24461Y-63673D01*
X24461Y-63673D02*
X30461Y-63673D01*
X30461Y-63673D02*
X30461Y-64673D01*
X30461Y-64673D02*
X24461Y-64673D01*
X25461Y-64673D02*
X25461Y-63673D01*
G54D12*
X21100Y-40700D02*
X21100Y-39800D01*
X26500Y-40700D02*
X26500Y-39800D01*
X26400Y-39600D02*
X21200Y-39600D01*
G54D21*
X26200Y-43800D02*
X21500Y-43800D01*
X21500Y-43800D02*
X21400Y-43800D01*
X21400Y-43800D02*
X21400Y-41200D01*
X21400Y-41200D02*
X26200Y-41200D01*
X26200Y-41200D02*
X26200Y-43800D01*
G54D12*
X26500Y-44100D02*
X26500Y-40900D01*
X21100Y-44100D02*
X21100Y-40900D01*
X23800Y-44100D02*
X21100Y-44100D01*
X21100Y-40900D02*
X26500Y-40900D01*
X26500Y-44100D02*
X23800Y-44100D01*
G54D18*
X23414Y-45515D02*
X23414Y-44885D01*
X23965Y-45200D02*
X23414Y-45515D01*
X23965Y-45200D02*
X23414Y-44885D01*
X23965Y-44885D02*
X23965Y-45515D01*
X22784Y-45791D02*
X24516Y-45791D01*
X22784Y-44609D02*
X24516Y-44609D01*
X25818Y-44520D02*
X30778Y-44520D01*
X30778Y-44520D02*
X30778Y-49480D01*
X30778Y-49480D02*
X25818Y-49480D01*
X25818Y-49480D02*
X25818Y-44520D01*
G54D14*
X29832Y-54943D02*
X31032Y-54943D01*
X31032Y-54943D02*
X31032Y-52143D01*
X31032Y-52143D02*
X29832Y-52143D01*
X28632Y-54943D02*
X28332Y-54943D01*
X28332Y-54943D02*
X27432Y-54343D01*
X27432Y-54343D02*
X27432Y-52743D01*
X27432Y-52743D02*
X28332Y-52143D01*
X28332Y-52143D02*
X28632Y-52143D01*
X23485Y-58188D02*
X23335Y-58188D01*
X22185Y-58188D02*
X22335Y-58188D01*
X22185Y-62088D02*
X22335Y-62088D01*
X23485Y-62088D02*
X23335Y-62088D01*
X23835Y-62388D02*
X23335Y-62388D01*
X21835Y-62388D02*
X22335Y-62388D01*
X21835Y-57888D02*
X22335Y-57888D01*
X23835Y-57888D02*
X23335Y-57888D01*
X22185Y-58188D02*
X21935Y-58438D01*
X21935Y-58438D02*
X21935Y-61838D01*
X21935Y-61838D02*
X22185Y-62088D01*
X23485Y-62088D02*
X23735Y-61838D01*
X23735Y-61838D02*
X23735Y-58438D01*
X23735Y-58438D02*
X23485Y-58188D01*
X21835Y-62388D02*
X21835Y-57888D01*
X23835Y-57888D02*
X23835Y-62388D01*
G54D10*
X21539Y-64673D02*
X21539Y-63673D01*
X21539Y-63673D02*
X23539Y-63673D01*
X23539Y-63673D02*
X23539Y-64673D01*
X23539Y-64673D02*
X21539Y-64673D01*
G54D13*
X35980Y-47500D02*
G75*
G03X35980Y-47500I-50J0D01*
G74*
G01*
X35930Y-47050D02*
X35930Y-47450D01*
X35930Y-47450D02*
X35330Y-47450D01*
X35330Y-47450D02*
X35330Y-47050D01*
X35330Y-46650D02*
X35330Y-46250D01*
X35330Y-46250D02*
X35930Y-46250D01*
X35930Y-46250D02*
X35930Y-46650D01*
X38100Y-38450D02*
X32100Y-38450D01*
X32100Y-38450D02*
X32100Y-45550D01*
X32100Y-45550D02*
X38100Y-45550D01*
X38100Y-45550D02*
X38100Y-38450D01*
G54D12*
X21416Y-68674D02*
X26516Y-68674D01*
X26516Y-68674D02*
X26616Y-68674D01*
X26616Y-68674D02*
X26616Y-72074D01*
X26616Y-72074D02*
X24616Y-72074D01*
X24616Y-72074D02*
X24516Y-71774D01*
X24516Y-71774D02*
X23616Y-71774D01*
X23616Y-71774D02*
X23516Y-72074D01*
X23516Y-72074D02*
X21416Y-72074D01*
X21416Y-72074D02*
X21416Y-68674D01*
X26916Y-68374D02*
X26916Y-72374D01*
X26916Y-72374D02*
X21116Y-72374D01*
X21116Y-72374D02*
X21116Y-68374D01*
X21116Y-68374D02*
X26916Y-68374D01*
G54D14*
X25516Y-71374D02*
X22516Y-71374D01*
X22516Y-69374D02*
X25516Y-69374D01*
X25516Y-69374D02*
X25516Y-71374D01*
X22516Y-71374D02*
X22516Y-69374D01*
G54D12*
X20347Y-52305D02*
X20347Y-47205D01*
X20347Y-47205D02*
X20347Y-47105D01*
X20347Y-47105D02*
X23747Y-47105D01*
X23747Y-47105D02*
X23747Y-49105D01*
X23747Y-49105D02*
X23447Y-49205D01*
X23447Y-49205D02*
X23447Y-50105D01*
X23447Y-50105D02*
X23747Y-50205D01*
X23747Y-50205D02*
X23747Y-52305D01*
X23747Y-52305D02*
X20347Y-52305D01*
X20047Y-46805D02*
X24047Y-46805D01*
X24047Y-46805D02*
X24047Y-52605D01*
X24047Y-52605D02*
X20047Y-52605D01*
X20047Y-52605D02*
X20047Y-46805D01*
G54D14*
X23047Y-48205D02*
X23047Y-51205D01*
X21047Y-51205D02*
X21047Y-48205D01*
X21047Y-48205D02*
X23047Y-48205D01*
X23047Y-51205D02*
X21047Y-51205D01*
G54D20*
X26732Y-65437D02*
X31732Y-65437D01*
X31732Y-65437D02*
X31732Y-67437D01*
X31732Y-67437D02*
X26732Y-67437D01*
X26732Y-67437D02*
X26732Y-65437D01*
X39091Y-55768D02*
X39091Y-60768D01*
X39091Y-60768D02*
X37091Y-60768D01*
X37091Y-60768D02*
X37091Y-55768D01*
X37091Y-55768D02*
X39091Y-55768D01*
G54D18*
X29596Y-71256D02*
X29374Y-71478D01*
X28734Y-70838D02*
X29792Y-71896D01*
X30154Y-70698D02*
X30376Y-70476D01*
X29736Y-69836D02*
X30794Y-70894D01*
X29651Y-71256D02*
G75*
G03X29651Y-71256I-55J0D01*
G74*
G01*
X30211Y-70698D02*
G75*
G03X30211Y-70698I-57J0D01*
G74*
G01*
X29764Y-70866D02*
X29485Y-70587D01*
X30070Y-70560D02*
X29458Y-71172D01*
X29764Y-69418D02*
X31212Y-70866D01*
X31212Y-70866D02*
X29764Y-72314D01*
X29764Y-72314D02*
X28316Y-70866D01*
X28316Y-70866D02*
X29764Y-69418D01*
G54D22*
X32200Y-55500D02*
X34600Y-55500D01*
X34600Y-55500D02*
X35000Y-55700D01*
X35000Y-55700D02*
X36000Y-55700D01*
X36000Y-55700D02*
X36400Y-55500D01*
X32200Y-55300D02*
X34600Y-55300D01*
X34600Y-55300D02*
X35000Y-55500D01*
X35000Y-55500D02*
X36000Y-55500D01*
X36000Y-55500D02*
X36400Y-55300D01*
X36000Y-55300D02*
X36400Y-55100D01*
X35000Y-55300D02*
X36000Y-55300D01*
X34600Y-55100D02*
X35000Y-55300D01*
X32200Y-55100D02*
X34600Y-55100D01*
X32200Y-55100D02*
X34600Y-55100D01*
X34600Y-55100D02*
X35000Y-55300D01*
X35000Y-55300D02*
X36000Y-55300D01*
X36000Y-55300D02*
X36400Y-55100D01*
X36000Y-55300D02*
X36400Y-55100D01*
X35000Y-55300D02*
X36000Y-55300D01*
X34600Y-55100D02*
X35000Y-55300D01*
X32200Y-55100D02*
X34600Y-55100D01*
X32200Y-55100D02*
X34600Y-55100D01*
X34600Y-55100D02*
X35000Y-55300D01*
X35000Y-55300D02*
X36000Y-55300D01*
X36000Y-55300D02*
X36400Y-55100D01*
X36000Y-55300D02*
X36400Y-55100D01*
X35000Y-55300D02*
X36000Y-55300D01*
X34600Y-55100D02*
X35000Y-55300D01*
X32200Y-55100D02*
X34600Y-55100D01*
X32200Y-55100D02*
X34600Y-55100D01*
X34600Y-55100D02*
X35000Y-55300D01*
X35000Y-55300D02*
X36000Y-55300D01*
X36000Y-55300D02*
X36400Y-55100D01*
X36000Y-55300D02*
X36400Y-55100D01*
X35000Y-55300D02*
X36000Y-55300D01*
X34600Y-55100D02*
X35000Y-55300D01*
X32200Y-55100D02*
X34600Y-55100D01*
X32200Y-55100D02*
X34600Y-55100D01*
X34600Y-55100D02*
X35000Y-55300D01*
X35000Y-55300D02*
X36000Y-55300D01*
X36000Y-55300D02*
X36400Y-55100D01*
X36275Y-54800D02*
X36375Y-54725D01*
X36050Y-54700D02*
X36150Y-54800D01*
X35225Y-54800D02*
X35275Y-54800D01*
X35000Y-54800D02*
X35250Y-54800D01*
X35000Y-54200D02*
X35275Y-54200D01*
X35150Y-54775D02*
X35150Y-54250D01*
X36025Y-54600D02*
X36050Y-54700D01*
X36150Y-54800D02*
X36275Y-54800D01*
X36425Y-54575D02*
X36400Y-54700D01*
X36025Y-54375D02*
X36050Y-54275D01*
X36050Y-54275D02*
X36125Y-54200D01*
X36125Y-54200D02*
X36175Y-54175D01*
X36175Y-54175D02*
X36275Y-54175D01*
X36275Y-54175D02*
X36325Y-54200D01*
X36325Y-54200D02*
X36375Y-54225D01*
X36375Y-54225D02*
X36400Y-54275D01*
X36400Y-54275D02*
X36425Y-54350D01*
X36425Y-54350D02*
X36425Y-54400D01*
X36425Y-54400D02*
X36425Y-54575D01*
X36025Y-54400D02*
X36025Y-54600D01*
X35425Y-54800D02*
X35425Y-54175D01*
X35425Y-54200D02*
X35775Y-54800D01*
X35775Y-54800D02*
X35775Y-54175D01*
X34525Y-54200D02*
X34525Y-54675D01*
X34525Y-54675D02*
X34550Y-54725D01*
X34550Y-54725D02*
X34575Y-54750D01*
X34575Y-54750D02*
X34600Y-54775D01*
X34600Y-54775D02*
X34650Y-54800D01*
X34650Y-54800D02*
X34700Y-54800D01*
X34700Y-54800D02*
X34750Y-54800D01*
X34750Y-54800D02*
X34800Y-54775D01*
X34800Y-54775D02*
X34825Y-54750D01*
X34825Y-54750D02*
X34850Y-54725D01*
X34850Y-54725D02*
X34850Y-54675D01*
X34850Y-54675D02*
X34850Y-54200D01*
X33925Y-54200D02*
X34050Y-54200D01*
X34050Y-54200D02*
X34150Y-54225D01*
X34150Y-54225D02*
X34200Y-54275D01*
X34200Y-54275D02*
X34225Y-54350D01*
X34225Y-54350D02*
X34250Y-54450D01*
X34250Y-54450D02*
X34250Y-54525D01*
X34250Y-54525D02*
X34250Y-54575D01*
X34250Y-54575D02*
X34225Y-54650D01*
X34225Y-54650D02*
X34200Y-54700D01*
X34200Y-54700D02*
X34150Y-54750D01*
X34150Y-54750D02*
X34075Y-54800D01*
X34075Y-54800D02*
X34025Y-54800D01*
X34025Y-54800D02*
X33900Y-54800D01*
X33900Y-54800D02*
X33900Y-54200D01*
X33425Y-54200D02*
X33425Y-54800D01*
X33425Y-54800D02*
X33700Y-54800D01*
X32825Y-54200D02*
X32850Y-54200D01*
X32850Y-54200D02*
X33075Y-54200D01*
X33075Y-54200D02*
X33125Y-54225D01*
X33125Y-54225D02*
X33150Y-54250D01*
X33150Y-54250D02*
X33175Y-54300D01*
X33175Y-54300D02*
X33175Y-54350D01*
X33175Y-54350D02*
X33175Y-54400D01*
X33175Y-54400D02*
X33150Y-54450D01*
X33150Y-54450D02*
X33100Y-54475D01*
X33100Y-54475D02*
X33050Y-54500D01*
X33050Y-54500D02*
X32825Y-54500D01*
X32825Y-54775D02*
X32825Y-54200D01*
X32300Y-54400D02*
X32600Y-54800D01*
X32275Y-54800D02*
X32575Y-54400D01*
G54D13*
X21650Y-55500D02*
X21650Y-56500D01*
X22350Y-56500D02*
X22350Y-55500D01*
X22350Y-56500D02*
X21650Y-56500D01*
X21650Y-55500D02*
X22350Y-55500D01*
G54D10*
X22260Y-45563D02*
X22260Y-46563D01*
X22260Y-46563D02*
X20260Y-46563D01*
X20260Y-46563D02*
X20260Y-45563D01*
X20260Y-45563D02*
X22260Y-45563D01*
X23435Y-55840D02*
X23435Y-56380D01*
X23975Y-56380D01*
X23975Y-55840D01*
X23435Y-55840D01*
X23975Y-55110D02*
G75*
G03X23975Y-55110I-270J0D01*
G74*
G01*
X24975Y-56110D02*
G75*
G03X24975Y-56110I-270J0D01*
G74*
G01*
X24975Y-55110D02*
G75*
G03X24975Y-55110I-270J0D01*
G74*
G01*
X25975Y-56110D02*
G75*
G03X25975Y-56110I-270J0D01*
G74*
G01*
X25975Y-55110D02*
G75*
G03X25975Y-55110I-270J0D01*
G74*
G01*
X24691Y-63903D02*
X24691Y-64443D01*
X25231Y-64443D01*
X25231Y-63903D01*
X24691Y-63903D01*
X26231Y-64173D02*
G75*
G03X26231Y-64173I-270J0D01*
G74*
G01*
X27231Y-64173D02*
G75*
G03X27231Y-64173I-270J0D01*
G74*
G01*
X28231Y-64173D02*
G75*
G03X28231Y-64173I-270J0D01*
G74*
G01*
X29231Y-64173D02*
G75*
G03X29231Y-64173I-270J0D01*
G74*
G01*
X30231Y-64173D02*
G75*
G03X30231Y-64173I-270J0D01*
G74*
G01*
X25150Y-42890D02*
X25150Y-42110D01*
X24430Y-42890D02*
X24430Y-42110D01*
X25150Y-42110D02*
G75*
G03X24430Y-42110I-360J0D01*
G74*
G01*
X24430Y-42890D02*
G75*
G03X25150Y-42890I360J0D01*
G74*
G01*
X23180Y-42890D02*
X23180Y-42110D01*
X22460Y-42890D02*
X22460Y-42110D01*
X23180Y-42110D02*
G75*
G03X22460Y-42110I-360J0D01*
G74*
G01*
X22460Y-42890D02*
G75*
G03X23180Y-42890I360J0D01*
G74*
G01*
X21769Y-63903D02*
X21769Y-64443D01*
X22309Y-64443D01*
X22309Y-63903D01*
X21769Y-63903D01*
X23309Y-64173D02*
G75*
G03X23309Y-64173I-270J0D01*
G74*
G01*
X33534Y-41648D02*
G75*
G03X33534Y-41648I-678J0D01*
G74*
G01*
X38022Y-41629D02*
G75*
G03X38022Y-41629I-678J0D01*
G74*
G01*
X36512Y-43809D02*
X36512Y-44449D01*
X37152Y-44449D01*
X37152Y-43809D01*
X36512Y-43809D01*
X36730Y-45133D02*
G75*
G03X36730Y-45133I-370J0D01*
G74*
G01*
X36218Y-44129D02*
G75*
G03X36218Y-44129I-370J0D01*
G74*
G01*
X35706Y-45133D02*
G75*
G03X35706Y-45133I-370J0D01*
G74*
G01*
X35234Y-44129D02*
G75*
G03X35234Y-44129I-370J0D01*
G74*
G01*
X34722Y-45133D02*
G75*
G03X34722Y-45133I-370J0D01*
G74*
G01*
X34210Y-44129D02*
G75*
G03X34210Y-44129I-370J0D01*
G74*
G01*
X33738Y-45133D02*
G75*
G03X33738Y-45133I-370J0D01*
G74*
G01*
X38088Y-40054D02*
G75*
G03X38088Y-40054I-370J0D01*
G74*
G01*
X37084Y-40054D02*
G75*
G03X37084Y-40054I-370J0D01*
G74*
G01*
X33856Y-40054D02*
G75*
G03X33856Y-40054I-370J0D01*
G74*
G01*
X32852Y-40054D02*
G75*
G03X32852Y-40054I-370J0D01*
G74*
G01*
X38582Y-42810D02*
G75*
G03X38582Y-42810I-470J0D01*
G74*
G01*
X32519Y-42810D02*
G75*
G03X32519Y-42810I-470J0D01*
G74*
G01*
X22746Y-70604D02*
X22746Y-71144D01*
X23286Y-71144D01*
X23286Y-70604D01*
X22746Y-70604D01*
X23286Y-69874D02*
G75*
G03X23286Y-69874I-270J0D01*
G74*
G01*
X24286Y-70874D02*
G75*
G03X24286Y-70874I-270J0D01*
G74*
G01*
X24286Y-69874D02*
G75*
G03X24286Y-69874I-270J0D01*
G74*
G01*
X25286Y-70874D02*
G75*
G03X25286Y-70874I-270J0D01*
G74*
G01*
X25286Y-69874D02*
G75*
G03X25286Y-69874I-270J0D01*
G74*
G01*
X22277Y-50435D02*
X22277Y-50975D01*
X22817Y-50975D01*
X22817Y-50435D01*
X22277Y-50435D01*
X21817Y-50705D02*
G75*
G03X21817Y-50705I-270J0D01*
G74*
G01*
X22817Y-49705D02*
G75*
G03X22817Y-49705I-270J0D01*
G74*
G01*
X21817Y-49705D02*
G75*
G03X21817Y-49705I-270J0D01*
G74*
G01*
X22817Y-48705D02*
G75*
G03X22817Y-48705I-270J0D01*
G74*
G01*
X21817Y-48705D02*
G75*
G03X21817Y-48705I-270J0D01*
G74*
G01*
X26962Y-66667D02*
X26962Y-67207D01*
X27502Y-67207D01*
X27502Y-66667D01*
X26962Y-66667D01*
X27502Y-65937D02*
G75*
G03X27502Y-65937I-270J0D01*
G74*
G01*
X28502Y-66937D02*
G75*
G03X28502Y-66937I-270J0D01*
G74*
G01*
X28502Y-65937D02*
G75*
G03X28502Y-65937I-270J0D01*
G74*
G01*
X29502Y-66937D02*
G75*
G03X29502Y-66937I-270J0D01*
G74*
G01*
X29502Y-65937D02*
G75*
G03X29502Y-65937I-270J0D01*
G74*
G01*
X30502Y-66937D02*
G75*
G03X30502Y-66937I-270J0D01*
G74*
G01*
X30502Y-65937D02*
G75*
G03X30502Y-65937I-270J0D01*
G74*
G01*
X31502Y-66937D02*
G75*
G03X31502Y-66937I-270J0D01*
G74*
G01*
X31502Y-65937D02*
G75*
G03X31502Y-65937I-270J0D01*
G74*
G01*
X37321Y-55998D02*
X37321Y-56538D01*
X37861Y-56538D01*
X37861Y-55998D01*
X37321Y-55998D01*
X38861Y-56268D02*
G75*
G03X38861Y-56268I-270J0D01*
G74*
G01*
X37861Y-57268D02*
G75*
G03X37861Y-57268I-270J0D01*
G74*
G01*
X38861Y-57268D02*
G75*
G03X38861Y-57268I-270J0D01*
G74*
G01*
X37861Y-58268D02*
G75*
G03X37861Y-58268I-270J0D01*
G74*
G01*
X38861Y-58268D02*
G75*
G03X38861Y-58268I-270J0D01*
G74*
G01*
X37861Y-59268D02*
G75*
G03X37861Y-59268I-270J0D01*
G74*
G01*
X38861Y-59268D02*
G75*
G03X38861Y-59268I-270J0D01*
G74*
G01*
X37861Y-60268D02*
G75*
G03X37861Y-60268I-270J0D01*
G74*
G01*
X38861Y-60268D02*
G75*
G03X38861Y-60268I-270J0D01*
G74*
G01*
X21490Y-45793D02*
X21490Y-46333D01*
X22030Y-46333D01*
X22030Y-45793D01*
X21490Y-45793D01*
X21030Y-46063D02*
G75*
G03X21030Y-46063I-270J0D01*
G74*
G01*
G54D13*
X36711Y-63735D02*
X36954Y-63735D01*
X36983Y-63724D01*
X36997Y-63712D01*
X37011Y-63688D01*
X37011Y-63640D01*
X36997Y-63616D01*
X36983Y-63605D01*
X36954Y-63593D01*
X36711Y-63593D01*
X36740Y-63485D02*
X36726Y-63473D01*
X36711Y-63450D01*
X36711Y-63390D01*
X36726Y-63366D01*
X36740Y-63354D01*
X36769Y-63343D01*
X36797Y-63343D01*
X36840Y-63354D01*
X37011Y-63497D01*
X37011Y-63343D01*
X36711Y-63188D02*
X36711Y-63164D01*
X36726Y-63140D01*
X36740Y-63128D01*
X36769Y-63116D01*
X36826Y-63105D01*
X36897Y-63105D01*
X36954Y-63116D01*
X36983Y-63128D01*
X36997Y-63140D01*
X37011Y-63164D01*
X37011Y-63188D01*
X36997Y-63212D01*
X36983Y-63224D01*
X36954Y-63235D01*
X36897Y-63247D01*
X36826Y-63247D01*
X36769Y-63235D01*
X36740Y-63224D01*
X36726Y-63212D01*
X36711Y-63188D01*
X36711Y-62890D02*
X36711Y-62938D01*
X36726Y-62962D01*
X36740Y-62974D01*
X36783Y-62997D01*
X36840Y-63009D01*
X36954Y-63009D01*
X36983Y-62997D01*
X36997Y-62986D01*
X37011Y-62962D01*
X37011Y-62914D01*
X36997Y-62890D01*
X36983Y-62878D01*
X36954Y-62867D01*
X36883Y-62867D01*
X36854Y-62878D01*
X36840Y-62890D01*
X36826Y-62914D01*
X36826Y-62962D01*
X36840Y-62986D01*
X36854Y-62997D01*
X36883Y-63009D01*
X35972Y-61021D02*
X35972Y-61264D01*
X35983Y-61293D01*
X35995Y-61307D01*
X36019Y-61321D01*
X36067Y-61321D01*
X36091Y-61307D01*
X36102Y-61293D01*
X36114Y-61264D01*
X36114Y-61021D01*
X36222Y-61050D02*
X36234Y-61036D01*
X36257Y-61021D01*
X36317Y-61021D01*
X36341Y-61036D01*
X36353Y-61050D01*
X36364Y-61079D01*
X36364Y-61107D01*
X36353Y-61150D01*
X36210Y-61321D01*
X36364Y-61321D01*
X36519Y-61021D02*
X36543Y-61021D01*
X36567Y-61036D01*
X36579Y-61050D01*
X36591Y-61079D01*
X36602Y-61136D01*
X36602Y-61207D01*
X36591Y-61264D01*
X36579Y-61293D01*
X36567Y-61307D01*
X36543Y-61321D01*
X36519Y-61321D01*
X36495Y-61307D01*
X36483Y-61293D01*
X36472Y-61264D01*
X36460Y-61207D01*
X36460Y-61136D01*
X36472Y-61079D01*
X36483Y-61050D01*
X36495Y-61036D01*
X36519Y-61021D01*
X36829Y-61021D02*
X36710Y-61021D01*
X36698Y-61164D01*
X36710Y-61150D01*
X36733Y-61136D01*
X36793Y-61136D01*
X36817Y-61150D01*
X36829Y-61164D01*
X36840Y-61193D01*
X36840Y-61264D01*
X36829Y-61293D01*
X36817Y-61307D01*
X36793Y-61321D01*
X36733Y-61321D01*
X36710Y-61307D01*
X36698Y-61293D01*
X34872Y-61051D02*
X34872Y-61254D01*
X34883Y-61277D01*
X34895Y-61289D01*
X34919Y-61301D01*
X34967Y-61301D01*
X34991Y-61289D01*
X35002Y-61277D01*
X35014Y-61254D01*
X35014Y-61051D01*
X35122Y-61075D02*
X35134Y-61063D01*
X35157Y-61051D01*
X35217Y-61051D01*
X35241Y-61063D01*
X35253Y-61075D01*
X35264Y-61099D01*
X35264Y-61123D01*
X35253Y-61158D01*
X35110Y-61301D01*
X35264Y-61301D01*
X35419Y-61051D02*
X35443Y-61051D01*
X35467Y-61063D01*
X35479Y-61075D01*
X35491Y-61099D01*
X35502Y-61146D01*
X35502Y-61206D01*
X35491Y-61254D01*
X35479Y-61277D01*
X35467Y-61289D01*
X35443Y-61301D01*
X35419Y-61301D01*
X35395Y-61289D01*
X35383Y-61277D01*
X35372Y-61254D01*
X35360Y-61206D01*
X35360Y-61146D01*
X35372Y-61099D01*
X35383Y-61075D01*
X35395Y-61063D01*
X35419Y-61051D01*
X35717Y-61135D02*
X35717Y-61301D01*
X35657Y-61039D02*
X35598Y-61218D01*
X35752Y-61218D01*
X33772Y-62421D02*
X33772Y-62664D01*
X33783Y-62693D01*
X33795Y-62707D01*
X33819Y-62721D01*
X33867Y-62721D01*
X33891Y-62707D01*
X33902Y-62693D01*
X33914Y-62664D01*
X33914Y-62421D01*
X34022Y-62450D02*
X34034Y-62436D01*
X34057Y-62421D01*
X34117Y-62421D01*
X34141Y-62436D01*
X34153Y-62450D01*
X34164Y-62479D01*
X34164Y-62507D01*
X34153Y-62550D01*
X34010Y-62721D01*
X34164Y-62721D01*
X34319Y-62421D02*
X34343Y-62421D01*
X34367Y-62436D01*
X34379Y-62450D01*
X34391Y-62479D01*
X34402Y-62536D01*
X34402Y-62607D01*
X34391Y-62664D01*
X34379Y-62693D01*
X34367Y-62707D01*
X34343Y-62721D01*
X34319Y-62721D01*
X34295Y-62707D01*
X34283Y-62693D01*
X34272Y-62664D01*
X34260Y-62607D01*
X34260Y-62536D01*
X34272Y-62479D01*
X34283Y-62450D01*
X34295Y-62436D01*
X34319Y-62421D01*
X34486Y-62421D02*
X34640Y-62421D01*
X34557Y-62536D01*
X34593Y-62536D01*
X34617Y-62550D01*
X34629Y-62564D01*
X34640Y-62593D01*
X34640Y-62664D01*
X34629Y-62693D01*
X34617Y-62707D01*
X34593Y-62721D01*
X34521Y-62721D01*
X34498Y-62707D01*
X34486Y-62693D01*
X20270Y-44377D02*
X20258Y-44389D01*
X20223Y-44401D01*
X20199Y-44401D01*
X20163Y-44389D01*
X20139Y-44365D01*
X20128Y-44342D01*
X20116Y-44294D01*
X20116Y-44258D01*
X20128Y-44211D01*
X20139Y-44187D01*
X20163Y-44163D01*
X20199Y-44151D01*
X20223Y-44151D01*
X20258Y-44163D01*
X20270Y-44175D01*
X20354Y-44151D02*
X20508Y-44151D01*
X20425Y-44246D01*
X20461Y-44246D01*
X20485Y-44258D01*
X20497Y-44270D01*
X20508Y-44294D01*
X20508Y-44354D01*
X20497Y-44377D01*
X20485Y-44389D01*
X20461Y-44401D01*
X20389Y-44401D01*
X20366Y-44389D01*
X20354Y-44377D01*
X20663Y-44151D02*
X20687Y-44151D01*
X20711Y-44163D01*
X20723Y-44175D01*
X20735Y-44199D01*
X20746Y-44246D01*
X20746Y-44306D01*
X20735Y-44354D01*
X20723Y-44377D01*
X20711Y-44389D01*
X20687Y-44401D01*
X20663Y-44401D01*
X20639Y-44389D01*
X20627Y-44377D01*
X20616Y-44354D01*
X20604Y-44306D01*
X20604Y-44246D01*
X20616Y-44199D01*
X20627Y-44175D01*
X20639Y-44163D01*
X20663Y-44151D01*
X20984Y-44401D02*
X20842Y-44401D01*
X20913Y-44401D02*
X20913Y-44151D01*
X20889Y-44187D01*
X20865Y-44211D01*
X20842Y-44223D01*
X25311Y-53423D02*
X25299Y-53435D01*
X25264Y-53447D01*
X25240Y-53447D01*
X25204Y-53435D01*
X25180Y-53411D01*
X25169Y-53388D01*
X25157Y-53340D01*
X25157Y-53304D01*
X25169Y-53257D01*
X25180Y-53233D01*
X25204Y-53209D01*
X25240Y-53197D01*
X25264Y-53197D01*
X25299Y-53209D01*
X25311Y-53221D01*
X25407Y-53221D02*
X25419Y-53209D01*
X25442Y-53197D01*
X25502Y-53197D01*
X25526Y-53209D01*
X25538Y-53221D01*
X25549Y-53245D01*
X25549Y-53269D01*
X25538Y-53304D01*
X25395Y-53447D01*
X25549Y-53447D01*
X25787Y-53447D02*
X25645Y-53447D01*
X25716Y-53447D02*
X25716Y-53197D01*
X25692Y-53233D01*
X25668Y-53257D01*
X25645Y-53269D01*
X25871Y-53197D02*
X26025Y-53197D01*
X25942Y-53292D01*
X25978Y-53292D01*
X26002Y-53304D01*
X26014Y-53316D01*
X26025Y-53340D01*
X26025Y-53400D01*
X26014Y-53423D01*
X26002Y-53435D01*
X25978Y-53447D01*
X25906Y-53447D01*
X25883Y-53435D01*
X25871Y-53423D01*
X25175Y-49591D02*
X25187Y-49603D01*
X25199Y-49638D01*
X25199Y-49662D01*
X25187Y-49698D01*
X25163Y-49722D01*
X25140Y-49733D01*
X25092Y-49745D01*
X25056Y-49745D01*
X25009Y-49733D01*
X24985Y-49722D01*
X24961Y-49698D01*
X24949Y-49662D01*
X24949Y-49638D01*
X24961Y-49603D01*
X24973Y-49591D01*
X24949Y-49507D02*
X24949Y-49353D01*
X25044Y-49436D01*
X25044Y-49400D01*
X25056Y-49376D01*
X25068Y-49364D01*
X25092Y-49353D01*
X25152Y-49353D01*
X25175Y-49364D01*
X25187Y-49376D01*
X25199Y-49400D01*
X25199Y-49472D01*
X25187Y-49495D01*
X25175Y-49507D01*
X24949Y-49198D02*
X24949Y-49174D01*
X24961Y-49150D01*
X24973Y-49138D01*
X24997Y-49126D01*
X25044Y-49115D01*
X25104Y-49115D01*
X25152Y-49126D01*
X25175Y-49138D01*
X25187Y-49150D01*
X25199Y-49174D01*
X25199Y-49198D01*
X25187Y-49222D01*
X25175Y-49234D01*
X25152Y-49245D01*
X25104Y-49257D01*
X25044Y-49257D01*
X24997Y-49245D01*
X24973Y-49234D01*
X24961Y-49222D01*
X24949Y-49198D01*
X24949Y-48888D02*
X24949Y-49007D01*
X25068Y-49019D01*
X25056Y-49007D01*
X25044Y-48984D01*
X25044Y-48924D01*
X25056Y-48900D01*
X25068Y-48888D01*
X25092Y-48877D01*
X25152Y-48877D01*
X25175Y-48888D01*
X25187Y-48900D01*
X25199Y-48924D01*
X25199Y-48984D01*
X25187Y-49007D01*
X25175Y-49019D01*
X31807Y-51652D02*
X31795Y-51664D01*
X31760Y-51676D01*
X31736Y-51676D01*
X31700Y-51664D01*
X31676Y-51640D01*
X31665Y-51617D01*
X31653Y-51569D01*
X31653Y-51533D01*
X31665Y-51486D01*
X31676Y-51462D01*
X31700Y-51438D01*
X31736Y-51426D01*
X31760Y-51426D01*
X31795Y-51438D01*
X31807Y-51450D01*
X31891Y-51426D02*
X32045Y-51426D01*
X31962Y-51521D01*
X31998Y-51521D01*
X32022Y-51533D01*
X32034Y-51545D01*
X32045Y-51569D01*
X32045Y-51629D01*
X32034Y-51652D01*
X32022Y-51664D01*
X31998Y-51676D01*
X31926Y-51676D01*
X31903Y-51664D01*
X31891Y-51652D01*
X32200Y-51426D02*
X32224Y-51426D01*
X32248Y-51438D01*
X32260Y-51450D01*
X32272Y-51474D01*
X32283Y-51521D01*
X32283Y-51581D01*
X32272Y-51629D01*
X32260Y-51652D01*
X32248Y-51664D01*
X32224Y-51676D01*
X32200Y-51676D01*
X32176Y-51664D01*
X32164Y-51652D01*
X32153Y-51629D01*
X32141Y-51581D01*
X32141Y-51521D01*
X32153Y-51474D01*
X32164Y-51450D01*
X32176Y-51438D01*
X32200Y-51426D01*
X32498Y-51426D02*
X32450Y-51426D01*
X32426Y-51438D01*
X32414Y-51450D01*
X32391Y-51486D01*
X32379Y-51533D01*
X32379Y-51629D01*
X32391Y-51652D01*
X32402Y-51664D01*
X32426Y-51676D01*
X32474Y-51676D01*
X32498Y-51664D01*
X32510Y-51652D01*
X32521Y-51629D01*
X32521Y-51569D01*
X32510Y-51545D01*
X32498Y-51533D01*
X32474Y-51521D01*
X32426Y-51521D01*
X32402Y-51533D01*
X32391Y-51545D01*
X32379Y-51569D01*
X25175Y-52150D02*
X25187Y-52162D01*
X25199Y-52197D01*
X25199Y-52221D01*
X25187Y-52257D01*
X25163Y-52281D01*
X25140Y-52292D01*
X25092Y-52304D01*
X25056Y-52304D01*
X25009Y-52292D01*
X24985Y-52281D01*
X24961Y-52257D01*
X24949Y-52221D01*
X24949Y-52197D01*
X24961Y-52162D01*
X24973Y-52150D01*
X24949Y-52066D02*
X24949Y-51912D01*
X25044Y-51995D01*
X25044Y-51959D01*
X25056Y-51935D01*
X25068Y-51923D01*
X25092Y-51912D01*
X25152Y-51912D01*
X25175Y-51923D01*
X25187Y-51935D01*
X25199Y-51959D01*
X25199Y-52031D01*
X25187Y-52054D01*
X25175Y-52066D01*
X24949Y-51757D02*
X24949Y-51733D01*
X24961Y-51709D01*
X24973Y-51697D01*
X24997Y-51685D01*
X25044Y-51674D01*
X25104Y-51674D01*
X25152Y-51685D01*
X25175Y-51697D01*
X25187Y-51709D01*
X25199Y-51733D01*
X25199Y-51757D01*
X25187Y-51781D01*
X25175Y-51793D01*
X25152Y-51804D01*
X25104Y-51816D01*
X25044Y-51816D01*
X24997Y-51804D01*
X24973Y-51793D01*
X24961Y-51781D01*
X24949Y-51757D01*
X25056Y-51531D02*
X25044Y-51555D01*
X25033Y-51566D01*
X25009Y-51578D01*
X24997Y-51578D01*
X24973Y-51566D01*
X24961Y-51555D01*
X24949Y-51531D01*
X24949Y-51483D01*
X24961Y-51459D01*
X24973Y-51447D01*
X24997Y-51436D01*
X25009Y-51436D01*
X25033Y-51447D01*
X25044Y-51459D01*
X25056Y-51483D01*
X25056Y-51531D01*
X25068Y-51555D01*
X25080Y-51566D01*
X25104Y-51578D01*
X25152Y-51578D01*
X25175Y-51566D01*
X25187Y-51555D01*
X25199Y-51531D01*
X25199Y-51483D01*
X25187Y-51459D01*
X25175Y-51447D01*
X25152Y-51436D01*
X25104Y-51436D01*
X25080Y-51447D01*
X25068Y-51459D01*
X25056Y-51483D01*
G54D15*
X23127Y-66420D02*
X23067Y-66325D01*
X23024Y-66420D02*
X23024Y-66220D01*
X23092Y-66220D01*
X23110Y-66229D01*
X23118Y-66239D01*
X23127Y-66258D01*
X23127Y-66287D01*
X23118Y-66306D01*
X23110Y-66315D01*
X23092Y-66325D01*
X23024Y-66325D01*
X23298Y-66420D02*
X23195Y-66420D01*
X23247Y-66420D02*
X23247Y-66220D01*
X23230Y-66249D01*
X23212Y-66268D01*
X23195Y-66277D01*
X23409Y-66220D02*
X23426Y-66220D01*
X23443Y-66229D01*
X23452Y-66239D01*
X23461Y-66258D01*
X23469Y-66296D01*
X23469Y-66344D01*
X23461Y-66382D01*
X23452Y-66401D01*
X23443Y-66410D01*
X23426Y-66420D01*
X23409Y-66420D01*
X23392Y-66410D01*
X23383Y-66401D01*
X23375Y-66382D01*
X23366Y-66344D01*
X23366Y-66296D01*
X23375Y-66258D01*
X23383Y-66239D01*
X23392Y-66229D01*
X23409Y-66220D01*
X23537Y-66239D02*
X23546Y-66229D01*
X23563Y-66220D01*
X23606Y-66220D01*
X23623Y-66229D01*
X23632Y-66239D01*
X23640Y-66258D01*
X23640Y-66277D01*
X23632Y-66306D01*
X23529Y-66420D01*
X23640Y-66420D01*
X27443Y-56007D02*
X27348Y-56067D01*
X27443Y-56110D02*
X27243Y-56110D01*
X27243Y-56042D01*
X27252Y-56024D01*
X27262Y-56016D01*
X27281Y-56007D01*
X27310Y-56007D01*
X27329Y-56016D01*
X27338Y-56024D01*
X27348Y-56042D01*
X27348Y-56110D01*
X27443Y-55836D02*
X27443Y-55939D01*
X27443Y-55887D02*
X27243Y-55887D01*
X27272Y-55904D01*
X27291Y-55922D01*
X27300Y-55939D01*
X27243Y-55725D02*
X27243Y-55708D01*
X27252Y-55691D01*
X27262Y-55682D01*
X27281Y-55673D01*
X27319Y-55665D01*
X27367Y-55665D01*
X27405Y-55673D01*
X27424Y-55682D01*
X27433Y-55691D01*
X27443Y-55708D01*
X27443Y-55725D01*
X27433Y-55742D01*
X27424Y-55751D01*
X27405Y-55759D01*
X27367Y-55768D01*
X27319Y-55768D01*
X27281Y-55759D01*
X27262Y-55751D01*
X27252Y-55742D01*
X27243Y-55725D01*
X27310Y-55511D02*
X27443Y-55511D01*
X27233Y-55554D02*
X27376Y-55597D01*
X27376Y-55485D01*
X32247Y-60633D02*
X32256Y-60642D01*
X32266Y-60668D01*
X32266Y-60685D01*
X32256Y-60710D01*
X32237Y-60728D01*
X32218Y-60736D01*
X32180Y-60745D01*
X32152Y-60745D01*
X32114Y-60736D01*
X32095Y-60728D01*
X32075Y-60710D01*
X32066Y-60685D01*
X32066Y-60668D01*
X32075Y-60642D01*
X32085Y-60633D01*
X32266Y-60462D02*
X32266Y-60565D01*
X32266Y-60513D02*
X32066Y-60513D01*
X32095Y-60530D01*
X32114Y-60548D01*
X32123Y-60565D01*
X32066Y-60351D02*
X32066Y-60334D01*
X32075Y-60317D01*
X32085Y-60308D01*
X32104Y-60299D01*
X32142Y-60291D01*
X32190Y-60291D01*
X32228Y-60299D01*
X32247Y-60308D01*
X32256Y-60317D01*
X32266Y-60334D01*
X32266Y-60351D01*
X32256Y-60368D01*
X32247Y-60377D01*
X32228Y-60385D01*
X32190Y-60394D01*
X32142Y-60394D01*
X32104Y-60385D01*
X32085Y-60377D01*
X32075Y-60368D01*
X32066Y-60351D01*
X32266Y-60120D02*
X32266Y-60223D01*
X32266Y-60171D02*
X32066Y-60171D01*
X32095Y-60188D01*
X32114Y-60206D01*
X32123Y-60223D01*
X31493Y-46833D02*
X31433Y-46738D01*
X31390Y-46833D02*
X31390Y-46633D01*
X31458Y-46633D01*
X31476Y-46642D01*
X31484Y-46652D01*
X31493Y-46671D01*
X31493Y-46700D01*
X31484Y-46719D01*
X31476Y-46728D01*
X31458Y-46738D01*
X31390Y-46738D01*
X31561Y-46652D02*
X31570Y-46642D01*
X31587Y-46633D01*
X31630Y-46633D01*
X31647Y-46642D01*
X31656Y-46652D01*
X31664Y-46671D01*
X31664Y-46690D01*
X31656Y-46719D01*
X31553Y-46833D01*
X31664Y-46833D01*
X31775Y-46633D02*
X31792Y-46633D01*
X31809Y-46642D01*
X31818Y-46652D01*
X31827Y-46671D01*
X31835Y-46709D01*
X31835Y-46757D01*
X31827Y-46795D01*
X31818Y-46814D01*
X31809Y-46823D01*
X31792Y-46833D01*
X31775Y-46833D01*
X31758Y-46823D01*
X31749Y-46814D01*
X31741Y-46795D01*
X31732Y-46757D01*
X31732Y-46709D01*
X31741Y-46671D01*
X31749Y-46652D01*
X31758Y-46642D01*
X31775Y-46633D01*
X32006Y-46833D02*
X31903Y-46833D01*
X31955Y-46833D02*
X31955Y-46633D01*
X31938Y-46662D01*
X31920Y-46681D01*
X31903Y-46690D01*
X37384Y-47050D02*
X37289Y-47110D01*
X37384Y-47153D02*
X37184Y-47153D01*
X37184Y-47085D01*
X37193Y-47067D01*
X37203Y-47059D01*
X37222Y-47050D01*
X37251Y-47050D01*
X37270Y-47059D01*
X37279Y-47067D01*
X37289Y-47085D01*
X37289Y-47153D01*
X37203Y-46982D02*
X37193Y-46973D01*
X37184Y-46956D01*
X37184Y-46913D01*
X37193Y-46896D01*
X37203Y-46887D01*
X37222Y-46879D01*
X37241Y-46879D01*
X37270Y-46887D01*
X37384Y-46990D01*
X37384Y-46879D01*
X37184Y-46768D02*
X37184Y-46751D01*
X37193Y-46734D01*
X37203Y-46725D01*
X37222Y-46716D01*
X37260Y-46708D01*
X37308Y-46708D01*
X37346Y-46716D01*
X37365Y-46725D01*
X37374Y-46734D01*
X37384Y-46751D01*
X37384Y-46768D01*
X37374Y-46785D01*
X37365Y-46794D01*
X37346Y-46802D01*
X37308Y-46811D01*
X37260Y-46811D01*
X37222Y-46802D01*
X37203Y-46794D01*
X37193Y-46785D01*
X37184Y-46768D01*
X37184Y-46648D02*
X37184Y-46537D01*
X37260Y-46597D01*
X37260Y-46571D01*
X37270Y-46554D01*
X37279Y-46545D01*
X37298Y-46537D01*
X37346Y-46537D01*
X37365Y-46545D01*
X37374Y-46554D01*
X37384Y-46571D01*
X37384Y-46623D01*
X37374Y-46640D01*
X37365Y-46648D01*
X38861Y-47050D02*
X38766Y-47110D01*
X38861Y-47153D02*
X38661Y-47153D01*
X38661Y-47085D01*
X38670Y-47067D01*
X38680Y-47059D01*
X38699Y-47050D01*
X38728Y-47050D01*
X38747Y-47059D01*
X38756Y-47067D01*
X38766Y-47085D01*
X38766Y-47153D01*
X38680Y-46982D02*
X38670Y-46973D01*
X38661Y-46956D01*
X38661Y-46913D01*
X38670Y-46896D01*
X38680Y-46887D01*
X38699Y-46879D01*
X38718Y-46879D01*
X38747Y-46887D01*
X38861Y-46990D01*
X38861Y-46879D01*
X38661Y-46768D02*
X38661Y-46751D01*
X38670Y-46734D01*
X38680Y-46725D01*
X38699Y-46716D01*
X38737Y-46708D01*
X38785Y-46708D01*
X38823Y-46716D01*
X38842Y-46725D01*
X38851Y-46734D01*
X38861Y-46751D01*
X38861Y-46768D01*
X38851Y-46785D01*
X38842Y-46794D01*
X38823Y-46802D01*
X38785Y-46811D01*
X38737Y-46811D01*
X38699Y-46802D01*
X38680Y-46794D01*
X38670Y-46785D01*
X38661Y-46768D01*
X38728Y-46554D02*
X38861Y-46554D01*
X38651Y-46597D02*
X38794Y-46640D01*
X38794Y-46528D01*
X33447Y-49117D02*
X33352Y-49177D01*
X33447Y-49220D02*
X33247Y-49220D01*
X33247Y-49152D01*
X33256Y-49134D01*
X33266Y-49126D01*
X33285Y-49117D01*
X33314Y-49117D01*
X33333Y-49126D01*
X33342Y-49134D01*
X33352Y-49152D01*
X33352Y-49220D01*
X33266Y-49049D02*
X33256Y-49040D01*
X33247Y-49023D01*
X33247Y-48980D01*
X33256Y-48963D01*
X33266Y-48954D01*
X33285Y-48946D01*
X33304Y-48946D01*
X33333Y-48954D01*
X33447Y-49057D01*
X33447Y-48946D01*
X33247Y-48835D02*
X33247Y-48818D01*
X33256Y-48801D01*
X33266Y-48792D01*
X33285Y-48783D01*
X33323Y-48775D01*
X33371Y-48775D01*
X33409Y-48783D01*
X33428Y-48792D01*
X33437Y-48801D01*
X33447Y-48818D01*
X33447Y-48835D01*
X33437Y-48852D01*
X33428Y-48861D01*
X33409Y-48869D01*
X33371Y-48878D01*
X33323Y-48878D01*
X33285Y-48869D01*
X33266Y-48861D01*
X33256Y-48852D01*
X33247Y-48835D01*
X33247Y-48612D02*
X33247Y-48698D01*
X33342Y-48707D01*
X33333Y-48698D01*
X33323Y-48681D01*
X33323Y-48638D01*
X33333Y-48621D01*
X33342Y-48612D01*
X33361Y-48604D01*
X33409Y-48604D01*
X33428Y-48612D01*
X33437Y-48621D01*
X33447Y-48638D01*
X33447Y-48681D01*
X33437Y-48698D01*
X33428Y-48707D01*
X34038Y-46952D02*
X33943Y-47012D01*
X34038Y-47055D02*
X33838Y-47055D01*
X33838Y-46987D01*
X33847Y-46969D01*
X33857Y-46961D01*
X33876Y-46952D01*
X33905Y-46952D01*
X33924Y-46961D01*
X33933Y-46969D01*
X33943Y-46987D01*
X33943Y-47055D01*
X33857Y-46884D02*
X33847Y-46875D01*
X33838Y-46858D01*
X33838Y-46815D01*
X33847Y-46798D01*
X33857Y-46789D01*
X33876Y-46781D01*
X33895Y-46781D01*
X33924Y-46789D01*
X34038Y-46892D01*
X34038Y-46781D01*
X33838Y-46670D02*
X33838Y-46653D01*
X33847Y-46636D01*
X33857Y-46627D01*
X33876Y-46618D01*
X33914Y-46610D01*
X33962Y-46610D01*
X34000Y-46618D01*
X34019Y-46627D01*
X34028Y-46636D01*
X34038Y-46653D01*
X34038Y-46670D01*
X34028Y-46687D01*
X34019Y-46696D01*
X34000Y-46704D01*
X33962Y-46713D01*
X33914Y-46713D01*
X33876Y-46704D01*
X33857Y-46696D01*
X33847Y-46687D01*
X33838Y-46670D01*
X33838Y-46456D02*
X33838Y-46490D01*
X33847Y-46507D01*
X33857Y-46516D01*
X33886Y-46533D01*
X33924Y-46542D01*
X34000Y-46542D01*
X34019Y-46533D01*
X34028Y-46525D01*
X34038Y-46507D01*
X34038Y-46473D01*
X34028Y-46456D01*
X34019Y-46447D01*
X34000Y-46439D01*
X33952Y-46439D01*
X33933Y-46447D01*
X33924Y-46456D01*
X33914Y-46473D01*
X33914Y-46507D01*
X33924Y-46525D01*
X33933Y-46533D01*
X33952Y-46542D01*
X30509Y-40632D02*
X30449Y-40537D01*
X30406Y-40632D02*
X30406Y-40432D01*
X30474Y-40432D01*
X30492Y-40441D01*
X30500Y-40451D01*
X30509Y-40470D01*
X30509Y-40499D01*
X30500Y-40518D01*
X30492Y-40527D01*
X30474Y-40537D01*
X30406Y-40537D01*
X30569Y-40432D02*
X30680Y-40432D01*
X30620Y-40508D01*
X30646Y-40508D01*
X30663Y-40518D01*
X30672Y-40527D01*
X30680Y-40546D01*
X30680Y-40594D01*
X30672Y-40613D01*
X30663Y-40622D01*
X30646Y-40632D01*
X30594Y-40632D01*
X30577Y-40622D01*
X30569Y-40613D01*
X30791Y-40432D02*
X30808Y-40432D01*
X30825Y-40441D01*
X30834Y-40451D01*
X30843Y-40470D01*
X30851Y-40508D01*
X30851Y-40556D01*
X30843Y-40594D01*
X30834Y-40613D01*
X30825Y-40622D01*
X30808Y-40632D01*
X30791Y-40632D01*
X30774Y-40622D01*
X30765Y-40613D01*
X30757Y-40594D01*
X30748Y-40556D01*
X30748Y-40508D01*
X30757Y-40470D01*
X30765Y-40451D01*
X30774Y-40441D01*
X30791Y-40432D01*
X30911Y-40432D02*
X31022Y-40432D01*
X30962Y-40508D01*
X30988Y-40508D01*
X31005Y-40518D01*
X31014Y-40527D01*
X31022Y-40546D01*
X31022Y-40594D01*
X31014Y-40613D01*
X31005Y-40622D01*
X30988Y-40632D01*
X30936Y-40632D01*
X30919Y-40622D01*
X30911Y-40613D01*
X31380Y-42523D02*
X31285Y-42583D01*
X31380Y-42626D02*
X31180Y-42626D01*
X31180Y-42558D01*
X31189Y-42540D01*
X31199Y-42532D01*
X31218Y-42523D01*
X31247Y-42523D01*
X31266Y-42532D01*
X31275Y-42540D01*
X31285Y-42558D01*
X31285Y-42626D01*
X31180Y-42463D02*
X31180Y-42352D01*
X31256Y-42412D01*
X31256Y-42386D01*
X31266Y-42369D01*
X31275Y-42360D01*
X31294Y-42352D01*
X31342Y-42352D01*
X31361Y-42360D01*
X31370Y-42369D01*
X31380Y-42386D01*
X31380Y-42438D01*
X31370Y-42455D01*
X31361Y-42463D01*
X31180Y-42241D02*
X31180Y-42224D01*
X31189Y-42207D01*
X31199Y-42198D01*
X31218Y-42189D01*
X31256Y-42181D01*
X31304Y-42181D01*
X31342Y-42189D01*
X31361Y-42198D01*
X31370Y-42207D01*
X31380Y-42224D01*
X31380Y-42241D01*
X31370Y-42258D01*
X31361Y-42267D01*
X31342Y-42275D01*
X31304Y-42284D01*
X31256Y-42284D01*
X31218Y-42275D01*
X31199Y-42267D01*
X31189Y-42258D01*
X31180Y-42241D01*
X31180Y-42018D02*
X31180Y-42104D01*
X31275Y-42113D01*
X31266Y-42104D01*
X31256Y-42087D01*
X31256Y-42044D01*
X31266Y-42027D01*
X31275Y-42018D01*
X31294Y-42010D01*
X31342Y-42010D01*
X31361Y-42018D01*
X31370Y-42027D01*
X31380Y-42044D01*
X31380Y-42087D01*
X31370Y-42104D01*
X31361Y-42113D01*
X31380Y-43507D02*
X31285Y-43567D01*
X31380Y-43610D02*
X31180Y-43610D01*
X31180Y-43542D01*
X31189Y-43524D01*
X31199Y-43516D01*
X31218Y-43507D01*
X31247Y-43507D01*
X31266Y-43516D01*
X31275Y-43524D01*
X31285Y-43542D01*
X31285Y-43610D01*
X31180Y-43447D02*
X31180Y-43336D01*
X31256Y-43396D01*
X31256Y-43370D01*
X31266Y-43353D01*
X31275Y-43344D01*
X31294Y-43336D01*
X31342Y-43336D01*
X31361Y-43344D01*
X31370Y-43353D01*
X31380Y-43370D01*
X31380Y-43422D01*
X31370Y-43439D01*
X31361Y-43447D01*
X31180Y-43225D02*
X31180Y-43208D01*
X31189Y-43191D01*
X31199Y-43182D01*
X31218Y-43173D01*
X31256Y-43165D01*
X31304Y-43165D01*
X31342Y-43173D01*
X31361Y-43182D01*
X31370Y-43191D01*
X31380Y-43208D01*
X31380Y-43225D01*
X31370Y-43242D01*
X31361Y-43251D01*
X31342Y-43259D01*
X31304Y-43268D01*
X31256Y-43268D01*
X31218Y-43259D01*
X31199Y-43251D01*
X31189Y-43242D01*
X31180Y-43225D01*
X31180Y-43011D02*
X31180Y-43045D01*
X31189Y-43062D01*
X31199Y-43071D01*
X31228Y-43088D01*
X31266Y-43097D01*
X31342Y-43097D01*
X31361Y-43088D01*
X31370Y-43080D01*
X31380Y-43062D01*
X31380Y-43028D01*
X31370Y-43011D01*
X31361Y-43002D01*
X31342Y-42994D01*
X31294Y-42994D01*
X31275Y-43002D01*
X31266Y-43011D01*
X31256Y-43028D01*
X31256Y-43062D01*
X31266Y-43080D01*
X31275Y-43088D01*
X31294Y-43097D01*
X36414Y-48684D02*
X36405Y-48693D01*
X36379Y-48703D01*
X36362Y-48703D01*
X36337Y-48693D01*
X36319Y-48674D01*
X36311Y-48655D01*
X36302Y-48617D01*
X36302Y-48589D01*
X36311Y-48551D01*
X36319Y-48532D01*
X36337Y-48512D01*
X36362Y-48503D01*
X36379Y-48503D01*
X36405Y-48512D01*
X36414Y-48522D01*
X36482Y-48522D02*
X36491Y-48512D01*
X36508Y-48503D01*
X36551Y-48503D01*
X36568Y-48512D01*
X36577Y-48522D01*
X36585Y-48541D01*
X36585Y-48560D01*
X36577Y-48589D01*
X36474Y-48703D01*
X36585Y-48703D01*
X36696Y-48503D02*
X36713Y-48503D01*
X36730Y-48512D01*
X36739Y-48522D01*
X36748Y-48541D01*
X36756Y-48579D01*
X36756Y-48627D01*
X36748Y-48665D01*
X36739Y-48684D01*
X36730Y-48693D01*
X36713Y-48703D01*
X36696Y-48703D01*
X36679Y-48693D01*
X36670Y-48684D01*
X36662Y-48665D01*
X36653Y-48627D01*
X36653Y-48579D01*
X36662Y-48541D01*
X36670Y-48522D01*
X36679Y-48512D01*
X36696Y-48503D01*
X36816Y-48503D02*
X36927Y-48503D01*
X36867Y-48579D01*
X36893Y-48579D01*
X36910Y-48589D01*
X36919Y-48598D01*
X36927Y-48617D01*
X36927Y-48665D01*
X36919Y-48684D01*
X36910Y-48693D01*
X36893Y-48703D01*
X36841Y-48703D01*
X36824Y-48693D01*
X36816Y-48684D01*
X36162Y-49700D02*
X36171Y-49709D01*
X36181Y-49735D01*
X36181Y-49752D01*
X36171Y-49777D01*
X36152Y-49795D01*
X36133Y-49803D01*
X36095Y-49812D01*
X36067Y-49812D01*
X36029Y-49803D01*
X36010Y-49795D01*
X35990Y-49777D01*
X35981Y-49752D01*
X35981Y-49735D01*
X35990Y-49709D01*
X36000Y-49700D01*
X36000Y-49632D02*
X35990Y-49623D01*
X35981Y-49606D01*
X35981Y-49563D01*
X35990Y-49546D01*
X36000Y-49537D01*
X36019Y-49529D01*
X36038Y-49529D01*
X36067Y-49537D01*
X36181Y-49640D01*
X36181Y-49529D01*
X35981Y-49418D02*
X35981Y-49401D01*
X35990Y-49384D01*
X36000Y-49375D01*
X36019Y-49366D01*
X36057Y-49358D01*
X36105Y-49358D01*
X36143Y-49366D01*
X36162Y-49375D01*
X36171Y-49384D01*
X36181Y-49401D01*
X36181Y-49418D01*
X36171Y-49435D01*
X36162Y-49444D01*
X36143Y-49452D01*
X36105Y-49461D01*
X36057Y-49461D01*
X36019Y-49452D01*
X36000Y-49444D01*
X35990Y-49435D01*
X35981Y-49418D01*
X35981Y-49195D02*
X35981Y-49281D01*
X36076Y-49290D01*
X36067Y-49281D01*
X36057Y-49264D01*
X36057Y-49221D01*
X36067Y-49204D01*
X36076Y-49195D01*
X36095Y-49187D01*
X36143Y-49187D01*
X36162Y-49195D01*
X36171Y-49204D01*
X36181Y-49221D01*
X36181Y-49264D01*
X36171Y-49281D01*
X36162Y-49290D01*
X34446Y-52719D02*
X34437Y-52728D01*
X34411Y-52738D01*
X34394Y-52738D01*
X34369Y-52728D01*
X34351Y-52709D01*
X34343Y-52690D01*
X34334Y-52652D01*
X34334Y-52624D01*
X34343Y-52586D01*
X34351Y-52567D01*
X34369Y-52547D01*
X34394Y-52538D01*
X34411Y-52538D01*
X34437Y-52547D01*
X34446Y-52557D01*
X34514Y-52557D02*
X34523Y-52547D01*
X34540Y-52538D01*
X34583Y-52538D01*
X34600Y-52547D01*
X34609Y-52557D01*
X34617Y-52576D01*
X34617Y-52595D01*
X34609Y-52624D01*
X34506Y-52738D01*
X34617Y-52738D01*
X34728Y-52538D02*
X34745Y-52538D01*
X34762Y-52547D01*
X34771Y-52557D01*
X34780Y-52576D01*
X34788Y-52614D01*
X34788Y-52662D01*
X34780Y-52700D01*
X34771Y-52719D01*
X34762Y-52728D01*
X34745Y-52738D01*
X34728Y-52738D01*
X34711Y-52728D01*
X34702Y-52719D01*
X34694Y-52700D01*
X34685Y-52662D01*
X34685Y-52614D01*
X34694Y-52576D01*
X34702Y-52557D01*
X34711Y-52547D01*
X34728Y-52538D01*
X34942Y-52538D02*
X34908Y-52538D01*
X34891Y-52547D01*
X34882Y-52557D01*
X34865Y-52586D01*
X34856Y-52624D01*
X34856Y-52700D01*
X34865Y-52719D01*
X34873Y-52728D01*
X34891Y-52738D01*
X34925Y-52738D01*
X34942Y-52728D01*
X34951Y-52719D01*
X34959Y-52700D01*
X34959Y-52652D01*
X34951Y-52633D01*
X34942Y-52624D01*
X34925Y-52614D01*
X34891Y-52614D01*
X34873Y-52624D01*
X34865Y-52633D01*
X34856Y-52652D01*
X34019Y-51086D02*
X34028Y-51095D01*
X34038Y-51121D01*
X34038Y-51138D01*
X34028Y-51163D01*
X34009Y-51181D01*
X33990Y-51189D01*
X33952Y-51198D01*
X33924Y-51198D01*
X33886Y-51189D01*
X33867Y-51181D01*
X33847Y-51163D01*
X33838Y-51138D01*
X33838Y-51121D01*
X33847Y-51095D01*
X33857Y-51086D01*
X33857Y-51018D02*
X33847Y-51009D01*
X33838Y-50992D01*
X33838Y-50949D01*
X33847Y-50932D01*
X33857Y-50923D01*
X33876Y-50915D01*
X33895Y-50915D01*
X33924Y-50923D01*
X34038Y-51026D01*
X34038Y-50915D01*
X33838Y-50804D02*
X33838Y-50787D01*
X33847Y-50770D01*
X33857Y-50761D01*
X33876Y-50752D01*
X33914Y-50744D01*
X33962Y-50744D01*
X34000Y-50752D01*
X34019Y-50761D01*
X34028Y-50770D01*
X34038Y-50787D01*
X34038Y-50804D01*
X34028Y-50821D01*
X34019Y-50830D01*
X34000Y-50838D01*
X33962Y-50847D01*
X33914Y-50847D01*
X33876Y-50838D01*
X33857Y-50830D01*
X33847Y-50821D01*
X33838Y-50804D01*
X33838Y-50684D02*
X33838Y-50564D01*
X34038Y-50641D01*
X35962Y-48700D02*
X35971Y-48709D01*
X35981Y-48735D01*
X35981Y-48752D01*
X35971Y-48777D01*
X35952Y-48795D01*
X35933Y-48803D01*
X35895Y-48812D01*
X35867Y-48812D01*
X35829Y-48803D01*
X35810Y-48795D01*
X35790Y-48777D01*
X35781Y-48752D01*
X35781Y-48735D01*
X35790Y-48709D01*
X35800Y-48700D01*
X35800Y-48632D02*
X35790Y-48623D01*
X35781Y-48606D01*
X35781Y-48563D01*
X35790Y-48546D01*
X35800Y-48537D01*
X35819Y-48529D01*
X35838Y-48529D01*
X35867Y-48537D01*
X35981Y-48640D01*
X35981Y-48529D01*
X35781Y-48418D02*
X35781Y-48401D01*
X35790Y-48384D01*
X35800Y-48375D01*
X35819Y-48366D01*
X35857Y-48358D01*
X35905Y-48358D01*
X35943Y-48366D01*
X35962Y-48375D01*
X35971Y-48384D01*
X35981Y-48401D01*
X35981Y-48418D01*
X35971Y-48435D01*
X35962Y-48444D01*
X35943Y-48452D01*
X35905Y-48461D01*
X35857Y-48461D01*
X35819Y-48452D01*
X35800Y-48444D01*
X35790Y-48435D01*
X35781Y-48418D01*
X35981Y-48273D02*
X35981Y-48238D01*
X35971Y-48221D01*
X35962Y-48213D01*
X35933Y-48195D01*
X35895Y-48187D01*
X35819Y-48187D01*
X35800Y-48195D01*
X35790Y-48204D01*
X35781Y-48221D01*
X35781Y-48255D01*
X35790Y-48273D01*
X35800Y-48281D01*
X35819Y-48290D01*
X35867Y-48290D01*
X35886Y-48281D01*
X35895Y-48273D01*
X35905Y-48255D01*
X35905Y-48221D01*
X35895Y-48204D01*
X35886Y-48195D01*
X35867Y-48187D01*
X34806Y-47936D02*
X34815Y-47945D01*
X34825Y-47971D01*
X34825Y-47988D01*
X34815Y-48013D01*
X34796Y-48031D01*
X34777Y-48039D01*
X34739Y-48048D01*
X34711Y-48048D01*
X34673Y-48039D01*
X34654Y-48031D01*
X34634Y-48013D01*
X34625Y-47988D01*
X34625Y-47971D01*
X34634Y-47945D01*
X34644Y-47936D01*
X34644Y-47868D02*
X34634Y-47859D01*
X34625Y-47842D01*
X34625Y-47799D01*
X34634Y-47782D01*
X34644Y-47773D01*
X34663Y-47765D01*
X34682Y-47765D01*
X34711Y-47773D01*
X34825Y-47876D01*
X34825Y-47765D01*
X34825Y-47594D02*
X34825Y-47697D01*
X34825Y-47645D02*
X34625Y-47645D01*
X34654Y-47662D01*
X34673Y-47680D01*
X34682Y-47697D01*
X34625Y-47483D02*
X34625Y-47466D01*
X34634Y-47449D01*
X34644Y-47440D01*
X34663Y-47431D01*
X34701Y-47423D01*
X34749Y-47423D01*
X34787Y-47431D01*
X34806Y-47440D01*
X34815Y-47449D01*
X34825Y-47466D01*
X34825Y-47483D01*
X34815Y-47500D01*
X34806Y-47509D01*
X34787Y-47517D01*
X34749Y-47526D01*
X34701Y-47526D01*
X34663Y-47517D01*
X34644Y-47509D01*
X34634Y-47500D01*
X34625Y-47483D01*
X32674Y-52621D02*
X32665Y-52630D01*
X32639Y-52640D01*
X32622Y-52640D01*
X32597Y-52630D01*
X32579Y-52611D01*
X32571Y-52592D01*
X32562Y-52554D01*
X32562Y-52526D01*
X32571Y-52488D01*
X32579Y-52469D01*
X32597Y-52449D01*
X32622Y-52440D01*
X32639Y-52440D01*
X32665Y-52449D01*
X32674Y-52459D01*
X32742Y-52459D02*
X32751Y-52449D01*
X32768Y-52440D01*
X32811Y-52440D01*
X32828Y-52449D01*
X32837Y-52459D01*
X32845Y-52478D01*
X32845Y-52497D01*
X32837Y-52526D01*
X32734Y-52640D01*
X32845Y-52640D01*
X33016Y-52640D02*
X32913Y-52640D01*
X32965Y-52640D02*
X32965Y-52440D01*
X32948Y-52469D01*
X32930Y-52488D01*
X32913Y-52497D01*
X33187Y-52640D02*
X33084Y-52640D01*
X33136Y-52640D02*
X33136Y-52440D01*
X33119Y-52469D01*
X33101Y-52488D01*
X33084Y-52497D01*
X32674Y-53408D02*
X32665Y-53417D01*
X32639Y-53427D01*
X32622Y-53427D01*
X32597Y-53417D01*
X32579Y-53398D01*
X32571Y-53379D01*
X32562Y-53341D01*
X32562Y-53313D01*
X32571Y-53275D01*
X32579Y-53256D01*
X32597Y-53236D01*
X32622Y-53227D01*
X32639Y-53227D01*
X32665Y-53236D01*
X32674Y-53246D01*
X32742Y-53246D02*
X32751Y-53236D01*
X32768Y-53227D01*
X32811Y-53227D01*
X32828Y-53236D01*
X32837Y-53246D01*
X32845Y-53265D01*
X32845Y-53284D01*
X32837Y-53313D01*
X32734Y-53427D01*
X32845Y-53427D01*
X33016Y-53427D02*
X32913Y-53427D01*
X32965Y-53427D02*
X32965Y-53227D01*
X32948Y-53256D01*
X32930Y-53275D01*
X32913Y-53284D01*
X33084Y-53246D02*
X33093Y-53236D01*
X33110Y-53227D01*
X33153Y-53227D01*
X33170Y-53236D01*
X33179Y-53246D01*
X33187Y-53265D01*
X33187Y-53284D01*
X33179Y-53313D01*
X33076Y-53427D01*
X33187Y-53427D01*
X27031Y-51775D02*
X27040Y-51784D01*
X27050Y-51810D01*
X27050Y-51827D01*
X27040Y-51852D01*
X27021Y-51870D01*
X27002Y-51878D01*
X26964Y-51887D01*
X26936Y-51887D01*
X26898Y-51878D01*
X26879Y-51870D01*
X26859Y-51852D01*
X26850Y-51827D01*
X26850Y-51810D01*
X26859Y-51784D01*
X26869Y-51775D01*
X26869Y-51707D02*
X26859Y-51698D01*
X26850Y-51681D01*
X26850Y-51638D01*
X26859Y-51621D01*
X26869Y-51612D01*
X26888Y-51604D01*
X26907Y-51604D01*
X26936Y-51612D01*
X27050Y-51715D01*
X27050Y-51604D01*
X27050Y-51433D02*
X27050Y-51536D01*
X27050Y-51484D02*
X26850Y-51484D01*
X26879Y-51501D01*
X26898Y-51519D01*
X26907Y-51536D01*
X26917Y-51279D02*
X27050Y-51279D01*
X26840Y-51322D02*
X26983Y-51365D01*
X26983Y-51253D01*
X27326Y-43113D02*
X27335Y-43122D01*
X27345Y-43148D01*
X27345Y-43165D01*
X27335Y-43190D01*
X27316Y-43208D01*
X27297Y-43216D01*
X27259Y-43225D01*
X27231Y-43225D01*
X27193Y-43216D01*
X27174Y-43208D01*
X27154Y-43190D01*
X27145Y-43165D01*
X27145Y-43148D01*
X27154Y-43122D01*
X27164Y-43113D01*
X27145Y-43053D02*
X27145Y-42942D01*
X27221Y-43002D01*
X27221Y-42976D01*
X27231Y-42959D01*
X27240Y-42950D01*
X27259Y-42942D01*
X27307Y-42942D01*
X27326Y-42950D01*
X27335Y-42959D01*
X27345Y-42976D01*
X27345Y-43028D01*
X27335Y-43045D01*
X27326Y-43053D01*
X27145Y-42831D02*
X27145Y-42814D01*
X27154Y-42797D01*
X27164Y-42788D01*
X27183Y-42779D01*
X27221Y-42771D01*
X27269Y-42771D01*
X27307Y-42779D01*
X27326Y-42788D01*
X27335Y-42797D01*
X27345Y-42814D01*
X27345Y-42831D01*
X27335Y-42848D01*
X27326Y-42857D01*
X27307Y-42865D01*
X27269Y-42874D01*
X27221Y-42874D01*
X27183Y-42865D01*
X27164Y-42857D01*
X27154Y-42848D01*
X27145Y-42831D01*
X27345Y-42686D02*
X27345Y-42651D01*
X27335Y-42634D01*
X27326Y-42626D01*
X27297Y-42608D01*
X27259Y-42600D01*
X27183Y-42600D01*
X27164Y-42608D01*
X27154Y-42617D01*
X27145Y-42634D01*
X27145Y-42668D01*
X27154Y-42686D01*
X27164Y-42694D01*
X27183Y-42703D01*
X27231Y-42703D01*
X27250Y-42694D01*
X27259Y-42686D01*
X27269Y-42668D01*
X27269Y-42634D01*
X27259Y-42617D01*
X27250Y-42608D01*
X27231Y-42600D01*
X20863Y-57739D02*
X20854Y-57748D01*
X20828Y-57758D01*
X20811Y-57758D01*
X20786Y-57748D01*
X20768Y-57729D01*
X20760Y-57710D01*
X20751Y-57672D01*
X20751Y-57644D01*
X20760Y-57606D01*
X20768Y-57587D01*
X20786Y-57567D01*
X20811Y-57558D01*
X20828Y-57558D01*
X20854Y-57567D01*
X20863Y-57577D01*
X21034Y-57758D02*
X20931Y-57758D01*
X20983Y-57758D02*
X20983Y-57558D01*
X20966Y-57587D01*
X20948Y-57606D01*
X20931Y-57615D01*
X21145Y-57558D02*
X21162Y-57558D01*
X21179Y-57567D01*
X21188Y-57577D01*
X21197Y-57596D01*
X21205Y-57634D01*
X21205Y-57682D01*
X21197Y-57720D01*
X21188Y-57739D01*
X21179Y-57748D01*
X21162Y-57758D01*
X21145Y-57758D01*
X21128Y-57748D01*
X21119Y-57739D01*
X21111Y-57720D01*
X21102Y-57682D01*
X21102Y-57634D01*
X21111Y-57596D01*
X21119Y-57577D01*
X21128Y-57567D01*
X21145Y-57558D01*
X21368Y-57558D02*
X21282Y-57558D01*
X21273Y-57653D01*
X21282Y-57644D01*
X21299Y-57634D01*
X21342Y-57634D01*
X21359Y-57644D01*
X21368Y-57653D01*
X21376Y-57672D01*
X21376Y-57720D01*
X21368Y-57739D01*
X21359Y-57748D01*
X21342Y-57758D01*
X21299Y-57758D01*
X21282Y-57748D01*
X21273Y-57739D01*
X28934Y-56361D02*
X28925Y-56370D01*
X28899Y-56380D01*
X28882Y-56380D01*
X28857Y-56370D01*
X28839Y-56351D01*
X28831Y-56332D01*
X28822Y-56294D01*
X28822Y-56266D01*
X28831Y-56228D01*
X28839Y-56209D01*
X28857Y-56189D01*
X28882Y-56180D01*
X28899Y-56180D01*
X28925Y-56189D01*
X28934Y-56199D01*
X29105Y-56380D02*
X29002Y-56380D01*
X29054Y-56380D02*
X29054Y-56180D01*
X29037Y-56209D01*
X29019Y-56228D01*
X29002Y-56237D01*
X29216Y-56180D02*
X29233Y-56180D01*
X29250Y-56189D01*
X29259Y-56199D01*
X29268Y-56218D01*
X29276Y-56256D01*
X29276Y-56304D01*
X29268Y-56342D01*
X29259Y-56361D01*
X29250Y-56370D01*
X29233Y-56380D01*
X29216Y-56380D01*
X29199Y-56370D01*
X29190Y-56361D01*
X29182Y-56342D01*
X29173Y-56304D01*
X29173Y-56256D01*
X29182Y-56218D01*
X29190Y-56199D01*
X29199Y-56189D01*
X29216Y-56180D01*
X29344Y-56199D02*
X29353Y-56189D01*
X29370Y-56180D01*
X29413Y-56180D01*
X29430Y-56189D01*
X29439Y-56199D01*
X29447Y-56218D01*
X29447Y-56237D01*
X29439Y-56266D01*
X29336Y-56380D01*
X29447Y-56380D01*
X20863Y-62759D02*
X20854Y-62768D01*
X20828Y-62778D01*
X20811Y-62778D01*
X20786Y-62768D01*
X20768Y-62749D01*
X20760Y-62730D01*
X20751Y-62692D01*
X20751Y-62664D01*
X20760Y-62626D01*
X20768Y-62607D01*
X20786Y-62587D01*
X20811Y-62578D01*
X20828Y-62578D01*
X20854Y-62587D01*
X20863Y-62597D01*
X21034Y-62778D02*
X20931Y-62778D01*
X20983Y-62778D02*
X20983Y-62578D01*
X20966Y-62607D01*
X20948Y-62626D01*
X20931Y-62635D01*
X21145Y-62578D02*
X21162Y-62578D01*
X21179Y-62587D01*
X21188Y-62597D01*
X21197Y-62616D01*
X21205Y-62654D01*
X21205Y-62702D01*
X21197Y-62740D01*
X21188Y-62759D01*
X21179Y-62768D01*
X21162Y-62778D01*
X21145Y-62778D01*
X21128Y-62768D01*
X21119Y-62759D01*
X21111Y-62740D01*
X21102Y-62702D01*
X21102Y-62654D01*
X21111Y-62616D01*
X21119Y-62597D01*
X21128Y-62587D01*
X21145Y-62578D01*
X21359Y-62578D02*
X21325Y-62578D01*
X21308Y-62587D01*
X21299Y-62597D01*
X21282Y-62626D01*
X21273Y-62664D01*
X21273Y-62740D01*
X21282Y-62759D01*
X21290Y-62768D01*
X21308Y-62778D01*
X21342Y-62778D01*
X21359Y-62768D01*
X21368Y-62759D01*
X21376Y-62740D01*
X21376Y-62692D01*
X21368Y-62673D01*
X21359Y-62664D01*
X21342Y-62654D01*
X21308Y-62654D01*
X21290Y-62664D01*
X21282Y-62673D01*
X21273Y-62692D01*
G54D13*
X24958Y-66420D02*
X24958Y-66220D01*
X25005Y-66220D01*
X25034Y-66229D01*
X25053Y-66249D01*
X25062Y-66268D01*
X25072Y-66306D01*
X25072Y-66334D01*
X25062Y-66372D01*
X25053Y-66391D01*
X25034Y-66410D01*
X25005Y-66420D01*
X24958Y-66420D01*
X25262Y-66420D02*
X25148Y-66420D01*
X25205Y-66420D02*
X25205Y-66220D01*
X25186Y-66249D01*
X25167Y-66268D01*
X25148Y-66277D01*
X25386Y-66220D02*
X25405Y-66220D01*
X25424Y-66229D01*
X25433Y-66239D01*
X25443Y-66258D01*
X25452Y-66296D01*
X25452Y-66344D01*
X25443Y-66382D01*
X25433Y-66401D01*
X25424Y-66410D01*
X25405Y-66420D01*
X25386Y-66420D01*
X25367Y-66410D01*
X25357Y-66401D01*
X25348Y-66382D01*
X25338Y-66344D01*
X25338Y-66296D01*
X25348Y-66258D01*
X25357Y-66239D01*
X25367Y-66229D01*
X25386Y-66220D01*
X25642Y-66420D02*
X25528Y-66420D01*
X25585Y-66420D02*
X25585Y-66220D01*
X25566Y-66249D01*
X25547Y-66268D01*
X25528Y-66277D01*
X29100Y-39812D02*
X29100Y-40015D01*
X29111Y-40038D01*
X29123Y-40050D01*
X29147Y-40062D01*
X29195Y-40062D01*
X29219Y-40050D01*
X29230Y-40038D01*
X29242Y-40015D01*
X29242Y-39812D01*
X29338Y-39812D02*
X29492Y-39812D01*
X29409Y-39907D01*
X29445Y-39907D01*
X29469Y-39919D01*
X29481Y-39931D01*
X29492Y-39955D01*
X29492Y-40015D01*
X29481Y-40038D01*
X29469Y-40050D01*
X29445Y-40062D01*
X29373Y-40062D01*
X29350Y-40050D01*
X29338Y-40038D01*
X29647Y-39812D02*
X29671Y-39812D01*
X29695Y-39824D01*
X29707Y-39836D01*
X29719Y-39860D01*
X29730Y-39907D01*
X29730Y-39967D01*
X29719Y-40015D01*
X29707Y-40038D01*
X29695Y-40050D01*
X29671Y-40062D01*
X29647Y-40062D01*
X29623Y-40050D01*
X29611Y-40038D01*
X29600Y-40015D01*
X29588Y-39967D01*
X29588Y-39907D01*
X29600Y-39860D01*
X29611Y-39836D01*
X29623Y-39824D01*
X29647Y-39812D01*
X29826Y-39836D02*
X29838Y-39824D01*
X29861Y-39812D01*
X29921Y-39812D01*
X29945Y-39824D01*
X29957Y-39836D01*
X29968Y-39860D01*
X29968Y-39884D01*
X29957Y-39919D01*
X29814Y-40062D01*
X29968Y-40062D01*
X35151Y-71406D02*
X35151Y-71585D01*
X35139Y-71620D01*
X35115Y-71644D01*
X35080Y-71656D01*
X35056Y-71656D01*
X35258Y-71430D02*
X35270Y-71418D01*
X35293Y-71406D01*
X35353Y-71406D01*
X35377Y-71418D01*
X35389Y-71430D01*
X35400Y-71454D01*
X35400Y-71478D01*
X35389Y-71513D01*
X35246Y-71656D01*
X35400Y-71656D01*
X35555Y-71406D02*
X35579Y-71406D01*
X35603Y-71418D01*
X35615Y-71430D01*
X35627Y-71454D01*
X35638Y-71501D01*
X35638Y-71561D01*
X35627Y-71609D01*
X35615Y-71632D01*
X35603Y-71644D01*
X35579Y-71656D01*
X35555Y-71656D01*
X35531Y-71644D01*
X35519Y-71632D01*
X35508Y-71609D01*
X35496Y-71561D01*
X35496Y-71501D01*
X35508Y-71454D01*
X35519Y-71430D01*
X35531Y-71418D01*
X35555Y-71406D01*
X35734Y-71430D02*
X35746Y-71418D01*
X35769Y-71406D01*
X35829Y-71406D01*
X35853Y-71418D01*
X35865Y-71430D01*
X35876Y-71454D01*
X35876Y-71478D01*
X35865Y-71513D01*
X35722Y-71656D01*
X35876Y-71656D01*
X30031Y-58073D02*
X30031Y-57823D01*
X30292Y-58049D02*
X30280Y-58061D01*
X30245Y-58073D01*
X30221Y-58073D01*
X30185Y-58061D01*
X30161Y-58037D01*
X30150Y-58014D01*
X30138Y-57966D01*
X30138Y-57930D01*
X30150Y-57883D01*
X30161Y-57859D01*
X30185Y-57835D01*
X30221Y-57823D01*
X30245Y-57823D01*
X30280Y-57835D01*
X30292Y-57847D01*
X30530Y-58073D02*
X30388Y-58073D01*
X30459Y-58073D02*
X30459Y-57823D01*
X30435Y-57859D01*
X30411Y-57883D01*
X30388Y-57895D01*
X30685Y-57823D02*
X30709Y-57823D01*
X30733Y-57835D01*
X30745Y-57847D01*
X30757Y-57871D01*
X30768Y-57918D01*
X30768Y-57978D01*
X30757Y-58026D01*
X30745Y-58049D01*
X30733Y-58061D01*
X30709Y-58073D01*
X30685Y-58073D01*
X30661Y-58061D01*
X30649Y-58049D01*
X30638Y-58026D01*
X30626Y-57978D01*
X30626Y-57918D01*
X30638Y-57871D01*
X30649Y-57847D01*
X30661Y-57835D01*
X30685Y-57823D01*
X31006Y-58073D02*
X30864Y-58073D01*
X30935Y-58073D02*
X30935Y-57823D01*
X30911Y-57859D01*
X30887Y-57883D01*
X30864Y-57895D01*
X24379Y-53751D02*
X24379Y-53930D01*
X24367Y-53965D01*
X24343Y-53989D01*
X24308Y-54001D01*
X24284Y-54001D01*
X24628Y-54001D02*
X24486Y-54001D01*
X24557Y-54001D02*
X24557Y-53751D01*
X24533Y-53787D01*
X24509Y-53811D01*
X24486Y-53823D01*
X24783Y-53751D02*
X24807Y-53751D01*
X24831Y-53763D01*
X24843Y-53775D01*
X24855Y-53799D01*
X24866Y-53846D01*
X24866Y-53906D01*
X24855Y-53954D01*
X24843Y-53977D01*
X24831Y-53989D01*
X24807Y-54001D01*
X24783Y-54001D01*
X24759Y-53989D01*
X24747Y-53977D01*
X24736Y-53954D01*
X24724Y-53906D01*
X24724Y-53846D01*
X24736Y-53799D01*
X24747Y-53775D01*
X24759Y-53763D01*
X24783Y-53751D01*
X24950Y-53751D02*
X25104Y-53751D01*
X25021Y-53846D01*
X25057Y-53846D01*
X25081Y-53858D01*
X25093Y-53870D01*
X25104Y-53894D01*
X25104Y-53954D01*
X25093Y-53977D01*
X25081Y-53989D01*
X25057Y-54001D01*
X24985Y-54001D01*
X24962Y-53989D01*
X24950Y-53977D01*
X30781Y-63631D02*
X30781Y-63810D01*
X30769Y-63845D01*
X30745Y-63869D01*
X30710Y-63881D01*
X30686Y-63881D01*
X31030Y-63881D02*
X30888Y-63881D01*
X30959Y-63881D02*
X30959Y-63631D01*
X30935Y-63667D01*
X30911Y-63691D01*
X30888Y-63703D01*
X31185Y-63631D02*
X31209Y-63631D01*
X31233Y-63643D01*
X31245Y-63655D01*
X31257Y-63679D01*
X31268Y-63726D01*
X31268Y-63786D01*
X31257Y-63834D01*
X31245Y-63857D01*
X31233Y-63869D01*
X31209Y-63881D01*
X31185Y-63881D01*
X31161Y-63869D01*
X31149Y-63857D01*
X31138Y-63834D01*
X31126Y-63786D01*
X31126Y-63726D01*
X31138Y-63679D01*
X31149Y-63655D01*
X31161Y-63643D01*
X31185Y-63631D01*
X31483Y-63715D02*
X31483Y-63881D01*
X31423Y-63619D02*
X31364Y-63798D01*
X31518Y-63798D01*
X27051Y-44399D02*
X26801Y-44399D01*
X26801Y-44304D01*
X26813Y-44280D01*
X26825Y-44269D01*
X26849Y-44257D01*
X26885Y-44257D01*
X26908Y-44269D01*
X26920Y-44280D01*
X26932Y-44304D01*
X26932Y-44399D01*
X26801Y-44173D02*
X26801Y-44019D01*
X26896Y-44102D01*
X26896Y-44066D01*
X26908Y-44042D01*
X26920Y-44030D01*
X26944Y-44019D01*
X27004Y-44019D01*
X27027Y-44030D01*
X27039Y-44042D01*
X27051Y-44066D01*
X27051Y-44138D01*
X27039Y-44161D01*
X27027Y-44173D01*
X26801Y-43864D02*
X26801Y-43840D01*
X26813Y-43816D01*
X26825Y-43804D01*
X26849Y-43792D01*
X26896Y-43781D01*
X26956Y-43781D01*
X27004Y-43792D01*
X27027Y-43804D01*
X27039Y-43816D01*
X27051Y-43840D01*
X27051Y-43864D01*
X27039Y-43888D01*
X27027Y-43900D01*
X27004Y-43911D01*
X26956Y-43923D01*
X26896Y-43923D01*
X26849Y-43911D01*
X26825Y-43900D01*
X26813Y-43888D01*
X26801Y-43864D01*
X27051Y-43543D02*
X27051Y-43685D01*
X27051Y-43614D02*
X26801Y-43614D01*
X26837Y-43638D01*
X26861Y-43662D01*
X26873Y-43685D01*
X25351Y-45622D02*
X25101Y-45622D01*
X25101Y-45563D01*
X25113Y-45527D01*
X25137Y-45503D01*
X25161Y-45492D01*
X25208Y-45480D01*
X25244Y-45480D01*
X25292Y-45492D01*
X25315Y-45503D01*
X25339Y-45527D01*
X25351Y-45563D01*
X25351Y-45622D01*
X25101Y-45396D02*
X25101Y-45242D01*
X25196Y-45325D01*
X25196Y-45289D01*
X25208Y-45265D01*
X25220Y-45253D01*
X25244Y-45242D01*
X25304Y-45242D01*
X25327Y-45253D01*
X25339Y-45265D01*
X25351Y-45289D01*
X25351Y-45361D01*
X25339Y-45384D01*
X25327Y-45396D01*
X25101Y-45087D02*
X25101Y-45063D01*
X25113Y-45039D01*
X25125Y-45027D01*
X25149Y-45015D01*
X25196Y-45004D01*
X25256Y-45004D01*
X25304Y-45015D01*
X25327Y-45027D01*
X25339Y-45039D01*
X25351Y-45063D01*
X25351Y-45087D01*
X25339Y-45111D01*
X25327Y-45123D01*
X25304Y-45134D01*
X25256Y-45146D01*
X25196Y-45146D01*
X25149Y-45134D01*
X25125Y-45123D01*
X25113Y-45111D01*
X25101Y-45087D01*
X25351Y-44766D02*
X25351Y-44908D01*
X25351Y-44837D02*
X25101Y-44837D01*
X25137Y-44861D01*
X25161Y-44885D01*
X25173Y-44908D01*
X25601Y-47029D02*
X25601Y-47148D01*
X25351Y-47148D01*
X25351Y-46970D02*
X25351Y-46816D01*
X25446Y-46899D01*
X25446Y-46863D01*
X25458Y-46839D01*
X25470Y-46827D01*
X25494Y-46816D01*
X25554Y-46816D01*
X25577Y-46827D01*
X25589Y-46839D01*
X25601Y-46863D01*
X25601Y-46935D01*
X25589Y-46958D01*
X25577Y-46970D01*
X25351Y-46661D02*
X25351Y-46637D01*
X25363Y-46613D01*
X25375Y-46601D01*
X25399Y-46589D01*
X25446Y-46578D01*
X25506Y-46578D01*
X25554Y-46589D01*
X25577Y-46601D01*
X25589Y-46613D01*
X25601Y-46637D01*
X25601Y-46661D01*
X25589Y-46685D01*
X25577Y-46697D01*
X25554Y-46708D01*
X25506Y-46720D01*
X25446Y-46720D01*
X25399Y-46708D01*
X25375Y-46697D01*
X25363Y-46685D01*
X25351Y-46661D01*
X25601Y-46340D02*
X25601Y-46482D01*
X25601Y-46411D02*
X25351Y-46411D01*
X25387Y-46435D01*
X25411Y-46459D01*
X25423Y-46482D01*
X31445Y-54956D02*
X31648Y-54956D01*
X31671Y-54945D01*
X31683Y-54933D01*
X31695Y-54909D01*
X31695Y-54861D01*
X31683Y-54837D01*
X31671Y-54826D01*
X31648Y-54814D01*
X31445Y-54814D01*
X31469Y-54706D02*
X31457Y-54694D01*
X31445Y-54671D01*
X31445Y-54611D01*
X31457Y-54587D01*
X31469Y-54575D01*
X31493Y-54564D01*
X31517Y-54564D01*
X31552Y-54575D01*
X31695Y-54718D01*
X31695Y-54564D01*
X31445Y-54409D02*
X31445Y-54385D01*
X31457Y-54361D01*
X31469Y-54349D01*
X31493Y-54337D01*
X31540Y-54326D01*
X31600Y-54326D01*
X31648Y-54337D01*
X31671Y-54349D01*
X31683Y-54361D01*
X31695Y-54385D01*
X31695Y-54409D01*
X31683Y-54433D01*
X31671Y-54445D01*
X31648Y-54456D01*
X31600Y-54468D01*
X31540Y-54468D01*
X31493Y-54456D01*
X31469Y-54445D01*
X31457Y-54433D01*
X31445Y-54409D01*
X31469Y-54230D02*
X31457Y-54218D01*
X31445Y-54195D01*
X31445Y-54135D01*
X31457Y-54111D01*
X31469Y-54099D01*
X31493Y-54088D01*
X31517Y-54088D01*
X31552Y-54099D01*
X31695Y-54242D01*
X31695Y-54088D01*
X21209Y-60578D02*
X21459Y-60412D01*
X21209Y-60412D02*
X21459Y-60578D01*
X21459Y-60186D02*
X21459Y-60328D01*
X21459Y-60257D02*
X21209Y-60257D01*
X21245Y-60281D01*
X21269Y-60305D01*
X21281Y-60328D01*
X21209Y-60031D02*
X21209Y-60007D01*
X21221Y-59983D01*
X21233Y-59971D01*
X21257Y-59959D01*
X21304Y-59948D01*
X21364Y-59948D01*
X21412Y-59959D01*
X21435Y-59971D01*
X21447Y-59983D01*
X21459Y-60007D01*
X21459Y-60031D01*
X21447Y-60055D01*
X21435Y-60067D01*
X21412Y-60078D01*
X21364Y-60090D01*
X21304Y-60090D01*
X21257Y-60078D01*
X21233Y-60067D01*
X21221Y-60055D01*
X21209Y-60031D01*
X21459Y-59710D02*
X21459Y-59852D01*
X21459Y-59781D02*
X21209Y-59781D01*
X21245Y-59805D01*
X21269Y-59829D01*
X21281Y-59852D01*
X20447Y-64024D02*
X20447Y-64203D01*
X20435Y-64238D01*
X20411Y-64262D01*
X20376Y-64274D01*
X20352Y-64274D01*
X20696Y-64274D02*
X20554Y-64274D01*
X20625Y-64274D02*
X20625Y-64024D01*
X20601Y-64060D01*
X20577Y-64084D01*
X20554Y-64096D01*
X20851Y-64024D02*
X20875Y-64024D01*
X20899Y-64036D01*
X20911Y-64048D01*
X20923Y-64072D01*
X20934Y-64119D01*
X20934Y-64179D01*
X20923Y-64227D01*
X20911Y-64250D01*
X20899Y-64262D01*
X20875Y-64274D01*
X20851Y-64274D01*
X20827Y-64262D01*
X20815Y-64250D01*
X20804Y-64227D01*
X20792Y-64179D01*
X20792Y-64119D01*
X20804Y-64072D01*
X20815Y-64048D01*
X20827Y-64036D01*
X20851Y-64024D01*
X21030Y-64048D02*
X21042Y-64036D01*
X21065Y-64024D01*
X21125Y-64024D01*
X21149Y-64036D01*
X21161Y-64048D01*
X21172Y-64072D01*
X21172Y-64096D01*
X21161Y-64131D01*
X21018Y-64274D01*
X21172Y-64274D01*
X35351Y-46164D02*
X35232Y-46164D01*
X35232Y-45914D01*
X35422Y-45938D02*
X35434Y-45926D01*
X35457Y-45914D01*
X35517Y-45914D01*
X35541Y-45926D01*
X35553Y-45938D01*
X35564Y-45962D01*
X35564Y-45986D01*
X35553Y-46021D01*
X35410Y-46164D01*
X35564Y-46164D01*
X35719Y-45914D02*
X35743Y-45914D01*
X35767Y-45926D01*
X35779Y-45938D01*
X35791Y-45962D01*
X35802Y-46009D01*
X35802Y-46069D01*
X35791Y-46117D01*
X35779Y-46140D01*
X35767Y-46152D01*
X35743Y-46164D01*
X35719Y-46164D01*
X35695Y-46152D01*
X35683Y-46140D01*
X35672Y-46117D01*
X35660Y-46069D01*
X35660Y-46009D01*
X35672Y-45962D01*
X35683Y-45938D01*
X35695Y-45926D01*
X35719Y-45914D01*
X36040Y-46164D02*
X35898Y-46164D01*
X35969Y-46164D02*
X35969Y-45914D01*
X35945Y-45950D01*
X35921Y-45974D01*
X35898Y-45986D01*
X31408Y-41281D02*
X31587Y-41281D01*
X31622Y-41293D01*
X31646Y-41317D01*
X31658Y-41352D01*
X31658Y-41376D01*
X31492Y-41055D02*
X31658Y-41055D01*
X31396Y-41115D02*
X31575Y-41174D01*
X31575Y-41020D01*
X31408Y-40877D02*
X31408Y-40853D01*
X31420Y-40829D01*
X31432Y-40817D01*
X31456Y-40805D01*
X31503Y-40794D01*
X31563Y-40794D01*
X31611Y-40805D01*
X31634Y-40817D01*
X31646Y-40829D01*
X31658Y-40853D01*
X31658Y-40877D01*
X31646Y-40901D01*
X31634Y-40913D01*
X31611Y-40924D01*
X31563Y-40936D01*
X31503Y-40936D01*
X31456Y-40924D01*
X31432Y-40913D01*
X31420Y-40901D01*
X31408Y-40877D01*
X31658Y-40556D02*
X31658Y-40698D01*
X31658Y-40627D02*
X31408Y-40627D01*
X31444Y-40651D01*
X31468Y-40675D01*
X31480Y-40698D01*
X20770Y-70599D02*
X20520Y-70599D01*
X20520Y-70504D01*
X20532Y-70480D01*
X20544Y-70469D01*
X20568Y-70457D01*
X20604Y-70457D01*
X20627Y-70469D01*
X20639Y-70480D01*
X20651Y-70504D01*
X20651Y-70599D01*
X20770Y-70219D02*
X20770Y-70361D01*
X20770Y-70290D02*
X20520Y-70290D01*
X20556Y-70314D01*
X20580Y-70338D01*
X20592Y-70361D01*
X20520Y-70064D02*
X20520Y-70040D01*
X20532Y-70016D01*
X20544Y-70004D01*
X20568Y-69992D01*
X20615Y-69981D01*
X20675Y-69981D01*
X20723Y-69992D01*
X20746Y-70004D01*
X20758Y-70016D01*
X20770Y-70040D01*
X20770Y-70064D01*
X20758Y-70088D01*
X20746Y-70100D01*
X20723Y-70111D01*
X20675Y-70123D01*
X20615Y-70123D01*
X20568Y-70111D01*
X20544Y-70100D01*
X20532Y-70088D01*
X20520Y-70064D01*
X20770Y-69743D02*
X20770Y-69885D01*
X20770Y-69814D02*
X20520Y-69814D01*
X20556Y-69838D01*
X20580Y-69862D01*
X20592Y-69885D01*
X21625Y-53152D02*
X21625Y-52902D01*
X21720Y-52902D01*
X21744Y-52914D01*
X21755Y-52926D01*
X21767Y-52950D01*
X21767Y-52986D01*
X21755Y-53009D01*
X21744Y-53021D01*
X21720Y-53033D01*
X21625Y-53033D01*
X22005Y-53152D02*
X21863Y-53152D01*
X21934Y-53152D02*
X21934Y-52902D01*
X21910Y-52938D01*
X21886Y-52962D01*
X21863Y-52974D01*
X22160Y-52902D02*
X22184Y-52902D01*
X22208Y-52914D01*
X22220Y-52926D01*
X22232Y-52950D01*
X22243Y-52997D01*
X22243Y-53057D01*
X22232Y-53105D01*
X22220Y-53128D01*
X22208Y-53140D01*
X22184Y-53152D01*
X22160Y-53152D01*
X22136Y-53140D01*
X22124Y-53128D01*
X22113Y-53105D01*
X22101Y-53057D01*
X22101Y-52997D01*
X22113Y-52950D01*
X22124Y-52926D01*
X22136Y-52914D01*
X22160Y-52902D01*
X22339Y-52926D02*
X22351Y-52914D01*
X22374Y-52902D01*
X22434Y-52902D01*
X22458Y-52914D01*
X22470Y-52926D01*
X22481Y-52950D01*
X22481Y-52974D01*
X22470Y-53009D01*
X22327Y-53152D01*
X22481Y-53152D01*
X32286Y-66859D02*
X32036Y-66859D01*
X32036Y-66764D01*
X32048Y-66740D01*
X32060Y-66729D01*
X32084Y-66717D01*
X32120Y-66717D01*
X32143Y-66729D01*
X32155Y-66740D01*
X32167Y-66764D01*
X32167Y-66859D01*
X32286Y-66479D02*
X32286Y-66621D01*
X32286Y-66550D02*
X32036Y-66550D01*
X32072Y-66574D01*
X32096Y-66598D01*
X32108Y-66621D01*
X32036Y-66324D02*
X32036Y-66300D01*
X32048Y-66276D01*
X32060Y-66264D01*
X32084Y-66252D01*
X32131Y-66241D01*
X32191Y-66241D01*
X32239Y-66252D01*
X32262Y-66264D01*
X32274Y-66276D01*
X32286Y-66300D01*
X32286Y-66324D01*
X32274Y-66348D01*
X32262Y-66360D01*
X32239Y-66371D01*
X32191Y-66383D01*
X32131Y-66383D01*
X32084Y-66371D01*
X32060Y-66360D01*
X32048Y-66348D01*
X32036Y-66324D01*
X32036Y-66157D02*
X32036Y-66003D01*
X32131Y-66086D01*
X32131Y-66050D01*
X32143Y-66026D01*
X32155Y-66014D01*
X32179Y-66003D01*
X32239Y-66003D01*
X32262Y-66014D01*
X32274Y-66026D01*
X32286Y-66050D01*
X32286Y-66122D01*
X32274Y-66145D01*
X32262Y-66157D01*
X37669Y-55514D02*
X37669Y-55264D01*
X37764Y-55264D01*
X37788Y-55276D01*
X37799Y-55288D01*
X37811Y-55312D01*
X37811Y-55348D01*
X37799Y-55371D01*
X37788Y-55383D01*
X37764Y-55395D01*
X37669Y-55395D01*
X38049Y-55514D02*
X37907Y-55514D01*
X37978Y-55514D02*
X37978Y-55264D01*
X37954Y-55300D01*
X37930Y-55324D01*
X37907Y-55336D01*
X38204Y-55264D02*
X38228Y-55264D01*
X38252Y-55276D01*
X38264Y-55288D01*
X38276Y-55312D01*
X38287Y-55359D01*
X38287Y-55419D01*
X38276Y-55467D01*
X38264Y-55490D01*
X38252Y-55502D01*
X38228Y-55514D01*
X38204Y-55514D01*
X38180Y-55502D01*
X38168Y-55490D01*
X38157Y-55467D01*
X38145Y-55419D01*
X38145Y-55359D01*
X38157Y-55312D01*
X38168Y-55288D01*
X38180Y-55276D01*
X38204Y-55264D01*
X38502Y-55348D02*
X38502Y-55514D01*
X38442Y-55252D02*
X38383Y-55431D01*
X38537Y-55431D01*
G54D15*
X29943Y-69274D02*
X29954Y-69300D01*
X29985Y-69330D01*
X30004Y-69335D01*
X30016Y-69335D01*
X30036Y-69327D01*
X30049Y-69314D01*
X30057Y-69295D01*
X30057Y-69281D01*
X30052Y-69263D01*
X30035Y-69232D01*
X30028Y-69213D01*
X30030Y-69200D01*
X30037Y-69180D01*
X30050Y-69167D01*
X30070Y-69160D01*
X30083Y-69158D01*
X30102Y-69165D01*
X30132Y-69194D01*
X30144Y-69219D01*
X30193Y-69255D02*
X30081Y-69427D01*
X30207Y-69350D01*
X30130Y-69475D01*
X30301Y-69364D01*
X30275Y-69621D02*
X30202Y-69548D01*
X30239Y-69585D02*
X30381Y-69443D01*
X30348Y-69452D01*
X30322Y-69452D01*
X30304Y-69447D01*
X30495Y-69558D02*
X30507Y-69570D01*
X30513Y-69588D01*
X30512Y-69602D01*
X30505Y-69621D01*
X30484Y-69654D01*
X30450Y-69688D01*
X30417Y-69709D01*
X30398Y-69716D01*
X30385Y-69716D01*
X30366Y-69711D01*
X30354Y-69699D01*
X30349Y-69680D01*
X30349Y-69667D01*
X30357Y-69648D01*
X30377Y-69615D01*
X30411Y-69581D01*
X30444Y-69561D01*
X30463Y-69553D01*
X30477Y-69552D01*
X30495Y-69558D01*
X30517Y-69863D02*
X30444Y-69790D01*
X30481Y-69827D02*
X30622Y-69685D01*
X30590Y-69694D01*
X30564Y-69694D01*
X30545Y-69689D01*
X30625Y-69863D02*
X30722Y-69960D01*
X30802Y-70148D02*
X30827Y-70038D01*
X30729Y-70075D02*
X30871Y-69933D01*
X30919Y-69981D01*
X30925Y-70001D01*
X30924Y-70013D01*
X30917Y-70033D01*
X30896Y-70054D01*
X30876Y-70061D01*
X30864Y-70061D01*
X30844Y-70056D01*
X30796Y-70008D01*
X30931Y-70128D02*
X30973Y-70170D01*
X30917Y-70263D02*
X30856Y-70202D01*
X30998Y-70061D01*
X31059Y-70121D01*
X30972Y-70304D02*
X30984Y-70329D01*
X31014Y-70360D01*
X31033Y-70365D01*
X31046Y-70365D01*
X31065Y-70357D01*
X31079Y-70343D01*
X31086Y-70324D01*
X31087Y-70311D01*
X31081Y-70293D01*
X31064Y-70261D01*
X31058Y-70242D01*
X31059Y-70230D01*
X31066Y-70210D01*
X31080Y-70196D01*
X31100Y-70189D01*
X31112Y-70188D01*
X31132Y-70194D01*
X31161Y-70224D01*
X31173Y-70249D01*
X31167Y-70364D02*
X31209Y-70406D01*
X31153Y-70499D02*
X31093Y-70438D01*
X31234Y-70297D01*
X31295Y-70358D01*
X31331Y-70394D02*
X31404Y-70466D01*
X31226Y-70572D02*
X31368Y-70430D01*
G54D13*
X21081Y-56207D02*
X21062Y-56236D01*
X21062Y-56279D01*
X21081Y-56322D01*
X21119Y-56350D01*
X21157Y-56365D01*
X21233Y-56379D01*
X21290Y-56379D01*
X21367Y-56365D01*
X21405Y-56350D01*
X21443Y-56322D01*
X21462Y-56279D01*
X21462Y-56250D01*
X21443Y-56207D01*
X21424Y-56193D01*
X21290Y-56193D01*
X21290Y-56250D01*
X21443Y-56079D02*
X21462Y-56036D01*
X21462Y-55965D01*
X21443Y-55936D01*
X21424Y-55922D01*
X21386Y-55907D01*
X21348Y-55907D01*
X21310Y-55922D01*
X21290Y-55936D01*
X21271Y-55965D01*
X21252Y-56022D01*
X21233Y-56050D01*
X21214Y-56065D01*
X21176Y-56079D01*
X21138Y-56079D01*
X21100Y-56065D01*
X21081Y-56050D01*
X21062Y-56022D01*
X21062Y-55950D01*
X21081Y-55907D01*
X21462Y-55621D02*
X21462Y-55793D01*
X21462Y-55707D02*
X21062Y-55707D01*
X21119Y-55736D01*
X21157Y-55764D01*
X21176Y-55793D01*
G54D10*
X22428Y-46521D02*
X22428Y-46221D01*
X22543Y-46221D01*
X22571Y-46236D01*
X22586Y-46250D01*
X22600Y-46279D01*
X22600Y-46321D01*
X22586Y-46350D01*
X22571Y-46364D01*
X22543Y-46379D01*
X22428Y-46379D01*
X22886Y-46521D02*
X22714Y-46521D01*
X22800Y-46521D02*
X22800Y-46221D01*
X22771Y-46264D01*
X22743Y-46293D01*
X22714Y-46307D01*
M02*
