G04 (created by PCBNEW-RS274X (2011-12-21 BZR 3253)-stable) date 08/08/2012 23:37:51*
G01*
G70*
G90*
%MOIN*%
G04 Gerber Fmt 3.4, Leading zero omitted, Abs format*
%FSLAX34Y34*%
G04 APERTURE LIST*
%ADD10C,0.006000*%
%ADD11R,0.020000X0.012000*%
%ADD12R,0.035000X0.055000*%
%ADD13R,0.055000X0.035000*%
%ADD14R,0.045000X0.025000*%
%ADD15R,0.025000X0.045000*%
%ADD16R,0.027600X0.059100*%
%ADD17R,0.059100X0.102400*%
%ADD18R,0.039400X0.102400*%
%ADD19R,0.047200X0.047200*%
%ADD20R,0.050000X0.020000*%
%ADD21R,0.020000X0.045000*%
%ADD22R,0.078700X0.216500*%
G04 APERTURE END LIST*
G54D10*
G54D11*
X31896Y-62447D03*
X31896Y-62947D03*
X31096Y-62447D03*
X31896Y-62697D03*
X31096Y-62947D03*
G54D12*
X22164Y-40846D03*
X22914Y-40846D03*
X22066Y-43898D03*
X22816Y-43898D03*
G54D13*
X32480Y-54349D03*
X32480Y-55099D03*
X28346Y-51495D03*
X28346Y-52245D03*
X27165Y-39979D03*
X27165Y-40729D03*
G54D12*
X29743Y-39961D03*
X30493Y-39961D03*
G54D13*
X30217Y-48308D03*
X30217Y-47558D03*
G54D14*
X24016Y-72643D03*
X24016Y-72043D03*
X36319Y-60330D03*
X36319Y-60930D03*
G54D15*
X30802Y-49508D03*
X31402Y-49508D03*
G54D14*
X24016Y-68106D03*
X24016Y-68706D03*
G54D15*
X29424Y-41831D03*
X30024Y-41831D03*
G54D14*
X28642Y-40448D03*
X28642Y-41048D03*
X31102Y-42918D03*
X31102Y-42318D03*
X38681Y-54720D03*
X38681Y-55320D03*
X36122Y-54926D03*
X36122Y-54326D03*
G54D15*
X29720Y-43504D03*
X30320Y-43504D03*
G54D14*
X28642Y-62200D03*
X28642Y-62800D03*
X27067Y-59936D03*
X27067Y-60536D03*
X37992Y-47741D03*
X37992Y-47141D03*
G54D15*
X23420Y-59646D03*
X24020Y-59646D03*
G54D16*
X36398Y-64606D03*
X35965Y-64606D03*
X35532Y-64606D03*
X35099Y-64606D03*
X34666Y-64606D03*
X34232Y-64606D03*
X33799Y-64606D03*
X33366Y-64606D03*
G54D17*
X37776Y-64685D03*
G54D18*
X32540Y-64685D03*
G54D19*
X36792Y-69764D03*
G54D20*
X32550Y-53545D03*
X32550Y-53045D03*
X32550Y-52545D03*
X32550Y-52045D03*
X32550Y-51545D03*
X32550Y-51045D03*
X32550Y-50545D03*
X32550Y-50045D03*
X32550Y-49545D03*
X32550Y-49045D03*
X32550Y-48545D03*
X32550Y-48045D03*
X32550Y-47545D03*
X32550Y-47045D03*
X36150Y-47045D03*
X36150Y-47545D03*
X36150Y-48045D03*
X36150Y-48545D03*
X36150Y-49045D03*
X36150Y-49545D03*
X36150Y-50045D03*
X36150Y-50545D03*
X36150Y-51045D03*
X36150Y-51545D03*
X36150Y-52045D03*
X36150Y-52545D03*
X36150Y-53045D03*
X36150Y-53545D03*
G54D21*
X32654Y-56183D03*
X33154Y-56183D03*
X33654Y-56183D03*
X34154Y-56183D03*
X34654Y-56183D03*
X35154Y-56183D03*
X35654Y-56183D03*
X35654Y-58283D03*
X35154Y-58283D03*
X34654Y-58283D03*
X34154Y-58283D03*
X33654Y-58283D03*
X33154Y-58283D03*
X32654Y-58283D03*
G54D22*
X37992Y-49430D03*
X37992Y-53130D03*
G54D14*
X36220Y-42131D03*
X36220Y-41531D03*
X34646Y-42131D03*
X34646Y-41531D03*
G54D10*
G36*
X31504Y-70525D02*
X31199Y-70830D01*
X30698Y-70329D01*
X31003Y-70024D01*
X31504Y-70525D01*
X31504Y-70525D01*
G37*
G36*
X29779Y-68800D02*
X29474Y-69105D01*
X28973Y-68604D01*
X29278Y-68299D01*
X29779Y-68800D01*
X29779Y-68800D01*
G37*
G36*
X28750Y-69829D02*
X28445Y-70134D01*
X27944Y-69633D01*
X28249Y-69328D01*
X28750Y-69829D01*
X28750Y-69829D01*
G37*
G36*
X30475Y-71554D02*
X30170Y-71859D01*
X29669Y-71358D01*
X29974Y-71053D01*
X30475Y-71554D01*
X30475Y-71554D01*
G37*
M02*
