G04 (created by PCBNEW (2011-12-21 BZR 3253)-stable) date 08/08/2012 23:38:27*
G01*
G70*
G90*
%MOIN*%
G04 Gerber Fmt 3.4, Leading zero omitted, Abs format*
%FSLAX34Y34*%
G04 APERTURE LIST*
%ADD10C,0.001000*%
%ADD11C,0.015000*%
%ADD12C,0.008000*%
G04 APERTURE END LIST*
G54D10*
G54D11*
X19685Y-73228D02*
X19685Y-39370D01*
X39370Y-73228D02*
X19685Y-73228D01*
X39370Y-39370D02*
X39370Y-73228D01*
X19685Y-39370D02*
X39370Y-39370D01*
G54D10*
X19954Y-48005D02*
X20204Y-48255D01*
X20204Y-48005D02*
X19954Y-48255D01*
X22316Y-67395D02*
X22566Y-67645D01*
X22566Y-67395D02*
X22316Y-67645D01*
X24088Y-58733D02*
X24338Y-58983D01*
X24338Y-58733D02*
X24088Y-58983D01*
X24481Y-59521D02*
X24731Y-59771D01*
X24731Y-59521D02*
X24481Y-59771D01*
X24777Y-65131D02*
X25027Y-65381D01*
X25027Y-65131D02*
X24777Y-65381D01*
X24875Y-60013D02*
X25125Y-60263D01*
X25125Y-60013D02*
X24875Y-60263D01*
X24875Y-61292D02*
X25125Y-61542D01*
X25125Y-61292D02*
X24875Y-61542D01*
X25170Y-57355D02*
X25420Y-57605D01*
X25420Y-57355D02*
X25170Y-57605D01*
X25367Y-67493D02*
X25617Y-67743D01*
X25617Y-67493D02*
X25367Y-67743D01*
X25662Y-71725D02*
X25912Y-71975D01*
X25912Y-71725D02*
X25662Y-71975D01*
X26253Y-58832D02*
X26503Y-59082D01*
X26503Y-58832D02*
X26253Y-59082D01*
X26253Y-59816D02*
X26503Y-60066D01*
X26503Y-59816D02*
X26253Y-60066D01*
X26647Y-56765D02*
X26897Y-57015D01*
X26897Y-56765D02*
X26647Y-57015D01*
X26942Y-59029D02*
X27192Y-59279D01*
X27192Y-59029D02*
X26942Y-59279D01*
X27631Y-61095D02*
X27881Y-61345D01*
X27881Y-61095D02*
X27631Y-61345D01*
X27729Y-69068D02*
X27979Y-69318D01*
X27979Y-69068D02*
X27729Y-69318D01*
X27828Y-59816D02*
X28078Y-60066D01*
X28078Y-59816D02*
X27828Y-60066D01*
X27828Y-61784D02*
X28078Y-62034D01*
X28078Y-61784D02*
X27828Y-62034D01*
X27926Y-39836D02*
X28176Y-40086D01*
X28176Y-39836D02*
X27926Y-40086D01*
X28320Y-58930D02*
X28570Y-59180D01*
X28570Y-58930D02*
X28320Y-59180D01*
X28517Y-41706D02*
X28767Y-41956D01*
X28767Y-41706D02*
X28517Y-41956D01*
X28714Y-68969D02*
X28964Y-69219D01*
X28964Y-68969D02*
X28714Y-69219D01*
X28910Y-51056D02*
X29160Y-51306D01*
X29160Y-51056D02*
X28910Y-51306D01*
X29009Y-43281D02*
X29259Y-43531D01*
X29259Y-43281D02*
X29009Y-43531D01*
X29108Y-58832D02*
X29358Y-59082D01*
X29358Y-58832D02*
X29108Y-59082D01*
X29304Y-61391D02*
X29554Y-61641D01*
X29554Y-61391D02*
X29304Y-61641D01*
X30092Y-49383D02*
X30342Y-49633D01*
X30342Y-49383D02*
X30092Y-49633D01*
X30387Y-55288D02*
X30637Y-55538D01*
X30637Y-55288D02*
X30387Y-55538D01*
X31076Y-50859D02*
X31326Y-51109D01*
X31326Y-50859D02*
X31076Y-51109D01*
X31076Y-61194D02*
X31326Y-61444D01*
X31326Y-61194D02*
X31076Y-61444D01*
X31469Y-69855D02*
X31719Y-70105D01*
X31719Y-69855D02*
X31469Y-70105D01*
X31765Y-48989D02*
X32015Y-49239D01*
X32015Y-48989D02*
X31765Y-49239D01*
X32257Y-61292D02*
X32507Y-61542D01*
X32507Y-61292D02*
X32257Y-61542D01*
X32454Y-46233D02*
X32704Y-46483D01*
X32704Y-46233D02*
X32454Y-46483D01*
X33143Y-47513D02*
X33393Y-47763D01*
X33393Y-47513D02*
X33143Y-47763D01*
X33832Y-61489D02*
X34082Y-61739D01*
X34082Y-61489D02*
X33832Y-61739D01*
X34127Y-65131D02*
X34377Y-65381D01*
X34377Y-65131D02*
X34127Y-65381D01*
X34422Y-49973D02*
X34672Y-50223D01*
X34672Y-49973D02*
X34422Y-50223D01*
X34521Y-42592D02*
X34771Y-42842D01*
X34771Y-42592D02*
X34521Y-42842D01*
X34521Y-63851D02*
X34771Y-64101D01*
X34771Y-63851D02*
X34521Y-64101D01*
X34914Y-65032D02*
X35164Y-65282D01*
X35164Y-65032D02*
X34914Y-65282D01*
X35013Y-60210D02*
X35263Y-60460D01*
X35263Y-60210D02*
X35013Y-60460D01*
X35406Y-51942D02*
X35656Y-52192D01*
X35656Y-51942D02*
X35406Y-52192D01*
X35406Y-63753D02*
X35656Y-64003D01*
X35656Y-63753D02*
X35406Y-64003D01*
X35505Y-47710D02*
X35755Y-47960D01*
X35755Y-47710D02*
X35505Y-47960D01*
X35800Y-62178D02*
X36050Y-62428D01*
X36050Y-62178D02*
X35800Y-62428D01*
X35800Y-62966D02*
X36050Y-63216D01*
X36050Y-62966D02*
X35800Y-63216D01*
X35899Y-63753D02*
X36149Y-64003D01*
X36149Y-63753D02*
X35899Y-64003D01*
X36095Y-42592D02*
X36345Y-42842D01*
X36345Y-42592D02*
X36095Y-42842D01*
X36588Y-61686D02*
X36838Y-61936D01*
X36838Y-61686D02*
X36588Y-61936D01*
X36784Y-52139D02*
X37034Y-52389D01*
X37034Y-52139D02*
X36784Y-52389D01*
X36784Y-52631D02*
X37034Y-52881D01*
X37034Y-52631D02*
X36784Y-52881D01*
X37277Y-62178D02*
X37527Y-62428D01*
X37527Y-62178D02*
X37277Y-62428D01*
X33878Y-45315D02*
X33874Y-45349D01*
X33864Y-45382D01*
X33848Y-45412D01*
X33826Y-45439D01*
X33799Y-45461D01*
X33769Y-45478D01*
X33736Y-45488D01*
X33702Y-45491D01*
X33668Y-45488D01*
X33635Y-45479D01*
X33605Y-45463D01*
X33578Y-45441D01*
X33555Y-45414D01*
X33539Y-45384D01*
X33528Y-45351D01*
X33525Y-45317D01*
X33527Y-45284D01*
X33537Y-45250D01*
X33553Y-45220D01*
X33574Y-45193D01*
X33600Y-45170D01*
X33631Y-45153D01*
X33663Y-45143D01*
X33698Y-45139D01*
X33731Y-45141D01*
X33765Y-45150D01*
X33795Y-45166D01*
X33823Y-45187D01*
X33845Y-45213D01*
X33862Y-45244D01*
X33873Y-45276D01*
X33877Y-45311D01*
X33878Y-45315D01*
X34350Y-44311D02*
X34346Y-44345D01*
X34336Y-44378D01*
X34320Y-44408D01*
X34298Y-44435D01*
X34271Y-44457D01*
X34241Y-44474D01*
X34208Y-44484D01*
X34174Y-44487D01*
X34140Y-44484D01*
X34107Y-44475D01*
X34077Y-44459D01*
X34050Y-44437D01*
X34027Y-44410D01*
X34011Y-44380D01*
X34000Y-44347D01*
X33997Y-44313D01*
X33999Y-44280D01*
X34009Y-44246D01*
X34025Y-44216D01*
X34046Y-44189D01*
X34072Y-44166D01*
X34103Y-44149D01*
X34135Y-44139D01*
X34170Y-44135D01*
X34203Y-44137D01*
X34237Y-44146D01*
X34267Y-44162D01*
X34295Y-44183D01*
X34317Y-44209D01*
X34334Y-44240D01*
X34345Y-44272D01*
X34349Y-44307D01*
X34350Y-44311D01*
X34862Y-45315D02*
X34858Y-45349D01*
X34848Y-45382D01*
X34832Y-45412D01*
X34810Y-45439D01*
X34783Y-45461D01*
X34753Y-45478D01*
X34720Y-45488D01*
X34686Y-45491D01*
X34652Y-45488D01*
X34619Y-45479D01*
X34589Y-45463D01*
X34562Y-45441D01*
X34539Y-45414D01*
X34523Y-45384D01*
X34512Y-45351D01*
X34509Y-45317D01*
X34511Y-45284D01*
X34521Y-45250D01*
X34537Y-45220D01*
X34558Y-45193D01*
X34584Y-45170D01*
X34615Y-45153D01*
X34647Y-45143D01*
X34682Y-45139D01*
X34715Y-45141D01*
X34749Y-45150D01*
X34779Y-45166D01*
X34807Y-45187D01*
X34829Y-45213D01*
X34846Y-45244D01*
X34857Y-45276D01*
X34861Y-45311D01*
X34862Y-45315D01*
X35374Y-44311D02*
X35370Y-44345D01*
X35360Y-44378D01*
X35344Y-44408D01*
X35322Y-44435D01*
X35295Y-44457D01*
X35265Y-44474D01*
X35232Y-44484D01*
X35198Y-44487D01*
X35164Y-44484D01*
X35131Y-44475D01*
X35101Y-44459D01*
X35074Y-44437D01*
X35051Y-44410D01*
X35035Y-44380D01*
X35024Y-44347D01*
X35021Y-44313D01*
X35023Y-44280D01*
X35033Y-44246D01*
X35049Y-44216D01*
X35070Y-44189D01*
X35096Y-44166D01*
X35127Y-44149D01*
X35159Y-44139D01*
X35194Y-44135D01*
X35227Y-44137D01*
X35261Y-44146D01*
X35291Y-44162D01*
X35319Y-44183D01*
X35341Y-44209D01*
X35358Y-44240D01*
X35369Y-44272D01*
X35373Y-44307D01*
X35374Y-44311D01*
X35846Y-45315D02*
X35842Y-45349D01*
X35832Y-45382D01*
X35816Y-45412D01*
X35794Y-45439D01*
X35767Y-45461D01*
X35737Y-45478D01*
X35704Y-45488D01*
X35670Y-45491D01*
X35636Y-45488D01*
X35603Y-45479D01*
X35573Y-45463D01*
X35546Y-45441D01*
X35523Y-45414D01*
X35507Y-45384D01*
X35496Y-45351D01*
X35493Y-45317D01*
X35495Y-45284D01*
X35505Y-45250D01*
X35521Y-45220D01*
X35542Y-45193D01*
X35568Y-45170D01*
X35599Y-45153D01*
X35631Y-45143D01*
X35666Y-45139D01*
X35699Y-45141D01*
X35733Y-45150D01*
X35763Y-45166D01*
X35791Y-45187D01*
X35813Y-45213D01*
X35830Y-45244D01*
X35841Y-45276D01*
X35845Y-45311D01*
X35846Y-45315D01*
X36358Y-44311D02*
X36354Y-44345D01*
X36344Y-44378D01*
X36328Y-44408D01*
X36306Y-44435D01*
X36279Y-44457D01*
X36249Y-44474D01*
X36216Y-44484D01*
X36182Y-44487D01*
X36148Y-44484D01*
X36115Y-44475D01*
X36085Y-44459D01*
X36058Y-44437D01*
X36035Y-44410D01*
X36019Y-44380D01*
X36008Y-44347D01*
X36005Y-44313D01*
X36007Y-44280D01*
X36017Y-44246D01*
X36033Y-44216D01*
X36054Y-44189D01*
X36080Y-44166D01*
X36111Y-44149D01*
X36143Y-44139D01*
X36178Y-44135D01*
X36211Y-44137D01*
X36245Y-44146D01*
X36275Y-44162D01*
X36303Y-44183D01*
X36325Y-44209D01*
X36342Y-44240D01*
X36353Y-44272D01*
X36357Y-44307D01*
X36358Y-44311D01*
X36870Y-45315D02*
X36866Y-45349D01*
X36856Y-45382D01*
X36840Y-45412D01*
X36818Y-45439D01*
X36791Y-45461D01*
X36761Y-45478D01*
X36728Y-45488D01*
X36694Y-45491D01*
X36660Y-45488D01*
X36627Y-45479D01*
X36597Y-45463D01*
X36570Y-45441D01*
X36547Y-45414D01*
X36531Y-45384D01*
X36520Y-45351D01*
X36517Y-45317D01*
X36519Y-45284D01*
X36529Y-45250D01*
X36545Y-45220D01*
X36566Y-45193D01*
X36592Y-45170D01*
X36623Y-45153D01*
X36655Y-45143D01*
X36690Y-45139D01*
X36723Y-45141D01*
X36757Y-45150D01*
X36787Y-45166D01*
X36815Y-45187D01*
X36837Y-45213D01*
X36854Y-45244D01*
X36865Y-45276D01*
X36869Y-45311D01*
X36870Y-45315D01*
X37342Y-44311D02*
X37338Y-44345D01*
X37328Y-44378D01*
X37312Y-44408D01*
X37290Y-44435D01*
X37263Y-44457D01*
X37233Y-44474D01*
X37200Y-44484D01*
X37166Y-44487D01*
X37132Y-44484D01*
X37099Y-44475D01*
X37069Y-44459D01*
X37042Y-44437D01*
X37019Y-44410D01*
X37003Y-44380D01*
X36992Y-44347D01*
X36989Y-44313D01*
X36991Y-44280D01*
X37001Y-44246D01*
X37017Y-44216D01*
X37038Y-44189D01*
X37064Y-44166D01*
X37095Y-44149D01*
X37127Y-44139D01*
X37162Y-44135D01*
X37195Y-44137D01*
X37229Y-44146D01*
X37259Y-44162D01*
X37287Y-44183D01*
X37309Y-44209D01*
X37326Y-44240D01*
X37337Y-44272D01*
X37341Y-44307D01*
X37342Y-44311D01*
X32815Y-40039D02*
X32815Y-40433D01*
X33012Y-40236D02*
X32618Y-40236D01*
X33819Y-40039D02*
X33819Y-40433D01*
X34016Y-40236D02*
X33622Y-40236D01*
X37047Y-40039D02*
X37047Y-40433D01*
X37244Y-40236D02*
X36850Y-40236D01*
X38051Y-40039D02*
X38051Y-40433D01*
X38248Y-40236D02*
X37854Y-40236D01*
X21747Y-48705D02*
X21743Y-48743D01*
X21731Y-48781D01*
X21713Y-48815D01*
X21688Y-48845D01*
X21658Y-48870D01*
X21624Y-48889D01*
X21587Y-48900D01*
X21548Y-48904D01*
X21510Y-48901D01*
X21473Y-48890D01*
X21438Y-48872D01*
X21408Y-48847D01*
X21382Y-48817D01*
X21364Y-48783D01*
X21352Y-48746D01*
X21348Y-48707D01*
X21351Y-48669D01*
X21362Y-48632D01*
X21379Y-48597D01*
X21404Y-48567D01*
X21433Y-48541D01*
X21467Y-48522D01*
X21505Y-48510D01*
X21543Y-48506D01*
X21581Y-48509D01*
X21619Y-48519D01*
X21654Y-48537D01*
X21684Y-48561D01*
X21710Y-48590D01*
X21729Y-48624D01*
X21742Y-48661D01*
X21746Y-48700D01*
X21747Y-48705D01*
X21347Y-48505D02*
X21747Y-48905D01*
X21747Y-48505D02*
X21347Y-48905D01*
X21747Y-49705D02*
X21743Y-49743D01*
X21731Y-49781D01*
X21713Y-49815D01*
X21688Y-49845D01*
X21658Y-49870D01*
X21624Y-49889D01*
X21587Y-49900D01*
X21548Y-49904D01*
X21510Y-49901D01*
X21473Y-49890D01*
X21438Y-49872D01*
X21408Y-49847D01*
X21382Y-49817D01*
X21364Y-49783D01*
X21352Y-49746D01*
X21348Y-49707D01*
X21351Y-49669D01*
X21362Y-49632D01*
X21379Y-49597D01*
X21404Y-49567D01*
X21433Y-49541D01*
X21467Y-49522D01*
X21505Y-49510D01*
X21543Y-49506D01*
X21581Y-49509D01*
X21619Y-49519D01*
X21654Y-49537D01*
X21684Y-49561D01*
X21710Y-49590D01*
X21729Y-49624D01*
X21742Y-49661D01*
X21746Y-49700D01*
X21747Y-49705D01*
X21347Y-49505D02*
X21747Y-49905D01*
X21747Y-49505D02*
X21347Y-49905D01*
X21747Y-50705D02*
X21743Y-50743D01*
X21731Y-50781D01*
X21713Y-50815D01*
X21688Y-50845D01*
X21658Y-50870D01*
X21624Y-50889D01*
X21587Y-50900D01*
X21548Y-50904D01*
X21510Y-50901D01*
X21473Y-50890D01*
X21438Y-50872D01*
X21408Y-50847D01*
X21382Y-50817D01*
X21364Y-50783D01*
X21352Y-50746D01*
X21348Y-50707D01*
X21351Y-50669D01*
X21362Y-50632D01*
X21379Y-50597D01*
X21404Y-50567D01*
X21433Y-50541D01*
X21467Y-50522D01*
X21505Y-50510D01*
X21543Y-50506D01*
X21581Y-50509D01*
X21619Y-50519D01*
X21654Y-50537D01*
X21684Y-50561D01*
X21710Y-50590D01*
X21729Y-50624D01*
X21742Y-50661D01*
X21746Y-50700D01*
X21747Y-50705D01*
X21347Y-50505D02*
X21747Y-50905D01*
X21747Y-50505D02*
X21347Y-50905D01*
X22239Y-64173D02*
X22235Y-64211D01*
X22223Y-64249D01*
X22205Y-64283D01*
X22180Y-64313D01*
X22150Y-64338D01*
X22116Y-64357D01*
X22079Y-64368D01*
X22040Y-64372D01*
X22002Y-64369D01*
X21965Y-64358D01*
X21930Y-64340D01*
X21900Y-64315D01*
X21874Y-64285D01*
X21856Y-64251D01*
X21844Y-64214D01*
X21840Y-64175D01*
X21843Y-64137D01*
X21854Y-64100D01*
X21871Y-64065D01*
X21896Y-64035D01*
X21925Y-64009D01*
X21959Y-63990D01*
X21997Y-63978D01*
X22035Y-63974D01*
X22073Y-63977D01*
X22111Y-63987D01*
X22146Y-64005D01*
X22176Y-64029D01*
X22202Y-64058D01*
X22221Y-64092D01*
X22234Y-64129D01*
X22238Y-64168D01*
X22239Y-64173D01*
X21839Y-63973D02*
X22239Y-64373D01*
X22239Y-63973D02*
X21839Y-64373D01*
X22747Y-48705D02*
X22743Y-48743D01*
X22731Y-48781D01*
X22713Y-48815D01*
X22688Y-48845D01*
X22658Y-48870D01*
X22624Y-48889D01*
X22587Y-48900D01*
X22548Y-48904D01*
X22510Y-48901D01*
X22473Y-48890D01*
X22438Y-48872D01*
X22408Y-48847D01*
X22382Y-48817D01*
X22364Y-48783D01*
X22352Y-48746D01*
X22348Y-48707D01*
X22351Y-48669D01*
X22362Y-48632D01*
X22379Y-48597D01*
X22404Y-48567D01*
X22433Y-48541D01*
X22467Y-48522D01*
X22505Y-48510D01*
X22543Y-48506D01*
X22581Y-48509D01*
X22619Y-48519D01*
X22654Y-48537D01*
X22684Y-48561D01*
X22710Y-48590D01*
X22729Y-48624D01*
X22742Y-48661D01*
X22746Y-48700D01*
X22747Y-48705D01*
X22347Y-48505D02*
X22747Y-48905D01*
X22747Y-48505D02*
X22347Y-48905D01*
X22747Y-49705D02*
X22743Y-49743D01*
X22731Y-49781D01*
X22713Y-49815D01*
X22688Y-49845D01*
X22658Y-49870D01*
X22624Y-49889D01*
X22587Y-49900D01*
X22548Y-49904D01*
X22510Y-49901D01*
X22473Y-49890D01*
X22438Y-49872D01*
X22408Y-49847D01*
X22382Y-49817D01*
X22364Y-49783D01*
X22352Y-49746D01*
X22348Y-49707D01*
X22351Y-49669D01*
X22362Y-49632D01*
X22379Y-49597D01*
X22404Y-49567D01*
X22433Y-49541D01*
X22467Y-49522D01*
X22505Y-49510D01*
X22543Y-49506D01*
X22581Y-49509D01*
X22619Y-49519D01*
X22654Y-49537D01*
X22684Y-49561D01*
X22710Y-49590D01*
X22729Y-49624D01*
X22742Y-49661D01*
X22746Y-49700D01*
X22747Y-49705D01*
X22347Y-49505D02*
X22747Y-49905D01*
X22747Y-49505D02*
X22347Y-49905D01*
X22747Y-50705D02*
X22743Y-50743D01*
X22731Y-50781D01*
X22713Y-50815D01*
X22688Y-50845D01*
X22658Y-50870D01*
X22624Y-50889D01*
X22587Y-50900D01*
X22548Y-50904D01*
X22510Y-50901D01*
X22473Y-50890D01*
X22438Y-50872D01*
X22408Y-50847D01*
X22382Y-50817D01*
X22364Y-50783D01*
X22352Y-50746D01*
X22348Y-50707D01*
X22351Y-50669D01*
X22362Y-50632D01*
X22379Y-50597D01*
X22404Y-50567D01*
X22433Y-50541D01*
X22467Y-50522D01*
X22505Y-50510D01*
X22543Y-50506D01*
X22581Y-50509D01*
X22619Y-50519D01*
X22654Y-50537D01*
X22684Y-50561D01*
X22710Y-50590D01*
X22729Y-50624D01*
X22742Y-50661D01*
X22746Y-50700D01*
X22747Y-50705D01*
X22347Y-50505D02*
X22747Y-50905D01*
X22747Y-50505D02*
X22347Y-50905D01*
X23216Y-69874D02*
X23212Y-69912D01*
X23200Y-69950D01*
X23182Y-69984D01*
X23157Y-70014D01*
X23127Y-70039D01*
X23093Y-70058D01*
X23056Y-70069D01*
X23017Y-70073D01*
X22979Y-70070D01*
X22942Y-70059D01*
X22907Y-70041D01*
X22877Y-70016D01*
X22851Y-69986D01*
X22833Y-69952D01*
X22821Y-69915D01*
X22817Y-69876D01*
X22820Y-69838D01*
X22831Y-69801D01*
X22848Y-69766D01*
X22873Y-69736D01*
X22902Y-69710D01*
X22936Y-69691D01*
X22974Y-69679D01*
X23012Y-69675D01*
X23050Y-69678D01*
X23088Y-69688D01*
X23123Y-69706D01*
X23153Y-69730D01*
X23179Y-69759D01*
X23198Y-69793D01*
X23211Y-69830D01*
X23215Y-69869D01*
X23216Y-69874D01*
X22816Y-69674D02*
X23216Y-70074D01*
X23216Y-69674D02*
X22816Y-70074D01*
X23216Y-70874D02*
X23212Y-70912D01*
X23200Y-70950D01*
X23182Y-70984D01*
X23157Y-71014D01*
X23127Y-71039D01*
X23093Y-71058D01*
X23056Y-71069D01*
X23017Y-71073D01*
X22979Y-71070D01*
X22942Y-71059D01*
X22907Y-71041D01*
X22877Y-71016D01*
X22851Y-70986D01*
X22833Y-70952D01*
X22821Y-70915D01*
X22817Y-70876D01*
X22820Y-70838D01*
X22831Y-70801D01*
X22848Y-70766D01*
X22873Y-70736D01*
X22902Y-70710D01*
X22936Y-70691D01*
X22974Y-70679D01*
X23012Y-70675D01*
X23050Y-70678D01*
X23088Y-70688D01*
X23123Y-70706D01*
X23153Y-70730D01*
X23179Y-70759D01*
X23198Y-70793D01*
X23211Y-70830D01*
X23215Y-70869D01*
X23216Y-70874D01*
X22816Y-70674D02*
X23216Y-71074D01*
X23216Y-70674D02*
X22816Y-71074D01*
X23239Y-64173D02*
X23235Y-64211D01*
X23223Y-64249D01*
X23205Y-64283D01*
X23180Y-64313D01*
X23150Y-64338D01*
X23116Y-64357D01*
X23079Y-64368D01*
X23040Y-64372D01*
X23002Y-64369D01*
X22965Y-64358D01*
X22930Y-64340D01*
X22900Y-64315D01*
X22874Y-64285D01*
X22856Y-64251D01*
X22844Y-64214D01*
X22840Y-64175D01*
X22843Y-64137D01*
X22854Y-64100D01*
X22871Y-64065D01*
X22896Y-64035D01*
X22925Y-64009D01*
X22959Y-63990D01*
X22997Y-63978D01*
X23035Y-63974D01*
X23073Y-63977D01*
X23111Y-63987D01*
X23146Y-64005D01*
X23176Y-64029D01*
X23202Y-64058D01*
X23221Y-64092D01*
X23234Y-64129D01*
X23238Y-64168D01*
X23239Y-64173D01*
X22839Y-63973D02*
X23239Y-64373D01*
X23239Y-63973D02*
X22839Y-64373D01*
X23905Y-55110D02*
X23901Y-55148D01*
X23889Y-55186D01*
X23871Y-55220D01*
X23846Y-55250D01*
X23816Y-55275D01*
X23782Y-55294D01*
X23745Y-55305D01*
X23706Y-55309D01*
X23668Y-55306D01*
X23631Y-55295D01*
X23596Y-55277D01*
X23566Y-55252D01*
X23540Y-55222D01*
X23522Y-55188D01*
X23510Y-55151D01*
X23506Y-55112D01*
X23509Y-55074D01*
X23520Y-55037D01*
X23537Y-55002D01*
X23562Y-54972D01*
X23591Y-54946D01*
X23625Y-54927D01*
X23663Y-54915D01*
X23701Y-54911D01*
X23739Y-54914D01*
X23777Y-54924D01*
X23812Y-54942D01*
X23842Y-54966D01*
X23868Y-54995D01*
X23887Y-55029D01*
X23900Y-55066D01*
X23904Y-55105D01*
X23905Y-55110D01*
X23505Y-54910D02*
X23905Y-55310D01*
X23905Y-54910D02*
X23505Y-55310D01*
X23905Y-56110D02*
X23901Y-56148D01*
X23889Y-56186D01*
X23871Y-56220D01*
X23846Y-56250D01*
X23816Y-56275D01*
X23782Y-56294D01*
X23745Y-56305D01*
X23706Y-56309D01*
X23668Y-56306D01*
X23631Y-56295D01*
X23596Y-56277D01*
X23566Y-56252D01*
X23540Y-56222D01*
X23522Y-56188D01*
X23510Y-56151D01*
X23506Y-56112D01*
X23509Y-56074D01*
X23520Y-56037D01*
X23537Y-56002D01*
X23562Y-55972D01*
X23591Y-55946D01*
X23625Y-55927D01*
X23663Y-55915D01*
X23701Y-55911D01*
X23739Y-55914D01*
X23777Y-55924D01*
X23812Y-55942D01*
X23842Y-55966D01*
X23868Y-55995D01*
X23887Y-56029D01*
X23900Y-56066D01*
X23904Y-56105D01*
X23905Y-56110D01*
X23505Y-55910D02*
X23905Y-56310D01*
X23905Y-55910D02*
X23505Y-56310D01*
X24216Y-69874D02*
X24212Y-69912D01*
X24200Y-69950D01*
X24182Y-69984D01*
X24157Y-70014D01*
X24127Y-70039D01*
X24093Y-70058D01*
X24056Y-70069D01*
X24017Y-70073D01*
X23979Y-70070D01*
X23942Y-70059D01*
X23907Y-70041D01*
X23877Y-70016D01*
X23851Y-69986D01*
X23833Y-69952D01*
X23821Y-69915D01*
X23817Y-69876D01*
X23820Y-69838D01*
X23831Y-69801D01*
X23848Y-69766D01*
X23873Y-69736D01*
X23902Y-69710D01*
X23936Y-69691D01*
X23974Y-69679D01*
X24012Y-69675D01*
X24050Y-69678D01*
X24088Y-69688D01*
X24123Y-69706D01*
X24153Y-69730D01*
X24179Y-69759D01*
X24198Y-69793D01*
X24211Y-69830D01*
X24215Y-69869D01*
X24216Y-69874D01*
X23816Y-69674D02*
X24216Y-70074D01*
X24216Y-69674D02*
X23816Y-70074D01*
X24216Y-70874D02*
X24212Y-70912D01*
X24200Y-70950D01*
X24182Y-70984D01*
X24157Y-71014D01*
X24127Y-71039D01*
X24093Y-71058D01*
X24056Y-71069D01*
X24017Y-71073D01*
X23979Y-71070D01*
X23942Y-71059D01*
X23907Y-71041D01*
X23877Y-71016D01*
X23851Y-70986D01*
X23833Y-70952D01*
X23821Y-70915D01*
X23817Y-70876D01*
X23820Y-70838D01*
X23831Y-70801D01*
X23848Y-70766D01*
X23873Y-70736D01*
X23902Y-70710D01*
X23936Y-70691D01*
X23974Y-70679D01*
X24012Y-70675D01*
X24050Y-70678D01*
X24088Y-70688D01*
X24123Y-70706D01*
X24153Y-70730D01*
X24179Y-70759D01*
X24198Y-70793D01*
X24211Y-70830D01*
X24215Y-70869D01*
X24216Y-70874D01*
X23816Y-70674D02*
X24216Y-71074D01*
X24216Y-70674D02*
X23816Y-71074D01*
X24905Y-55110D02*
X24901Y-55148D01*
X24889Y-55186D01*
X24871Y-55220D01*
X24846Y-55250D01*
X24816Y-55275D01*
X24782Y-55294D01*
X24745Y-55305D01*
X24706Y-55309D01*
X24668Y-55306D01*
X24631Y-55295D01*
X24596Y-55277D01*
X24566Y-55252D01*
X24540Y-55222D01*
X24522Y-55188D01*
X24510Y-55151D01*
X24506Y-55112D01*
X24509Y-55074D01*
X24520Y-55037D01*
X24537Y-55002D01*
X24562Y-54972D01*
X24591Y-54946D01*
X24625Y-54927D01*
X24663Y-54915D01*
X24701Y-54911D01*
X24739Y-54914D01*
X24777Y-54924D01*
X24812Y-54942D01*
X24842Y-54966D01*
X24868Y-54995D01*
X24887Y-55029D01*
X24900Y-55066D01*
X24904Y-55105D01*
X24905Y-55110D01*
X24505Y-54910D02*
X24905Y-55310D01*
X24905Y-54910D02*
X24505Y-55310D01*
X24905Y-56110D02*
X24901Y-56148D01*
X24889Y-56186D01*
X24871Y-56220D01*
X24846Y-56250D01*
X24816Y-56275D01*
X24782Y-56294D01*
X24745Y-56305D01*
X24706Y-56309D01*
X24668Y-56306D01*
X24631Y-56295D01*
X24596Y-56277D01*
X24566Y-56252D01*
X24540Y-56222D01*
X24522Y-56188D01*
X24510Y-56151D01*
X24506Y-56112D01*
X24509Y-56074D01*
X24520Y-56037D01*
X24537Y-56002D01*
X24562Y-55972D01*
X24591Y-55946D01*
X24625Y-55927D01*
X24663Y-55915D01*
X24701Y-55911D01*
X24739Y-55914D01*
X24777Y-55924D01*
X24812Y-55942D01*
X24842Y-55966D01*
X24868Y-55995D01*
X24887Y-56029D01*
X24900Y-56066D01*
X24904Y-56105D01*
X24905Y-56110D01*
X24505Y-55910D02*
X24905Y-56310D01*
X24905Y-55910D02*
X24505Y-56310D01*
X25161Y-64173D02*
X25157Y-64211D01*
X25145Y-64249D01*
X25127Y-64283D01*
X25102Y-64313D01*
X25072Y-64338D01*
X25038Y-64357D01*
X25001Y-64368D01*
X24962Y-64372D01*
X24924Y-64369D01*
X24887Y-64358D01*
X24852Y-64340D01*
X24822Y-64315D01*
X24796Y-64285D01*
X24778Y-64251D01*
X24766Y-64214D01*
X24762Y-64175D01*
X24765Y-64137D01*
X24776Y-64100D01*
X24793Y-64065D01*
X24818Y-64035D01*
X24847Y-64009D01*
X24881Y-63990D01*
X24919Y-63978D01*
X24957Y-63974D01*
X24995Y-63977D01*
X25033Y-63987D01*
X25068Y-64005D01*
X25098Y-64029D01*
X25124Y-64058D01*
X25143Y-64092D01*
X25156Y-64129D01*
X25160Y-64168D01*
X25161Y-64173D01*
X24761Y-63973D02*
X25161Y-64373D01*
X25161Y-63973D02*
X24761Y-64373D01*
X25216Y-69874D02*
X25212Y-69912D01*
X25200Y-69950D01*
X25182Y-69984D01*
X25157Y-70014D01*
X25127Y-70039D01*
X25093Y-70058D01*
X25056Y-70069D01*
X25017Y-70073D01*
X24979Y-70070D01*
X24942Y-70059D01*
X24907Y-70041D01*
X24877Y-70016D01*
X24851Y-69986D01*
X24833Y-69952D01*
X24821Y-69915D01*
X24817Y-69876D01*
X24820Y-69838D01*
X24831Y-69801D01*
X24848Y-69766D01*
X24873Y-69736D01*
X24902Y-69710D01*
X24936Y-69691D01*
X24974Y-69679D01*
X25012Y-69675D01*
X25050Y-69678D01*
X25088Y-69688D01*
X25123Y-69706D01*
X25153Y-69730D01*
X25179Y-69759D01*
X25198Y-69793D01*
X25211Y-69830D01*
X25215Y-69869D01*
X25216Y-69874D01*
X24816Y-69674D02*
X25216Y-70074D01*
X25216Y-69674D02*
X24816Y-70074D01*
X25216Y-70874D02*
X25212Y-70912D01*
X25200Y-70950D01*
X25182Y-70984D01*
X25157Y-71014D01*
X25127Y-71039D01*
X25093Y-71058D01*
X25056Y-71069D01*
X25017Y-71073D01*
X24979Y-71070D01*
X24942Y-71059D01*
X24907Y-71041D01*
X24877Y-71016D01*
X24851Y-70986D01*
X24833Y-70952D01*
X24821Y-70915D01*
X24817Y-70876D01*
X24820Y-70838D01*
X24831Y-70801D01*
X24848Y-70766D01*
X24873Y-70736D01*
X24902Y-70710D01*
X24936Y-70691D01*
X24974Y-70679D01*
X25012Y-70675D01*
X25050Y-70678D01*
X25088Y-70688D01*
X25123Y-70706D01*
X25153Y-70730D01*
X25179Y-70759D01*
X25198Y-70793D01*
X25211Y-70830D01*
X25215Y-70869D01*
X25216Y-70874D01*
X24816Y-70674D02*
X25216Y-71074D01*
X25216Y-70674D02*
X24816Y-71074D01*
X25905Y-55110D02*
X25901Y-55148D01*
X25889Y-55186D01*
X25871Y-55220D01*
X25846Y-55250D01*
X25816Y-55275D01*
X25782Y-55294D01*
X25745Y-55305D01*
X25706Y-55309D01*
X25668Y-55306D01*
X25631Y-55295D01*
X25596Y-55277D01*
X25566Y-55252D01*
X25540Y-55222D01*
X25522Y-55188D01*
X25510Y-55151D01*
X25506Y-55112D01*
X25509Y-55074D01*
X25520Y-55037D01*
X25537Y-55002D01*
X25562Y-54972D01*
X25591Y-54946D01*
X25625Y-54927D01*
X25663Y-54915D01*
X25701Y-54911D01*
X25739Y-54914D01*
X25777Y-54924D01*
X25812Y-54942D01*
X25842Y-54966D01*
X25868Y-54995D01*
X25887Y-55029D01*
X25900Y-55066D01*
X25904Y-55105D01*
X25905Y-55110D01*
X25505Y-54910D02*
X25905Y-55310D01*
X25905Y-54910D02*
X25505Y-55310D01*
X25905Y-56110D02*
X25901Y-56148D01*
X25889Y-56186D01*
X25871Y-56220D01*
X25846Y-56250D01*
X25816Y-56275D01*
X25782Y-56294D01*
X25745Y-56305D01*
X25706Y-56309D01*
X25668Y-56306D01*
X25631Y-56295D01*
X25596Y-56277D01*
X25566Y-56252D01*
X25540Y-56222D01*
X25522Y-56188D01*
X25510Y-56151D01*
X25506Y-56112D01*
X25509Y-56074D01*
X25520Y-56037D01*
X25537Y-56002D01*
X25562Y-55972D01*
X25591Y-55946D01*
X25625Y-55927D01*
X25663Y-55915D01*
X25701Y-55911D01*
X25739Y-55914D01*
X25777Y-55924D01*
X25812Y-55942D01*
X25842Y-55966D01*
X25868Y-55995D01*
X25887Y-56029D01*
X25900Y-56066D01*
X25904Y-56105D01*
X25905Y-56110D01*
X25505Y-55910D02*
X25905Y-56310D01*
X25905Y-55910D02*
X25505Y-56310D01*
X26161Y-64173D02*
X26157Y-64211D01*
X26145Y-64249D01*
X26127Y-64283D01*
X26102Y-64313D01*
X26072Y-64338D01*
X26038Y-64357D01*
X26001Y-64368D01*
X25962Y-64372D01*
X25924Y-64369D01*
X25887Y-64358D01*
X25852Y-64340D01*
X25822Y-64315D01*
X25796Y-64285D01*
X25778Y-64251D01*
X25766Y-64214D01*
X25762Y-64175D01*
X25765Y-64137D01*
X25776Y-64100D01*
X25793Y-64065D01*
X25818Y-64035D01*
X25847Y-64009D01*
X25881Y-63990D01*
X25919Y-63978D01*
X25957Y-63974D01*
X25995Y-63977D01*
X26033Y-63987D01*
X26068Y-64005D01*
X26098Y-64029D01*
X26124Y-64058D01*
X26143Y-64092D01*
X26156Y-64129D01*
X26160Y-64168D01*
X26161Y-64173D01*
X25761Y-63973D02*
X26161Y-64373D01*
X26161Y-63973D02*
X25761Y-64373D01*
X27161Y-64173D02*
X27157Y-64211D01*
X27145Y-64249D01*
X27127Y-64283D01*
X27102Y-64313D01*
X27072Y-64338D01*
X27038Y-64357D01*
X27001Y-64368D01*
X26962Y-64372D01*
X26924Y-64369D01*
X26887Y-64358D01*
X26852Y-64340D01*
X26822Y-64315D01*
X26796Y-64285D01*
X26778Y-64251D01*
X26766Y-64214D01*
X26762Y-64175D01*
X26765Y-64137D01*
X26776Y-64100D01*
X26793Y-64065D01*
X26818Y-64035D01*
X26847Y-64009D01*
X26881Y-63990D01*
X26919Y-63978D01*
X26957Y-63974D01*
X26995Y-63977D01*
X27033Y-63987D01*
X27068Y-64005D01*
X27098Y-64029D01*
X27124Y-64058D01*
X27143Y-64092D01*
X27156Y-64129D01*
X27160Y-64168D01*
X27161Y-64173D01*
X26761Y-63973D02*
X27161Y-64373D01*
X27161Y-63973D02*
X26761Y-64373D01*
X27432Y-65937D02*
X27428Y-65975D01*
X27416Y-66013D01*
X27398Y-66047D01*
X27373Y-66077D01*
X27343Y-66102D01*
X27309Y-66121D01*
X27272Y-66132D01*
X27233Y-66136D01*
X27195Y-66133D01*
X27158Y-66122D01*
X27123Y-66104D01*
X27093Y-66079D01*
X27067Y-66049D01*
X27049Y-66015D01*
X27037Y-65978D01*
X27033Y-65939D01*
X27036Y-65901D01*
X27047Y-65864D01*
X27064Y-65829D01*
X27089Y-65799D01*
X27118Y-65773D01*
X27152Y-65754D01*
X27190Y-65742D01*
X27228Y-65738D01*
X27266Y-65741D01*
X27304Y-65751D01*
X27339Y-65769D01*
X27369Y-65793D01*
X27395Y-65822D01*
X27414Y-65856D01*
X27427Y-65893D01*
X27431Y-65932D01*
X27432Y-65937D01*
X27032Y-65737D02*
X27432Y-66137D01*
X27432Y-65737D02*
X27032Y-66137D01*
X27432Y-66937D02*
X27428Y-66975D01*
X27416Y-67013D01*
X27398Y-67047D01*
X27373Y-67077D01*
X27343Y-67102D01*
X27309Y-67121D01*
X27272Y-67132D01*
X27233Y-67136D01*
X27195Y-67133D01*
X27158Y-67122D01*
X27123Y-67104D01*
X27093Y-67079D01*
X27067Y-67049D01*
X27049Y-67015D01*
X27037Y-66978D01*
X27033Y-66939D01*
X27036Y-66901D01*
X27047Y-66864D01*
X27064Y-66829D01*
X27089Y-66799D01*
X27118Y-66773D01*
X27152Y-66754D01*
X27190Y-66742D01*
X27228Y-66738D01*
X27266Y-66741D01*
X27304Y-66751D01*
X27339Y-66769D01*
X27369Y-66793D01*
X27395Y-66822D01*
X27414Y-66856D01*
X27427Y-66893D01*
X27431Y-66932D01*
X27432Y-66937D01*
X27032Y-66737D02*
X27432Y-67137D01*
X27432Y-66737D02*
X27032Y-67137D01*
X28161Y-64173D02*
X28157Y-64211D01*
X28145Y-64249D01*
X28127Y-64283D01*
X28102Y-64313D01*
X28072Y-64338D01*
X28038Y-64357D01*
X28001Y-64368D01*
X27962Y-64372D01*
X27924Y-64369D01*
X27887Y-64358D01*
X27852Y-64340D01*
X27822Y-64315D01*
X27796Y-64285D01*
X27778Y-64251D01*
X27766Y-64214D01*
X27762Y-64175D01*
X27765Y-64137D01*
X27776Y-64100D01*
X27793Y-64065D01*
X27818Y-64035D01*
X27847Y-64009D01*
X27881Y-63990D01*
X27919Y-63978D01*
X27957Y-63974D01*
X27995Y-63977D01*
X28033Y-63987D01*
X28068Y-64005D01*
X28098Y-64029D01*
X28124Y-64058D01*
X28143Y-64092D01*
X28156Y-64129D01*
X28160Y-64168D01*
X28161Y-64173D01*
X27761Y-63973D02*
X28161Y-64373D01*
X28161Y-63973D02*
X27761Y-64373D01*
X28432Y-65937D02*
X28428Y-65975D01*
X28416Y-66013D01*
X28398Y-66047D01*
X28373Y-66077D01*
X28343Y-66102D01*
X28309Y-66121D01*
X28272Y-66132D01*
X28233Y-66136D01*
X28195Y-66133D01*
X28158Y-66122D01*
X28123Y-66104D01*
X28093Y-66079D01*
X28067Y-66049D01*
X28049Y-66015D01*
X28037Y-65978D01*
X28033Y-65939D01*
X28036Y-65901D01*
X28047Y-65864D01*
X28064Y-65829D01*
X28089Y-65799D01*
X28118Y-65773D01*
X28152Y-65754D01*
X28190Y-65742D01*
X28228Y-65738D01*
X28266Y-65741D01*
X28304Y-65751D01*
X28339Y-65769D01*
X28369Y-65793D01*
X28395Y-65822D01*
X28414Y-65856D01*
X28427Y-65893D01*
X28431Y-65932D01*
X28432Y-65937D01*
X28032Y-65737D02*
X28432Y-66137D01*
X28432Y-65737D02*
X28032Y-66137D01*
X28432Y-66937D02*
X28428Y-66975D01*
X28416Y-67013D01*
X28398Y-67047D01*
X28373Y-67077D01*
X28343Y-67102D01*
X28309Y-67121D01*
X28272Y-67132D01*
X28233Y-67136D01*
X28195Y-67133D01*
X28158Y-67122D01*
X28123Y-67104D01*
X28093Y-67079D01*
X28067Y-67049D01*
X28049Y-67015D01*
X28037Y-66978D01*
X28033Y-66939D01*
X28036Y-66901D01*
X28047Y-66864D01*
X28064Y-66829D01*
X28089Y-66799D01*
X28118Y-66773D01*
X28152Y-66754D01*
X28190Y-66742D01*
X28228Y-66738D01*
X28266Y-66741D01*
X28304Y-66751D01*
X28339Y-66769D01*
X28369Y-66793D01*
X28395Y-66822D01*
X28414Y-66856D01*
X28427Y-66893D01*
X28431Y-66932D01*
X28432Y-66937D01*
X28032Y-66737D02*
X28432Y-67137D01*
X28432Y-66737D02*
X28032Y-67137D01*
X29161Y-64173D02*
X29157Y-64211D01*
X29145Y-64249D01*
X29127Y-64283D01*
X29102Y-64313D01*
X29072Y-64338D01*
X29038Y-64357D01*
X29001Y-64368D01*
X28962Y-64372D01*
X28924Y-64369D01*
X28887Y-64358D01*
X28852Y-64340D01*
X28822Y-64315D01*
X28796Y-64285D01*
X28778Y-64251D01*
X28766Y-64214D01*
X28762Y-64175D01*
X28765Y-64137D01*
X28776Y-64100D01*
X28793Y-64065D01*
X28818Y-64035D01*
X28847Y-64009D01*
X28881Y-63990D01*
X28919Y-63978D01*
X28957Y-63974D01*
X28995Y-63977D01*
X29033Y-63987D01*
X29068Y-64005D01*
X29098Y-64029D01*
X29124Y-64058D01*
X29143Y-64092D01*
X29156Y-64129D01*
X29160Y-64168D01*
X29161Y-64173D01*
X28761Y-63973D02*
X29161Y-64373D01*
X29161Y-63973D02*
X28761Y-64373D01*
X29432Y-65937D02*
X29428Y-65975D01*
X29416Y-66013D01*
X29398Y-66047D01*
X29373Y-66077D01*
X29343Y-66102D01*
X29309Y-66121D01*
X29272Y-66132D01*
X29233Y-66136D01*
X29195Y-66133D01*
X29158Y-66122D01*
X29123Y-66104D01*
X29093Y-66079D01*
X29067Y-66049D01*
X29049Y-66015D01*
X29037Y-65978D01*
X29033Y-65939D01*
X29036Y-65901D01*
X29047Y-65864D01*
X29064Y-65829D01*
X29089Y-65799D01*
X29118Y-65773D01*
X29152Y-65754D01*
X29190Y-65742D01*
X29228Y-65738D01*
X29266Y-65741D01*
X29304Y-65751D01*
X29339Y-65769D01*
X29369Y-65793D01*
X29395Y-65822D01*
X29414Y-65856D01*
X29427Y-65893D01*
X29431Y-65932D01*
X29432Y-65937D01*
X29032Y-65737D02*
X29432Y-66137D01*
X29432Y-65737D02*
X29032Y-66137D01*
X29432Y-66937D02*
X29428Y-66975D01*
X29416Y-67013D01*
X29398Y-67047D01*
X29373Y-67077D01*
X29343Y-67102D01*
X29309Y-67121D01*
X29272Y-67132D01*
X29233Y-67136D01*
X29195Y-67133D01*
X29158Y-67122D01*
X29123Y-67104D01*
X29093Y-67079D01*
X29067Y-67049D01*
X29049Y-67015D01*
X29037Y-66978D01*
X29033Y-66939D01*
X29036Y-66901D01*
X29047Y-66864D01*
X29064Y-66829D01*
X29089Y-66799D01*
X29118Y-66773D01*
X29152Y-66754D01*
X29190Y-66742D01*
X29228Y-66738D01*
X29266Y-66741D01*
X29304Y-66751D01*
X29339Y-66769D01*
X29369Y-66793D01*
X29395Y-66822D01*
X29414Y-66856D01*
X29427Y-66893D01*
X29431Y-66932D01*
X29432Y-66937D01*
X29032Y-66737D02*
X29432Y-67137D01*
X29432Y-66737D02*
X29032Y-67137D01*
X30161Y-64173D02*
X30157Y-64211D01*
X30145Y-64249D01*
X30127Y-64283D01*
X30102Y-64313D01*
X30072Y-64338D01*
X30038Y-64357D01*
X30001Y-64368D01*
X29962Y-64372D01*
X29924Y-64369D01*
X29887Y-64358D01*
X29852Y-64340D01*
X29822Y-64315D01*
X29796Y-64285D01*
X29778Y-64251D01*
X29766Y-64214D01*
X29762Y-64175D01*
X29765Y-64137D01*
X29776Y-64100D01*
X29793Y-64065D01*
X29818Y-64035D01*
X29847Y-64009D01*
X29881Y-63990D01*
X29919Y-63978D01*
X29957Y-63974D01*
X29995Y-63977D01*
X30033Y-63987D01*
X30068Y-64005D01*
X30098Y-64029D01*
X30124Y-64058D01*
X30143Y-64092D01*
X30156Y-64129D01*
X30160Y-64168D01*
X30161Y-64173D01*
X29761Y-63973D02*
X30161Y-64373D01*
X30161Y-63973D02*
X29761Y-64373D01*
X30432Y-65937D02*
X30428Y-65975D01*
X30416Y-66013D01*
X30398Y-66047D01*
X30373Y-66077D01*
X30343Y-66102D01*
X30309Y-66121D01*
X30272Y-66132D01*
X30233Y-66136D01*
X30195Y-66133D01*
X30158Y-66122D01*
X30123Y-66104D01*
X30093Y-66079D01*
X30067Y-66049D01*
X30049Y-66015D01*
X30037Y-65978D01*
X30033Y-65939D01*
X30036Y-65901D01*
X30047Y-65864D01*
X30064Y-65829D01*
X30089Y-65799D01*
X30118Y-65773D01*
X30152Y-65754D01*
X30190Y-65742D01*
X30228Y-65738D01*
X30266Y-65741D01*
X30304Y-65751D01*
X30339Y-65769D01*
X30369Y-65793D01*
X30395Y-65822D01*
X30414Y-65856D01*
X30427Y-65893D01*
X30431Y-65932D01*
X30432Y-65937D01*
X30032Y-65737D02*
X30432Y-66137D01*
X30432Y-65737D02*
X30032Y-66137D01*
X30432Y-66937D02*
X30428Y-66975D01*
X30416Y-67013D01*
X30398Y-67047D01*
X30373Y-67077D01*
X30343Y-67102D01*
X30309Y-67121D01*
X30272Y-67132D01*
X30233Y-67136D01*
X30195Y-67133D01*
X30158Y-67122D01*
X30123Y-67104D01*
X30093Y-67079D01*
X30067Y-67049D01*
X30049Y-67015D01*
X30037Y-66978D01*
X30033Y-66939D01*
X30036Y-66901D01*
X30047Y-66864D01*
X30064Y-66829D01*
X30089Y-66799D01*
X30118Y-66773D01*
X30152Y-66754D01*
X30190Y-66742D01*
X30228Y-66738D01*
X30266Y-66741D01*
X30304Y-66751D01*
X30339Y-66769D01*
X30369Y-66793D01*
X30395Y-66822D01*
X30414Y-66856D01*
X30427Y-66893D01*
X30431Y-66932D01*
X30432Y-66937D01*
X30032Y-66737D02*
X30432Y-67137D01*
X30432Y-66737D02*
X30032Y-67137D01*
X31432Y-65937D02*
X31428Y-65975D01*
X31416Y-66013D01*
X31398Y-66047D01*
X31373Y-66077D01*
X31343Y-66102D01*
X31309Y-66121D01*
X31272Y-66132D01*
X31233Y-66136D01*
X31195Y-66133D01*
X31158Y-66122D01*
X31123Y-66104D01*
X31093Y-66079D01*
X31067Y-66049D01*
X31049Y-66015D01*
X31037Y-65978D01*
X31033Y-65939D01*
X31036Y-65901D01*
X31047Y-65864D01*
X31064Y-65829D01*
X31089Y-65799D01*
X31118Y-65773D01*
X31152Y-65754D01*
X31190Y-65742D01*
X31228Y-65738D01*
X31266Y-65741D01*
X31304Y-65751D01*
X31339Y-65769D01*
X31369Y-65793D01*
X31395Y-65822D01*
X31414Y-65856D01*
X31427Y-65893D01*
X31431Y-65932D01*
X31432Y-65937D01*
X31032Y-65737D02*
X31432Y-66137D01*
X31432Y-65737D02*
X31032Y-66137D01*
X31432Y-66937D02*
X31428Y-66975D01*
X31416Y-67013D01*
X31398Y-67047D01*
X31373Y-67077D01*
X31343Y-67102D01*
X31309Y-67121D01*
X31272Y-67132D01*
X31233Y-67136D01*
X31195Y-67133D01*
X31158Y-67122D01*
X31123Y-67104D01*
X31093Y-67079D01*
X31067Y-67049D01*
X31049Y-67015D01*
X31037Y-66978D01*
X31033Y-66939D01*
X31036Y-66901D01*
X31047Y-66864D01*
X31064Y-66829D01*
X31089Y-66799D01*
X31118Y-66773D01*
X31152Y-66754D01*
X31190Y-66742D01*
X31228Y-66738D01*
X31266Y-66741D01*
X31304Y-66751D01*
X31339Y-66769D01*
X31369Y-66793D01*
X31395Y-66822D01*
X31414Y-66856D01*
X31427Y-66893D01*
X31431Y-66932D01*
X31432Y-66937D01*
X31032Y-66737D02*
X31432Y-67137D01*
X31432Y-66737D02*
X31032Y-67137D01*
X37791Y-56268D02*
X37787Y-56306D01*
X37775Y-56344D01*
X37757Y-56378D01*
X37732Y-56408D01*
X37702Y-56433D01*
X37668Y-56452D01*
X37631Y-56463D01*
X37592Y-56467D01*
X37554Y-56464D01*
X37517Y-56453D01*
X37482Y-56435D01*
X37452Y-56410D01*
X37426Y-56380D01*
X37408Y-56346D01*
X37396Y-56309D01*
X37392Y-56270D01*
X37395Y-56232D01*
X37406Y-56195D01*
X37423Y-56160D01*
X37448Y-56130D01*
X37477Y-56104D01*
X37511Y-56085D01*
X37549Y-56073D01*
X37587Y-56069D01*
X37625Y-56072D01*
X37663Y-56082D01*
X37698Y-56100D01*
X37728Y-56124D01*
X37754Y-56153D01*
X37773Y-56187D01*
X37786Y-56224D01*
X37790Y-56263D01*
X37791Y-56268D01*
X37391Y-56068D02*
X37791Y-56468D01*
X37791Y-56068D02*
X37391Y-56468D01*
X37791Y-57268D02*
X37787Y-57306D01*
X37775Y-57344D01*
X37757Y-57378D01*
X37732Y-57408D01*
X37702Y-57433D01*
X37668Y-57452D01*
X37631Y-57463D01*
X37592Y-57467D01*
X37554Y-57464D01*
X37517Y-57453D01*
X37482Y-57435D01*
X37452Y-57410D01*
X37426Y-57380D01*
X37408Y-57346D01*
X37396Y-57309D01*
X37392Y-57270D01*
X37395Y-57232D01*
X37406Y-57195D01*
X37423Y-57160D01*
X37448Y-57130D01*
X37477Y-57104D01*
X37511Y-57085D01*
X37549Y-57073D01*
X37587Y-57069D01*
X37625Y-57072D01*
X37663Y-57082D01*
X37698Y-57100D01*
X37728Y-57124D01*
X37754Y-57153D01*
X37773Y-57187D01*
X37786Y-57224D01*
X37790Y-57263D01*
X37791Y-57268D01*
X37391Y-57068D02*
X37791Y-57468D01*
X37791Y-57068D02*
X37391Y-57468D01*
X37791Y-58268D02*
X37787Y-58306D01*
X37775Y-58344D01*
X37757Y-58378D01*
X37732Y-58408D01*
X37702Y-58433D01*
X37668Y-58452D01*
X37631Y-58463D01*
X37592Y-58467D01*
X37554Y-58464D01*
X37517Y-58453D01*
X37482Y-58435D01*
X37452Y-58410D01*
X37426Y-58380D01*
X37408Y-58346D01*
X37396Y-58309D01*
X37392Y-58270D01*
X37395Y-58232D01*
X37406Y-58195D01*
X37423Y-58160D01*
X37448Y-58130D01*
X37477Y-58104D01*
X37511Y-58085D01*
X37549Y-58073D01*
X37587Y-58069D01*
X37625Y-58072D01*
X37663Y-58082D01*
X37698Y-58100D01*
X37728Y-58124D01*
X37754Y-58153D01*
X37773Y-58187D01*
X37786Y-58224D01*
X37790Y-58263D01*
X37791Y-58268D01*
X37391Y-58068D02*
X37791Y-58468D01*
X37791Y-58068D02*
X37391Y-58468D01*
X37791Y-59268D02*
X37787Y-59306D01*
X37775Y-59344D01*
X37757Y-59378D01*
X37732Y-59408D01*
X37702Y-59433D01*
X37668Y-59452D01*
X37631Y-59463D01*
X37592Y-59467D01*
X37554Y-59464D01*
X37517Y-59453D01*
X37482Y-59435D01*
X37452Y-59410D01*
X37426Y-59380D01*
X37408Y-59346D01*
X37396Y-59309D01*
X37392Y-59270D01*
X37395Y-59232D01*
X37406Y-59195D01*
X37423Y-59160D01*
X37448Y-59130D01*
X37477Y-59104D01*
X37511Y-59085D01*
X37549Y-59073D01*
X37587Y-59069D01*
X37625Y-59072D01*
X37663Y-59082D01*
X37698Y-59100D01*
X37728Y-59124D01*
X37754Y-59153D01*
X37773Y-59187D01*
X37786Y-59224D01*
X37790Y-59263D01*
X37791Y-59268D01*
X37391Y-59068D02*
X37791Y-59468D01*
X37791Y-59068D02*
X37391Y-59468D01*
X37791Y-60268D02*
X37787Y-60306D01*
X37775Y-60344D01*
X37757Y-60378D01*
X37732Y-60408D01*
X37702Y-60433D01*
X37668Y-60452D01*
X37631Y-60463D01*
X37592Y-60467D01*
X37554Y-60464D01*
X37517Y-60453D01*
X37482Y-60435D01*
X37452Y-60410D01*
X37426Y-60380D01*
X37408Y-60346D01*
X37396Y-60309D01*
X37392Y-60270D01*
X37395Y-60232D01*
X37406Y-60195D01*
X37423Y-60160D01*
X37448Y-60130D01*
X37477Y-60104D01*
X37511Y-60085D01*
X37549Y-60073D01*
X37587Y-60069D01*
X37625Y-60072D01*
X37663Y-60082D01*
X37698Y-60100D01*
X37728Y-60124D01*
X37754Y-60153D01*
X37773Y-60187D01*
X37786Y-60224D01*
X37790Y-60263D01*
X37791Y-60268D01*
X37391Y-60068D02*
X37791Y-60468D01*
X37791Y-60068D02*
X37391Y-60468D01*
X38791Y-56268D02*
X38787Y-56306D01*
X38775Y-56344D01*
X38757Y-56378D01*
X38732Y-56408D01*
X38702Y-56433D01*
X38668Y-56452D01*
X38631Y-56463D01*
X38592Y-56467D01*
X38554Y-56464D01*
X38517Y-56453D01*
X38482Y-56435D01*
X38452Y-56410D01*
X38426Y-56380D01*
X38408Y-56346D01*
X38396Y-56309D01*
X38392Y-56270D01*
X38395Y-56232D01*
X38406Y-56195D01*
X38423Y-56160D01*
X38448Y-56130D01*
X38477Y-56104D01*
X38511Y-56085D01*
X38549Y-56073D01*
X38587Y-56069D01*
X38625Y-56072D01*
X38663Y-56082D01*
X38698Y-56100D01*
X38728Y-56124D01*
X38754Y-56153D01*
X38773Y-56187D01*
X38786Y-56224D01*
X38790Y-56263D01*
X38791Y-56268D01*
X38391Y-56068D02*
X38791Y-56468D01*
X38791Y-56068D02*
X38391Y-56468D01*
X38791Y-57268D02*
X38787Y-57306D01*
X38775Y-57344D01*
X38757Y-57378D01*
X38732Y-57408D01*
X38702Y-57433D01*
X38668Y-57452D01*
X38631Y-57463D01*
X38592Y-57467D01*
X38554Y-57464D01*
X38517Y-57453D01*
X38482Y-57435D01*
X38452Y-57410D01*
X38426Y-57380D01*
X38408Y-57346D01*
X38396Y-57309D01*
X38392Y-57270D01*
X38395Y-57232D01*
X38406Y-57195D01*
X38423Y-57160D01*
X38448Y-57130D01*
X38477Y-57104D01*
X38511Y-57085D01*
X38549Y-57073D01*
X38587Y-57069D01*
X38625Y-57072D01*
X38663Y-57082D01*
X38698Y-57100D01*
X38728Y-57124D01*
X38754Y-57153D01*
X38773Y-57187D01*
X38786Y-57224D01*
X38790Y-57263D01*
X38791Y-57268D01*
X38391Y-57068D02*
X38791Y-57468D01*
X38791Y-57068D02*
X38391Y-57468D01*
X38791Y-58268D02*
X38787Y-58306D01*
X38775Y-58344D01*
X38757Y-58378D01*
X38732Y-58408D01*
X38702Y-58433D01*
X38668Y-58452D01*
X38631Y-58463D01*
X38592Y-58467D01*
X38554Y-58464D01*
X38517Y-58453D01*
X38482Y-58435D01*
X38452Y-58410D01*
X38426Y-58380D01*
X38408Y-58346D01*
X38396Y-58309D01*
X38392Y-58270D01*
X38395Y-58232D01*
X38406Y-58195D01*
X38423Y-58160D01*
X38448Y-58130D01*
X38477Y-58104D01*
X38511Y-58085D01*
X38549Y-58073D01*
X38587Y-58069D01*
X38625Y-58072D01*
X38663Y-58082D01*
X38698Y-58100D01*
X38728Y-58124D01*
X38754Y-58153D01*
X38773Y-58187D01*
X38786Y-58224D01*
X38790Y-58263D01*
X38791Y-58268D01*
X38391Y-58068D02*
X38791Y-58468D01*
X38791Y-58068D02*
X38391Y-58468D01*
X38791Y-59268D02*
X38787Y-59306D01*
X38775Y-59344D01*
X38757Y-59378D01*
X38732Y-59408D01*
X38702Y-59433D01*
X38668Y-59452D01*
X38631Y-59463D01*
X38592Y-59467D01*
X38554Y-59464D01*
X38517Y-59453D01*
X38482Y-59435D01*
X38452Y-59410D01*
X38426Y-59380D01*
X38408Y-59346D01*
X38396Y-59309D01*
X38392Y-59270D01*
X38395Y-59232D01*
X38406Y-59195D01*
X38423Y-59160D01*
X38448Y-59130D01*
X38477Y-59104D01*
X38511Y-59085D01*
X38549Y-59073D01*
X38587Y-59069D01*
X38625Y-59072D01*
X38663Y-59082D01*
X38698Y-59100D01*
X38728Y-59124D01*
X38754Y-59153D01*
X38773Y-59187D01*
X38786Y-59224D01*
X38790Y-59263D01*
X38791Y-59268D01*
X38391Y-59068D02*
X38791Y-59468D01*
X38791Y-59068D02*
X38391Y-59468D01*
X38791Y-60268D02*
X38787Y-60306D01*
X38775Y-60344D01*
X38757Y-60378D01*
X38732Y-60408D01*
X38702Y-60433D01*
X38668Y-60452D01*
X38631Y-60463D01*
X38592Y-60467D01*
X38554Y-60464D01*
X38517Y-60453D01*
X38482Y-60435D01*
X38452Y-60410D01*
X38426Y-60380D01*
X38408Y-60346D01*
X38396Y-60309D01*
X38392Y-60270D01*
X38395Y-60232D01*
X38406Y-60195D01*
X38423Y-60160D01*
X38448Y-60130D01*
X38477Y-60104D01*
X38511Y-60085D01*
X38549Y-60073D01*
X38587Y-60069D01*
X38625Y-60072D01*
X38663Y-60082D01*
X38698Y-60100D01*
X38728Y-60124D01*
X38754Y-60153D01*
X38773Y-60187D01*
X38786Y-60224D01*
X38790Y-60263D01*
X38791Y-60268D01*
X38391Y-60068D02*
X38791Y-60468D01*
X38791Y-60068D02*
X38391Y-60468D01*
X21819Y-42421D02*
X21814Y-42471D01*
X21799Y-42520D01*
X21775Y-42564D01*
X21743Y-42604D01*
X21704Y-42636D01*
X21659Y-42660D01*
X21611Y-42675D01*
X21560Y-42680D01*
X21511Y-42676D01*
X21462Y-42662D01*
X21417Y-42638D01*
X21378Y-42606D01*
X21345Y-42567D01*
X21321Y-42523D01*
X21305Y-42475D01*
X21300Y-42424D01*
X21304Y-42375D01*
X21318Y-42326D01*
X21341Y-42281D01*
X21372Y-42241D01*
X21411Y-42208D01*
X21455Y-42183D01*
X21504Y-42168D01*
X21554Y-42162D01*
X21604Y-42165D01*
X21653Y-42179D01*
X21698Y-42202D01*
X21738Y-42233D01*
X21771Y-42272D01*
X21796Y-42316D01*
X21812Y-42364D01*
X21818Y-42414D01*
X21819Y-42421D01*
X21299Y-42421D02*
X21819Y-42421D01*
X23789Y-42421D02*
X23784Y-42471D01*
X23769Y-42520D01*
X23745Y-42564D01*
X23713Y-42604D01*
X23674Y-42636D01*
X23629Y-42660D01*
X23581Y-42675D01*
X23530Y-42680D01*
X23481Y-42676D01*
X23432Y-42662D01*
X23387Y-42638D01*
X23348Y-42606D01*
X23315Y-42567D01*
X23291Y-42523D01*
X23275Y-42475D01*
X23270Y-42424D01*
X23274Y-42375D01*
X23288Y-42326D01*
X23311Y-42281D01*
X23342Y-42241D01*
X23381Y-42208D01*
X23425Y-42183D01*
X23474Y-42168D01*
X23524Y-42162D01*
X23574Y-42165D01*
X23623Y-42179D01*
X23668Y-42202D01*
X23708Y-42233D01*
X23741Y-42272D01*
X23766Y-42316D01*
X23782Y-42364D01*
X23788Y-42414D01*
X23789Y-42421D01*
X23269Y-42421D02*
X23789Y-42421D01*
X32697Y-42992D02*
X32691Y-43053D01*
X32673Y-43112D01*
X32644Y-43166D01*
X32605Y-43213D01*
X32558Y-43253D01*
X32504Y-43282D01*
X32445Y-43300D01*
X32384Y-43306D01*
X32323Y-43301D01*
X32264Y-43284D01*
X32210Y-43255D01*
X32162Y-43217D01*
X32123Y-43169D01*
X32093Y-43116D01*
X32074Y-43057D01*
X32068Y-42996D01*
X32073Y-42936D01*
X32090Y-42877D01*
X32118Y-42822D01*
X32156Y-42774D01*
X32203Y-42734D01*
X32256Y-42704D01*
X32315Y-42685D01*
X32376Y-42678D01*
X32436Y-42682D01*
X32495Y-42699D01*
X32550Y-42727D01*
X32599Y-42764D01*
X32639Y-42811D01*
X32669Y-42864D01*
X32689Y-42923D01*
X32696Y-42984D01*
X32697Y-42992D01*
X32382Y-42677D02*
X32382Y-43307D01*
X38760Y-42992D02*
X38754Y-43053D01*
X38736Y-43112D01*
X38707Y-43166D01*
X38668Y-43213D01*
X38621Y-43253D01*
X38567Y-43282D01*
X38508Y-43300D01*
X38447Y-43306D01*
X38386Y-43301D01*
X38327Y-43284D01*
X38273Y-43255D01*
X38225Y-43217D01*
X38186Y-43169D01*
X38156Y-43116D01*
X38137Y-43057D01*
X38131Y-42996D01*
X38136Y-42936D01*
X38153Y-42877D01*
X38181Y-42822D01*
X38219Y-42774D01*
X38266Y-42734D01*
X38319Y-42704D01*
X38378Y-42685D01*
X38439Y-42678D01*
X38499Y-42682D01*
X38558Y-42699D01*
X38613Y-42727D01*
X38662Y-42764D01*
X38702Y-42811D01*
X38732Y-42864D01*
X38752Y-42923D01*
X38759Y-42984D01*
X38760Y-42992D01*
X38445Y-42677D02*
X38445Y-43307D01*
X33642Y-42283D02*
X33642Y-41377D01*
X32736Y-41377D01*
X32736Y-42283D01*
X33642Y-42283D01*
X38130Y-42264D02*
X38130Y-41358D01*
X37224Y-41358D01*
X37224Y-42264D01*
X38130Y-42264D01*
G54D12*
X12053Y-78862D02*
X12053Y-78062D01*
X12244Y-78062D01*
X12358Y-78100D01*
X12434Y-78176D01*
X12473Y-78252D01*
X12511Y-78405D01*
X12511Y-78519D01*
X12473Y-78671D01*
X12434Y-78748D01*
X12358Y-78824D01*
X12244Y-78862D01*
X12053Y-78862D01*
X12853Y-78862D02*
X12853Y-78328D01*
X12853Y-78481D02*
X12892Y-78405D01*
X12930Y-78367D01*
X13006Y-78328D01*
X13082Y-78328D01*
X13348Y-78862D02*
X13348Y-78328D01*
X13348Y-78062D02*
X13310Y-78100D01*
X13348Y-78138D01*
X13387Y-78100D01*
X13348Y-78062D01*
X13348Y-78138D01*
X13844Y-78862D02*
X13768Y-78824D01*
X13729Y-78748D01*
X13729Y-78062D01*
X14263Y-78862D02*
X14187Y-78824D01*
X14148Y-78748D01*
X14148Y-78062D01*
X15177Y-78862D02*
X15177Y-78062D01*
X15444Y-78633D01*
X15711Y-78062D01*
X15711Y-78862D01*
X16434Y-78862D02*
X16434Y-78443D01*
X16396Y-78367D01*
X16320Y-78328D01*
X16168Y-78328D01*
X16091Y-78367D01*
X16434Y-78824D02*
X16358Y-78862D01*
X16168Y-78862D01*
X16091Y-78824D01*
X16053Y-78748D01*
X16053Y-78671D01*
X16091Y-78595D01*
X16168Y-78557D01*
X16358Y-78557D01*
X16434Y-78519D01*
X16815Y-78328D02*
X16815Y-79128D01*
X16815Y-78367D02*
X16892Y-78328D01*
X17044Y-78328D01*
X17120Y-78367D01*
X17158Y-78405D01*
X17196Y-78481D01*
X17196Y-78709D01*
X17158Y-78786D01*
X17120Y-78824D01*
X17044Y-78862D01*
X16892Y-78862D01*
X16815Y-78824D01*
X17539Y-78786D02*
X17578Y-78824D01*
X17539Y-78862D01*
X17501Y-78824D01*
X17539Y-78786D01*
X17539Y-78862D01*
X17539Y-78367D02*
X17578Y-78405D01*
X17539Y-78443D01*
X17501Y-78405D01*
X17539Y-78367D01*
X17539Y-78443D01*
X11413Y-80093D02*
X11663Y-80343D01*
X11663Y-80093D02*
X11413Y-80343D01*
X12206Y-79742D02*
X12282Y-79742D01*
X12358Y-79780D01*
X12396Y-79818D01*
X12434Y-79894D01*
X12473Y-80047D01*
X12473Y-80237D01*
X12434Y-80389D01*
X12396Y-80466D01*
X12358Y-80504D01*
X12282Y-80542D01*
X12206Y-80542D01*
X12130Y-80504D01*
X12092Y-80466D01*
X12053Y-80389D01*
X12015Y-80237D01*
X12015Y-80047D01*
X12053Y-79894D01*
X12092Y-79818D01*
X12130Y-79780D01*
X12206Y-79742D01*
X12815Y-80466D02*
X12854Y-80504D01*
X12815Y-80542D01*
X12777Y-80504D01*
X12815Y-80466D01*
X12815Y-80542D01*
X13539Y-79742D02*
X13387Y-79742D01*
X13311Y-79780D01*
X13273Y-79818D01*
X13196Y-79932D01*
X13158Y-80085D01*
X13158Y-80389D01*
X13196Y-80466D01*
X13235Y-80504D01*
X13311Y-80542D01*
X13463Y-80542D01*
X13539Y-80504D01*
X13577Y-80466D01*
X13616Y-80389D01*
X13616Y-80199D01*
X13577Y-80123D01*
X13539Y-80085D01*
X13463Y-80047D01*
X13311Y-80047D01*
X13235Y-80085D01*
X13196Y-80123D01*
X13158Y-80199D01*
X14301Y-80008D02*
X14301Y-80542D01*
X14111Y-79704D02*
X13920Y-80275D01*
X14416Y-80275D01*
X14720Y-80542D02*
X14720Y-80008D01*
X14720Y-80085D02*
X14759Y-80047D01*
X14835Y-80008D01*
X14949Y-80008D01*
X15025Y-80047D01*
X15063Y-80123D01*
X15063Y-80542D01*
X15063Y-80123D02*
X15101Y-80047D01*
X15178Y-80008D01*
X15292Y-80008D01*
X15368Y-80047D01*
X15406Y-80123D01*
X15406Y-80542D01*
X15787Y-80542D02*
X15787Y-80008D01*
X15787Y-80085D02*
X15826Y-80047D01*
X15902Y-80008D01*
X16016Y-80008D01*
X16092Y-80047D01*
X16130Y-80123D01*
X16130Y-80542D01*
X16130Y-80123D02*
X16168Y-80047D01*
X16245Y-80008D01*
X16359Y-80008D01*
X16435Y-80047D01*
X16473Y-80123D01*
X16473Y-80542D01*
X18036Y-79704D02*
X17350Y-80732D01*
X19065Y-79742D02*
X19141Y-79742D01*
X19217Y-79780D01*
X19255Y-79818D01*
X19293Y-79894D01*
X19332Y-80047D01*
X19332Y-80237D01*
X19293Y-80389D01*
X19255Y-80466D01*
X19217Y-80504D01*
X19141Y-80542D01*
X19065Y-80542D01*
X18989Y-80504D01*
X18951Y-80466D01*
X18912Y-80389D01*
X18874Y-80237D01*
X18874Y-80047D01*
X18912Y-79894D01*
X18951Y-79818D01*
X18989Y-79780D01*
X19065Y-79742D01*
X19674Y-80466D02*
X19713Y-80504D01*
X19674Y-80542D01*
X19636Y-80504D01*
X19674Y-80466D01*
X19674Y-80542D01*
X20208Y-79742D02*
X20284Y-79742D01*
X20360Y-79780D01*
X20398Y-79818D01*
X20436Y-79894D01*
X20475Y-80047D01*
X20475Y-80237D01*
X20436Y-80389D01*
X20398Y-80466D01*
X20360Y-80504D01*
X20284Y-80542D01*
X20208Y-80542D01*
X20132Y-80504D01*
X20094Y-80466D01*
X20055Y-80389D01*
X20017Y-80237D01*
X20017Y-80047D01*
X20055Y-79894D01*
X20094Y-79818D01*
X20132Y-79780D01*
X20208Y-79742D01*
X20779Y-79818D02*
X20817Y-79780D01*
X20894Y-79742D01*
X21084Y-79742D01*
X21160Y-79780D01*
X21198Y-79818D01*
X21237Y-79894D01*
X21237Y-79970D01*
X21198Y-80085D01*
X20741Y-80542D01*
X21237Y-80542D01*
X21960Y-79742D02*
X21579Y-79742D01*
X21541Y-80123D01*
X21579Y-80085D01*
X21656Y-80047D01*
X21846Y-80047D01*
X21922Y-80085D01*
X21960Y-80123D01*
X21999Y-80199D01*
X21999Y-80389D01*
X21960Y-80466D01*
X21922Y-80504D01*
X21846Y-80542D01*
X21656Y-80542D01*
X21579Y-80504D01*
X21541Y-80466D01*
X22303Y-79742D02*
X22303Y-79894D01*
X22608Y-79742D02*
X22608Y-79894D01*
X23790Y-80847D02*
X23752Y-80808D01*
X23676Y-80694D01*
X23638Y-80618D01*
X23600Y-80504D01*
X23561Y-80313D01*
X23561Y-80161D01*
X23600Y-79970D01*
X23638Y-79856D01*
X23676Y-79780D01*
X23752Y-79666D01*
X23790Y-79628D01*
X24475Y-79742D02*
X24094Y-79742D01*
X24056Y-80123D01*
X24094Y-80085D01*
X24171Y-80047D01*
X24361Y-80047D01*
X24437Y-80085D01*
X24475Y-80123D01*
X24514Y-80199D01*
X24514Y-80389D01*
X24475Y-80466D01*
X24437Y-80504D01*
X24361Y-80542D01*
X24171Y-80542D01*
X24094Y-80504D01*
X24056Y-80466D01*
X24780Y-79742D02*
X25276Y-79742D01*
X25009Y-80047D01*
X25123Y-80047D01*
X25199Y-80085D01*
X25237Y-80123D01*
X25276Y-80199D01*
X25276Y-80389D01*
X25237Y-80466D01*
X25199Y-80504D01*
X25123Y-80542D01*
X24895Y-80542D01*
X24818Y-80504D01*
X24780Y-80466D01*
X26228Y-80542D02*
X26228Y-79742D01*
X26571Y-80542D02*
X26571Y-80123D01*
X26533Y-80047D01*
X26457Y-80008D01*
X26343Y-80008D01*
X26267Y-80047D01*
X26228Y-80085D01*
X27067Y-80542D02*
X26991Y-80504D01*
X26952Y-80466D01*
X26914Y-80389D01*
X26914Y-80161D01*
X26952Y-80085D01*
X26991Y-80047D01*
X27067Y-80008D01*
X27181Y-80008D01*
X27257Y-80047D01*
X27295Y-80085D01*
X27333Y-80161D01*
X27333Y-80389D01*
X27295Y-80466D01*
X27257Y-80504D01*
X27181Y-80542D01*
X27067Y-80542D01*
X27791Y-80542D02*
X27715Y-80504D01*
X27676Y-80428D01*
X27676Y-79742D01*
X28400Y-80504D02*
X28324Y-80542D01*
X28172Y-80542D01*
X28095Y-80504D01*
X28057Y-80428D01*
X28057Y-80123D01*
X28095Y-80047D01*
X28172Y-80008D01*
X28324Y-80008D01*
X28400Y-80047D01*
X28438Y-80123D01*
X28438Y-80199D01*
X28057Y-80275D01*
X28743Y-80504D02*
X28820Y-80542D01*
X28972Y-80542D01*
X29048Y-80504D01*
X29086Y-80428D01*
X29086Y-80389D01*
X29048Y-80313D01*
X28972Y-80275D01*
X28858Y-80275D01*
X28781Y-80237D01*
X28743Y-80161D01*
X28743Y-80123D01*
X28781Y-80047D01*
X28858Y-80008D01*
X28972Y-80008D01*
X29048Y-80047D01*
X29353Y-80847D02*
X29391Y-80808D01*
X29468Y-80694D01*
X29506Y-80618D01*
X29544Y-80504D01*
X29582Y-80313D01*
X29582Y-80161D01*
X29544Y-79970D01*
X29506Y-79856D01*
X29468Y-79780D01*
X29391Y-79666D01*
X29353Y-79628D01*
G54D10*
X11663Y-81273D02*
X11659Y-81307D01*
X11649Y-81340D01*
X11633Y-81370D01*
X11611Y-81397D01*
X11584Y-81419D01*
X11554Y-81436D01*
X11521Y-81446D01*
X11487Y-81449D01*
X11453Y-81446D01*
X11420Y-81437D01*
X11390Y-81421D01*
X11363Y-81399D01*
X11340Y-81372D01*
X11324Y-81342D01*
X11313Y-81309D01*
X11310Y-81275D01*
X11312Y-81242D01*
X11322Y-81208D01*
X11338Y-81178D01*
X11359Y-81151D01*
X11385Y-81128D01*
X11416Y-81111D01*
X11448Y-81101D01*
X11483Y-81097D01*
X11516Y-81099D01*
X11550Y-81108D01*
X11580Y-81124D01*
X11608Y-81145D01*
X11630Y-81171D01*
X11647Y-81202D01*
X11658Y-81234D01*
X11662Y-81269D01*
X11663Y-81273D01*
G54D12*
X12206Y-80797D02*
X12282Y-80797D01*
X12358Y-80835D01*
X12396Y-80873D01*
X12434Y-80949D01*
X12473Y-81102D01*
X12473Y-81292D01*
X12434Y-81444D01*
X12396Y-81521D01*
X12358Y-81559D01*
X12282Y-81597D01*
X12206Y-81597D01*
X12130Y-81559D01*
X12092Y-81521D01*
X12053Y-81444D01*
X12015Y-81292D01*
X12015Y-81102D01*
X12053Y-80949D01*
X12092Y-80873D01*
X12130Y-80835D01*
X12206Y-80797D01*
X12815Y-81521D02*
X12854Y-81559D01*
X12815Y-81597D01*
X12777Y-81559D01*
X12815Y-81521D01*
X12815Y-81597D01*
X13235Y-81597D02*
X13387Y-81597D01*
X13463Y-81559D01*
X13501Y-81521D01*
X13577Y-81406D01*
X13616Y-81254D01*
X13616Y-80949D01*
X13577Y-80873D01*
X13539Y-80835D01*
X13463Y-80797D01*
X13311Y-80797D01*
X13235Y-80835D01*
X13196Y-80873D01*
X13158Y-80949D01*
X13158Y-81140D01*
X13196Y-81216D01*
X13235Y-81254D01*
X13311Y-81292D01*
X13463Y-81292D01*
X13539Y-81254D01*
X13577Y-81216D01*
X13616Y-81140D01*
X14111Y-80797D02*
X14187Y-80797D01*
X14263Y-80835D01*
X14301Y-80873D01*
X14339Y-80949D01*
X14378Y-81102D01*
X14378Y-81292D01*
X14339Y-81444D01*
X14301Y-81521D01*
X14263Y-81559D01*
X14187Y-81597D01*
X14111Y-81597D01*
X14035Y-81559D01*
X13997Y-81521D01*
X13958Y-81444D01*
X13920Y-81292D01*
X13920Y-81102D01*
X13958Y-80949D01*
X13997Y-80873D01*
X14035Y-80835D01*
X14111Y-80797D01*
X14720Y-81597D02*
X14720Y-81063D01*
X14720Y-81140D02*
X14759Y-81102D01*
X14835Y-81063D01*
X14949Y-81063D01*
X15025Y-81102D01*
X15063Y-81178D01*
X15063Y-81597D01*
X15063Y-81178D02*
X15101Y-81102D01*
X15178Y-81063D01*
X15292Y-81063D01*
X15368Y-81102D01*
X15406Y-81178D01*
X15406Y-81597D01*
X15787Y-81597D02*
X15787Y-81063D01*
X15787Y-81140D02*
X15826Y-81102D01*
X15902Y-81063D01*
X16016Y-81063D01*
X16092Y-81102D01*
X16130Y-81178D01*
X16130Y-81597D01*
X16130Y-81178D02*
X16168Y-81102D01*
X16245Y-81063D01*
X16359Y-81063D01*
X16435Y-81102D01*
X16473Y-81178D01*
X16473Y-81597D01*
X18036Y-80759D02*
X17350Y-81787D01*
X19065Y-80797D02*
X19141Y-80797D01*
X19217Y-80835D01*
X19255Y-80873D01*
X19293Y-80949D01*
X19332Y-81102D01*
X19332Y-81292D01*
X19293Y-81444D01*
X19255Y-81521D01*
X19217Y-81559D01*
X19141Y-81597D01*
X19065Y-81597D01*
X18989Y-81559D01*
X18951Y-81521D01*
X18912Y-81444D01*
X18874Y-81292D01*
X18874Y-81102D01*
X18912Y-80949D01*
X18951Y-80873D01*
X18989Y-80835D01*
X19065Y-80797D01*
X19674Y-81521D02*
X19713Y-81559D01*
X19674Y-81597D01*
X19636Y-81559D01*
X19674Y-81521D01*
X19674Y-81597D01*
X20208Y-80797D02*
X20284Y-80797D01*
X20360Y-80835D01*
X20398Y-80873D01*
X20436Y-80949D01*
X20475Y-81102D01*
X20475Y-81292D01*
X20436Y-81444D01*
X20398Y-81521D01*
X20360Y-81559D01*
X20284Y-81597D01*
X20208Y-81597D01*
X20132Y-81559D01*
X20094Y-81521D01*
X20055Y-81444D01*
X20017Y-81292D01*
X20017Y-81102D01*
X20055Y-80949D01*
X20094Y-80873D01*
X20132Y-80835D01*
X20208Y-80797D01*
X20741Y-80797D02*
X21237Y-80797D01*
X20970Y-81102D01*
X21084Y-81102D01*
X21160Y-81140D01*
X21198Y-81178D01*
X21237Y-81254D01*
X21237Y-81444D01*
X21198Y-81521D01*
X21160Y-81559D01*
X21084Y-81597D01*
X20856Y-81597D01*
X20779Y-81559D01*
X20741Y-81521D01*
X21960Y-80797D02*
X21579Y-80797D01*
X21541Y-81178D01*
X21579Y-81140D01*
X21656Y-81102D01*
X21846Y-81102D01*
X21922Y-81140D01*
X21960Y-81178D01*
X21999Y-81254D01*
X21999Y-81444D01*
X21960Y-81521D01*
X21922Y-81559D01*
X21846Y-81597D01*
X21656Y-81597D01*
X21579Y-81559D01*
X21541Y-81521D01*
X22303Y-80797D02*
X22303Y-80949D01*
X22608Y-80797D02*
X22608Y-80949D01*
X23790Y-81902D02*
X23752Y-81863D01*
X23676Y-81749D01*
X23638Y-81673D01*
X23600Y-81559D01*
X23561Y-81368D01*
X23561Y-81216D01*
X23600Y-81025D01*
X23638Y-80911D01*
X23676Y-80835D01*
X23752Y-80721D01*
X23790Y-80683D01*
X24209Y-81140D02*
X24133Y-81102D01*
X24094Y-81063D01*
X24056Y-80987D01*
X24056Y-80949D01*
X24094Y-80873D01*
X24133Y-80835D01*
X24209Y-80797D01*
X24361Y-80797D01*
X24437Y-80835D01*
X24475Y-80873D01*
X24514Y-80949D01*
X24514Y-80987D01*
X24475Y-81063D01*
X24437Y-81102D01*
X24361Y-81140D01*
X24209Y-81140D01*
X24133Y-81178D01*
X24094Y-81216D01*
X24056Y-81292D01*
X24056Y-81444D01*
X24094Y-81521D01*
X24133Y-81559D01*
X24209Y-81597D01*
X24361Y-81597D01*
X24437Y-81559D01*
X24475Y-81521D01*
X24514Y-81444D01*
X24514Y-81292D01*
X24475Y-81216D01*
X24437Y-81178D01*
X24361Y-81140D01*
X25466Y-81597D02*
X25466Y-80797D01*
X25809Y-81597D02*
X25809Y-81178D01*
X25771Y-81102D01*
X25695Y-81063D01*
X25581Y-81063D01*
X25505Y-81102D01*
X25466Y-81140D01*
X26305Y-81597D02*
X26229Y-81559D01*
X26190Y-81521D01*
X26152Y-81444D01*
X26152Y-81216D01*
X26190Y-81140D01*
X26229Y-81102D01*
X26305Y-81063D01*
X26419Y-81063D01*
X26495Y-81102D01*
X26533Y-81140D01*
X26571Y-81216D01*
X26571Y-81444D01*
X26533Y-81521D01*
X26495Y-81559D01*
X26419Y-81597D01*
X26305Y-81597D01*
X27029Y-81597D02*
X26953Y-81559D01*
X26914Y-81483D01*
X26914Y-80797D01*
X27638Y-81559D02*
X27562Y-81597D01*
X27410Y-81597D01*
X27333Y-81559D01*
X27295Y-81483D01*
X27295Y-81178D01*
X27333Y-81102D01*
X27410Y-81063D01*
X27562Y-81063D01*
X27638Y-81102D01*
X27676Y-81178D01*
X27676Y-81254D01*
X27295Y-81330D01*
X27981Y-81559D02*
X28058Y-81597D01*
X28210Y-81597D01*
X28286Y-81559D01*
X28324Y-81483D01*
X28324Y-81444D01*
X28286Y-81368D01*
X28210Y-81330D01*
X28096Y-81330D01*
X28019Y-81292D01*
X27981Y-81216D01*
X27981Y-81178D01*
X28019Y-81102D01*
X28096Y-81063D01*
X28210Y-81063D01*
X28286Y-81102D01*
X28591Y-81902D02*
X28629Y-81863D01*
X28706Y-81749D01*
X28744Y-81673D01*
X28782Y-81559D01*
X28820Y-81368D01*
X28820Y-81216D01*
X28782Y-81025D01*
X28744Y-80911D01*
X28706Y-80835D01*
X28629Y-80721D01*
X28591Y-80683D01*
X11466Y-82131D02*
X11466Y-82525D01*
X11663Y-82328D02*
X11269Y-82328D01*
X12473Y-82652D02*
X12015Y-82652D01*
X12244Y-82652D02*
X12244Y-81852D01*
X12168Y-81966D01*
X12092Y-82042D01*
X12015Y-82080D01*
X12815Y-82576D02*
X12854Y-82614D01*
X12815Y-82652D01*
X12777Y-82614D01*
X12815Y-82576D01*
X12815Y-82652D01*
X13349Y-81852D02*
X13425Y-81852D01*
X13501Y-81890D01*
X13539Y-81928D01*
X13577Y-82004D01*
X13616Y-82157D01*
X13616Y-82347D01*
X13577Y-82499D01*
X13539Y-82576D01*
X13501Y-82614D01*
X13425Y-82652D01*
X13349Y-82652D01*
X13273Y-82614D01*
X13235Y-82576D01*
X13196Y-82499D01*
X13158Y-82347D01*
X13158Y-82157D01*
X13196Y-82004D01*
X13235Y-81928D01*
X13273Y-81890D01*
X13349Y-81852D01*
X14111Y-81852D02*
X14187Y-81852D01*
X14263Y-81890D01*
X14301Y-81928D01*
X14339Y-82004D01*
X14378Y-82157D01*
X14378Y-82347D01*
X14339Y-82499D01*
X14301Y-82576D01*
X14263Y-82614D01*
X14187Y-82652D01*
X14111Y-82652D01*
X14035Y-82614D01*
X13997Y-82576D01*
X13958Y-82499D01*
X13920Y-82347D01*
X13920Y-82157D01*
X13958Y-82004D01*
X13997Y-81928D01*
X14035Y-81890D01*
X14111Y-81852D01*
X14720Y-82652D02*
X14720Y-82118D01*
X14720Y-82195D02*
X14759Y-82157D01*
X14835Y-82118D01*
X14949Y-82118D01*
X15025Y-82157D01*
X15063Y-82233D01*
X15063Y-82652D01*
X15063Y-82233D02*
X15101Y-82157D01*
X15178Y-82118D01*
X15292Y-82118D01*
X15368Y-82157D01*
X15406Y-82233D01*
X15406Y-82652D01*
X15787Y-82652D02*
X15787Y-82118D01*
X15787Y-82195D02*
X15826Y-82157D01*
X15902Y-82118D01*
X16016Y-82118D01*
X16092Y-82157D01*
X16130Y-82233D01*
X16130Y-82652D01*
X16130Y-82233D02*
X16168Y-82157D01*
X16245Y-82118D01*
X16359Y-82118D01*
X16435Y-82157D01*
X16473Y-82233D01*
X16473Y-82652D01*
X18036Y-81814D02*
X17350Y-82842D01*
X19065Y-81852D02*
X19141Y-81852D01*
X19217Y-81890D01*
X19255Y-81928D01*
X19293Y-82004D01*
X19332Y-82157D01*
X19332Y-82347D01*
X19293Y-82499D01*
X19255Y-82576D01*
X19217Y-82614D01*
X19141Y-82652D01*
X19065Y-82652D01*
X18989Y-82614D01*
X18951Y-82576D01*
X18912Y-82499D01*
X18874Y-82347D01*
X18874Y-82157D01*
X18912Y-82004D01*
X18951Y-81928D01*
X18989Y-81890D01*
X19065Y-81852D01*
X19674Y-82576D02*
X19713Y-82614D01*
X19674Y-82652D01*
X19636Y-82614D01*
X19674Y-82576D01*
X19674Y-82652D01*
X20208Y-81852D02*
X20284Y-81852D01*
X20360Y-81890D01*
X20398Y-81928D01*
X20436Y-82004D01*
X20475Y-82157D01*
X20475Y-82347D01*
X20436Y-82499D01*
X20398Y-82576D01*
X20360Y-82614D01*
X20284Y-82652D01*
X20208Y-82652D01*
X20132Y-82614D01*
X20094Y-82576D01*
X20055Y-82499D01*
X20017Y-82347D01*
X20017Y-82157D01*
X20055Y-82004D01*
X20094Y-81928D01*
X20132Y-81890D01*
X20208Y-81852D01*
X20741Y-81852D02*
X21237Y-81852D01*
X20970Y-82157D01*
X21084Y-82157D01*
X21160Y-82195D01*
X21198Y-82233D01*
X21237Y-82309D01*
X21237Y-82499D01*
X21198Y-82576D01*
X21160Y-82614D01*
X21084Y-82652D01*
X20856Y-82652D01*
X20779Y-82614D01*
X20741Y-82576D01*
X21618Y-82652D02*
X21770Y-82652D01*
X21846Y-82614D01*
X21884Y-82576D01*
X21960Y-82461D01*
X21999Y-82309D01*
X21999Y-82004D01*
X21960Y-81928D01*
X21922Y-81890D01*
X21846Y-81852D01*
X21694Y-81852D01*
X21618Y-81890D01*
X21579Y-81928D01*
X21541Y-82004D01*
X21541Y-82195D01*
X21579Y-82271D01*
X21618Y-82309D01*
X21694Y-82347D01*
X21846Y-82347D01*
X21922Y-82309D01*
X21960Y-82271D01*
X21999Y-82195D01*
X22303Y-81852D02*
X22303Y-82004D01*
X22608Y-81852D02*
X22608Y-82004D01*
X23790Y-82957D02*
X23752Y-82918D01*
X23676Y-82804D01*
X23638Y-82728D01*
X23600Y-82614D01*
X23561Y-82423D01*
X23561Y-82271D01*
X23600Y-82080D01*
X23638Y-81966D01*
X23676Y-81890D01*
X23752Y-81776D01*
X23790Y-81738D01*
X24437Y-82118D02*
X24437Y-82652D01*
X24247Y-81814D02*
X24056Y-82385D01*
X24552Y-82385D01*
X25466Y-82652D02*
X25466Y-81852D01*
X25809Y-82652D02*
X25809Y-82233D01*
X25771Y-82157D01*
X25695Y-82118D01*
X25581Y-82118D01*
X25505Y-82157D01*
X25466Y-82195D01*
X26305Y-82652D02*
X26229Y-82614D01*
X26190Y-82576D01*
X26152Y-82499D01*
X26152Y-82271D01*
X26190Y-82195D01*
X26229Y-82157D01*
X26305Y-82118D01*
X26419Y-82118D01*
X26495Y-82157D01*
X26533Y-82195D01*
X26571Y-82271D01*
X26571Y-82499D01*
X26533Y-82576D01*
X26495Y-82614D01*
X26419Y-82652D01*
X26305Y-82652D01*
X27029Y-82652D02*
X26953Y-82614D01*
X26914Y-82538D01*
X26914Y-81852D01*
X27638Y-82614D02*
X27562Y-82652D01*
X27410Y-82652D01*
X27333Y-82614D01*
X27295Y-82538D01*
X27295Y-82233D01*
X27333Y-82157D01*
X27410Y-82118D01*
X27562Y-82118D01*
X27638Y-82157D01*
X27676Y-82233D01*
X27676Y-82309D01*
X27295Y-82385D01*
X27981Y-82614D02*
X28058Y-82652D01*
X28210Y-82652D01*
X28286Y-82614D01*
X28324Y-82538D01*
X28324Y-82499D01*
X28286Y-82423D01*
X28210Y-82385D01*
X28096Y-82385D01*
X28019Y-82347D01*
X27981Y-82271D01*
X27981Y-82233D01*
X28019Y-82157D01*
X28096Y-82118D01*
X28210Y-82118D01*
X28286Y-82157D01*
X28591Y-82957D02*
X28629Y-82918D01*
X28706Y-82804D01*
X28744Y-82728D01*
X28782Y-82614D01*
X28820Y-82423D01*
X28820Y-82271D01*
X28782Y-82080D01*
X28744Y-81966D01*
X28706Y-81890D01*
X28629Y-81776D01*
X28591Y-81738D01*
G54D10*
X11663Y-83383D02*
X11659Y-83421D01*
X11647Y-83459D01*
X11629Y-83493D01*
X11604Y-83523D01*
X11574Y-83548D01*
X11540Y-83567D01*
X11503Y-83578D01*
X11464Y-83582D01*
X11426Y-83579D01*
X11389Y-83568D01*
X11354Y-83550D01*
X11324Y-83525D01*
X11298Y-83495D01*
X11280Y-83461D01*
X11268Y-83424D01*
X11264Y-83385D01*
X11267Y-83347D01*
X11278Y-83310D01*
X11295Y-83275D01*
X11320Y-83245D01*
X11349Y-83219D01*
X11383Y-83200D01*
X11421Y-83188D01*
X11459Y-83184D01*
X11497Y-83187D01*
X11535Y-83197D01*
X11570Y-83215D01*
X11600Y-83239D01*
X11626Y-83268D01*
X11645Y-83302D01*
X11658Y-83339D01*
X11662Y-83378D01*
X11663Y-83383D01*
X11263Y-83183D02*
X11663Y-83583D01*
X11663Y-83183D02*
X11263Y-83583D01*
G54D12*
X12473Y-83707D02*
X12015Y-83707D01*
X12244Y-83707D02*
X12244Y-82907D01*
X12168Y-83021D01*
X12092Y-83097D01*
X12015Y-83135D01*
X12815Y-83631D02*
X12854Y-83669D01*
X12815Y-83707D01*
X12777Y-83669D01*
X12815Y-83631D01*
X12815Y-83707D01*
X13349Y-82907D02*
X13425Y-82907D01*
X13501Y-82945D01*
X13539Y-82983D01*
X13577Y-83059D01*
X13616Y-83212D01*
X13616Y-83402D01*
X13577Y-83554D01*
X13539Y-83631D01*
X13501Y-83669D01*
X13425Y-83707D01*
X13349Y-83707D01*
X13273Y-83669D01*
X13235Y-83631D01*
X13196Y-83554D01*
X13158Y-83402D01*
X13158Y-83212D01*
X13196Y-83059D01*
X13235Y-82983D01*
X13273Y-82945D01*
X13349Y-82907D01*
X13920Y-82983D02*
X13958Y-82945D01*
X14035Y-82907D01*
X14225Y-82907D01*
X14301Y-82945D01*
X14339Y-82983D01*
X14378Y-83059D01*
X14378Y-83135D01*
X14339Y-83250D01*
X13882Y-83707D01*
X14378Y-83707D01*
X14720Y-83707D02*
X14720Y-83173D01*
X14720Y-83250D02*
X14759Y-83212D01*
X14835Y-83173D01*
X14949Y-83173D01*
X15025Y-83212D01*
X15063Y-83288D01*
X15063Y-83707D01*
X15063Y-83288D02*
X15101Y-83212D01*
X15178Y-83173D01*
X15292Y-83173D01*
X15368Y-83212D01*
X15406Y-83288D01*
X15406Y-83707D01*
X15787Y-83707D02*
X15787Y-83173D01*
X15787Y-83250D02*
X15826Y-83212D01*
X15902Y-83173D01*
X16016Y-83173D01*
X16092Y-83212D01*
X16130Y-83288D01*
X16130Y-83707D01*
X16130Y-83288D02*
X16168Y-83212D01*
X16245Y-83173D01*
X16359Y-83173D01*
X16435Y-83212D01*
X16473Y-83288D01*
X16473Y-83707D01*
X18036Y-82869D02*
X17350Y-83897D01*
X19065Y-82907D02*
X19141Y-82907D01*
X19217Y-82945D01*
X19255Y-82983D01*
X19293Y-83059D01*
X19332Y-83212D01*
X19332Y-83402D01*
X19293Y-83554D01*
X19255Y-83631D01*
X19217Y-83669D01*
X19141Y-83707D01*
X19065Y-83707D01*
X18989Y-83669D01*
X18951Y-83631D01*
X18912Y-83554D01*
X18874Y-83402D01*
X18874Y-83212D01*
X18912Y-83059D01*
X18951Y-82983D01*
X18989Y-82945D01*
X19065Y-82907D01*
X19674Y-83631D02*
X19713Y-83669D01*
X19674Y-83707D01*
X19636Y-83669D01*
X19674Y-83631D01*
X19674Y-83707D01*
X20208Y-82907D02*
X20284Y-82907D01*
X20360Y-82945D01*
X20398Y-82983D01*
X20436Y-83059D01*
X20475Y-83212D01*
X20475Y-83402D01*
X20436Y-83554D01*
X20398Y-83631D01*
X20360Y-83669D01*
X20284Y-83707D01*
X20208Y-83707D01*
X20132Y-83669D01*
X20094Y-83631D01*
X20055Y-83554D01*
X20017Y-83402D01*
X20017Y-83212D01*
X20055Y-83059D01*
X20094Y-82983D01*
X20132Y-82945D01*
X20208Y-82907D01*
X21160Y-83173D02*
X21160Y-83707D01*
X20970Y-82869D02*
X20779Y-83440D01*
X21275Y-83440D01*
X21732Y-82907D02*
X21808Y-82907D01*
X21884Y-82945D01*
X21922Y-82983D01*
X21960Y-83059D01*
X21999Y-83212D01*
X21999Y-83402D01*
X21960Y-83554D01*
X21922Y-83631D01*
X21884Y-83669D01*
X21808Y-83707D01*
X21732Y-83707D01*
X21656Y-83669D01*
X21618Y-83631D01*
X21579Y-83554D01*
X21541Y-83402D01*
X21541Y-83212D01*
X21579Y-83059D01*
X21618Y-82983D01*
X21656Y-82945D01*
X21732Y-82907D01*
X22303Y-82907D02*
X22303Y-83059D01*
X22608Y-82907D02*
X22608Y-83059D01*
X23790Y-84012D02*
X23752Y-83973D01*
X23676Y-83859D01*
X23638Y-83783D01*
X23600Y-83669D01*
X23561Y-83478D01*
X23561Y-83326D01*
X23600Y-83135D01*
X23638Y-83021D01*
X23676Y-82945D01*
X23752Y-82831D01*
X23790Y-82793D01*
X24437Y-83173D02*
X24437Y-83707D01*
X24247Y-82869D02*
X24056Y-83440D01*
X24552Y-83440D01*
X25199Y-82907D02*
X25047Y-82907D01*
X24971Y-82945D01*
X24933Y-82983D01*
X24856Y-83097D01*
X24818Y-83250D01*
X24818Y-83554D01*
X24856Y-83631D01*
X24895Y-83669D01*
X24971Y-83707D01*
X25123Y-83707D01*
X25199Y-83669D01*
X25237Y-83631D01*
X25276Y-83554D01*
X25276Y-83364D01*
X25237Y-83288D01*
X25199Y-83250D01*
X25123Y-83212D01*
X24971Y-83212D01*
X24895Y-83250D01*
X24856Y-83288D01*
X24818Y-83364D01*
X26228Y-83707D02*
X26228Y-82907D01*
X26571Y-83707D02*
X26571Y-83288D01*
X26533Y-83212D01*
X26457Y-83173D01*
X26343Y-83173D01*
X26267Y-83212D01*
X26228Y-83250D01*
X27067Y-83707D02*
X26991Y-83669D01*
X26952Y-83631D01*
X26914Y-83554D01*
X26914Y-83326D01*
X26952Y-83250D01*
X26991Y-83212D01*
X27067Y-83173D01*
X27181Y-83173D01*
X27257Y-83212D01*
X27295Y-83250D01*
X27333Y-83326D01*
X27333Y-83554D01*
X27295Y-83631D01*
X27257Y-83669D01*
X27181Y-83707D01*
X27067Y-83707D01*
X27791Y-83707D02*
X27715Y-83669D01*
X27676Y-83593D01*
X27676Y-82907D01*
X28400Y-83669D02*
X28324Y-83707D01*
X28172Y-83707D01*
X28095Y-83669D01*
X28057Y-83593D01*
X28057Y-83288D01*
X28095Y-83212D01*
X28172Y-83173D01*
X28324Y-83173D01*
X28400Y-83212D01*
X28438Y-83288D01*
X28438Y-83364D01*
X28057Y-83440D01*
X28743Y-83669D02*
X28820Y-83707D01*
X28972Y-83707D01*
X29048Y-83669D01*
X29086Y-83593D01*
X29086Y-83554D01*
X29048Y-83478D01*
X28972Y-83440D01*
X28858Y-83440D01*
X28781Y-83402D01*
X28743Y-83326D01*
X28743Y-83288D01*
X28781Y-83212D01*
X28858Y-83173D01*
X28972Y-83173D01*
X29048Y-83212D01*
X29353Y-84012D02*
X29391Y-83973D01*
X29468Y-83859D01*
X29506Y-83783D01*
X29544Y-83669D01*
X29582Y-83478D01*
X29582Y-83326D01*
X29544Y-83135D01*
X29506Y-83021D01*
X29468Y-82945D01*
X29391Y-82831D01*
X29353Y-82793D01*
G54D10*
X11663Y-84438D02*
X11658Y-84488D01*
X11643Y-84537D01*
X11619Y-84581D01*
X11587Y-84621D01*
X11548Y-84653D01*
X11503Y-84677D01*
X11455Y-84692D01*
X11404Y-84697D01*
X11355Y-84693D01*
X11306Y-84679D01*
X11261Y-84655D01*
X11222Y-84623D01*
X11189Y-84584D01*
X11165Y-84540D01*
X11149Y-84492D01*
X11144Y-84441D01*
X11148Y-84392D01*
X11162Y-84343D01*
X11185Y-84298D01*
X11216Y-84258D01*
X11255Y-84225D01*
X11299Y-84200D01*
X11348Y-84185D01*
X11398Y-84179D01*
X11448Y-84182D01*
X11497Y-84196D01*
X11542Y-84219D01*
X11582Y-84250D01*
X11615Y-84289D01*
X11640Y-84333D01*
X11656Y-84381D01*
X11662Y-84431D01*
X11663Y-84438D01*
X11143Y-84438D02*
X11663Y-84438D01*
G54D12*
X12473Y-84762D02*
X12015Y-84762D01*
X12244Y-84762D02*
X12244Y-83962D01*
X12168Y-84076D01*
X12092Y-84152D01*
X12015Y-84190D01*
X12815Y-84686D02*
X12854Y-84724D01*
X12815Y-84762D01*
X12777Y-84724D01*
X12815Y-84686D01*
X12815Y-84762D01*
X13120Y-83962D02*
X13616Y-83962D01*
X13349Y-84267D01*
X13463Y-84267D01*
X13539Y-84305D01*
X13577Y-84343D01*
X13616Y-84419D01*
X13616Y-84609D01*
X13577Y-84686D01*
X13539Y-84724D01*
X13463Y-84762D01*
X13235Y-84762D01*
X13158Y-84724D01*
X13120Y-84686D01*
X13920Y-84038D02*
X13958Y-84000D01*
X14035Y-83962D01*
X14225Y-83962D01*
X14301Y-84000D01*
X14339Y-84038D01*
X14378Y-84114D01*
X14378Y-84190D01*
X14339Y-84305D01*
X13882Y-84762D01*
X14378Y-84762D01*
X14720Y-84762D02*
X14720Y-84228D01*
X14720Y-84305D02*
X14759Y-84267D01*
X14835Y-84228D01*
X14949Y-84228D01*
X15025Y-84267D01*
X15063Y-84343D01*
X15063Y-84762D01*
X15063Y-84343D02*
X15101Y-84267D01*
X15178Y-84228D01*
X15292Y-84228D01*
X15368Y-84267D01*
X15406Y-84343D01*
X15406Y-84762D01*
X15787Y-84762D02*
X15787Y-84228D01*
X15787Y-84305D02*
X15826Y-84267D01*
X15902Y-84228D01*
X16016Y-84228D01*
X16092Y-84267D01*
X16130Y-84343D01*
X16130Y-84762D01*
X16130Y-84343D02*
X16168Y-84267D01*
X16245Y-84228D01*
X16359Y-84228D01*
X16435Y-84267D01*
X16473Y-84343D01*
X16473Y-84762D01*
X18036Y-83924D02*
X17350Y-84952D01*
X19065Y-83962D02*
X19141Y-83962D01*
X19217Y-84000D01*
X19255Y-84038D01*
X19293Y-84114D01*
X19332Y-84267D01*
X19332Y-84457D01*
X19293Y-84609D01*
X19255Y-84686D01*
X19217Y-84724D01*
X19141Y-84762D01*
X19065Y-84762D01*
X18989Y-84724D01*
X18951Y-84686D01*
X18912Y-84609D01*
X18874Y-84457D01*
X18874Y-84267D01*
X18912Y-84114D01*
X18951Y-84038D01*
X18989Y-84000D01*
X19065Y-83962D01*
X19674Y-84686D02*
X19713Y-84724D01*
X19674Y-84762D01*
X19636Y-84724D01*
X19674Y-84686D01*
X19674Y-84762D01*
X20208Y-83962D02*
X20284Y-83962D01*
X20360Y-84000D01*
X20398Y-84038D01*
X20436Y-84114D01*
X20475Y-84267D01*
X20475Y-84457D01*
X20436Y-84609D01*
X20398Y-84686D01*
X20360Y-84724D01*
X20284Y-84762D01*
X20208Y-84762D01*
X20132Y-84724D01*
X20094Y-84686D01*
X20055Y-84609D01*
X20017Y-84457D01*
X20017Y-84267D01*
X20055Y-84114D01*
X20094Y-84038D01*
X20132Y-84000D01*
X20208Y-83962D01*
X21198Y-83962D02*
X20817Y-83962D01*
X20779Y-84343D01*
X20817Y-84305D01*
X20894Y-84267D01*
X21084Y-84267D01*
X21160Y-84305D01*
X21198Y-84343D01*
X21237Y-84419D01*
X21237Y-84609D01*
X21198Y-84686D01*
X21160Y-84724D01*
X21084Y-84762D01*
X20894Y-84762D01*
X20817Y-84724D01*
X20779Y-84686D01*
X21541Y-84038D02*
X21579Y-84000D01*
X21656Y-83962D01*
X21846Y-83962D01*
X21922Y-84000D01*
X21960Y-84038D01*
X21999Y-84114D01*
X21999Y-84190D01*
X21960Y-84305D01*
X21503Y-84762D01*
X21999Y-84762D01*
X22303Y-83962D02*
X22303Y-84114D01*
X22608Y-83962D02*
X22608Y-84114D01*
X23790Y-85067D02*
X23752Y-85028D01*
X23676Y-84914D01*
X23638Y-84838D01*
X23600Y-84724D01*
X23561Y-84533D01*
X23561Y-84381D01*
X23600Y-84190D01*
X23638Y-84076D01*
X23676Y-84000D01*
X23752Y-83886D01*
X23790Y-83848D01*
X24056Y-84038D02*
X24094Y-84000D01*
X24171Y-83962D01*
X24361Y-83962D01*
X24437Y-84000D01*
X24475Y-84038D01*
X24514Y-84114D01*
X24514Y-84190D01*
X24475Y-84305D01*
X24018Y-84762D01*
X24514Y-84762D01*
X25466Y-84762D02*
X25466Y-83962D01*
X25809Y-84762D02*
X25809Y-84343D01*
X25771Y-84267D01*
X25695Y-84228D01*
X25581Y-84228D01*
X25505Y-84267D01*
X25466Y-84305D01*
X26305Y-84762D02*
X26229Y-84724D01*
X26190Y-84686D01*
X26152Y-84609D01*
X26152Y-84381D01*
X26190Y-84305D01*
X26229Y-84267D01*
X26305Y-84228D01*
X26419Y-84228D01*
X26495Y-84267D01*
X26533Y-84305D01*
X26571Y-84381D01*
X26571Y-84609D01*
X26533Y-84686D01*
X26495Y-84724D01*
X26419Y-84762D01*
X26305Y-84762D01*
X27029Y-84762D02*
X26953Y-84724D01*
X26914Y-84648D01*
X26914Y-83962D01*
X27638Y-84724D02*
X27562Y-84762D01*
X27410Y-84762D01*
X27333Y-84724D01*
X27295Y-84648D01*
X27295Y-84343D01*
X27333Y-84267D01*
X27410Y-84228D01*
X27562Y-84228D01*
X27638Y-84267D01*
X27676Y-84343D01*
X27676Y-84419D01*
X27295Y-84495D01*
X27981Y-84724D02*
X28058Y-84762D01*
X28210Y-84762D01*
X28286Y-84724D01*
X28324Y-84648D01*
X28324Y-84609D01*
X28286Y-84533D01*
X28210Y-84495D01*
X28096Y-84495D01*
X28019Y-84457D01*
X27981Y-84381D01*
X27981Y-84343D01*
X28019Y-84267D01*
X28096Y-84228D01*
X28210Y-84228D01*
X28286Y-84267D01*
X28591Y-85067D02*
X28629Y-85028D01*
X28706Y-84914D01*
X28744Y-84838D01*
X28782Y-84724D01*
X28820Y-84533D01*
X28820Y-84381D01*
X28782Y-84190D01*
X28744Y-84076D01*
X28706Y-84000D01*
X28629Y-83886D01*
X28591Y-83848D01*
G54D10*
X11663Y-85493D02*
X11657Y-85554D01*
X11639Y-85613D01*
X11610Y-85667D01*
X11571Y-85714D01*
X11524Y-85754D01*
X11470Y-85783D01*
X11411Y-85801D01*
X11350Y-85807D01*
X11289Y-85802D01*
X11230Y-85785D01*
X11176Y-85756D01*
X11128Y-85718D01*
X11089Y-85670D01*
X11059Y-85617D01*
X11040Y-85558D01*
X11034Y-85497D01*
X11039Y-85437D01*
X11056Y-85378D01*
X11084Y-85323D01*
X11122Y-85275D01*
X11169Y-85235D01*
X11222Y-85205D01*
X11281Y-85186D01*
X11342Y-85179D01*
X11402Y-85183D01*
X11461Y-85200D01*
X11516Y-85228D01*
X11565Y-85265D01*
X11605Y-85312D01*
X11635Y-85365D01*
X11655Y-85424D01*
X11662Y-85485D01*
X11663Y-85493D01*
X11348Y-85178D02*
X11348Y-85808D01*
G54D12*
X12473Y-85817D02*
X12015Y-85817D01*
X12244Y-85817D02*
X12244Y-85017D01*
X12168Y-85131D01*
X12092Y-85207D01*
X12015Y-85245D01*
X12815Y-85741D02*
X12854Y-85779D01*
X12815Y-85817D01*
X12777Y-85779D01*
X12815Y-85741D01*
X12815Y-85817D01*
X13539Y-85017D02*
X13387Y-85017D01*
X13311Y-85055D01*
X13273Y-85093D01*
X13196Y-85207D01*
X13158Y-85360D01*
X13158Y-85664D01*
X13196Y-85741D01*
X13235Y-85779D01*
X13311Y-85817D01*
X13463Y-85817D01*
X13539Y-85779D01*
X13577Y-85741D01*
X13616Y-85664D01*
X13616Y-85474D01*
X13577Y-85398D01*
X13539Y-85360D01*
X13463Y-85322D01*
X13311Y-85322D01*
X13235Y-85360D01*
X13196Y-85398D01*
X13158Y-85474D01*
X14111Y-85017D02*
X14187Y-85017D01*
X14263Y-85055D01*
X14301Y-85093D01*
X14339Y-85169D01*
X14378Y-85322D01*
X14378Y-85512D01*
X14339Y-85664D01*
X14301Y-85741D01*
X14263Y-85779D01*
X14187Y-85817D01*
X14111Y-85817D01*
X14035Y-85779D01*
X13997Y-85741D01*
X13958Y-85664D01*
X13920Y-85512D01*
X13920Y-85322D01*
X13958Y-85169D01*
X13997Y-85093D01*
X14035Y-85055D01*
X14111Y-85017D01*
X14720Y-85817D02*
X14720Y-85283D01*
X14720Y-85360D02*
X14759Y-85322D01*
X14835Y-85283D01*
X14949Y-85283D01*
X15025Y-85322D01*
X15063Y-85398D01*
X15063Y-85817D01*
X15063Y-85398D02*
X15101Y-85322D01*
X15178Y-85283D01*
X15292Y-85283D01*
X15368Y-85322D01*
X15406Y-85398D01*
X15406Y-85817D01*
X15787Y-85817D02*
X15787Y-85283D01*
X15787Y-85360D02*
X15826Y-85322D01*
X15902Y-85283D01*
X16016Y-85283D01*
X16092Y-85322D01*
X16130Y-85398D01*
X16130Y-85817D01*
X16130Y-85398D02*
X16168Y-85322D01*
X16245Y-85283D01*
X16359Y-85283D01*
X16435Y-85322D01*
X16473Y-85398D01*
X16473Y-85817D01*
X18036Y-84979D02*
X17350Y-86007D01*
X19065Y-85017D02*
X19141Y-85017D01*
X19217Y-85055D01*
X19255Y-85093D01*
X19293Y-85169D01*
X19332Y-85322D01*
X19332Y-85512D01*
X19293Y-85664D01*
X19255Y-85741D01*
X19217Y-85779D01*
X19141Y-85817D01*
X19065Y-85817D01*
X18989Y-85779D01*
X18951Y-85741D01*
X18912Y-85664D01*
X18874Y-85512D01*
X18874Y-85322D01*
X18912Y-85169D01*
X18951Y-85093D01*
X18989Y-85055D01*
X19065Y-85017D01*
X19674Y-85741D02*
X19713Y-85779D01*
X19674Y-85817D01*
X19636Y-85779D01*
X19674Y-85741D01*
X19674Y-85817D01*
X20208Y-85017D02*
X20284Y-85017D01*
X20360Y-85055D01*
X20398Y-85093D01*
X20436Y-85169D01*
X20475Y-85322D01*
X20475Y-85512D01*
X20436Y-85664D01*
X20398Y-85741D01*
X20360Y-85779D01*
X20284Y-85817D01*
X20208Y-85817D01*
X20132Y-85779D01*
X20094Y-85741D01*
X20055Y-85664D01*
X20017Y-85512D01*
X20017Y-85322D01*
X20055Y-85169D01*
X20094Y-85093D01*
X20132Y-85055D01*
X20208Y-85017D01*
X21160Y-85017D02*
X21008Y-85017D01*
X20932Y-85055D01*
X20894Y-85093D01*
X20817Y-85207D01*
X20779Y-85360D01*
X20779Y-85664D01*
X20817Y-85741D01*
X20856Y-85779D01*
X20932Y-85817D01*
X21084Y-85817D01*
X21160Y-85779D01*
X21198Y-85741D01*
X21237Y-85664D01*
X21237Y-85474D01*
X21198Y-85398D01*
X21160Y-85360D01*
X21084Y-85322D01*
X20932Y-85322D01*
X20856Y-85360D01*
X20817Y-85398D01*
X20779Y-85474D01*
X21503Y-85017D02*
X21999Y-85017D01*
X21732Y-85322D01*
X21846Y-85322D01*
X21922Y-85360D01*
X21960Y-85398D01*
X21999Y-85474D01*
X21999Y-85664D01*
X21960Y-85741D01*
X21922Y-85779D01*
X21846Y-85817D01*
X21618Y-85817D01*
X21541Y-85779D01*
X21503Y-85741D01*
X22303Y-85017D02*
X22303Y-85169D01*
X22608Y-85017D02*
X22608Y-85169D01*
X23790Y-86122D02*
X23752Y-86083D01*
X23676Y-85969D01*
X23638Y-85893D01*
X23600Y-85779D01*
X23561Y-85588D01*
X23561Y-85436D01*
X23600Y-85245D01*
X23638Y-85131D01*
X23676Y-85055D01*
X23752Y-84941D01*
X23790Y-84903D01*
X24056Y-85093D02*
X24094Y-85055D01*
X24171Y-85017D01*
X24361Y-85017D01*
X24437Y-85055D01*
X24475Y-85093D01*
X24514Y-85169D01*
X24514Y-85245D01*
X24475Y-85360D01*
X24018Y-85817D01*
X24514Y-85817D01*
X25466Y-85817D02*
X25466Y-85017D01*
X25809Y-85817D02*
X25809Y-85398D01*
X25771Y-85322D01*
X25695Y-85283D01*
X25581Y-85283D01*
X25505Y-85322D01*
X25466Y-85360D01*
X26305Y-85817D02*
X26229Y-85779D01*
X26190Y-85741D01*
X26152Y-85664D01*
X26152Y-85436D01*
X26190Y-85360D01*
X26229Y-85322D01*
X26305Y-85283D01*
X26419Y-85283D01*
X26495Y-85322D01*
X26533Y-85360D01*
X26571Y-85436D01*
X26571Y-85664D01*
X26533Y-85741D01*
X26495Y-85779D01*
X26419Y-85817D01*
X26305Y-85817D01*
X27029Y-85817D02*
X26953Y-85779D01*
X26914Y-85703D01*
X26914Y-85017D01*
X27638Y-85779D02*
X27562Y-85817D01*
X27410Y-85817D01*
X27333Y-85779D01*
X27295Y-85703D01*
X27295Y-85398D01*
X27333Y-85322D01*
X27410Y-85283D01*
X27562Y-85283D01*
X27638Y-85322D01*
X27676Y-85398D01*
X27676Y-85474D01*
X27295Y-85550D01*
X27981Y-85779D02*
X28058Y-85817D01*
X28210Y-85817D01*
X28286Y-85779D01*
X28324Y-85703D01*
X28324Y-85664D01*
X28286Y-85588D01*
X28210Y-85550D01*
X28096Y-85550D01*
X28019Y-85512D01*
X27981Y-85436D01*
X27981Y-85398D01*
X28019Y-85322D01*
X28096Y-85283D01*
X28210Y-85283D01*
X28286Y-85322D01*
X28591Y-86122D02*
X28629Y-86083D01*
X28706Y-85969D01*
X28744Y-85893D01*
X28782Y-85779D01*
X28820Y-85588D01*
X28820Y-85436D01*
X28782Y-85245D01*
X28744Y-85131D01*
X28706Y-85055D01*
X28629Y-84941D01*
X28591Y-84903D01*
G54D10*
X11476Y-87001D02*
X11476Y-86095D01*
X10570Y-86095D01*
X10570Y-87001D01*
X11476Y-87001D01*
G54D12*
X11977Y-86072D02*
X12473Y-86072D01*
X12206Y-86377D01*
X12320Y-86377D01*
X12396Y-86415D01*
X12434Y-86453D01*
X12473Y-86529D01*
X12473Y-86719D01*
X12434Y-86796D01*
X12396Y-86834D01*
X12320Y-86872D01*
X12092Y-86872D01*
X12015Y-86834D01*
X11977Y-86796D01*
X12815Y-86796D02*
X12854Y-86834D01*
X12815Y-86872D01*
X12777Y-86834D01*
X12815Y-86796D01*
X12815Y-86872D01*
X13158Y-86148D02*
X13196Y-86110D01*
X13273Y-86072D01*
X13463Y-86072D01*
X13539Y-86110D01*
X13577Y-86148D01*
X13616Y-86224D01*
X13616Y-86300D01*
X13577Y-86415D01*
X13120Y-86872D01*
X13616Y-86872D01*
X14339Y-86072D02*
X13958Y-86072D01*
X13920Y-86453D01*
X13958Y-86415D01*
X14035Y-86377D01*
X14225Y-86377D01*
X14301Y-86415D01*
X14339Y-86453D01*
X14378Y-86529D01*
X14378Y-86719D01*
X14339Y-86796D01*
X14301Y-86834D01*
X14225Y-86872D01*
X14035Y-86872D01*
X13958Y-86834D01*
X13920Y-86796D01*
X14720Y-86872D02*
X14720Y-86338D01*
X14720Y-86415D02*
X14759Y-86377D01*
X14835Y-86338D01*
X14949Y-86338D01*
X15025Y-86377D01*
X15063Y-86453D01*
X15063Y-86872D01*
X15063Y-86453D02*
X15101Y-86377D01*
X15178Y-86338D01*
X15292Y-86338D01*
X15368Y-86377D01*
X15406Y-86453D01*
X15406Y-86872D01*
X15787Y-86872D02*
X15787Y-86338D01*
X15787Y-86415D02*
X15826Y-86377D01*
X15902Y-86338D01*
X16016Y-86338D01*
X16092Y-86377D01*
X16130Y-86453D01*
X16130Y-86872D01*
X16130Y-86453D02*
X16168Y-86377D01*
X16245Y-86338D01*
X16359Y-86338D01*
X16435Y-86377D01*
X16473Y-86453D01*
X16473Y-86872D01*
X18036Y-86034D02*
X17350Y-87062D01*
X19065Y-86072D02*
X19141Y-86072D01*
X19217Y-86110D01*
X19255Y-86148D01*
X19293Y-86224D01*
X19332Y-86377D01*
X19332Y-86567D01*
X19293Y-86719D01*
X19255Y-86796D01*
X19217Y-86834D01*
X19141Y-86872D01*
X19065Y-86872D01*
X18989Y-86834D01*
X18951Y-86796D01*
X18912Y-86719D01*
X18874Y-86567D01*
X18874Y-86377D01*
X18912Y-86224D01*
X18951Y-86148D01*
X18989Y-86110D01*
X19065Y-86072D01*
X19674Y-86796D02*
X19713Y-86834D01*
X19674Y-86872D01*
X19636Y-86834D01*
X19674Y-86796D01*
X19674Y-86872D01*
X20475Y-86872D02*
X20017Y-86872D01*
X20246Y-86872D02*
X20246Y-86072D01*
X20170Y-86186D01*
X20094Y-86262D01*
X20017Y-86300D01*
X20779Y-86148D02*
X20817Y-86110D01*
X20894Y-86072D01*
X21084Y-86072D01*
X21160Y-86110D01*
X21198Y-86148D01*
X21237Y-86224D01*
X21237Y-86300D01*
X21198Y-86415D01*
X20741Y-86872D01*
X21237Y-86872D01*
X21694Y-86415D02*
X21618Y-86377D01*
X21579Y-86338D01*
X21541Y-86262D01*
X21541Y-86224D01*
X21579Y-86148D01*
X21618Y-86110D01*
X21694Y-86072D01*
X21846Y-86072D01*
X21922Y-86110D01*
X21960Y-86148D01*
X21999Y-86224D01*
X21999Y-86262D01*
X21960Y-86338D01*
X21922Y-86377D01*
X21846Y-86415D01*
X21694Y-86415D01*
X21618Y-86453D01*
X21579Y-86491D01*
X21541Y-86567D01*
X21541Y-86719D01*
X21579Y-86796D01*
X21618Y-86834D01*
X21694Y-86872D01*
X21846Y-86872D01*
X21922Y-86834D01*
X21960Y-86796D01*
X21999Y-86719D01*
X21999Y-86567D01*
X21960Y-86491D01*
X21922Y-86453D01*
X21846Y-86415D01*
X22303Y-86072D02*
X22303Y-86224D01*
X22608Y-86072D02*
X22608Y-86224D01*
X23790Y-87177D02*
X23752Y-87138D01*
X23676Y-87024D01*
X23638Y-86948D01*
X23600Y-86834D01*
X23561Y-86643D01*
X23561Y-86491D01*
X23600Y-86300D01*
X23638Y-86186D01*
X23676Y-86110D01*
X23752Y-85996D01*
X23790Y-85958D01*
X24056Y-86148D02*
X24094Y-86110D01*
X24171Y-86072D01*
X24361Y-86072D01*
X24437Y-86110D01*
X24475Y-86148D01*
X24514Y-86224D01*
X24514Y-86300D01*
X24475Y-86415D01*
X24018Y-86872D01*
X24514Y-86872D01*
X25466Y-86872D02*
X25466Y-86072D01*
X25809Y-86872D02*
X25809Y-86453D01*
X25771Y-86377D01*
X25695Y-86338D01*
X25581Y-86338D01*
X25505Y-86377D01*
X25466Y-86415D01*
X26305Y-86872D02*
X26229Y-86834D01*
X26190Y-86796D01*
X26152Y-86719D01*
X26152Y-86491D01*
X26190Y-86415D01*
X26229Y-86377D01*
X26305Y-86338D01*
X26419Y-86338D01*
X26495Y-86377D01*
X26533Y-86415D01*
X26571Y-86491D01*
X26571Y-86719D01*
X26533Y-86796D01*
X26495Y-86834D01*
X26419Y-86872D01*
X26305Y-86872D01*
X27029Y-86872D02*
X26953Y-86834D01*
X26914Y-86758D01*
X26914Y-86072D01*
X27638Y-86834D02*
X27562Y-86872D01*
X27410Y-86872D01*
X27333Y-86834D01*
X27295Y-86758D01*
X27295Y-86453D01*
X27333Y-86377D01*
X27410Y-86338D01*
X27562Y-86338D01*
X27638Y-86377D01*
X27676Y-86453D01*
X27676Y-86529D01*
X27295Y-86605D01*
X27981Y-86834D02*
X28058Y-86872D01*
X28210Y-86872D01*
X28286Y-86834D01*
X28324Y-86758D01*
X28324Y-86719D01*
X28286Y-86643D01*
X28210Y-86605D01*
X28096Y-86605D01*
X28019Y-86567D01*
X27981Y-86491D01*
X27981Y-86453D01*
X28019Y-86377D01*
X28096Y-86338D01*
X28210Y-86338D01*
X28286Y-86377D01*
X28591Y-87177D02*
X28629Y-87138D01*
X28706Y-87024D01*
X28744Y-86948D01*
X28782Y-86834D01*
X28820Y-86643D01*
X28820Y-86491D01*
X28782Y-86300D01*
X28744Y-86186D01*
X28706Y-86110D01*
X28629Y-85996D01*
X28591Y-85958D01*
M02*
