M48
;DRILL file {Pcbnew (2013-mar-13)-testing} date jeu. 09 mai 2013 09:48:43 CEST
;FORMAT={-:-/ absolute / inch / decimal}
FMAT,2
INCH,TZ
T1C0.025
T2C0.032
T3C0.035
T4C0.040
T5C0.059
%
G90
G05
M72
T1
X4.274Y-4.038
X5.16Y-3.95
X5.205Y-3.99
X5.25Y-3.045
X5.25Y-3.16
X5.25Y-3.275
X5.25Y-3.385
X5.265Y-4.01
X5.325Y-4.045
X5.39Y-4.465
X5.395Y-4.065
X5.43Y-4.5
X5.44Y-3.75
X5.52Y-3.855
X6.07Y-4.52
X6.285Y-4.49
X6.505Y-4.465
X6.725Y-4.44
X6.945Y-4.42
T2
X5.Y-3.605
X5.005Y-3.875
X5.1Y-3.605
X5.105Y-3.875
X5.605Y-4.22
X5.605Y-4.32
X5.615Y-3.135
X5.615Y-3.235
X5.845Y-3.135
X5.845Y-3.235
X5.845Y-4.22
X5.845Y-4.32
X6.065Y-3.135
X6.065Y-3.235
X6.065Y-4.22
X6.065Y-4.32
X6.285Y-3.135
X6.285Y-3.235
X6.285Y-4.22
X6.285Y-4.32
X6.505Y-3.135
X6.505Y-3.235
X6.505Y-4.22
X6.505Y-4.32
X6.725Y-3.135
X6.725Y-3.235
X6.725Y-4.22
X6.725Y-4.32
X6.945Y-3.135
X6.945Y-3.235
X6.945Y-4.22
X6.945Y-4.32
X7.165Y-3.135
X7.165Y-3.235
X7.165Y-4.22
X7.165Y-4.32
T3
X4.0213Y-3.23
X4.1Y-3.23
X4.1787Y-3.23
X5.615Y-3.5463
X5.615Y-3.625
X5.615Y-3.7037
X5.845Y-3.5463
X5.845Y-3.625
X5.845Y-3.7037
X6.065Y-3.5463
X6.065Y-3.625
X6.065Y-3.7037
X6.285Y-3.5463
X6.285Y-3.625
X6.285Y-3.7037
X6.505Y-3.5463
X6.505Y-3.625
X6.505Y-3.7037
X6.725Y-3.5463
X6.725Y-3.625
X6.725Y-3.7037
X6.945Y-3.5463
X6.945Y-3.625
X6.945Y-3.7037
X7.165Y-3.5463
X7.165Y-3.625
X7.165Y-3.7037
T4
X3.97Y-3.695
X3.97Y-3.795
X4.07Y-3.695
X4.07Y-3.795
X4.17Y-3.695
X4.17Y-3.795
X4.27Y-3.695
X4.27Y-3.795
X4.37Y-3.695
X4.37Y-3.795
X4.47Y-3.695
X4.47Y-3.795
X4.57Y-3.695
X4.57Y-3.795
X4.67Y-3.695
X4.67Y-3.795
X4.77Y-3.695
X4.77Y-3.795
X4.87Y-3.695
X4.87Y-3.795
T5
X3.9386Y-3.23
X4.2614Y-3.23
X5.615Y-3.4636
X5.615Y-3.7864
X5.845Y-3.4636
X5.845Y-3.7864
X6.065Y-3.4636
X6.065Y-3.7864
X6.285Y-3.4636
X6.285Y-3.7864
X6.505Y-3.4636
X6.505Y-3.7864
X6.725Y-3.4636
X6.725Y-3.7864
X6.945Y-3.4636
X6.945Y-3.7864
X7.165Y-3.4636
X7.165Y-3.7864
T0
M30
