G04 (created by PCBNEW (2013-mar-13)-testing) date jeu. 09 mai 2013 09:48:41 CEST*
%MOIN*%
G04 Gerber Fmt 3.4, Leading zero omitted, Abs format*
%FSLAX34Y34*%
G01*
G70*
G90*
G04 APERTURE LIST*
%ADD10C,0.006*%
%ADD11C,0.00590551*%
%ADD12R,0.0787402X0.03*%
%ADD13R,0.06X0.08*%
%ADD14R,0.06X0.06*%
%ADD15C,0.06*%
%ADD16C,0.05*%
%ADD17C,0.0787402*%
%ADD18C,0.066*%
G04 APERTURE END LIST*
G54D10*
G54D11*
X73400Y-29100D02*
X73400Y-45650D01*
X34000Y-29100D02*
X34000Y-45600D01*
X34000Y-29100D02*
X73400Y-29100D01*
X34000Y-45650D02*
X34000Y-45600D01*
X73400Y-45650D02*
X34000Y-45650D01*
X34000Y-45800D02*
G75*
G03X34000Y-45800I0J0D01*
G74*
G01*
X33999Y-45800D02*
X34000Y-45800D01*
X34000Y-45799D02*
X34000Y-45800D01*
G54D12*
X44349Y-34400D03*
X44350Y-33900D03*
X44350Y-33400D03*
X44350Y-32900D03*
X44350Y-32400D03*
X44350Y-31900D03*
X44350Y-31400D03*
X44350Y-30900D03*
X44350Y-30400D03*
X48050Y-30400D03*
X48050Y-30900D03*
X48050Y-31400D03*
X48050Y-34400D03*
X48050Y-33900D03*
X48050Y-33400D03*
X48050Y-32900D03*
X48050Y-32400D03*
X48050Y-31900D03*
X41924Y-44375D03*
X41925Y-43875D03*
X41925Y-43375D03*
X41925Y-42875D03*
X41925Y-42375D03*
X41925Y-41875D03*
X41925Y-41375D03*
X41925Y-40875D03*
X41925Y-40375D03*
X45625Y-40375D03*
X45625Y-40875D03*
X45625Y-41375D03*
X45625Y-44375D03*
X45625Y-43875D03*
X45625Y-43375D03*
X45625Y-42875D03*
X45625Y-42375D03*
X45625Y-41875D03*
G54D13*
X49650Y-33300D03*
X50950Y-33300D03*
X47025Y-44375D03*
X48325Y-44375D03*
X47025Y-43225D03*
X48325Y-43225D03*
X47025Y-42075D03*
X48325Y-42075D03*
X51850Y-33875D03*
X53150Y-33875D03*
X51850Y-32725D03*
X53150Y-32725D03*
X51850Y-31575D03*
X53150Y-31575D03*
X51850Y-30425D03*
X53150Y-30425D03*
X49650Y-31000D03*
X50950Y-31000D03*
X49650Y-32150D03*
X50950Y-32150D03*
X49650Y-34450D03*
X50950Y-34450D03*
X47025Y-40925D03*
X48325Y-40925D03*
X49175Y-40350D03*
X50475Y-40350D03*
X49175Y-41500D03*
X50475Y-41500D03*
X49175Y-42650D03*
X50475Y-42650D03*
X49175Y-43800D03*
X50475Y-43800D03*
X53650Y-36850D03*
X52350Y-36850D03*
X53650Y-37850D03*
X52350Y-37850D03*
G54D14*
X39700Y-36950D03*
G54D15*
X39700Y-37950D03*
X40700Y-36950D03*
X40700Y-37950D03*
X41700Y-36950D03*
X41700Y-37950D03*
X42700Y-36950D03*
X42700Y-37950D03*
X43700Y-36950D03*
X43700Y-37950D03*
X44700Y-36950D03*
X44700Y-37950D03*
X45700Y-36950D03*
X45700Y-37950D03*
X46700Y-36950D03*
X46700Y-37950D03*
X47700Y-36950D03*
X47700Y-37950D03*
X48700Y-36950D03*
X48700Y-37950D03*
G54D16*
X56150Y-35462D03*
X56150Y-36250D03*
X56150Y-37037D03*
G54D17*
X56150Y-37864D03*
X56150Y-34635D03*
G54D16*
X58450Y-35462D03*
X58450Y-36250D03*
X58450Y-37037D03*
G54D17*
X58450Y-37864D03*
X58450Y-34635D03*
G54D16*
X60650Y-35462D03*
X60650Y-36250D03*
X60650Y-37037D03*
G54D17*
X60650Y-37864D03*
X60650Y-34635D03*
G54D16*
X62850Y-35462D03*
X62850Y-36250D03*
X62850Y-37037D03*
G54D17*
X62850Y-37864D03*
X62850Y-34635D03*
G54D16*
X65050Y-35462D03*
X65050Y-36250D03*
X65050Y-37037D03*
G54D17*
X65050Y-37864D03*
X65050Y-34635D03*
G54D16*
X67250Y-35462D03*
X67250Y-36250D03*
X67250Y-37037D03*
G54D17*
X67250Y-37864D03*
X67250Y-34635D03*
G54D16*
X69450Y-35462D03*
X69450Y-36250D03*
X69450Y-37037D03*
G54D17*
X69450Y-37864D03*
X69450Y-34635D03*
G54D16*
X71650Y-35462D03*
X71650Y-36250D03*
X71650Y-37037D03*
G54D17*
X71650Y-37864D03*
X71650Y-34635D03*
G54D16*
X40212Y-32300D03*
X41000Y-32300D03*
X41787Y-32300D03*
G54D17*
X42614Y-32300D03*
X39385Y-32300D03*
G54D18*
X69450Y-32350D03*
X69450Y-31350D03*
X56150Y-32350D03*
X56150Y-31350D03*
X58450Y-32350D03*
X58450Y-31350D03*
X50050Y-38750D03*
X51050Y-38750D03*
X60650Y-32350D03*
X60650Y-31350D03*
X50000Y-36050D03*
X51000Y-36050D03*
X62850Y-32350D03*
X62850Y-31350D03*
X65050Y-32350D03*
X65050Y-31350D03*
X67250Y-32350D03*
X67250Y-31350D03*
X62850Y-42200D03*
X62850Y-43200D03*
X71650Y-32350D03*
X71650Y-31350D03*
X56050Y-42200D03*
X56050Y-43200D03*
X58450Y-42200D03*
X58450Y-43200D03*
X60650Y-42200D03*
X60650Y-43200D03*
X71650Y-42200D03*
X71650Y-43200D03*
X69450Y-42200D03*
X69450Y-43200D03*
X67250Y-42200D03*
X67250Y-43200D03*
X65050Y-42200D03*
X65050Y-43200D03*
M02*
