G04 (created by PCBNEW (2013-mar-13)-testing) date jeu. 09 mai 2013 09:48:41 CEST*
%MOIN*%
G04 Gerber Fmt 3.4, Leading zero omitted, Abs format*
%FSLAX34Y34*%
G01*
G70*
G90*
G04 APERTURE LIST*
%ADD10C,0.006*%
%ADD11C,0.00590551*%
%ADD12R,0.0787402X0.03*%
%ADD13R,0.06X0.08*%
%ADD14R,0.06X0.06*%
%ADD15C,0.06*%
%ADD16C,0.05*%
%ADD17C,0.0787402*%
%ADD18C,0.066*%
%ADD19C,0.035*%
%ADD20C,0.02*%
%ADD21C,0.01*%
G04 APERTURE END LIST*
G54D10*
G54D11*
X73400Y-29100D02*
X73400Y-45650D01*
X34000Y-29100D02*
X34000Y-45600D01*
X34000Y-29100D02*
X73400Y-29100D01*
X34000Y-45650D02*
X34000Y-45600D01*
X73400Y-45650D02*
X34000Y-45650D01*
X34000Y-45800D02*
G75*
G03X34000Y-45800I0J0D01*
G74*
G01*
X33999Y-45800D02*
X34000Y-45800D01*
X34000Y-45799D02*
X34000Y-45800D01*
G54D12*
X44349Y-34400D03*
X44350Y-33900D03*
X44350Y-33400D03*
X44350Y-32900D03*
X44350Y-32400D03*
X44350Y-31900D03*
X44350Y-31400D03*
X44350Y-30900D03*
X44350Y-30400D03*
X48050Y-30400D03*
X48050Y-30900D03*
X48050Y-31400D03*
X48050Y-34400D03*
X48050Y-33900D03*
X48050Y-33400D03*
X48050Y-32900D03*
X48050Y-32400D03*
X48050Y-31900D03*
X41924Y-44375D03*
X41925Y-43875D03*
X41925Y-43375D03*
X41925Y-42875D03*
X41925Y-42375D03*
X41925Y-41875D03*
X41925Y-41375D03*
X41925Y-40875D03*
X41925Y-40375D03*
X45625Y-40375D03*
X45625Y-40875D03*
X45625Y-41375D03*
X45625Y-44375D03*
X45625Y-43875D03*
X45625Y-43375D03*
X45625Y-42875D03*
X45625Y-42375D03*
X45625Y-41875D03*
G54D13*
X49650Y-33300D03*
X50950Y-33300D03*
X47025Y-44375D03*
X48325Y-44375D03*
X47025Y-43225D03*
X48325Y-43225D03*
X47025Y-42075D03*
X48325Y-42075D03*
X51850Y-33875D03*
X53150Y-33875D03*
X51850Y-32725D03*
X53150Y-32725D03*
X51850Y-31575D03*
X53150Y-31575D03*
X51850Y-30425D03*
X53150Y-30425D03*
X49650Y-31000D03*
X50950Y-31000D03*
X49650Y-32150D03*
X50950Y-32150D03*
X49650Y-34450D03*
X50950Y-34450D03*
X47025Y-40925D03*
X48325Y-40925D03*
X49175Y-40350D03*
X50475Y-40350D03*
X49175Y-41500D03*
X50475Y-41500D03*
X49175Y-42650D03*
X50475Y-42650D03*
X49175Y-43800D03*
X50475Y-43800D03*
X53650Y-36850D03*
X52350Y-36850D03*
X53650Y-37850D03*
X52350Y-37850D03*
G54D14*
X39700Y-36950D03*
G54D15*
X39700Y-37950D03*
X40700Y-36950D03*
X40700Y-37950D03*
X41700Y-36950D03*
X41700Y-37950D03*
X42700Y-36950D03*
X42700Y-37950D03*
X43700Y-36950D03*
X43700Y-37950D03*
X44700Y-36950D03*
X44700Y-37950D03*
X45700Y-36950D03*
X45700Y-37950D03*
X46700Y-36950D03*
X46700Y-37950D03*
X47700Y-36950D03*
X47700Y-37950D03*
X48700Y-36950D03*
X48700Y-37950D03*
G54D16*
X56150Y-35462D03*
X56150Y-36250D03*
X56150Y-37037D03*
G54D17*
X56150Y-37864D03*
X56150Y-34635D03*
G54D16*
X58450Y-35462D03*
X58450Y-36250D03*
X58450Y-37037D03*
G54D17*
X58450Y-37864D03*
X58450Y-34635D03*
G54D16*
X60650Y-35462D03*
X60650Y-36250D03*
X60650Y-37037D03*
G54D17*
X60650Y-37864D03*
X60650Y-34635D03*
G54D16*
X62850Y-35462D03*
X62850Y-36250D03*
X62850Y-37037D03*
G54D17*
X62850Y-37864D03*
X62850Y-34635D03*
G54D16*
X65050Y-35462D03*
X65050Y-36250D03*
X65050Y-37037D03*
G54D17*
X65050Y-37864D03*
X65050Y-34635D03*
G54D16*
X67250Y-35462D03*
X67250Y-36250D03*
X67250Y-37037D03*
G54D17*
X67250Y-37864D03*
X67250Y-34635D03*
G54D16*
X69450Y-35462D03*
X69450Y-36250D03*
X69450Y-37037D03*
G54D17*
X69450Y-37864D03*
X69450Y-34635D03*
G54D16*
X71650Y-35462D03*
X71650Y-36250D03*
X71650Y-37037D03*
G54D17*
X71650Y-37864D03*
X71650Y-34635D03*
G54D16*
X40212Y-32300D03*
X41000Y-32300D03*
X41787Y-32300D03*
G54D17*
X42614Y-32300D03*
X39385Y-32300D03*
G54D18*
X69450Y-32350D03*
X69450Y-31350D03*
X56150Y-32350D03*
X56150Y-31350D03*
X58450Y-32350D03*
X58450Y-31350D03*
X50050Y-38750D03*
X51050Y-38750D03*
X60650Y-32350D03*
X60650Y-31350D03*
X50000Y-36050D03*
X51000Y-36050D03*
X62850Y-32350D03*
X62850Y-31350D03*
X65050Y-32350D03*
X65050Y-31350D03*
X67250Y-32350D03*
X67250Y-31350D03*
X62850Y-42200D03*
X62850Y-43200D03*
X71650Y-32350D03*
X71650Y-31350D03*
X56050Y-42200D03*
X56050Y-43200D03*
X58450Y-42200D03*
X58450Y-43200D03*
X60650Y-42200D03*
X60650Y-43200D03*
X71650Y-42200D03*
X71650Y-43200D03*
X69450Y-42200D03*
X69450Y-43200D03*
X67250Y-42200D03*
X67250Y-43200D03*
X65050Y-42200D03*
X65050Y-43200D03*
G54D19*
X54400Y-37500D03*
X42740Y-40380D03*
X67250Y-44400D03*
X62850Y-44900D03*
X54300Y-45000D03*
X69450Y-44200D03*
X52500Y-32750D03*
X52500Y-33850D03*
X52500Y-31600D03*
X52500Y-30450D03*
X65050Y-44650D03*
X60700Y-45200D03*
X53900Y-44650D03*
X55200Y-38550D03*
X53950Y-40650D03*
X53250Y-40450D03*
X52650Y-40100D03*
X52050Y-39900D03*
X51600Y-39500D03*
G54D20*
X54400Y-37500D02*
X54400Y-37350D01*
X55500Y-36250D02*
X56150Y-36250D01*
X54400Y-37350D02*
X55500Y-36250D01*
G54D21*
X40550Y-34400D02*
X44349Y-34400D01*
X39700Y-36950D02*
X39700Y-35250D01*
X39700Y-35250D02*
X40550Y-34400D01*
X44850Y-33900D02*
X44350Y-33900D01*
X45150Y-34200D02*
X44850Y-33900D01*
X45150Y-34550D02*
X45150Y-34200D01*
X44850Y-34850D02*
X45150Y-34550D01*
X41200Y-34850D02*
X44850Y-34850D01*
X40700Y-36950D02*
X40700Y-35350D01*
X40700Y-35350D02*
X41200Y-34850D01*
X44900Y-33400D02*
X44350Y-33400D01*
X45400Y-33900D02*
X44900Y-33400D01*
X45400Y-34600D02*
X45400Y-33900D01*
X44900Y-35100D02*
X45400Y-34600D01*
X42000Y-35100D02*
X44900Y-35100D01*
X41700Y-36950D02*
X41700Y-35400D01*
X41700Y-35400D02*
X42000Y-35100D01*
X45000Y-32900D02*
X44350Y-32900D01*
X45650Y-33550D02*
X45000Y-32900D01*
X45650Y-34700D02*
X45650Y-33550D01*
X45000Y-35350D02*
X45650Y-34700D01*
X43000Y-35350D02*
X45000Y-35350D01*
X42700Y-36950D02*
X42700Y-35650D01*
X42700Y-35650D02*
X43000Y-35350D01*
X45250Y-32400D02*
X44350Y-32400D01*
X45900Y-33050D02*
X45250Y-32400D01*
X45900Y-34800D02*
X45900Y-33050D01*
X45100Y-35600D02*
X45900Y-34800D01*
X44050Y-35600D02*
X45100Y-35600D01*
X43700Y-36950D02*
X43700Y-35950D01*
X43700Y-35950D02*
X44050Y-35600D01*
X44350Y-31900D02*
X45350Y-31900D01*
X45350Y-31900D02*
X46150Y-32700D01*
X44700Y-36350D02*
X44700Y-36950D01*
X46150Y-34900D02*
X44700Y-36350D01*
X46150Y-32700D02*
X46150Y-34900D01*
X45400Y-31400D02*
X44350Y-31400D01*
X46400Y-32400D02*
X45400Y-31400D01*
X46400Y-35000D02*
X46400Y-32400D01*
X45700Y-36950D02*
X45700Y-35700D01*
X45700Y-35700D02*
X46400Y-35000D01*
X45600Y-30900D02*
X44350Y-30900D01*
X46700Y-32000D02*
X45600Y-30900D01*
X46700Y-36950D02*
X46700Y-32000D01*
X41925Y-40375D02*
X42735Y-40375D01*
X42735Y-40375D02*
X42740Y-40380D01*
X47700Y-37950D02*
X47700Y-38050D01*
X47700Y-38050D02*
X48400Y-38750D01*
X48400Y-38750D02*
X50050Y-38750D01*
X71650Y-43200D02*
X71100Y-43750D01*
X51025Y-40350D02*
X50475Y-40350D01*
X51025Y-40350D02*
X53350Y-42675D01*
X54675Y-42675D02*
X53350Y-42675D01*
X55750Y-43750D02*
X54675Y-42675D01*
X71100Y-43750D02*
X55750Y-43750D01*
X45625Y-44375D02*
X47025Y-44375D01*
X53025Y-43174D02*
X54474Y-43174D01*
X51375Y-41524D02*
X52975Y-43124D01*
X50475Y-41500D02*
X51375Y-41500D01*
X52975Y-43124D02*
X53025Y-43174D01*
X51375Y-41500D02*
X51375Y-41524D01*
X55600Y-44300D02*
X67150Y-44300D01*
X54474Y-43174D02*
X55600Y-44300D01*
X67150Y-44300D02*
X67250Y-44400D01*
X67150Y-44300D02*
X67250Y-44400D01*
X51550Y-42650D02*
X51600Y-42650D01*
X52742Y-43600D02*
X54150Y-43600D01*
X62850Y-44900D02*
X62800Y-44900D01*
X55400Y-44850D02*
X54150Y-43600D01*
X62750Y-44850D02*
X55400Y-44850D01*
X62800Y-44900D02*
X62750Y-44850D01*
X51550Y-42650D02*
X50475Y-42650D01*
X52550Y-43600D02*
X52742Y-43600D01*
X51600Y-42650D02*
X52550Y-43600D01*
X45625Y-41875D02*
X46150Y-41875D01*
X46525Y-41500D02*
X49175Y-41500D01*
X46150Y-41875D02*
X46525Y-41500D01*
X49175Y-42650D02*
X46575Y-42650D01*
X46350Y-42875D02*
X45625Y-42875D01*
X46575Y-42650D02*
X46350Y-42875D01*
X49175Y-43800D02*
X45700Y-43800D01*
X45700Y-43800D02*
X45625Y-43875D01*
X53949Y-44149D02*
X52200Y-44149D01*
X54250Y-44450D02*
X53949Y-44149D01*
X54250Y-44950D02*
X54250Y-44450D01*
X54300Y-45000D02*
X54250Y-44950D01*
X51850Y-43800D02*
X52200Y-44149D01*
X50475Y-43800D02*
X51850Y-43800D01*
X52200Y-44149D02*
X52200Y-44150D01*
X45625Y-40875D02*
X45950Y-40875D01*
X49050Y-40225D02*
X49175Y-40350D01*
X46600Y-40225D02*
X49050Y-40225D01*
X45950Y-40875D02*
X46600Y-40225D01*
X51050Y-38750D02*
X51450Y-38750D01*
X51450Y-38750D02*
X52350Y-37850D01*
X53225Y-42950D02*
X54600Y-42950D01*
X53125Y-42850D02*
X53125Y-42850D01*
X51200Y-40925D02*
X53125Y-42850D01*
X48325Y-40925D02*
X51200Y-40925D01*
X53212Y-42937D02*
X53225Y-42950D01*
X53125Y-42850D02*
X53212Y-42937D01*
X69300Y-44050D02*
X69450Y-44200D01*
X69250Y-44000D02*
X69300Y-44050D01*
X55650Y-44000D02*
X69250Y-44000D01*
X54600Y-42950D02*
X55650Y-44000D01*
X51000Y-36050D02*
X51550Y-36050D01*
X51550Y-36050D02*
X52350Y-36850D01*
X49650Y-32150D02*
X48975Y-32150D01*
X48725Y-32400D02*
X48050Y-32400D01*
X48975Y-32150D02*
X48725Y-32400D01*
X45625Y-41375D02*
X46125Y-41375D01*
X46575Y-40925D02*
X47025Y-40925D01*
X46125Y-41375D02*
X46575Y-40925D01*
X51850Y-31575D02*
X49150Y-31575D01*
X48825Y-31900D02*
X48050Y-31900D01*
X49150Y-31575D02*
X48825Y-31900D01*
X49650Y-31000D02*
X49225Y-31000D01*
X48825Y-31400D02*
X48050Y-31400D01*
X49225Y-31000D02*
X48825Y-31400D01*
X49200Y-30425D02*
X48725Y-30900D01*
X51850Y-30425D02*
X49200Y-30425D01*
X48725Y-30900D02*
X48050Y-30900D01*
X51850Y-32725D02*
X48875Y-32725D01*
X48700Y-32900D02*
X48050Y-32900D01*
X51700Y-32800D02*
X51850Y-32950D01*
X48875Y-32725D02*
X48700Y-32900D01*
X53150Y-32725D02*
X52525Y-32725D01*
X52525Y-32725D02*
X52500Y-32750D01*
X48050Y-33400D02*
X49550Y-33400D01*
X49550Y-33400D02*
X49650Y-33300D01*
X51850Y-33875D02*
X48075Y-33875D01*
X48075Y-33875D02*
X48050Y-33900D01*
X53150Y-33875D02*
X52525Y-33875D01*
X52525Y-33875D02*
X52500Y-33850D01*
X53150Y-31575D02*
X52525Y-31575D01*
X52525Y-31575D02*
X52500Y-31600D01*
X53150Y-30425D02*
X52525Y-30425D01*
X52525Y-30425D02*
X52500Y-30450D01*
X52800Y-43375D02*
X54275Y-43375D01*
X51500Y-42075D02*
X52800Y-43375D01*
X48325Y-42075D02*
X51350Y-42075D01*
X51350Y-42075D02*
X51500Y-42075D01*
X55450Y-44550D02*
X64950Y-44550D01*
X54275Y-43375D02*
X55450Y-44550D01*
X64950Y-44550D02*
X65050Y-44650D01*
X64950Y-44550D02*
X65050Y-44650D01*
X50950Y-31000D02*
X54550Y-31000D01*
X68350Y-30250D02*
X69450Y-31350D01*
X55300Y-30250D02*
X68350Y-30250D01*
X54550Y-31000D02*
X55300Y-30250D01*
X50950Y-32150D02*
X53900Y-32150D01*
X64200Y-30500D02*
X65050Y-31350D01*
X55550Y-30500D02*
X64200Y-30500D01*
X53900Y-32150D02*
X55550Y-30500D01*
X54450Y-33300D02*
X55150Y-32600D01*
X50950Y-33300D02*
X54450Y-33300D01*
X60050Y-30750D02*
X60650Y-31350D01*
X55750Y-30750D02*
X60050Y-30750D01*
X55150Y-31350D02*
X55750Y-30750D01*
X55150Y-32600D02*
X55150Y-31350D01*
X48050Y-34400D02*
X49600Y-34400D01*
X49600Y-34400D02*
X49650Y-34450D01*
X50950Y-34450D02*
X55400Y-34450D01*
X56400Y-31350D02*
X56150Y-31350D01*
X56850Y-31800D02*
X56400Y-31350D01*
X56850Y-33000D02*
X56850Y-31800D01*
X55400Y-34450D02*
X56850Y-33000D01*
X45625Y-42375D02*
X46225Y-42375D01*
X46525Y-42075D02*
X47025Y-42075D01*
X46225Y-42375D02*
X46525Y-42075D01*
X52325Y-43875D02*
X54025Y-43875D01*
X51150Y-43225D02*
X51675Y-43225D01*
X48325Y-43225D02*
X51150Y-43225D01*
X51675Y-43225D02*
X52325Y-43875D01*
X55350Y-45200D02*
X60700Y-45200D01*
X54025Y-43875D02*
X55350Y-45200D01*
X45625Y-43375D02*
X46875Y-43375D01*
X46875Y-43375D02*
X47025Y-43225D01*
X53625Y-44375D02*
X53900Y-44650D01*
X48325Y-44375D02*
X53625Y-44375D01*
X41325Y-44375D02*
X41924Y-44375D01*
X39700Y-37950D02*
X39700Y-42750D01*
X39700Y-42750D02*
X41325Y-44375D01*
X58037Y-35462D02*
X58450Y-35462D01*
X57500Y-36000D02*
X58037Y-35462D01*
X57500Y-38100D02*
X57500Y-36000D01*
X57000Y-38600D02*
X57500Y-38100D01*
X55250Y-38600D02*
X57000Y-38600D01*
X55200Y-38550D02*
X55250Y-38600D01*
X41275Y-43875D02*
X41925Y-43875D01*
X40000Y-42600D02*
X41275Y-43875D01*
X40000Y-39700D02*
X40000Y-42600D01*
X40700Y-37950D02*
X40700Y-39000D01*
X40700Y-39000D02*
X40000Y-39700D01*
X54400Y-40200D02*
X53950Y-40650D01*
X59200Y-40200D02*
X54400Y-40200D01*
X59850Y-39550D02*
X59200Y-40200D01*
X59850Y-38300D02*
X59850Y-39550D01*
X59850Y-35950D02*
X59850Y-35690D01*
X59850Y-38300D02*
X59850Y-35950D01*
X60077Y-35462D02*
X60650Y-35462D01*
X59850Y-35690D02*
X60077Y-35462D01*
X41175Y-43375D02*
X41925Y-43375D01*
X40300Y-42500D02*
X41175Y-43375D01*
X40300Y-39775D02*
X40300Y-42500D01*
X41700Y-37950D02*
X41700Y-38375D01*
X41700Y-38375D02*
X40300Y-39775D01*
X61950Y-36362D02*
X61950Y-35810D01*
X61950Y-38650D02*
X61950Y-36362D01*
X62297Y-35462D02*
X62850Y-35462D01*
X61950Y-35810D02*
X62297Y-35462D01*
X61950Y-39950D02*
X61950Y-38650D01*
X41150Y-42875D02*
X41925Y-42875D01*
X61300Y-40550D02*
X61350Y-40550D01*
X53250Y-40550D02*
X53950Y-41250D01*
X53950Y-41250D02*
X54350Y-41250D01*
X54350Y-41250D02*
X55050Y-40550D01*
X55050Y-40550D02*
X61300Y-40550D01*
X53250Y-40450D02*
X53250Y-40550D01*
X61350Y-40550D02*
X61950Y-39950D01*
X42700Y-37950D02*
X42700Y-38999D01*
X40525Y-42250D02*
X41150Y-42875D01*
X40525Y-39875D02*
X40525Y-42250D01*
X41075Y-39325D02*
X40525Y-39875D01*
X42374Y-39325D02*
X41075Y-39325D01*
X42700Y-38999D02*
X42374Y-39325D01*
X64150Y-40200D02*
X64150Y-38950D01*
X54300Y-41650D02*
X55150Y-40800D01*
X55150Y-40800D02*
X63550Y-40800D01*
X63550Y-40800D02*
X64150Y-40200D01*
X52650Y-40100D02*
X52700Y-40150D01*
X52700Y-40150D02*
X52700Y-40500D01*
X52700Y-40500D02*
X53850Y-41650D01*
X53850Y-41650D02*
X54300Y-41650D01*
X64150Y-36250D02*
X64150Y-38950D01*
X64150Y-36370D02*
X64150Y-36250D01*
X64150Y-36250D02*
X64150Y-35750D01*
X64437Y-35462D02*
X65050Y-35462D01*
X64150Y-35750D02*
X64437Y-35462D01*
X41275Y-42375D02*
X41925Y-42375D01*
X64150Y-36370D02*
X64150Y-36362D01*
X43700Y-37950D02*
X43700Y-39249D01*
X40750Y-41850D02*
X41275Y-42375D01*
X40750Y-39975D02*
X40750Y-41850D01*
X41175Y-39550D02*
X40750Y-39975D01*
X43399Y-39550D02*
X41175Y-39550D01*
X43700Y-39249D02*
X43399Y-39550D01*
X66350Y-40150D02*
X66350Y-38900D01*
X66350Y-40450D02*
X65750Y-41050D01*
X66350Y-36362D02*
X66350Y-35750D01*
X66350Y-38900D02*
X66350Y-36362D01*
X66637Y-35462D02*
X67250Y-35462D01*
X66350Y-35750D02*
X66637Y-35462D01*
X66350Y-40150D02*
X66350Y-40450D01*
X41450Y-41875D02*
X41925Y-41875D01*
X65750Y-41050D02*
X55250Y-41050D01*
X55250Y-41050D02*
X54350Y-41950D01*
X54350Y-41950D02*
X53700Y-41950D01*
X52050Y-39900D02*
X52100Y-39950D01*
X52100Y-39950D02*
X52100Y-40350D01*
X52100Y-40350D02*
X53700Y-41950D01*
X44700Y-37950D02*
X44700Y-39149D01*
X40975Y-41400D02*
X41450Y-41875D01*
X40975Y-40075D02*
X40975Y-41400D01*
X41275Y-39775D02*
X40975Y-40075D01*
X44074Y-39775D02*
X41275Y-39775D01*
X44700Y-39149D02*
X44074Y-39775D01*
X68600Y-40350D02*
X68600Y-39100D01*
X68600Y-35790D02*
X68927Y-35462D01*
X69450Y-35462D02*
X68927Y-35462D01*
X67650Y-41300D02*
X68600Y-40350D01*
X68600Y-39100D02*
X68600Y-36312D01*
X68600Y-36312D02*
X68600Y-35790D01*
X55350Y-41300D02*
X67650Y-41300D01*
X41550Y-41375D02*
X41925Y-41375D01*
X41225Y-41050D02*
X41550Y-41375D01*
X41225Y-40175D02*
X41225Y-41050D01*
X41400Y-40000D02*
X41225Y-40175D01*
X44225Y-40000D02*
X41400Y-40000D01*
X54450Y-42200D02*
X54475Y-42175D01*
X54475Y-42175D02*
X55350Y-41300D01*
X51600Y-40200D02*
X51600Y-39500D01*
X53600Y-42200D02*
X53575Y-42175D01*
X53575Y-42175D02*
X51600Y-40200D01*
X53600Y-42200D02*
X54450Y-42200D01*
X45700Y-37950D02*
X45700Y-38525D01*
X45700Y-38525D02*
X44225Y-40000D01*
X46700Y-37950D02*
X46750Y-37950D01*
X51200Y-40150D02*
X53500Y-42450D01*
X51200Y-39800D02*
X51200Y-40150D01*
X51000Y-39600D02*
X51200Y-39800D01*
X48400Y-39600D02*
X51000Y-39600D01*
X46750Y-37950D02*
X48400Y-39600D01*
X46700Y-37950D02*
X46700Y-37975D01*
X46700Y-37975D02*
X43800Y-40875D01*
X69800Y-41550D02*
X55450Y-41550D01*
X70900Y-39200D02*
X70900Y-36212D01*
X69800Y-41550D02*
X70900Y-40450D01*
X70900Y-36212D02*
X70900Y-35840D01*
X70900Y-35840D02*
X71277Y-35462D01*
X71277Y-35462D02*
X71650Y-35462D01*
X54550Y-42450D02*
X53500Y-42450D01*
X55450Y-41550D02*
X54550Y-42450D01*
X70900Y-40450D02*
X70900Y-39200D01*
X43800Y-40875D02*
X41925Y-40875D01*
G54D10*
G36*
X44192Y-40200D02*
X43717Y-40675D01*
X42522Y-40675D01*
X42530Y-40666D01*
X42568Y-40574D01*
X42568Y-40487D01*
X42506Y-40425D01*
X41975Y-40425D01*
X41975Y-40432D01*
X41875Y-40432D01*
X41875Y-40425D01*
X41867Y-40425D01*
X41867Y-40325D01*
X41875Y-40325D01*
X41875Y-40317D01*
X41975Y-40317D01*
X41975Y-40325D01*
X42506Y-40325D01*
X42568Y-40262D01*
X42568Y-40200D01*
X44192Y-40200D01*
X44192Y-40200D01*
G37*
G54D21*
X44192Y-40200D02*
X43717Y-40675D01*
X42522Y-40675D01*
X42530Y-40666D01*
X42568Y-40574D01*
X42568Y-40487D01*
X42506Y-40425D01*
X41975Y-40425D01*
X41975Y-40432D01*
X41875Y-40432D01*
X41875Y-40425D01*
X41867Y-40425D01*
X41867Y-40325D01*
X41875Y-40325D01*
X41875Y-40317D01*
X41975Y-40317D01*
X41975Y-40325D01*
X42506Y-40325D01*
X42568Y-40262D01*
X42568Y-40200D01*
X44192Y-40200D01*
G54D10*
G36*
X73150Y-45470D02*
X60889Y-45470D01*
X60975Y-45384D01*
X61024Y-45264D01*
X61025Y-45135D01*
X60989Y-45050D01*
X62560Y-45050D01*
X62574Y-45083D01*
X62665Y-45175D01*
X62785Y-45224D01*
X62914Y-45225D01*
X63033Y-45175D01*
X63125Y-45084D01*
X63174Y-44964D01*
X63175Y-44835D01*
X63139Y-44750D01*
X64739Y-44750D01*
X64774Y-44833D01*
X64865Y-44925D01*
X64985Y-44974D01*
X65114Y-44975D01*
X65233Y-44925D01*
X65325Y-44834D01*
X65374Y-44714D01*
X65375Y-44585D01*
X65339Y-44500D01*
X66939Y-44500D01*
X66974Y-44583D01*
X67065Y-44675D01*
X67185Y-44724D01*
X67314Y-44725D01*
X67433Y-44675D01*
X67525Y-44584D01*
X67574Y-44464D01*
X67575Y-44335D01*
X67525Y-44216D01*
X67509Y-44200D01*
X69124Y-44200D01*
X69124Y-44264D01*
X69174Y-44383D01*
X69265Y-44475D01*
X69385Y-44524D01*
X69514Y-44525D01*
X69633Y-44475D01*
X69725Y-44384D01*
X69774Y-44264D01*
X69775Y-44135D01*
X69725Y-44016D01*
X69659Y-43950D01*
X71100Y-43950D01*
X71176Y-43934D01*
X71241Y-43891D01*
X71482Y-43650D01*
X71554Y-43679D01*
X71745Y-43680D01*
X71921Y-43607D01*
X72056Y-43472D01*
X72129Y-43295D01*
X72130Y-43104D01*
X72130Y-42104D01*
X72057Y-41928D01*
X71922Y-41793D01*
X71745Y-41720D01*
X71554Y-41719D01*
X71378Y-41792D01*
X71243Y-41927D01*
X71170Y-42104D01*
X71169Y-42295D01*
X71242Y-42471D01*
X71377Y-42606D01*
X71554Y-42679D01*
X71745Y-42680D01*
X71921Y-42607D01*
X72056Y-42472D01*
X72129Y-42295D01*
X72130Y-42104D01*
X72130Y-43104D01*
X72057Y-42928D01*
X71922Y-42793D01*
X71745Y-42720D01*
X71554Y-42719D01*
X71378Y-42792D01*
X71243Y-42927D01*
X71170Y-43104D01*
X71169Y-43295D01*
X71199Y-43367D01*
X71017Y-43550D01*
X69778Y-43550D01*
X69856Y-43472D01*
X69929Y-43295D01*
X69930Y-43104D01*
X69857Y-42928D01*
X69722Y-42793D01*
X69545Y-42720D01*
X69354Y-42719D01*
X69178Y-42792D01*
X69043Y-42927D01*
X68970Y-43104D01*
X68969Y-43295D01*
X69042Y-43471D01*
X69121Y-43550D01*
X67578Y-43550D01*
X67656Y-43472D01*
X67729Y-43295D01*
X67730Y-43104D01*
X67657Y-42928D01*
X67522Y-42793D01*
X67345Y-42720D01*
X67154Y-42719D01*
X66978Y-42792D01*
X66843Y-42927D01*
X66770Y-43104D01*
X66769Y-43295D01*
X66842Y-43471D01*
X66921Y-43550D01*
X65378Y-43550D01*
X65456Y-43472D01*
X65529Y-43295D01*
X65530Y-43104D01*
X65457Y-42928D01*
X65322Y-42793D01*
X65145Y-42720D01*
X64954Y-42719D01*
X64778Y-42792D01*
X64643Y-42927D01*
X64570Y-43104D01*
X64569Y-43295D01*
X64642Y-43471D01*
X64721Y-43550D01*
X63178Y-43550D01*
X63256Y-43472D01*
X63329Y-43295D01*
X63330Y-43104D01*
X63257Y-42928D01*
X63122Y-42793D01*
X62945Y-42720D01*
X62754Y-42719D01*
X62578Y-42792D01*
X62443Y-42927D01*
X62370Y-43104D01*
X62369Y-43295D01*
X62442Y-43471D01*
X62521Y-43550D01*
X60978Y-43550D01*
X61056Y-43472D01*
X61129Y-43295D01*
X61130Y-43104D01*
X61057Y-42928D01*
X60922Y-42793D01*
X60745Y-42720D01*
X60554Y-42719D01*
X60378Y-42792D01*
X60243Y-42927D01*
X60170Y-43104D01*
X60169Y-43295D01*
X60242Y-43471D01*
X60321Y-43550D01*
X58778Y-43550D01*
X58856Y-43472D01*
X58929Y-43295D01*
X58930Y-43104D01*
X58857Y-42928D01*
X58722Y-42793D01*
X58545Y-42720D01*
X58354Y-42719D01*
X58178Y-42792D01*
X58043Y-42927D01*
X57970Y-43104D01*
X57969Y-43295D01*
X58042Y-43471D01*
X58121Y-43550D01*
X56378Y-43550D01*
X56456Y-43472D01*
X56529Y-43295D01*
X56530Y-43104D01*
X56457Y-42928D01*
X56322Y-42793D01*
X56145Y-42720D01*
X55954Y-42719D01*
X55778Y-42792D01*
X55643Y-42927D01*
X55570Y-43104D01*
X55569Y-43287D01*
X54816Y-42533D01*
X54776Y-42506D01*
X55532Y-41750D01*
X55882Y-41750D01*
X55778Y-41792D01*
X55643Y-41927D01*
X55570Y-42104D01*
X55569Y-42295D01*
X55642Y-42471D01*
X55777Y-42606D01*
X55954Y-42679D01*
X56145Y-42680D01*
X56321Y-42607D01*
X56456Y-42472D01*
X56529Y-42295D01*
X56530Y-42104D01*
X56457Y-41928D01*
X56322Y-41793D01*
X56217Y-41750D01*
X58282Y-41750D01*
X58178Y-41792D01*
X58043Y-41927D01*
X57970Y-42104D01*
X57969Y-42295D01*
X58042Y-42471D01*
X58177Y-42606D01*
X58354Y-42679D01*
X58545Y-42680D01*
X58721Y-42607D01*
X58856Y-42472D01*
X58929Y-42295D01*
X58930Y-42104D01*
X58857Y-41928D01*
X58722Y-41793D01*
X58617Y-41750D01*
X60482Y-41750D01*
X60378Y-41792D01*
X60243Y-41927D01*
X60170Y-42104D01*
X60169Y-42295D01*
X60242Y-42471D01*
X60377Y-42606D01*
X60554Y-42679D01*
X60745Y-42680D01*
X60921Y-42607D01*
X61056Y-42472D01*
X61129Y-42295D01*
X61130Y-42104D01*
X61057Y-41928D01*
X60922Y-41793D01*
X60817Y-41750D01*
X62682Y-41750D01*
X62578Y-41792D01*
X62443Y-41927D01*
X62370Y-42104D01*
X62369Y-42295D01*
X62442Y-42471D01*
X62577Y-42606D01*
X62754Y-42679D01*
X62945Y-42680D01*
X63121Y-42607D01*
X63256Y-42472D01*
X63329Y-42295D01*
X63330Y-42104D01*
X63257Y-41928D01*
X63122Y-41793D01*
X63017Y-41750D01*
X64882Y-41750D01*
X64778Y-41792D01*
X64643Y-41927D01*
X64570Y-42104D01*
X64569Y-42295D01*
X64642Y-42471D01*
X64777Y-42606D01*
X64954Y-42679D01*
X65145Y-42680D01*
X65321Y-42607D01*
X65456Y-42472D01*
X65529Y-42295D01*
X65530Y-42104D01*
X65457Y-41928D01*
X65322Y-41793D01*
X65217Y-41750D01*
X67082Y-41750D01*
X66978Y-41792D01*
X66843Y-41927D01*
X66770Y-42104D01*
X66769Y-42295D01*
X66842Y-42471D01*
X66977Y-42606D01*
X67154Y-42679D01*
X67345Y-42680D01*
X67521Y-42607D01*
X67656Y-42472D01*
X67729Y-42295D01*
X67730Y-42104D01*
X67657Y-41928D01*
X67522Y-41793D01*
X67417Y-41750D01*
X69282Y-41750D01*
X69178Y-41792D01*
X69043Y-41927D01*
X68970Y-42104D01*
X68969Y-42295D01*
X69042Y-42471D01*
X69177Y-42606D01*
X69354Y-42679D01*
X69545Y-42680D01*
X69721Y-42607D01*
X69856Y-42472D01*
X69929Y-42295D01*
X69930Y-42104D01*
X69857Y-41928D01*
X69722Y-41793D01*
X69617Y-41750D01*
X69800Y-41750D01*
X69876Y-41734D01*
X69941Y-41691D01*
X71041Y-40591D01*
X71041Y-40591D01*
X71070Y-40548D01*
X71084Y-40526D01*
X71084Y-40526D01*
X71099Y-40450D01*
X71100Y-40450D01*
X71100Y-39200D01*
X71100Y-36212D01*
X71100Y-35922D01*
X71322Y-35700D01*
X71423Y-35801D01*
X71555Y-35856D01*
X71423Y-35910D01*
X71311Y-36023D01*
X71250Y-36170D01*
X71249Y-36329D01*
X71310Y-36476D01*
X71423Y-36588D01*
X71555Y-36643D01*
X71423Y-36698D01*
X71311Y-36810D01*
X71250Y-36957D01*
X71249Y-37116D01*
X71310Y-37263D01*
X71418Y-37371D01*
X71342Y-37402D01*
X71189Y-37555D01*
X71106Y-37755D01*
X71106Y-37971D01*
X71188Y-38171D01*
X71341Y-38324D01*
X71541Y-38407D01*
X71757Y-38407D01*
X71957Y-38325D01*
X72110Y-38172D01*
X72193Y-37972D01*
X72193Y-37756D01*
X72111Y-37556D01*
X71958Y-37403D01*
X71881Y-37371D01*
X71988Y-37264D01*
X72049Y-37117D01*
X72050Y-36958D01*
X71989Y-36811D01*
X71876Y-36698D01*
X71744Y-36643D01*
X71876Y-36589D01*
X71988Y-36476D01*
X72049Y-36329D01*
X72050Y-36170D01*
X71989Y-36023D01*
X71876Y-35911D01*
X71744Y-35856D01*
X71876Y-35801D01*
X71988Y-35689D01*
X72049Y-35542D01*
X72050Y-35383D01*
X71989Y-35236D01*
X71881Y-35128D01*
X71957Y-35097D01*
X72110Y-34944D01*
X72193Y-34744D01*
X72193Y-34528D01*
X72130Y-34373D01*
X72130Y-32254D01*
X72130Y-31254D01*
X72057Y-31078D01*
X71922Y-30943D01*
X71745Y-30870D01*
X71554Y-30869D01*
X71378Y-30942D01*
X71243Y-31077D01*
X71170Y-31254D01*
X71169Y-31445D01*
X71242Y-31621D01*
X71377Y-31756D01*
X71554Y-31829D01*
X71745Y-31830D01*
X71921Y-31757D01*
X72056Y-31622D01*
X72129Y-31445D01*
X72130Y-31254D01*
X72130Y-32254D01*
X72057Y-32078D01*
X71922Y-31943D01*
X71745Y-31870D01*
X71554Y-31869D01*
X71378Y-31942D01*
X71243Y-32077D01*
X71170Y-32254D01*
X71169Y-32445D01*
X71242Y-32621D01*
X71377Y-32756D01*
X71554Y-32829D01*
X71745Y-32830D01*
X71921Y-32757D01*
X72056Y-32622D01*
X72129Y-32445D01*
X72130Y-32254D01*
X72130Y-34373D01*
X72111Y-34328D01*
X71958Y-34175D01*
X71758Y-34092D01*
X71542Y-34092D01*
X71342Y-34174D01*
X71189Y-34327D01*
X71106Y-34527D01*
X71106Y-34743D01*
X71188Y-34943D01*
X71341Y-35096D01*
X71418Y-35128D01*
X71311Y-35235D01*
X71299Y-35262D01*
X71277Y-35262D01*
X71200Y-35277D01*
X71135Y-35321D01*
X70758Y-35698D01*
X70715Y-35763D01*
X70700Y-35840D01*
X70700Y-36212D01*
X70700Y-39200D01*
X70700Y-40367D01*
X69717Y-41350D01*
X67882Y-41350D01*
X68741Y-40491D01*
X68784Y-40426D01*
X68784Y-40426D01*
X68787Y-40413D01*
X68799Y-40350D01*
X68800Y-40350D01*
X68800Y-39100D01*
X68800Y-36312D01*
X68800Y-35872D01*
X69010Y-35662D01*
X69099Y-35662D01*
X69110Y-35688D01*
X69223Y-35801D01*
X69355Y-35856D01*
X69223Y-35910D01*
X69111Y-36023D01*
X69050Y-36170D01*
X69049Y-36329D01*
X69110Y-36476D01*
X69223Y-36588D01*
X69355Y-36643D01*
X69223Y-36698D01*
X69111Y-36810D01*
X69050Y-36957D01*
X69049Y-37116D01*
X69110Y-37263D01*
X69218Y-37371D01*
X69142Y-37402D01*
X68989Y-37555D01*
X68906Y-37755D01*
X68906Y-37971D01*
X68988Y-38171D01*
X69141Y-38324D01*
X69341Y-38407D01*
X69557Y-38407D01*
X69757Y-38325D01*
X69910Y-38172D01*
X69993Y-37972D01*
X69993Y-37756D01*
X69911Y-37556D01*
X69758Y-37403D01*
X69681Y-37371D01*
X69788Y-37264D01*
X69849Y-37117D01*
X69850Y-36958D01*
X69789Y-36811D01*
X69676Y-36698D01*
X69544Y-36643D01*
X69676Y-36589D01*
X69788Y-36476D01*
X69849Y-36329D01*
X69850Y-36170D01*
X69789Y-36023D01*
X69676Y-35911D01*
X69544Y-35856D01*
X69676Y-35801D01*
X69788Y-35689D01*
X69849Y-35542D01*
X69850Y-35383D01*
X69789Y-35236D01*
X69681Y-35128D01*
X69757Y-35097D01*
X69910Y-34944D01*
X69993Y-34744D01*
X69993Y-34528D01*
X69930Y-34373D01*
X69930Y-32254D01*
X69930Y-31254D01*
X69857Y-31078D01*
X69722Y-30943D01*
X69545Y-30870D01*
X69354Y-30869D01*
X69282Y-30899D01*
X68491Y-30108D01*
X68426Y-30065D01*
X68350Y-30050D01*
X55300Y-30050D01*
X55223Y-30065D01*
X55201Y-30079D01*
X55158Y-30108D01*
X54467Y-30800D01*
X53600Y-30800D01*
X53600Y-30795D01*
X53600Y-29995D01*
X53577Y-29940D01*
X53535Y-29897D01*
X53479Y-29875D01*
X53420Y-29874D01*
X52820Y-29874D01*
X52765Y-29897D01*
X52722Y-29939D01*
X52700Y-29995D01*
X52699Y-30054D01*
X52699Y-30190D01*
X52684Y-30174D01*
X52564Y-30125D01*
X52435Y-30124D01*
X52316Y-30174D01*
X52300Y-30190D01*
X52300Y-29995D01*
X52277Y-29940D01*
X52235Y-29897D01*
X52179Y-29875D01*
X52120Y-29874D01*
X51520Y-29874D01*
X51465Y-29897D01*
X51422Y-29939D01*
X51400Y-29995D01*
X51399Y-30054D01*
X51399Y-30225D01*
X49200Y-30225D01*
X49123Y-30240D01*
X49101Y-30254D01*
X49058Y-30283D01*
X48659Y-30682D01*
X48693Y-30599D01*
X48693Y-30200D01*
X48655Y-30108D01*
X48585Y-30038D01*
X48493Y-30000D01*
X48394Y-29999D01*
X48162Y-30000D01*
X48100Y-30062D01*
X48100Y-30350D01*
X48631Y-30350D01*
X48693Y-30287D01*
X48693Y-30200D01*
X48693Y-30599D01*
X48693Y-30512D01*
X48631Y-30450D01*
X48100Y-30450D01*
X48100Y-30457D01*
X48000Y-30457D01*
X48000Y-30450D01*
X48000Y-30350D01*
X48000Y-30062D01*
X47937Y-30000D01*
X47705Y-29999D01*
X47606Y-30000D01*
X47514Y-30038D01*
X47444Y-30108D01*
X47406Y-30200D01*
X47406Y-30287D01*
X47468Y-30350D01*
X48000Y-30350D01*
X48000Y-30450D01*
X47468Y-30450D01*
X47406Y-30512D01*
X47406Y-30599D01*
X47444Y-30691D01*
X47506Y-30753D01*
X47506Y-30779D01*
X47506Y-31079D01*
X47529Y-31134D01*
X47544Y-31149D01*
X47529Y-31164D01*
X47506Y-31220D01*
X47506Y-31279D01*
X47506Y-31579D01*
X47529Y-31634D01*
X47544Y-31649D01*
X47529Y-31664D01*
X47506Y-31720D01*
X47506Y-31779D01*
X47506Y-32079D01*
X47529Y-32134D01*
X47544Y-32149D01*
X47529Y-32164D01*
X47506Y-32220D01*
X47506Y-32279D01*
X47506Y-32579D01*
X47529Y-32634D01*
X47544Y-32649D01*
X47529Y-32664D01*
X47506Y-32720D01*
X47506Y-32779D01*
X47506Y-33079D01*
X47529Y-33134D01*
X47544Y-33149D01*
X47529Y-33164D01*
X47506Y-33220D01*
X47506Y-33279D01*
X47506Y-33579D01*
X47529Y-33634D01*
X47544Y-33649D01*
X47529Y-33664D01*
X47506Y-33720D01*
X47506Y-33779D01*
X47506Y-34079D01*
X47529Y-34134D01*
X47544Y-34150D01*
X47529Y-34164D01*
X47506Y-34220D01*
X47506Y-34279D01*
X47506Y-34579D01*
X47529Y-34634D01*
X47571Y-34677D01*
X47626Y-34699D01*
X47686Y-34700D01*
X48473Y-34700D01*
X48528Y-34677D01*
X48571Y-34635D01*
X48585Y-34600D01*
X49199Y-34600D01*
X49199Y-34879D01*
X49222Y-34934D01*
X49264Y-34977D01*
X49320Y-34999D01*
X49379Y-35000D01*
X49979Y-35000D01*
X50034Y-34977D01*
X50077Y-34935D01*
X50099Y-34879D01*
X50100Y-34820D01*
X50100Y-34075D01*
X50499Y-34075D01*
X50499Y-34079D01*
X50499Y-34879D01*
X50522Y-34934D01*
X50564Y-34977D01*
X50620Y-34999D01*
X50679Y-35000D01*
X51279Y-35000D01*
X51334Y-34977D01*
X51377Y-34935D01*
X51399Y-34879D01*
X51400Y-34820D01*
X51400Y-34650D01*
X55400Y-34650D01*
X55476Y-34634D01*
X55541Y-34591D01*
X55606Y-34525D01*
X55606Y-34527D01*
X55606Y-34743D01*
X55688Y-34943D01*
X55841Y-35096D01*
X55918Y-35128D01*
X55811Y-35235D01*
X55750Y-35382D01*
X55749Y-35541D01*
X55810Y-35688D01*
X55923Y-35801D01*
X56055Y-35856D01*
X55923Y-35910D01*
X55834Y-36000D01*
X55500Y-36000D01*
X55404Y-36019D01*
X55323Y-36073D01*
X55323Y-36073D01*
X54223Y-37173D01*
X54200Y-37207D01*
X54200Y-37200D01*
X54200Y-36499D01*
X54199Y-36400D01*
X54161Y-36308D01*
X54091Y-36237D01*
X53999Y-36199D01*
X53762Y-36200D01*
X53700Y-36262D01*
X53700Y-36800D01*
X54137Y-36800D01*
X54200Y-36737D01*
X54200Y-36499D01*
X54200Y-37200D01*
X54200Y-36962D01*
X54137Y-36900D01*
X53700Y-36900D01*
X53700Y-37262D01*
X53700Y-37437D01*
X53700Y-37800D01*
X54137Y-37800D01*
X54188Y-37748D01*
X54215Y-37775D01*
X54335Y-37824D01*
X54464Y-37825D01*
X54583Y-37775D01*
X54675Y-37684D01*
X54724Y-37564D01*
X54725Y-37435D01*
X54708Y-37395D01*
X55603Y-36500D01*
X55834Y-36500D01*
X55923Y-36588D01*
X56055Y-36643D01*
X55923Y-36698D01*
X55811Y-36810D01*
X55750Y-36957D01*
X55749Y-37116D01*
X55810Y-37263D01*
X55918Y-37371D01*
X55842Y-37402D01*
X55689Y-37555D01*
X55606Y-37755D01*
X55606Y-37971D01*
X55688Y-38171D01*
X55841Y-38324D01*
X56022Y-38400D01*
X55489Y-38400D01*
X55475Y-38366D01*
X55384Y-38274D01*
X55264Y-38225D01*
X55135Y-38224D01*
X55016Y-38274D01*
X54924Y-38365D01*
X54875Y-38485D01*
X54874Y-38614D01*
X54924Y-38733D01*
X55015Y-38825D01*
X55135Y-38874D01*
X55264Y-38875D01*
X55383Y-38825D01*
X55409Y-38800D01*
X57000Y-38800D01*
X57076Y-38784D01*
X57141Y-38741D01*
X57641Y-38241D01*
X57684Y-38176D01*
X57684Y-38176D01*
X57687Y-38163D01*
X57699Y-38100D01*
X57700Y-38100D01*
X57700Y-36082D01*
X58105Y-35677D01*
X58110Y-35688D01*
X58223Y-35801D01*
X58355Y-35856D01*
X58223Y-35910D01*
X58111Y-36023D01*
X58050Y-36170D01*
X58049Y-36329D01*
X58110Y-36476D01*
X58223Y-36588D01*
X58355Y-36643D01*
X58223Y-36698D01*
X58111Y-36810D01*
X58050Y-36957D01*
X58049Y-37116D01*
X58110Y-37263D01*
X58218Y-37371D01*
X58142Y-37402D01*
X57989Y-37555D01*
X57906Y-37755D01*
X57906Y-37971D01*
X57988Y-38171D01*
X58141Y-38324D01*
X58341Y-38407D01*
X58557Y-38407D01*
X58757Y-38325D01*
X58910Y-38172D01*
X58993Y-37972D01*
X58993Y-37756D01*
X58911Y-37556D01*
X58758Y-37403D01*
X58681Y-37371D01*
X58788Y-37264D01*
X58849Y-37117D01*
X58850Y-36958D01*
X58789Y-36811D01*
X58676Y-36698D01*
X58544Y-36643D01*
X58676Y-36589D01*
X58788Y-36476D01*
X58849Y-36329D01*
X58850Y-36170D01*
X58789Y-36023D01*
X58676Y-35911D01*
X58544Y-35856D01*
X58676Y-35801D01*
X58788Y-35689D01*
X58849Y-35542D01*
X58850Y-35383D01*
X58789Y-35236D01*
X58681Y-35128D01*
X58757Y-35097D01*
X58910Y-34944D01*
X58993Y-34744D01*
X58993Y-34528D01*
X58930Y-34373D01*
X58930Y-32254D01*
X58857Y-32078D01*
X58722Y-31943D01*
X58545Y-31870D01*
X58354Y-31869D01*
X58178Y-31942D01*
X58043Y-32077D01*
X57970Y-32254D01*
X57969Y-32445D01*
X58042Y-32621D01*
X58177Y-32756D01*
X58354Y-32829D01*
X58545Y-32830D01*
X58721Y-32757D01*
X58856Y-32622D01*
X58929Y-32445D01*
X58930Y-32254D01*
X58930Y-34373D01*
X58911Y-34328D01*
X58758Y-34175D01*
X58558Y-34092D01*
X58342Y-34092D01*
X58142Y-34174D01*
X57989Y-34327D01*
X57906Y-34527D01*
X57906Y-34743D01*
X57988Y-34943D01*
X58141Y-35096D01*
X58218Y-35128D01*
X58111Y-35235D01*
X58099Y-35262D01*
X58037Y-35262D01*
X57960Y-35277D01*
X57939Y-35292D01*
X57895Y-35321D01*
X57358Y-35858D01*
X57315Y-35923D01*
X57300Y-36000D01*
X57300Y-38017D01*
X56917Y-38400D01*
X56276Y-38400D01*
X56457Y-38325D01*
X56610Y-38172D01*
X56693Y-37972D01*
X56693Y-37756D01*
X56611Y-37556D01*
X56458Y-37403D01*
X56381Y-37371D01*
X56488Y-37264D01*
X56549Y-37117D01*
X56550Y-36958D01*
X56489Y-36811D01*
X56376Y-36698D01*
X56244Y-36643D01*
X56376Y-36589D01*
X56488Y-36476D01*
X56549Y-36329D01*
X56550Y-36170D01*
X56489Y-36023D01*
X56376Y-35911D01*
X56244Y-35856D01*
X56376Y-35801D01*
X56488Y-35689D01*
X56549Y-35542D01*
X56550Y-35383D01*
X56489Y-35236D01*
X56381Y-35128D01*
X56457Y-35097D01*
X56610Y-34944D01*
X56693Y-34744D01*
X56693Y-34528D01*
X56611Y-34328D01*
X56458Y-34175D01*
X56258Y-34092D01*
X56042Y-34092D01*
X56039Y-34093D01*
X56991Y-33141D01*
X56991Y-33141D01*
X57020Y-33098D01*
X57034Y-33076D01*
X57034Y-33076D01*
X57049Y-33000D01*
X57050Y-33000D01*
X57050Y-31800D01*
X57034Y-31723D01*
X57034Y-31723D01*
X56991Y-31658D01*
X56630Y-31297D01*
X56630Y-31254D01*
X56557Y-31078D01*
X56428Y-30950D01*
X58171Y-30950D01*
X58043Y-31077D01*
X57970Y-31254D01*
X57969Y-31445D01*
X58042Y-31621D01*
X58177Y-31756D01*
X58354Y-31829D01*
X58545Y-31830D01*
X58721Y-31757D01*
X58856Y-31622D01*
X58929Y-31445D01*
X58930Y-31254D01*
X58857Y-31078D01*
X58728Y-30950D01*
X59967Y-30950D01*
X60199Y-31182D01*
X60170Y-31254D01*
X60169Y-31445D01*
X60242Y-31621D01*
X60377Y-31756D01*
X60554Y-31829D01*
X60745Y-31830D01*
X60921Y-31757D01*
X61056Y-31622D01*
X61129Y-31445D01*
X61130Y-31254D01*
X61057Y-31078D01*
X60922Y-30943D01*
X60745Y-30870D01*
X60554Y-30869D01*
X60482Y-30899D01*
X60282Y-30700D01*
X64117Y-30700D01*
X64599Y-31182D01*
X64570Y-31254D01*
X64569Y-31445D01*
X64642Y-31621D01*
X64777Y-31756D01*
X64954Y-31829D01*
X65145Y-31830D01*
X65321Y-31757D01*
X65456Y-31622D01*
X65529Y-31445D01*
X65530Y-31254D01*
X65457Y-31078D01*
X65322Y-30943D01*
X65145Y-30870D01*
X64954Y-30869D01*
X64882Y-30899D01*
X64432Y-30450D01*
X68267Y-30450D01*
X68999Y-31182D01*
X68970Y-31254D01*
X68969Y-31445D01*
X69042Y-31621D01*
X69177Y-31756D01*
X69354Y-31829D01*
X69545Y-31830D01*
X69721Y-31757D01*
X69856Y-31622D01*
X69929Y-31445D01*
X69930Y-31254D01*
X69930Y-32254D01*
X69857Y-32078D01*
X69722Y-31943D01*
X69545Y-31870D01*
X69354Y-31869D01*
X69178Y-31942D01*
X69043Y-32077D01*
X68970Y-32254D01*
X68969Y-32445D01*
X69042Y-32621D01*
X69177Y-32756D01*
X69354Y-32829D01*
X69545Y-32830D01*
X69721Y-32757D01*
X69856Y-32622D01*
X69929Y-32445D01*
X69930Y-32254D01*
X69930Y-34373D01*
X69911Y-34328D01*
X69758Y-34175D01*
X69558Y-34092D01*
X69342Y-34092D01*
X69142Y-34174D01*
X68989Y-34327D01*
X68906Y-34527D01*
X68906Y-34743D01*
X68988Y-34943D01*
X69141Y-35096D01*
X69218Y-35128D01*
X69111Y-35235D01*
X69099Y-35262D01*
X68927Y-35262D01*
X68850Y-35277D01*
X68829Y-35292D01*
X68785Y-35321D01*
X68458Y-35648D01*
X68415Y-35713D01*
X68400Y-35790D01*
X68400Y-36312D01*
X68400Y-39100D01*
X68400Y-40267D01*
X67567Y-41100D01*
X65982Y-41100D01*
X66491Y-40591D01*
X66491Y-40591D01*
X66520Y-40548D01*
X66534Y-40526D01*
X66534Y-40526D01*
X66549Y-40450D01*
X66550Y-40450D01*
X66550Y-40150D01*
X66550Y-38900D01*
X66550Y-36362D01*
X66550Y-35832D01*
X66720Y-35662D01*
X66899Y-35662D01*
X66910Y-35688D01*
X67023Y-35801D01*
X67155Y-35856D01*
X67023Y-35910D01*
X66911Y-36023D01*
X66850Y-36170D01*
X66849Y-36329D01*
X66910Y-36476D01*
X67023Y-36588D01*
X67155Y-36643D01*
X67023Y-36698D01*
X66911Y-36810D01*
X66850Y-36957D01*
X66849Y-37116D01*
X66910Y-37263D01*
X67018Y-37371D01*
X66942Y-37402D01*
X66789Y-37555D01*
X66706Y-37755D01*
X66706Y-37971D01*
X66788Y-38171D01*
X66941Y-38324D01*
X67141Y-38407D01*
X67357Y-38407D01*
X67557Y-38325D01*
X67710Y-38172D01*
X67793Y-37972D01*
X67793Y-37756D01*
X67711Y-37556D01*
X67558Y-37403D01*
X67481Y-37371D01*
X67588Y-37264D01*
X67649Y-37117D01*
X67650Y-36958D01*
X67589Y-36811D01*
X67476Y-36698D01*
X67344Y-36643D01*
X67476Y-36589D01*
X67588Y-36476D01*
X67649Y-36329D01*
X67650Y-36170D01*
X67589Y-36023D01*
X67476Y-35911D01*
X67344Y-35856D01*
X67476Y-35801D01*
X67588Y-35689D01*
X67649Y-35542D01*
X67650Y-35383D01*
X67589Y-35236D01*
X67481Y-35128D01*
X67557Y-35097D01*
X67710Y-34944D01*
X67793Y-34744D01*
X67793Y-34528D01*
X67730Y-34373D01*
X67730Y-32254D01*
X67730Y-31254D01*
X67657Y-31078D01*
X67522Y-30943D01*
X67345Y-30870D01*
X67154Y-30869D01*
X66978Y-30942D01*
X66843Y-31077D01*
X66770Y-31254D01*
X66769Y-31445D01*
X66842Y-31621D01*
X66977Y-31756D01*
X67154Y-31829D01*
X67345Y-31830D01*
X67521Y-31757D01*
X67656Y-31622D01*
X67729Y-31445D01*
X67730Y-31254D01*
X67730Y-32254D01*
X67657Y-32078D01*
X67522Y-31943D01*
X67345Y-31870D01*
X67154Y-31869D01*
X66978Y-31942D01*
X66843Y-32077D01*
X66770Y-32254D01*
X66769Y-32445D01*
X66842Y-32621D01*
X66977Y-32756D01*
X67154Y-32829D01*
X67345Y-32830D01*
X67521Y-32757D01*
X67656Y-32622D01*
X67729Y-32445D01*
X67730Y-32254D01*
X67730Y-34373D01*
X67711Y-34328D01*
X67558Y-34175D01*
X67358Y-34092D01*
X67142Y-34092D01*
X66942Y-34174D01*
X66789Y-34327D01*
X66706Y-34527D01*
X66706Y-34743D01*
X66788Y-34943D01*
X66941Y-35096D01*
X67018Y-35128D01*
X66911Y-35235D01*
X66899Y-35262D01*
X66637Y-35262D01*
X66560Y-35277D01*
X66539Y-35292D01*
X66495Y-35321D01*
X66208Y-35608D01*
X66165Y-35673D01*
X66150Y-35750D01*
X66150Y-36362D01*
X66150Y-38900D01*
X66150Y-40150D01*
X66150Y-40367D01*
X65667Y-40850D01*
X63782Y-40850D01*
X64291Y-40341D01*
X64291Y-40341D01*
X64320Y-40298D01*
X64334Y-40276D01*
X64334Y-40276D01*
X64349Y-40200D01*
X64350Y-40200D01*
X64350Y-38950D01*
X64350Y-36370D01*
X64350Y-36362D01*
X64350Y-36250D01*
X64350Y-35832D01*
X64520Y-35662D01*
X64699Y-35662D01*
X64710Y-35688D01*
X64823Y-35801D01*
X64955Y-35856D01*
X64823Y-35910D01*
X64711Y-36023D01*
X64650Y-36170D01*
X64649Y-36329D01*
X64710Y-36476D01*
X64823Y-36588D01*
X64955Y-36643D01*
X64823Y-36698D01*
X64711Y-36810D01*
X64650Y-36957D01*
X64649Y-37116D01*
X64710Y-37263D01*
X64818Y-37371D01*
X64742Y-37402D01*
X64589Y-37555D01*
X64506Y-37755D01*
X64506Y-37971D01*
X64588Y-38171D01*
X64741Y-38324D01*
X64941Y-38407D01*
X65157Y-38407D01*
X65357Y-38325D01*
X65510Y-38172D01*
X65593Y-37972D01*
X65593Y-37756D01*
X65511Y-37556D01*
X65358Y-37403D01*
X65281Y-37371D01*
X65388Y-37264D01*
X65449Y-37117D01*
X65450Y-36958D01*
X65389Y-36811D01*
X65276Y-36698D01*
X65144Y-36643D01*
X65276Y-36589D01*
X65388Y-36476D01*
X65449Y-36329D01*
X65450Y-36170D01*
X65389Y-36023D01*
X65276Y-35911D01*
X65144Y-35856D01*
X65276Y-35801D01*
X65388Y-35689D01*
X65449Y-35542D01*
X65450Y-35383D01*
X65389Y-35236D01*
X65281Y-35128D01*
X65357Y-35097D01*
X65510Y-34944D01*
X65593Y-34744D01*
X65593Y-34528D01*
X65530Y-34373D01*
X65530Y-32254D01*
X65457Y-32078D01*
X65322Y-31943D01*
X65145Y-31870D01*
X64954Y-31869D01*
X64778Y-31942D01*
X64643Y-32077D01*
X64570Y-32254D01*
X64569Y-32445D01*
X64642Y-32621D01*
X64777Y-32756D01*
X64954Y-32829D01*
X65145Y-32830D01*
X65321Y-32757D01*
X65456Y-32622D01*
X65529Y-32445D01*
X65530Y-32254D01*
X65530Y-34373D01*
X65511Y-34328D01*
X65358Y-34175D01*
X65158Y-34092D01*
X64942Y-34092D01*
X64742Y-34174D01*
X64589Y-34327D01*
X64506Y-34527D01*
X64506Y-34743D01*
X64588Y-34943D01*
X64741Y-35096D01*
X64818Y-35128D01*
X64711Y-35235D01*
X64699Y-35262D01*
X64437Y-35262D01*
X64360Y-35277D01*
X64339Y-35292D01*
X64295Y-35321D01*
X64008Y-35608D01*
X63965Y-35673D01*
X63950Y-35750D01*
X63950Y-36250D01*
X63950Y-36362D01*
X63950Y-36370D01*
X63950Y-38950D01*
X63950Y-40117D01*
X63467Y-40600D01*
X61582Y-40600D01*
X62091Y-40091D01*
X62091Y-40091D01*
X62120Y-40048D01*
X62134Y-40026D01*
X62134Y-40026D01*
X62149Y-39950D01*
X62150Y-39950D01*
X62150Y-38650D01*
X62150Y-36362D01*
X62150Y-35892D01*
X62380Y-35662D01*
X62499Y-35662D01*
X62510Y-35688D01*
X62623Y-35801D01*
X62755Y-35856D01*
X62623Y-35910D01*
X62511Y-36023D01*
X62450Y-36170D01*
X62449Y-36329D01*
X62510Y-36476D01*
X62623Y-36588D01*
X62755Y-36643D01*
X62623Y-36698D01*
X62511Y-36810D01*
X62450Y-36957D01*
X62449Y-37116D01*
X62510Y-37263D01*
X62618Y-37371D01*
X62542Y-37402D01*
X62389Y-37555D01*
X62306Y-37755D01*
X62306Y-37971D01*
X62388Y-38171D01*
X62541Y-38324D01*
X62741Y-38407D01*
X62957Y-38407D01*
X63157Y-38325D01*
X63310Y-38172D01*
X63393Y-37972D01*
X63393Y-37756D01*
X63311Y-37556D01*
X63158Y-37403D01*
X63081Y-37371D01*
X63188Y-37264D01*
X63249Y-37117D01*
X63250Y-36958D01*
X63189Y-36811D01*
X63076Y-36698D01*
X62944Y-36643D01*
X63076Y-36589D01*
X63188Y-36476D01*
X63249Y-36329D01*
X63250Y-36170D01*
X63189Y-36023D01*
X63076Y-35911D01*
X62944Y-35856D01*
X63076Y-35801D01*
X63188Y-35689D01*
X63249Y-35542D01*
X63250Y-35383D01*
X63189Y-35236D01*
X63081Y-35128D01*
X63157Y-35097D01*
X63310Y-34944D01*
X63393Y-34744D01*
X63393Y-34528D01*
X63330Y-34373D01*
X63330Y-32254D01*
X63330Y-31254D01*
X63257Y-31078D01*
X63122Y-30943D01*
X62945Y-30870D01*
X62754Y-30869D01*
X62578Y-30942D01*
X62443Y-31077D01*
X62370Y-31254D01*
X62369Y-31445D01*
X62442Y-31621D01*
X62577Y-31756D01*
X62754Y-31829D01*
X62945Y-31830D01*
X63121Y-31757D01*
X63256Y-31622D01*
X63329Y-31445D01*
X63330Y-31254D01*
X63330Y-32254D01*
X63257Y-32078D01*
X63122Y-31943D01*
X62945Y-31870D01*
X62754Y-31869D01*
X62578Y-31942D01*
X62443Y-32077D01*
X62370Y-32254D01*
X62369Y-32445D01*
X62442Y-32621D01*
X62577Y-32756D01*
X62754Y-32829D01*
X62945Y-32830D01*
X63121Y-32757D01*
X63256Y-32622D01*
X63329Y-32445D01*
X63330Y-32254D01*
X63330Y-34373D01*
X63311Y-34328D01*
X63158Y-34175D01*
X62958Y-34092D01*
X62742Y-34092D01*
X62542Y-34174D01*
X62389Y-34327D01*
X62306Y-34527D01*
X62306Y-34743D01*
X62388Y-34943D01*
X62541Y-35096D01*
X62618Y-35128D01*
X62511Y-35235D01*
X62499Y-35262D01*
X62297Y-35262D01*
X62220Y-35277D01*
X62155Y-35321D01*
X61808Y-35668D01*
X61765Y-35733D01*
X61750Y-35810D01*
X61750Y-36362D01*
X61750Y-38650D01*
X61750Y-39867D01*
X61267Y-40350D01*
X59328Y-40350D01*
X59341Y-40341D01*
X59991Y-39691D01*
X59991Y-39691D01*
X60020Y-39648D01*
X60034Y-39626D01*
X60034Y-39626D01*
X60049Y-39550D01*
X60050Y-39550D01*
X60050Y-38300D01*
X60050Y-35950D01*
X60050Y-35772D01*
X60160Y-35662D01*
X60299Y-35662D01*
X60310Y-35688D01*
X60423Y-35801D01*
X60555Y-35856D01*
X60423Y-35910D01*
X60311Y-36023D01*
X60250Y-36170D01*
X60249Y-36329D01*
X60310Y-36476D01*
X60423Y-36588D01*
X60555Y-36643D01*
X60423Y-36698D01*
X60311Y-36810D01*
X60250Y-36957D01*
X60249Y-37116D01*
X60310Y-37263D01*
X60418Y-37371D01*
X60342Y-37402D01*
X60189Y-37555D01*
X60106Y-37755D01*
X60106Y-37971D01*
X60188Y-38171D01*
X60341Y-38324D01*
X60541Y-38407D01*
X60757Y-38407D01*
X60957Y-38325D01*
X61110Y-38172D01*
X61193Y-37972D01*
X61193Y-37756D01*
X61111Y-37556D01*
X60958Y-37403D01*
X60881Y-37371D01*
X60988Y-37264D01*
X61049Y-37117D01*
X61050Y-36958D01*
X60989Y-36811D01*
X60876Y-36698D01*
X60744Y-36643D01*
X60876Y-36589D01*
X60988Y-36476D01*
X61049Y-36329D01*
X61050Y-36170D01*
X60989Y-36023D01*
X60876Y-35911D01*
X60744Y-35856D01*
X60876Y-35801D01*
X60988Y-35689D01*
X61049Y-35542D01*
X61050Y-35383D01*
X60989Y-35236D01*
X60881Y-35128D01*
X60957Y-35097D01*
X61110Y-34944D01*
X61193Y-34744D01*
X61193Y-34528D01*
X61130Y-34373D01*
X61130Y-32254D01*
X61057Y-32078D01*
X60922Y-31943D01*
X60745Y-31870D01*
X60554Y-31869D01*
X60378Y-31942D01*
X60243Y-32077D01*
X60170Y-32254D01*
X60169Y-32445D01*
X60242Y-32621D01*
X60377Y-32756D01*
X60554Y-32829D01*
X60745Y-32830D01*
X60921Y-32757D01*
X61056Y-32622D01*
X61129Y-32445D01*
X61130Y-32254D01*
X61130Y-34373D01*
X61111Y-34328D01*
X60958Y-34175D01*
X60758Y-34092D01*
X60542Y-34092D01*
X60342Y-34174D01*
X60189Y-34327D01*
X60106Y-34527D01*
X60106Y-34743D01*
X60188Y-34943D01*
X60341Y-35096D01*
X60418Y-35128D01*
X60311Y-35235D01*
X60299Y-35262D01*
X60077Y-35262D01*
X60000Y-35277D01*
X59979Y-35292D01*
X59935Y-35321D01*
X59708Y-35548D01*
X59665Y-35613D01*
X59650Y-35690D01*
X59650Y-35950D01*
X59650Y-38300D01*
X59650Y-39467D01*
X59117Y-40000D01*
X54400Y-40000D01*
X54323Y-40015D01*
X54258Y-40058D01*
X54200Y-40117D01*
X54200Y-38200D01*
X54200Y-37962D01*
X54137Y-37900D01*
X53700Y-37900D01*
X53700Y-38437D01*
X53762Y-38500D01*
X53999Y-38500D01*
X54091Y-38462D01*
X54161Y-38391D01*
X54199Y-38299D01*
X54200Y-38200D01*
X54200Y-40117D01*
X53992Y-40325D01*
X53885Y-40324D01*
X53766Y-40374D01*
X53674Y-40465D01*
X53625Y-40585D01*
X53625Y-40642D01*
X53600Y-40617D01*
X53600Y-38437D01*
X53600Y-37900D01*
X53600Y-37800D01*
X53600Y-37437D01*
X53600Y-37262D01*
X53600Y-36900D01*
X53600Y-36800D01*
X53600Y-36262D01*
X53537Y-36200D01*
X53300Y-36199D01*
X53208Y-36237D01*
X53138Y-36308D01*
X53100Y-36400D01*
X53099Y-36499D01*
X53100Y-36737D01*
X53162Y-36800D01*
X53600Y-36800D01*
X53600Y-36900D01*
X53162Y-36900D01*
X53100Y-36962D01*
X53099Y-37200D01*
X53100Y-37299D01*
X53120Y-37350D01*
X53100Y-37400D01*
X53099Y-37499D01*
X53100Y-37737D01*
X53162Y-37800D01*
X53600Y-37800D01*
X53600Y-37900D01*
X53162Y-37900D01*
X53100Y-37962D01*
X53099Y-38200D01*
X53100Y-38299D01*
X53138Y-38391D01*
X53208Y-38462D01*
X53300Y-38500D01*
X53537Y-38500D01*
X53600Y-38437D01*
X53600Y-40617D01*
X53552Y-40569D01*
X53574Y-40514D01*
X53575Y-40385D01*
X53525Y-40266D01*
X53434Y-40174D01*
X53314Y-40125D01*
X53185Y-40124D01*
X53066Y-40174D01*
X52974Y-40265D01*
X52925Y-40385D01*
X52925Y-40442D01*
X52900Y-40417D01*
X52900Y-40309D01*
X52925Y-40284D01*
X52974Y-40164D01*
X52975Y-40035D01*
X52925Y-39916D01*
X52834Y-39824D01*
X52800Y-39810D01*
X52800Y-38220D01*
X52800Y-37420D01*
X52777Y-37365D01*
X52762Y-37350D01*
X52777Y-37335D01*
X52799Y-37279D01*
X52800Y-37220D01*
X52800Y-36420D01*
X52777Y-36365D01*
X52735Y-36322D01*
X52679Y-36300D01*
X52620Y-36299D01*
X52082Y-36299D01*
X51691Y-35908D01*
X51626Y-35865D01*
X51550Y-35850D01*
X51436Y-35850D01*
X51407Y-35778D01*
X51272Y-35643D01*
X51095Y-35570D01*
X50904Y-35569D01*
X50728Y-35642D01*
X50593Y-35777D01*
X50520Y-35954D01*
X50519Y-36145D01*
X50592Y-36321D01*
X50727Y-36456D01*
X50904Y-36529D01*
X51095Y-36530D01*
X51271Y-36457D01*
X51406Y-36322D01*
X51436Y-36250D01*
X51467Y-36250D01*
X51899Y-36682D01*
X51899Y-37279D01*
X51922Y-37334D01*
X51937Y-37349D01*
X51922Y-37364D01*
X51900Y-37420D01*
X51899Y-37479D01*
X51899Y-38017D01*
X51447Y-38469D01*
X51322Y-38343D01*
X51145Y-38270D01*
X50954Y-38269D01*
X50778Y-38342D01*
X50643Y-38477D01*
X50570Y-38654D01*
X50569Y-38845D01*
X50642Y-39021D01*
X50777Y-39156D01*
X50954Y-39229D01*
X51145Y-39230D01*
X51321Y-39157D01*
X51456Y-39022D01*
X51489Y-38942D01*
X51526Y-38934D01*
X51591Y-38891D01*
X52082Y-38400D01*
X52679Y-38400D01*
X52734Y-38377D01*
X52777Y-38335D01*
X52799Y-38279D01*
X52800Y-38220D01*
X52800Y-39810D01*
X52714Y-39775D01*
X52585Y-39774D01*
X52466Y-39824D01*
X52374Y-39915D01*
X52375Y-39835D01*
X52325Y-39716D01*
X52234Y-39624D01*
X52114Y-39575D01*
X51985Y-39574D01*
X51907Y-39607D01*
X51924Y-39564D01*
X51925Y-39435D01*
X51875Y-39316D01*
X51784Y-39224D01*
X51664Y-39175D01*
X51535Y-39174D01*
X51416Y-39224D01*
X51324Y-39315D01*
X51275Y-39435D01*
X51274Y-39564D01*
X51294Y-39611D01*
X51141Y-39458D01*
X51076Y-39415D01*
X51000Y-39400D01*
X50530Y-39400D01*
X50530Y-38654D01*
X50480Y-38533D01*
X50480Y-35954D01*
X50407Y-35778D01*
X50272Y-35643D01*
X50095Y-35570D01*
X49904Y-35569D01*
X49728Y-35642D01*
X49593Y-35777D01*
X49520Y-35954D01*
X49519Y-36145D01*
X49592Y-36321D01*
X49727Y-36456D01*
X49904Y-36529D01*
X50095Y-36530D01*
X50271Y-36457D01*
X50406Y-36322D01*
X50479Y-36145D01*
X50480Y-35954D01*
X50480Y-38533D01*
X50457Y-38478D01*
X50322Y-38343D01*
X50145Y-38270D01*
X49954Y-38269D01*
X49778Y-38342D01*
X49643Y-38477D01*
X49613Y-38550D01*
X49254Y-38550D01*
X49254Y-37031D01*
X49243Y-36813D01*
X49181Y-36662D01*
X49085Y-36634D01*
X49015Y-36705D01*
X49015Y-36564D01*
X48987Y-36468D01*
X48781Y-36395D01*
X48563Y-36406D01*
X48412Y-36468D01*
X48384Y-36564D01*
X48700Y-36879D01*
X49015Y-36564D01*
X49015Y-36705D01*
X48770Y-36950D01*
X49085Y-37265D01*
X49181Y-37237D01*
X49254Y-37031D01*
X49254Y-38550D01*
X49150Y-38550D01*
X49150Y-37860D01*
X49081Y-37695D01*
X48955Y-37568D01*
X48789Y-37500D01*
X48713Y-37500D01*
X48836Y-37493D01*
X48987Y-37431D01*
X49015Y-37335D01*
X48700Y-37020D01*
X48629Y-37091D01*
X48629Y-36950D01*
X48314Y-36634D01*
X48218Y-36662D01*
X48148Y-36857D01*
X48081Y-36695D01*
X47955Y-36568D01*
X47789Y-36500D01*
X47610Y-36499D01*
X47445Y-36568D01*
X47318Y-36694D01*
X47250Y-36860D01*
X47249Y-37039D01*
X47318Y-37204D01*
X47444Y-37331D01*
X47610Y-37399D01*
X47789Y-37400D01*
X47954Y-37331D01*
X48081Y-37205D01*
X48149Y-37039D01*
X48149Y-36963D01*
X48156Y-37086D01*
X48218Y-37237D01*
X48314Y-37265D01*
X48629Y-36950D01*
X48629Y-37091D01*
X48384Y-37335D01*
X48412Y-37431D01*
X48607Y-37501D01*
X48445Y-37568D01*
X48318Y-37694D01*
X48250Y-37860D01*
X48249Y-38039D01*
X48318Y-38204D01*
X48444Y-38331D01*
X48610Y-38399D01*
X48789Y-38400D01*
X48954Y-38331D01*
X49081Y-38205D01*
X49149Y-38039D01*
X49150Y-37860D01*
X49150Y-38550D01*
X48482Y-38550D01*
X48097Y-38165D01*
X48149Y-38039D01*
X48150Y-37860D01*
X48081Y-37695D01*
X47955Y-37568D01*
X47789Y-37500D01*
X47610Y-37499D01*
X47445Y-37568D01*
X47318Y-37694D01*
X47250Y-37860D01*
X47249Y-38039D01*
X47318Y-38204D01*
X47444Y-38331D01*
X47610Y-38399D01*
X47767Y-38400D01*
X48258Y-38891D01*
X48258Y-38891D01*
X48301Y-38920D01*
X48323Y-38934D01*
X48323Y-38934D01*
X48399Y-38949D01*
X48400Y-38950D01*
X49613Y-38950D01*
X49642Y-39021D01*
X49777Y-39156D01*
X49954Y-39229D01*
X50145Y-39230D01*
X50321Y-39157D01*
X50456Y-39022D01*
X50529Y-38845D01*
X50530Y-38654D01*
X50530Y-39400D01*
X48482Y-39400D01*
X47141Y-38059D01*
X47149Y-38039D01*
X47150Y-37860D01*
X47150Y-36860D01*
X47081Y-36695D01*
X46955Y-36568D01*
X46900Y-36545D01*
X46900Y-32000D01*
X46884Y-31923D01*
X46884Y-31923D01*
X46870Y-31901D01*
X46841Y-31858D01*
X46841Y-31858D01*
X45741Y-30758D01*
X45676Y-30715D01*
X45600Y-30700D01*
X44947Y-30700D01*
X44955Y-30691D01*
X44993Y-30599D01*
X44993Y-30200D01*
X44955Y-30108D01*
X44885Y-30038D01*
X44793Y-30000D01*
X44694Y-29999D01*
X44462Y-30000D01*
X44400Y-30062D01*
X44400Y-30350D01*
X44931Y-30350D01*
X44993Y-30287D01*
X44993Y-30200D01*
X44993Y-30599D01*
X44993Y-30512D01*
X44931Y-30450D01*
X44400Y-30450D01*
X44400Y-30457D01*
X44300Y-30457D01*
X44300Y-30450D01*
X44300Y-30350D01*
X44300Y-30062D01*
X44237Y-30000D01*
X44005Y-29999D01*
X43906Y-30000D01*
X43814Y-30038D01*
X43744Y-30108D01*
X43706Y-30200D01*
X43706Y-30287D01*
X43768Y-30350D01*
X44300Y-30350D01*
X44300Y-30450D01*
X43768Y-30450D01*
X43706Y-30512D01*
X43706Y-30599D01*
X43744Y-30691D01*
X43806Y-30753D01*
X43806Y-30779D01*
X43806Y-31079D01*
X43829Y-31134D01*
X43844Y-31149D01*
X43829Y-31164D01*
X43806Y-31220D01*
X43806Y-31279D01*
X43806Y-31579D01*
X43829Y-31634D01*
X43844Y-31649D01*
X43829Y-31664D01*
X43806Y-31720D01*
X43806Y-31779D01*
X43806Y-32079D01*
X43829Y-32134D01*
X43844Y-32149D01*
X43829Y-32164D01*
X43806Y-32220D01*
X43806Y-32279D01*
X43806Y-32579D01*
X43829Y-32634D01*
X43844Y-32649D01*
X43829Y-32664D01*
X43806Y-32720D01*
X43806Y-32779D01*
X43806Y-33079D01*
X43829Y-33134D01*
X43844Y-33149D01*
X43829Y-33164D01*
X43806Y-33220D01*
X43806Y-33279D01*
X43806Y-33579D01*
X43829Y-33634D01*
X43844Y-33649D01*
X43829Y-33664D01*
X43806Y-33720D01*
X43806Y-33779D01*
X43806Y-34079D01*
X43829Y-34134D01*
X43843Y-34149D01*
X43828Y-34164D01*
X43814Y-34200D01*
X43157Y-34200D01*
X43157Y-32192D01*
X43075Y-31992D01*
X42922Y-31839D01*
X42722Y-31756D01*
X42506Y-31756D01*
X42306Y-31838D01*
X42153Y-31991D01*
X42121Y-32068D01*
X42014Y-31961D01*
X41867Y-31900D01*
X41708Y-31899D01*
X41561Y-31960D01*
X41451Y-32070D01*
X41439Y-32042D01*
X41349Y-32021D01*
X41278Y-32091D01*
X41278Y-31950D01*
X41257Y-31860D01*
X41069Y-31795D01*
X40871Y-31806D01*
X40742Y-31860D01*
X40721Y-31950D01*
X41000Y-32229D01*
X41278Y-31950D01*
X41278Y-32091D01*
X41070Y-32300D01*
X41349Y-32578D01*
X41439Y-32557D01*
X41450Y-32528D01*
X41560Y-32638D01*
X41707Y-32699D01*
X41866Y-32700D01*
X42013Y-32639D01*
X42121Y-32531D01*
X42152Y-32607D01*
X42305Y-32760D01*
X42505Y-32843D01*
X42721Y-32843D01*
X42921Y-32761D01*
X43074Y-32608D01*
X43157Y-32408D01*
X43157Y-32192D01*
X43157Y-34200D01*
X41278Y-34200D01*
X41278Y-32649D01*
X41000Y-32370D01*
X40929Y-32441D01*
X40929Y-32300D01*
X40650Y-32021D01*
X40560Y-32042D01*
X40549Y-32071D01*
X40439Y-31961D01*
X40292Y-31900D01*
X40133Y-31899D01*
X39986Y-31960D01*
X39878Y-32068D01*
X39847Y-31992D01*
X39694Y-31839D01*
X39494Y-31756D01*
X39278Y-31756D01*
X39078Y-31838D01*
X38925Y-31991D01*
X38842Y-32191D01*
X38842Y-32407D01*
X38924Y-32607D01*
X39077Y-32760D01*
X39277Y-32843D01*
X39493Y-32843D01*
X39693Y-32761D01*
X39846Y-32608D01*
X39878Y-32531D01*
X39985Y-32638D01*
X40132Y-32699D01*
X40291Y-32700D01*
X40438Y-32639D01*
X40548Y-32529D01*
X40560Y-32557D01*
X40650Y-32578D01*
X40929Y-32300D01*
X40929Y-32441D01*
X40721Y-32649D01*
X40742Y-32739D01*
X40930Y-32804D01*
X41128Y-32793D01*
X41257Y-32739D01*
X41278Y-32649D01*
X41278Y-34200D01*
X40550Y-34200D01*
X40473Y-34215D01*
X40408Y-34258D01*
X39558Y-35108D01*
X39515Y-35173D01*
X39500Y-35250D01*
X39500Y-36499D01*
X39370Y-36499D01*
X39315Y-36522D01*
X39272Y-36564D01*
X39250Y-36620D01*
X39249Y-36679D01*
X39249Y-37279D01*
X39272Y-37334D01*
X39314Y-37377D01*
X39370Y-37399D01*
X39429Y-37400D01*
X40029Y-37400D01*
X40084Y-37377D01*
X40127Y-37335D01*
X40149Y-37279D01*
X40150Y-37220D01*
X40150Y-36620D01*
X40127Y-36565D01*
X40085Y-36522D01*
X40029Y-36500D01*
X39970Y-36499D01*
X39900Y-36499D01*
X39900Y-35332D01*
X40632Y-34600D01*
X43814Y-34600D01*
X43828Y-34634D01*
X43843Y-34650D01*
X41200Y-34650D01*
X41136Y-34662D01*
X41123Y-34665D01*
X41058Y-34708D01*
X40558Y-35208D01*
X40515Y-35273D01*
X40500Y-35350D01*
X40500Y-36545D01*
X40445Y-36568D01*
X40318Y-36694D01*
X40250Y-36860D01*
X40249Y-37039D01*
X40318Y-37204D01*
X40444Y-37331D01*
X40610Y-37399D01*
X40789Y-37400D01*
X40954Y-37331D01*
X41081Y-37205D01*
X41149Y-37039D01*
X41150Y-36860D01*
X41081Y-36695D01*
X40955Y-36568D01*
X40900Y-36545D01*
X40900Y-35432D01*
X41282Y-35050D01*
X41767Y-35050D01*
X41558Y-35258D01*
X41515Y-35323D01*
X41500Y-35400D01*
X41500Y-36545D01*
X41445Y-36568D01*
X41318Y-36694D01*
X41250Y-36860D01*
X41249Y-37039D01*
X41318Y-37204D01*
X41444Y-37331D01*
X41610Y-37399D01*
X41789Y-37400D01*
X41954Y-37331D01*
X42081Y-37205D01*
X42149Y-37039D01*
X42150Y-36860D01*
X42081Y-36695D01*
X41955Y-36568D01*
X41900Y-36545D01*
X41900Y-35482D01*
X42082Y-35300D01*
X42767Y-35300D01*
X42558Y-35508D01*
X42515Y-35573D01*
X42500Y-35650D01*
X42500Y-36545D01*
X42445Y-36568D01*
X42318Y-36694D01*
X42250Y-36860D01*
X42249Y-37039D01*
X42318Y-37204D01*
X42444Y-37331D01*
X42610Y-37399D01*
X42789Y-37400D01*
X42954Y-37331D01*
X43081Y-37205D01*
X43149Y-37039D01*
X43150Y-36860D01*
X43081Y-36695D01*
X42955Y-36568D01*
X42900Y-36545D01*
X42900Y-35732D01*
X43082Y-35550D01*
X43817Y-35550D01*
X43558Y-35808D01*
X43515Y-35873D01*
X43500Y-35950D01*
X43500Y-36545D01*
X43445Y-36568D01*
X43318Y-36694D01*
X43250Y-36860D01*
X43249Y-37039D01*
X43318Y-37204D01*
X43444Y-37331D01*
X43610Y-37399D01*
X43789Y-37400D01*
X43954Y-37331D01*
X44081Y-37205D01*
X44149Y-37039D01*
X44150Y-36860D01*
X44081Y-36695D01*
X43955Y-36568D01*
X43900Y-36545D01*
X43900Y-36032D01*
X44132Y-35800D01*
X44967Y-35800D01*
X44558Y-36208D01*
X44515Y-36273D01*
X44500Y-36350D01*
X44500Y-36545D01*
X44445Y-36568D01*
X44318Y-36694D01*
X44250Y-36860D01*
X44249Y-37039D01*
X44318Y-37204D01*
X44444Y-37331D01*
X44610Y-37399D01*
X44789Y-37400D01*
X44954Y-37331D01*
X45081Y-37205D01*
X45149Y-37039D01*
X45150Y-36860D01*
X45081Y-36695D01*
X44955Y-36568D01*
X44900Y-36545D01*
X44900Y-36432D01*
X45500Y-35832D01*
X45500Y-36545D01*
X45445Y-36568D01*
X45318Y-36694D01*
X45250Y-36860D01*
X45249Y-37039D01*
X45318Y-37204D01*
X45444Y-37331D01*
X45610Y-37399D01*
X45789Y-37400D01*
X45954Y-37331D01*
X46081Y-37205D01*
X46149Y-37039D01*
X46150Y-36860D01*
X46081Y-36695D01*
X45955Y-36568D01*
X45900Y-36545D01*
X45900Y-35782D01*
X46500Y-35182D01*
X46500Y-36545D01*
X46445Y-36568D01*
X46318Y-36694D01*
X46250Y-36860D01*
X46249Y-37039D01*
X46318Y-37204D01*
X46444Y-37331D01*
X46610Y-37399D01*
X46789Y-37400D01*
X46954Y-37331D01*
X47081Y-37205D01*
X47149Y-37039D01*
X47150Y-36860D01*
X47150Y-37860D01*
X47081Y-37695D01*
X46955Y-37568D01*
X46789Y-37500D01*
X46610Y-37499D01*
X46445Y-37568D01*
X46318Y-37694D01*
X46250Y-37860D01*
X46249Y-38039D01*
X46280Y-38112D01*
X45900Y-38492D01*
X45900Y-38354D01*
X45954Y-38331D01*
X46081Y-38205D01*
X46149Y-38039D01*
X46150Y-37860D01*
X46081Y-37695D01*
X45955Y-37568D01*
X45789Y-37500D01*
X45610Y-37499D01*
X45445Y-37568D01*
X45318Y-37694D01*
X45250Y-37860D01*
X45249Y-38039D01*
X45318Y-38204D01*
X45444Y-38331D01*
X45500Y-38354D01*
X45500Y-38442D01*
X44900Y-39042D01*
X44900Y-38354D01*
X44954Y-38331D01*
X45081Y-38205D01*
X45149Y-38039D01*
X45150Y-37860D01*
X45081Y-37695D01*
X44955Y-37568D01*
X44789Y-37500D01*
X44610Y-37499D01*
X44445Y-37568D01*
X44318Y-37694D01*
X44250Y-37860D01*
X44249Y-38039D01*
X44318Y-38204D01*
X44444Y-38331D01*
X44500Y-38354D01*
X44500Y-39067D01*
X43992Y-39575D01*
X43657Y-39575D01*
X43841Y-39391D01*
X43841Y-39391D01*
X43870Y-39348D01*
X43884Y-39326D01*
X43884Y-39326D01*
X43899Y-39249D01*
X43900Y-39249D01*
X43900Y-38354D01*
X43954Y-38331D01*
X44081Y-38205D01*
X44149Y-38039D01*
X44150Y-37860D01*
X44081Y-37695D01*
X43955Y-37568D01*
X43789Y-37500D01*
X43610Y-37499D01*
X43445Y-37568D01*
X43318Y-37694D01*
X43250Y-37860D01*
X43249Y-38039D01*
X43318Y-38204D01*
X43444Y-38331D01*
X43500Y-38354D01*
X43500Y-39167D01*
X43317Y-39350D01*
X42632Y-39350D01*
X42841Y-39141D01*
X42884Y-39076D01*
X42884Y-39076D01*
X42900Y-38999D01*
X42900Y-38354D01*
X42954Y-38331D01*
X43081Y-38205D01*
X43149Y-38039D01*
X43150Y-37860D01*
X43081Y-37695D01*
X42955Y-37568D01*
X42789Y-37500D01*
X42610Y-37499D01*
X42445Y-37568D01*
X42318Y-37694D01*
X42250Y-37860D01*
X42249Y-38039D01*
X42318Y-38204D01*
X42444Y-38331D01*
X42500Y-38354D01*
X42500Y-38917D01*
X42292Y-39125D01*
X41232Y-39125D01*
X41841Y-38516D01*
X41841Y-38516D01*
X41884Y-38451D01*
X41884Y-38451D01*
X41887Y-38438D01*
X41899Y-38375D01*
X41900Y-38375D01*
X41900Y-38354D01*
X41954Y-38331D01*
X42081Y-38205D01*
X42149Y-38039D01*
X42150Y-37860D01*
X42081Y-37695D01*
X41955Y-37568D01*
X41789Y-37500D01*
X41610Y-37499D01*
X41445Y-37568D01*
X41318Y-37694D01*
X41250Y-37860D01*
X41249Y-38039D01*
X41318Y-38204D01*
X41444Y-38331D01*
X41456Y-38336D01*
X40900Y-38892D01*
X40900Y-38354D01*
X40954Y-38331D01*
X41081Y-38205D01*
X41149Y-38039D01*
X41150Y-37860D01*
X41081Y-37695D01*
X40955Y-37568D01*
X40789Y-37500D01*
X40610Y-37499D01*
X40445Y-37568D01*
X40318Y-37694D01*
X40250Y-37860D01*
X40249Y-38039D01*
X40318Y-38204D01*
X40444Y-38331D01*
X40500Y-38354D01*
X40500Y-38917D01*
X39900Y-39517D01*
X39900Y-38354D01*
X39954Y-38331D01*
X40081Y-38205D01*
X40149Y-38039D01*
X40150Y-37860D01*
X40081Y-37695D01*
X39955Y-37568D01*
X39789Y-37500D01*
X39610Y-37499D01*
X39445Y-37568D01*
X39318Y-37694D01*
X39250Y-37860D01*
X39249Y-38039D01*
X39318Y-38204D01*
X39444Y-38331D01*
X39500Y-38354D01*
X39500Y-42750D01*
X39515Y-42826D01*
X39558Y-42891D01*
X41183Y-44516D01*
X41183Y-44516D01*
X41226Y-44545D01*
X41248Y-44559D01*
X41248Y-44559D01*
X41325Y-44575D01*
X41389Y-44575D01*
X41403Y-44609D01*
X41445Y-44652D01*
X41500Y-44674D01*
X41560Y-44675D01*
X42348Y-44675D01*
X42403Y-44652D01*
X42445Y-44610D01*
X42468Y-44554D01*
X42468Y-44495D01*
X42468Y-44195D01*
X42445Y-44140D01*
X42430Y-44125D01*
X42445Y-44110D01*
X42468Y-44054D01*
X42468Y-43995D01*
X42468Y-43695D01*
X42445Y-43640D01*
X42430Y-43625D01*
X42445Y-43610D01*
X42468Y-43554D01*
X42468Y-43495D01*
X42468Y-43195D01*
X42445Y-43140D01*
X42430Y-43125D01*
X42445Y-43110D01*
X42468Y-43054D01*
X42468Y-42995D01*
X42468Y-42695D01*
X42445Y-42640D01*
X42430Y-42625D01*
X42445Y-42610D01*
X42468Y-42554D01*
X42468Y-42495D01*
X42468Y-42195D01*
X42445Y-42140D01*
X42430Y-42125D01*
X42445Y-42110D01*
X42468Y-42054D01*
X42468Y-41995D01*
X42468Y-41695D01*
X42445Y-41640D01*
X42430Y-41625D01*
X42445Y-41610D01*
X42468Y-41554D01*
X42468Y-41495D01*
X42468Y-41195D01*
X42445Y-41140D01*
X42430Y-41125D01*
X42445Y-41110D01*
X42460Y-41075D01*
X43800Y-41075D01*
X43876Y-41059D01*
X43941Y-41016D01*
X46573Y-38384D01*
X46610Y-38399D01*
X46789Y-38400D01*
X46879Y-38362D01*
X48258Y-39741D01*
X48323Y-39784D01*
X48400Y-39800D01*
X48845Y-39800D01*
X48790Y-39822D01*
X48747Y-39864D01*
X48725Y-39920D01*
X48724Y-39979D01*
X48724Y-40025D01*
X46600Y-40025D01*
X46523Y-40040D01*
X46501Y-40054D01*
X46458Y-40083D01*
X46268Y-40273D01*
X46217Y-40324D01*
X46206Y-40324D01*
X46268Y-40262D01*
X46268Y-40175D01*
X46230Y-40083D01*
X46160Y-40013D01*
X46068Y-39975D01*
X45969Y-39974D01*
X45737Y-39975D01*
X45675Y-40037D01*
X45675Y-40325D01*
X45682Y-40325D01*
X45682Y-40425D01*
X45675Y-40425D01*
X45675Y-40432D01*
X45575Y-40432D01*
X45575Y-40425D01*
X45575Y-40325D01*
X45575Y-40037D01*
X45512Y-39975D01*
X45280Y-39974D01*
X45181Y-39975D01*
X45089Y-40013D01*
X45019Y-40083D01*
X44981Y-40175D01*
X44981Y-40262D01*
X45043Y-40325D01*
X45575Y-40325D01*
X45575Y-40425D01*
X45043Y-40425D01*
X44981Y-40487D01*
X44981Y-40574D01*
X45019Y-40666D01*
X45081Y-40728D01*
X45081Y-40754D01*
X45081Y-41054D01*
X45104Y-41109D01*
X45119Y-41124D01*
X45104Y-41139D01*
X45081Y-41195D01*
X45081Y-41254D01*
X45081Y-41554D01*
X45104Y-41609D01*
X45119Y-41624D01*
X45104Y-41639D01*
X45081Y-41695D01*
X45081Y-41754D01*
X45081Y-42054D01*
X45104Y-42109D01*
X45119Y-42124D01*
X45104Y-42139D01*
X45081Y-42195D01*
X45081Y-42254D01*
X45081Y-42554D01*
X45104Y-42609D01*
X45119Y-42624D01*
X45104Y-42639D01*
X45081Y-42695D01*
X45081Y-42754D01*
X45081Y-43054D01*
X45104Y-43109D01*
X45119Y-43124D01*
X45104Y-43139D01*
X45081Y-43195D01*
X45081Y-43254D01*
X45081Y-43554D01*
X45104Y-43609D01*
X45119Y-43624D01*
X45104Y-43639D01*
X45081Y-43695D01*
X45081Y-43754D01*
X45081Y-44054D01*
X45104Y-44109D01*
X45119Y-44125D01*
X45104Y-44139D01*
X45081Y-44195D01*
X45081Y-44254D01*
X45081Y-44554D01*
X45104Y-44609D01*
X45146Y-44652D01*
X45201Y-44674D01*
X45261Y-44675D01*
X46048Y-44675D01*
X46103Y-44652D01*
X46146Y-44610D01*
X46160Y-44575D01*
X46574Y-44575D01*
X46574Y-44804D01*
X46597Y-44859D01*
X46639Y-44902D01*
X46695Y-44924D01*
X46754Y-44925D01*
X47354Y-44925D01*
X47409Y-44902D01*
X47452Y-44860D01*
X47474Y-44804D01*
X47475Y-44745D01*
X47475Y-44000D01*
X47874Y-44000D01*
X47874Y-44004D01*
X47874Y-44804D01*
X47897Y-44859D01*
X47939Y-44902D01*
X47995Y-44924D01*
X48054Y-44925D01*
X48654Y-44925D01*
X48709Y-44902D01*
X48752Y-44860D01*
X48774Y-44804D01*
X48775Y-44745D01*
X48775Y-44575D01*
X53542Y-44575D01*
X53575Y-44607D01*
X53574Y-44714D01*
X53624Y-44833D01*
X53715Y-44925D01*
X53835Y-44974D01*
X53964Y-44975D01*
X53975Y-44970D01*
X53974Y-45064D01*
X54024Y-45183D01*
X54115Y-45275D01*
X54235Y-45324D01*
X54364Y-45325D01*
X54483Y-45275D01*
X54575Y-45184D01*
X54624Y-45064D01*
X54625Y-44935D01*
X54575Y-44816D01*
X54484Y-44724D01*
X54450Y-44710D01*
X54450Y-44582D01*
X55208Y-45341D01*
X55208Y-45341D01*
X55251Y-45370D01*
X55273Y-45384D01*
X55273Y-45384D01*
X55349Y-45399D01*
X55350Y-45400D01*
X60440Y-45400D01*
X60510Y-45470D01*
X34250Y-45470D01*
X34250Y-29350D01*
X73150Y-29350D01*
X73150Y-45470D01*
X73150Y-45470D01*
G37*
G54D21*
X73150Y-45470D02*
X60889Y-45470D01*
X60975Y-45384D01*
X61024Y-45264D01*
X61025Y-45135D01*
X60989Y-45050D01*
X62560Y-45050D01*
X62574Y-45083D01*
X62665Y-45175D01*
X62785Y-45224D01*
X62914Y-45225D01*
X63033Y-45175D01*
X63125Y-45084D01*
X63174Y-44964D01*
X63175Y-44835D01*
X63139Y-44750D01*
X64739Y-44750D01*
X64774Y-44833D01*
X64865Y-44925D01*
X64985Y-44974D01*
X65114Y-44975D01*
X65233Y-44925D01*
X65325Y-44834D01*
X65374Y-44714D01*
X65375Y-44585D01*
X65339Y-44500D01*
X66939Y-44500D01*
X66974Y-44583D01*
X67065Y-44675D01*
X67185Y-44724D01*
X67314Y-44725D01*
X67433Y-44675D01*
X67525Y-44584D01*
X67574Y-44464D01*
X67575Y-44335D01*
X67525Y-44216D01*
X67509Y-44200D01*
X69124Y-44200D01*
X69124Y-44264D01*
X69174Y-44383D01*
X69265Y-44475D01*
X69385Y-44524D01*
X69514Y-44525D01*
X69633Y-44475D01*
X69725Y-44384D01*
X69774Y-44264D01*
X69775Y-44135D01*
X69725Y-44016D01*
X69659Y-43950D01*
X71100Y-43950D01*
X71176Y-43934D01*
X71241Y-43891D01*
X71482Y-43650D01*
X71554Y-43679D01*
X71745Y-43680D01*
X71921Y-43607D01*
X72056Y-43472D01*
X72129Y-43295D01*
X72130Y-43104D01*
X72130Y-42104D01*
X72057Y-41928D01*
X71922Y-41793D01*
X71745Y-41720D01*
X71554Y-41719D01*
X71378Y-41792D01*
X71243Y-41927D01*
X71170Y-42104D01*
X71169Y-42295D01*
X71242Y-42471D01*
X71377Y-42606D01*
X71554Y-42679D01*
X71745Y-42680D01*
X71921Y-42607D01*
X72056Y-42472D01*
X72129Y-42295D01*
X72130Y-42104D01*
X72130Y-43104D01*
X72057Y-42928D01*
X71922Y-42793D01*
X71745Y-42720D01*
X71554Y-42719D01*
X71378Y-42792D01*
X71243Y-42927D01*
X71170Y-43104D01*
X71169Y-43295D01*
X71199Y-43367D01*
X71017Y-43550D01*
X69778Y-43550D01*
X69856Y-43472D01*
X69929Y-43295D01*
X69930Y-43104D01*
X69857Y-42928D01*
X69722Y-42793D01*
X69545Y-42720D01*
X69354Y-42719D01*
X69178Y-42792D01*
X69043Y-42927D01*
X68970Y-43104D01*
X68969Y-43295D01*
X69042Y-43471D01*
X69121Y-43550D01*
X67578Y-43550D01*
X67656Y-43472D01*
X67729Y-43295D01*
X67730Y-43104D01*
X67657Y-42928D01*
X67522Y-42793D01*
X67345Y-42720D01*
X67154Y-42719D01*
X66978Y-42792D01*
X66843Y-42927D01*
X66770Y-43104D01*
X66769Y-43295D01*
X66842Y-43471D01*
X66921Y-43550D01*
X65378Y-43550D01*
X65456Y-43472D01*
X65529Y-43295D01*
X65530Y-43104D01*
X65457Y-42928D01*
X65322Y-42793D01*
X65145Y-42720D01*
X64954Y-42719D01*
X64778Y-42792D01*
X64643Y-42927D01*
X64570Y-43104D01*
X64569Y-43295D01*
X64642Y-43471D01*
X64721Y-43550D01*
X63178Y-43550D01*
X63256Y-43472D01*
X63329Y-43295D01*
X63330Y-43104D01*
X63257Y-42928D01*
X63122Y-42793D01*
X62945Y-42720D01*
X62754Y-42719D01*
X62578Y-42792D01*
X62443Y-42927D01*
X62370Y-43104D01*
X62369Y-43295D01*
X62442Y-43471D01*
X62521Y-43550D01*
X60978Y-43550D01*
X61056Y-43472D01*
X61129Y-43295D01*
X61130Y-43104D01*
X61057Y-42928D01*
X60922Y-42793D01*
X60745Y-42720D01*
X60554Y-42719D01*
X60378Y-42792D01*
X60243Y-42927D01*
X60170Y-43104D01*
X60169Y-43295D01*
X60242Y-43471D01*
X60321Y-43550D01*
X58778Y-43550D01*
X58856Y-43472D01*
X58929Y-43295D01*
X58930Y-43104D01*
X58857Y-42928D01*
X58722Y-42793D01*
X58545Y-42720D01*
X58354Y-42719D01*
X58178Y-42792D01*
X58043Y-42927D01*
X57970Y-43104D01*
X57969Y-43295D01*
X58042Y-43471D01*
X58121Y-43550D01*
X56378Y-43550D01*
X56456Y-43472D01*
X56529Y-43295D01*
X56530Y-43104D01*
X56457Y-42928D01*
X56322Y-42793D01*
X56145Y-42720D01*
X55954Y-42719D01*
X55778Y-42792D01*
X55643Y-42927D01*
X55570Y-43104D01*
X55569Y-43287D01*
X54816Y-42533D01*
X54776Y-42506D01*
X55532Y-41750D01*
X55882Y-41750D01*
X55778Y-41792D01*
X55643Y-41927D01*
X55570Y-42104D01*
X55569Y-42295D01*
X55642Y-42471D01*
X55777Y-42606D01*
X55954Y-42679D01*
X56145Y-42680D01*
X56321Y-42607D01*
X56456Y-42472D01*
X56529Y-42295D01*
X56530Y-42104D01*
X56457Y-41928D01*
X56322Y-41793D01*
X56217Y-41750D01*
X58282Y-41750D01*
X58178Y-41792D01*
X58043Y-41927D01*
X57970Y-42104D01*
X57969Y-42295D01*
X58042Y-42471D01*
X58177Y-42606D01*
X58354Y-42679D01*
X58545Y-42680D01*
X58721Y-42607D01*
X58856Y-42472D01*
X58929Y-42295D01*
X58930Y-42104D01*
X58857Y-41928D01*
X58722Y-41793D01*
X58617Y-41750D01*
X60482Y-41750D01*
X60378Y-41792D01*
X60243Y-41927D01*
X60170Y-42104D01*
X60169Y-42295D01*
X60242Y-42471D01*
X60377Y-42606D01*
X60554Y-42679D01*
X60745Y-42680D01*
X60921Y-42607D01*
X61056Y-42472D01*
X61129Y-42295D01*
X61130Y-42104D01*
X61057Y-41928D01*
X60922Y-41793D01*
X60817Y-41750D01*
X62682Y-41750D01*
X62578Y-41792D01*
X62443Y-41927D01*
X62370Y-42104D01*
X62369Y-42295D01*
X62442Y-42471D01*
X62577Y-42606D01*
X62754Y-42679D01*
X62945Y-42680D01*
X63121Y-42607D01*
X63256Y-42472D01*
X63329Y-42295D01*
X63330Y-42104D01*
X63257Y-41928D01*
X63122Y-41793D01*
X63017Y-41750D01*
X64882Y-41750D01*
X64778Y-41792D01*
X64643Y-41927D01*
X64570Y-42104D01*
X64569Y-42295D01*
X64642Y-42471D01*
X64777Y-42606D01*
X64954Y-42679D01*
X65145Y-42680D01*
X65321Y-42607D01*
X65456Y-42472D01*
X65529Y-42295D01*
X65530Y-42104D01*
X65457Y-41928D01*
X65322Y-41793D01*
X65217Y-41750D01*
X67082Y-41750D01*
X66978Y-41792D01*
X66843Y-41927D01*
X66770Y-42104D01*
X66769Y-42295D01*
X66842Y-42471D01*
X66977Y-42606D01*
X67154Y-42679D01*
X67345Y-42680D01*
X67521Y-42607D01*
X67656Y-42472D01*
X67729Y-42295D01*
X67730Y-42104D01*
X67657Y-41928D01*
X67522Y-41793D01*
X67417Y-41750D01*
X69282Y-41750D01*
X69178Y-41792D01*
X69043Y-41927D01*
X68970Y-42104D01*
X68969Y-42295D01*
X69042Y-42471D01*
X69177Y-42606D01*
X69354Y-42679D01*
X69545Y-42680D01*
X69721Y-42607D01*
X69856Y-42472D01*
X69929Y-42295D01*
X69930Y-42104D01*
X69857Y-41928D01*
X69722Y-41793D01*
X69617Y-41750D01*
X69800Y-41750D01*
X69876Y-41734D01*
X69941Y-41691D01*
X71041Y-40591D01*
X71041Y-40591D01*
X71070Y-40548D01*
X71084Y-40526D01*
X71084Y-40526D01*
X71099Y-40450D01*
X71100Y-40450D01*
X71100Y-39200D01*
X71100Y-36212D01*
X71100Y-35922D01*
X71322Y-35700D01*
X71423Y-35801D01*
X71555Y-35856D01*
X71423Y-35910D01*
X71311Y-36023D01*
X71250Y-36170D01*
X71249Y-36329D01*
X71310Y-36476D01*
X71423Y-36588D01*
X71555Y-36643D01*
X71423Y-36698D01*
X71311Y-36810D01*
X71250Y-36957D01*
X71249Y-37116D01*
X71310Y-37263D01*
X71418Y-37371D01*
X71342Y-37402D01*
X71189Y-37555D01*
X71106Y-37755D01*
X71106Y-37971D01*
X71188Y-38171D01*
X71341Y-38324D01*
X71541Y-38407D01*
X71757Y-38407D01*
X71957Y-38325D01*
X72110Y-38172D01*
X72193Y-37972D01*
X72193Y-37756D01*
X72111Y-37556D01*
X71958Y-37403D01*
X71881Y-37371D01*
X71988Y-37264D01*
X72049Y-37117D01*
X72050Y-36958D01*
X71989Y-36811D01*
X71876Y-36698D01*
X71744Y-36643D01*
X71876Y-36589D01*
X71988Y-36476D01*
X72049Y-36329D01*
X72050Y-36170D01*
X71989Y-36023D01*
X71876Y-35911D01*
X71744Y-35856D01*
X71876Y-35801D01*
X71988Y-35689D01*
X72049Y-35542D01*
X72050Y-35383D01*
X71989Y-35236D01*
X71881Y-35128D01*
X71957Y-35097D01*
X72110Y-34944D01*
X72193Y-34744D01*
X72193Y-34528D01*
X72130Y-34373D01*
X72130Y-32254D01*
X72130Y-31254D01*
X72057Y-31078D01*
X71922Y-30943D01*
X71745Y-30870D01*
X71554Y-30869D01*
X71378Y-30942D01*
X71243Y-31077D01*
X71170Y-31254D01*
X71169Y-31445D01*
X71242Y-31621D01*
X71377Y-31756D01*
X71554Y-31829D01*
X71745Y-31830D01*
X71921Y-31757D01*
X72056Y-31622D01*
X72129Y-31445D01*
X72130Y-31254D01*
X72130Y-32254D01*
X72057Y-32078D01*
X71922Y-31943D01*
X71745Y-31870D01*
X71554Y-31869D01*
X71378Y-31942D01*
X71243Y-32077D01*
X71170Y-32254D01*
X71169Y-32445D01*
X71242Y-32621D01*
X71377Y-32756D01*
X71554Y-32829D01*
X71745Y-32830D01*
X71921Y-32757D01*
X72056Y-32622D01*
X72129Y-32445D01*
X72130Y-32254D01*
X72130Y-34373D01*
X72111Y-34328D01*
X71958Y-34175D01*
X71758Y-34092D01*
X71542Y-34092D01*
X71342Y-34174D01*
X71189Y-34327D01*
X71106Y-34527D01*
X71106Y-34743D01*
X71188Y-34943D01*
X71341Y-35096D01*
X71418Y-35128D01*
X71311Y-35235D01*
X71299Y-35262D01*
X71277Y-35262D01*
X71200Y-35277D01*
X71135Y-35321D01*
X70758Y-35698D01*
X70715Y-35763D01*
X70700Y-35840D01*
X70700Y-36212D01*
X70700Y-39200D01*
X70700Y-40367D01*
X69717Y-41350D01*
X67882Y-41350D01*
X68741Y-40491D01*
X68784Y-40426D01*
X68784Y-40426D01*
X68787Y-40413D01*
X68799Y-40350D01*
X68800Y-40350D01*
X68800Y-39100D01*
X68800Y-36312D01*
X68800Y-35872D01*
X69010Y-35662D01*
X69099Y-35662D01*
X69110Y-35688D01*
X69223Y-35801D01*
X69355Y-35856D01*
X69223Y-35910D01*
X69111Y-36023D01*
X69050Y-36170D01*
X69049Y-36329D01*
X69110Y-36476D01*
X69223Y-36588D01*
X69355Y-36643D01*
X69223Y-36698D01*
X69111Y-36810D01*
X69050Y-36957D01*
X69049Y-37116D01*
X69110Y-37263D01*
X69218Y-37371D01*
X69142Y-37402D01*
X68989Y-37555D01*
X68906Y-37755D01*
X68906Y-37971D01*
X68988Y-38171D01*
X69141Y-38324D01*
X69341Y-38407D01*
X69557Y-38407D01*
X69757Y-38325D01*
X69910Y-38172D01*
X69993Y-37972D01*
X69993Y-37756D01*
X69911Y-37556D01*
X69758Y-37403D01*
X69681Y-37371D01*
X69788Y-37264D01*
X69849Y-37117D01*
X69850Y-36958D01*
X69789Y-36811D01*
X69676Y-36698D01*
X69544Y-36643D01*
X69676Y-36589D01*
X69788Y-36476D01*
X69849Y-36329D01*
X69850Y-36170D01*
X69789Y-36023D01*
X69676Y-35911D01*
X69544Y-35856D01*
X69676Y-35801D01*
X69788Y-35689D01*
X69849Y-35542D01*
X69850Y-35383D01*
X69789Y-35236D01*
X69681Y-35128D01*
X69757Y-35097D01*
X69910Y-34944D01*
X69993Y-34744D01*
X69993Y-34528D01*
X69930Y-34373D01*
X69930Y-32254D01*
X69930Y-31254D01*
X69857Y-31078D01*
X69722Y-30943D01*
X69545Y-30870D01*
X69354Y-30869D01*
X69282Y-30899D01*
X68491Y-30108D01*
X68426Y-30065D01*
X68350Y-30050D01*
X55300Y-30050D01*
X55223Y-30065D01*
X55201Y-30079D01*
X55158Y-30108D01*
X54467Y-30800D01*
X53600Y-30800D01*
X53600Y-30795D01*
X53600Y-29995D01*
X53577Y-29940D01*
X53535Y-29897D01*
X53479Y-29875D01*
X53420Y-29874D01*
X52820Y-29874D01*
X52765Y-29897D01*
X52722Y-29939D01*
X52700Y-29995D01*
X52699Y-30054D01*
X52699Y-30190D01*
X52684Y-30174D01*
X52564Y-30125D01*
X52435Y-30124D01*
X52316Y-30174D01*
X52300Y-30190D01*
X52300Y-29995D01*
X52277Y-29940D01*
X52235Y-29897D01*
X52179Y-29875D01*
X52120Y-29874D01*
X51520Y-29874D01*
X51465Y-29897D01*
X51422Y-29939D01*
X51400Y-29995D01*
X51399Y-30054D01*
X51399Y-30225D01*
X49200Y-30225D01*
X49123Y-30240D01*
X49101Y-30254D01*
X49058Y-30283D01*
X48659Y-30682D01*
X48693Y-30599D01*
X48693Y-30200D01*
X48655Y-30108D01*
X48585Y-30038D01*
X48493Y-30000D01*
X48394Y-29999D01*
X48162Y-30000D01*
X48100Y-30062D01*
X48100Y-30350D01*
X48631Y-30350D01*
X48693Y-30287D01*
X48693Y-30200D01*
X48693Y-30599D01*
X48693Y-30512D01*
X48631Y-30450D01*
X48100Y-30450D01*
X48100Y-30457D01*
X48000Y-30457D01*
X48000Y-30450D01*
X48000Y-30350D01*
X48000Y-30062D01*
X47937Y-30000D01*
X47705Y-29999D01*
X47606Y-30000D01*
X47514Y-30038D01*
X47444Y-30108D01*
X47406Y-30200D01*
X47406Y-30287D01*
X47468Y-30350D01*
X48000Y-30350D01*
X48000Y-30450D01*
X47468Y-30450D01*
X47406Y-30512D01*
X47406Y-30599D01*
X47444Y-30691D01*
X47506Y-30753D01*
X47506Y-30779D01*
X47506Y-31079D01*
X47529Y-31134D01*
X47544Y-31149D01*
X47529Y-31164D01*
X47506Y-31220D01*
X47506Y-31279D01*
X47506Y-31579D01*
X47529Y-31634D01*
X47544Y-31649D01*
X47529Y-31664D01*
X47506Y-31720D01*
X47506Y-31779D01*
X47506Y-32079D01*
X47529Y-32134D01*
X47544Y-32149D01*
X47529Y-32164D01*
X47506Y-32220D01*
X47506Y-32279D01*
X47506Y-32579D01*
X47529Y-32634D01*
X47544Y-32649D01*
X47529Y-32664D01*
X47506Y-32720D01*
X47506Y-32779D01*
X47506Y-33079D01*
X47529Y-33134D01*
X47544Y-33149D01*
X47529Y-33164D01*
X47506Y-33220D01*
X47506Y-33279D01*
X47506Y-33579D01*
X47529Y-33634D01*
X47544Y-33649D01*
X47529Y-33664D01*
X47506Y-33720D01*
X47506Y-33779D01*
X47506Y-34079D01*
X47529Y-34134D01*
X47544Y-34150D01*
X47529Y-34164D01*
X47506Y-34220D01*
X47506Y-34279D01*
X47506Y-34579D01*
X47529Y-34634D01*
X47571Y-34677D01*
X47626Y-34699D01*
X47686Y-34700D01*
X48473Y-34700D01*
X48528Y-34677D01*
X48571Y-34635D01*
X48585Y-34600D01*
X49199Y-34600D01*
X49199Y-34879D01*
X49222Y-34934D01*
X49264Y-34977D01*
X49320Y-34999D01*
X49379Y-35000D01*
X49979Y-35000D01*
X50034Y-34977D01*
X50077Y-34935D01*
X50099Y-34879D01*
X50100Y-34820D01*
X50100Y-34075D01*
X50499Y-34075D01*
X50499Y-34079D01*
X50499Y-34879D01*
X50522Y-34934D01*
X50564Y-34977D01*
X50620Y-34999D01*
X50679Y-35000D01*
X51279Y-35000D01*
X51334Y-34977D01*
X51377Y-34935D01*
X51399Y-34879D01*
X51400Y-34820D01*
X51400Y-34650D01*
X55400Y-34650D01*
X55476Y-34634D01*
X55541Y-34591D01*
X55606Y-34525D01*
X55606Y-34527D01*
X55606Y-34743D01*
X55688Y-34943D01*
X55841Y-35096D01*
X55918Y-35128D01*
X55811Y-35235D01*
X55750Y-35382D01*
X55749Y-35541D01*
X55810Y-35688D01*
X55923Y-35801D01*
X56055Y-35856D01*
X55923Y-35910D01*
X55834Y-36000D01*
X55500Y-36000D01*
X55404Y-36019D01*
X55323Y-36073D01*
X55323Y-36073D01*
X54223Y-37173D01*
X54200Y-37207D01*
X54200Y-37200D01*
X54200Y-36499D01*
X54199Y-36400D01*
X54161Y-36308D01*
X54091Y-36237D01*
X53999Y-36199D01*
X53762Y-36200D01*
X53700Y-36262D01*
X53700Y-36800D01*
X54137Y-36800D01*
X54200Y-36737D01*
X54200Y-36499D01*
X54200Y-37200D01*
X54200Y-36962D01*
X54137Y-36900D01*
X53700Y-36900D01*
X53700Y-37262D01*
X53700Y-37437D01*
X53700Y-37800D01*
X54137Y-37800D01*
X54188Y-37748D01*
X54215Y-37775D01*
X54335Y-37824D01*
X54464Y-37825D01*
X54583Y-37775D01*
X54675Y-37684D01*
X54724Y-37564D01*
X54725Y-37435D01*
X54708Y-37395D01*
X55603Y-36500D01*
X55834Y-36500D01*
X55923Y-36588D01*
X56055Y-36643D01*
X55923Y-36698D01*
X55811Y-36810D01*
X55750Y-36957D01*
X55749Y-37116D01*
X55810Y-37263D01*
X55918Y-37371D01*
X55842Y-37402D01*
X55689Y-37555D01*
X55606Y-37755D01*
X55606Y-37971D01*
X55688Y-38171D01*
X55841Y-38324D01*
X56022Y-38400D01*
X55489Y-38400D01*
X55475Y-38366D01*
X55384Y-38274D01*
X55264Y-38225D01*
X55135Y-38224D01*
X55016Y-38274D01*
X54924Y-38365D01*
X54875Y-38485D01*
X54874Y-38614D01*
X54924Y-38733D01*
X55015Y-38825D01*
X55135Y-38874D01*
X55264Y-38875D01*
X55383Y-38825D01*
X55409Y-38800D01*
X57000Y-38800D01*
X57076Y-38784D01*
X57141Y-38741D01*
X57641Y-38241D01*
X57684Y-38176D01*
X57684Y-38176D01*
X57687Y-38163D01*
X57699Y-38100D01*
X57700Y-38100D01*
X57700Y-36082D01*
X58105Y-35677D01*
X58110Y-35688D01*
X58223Y-35801D01*
X58355Y-35856D01*
X58223Y-35910D01*
X58111Y-36023D01*
X58050Y-36170D01*
X58049Y-36329D01*
X58110Y-36476D01*
X58223Y-36588D01*
X58355Y-36643D01*
X58223Y-36698D01*
X58111Y-36810D01*
X58050Y-36957D01*
X58049Y-37116D01*
X58110Y-37263D01*
X58218Y-37371D01*
X58142Y-37402D01*
X57989Y-37555D01*
X57906Y-37755D01*
X57906Y-37971D01*
X57988Y-38171D01*
X58141Y-38324D01*
X58341Y-38407D01*
X58557Y-38407D01*
X58757Y-38325D01*
X58910Y-38172D01*
X58993Y-37972D01*
X58993Y-37756D01*
X58911Y-37556D01*
X58758Y-37403D01*
X58681Y-37371D01*
X58788Y-37264D01*
X58849Y-37117D01*
X58850Y-36958D01*
X58789Y-36811D01*
X58676Y-36698D01*
X58544Y-36643D01*
X58676Y-36589D01*
X58788Y-36476D01*
X58849Y-36329D01*
X58850Y-36170D01*
X58789Y-36023D01*
X58676Y-35911D01*
X58544Y-35856D01*
X58676Y-35801D01*
X58788Y-35689D01*
X58849Y-35542D01*
X58850Y-35383D01*
X58789Y-35236D01*
X58681Y-35128D01*
X58757Y-35097D01*
X58910Y-34944D01*
X58993Y-34744D01*
X58993Y-34528D01*
X58930Y-34373D01*
X58930Y-32254D01*
X58857Y-32078D01*
X58722Y-31943D01*
X58545Y-31870D01*
X58354Y-31869D01*
X58178Y-31942D01*
X58043Y-32077D01*
X57970Y-32254D01*
X57969Y-32445D01*
X58042Y-32621D01*
X58177Y-32756D01*
X58354Y-32829D01*
X58545Y-32830D01*
X58721Y-32757D01*
X58856Y-32622D01*
X58929Y-32445D01*
X58930Y-32254D01*
X58930Y-34373D01*
X58911Y-34328D01*
X58758Y-34175D01*
X58558Y-34092D01*
X58342Y-34092D01*
X58142Y-34174D01*
X57989Y-34327D01*
X57906Y-34527D01*
X57906Y-34743D01*
X57988Y-34943D01*
X58141Y-35096D01*
X58218Y-35128D01*
X58111Y-35235D01*
X58099Y-35262D01*
X58037Y-35262D01*
X57960Y-35277D01*
X57939Y-35292D01*
X57895Y-35321D01*
X57358Y-35858D01*
X57315Y-35923D01*
X57300Y-36000D01*
X57300Y-38017D01*
X56917Y-38400D01*
X56276Y-38400D01*
X56457Y-38325D01*
X56610Y-38172D01*
X56693Y-37972D01*
X56693Y-37756D01*
X56611Y-37556D01*
X56458Y-37403D01*
X56381Y-37371D01*
X56488Y-37264D01*
X56549Y-37117D01*
X56550Y-36958D01*
X56489Y-36811D01*
X56376Y-36698D01*
X56244Y-36643D01*
X56376Y-36589D01*
X56488Y-36476D01*
X56549Y-36329D01*
X56550Y-36170D01*
X56489Y-36023D01*
X56376Y-35911D01*
X56244Y-35856D01*
X56376Y-35801D01*
X56488Y-35689D01*
X56549Y-35542D01*
X56550Y-35383D01*
X56489Y-35236D01*
X56381Y-35128D01*
X56457Y-35097D01*
X56610Y-34944D01*
X56693Y-34744D01*
X56693Y-34528D01*
X56611Y-34328D01*
X56458Y-34175D01*
X56258Y-34092D01*
X56042Y-34092D01*
X56039Y-34093D01*
X56991Y-33141D01*
X56991Y-33141D01*
X57020Y-33098D01*
X57034Y-33076D01*
X57034Y-33076D01*
X57049Y-33000D01*
X57050Y-33000D01*
X57050Y-31800D01*
X57034Y-31723D01*
X57034Y-31723D01*
X56991Y-31658D01*
X56630Y-31297D01*
X56630Y-31254D01*
X56557Y-31078D01*
X56428Y-30950D01*
X58171Y-30950D01*
X58043Y-31077D01*
X57970Y-31254D01*
X57969Y-31445D01*
X58042Y-31621D01*
X58177Y-31756D01*
X58354Y-31829D01*
X58545Y-31830D01*
X58721Y-31757D01*
X58856Y-31622D01*
X58929Y-31445D01*
X58930Y-31254D01*
X58857Y-31078D01*
X58728Y-30950D01*
X59967Y-30950D01*
X60199Y-31182D01*
X60170Y-31254D01*
X60169Y-31445D01*
X60242Y-31621D01*
X60377Y-31756D01*
X60554Y-31829D01*
X60745Y-31830D01*
X60921Y-31757D01*
X61056Y-31622D01*
X61129Y-31445D01*
X61130Y-31254D01*
X61057Y-31078D01*
X60922Y-30943D01*
X60745Y-30870D01*
X60554Y-30869D01*
X60482Y-30899D01*
X60282Y-30700D01*
X64117Y-30700D01*
X64599Y-31182D01*
X64570Y-31254D01*
X64569Y-31445D01*
X64642Y-31621D01*
X64777Y-31756D01*
X64954Y-31829D01*
X65145Y-31830D01*
X65321Y-31757D01*
X65456Y-31622D01*
X65529Y-31445D01*
X65530Y-31254D01*
X65457Y-31078D01*
X65322Y-30943D01*
X65145Y-30870D01*
X64954Y-30869D01*
X64882Y-30899D01*
X64432Y-30450D01*
X68267Y-30450D01*
X68999Y-31182D01*
X68970Y-31254D01*
X68969Y-31445D01*
X69042Y-31621D01*
X69177Y-31756D01*
X69354Y-31829D01*
X69545Y-31830D01*
X69721Y-31757D01*
X69856Y-31622D01*
X69929Y-31445D01*
X69930Y-31254D01*
X69930Y-32254D01*
X69857Y-32078D01*
X69722Y-31943D01*
X69545Y-31870D01*
X69354Y-31869D01*
X69178Y-31942D01*
X69043Y-32077D01*
X68970Y-32254D01*
X68969Y-32445D01*
X69042Y-32621D01*
X69177Y-32756D01*
X69354Y-32829D01*
X69545Y-32830D01*
X69721Y-32757D01*
X69856Y-32622D01*
X69929Y-32445D01*
X69930Y-32254D01*
X69930Y-34373D01*
X69911Y-34328D01*
X69758Y-34175D01*
X69558Y-34092D01*
X69342Y-34092D01*
X69142Y-34174D01*
X68989Y-34327D01*
X68906Y-34527D01*
X68906Y-34743D01*
X68988Y-34943D01*
X69141Y-35096D01*
X69218Y-35128D01*
X69111Y-35235D01*
X69099Y-35262D01*
X68927Y-35262D01*
X68850Y-35277D01*
X68829Y-35292D01*
X68785Y-35321D01*
X68458Y-35648D01*
X68415Y-35713D01*
X68400Y-35790D01*
X68400Y-36312D01*
X68400Y-39100D01*
X68400Y-40267D01*
X67567Y-41100D01*
X65982Y-41100D01*
X66491Y-40591D01*
X66491Y-40591D01*
X66520Y-40548D01*
X66534Y-40526D01*
X66534Y-40526D01*
X66549Y-40450D01*
X66550Y-40450D01*
X66550Y-40150D01*
X66550Y-38900D01*
X66550Y-36362D01*
X66550Y-35832D01*
X66720Y-35662D01*
X66899Y-35662D01*
X66910Y-35688D01*
X67023Y-35801D01*
X67155Y-35856D01*
X67023Y-35910D01*
X66911Y-36023D01*
X66850Y-36170D01*
X66849Y-36329D01*
X66910Y-36476D01*
X67023Y-36588D01*
X67155Y-36643D01*
X67023Y-36698D01*
X66911Y-36810D01*
X66850Y-36957D01*
X66849Y-37116D01*
X66910Y-37263D01*
X67018Y-37371D01*
X66942Y-37402D01*
X66789Y-37555D01*
X66706Y-37755D01*
X66706Y-37971D01*
X66788Y-38171D01*
X66941Y-38324D01*
X67141Y-38407D01*
X67357Y-38407D01*
X67557Y-38325D01*
X67710Y-38172D01*
X67793Y-37972D01*
X67793Y-37756D01*
X67711Y-37556D01*
X67558Y-37403D01*
X67481Y-37371D01*
X67588Y-37264D01*
X67649Y-37117D01*
X67650Y-36958D01*
X67589Y-36811D01*
X67476Y-36698D01*
X67344Y-36643D01*
X67476Y-36589D01*
X67588Y-36476D01*
X67649Y-36329D01*
X67650Y-36170D01*
X67589Y-36023D01*
X67476Y-35911D01*
X67344Y-35856D01*
X67476Y-35801D01*
X67588Y-35689D01*
X67649Y-35542D01*
X67650Y-35383D01*
X67589Y-35236D01*
X67481Y-35128D01*
X67557Y-35097D01*
X67710Y-34944D01*
X67793Y-34744D01*
X67793Y-34528D01*
X67730Y-34373D01*
X67730Y-32254D01*
X67730Y-31254D01*
X67657Y-31078D01*
X67522Y-30943D01*
X67345Y-30870D01*
X67154Y-30869D01*
X66978Y-30942D01*
X66843Y-31077D01*
X66770Y-31254D01*
X66769Y-31445D01*
X66842Y-31621D01*
X66977Y-31756D01*
X67154Y-31829D01*
X67345Y-31830D01*
X67521Y-31757D01*
X67656Y-31622D01*
X67729Y-31445D01*
X67730Y-31254D01*
X67730Y-32254D01*
X67657Y-32078D01*
X67522Y-31943D01*
X67345Y-31870D01*
X67154Y-31869D01*
X66978Y-31942D01*
X66843Y-32077D01*
X66770Y-32254D01*
X66769Y-32445D01*
X66842Y-32621D01*
X66977Y-32756D01*
X67154Y-32829D01*
X67345Y-32830D01*
X67521Y-32757D01*
X67656Y-32622D01*
X67729Y-32445D01*
X67730Y-32254D01*
X67730Y-34373D01*
X67711Y-34328D01*
X67558Y-34175D01*
X67358Y-34092D01*
X67142Y-34092D01*
X66942Y-34174D01*
X66789Y-34327D01*
X66706Y-34527D01*
X66706Y-34743D01*
X66788Y-34943D01*
X66941Y-35096D01*
X67018Y-35128D01*
X66911Y-35235D01*
X66899Y-35262D01*
X66637Y-35262D01*
X66560Y-35277D01*
X66539Y-35292D01*
X66495Y-35321D01*
X66208Y-35608D01*
X66165Y-35673D01*
X66150Y-35750D01*
X66150Y-36362D01*
X66150Y-38900D01*
X66150Y-40150D01*
X66150Y-40367D01*
X65667Y-40850D01*
X63782Y-40850D01*
X64291Y-40341D01*
X64291Y-40341D01*
X64320Y-40298D01*
X64334Y-40276D01*
X64334Y-40276D01*
X64349Y-40200D01*
X64350Y-40200D01*
X64350Y-38950D01*
X64350Y-36370D01*
X64350Y-36362D01*
X64350Y-36250D01*
X64350Y-35832D01*
X64520Y-35662D01*
X64699Y-35662D01*
X64710Y-35688D01*
X64823Y-35801D01*
X64955Y-35856D01*
X64823Y-35910D01*
X64711Y-36023D01*
X64650Y-36170D01*
X64649Y-36329D01*
X64710Y-36476D01*
X64823Y-36588D01*
X64955Y-36643D01*
X64823Y-36698D01*
X64711Y-36810D01*
X64650Y-36957D01*
X64649Y-37116D01*
X64710Y-37263D01*
X64818Y-37371D01*
X64742Y-37402D01*
X64589Y-37555D01*
X64506Y-37755D01*
X64506Y-37971D01*
X64588Y-38171D01*
X64741Y-38324D01*
X64941Y-38407D01*
X65157Y-38407D01*
X65357Y-38325D01*
X65510Y-38172D01*
X65593Y-37972D01*
X65593Y-37756D01*
X65511Y-37556D01*
X65358Y-37403D01*
X65281Y-37371D01*
X65388Y-37264D01*
X65449Y-37117D01*
X65450Y-36958D01*
X65389Y-36811D01*
X65276Y-36698D01*
X65144Y-36643D01*
X65276Y-36589D01*
X65388Y-36476D01*
X65449Y-36329D01*
X65450Y-36170D01*
X65389Y-36023D01*
X65276Y-35911D01*
X65144Y-35856D01*
X65276Y-35801D01*
X65388Y-35689D01*
X65449Y-35542D01*
X65450Y-35383D01*
X65389Y-35236D01*
X65281Y-35128D01*
X65357Y-35097D01*
X65510Y-34944D01*
X65593Y-34744D01*
X65593Y-34528D01*
X65530Y-34373D01*
X65530Y-32254D01*
X65457Y-32078D01*
X65322Y-31943D01*
X65145Y-31870D01*
X64954Y-31869D01*
X64778Y-31942D01*
X64643Y-32077D01*
X64570Y-32254D01*
X64569Y-32445D01*
X64642Y-32621D01*
X64777Y-32756D01*
X64954Y-32829D01*
X65145Y-32830D01*
X65321Y-32757D01*
X65456Y-32622D01*
X65529Y-32445D01*
X65530Y-32254D01*
X65530Y-34373D01*
X65511Y-34328D01*
X65358Y-34175D01*
X65158Y-34092D01*
X64942Y-34092D01*
X64742Y-34174D01*
X64589Y-34327D01*
X64506Y-34527D01*
X64506Y-34743D01*
X64588Y-34943D01*
X64741Y-35096D01*
X64818Y-35128D01*
X64711Y-35235D01*
X64699Y-35262D01*
X64437Y-35262D01*
X64360Y-35277D01*
X64339Y-35292D01*
X64295Y-35321D01*
X64008Y-35608D01*
X63965Y-35673D01*
X63950Y-35750D01*
X63950Y-36250D01*
X63950Y-36362D01*
X63950Y-36370D01*
X63950Y-38950D01*
X63950Y-40117D01*
X63467Y-40600D01*
X61582Y-40600D01*
X62091Y-40091D01*
X62091Y-40091D01*
X62120Y-40048D01*
X62134Y-40026D01*
X62134Y-40026D01*
X62149Y-39950D01*
X62150Y-39950D01*
X62150Y-38650D01*
X62150Y-36362D01*
X62150Y-35892D01*
X62380Y-35662D01*
X62499Y-35662D01*
X62510Y-35688D01*
X62623Y-35801D01*
X62755Y-35856D01*
X62623Y-35910D01*
X62511Y-36023D01*
X62450Y-36170D01*
X62449Y-36329D01*
X62510Y-36476D01*
X62623Y-36588D01*
X62755Y-36643D01*
X62623Y-36698D01*
X62511Y-36810D01*
X62450Y-36957D01*
X62449Y-37116D01*
X62510Y-37263D01*
X62618Y-37371D01*
X62542Y-37402D01*
X62389Y-37555D01*
X62306Y-37755D01*
X62306Y-37971D01*
X62388Y-38171D01*
X62541Y-38324D01*
X62741Y-38407D01*
X62957Y-38407D01*
X63157Y-38325D01*
X63310Y-38172D01*
X63393Y-37972D01*
X63393Y-37756D01*
X63311Y-37556D01*
X63158Y-37403D01*
X63081Y-37371D01*
X63188Y-37264D01*
X63249Y-37117D01*
X63250Y-36958D01*
X63189Y-36811D01*
X63076Y-36698D01*
X62944Y-36643D01*
X63076Y-36589D01*
X63188Y-36476D01*
X63249Y-36329D01*
X63250Y-36170D01*
X63189Y-36023D01*
X63076Y-35911D01*
X62944Y-35856D01*
X63076Y-35801D01*
X63188Y-35689D01*
X63249Y-35542D01*
X63250Y-35383D01*
X63189Y-35236D01*
X63081Y-35128D01*
X63157Y-35097D01*
X63310Y-34944D01*
X63393Y-34744D01*
X63393Y-34528D01*
X63330Y-34373D01*
X63330Y-32254D01*
X63330Y-31254D01*
X63257Y-31078D01*
X63122Y-30943D01*
X62945Y-30870D01*
X62754Y-30869D01*
X62578Y-30942D01*
X62443Y-31077D01*
X62370Y-31254D01*
X62369Y-31445D01*
X62442Y-31621D01*
X62577Y-31756D01*
X62754Y-31829D01*
X62945Y-31830D01*
X63121Y-31757D01*
X63256Y-31622D01*
X63329Y-31445D01*
X63330Y-31254D01*
X63330Y-32254D01*
X63257Y-32078D01*
X63122Y-31943D01*
X62945Y-31870D01*
X62754Y-31869D01*
X62578Y-31942D01*
X62443Y-32077D01*
X62370Y-32254D01*
X62369Y-32445D01*
X62442Y-32621D01*
X62577Y-32756D01*
X62754Y-32829D01*
X62945Y-32830D01*
X63121Y-32757D01*
X63256Y-32622D01*
X63329Y-32445D01*
X63330Y-32254D01*
X63330Y-34373D01*
X63311Y-34328D01*
X63158Y-34175D01*
X62958Y-34092D01*
X62742Y-34092D01*
X62542Y-34174D01*
X62389Y-34327D01*
X62306Y-34527D01*
X62306Y-34743D01*
X62388Y-34943D01*
X62541Y-35096D01*
X62618Y-35128D01*
X62511Y-35235D01*
X62499Y-35262D01*
X62297Y-35262D01*
X62220Y-35277D01*
X62155Y-35321D01*
X61808Y-35668D01*
X61765Y-35733D01*
X61750Y-35810D01*
X61750Y-36362D01*
X61750Y-38650D01*
X61750Y-39867D01*
X61267Y-40350D01*
X59328Y-40350D01*
X59341Y-40341D01*
X59991Y-39691D01*
X59991Y-39691D01*
X60020Y-39648D01*
X60034Y-39626D01*
X60034Y-39626D01*
X60049Y-39550D01*
X60050Y-39550D01*
X60050Y-38300D01*
X60050Y-35950D01*
X60050Y-35772D01*
X60160Y-35662D01*
X60299Y-35662D01*
X60310Y-35688D01*
X60423Y-35801D01*
X60555Y-35856D01*
X60423Y-35910D01*
X60311Y-36023D01*
X60250Y-36170D01*
X60249Y-36329D01*
X60310Y-36476D01*
X60423Y-36588D01*
X60555Y-36643D01*
X60423Y-36698D01*
X60311Y-36810D01*
X60250Y-36957D01*
X60249Y-37116D01*
X60310Y-37263D01*
X60418Y-37371D01*
X60342Y-37402D01*
X60189Y-37555D01*
X60106Y-37755D01*
X60106Y-37971D01*
X60188Y-38171D01*
X60341Y-38324D01*
X60541Y-38407D01*
X60757Y-38407D01*
X60957Y-38325D01*
X61110Y-38172D01*
X61193Y-37972D01*
X61193Y-37756D01*
X61111Y-37556D01*
X60958Y-37403D01*
X60881Y-37371D01*
X60988Y-37264D01*
X61049Y-37117D01*
X61050Y-36958D01*
X60989Y-36811D01*
X60876Y-36698D01*
X60744Y-36643D01*
X60876Y-36589D01*
X60988Y-36476D01*
X61049Y-36329D01*
X61050Y-36170D01*
X60989Y-36023D01*
X60876Y-35911D01*
X60744Y-35856D01*
X60876Y-35801D01*
X60988Y-35689D01*
X61049Y-35542D01*
X61050Y-35383D01*
X60989Y-35236D01*
X60881Y-35128D01*
X60957Y-35097D01*
X61110Y-34944D01*
X61193Y-34744D01*
X61193Y-34528D01*
X61130Y-34373D01*
X61130Y-32254D01*
X61057Y-32078D01*
X60922Y-31943D01*
X60745Y-31870D01*
X60554Y-31869D01*
X60378Y-31942D01*
X60243Y-32077D01*
X60170Y-32254D01*
X60169Y-32445D01*
X60242Y-32621D01*
X60377Y-32756D01*
X60554Y-32829D01*
X60745Y-32830D01*
X60921Y-32757D01*
X61056Y-32622D01*
X61129Y-32445D01*
X61130Y-32254D01*
X61130Y-34373D01*
X61111Y-34328D01*
X60958Y-34175D01*
X60758Y-34092D01*
X60542Y-34092D01*
X60342Y-34174D01*
X60189Y-34327D01*
X60106Y-34527D01*
X60106Y-34743D01*
X60188Y-34943D01*
X60341Y-35096D01*
X60418Y-35128D01*
X60311Y-35235D01*
X60299Y-35262D01*
X60077Y-35262D01*
X60000Y-35277D01*
X59979Y-35292D01*
X59935Y-35321D01*
X59708Y-35548D01*
X59665Y-35613D01*
X59650Y-35690D01*
X59650Y-35950D01*
X59650Y-38300D01*
X59650Y-39467D01*
X59117Y-40000D01*
X54400Y-40000D01*
X54323Y-40015D01*
X54258Y-40058D01*
X54200Y-40117D01*
X54200Y-38200D01*
X54200Y-37962D01*
X54137Y-37900D01*
X53700Y-37900D01*
X53700Y-38437D01*
X53762Y-38500D01*
X53999Y-38500D01*
X54091Y-38462D01*
X54161Y-38391D01*
X54199Y-38299D01*
X54200Y-38200D01*
X54200Y-40117D01*
X53992Y-40325D01*
X53885Y-40324D01*
X53766Y-40374D01*
X53674Y-40465D01*
X53625Y-40585D01*
X53625Y-40642D01*
X53600Y-40617D01*
X53600Y-38437D01*
X53600Y-37900D01*
X53600Y-37800D01*
X53600Y-37437D01*
X53600Y-37262D01*
X53600Y-36900D01*
X53600Y-36800D01*
X53600Y-36262D01*
X53537Y-36200D01*
X53300Y-36199D01*
X53208Y-36237D01*
X53138Y-36308D01*
X53100Y-36400D01*
X53099Y-36499D01*
X53100Y-36737D01*
X53162Y-36800D01*
X53600Y-36800D01*
X53600Y-36900D01*
X53162Y-36900D01*
X53100Y-36962D01*
X53099Y-37200D01*
X53100Y-37299D01*
X53120Y-37350D01*
X53100Y-37400D01*
X53099Y-37499D01*
X53100Y-37737D01*
X53162Y-37800D01*
X53600Y-37800D01*
X53600Y-37900D01*
X53162Y-37900D01*
X53100Y-37962D01*
X53099Y-38200D01*
X53100Y-38299D01*
X53138Y-38391D01*
X53208Y-38462D01*
X53300Y-38500D01*
X53537Y-38500D01*
X53600Y-38437D01*
X53600Y-40617D01*
X53552Y-40569D01*
X53574Y-40514D01*
X53575Y-40385D01*
X53525Y-40266D01*
X53434Y-40174D01*
X53314Y-40125D01*
X53185Y-40124D01*
X53066Y-40174D01*
X52974Y-40265D01*
X52925Y-40385D01*
X52925Y-40442D01*
X52900Y-40417D01*
X52900Y-40309D01*
X52925Y-40284D01*
X52974Y-40164D01*
X52975Y-40035D01*
X52925Y-39916D01*
X52834Y-39824D01*
X52800Y-39810D01*
X52800Y-38220D01*
X52800Y-37420D01*
X52777Y-37365D01*
X52762Y-37350D01*
X52777Y-37335D01*
X52799Y-37279D01*
X52800Y-37220D01*
X52800Y-36420D01*
X52777Y-36365D01*
X52735Y-36322D01*
X52679Y-36300D01*
X52620Y-36299D01*
X52082Y-36299D01*
X51691Y-35908D01*
X51626Y-35865D01*
X51550Y-35850D01*
X51436Y-35850D01*
X51407Y-35778D01*
X51272Y-35643D01*
X51095Y-35570D01*
X50904Y-35569D01*
X50728Y-35642D01*
X50593Y-35777D01*
X50520Y-35954D01*
X50519Y-36145D01*
X50592Y-36321D01*
X50727Y-36456D01*
X50904Y-36529D01*
X51095Y-36530D01*
X51271Y-36457D01*
X51406Y-36322D01*
X51436Y-36250D01*
X51467Y-36250D01*
X51899Y-36682D01*
X51899Y-37279D01*
X51922Y-37334D01*
X51937Y-37349D01*
X51922Y-37364D01*
X51900Y-37420D01*
X51899Y-37479D01*
X51899Y-38017D01*
X51447Y-38469D01*
X51322Y-38343D01*
X51145Y-38270D01*
X50954Y-38269D01*
X50778Y-38342D01*
X50643Y-38477D01*
X50570Y-38654D01*
X50569Y-38845D01*
X50642Y-39021D01*
X50777Y-39156D01*
X50954Y-39229D01*
X51145Y-39230D01*
X51321Y-39157D01*
X51456Y-39022D01*
X51489Y-38942D01*
X51526Y-38934D01*
X51591Y-38891D01*
X52082Y-38400D01*
X52679Y-38400D01*
X52734Y-38377D01*
X52777Y-38335D01*
X52799Y-38279D01*
X52800Y-38220D01*
X52800Y-39810D01*
X52714Y-39775D01*
X52585Y-39774D01*
X52466Y-39824D01*
X52374Y-39915D01*
X52375Y-39835D01*
X52325Y-39716D01*
X52234Y-39624D01*
X52114Y-39575D01*
X51985Y-39574D01*
X51907Y-39607D01*
X51924Y-39564D01*
X51925Y-39435D01*
X51875Y-39316D01*
X51784Y-39224D01*
X51664Y-39175D01*
X51535Y-39174D01*
X51416Y-39224D01*
X51324Y-39315D01*
X51275Y-39435D01*
X51274Y-39564D01*
X51294Y-39611D01*
X51141Y-39458D01*
X51076Y-39415D01*
X51000Y-39400D01*
X50530Y-39400D01*
X50530Y-38654D01*
X50480Y-38533D01*
X50480Y-35954D01*
X50407Y-35778D01*
X50272Y-35643D01*
X50095Y-35570D01*
X49904Y-35569D01*
X49728Y-35642D01*
X49593Y-35777D01*
X49520Y-35954D01*
X49519Y-36145D01*
X49592Y-36321D01*
X49727Y-36456D01*
X49904Y-36529D01*
X50095Y-36530D01*
X50271Y-36457D01*
X50406Y-36322D01*
X50479Y-36145D01*
X50480Y-35954D01*
X50480Y-38533D01*
X50457Y-38478D01*
X50322Y-38343D01*
X50145Y-38270D01*
X49954Y-38269D01*
X49778Y-38342D01*
X49643Y-38477D01*
X49613Y-38550D01*
X49254Y-38550D01*
X49254Y-37031D01*
X49243Y-36813D01*
X49181Y-36662D01*
X49085Y-36634D01*
X49015Y-36705D01*
X49015Y-36564D01*
X48987Y-36468D01*
X48781Y-36395D01*
X48563Y-36406D01*
X48412Y-36468D01*
X48384Y-36564D01*
X48700Y-36879D01*
X49015Y-36564D01*
X49015Y-36705D01*
X48770Y-36950D01*
X49085Y-37265D01*
X49181Y-37237D01*
X49254Y-37031D01*
X49254Y-38550D01*
X49150Y-38550D01*
X49150Y-37860D01*
X49081Y-37695D01*
X48955Y-37568D01*
X48789Y-37500D01*
X48713Y-37500D01*
X48836Y-37493D01*
X48987Y-37431D01*
X49015Y-37335D01*
X48700Y-37020D01*
X48629Y-37091D01*
X48629Y-36950D01*
X48314Y-36634D01*
X48218Y-36662D01*
X48148Y-36857D01*
X48081Y-36695D01*
X47955Y-36568D01*
X47789Y-36500D01*
X47610Y-36499D01*
X47445Y-36568D01*
X47318Y-36694D01*
X47250Y-36860D01*
X47249Y-37039D01*
X47318Y-37204D01*
X47444Y-37331D01*
X47610Y-37399D01*
X47789Y-37400D01*
X47954Y-37331D01*
X48081Y-37205D01*
X48149Y-37039D01*
X48149Y-36963D01*
X48156Y-37086D01*
X48218Y-37237D01*
X48314Y-37265D01*
X48629Y-36950D01*
X48629Y-37091D01*
X48384Y-37335D01*
X48412Y-37431D01*
X48607Y-37501D01*
X48445Y-37568D01*
X48318Y-37694D01*
X48250Y-37860D01*
X48249Y-38039D01*
X48318Y-38204D01*
X48444Y-38331D01*
X48610Y-38399D01*
X48789Y-38400D01*
X48954Y-38331D01*
X49081Y-38205D01*
X49149Y-38039D01*
X49150Y-37860D01*
X49150Y-38550D01*
X48482Y-38550D01*
X48097Y-38165D01*
X48149Y-38039D01*
X48150Y-37860D01*
X48081Y-37695D01*
X47955Y-37568D01*
X47789Y-37500D01*
X47610Y-37499D01*
X47445Y-37568D01*
X47318Y-37694D01*
X47250Y-37860D01*
X47249Y-38039D01*
X47318Y-38204D01*
X47444Y-38331D01*
X47610Y-38399D01*
X47767Y-38400D01*
X48258Y-38891D01*
X48258Y-38891D01*
X48301Y-38920D01*
X48323Y-38934D01*
X48323Y-38934D01*
X48399Y-38949D01*
X48400Y-38950D01*
X49613Y-38950D01*
X49642Y-39021D01*
X49777Y-39156D01*
X49954Y-39229D01*
X50145Y-39230D01*
X50321Y-39157D01*
X50456Y-39022D01*
X50529Y-38845D01*
X50530Y-38654D01*
X50530Y-39400D01*
X48482Y-39400D01*
X47141Y-38059D01*
X47149Y-38039D01*
X47150Y-37860D01*
X47150Y-36860D01*
X47081Y-36695D01*
X46955Y-36568D01*
X46900Y-36545D01*
X46900Y-32000D01*
X46884Y-31923D01*
X46884Y-31923D01*
X46870Y-31901D01*
X46841Y-31858D01*
X46841Y-31858D01*
X45741Y-30758D01*
X45676Y-30715D01*
X45600Y-30700D01*
X44947Y-30700D01*
X44955Y-30691D01*
X44993Y-30599D01*
X44993Y-30200D01*
X44955Y-30108D01*
X44885Y-30038D01*
X44793Y-30000D01*
X44694Y-29999D01*
X44462Y-30000D01*
X44400Y-30062D01*
X44400Y-30350D01*
X44931Y-30350D01*
X44993Y-30287D01*
X44993Y-30200D01*
X44993Y-30599D01*
X44993Y-30512D01*
X44931Y-30450D01*
X44400Y-30450D01*
X44400Y-30457D01*
X44300Y-30457D01*
X44300Y-30450D01*
X44300Y-30350D01*
X44300Y-30062D01*
X44237Y-30000D01*
X44005Y-29999D01*
X43906Y-30000D01*
X43814Y-30038D01*
X43744Y-30108D01*
X43706Y-30200D01*
X43706Y-30287D01*
X43768Y-30350D01*
X44300Y-30350D01*
X44300Y-30450D01*
X43768Y-30450D01*
X43706Y-30512D01*
X43706Y-30599D01*
X43744Y-30691D01*
X43806Y-30753D01*
X43806Y-30779D01*
X43806Y-31079D01*
X43829Y-31134D01*
X43844Y-31149D01*
X43829Y-31164D01*
X43806Y-31220D01*
X43806Y-31279D01*
X43806Y-31579D01*
X43829Y-31634D01*
X43844Y-31649D01*
X43829Y-31664D01*
X43806Y-31720D01*
X43806Y-31779D01*
X43806Y-32079D01*
X43829Y-32134D01*
X43844Y-32149D01*
X43829Y-32164D01*
X43806Y-32220D01*
X43806Y-32279D01*
X43806Y-32579D01*
X43829Y-32634D01*
X43844Y-32649D01*
X43829Y-32664D01*
X43806Y-32720D01*
X43806Y-32779D01*
X43806Y-33079D01*
X43829Y-33134D01*
X43844Y-33149D01*
X43829Y-33164D01*
X43806Y-33220D01*
X43806Y-33279D01*
X43806Y-33579D01*
X43829Y-33634D01*
X43844Y-33649D01*
X43829Y-33664D01*
X43806Y-33720D01*
X43806Y-33779D01*
X43806Y-34079D01*
X43829Y-34134D01*
X43843Y-34149D01*
X43828Y-34164D01*
X43814Y-34200D01*
X43157Y-34200D01*
X43157Y-32192D01*
X43075Y-31992D01*
X42922Y-31839D01*
X42722Y-31756D01*
X42506Y-31756D01*
X42306Y-31838D01*
X42153Y-31991D01*
X42121Y-32068D01*
X42014Y-31961D01*
X41867Y-31900D01*
X41708Y-31899D01*
X41561Y-31960D01*
X41451Y-32070D01*
X41439Y-32042D01*
X41349Y-32021D01*
X41278Y-32091D01*
X41278Y-31950D01*
X41257Y-31860D01*
X41069Y-31795D01*
X40871Y-31806D01*
X40742Y-31860D01*
X40721Y-31950D01*
X41000Y-32229D01*
X41278Y-31950D01*
X41278Y-32091D01*
X41070Y-32300D01*
X41349Y-32578D01*
X41439Y-32557D01*
X41450Y-32528D01*
X41560Y-32638D01*
X41707Y-32699D01*
X41866Y-32700D01*
X42013Y-32639D01*
X42121Y-32531D01*
X42152Y-32607D01*
X42305Y-32760D01*
X42505Y-32843D01*
X42721Y-32843D01*
X42921Y-32761D01*
X43074Y-32608D01*
X43157Y-32408D01*
X43157Y-32192D01*
X43157Y-34200D01*
X41278Y-34200D01*
X41278Y-32649D01*
X41000Y-32370D01*
X40929Y-32441D01*
X40929Y-32300D01*
X40650Y-32021D01*
X40560Y-32042D01*
X40549Y-32071D01*
X40439Y-31961D01*
X40292Y-31900D01*
X40133Y-31899D01*
X39986Y-31960D01*
X39878Y-32068D01*
X39847Y-31992D01*
X39694Y-31839D01*
X39494Y-31756D01*
X39278Y-31756D01*
X39078Y-31838D01*
X38925Y-31991D01*
X38842Y-32191D01*
X38842Y-32407D01*
X38924Y-32607D01*
X39077Y-32760D01*
X39277Y-32843D01*
X39493Y-32843D01*
X39693Y-32761D01*
X39846Y-32608D01*
X39878Y-32531D01*
X39985Y-32638D01*
X40132Y-32699D01*
X40291Y-32700D01*
X40438Y-32639D01*
X40548Y-32529D01*
X40560Y-32557D01*
X40650Y-32578D01*
X40929Y-32300D01*
X40929Y-32441D01*
X40721Y-32649D01*
X40742Y-32739D01*
X40930Y-32804D01*
X41128Y-32793D01*
X41257Y-32739D01*
X41278Y-32649D01*
X41278Y-34200D01*
X40550Y-34200D01*
X40473Y-34215D01*
X40408Y-34258D01*
X39558Y-35108D01*
X39515Y-35173D01*
X39500Y-35250D01*
X39500Y-36499D01*
X39370Y-36499D01*
X39315Y-36522D01*
X39272Y-36564D01*
X39250Y-36620D01*
X39249Y-36679D01*
X39249Y-37279D01*
X39272Y-37334D01*
X39314Y-37377D01*
X39370Y-37399D01*
X39429Y-37400D01*
X40029Y-37400D01*
X40084Y-37377D01*
X40127Y-37335D01*
X40149Y-37279D01*
X40150Y-37220D01*
X40150Y-36620D01*
X40127Y-36565D01*
X40085Y-36522D01*
X40029Y-36500D01*
X39970Y-36499D01*
X39900Y-36499D01*
X39900Y-35332D01*
X40632Y-34600D01*
X43814Y-34600D01*
X43828Y-34634D01*
X43843Y-34650D01*
X41200Y-34650D01*
X41136Y-34662D01*
X41123Y-34665D01*
X41058Y-34708D01*
X40558Y-35208D01*
X40515Y-35273D01*
X40500Y-35350D01*
X40500Y-36545D01*
X40445Y-36568D01*
X40318Y-36694D01*
X40250Y-36860D01*
X40249Y-37039D01*
X40318Y-37204D01*
X40444Y-37331D01*
X40610Y-37399D01*
X40789Y-37400D01*
X40954Y-37331D01*
X41081Y-37205D01*
X41149Y-37039D01*
X41150Y-36860D01*
X41081Y-36695D01*
X40955Y-36568D01*
X40900Y-36545D01*
X40900Y-35432D01*
X41282Y-35050D01*
X41767Y-35050D01*
X41558Y-35258D01*
X41515Y-35323D01*
X41500Y-35400D01*
X41500Y-36545D01*
X41445Y-36568D01*
X41318Y-36694D01*
X41250Y-36860D01*
X41249Y-37039D01*
X41318Y-37204D01*
X41444Y-37331D01*
X41610Y-37399D01*
X41789Y-37400D01*
X41954Y-37331D01*
X42081Y-37205D01*
X42149Y-37039D01*
X42150Y-36860D01*
X42081Y-36695D01*
X41955Y-36568D01*
X41900Y-36545D01*
X41900Y-35482D01*
X42082Y-35300D01*
X42767Y-35300D01*
X42558Y-35508D01*
X42515Y-35573D01*
X42500Y-35650D01*
X42500Y-36545D01*
X42445Y-36568D01*
X42318Y-36694D01*
X42250Y-36860D01*
X42249Y-37039D01*
X42318Y-37204D01*
X42444Y-37331D01*
X42610Y-37399D01*
X42789Y-37400D01*
X42954Y-37331D01*
X43081Y-37205D01*
X43149Y-37039D01*
X43150Y-36860D01*
X43081Y-36695D01*
X42955Y-36568D01*
X42900Y-36545D01*
X42900Y-35732D01*
X43082Y-35550D01*
X43817Y-35550D01*
X43558Y-35808D01*
X43515Y-35873D01*
X43500Y-35950D01*
X43500Y-36545D01*
X43445Y-36568D01*
X43318Y-36694D01*
X43250Y-36860D01*
X43249Y-37039D01*
X43318Y-37204D01*
X43444Y-37331D01*
X43610Y-37399D01*
X43789Y-37400D01*
X43954Y-37331D01*
X44081Y-37205D01*
X44149Y-37039D01*
X44150Y-36860D01*
X44081Y-36695D01*
X43955Y-36568D01*
X43900Y-36545D01*
X43900Y-36032D01*
X44132Y-35800D01*
X44967Y-35800D01*
X44558Y-36208D01*
X44515Y-36273D01*
X44500Y-36350D01*
X44500Y-36545D01*
X44445Y-36568D01*
X44318Y-36694D01*
X44250Y-36860D01*
X44249Y-37039D01*
X44318Y-37204D01*
X44444Y-37331D01*
X44610Y-37399D01*
X44789Y-37400D01*
X44954Y-37331D01*
X45081Y-37205D01*
X45149Y-37039D01*
X45150Y-36860D01*
X45081Y-36695D01*
X44955Y-36568D01*
X44900Y-36545D01*
X44900Y-36432D01*
X45500Y-35832D01*
X45500Y-36545D01*
X45445Y-36568D01*
X45318Y-36694D01*
X45250Y-36860D01*
X45249Y-37039D01*
X45318Y-37204D01*
X45444Y-37331D01*
X45610Y-37399D01*
X45789Y-37400D01*
X45954Y-37331D01*
X46081Y-37205D01*
X46149Y-37039D01*
X46150Y-36860D01*
X46081Y-36695D01*
X45955Y-36568D01*
X45900Y-36545D01*
X45900Y-35782D01*
X46500Y-35182D01*
X46500Y-36545D01*
X46445Y-36568D01*
X46318Y-36694D01*
X46250Y-36860D01*
X46249Y-37039D01*
X46318Y-37204D01*
X46444Y-37331D01*
X46610Y-37399D01*
X46789Y-37400D01*
X46954Y-37331D01*
X47081Y-37205D01*
X47149Y-37039D01*
X47150Y-36860D01*
X47150Y-37860D01*
X47081Y-37695D01*
X46955Y-37568D01*
X46789Y-37500D01*
X46610Y-37499D01*
X46445Y-37568D01*
X46318Y-37694D01*
X46250Y-37860D01*
X46249Y-38039D01*
X46280Y-38112D01*
X45900Y-38492D01*
X45900Y-38354D01*
X45954Y-38331D01*
X46081Y-38205D01*
X46149Y-38039D01*
X46150Y-37860D01*
X46081Y-37695D01*
X45955Y-37568D01*
X45789Y-37500D01*
X45610Y-37499D01*
X45445Y-37568D01*
X45318Y-37694D01*
X45250Y-37860D01*
X45249Y-38039D01*
X45318Y-38204D01*
X45444Y-38331D01*
X45500Y-38354D01*
X45500Y-38442D01*
X44900Y-39042D01*
X44900Y-38354D01*
X44954Y-38331D01*
X45081Y-38205D01*
X45149Y-38039D01*
X45150Y-37860D01*
X45081Y-37695D01*
X44955Y-37568D01*
X44789Y-37500D01*
X44610Y-37499D01*
X44445Y-37568D01*
X44318Y-37694D01*
X44250Y-37860D01*
X44249Y-38039D01*
X44318Y-38204D01*
X44444Y-38331D01*
X44500Y-38354D01*
X44500Y-39067D01*
X43992Y-39575D01*
X43657Y-39575D01*
X43841Y-39391D01*
X43841Y-39391D01*
X43870Y-39348D01*
X43884Y-39326D01*
X43884Y-39326D01*
X43899Y-39249D01*
X43900Y-39249D01*
X43900Y-38354D01*
X43954Y-38331D01*
X44081Y-38205D01*
X44149Y-38039D01*
X44150Y-37860D01*
X44081Y-37695D01*
X43955Y-37568D01*
X43789Y-37500D01*
X43610Y-37499D01*
X43445Y-37568D01*
X43318Y-37694D01*
X43250Y-37860D01*
X43249Y-38039D01*
X43318Y-38204D01*
X43444Y-38331D01*
X43500Y-38354D01*
X43500Y-39167D01*
X43317Y-39350D01*
X42632Y-39350D01*
X42841Y-39141D01*
X42884Y-39076D01*
X42884Y-39076D01*
X42900Y-38999D01*
X42900Y-38354D01*
X42954Y-38331D01*
X43081Y-38205D01*
X43149Y-38039D01*
X43150Y-37860D01*
X43081Y-37695D01*
X42955Y-37568D01*
X42789Y-37500D01*
X42610Y-37499D01*
X42445Y-37568D01*
X42318Y-37694D01*
X42250Y-37860D01*
X42249Y-38039D01*
X42318Y-38204D01*
X42444Y-38331D01*
X42500Y-38354D01*
X42500Y-38917D01*
X42292Y-39125D01*
X41232Y-39125D01*
X41841Y-38516D01*
X41841Y-38516D01*
X41884Y-38451D01*
X41884Y-38451D01*
X41887Y-38438D01*
X41899Y-38375D01*
X41900Y-38375D01*
X41900Y-38354D01*
X41954Y-38331D01*
X42081Y-38205D01*
X42149Y-38039D01*
X42150Y-37860D01*
X42081Y-37695D01*
X41955Y-37568D01*
X41789Y-37500D01*
X41610Y-37499D01*
X41445Y-37568D01*
X41318Y-37694D01*
X41250Y-37860D01*
X41249Y-38039D01*
X41318Y-38204D01*
X41444Y-38331D01*
X41456Y-38336D01*
X40900Y-38892D01*
X40900Y-38354D01*
X40954Y-38331D01*
X41081Y-38205D01*
X41149Y-38039D01*
X41150Y-37860D01*
X41081Y-37695D01*
X40955Y-37568D01*
X40789Y-37500D01*
X40610Y-37499D01*
X40445Y-37568D01*
X40318Y-37694D01*
X40250Y-37860D01*
X40249Y-38039D01*
X40318Y-38204D01*
X40444Y-38331D01*
X40500Y-38354D01*
X40500Y-38917D01*
X39900Y-39517D01*
X39900Y-38354D01*
X39954Y-38331D01*
X40081Y-38205D01*
X40149Y-38039D01*
X40150Y-37860D01*
X40081Y-37695D01*
X39955Y-37568D01*
X39789Y-37500D01*
X39610Y-37499D01*
X39445Y-37568D01*
X39318Y-37694D01*
X39250Y-37860D01*
X39249Y-38039D01*
X39318Y-38204D01*
X39444Y-38331D01*
X39500Y-38354D01*
X39500Y-42750D01*
X39515Y-42826D01*
X39558Y-42891D01*
X41183Y-44516D01*
X41183Y-44516D01*
X41226Y-44545D01*
X41248Y-44559D01*
X41248Y-44559D01*
X41325Y-44575D01*
X41389Y-44575D01*
X41403Y-44609D01*
X41445Y-44652D01*
X41500Y-44674D01*
X41560Y-44675D01*
X42348Y-44675D01*
X42403Y-44652D01*
X42445Y-44610D01*
X42468Y-44554D01*
X42468Y-44495D01*
X42468Y-44195D01*
X42445Y-44140D01*
X42430Y-44125D01*
X42445Y-44110D01*
X42468Y-44054D01*
X42468Y-43995D01*
X42468Y-43695D01*
X42445Y-43640D01*
X42430Y-43625D01*
X42445Y-43610D01*
X42468Y-43554D01*
X42468Y-43495D01*
X42468Y-43195D01*
X42445Y-43140D01*
X42430Y-43125D01*
X42445Y-43110D01*
X42468Y-43054D01*
X42468Y-42995D01*
X42468Y-42695D01*
X42445Y-42640D01*
X42430Y-42625D01*
X42445Y-42610D01*
X42468Y-42554D01*
X42468Y-42495D01*
X42468Y-42195D01*
X42445Y-42140D01*
X42430Y-42125D01*
X42445Y-42110D01*
X42468Y-42054D01*
X42468Y-41995D01*
X42468Y-41695D01*
X42445Y-41640D01*
X42430Y-41625D01*
X42445Y-41610D01*
X42468Y-41554D01*
X42468Y-41495D01*
X42468Y-41195D01*
X42445Y-41140D01*
X42430Y-41125D01*
X42445Y-41110D01*
X42460Y-41075D01*
X43800Y-41075D01*
X43876Y-41059D01*
X43941Y-41016D01*
X46573Y-38384D01*
X46610Y-38399D01*
X46789Y-38400D01*
X46879Y-38362D01*
X48258Y-39741D01*
X48323Y-39784D01*
X48400Y-39800D01*
X48845Y-39800D01*
X48790Y-39822D01*
X48747Y-39864D01*
X48725Y-39920D01*
X48724Y-39979D01*
X48724Y-40025D01*
X46600Y-40025D01*
X46523Y-40040D01*
X46501Y-40054D01*
X46458Y-40083D01*
X46268Y-40273D01*
X46217Y-40324D01*
X46206Y-40324D01*
X46268Y-40262D01*
X46268Y-40175D01*
X46230Y-40083D01*
X46160Y-40013D01*
X46068Y-39975D01*
X45969Y-39974D01*
X45737Y-39975D01*
X45675Y-40037D01*
X45675Y-40325D01*
X45682Y-40325D01*
X45682Y-40425D01*
X45675Y-40425D01*
X45675Y-40432D01*
X45575Y-40432D01*
X45575Y-40425D01*
X45575Y-40325D01*
X45575Y-40037D01*
X45512Y-39975D01*
X45280Y-39974D01*
X45181Y-39975D01*
X45089Y-40013D01*
X45019Y-40083D01*
X44981Y-40175D01*
X44981Y-40262D01*
X45043Y-40325D01*
X45575Y-40325D01*
X45575Y-40425D01*
X45043Y-40425D01*
X44981Y-40487D01*
X44981Y-40574D01*
X45019Y-40666D01*
X45081Y-40728D01*
X45081Y-40754D01*
X45081Y-41054D01*
X45104Y-41109D01*
X45119Y-41124D01*
X45104Y-41139D01*
X45081Y-41195D01*
X45081Y-41254D01*
X45081Y-41554D01*
X45104Y-41609D01*
X45119Y-41624D01*
X45104Y-41639D01*
X45081Y-41695D01*
X45081Y-41754D01*
X45081Y-42054D01*
X45104Y-42109D01*
X45119Y-42124D01*
X45104Y-42139D01*
X45081Y-42195D01*
X45081Y-42254D01*
X45081Y-42554D01*
X45104Y-42609D01*
X45119Y-42624D01*
X45104Y-42639D01*
X45081Y-42695D01*
X45081Y-42754D01*
X45081Y-43054D01*
X45104Y-43109D01*
X45119Y-43124D01*
X45104Y-43139D01*
X45081Y-43195D01*
X45081Y-43254D01*
X45081Y-43554D01*
X45104Y-43609D01*
X45119Y-43624D01*
X45104Y-43639D01*
X45081Y-43695D01*
X45081Y-43754D01*
X45081Y-44054D01*
X45104Y-44109D01*
X45119Y-44125D01*
X45104Y-44139D01*
X45081Y-44195D01*
X45081Y-44254D01*
X45081Y-44554D01*
X45104Y-44609D01*
X45146Y-44652D01*
X45201Y-44674D01*
X45261Y-44675D01*
X46048Y-44675D01*
X46103Y-44652D01*
X46146Y-44610D01*
X46160Y-44575D01*
X46574Y-44575D01*
X46574Y-44804D01*
X46597Y-44859D01*
X46639Y-44902D01*
X46695Y-44924D01*
X46754Y-44925D01*
X47354Y-44925D01*
X47409Y-44902D01*
X47452Y-44860D01*
X47474Y-44804D01*
X47475Y-44745D01*
X47475Y-44000D01*
X47874Y-44000D01*
X47874Y-44004D01*
X47874Y-44804D01*
X47897Y-44859D01*
X47939Y-44902D01*
X47995Y-44924D01*
X48054Y-44925D01*
X48654Y-44925D01*
X48709Y-44902D01*
X48752Y-44860D01*
X48774Y-44804D01*
X48775Y-44745D01*
X48775Y-44575D01*
X53542Y-44575D01*
X53575Y-44607D01*
X53574Y-44714D01*
X53624Y-44833D01*
X53715Y-44925D01*
X53835Y-44974D01*
X53964Y-44975D01*
X53975Y-44970D01*
X53974Y-45064D01*
X54024Y-45183D01*
X54115Y-45275D01*
X54235Y-45324D01*
X54364Y-45325D01*
X54483Y-45275D01*
X54575Y-45184D01*
X54624Y-45064D01*
X54625Y-44935D01*
X54575Y-44816D01*
X54484Y-44724D01*
X54450Y-44710D01*
X54450Y-44582D01*
X55208Y-45341D01*
X55208Y-45341D01*
X55251Y-45370D01*
X55273Y-45384D01*
X55273Y-45384D01*
X55349Y-45399D01*
X55350Y-45400D01*
X60440Y-45400D01*
X60510Y-45470D01*
X34250Y-45470D01*
X34250Y-29350D01*
X73150Y-29350D01*
X73150Y-45470D01*
M02*
