M48
;DRILL file {Pcbnew (2011-nov-30)-testing} date jeu. 18 oct. 2012 20:37:43 CEST
;FORMAT={-:-/ absolute / inch / decimal}
FMAT,2
INCH,TZ
T1C0.025
T2C0.032
T3C0.040
T4C0.052
T5C0.059
T6C0.120
%
G90
G05
M72
T1
X5.23Y-5.34
X5.3Y-5.
X5.34Y-4.555
X5.39Y-4.72
X5.405Y-5.11
X5.42Y-5.24
X5.57Y-5.34
X5.595Y-5.
X5.62Y-4.47
X5.655Y-3.805
X5.7Y-5.33
X5.88Y-5.11
X5.89Y-5.24
X5.9Y-4.22
X6.06Y-5.
X6.06Y-5.33
X6.18Y-5.33
X6.25Y-4.82
X6.3Y-4.55
X6.33Y-4.72
X6.335Y-5.11
X6.345Y-5.24
X6.52Y-5.
X6.54Y-5.33
X6.58Y-4.47
X6.63Y-3.805
X6.635Y-4.825
X6.66Y-5.33
X6.8Y-5.105
X6.81Y-5.235
X6.88Y-4.22
X7.02Y-5.33
X7.15Y-4.915
X7.295Y-4.555
X7.31Y-5.005
X7.34Y-4.72
X7.57Y-4.47
X7.61Y-5.42
X7.615Y-3.79
X7.705Y-5.035
X7.705Y-5.305
X7.87Y-4.22
X7.9Y-5.01
X7.905Y-5.55
X8.075Y-4.55
X8.11Y-4.96
X8.26Y-5.25
X8.29Y-4.72
X8.43Y-4.55
X8.59Y-3.8
X8.85Y-4.22
T2
X5.23Y-3.9531
X5.23Y-4.3469
X5.3624Y-4.14
X5.6576Y-4.135
X6.22Y-3.9531
X6.22Y-4.3469
X6.3524Y-4.14
X6.6476Y-4.135
X7.2Y-3.9531
X7.2Y-4.3469
X7.3324Y-4.14
X7.6276Y-4.135
X8.17Y-3.9531
X8.17Y-4.3469
X8.3024Y-4.14
X8.5976Y-4.135
T3
X5.33Y-3.57
X5.43Y-3.73
X5.53Y-3.57
X6.3Y-3.57
X6.4Y-3.73
X6.5Y-3.57
X7.15Y-5.37
X7.15Y-5.47
X7.25Y-5.37
X7.25Y-5.47
X7.29Y-3.57
X7.35Y-5.37
X7.35Y-5.47
X7.375Y-5.85
X7.375Y-5.95
X7.39Y-3.73
X7.475Y-5.85
X7.475Y-5.95
X7.49Y-3.57
X7.575Y-5.85
X7.575Y-5.95
X7.965Y-5.85
X7.965Y-5.95
X8.06Y-5.2
X8.06Y-5.3
X8.06Y-5.4
X8.06Y-5.5
X8.065Y-5.85
X8.065Y-5.95
X8.16Y-5.2
X8.16Y-5.3
X8.16Y-5.4
X8.16Y-5.5
X8.165Y-5.85
X8.165Y-5.95
X8.26Y-3.57
X8.36Y-3.73
X8.46Y-3.57
X8.765Y-4.74
X8.865Y-4.74
T4
X5.301Y-5.83
X5.498Y-5.83
X5.502Y-3.1
X5.699Y-3.1
X5.781Y-5.83
X5.978Y-5.83
X6.261Y-5.83
X6.458Y-5.83
X6.502Y-3.1
X6.699Y-3.1
X6.741Y-5.83
X6.938Y-5.83
X7.502Y-3.1
X7.699Y-3.1
X8.402Y-3.1
X8.599Y-3.1
X8.601Y-5.82
X8.798Y-5.82
T5
X5.91Y-3.6169
X5.91Y-4.4831
X6.89Y-3.6169
X6.89Y-4.4831
X7.87Y-3.6169
X7.87Y-4.4831
X8.85Y-3.6169
X8.85Y-4.4831
T6
X6.13Y-2.99
X8.085Y-2.985
X8.39Y-5.525
T0
M30
