G04 (created by PCBNEW (2013-jul-07)-stable) date ven. 28 nov. 2014 16:46:14 CET*
%MOIN*%
G04 Gerber Fmt 3.4, Leading zero omitted, Abs format*
%FSLAX34Y34*%
G01*
G70*
G90*
G04 APERTURE LIST*
%ADD10C,0.00590551*%
%ADD11C,0.015*%
%ADD12R,0.05X0.0987402*%
%ADD13R,0.08X0.08*%
%ADD14C,0.08*%
%ADD15O,0.098X0.176*%
%ADD16C,0.083*%
%ADD17C,0.12*%
%ADD18C,0.1637*%
%ADD19R,0.0791X0.0791*%
%ADD20C,0.0791*%
%ADD21C,0.0987402*%
%ADD22R,0.07X0.058*%
%ADD23C,0.09*%
G04 APERTURE END LIST*
G54D10*
G54D11*
X71500Y-62000D02*
X110900Y-62000D01*
X71500Y-28000D02*
X110900Y-28000D01*
X110900Y-28000D02*
X110800Y-28000D01*
X110900Y-62000D02*
X110900Y-28000D01*
X71500Y-62000D02*
X71500Y-28000D01*
G54D12*
X91200Y-48000D03*
X90700Y-48000D03*
X90200Y-48000D03*
X89700Y-48000D03*
X89200Y-48000D03*
X88700Y-48000D03*
X88200Y-48000D03*
X87700Y-48000D03*
X87200Y-48000D03*
X87200Y-44300D03*
X87700Y-44300D03*
X88200Y-44300D03*
X91200Y-44299D03*
X90700Y-44300D03*
X90200Y-44300D03*
X89700Y-44300D03*
X89200Y-44300D03*
X88700Y-44300D03*
G54D13*
X77100Y-49200D03*
G54D14*
X77100Y-48200D03*
X78100Y-49200D03*
X78100Y-48200D03*
X79100Y-49200D03*
X79100Y-48200D03*
X80100Y-49200D03*
X80100Y-48200D03*
X81100Y-49200D03*
X81100Y-48200D03*
X82100Y-49200D03*
X82100Y-48200D03*
X83100Y-49200D03*
X83100Y-48200D03*
X84100Y-49200D03*
X84100Y-48200D03*
X85100Y-49200D03*
X85100Y-48200D03*
X86100Y-49200D03*
X86100Y-48200D03*
G54D15*
X82000Y-59645D03*
X83515Y-59645D03*
X85031Y-59645D03*
X86547Y-59645D03*
X88062Y-59645D03*
X73500Y-59645D03*
X75015Y-59645D03*
X76531Y-59645D03*
X78047Y-59645D03*
X79562Y-59645D03*
G54D13*
X107400Y-51112D03*
G54D14*
X107400Y-52112D03*
X106400Y-51112D03*
X106400Y-52112D03*
X105400Y-51112D03*
X105400Y-52112D03*
G54D13*
X101375Y-46175D03*
G54D14*
X101375Y-45175D03*
G54D13*
X100375Y-46175D03*
G54D14*
X100375Y-45175D03*
G54D13*
X98375Y-46175D03*
G54D14*
X98375Y-45175D03*
G54D13*
X105725Y-45000D03*
G54D14*
X105725Y-46000D03*
G54D13*
X99375Y-46175D03*
G54D14*
X99375Y-45175D03*
G54D13*
X100725Y-48525D03*
G54D14*
X100725Y-49525D03*
X99725Y-48525D03*
X99725Y-49525D03*
X98725Y-48525D03*
X98725Y-49525D03*
G54D15*
X94400Y-59645D03*
X95915Y-59645D03*
G54D16*
X72450Y-41350D03*
X75442Y-41350D03*
G54D17*
X75442Y-36350D03*
X72450Y-35350D03*
G54D16*
X77350Y-41350D03*
X80342Y-41350D03*
G54D17*
X80342Y-36350D03*
X77350Y-35350D03*
G54D16*
X82250Y-41350D03*
X85242Y-41350D03*
G54D17*
X85242Y-36350D03*
X82250Y-35350D03*
G54D16*
X87150Y-41350D03*
X90142Y-41350D03*
G54D17*
X90142Y-36350D03*
X87150Y-35350D03*
G54D15*
X74990Y-31889D03*
X73020Y-31889D03*
X79790Y-31889D03*
X77820Y-31889D03*
X84590Y-31889D03*
X82620Y-31889D03*
X89390Y-31889D03*
X87420Y-31889D03*
X94990Y-31889D03*
X93020Y-31889D03*
X99790Y-31889D03*
X97820Y-31889D03*
X104590Y-31889D03*
X102620Y-31889D03*
X109390Y-31889D03*
X107420Y-31889D03*
G54D16*
X106800Y-41350D03*
X109792Y-41350D03*
G54D17*
X109792Y-36350D03*
X106800Y-35350D03*
G54D16*
X101950Y-41350D03*
X104942Y-41350D03*
G54D17*
X104942Y-36350D03*
X101950Y-35350D03*
G54D16*
X97100Y-41350D03*
X100092Y-41350D03*
G54D17*
X100092Y-36350D03*
X97100Y-35350D03*
G54D16*
X92250Y-41350D03*
X95242Y-41350D03*
G54D17*
X95242Y-36350D03*
X92250Y-35350D03*
G54D18*
X102738Y-58112D03*
X98065Y-58112D03*
G54D19*
X98650Y-55612D03*
G54D20*
X99150Y-54612D03*
X99650Y-55612D03*
X100150Y-54612D03*
X100650Y-55612D03*
X101150Y-54612D03*
X101650Y-55612D03*
X102150Y-54612D03*
G54D21*
X97650Y-60112D03*
X103100Y-60112D03*
G54D18*
X109338Y-58112D03*
X104665Y-58112D03*
G54D19*
X105250Y-55612D03*
G54D20*
X105750Y-54612D03*
X106250Y-55612D03*
X106750Y-54612D03*
X107250Y-55612D03*
X107750Y-54612D03*
X108250Y-55612D03*
X108750Y-54612D03*
G54D21*
X104250Y-60112D03*
X109700Y-60112D03*
G54D22*
X102600Y-52250D03*
X102600Y-52750D03*
G54D23*
X98700Y-51575D03*
X99700Y-51575D03*
X100700Y-51575D03*
M02*
