G04 (created by PCBNEW (2013-jul-07)-stable) date ven. 28 nov. 2014 16:46:14 CET*
%MOIN*%
G04 Gerber Fmt 3.4, Leading zero omitted, Abs format*
%FSLAX34Y34*%
G01*
G70*
G90*
G04 APERTURE LIST*
%ADD10C,0.00590551*%
%ADD11C,0.015*%
%ADD12R,0.08X0.08*%
%ADD13C,0.08*%
%ADD14R,0.0377X0.0987*%
%ADD15R,0.0987X0.0377*%
%ADD16O,0.098X0.176*%
%ADD17R,0.0909X0.0829*%
%ADD18R,0.08X0.1*%
%ADD19R,0.1X0.08*%
%ADD20C,0.083*%
%ADD21C,0.12*%
%ADD22C,0.1637*%
%ADD23R,0.0791X0.0791*%
%ADD24C,0.0791*%
%ADD25C,0.0987402*%
%ADD26C,0.09*%
%ADD27R,0.0790551X0.0751181*%
G04 APERTURE END LIST*
G54D10*
G54D11*
X71500Y-62000D02*
X110900Y-62000D01*
X71500Y-28000D02*
X110900Y-28000D01*
X110900Y-28000D02*
X110800Y-28000D01*
X110900Y-62000D02*
X110900Y-28000D01*
X71500Y-62000D02*
X71500Y-28000D01*
G54D12*
X77100Y-49200D03*
G54D13*
X77100Y-48200D03*
X78100Y-49200D03*
X78100Y-48200D03*
X79100Y-49200D03*
X79100Y-48200D03*
X80100Y-49200D03*
X80100Y-48200D03*
X81100Y-49200D03*
X81100Y-48200D03*
X82100Y-49200D03*
X82100Y-48200D03*
X83100Y-49200D03*
X83100Y-48200D03*
X84100Y-49200D03*
X84100Y-48200D03*
X85100Y-49200D03*
X85100Y-48200D03*
X86100Y-49200D03*
X86100Y-48200D03*
G54D14*
X93657Y-45854D03*
X93972Y-45854D03*
X94287Y-45854D03*
X94602Y-45854D03*
X94917Y-45854D03*
X95232Y-45854D03*
X95547Y-45854D03*
X95862Y-45854D03*
X95860Y-49620D03*
X93650Y-49620D03*
X93970Y-49620D03*
X94290Y-49620D03*
X94600Y-49620D03*
X94920Y-49620D03*
X95230Y-49620D03*
X95550Y-49620D03*
G54D15*
X96650Y-46638D03*
X96650Y-46952D03*
X96650Y-47268D03*
X96650Y-47582D03*
X96650Y-47898D03*
X96650Y-48212D03*
X96650Y-48528D03*
X96650Y-48842D03*
X92870Y-46640D03*
X92870Y-46950D03*
X92870Y-47270D03*
X92870Y-47580D03*
X92870Y-47890D03*
X92870Y-48210D03*
X92870Y-48530D03*
X92870Y-48850D03*
G54D16*
X82000Y-59645D03*
X83515Y-59645D03*
X85031Y-59645D03*
X86547Y-59645D03*
X88062Y-59645D03*
X73500Y-59645D03*
X75015Y-59645D03*
X76531Y-59645D03*
X78047Y-59645D03*
X79562Y-59645D03*
G54D12*
X107400Y-51112D03*
G54D13*
X107400Y-52112D03*
X106400Y-51112D03*
X106400Y-52112D03*
X105400Y-51112D03*
X105400Y-52112D03*
G54D17*
X109060Y-46059D03*
X109060Y-44941D03*
X108150Y-46059D03*
X108150Y-44941D03*
X103500Y-47441D03*
X103500Y-48559D03*
G54D12*
X101375Y-46175D03*
G54D13*
X101375Y-45175D03*
G54D12*
X100375Y-46175D03*
G54D13*
X100375Y-45175D03*
G54D12*
X98375Y-46175D03*
G54D13*
X98375Y-45175D03*
G54D12*
X105725Y-45000D03*
G54D13*
X105725Y-46000D03*
G54D12*
X99375Y-46175D03*
G54D13*
X99375Y-45175D03*
G54D18*
X83100Y-56850D03*
X81800Y-56850D03*
G54D19*
X105600Y-48650D03*
X105600Y-47350D03*
X104600Y-48650D03*
X104600Y-47350D03*
X102450Y-48600D03*
X102450Y-47300D03*
G54D18*
X94750Y-44700D03*
X93450Y-44700D03*
G54D19*
X107050Y-44825D03*
X107050Y-46125D03*
G54D18*
X78200Y-56850D03*
X76900Y-56850D03*
G54D19*
X108550Y-48650D03*
X108550Y-47350D03*
G54D18*
X75950Y-56850D03*
X74650Y-56850D03*
X80450Y-56850D03*
X79150Y-56850D03*
X89850Y-56850D03*
X88550Y-56850D03*
X85350Y-56850D03*
X84050Y-56850D03*
X87600Y-56850D03*
X86300Y-56850D03*
G54D12*
X100725Y-48525D03*
G54D13*
X100725Y-49525D03*
X99725Y-48525D03*
X99725Y-49525D03*
X98725Y-48525D03*
X98725Y-49525D03*
G54D18*
X73700Y-56800D03*
X72400Y-56800D03*
G54D19*
X107600Y-47350D03*
X107600Y-48650D03*
X106600Y-47350D03*
X106600Y-48650D03*
G54D16*
X94400Y-59645D03*
X95915Y-59645D03*
G54D19*
X93600Y-50650D03*
X93600Y-51950D03*
G54D20*
X72450Y-41350D03*
X75442Y-41350D03*
G54D21*
X75442Y-36350D03*
X72450Y-35350D03*
G54D20*
X77350Y-41350D03*
X80342Y-41350D03*
G54D21*
X80342Y-36350D03*
X77350Y-35350D03*
G54D20*
X82250Y-41350D03*
X85242Y-41350D03*
G54D21*
X85242Y-36350D03*
X82250Y-35350D03*
G54D20*
X87150Y-41350D03*
X90142Y-41350D03*
G54D21*
X90142Y-36350D03*
X87150Y-35350D03*
G54D16*
X74990Y-31889D03*
X73020Y-31889D03*
X79790Y-31889D03*
X77820Y-31889D03*
X84590Y-31889D03*
X82620Y-31889D03*
X89390Y-31889D03*
X87420Y-31889D03*
X94990Y-31889D03*
X93020Y-31889D03*
X99790Y-31889D03*
X97820Y-31889D03*
X104590Y-31889D03*
X102620Y-31889D03*
X109390Y-31889D03*
X107420Y-31889D03*
G54D20*
X106800Y-41350D03*
X109792Y-41350D03*
G54D21*
X109792Y-36350D03*
X106800Y-35350D03*
G54D20*
X101950Y-41350D03*
X104942Y-41350D03*
G54D21*
X104942Y-36350D03*
X101950Y-35350D03*
G54D20*
X97100Y-41350D03*
X100092Y-41350D03*
G54D21*
X100092Y-36350D03*
X97100Y-35350D03*
G54D20*
X92250Y-41350D03*
X95242Y-41350D03*
G54D21*
X95242Y-36350D03*
X92250Y-35350D03*
G54D22*
X102738Y-58112D03*
X98065Y-58112D03*
G54D23*
X98650Y-55612D03*
G54D24*
X99150Y-54612D03*
X99650Y-55612D03*
X100150Y-54612D03*
X100650Y-55612D03*
X101150Y-54612D03*
X101650Y-55612D03*
X102150Y-54612D03*
G54D25*
X97650Y-60112D03*
X103100Y-60112D03*
G54D22*
X109338Y-58112D03*
X104665Y-58112D03*
G54D23*
X105250Y-55612D03*
G54D24*
X105750Y-54612D03*
X106250Y-55612D03*
X106750Y-54612D03*
X107250Y-55612D03*
X107750Y-54612D03*
X108250Y-55612D03*
X108750Y-54612D03*
G54D25*
X104250Y-60112D03*
X109700Y-60112D03*
G54D26*
X98700Y-51575D03*
X99700Y-51575D03*
X100700Y-51575D03*
G54D27*
X72900Y-55400D03*
X73900Y-55400D03*
X74900Y-55400D03*
X75900Y-55400D03*
X76900Y-55400D03*
X77900Y-55400D03*
X78900Y-55400D03*
X79900Y-55400D03*
X79900Y-51900D03*
X78900Y-51900D03*
X77900Y-51900D03*
X76900Y-51900D03*
X75900Y-51900D03*
X74900Y-51900D03*
X73900Y-51900D03*
X72900Y-51900D03*
X82250Y-55400D03*
X83250Y-55400D03*
X84250Y-55400D03*
X85250Y-55400D03*
X86250Y-55400D03*
X87250Y-55400D03*
X88250Y-55400D03*
X89250Y-55400D03*
X89250Y-51900D03*
X88250Y-51900D03*
X87250Y-51900D03*
X86250Y-51900D03*
X85250Y-51900D03*
X84250Y-51900D03*
X83250Y-51900D03*
X82250Y-51900D03*
M02*
