G04 (created by PCBNEW (2013-jul-07)-stable) date ven. 28 nov. 2014 16:46:14 CET*
%MOIN*%
G04 Gerber Fmt 3.4, Leading zero omitted, Abs format*
%FSLAX34Y34*%
G01*
G70*
G90*
G04 APERTURE LIST*
%ADD10C,0.00590551*%
%ADD11C,0.012*%
%ADD12C,0.015*%
%ADD13C,0.011811*%
%ADD14C,0.00984252*%
%ADD15C,0.00531496*%
%ADD16C,0.006*%
%ADD17C,0.0039*%
%ADD18C,0.008*%
%ADD19C,0.0026*%
%ADD20C,0.004*%
%ADD21C,0.005*%
%ADD22C,0.01*%
%ADD23C,0.0108*%
%ADD24C,0.0035*%
%ADD25C,0.0125*%
G04 APERTURE END LIST*
G54D10*
G54D11*
X77142Y-43268D02*
X77142Y-42468D01*
X77400Y-42545D02*
X77428Y-42506D01*
X77485Y-42468D01*
X77628Y-42468D01*
X77685Y-42506D01*
X77714Y-42545D01*
X77742Y-42621D01*
X77742Y-42697D01*
X77714Y-42811D01*
X77371Y-43268D01*
X77742Y-43268D01*
X78342Y-43192D02*
X78314Y-43230D01*
X78228Y-43268D01*
X78171Y-43268D01*
X78085Y-43230D01*
X78028Y-43154D01*
X78000Y-43078D01*
X77971Y-42925D01*
X77971Y-42811D01*
X78000Y-42659D01*
X78028Y-42583D01*
X78085Y-42506D01*
X78171Y-42468D01*
X78228Y-42468D01*
X78314Y-42506D01*
X78342Y-42545D01*
X79257Y-42849D02*
X79342Y-42887D01*
X79371Y-42925D01*
X79400Y-43002D01*
X79400Y-43116D01*
X79371Y-43192D01*
X79342Y-43230D01*
X79285Y-43268D01*
X79057Y-43268D01*
X79057Y-42468D01*
X79257Y-42468D01*
X79314Y-42506D01*
X79342Y-42545D01*
X79371Y-42621D01*
X79371Y-42697D01*
X79342Y-42773D01*
X79314Y-42811D01*
X79257Y-42849D01*
X79057Y-42849D01*
X79771Y-42468D02*
X79885Y-42468D01*
X79942Y-42506D01*
X80000Y-42583D01*
X80028Y-42735D01*
X80028Y-43002D01*
X80000Y-43154D01*
X79942Y-43230D01*
X79885Y-43268D01*
X79771Y-43268D01*
X79714Y-43230D01*
X79657Y-43154D01*
X79628Y-43002D01*
X79628Y-42735D01*
X79657Y-42583D01*
X79714Y-42506D01*
X79771Y-42468D01*
X80257Y-43040D02*
X80542Y-43040D01*
X80200Y-43268D02*
X80400Y-42468D01*
X80600Y-43268D01*
X81142Y-43268D02*
X80942Y-42887D01*
X80800Y-43268D02*
X80800Y-42468D01*
X81028Y-42468D01*
X81085Y-42506D01*
X81114Y-42545D01*
X81142Y-42621D01*
X81142Y-42735D01*
X81114Y-42811D01*
X81085Y-42849D01*
X81028Y-42887D01*
X80800Y-42887D01*
X81400Y-43268D02*
X81400Y-42468D01*
X81542Y-42468D01*
X81628Y-42506D01*
X81685Y-42583D01*
X81714Y-42659D01*
X81742Y-42811D01*
X81742Y-42925D01*
X81714Y-43078D01*
X81685Y-43154D01*
X81628Y-43230D01*
X81542Y-43268D01*
X81400Y-43268D01*
X82457Y-43268D02*
X82457Y-42468D01*
X82742Y-43268D02*
X82742Y-42468D01*
X83085Y-43268D01*
X83085Y-42468D01*
X83457Y-42811D02*
X83400Y-42773D01*
X83371Y-42735D01*
X83342Y-42659D01*
X83342Y-42621D01*
X83371Y-42545D01*
X83400Y-42506D01*
X83457Y-42468D01*
X83571Y-42468D01*
X83628Y-42506D01*
X83657Y-42545D01*
X83685Y-42621D01*
X83685Y-42659D01*
X83657Y-42735D01*
X83628Y-42773D01*
X83571Y-42811D01*
X83457Y-42811D01*
X83400Y-42849D01*
X83371Y-42887D01*
X83342Y-42964D01*
X83342Y-43116D01*
X83371Y-43192D01*
X83400Y-43230D01*
X83457Y-43268D01*
X83571Y-43268D01*
X83628Y-43230D01*
X83657Y-43192D01*
X83685Y-43116D01*
X83685Y-42964D01*
X83657Y-42887D01*
X83628Y-42849D01*
X83571Y-42811D01*
X84285Y-43268D02*
X84085Y-42887D01*
X83942Y-43268D02*
X83942Y-42468D01*
X84171Y-42468D01*
X84228Y-42506D01*
X84257Y-42545D01*
X84285Y-42621D01*
X84285Y-42735D01*
X84257Y-42811D01*
X84228Y-42849D01*
X84171Y-42887D01*
X83942Y-42887D01*
X84628Y-42811D02*
X84571Y-42773D01*
X84542Y-42735D01*
X84514Y-42659D01*
X84514Y-42621D01*
X84542Y-42545D01*
X84571Y-42506D01*
X84628Y-42468D01*
X84742Y-42468D01*
X84800Y-42506D01*
X84828Y-42545D01*
X84857Y-42621D01*
X84857Y-42659D01*
X84828Y-42735D01*
X84800Y-42773D01*
X84742Y-42811D01*
X84628Y-42811D01*
X84571Y-42849D01*
X84542Y-42887D01*
X84514Y-42964D01*
X84514Y-43116D01*
X84542Y-43192D01*
X84571Y-43230D01*
X84628Y-43268D01*
X84742Y-43268D01*
X84800Y-43230D01*
X84828Y-43192D01*
X84857Y-43116D01*
X84857Y-42964D01*
X84828Y-42887D01*
X84800Y-42849D01*
X84742Y-42811D01*
X85485Y-42735D02*
X85714Y-42735D01*
X85571Y-42468D02*
X85571Y-43154D01*
X85600Y-43230D01*
X85657Y-43268D01*
X85714Y-43268D01*
X85857Y-42735D02*
X86000Y-43268D01*
X86142Y-42735D02*
X86000Y-43268D01*
X85942Y-43459D01*
X85914Y-43497D01*
X85857Y-43535D01*
X86371Y-42735D02*
X86371Y-43535D01*
X86371Y-42773D02*
X86428Y-42735D01*
X86542Y-42735D01*
X86600Y-42773D01*
X86628Y-42811D01*
X86657Y-42887D01*
X86657Y-43116D01*
X86628Y-43192D01*
X86600Y-43230D01*
X86542Y-43268D01*
X86428Y-43268D01*
X86371Y-43230D01*
X87142Y-43230D02*
X87085Y-43268D01*
X86971Y-43268D01*
X86914Y-43230D01*
X86885Y-43154D01*
X86885Y-42849D01*
X86914Y-42773D01*
X86971Y-42735D01*
X87085Y-42735D01*
X87142Y-42773D01*
X87171Y-42849D01*
X87171Y-42925D01*
X86885Y-43002D01*
X87885Y-43268D02*
X87885Y-42468D01*
X88028Y-42468D01*
X88114Y-42506D01*
X88171Y-42583D01*
X88200Y-42659D01*
X88228Y-42811D01*
X88228Y-42925D01*
X88200Y-43078D01*
X88171Y-43154D01*
X88114Y-43230D01*
X88028Y-43268D01*
X87885Y-43268D01*
X88885Y-42735D02*
X89028Y-43268D01*
X89171Y-42735D01*
X89514Y-42468D02*
X89571Y-42468D01*
X89628Y-42506D01*
X89657Y-42545D01*
X89685Y-42621D01*
X89714Y-42773D01*
X89714Y-42964D01*
X89685Y-43116D01*
X89657Y-43192D01*
X89628Y-43230D01*
X89571Y-43268D01*
X89514Y-43268D01*
X89457Y-43230D01*
X89428Y-43192D01*
X89400Y-43116D01*
X89371Y-42964D01*
X89371Y-42773D01*
X89400Y-42621D01*
X89428Y-42545D01*
X89457Y-42506D01*
X89514Y-42468D01*
X89971Y-43192D02*
X90000Y-43230D01*
X89971Y-43268D01*
X89942Y-43230D01*
X89971Y-43192D01*
X89971Y-43268D01*
X90228Y-42545D02*
X90257Y-42506D01*
X90314Y-42468D01*
X90457Y-42468D01*
X90514Y-42506D01*
X90542Y-42545D01*
X90571Y-42621D01*
X90571Y-42697D01*
X90542Y-42811D01*
X90200Y-43268D01*
X90571Y-43268D01*
X91257Y-42545D02*
X91285Y-42506D01*
X91342Y-42468D01*
X91485Y-42468D01*
X91542Y-42506D01*
X91571Y-42545D01*
X91600Y-42621D01*
X91600Y-42697D01*
X91571Y-42811D01*
X91228Y-43268D01*
X91600Y-43268D01*
X91800Y-42468D02*
X92171Y-42468D01*
X91971Y-42773D01*
X92057Y-42773D01*
X92114Y-42811D01*
X92142Y-42849D01*
X92171Y-42925D01*
X92171Y-43116D01*
X92142Y-43192D01*
X92114Y-43230D01*
X92057Y-43268D01*
X91885Y-43268D01*
X91828Y-43230D01*
X91800Y-43192D01*
X92542Y-42468D02*
X92600Y-42468D01*
X92657Y-42506D01*
X92685Y-42545D01*
X92714Y-42621D01*
X92742Y-42773D01*
X92742Y-42964D01*
X92714Y-43116D01*
X92685Y-43192D01*
X92657Y-43230D01*
X92600Y-43268D01*
X92542Y-43268D01*
X92485Y-43230D01*
X92457Y-43192D01*
X92428Y-43116D01*
X92400Y-42964D01*
X92400Y-42773D01*
X92428Y-42621D01*
X92457Y-42545D01*
X92485Y-42506D01*
X92542Y-42468D01*
X92914Y-42468D02*
X93114Y-43268D01*
X93314Y-42468D01*
X93485Y-43040D02*
X93771Y-43040D01*
X93428Y-43268D02*
X93628Y-42468D01*
X93828Y-43268D01*
X94371Y-43192D02*
X94342Y-43230D01*
X94257Y-43268D01*
X94200Y-43268D01*
X94114Y-43230D01*
X94057Y-43154D01*
X94028Y-43078D01*
X94000Y-42925D01*
X94000Y-42811D01*
X94028Y-42659D01*
X94057Y-42583D01*
X94114Y-42506D01*
X94200Y-42468D01*
X94257Y-42468D01*
X94342Y-42506D01*
X94371Y-42545D01*
X94628Y-42964D02*
X95085Y-42964D01*
X95685Y-43268D02*
X95342Y-43268D01*
X95514Y-43268D02*
X95514Y-42468D01*
X95457Y-42583D01*
X95400Y-42659D01*
X95342Y-42697D01*
X96057Y-42468D02*
X96114Y-42468D01*
X96171Y-42506D01*
X96200Y-42545D01*
X96228Y-42621D01*
X96257Y-42773D01*
X96257Y-42964D01*
X96228Y-43116D01*
X96200Y-43192D01*
X96171Y-43230D01*
X96114Y-43268D01*
X96057Y-43268D01*
X96000Y-43230D01*
X95971Y-43192D01*
X95942Y-43116D01*
X95914Y-42964D01*
X95914Y-42773D01*
X95942Y-42621D01*
X95971Y-42545D01*
X96000Y-42506D01*
X96057Y-42468D01*
X96485Y-43040D02*
X96771Y-43040D01*
X96428Y-43268D02*
X96628Y-42468D01*
X96828Y-43268D01*
X83602Y-57692D02*
X83317Y-57692D01*
X83288Y-57978D01*
X83317Y-57950D01*
X83374Y-57921D01*
X83517Y-57921D01*
X83574Y-57950D01*
X83602Y-57978D01*
X83631Y-58035D01*
X83631Y-58178D01*
X83602Y-58235D01*
X83574Y-58264D01*
X83517Y-58292D01*
X83374Y-58292D01*
X83317Y-58264D01*
X83288Y-58235D01*
G54D12*
X108263Y-44250D02*
G75*
G03X108263Y-44250I-53J0D01*
G74*
G01*
X109146Y-44250D02*
G75*
G03X109146Y-44250I-56J0D01*
G74*
G01*
X103290Y-49210D02*
G75*
G03X103290Y-49210I-50J0D01*
G74*
G01*
G54D13*
X91754Y-61113D02*
X91125Y-61113D01*
X91125Y-60888D01*
X91155Y-60832D01*
X91185Y-60804D01*
X91245Y-60776D01*
X91335Y-60776D01*
X91395Y-60804D01*
X91425Y-60832D01*
X91455Y-60888D01*
X91455Y-61113D01*
X91125Y-60410D02*
X91125Y-60298D01*
X91155Y-60242D01*
X91215Y-60185D01*
X91335Y-60157D01*
X91544Y-60157D01*
X91664Y-60185D01*
X91724Y-60242D01*
X91754Y-60298D01*
X91754Y-60410D01*
X91724Y-60467D01*
X91664Y-60523D01*
X91544Y-60551D01*
X91335Y-60551D01*
X91215Y-60523D01*
X91155Y-60467D01*
X91125Y-60410D01*
X91125Y-59960D02*
X91754Y-59820D01*
X91305Y-59707D01*
X91754Y-59595D01*
X91125Y-59454D01*
X91425Y-59229D02*
X91425Y-59032D01*
X91754Y-58948D02*
X91754Y-59229D01*
X91125Y-59229D01*
X91125Y-58948D01*
X91754Y-58357D02*
X91455Y-58554D01*
X91754Y-58695D02*
X91125Y-58695D01*
X91125Y-58470D01*
X91155Y-58414D01*
X91185Y-58386D01*
X91245Y-58357D01*
X91335Y-58357D01*
X91395Y-58386D01*
X91425Y-58414D01*
X91455Y-58470D01*
X91455Y-58695D01*
X92724Y-61310D02*
X92754Y-61226D01*
X92754Y-61085D01*
X92724Y-61029D01*
X92694Y-61001D01*
X92634Y-60973D01*
X92574Y-60973D01*
X92514Y-61001D01*
X92485Y-61029D01*
X92455Y-61085D01*
X92425Y-61198D01*
X92395Y-61254D01*
X92365Y-61282D01*
X92305Y-61310D01*
X92245Y-61310D01*
X92185Y-61282D01*
X92155Y-61254D01*
X92125Y-61198D01*
X92125Y-61057D01*
X92155Y-60973D01*
X92125Y-60720D02*
X92634Y-60720D01*
X92694Y-60692D01*
X92724Y-60663D01*
X92754Y-60607D01*
X92754Y-60495D01*
X92724Y-60438D01*
X92694Y-60410D01*
X92634Y-60382D01*
X92125Y-60382D01*
X92754Y-60101D02*
X92125Y-60101D01*
X92125Y-59876D01*
X92155Y-59820D01*
X92185Y-59792D01*
X92245Y-59764D01*
X92335Y-59764D01*
X92395Y-59792D01*
X92425Y-59820D01*
X92455Y-59876D01*
X92455Y-60101D01*
X92754Y-59510D02*
X92125Y-59510D01*
X92125Y-59285D01*
X92155Y-59229D01*
X92185Y-59201D01*
X92245Y-59173D01*
X92335Y-59173D01*
X92395Y-59201D01*
X92425Y-59229D01*
X92455Y-59285D01*
X92455Y-59510D01*
X92754Y-58639D02*
X92754Y-58920D01*
X92125Y-58920D01*
X92455Y-58329D02*
X92754Y-58329D01*
X92125Y-58526D02*
X92455Y-58329D01*
X92125Y-58133D01*
G54D11*
X77279Y-44935D02*
X77136Y-44935D01*
X77136Y-43792D01*
X77279Y-43792D01*
X77907Y-44935D02*
X78050Y-44935D01*
X78050Y-43792D01*
X77907Y-43792D01*
X79136Y-44668D02*
X78793Y-44668D01*
X78965Y-44668D02*
X78965Y-43868D01*
X78907Y-43983D01*
X78850Y-44059D01*
X78793Y-44097D01*
X79365Y-43945D02*
X79393Y-43906D01*
X79450Y-43868D01*
X79593Y-43868D01*
X79650Y-43906D01*
X79679Y-43945D01*
X79707Y-44021D01*
X79707Y-44097D01*
X79679Y-44211D01*
X79336Y-44668D01*
X79707Y-44668D01*
X79879Y-43868D02*
X80079Y-44668D01*
X80279Y-43868D01*
X80479Y-44668D02*
X80479Y-43868D01*
X80622Y-43868D01*
X80707Y-43906D01*
X80765Y-43983D01*
X80793Y-44059D01*
X80822Y-44211D01*
X80822Y-44325D01*
X80793Y-44478D01*
X80765Y-44554D01*
X80707Y-44630D01*
X80622Y-44668D01*
X80479Y-44668D01*
X81422Y-44592D02*
X81393Y-44630D01*
X81307Y-44668D01*
X81250Y-44668D01*
X81165Y-44630D01*
X81107Y-44554D01*
X81079Y-44478D01*
X81050Y-44325D01*
X81050Y-44211D01*
X81079Y-44059D01*
X81107Y-43983D01*
X81165Y-43906D01*
X81250Y-43868D01*
X81307Y-43868D01*
X81393Y-43906D01*
X81422Y-43945D01*
X82307Y-44935D02*
X82165Y-44935D01*
X82165Y-43792D01*
X82307Y-43792D01*
X82936Y-44935D02*
X83079Y-44935D01*
X83079Y-43792D01*
X82936Y-43792D01*
X83822Y-43945D02*
X83850Y-43906D01*
X83907Y-43868D01*
X84050Y-43868D01*
X84107Y-43906D01*
X84136Y-43945D01*
X84165Y-44021D01*
X84165Y-44097D01*
X84136Y-44211D01*
X83793Y-44668D01*
X84165Y-44668D01*
X84679Y-44135D02*
X84679Y-44668D01*
X84536Y-43830D02*
X84393Y-44402D01*
X84765Y-44402D01*
X84907Y-43868D02*
X85107Y-44668D01*
X85307Y-43868D01*
X85507Y-44668D02*
X85507Y-43868D01*
X85650Y-43868D01*
X85736Y-43906D01*
X85793Y-43983D01*
X85822Y-44059D01*
X85850Y-44211D01*
X85850Y-44325D01*
X85822Y-44478D01*
X85793Y-44554D01*
X85736Y-44630D01*
X85650Y-44668D01*
X85507Y-44668D01*
X86450Y-44592D02*
X86422Y-44630D01*
X86336Y-44668D01*
X86279Y-44668D01*
X86193Y-44630D01*
X86136Y-44554D01*
X86107Y-44478D01*
X86079Y-44325D01*
X86079Y-44211D01*
X86107Y-44059D01*
X86136Y-43983D01*
X86193Y-43906D01*
X86279Y-43868D01*
X86336Y-43868D01*
X86422Y-43906D01*
X86450Y-43945D01*
G54D13*
X103724Y-46712D02*
X103754Y-46627D01*
X103754Y-46487D01*
X103724Y-46431D01*
X103694Y-46402D01*
X103634Y-46374D01*
X103574Y-46374D01*
X103514Y-46402D01*
X103485Y-46431D01*
X103455Y-46487D01*
X103425Y-46599D01*
X103395Y-46656D01*
X103365Y-46684D01*
X103305Y-46712D01*
X103245Y-46712D01*
X103185Y-46684D01*
X103155Y-46656D01*
X103125Y-46599D01*
X103125Y-46459D01*
X103155Y-46374D01*
X103125Y-46206D02*
X103125Y-45868D01*
X103754Y-46037D02*
X103125Y-46037D01*
X103574Y-45699D02*
X103574Y-45418D01*
X103754Y-45756D02*
X103125Y-45559D01*
X103754Y-45362D01*
X103125Y-45250D02*
X103125Y-44912D01*
X103754Y-45081D02*
X103125Y-45081D01*
X103125Y-44715D02*
X103634Y-44715D01*
X103694Y-44687D01*
X103724Y-44659D01*
X103754Y-44603D01*
X103754Y-44490D01*
X103724Y-44434D01*
X103694Y-44406D01*
X103634Y-44378D01*
X103125Y-44378D01*
X103724Y-44125D02*
X103754Y-44040D01*
X103754Y-43900D01*
X103724Y-43843D01*
X103694Y-43815D01*
X103634Y-43787D01*
X103574Y-43787D01*
X103514Y-43815D01*
X103485Y-43843D01*
X103455Y-43900D01*
X103425Y-44012D01*
X103395Y-44068D01*
X103365Y-44097D01*
X103305Y-44125D01*
X103245Y-44125D01*
X103185Y-44097D01*
X103155Y-44068D01*
X103125Y-44012D01*
X103125Y-43872D01*
X103155Y-43787D01*
G54D12*
X100125Y-47600D02*
X100125Y-48000D01*
X100125Y-47600D02*
X99300Y-47600D01*
X99300Y-47600D02*
X99300Y-48000D01*
G54D13*
X98378Y-43678D02*
X98434Y-43678D01*
X98490Y-43711D01*
X98518Y-43745D01*
X98547Y-43813D01*
X98575Y-43948D01*
X98575Y-44116D01*
X98547Y-44251D01*
X98518Y-44319D01*
X98490Y-44353D01*
X98434Y-44386D01*
X98378Y-44386D01*
X98322Y-44353D01*
X98293Y-44319D01*
X98265Y-44251D01*
X98237Y-44116D01*
X98237Y-43948D01*
X98265Y-43813D01*
X98293Y-43745D01*
X98322Y-43711D01*
X98378Y-43678D01*
X99587Y-44386D02*
X99250Y-44386D01*
X99418Y-44386D02*
X99418Y-43678D01*
X99362Y-43779D01*
X99306Y-43846D01*
X99250Y-43880D01*
X100262Y-43745D02*
X100290Y-43711D01*
X100346Y-43678D01*
X100487Y-43678D01*
X100543Y-43711D01*
X100571Y-43745D01*
X100599Y-43813D01*
X100599Y-43880D01*
X100571Y-43981D01*
X100234Y-44386D01*
X100599Y-44386D01*
X101246Y-43678D02*
X101612Y-43678D01*
X101415Y-43948D01*
X101499Y-43948D01*
X101556Y-43981D01*
X101584Y-44015D01*
X101612Y-44083D01*
X101612Y-44251D01*
X101584Y-44319D01*
X101556Y-44353D01*
X101499Y-44386D01*
X101331Y-44386D01*
X101274Y-44353D01*
X101246Y-44319D01*
G54D14*
X102278Y-51565D02*
X102278Y-51753D01*
X102615Y-51771D01*
X102581Y-51753D01*
X102548Y-51715D01*
X102548Y-51621D01*
X102581Y-51584D01*
X102615Y-51565D01*
X102683Y-51546D01*
X102851Y-51546D01*
X102919Y-51565D01*
X102953Y-51584D01*
X102986Y-51621D01*
X102986Y-51715D01*
X102953Y-51753D01*
X102919Y-51771D01*
X102278Y-51434D02*
X102986Y-51303D01*
X102278Y-51171D01*
X102953Y-50590D02*
X102986Y-50628D01*
X102986Y-50703D01*
X102953Y-50740D01*
X102885Y-50759D01*
X102615Y-50759D01*
X102548Y-50740D01*
X102514Y-50703D01*
X102514Y-50628D01*
X102548Y-50590D01*
X102615Y-50571D01*
X102683Y-50571D01*
X102750Y-50759D01*
X102986Y-50440D02*
X102514Y-50234D01*
X102514Y-50440D02*
X102986Y-50234D01*
X102514Y-50140D02*
X102514Y-49990D01*
X102278Y-50084D02*
X102885Y-50084D01*
X102953Y-50065D01*
X102986Y-50028D01*
X102986Y-49990D01*
G54D15*
X104584Y-46314D02*
X104565Y-46334D01*
X104565Y-46365D01*
X104584Y-46395D01*
X104621Y-46415D01*
X104659Y-46426D01*
X104734Y-46436D01*
X104790Y-46436D01*
X104865Y-46426D01*
X104903Y-46415D01*
X104940Y-46395D01*
X104959Y-46365D01*
X104959Y-46345D01*
X104940Y-46314D01*
X104921Y-46304D01*
X104790Y-46304D01*
X104790Y-46345D01*
X104959Y-46213D02*
X104565Y-46213D01*
X104959Y-46091D01*
X104565Y-46091D01*
X104959Y-45990D02*
X104565Y-45990D01*
X104565Y-45940D01*
X104584Y-45909D01*
X104621Y-45889D01*
X104659Y-45879D01*
X104734Y-45869D01*
X104790Y-45869D01*
X104865Y-45879D01*
X104903Y-45889D01*
X104940Y-45909D01*
X104959Y-45940D01*
X104959Y-45990D01*
X104809Y-45616D02*
X104809Y-45454D01*
X104959Y-45190D02*
X104565Y-45190D01*
X104565Y-45109D01*
X104584Y-45089D01*
X104603Y-45079D01*
X104640Y-45069D01*
X104696Y-45069D01*
X104734Y-45079D01*
X104753Y-45089D01*
X104771Y-45109D01*
X104771Y-45190D01*
X104565Y-44998D02*
X104959Y-44947D01*
X104678Y-44907D01*
X104959Y-44866D01*
X104565Y-44816D01*
X104959Y-44613D02*
X104771Y-44684D01*
X104959Y-44735D02*
X104565Y-44735D01*
X104565Y-44654D01*
X104584Y-44634D01*
X104603Y-44623D01*
X104640Y-44613D01*
X104696Y-44613D01*
X104734Y-44623D01*
X104753Y-44634D01*
X104771Y-44654D01*
X104771Y-44735D01*
G54D13*
X93460Y-58534D02*
X93432Y-58504D01*
X93376Y-58414D01*
X93348Y-58354D01*
X93320Y-58264D01*
X93292Y-58114D01*
X93292Y-57995D01*
X93320Y-57845D01*
X93348Y-57755D01*
X93376Y-57695D01*
X93432Y-57605D01*
X93460Y-57575D01*
X93685Y-58054D02*
X94135Y-58054D01*
X93910Y-58294D02*
X93910Y-57815D01*
X94360Y-58534D02*
X94388Y-58504D01*
X94445Y-58414D01*
X94473Y-58354D01*
X94501Y-58264D01*
X94529Y-58114D01*
X94529Y-57995D01*
X94501Y-57845D01*
X94473Y-57755D01*
X94445Y-57695D01*
X94388Y-57605D01*
X94360Y-57575D01*
X95879Y-58534D02*
X95851Y-58504D01*
X95794Y-58414D01*
X95766Y-58354D01*
X95738Y-58264D01*
X95710Y-58114D01*
X95710Y-57995D01*
X95738Y-57845D01*
X95766Y-57755D01*
X95794Y-57695D01*
X95851Y-57605D01*
X95879Y-57575D01*
X96104Y-58054D02*
X96554Y-58054D01*
X96779Y-58534D02*
X96807Y-58504D01*
X96863Y-58414D01*
X96891Y-58354D01*
X96919Y-58264D01*
X96947Y-58114D01*
X96947Y-57995D01*
X96919Y-57845D01*
X96891Y-57755D01*
X96863Y-57695D01*
X96807Y-57605D01*
X96779Y-57575D01*
X97096Y-57176D02*
X96388Y-57176D01*
X96455Y-56923D02*
X96421Y-56895D01*
X96388Y-56838D01*
X96388Y-56698D01*
X96421Y-56642D01*
X96455Y-56613D01*
X96523Y-56585D01*
X96590Y-56585D01*
X96691Y-56613D01*
X97096Y-56951D01*
X97096Y-56585D01*
X97029Y-55995D02*
X97063Y-56023D01*
X97096Y-56107D01*
X97096Y-56163D01*
X97063Y-56248D01*
X96995Y-56304D01*
X96928Y-56332D01*
X96793Y-56360D01*
X96691Y-56360D01*
X96556Y-56332D01*
X96489Y-56304D01*
X96421Y-56248D01*
X96388Y-56163D01*
X96388Y-56107D01*
X96421Y-56023D01*
X96455Y-55995D01*
X97096Y-55292D02*
X96388Y-55292D01*
X96388Y-55067D01*
X96421Y-55010D01*
X96455Y-54982D01*
X96523Y-54954D01*
X96624Y-54954D01*
X96691Y-54982D01*
X96725Y-55010D01*
X96759Y-55067D01*
X96759Y-55292D01*
X96388Y-54589D02*
X96388Y-54476D01*
X96421Y-54420D01*
X96489Y-54364D01*
X96624Y-54336D01*
X96860Y-54336D01*
X96995Y-54364D01*
X97063Y-54420D01*
X97096Y-54476D01*
X97096Y-54589D01*
X97063Y-54645D01*
X96995Y-54701D01*
X96860Y-54729D01*
X96624Y-54729D01*
X96489Y-54701D01*
X96421Y-54645D01*
X96388Y-54589D01*
X97096Y-53745D02*
X96759Y-53942D01*
X97096Y-54082D02*
X96388Y-54082D01*
X96388Y-53857D01*
X96421Y-53801D01*
X96455Y-53773D01*
X96523Y-53745D01*
X96624Y-53745D01*
X96691Y-53773D01*
X96725Y-53801D01*
X96759Y-53857D01*
X96759Y-54082D01*
X96388Y-53576D02*
X96388Y-53239D01*
X97096Y-53408D02*
X96388Y-53408D01*
X79056Y-47015D02*
X78859Y-47015D01*
X78859Y-47386D02*
X78859Y-46678D01*
X79140Y-46678D01*
X79703Y-47386D02*
X79506Y-47049D01*
X79365Y-47386D02*
X79365Y-46678D01*
X79590Y-46678D01*
X79647Y-46711D01*
X79675Y-46745D01*
X79703Y-46813D01*
X79703Y-46914D01*
X79675Y-46981D01*
X79647Y-47015D01*
X79590Y-47049D01*
X79365Y-47049D01*
X80068Y-46678D02*
X80181Y-46678D01*
X80237Y-46711D01*
X80293Y-46779D01*
X80322Y-46914D01*
X80322Y-47150D01*
X80293Y-47285D01*
X80237Y-47353D01*
X80181Y-47386D01*
X80068Y-47386D01*
X80012Y-47353D01*
X79956Y-47285D01*
X79928Y-47150D01*
X79928Y-46914D01*
X79956Y-46779D01*
X80012Y-46711D01*
X80068Y-46678D01*
X80575Y-47386D02*
X80575Y-46678D01*
X80912Y-47386D01*
X80912Y-46678D01*
X81109Y-46678D02*
X81446Y-46678D01*
X81278Y-47386D02*
X81278Y-46678D01*
X82093Y-47386D02*
X82093Y-46678D01*
X82318Y-46678D01*
X82374Y-46711D01*
X82403Y-46745D01*
X82431Y-46813D01*
X82431Y-46914D01*
X82403Y-46981D01*
X82374Y-47015D01*
X82318Y-47049D01*
X82093Y-47049D01*
X82656Y-47184D02*
X82937Y-47184D01*
X82599Y-47386D02*
X82796Y-46678D01*
X82993Y-47386D01*
X83190Y-47386D02*
X83190Y-46678D01*
X83527Y-47386D01*
X83527Y-46678D01*
X83809Y-47015D02*
X84005Y-47015D01*
X84090Y-47386D02*
X83809Y-47386D01*
X83809Y-46678D01*
X84090Y-46678D01*
X84624Y-47386D02*
X84343Y-47386D01*
X84343Y-46678D01*
X108454Y-43887D02*
X107825Y-43887D01*
X107825Y-43662D01*
X107855Y-43606D01*
X107885Y-43578D01*
X107945Y-43549D01*
X108035Y-43549D01*
X108095Y-43578D01*
X108125Y-43606D01*
X108155Y-43662D01*
X108155Y-43887D01*
X107825Y-43353D02*
X108454Y-43212D01*
X108005Y-43100D01*
X108454Y-42987D01*
X107825Y-42846D01*
X108454Y-42284D02*
X108155Y-42481D01*
X108454Y-42621D02*
X107825Y-42621D01*
X107825Y-42396D01*
X107855Y-42340D01*
X107885Y-42312D01*
X107945Y-42284D01*
X108035Y-42284D01*
X108095Y-42312D01*
X108125Y-42340D01*
X108155Y-42396D01*
X108155Y-42621D01*
X108800Y-43562D02*
X108800Y-43843D01*
X109100Y-43871D01*
X109070Y-43843D01*
X109040Y-43787D01*
X109040Y-43646D01*
X109070Y-43590D01*
X109100Y-43562D01*
X109160Y-43534D01*
X109309Y-43534D01*
X109369Y-43562D01*
X109399Y-43590D01*
X109429Y-43646D01*
X109429Y-43787D01*
X109399Y-43843D01*
X109369Y-43871D01*
X108800Y-43365D02*
X109429Y-43168D01*
X108800Y-42971D01*
X99125Y-42817D02*
X99096Y-42779D01*
X99039Y-42741D01*
X98982Y-42741D01*
X98925Y-42779D01*
X98896Y-42817D01*
X98867Y-42894D01*
X98867Y-42970D01*
X98896Y-43046D01*
X98925Y-43084D01*
X98982Y-43122D01*
X99039Y-43122D01*
X99096Y-43084D01*
X99125Y-43046D01*
X99125Y-42741D02*
X99125Y-43046D01*
X99153Y-43084D01*
X99182Y-43084D01*
X99239Y-43046D01*
X99267Y-42970D01*
X99267Y-42779D01*
X99210Y-42665D01*
X99125Y-42589D01*
X99010Y-42551D01*
X98896Y-42589D01*
X98810Y-42665D01*
X98753Y-42779D01*
X98725Y-42932D01*
X98753Y-43084D01*
X98810Y-43198D01*
X98896Y-43275D01*
X99010Y-43313D01*
X99125Y-43275D01*
X99210Y-43198D01*
X99525Y-43198D02*
X99525Y-42398D01*
X99782Y-42475D02*
X99810Y-42436D01*
X99867Y-42398D01*
X100010Y-42398D01*
X100067Y-42436D01*
X100096Y-42475D01*
X100125Y-42551D01*
X100125Y-42627D01*
X100096Y-42741D01*
X99753Y-43198D01*
X100125Y-43198D01*
X100725Y-43122D02*
X100696Y-43160D01*
X100610Y-43198D01*
X100553Y-43198D01*
X100467Y-43160D01*
X100410Y-43084D01*
X100382Y-43008D01*
X100353Y-42855D01*
X100353Y-42741D01*
X100382Y-42589D01*
X100410Y-42513D01*
X100467Y-42436D01*
X100553Y-42398D01*
X100610Y-42398D01*
X100696Y-42436D01*
X100725Y-42475D01*
G54D11*
X107085Y-33162D02*
X107200Y-33162D01*
X107257Y-33191D01*
X107314Y-33248D01*
X107342Y-33362D01*
X107342Y-33562D01*
X107314Y-33677D01*
X107257Y-33734D01*
X107200Y-33762D01*
X107085Y-33762D01*
X107028Y-33734D01*
X106971Y-33677D01*
X106942Y-33562D01*
X106942Y-33362D01*
X106971Y-33248D01*
X107028Y-33191D01*
X107085Y-33162D01*
X107600Y-33162D02*
X107600Y-33648D01*
X107628Y-33705D01*
X107657Y-33734D01*
X107714Y-33762D01*
X107828Y-33762D01*
X107885Y-33734D01*
X107914Y-33705D01*
X107942Y-33648D01*
X107942Y-33162D01*
X108142Y-33162D02*
X108485Y-33162D01*
X108314Y-33762D02*
X108314Y-33162D01*
X109085Y-33162D02*
X109485Y-33162D01*
X109228Y-33762D01*
X102285Y-33162D02*
X102400Y-33162D01*
X102457Y-33191D01*
X102514Y-33248D01*
X102542Y-33362D01*
X102542Y-33562D01*
X102514Y-33677D01*
X102457Y-33734D01*
X102400Y-33762D01*
X102285Y-33762D01*
X102228Y-33734D01*
X102171Y-33677D01*
X102142Y-33562D01*
X102142Y-33362D01*
X102171Y-33248D01*
X102228Y-33191D01*
X102285Y-33162D01*
X102800Y-33162D02*
X102800Y-33648D01*
X102828Y-33705D01*
X102857Y-33734D01*
X102914Y-33762D01*
X103028Y-33762D01*
X103085Y-33734D01*
X103114Y-33705D01*
X103142Y-33648D01*
X103142Y-33162D01*
X103342Y-33162D02*
X103685Y-33162D01*
X103514Y-33762D02*
X103514Y-33162D01*
X104600Y-33162D02*
X104485Y-33162D01*
X104428Y-33191D01*
X104400Y-33220D01*
X104342Y-33305D01*
X104314Y-33420D01*
X104314Y-33648D01*
X104342Y-33705D01*
X104371Y-33734D01*
X104428Y-33762D01*
X104542Y-33762D01*
X104600Y-33734D01*
X104628Y-33705D01*
X104657Y-33648D01*
X104657Y-33505D01*
X104628Y-33448D01*
X104600Y-33420D01*
X104542Y-33391D01*
X104428Y-33391D01*
X104371Y-33420D01*
X104342Y-33448D01*
X104314Y-33505D01*
X97585Y-33162D02*
X97700Y-33162D01*
X97757Y-33191D01*
X97814Y-33248D01*
X97842Y-33362D01*
X97842Y-33562D01*
X97814Y-33677D01*
X97757Y-33734D01*
X97700Y-33762D01*
X97585Y-33762D01*
X97528Y-33734D01*
X97471Y-33677D01*
X97442Y-33562D01*
X97442Y-33362D01*
X97471Y-33248D01*
X97528Y-33191D01*
X97585Y-33162D01*
X98100Y-33162D02*
X98100Y-33648D01*
X98128Y-33705D01*
X98157Y-33734D01*
X98214Y-33762D01*
X98328Y-33762D01*
X98385Y-33734D01*
X98414Y-33705D01*
X98442Y-33648D01*
X98442Y-33162D01*
X98642Y-33162D02*
X98985Y-33162D01*
X98814Y-33762D02*
X98814Y-33162D01*
X99928Y-33162D02*
X99642Y-33162D01*
X99614Y-33448D01*
X99642Y-33420D01*
X99700Y-33391D01*
X99842Y-33391D01*
X99900Y-33420D01*
X99928Y-33448D01*
X99957Y-33505D01*
X99957Y-33648D01*
X99928Y-33705D01*
X99900Y-33734D01*
X99842Y-33762D01*
X99700Y-33762D01*
X99642Y-33734D01*
X99614Y-33705D01*
X92685Y-33162D02*
X92800Y-33162D01*
X92857Y-33191D01*
X92914Y-33248D01*
X92942Y-33362D01*
X92942Y-33562D01*
X92914Y-33677D01*
X92857Y-33734D01*
X92800Y-33762D01*
X92685Y-33762D01*
X92628Y-33734D01*
X92571Y-33677D01*
X92542Y-33562D01*
X92542Y-33362D01*
X92571Y-33248D01*
X92628Y-33191D01*
X92685Y-33162D01*
X93200Y-33162D02*
X93200Y-33648D01*
X93228Y-33705D01*
X93257Y-33734D01*
X93314Y-33762D01*
X93428Y-33762D01*
X93485Y-33734D01*
X93514Y-33705D01*
X93542Y-33648D01*
X93542Y-33162D01*
X93742Y-33162D02*
X94085Y-33162D01*
X93914Y-33762D02*
X93914Y-33162D01*
X95000Y-33362D02*
X95000Y-33762D01*
X94857Y-33134D02*
X94714Y-33562D01*
X95085Y-33562D01*
X87085Y-33162D02*
X87200Y-33162D01*
X87257Y-33191D01*
X87314Y-33248D01*
X87342Y-33362D01*
X87342Y-33562D01*
X87314Y-33677D01*
X87257Y-33734D01*
X87200Y-33762D01*
X87085Y-33762D01*
X87028Y-33734D01*
X86971Y-33677D01*
X86942Y-33562D01*
X86942Y-33362D01*
X86971Y-33248D01*
X87028Y-33191D01*
X87085Y-33162D01*
X87600Y-33162D02*
X87600Y-33648D01*
X87628Y-33705D01*
X87657Y-33734D01*
X87714Y-33762D01*
X87828Y-33762D01*
X87885Y-33734D01*
X87914Y-33705D01*
X87942Y-33648D01*
X87942Y-33162D01*
X88142Y-33162D02*
X88485Y-33162D01*
X88314Y-33762D02*
X88314Y-33162D01*
X89085Y-33162D02*
X89457Y-33162D01*
X89257Y-33391D01*
X89342Y-33391D01*
X89400Y-33420D01*
X89428Y-33448D01*
X89457Y-33505D01*
X89457Y-33648D01*
X89428Y-33705D01*
X89400Y-33734D01*
X89342Y-33762D01*
X89171Y-33762D01*
X89114Y-33734D01*
X89085Y-33705D01*
X82385Y-33162D02*
X82500Y-33162D01*
X82557Y-33191D01*
X82614Y-33248D01*
X82642Y-33362D01*
X82642Y-33562D01*
X82614Y-33677D01*
X82557Y-33734D01*
X82500Y-33762D01*
X82385Y-33762D01*
X82328Y-33734D01*
X82271Y-33677D01*
X82242Y-33562D01*
X82242Y-33362D01*
X82271Y-33248D01*
X82328Y-33191D01*
X82385Y-33162D01*
X82900Y-33162D02*
X82900Y-33648D01*
X82928Y-33705D01*
X82957Y-33734D01*
X83014Y-33762D01*
X83128Y-33762D01*
X83185Y-33734D01*
X83214Y-33705D01*
X83242Y-33648D01*
X83242Y-33162D01*
X83442Y-33162D02*
X83785Y-33162D01*
X83614Y-33762D02*
X83614Y-33162D01*
X84414Y-33220D02*
X84442Y-33191D01*
X84500Y-33162D01*
X84642Y-33162D01*
X84700Y-33191D01*
X84728Y-33220D01*
X84757Y-33277D01*
X84757Y-33334D01*
X84728Y-33420D01*
X84385Y-33762D01*
X84757Y-33762D01*
X77485Y-33162D02*
X77600Y-33162D01*
X77657Y-33191D01*
X77714Y-33248D01*
X77742Y-33362D01*
X77742Y-33562D01*
X77714Y-33677D01*
X77657Y-33734D01*
X77600Y-33762D01*
X77485Y-33762D01*
X77428Y-33734D01*
X77371Y-33677D01*
X77342Y-33562D01*
X77342Y-33362D01*
X77371Y-33248D01*
X77428Y-33191D01*
X77485Y-33162D01*
X78000Y-33162D02*
X78000Y-33648D01*
X78028Y-33705D01*
X78057Y-33734D01*
X78114Y-33762D01*
X78228Y-33762D01*
X78285Y-33734D01*
X78314Y-33705D01*
X78342Y-33648D01*
X78342Y-33162D01*
X78542Y-33162D02*
X78885Y-33162D01*
X78714Y-33762D02*
X78714Y-33162D01*
X79857Y-33762D02*
X79514Y-33762D01*
X79685Y-33762D02*
X79685Y-33162D01*
X79628Y-33248D01*
X79571Y-33305D01*
X79514Y-33334D01*
X72785Y-33162D02*
X72900Y-33162D01*
X72957Y-33191D01*
X73014Y-33248D01*
X73042Y-33362D01*
X73042Y-33562D01*
X73014Y-33677D01*
X72957Y-33734D01*
X72900Y-33762D01*
X72785Y-33762D01*
X72728Y-33734D01*
X72671Y-33677D01*
X72642Y-33562D01*
X72642Y-33362D01*
X72671Y-33248D01*
X72728Y-33191D01*
X72785Y-33162D01*
X73300Y-33162D02*
X73300Y-33648D01*
X73328Y-33705D01*
X73357Y-33734D01*
X73414Y-33762D01*
X73528Y-33762D01*
X73585Y-33734D01*
X73614Y-33705D01*
X73642Y-33648D01*
X73642Y-33162D01*
X73842Y-33162D02*
X74185Y-33162D01*
X74014Y-33762D02*
X74014Y-33162D01*
X74957Y-33162D02*
X75014Y-33162D01*
X75071Y-33191D01*
X75100Y-33220D01*
X75128Y-33277D01*
X75157Y-33391D01*
X75157Y-33534D01*
X75128Y-33648D01*
X75100Y-33705D01*
X75071Y-33734D01*
X75014Y-33762D01*
X74957Y-33762D01*
X74900Y-33734D01*
X74871Y-33705D01*
X74842Y-33648D01*
X74814Y-33534D01*
X74814Y-33391D01*
X74842Y-33277D01*
X74871Y-33220D01*
X74900Y-33191D01*
X74957Y-33162D01*
X87702Y-58235D02*
X87674Y-58264D01*
X87588Y-58292D01*
X87531Y-58292D01*
X87445Y-58264D01*
X87388Y-58207D01*
X87360Y-58150D01*
X87331Y-58035D01*
X87331Y-57950D01*
X87360Y-57835D01*
X87388Y-57778D01*
X87445Y-57721D01*
X87531Y-57692D01*
X87588Y-57692D01*
X87674Y-57721D01*
X87702Y-57750D01*
X88074Y-57692D02*
X88188Y-57692D01*
X88245Y-57721D01*
X88302Y-57778D01*
X88331Y-57892D01*
X88331Y-58092D01*
X88302Y-58207D01*
X88245Y-58264D01*
X88188Y-58292D01*
X88074Y-58292D01*
X88017Y-58264D01*
X87960Y-58207D01*
X87931Y-58092D01*
X87931Y-57892D01*
X87960Y-57778D01*
X88017Y-57721D01*
X88074Y-57692D01*
X88588Y-58292D02*
X88588Y-57692D01*
X88788Y-58121D01*
X88988Y-57692D01*
X88988Y-58292D01*
X89588Y-58292D02*
X89245Y-58292D01*
X89417Y-58292D02*
X89417Y-57692D01*
X89359Y-57778D01*
X89302Y-57835D01*
X89245Y-57864D01*
X86260Y-57692D02*
X86660Y-57692D01*
X86402Y-58292D01*
X85074Y-57692D02*
X84960Y-57692D01*
X84902Y-57721D01*
X84874Y-57750D01*
X84817Y-57835D01*
X84788Y-57950D01*
X84788Y-58178D01*
X84817Y-58235D01*
X84845Y-58264D01*
X84902Y-58292D01*
X85017Y-58292D01*
X85074Y-58264D01*
X85102Y-58235D01*
X85131Y-58178D01*
X85131Y-58035D01*
X85102Y-57978D01*
X85074Y-57950D01*
X85017Y-57921D01*
X84902Y-57921D01*
X84845Y-57950D01*
X84817Y-57978D01*
X84788Y-58035D01*
X82074Y-57892D02*
X82074Y-58292D01*
X81931Y-57664D02*
X81788Y-58092D01*
X82160Y-58092D01*
X79102Y-58235D02*
X79074Y-58264D01*
X78988Y-58292D01*
X78931Y-58292D01*
X78845Y-58264D01*
X78788Y-58207D01*
X78760Y-58150D01*
X78731Y-58035D01*
X78731Y-57950D01*
X78760Y-57835D01*
X78788Y-57778D01*
X78845Y-57721D01*
X78931Y-57692D01*
X78988Y-57692D01*
X79074Y-57721D01*
X79102Y-57750D01*
X79474Y-57692D02*
X79588Y-57692D01*
X79645Y-57721D01*
X79702Y-57778D01*
X79731Y-57892D01*
X79731Y-58092D01*
X79702Y-58207D01*
X79645Y-58264D01*
X79588Y-58292D01*
X79474Y-58292D01*
X79417Y-58264D01*
X79360Y-58207D01*
X79331Y-58092D01*
X79331Y-57892D01*
X79360Y-57778D01*
X79417Y-57721D01*
X79474Y-57692D01*
X79988Y-58292D02*
X79988Y-57692D01*
X80188Y-58121D01*
X80388Y-57692D01*
X80388Y-58292D01*
X80788Y-57692D02*
X80845Y-57692D01*
X80902Y-57721D01*
X80931Y-57750D01*
X80959Y-57807D01*
X80988Y-57921D01*
X80988Y-58064D01*
X80959Y-58178D01*
X80931Y-58235D01*
X80902Y-58264D01*
X80845Y-58292D01*
X80788Y-58292D01*
X80731Y-58264D01*
X80702Y-58235D01*
X80674Y-58178D01*
X80645Y-58064D01*
X80645Y-57921D01*
X80674Y-57807D01*
X80702Y-57750D01*
X80731Y-57721D01*
X80788Y-57692D01*
X77760Y-57692D02*
X78131Y-57692D01*
X77931Y-57921D01*
X78017Y-57921D01*
X78074Y-57950D01*
X78102Y-57978D01*
X78131Y-58035D01*
X78131Y-58178D01*
X78102Y-58235D01*
X78074Y-58264D01*
X78017Y-58292D01*
X77845Y-58292D01*
X77788Y-58264D01*
X77760Y-58235D01*
X76288Y-57750D02*
X76317Y-57721D01*
X76374Y-57692D01*
X76517Y-57692D01*
X76574Y-57721D01*
X76602Y-57750D01*
X76631Y-57807D01*
X76631Y-57864D01*
X76602Y-57950D01*
X76260Y-58292D01*
X76631Y-58292D01*
X75131Y-58292D02*
X74788Y-58292D01*
X74960Y-58292D02*
X74960Y-57692D01*
X74902Y-57778D01*
X74845Y-57835D01*
X74788Y-57864D01*
X71931Y-58292D02*
X71931Y-57692D01*
X72217Y-58292D02*
X72217Y-57692D01*
X72560Y-58292D01*
X72560Y-57692D01*
X73417Y-57692D02*
X73474Y-57692D01*
X73531Y-57721D01*
X73560Y-57750D01*
X73588Y-57807D01*
X73617Y-57921D01*
X73617Y-58064D01*
X73588Y-58178D01*
X73560Y-58235D01*
X73531Y-58264D01*
X73474Y-58292D01*
X73417Y-58292D01*
X73360Y-58264D01*
X73331Y-58235D01*
X73302Y-58178D01*
X73274Y-58064D01*
X73274Y-57921D01*
X73302Y-57807D01*
X73331Y-57750D01*
X73360Y-57721D01*
X73417Y-57692D01*
G54D12*
X82150Y-48400D02*
X82200Y-48400D01*
X82000Y-50350D02*
X82000Y-49700D01*
X82100Y-49050D02*
X82150Y-49050D01*
X80950Y-50350D02*
X81950Y-50350D01*
X80900Y-49700D02*
X80900Y-50350D01*
X71500Y-62000D02*
X110900Y-62000D01*
X71500Y-28000D02*
X110900Y-28000D01*
X110900Y-28000D02*
X110800Y-28000D01*
X110900Y-62000D02*
X110900Y-28000D01*
X71500Y-62000D02*
X71500Y-28000D01*
X76600Y-49700D02*
X86600Y-49700D01*
X86600Y-47700D02*
X76625Y-47700D01*
X76600Y-47700D02*
X76600Y-49700D01*
X86600Y-49700D02*
X86600Y-47700D01*
G54D16*
X93660Y-49730D02*
X93660Y-49280D01*
X95840Y-49730D02*
X95840Y-49290D01*
X93660Y-49730D02*
X95840Y-49730D01*
X93190Y-48850D02*
X92760Y-48850D01*
X93180Y-46640D02*
X92760Y-46640D01*
X92760Y-46630D02*
X92750Y-48850D01*
X96730Y-46650D02*
X96740Y-48820D01*
X96040Y-46220D02*
X93210Y-46220D01*
X96730Y-48830D02*
X96320Y-48830D01*
X96280Y-46470D02*
X96280Y-49250D01*
X93200Y-49270D02*
X96240Y-49270D01*
X93200Y-46220D02*
X93200Y-49220D01*
X95870Y-45770D02*
X93650Y-45770D01*
X93650Y-45770D02*
X93650Y-46220D01*
X96050Y-46224D02*
X96280Y-46454D01*
X95870Y-45772D02*
X95870Y-46224D01*
X96280Y-46650D02*
X96732Y-46650D01*
X96064Y-46632D02*
G75*
G03X96064Y-46632I-188J0D01*
G74*
G01*
G54D17*
X81000Y-59045D02*
X81000Y-62545D01*
X89000Y-59045D02*
X89000Y-62545D01*
X81000Y-62545D02*
X89000Y-62545D01*
X89000Y-59045D02*
X81000Y-59045D01*
X72500Y-59045D02*
X72500Y-62545D01*
X80500Y-59045D02*
X80500Y-62545D01*
X72500Y-62545D02*
X80500Y-62545D01*
X80500Y-59045D02*
X72500Y-59045D01*
G54D12*
X109000Y-53312D02*
X103900Y-53312D01*
X103900Y-53312D02*
X103800Y-53312D01*
X103800Y-53312D02*
X103800Y-49912D01*
X103800Y-49912D02*
X105800Y-49912D01*
X105800Y-49912D02*
X105900Y-50212D01*
X105900Y-50212D02*
X106800Y-50212D01*
X106800Y-50212D02*
X106900Y-49912D01*
X106900Y-49912D02*
X109000Y-49912D01*
X109000Y-49912D02*
X109000Y-53312D01*
X103500Y-53612D02*
X103500Y-49612D01*
X103500Y-49612D02*
X109300Y-49612D01*
X109300Y-49612D02*
X109300Y-53612D01*
X109300Y-53612D02*
X103500Y-53612D01*
G54D18*
X104900Y-50612D02*
X107900Y-50612D01*
X107900Y-52612D02*
X104900Y-52612D01*
X104900Y-52612D02*
X104900Y-50612D01*
X107900Y-50612D02*
X107900Y-52612D01*
G54D19*
X109099Y-45539D02*
X109099Y-45461D01*
X109099Y-45461D02*
X109021Y-45461D01*
X109021Y-45539D02*
X109021Y-45461D01*
X109099Y-45539D02*
X109021Y-45539D01*
X109335Y-45323D02*
X109335Y-45186D01*
X109335Y-45186D02*
X109237Y-45186D01*
X109237Y-45323D02*
X109237Y-45186D01*
X109335Y-45323D02*
X109237Y-45323D01*
X109335Y-45186D02*
X109335Y-45146D01*
X109335Y-45146D02*
X108864Y-45146D01*
X108864Y-45186D02*
X108864Y-45146D01*
X109335Y-45186D02*
X108864Y-45186D01*
X108844Y-45186D02*
X108844Y-45146D01*
X108844Y-45146D02*
X108785Y-45146D01*
X108785Y-45186D02*
X108785Y-45146D01*
X108844Y-45186D02*
X108785Y-45186D01*
X109335Y-45854D02*
X109335Y-45814D01*
X109335Y-45814D02*
X108864Y-45814D01*
X108864Y-45854D02*
X108864Y-45814D01*
X109335Y-45854D02*
X108864Y-45854D01*
X108844Y-45854D02*
X108844Y-45814D01*
X108844Y-45814D02*
X108785Y-45814D01*
X108785Y-45854D02*
X108785Y-45814D01*
X108844Y-45854D02*
X108785Y-45854D01*
X109335Y-45323D02*
X109335Y-45264D01*
X109335Y-45264D02*
X109237Y-45264D01*
X109237Y-45323D02*
X109237Y-45264D01*
X109335Y-45323D02*
X109237Y-45323D01*
G54D20*
X109355Y-44890D02*
X109355Y-46110D01*
X109355Y-46110D02*
X108765Y-46110D01*
X108765Y-46110D02*
X108765Y-44890D01*
X108765Y-44890D02*
X109355Y-44890D01*
X109256Y-45715D02*
G75*
G03X109255Y-45283I-196J215D01*
G74*
G01*
X108863Y-45715D02*
G75*
G03X109255Y-45716I196J215D01*
G74*
G01*
X108863Y-45284D02*
G75*
G03X108864Y-45716I196J-215D01*
G74*
G01*
X109256Y-45284D02*
G75*
G03X108864Y-45283I-196J-215D01*
G74*
G01*
G54D19*
X108189Y-45539D02*
X108189Y-45461D01*
X108189Y-45461D02*
X108111Y-45461D01*
X108111Y-45539D02*
X108111Y-45461D01*
X108189Y-45539D02*
X108111Y-45539D01*
X108425Y-45323D02*
X108425Y-45186D01*
X108425Y-45186D02*
X108327Y-45186D01*
X108327Y-45323D02*
X108327Y-45186D01*
X108425Y-45323D02*
X108327Y-45323D01*
X108425Y-45186D02*
X108425Y-45146D01*
X108425Y-45146D02*
X107954Y-45146D01*
X107954Y-45186D02*
X107954Y-45146D01*
X108425Y-45186D02*
X107954Y-45186D01*
X107934Y-45186D02*
X107934Y-45146D01*
X107934Y-45146D02*
X107875Y-45146D01*
X107875Y-45186D02*
X107875Y-45146D01*
X107934Y-45186D02*
X107875Y-45186D01*
X108425Y-45854D02*
X108425Y-45814D01*
X108425Y-45814D02*
X107954Y-45814D01*
X107954Y-45854D02*
X107954Y-45814D01*
X108425Y-45854D02*
X107954Y-45854D01*
X107934Y-45854D02*
X107934Y-45814D01*
X107934Y-45814D02*
X107875Y-45814D01*
X107875Y-45854D02*
X107875Y-45814D01*
X107934Y-45854D02*
X107875Y-45854D01*
X108425Y-45323D02*
X108425Y-45264D01*
X108425Y-45264D02*
X108327Y-45264D01*
X108327Y-45323D02*
X108327Y-45264D01*
X108425Y-45323D02*
X108327Y-45323D01*
G54D20*
X108445Y-44890D02*
X108445Y-46110D01*
X108445Y-46110D02*
X107855Y-46110D01*
X107855Y-46110D02*
X107855Y-44890D01*
X107855Y-44890D02*
X108445Y-44890D01*
X108346Y-45715D02*
G75*
G03X108345Y-45283I-196J215D01*
G74*
G01*
X107953Y-45715D02*
G75*
G03X108345Y-45716I196J215D01*
G74*
G01*
X107953Y-45284D02*
G75*
G03X107954Y-45716I196J-215D01*
G74*
G01*
X108346Y-45284D02*
G75*
G03X107954Y-45283I-196J-215D01*
G74*
G01*
G54D19*
X103461Y-47961D02*
X103461Y-48039D01*
X103461Y-48039D02*
X103539Y-48039D01*
X103539Y-47961D02*
X103539Y-48039D01*
X103461Y-47961D02*
X103539Y-47961D01*
X103225Y-48177D02*
X103225Y-48314D01*
X103225Y-48314D02*
X103323Y-48314D01*
X103323Y-48177D02*
X103323Y-48314D01*
X103225Y-48177D02*
X103323Y-48177D01*
X103225Y-48314D02*
X103225Y-48354D01*
X103225Y-48354D02*
X103696Y-48354D01*
X103696Y-48314D02*
X103696Y-48354D01*
X103225Y-48314D02*
X103696Y-48314D01*
X103716Y-48314D02*
X103716Y-48354D01*
X103716Y-48354D02*
X103775Y-48354D01*
X103775Y-48314D02*
X103775Y-48354D01*
X103716Y-48314D02*
X103775Y-48314D01*
X103225Y-47646D02*
X103225Y-47686D01*
X103225Y-47686D02*
X103696Y-47686D01*
X103696Y-47646D02*
X103696Y-47686D01*
X103225Y-47646D02*
X103696Y-47646D01*
X103716Y-47646D02*
X103716Y-47686D01*
X103716Y-47686D02*
X103775Y-47686D01*
X103775Y-47646D02*
X103775Y-47686D01*
X103716Y-47646D02*
X103775Y-47646D01*
X103225Y-48177D02*
X103225Y-48236D01*
X103225Y-48236D02*
X103323Y-48236D01*
X103323Y-48177D02*
X103323Y-48236D01*
X103225Y-48177D02*
X103323Y-48177D01*
G54D20*
X103205Y-48610D02*
X103205Y-47390D01*
X103205Y-47390D02*
X103795Y-47390D01*
X103795Y-47390D02*
X103795Y-48610D01*
X103795Y-48610D02*
X103205Y-48610D01*
X103303Y-47784D02*
G75*
G03X103304Y-48216I196J-215D01*
G74*
G01*
X103696Y-47784D02*
G75*
G03X103304Y-47783I-196J-215D01*
G74*
G01*
X103696Y-48215D02*
G75*
G03X103695Y-47783I-196J215D01*
G74*
G01*
X103303Y-48215D02*
G75*
G03X103695Y-48216I196J215D01*
G74*
G01*
G54D16*
X101875Y-46675D02*
X100875Y-46675D01*
X100875Y-46675D02*
X100875Y-44675D01*
X100875Y-44675D02*
X101875Y-44675D01*
X101875Y-44675D02*
X101875Y-46675D01*
X100875Y-46675D02*
X99875Y-46675D01*
X99875Y-46675D02*
X99875Y-44675D01*
X99875Y-44675D02*
X100875Y-44675D01*
X100875Y-44675D02*
X100875Y-46675D01*
X98875Y-46675D02*
X97875Y-46675D01*
X97875Y-46675D02*
X97875Y-44675D01*
X97875Y-44675D02*
X98875Y-44675D01*
X98875Y-44675D02*
X98875Y-46675D01*
X105225Y-44500D02*
X106225Y-44500D01*
X106225Y-44500D02*
X106225Y-46500D01*
X106225Y-46500D02*
X105225Y-46500D01*
X105225Y-46500D02*
X105225Y-44500D01*
X99875Y-46675D02*
X98875Y-46675D01*
X98875Y-46675D02*
X98875Y-44675D01*
X98875Y-44675D02*
X99875Y-44675D01*
X99875Y-44675D02*
X99875Y-46675D01*
G54D21*
X83450Y-57300D02*
X83450Y-56400D01*
X83450Y-56400D02*
X82800Y-56400D01*
X82100Y-57300D02*
X81450Y-57300D01*
X81450Y-57300D02*
X81450Y-56400D01*
X81450Y-56400D02*
X82100Y-56400D01*
X82800Y-57300D02*
X83450Y-57300D01*
X105150Y-49000D02*
X106050Y-49000D01*
X106050Y-49000D02*
X106050Y-48350D01*
X105150Y-47650D02*
X105150Y-47000D01*
X105150Y-47000D02*
X106050Y-47000D01*
X106050Y-47000D02*
X106050Y-47650D01*
X105150Y-48350D02*
X105150Y-49000D01*
X104150Y-49000D02*
X105050Y-49000D01*
X105050Y-49000D02*
X105050Y-48350D01*
X104150Y-47650D02*
X104150Y-47000D01*
X104150Y-47000D02*
X105050Y-47000D01*
X105050Y-47000D02*
X105050Y-47650D01*
X104150Y-48350D02*
X104150Y-49000D01*
X102000Y-48950D02*
X102900Y-48950D01*
X102900Y-48950D02*
X102900Y-48300D01*
X102000Y-47600D02*
X102000Y-46950D01*
X102000Y-46950D02*
X102900Y-46950D01*
X102900Y-46950D02*
X102900Y-47600D01*
X102000Y-48300D02*
X102000Y-48950D01*
X95100Y-45150D02*
X95100Y-44250D01*
X95100Y-44250D02*
X94450Y-44250D01*
X93750Y-45150D02*
X93100Y-45150D01*
X93100Y-45150D02*
X93100Y-44250D01*
X93100Y-44250D02*
X93750Y-44250D01*
X94450Y-45150D02*
X95100Y-45150D01*
X107500Y-44475D02*
X106600Y-44475D01*
X106600Y-44475D02*
X106600Y-45125D01*
X107500Y-45825D02*
X107500Y-46475D01*
X107500Y-46475D02*
X106600Y-46475D01*
X106600Y-46475D02*
X106600Y-45825D01*
X107500Y-45125D02*
X107500Y-44475D01*
X78550Y-57300D02*
X78550Y-56400D01*
X78550Y-56400D02*
X77900Y-56400D01*
X77200Y-57300D02*
X76550Y-57300D01*
X76550Y-57300D02*
X76550Y-56400D01*
X76550Y-56400D02*
X77200Y-56400D01*
X77900Y-57300D02*
X78550Y-57300D01*
X108100Y-49000D02*
X109000Y-49000D01*
X109000Y-49000D02*
X109000Y-48350D01*
X108100Y-47650D02*
X108100Y-47000D01*
X108100Y-47000D02*
X109000Y-47000D01*
X109000Y-47000D02*
X109000Y-47650D01*
X108100Y-48350D02*
X108100Y-49000D01*
X76300Y-57300D02*
X76300Y-56400D01*
X76300Y-56400D02*
X75650Y-56400D01*
X74950Y-57300D02*
X74300Y-57300D01*
X74300Y-57300D02*
X74300Y-56400D01*
X74300Y-56400D02*
X74950Y-56400D01*
X75650Y-57300D02*
X76300Y-57300D01*
X80800Y-57300D02*
X80800Y-56400D01*
X80800Y-56400D02*
X80150Y-56400D01*
X79450Y-57300D02*
X78800Y-57300D01*
X78800Y-57300D02*
X78800Y-56400D01*
X78800Y-56400D02*
X79450Y-56400D01*
X80150Y-57300D02*
X80800Y-57300D01*
X90200Y-57300D02*
X90200Y-56400D01*
X90200Y-56400D02*
X89550Y-56400D01*
X88850Y-57300D02*
X88200Y-57300D01*
X88200Y-57300D02*
X88200Y-56400D01*
X88200Y-56400D02*
X88850Y-56400D01*
X89550Y-57300D02*
X90200Y-57300D01*
X85700Y-57300D02*
X85700Y-56400D01*
X85700Y-56400D02*
X85050Y-56400D01*
X84350Y-57300D02*
X83700Y-57300D01*
X83700Y-57300D02*
X83700Y-56400D01*
X83700Y-56400D02*
X84350Y-56400D01*
X85050Y-57300D02*
X85700Y-57300D01*
X87950Y-57300D02*
X87950Y-56400D01*
X87950Y-56400D02*
X87300Y-56400D01*
X86600Y-57300D02*
X85950Y-57300D01*
X85950Y-57300D02*
X85950Y-56400D01*
X85950Y-56400D02*
X86600Y-56400D01*
X87300Y-57300D02*
X87950Y-57300D01*
G54D18*
X98225Y-48025D02*
X101225Y-48025D01*
X101225Y-50025D02*
X98225Y-50025D01*
X98225Y-50025D02*
X98225Y-48025D01*
X101225Y-48025D02*
X101225Y-50025D01*
G54D21*
X74050Y-57250D02*
X74050Y-56350D01*
X74050Y-56350D02*
X73400Y-56350D01*
X72700Y-57250D02*
X72050Y-57250D01*
X72050Y-57250D02*
X72050Y-56350D01*
X72050Y-56350D02*
X72700Y-56350D01*
X73400Y-57250D02*
X74050Y-57250D01*
X108050Y-47000D02*
X107150Y-47000D01*
X107150Y-47000D02*
X107150Y-47650D01*
X108050Y-48350D02*
X108050Y-49000D01*
X108050Y-49000D02*
X107150Y-49000D01*
X107150Y-49000D02*
X107150Y-48350D01*
X108050Y-47650D02*
X108050Y-47000D01*
X107050Y-47000D02*
X106150Y-47000D01*
X106150Y-47000D02*
X106150Y-47650D01*
X107050Y-48350D02*
X107050Y-49000D01*
X107050Y-49000D02*
X106150Y-49000D01*
X106150Y-49000D02*
X106150Y-48350D01*
X107050Y-47650D02*
X107050Y-47000D01*
G54D22*
X96850Y-59045D02*
X96850Y-62595D01*
X93450Y-59045D02*
X93450Y-62595D01*
X93500Y-62595D02*
X96850Y-62595D01*
X96850Y-59045D02*
X93500Y-59045D01*
G54D21*
X94050Y-50300D02*
X93150Y-50300D01*
X93150Y-50300D02*
X93150Y-50950D01*
X94050Y-51650D02*
X94050Y-52300D01*
X94050Y-52300D02*
X93150Y-52300D01*
X93150Y-52300D02*
X93150Y-51650D01*
X94050Y-50950D02*
X94050Y-50300D01*
G54D22*
X76100Y-35400D02*
X76100Y-34650D01*
X76100Y-34650D02*
X71750Y-34650D01*
X71750Y-34650D02*
X71750Y-35200D01*
X71750Y-42000D02*
X71750Y-35150D01*
X76100Y-42000D02*
X76100Y-35150D01*
X71750Y-42000D02*
X76100Y-42000D01*
X81000Y-35400D02*
X81000Y-34650D01*
X81000Y-34650D02*
X76650Y-34650D01*
X76650Y-34650D02*
X76650Y-35200D01*
X76650Y-42000D02*
X76650Y-35150D01*
X81000Y-42000D02*
X81000Y-35150D01*
X76650Y-42000D02*
X81000Y-42000D01*
X85900Y-35400D02*
X85900Y-34650D01*
X85900Y-34650D02*
X81550Y-34650D01*
X81550Y-34650D02*
X81550Y-35200D01*
X81550Y-42000D02*
X81550Y-35150D01*
X85900Y-42000D02*
X85900Y-35150D01*
X81550Y-42000D02*
X85900Y-42000D01*
X90800Y-35400D02*
X90800Y-34650D01*
X90800Y-34650D02*
X86450Y-34650D01*
X86450Y-34650D02*
X86450Y-35200D01*
X86450Y-42000D02*
X86450Y-35150D01*
X90800Y-42000D02*
X90800Y-35150D01*
X86450Y-42000D02*
X90800Y-42000D01*
X71750Y-32489D02*
X71600Y-32489D01*
X71600Y-32489D02*
X71600Y-27789D01*
X71600Y-27789D02*
X76400Y-27789D01*
X76400Y-27789D02*
X76400Y-32489D01*
X76400Y-32489D02*
X71750Y-32489D01*
X76550Y-32489D02*
X76400Y-32489D01*
X76400Y-32489D02*
X76400Y-27789D01*
X76400Y-27789D02*
X81200Y-27789D01*
X81200Y-27789D02*
X81200Y-32489D01*
X81200Y-32489D02*
X76550Y-32489D01*
X81350Y-32489D02*
X81200Y-32489D01*
X81200Y-32489D02*
X81200Y-27789D01*
X81200Y-27789D02*
X86000Y-27789D01*
X86000Y-27789D02*
X86000Y-32489D01*
X86000Y-32489D02*
X81350Y-32489D01*
X86150Y-32489D02*
X86000Y-32489D01*
X86000Y-32489D02*
X86000Y-27789D01*
X86000Y-27789D02*
X90800Y-27789D01*
X90800Y-27789D02*
X90800Y-32489D01*
X90800Y-32489D02*
X86150Y-32489D01*
X91750Y-32489D02*
X91600Y-32489D01*
X91600Y-32489D02*
X91600Y-27789D01*
X91600Y-27789D02*
X96400Y-27789D01*
X96400Y-27789D02*
X96400Y-32489D01*
X96400Y-32489D02*
X91750Y-32489D01*
X96550Y-32489D02*
X96400Y-32489D01*
X96400Y-32489D02*
X96400Y-27789D01*
X96400Y-27789D02*
X101200Y-27789D01*
X101200Y-27789D02*
X101200Y-32489D01*
X101200Y-32489D02*
X96550Y-32489D01*
X101350Y-32489D02*
X101200Y-32489D01*
X101200Y-32489D02*
X101200Y-27789D01*
X101200Y-27789D02*
X106000Y-27789D01*
X106000Y-27789D02*
X106000Y-32489D01*
X106000Y-32489D02*
X101350Y-32489D01*
X106150Y-32489D02*
X106000Y-32489D01*
X106000Y-32489D02*
X106000Y-27789D01*
X106000Y-27789D02*
X110800Y-27789D01*
X110800Y-27789D02*
X110800Y-32489D01*
X110800Y-32489D02*
X106150Y-32489D01*
X110450Y-35400D02*
X110450Y-34650D01*
X110450Y-34650D02*
X106100Y-34650D01*
X106100Y-34650D02*
X106100Y-35200D01*
X106100Y-42000D02*
X106100Y-35150D01*
X110450Y-42000D02*
X110450Y-35150D01*
X106100Y-42000D02*
X110450Y-42000D01*
X105600Y-35400D02*
X105600Y-34650D01*
X105600Y-34650D02*
X101250Y-34650D01*
X101250Y-34650D02*
X101250Y-35200D01*
X101250Y-42000D02*
X101250Y-35150D01*
X105600Y-42000D02*
X105600Y-35150D01*
X101250Y-42000D02*
X105600Y-42000D01*
X100750Y-35400D02*
X100750Y-34650D01*
X100750Y-34650D02*
X96400Y-34650D01*
X96400Y-34650D02*
X96400Y-35200D01*
X96400Y-42000D02*
X96400Y-35150D01*
X100750Y-42000D02*
X100750Y-35150D01*
X96400Y-42000D02*
X100750Y-42000D01*
X95900Y-35400D02*
X95900Y-34650D01*
X95900Y-34650D02*
X91550Y-34650D01*
X91550Y-34650D02*
X91550Y-35200D01*
X91550Y-42000D02*
X91550Y-35150D01*
X95900Y-42000D02*
X95900Y-35150D01*
X91550Y-42000D02*
X95900Y-42000D01*
X97400Y-54112D02*
X97400Y-61962D01*
X97400Y-61962D02*
X103400Y-61962D01*
X103400Y-61962D02*
X103400Y-54112D01*
X103400Y-54112D02*
X97400Y-54112D01*
G54D21*
X97400Y-61212D02*
X103400Y-61212D01*
X103400Y-61212D02*
X103400Y-54112D01*
X103400Y-54112D02*
X97400Y-54112D01*
X97400Y-54112D02*
X97400Y-61212D01*
G54D22*
X104000Y-54112D02*
X104000Y-61962D01*
X104000Y-61962D02*
X110000Y-61962D01*
X110000Y-61962D02*
X110000Y-54112D01*
X110000Y-54112D02*
X104000Y-54112D01*
G54D21*
X104000Y-61212D02*
X110000Y-61212D01*
X110000Y-61212D02*
X110000Y-54112D01*
X110000Y-54112D02*
X104000Y-54112D01*
X104000Y-54112D02*
X104000Y-61212D01*
G54D22*
X97650Y-50975D02*
X101750Y-50975D01*
X101750Y-50825D02*
X97650Y-50825D01*
X101750Y-50825D02*
X101750Y-53975D01*
X101750Y-53975D02*
X97650Y-53975D01*
X97650Y-53975D02*
X101650Y-53975D01*
X97650Y-53975D02*
X97650Y-50825D01*
X72400Y-53400D02*
X72900Y-53400D01*
X72900Y-53400D02*
X72900Y-53900D01*
X72900Y-53900D02*
X72400Y-53900D01*
X80400Y-52400D02*
X72400Y-52400D01*
X72400Y-52400D02*
X72400Y-54900D01*
X72400Y-54900D02*
X80400Y-54900D01*
X80400Y-54900D02*
X80400Y-52400D01*
X81750Y-53400D02*
X82250Y-53400D01*
X82250Y-53400D02*
X82250Y-53900D01*
X82250Y-53900D02*
X81750Y-53900D01*
X89750Y-52400D02*
X81750Y-52400D01*
X81750Y-52400D02*
X81750Y-54900D01*
X81750Y-54900D02*
X89750Y-54900D01*
X89750Y-54900D02*
X89750Y-52400D01*
X72350Y-44000D02*
X74750Y-44000D01*
X74750Y-44000D02*
X75150Y-44200D01*
X75150Y-44200D02*
X76150Y-44200D01*
X76150Y-44200D02*
X76550Y-44000D01*
X72350Y-43800D02*
X74750Y-43800D01*
X74750Y-43800D02*
X75150Y-44000D01*
X75150Y-44000D02*
X76150Y-44000D01*
X76150Y-44000D02*
X76550Y-43800D01*
X76150Y-43800D02*
X76550Y-43600D01*
X75150Y-43800D02*
X76150Y-43800D01*
X74750Y-43600D02*
X75150Y-43800D01*
X72350Y-43600D02*
X74750Y-43600D01*
X72350Y-43600D02*
X74750Y-43600D01*
X74750Y-43600D02*
X75150Y-43800D01*
X75150Y-43800D02*
X76150Y-43800D01*
X76150Y-43800D02*
X76550Y-43600D01*
X76150Y-43800D02*
X76550Y-43600D01*
X75150Y-43800D02*
X76150Y-43800D01*
X74750Y-43600D02*
X75150Y-43800D01*
X72350Y-43600D02*
X74750Y-43600D01*
X72350Y-43600D02*
X74750Y-43600D01*
X74750Y-43600D02*
X75150Y-43800D01*
X75150Y-43800D02*
X76150Y-43800D01*
X76150Y-43800D02*
X76550Y-43600D01*
X76150Y-43800D02*
X76550Y-43600D01*
X75150Y-43800D02*
X76150Y-43800D01*
X74750Y-43600D02*
X75150Y-43800D01*
X72350Y-43600D02*
X74750Y-43600D01*
X72350Y-43600D02*
X74750Y-43600D01*
X74750Y-43600D02*
X75150Y-43800D01*
X75150Y-43800D02*
X76150Y-43800D01*
X76150Y-43800D02*
X76550Y-43600D01*
X76150Y-43800D02*
X76550Y-43600D01*
X75150Y-43800D02*
X76150Y-43800D01*
X74750Y-43600D02*
X75150Y-43800D01*
X72350Y-43600D02*
X74750Y-43600D01*
X72350Y-43600D02*
X74750Y-43600D01*
X74750Y-43600D02*
X75150Y-43800D01*
X75150Y-43800D02*
X76150Y-43800D01*
X76150Y-43800D02*
X76550Y-43600D01*
X76425Y-43300D02*
X76525Y-43225D01*
X76200Y-43200D02*
X76300Y-43300D01*
X75375Y-43300D02*
X75425Y-43300D01*
X75150Y-43300D02*
X75400Y-43300D01*
X75150Y-42700D02*
X75425Y-42700D01*
X75300Y-43275D02*
X75300Y-42750D01*
X76175Y-43100D02*
X76200Y-43200D01*
X76300Y-43300D02*
X76425Y-43300D01*
X76575Y-43075D02*
X76550Y-43200D01*
X76175Y-42875D02*
X76200Y-42775D01*
X76200Y-42775D02*
X76275Y-42700D01*
X76275Y-42700D02*
X76325Y-42675D01*
X76325Y-42675D02*
X76425Y-42675D01*
X76425Y-42675D02*
X76475Y-42700D01*
X76475Y-42700D02*
X76525Y-42725D01*
X76525Y-42725D02*
X76550Y-42775D01*
X76550Y-42775D02*
X76575Y-42850D01*
X76575Y-42850D02*
X76575Y-42900D01*
X76575Y-42900D02*
X76575Y-43075D01*
X76175Y-42900D02*
X76175Y-43100D01*
X75575Y-43300D02*
X75575Y-42675D01*
X75575Y-42700D02*
X75925Y-43300D01*
X75925Y-43300D02*
X75925Y-42675D01*
X74675Y-42700D02*
X74675Y-43175D01*
X74675Y-43175D02*
X74700Y-43225D01*
X74700Y-43225D02*
X74725Y-43250D01*
X74725Y-43250D02*
X74750Y-43275D01*
X74750Y-43275D02*
X74800Y-43300D01*
X74800Y-43300D02*
X74850Y-43300D01*
X74850Y-43300D02*
X74900Y-43300D01*
X74900Y-43300D02*
X74950Y-43275D01*
X74950Y-43275D02*
X74975Y-43250D01*
X74975Y-43250D02*
X75000Y-43225D01*
X75000Y-43225D02*
X75000Y-43175D01*
X75000Y-43175D02*
X75000Y-42700D01*
X74075Y-42700D02*
X74200Y-42700D01*
X74200Y-42700D02*
X74300Y-42725D01*
X74300Y-42725D02*
X74350Y-42775D01*
X74350Y-42775D02*
X74375Y-42850D01*
X74375Y-42850D02*
X74400Y-42950D01*
X74400Y-42950D02*
X74400Y-43025D01*
X74400Y-43025D02*
X74400Y-43075D01*
X74400Y-43075D02*
X74375Y-43150D01*
X74375Y-43150D02*
X74350Y-43200D01*
X74350Y-43200D02*
X74300Y-43250D01*
X74300Y-43250D02*
X74225Y-43300D01*
X74225Y-43300D02*
X74175Y-43300D01*
X74175Y-43300D02*
X74050Y-43300D01*
X74050Y-43300D02*
X74050Y-42700D01*
X73575Y-42700D02*
X73575Y-43300D01*
X73575Y-43300D02*
X73850Y-43300D01*
X72975Y-42700D02*
X73000Y-42700D01*
X73000Y-42700D02*
X73225Y-42700D01*
X73225Y-42700D02*
X73275Y-42725D01*
X73275Y-42725D02*
X73300Y-42750D01*
X73300Y-42750D02*
X73325Y-42800D01*
X73325Y-42800D02*
X73325Y-42850D01*
X73325Y-42850D02*
X73325Y-42900D01*
X73325Y-42900D02*
X73300Y-42950D01*
X73300Y-42950D02*
X73250Y-42975D01*
X73250Y-42975D02*
X73200Y-43000D01*
X73200Y-43000D02*
X72975Y-43000D01*
X72975Y-43275D02*
X72975Y-42700D01*
X72450Y-42900D02*
X72750Y-43300D01*
X72425Y-43300D02*
X72725Y-42900D01*
G54D10*
X76829Y-48929D02*
X76829Y-49470D01*
X77370Y-49470D01*
X77370Y-48929D01*
X76829Y-48929D01*
X77370Y-48200D02*
G75*
G03X77370Y-48200I-270J0D01*
G74*
G01*
X78370Y-49200D02*
G75*
G03X78370Y-49200I-270J0D01*
G74*
G01*
X78370Y-48200D02*
G75*
G03X78370Y-48200I-270J0D01*
G74*
G01*
X79370Y-49200D02*
G75*
G03X79370Y-49200I-270J0D01*
G74*
G01*
X79370Y-48200D02*
G75*
G03X79370Y-48200I-270J0D01*
G74*
G01*
X80370Y-49200D02*
G75*
G03X80370Y-49200I-270J0D01*
G74*
G01*
X80370Y-48200D02*
G75*
G03X80370Y-48200I-270J0D01*
G74*
G01*
X81370Y-49200D02*
G75*
G03X81370Y-49200I-270J0D01*
G74*
G01*
X81370Y-48200D02*
G75*
G03X81370Y-48200I-270J0D01*
G74*
G01*
X82370Y-49200D02*
G75*
G03X82370Y-49200I-270J0D01*
G74*
G01*
X82370Y-48200D02*
G75*
G03X82370Y-48200I-270J0D01*
G74*
G01*
X83370Y-49200D02*
G75*
G03X83370Y-49200I-270J0D01*
G74*
G01*
X83370Y-48200D02*
G75*
G03X83370Y-48200I-270J0D01*
G74*
G01*
X84370Y-49200D02*
G75*
G03X84370Y-49200I-270J0D01*
G74*
G01*
X84370Y-48200D02*
G75*
G03X84370Y-48200I-270J0D01*
G74*
G01*
X85370Y-49200D02*
G75*
G03X85370Y-49200I-270J0D01*
G74*
G01*
X85370Y-48200D02*
G75*
G03X85370Y-48200I-270J0D01*
G74*
G01*
X86370Y-49200D02*
G75*
G03X86370Y-49200I-270J0D01*
G74*
G01*
X86370Y-48200D02*
G75*
G03X86370Y-48200I-270J0D01*
G74*
G01*
X81639Y-59255D02*
X81639Y-60035D01*
X82360Y-59255D02*
X82360Y-60035D01*
X81639Y-60035D02*
G75*
G03X82360Y-60035I360J0D01*
G74*
G01*
X82360Y-59255D02*
G75*
G03X81639Y-59255I-360J0D01*
G74*
G01*
X83155Y-59255D02*
X83155Y-60035D01*
X83876Y-59255D02*
X83876Y-60035D01*
X83155Y-60035D02*
G75*
G03X83876Y-60035I360J0D01*
G74*
G01*
X83876Y-59255D02*
G75*
G03X83155Y-59255I-360J0D01*
G74*
G01*
X84671Y-59255D02*
X84671Y-60035D01*
X85391Y-59255D02*
X85391Y-60035D01*
X84671Y-60035D02*
G75*
G03X85391Y-60035I360J0D01*
G74*
G01*
X85391Y-59255D02*
G75*
G03X84671Y-59255I-360J0D01*
G74*
G01*
X86186Y-59255D02*
X86186Y-60035D01*
X86907Y-59255D02*
X86907Y-60035D01*
X86186Y-60035D02*
G75*
G03X86907Y-60035I360J0D01*
G74*
G01*
X86907Y-59255D02*
G75*
G03X86186Y-59255I-360J0D01*
G74*
G01*
X87702Y-59255D02*
X87702Y-60035D01*
X88423Y-59255D02*
X88423Y-60035D01*
X87702Y-60035D02*
G75*
G03X88423Y-60035I360J0D01*
G74*
G01*
X88423Y-59255D02*
G75*
G03X87702Y-59255I-360J0D01*
G74*
G01*
X73139Y-59255D02*
X73139Y-60035D01*
X73860Y-59255D02*
X73860Y-60035D01*
X73139Y-60035D02*
G75*
G03X73860Y-60035I360J0D01*
G74*
G01*
X73860Y-59255D02*
G75*
G03X73139Y-59255I-360J0D01*
G74*
G01*
X74655Y-59255D02*
X74655Y-60035D01*
X75376Y-59255D02*
X75376Y-60035D01*
X74655Y-60035D02*
G75*
G03X75376Y-60035I360J0D01*
G74*
G01*
X75376Y-59255D02*
G75*
G03X74655Y-59255I-360J0D01*
G74*
G01*
X76171Y-59255D02*
X76171Y-60035D01*
X76891Y-59255D02*
X76891Y-60035D01*
X76171Y-60035D02*
G75*
G03X76891Y-60035I360J0D01*
G74*
G01*
X76891Y-59255D02*
G75*
G03X76171Y-59255I-360J0D01*
G74*
G01*
X77686Y-59255D02*
X77686Y-60035D01*
X78407Y-59255D02*
X78407Y-60035D01*
X77686Y-60035D02*
G75*
G03X78407Y-60035I360J0D01*
G74*
G01*
X78407Y-59255D02*
G75*
G03X77686Y-59255I-360J0D01*
G74*
G01*
X79202Y-59255D02*
X79202Y-60035D01*
X79923Y-59255D02*
X79923Y-60035D01*
X79202Y-60035D02*
G75*
G03X79923Y-60035I360J0D01*
G74*
G01*
X79923Y-59255D02*
G75*
G03X79202Y-59255I-360J0D01*
G74*
G01*
X107129Y-50842D02*
X107129Y-51383D01*
X107670Y-51383D01*
X107670Y-50842D01*
X107129Y-50842D01*
X107670Y-52112D02*
G75*
G03X107670Y-52112I-270J0D01*
G74*
G01*
X106670Y-51112D02*
G75*
G03X106670Y-51112I-270J0D01*
G74*
G01*
X106670Y-52112D02*
G75*
G03X106670Y-52112I-270J0D01*
G74*
G01*
X105670Y-51112D02*
G75*
G03X105670Y-51112I-270J0D01*
G74*
G01*
X105670Y-52112D02*
G75*
G03X105670Y-52112I-270J0D01*
G74*
G01*
X101104Y-45904D02*
X101104Y-46445D01*
X101645Y-46445D01*
X101645Y-45904D01*
X101104Y-45904D01*
X101645Y-45175D02*
G75*
G03X101645Y-45175I-270J0D01*
G74*
G01*
X100104Y-45904D02*
X100104Y-46445D01*
X100645Y-46445D01*
X100645Y-45904D01*
X100104Y-45904D01*
X100645Y-45175D02*
G75*
G03X100645Y-45175I-270J0D01*
G74*
G01*
X98104Y-45904D02*
X98104Y-46445D01*
X98645Y-46445D01*
X98645Y-45904D01*
X98104Y-45904D01*
X98645Y-45175D02*
G75*
G03X98645Y-45175I-270J0D01*
G74*
G01*
X105454Y-44729D02*
X105454Y-45270D01*
X105995Y-45270D01*
X105995Y-44729D01*
X105454Y-44729D01*
X105995Y-46000D02*
G75*
G03X105995Y-46000I-270J0D01*
G74*
G01*
X99104Y-45904D02*
X99104Y-46445D01*
X99645Y-46445D01*
X99645Y-45904D01*
X99104Y-45904D01*
X99645Y-45175D02*
G75*
G03X99645Y-45175I-270J0D01*
G74*
G01*
X100454Y-48254D02*
X100454Y-48795D01*
X100995Y-48795D01*
X100995Y-48254D01*
X100454Y-48254D01*
X100995Y-49525D02*
G75*
G03X100995Y-49525I-270J0D01*
G74*
G01*
X99995Y-48525D02*
G75*
G03X99995Y-48525I-270J0D01*
G74*
G01*
X99995Y-49525D02*
G75*
G03X99995Y-49525I-270J0D01*
G74*
G01*
X98995Y-48525D02*
G75*
G03X98995Y-48525I-270J0D01*
G74*
G01*
X98995Y-49525D02*
G75*
G03X98995Y-49525I-270J0D01*
G74*
G01*
X94039Y-59255D02*
X94039Y-60035D01*
X94760Y-59255D02*
X94760Y-60035D01*
X94039Y-60035D02*
G75*
G03X94760Y-60035I360J0D01*
G74*
G01*
X94760Y-59255D02*
G75*
G03X94039Y-59255I-360J0D01*
G74*
G01*
X95555Y-59255D02*
X95555Y-60035D01*
X96276Y-59255D02*
X96276Y-60035D01*
X95555Y-60035D02*
G75*
G03X96276Y-60035I360J0D01*
G74*
G01*
X96276Y-59255D02*
G75*
G03X95555Y-59255I-360J0D01*
G74*
G01*
X72735Y-41350D02*
G75*
G03X72735Y-41350I-285J0D01*
G74*
G01*
X75727Y-41350D02*
G75*
G03X75727Y-41350I-285J0D01*
G74*
G01*
X75912Y-36350D02*
G75*
G03X75912Y-36350I-470J0D01*
G74*
G01*
X72920Y-35350D02*
G75*
G03X72920Y-35350I-470J0D01*
G74*
G01*
X77635Y-41350D02*
G75*
G03X77635Y-41350I-285J0D01*
G74*
G01*
X80627Y-41350D02*
G75*
G03X80627Y-41350I-285J0D01*
G74*
G01*
X80812Y-36350D02*
G75*
G03X80812Y-36350I-470J0D01*
G74*
G01*
X77820Y-35350D02*
G75*
G03X77820Y-35350I-470J0D01*
G74*
G01*
X82535Y-41350D02*
G75*
G03X82535Y-41350I-285J0D01*
G74*
G01*
X85527Y-41350D02*
G75*
G03X85527Y-41350I-285J0D01*
G74*
G01*
X85712Y-36350D02*
G75*
G03X85712Y-36350I-470J0D01*
G74*
G01*
X82720Y-35350D02*
G75*
G03X82720Y-35350I-470J0D01*
G74*
G01*
X87435Y-41350D02*
G75*
G03X87435Y-41350I-285J0D01*
G74*
G01*
X90427Y-41350D02*
G75*
G03X90427Y-41350I-285J0D01*
G74*
G01*
X90612Y-36350D02*
G75*
G03X90612Y-36350I-470J0D01*
G74*
G01*
X87620Y-35350D02*
G75*
G03X87620Y-35350I-470J0D01*
G74*
G01*
X75350Y-32279D02*
X75350Y-31499D01*
X74629Y-32279D02*
X74629Y-31499D01*
X75350Y-31499D02*
G75*
G03X74629Y-31499I-360J0D01*
G74*
G01*
X74629Y-32279D02*
G75*
G03X75350Y-32279I360J0D01*
G74*
G01*
X73380Y-32279D02*
X73380Y-31499D01*
X72659Y-32279D02*
X72659Y-31499D01*
X73380Y-31499D02*
G75*
G03X72659Y-31499I-360J0D01*
G74*
G01*
X72659Y-32279D02*
G75*
G03X73380Y-32279I360J0D01*
G74*
G01*
X80150Y-32279D02*
X80150Y-31499D01*
X79429Y-32279D02*
X79429Y-31499D01*
X80150Y-31499D02*
G75*
G03X79429Y-31499I-360J0D01*
G74*
G01*
X79429Y-32279D02*
G75*
G03X80150Y-32279I360J0D01*
G74*
G01*
X78180Y-32279D02*
X78180Y-31499D01*
X77459Y-32279D02*
X77459Y-31499D01*
X78180Y-31499D02*
G75*
G03X77459Y-31499I-360J0D01*
G74*
G01*
X77459Y-32279D02*
G75*
G03X78180Y-32279I360J0D01*
G74*
G01*
X84950Y-32279D02*
X84950Y-31499D01*
X84229Y-32279D02*
X84229Y-31499D01*
X84950Y-31499D02*
G75*
G03X84229Y-31499I-360J0D01*
G74*
G01*
X84229Y-32279D02*
G75*
G03X84950Y-32279I360J0D01*
G74*
G01*
X82980Y-32279D02*
X82980Y-31499D01*
X82259Y-32279D02*
X82259Y-31499D01*
X82980Y-31499D02*
G75*
G03X82259Y-31499I-360J0D01*
G74*
G01*
X82259Y-32279D02*
G75*
G03X82980Y-32279I360J0D01*
G74*
G01*
X89750Y-32279D02*
X89750Y-31499D01*
X89029Y-32279D02*
X89029Y-31499D01*
X89750Y-31499D02*
G75*
G03X89029Y-31499I-360J0D01*
G74*
G01*
X89029Y-32279D02*
G75*
G03X89750Y-32279I360J0D01*
G74*
G01*
X87780Y-32279D02*
X87780Y-31499D01*
X87059Y-32279D02*
X87059Y-31499D01*
X87780Y-31499D02*
G75*
G03X87059Y-31499I-360J0D01*
G74*
G01*
X87059Y-32279D02*
G75*
G03X87780Y-32279I360J0D01*
G74*
G01*
X95350Y-32279D02*
X95350Y-31499D01*
X94629Y-32279D02*
X94629Y-31499D01*
X95350Y-31499D02*
G75*
G03X94629Y-31499I-360J0D01*
G74*
G01*
X94629Y-32279D02*
G75*
G03X95350Y-32279I360J0D01*
G74*
G01*
X93380Y-32279D02*
X93380Y-31499D01*
X92659Y-32279D02*
X92659Y-31499D01*
X93380Y-31499D02*
G75*
G03X92659Y-31499I-360J0D01*
G74*
G01*
X92659Y-32279D02*
G75*
G03X93380Y-32279I360J0D01*
G74*
G01*
X100150Y-32279D02*
X100150Y-31499D01*
X99429Y-32279D02*
X99429Y-31499D01*
X100150Y-31499D02*
G75*
G03X99429Y-31499I-360J0D01*
G74*
G01*
X99429Y-32279D02*
G75*
G03X100150Y-32279I360J0D01*
G74*
G01*
X98180Y-32279D02*
X98180Y-31499D01*
X97459Y-32279D02*
X97459Y-31499D01*
X98180Y-31499D02*
G75*
G03X97459Y-31499I-360J0D01*
G74*
G01*
X97459Y-32279D02*
G75*
G03X98180Y-32279I360J0D01*
G74*
G01*
X104950Y-32279D02*
X104950Y-31499D01*
X104229Y-32279D02*
X104229Y-31499D01*
X104950Y-31499D02*
G75*
G03X104229Y-31499I-360J0D01*
G74*
G01*
X104229Y-32279D02*
G75*
G03X104950Y-32279I360J0D01*
G74*
G01*
X102980Y-32279D02*
X102980Y-31499D01*
X102259Y-32279D02*
X102259Y-31499D01*
X102980Y-31499D02*
G75*
G03X102259Y-31499I-360J0D01*
G74*
G01*
X102259Y-32279D02*
G75*
G03X102980Y-32279I360J0D01*
G74*
G01*
X109750Y-32279D02*
X109750Y-31499D01*
X109029Y-32279D02*
X109029Y-31499D01*
X109750Y-31499D02*
G75*
G03X109029Y-31499I-360J0D01*
G74*
G01*
X109029Y-32279D02*
G75*
G03X109750Y-32279I360J0D01*
G74*
G01*
X107780Y-32279D02*
X107780Y-31499D01*
X107059Y-32279D02*
X107059Y-31499D01*
X107780Y-31499D02*
G75*
G03X107059Y-31499I-360J0D01*
G74*
G01*
X107059Y-32279D02*
G75*
G03X107780Y-32279I360J0D01*
G74*
G01*
X107085Y-41350D02*
G75*
G03X107085Y-41350I-285J0D01*
G74*
G01*
X110077Y-41350D02*
G75*
G03X110077Y-41350I-285J0D01*
G74*
G01*
X110262Y-36350D02*
G75*
G03X110262Y-36350I-470J0D01*
G74*
G01*
X107270Y-35350D02*
G75*
G03X107270Y-35350I-470J0D01*
G74*
G01*
X102235Y-41350D02*
G75*
G03X102235Y-41350I-285J0D01*
G74*
G01*
X105227Y-41350D02*
G75*
G03X105227Y-41350I-285J0D01*
G74*
G01*
X105412Y-36350D02*
G75*
G03X105412Y-36350I-470J0D01*
G74*
G01*
X102420Y-35350D02*
G75*
G03X102420Y-35350I-470J0D01*
G74*
G01*
X97385Y-41350D02*
G75*
G03X97385Y-41350I-285J0D01*
G74*
G01*
X100377Y-41350D02*
G75*
G03X100377Y-41350I-285J0D01*
G74*
G01*
X100562Y-36350D02*
G75*
G03X100562Y-36350I-470J0D01*
G74*
G01*
X97570Y-35350D02*
G75*
G03X97570Y-35350I-470J0D01*
G74*
G01*
X92535Y-41350D02*
G75*
G03X92535Y-41350I-285J0D01*
G74*
G01*
X95527Y-41350D02*
G75*
G03X95527Y-41350I-285J0D01*
G74*
G01*
X95712Y-36350D02*
G75*
G03X95712Y-36350I-470J0D01*
G74*
G01*
X92720Y-35350D02*
G75*
G03X92720Y-35350I-470J0D01*
G74*
G01*
X103426Y-58112D02*
G75*
G03X103426Y-58112I-688J0D01*
G74*
G01*
X98753Y-58112D02*
G75*
G03X98753Y-58112I-688J0D01*
G74*
G01*
X98384Y-55346D02*
X98384Y-55878D01*
X98915Y-55878D01*
X98915Y-55346D01*
X98384Y-55346D01*
X99415Y-54612D02*
G75*
G03X99415Y-54612I-265J0D01*
G74*
G01*
X99915Y-55612D02*
G75*
G03X99915Y-55612I-265J0D01*
G74*
G01*
X100415Y-54612D02*
G75*
G03X100415Y-54612I-265J0D01*
G74*
G01*
X100915Y-55612D02*
G75*
G03X100915Y-55612I-265J0D01*
G74*
G01*
X101415Y-54612D02*
G75*
G03X101415Y-54612I-265J0D01*
G74*
G01*
X101915Y-55612D02*
G75*
G03X101915Y-55612I-265J0D01*
G74*
G01*
X102415Y-54612D02*
G75*
G03X102415Y-54612I-265J0D01*
G74*
G01*
X98014Y-60112D02*
G75*
G03X98014Y-60112I-364J0D01*
G74*
G01*
X103464Y-60112D02*
G75*
G03X103464Y-60112I-364J0D01*
G74*
G01*
X110026Y-58112D02*
G75*
G03X110026Y-58112I-688J0D01*
G74*
G01*
X105353Y-58112D02*
G75*
G03X105353Y-58112I-688J0D01*
G74*
G01*
X104984Y-55346D02*
X104984Y-55878D01*
X105515Y-55878D01*
X105515Y-55346D01*
X104984Y-55346D01*
X106015Y-54612D02*
G75*
G03X106015Y-54612I-265J0D01*
G74*
G01*
X106515Y-55612D02*
G75*
G03X106515Y-55612I-265J0D01*
G74*
G01*
X107015Y-54612D02*
G75*
G03X107015Y-54612I-265J0D01*
G74*
G01*
X107515Y-55612D02*
G75*
G03X107515Y-55612I-265J0D01*
G74*
G01*
X108015Y-54612D02*
G75*
G03X108015Y-54612I-265J0D01*
G74*
G01*
X108515Y-55612D02*
G75*
G03X108515Y-55612I-265J0D01*
G74*
G01*
X109015Y-54612D02*
G75*
G03X109015Y-54612I-265J0D01*
G74*
G01*
X104614Y-60112D02*
G75*
G03X104614Y-60112I-364J0D01*
G74*
G01*
X110064Y-60112D02*
G75*
G03X110064Y-60112I-364J0D01*
G74*
G01*
X99020Y-51575D02*
G75*
G03X99020Y-51575I-320J0D01*
G74*
G01*
X100020Y-51575D02*
G75*
G03X100020Y-51575I-320J0D01*
G74*
G01*
X101020Y-51575D02*
G75*
G03X101020Y-51575I-320J0D01*
G74*
G01*
G54D22*
X87004Y-49686D02*
X87004Y-49286D01*
X87157Y-49286D01*
X87195Y-49305D01*
X87214Y-49325D01*
X87233Y-49363D01*
X87233Y-49420D01*
X87214Y-49458D01*
X87195Y-49477D01*
X87157Y-49496D01*
X87004Y-49496D01*
X87366Y-49286D02*
X87614Y-49286D01*
X87480Y-49439D01*
X87538Y-49439D01*
X87576Y-49458D01*
X87595Y-49477D01*
X87614Y-49515D01*
X87614Y-49610D01*
X87595Y-49648D01*
X87576Y-49667D01*
X87538Y-49686D01*
X87423Y-49686D01*
X87385Y-49667D01*
X87366Y-49648D01*
G54D23*
G54D18*
X94927Y-48340D02*
X94427Y-48340D01*
X94879Y-47921D02*
X94903Y-47940D01*
X94927Y-47997D01*
X94927Y-48035D01*
X94903Y-48092D01*
X94855Y-48130D01*
X94808Y-48149D01*
X94713Y-48169D01*
X94641Y-48169D01*
X94546Y-48149D01*
X94498Y-48130D01*
X94451Y-48092D01*
X94427Y-48035D01*
X94427Y-47997D01*
X94451Y-47940D01*
X94475Y-47921D01*
X94927Y-47540D02*
X94927Y-47769D01*
X94927Y-47654D02*
X94427Y-47654D01*
X94498Y-47692D01*
X94546Y-47730D01*
X94570Y-47769D01*
G54D24*
X84683Y-61633D02*
X84683Y-60933D01*
X84950Y-60933D01*
X85016Y-60966D01*
X85050Y-61000D01*
X85083Y-61066D01*
X85083Y-61166D01*
X85050Y-61233D01*
X85016Y-61266D01*
X84950Y-61300D01*
X84683Y-61300D01*
X85350Y-61000D02*
X85383Y-60966D01*
X85450Y-60933D01*
X85616Y-60933D01*
X85683Y-60966D01*
X85716Y-61000D01*
X85750Y-61066D01*
X85750Y-61133D01*
X85716Y-61233D01*
X85316Y-61633D01*
X85750Y-61633D01*
X76183Y-61683D02*
X76183Y-60983D01*
X76450Y-60983D01*
X76516Y-61016D01*
X76550Y-61050D01*
X76583Y-61116D01*
X76583Y-61216D01*
X76550Y-61283D01*
X76516Y-61316D01*
X76450Y-61350D01*
X76183Y-61350D01*
X77250Y-61683D02*
X76850Y-61683D01*
X77050Y-61683D02*
X77050Y-60983D01*
X76983Y-61083D01*
X76916Y-61150D01*
X76850Y-61183D01*
G54D18*
X104166Y-52561D02*
X104166Y-52847D01*
X104147Y-52904D01*
X104109Y-52942D01*
X104052Y-52961D01*
X104014Y-52961D01*
X104319Y-52561D02*
X104566Y-52561D01*
X104433Y-52714D01*
X104490Y-52714D01*
X104528Y-52733D01*
X104547Y-52752D01*
X104566Y-52790D01*
X104566Y-52885D01*
X104547Y-52923D01*
X104528Y-52942D01*
X104490Y-52961D01*
X104376Y-52961D01*
X104338Y-52942D01*
X104319Y-52923D01*
G54D24*
X108888Y-46846D02*
X108888Y-46546D01*
X108960Y-46546D01*
X109002Y-46560D01*
X109031Y-46589D01*
X109045Y-46617D01*
X109060Y-46675D01*
X109060Y-46717D01*
X109045Y-46775D01*
X109031Y-46803D01*
X109002Y-46832D01*
X108960Y-46846D01*
X108888Y-46846D01*
X109345Y-46846D02*
X109174Y-46846D01*
X109260Y-46846D02*
X109260Y-46546D01*
X109231Y-46589D01*
X109202Y-46617D01*
X109174Y-46632D01*
X107928Y-46846D02*
X107928Y-46546D01*
X108000Y-46546D01*
X108042Y-46560D01*
X108071Y-46589D01*
X108085Y-46617D01*
X108100Y-46675D01*
X108100Y-46717D01*
X108085Y-46775D01*
X108071Y-46803D01*
X108042Y-46832D01*
X108000Y-46846D01*
X107928Y-46846D01*
X108214Y-46575D02*
X108228Y-46560D01*
X108257Y-46546D01*
X108328Y-46546D01*
X108357Y-46560D01*
X108371Y-46575D01*
X108385Y-46603D01*
X108385Y-46632D01*
X108371Y-46675D01*
X108200Y-46846D01*
X108385Y-46846D01*
X103478Y-49421D02*
X103478Y-49121D01*
X103550Y-49121D01*
X103592Y-49135D01*
X103621Y-49164D01*
X103635Y-49192D01*
X103650Y-49250D01*
X103650Y-49292D01*
X103635Y-49350D01*
X103621Y-49378D01*
X103592Y-49407D01*
X103550Y-49421D01*
X103478Y-49421D01*
X103750Y-49121D02*
X103935Y-49121D01*
X103835Y-49235D01*
X103878Y-49235D01*
X103907Y-49250D01*
X103921Y-49264D01*
X103935Y-49292D01*
X103935Y-49364D01*
X103921Y-49392D01*
X103907Y-49407D01*
X103878Y-49421D01*
X103792Y-49421D01*
X103764Y-49407D01*
X103750Y-49392D01*
G54D16*
X102371Y-45707D02*
X102071Y-45707D01*
X102071Y-45592D01*
X102085Y-45564D01*
X102100Y-45550D01*
X102128Y-45535D01*
X102171Y-45535D01*
X102200Y-45550D01*
X102214Y-45564D01*
X102228Y-45592D01*
X102228Y-45707D01*
X102371Y-45250D02*
X102371Y-45421D01*
X102371Y-45335D02*
X102071Y-45335D01*
X102114Y-45364D01*
X102142Y-45392D01*
X102157Y-45421D01*
X102071Y-45064D02*
X102071Y-45035D01*
X102085Y-45007D01*
X102100Y-44992D01*
X102128Y-44978D01*
X102185Y-44964D01*
X102257Y-44964D01*
X102314Y-44978D01*
X102342Y-44992D01*
X102357Y-45007D01*
X102371Y-45035D01*
X102371Y-45064D01*
X102357Y-45092D01*
X102342Y-45107D01*
X102314Y-45121D01*
X102257Y-45135D01*
X102185Y-45135D01*
X102128Y-45121D01*
X102100Y-45107D01*
X102085Y-45092D01*
X102071Y-45064D01*
X102071Y-44778D02*
X102071Y-44750D01*
X102085Y-44721D01*
X102100Y-44707D01*
X102128Y-44692D01*
X102185Y-44678D01*
X102257Y-44678D01*
X102314Y-44692D01*
X102342Y-44707D01*
X102357Y-44721D01*
X102371Y-44750D01*
X102371Y-44778D01*
X102357Y-44807D01*
X102342Y-44821D01*
X102314Y-44835D01*
X102257Y-44850D01*
X102185Y-44850D01*
X102128Y-44835D01*
X102100Y-44821D01*
X102085Y-44807D01*
X102071Y-44778D01*
X100546Y-46082D02*
X100246Y-46082D01*
X100246Y-45967D01*
X100260Y-45939D01*
X100275Y-45925D01*
X100303Y-45910D01*
X100346Y-45910D01*
X100375Y-45925D01*
X100389Y-45939D01*
X100403Y-45967D01*
X100403Y-46082D01*
X100546Y-45625D02*
X100546Y-45796D01*
X100546Y-45710D02*
X100246Y-45710D01*
X100289Y-45739D01*
X100317Y-45767D01*
X100332Y-45796D01*
X100246Y-45439D02*
X100246Y-45410D01*
X100260Y-45382D01*
X100275Y-45367D01*
X100303Y-45353D01*
X100360Y-45339D01*
X100432Y-45339D01*
X100489Y-45353D01*
X100517Y-45367D01*
X100532Y-45382D01*
X100546Y-45410D01*
X100546Y-45439D01*
X100532Y-45467D01*
X100517Y-45482D01*
X100489Y-45496D01*
X100432Y-45510D01*
X100360Y-45510D01*
X100303Y-45496D01*
X100275Y-45482D01*
X100260Y-45467D01*
X100246Y-45439D01*
X100546Y-45053D02*
X100546Y-45225D01*
X100546Y-45139D02*
X100246Y-45139D01*
X100289Y-45167D01*
X100317Y-45196D01*
X100332Y-45225D01*
X97671Y-45807D02*
X97371Y-45807D01*
X97371Y-45692D01*
X97385Y-45664D01*
X97400Y-45650D01*
X97428Y-45635D01*
X97471Y-45635D01*
X97500Y-45650D01*
X97514Y-45664D01*
X97528Y-45692D01*
X97528Y-45807D01*
X97671Y-45350D02*
X97671Y-45521D01*
X97671Y-45435D02*
X97371Y-45435D01*
X97414Y-45464D01*
X97442Y-45492D01*
X97457Y-45521D01*
X97371Y-45164D02*
X97371Y-45135D01*
X97385Y-45107D01*
X97400Y-45092D01*
X97428Y-45078D01*
X97485Y-45064D01*
X97557Y-45064D01*
X97614Y-45078D01*
X97642Y-45092D01*
X97657Y-45107D01*
X97671Y-45135D01*
X97671Y-45164D01*
X97657Y-45192D01*
X97642Y-45207D01*
X97614Y-45221D01*
X97557Y-45235D01*
X97485Y-45235D01*
X97428Y-45221D01*
X97400Y-45207D01*
X97385Y-45192D01*
X97371Y-45164D01*
X97371Y-44964D02*
X97371Y-44778D01*
X97485Y-44878D01*
X97485Y-44835D01*
X97500Y-44807D01*
X97514Y-44792D01*
X97542Y-44778D01*
X97614Y-44778D01*
X97642Y-44792D01*
X97657Y-44807D01*
X97671Y-44835D01*
X97671Y-44921D01*
X97657Y-44950D01*
X97642Y-44964D01*
X105846Y-44107D02*
X105546Y-44107D01*
X105546Y-43992D01*
X105560Y-43964D01*
X105575Y-43950D01*
X105603Y-43935D01*
X105646Y-43935D01*
X105675Y-43950D01*
X105689Y-43964D01*
X105703Y-43992D01*
X105703Y-44107D01*
X105846Y-43650D02*
X105846Y-43821D01*
X105846Y-43735D02*
X105546Y-43735D01*
X105589Y-43764D01*
X105617Y-43792D01*
X105632Y-43821D01*
X105546Y-43464D02*
X105546Y-43435D01*
X105560Y-43407D01*
X105575Y-43392D01*
X105603Y-43378D01*
X105660Y-43364D01*
X105732Y-43364D01*
X105789Y-43378D01*
X105817Y-43392D01*
X105832Y-43407D01*
X105846Y-43435D01*
X105846Y-43464D01*
X105832Y-43492D01*
X105817Y-43507D01*
X105789Y-43521D01*
X105732Y-43535D01*
X105660Y-43535D01*
X105603Y-43521D01*
X105575Y-43507D01*
X105560Y-43492D01*
X105546Y-43464D01*
X105546Y-43107D02*
X105546Y-43164D01*
X105560Y-43192D01*
X105575Y-43207D01*
X105617Y-43235D01*
X105675Y-43250D01*
X105789Y-43250D01*
X105817Y-43235D01*
X105832Y-43221D01*
X105846Y-43192D01*
X105846Y-43135D01*
X105832Y-43107D01*
X105817Y-43092D01*
X105789Y-43078D01*
X105717Y-43078D01*
X105689Y-43092D01*
X105675Y-43107D01*
X105660Y-43135D01*
X105660Y-43192D01*
X105675Y-43221D01*
X105689Y-43235D01*
X105717Y-43250D01*
X99546Y-46182D02*
X99246Y-46182D01*
X99246Y-46067D01*
X99260Y-46039D01*
X99275Y-46025D01*
X99303Y-46010D01*
X99346Y-46010D01*
X99375Y-46025D01*
X99389Y-46039D01*
X99403Y-46067D01*
X99403Y-46182D01*
X99546Y-45725D02*
X99546Y-45896D01*
X99546Y-45810D02*
X99246Y-45810D01*
X99289Y-45839D01*
X99317Y-45867D01*
X99332Y-45896D01*
X99246Y-45539D02*
X99246Y-45510D01*
X99260Y-45482D01*
X99275Y-45467D01*
X99303Y-45453D01*
X99360Y-45439D01*
X99432Y-45439D01*
X99489Y-45453D01*
X99517Y-45467D01*
X99532Y-45482D01*
X99546Y-45510D01*
X99546Y-45539D01*
X99532Y-45567D01*
X99517Y-45582D01*
X99489Y-45596D01*
X99432Y-45610D01*
X99360Y-45610D01*
X99303Y-45596D01*
X99275Y-45582D01*
X99260Y-45567D01*
X99246Y-45539D01*
X99275Y-45325D02*
X99260Y-45310D01*
X99246Y-45282D01*
X99246Y-45210D01*
X99260Y-45182D01*
X99275Y-45167D01*
X99303Y-45153D01*
X99332Y-45153D01*
X99375Y-45167D01*
X99546Y-45339D01*
X99546Y-45153D01*
G54D21*
X83221Y-57042D02*
X83078Y-57142D01*
X83221Y-57214D02*
X82921Y-57214D01*
X82921Y-57100D01*
X82935Y-57071D01*
X82950Y-57057D01*
X82978Y-57042D01*
X83021Y-57042D01*
X83050Y-57057D01*
X83064Y-57071D01*
X83078Y-57100D01*
X83078Y-57214D01*
X82921Y-56771D02*
X82921Y-56914D01*
X83064Y-56928D01*
X83050Y-56914D01*
X83035Y-56885D01*
X83035Y-56814D01*
X83050Y-56785D01*
X83064Y-56771D01*
X83092Y-56757D01*
X83164Y-56757D01*
X83192Y-56771D01*
X83207Y-56785D01*
X83221Y-56814D01*
X83221Y-56885D01*
X83207Y-56914D01*
X83192Y-56928D01*
X83221Y-56471D02*
X83221Y-56642D01*
X83221Y-56557D02*
X82921Y-56557D01*
X82964Y-56585D01*
X82992Y-56614D01*
X83007Y-56642D01*
X105575Y-49446D02*
X105475Y-49303D01*
X105403Y-49446D02*
X105403Y-49146D01*
X105517Y-49146D01*
X105546Y-49160D01*
X105560Y-49175D01*
X105575Y-49203D01*
X105575Y-49246D01*
X105560Y-49275D01*
X105546Y-49289D01*
X105517Y-49303D01*
X105403Y-49303D01*
X105832Y-49246D02*
X105832Y-49446D01*
X105760Y-49132D02*
X105689Y-49346D01*
X105875Y-49346D01*
X104550Y-49446D02*
X104450Y-49303D01*
X104378Y-49446D02*
X104378Y-49146D01*
X104492Y-49146D01*
X104521Y-49160D01*
X104535Y-49175D01*
X104550Y-49203D01*
X104550Y-49246D01*
X104535Y-49275D01*
X104521Y-49289D01*
X104492Y-49303D01*
X104378Y-49303D01*
X104650Y-49146D02*
X104835Y-49146D01*
X104735Y-49260D01*
X104778Y-49260D01*
X104807Y-49275D01*
X104821Y-49289D01*
X104835Y-49317D01*
X104835Y-49389D01*
X104821Y-49417D01*
X104807Y-49432D01*
X104778Y-49446D01*
X104692Y-49446D01*
X104664Y-49432D01*
X104650Y-49417D01*
X102425Y-49392D02*
X102410Y-49407D01*
X102367Y-49421D01*
X102339Y-49421D01*
X102296Y-49407D01*
X102267Y-49378D01*
X102253Y-49350D01*
X102239Y-49292D01*
X102239Y-49250D01*
X102253Y-49192D01*
X102267Y-49164D01*
X102296Y-49135D01*
X102339Y-49121D01*
X102367Y-49121D01*
X102410Y-49135D01*
X102425Y-49150D01*
X102539Y-49150D02*
X102553Y-49135D01*
X102582Y-49121D01*
X102653Y-49121D01*
X102682Y-49135D01*
X102696Y-49150D01*
X102710Y-49178D01*
X102710Y-49207D01*
X102696Y-49250D01*
X102525Y-49421D01*
X102710Y-49421D01*
X94075Y-43992D02*
X94060Y-44007D01*
X94017Y-44021D01*
X93989Y-44021D01*
X93946Y-44007D01*
X93917Y-43978D01*
X93903Y-43950D01*
X93889Y-43892D01*
X93889Y-43850D01*
X93903Y-43792D01*
X93917Y-43764D01*
X93946Y-43735D01*
X93989Y-43721D01*
X94017Y-43721D01*
X94060Y-43735D01*
X94075Y-43750D01*
X94360Y-44021D02*
X94189Y-44021D01*
X94275Y-44021D02*
X94275Y-43721D01*
X94246Y-43764D01*
X94217Y-43792D01*
X94189Y-43807D01*
X106975Y-44271D02*
X106875Y-44128D01*
X106803Y-44271D02*
X106803Y-43971D01*
X106917Y-43971D01*
X106946Y-43985D01*
X106960Y-44000D01*
X106975Y-44028D01*
X106975Y-44071D01*
X106960Y-44100D01*
X106946Y-44114D01*
X106917Y-44128D01*
X106803Y-44128D01*
X107089Y-44000D02*
X107103Y-43985D01*
X107132Y-43971D01*
X107203Y-43971D01*
X107232Y-43985D01*
X107246Y-44000D01*
X107260Y-44028D01*
X107260Y-44057D01*
X107246Y-44100D01*
X107075Y-44271D01*
X107260Y-44271D01*
X79271Y-57042D02*
X79128Y-57142D01*
X79271Y-57214D02*
X78971Y-57214D01*
X78971Y-57100D01*
X78985Y-57071D01*
X79000Y-57057D01*
X79028Y-57042D01*
X79071Y-57042D01*
X79100Y-57057D01*
X79114Y-57071D01*
X79128Y-57100D01*
X79128Y-57214D01*
X78971Y-56942D02*
X78971Y-56757D01*
X79085Y-56857D01*
X79085Y-56814D01*
X79100Y-56785D01*
X79114Y-56771D01*
X79142Y-56757D01*
X79214Y-56757D01*
X79242Y-56771D01*
X79257Y-56785D01*
X79271Y-56814D01*
X79271Y-56900D01*
X79257Y-56928D01*
X79242Y-56942D01*
X79271Y-56471D02*
X79271Y-56642D01*
X79271Y-56557D02*
X78971Y-56557D01*
X79014Y-56585D01*
X79042Y-56614D01*
X79057Y-56642D01*
X108525Y-49446D02*
X108425Y-49303D01*
X108353Y-49446D02*
X108353Y-49146D01*
X108467Y-49146D01*
X108496Y-49160D01*
X108510Y-49175D01*
X108525Y-49203D01*
X108525Y-49246D01*
X108510Y-49275D01*
X108496Y-49289D01*
X108467Y-49303D01*
X108353Y-49303D01*
X108810Y-49446D02*
X108639Y-49446D01*
X108725Y-49446D02*
X108725Y-49146D01*
X108696Y-49189D01*
X108667Y-49217D01*
X108639Y-49232D01*
X77021Y-57042D02*
X76878Y-57142D01*
X77021Y-57214D02*
X76721Y-57214D01*
X76721Y-57100D01*
X76735Y-57071D01*
X76750Y-57057D01*
X76778Y-57042D01*
X76821Y-57042D01*
X76850Y-57057D01*
X76864Y-57071D01*
X76878Y-57100D01*
X76878Y-57214D01*
X76750Y-56928D02*
X76735Y-56914D01*
X76721Y-56885D01*
X76721Y-56814D01*
X76735Y-56785D01*
X76750Y-56771D01*
X76778Y-56757D01*
X76807Y-56757D01*
X76850Y-56771D01*
X77021Y-56942D01*
X77021Y-56757D01*
X77021Y-56471D02*
X77021Y-56642D01*
X77021Y-56557D02*
X76721Y-56557D01*
X76764Y-56585D01*
X76792Y-56614D01*
X76807Y-56642D01*
X80521Y-57042D02*
X80378Y-57142D01*
X80521Y-57214D02*
X80221Y-57214D01*
X80221Y-57100D01*
X80235Y-57071D01*
X80250Y-57057D01*
X80278Y-57042D01*
X80321Y-57042D01*
X80350Y-57057D01*
X80364Y-57071D01*
X80378Y-57100D01*
X80378Y-57214D01*
X80321Y-56785D02*
X80521Y-56785D01*
X80207Y-56857D02*
X80421Y-56928D01*
X80421Y-56742D01*
X80521Y-56471D02*
X80521Y-56642D01*
X80521Y-56557D02*
X80221Y-56557D01*
X80264Y-56585D01*
X80292Y-56614D01*
X80307Y-56642D01*
X87946Y-57042D02*
X87803Y-57142D01*
X87946Y-57214D02*
X87646Y-57214D01*
X87646Y-57100D01*
X87660Y-57071D01*
X87675Y-57057D01*
X87703Y-57042D01*
X87746Y-57042D01*
X87775Y-57057D01*
X87789Y-57071D01*
X87803Y-57100D01*
X87803Y-57214D01*
X87775Y-56871D02*
X87760Y-56900D01*
X87746Y-56914D01*
X87717Y-56928D01*
X87703Y-56928D01*
X87675Y-56914D01*
X87660Y-56900D01*
X87646Y-56871D01*
X87646Y-56814D01*
X87660Y-56785D01*
X87675Y-56771D01*
X87703Y-56757D01*
X87717Y-56757D01*
X87746Y-56771D01*
X87760Y-56785D01*
X87775Y-56814D01*
X87775Y-56871D01*
X87789Y-56900D01*
X87803Y-56914D01*
X87832Y-56928D01*
X87889Y-56928D01*
X87917Y-56914D01*
X87932Y-56900D01*
X87946Y-56871D01*
X87946Y-56814D01*
X87932Y-56785D01*
X87917Y-56771D01*
X87889Y-56757D01*
X87832Y-56757D01*
X87803Y-56771D01*
X87789Y-56785D01*
X87775Y-56814D01*
X87946Y-56471D02*
X87946Y-56642D01*
X87946Y-56557D02*
X87646Y-56557D01*
X87689Y-56585D01*
X87717Y-56614D01*
X87732Y-56642D01*
X85471Y-57042D02*
X85328Y-57142D01*
X85471Y-57214D02*
X85171Y-57214D01*
X85171Y-57100D01*
X85185Y-57071D01*
X85200Y-57057D01*
X85228Y-57042D01*
X85271Y-57042D01*
X85300Y-57057D01*
X85314Y-57071D01*
X85328Y-57100D01*
X85328Y-57214D01*
X85171Y-56785D02*
X85171Y-56842D01*
X85185Y-56871D01*
X85200Y-56885D01*
X85242Y-56914D01*
X85300Y-56928D01*
X85414Y-56928D01*
X85442Y-56914D01*
X85457Y-56900D01*
X85471Y-56871D01*
X85471Y-56814D01*
X85457Y-56785D01*
X85442Y-56771D01*
X85414Y-56757D01*
X85342Y-56757D01*
X85314Y-56771D01*
X85300Y-56785D01*
X85285Y-56814D01*
X85285Y-56871D01*
X85300Y-56900D01*
X85314Y-56914D01*
X85342Y-56928D01*
X85471Y-56471D02*
X85471Y-56642D01*
X85471Y-56557D02*
X85171Y-56557D01*
X85214Y-56585D01*
X85242Y-56614D01*
X85257Y-56642D01*
X87671Y-57042D02*
X87528Y-57142D01*
X87671Y-57214D02*
X87371Y-57214D01*
X87371Y-57100D01*
X87385Y-57071D01*
X87400Y-57057D01*
X87428Y-57042D01*
X87471Y-57042D01*
X87500Y-57057D01*
X87514Y-57071D01*
X87528Y-57100D01*
X87528Y-57214D01*
X87371Y-56942D02*
X87371Y-56742D01*
X87671Y-56871D01*
X87671Y-56471D02*
X87671Y-56642D01*
X87671Y-56557D02*
X87371Y-56557D01*
X87414Y-56585D01*
X87442Y-56614D01*
X87457Y-56642D01*
G54D18*
X99144Y-50586D02*
X99144Y-50186D01*
X99315Y-50567D02*
X99372Y-50586D01*
X99467Y-50586D01*
X99505Y-50567D01*
X99525Y-50548D01*
X99544Y-50510D01*
X99544Y-50472D01*
X99525Y-50434D01*
X99505Y-50415D01*
X99467Y-50396D01*
X99391Y-50377D01*
X99353Y-50358D01*
X99334Y-50339D01*
X99315Y-50301D01*
X99315Y-50263D01*
X99334Y-50225D01*
X99353Y-50205D01*
X99391Y-50186D01*
X99486Y-50186D01*
X99544Y-50205D01*
X99715Y-50586D02*
X99715Y-50186D01*
X99867Y-50186D01*
X99905Y-50205D01*
X99925Y-50225D01*
X99944Y-50263D01*
X99944Y-50320D01*
X99925Y-50358D01*
X99905Y-50377D01*
X99867Y-50396D01*
X99715Y-50396D01*
X100191Y-50186D02*
X100229Y-50186D01*
X100267Y-50205D01*
X100286Y-50225D01*
X100305Y-50263D01*
X100325Y-50339D01*
X100325Y-50434D01*
X100305Y-50510D01*
X100286Y-50548D01*
X100267Y-50567D01*
X100229Y-50586D01*
X100191Y-50586D01*
X100153Y-50567D01*
X100134Y-50548D01*
X100115Y-50510D01*
X100096Y-50434D01*
X100096Y-50339D01*
X100115Y-50263D01*
X100134Y-50225D01*
X100153Y-50205D01*
X100191Y-50186D01*
G54D21*
X72521Y-57042D02*
X72378Y-57142D01*
X72521Y-57214D02*
X72221Y-57214D01*
X72221Y-57100D01*
X72235Y-57071D01*
X72250Y-57057D01*
X72278Y-57042D01*
X72321Y-57042D01*
X72350Y-57057D01*
X72364Y-57071D01*
X72378Y-57100D01*
X72378Y-57214D01*
X72521Y-56757D02*
X72521Y-56928D01*
X72521Y-56842D02*
X72221Y-56842D01*
X72264Y-56871D01*
X72292Y-56900D01*
X72307Y-56928D01*
X72521Y-56471D02*
X72521Y-56642D01*
X72521Y-56557D02*
X72221Y-56557D01*
X72264Y-56585D01*
X72292Y-56614D01*
X72307Y-56642D01*
X107525Y-49446D02*
X107425Y-49303D01*
X107353Y-49446D02*
X107353Y-49146D01*
X107467Y-49146D01*
X107496Y-49160D01*
X107510Y-49175D01*
X107525Y-49203D01*
X107525Y-49246D01*
X107510Y-49275D01*
X107496Y-49289D01*
X107467Y-49303D01*
X107353Y-49303D01*
X107796Y-49146D02*
X107653Y-49146D01*
X107639Y-49289D01*
X107653Y-49275D01*
X107682Y-49260D01*
X107753Y-49260D01*
X107782Y-49275D01*
X107796Y-49289D01*
X107810Y-49317D01*
X107810Y-49389D01*
X107796Y-49417D01*
X107782Y-49432D01*
X107753Y-49446D01*
X107682Y-49446D01*
X107653Y-49432D01*
X107639Y-49417D01*
X106550Y-49421D02*
X106450Y-49278D01*
X106378Y-49421D02*
X106378Y-49121D01*
X106492Y-49121D01*
X106521Y-49135D01*
X106535Y-49150D01*
X106550Y-49178D01*
X106550Y-49221D01*
X106535Y-49250D01*
X106521Y-49264D01*
X106492Y-49278D01*
X106378Y-49278D01*
X106807Y-49121D02*
X106750Y-49121D01*
X106721Y-49135D01*
X106707Y-49150D01*
X106678Y-49192D01*
X106664Y-49250D01*
X106664Y-49364D01*
X106678Y-49392D01*
X106692Y-49407D01*
X106721Y-49421D01*
X106778Y-49421D01*
X106807Y-49407D01*
X106821Y-49392D01*
X106835Y-49364D01*
X106835Y-49292D01*
X106821Y-49264D01*
X106807Y-49250D01*
X106778Y-49235D01*
X106721Y-49235D01*
X106692Y-49250D01*
X106678Y-49264D01*
X106664Y-49292D01*
G54D24*
X94291Y-61608D02*
X94291Y-60908D01*
X94558Y-60908D01*
X94625Y-60941D01*
X94658Y-60975D01*
X94691Y-61041D01*
X94691Y-61141D01*
X94658Y-61208D01*
X94625Y-61241D01*
X94558Y-61275D01*
X94291Y-61275D01*
X95358Y-61608D02*
X94958Y-61608D01*
X95158Y-61608D02*
X95158Y-60908D01*
X95091Y-61008D01*
X95025Y-61075D01*
X94958Y-61108D01*
X95791Y-60908D02*
X95858Y-60908D01*
X95925Y-60941D01*
X95958Y-60975D01*
X95991Y-61041D01*
X96025Y-61175D01*
X96025Y-61341D01*
X95991Y-61475D01*
X95958Y-61541D01*
X95925Y-61575D01*
X95858Y-61608D01*
X95791Y-61608D01*
X95725Y-61575D01*
X95691Y-61541D01*
X95658Y-61475D01*
X95625Y-61341D01*
X95625Y-61175D01*
X95658Y-61041D01*
X95691Y-60975D01*
X95725Y-60941D01*
X95791Y-60908D01*
X96658Y-60908D02*
X96325Y-60908D01*
X96291Y-61241D01*
X96325Y-61208D01*
X96391Y-61175D01*
X96558Y-61175D01*
X96625Y-61208D01*
X96658Y-61241D01*
X96691Y-61308D01*
X96691Y-61475D01*
X96658Y-61541D01*
X96625Y-61575D01*
X96558Y-61608D01*
X96391Y-61608D01*
X96325Y-61575D01*
X96291Y-61541D01*
G54D21*
X93500Y-52692D02*
X93485Y-52707D01*
X93442Y-52721D01*
X93414Y-52721D01*
X93371Y-52707D01*
X93342Y-52678D01*
X93328Y-52650D01*
X93314Y-52592D01*
X93314Y-52550D01*
X93328Y-52492D01*
X93342Y-52464D01*
X93371Y-52435D01*
X93414Y-52421D01*
X93442Y-52421D01*
X93485Y-52435D01*
X93500Y-52450D01*
X93600Y-52421D02*
X93785Y-52421D01*
X93685Y-52535D01*
X93728Y-52535D01*
X93757Y-52550D01*
X93771Y-52564D01*
X93785Y-52592D01*
X93785Y-52664D01*
X93771Y-52692D01*
X93757Y-52707D01*
X93728Y-52721D01*
X93642Y-52721D01*
X93614Y-52707D01*
X93600Y-52692D01*
G54D25*
X72602Y-39395D02*
X72102Y-39395D01*
X72602Y-39109D02*
X72316Y-39323D01*
X72102Y-39109D02*
X72388Y-39395D01*
X72602Y-38633D02*
X72602Y-38919D01*
X72602Y-38776D02*
X72102Y-38776D01*
X72173Y-38823D01*
X72221Y-38871D01*
X72245Y-38919D01*
X72602Y-38157D02*
X72602Y-38442D01*
X72602Y-38300D02*
X72102Y-38300D01*
X72173Y-38347D01*
X72221Y-38395D01*
X72245Y-38442D01*
X72102Y-37847D02*
X72102Y-37800D01*
X72126Y-37752D01*
X72150Y-37728D01*
X72197Y-37704D01*
X72292Y-37680D01*
X72411Y-37680D01*
X72507Y-37704D01*
X72554Y-37728D01*
X72578Y-37752D01*
X72602Y-37800D01*
X72602Y-37847D01*
X72578Y-37895D01*
X72554Y-37919D01*
X72507Y-37942D01*
X72411Y-37966D01*
X72292Y-37966D01*
X72197Y-37942D01*
X72150Y-37919D01*
X72126Y-37895D01*
X72102Y-37847D01*
X77502Y-39395D02*
X77002Y-39395D01*
X77502Y-39109D02*
X77216Y-39323D01*
X77002Y-39109D02*
X77288Y-39395D01*
X77502Y-38633D02*
X77502Y-38919D01*
X77502Y-38776D02*
X77002Y-38776D01*
X77073Y-38823D01*
X77121Y-38871D01*
X77145Y-38919D01*
X77050Y-38442D02*
X77026Y-38419D01*
X77002Y-38371D01*
X77002Y-38252D01*
X77026Y-38204D01*
X77050Y-38180D01*
X77097Y-38157D01*
X77145Y-38157D01*
X77216Y-38180D01*
X77502Y-38466D01*
X77502Y-38157D01*
X77002Y-37847D02*
X77002Y-37800D01*
X77026Y-37752D01*
X77050Y-37728D01*
X77097Y-37704D01*
X77192Y-37680D01*
X77311Y-37680D01*
X77407Y-37704D01*
X77454Y-37728D01*
X77478Y-37752D01*
X77502Y-37800D01*
X77502Y-37847D01*
X77478Y-37895D01*
X77454Y-37919D01*
X77407Y-37942D01*
X77311Y-37966D01*
X77192Y-37966D01*
X77097Y-37942D01*
X77050Y-37919D01*
X77026Y-37895D01*
X77002Y-37847D01*
X82402Y-39395D02*
X81902Y-39395D01*
X82402Y-39109D02*
X82116Y-39323D01*
X81902Y-39109D02*
X82188Y-39395D01*
X82402Y-38633D02*
X82402Y-38919D01*
X82402Y-38776D02*
X81902Y-38776D01*
X81973Y-38823D01*
X82021Y-38871D01*
X82045Y-38919D01*
X81902Y-38466D02*
X81902Y-38157D01*
X82092Y-38323D01*
X82092Y-38252D01*
X82116Y-38204D01*
X82140Y-38180D01*
X82188Y-38157D01*
X82307Y-38157D01*
X82354Y-38180D01*
X82378Y-38204D01*
X82402Y-38252D01*
X82402Y-38395D01*
X82378Y-38442D01*
X82354Y-38466D01*
X81902Y-37847D02*
X81902Y-37800D01*
X81926Y-37752D01*
X81950Y-37728D01*
X81997Y-37704D01*
X82092Y-37680D01*
X82211Y-37680D01*
X82307Y-37704D01*
X82354Y-37728D01*
X82378Y-37752D01*
X82402Y-37800D01*
X82402Y-37847D01*
X82378Y-37895D01*
X82354Y-37919D01*
X82307Y-37942D01*
X82211Y-37966D01*
X82092Y-37966D01*
X81997Y-37942D01*
X81950Y-37919D01*
X81926Y-37895D01*
X81902Y-37847D01*
X87302Y-39395D02*
X86802Y-39395D01*
X87302Y-39109D02*
X87016Y-39323D01*
X86802Y-39109D02*
X87088Y-39395D01*
X87302Y-38633D02*
X87302Y-38919D01*
X87302Y-38776D02*
X86802Y-38776D01*
X86873Y-38823D01*
X86921Y-38871D01*
X86945Y-38919D01*
X86969Y-38204D02*
X87302Y-38204D01*
X86778Y-38323D02*
X87135Y-38442D01*
X87135Y-38133D01*
X86802Y-37847D02*
X86802Y-37800D01*
X86826Y-37752D01*
X86850Y-37728D01*
X86897Y-37704D01*
X86992Y-37680D01*
X87111Y-37680D01*
X87207Y-37704D01*
X87254Y-37728D01*
X87278Y-37752D01*
X87302Y-37800D01*
X87302Y-37847D01*
X87278Y-37895D01*
X87254Y-37919D01*
X87207Y-37942D01*
X87111Y-37966D01*
X86992Y-37966D01*
X86897Y-37942D01*
X86850Y-37919D01*
X86826Y-37895D01*
X86802Y-37847D01*
G54D24*
X72816Y-29708D02*
X72816Y-29008D01*
X73083Y-29008D01*
X73150Y-29041D01*
X73183Y-29075D01*
X73216Y-29141D01*
X73216Y-29241D01*
X73183Y-29308D01*
X73150Y-29341D01*
X73083Y-29375D01*
X72816Y-29375D01*
X73883Y-29708D02*
X73483Y-29708D01*
X73683Y-29708D02*
X73683Y-29008D01*
X73616Y-29108D01*
X73550Y-29175D01*
X73483Y-29208D01*
X74550Y-29708D02*
X74150Y-29708D01*
X74350Y-29708D02*
X74350Y-29008D01*
X74283Y-29108D01*
X74216Y-29175D01*
X74150Y-29208D01*
X74983Y-29008D02*
X75050Y-29008D01*
X75116Y-29041D01*
X75150Y-29075D01*
X75183Y-29141D01*
X75216Y-29275D01*
X75216Y-29441D01*
X75183Y-29575D01*
X75150Y-29641D01*
X75116Y-29675D01*
X75050Y-29708D01*
X74983Y-29708D01*
X74916Y-29675D01*
X74883Y-29641D01*
X74850Y-29575D01*
X74816Y-29441D01*
X74816Y-29275D01*
X74850Y-29141D01*
X74883Y-29075D01*
X74916Y-29041D01*
X74983Y-29008D01*
X77591Y-29733D02*
X77591Y-29033D01*
X77858Y-29033D01*
X77925Y-29066D01*
X77958Y-29100D01*
X77991Y-29166D01*
X77991Y-29266D01*
X77958Y-29333D01*
X77925Y-29366D01*
X77858Y-29400D01*
X77591Y-29400D01*
X78658Y-29733D02*
X78258Y-29733D01*
X78458Y-29733D02*
X78458Y-29033D01*
X78391Y-29133D01*
X78325Y-29200D01*
X78258Y-29233D01*
X78925Y-29100D02*
X78958Y-29066D01*
X79025Y-29033D01*
X79191Y-29033D01*
X79258Y-29066D01*
X79291Y-29100D01*
X79325Y-29166D01*
X79325Y-29233D01*
X79291Y-29333D01*
X78891Y-29733D01*
X79325Y-29733D01*
X79758Y-29033D02*
X79825Y-29033D01*
X79891Y-29066D01*
X79925Y-29100D01*
X79958Y-29166D01*
X79991Y-29300D01*
X79991Y-29466D01*
X79958Y-29600D01*
X79925Y-29666D01*
X79891Y-29700D01*
X79825Y-29733D01*
X79758Y-29733D01*
X79691Y-29700D01*
X79658Y-29666D01*
X79625Y-29600D01*
X79591Y-29466D01*
X79591Y-29300D01*
X79625Y-29166D01*
X79658Y-29100D01*
X79691Y-29066D01*
X79758Y-29033D01*
X82416Y-29783D02*
X82416Y-29083D01*
X82683Y-29083D01*
X82750Y-29116D01*
X82783Y-29150D01*
X82816Y-29216D01*
X82816Y-29316D01*
X82783Y-29383D01*
X82750Y-29416D01*
X82683Y-29450D01*
X82416Y-29450D01*
X83483Y-29783D02*
X83083Y-29783D01*
X83283Y-29783D02*
X83283Y-29083D01*
X83216Y-29183D01*
X83150Y-29250D01*
X83083Y-29283D01*
X83716Y-29083D02*
X84150Y-29083D01*
X83916Y-29350D01*
X84016Y-29350D01*
X84083Y-29383D01*
X84116Y-29416D01*
X84150Y-29483D01*
X84150Y-29650D01*
X84116Y-29716D01*
X84083Y-29750D01*
X84016Y-29783D01*
X83816Y-29783D01*
X83750Y-29750D01*
X83716Y-29716D01*
X84583Y-29083D02*
X84650Y-29083D01*
X84716Y-29116D01*
X84750Y-29150D01*
X84783Y-29216D01*
X84816Y-29350D01*
X84816Y-29516D01*
X84783Y-29650D01*
X84750Y-29716D01*
X84716Y-29750D01*
X84650Y-29783D01*
X84583Y-29783D01*
X84516Y-29750D01*
X84483Y-29716D01*
X84450Y-29650D01*
X84416Y-29516D01*
X84416Y-29350D01*
X84450Y-29216D01*
X84483Y-29150D01*
X84516Y-29116D01*
X84583Y-29083D01*
X87216Y-29958D02*
X87216Y-29258D01*
X87483Y-29258D01*
X87550Y-29291D01*
X87583Y-29325D01*
X87616Y-29391D01*
X87616Y-29491D01*
X87583Y-29558D01*
X87550Y-29591D01*
X87483Y-29625D01*
X87216Y-29625D01*
X88283Y-29958D02*
X87883Y-29958D01*
X88083Y-29958D02*
X88083Y-29258D01*
X88016Y-29358D01*
X87950Y-29425D01*
X87883Y-29458D01*
X88883Y-29491D02*
X88883Y-29958D01*
X88716Y-29225D02*
X88550Y-29725D01*
X88983Y-29725D01*
X89383Y-29258D02*
X89450Y-29258D01*
X89516Y-29291D01*
X89550Y-29325D01*
X89583Y-29391D01*
X89616Y-29525D01*
X89616Y-29691D01*
X89583Y-29825D01*
X89550Y-29891D01*
X89516Y-29925D01*
X89450Y-29958D01*
X89383Y-29958D01*
X89316Y-29925D01*
X89283Y-29891D01*
X89250Y-29825D01*
X89216Y-29691D01*
X89216Y-29525D01*
X89250Y-29391D01*
X89283Y-29325D01*
X89316Y-29291D01*
X89383Y-29258D01*
X92816Y-30008D02*
X92816Y-29308D01*
X93083Y-29308D01*
X93150Y-29341D01*
X93183Y-29375D01*
X93216Y-29441D01*
X93216Y-29541D01*
X93183Y-29608D01*
X93150Y-29641D01*
X93083Y-29675D01*
X92816Y-29675D01*
X93883Y-30008D02*
X93483Y-30008D01*
X93683Y-30008D02*
X93683Y-29308D01*
X93616Y-29408D01*
X93550Y-29475D01*
X93483Y-29508D01*
X94516Y-29308D02*
X94183Y-29308D01*
X94150Y-29641D01*
X94183Y-29608D01*
X94250Y-29575D01*
X94416Y-29575D01*
X94483Y-29608D01*
X94516Y-29641D01*
X94550Y-29708D01*
X94550Y-29875D01*
X94516Y-29941D01*
X94483Y-29975D01*
X94416Y-30008D01*
X94250Y-30008D01*
X94183Y-29975D01*
X94150Y-29941D01*
X94983Y-29308D02*
X95050Y-29308D01*
X95116Y-29341D01*
X95150Y-29375D01*
X95183Y-29441D01*
X95216Y-29575D01*
X95216Y-29741D01*
X95183Y-29875D01*
X95150Y-29941D01*
X95116Y-29975D01*
X95050Y-30008D01*
X94983Y-30008D01*
X94916Y-29975D01*
X94883Y-29941D01*
X94850Y-29875D01*
X94816Y-29741D01*
X94816Y-29575D01*
X94850Y-29441D01*
X94883Y-29375D01*
X94916Y-29341D01*
X94983Y-29308D01*
X97616Y-29958D02*
X97616Y-29258D01*
X97883Y-29258D01*
X97950Y-29291D01*
X97983Y-29325D01*
X98016Y-29391D01*
X98016Y-29491D01*
X97983Y-29558D01*
X97950Y-29591D01*
X97883Y-29625D01*
X97616Y-29625D01*
X98683Y-29958D02*
X98283Y-29958D01*
X98483Y-29958D02*
X98483Y-29258D01*
X98416Y-29358D01*
X98350Y-29425D01*
X98283Y-29458D01*
X99283Y-29258D02*
X99150Y-29258D01*
X99083Y-29291D01*
X99050Y-29325D01*
X98983Y-29425D01*
X98950Y-29558D01*
X98950Y-29825D01*
X98983Y-29891D01*
X99016Y-29925D01*
X99083Y-29958D01*
X99216Y-29958D01*
X99283Y-29925D01*
X99316Y-29891D01*
X99350Y-29825D01*
X99350Y-29658D01*
X99316Y-29591D01*
X99283Y-29558D01*
X99216Y-29525D01*
X99083Y-29525D01*
X99016Y-29558D01*
X98983Y-29591D01*
X98950Y-29658D01*
X99783Y-29258D02*
X99850Y-29258D01*
X99916Y-29291D01*
X99950Y-29325D01*
X99983Y-29391D01*
X100016Y-29525D01*
X100016Y-29691D01*
X99983Y-29825D01*
X99950Y-29891D01*
X99916Y-29925D01*
X99850Y-29958D01*
X99783Y-29958D01*
X99716Y-29925D01*
X99683Y-29891D01*
X99650Y-29825D01*
X99616Y-29691D01*
X99616Y-29525D01*
X99650Y-29391D01*
X99683Y-29325D01*
X99716Y-29291D01*
X99783Y-29258D01*
X102416Y-29958D02*
X102416Y-29258D01*
X102683Y-29258D01*
X102750Y-29291D01*
X102783Y-29325D01*
X102816Y-29391D01*
X102816Y-29491D01*
X102783Y-29558D01*
X102750Y-29591D01*
X102683Y-29625D01*
X102416Y-29625D01*
X103483Y-29958D02*
X103083Y-29958D01*
X103283Y-29958D02*
X103283Y-29258D01*
X103216Y-29358D01*
X103150Y-29425D01*
X103083Y-29458D01*
X103716Y-29258D02*
X104183Y-29258D01*
X103883Y-29958D01*
X104583Y-29258D02*
X104650Y-29258D01*
X104716Y-29291D01*
X104750Y-29325D01*
X104783Y-29391D01*
X104816Y-29525D01*
X104816Y-29691D01*
X104783Y-29825D01*
X104750Y-29891D01*
X104716Y-29925D01*
X104650Y-29958D01*
X104583Y-29958D01*
X104516Y-29925D01*
X104483Y-29891D01*
X104450Y-29825D01*
X104416Y-29691D01*
X104416Y-29525D01*
X104450Y-29391D01*
X104483Y-29325D01*
X104516Y-29291D01*
X104583Y-29258D01*
X107216Y-29983D02*
X107216Y-29283D01*
X107483Y-29283D01*
X107550Y-29316D01*
X107583Y-29350D01*
X107616Y-29416D01*
X107616Y-29516D01*
X107583Y-29583D01*
X107550Y-29616D01*
X107483Y-29650D01*
X107216Y-29650D01*
X108283Y-29983D02*
X107883Y-29983D01*
X108083Y-29983D02*
X108083Y-29283D01*
X108016Y-29383D01*
X107950Y-29450D01*
X107883Y-29483D01*
X108683Y-29583D02*
X108616Y-29550D01*
X108583Y-29516D01*
X108550Y-29450D01*
X108550Y-29416D01*
X108583Y-29350D01*
X108616Y-29316D01*
X108683Y-29283D01*
X108816Y-29283D01*
X108883Y-29316D01*
X108916Y-29350D01*
X108950Y-29416D01*
X108950Y-29450D01*
X108916Y-29516D01*
X108883Y-29550D01*
X108816Y-29583D01*
X108683Y-29583D01*
X108616Y-29616D01*
X108583Y-29650D01*
X108550Y-29716D01*
X108550Y-29850D01*
X108583Y-29916D01*
X108616Y-29950D01*
X108683Y-29983D01*
X108816Y-29983D01*
X108883Y-29950D01*
X108916Y-29916D01*
X108950Y-29850D01*
X108950Y-29716D01*
X108916Y-29650D01*
X108883Y-29616D01*
X108816Y-29583D01*
X109383Y-29283D02*
X109450Y-29283D01*
X109516Y-29316D01*
X109550Y-29350D01*
X109583Y-29416D01*
X109616Y-29550D01*
X109616Y-29716D01*
X109583Y-29850D01*
X109550Y-29916D01*
X109516Y-29950D01*
X109450Y-29983D01*
X109383Y-29983D01*
X109316Y-29950D01*
X109283Y-29916D01*
X109250Y-29850D01*
X109216Y-29716D01*
X109216Y-29550D01*
X109250Y-29416D01*
X109283Y-29350D01*
X109316Y-29316D01*
X109383Y-29283D01*
G54D25*
X106952Y-39395D02*
X106452Y-39395D01*
X106952Y-39109D02*
X106666Y-39323D01*
X106452Y-39109D02*
X106738Y-39395D01*
X106952Y-38633D02*
X106952Y-38919D01*
X106952Y-38776D02*
X106452Y-38776D01*
X106523Y-38823D01*
X106571Y-38871D01*
X106595Y-38919D01*
X106666Y-38347D02*
X106642Y-38395D01*
X106619Y-38419D01*
X106571Y-38442D01*
X106547Y-38442D01*
X106500Y-38419D01*
X106476Y-38395D01*
X106452Y-38347D01*
X106452Y-38252D01*
X106476Y-38204D01*
X106500Y-38180D01*
X106547Y-38157D01*
X106571Y-38157D01*
X106619Y-38180D01*
X106642Y-38204D01*
X106666Y-38252D01*
X106666Y-38347D01*
X106690Y-38395D01*
X106714Y-38419D01*
X106761Y-38442D01*
X106857Y-38442D01*
X106904Y-38419D01*
X106928Y-38395D01*
X106952Y-38347D01*
X106952Y-38252D01*
X106928Y-38204D01*
X106904Y-38180D01*
X106857Y-38157D01*
X106761Y-38157D01*
X106714Y-38180D01*
X106690Y-38204D01*
X106666Y-38252D01*
X106452Y-37847D02*
X106452Y-37800D01*
X106476Y-37752D01*
X106500Y-37728D01*
X106547Y-37704D01*
X106642Y-37680D01*
X106761Y-37680D01*
X106857Y-37704D01*
X106904Y-37728D01*
X106928Y-37752D01*
X106952Y-37800D01*
X106952Y-37847D01*
X106928Y-37895D01*
X106904Y-37919D01*
X106857Y-37942D01*
X106761Y-37966D01*
X106642Y-37966D01*
X106547Y-37942D01*
X106500Y-37919D01*
X106476Y-37895D01*
X106452Y-37847D01*
X102102Y-39395D02*
X101602Y-39395D01*
X102102Y-39109D02*
X101816Y-39323D01*
X101602Y-39109D02*
X101888Y-39395D01*
X102102Y-38633D02*
X102102Y-38919D01*
X102102Y-38776D02*
X101602Y-38776D01*
X101673Y-38823D01*
X101721Y-38871D01*
X101745Y-38919D01*
X101602Y-38466D02*
X101602Y-38133D01*
X102102Y-38347D01*
X101602Y-37847D02*
X101602Y-37800D01*
X101626Y-37752D01*
X101650Y-37728D01*
X101697Y-37704D01*
X101792Y-37680D01*
X101911Y-37680D01*
X102007Y-37704D01*
X102054Y-37728D01*
X102078Y-37752D01*
X102102Y-37800D01*
X102102Y-37847D01*
X102078Y-37895D01*
X102054Y-37919D01*
X102007Y-37942D01*
X101911Y-37966D01*
X101792Y-37966D01*
X101697Y-37942D01*
X101650Y-37919D01*
X101626Y-37895D01*
X101602Y-37847D01*
X97252Y-39395D02*
X96752Y-39395D01*
X97252Y-39109D02*
X96966Y-39323D01*
X96752Y-39109D02*
X97038Y-39395D01*
X97252Y-38633D02*
X97252Y-38919D01*
X97252Y-38776D02*
X96752Y-38776D01*
X96823Y-38823D01*
X96871Y-38871D01*
X96895Y-38919D01*
X96752Y-38204D02*
X96752Y-38300D01*
X96776Y-38347D01*
X96800Y-38371D01*
X96871Y-38419D01*
X96966Y-38442D01*
X97157Y-38442D01*
X97204Y-38419D01*
X97228Y-38395D01*
X97252Y-38347D01*
X97252Y-38252D01*
X97228Y-38204D01*
X97204Y-38180D01*
X97157Y-38157D01*
X97038Y-38157D01*
X96990Y-38180D01*
X96966Y-38204D01*
X96942Y-38252D01*
X96942Y-38347D01*
X96966Y-38395D01*
X96990Y-38419D01*
X97038Y-38442D01*
X96752Y-37847D02*
X96752Y-37800D01*
X96776Y-37752D01*
X96800Y-37728D01*
X96847Y-37704D01*
X96942Y-37680D01*
X97061Y-37680D01*
X97157Y-37704D01*
X97204Y-37728D01*
X97228Y-37752D01*
X97252Y-37800D01*
X97252Y-37847D01*
X97228Y-37895D01*
X97204Y-37919D01*
X97157Y-37942D01*
X97061Y-37966D01*
X96942Y-37966D01*
X96847Y-37942D01*
X96800Y-37919D01*
X96776Y-37895D01*
X96752Y-37847D01*
X92402Y-39395D02*
X91902Y-39395D01*
X92402Y-39109D02*
X92116Y-39323D01*
X91902Y-39109D02*
X92188Y-39395D01*
X92402Y-38633D02*
X92402Y-38919D01*
X92402Y-38776D02*
X91902Y-38776D01*
X91973Y-38823D01*
X92021Y-38871D01*
X92045Y-38919D01*
X91902Y-38180D02*
X91902Y-38419D01*
X92140Y-38442D01*
X92116Y-38419D01*
X92092Y-38371D01*
X92092Y-38252D01*
X92116Y-38204D01*
X92140Y-38180D01*
X92188Y-38157D01*
X92307Y-38157D01*
X92354Y-38180D01*
X92378Y-38204D01*
X92402Y-38252D01*
X92402Y-38371D01*
X92378Y-38419D01*
X92354Y-38442D01*
X91902Y-37847D02*
X91902Y-37800D01*
X91926Y-37752D01*
X91950Y-37728D01*
X91997Y-37704D01*
X92092Y-37680D01*
X92211Y-37680D01*
X92307Y-37704D01*
X92354Y-37728D01*
X92378Y-37752D01*
X92402Y-37800D01*
X92402Y-37847D01*
X92378Y-37895D01*
X92354Y-37919D01*
X92307Y-37942D01*
X92211Y-37966D01*
X92092Y-37966D01*
X91997Y-37942D01*
X91950Y-37919D01*
X91926Y-37895D01*
X91902Y-37847D01*
G54D11*
X100300Y-59655D02*
X100300Y-60084D01*
X100271Y-60169D01*
X100214Y-60226D01*
X100128Y-60255D01*
X100071Y-60255D01*
X100557Y-59712D02*
X100585Y-59684D01*
X100642Y-59655D01*
X100785Y-59655D01*
X100842Y-59684D01*
X100871Y-59712D01*
X100900Y-59769D01*
X100900Y-59826D01*
X100871Y-59912D01*
X100528Y-60255D01*
X100900Y-60255D01*
X106900Y-59655D02*
X106900Y-60084D01*
X106871Y-60169D01*
X106814Y-60226D01*
X106728Y-60255D01*
X106671Y-60255D01*
X107500Y-60255D02*
X107157Y-60255D01*
X107328Y-60255D02*
X107328Y-59655D01*
X107271Y-59741D01*
X107214Y-59798D01*
X107157Y-59826D01*
X99217Y-52617D02*
X99217Y-53103D01*
X99246Y-53160D01*
X99275Y-53189D01*
X99332Y-53217D01*
X99446Y-53217D01*
X99503Y-53189D01*
X99532Y-53160D01*
X99560Y-53103D01*
X99560Y-52617D01*
X100160Y-53217D02*
X99817Y-53217D01*
X99989Y-53217D02*
X99989Y-52617D01*
X99932Y-52703D01*
X99875Y-52760D01*
X99817Y-52789D01*
X75942Y-52792D02*
X75942Y-53278D01*
X75971Y-53335D01*
X76000Y-53364D01*
X76057Y-53392D01*
X76171Y-53392D01*
X76228Y-53364D01*
X76257Y-53335D01*
X76285Y-53278D01*
X76285Y-52792D01*
X76514Y-52792D02*
X76885Y-52792D01*
X76685Y-53021D01*
X76771Y-53021D01*
X76828Y-53050D01*
X76857Y-53078D01*
X76885Y-53135D01*
X76885Y-53278D01*
X76857Y-53335D01*
X76828Y-53364D01*
X76771Y-53392D01*
X76600Y-53392D01*
X76542Y-53364D01*
X76514Y-53335D01*
X85292Y-52792D02*
X85292Y-53278D01*
X85321Y-53335D01*
X85350Y-53364D01*
X85407Y-53392D01*
X85521Y-53392D01*
X85578Y-53364D01*
X85607Y-53335D01*
X85635Y-53278D01*
X85635Y-52792D01*
X86178Y-52992D02*
X86178Y-53392D01*
X86035Y-52764D02*
X85892Y-53192D01*
X86264Y-53192D01*
M02*
