M48
;DRILL file {Pcbnew (2013-jul-07)-stable} date ven. 28 nov. 2014 16:43:08 CET
;FORMAT={-:-/ absolute / inch / decimal}
FMAT,2
INCH,TZ
T1C0.025
T2C0.040
%
G90
G05
M72
T1
X3.75Y-3.12
X3.87Y-4.42
X3.875Y-4.055
X3.95Y-3.12
X4.Y-4.05
X4.Y-4.42
X4.13Y-4.05
X4.13Y-4.42
X4.16Y-3.12
X4.26Y-4.05
X4.26Y-4.42
X4.36Y-3.12
X4.39Y-4.05
X4.39Y-4.42
X4.52Y-4.42
X4.56Y-3.12
X4.65Y-4.05
X4.65Y-4.42
X4.76Y-3.11
X4.78Y-4.05
X4.92Y-4.475
X4.96Y-3.095
X5.08Y-3.05
X5.1Y-3.46
X5.46Y-3.34
X5.46Y-3.54
T2
X3.97Y-3.765
X3.97Y-3.865
X4.07Y-3.765
X4.07Y-3.865
X4.17Y-3.765
X4.17Y-3.865
X4.27Y-3.765
X4.27Y-3.865
X4.37Y-3.765
X4.37Y-3.865
X4.47Y-3.765
X4.47Y-3.865
X4.57Y-3.765
X4.57Y-3.865
X4.67Y-3.765
X4.67Y-3.865
X4.77Y-3.765
X4.77Y-3.865
X4.87Y-3.765
X4.87Y-3.865
T0
M30
