G04 (created by PCBNEW (2013-jul-07)-stable) date ven. 28 nov. 2014 16:43:25 CET*
%MOIN*%
G04 Gerber Fmt 3.4, Leading zero omitted, Abs format*
%FSLAX34Y34*%
G01*
G70*
G90*
G04 APERTURE LIST*
%ADD10C,0.00590551*%
%ADD11C,0.00787402*%
%ADD12C,0.005*%
%ADD13C,0.0039*%
%ADD14C,0.0031*%
%ADD15C,0.01*%
%ADD16C,0.0108*%
%ADD17C,0.0047*%
G04 APERTURE END LIST*
G54D10*
G54D11*
X43800Y-36600D02*
X44600Y-36600D01*
G54D10*
X74000Y-29100D02*
X74000Y-45650D01*
X73400Y-29100D02*
X74000Y-29100D01*
X73400Y-45650D02*
X74000Y-45650D01*
X34000Y-29100D02*
X34000Y-45600D01*
X34000Y-29100D02*
X73400Y-29100D01*
X34000Y-45650D02*
X34000Y-45600D01*
X73400Y-45650D02*
X34000Y-45650D01*
G54D11*
X43800Y-37100D02*
X43950Y-37100D01*
X43800Y-36600D02*
X43800Y-37100D01*
X43900Y-37100D02*
X44100Y-37100D01*
X44600Y-37100D02*
X44050Y-37100D01*
X44600Y-36600D02*
X44600Y-37100D01*
G54D10*
X34000Y-45800D02*
G75*
G03X34000Y-45800I0J0D01*
G74*
G01*
X33999Y-45800D02*
X34000Y-45800D01*
X34000Y-45799D02*
X34000Y-45800D01*
G54D12*
X38250Y-39500D02*
X39150Y-39500D01*
X39150Y-39500D02*
X39150Y-40150D01*
X38250Y-40850D02*
X38250Y-41500D01*
X38250Y-41500D02*
X39150Y-41500D01*
X39150Y-41500D02*
X39150Y-40850D01*
X38250Y-40150D02*
X38250Y-39500D01*
X40850Y-39500D02*
X41750Y-39500D01*
X41750Y-39500D02*
X41750Y-40150D01*
X40850Y-40850D02*
X40850Y-41500D01*
X40850Y-41500D02*
X41750Y-41500D01*
X41750Y-41500D02*
X41750Y-40850D01*
X40850Y-40150D02*
X40850Y-39500D01*
X43450Y-39500D02*
X44350Y-39500D01*
X44350Y-39500D02*
X44350Y-40150D01*
X43450Y-40850D02*
X43450Y-41500D01*
X43450Y-41500D02*
X44350Y-41500D01*
X44350Y-41500D02*
X44350Y-40850D01*
X43450Y-40150D02*
X43450Y-39500D01*
X46050Y-39500D02*
X46950Y-39500D01*
X46950Y-39500D02*
X46950Y-40150D01*
X46050Y-40850D02*
X46050Y-41500D01*
X46050Y-41500D02*
X46950Y-41500D01*
X46950Y-41500D02*
X46950Y-40850D01*
X46050Y-40150D02*
X46050Y-39500D01*
X47350Y-39500D02*
X48250Y-39500D01*
X48250Y-39500D02*
X48250Y-40150D01*
X47350Y-40850D02*
X47350Y-41500D01*
X47350Y-41500D02*
X48250Y-41500D01*
X48250Y-41500D02*
X48250Y-40850D01*
X47350Y-40150D02*
X47350Y-39500D01*
X44750Y-39500D02*
X45650Y-39500D01*
X45650Y-39500D02*
X45650Y-40150D01*
X44750Y-40850D02*
X44750Y-41500D01*
X44750Y-41500D02*
X45650Y-41500D01*
X45650Y-41500D02*
X45650Y-40850D01*
X44750Y-40150D02*
X44750Y-39500D01*
X42150Y-39500D02*
X43050Y-39500D01*
X43050Y-39500D02*
X43050Y-40150D01*
X42150Y-40850D02*
X42150Y-41500D01*
X42150Y-41500D02*
X43050Y-41500D01*
X43050Y-41500D02*
X43050Y-40850D01*
X42150Y-40150D02*
X42150Y-39500D01*
X39550Y-39500D02*
X40450Y-39500D01*
X40450Y-39500D02*
X40450Y-40150D01*
X39550Y-40850D02*
X39550Y-41500D01*
X39550Y-41500D02*
X40450Y-41500D01*
X40450Y-41500D02*
X40450Y-40850D01*
X39550Y-40150D02*
X39550Y-39500D01*
X39150Y-45200D02*
X38250Y-45200D01*
X38250Y-45200D02*
X38250Y-44550D01*
X39150Y-43850D02*
X39150Y-43200D01*
X39150Y-43200D02*
X38250Y-43200D01*
X38250Y-43200D02*
X38250Y-43850D01*
X39150Y-44550D02*
X39150Y-45200D01*
X40450Y-45200D02*
X39550Y-45200D01*
X39550Y-45200D02*
X39550Y-44550D01*
X40450Y-43850D02*
X40450Y-43200D01*
X40450Y-43200D02*
X39550Y-43200D01*
X39550Y-43200D02*
X39550Y-43850D01*
X40450Y-44550D02*
X40450Y-45200D01*
G54D13*
X39200Y-37150D02*
X49200Y-37150D01*
X39200Y-39150D02*
X49200Y-39150D01*
X39200Y-39150D02*
X39200Y-37150D01*
X49200Y-37150D02*
X49200Y-39150D01*
G54D12*
X41750Y-45200D02*
X40850Y-45200D01*
X40850Y-45200D02*
X40850Y-44550D01*
X41750Y-43850D02*
X41750Y-43200D01*
X41750Y-43200D02*
X40850Y-43200D01*
X40850Y-43200D02*
X40850Y-43850D01*
X41750Y-44550D02*
X41750Y-45200D01*
X43050Y-45200D02*
X42150Y-45200D01*
X42150Y-45200D02*
X42150Y-44550D01*
X43050Y-43850D02*
X43050Y-43200D01*
X43050Y-43200D02*
X42150Y-43200D01*
X42150Y-43200D02*
X42150Y-43850D01*
X43050Y-44550D02*
X43050Y-45200D01*
X44350Y-45200D02*
X43450Y-45200D01*
X43450Y-45200D02*
X43450Y-44550D01*
X44350Y-43850D02*
X44350Y-43200D01*
X44350Y-43200D02*
X43450Y-43200D01*
X43450Y-43200D02*
X43450Y-43850D01*
X44350Y-44550D02*
X44350Y-45200D01*
X45650Y-45200D02*
X44750Y-45200D01*
X44750Y-45200D02*
X44750Y-44550D01*
X45650Y-43850D02*
X45650Y-43200D01*
X45650Y-43200D02*
X44750Y-43200D01*
X44750Y-43200D02*
X44750Y-43850D01*
X45650Y-44550D02*
X45650Y-45200D01*
X46950Y-45200D02*
X46050Y-45200D01*
X46050Y-45200D02*
X46050Y-44550D01*
X46950Y-43850D02*
X46950Y-43200D01*
X46950Y-43200D02*
X46050Y-43200D01*
X46050Y-43200D02*
X46050Y-43850D01*
X46950Y-44550D02*
X46950Y-45200D01*
X48250Y-45200D02*
X47350Y-45200D01*
X47350Y-45200D02*
X47350Y-44550D01*
X48250Y-43850D02*
X48250Y-43200D01*
X48250Y-43200D02*
X47350Y-43200D01*
X47350Y-43200D02*
X47350Y-43850D01*
X48250Y-44550D02*
X48250Y-45200D01*
X35750Y-36500D02*
X34850Y-36500D01*
X34850Y-36500D02*
X34850Y-35850D01*
X35750Y-35150D02*
X35750Y-34500D01*
X35750Y-34500D02*
X34850Y-34500D01*
X34850Y-34500D02*
X34850Y-35150D01*
X35750Y-35850D02*
X35750Y-36500D01*
X37750Y-36500D02*
X36850Y-36500D01*
X36850Y-36500D02*
X36850Y-35850D01*
X37750Y-35150D02*
X37750Y-34500D01*
X37750Y-34500D02*
X36850Y-34500D01*
X36850Y-34500D02*
X36850Y-35150D01*
X37750Y-35850D02*
X37750Y-36500D01*
X39750Y-36500D02*
X38850Y-36500D01*
X38850Y-36500D02*
X38850Y-35850D01*
X39750Y-35150D02*
X39750Y-34500D01*
X39750Y-34500D02*
X38850Y-34500D01*
X38850Y-34500D02*
X38850Y-35150D01*
X39750Y-35850D02*
X39750Y-36500D01*
X41750Y-36500D02*
X40850Y-36500D01*
X40850Y-36500D02*
X40850Y-35850D01*
X41750Y-35150D02*
X41750Y-34500D01*
X41750Y-34500D02*
X40850Y-34500D01*
X40850Y-34500D02*
X40850Y-35150D01*
X41750Y-35850D02*
X41750Y-36500D01*
X43750Y-36500D02*
X42850Y-36500D01*
X42850Y-36500D02*
X42850Y-35850D01*
X43750Y-35150D02*
X43750Y-34500D01*
X43750Y-34500D02*
X42850Y-34500D01*
X42850Y-34500D02*
X42850Y-35150D01*
X43750Y-35850D02*
X43750Y-36500D01*
X45750Y-36500D02*
X44850Y-36500D01*
X44850Y-36500D02*
X44850Y-35850D01*
X45750Y-35150D02*
X45750Y-34500D01*
X45750Y-34500D02*
X44850Y-34500D01*
X44850Y-34500D02*
X44850Y-35150D01*
X45750Y-35850D02*
X45750Y-36500D01*
X47750Y-36500D02*
X46850Y-36500D01*
X46850Y-36500D02*
X46850Y-35850D01*
X47750Y-35150D02*
X47750Y-34500D01*
X47750Y-34500D02*
X46850Y-34500D01*
X46850Y-34500D02*
X46850Y-35150D01*
X47750Y-35850D02*
X47750Y-36500D01*
X49750Y-36500D02*
X48850Y-36500D01*
X48850Y-36500D02*
X48850Y-35850D01*
X49750Y-35150D02*
X49750Y-34500D01*
X49750Y-34500D02*
X48850Y-34500D01*
X48850Y-34500D02*
X48850Y-35150D01*
X49750Y-35850D02*
X49750Y-36500D01*
X35150Y-30800D02*
X36050Y-30800D01*
X36050Y-30800D02*
X36050Y-31450D01*
X35150Y-32150D02*
X35150Y-32800D01*
X35150Y-32800D02*
X36050Y-32800D01*
X36050Y-32800D02*
X36050Y-32150D01*
X35150Y-31450D02*
X35150Y-30800D01*
X38150Y-30800D02*
X39050Y-30800D01*
X39050Y-30800D02*
X39050Y-31450D01*
X38150Y-32150D02*
X38150Y-32800D01*
X38150Y-32800D02*
X39050Y-32800D01*
X39050Y-32800D02*
X39050Y-32150D01*
X38150Y-31450D02*
X38150Y-30800D01*
X40150Y-30800D02*
X41050Y-30800D01*
X41050Y-30800D02*
X41050Y-31450D01*
X40150Y-32150D02*
X40150Y-32800D01*
X40150Y-32800D02*
X41050Y-32800D01*
X41050Y-32800D02*
X41050Y-32150D01*
X40150Y-31450D02*
X40150Y-30800D01*
X42150Y-30800D02*
X43050Y-30800D01*
X43050Y-30800D02*
X43050Y-31450D01*
X42150Y-32150D02*
X42150Y-32800D01*
X42150Y-32800D02*
X43050Y-32800D01*
X43050Y-32800D02*
X43050Y-32150D01*
X42150Y-31450D02*
X42150Y-30800D01*
X44150Y-30800D02*
X45050Y-30800D01*
X45050Y-30800D02*
X45050Y-31450D01*
X44150Y-32150D02*
X44150Y-32800D01*
X44150Y-32800D02*
X45050Y-32800D01*
X45050Y-32800D02*
X45050Y-32150D01*
X44150Y-31450D02*
X44150Y-30800D01*
X46150Y-30800D02*
X47050Y-30800D01*
X47050Y-30800D02*
X47050Y-31450D01*
X46150Y-32150D02*
X46150Y-32800D01*
X46150Y-32800D02*
X47050Y-32800D01*
X47050Y-32800D02*
X47050Y-32150D01*
X46150Y-31450D02*
X46150Y-30800D01*
X48150Y-30800D02*
X49050Y-30800D01*
X49050Y-30800D02*
X49050Y-31450D01*
X48150Y-32150D02*
X48150Y-32800D01*
X48150Y-32800D02*
X49050Y-32800D01*
X49050Y-32800D02*
X49050Y-32150D01*
X48150Y-31450D02*
X48150Y-30800D01*
X50150Y-30800D02*
X51050Y-30800D01*
X51050Y-30800D02*
X51050Y-31450D01*
X50150Y-32150D02*
X50150Y-32800D01*
X50150Y-32800D02*
X51050Y-32800D01*
X51050Y-32800D02*
X51050Y-32150D01*
X50150Y-31450D02*
X50150Y-30800D01*
X52000Y-33850D02*
X52000Y-32950D01*
X52000Y-32950D02*
X52650Y-32950D01*
X53350Y-33850D02*
X54000Y-33850D01*
X54000Y-33850D02*
X54000Y-32950D01*
X54000Y-32950D02*
X53350Y-32950D01*
X52650Y-33850D02*
X52000Y-33850D01*
X53900Y-34950D02*
X53900Y-35850D01*
X53900Y-35850D02*
X53250Y-35850D01*
X52550Y-34950D02*
X51900Y-34950D01*
X51900Y-34950D02*
X51900Y-35850D01*
X51900Y-35850D02*
X52550Y-35850D01*
X53250Y-34950D02*
X53900Y-34950D01*
X49050Y-39500D02*
X49950Y-39500D01*
X49950Y-39500D02*
X49950Y-40150D01*
X49050Y-40850D02*
X49050Y-41500D01*
X49050Y-41500D02*
X49950Y-41500D01*
X49950Y-41500D02*
X49950Y-40850D01*
X49050Y-40150D02*
X49050Y-39500D01*
G54D14*
X38299Y-42262D02*
G75*
G03X38299Y-42262I-62J0D01*
G74*
G01*
X39200Y-42600D02*
X39200Y-42200D01*
X38175Y-42600D02*
X38175Y-42200D01*
X39200Y-42200D02*
X38175Y-42200D01*
X38175Y-42600D02*
X39200Y-42600D01*
X39599Y-42262D02*
G75*
G03X39599Y-42262I-62J0D01*
G74*
G01*
X40500Y-42600D02*
X40500Y-42200D01*
X39475Y-42600D02*
X39475Y-42200D01*
X40500Y-42200D02*
X39475Y-42200D01*
X39475Y-42600D02*
X40500Y-42600D01*
X40899Y-42262D02*
G75*
G03X40899Y-42262I-62J0D01*
G74*
G01*
X41800Y-42600D02*
X41800Y-42200D01*
X40775Y-42600D02*
X40775Y-42200D01*
X41800Y-42200D02*
X40775Y-42200D01*
X40775Y-42600D02*
X41800Y-42600D01*
X42199Y-42262D02*
G75*
G03X42199Y-42262I-62J0D01*
G74*
G01*
X43100Y-42600D02*
X43100Y-42200D01*
X42075Y-42600D02*
X42075Y-42200D01*
X43100Y-42200D02*
X42075Y-42200D01*
X42075Y-42600D02*
X43100Y-42600D01*
X43499Y-42262D02*
G75*
G03X43499Y-42262I-62J0D01*
G74*
G01*
X44400Y-42600D02*
X44400Y-42200D01*
X43375Y-42600D02*
X43375Y-42200D01*
X44400Y-42200D02*
X43375Y-42200D01*
X43375Y-42600D02*
X44400Y-42600D01*
X44799Y-42262D02*
G75*
G03X44799Y-42262I-62J0D01*
G74*
G01*
X45700Y-42600D02*
X45700Y-42200D01*
X44675Y-42600D02*
X44675Y-42200D01*
X45700Y-42200D02*
X44675Y-42200D01*
X44675Y-42600D02*
X45700Y-42600D01*
X46099Y-42262D02*
G75*
G03X46099Y-42262I-62J0D01*
G74*
G01*
X47000Y-42600D02*
X47000Y-42200D01*
X45975Y-42600D02*
X45975Y-42200D01*
X47000Y-42200D02*
X45975Y-42200D01*
X45975Y-42600D02*
X47000Y-42600D01*
X47399Y-42262D02*
G75*
G03X47399Y-42262I-62J0D01*
G74*
G01*
X48300Y-42600D02*
X48300Y-42200D01*
X47275Y-42600D02*
X47275Y-42200D01*
X48300Y-42200D02*
X47275Y-42200D01*
X47275Y-42600D02*
X48300Y-42600D01*
X35200Y-33137D02*
G75*
G03X35200Y-33137I-62J0D01*
G74*
G01*
X34800Y-34100D02*
X35200Y-34100D01*
X34800Y-33075D02*
X35200Y-33075D01*
X35200Y-34100D02*
X35200Y-33075D01*
X34800Y-33075D02*
X34800Y-34100D01*
X37200Y-33137D02*
G75*
G03X37200Y-33137I-62J0D01*
G74*
G01*
X36800Y-34100D02*
X37200Y-34100D01*
X36800Y-33075D02*
X37200Y-33075D01*
X37200Y-34100D02*
X37200Y-33075D01*
X36800Y-33075D02*
X36800Y-34100D01*
X39200Y-33137D02*
G75*
G03X39200Y-33137I-62J0D01*
G74*
G01*
X38800Y-34100D02*
X39200Y-34100D01*
X38800Y-33075D02*
X39200Y-33075D01*
X39200Y-34100D02*
X39200Y-33075D01*
X38800Y-33075D02*
X38800Y-34100D01*
X41200Y-33137D02*
G75*
G03X41200Y-33137I-62J0D01*
G74*
G01*
X40800Y-34100D02*
X41200Y-34100D01*
X40800Y-33075D02*
X41200Y-33075D01*
X41200Y-34100D02*
X41200Y-33075D01*
X40800Y-33075D02*
X40800Y-34100D01*
X43200Y-33137D02*
G75*
G03X43200Y-33137I-62J0D01*
G74*
G01*
X42800Y-34100D02*
X43200Y-34100D01*
X42800Y-33075D02*
X43200Y-33075D01*
X43200Y-34100D02*
X43200Y-33075D01*
X42800Y-33075D02*
X42800Y-34100D01*
X45200Y-33137D02*
G75*
G03X45200Y-33137I-62J0D01*
G74*
G01*
X44800Y-34100D02*
X45200Y-34100D01*
X44800Y-33075D02*
X45200Y-33075D01*
X45200Y-34100D02*
X45200Y-33075D01*
X44800Y-33075D02*
X44800Y-34100D01*
X47200Y-33137D02*
G75*
G03X47200Y-33137I-62J0D01*
G74*
G01*
X46800Y-34100D02*
X47200Y-34100D01*
X46800Y-33075D02*
X47200Y-33075D01*
X47200Y-34100D02*
X47200Y-33075D01*
X46800Y-33075D02*
X46800Y-34100D01*
X49200Y-33137D02*
G75*
G03X49200Y-33137I-62J0D01*
G74*
G01*
X48800Y-34100D02*
X49200Y-34100D01*
X48800Y-33075D02*
X49200Y-33075D01*
X49200Y-34100D02*
X49200Y-33075D01*
X48800Y-33075D02*
X48800Y-34100D01*
X49900Y-41987D02*
G75*
G03X49900Y-41987I-62J0D01*
G74*
G01*
X49500Y-42950D02*
X49900Y-42950D01*
X49500Y-41925D02*
X49900Y-41925D01*
X49900Y-42950D02*
X49900Y-41925D01*
X49500Y-41925D02*
X49500Y-42950D01*
G54D10*
X39429Y-37379D02*
X39429Y-37920D01*
X39970Y-37920D01*
X39970Y-37379D01*
X39429Y-37379D01*
X39970Y-38650D02*
G75*
G03X39970Y-38650I-270J0D01*
G74*
G01*
X40970Y-37650D02*
G75*
G03X40970Y-37650I-270J0D01*
G74*
G01*
X40970Y-38650D02*
G75*
G03X40970Y-38650I-270J0D01*
G74*
G01*
X41970Y-37650D02*
G75*
G03X41970Y-37650I-270J0D01*
G74*
G01*
X41970Y-38650D02*
G75*
G03X41970Y-38650I-270J0D01*
G74*
G01*
X42970Y-37650D02*
G75*
G03X42970Y-37650I-270J0D01*
G74*
G01*
X42970Y-38650D02*
G75*
G03X42970Y-38650I-270J0D01*
G74*
G01*
X43970Y-37650D02*
G75*
G03X43970Y-37650I-270J0D01*
G74*
G01*
X43970Y-38650D02*
G75*
G03X43970Y-38650I-270J0D01*
G74*
G01*
X44970Y-37650D02*
G75*
G03X44970Y-37650I-270J0D01*
G74*
G01*
X44970Y-38650D02*
G75*
G03X44970Y-38650I-270J0D01*
G74*
G01*
X45970Y-37650D02*
G75*
G03X45970Y-37650I-270J0D01*
G74*
G01*
X45970Y-38650D02*
G75*
G03X45970Y-38650I-270J0D01*
G74*
G01*
X46970Y-37650D02*
G75*
G03X46970Y-37650I-270J0D01*
G74*
G01*
X46970Y-38650D02*
G75*
G03X46970Y-38650I-270J0D01*
G74*
G01*
X47970Y-37650D02*
G75*
G03X47970Y-37650I-270J0D01*
G74*
G01*
X47970Y-38650D02*
G75*
G03X47970Y-38650I-270J0D01*
G74*
G01*
X48970Y-37650D02*
G75*
G03X48970Y-37650I-270J0D01*
G74*
G01*
X48970Y-38650D02*
G75*
G03X48970Y-38650I-270J0D01*
G74*
G01*
G54D12*
X38796Y-38975D02*
X38653Y-38875D01*
X38796Y-38803D02*
X38496Y-38803D01*
X38496Y-38917D01*
X38510Y-38946D01*
X38525Y-38960D01*
X38553Y-38975D01*
X38596Y-38975D01*
X38625Y-38960D01*
X38639Y-38946D01*
X38653Y-38917D01*
X38653Y-38803D01*
X38796Y-39117D02*
X38796Y-39175D01*
X38782Y-39203D01*
X38767Y-39217D01*
X38725Y-39246D01*
X38667Y-39260D01*
X38553Y-39260D01*
X38525Y-39246D01*
X38510Y-39232D01*
X38496Y-39203D01*
X38496Y-39146D01*
X38510Y-39117D01*
X38525Y-39103D01*
X38553Y-39089D01*
X38625Y-39089D01*
X38653Y-39103D01*
X38667Y-39117D01*
X38682Y-39146D01*
X38682Y-39203D01*
X38667Y-39232D01*
X38653Y-39246D01*
X38625Y-39260D01*
X41396Y-38682D02*
X41253Y-38582D01*
X41396Y-38510D02*
X41096Y-38510D01*
X41096Y-38625D01*
X41110Y-38653D01*
X41125Y-38667D01*
X41153Y-38682D01*
X41196Y-38682D01*
X41225Y-38667D01*
X41239Y-38653D01*
X41253Y-38625D01*
X41253Y-38510D01*
X41396Y-38967D02*
X41396Y-38796D01*
X41396Y-38882D02*
X41096Y-38882D01*
X41139Y-38853D01*
X41167Y-38825D01*
X41182Y-38796D01*
X41396Y-39253D02*
X41396Y-39082D01*
X41396Y-39167D02*
X41096Y-39167D01*
X41139Y-39139D01*
X41167Y-39110D01*
X41182Y-39082D01*
X44046Y-38682D02*
X43903Y-38582D01*
X44046Y-38510D02*
X43746Y-38510D01*
X43746Y-38625D01*
X43760Y-38653D01*
X43775Y-38667D01*
X43803Y-38682D01*
X43846Y-38682D01*
X43875Y-38667D01*
X43889Y-38653D01*
X43903Y-38625D01*
X43903Y-38510D01*
X44046Y-38967D02*
X44046Y-38796D01*
X44046Y-38882D02*
X43746Y-38882D01*
X43789Y-38853D01*
X43817Y-38825D01*
X43832Y-38796D01*
X43746Y-39067D02*
X43746Y-39253D01*
X43860Y-39153D01*
X43860Y-39196D01*
X43875Y-39225D01*
X43889Y-39239D01*
X43917Y-39253D01*
X43989Y-39253D01*
X44017Y-39239D01*
X44032Y-39225D01*
X44046Y-39196D01*
X44046Y-39110D01*
X44032Y-39082D01*
X44017Y-39067D01*
X46646Y-38682D02*
X46503Y-38582D01*
X46646Y-38510D02*
X46346Y-38510D01*
X46346Y-38625D01*
X46360Y-38653D01*
X46375Y-38667D01*
X46403Y-38682D01*
X46446Y-38682D01*
X46475Y-38667D01*
X46489Y-38653D01*
X46503Y-38625D01*
X46503Y-38510D01*
X46646Y-38967D02*
X46646Y-38796D01*
X46646Y-38882D02*
X46346Y-38882D01*
X46389Y-38853D01*
X46417Y-38825D01*
X46432Y-38796D01*
X46346Y-39239D02*
X46346Y-39096D01*
X46489Y-39082D01*
X46475Y-39096D01*
X46460Y-39125D01*
X46460Y-39196D01*
X46475Y-39225D01*
X46489Y-39239D01*
X46517Y-39253D01*
X46589Y-39253D01*
X46617Y-39239D01*
X46632Y-39225D01*
X46646Y-39196D01*
X46646Y-39125D01*
X46632Y-39096D01*
X46617Y-39082D01*
X47871Y-41882D02*
X47728Y-41782D01*
X47871Y-41710D02*
X47571Y-41710D01*
X47571Y-41825D01*
X47585Y-41853D01*
X47600Y-41867D01*
X47628Y-41882D01*
X47671Y-41882D01*
X47700Y-41867D01*
X47714Y-41853D01*
X47728Y-41825D01*
X47728Y-41710D01*
X47871Y-42167D02*
X47871Y-41996D01*
X47871Y-42082D02*
X47571Y-42082D01*
X47614Y-42053D01*
X47642Y-42025D01*
X47657Y-41996D01*
X47571Y-42425D02*
X47571Y-42367D01*
X47585Y-42339D01*
X47600Y-42325D01*
X47642Y-42296D01*
X47700Y-42282D01*
X47814Y-42282D01*
X47842Y-42296D01*
X47857Y-42310D01*
X47871Y-42339D01*
X47871Y-42396D01*
X47857Y-42425D01*
X47842Y-42439D01*
X47814Y-42453D01*
X47742Y-42453D01*
X47714Y-42439D01*
X47700Y-42425D01*
X47685Y-42396D01*
X47685Y-42339D01*
X47700Y-42310D01*
X47714Y-42296D01*
X47742Y-42282D01*
X45321Y-41882D02*
X45178Y-41782D01*
X45321Y-41710D02*
X45021Y-41710D01*
X45021Y-41825D01*
X45035Y-41853D01*
X45050Y-41867D01*
X45078Y-41882D01*
X45121Y-41882D01*
X45150Y-41867D01*
X45164Y-41853D01*
X45178Y-41825D01*
X45178Y-41710D01*
X45321Y-42167D02*
X45321Y-41996D01*
X45321Y-42082D02*
X45021Y-42082D01*
X45064Y-42053D01*
X45092Y-42025D01*
X45107Y-41996D01*
X45121Y-42425D02*
X45321Y-42425D01*
X45007Y-42353D02*
X45221Y-42282D01*
X45221Y-42467D01*
X42721Y-41882D02*
X42578Y-41782D01*
X42721Y-41710D02*
X42421Y-41710D01*
X42421Y-41825D01*
X42435Y-41853D01*
X42450Y-41867D01*
X42478Y-41882D01*
X42521Y-41882D01*
X42550Y-41867D01*
X42564Y-41853D01*
X42578Y-41825D01*
X42578Y-41710D01*
X42721Y-42167D02*
X42721Y-41996D01*
X42721Y-42082D02*
X42421Y-42082D01*
X42464Y-42053D01*
X42492Y-42025D01*
X42507Y-41996D01*
X42450Y-42282D02*
X42435Y-42296D01*
X42421Y-42325D01*
X42421Y-42396D01*
X42435Y-42425D01*
X42450Y-42439D01*
X42478Y-42453D01*
X42507Y-42453D01*
X42550Y-42439D01*
X42721Y-42267D01*
X42721Y-42453D01*
X40121Y-41882D02*
X39978Y-41782D01*
X40121Y-41710D02*
X39821Y-41710D01*
X39821Y-41825D01*
X39835Y-41853D01*
X39850Y-41867D01*
X39878Y-41882D01*
X39921Y-41882D01*
X39950Y-41867D01*
X39964Y-41853D01*
X39978Y-41825D01*
X39978Y-41710D01*
X40121Y-42167D02*
X40121Y-41996D01*
X40121Y-42082D02*
X39821Y-42082D01*
X39864Y-42053D01*
X39892Y-42025D01*
X39907Y-41996D01*
X39821Y-42353D02*
X39821Y-42382D01*
X39835Y-42410D01*
X39850Y-42425D01*
X39878Y-42439D01*
X39935Y-42453D01*
X40007Y-42453D01*
X40064Y-42439D01*
X40092Y-42425D01*
X40107Y-42410D01*
X40121Y-42382D01*
X40121Y-42353D01*
X40107Y-42325D01*
X40092Y-42310D01*
X40064Y-42296D01*
X40007Y-42282D01*
X39935Y-42282D01*
X39878Y-42296D01*
X39850Y-42310D01*
X39835Y-42325D01*
X39821Y-42353D01*
X38821Y-44007D02*
X38678Y-43907D01*
X38821Y-43835D02*
X38521Y-43835D01*
X38521Y-43950D01*
X38535Y-43978D01*
X38550Y-43992D01*
X38578Y-44007D01*
X38621Y-44007D01*
X38650Y-43992D01*
X38664Y-43978D01*
X38678Y-43950D01*
X38678Y-43835D01*
X38821Y-44292D02*
X38821Y-44121D01*
X38821Y-44207D02*
X38521Y-44207D01*
X38564Y-44178D01*
X38592Y-44150D01*
X38607Y-44121D01*
X38521Y-44392D02*
X38521Y-44592D01*
X38821Y-44464D01*
X40121Y-44007D02*
X39978Y-43907D01*
X40121Y-43835D02*
X39821Y-43835D01*
X39821Y-43950D01*
X39835Y-43978D01*
X39850Y-43992D01*
X39878Y-44007D01*
X39921Y-44007D01*
X39950Y-43992D01*
X39964Y-43978D01*
X39978Y-43950D01*
X39978Y-43835D01*
X40121Y-44292D02*
X40121Y-44121D01*
X40121Y-44207D02*
X39821Y-44207D01*
X39864Y-44178D01*
X39892Y-44150D01*
X39907Y-44121D01*
X39950Y-44464D02*
X39935Y-44435D01*
X39921Y-44421D01*
X39892Y-44407D01*
X39878Y-44407D01*
X39850Y-44421D01*
X39835Y-44435D01*
X39821Y-44464D01*
X39821Y-44521D01*
X39835Y-44550D01*
X39850Y-44564D01*
X39878Y-44578D01*
X39892Y-44578D01*
X39921Y-44564D01*
X39935Y-44550D01*
X39950Y-44521D01*
X39950Y-44464D01*
X39964Y-44435D01*
X39978Y-44421D01*
X40007Y-44407D01*
X40064Y-44407D01*
X40092Y-44421D01*
X40107Y-44435D01*
X40121Y-44464D01*
X40121Y-44521D01*
X40107Y-44550D01*
X40092Y-44564D01*
X40064Y-44578D01*
X40007Y-44578D01*
X39978Y-44564D01*
X39964Y-44550D01*
X39950Y-44521D01*
G54D15*
X45495Y-39811D02*
X45495Y-39411D01*
X45342Y-39411D01*
X45304Y-39430D01*
X45285Y-39450D01*
X45266Y-39488D01*
X45266Y-39545D01*
X45285Y-39583D01*
X45304Y-39602D01*
X45342Y-39621D01*
X45495Y-39621D01*
X44885Y-39811D02*
X45114Y-39811D01*
X44999Y-39811D02*
X44999Y-39411D01*
X45038Y-39469D01*
X45076Y-39507D01*
X45114Y-39526D01*
G54D16*
G54D12*
X41421Y-44007D02*
X41278Y-43907D01*
X41421Y-43835D02*
X41121Y-43835D01*
X41121Y-43950D01*
X41135Y-43978D01*
X41150Y-43992D01*
X41178Y-44007D01*
X41221Y-44007D01*
X41250Y-43992D01*
X41264Y-43978D01*
X41278Y-43950D01*
X41278Y-43835D01*
X41421Y-44292D02*
X41421Y-44121D01*
X41421Y-44207D02*
X41121Y-44207D01*
X41164Y-44178D01*
X41192Y-44150D01*
X41207Y-44121D01*
X41421Y-44435D02*
X41421Y-44492D01*
X41407Y-44521D01*
X41392Y-44535D01*
X41350Y-44564D01*
X41292Y-44578D01*
X41178Y-44578D01*
X41150Y-44564D01*
X41135Y-44550D01*
X41121Y-44521D01*
X41121Y-44464D01*
X41135Y-44435D01*
X41150Y-44421D01*
X41178Y-44407D01*
X41250Y-44407D01*
X41278Y-44421D01*
X41292Y-44435D01*
X41307Y-44464D01*
X41307Y-44521D01*
X41292Y-44550D01*
X41278Y-44564D01*
X41250Y-44578D01*
X42721Y-44007D02*
X42578Y-43907D01*
X42721Y-43835D02*
X42421Y-43835D01*
X42421Y-43950D01*
X42435Y-43978D01*
X42450Y-43992D01*
X42478Y-44007D01*
X42521Y-44007D01*
X42550Y-43992D01*
X42564Y-43978D01*
X42578Y-43950D01*
X42578Y-43835D01*
X42450Y-44121D02*
X42435Y-44135D01*
X42421Y-44164D01*
X42421Y-44235D01*
X42435Y-44264D01*
X42450Y-44278D01*
X42478Y-44292D01*
X42507Y-44292D01*
X42550Y-44278D01*
X42721Y-44107D01*
X42721Y-44292D01*
X42421Y-44478D02*
X42421Y-44507D01*
X42435Y-44535D01*
X42450Y-44550D01*
X42478Y-44564D01*
X42535Y-44578D01*
X42607Y-44578D01*
X42664Y-44564D01*
X42692Y-44550D01*
X42707Y-44535D01*
X42721Y-44507D01*
X42721Y-44478D01*
X42707Y-44450D01*
X42692Y-44435D01*
X42664Y-44421D01*
X42607Y-44407D01*
X42535Y-44407D01*
X42478Y-44421D01*
X42450Y-44435D01*
X42435Y-44450D01*
X42421Y-44478D01*
X44021Y-44007D02*
X43878Y-43907D01*
X44021Y-43835D02*
X43721Y-43835D01*
X43721Y-43950D01*
X43735Y-43978D01*
X43750Y-43992D01*
X43778Y-44007D01*
X43821Y-44007D01*
X43850Y-43992D01*
X43864Y-43978D01*
X43878Y-43950D01*
X43878Y-43835D01*
X43750Y-44121D02*
X43735Y-44135D01*
X43721Y-44164D01*
X43721Y-44235D01*
X43735Y-44264D01*
X43750Y-44278D01*
X43778Y-44292D01*
X43807Y-44292D01*
X43850Y-44278D01*
X44021Y-44107D01*
X44021Y-44292D01*
X44021Y-44578D02*
X44021Y-44407D01*
X44021Y-44492D02*
X43721Y-44492D01*
X43764Y-44464D01*
X43792Y-44435D01*
X43807Y-44407D01*
X45321Y-44007D02*
X45178Y-43907D01*
X45321Y-43835D02*
X45021Y-43835D01*
X45021Y-43950D01*
X45035Y-43978D01*
X45050Y-43992D01*
X45078Y-44007D01*
X45121Y-44007D01*
X45150Y-43992D01*
X45164Y-43978D01*
X45178Y-43950D01*
X45178Y-43835D01*
X45050Y-44121D02*
X45035Y-44135D01*
X45021Y-44164D01*
X45021Y-44235D01*
X45035Y-44264D01*
X45050Y-44278D01*
X45078Y-44292D01*
X45107Y-44292D01*
X45150Y-44278D01*
X45321Y-44107D01*
X45321Y-44292D01*
X45050Y-44407D02*
X45035Y-44421D01*
X45021Y-44450D01*
X45021Y-44521D01*
X45035Y-44550D01*
X45050Y-44564D01*
X45078Y-44578D01*
X45107Y-44578D01*
X45150Y-44564D01*
X45321Y-44392D01*
X45321Y-44578D01*
X46621Y-44007D02*
X46478Y-43907D01*
X46621Y-43835D02*
X46321Y-43835D01*
X46321Y-43950D01*
X46335Y-43978D01*
X46350Y-43992D01*
X46378Y-44007D01*
X46421Y-44007D01*
X46450Y-43992D01*
X46464Y-43978D01*
X46478Y-43950D01*
X46478Y-43835D01*
X46350Y-44121D02*
X46335Y-44135D01*
X46321Y-44164D01*
X46321Y-44235D01*
X46335Y-44264D01*
X46350Y-44278D01*
X46378Y-44292D01*
X46407Y-44292D01*
X46450Y-44278D01*
X46621Y-44107D01*
X46621Y-44292D01*
X46321Y-44392D02*
X46321Y-44578D01*
X46435Y-44478D01*
X46435Y-44521D01*
X46450Y-44550D01*
X46464Y-44564D01*
X46492Y-44578D01*
X46564Y-44578D01*
X46592Y-44564D01*
X46607Y-44550D01*
X46621Y-44521D01*
X46621Y-44435D01*
X46607Y-44407D01*
X46592Y-44392D01*
X47921Y-44007D02*
X47778Y-43907D01*
X47921Y-43835D02*
X47621Y-43835D01*
X47621Y-43950D01*
X47635Y-43978D01*
X47650Y-43992D01*
X47678Y-44007D01*
X47721Y-44007D01*
X47750Y-43992D01*
X47764Y-43978D01*
X47778Y-43950D01*
X47778Y-43835D01*
X47650Y-44121D02*
X47635Y-44135D01*
X47621Y-44164D01*
X47621Y-44235D01*
X47635Y-44264D01*
X47650Y-44278D01*
X47678Y-44292D01*
X47707Y-44292D01*
X47750Y-44278D01*
X47921Y-44107D01*
X47921Y-44292D01*
X47721Y-44550D02*
X47921Y-44550D01*
X47607Y-44478D02*
X47821Y-44407D01*
X47821Y-44592D01*
X35421Y-35307D02*
X35278Y-35207D01*
X35421Y-35135D02*
X35121Y-35135D01*
X35121Y-35250D01*
X35135Y-35278D01*
X35150Y-35292D01*
X35178Y-35307D01*
X35221Y-35307D01*
X35250Y-35292D01*
X35264Y-35278D01*
X35278Y-35250D01*
X35278Y-35135D01*
X35150Y-35421D02*
X35135Y-35435D01*
X35121Y-35464D01*
X35121Y-35535D01*
X35135Y-35564D01*
X35150Y-35578D01*
X35178Y-35592D01*
X35207Y-35592D01*
X35250Y-35578D01*
X35421Y-35407D01*
X35421Y-35592D01*
X35121Y-35864D02*
X35121Y-35721D01*
X35264Y-35707D01*
X35250Y-35721D01*
X35235Y-35750D01*
X35235Y-35821D01*
X35250Y-35850D01*
X35264Y-35864D01*
X35292Y-35878D01*
X35364Y-35878D01*
X35392Y-35864D01*
X35407Y-35850D01*
X35421Y-35821D01*
X35421Y-35750D01*
X35407Y-35721D01*
X35392Y-35707D01*
X37421Y-35307D02*
X37278Y-35207D01*
X37421Y-35135D02*
X37121Y-35135D01*
X37121Y-35250D01*
X37135Y-35278D01*
X37150Y-35292D01*
X37178Y-35307D01*
X37221Y-35307D01*
X37250Y-35292D01*
X37264Y-35278D01*
X37278Y-35250D01*
X37278Y-35135D01*
X37150Y-35421D02*
X37135Y-35435D01*
X37121Y-35464D01*
X37121Y-35535D01*
X37135Y-35564D01*
X37150Y-35578D01*
X37178Y-35592D01*
X37207Y-35592D01*
X37250Y-35578D01*
X37421Y-35407D01*
X37421Y-35592D01*
X37121Y-35850D02*
X37121Y-35792D01*
X37135Y-35764D01*
X37150Y-35750D01*
X37192Y-35721D01*
X37250Y-35707D01*
X37364Y-35707D01*
X37392Y-35721D01*
X37407Y-35735D01*
X37421Y-35764D01*
X37421Y-35821D01*
X37407Y-35850D01*
X37392Y-35864D01*
X37364Y-35878D01*
X37292Y-35878D01*
X37264Y-35864D01*
X37250Y-35850D01*
X37235Y-35821D01*
X37235Y-35764D01*
X37250Y-35735D01*
X37264Y-35721D01*
X37292Y-35707D01*
X39421Y-35307D02*
X39278Y-35207D01*
X39421Y-35135D02*
X39121Y-35135D01*
X39121Y-35250D01*
X39135Y-35278D01*
X39150Y-35292D01*
X39178Y-35307D01*
X39221Y-35307D01*
X39250Y-35292D01*
X39264Y-35278D01*
X39278Y-35250D01*
X39278Y-35135D01*
X39150Y-35421D02*
X39135Y-35435D01*
X39121Y-35464D01*
X39121Y-35535D01*
X39135Y-35564D01*
X39150Y-35578D01*
X39178Y-35592D01*
X39207Y-35592D01*
X39250Y-35578D01*
X39421Y-35407D01*
X39421Y-35592D01*
X39121Y-35692D02*
X39121Y-35892D01*
X39421Y-35764D01*
X41421Y-35307D02*
X41278Y-35207D01*
X41421Y-35135D02*
X41121Y-35135D01*
X41121Y-35250D01*
X41135Y-35278D01*
X41150Y-35292D01*
X41178Y-35307D01*
X41221Y-35307D01*
X41250Y-35292D01*
X41264Y-35278D01*
X41278Y-35250D01*
X41278Y-35135D01*
X41150Y-35421D02*
X41135Y-35435D01*
X41121Y-35464D01*
X41121Y-35535D01*
X41135Y-35564D01*
X41150Y-35578D01*
X41178Y-35592D01*
X41207Y-35592D01*
X41250Y-35578D01*
X41421Y-35407D01*
X41421Y-35592D01*
X41250Y-35764D02*
X41235Y-35735D01*
X41221Y-35721D01*
X41192Y-35707D01*
X41178Y-35707D01*
X41150Y-35721D01*
X41135Y-35735D01*
X41121Y-35764D01*
X41121Y-35821D01*
X41135Y-35850D01*
X41150Y-35864D01*
X41178Y-35878D01*
X41192Y-35878D01*
X41221Y-35864D01*
X41235Y-35850D01*
X41250Y-35821D01*
X41250Y-35764D01*
X41264Y-35735D01*
X41278Y-35721D01*
X41307Y-35707D01*
X41364Y-35707D01*
X41392Y-35721D01*
X41407Y-35735D01*
X41421Y-35764D01*
X41421Y-35821D01*
X41407Y-35850D01*
X41392Y-35864D01*
X41364Y-35878D01*
X41307Y-35878D01*
X41278Y-35864D01*
X41264Y-35850D01*
X41250Y-35821D01*
X43421Y-35307D02*
X43278Y-35207D01*
X43421Y-35135D02*
X43121Y-35135D01*
X43121Y-35250D01*
X43135Y-35278D01*
X43150Y-35292D01*
X43178Y-35307D01*
X43221Y-35307D01*
X43250Y-35292D01*
X43264Y-35278D01*
X43278Y-35250D01*
X43278Y-35135D01*
X43150Y-35421D02*
X43135Y-35435D01*
X43121Y-35464D01*
X43121Y-35535D01*
X43135Y-35564D01*
X43150Y-35578D01*
X43178Y-35592D01*
X43207Y-35592D01*
X43250Y-35578D01*
X43421Y-35407D01*
X43421Y-35592D01*
X43421Y-35735D02*
X43421Y-35792D01*
X43407Y-35821D01*
X43392Y-35835D01*
X43350Y-35864D01*
X43292Y-35878D01*
X43178Y-35878D01*
X43150Y-35864D01*
X43135Y-35850D01*
X43121Y-35821D01*
X43121Y-35764D01*
X43135Y-35735D01*
X43150Y-35721D01*
X43178Y-35707D01*
X43250Y-35707D01*
X43278Y-35721D01*
X43292Y-35735D01*
X43307Y-35764D01*
X43307Y-35821D01*
X43292Y-35850D01*
X43278Y-35864D01*
X43250Y-35878D01*
X45421Y-35307D02*
X45278Y-35207D01*
X45421Y-35135D02*
X45121Y-35135D01*
X45121Y-35250D01*
X45135Y-35278D01*
X45150Y-35292D01*
X45178Y-35307D01*
X45221Y-35307D01*
X45250Y-35292D01*
X45264Y-35278D01*
X45278Y-35250D01*
X45278Y-35135D01*
X45121Y-35407D02*
X45121Y-35592D01*
X45235Y-35492D01*
X45235Y-35535D01*
X45250Y-35564D01*
X45264Y-35578D01*
X45292Y-35592D01*
X45364Y-35592D01*
X45392Y-35578D01*
X45407Y-35564D01*
X45421Y-35535D01*
X45421Y-35450D01*
X45407Y-35421D01*
X45392Y-35407D01*
X45121Y-35778D02*
X45121Y-35807D01*
X45135Y-35835D01*
X45150Y-35850D01*
X45178Y-35864D01*
X45235Y-35878D01*
X45307Y-35878D01*
X45364Y-35864D01*
X45392Y-35850D01*
X45407Y-35835D01*
X45421Y-35807D01*
X45421Y-35778D01*
X45407Y-35750D01*
X45392Y-35735D01*
X45364Y-35721D01*
X45307Y-35707D01*
X45235Y-35707D01*
X45178Y-35721D01*
X45150Y-35735D01*
X45135Y-35750D01*
X45121Y-35778D01*
X47421Y-35307D02*
X47278Y-35207D01*
X47421Y-35135D02*
X47121Y-35135D01*
X47121Y-35250D01*
X47135Y-35278D01*
X47150Y-35292D01*
X47178Y-35307D01*
X47221Y-35307D01*
X47250Y-35292D01*
X47264Y-35278D01*
X47278Y-35250D01*
X47278Y-35135D01*
X47121Y-35407D02*
X47121Y-35592D01*
X47235Y-35492D01*
X47235Y-35535D01*
X47250Y-35564D01*
X47264Y-35578D01*
X47292Y-35592D01*
X47364Y-35592D01*
X47392Y-35578D01*
X47407Y-35564D01*
X47421Y-35535D01*
X47421Y-35450D01*
X47407Y-35421D01*
X47392Y-35407D01*
X47421Y-35878D02*
X47421Y-35707D01*
X47421Y-35792D02*
X47121Y-35792D01*
X47164Y-35764D01*
X47192Y-35735D01*
X47207Y-35707D01*
X49421Y-35307D02*
X49278Y-35207D01*
X49421Y-35135D02*
X49121Y-35135D01*
X49121Y-35250D01*
X49135Y-35278D01*
X49150Y-35292D01*
X49178Y-35307D01*
X49221Y-35307D01*
X49250Y-35292D01*
X49264Y-35278D01*
X49278Y-35250D01*
X49278Y-35135D01*
X49121Y-35407D02*
X49121Y-35592D01*
X49235Y-35492D01*
X49235Y-35535D01*
X49250Y-35564D01*
X49264Y-35578D01*
X49292Y-35592D01*
X49364Y-35592D01*
X49392Y-35578D01*
X49407Y-35564D01*
X49421Y-35535D01*
X49421Y-35450D01*
X49407Y-35421D01*
X49392Y-35407D01*
X49150Y-35707D02*
X49135Y-35721D01*
X49121Y-35750D01*
X49121Y-35821D01*
X49135Y-35850D01*
X49150Y-35864D01*
X49178Y-35878D01*
X49207Y-35878D01*
X49250Y-35864D01*
X49421Y-35692D01*
X49421Y-35878D01*
X35721Y-31607D02*
X35578Y-31507D01*
X35721Y-31435D02*
X35421Y-31435D01*
X35421Y-31550D01*
X35435Y-31578D01*
X35450Y-31592D01*
X35478Y-31607D01*
X35521Y-31607D01*
X35550Y-31592D01*
X35564Y-31578D01*
X35578Y-31550D01*
X35578Y-31435D01*
X35421Y-31707D02*
X35421Y-31892D01*
X35535Y-31792D01*
X35535Y-31835D01*
X35550Y-31864D01*
X35564Y-31878D01*
X35592Y-31892D01*
X35664Y-31892D01*
X35692Y-31878D01*
X35707Y-31864D01*
X35721Y-31835D01*
X35721Y-31750D01*
X35707Y-31721D01*
X35692Y-31707D01*
X35421Y-31992D02*
X35421Y-32178D01*
X35535Y-32078D01*
X35535Y-32121D01*
X35550Y-32150D01*
X35564Y-32164D01*
X35592Y-32178D01*
X35664Y-32178D01*
X35692Y-32164D01*
X35707Y-32150D01*
X35721Y-32121D01*
X35721Y-32035D01*
X35707Y-32007D01*
X35692Y-31992D01*
X38721Y-31607D02*
X38578Y-31507D01*
X38721Y-31435D02*
X38421Y-31435D01*
X38421Y-31550D01*
X38435Y-31578D01*
X38450Y-31592D01*
X38478Y-31607D01*
X38521Y-31607D01*
X38550Y-31592D01*
X38564Y-31578D01*
X38578Y-31550D01*
X38578Y-31435D01*
X38421Y-31707D02*
X38421Y-31892D01*
X38535Y-31792D01*
X38535Y-31835D01*
X38550Y-31864D01*
X38564Y-31878D01*
X38592Y-31892D01*
X38664Y-31892D01*
X38692Y-31878D01*
X38707Y-31864D01*
X38721Y-31835D01*
X38721Y-31750D01*
X38707Y-31721D01*
X38692Y-31707D01*
X38521Y-32150D02*
X38721Y-32150D01*
X38407Y-32078D02*
X38621Y-32007D01*
X38621Y-32192D01*
X40721Y-31607D02*
X40578Y-31507D01*
X40721Y-31435D02*
X40421Y-31435D01*
X40421Y-31550D01*
X40435Y-31578D01*
X40450Y-31592D01*
X40478Y-31607D01*
X40521Y-31607D01*
X40550Y-31592D01*
X40564Y-31578D01*
X40578Y-31550D01*
X40578Y-31435D01*
X40421Y-31707D02*
X40421Y-31892D01*
X40535Y-31792D01*
X40535Y-31835D01*
X40550Y-31864D01*
X40564Y-31878D01*
X40592Y-31892D01*
X40664Y-31892D01*
X40692Y-31878D01*
X40707Y-31864D01*
X40721Y-31835D01*
X40721Y-31750D01*
X40707Y-31721D01*
X40692Y-31707D01*
X40421Y-32164D02*
X40421Y-32021D01*
X40564Y-32007D01*
X40550Y-32021D01*
X40535Y-32050D01*
X40535Y-32121D01*
X40550Y-32150D01*
X40564Y-32164D01*
X40592Y-32178D01*
X40664Y-32178D01*
X40692Y-32164D01*
X40707Y-32150D01*
X40721Y-32121D01*
X40721Y-32050D01*
X40707Y-32021D01*
X40692Y-32007D01*
X42721Y-31607D02*
X42578Y-31507D01*
X42721Y-31435D02*
X42421Y-31435D01*
X42421Y-31550D01*
X42435Y-31578D01*
X42450Y-31592D01*
X42478Y-31607D01*
X42521Y-31607D01*
X42550Y-31592D01*
X42564Y-31578D01*
X42578Y-31550D01*
X42578Y-31435D01*
X42421Y-31707D02*
X42421Y-31892D01*
X42535Y-31792D01*
X42535Y-31835D01*
X42550Y-31864D01*
X42564Y-31878D01*
X42592Y-31892D01*
X42664Y-31892D01*
X42692Y-31878D01*
X42707Y-31864D01*
X42721Y-31835D01*
X42721Y-31750D01*
X42707Y-31721D01*
X42692Y-31707D01*
X42421Y-32150D02*
X42421Y-32092D01*
X42435Y-32064D01*
X42450Y-32050D01*
X42492Y-32021D01*
X42550Y-32007D01*
X42664Y-32007D01*
X42692Y-32021D01*
X42707Y-32035D01*
X42721Y-32064D01*
X42721Y-32121D01*
X42707Y-32150D01*
X42692Y-32164D01*
X42664Y-32178D01*
X42592Y-32178D01*
X42564Y-32164D01*
X42550Y-32150D01*
X42535Y-32121D01*
X42535Y-32064D01*
X42550Y-32035D01*
X42564Y-32021D01*
X42592Y-32007D01*
X44721Y-31607D02*
X44578Y-31507D01*
X44721Y-31435D02*
X44421Y-31435D01*
X44421Y-31550D01*
X44435Y-31578D01*
X44450Y-31592D01*
X44478Y-31607D01*
X44521Y-31607D01*
X44550Y-31592D01*
X44564Y-31578D01*
X44578Y-31550D01*
X44578Y-31435D01*
X44421Y-31707D02*
X44421Y-31892D01*
X44535Y-31792D01*
X44535Y-31835D01*
X44550Y-31864D01*
X44564Y-31878D01*
X44592Y-31892D01*
X44664Y-31892D01*
X44692Y-31878D01*
X44707Y-31864D01*
X44721Y-31835D01*
X44721Y-31750D01*
X44707Y-31721D01*
X44692Y-31707D01*
X44421Y-31992D02*
X44421Y-32192D01*
X44721Y-32064D01*
X46721Y-31607D02*
X46578Y-31507D01*
X46721Y-31435D02*
X46421Y-31435D01*
X46421Y-31550D01*
X46435Y-31578D01*
X46450Y-31592D01*
X46478Y-31607D01*
X46521Y-31607D01*
X46550Y-31592D01*
X46564Y-31578D01*
X46578Y-31550D01*
X46578Y-31435D01*
X46421Y-31707D02*
X46421Y-31892D01*
X46535Y-31792D01*
X46535Y-31835D01*
X46550Y-31864D01*
X46564Y-31878D01*
X46592Y-31892D01*
X46664Y-31892D01*
X46692Y-31878D01*
X46707Y-31864D01*
X46721Y-31835D01*
X46721Y-31750D01*
X46707Y-31721D01*
X46692Y-31707D01*
X46550Y-32064D02*
X46535Y-32035D01*
X46521Y-32021D01*
X46492Y-32007D01*
X46478Y-32007D01*
X46450Y-32021D01*
X46435Y-32035D01*
X46421Y-32064D01*
X46421Y-32121D01*
X46435Y-32150D01*
X46450Y-32164D01*
X46478Y-32178D01*
X46492Y-32178D01*
X46521Y-32164D01*
X46535Y-32150D01*
X46550Y-32121D01*
X46550Y-32064D01*
X46564Y-32035D01*
X46578Y-32021D01*
X46607Y-32007D01*
X46664Y-32007D01*
X46692Y-32021D01*
X46707Y-32035D01*
X46721Y-32064D01*
X46721Y-32121D01*
X46707Y-32150D01*
X46692Y-32164D01*
X46664Y-32178D01*
X46607Y-32178D01*
X46578Y-32164D01*
X46564Y-32150D01*
X46550Y-32121D01*
X48721Y-31607D02*
X48578Y-31507D01*
X48721Y-31435D02*
X48421Y-31435D01*
X48421Y-31550D01*
X48435Y-31578D01*
X48450Y-31592D01*
X48478Y-31607D01*
X48521Y-31607D01*
X48550Y-31592D01*
X48564Y-31578D01*
X48578Y-31550D01*
X48578Y-31435D01*
X48421Y-31707D02*
X48421Y-31892D01*
X48535Y-31792D01*
X48535Y-31835D01*
X48550Y-31864D01*
X48564Y-31878D01*
X48592Y-31892D01*
X48664Y-31892D01*
X48692Y-31878D01*
X48707Y-31864D01*
X48721Y-31835D01*
X48721Y-31750D01*
X48707Y-31721D01*
X48692Y-31707D01*
X48721Y-32035D02*
X48721Y-32092D01*
X48707Y-32121D01*
X48692Y-32135D01*
X48650Y-32164D01*
X48592Y-32178D01*
X48478Y-32178D01*
X48450Y-32164D01*
X48435Y-32150D01*
X48421Y-32121D01*
X48421Y-32064D01*
X48435Y-32035D01*
X48450Y-32021D01*
X48478Y-32007D01*
X48550Y-32007D01*
X48578Y-32021D01*
X48592Y-32035D01*
X48607Y-32064D01*
X48607Y-32121D01*
X48592Y-32150D01*
X48578Y-32164D01*
X48550Y-32178D01*
X50721Y-31607D02*
X50578Y-31507D01*
X50721Y-31435D02*
X50421Y-31435D01*
X50421Y-31550D01*
X50435Y-31578D01*
X50450Y-31592D01*
X50478Y-31607D01*
X50521Y-31607D01*
X50550Y-31592D01*
X50564Y-31578D01*
X50578Y-31550D01*
X50578Y-31435D01*
X50521Y-31864D02*
X50721Y-31864D01*
X50407Y-31792D02*
X50621Y-31721D01*
X50621Y-31907D01*
X50421Y-32078D02*
X50421Y-32107D01*
X50435Y-32135D01*
X50450Y-32150D01*
X50478Y-32164D01*
X50535Y-32178D01*
X50607Y-32178D01*
X50664Y-32164D01*
X50692Y-32150D01*
X50707Y-32135D01*
X50721Y-32107D01*
X50721Y-32078D01*
X50707Y-32050D01*
X50692Y-32035D01*
X50664Y-32021D01*
X50607Y-32007D01*
X50535Y-32007D01*
X50478Y-32021D01*
X50450Y-32035D01*
X50435Y-32050D01*
X50421Y-32078D01*
X51642Y-33521D02*
X51742Y-33378D01*
X51814Y-33521D02*
X51814Y-33221D01*
X51700Y-33221D01*
X51671Y-33235D01*
X51657Y-33250D01*
X51642Y-33278D01*
X51642Y-33321D01*
X51657Y-33350D01*
X51671Y-33364D01*
X51700Y-33378D01*
X51814Y-33378D01*
X51385Y-33321D02*
X51385Y-33521D01*
X51457Y-33207D02*
X51528Y-33421D01*
X51342Y-33421D01*
X51071Y-33521D02*
X51242Y-33521D01*
X51157Y-33521D02*
X51157Y-33221D01*
X51185Y-33264D01*
X51214Y-33292D01*
X51242Y-33307D01*
X51542Y-35521D02*
X51642Y-35378D01*
X51714Y-35521D02*
X51714Y-35221D01*
X51600Y-35221D01*
X51571Y-35235D01*
X51557Y-35250D01*
X51542Y-35278D01*
X51542Y-35321D01*
X51557Y-35350D01*
X51571Y-35364D01*
X51600Y-35378D01*
X51714Y-35378D01*
X51285Y-35321D02*
X51285Y-35521D01*
X51357Y-35207D02*
X51428Y-35421D01*
X51242Y-35421D01*
X51142Y-35250D02*
X51128Y-35235D01*
X51100Y-35221D01*
X51028Y-35221D01*
X51000Y-35235D01*
X50985Y-35250D01*
X50971Y-35278D01*
X50971Y-35307D01*
X50985Y-35350D01*
X51157Y-35521D01*
X50971Y-35521D01*
X49621Y-40307D02*
X49478Y-40207D01*
X49621Y-40135D02*
X49321Y-40135D01*
X49321Y-40250D01*
X49335Y-40278D01*
X49350Y-40292D01*
X49378Y-40307D01*
X49421Y-40307D01*
X49450Y-40292D01*
X49464Y-40278D01*
X49478Y-40250D01*
X49478Y-40135D01*
X49421Y-40564D02*
X49621Y-40564D01*
X49307Y-40492D02*
X49521Y-40421D01*
X49521Y-40607D01*
X49321Y-40692D02*
X49321Y-40878D01*
X49435Y-40778D01*
X49435Y-40821D01*
X49450Y-40850D01*
X49464Y-40864D01*
X49492Y-40878D01*
X49564Y-40878D01*
X49592Y-40864D01*
X49607Y-40850D01*
X49621Y-40821D01*
X49621Y-40735D01*
X49607Y-40707D01*
X49592Y-40692D01*
G54D17*
X39637Y-42410D02*
X39622Y-42381D01*
X39594Y-42353D01*
X39551Y-42310D01*
X39537Y-42281D01*
X39537Y-42253D01*
X39608Y-42267D02*
X39594Y-42239D01*
X39565Y-42210D01*
X39508Y-42196D01*
X39408Y-42196D01*
X39351Y-42210D01*
X39322Y-42239D01*
X39308Y-42267D01*
X39308Y-42324D01*
X39322Y-42353D01*
X39351Y-42381D01*
X39408Y-42396D01*
X39508Y-42396D01*
X39565Y-42381D01*
X39594Y-42353D01*
X39608Y-42324D01*
X39608Y-42267D01*
X39608Y-42681D02*
X39608Y-42510D01*
X39608Y-42596D02*
X39308Y-42596D01*
X39351Y-42567D01*
X39379Y-42539D01*
X39394Y-42510D01*
X40937Y-42410D02*
X40922Y-42381D01*
X40894Y-42353D01*
X40851Y-42310D01*
X40837Y-42281D01*
X40837Y-42253D01*
X40908Y-42267D02*
X40894Y-42239D01*
X40865Y-42210D01*
X40808Y-42196D01*
X40708Y-42196D01*
X40651Y-42210D01*
X40622Y-42239D01*
X40608Y-42267D01*
X40608Y-42324D01*
X40622Y-42353D01*
X40651Y-42381D01*
X40708Y-42396D01*
X40808Y-42396D01*
X40865Y-42381D01*
X40894Y-42353D01*
X40908Y-42324D01*
X40908Y-42267D01*
X40637Y-42510D02*
X40622Y-42524D01*
X40608Y-42553D01*
X40608Y-42624D01*
X40622Y-42653D01*
X40637Y-42667D01*
X40665Y-42681D01*
X40694Y-42681D01*
X40737Y-42667D01*
X40908Y-42496D01*
X40908Y-42681D01*
X42237Y-42410D02*
X42222Y-42381D01*
X42194Y-42353D01*
X42151Y-42310D01*
X42137Y-42281D01*
X42137Y-42253D01*
X42208Y-42267D02*
X42194Y-42239D01*
X42165Y-42210D01*
X42108Y-42196D01*
X42008Y-42196D01*
X41951Y-42210D01*
X41922Y-42239D01*
X41908Y-42267D01*
X41908Y-42324D01*
X41922Y-42353D01*
X41951Y-42381D01*
X42008Y-42396D01*
X42108Y-42396D01*
X42165Y-42381D01*
X42194Y-42353D01*
X42208Y-42324D01*
X42208Y-42267D01*
X41908Y-42496D02*
X41908Y-42681D01*
X42022Y-42581D01*
X42022Y-42624D01*
X42037Y-42653D01*
X42051Y-42667D01*
X42079Y-42681D01*
X42151Y-42681D01*
X42179Y-42667D01*
X42194Y-42653D01*
X42208Y-42624D01*
X42208Y-42539D01*
X42194Y-42510D01*
X42179Y-42496D01*
X43537Y-42410D02*
X43522Y-42381D01*
X43494Y-42353D01*
X43451Y-42310D01*
X43437Y-42281D01*
X43437Y-42253D01*
X43508Y-42267D02*
X43494Y-42239D01*
X43465Y-42210D01*
X43408Y-42196D01*
X43308Y-42196D01*
X43251Y-42210D01*
X43222Y-42239D01*
X43208Y-42267D01*
X43208Y-42324D01*
X43222Y-42353D01*
X43251Y-42381D01*
X43308Y-42396D01*
X43408Y-42396D01*
X43465Y-42381D01*
X43494Y-42353D01*
X43508Y-42324D01*
X43508Y-42267D01*
X43308Y-42653D02*
X43508Y-42653D01*
X43194Y-42581D02*
X43408Y-42510D01*
X43408Y-42696D01*
X44837Y-42410D02*
X44822Y-42381D01*
X44794Y-42353D01*
X44751Y-42310D01*
X44737Y-42281D01*
X44737Y-42253D01*
X44808Y-42267D02*
X44794Y-42239D01*
X44765Y-42210D01*
X44708Y-42196D01*
X44608Y-42196D01*
X44551Y-42210D01*
X44522Y-42239D01*
X44508Y-42267D01*
X44508Y-42324D01*
X44522Y-42353D01*
X44551Y-42381D01*
X44608Y-42396D01*
X44708Y-42396D01*
X44765Y-42381D01*
X44794Y-42353D01*
X44808Y-42324D01*
X44808Y-42267D01*
X44508Y-42667D02*
X44508Y-42524D01*
X44651Y-42510D01*
X44637Y-42524D01*
X44622Y-42553D01*
X44622Y-42624D01*
X44637Y-42653D01*
X44651Y-42667D01*
X44679Y-42681D01*
X44751Y-42681D01*
X44779Y-42667D01*
X44794Y-42653D01*
X44808Y-42624D01*
X44808Y-42553D01*
X44794Y-42524D01*
X44779Y-42510D01*
X46137Y-42410D02*
X46122Y-42381D01*
X46094Y-42353D01*
X46051Y-42310D01*
X46037Y-42281D01*
X46037Y-42253D01*
X46108Y-42267D02*
X46094Y-42239D01*
X46065Y-42210D01*
X46008Y-42196D01*
X45908Y-42196D01*
X45851Y-42210D01*
X45822Y-42239D01*
X45808Y-42267D01*
X45808Y-42324D01*
X45822Y-42353D01*
X45851Y-42381D01*
X45908Y-42396D01*
X46008Y-42396D01*
X46065Y-42381D01*
X46094Y-42353D01*
X46108Y-42324D01*
X46108Y-42267D01*
X45808Y-42653D02*
X45808Y-42596D01*
X45822Y-42567D01*
X45837Y-42553D01*
X45879Y-42524D01*
X45937Y-42510D01*
X46051Y-42510D01*
X46079Y-42524D01*
X46094Y-42539D01*
X46108Y-42567D01*
X46108Y-42624D01*
X46094Y-42653D01*
X46079Y-42667D01*
X46051Y-42681D01*
X45979Y-42681D01*
X45951Y-42667D01*
X45937Y-42653D01*
X45922Y-42624D01*
X45922Y-42567D01*
X45937Y-42539D01*
X45951Y-42524D01*
X45979Y-42510D01*
X47437Y-42410D02*
X47422Y-42381D01*
X47394Y-42353D01*
X47351Y-42310D01*
X47337Y-42281D01*
X47337Y-42253D01*
X47408Y-42267D02*
X47394Y-42239D01*
X47365Y-42210D01*
X47308Y-42196D01*
X47208Y-42196D01*
X47151Y-42210D01*
X47122Y-42239D01*
X47108Y-42267D01*
X47108Y-42324D01*
X47122Y-42353D01*
X47151Y-42381D01*
X47208Y-42396D01*
X47308Y-42396D01*
X47365Y-42381D01*
X47394Y-42353D01*
X47408Y-42324D01*
X47408Y-42267D01*
X47108Y-42496D02*
X47108Y-42696D01*
X47408Y-42567D01*
X48737Y-42410D02*
X48722Y-42381D01*
X48694Y-42353D01*
X48651Y-42310D01*
X48637Y-42281D01*
X48637Y-42253D01*
X48708Y-42267D02*
X48694Y-42239D01*
X48665Y-42210D01*
X48608Y-42196D01*
X48508Y-42196D01*
X48451Y-42210D01*
X48422Y-42239D01*
X48408Y-42267D01*
X48408Y-42324D01*
X48422Y-42353D01*
X48451Y-42381D01*
X48508Y-42396D01*
X48608Y-42396D01*
X48665Y-42381D01*
X48694Y-42353D01*
X48708Y-42324D01*
X48708Y-42267D01*
X48537Y-42567D02*
X48522Y-42539D01*
X48508Y-42524D01*
X48479Y-42510D01*
X48465Y-42510D01*
X48437Y-42524D01*
X48422Y-42539D01*
X48408Y-42567D01*
X48408Y-42624D01*
X48422Y-42653D01*
X48437Y-42667D01*
X48465Y-42681D01*
X48479Y-42681D01*
X48508Y-42667D01*
X48522Y-42653D01*
X48537Y-42624D01*
X48537Y-42567D01*
X48551Y-42539D01*
X48565Y-42524D01*
X48594Y-42510D01*
X48651Y-42510D01*
X48679Y-42524D01*
X48694Y-42539D01*
X48708Y-42567D01*
X48708Y-42624D01*
X48694Y-42653D01*
X48679Y-42667D01*
X48651Y-42681D01*
X48594Y-42681D01*
X48565Y-42667D01*
X48551Y-42653D01*
X48537Y-42624D01*
X34989Y-34537D02*
X35018Y-34522D01*
X35046Y-34494D01*
X35089Y-34451D01*
X35118Y-34437D01*
X35146Y-34437D01*
X35132Y-34508D02*
X35161Y-34494D01*
X35189Y-34465D01*
X35203Y-34408D01*
X35203Y-34308D01*
X35189Y-34251D01*
X35161Y-34222D01*
X35132Y-34208D01*
X35075Y-34208D01*
X35046Y-34222D01*
X35018Y-34251D01*
X35003Y-34308D01*
X35003Y-34408D01*
X35018Y-34465D01*
X35046Y-34494D01*
X35075Y-34508D01*
X35132Y-34508D01*
X34861Y-34508D02*
X34803Y-34508D01*
X34775Y-34494D01*
X34761Y-34479D01*
X34732Y-34437D01*
X34718Y-34379D01*
X34718Y-34265D01*
X34732Y-34237D01*
X34746Y-34222D01*
X34775Y-34208D01*
X34832Y-34208D01*
X34861Y-34222D01*
X34875Y-34237D01*
X34889Y-34265D01*
X34889Y-34337D01*
X34875Y-34365D01*
X34861Y-34379D01*
X34832Y-34394D01*
X34775Y-34394D01*
X34746Y-34379D01*
X34732Y-34365D01*
X34718Y-34337D01*
X37132Y-34537D02*
X37161Y-34522D01*
X37189Y-34494D01*
X37232Y-34451D01*
X37261Y-34437D01*
X37289Y-34437D01*
X37275Y-34508D02*
X37303Y-34494D01*
X37332Y-34465D01*
X37346Y-34408D01*
X37346Y-34308D01*
X37332Y-34251D01*
X37303Y-34222D01*
X37275Y-34208D01*
X37218Y-34208D01*
X37189Y-34222D01*
X37161Y-34251D01*
X37146Y-34308D01*
X37146Y-34408D01*
X37161Y-34465D01*
X37189Y-34494D01*
X37218Y-34508D01*
X37275Y-34508D01*
X36861Y-34508D02*
X37032Y-34508D01*
X36946Y-34508D02*
X36946Y-34208D01*
X36975Y-34251D01*
X37003Y-34279D01*
X37032Y-34294D01*
X36675Y-34208D02*
X36646Y-34208D01*
X36618Y-34222D01*
X36603Y-34237D01*
X36589Y-34265D01*
X36575Y-34322D01*
X36575Y-34394D01*
X36589Y-34451D01*
X36603Y-34479D01*
X36618Y-34494D01*
X36646Y-34508D01*
X36675Y-34508D01*
X36703Y-34494D01*
X36718Y-34479D01*
X36732Y-34451D01*
X36746Y-34394D01*
X36746Y-34322D01*
X36732Y-34265D01*
X36718Y-34237D01*
X36703Y-34222D01*
X36675Y-34208D01*
X39132Y-34537D02*
X39161Y-34522D01*
X39189Y-34494D01*
X39232Y-34451D01*
X39261Y-34437D01*
X39289Y-34437D01*
X39275Y-34508D02*
X39303Y-34494D01*
X39332Y-34465D01*
X39346Y-34408D01*
X39346Y-34308D01*
X39332Y-34251D01*
X39303Y-34222D01*
X39275Y-34208D01*
X39218Y-34208D01*
X39189Y-34222D01*
X39161Y-34251D01*
X39146Y-34308D01*
X39146Y-34408D01*
X39161Y-34465D01*
X39189Y-34494D01*
X39218Y-34508D01*
X39275Y-34508D01*
X38861Y-34508D02*
X39032Y-34508D01*
X38946Y-34508D02*
X38946Y-34208D01*
X38975Y-34251D01*
X39003Y-34279D01*
X39032Y-34294D01*
X38575Y-34508D02*
X38746Y-34508D01*
X38661Y-34508D02*
X38661Y-34208D01*
X38689Y-34251D01*
X38718Y-34279D01*
X38746Y-34294D01*
X41132Y-34537D02*
X41161Y-34522D01*
X41189Y-34494D01*
X41232Y-34451D01*
X41261Y-34437D01*
X41289Y-34437D01*
X41275Y-34508D02*
X41303Y-34494D01*
X41332Y-34465D01*
X41346Y-34408D01*
X41346Y-34308D01*
X41332Y-34251D01*
X41303Y-34222D01*
X41275Y-34208D01*
X41218Y-34208D01*
X41189Y-34222D01*
X41161Y-34251D01*
X41146Y-34308D01*
X41146Y-34408D01*
X41161Y-34465D01*
X41189Y-34494D01*
X41218Y-34508D01*
X41275Y-34508D01*
X40861Y-34508D02*
X41032Y-34508D01*
X40946Y-34508D02*
X40946Y-34208D01*
X40975Y-34251D01*
X41003Y-34279D01*
X41032Y-34294D01*
X40746Y-34237D02*
X40732Y-34222D01*
X40703Y-34208D01*
X40632Y-34208D01*
X40603Y-34222D01*
X40589Y-34237D01*
X40575Y-34265D01*
X40575Y-34294D01*
X40589Y-34337D01*
X40761Y-34508D01*
X40575Y-34508D01*
X43132Y-34537D02*
X43161Y-34522D01*
X43189Y-34494D01*
X43232Y-34451D01*
X43261Y-34437D01*
X43289Y-34437D01*
X43275Y-34508D02*
X43303Y-34494D01*
X43332Y-34465D01*
X43346Y-34408D01*
X43346Y-34308D01*
X43332Y-34251D01*
X43303Y-34222D01*
X43275Y-34208D01*
X43218Y-34208D01*
X43189Y-34222D01*
X43161Y-34251D01*
X43146Y-34308D01*
X43146Y-34408D01*
X43161Y-34465D01*
X43189Y-34494D01*
X43218Y-34508D01*
X43275Y-34508D01*
X42861Y-34508D02*
X43032Y-34508D01*
X42946Y-34508D02*
X42946Y-34208D01*
X42975Y-34251D01*
X43003Y-34279D01*
X43032Y-34294D01*
X42761Y-34208D02*
X42575Y-34208D01*
X42675Y-34322D01*
X42632Y-34322D01*
X42603Y-34337D01*
X42589Y-34351D01*
X42575Y-34379D01*
X42575Y-34451D01*
X42589Y-34479D01*
X42603Y-34494D01*
X42632Y-34508D01*
X42718Y-34508D01*
X42746Y-34494D01*
X42761Y-34479D01*
X45132Y-34537D02*
X45161Y-34522D01*
X45189Y-34494D01*
X45232Y-34451D01*
X45261Y-34437D01*
X45289Y-34437D01*
X45275Y-34508D02*
X45303Y-34494D01*
X45332Y-34465D01*
X45346Y-34408D01*
X45346Y-34308D01*
X45332Y-34251D01*
X45303Y-34222D01*
X45275Y-34208D01*
X45218Y-34208D01*
X45189Y-34222D01*
X45161Y-34251D01*
X45146Y-34308D01*
X45146Y-34408D01*
X45161Y-34465D01*
X45189Y-34494D01*
X45218Y-34508D01*
X45275Y-34508D01*
X44861Y-34508D02*
X45032Y-34508D01*
X44946Y-34508D02*
X44946Y-34208D01*
X44975Y-34251D01*
X45003Y-34279D01*
X45032Y-34294D01*
X44603Y-34308D02*
X44603Y-34508D01*
X44675Y-34194D02*
X44746Y-34408D01*
X44561Y-34408D01*
X47132Y-34537D02*
X47161Y-34522D01*
X47189Y-34494D01*
X47232Y-34451D01*
X47261Y-34437D01*
X47289Y-34437D01*
X47275Y-34508D02*
X47303Y-34494D01*
X47332Y-34465D01*
X47346Y-34408D01*
X47346Y-34308D01*
X47332Y-34251D01*
X47303Y-34222D01*
X47275Y-34208D01*
X47218Y-34208D01*
X47189Y-34222D01*
X47161Y-34251D01*
X47146Y-34308D01*
X47146Y-34408D01*
X47161Y-34465D01*
X47189Y-34494D01*
X47218Y-34508D01*
X47275Y-34508D01*
X46861Y-34508D02*
X47032Y-34508D01*
X46946Y-34508D02*
X46946Y-34208D01*
X46975Y-34251D01*
X47003Y-34279D01*
X47032Y-34294D01*
X46589Y-34208D02*
X46732Y-34208D01*
X46746Y-34351D01*
X46732Y-34337D01*
X46703Y-34322D01*
X46632Y-34322D01*
X46603Y-34337D01*
X46589Y-34351D01*
X46575Y-34379D01*
X46575Y-34451D01*
X46589Y-34479D01*
X46603Y-34494D01*
X46632Y-34508D01*
X46703Y-34508D01*
X46732Y-34494D01*
X46746Y-34479D01*
X49132Y-34537D02*
X49161Y-34522D01*
X49189Y-34494D01*
X49232Y-34451D01*
X49261Y-34437D01*
X49289Y-34437D01*
X49275Y-34508D02*
X49303Y-34494D01*
X49332Y-34465D01*
X49346Y-34408D01*
X49346Y-34308D01*
X49332Y-34251D01*
X49303Y-34222D01*
X49275Y-34208D01*
X49218Y-34208D01*
X49189Y-34222D01*
X49161Y-34251D01*
X49146Y-34308D01*
X49146Y-34408D01*
X49161Y-34465D01*
X49189Y-34494D01*
X49218Y-34508D01*
X49275Y-34508D01*
X48861Y-34508D02*
X49032Y-34508D01*
X48946Y-34508D02*
X48946Y-34208D01*
X48975Y-34251D01*
X49003Y-34279D01*
X49032Y-34294D01*
X48603Y-34208D02*
X48661Y-34208D01*
X48689Y-34222D01*
X48703Y-34237D01*
X48732Y-34279D01*
X48746Y-34337D01*
X48746Y-34451D01*
X48732Y-34479D01*
X48718Y-34494D01*
X48689Y-34508D01*
X48632Y-34508D01*
X48603Y-34494D01*
X48589Y-34479D01*
X48575Y-34451D01*
X48575Y-34379D01*
X48589Y-34351D01*
X48603Y-34337D01*
X48632Y-34322D01*
X48689Y-34322D01*
X48718Y-34337D01*
X48732Y-34351D01*
X48746Y-34379D01*
X49832Y-43387D02*
X49861Y-43372D01*
X49889Y-43344D01*
X49932Y-43301D01*
X49961Y-43287D01*
X49989Y-43287D01*
X49975Y-43358D02*
X50003Y-43344D01*
X50032Y-43315D01*
X50046Y-43258D01*
X50046Y-43158D01*
X50032Y-43101D01*
X50003Y-43072D01*
X49975Y-43058D01*
X49918Y-43058D01*
X49889Y-43072D01*
X49861Y-43101D01*
X49846Y-43158D01*
X49846Y-43258D01*
X49861Y-43315D01*
X49889Y-43344D01*
X49918Y-43358D01*
X49975Y-43358D01*
X49561Y-43358D02*
X49732Y-43358D01*
X49646Y-43358D02*
X49646Y-43058D01*
X49675Y-43101D01*
X49703Y-43129D01*
X49732Y-43144D01*
X49418Y-43358D02*
X49361Y-43358D01*
X49332Y-43344D01*
X49318Y-43329D01*
X49289Y-43287D01*
X49275Y-43229D01*
X49275Y-43115D01*
X49289Y-43087D01*
X49303Y-43072D01*
X49332Y-43058D01*
X49389Y-43058D01*
X49418Y-43072D01*
X49432Y-43087D01*
X49446Y-43115D01*
X49446Y-43187D01*
X49432Y-43215D01*
X49418Y-43229D01*
X49389Y-43244D01*
X49332Y-43244D01*
X49303Y-43229D01*
X49289Y-43215D01*
X49275Y-43187D01*
M02*
