G04 (created by PCBNEW (2013-jul-07)-stable) date ven. 28 nov. 2014 16:43:25 CET*
%MOIN*%
G04 Gerber Fmt 3.4, Leading zero omitted, Abs format*
%FSLAX34Y34*%
G01*
G70*
G90*
G04 APERTURE LIST*
%ADD10C,0.00590551*%
%ADD11R,0.08X0.06*%
%ADD12R,0.06X0.06*%
%ADD13C,0.06*%
%ADD14R,0.06X0.08*%
%ADD15R,0.0315X0.0394*%
%ADD16R,0.0394X0.0315*%
%ADD17C,0.035*%
%ADD18C,0.02*%
%ADD19C,0.01*%
G04 APERTURE END LIST*
G54D10*
X74000Y-29100D02*
X74000Y-45650D01*
X73400Y-29100D02*
X74000Y-29100D01*
X73400Y-45650D02*
X74000Y-45650D01*
X34000Y-29100D02*
X34000Y-45600D01*
X34000Y-29100D02*
X73400Y-29100D01*
X34000Y-45650D02*
X34000Y-45600D01*
X73400Y-45650D02*
X34000Y-45650D01*
X34000Y-45800D02*
G75*
G03X34000Y-45800I0J0D01*
G74*
G01*
X33999Y-45800D02*
X34000Y-45800D01*
X34000Y-45799D02*
X34000Y-45800D01*
G54D11*
X38700Y-39850D03*
X38700Y-41150D03*
X41300Y-39850D03*
X41300Y-41150D03*
X43900Y-39850D03*
X43900Y-41150D03*
X46500Y-39850D03*
X46500Y-41150D03*
X47800Y-39850D03*
X47800Y-41150D03*
X45200Y-39850D03*
X45200Y-41150D03*
X42600Y-39850D03*
X42600Y-41150D03*
X40000Y-39850D03*
X40000Y-41150D03*
X38700Y-44850D03*
X38700Y-43550D03*
X40000Y-44850D03*
X40000Y-43550D03*
G54D12*
X39700Y-37650D03*
G54D13*
X39700Y-38650D03*
X40700Y-37650D03*
X40700Y-38650D03*
X41700Y-37650D03*
X41700Y-38650D03*
X42700Y-37650D03*
X42700Y-38650D03*
X43700Y-37650D03*
X43700Y-38650D03*
X44700Y-37650D03*
X44700Y-38650D03*
X45700Y-37650D03*
X45700Y-38650D03*
X46700Y-37650D03*
X46700Y-38650D03*
X47700Y-37650D03*
X47700Y-38650D03*
X48700Y-37650D03*
X48700Y-38650D03*
G54D11*
X41300Y-44850D03*
X41300Y-43550D03*
X42600Y-44850D03*
X42600Y-43550D03*
X43900Y-44850D03*
X43900Y-43550D03*
X45200Y-44850D03*
X45200Y-43550D03*
X46500Y-44850D03*
X46500Y-43550D03*
X47800Y-44850D03*
X47800Y-43550D03*
X35300Y-36150D03*
X35300Y-34850D03*
X37300Y-36150D03*
X37300Y-34850D03*
X39300Y-36150D03*
X39300Y-34850D03*
X41300Y-36150D03*
X41300Y-34850D03*
X43300Y-36150D03*
X43300Y-34850D03*
X45300Y-36150D03*
X45300Y-34850D03*
X47300Y-36150D03*
X47300Y-34850D03*
X49300Y-36150D03*
X49300Y-34850D03*
X35600Y-31150D03*
X35600Y-32450D03*
X38600Y-31150D03*
X38600Y-32450D03*
X40600Y-31150D03*
X40600Y-32450D03*
X42600Y-31150D03*
X42600Y-32450D03*
X44600Y-31150D03*
X44600Y-32450D03*
X46600Y-31150D03*
X46600Y-32450D03*
X48600Y-31150D03*
X48600Y-32450D03*
X50600Y-31150D03*
X50600Y-32450D03*
G54D14*
X52350Y-33400D03*
X53650Y-33400D03*
X53550Y-35400D03*
X52250Y-35400D03*
G54D11*
X49500Y-39850D03*
X49500Y-41150D03*
G54D15*
X38700Y-42833D03*
X39075Y-41967D03*
X38325Y-41967D03*
X40000Y-42833D03*
X40375Y-41967D03*
X39625Y-41967D03*
X41300Y-42833D03*
X41675Y-41967D03*
X40925Y-41967D03*
X42600Y-42833D03*
X42975Y-41967D03*
X42225Y-41967D03*
X43900Y-42833D03*
X44275Y-41967D03*
X43525Y-41967D03*
X45200Y-42833D03*
X45575Y-41967D03*
X44825Y-41967D03*
X46500Y-42833D03*
X46875Y-41967D03*
X46125Y-41967D03*
X47800Y-42833D03*
X48175Y-41967D03*
X47425Y-41967D03*
G54D16*
X34567Y-33600D03*
X35433Y-33975D03*
X35433Y-33225D03*
X36567Y-33600D03*
X37433Y-33975D03*
X37433Y-33225D03*
X38567Y-33600D03*
X39433Y-33975D03*
X39433Y-33225D03*
X40567Y-33600D03*
X41433Y-33975D03*
X41433Y-33225D03*
X42567Y-33600D03*
X43433Y-33975D03*
X43433Y-33225D03*
X44567Y-33600D03*
X45433Y-33975D03*
X45433Y-33225D03*
X46567Y-33600D03*
X47433Y-33975D03*
X47433Y-33225D03*
X48567Y-33600D03*
X49433Y-33975D03*
X49433Y-33225D03*
X49267Y-42450D03*
X50133Y-42825D03*
X50133Y-42075D03*
G54D17*
X51000Y-34600D03*
X38750Y-40550D03*
X40000Y-40500D03*
X41300Y-40500D03*
X42600Y-40500D03*
X43900Y-40500D03*
X46500Y-40500D03*
X47800Y-40500D03*
X45600Y-31200D03*
X50800Y-30500D03*
X49600Y-30950D03*
X41600Y-31200D03*
X39500Y-31200D03*
X43600Y-31200D03*
X54600Y-35400D03*
X54600Y-33400D03*
X38700Y-44200D03*
X40000Y-44200D03*
X46500Y-44200D03*
X45200Y-44200D03*
X47600Y-31100D03*
X37500Y-31200D03*
X49200Y-44750D03*
X41300Y-44200D03*
X42600Y-44200D03*
X43900Y-44200D03*
G54D18*
X51000Y-35200D02*
X51000Y-34600D01*
X50400Y-35500D02*
X50700Y-35500D01*
X51000Y-35200D02*
X50700Y-35500D01*
X50350Y-38400D02*
X50350Y-35500D01*
X50350Y-35500D02*
X50400Y-35500D01*
X48500Y-35500D02*
X48500Y-33667D01*
X48500Y-33667D02*
X48567Y-33600D01*
X46500Y-35500D02*
X46500Y-33667D01*
X46500Y-33667D02*
X46567Y-33600D01*
X44500Y-35500D02*
X44500Y-33667D01*
X44500Y-33667D02*
X44567Y-33600D01*
X42500Y-35500D02*
X42500Y-33667D01*
X42500Y-33667D02*
X42567Y-33600D01*
X40500Y-35500D02*
X40500Y-33667D01*
X40500Y-33667D02*
X40567Y-33600D01*
X38500Y-35500D02*
X38500Y-33667D01*
X38500Y-33667D02*
X38567Y-33600D01*
X36500Y-35500D02*
X36500Y-33667D01*
X36500Y-33667D02*
X36567Y-33600D01*
X50400Y-35500D02*
X48500Y-35500D01*
X48500Y-35500D02*
X46500Y-35500D01*
X46500Y-35500D02*
X44500Y-35500D01*
X44500Y-35500D02*
X42500Y-35500D01*
X42500Y-35500D02*
X40500Y-35500D01*
X40500Y-35500D02*
X38500Y-35500D01*
X38500Y-35500D02*
X36500Y-35500D01*
X36500Y-35500D02*
X34700Y-35500D01*
X34567Y-35367D02*
X34567Y-33600D01*
X34700Y-35500D02*
X34567Y-35367D01*
X48700Y-41250D02*
X48700Y-40800D01*
X48700Y-42400D02*
X48700Y-41250D01*
X46100Y-42400D02*
X46100Y-41992D01*
X46100Y-41992D02*
X46125Y-41967D01*
X44800Y-42400D02*
X44800Y-41992D01*
X44800Y-41992D02*
X44825Y-41967D01*
X43500Y-42400D02*
X43500Y-41992D01*
X43500Y-41992D02*
X43525Y-41967D01*
X42225Y-41967D02*
X42225Y-42375D01*
X42225Y-42375D02*
X42200Y-42400D01*
X40925Y-41967D02*
X40925Y-42375D01*
X40925Y-42375D02*
X40900Y-42400D01*
X39625Y-41967D02*
X39625Y-42375D01*
X39625Y-42375D02*
X39600Y-42400D01*
X47425Y-41967D02*
X47425Y-42400D01*
X47425Y-42400D02*
X47500Y-42400D01*
X38325Y-41967D02*
X38325Y-42325D01*
X38400Y-42400D02*
X39600Y-42400D01*
X39600Y-42400D02*
X40900Y-42400D01*
X40900Y-42400D02*
X41000Y-42400D01*
X41000Y-42400D02*
X42200Y-42400D01*
X42200Y-42400D02*
X43500Y-42400D01*
X43500Y-42400D02*
X44800Y-42400D01*
X44800Y-42400D02*
X46100Y-42400D01*
X46100Y-42400D02*
X46200Y-42400D01*
X46200Y-42400D02*
X47500Y-42400D01*
X47500Y-42400D02*
X48700Y-42400D01*
X38325Y-42325D02*
X38400Y-42400D01*
X48700Y-42400D02*
X49250Y-42400D01*
X49250Y-42400D02*
X49300Y-42450D01*
X49050Y-40450D02*
X50150Y-40450D01*
X48700Y-40800D02*
X49050Y-40450D01*
X50350Y-40150D02*
X50350Y-38650D01*
X50350Y-40250D02*
X50350Y-40150D01*
X50150Y-40450D02*
X50350Y-40250D01*
X48700Y-38650D02*
X50350Y-38650D01*
X50350Y-38650D02*
X50350Y-38400D01*
X50350Y-38400D02*
X50350Y-38350D01*
G54D19*
X38700Y-40500D02*
X38700Y-39850D01*
X38750Y-40550D02*
X38700Y-40500D01*
X40000Y-40500D02*
X40000Y-39850D01*
X41300Y-40500D02*
X41300Y-39850D01*
X42600Y-40500D02*
X42600Y-39850D01*
X43900Y-40500D02*
X43900Y-39850D01*
X45100Y-39850D02*
X45200Y-39850D01*
X44200Y-38950D02*
X45100Y-39850D01*
X44200Y-38200D02*
X44200Y-38950D01*
X44700Y-37650D02*
X44700Y-37700D01*
X44700Y-37700D02*
X44200Y-38200D01*
X46500Y-40500D02*
X46500Y-39850D01*
X47800Y-40500D02*
X47800Y-39850D01*
X49050Y-39850D02*
X49500Y-39850D01*
X47700Y-38650D02*
X47850Y-38650D01*
X47850Y-38650D02*
X49050Y-39850D01*
X45950Y-32450D02*
X46600Y-32450D01*
X45550Y-32850D02*
X45950Y-32450D01*
X45550Y-33250D02*
X45550Y-32850D01*
X44650Y-31200D02*
X45600Y-31200D01*
X44650Y-31200D02*
X44600Y-31150D01*
X47300Y-34850D02*
X47300Y-34200D01*
X47300Y-34200D02*
X47550Y-33950D01*
X49900Y-32450D02*
X50600Y-32450D01*
X49550Y-32800D02*
X49900Y-32450D01*
X49550Y-33250D02*
X49550Y-32800D01*
X50600Y-31150D02*
X50600Y-30700D01*
X50600Y-30700D02*
X50800Y-30500D01*
X47550Y-33250D02*
X47550Y-32800D01*
X47550Y-32800D02*
X47900Y-32450D01*
X47900Y-32450D02*
X48600Y-32450D01*
X48600Y-31150D02*
X48800Y-30950D01*
X48800Y-30950D02*
X49600Y-30950D01*
X41550Y-31150D02*
X41600Y-31200D01*
X40600Y-31150D02*
X41550Y-31150D01*
X37300Y-34850D02*
X37300Y-34150D01*
X37300Y-34150D02*
X37500Y-33950D01*
X37500Y-33250D02*
X37500Y-32950D01*
X37500Y-32950D02*
X38000Y-32450D01*
X38000Y-32450D02*
X38600Y-32450D01*
X45300Y-34200D02*
X45550Y-33950D01*
X45300Y-34850D02*
X45300Y-34200D01*
X39900Y-32450D02*
X40600Y-32450D01*
X39550Y-32800D02*
X39900Y-32450D01*
X39550Y-33250D02*
X39550Y-32800D01*
X39450Y-31150D02*
X39500Y-31200D01*
X38600Y-31150D02*
X39450Y-31150D01*
X35300Y-34850D02*
X35300Y-34050D01*
X35300Y-34050D02*
X35400Y-33950D01*
X35600Y-33050D02*
X35400Y-33250D01*
X35600Y-32450D02*
X35600Y-33050D01*
X41300Y-34850D02*
X41300Y-34200D01*
X41300Y-34200D02*
X41550Y-33950D01*
X41550Y-33250D02*
X41550Y-32800D01*
X41550Y-32800D02*
X41900Y-32450D01*
X41900Y-32450D02*
X42600Y-32450D01*
X42650Y-31200D02*
X43600Y-31200D01*
X42600Y-31150D02*
X42650Y-31200D01*
X39300Y-34200D02*
X39550Y-33950D01*
X39300Y-34850D02*
X39300Y-34200D01*
X50133Y-42075D02*
X51725Y-42075D01*
X51725Y-42075D02*
X52250Y-41550D01*
X52250Y-41650D02*
X52250Y-41550D01*
X52250Y-41550D02*
X52250Y-35200D01*
X52600Y-35200D02*
X52350Y-35200D01*
X49500Y-41150D02*
X49500Y-41700D01*
X49925Y-42825D02*
X50133Y-42825D01*
X49700Y-42600D02*
X49925Y-42825D01*
X49700Y-41900D02*
X49700Y-42600D01*
X49500Y-41700D02*
X49700Y-41900D01*
X49300Y-34850D02*
X49300Y-34108D01*
X49300Y-34108D02*
X49433Y-33975D01*
X53550Y-35400D02*
X54600Y-35400D01*
X54600Y-33400D02*
X53650Y-33400D01*
X38700Y-42800D02*
X38700Y-43550D01*
X38700Y-44850D02*
X38700Y-44200D01*
X40000Y-43550D02*
X40000Y-42800D01*
X40000Y-44850D02*
X40000Y-44200D01*
X39075Y-41967D02*
X39075Y-41525D01*
X39075Y-41525D02*
X38700Y-41150D01*
X45200Y-43550D02*
X45200Y-42800D01*
X46500Y-43550D02*
X46500Y-42800D01*
X46500Y-44850D02*
X46500Y-44200D01*
X45575Y-41967D02*
X45575Y-41525D01*
X45575Y-41525D02*
X45200Y-41150D01*
X46875Y-41967D02*
X46875Y-41525D01*
X46875Y-41525D02*
X46500Y-41150D01*
X45200Y-44850D02*
X45200Y-44200D01*
X44275Y-41967D02*
X44275Y-41525D01*
X44275Y-41525D02*
X43900Y-41150D01*
X46600Y-31150D02*
X47550Y-31150D01*
X47550Y-31150D02*
X47600Y-31100D01*
X37450Y-31150D02*
X37500Y-31200D01*
X35600Y-31150D02*
X37450Y-31150D01*
X48175Y-41967D02*
X48175Y-41525D01*
X48175Y-41525D02*
X47800Y-41150D01*
X47800Y-43550D02*
X47800Y-42800D01*
X49100Y-44850D02*
X49200Y-44750D01*
X47800Y-44850D02*
X49100Y-44850D01*
X41300Y-44850D02*
X41300Y-44200D01*
X42600Y-44850D02*
X42600Y-44200D01*
X41675Y-41967D02*
X41675Y-41525D01*
X41675Y-41525D02*
X41300Y-41150D01*
X41300Y-43550D02*
X41300Y-42800D01*
X40375Y-41967D02*
X40375Y-41525D01*
X40375Y-41525D02*
X40000Y-41150D01*
X42975Y-41967D02*
X42975Y-41525D01*
X42975Y-41525D02*
X42600Y-41150D01*
X43300Y-34850D02*
X43300Y-34200D01*
X43300Y-34200D02*
X43550Y-33950D01*
X43900Y-43550D02*
X43900Y-42800D01*
X43900Y-44850D02*
X43900Y-44200D01*
X42600Y-43550D02*
X42600Y-42800D01*
X43550Y-33250D02*
X43550Y-32850D01*
X43550Y-32850D02*
X43950Y-32450D01*
X43950Y-32450D02*
X44600Y-32450D01*
X35300Y-36150D02*
X36350Y-36150D01*
X36500Y-36800D02*
X38350Y-38650D01*
X36500Y-36300D02*
X36500Y-36800D01*
X36350Y-36150D02*
X36500Y-36300D01*
X38350Y-38650D02*
X39700Y-38650D01*
X40200Y-38150D02*
X40700Y-38650D01*
X38300Y-38150D02*
X40200Y-38150D01*
X37300Y-36150D02*
X37300Y-37150D01*
X37300Y-37150D02*
X38300Y-38150D01*
X41200Y-38150D02*
X41700Y-38650D01*
X41200Y-37350D02*
X41200Y-38150D01*
X39300Y-36150D02*
X40000Y-36150D01*
X40000Y-36150D02*
X41200Y-37350D01*
X42200Y-38150D02*
X42700Y-38650D01*
X42200Y-37350D02*
X42200Y-38150D01*
X41300Y-36150D02*
X41300Y-36450D01*
X41300Y-36450D02*
X42200Y-37350D01*
X43700Y-38650D02*
X43650Y-38650D01*
X43650Y-38650D02*
X43200Y-38200D01*
X43200Y-36250D02*
X43300Y-36150D01*
X43200Y-38200D02*
X43200Y-36250D01*
X44700Y-38650D02*
X44700Y-38600D01*
X44700Y-38600D02*
X45200Y-38100D01*
X45200Y-36250D02*
X45300Y-36150D01*
X45200Y-38100D02*
X45200Y-36250D01*
X45700Y-38650D02*
X45700Y-38600D01*
X45700Y-38600D02*
X46200Y-38100D01*
X46900Y-36150D02*
X47300Y-36150D01*
X46200Y-36850D02*
X46900Y-36150D01*
X46200Y-38100D02*
X46200Y-36850D01*
X46700Y-38650D02*
X47200Y-38150D01*
X47200Y-38150D02*
X47200Y-37150D01*
X48550Y-36900D02*
X49300Y-36150D01*
X47450Y-36900D02*
X48550Y-36900D01*
X47200Y-37150D02*
X47450Y-36900D01*
G54D10*
G36*
X73700Y-45450D02*
X54925Y-45450D01*
X54925Y-35335D01*
X54925Y-33335D01*
X54875Y-33216D01*
X54784Y-33124D01*
X54664Y-33075D01*
X54535Y-33074D01*
X54416Y-33124D01*
X54340Y-33200D01*
X54100Y-33200D01*
X54100Y-32970D01*
X54077Y-32915D01*
X54035Y-32872D01*
X53979Y-32850D01*
X53920Y-32849D01*
X53320Y-32849D01*
X53265Y-32872D01*
X53222Y-32914D01*
X53200Y-32970D01*
X53199Y-33029D01*
X53199Y-33829D01*
X53222Y-33884D01*
X53264Y-33927D01*
X53320Y-33949D01*
X53379Y-33950D01*
X53979Y-33950D01*
X54034Y-33927D01*
X54077Y-33885D01*
X54099Y-33829D01*
X54100Y-33770D01*
X54100Y-33600D01*
X54340Y-33600D01*
X54415Y-33675D01*
X54535Y-33724D01*
X54664Y-33725D01*
X54783Y-33675D01*
X54875Y-33584D01*
X54924Y-33464D01*
X54925Y-33335D01*
X54925Y-35335D01*
X54875Y-35216D01*
X54784Y-35124D01*
X54664Y-35075D01*
X54535Y-35074D01*
X54416Y-35124D01*
X54340Y-35200D01*
X54000Y-35200D01*
X54000Y-34970D01*
X53977Y-34915D01*
X53935Y-34872D01*
X53879Y-34850D01*
X53820Y-34849D01*
X53220Y-34849D01*
X53165Y-34872D01*
X53122Y-34914D01*
X53100Y-34970D01*
X53099Y-35029D01*
X53099Y-35829D01*
X53122Y-35884D01*
X53164Y-35927D01*
X53220Y-35949D01*
X53279Y-35950D01*
X53879Y-35950D01*
X53934Y-35927D01*
X53977Y-35885D01*
X53999Y-35829D01*
X54000Y-35770D01*
X54000Y-35600D01*
X54340Y-35600D01*
X54415Y-35675D01*
X54535Y-35724D01*
X54664Y-35725D01*
X54783Y-35675D01*
X54875Y-35584D01*
X54924Y-35464D01*
X54925Y-35335D01*
X54925Y-45450D01*
X52900Y-45450D01*
X52900Y-33750D01*
X52900Y-33049D01*
X52899Y-32950D01*
X52861Y-32858D01*
X52791Y-32787D01*
X52699Y-32749D01*
X52462Y-32750D01*
X52400Y-32812D01*
X52400Y-33350D01*
X52837Y-33350D01*
X52900Y-33287D01*
X52900Y-33049D01*
X52900Y-33750D01*
X52900Y-33512D01*
X52837Y-33450D01*
X52400Y-33450D01*
X52400Y-33987D01*
X52462Y-34050D01*
X52699Y-34050D01*
X52791Y-34012D01*
X52861Y-33941D01*
X52899Y-33849D01*
X52900Y-33750D01*
X52900Y-45450D01*
X49525Y-45450D01*
X49525Y-44685D01*
X49475Y-44566D01*
X49384Y-44474D01*
X49264Y-44425D01*
X49135Y-44424D01*
X49016Y-44474D01*
X48924Y-44565D01*
X48889Y-44650D01*
X48350Y-44650D01*
X48350Y-44520D01*
X48327Y-44465D01*
X48285Y-44422D01*
X48229Y-44400D01*
X48170Y-44399D01*
X47370Y-44399D01*
X47315Y-44422D01*
X47272Y-44464D01*
X47250Y-44520D01*
X47249Y-44579D01*
X47249Y-45179D01*
X47272Y-45234D01*
X47314Y-45277D01*
X47370Y-45299D01*
X47429Y-45300D01*
X48229Y-45300D01*
X48284Y-45277D01*
X48327Y-45235D01*
X48349Y-45179D01*
X48350Y-45120D01*
X48350Y-45050D01*
X49074Y-45050D01*
X49135Y-45074D01*
X49264Y-45075D01*
X49383Y-45025D01*
X49475Y-44934D01*
X49524Y-44814D01*
X49525Y-44685D01*
X49525Y-45450D01*
X34250Y-45450D01*
X34250Y-33849D01*
X34284Y-33884D01*
X34317Y-33897D01*
X34317Y-35367D01*
X34336Y-35462D01*
X34390Y-35543D01*
X34523Y-35676D01*
X34523Y-35676D01*
X34604Y-35730D01*
X34604Y-35730D01*
X34700Y-35750D01*
X34787Y-35750D01*
X34772Y-35764D01*
X34750Y-35820D01*
X34749Y-35879D01*
X34749Y-36479D01*
X34772Y-36534D01*
X34814Y-36577D01*
X34870Y-36599D01*
X34929Y-36600D01*
X35729Y-36600D01*
X35784Y-36577D01*
X35827Y-36535D01*
X35849Y-36479D01*
X35850Y-36420D01*
X35850Y-36350D01*
X36267Y-36350D01*
X36300Y-36382D01*
X36300Y-36800D01*
X36315Y-36876D01*
X36358Y-36941D01*
X38208Y-38791D01*
X38208Y-38791D01*
X38251Y-38820D01*
X38273Y-38834D01*
X38273Y-38834D01*
X38350Y-38850D01*
X39295Y-38850D01*
X39318Y-38904D01*
X39444Y-39031D01*
X39610Y-39099D01*
X39789Y-39100D01*
X39954Y-39031D01*
X40081Y-38905D01*
X40149Y-38739D01*
X40150Y-38560D01*
X40081Y-38395D01*
X40036Y-38350D01*
X40117Y-38350D01*
X40272Y-38505D01*
X40250Y-38560D01*
X40249Y-38739D01*
X40318Y-38904D01*
X40444Y-39031D01*
X40610Y-39099D01*
X40789Y-39100D01*
X40954Y-39031D01*
X41081Y-38905D01*
X41149Y-38739D01*
X41150Y-38560D01*
X41081Y-38395D01*
X40955Y-38268D01*
X40789Y-38200D01*
X40610Y-38199D01*
X40555Y-38222D01*
X40341Y-38008D01*
X40276Y-37965D01*
X40200Y-37950D01*
X40150Y-37950D01*
X40150Y-37920D01*
X40150Y-37320D01*
X40127Y-37265D01*
X40085Y-37222D01*
X40029Y-37200D01*
X39970Y-37199D01*
X39370Y-37199D01*
X39315Y-37222D01*
X39272Y-37264D01*
X39250Y-37320D01*
X39249Y-37379D01*
X39249Y-37950D01*
X38382Y-37950D01*
X37500Y-37067D01*
X37500Y-36600D01*
X37729Y-36600D01*
X37784Y-36577D01*
X37827Y-36535D01*
X37849Y-36479D01*
X37850Y-36420D01*
X37850Y-35820D01*
X37827Y-35765D01*
X37812Y-35750D01*
X38500Y-35750D01*
X38787Y-35750D01*
X38772Y-35764D01*
X38750Y-35820D01*
X38749Y-35879D01*
X38749Y-36479D01*
X38772Y-36534D01*
X38814Y-36577D01*
X38870Y-36599D01*
X38929Y-36600D01*
X39729Y-36600D01*
X39784Y-36577D01*
X39827Y-36535D01*
X39849Y-36479D01*
X39850Y-36420D01*
X39850Y-36350D01*
X39917Y-36350D01*
X40767Y-37200D01*
X40610Y-37199D01*
X40445Y-37268D01*
X40318Y-37394D01*
X40250Y-37560D01*
X40249Y-37739D01*
X40318Y-37904D01*
X40444Y-38031D01*
X40610Y-38099D01*
X40789Y-38100D01*
X40954Y-38031D01*
X41000Y-37986D01*
X41000Y-38150D01*
X41015Y-38226D01*
X41058Y-38291D01*
X41272Y-38505D01*
X41250Y-38560D01*
X41249Y-38739D01*
X41318Y-38904D01*
X41444Y-39031D01*
X41610Y-39099D01*
X41789Y-39100D01*
X41954Y-39031D01*
X42081Y-38905D01*
X42149Y-38739D01*
X42150Y-38560D01*
X42081Y-38395D01*
X41955Y-38268D01*
X41789Y-38200D01*
X41610Y-38199D01*
X41555Y-38222D01*
X41400Y-38067D01*
X41400Y-37986D01*
X41444Y-38031D01*
X41610Y-38099D01*
X41789Y-38100D01*
X41954Y-38031D01*
X42000Y-37986D01*
X42000Y-38150D01*
X42015Y-38226D01*
X42058Y-38291D01*
X42272Y-38505D01*
X42250Y-38560D01*
X42249Y-38739D01*
X42318Y-38904D01*
X42444Y-39031D01*
X42610Y-39099D01*
X42789Y-39100D01*
X42954Y-39031D01*
X43081Y-38905D01*
X43149Y-38739D01*
X43150Y-38560D01*
X43081Y-38395D01*
X42955Y-38268D01*
X42789Y-38200D01*
X42610Y-38199D01*
X42555Y-38222D01*
X42400Y-38067D01*
X42400Y-37986D01*
X42444Y-38031D01*
X42610Y-38099D01*
X42789Y-38100D01*
X42954Y-38031D01*
X43000Y-37986D01*
X43000Y-38200D01*
X43015Y-38276D01*
X43058Y-38341D01*
X43258Y-38540D01*
X43250Y-38560D01*
X43249Y-38739D01*
X43318Y-38904D01*
X43444Y-39031D01*
X43610Y-39099D01*
X43789Y-39100D01*
X43954Y-39031D01*
X44006Y-38980D01*
X44015Y-39026D01*
X44058Y-39091D01*
X44649Y-39682D01*
X44649Y-40179D01*
X44672Y-40234D01*
X44714Y-40277D01*
X44770Y-40299D01*
X44829Y-40300D01*
X45629Y-40300D01*
X45684Y-40277D01*
X45727Y-40235D01*
X45749Y-40179D01*
X45750Y-40120D01*
X45750Y-39520D01*
X45727Y-39465D01*
X45685Y-39422D01*
X45629Y-39400D01*
X45570Y-39399D01*
X44932Y-39399D01*
X44632Y-39099D01*
X44789Y-39100D01*
X44954Y-39031D01*
X45081Y-38905D01*
X45149Y-38739D01*
X45150Y-38560D01*
X45112Y-38470D01*
X45341Y-38241D01*
X45384Y-38176D01*
X45384Y-38176D01*
X45387Y-38163D01*
X45399Y-38100D01*
X45400Y-38100D01*
X45400Y-37986D01*
X45444Y-38031D01*
X45610Y-38099D01*
X45789Y-38100D01*
X45954Y-38031D01*
X46000Y-37986D01*
X46000Y-38017D01*
X45809Y-38208D01*
X45789Y-38200D01*
X45610Y-38199D01*
X45445Y-38268D01*
X45318Y-38394D01*
X45250Y-38560D01*
X45249Y-38739D01*
X45318Y-38904D01*
X45444Y-39031D01*
X45610Y-39099D01*
X45789Y-39100D01*
X45954Y-39031D01*
X46081Y-38905D01*
X46149Y-38739D01*
X46150Y-38560D01*
X46112Y-38470D01*
X46341Y-38241D01*
X46384Y-38176D01*
X46384Y-38176D01*
X46387Y-38163D01*
X46399Y-38100D01*
X46400Y-38100D01*
X46400Y-37986D01*
X46444Y-38031D01*
X46610Y-38099D01*
X46789Y-38100D01*
X46954Y-38031D01*
X47000Y-37986D01*
X47000Y-38067D01*
X46844Y-38222D01*
X46789Y-38200D01*
X46610Y-38199D01*
X46445Y-38268D01*
X46318Y-38394D01*
X46250Y-38560D01*
X46249Y-38739D01*
X46318Y-38904D01*
X46444Y-39031D01*
X46610Y-39099D01*
X46789Y-39100D01*
X46954Y-39031D01*
X47081Y-38905D01*
X47149Y-38739D01*
X47150Y-38560D01*
X47127Y-38505D01*
X47341Y-38291D01*
X47384Y-38226D01*
X47384Y-38226D01*
X47387Y-38213D01*
X47399Y-38150D01*
X47400Y-38150D01*
X47400Y-37986D01*
X47444Y-38031D01*
X47610Y-38099D01*
X47789Y-38100D01*
X47954Y-38031D01*
X48081Y-37905D01*
X48149Y-37739D01*
X48149Y-37663D01*
X48156Y-37786D01*
X48218Y-37937D01*
X48314Y-37965D01*
X48629Y-37650D01*
X48314Y-37334D01*
X48218Y-37362D01*
X48148Y-37557D01*
X48081Y-37395D01*
X47955Y-37268D01*
X47789Y-37200D01*
X47610Y-37199D01*
X47445Y-37268D01*
X47400Y-37313D01*
X47400Y-37232D01*
X47532Y-37100D01*
X48550Y-37100D01*
X48626Y-37084D01*
X48691Y-37041D01*
X49132Y-36600D01*
X49729Y-36600D01*
X49784Y-36577D01*
X49827Y-36535D01*
X49849Y-36479D01*
X49850Y-36420D01*
X49850Y-35820D01*
X49827Y-35765D01*
X49812Y-35750D01*
X50100Y-35750D01*
X50100Y-38350D01*
X50100Y-38400D01*
X49254Y-38400D01*
X49254Y-37731D01*
X49243Y-37513D01*
X49181Y-37362D01*
X49085Y-37334D01*
X49015Y-37405D01*
X49015Y-37264D01*
X48987Y-37168D01*
X48781Y-37095D01*
X48563Y-37106D01*
X48412Y-37168D01*
X48384Y-37264D01*
X48700Y-37579D01*
X49015Y-37264D01*
X49015Y-37405D01*
X48770Y-37650D01*
X49085Y-37965D01*
X49181Y-37937D01*
X49254Y-37731D01*
X49254Y-38400D01*
X49083Y-38400D01*
X49081Y-38395D01*
X48955Y-38268D01*
X48789Y-38200D01*
X48713Y-38200D01*
X48836Y-38193D01*
X48987Y-38131D01*
X49015Y-38035D01*
X48700Y-37720D01*
X48384Y-38035D01*
X48412Y-38131D01*
X48607Y-38201D01*
X48445Y-38268D01*
X48318Y-38394D01*
X48250Y-38560D01*
X48249Y-38739D01*
X48269Y-38786D01*
X48149Y-38667D01*
X48150Y-38560D01*
X48081Y-38395D01*
X47955Y-38268D01*
X47789Y-38200D01*
X47610Y-38199D01*
X47445Y-38268D01*
X47318Y-38394D01*
X47250Y-38560D01*
X47249Y-38739D01*
X47318Y-38904D01*
X47444Y-39031D01*
X47610Y-39099D01*
X47789Y-39100D01*
X47950Y-39033D01*
X48908Y-39991D01*
X48908Y-39991D01*
X48949Y-40019D01*
X48949Y-40179D01*
X48965Y-40216D01*
X48954Y-40219D01*
X48873Y-40273D01*
X48873Y-40273D01*
X48523Y-40623D01*
X48469Y-40704D01*
X48450Y-40800D01*
X48450Y-41250D01*
X48450Y-41675D01*
X48417Y-41642D01*
X48375Y-41625D01*
X48375Y-41525D01*
X48362Y-41461D01*
X48359Y-41448D01*
X48359Y-41448D01*
X48350Y-41433D01*
X48350Y-41433D01*
X48350Y-41420D01*
X48350Y-40820D01*
X48327Y-40765D01*
X48285Y-40722D01*
X48229Y-40700D01*
X48170Y-40699D01*
X48059Y-40699D01*
X48075Y-40684D01*
X48124Y-40564D01*
X48125Y-40435D01*
X48075Y-40316D01*
X48059Y-40300D01*
X48229Y-40300D01*
X48284Y-40277D01*
X48327Y-40235D01*
X48349Y-40179D01*
X48350Y-40120D01*
X48350Y-39520D01*
X48327Y-39465D01*
X48285Y-39422D01*
X48229Y-39400D01*
X48170Y-39399D01*
X47370Y-39399D01*
X47315Y-39422D01*
X47272Y-39464D01*
X47250Y-39520D01*
X47249Y-39579D01*
X47249Y-40179D01*
X47272Y-40234D01*
X47314Y-40277D01*
X47370Y-40299D01*
X47429Y-40300D01*
X47540Y-40300D01*
X47524Y-40315D01*
X47475Y-40435D01*
X47474Y-40564D01*
X47524Y-40683D01*
X47540Y-40699D01*
X47370Y-40699D01*
X47315Y-40722D01*
X47272Y-40764D01*
X47250Y-40820D01*
X47249Y-40879D01*
X47249Y-41479D01*
X47272Y-41534D01*
X47314Y-41577D01*
X47370Y-41599D01*
X47429Y-41600D01*
X47967Y-41600D01*
X47975Y-41607D01*
X47975Y-41625D01*
X47932Y-41642D01*
X47890Y-41684D01*
X47867Y-41740D01*
X47867Y-41799D01*
X47867Y-42150D01*
X47732Y-42150D01*
X47732Y-42134D01*
X47732Y-41740D01*
X47709Y-41685D01*
X47667Y-41642D01*
X47612Y-41620D01*
X47552Y-41619D01*
X47237Y-41619D01*
X47182Y-41642D01*
X47149Y-41675D01*
X47117Y-41642D01*
X47075Y-41625D01*
X47075Y-41525D01*
X47062Y-41461D01*
X47059Y-41448D01*
X47059Y-41448D01*
X47050Y-41433D01*
X47050Y-41433D01*
X47050Y-41420D01*
X47050Y-40820D01*
X47027Y-40765D01*
X46985Y-40722D01*
X46929Y-40700D01*
X46870Y-40699D01*
X46759Y-40699D01*
X46775Y-40684D01*
X46824Y-40564D01*
X46825Y-40435D01*
X46775Y-40316D01*
X46759Y-40300D01*
X46929Y-40300D01*
X46984Y-40277D01*
X47027Y-40235D01*
X47049Y-40179D01*
X47050Y-40120D01*
X47050Y-39520D01*
X47027Y-39465D01*
X46985Y-39422D01*
X46929Y-39400D01*
X46870Y-39399D01*
X46070Y-39399D01*
X46015Y-39422D01*
X45972Y-39464D01*
X45950Y-39520D01*
X45949Y-39579D01*
X45949Y-40179D01*
X45972Y-40234D01*
X46014Y-40277D01*
X46070Y-40299D01*
X46129Y-40300D01*
X46240Y-40300D01*
X46224Y-40315D01*
X46175Y-40435D01*
X46174Y-40564D01*
X46224Y-40683D01*
X46240Y-40699D01*
X46070Y-40699D01*
X46015Y-40722D01*
X45972Y-40764D01*
X45950Y-40820D01*
X45949Y-40879D01*
X45949Y-41479D01*
X45972Y-41534D01*
X46014Y-41577D01*
X46070Y-41599D01*
X46129Y-41600D01*
X46667Y-41600D01*
X46675Y-41607D01*
X46675Y-41625D01*
X46632Y-41642D01*
X46590Y-41684D01*
X46567Y-41740D01*
X46567Y-41799D01*
X46567Y-42150D01*
X46432Y-42150D01*
X46432Y-42134D01*
X46432Y-41740D01*
X46409Y-41685D01*
X46367Y-41642D01*
X46312Y-41620D01*
X46252Y-41619D01*
X45937Y-41619D01*
X45882Y-41642D01*
X45849Y-41675D01*
X45817Y-41642D01*
X45775Y-41625D01*
X45775Y-41525D01*
X45762Y-41461D01*
X45759Y-41448D01*
X45759Y-41448D01*
X45750Y-41433D01*
X45750Y-41433D01*
X45750Y-41420D01*
X45750Y-40820D01*
X45727Y-40765D01*
X45685Y-40722D01*
X45629Y-40700D01*
X45570Y-40699D01*
X44770Y-40699D01*
X44715Y-40722D01*
X44672Y-40764D01*
X44650Y-40820D01*
X44649Y-40879D01*
X44649Y-41479D01*
X44672Y-41534D01*
X44714Y-41577D01*
X44770Y-41599D01*
X44829Y-41600D01*
X45367Y-41600D01*
X45375Y-41607D01*
X45375Y-41625D01*
X45332Y-41642D01*
X45290Y-41684D01*
X45267Y-41740D01*
X45267Y-41799D01*
X45267Y-42150D01*
X45132Y-42150D01*
X45132Y-42134D01*
X45132Y-41740D01*
X45109Y-41685D01*
X45067Y-41642D01*
X45012Y-41620D01*
X44952Y-41619D01*
X44637Y-41619D01*
X44582Y-41642D01*
X44549Y-41675D01*
X44517Y-41642D01*
X44475Y-41625D01*
X44475Y-41525D01*
X44462Y-41461D01*
X44459Y-41448D01*
X44459Y-41448D01*
X44450Y-41433D01*
X44450Y-41433D01*
X44450Y-41420D01*
X44450Y-40820D01*
X44427Y-40765D01*
X44385Y-40722D01*
X44329Y-40700D01*
X44270Y-40699D01*
X44159Y-40699D01*
X44175Y-40684D01*
X44224Y-40564D01*
X44225Y-40435D01*
X44175Y-40316D01*
X44159Y-40300D01*
X44329Y-40300D01*
X44384Y-40277D01*
X44427Y-40235D01*
X44449Y-40179D01*
X44450Y-40120D01*
X44450Y-39520D01*
X44427Y-39465D01*
X44385Y-39422D01*
X44329Y-39400D01*
X44270Y-39399D01*
X43470Y-39399D01*
X43415Y-39422D01*
X43372Y-39464D01*
X43350Y-39520D01*
X43349Y-39579D01*
X43349Y-40179D01*
X43372Y-40234D01*
X43414Y-40277D01*
X43470Y-40299D01*
X43529Y-40300D01*
X43640Y-40300D01*
X43624Y-40315D01*
X43575Y-40435D01*
X43574Y-40564D01*
X43624Y-40683D01*
X43640Y-40699D01*
X43470Y-40699D01*
X43415Y-40722D01*
X43372Y-40764D01*
X43350Y-40820D01*
X43349Y-40879D01*
X43349Y-41479D01*
X43372Y-41534D01*
X43414Y-41577D01*
X43470Y-41599D01*
X43529Y-41600D01*
X44067Y-41600D01*
X44075Y-41607D01*
X44075Y-41625D01*
X44032Y-41642D01*
X43990Y-41684D01*
X43967Y-41740D01*
X43967Y-41799D01*
X43967Y-42150D01*
X43832Y-42150D01*
X43832Y-42134D01*
X43832Y-41740D01*
X43809Y-41685D01*
X43767Y-41642D01*
X43712Y-41620D01*
X43652Y-41619D01*
X43337Y-41619D01*
X43282Y-41642D01*
X43249Y-41675D01*
X43217Y-41642D01*
X43175Y-41625D01*
X43175Y-41525D01*
X43162Y-41461D01*
X43159Y-41448D01*
X43159Y-41448D01*
X43150Y-41433D01*
X43150Y-41433D01*
X43150Y-41420D01*
X43150Y-40820D01*
X43127Y-40765D01*
X43085Y-40722D01*
X43029Y-40700D01*
X42970Y-40699D01*
X42859Y-40699D01*
X42875Y-40684D01*
X42924Y-40564D01*
X42925Y-40435D01*
X42875Y-40316D01*
X42859Y-40300D01*
X43029Y-40300D01*
X43084Y-40277D01*
X43127Y-40235D01*
X43149Y-40179D01*
X43150Y-40120D01*
X43150Y-39520D01*
X43127Y-39465D01*
X43085Y-39422D01*
X43029Y-39400D01*
X42970Y-39399D01*
X42170Y-39399D01*
X42115Y-39422D01*
X42072Y-39464D01*
X42050Y-39520D01*
X42049Y-39579D01*
X42049Y-40179D01*
X42072Y-40234D01*
X42114Y-40277D01*
X42170Y-40299D01*
X42229Y-40300D01*
X42340Y-40300D01*
X42324Y-40315D01*
X42275Y-40435D01*
X42274Y-40564D01*
X42324Y-40683D01*
X42340Y-40699D01*
X42170Y-40699D01*
X42115Y-40722D01*
X42072Y-40764D01*
X42050Y-40820D01*
X42049Y-40879D01*
X42049Y-41479D01*
X42072Y-41534D01*
X42114Y-41577D01*
X42170Y-41599D01*
X42229Y-41600D01*
X42767Y-41600D01*
X42775Y-41607D01*
X42775Y-41625D01*
X42732Y-41642D01*
X42690Y-41684D01*
X42667Y-41740D01*
X42667Y-41799D01*
X42667Y-42150D01*
X42532Y-42150D01*
X42532Y-42134D01*
X42532Y-41740D01*
X42509Y-41685D01*
X42467Y-41642D01*
X42412Y-41620D01*
X42352Y-41619D01*
X42037Y-41619D01*
X41982Y-41642D01*
X41949Y-41675D01*
X41917Y-41642D01*
X41875Y-41625D01*
X41875Y-41525D01*
X41862Y-41461D01*
X41859Y-41448D01*
X41859Y-41448D01*
X41850Y-41433D01*
X41850Y-41433D01*
X41850Y-41420D01*
X41850Y-40820D01*
X41827Y-40765D01*
X41785Y-40722D01*
X41729Y-40700D01*
X41670Y-40699D01*
X41559Y-40699D01*
X41575Y-40684D01*
X41624Y-40564D01*
X41625Y-40435D01*
X41575Y-40316D01*
X41559Y-40300D01*
X41729Y-40300D01*
X41784Y-40277D01*
X41827Y-40235D01*
X41849Y-40179D01*
X41850Y-40120D01*
X41850Y-39520D01*
X41827Y-39465D01*
X41785Y-39422D01*
X41729Y-39400D01*
X41670Y-39399D01*
X40870Y-39399D01*
X40815Y-39422D01*
X40772Y-39464D01*
X40750Y-39520D01*
X40749Y-39579D01*
X40749Y-40179D01*
X40772Y-40234D01*
X40814Y-40277D01*
X40870Y-40299D01*
X40929Y-40300D01*
X41040Y-40300D01*
X41024Y-40315D01*
X40975Y-40435D01*
X40974Y-40564D01*
X41024Y-40683D01*
X41040Y-40699D01*
X40870Y-40699D01*
X40815Y-40722D01*
X40772Y-40764D01*
X40750Y-40820D01*
X40749Y-40879D01*
X40749Y-41479D01*
X40772Y-41534D01*
X40814Y-41577D01*
X40870Y-41599D01*
X40929Y-41600D01*
X41467Y-41600D01*
X41475Y-41607D01*
X41475Y-41625D01*
X41432Y-41642D01*
X41390Y-41684D01*
X41367Y-41740D01*
X41367Y-41799D01*
X41367Y-42150D01*
X41232Y-42150D01*
X41232Y-42134D01*
X41232Y-41740D01*
X41209Y-41685D01*
X41167Y-41642D01*
X41112Y-41620D01*
X41052Y-41619D01*
X40737Y-41619D01*
X40682Y-41642D01*
X40649Y-41675D01*
X40617Y-41642D01*
X40575Y-41625D01*
X40575Y-41525D01*
X40562Y-41461D01*
X40559Y-41448D01*
X40559Y-41448D01*
X40550Y-41433D01*
X40550Y-41433D01*
X40550Y-41420D01*
X40550Y-40820D01*
X40527Y-40765D01*
X40485Y-40722D01*
X40429Y-40700D01*
X40370Y-40699D01*
X40259Y-40699D01*
X40275Y-40684D01*
X40324Y-40564D01*
X40325Y-40435D01*
X40275Y-40316D01*
X40259Y-40300D01*
X40429Y-40300D01*
X40484Y-40277D01*
X40527Y-40235D01*
X40549Y-40179D01*
X40550Y-40120D01*
X40550Y-39520D01*
X40527Y-39465D01*
X40485Y-39422D01*
X40429Y-39400D01*
X40370Y-39399D01*
X39570Y-39399D01*
X39515Y-39422D01*
X39472Y-39464D01*
X39450Y-39520D01*
X39449Y-39579D01*
X39449Y-40179D01*
X39472Y-40234D01*
X39514Y-40277D01*
X39570Y-40299D01*
X39629Y-40300D01*
X39740Y-40300D01*
X39724Y-40315D01*
X39675Y-40435D01*
X39674Y-40564D01*
X39724Y-40683D01*
X39740Y-40699D01*
X39570Y-40699D01*
X39515Y-40722D01*
X39472Y-40764D01*
X39450Y-40820D01*
X39449Y-40879D01*
X39449Y-41479D01*
X39472Y-41534D01*
X39514Y-41577D01*
X39570Y-41599D01*
X39629Y-41600D01*
X40167Y-41600D01*
X40175Y-41607D01*
X40175Y-41625D01*
X40132Y-41642D01*
X40090Y-41684D01*
X40067Y-41740D01*
X40067Y-41799D01*
X40067Y-42150D01*
X39932Y-42150D01*
X39932Y-42134D01*
X39932Y-41740D01*
X39909Y-41685D01*
X39867Y-41642D01*
X39812Y-41620D01*
X39752Y-41619D01*
X39437Y-41619D01*
X39382Y-41642D01*
X39349Y-41675D01*
X39317Y-41642D01*
X39275Y-41625D01*
X39275Y-41525D01*
X39262Y-41461D01*
X39259Y-41448D01*
X39259Y-41448D01*
X39250Y-41433D01*
X39250Y-41433D01*
X39250Y-41420D01*
X39250Y-40820D01*
X39227Y-40765D01*
X39185Y-40722D01*
X39129Y-40700D01*
X39070Y-40699D01*
X39039Y-40699D01*
X39074Y-40614D01*
X39075Y-40485D01*
X39025Y-40366D01*
X38959Y-40300D01*
X39129Y-40300D01*
X39184Y-40277D01*
X39227Y-40235D01*
X39249Y-40179D01*
X39250Y-40120D01*
X39250Y-39520D01*
X39227Y-39465D01*
X39185Y-39422D01*
X39129Y-39400D01*
X39070Y-39399D01*
X38270Y-39399D01*
X38215Y-39422D01*
X38172Y-39464D01*
X38150Y-39520D01*
X38149Y-39579D01*
X38149Y-40179D01*
X38172Y-40234D01*
X38214Y-40277D01*
X38270Y-40299D01*
X38329Y-40300D01*
X38500Y-40300D01*
X38500Y-40340D01*
X38474Y-40365D01*
X38425Y-40485D01*
X38424Y-40614D01*
X38460Y-40699D01*
X38270Y-40699D01*
X38215Y-40722D01*
X38172Y-40764D01*
X38150Y-40820D01*
X38149Y-40879D01*
X38149Y-41479D01*
X38172Y-41534D01*
X38214Y-41577D01*
X38270Y-41599D01*
X38329Y-41600D01*
X38867Y-41600D01*
X38875Y-41607D01*
X38875Y-41625D01*
X38832Y-41642D01*
X38790Y-41684D01*
X38767Y-41740D01*
X38767Y-41799D01*
X38767Y-42150D01*
X38632Y-42150D01*
X38632Y-42134D01*
X38632Y-41740D01*
X38609Y-41685D01*
X38567Y-41642D01*
X38512Y-41620D01*
X38452Y-41619D01*
X38137Y-41619D01*
X38082Y-41642D01*
X38040Y-41684D01*
X38017Y-41740D01*
X38017Y-41799D01*
X38017Y-42193D01*
X38040Y-42248D01*
X38075Y-42283D01*
X38075Y-42325D01*
X38094Y-42420D01*
X38148Y-42501D01*
X38223Y-42576D01*
X38223Y-42576D01*
X38304Y-42630D01*
X38304Y-42630D01*
X38392Y-42648D01*
X38392Y-42665D01*
X38392Y-43059D01*
X38409Y-43099D01*
X38270Y-43099D01*
X38215Y-43122D01*
X38172Y-43164D01*
X38150Y-43220D01*
X38149Y-43279D01*
X38149Y-43879D01*
X38172Y-43934D01*
X38214Y-43977D01*
X38270Y-43999D01*
X38329Y-44000D01*
X38440Y-44000D01*
X38424Y-44015D01*
X38375Y-44135D01*
X38374Y-44264D01*
X38424Y-44383D01*
X38440Y-44399D01*
X38270Y-44399D01*
X38215Y-44422D01*
X38172Y-44464D01*
X38150Y-44520D01*
X38149Y-44579D01*
X38149Y-45179D01*
X38172Y-45234D01*
X38214Y-45277D01*
X38270Y-45299D01*
X38329Y-45300D01*
X39129Y-45300D01*
X39184Y-45277D01*
X39227Y-45235D01*
X39249Y-45179D01*
X39250Y-45120D01*
X39250Y-44520D01*
X39227Y-44465D01*
X39185Y-44422D01*
X39129Y-44400D01*
X39070Y-44399D01*
X38959Y-44399D01*
X38975Y-44384D01*
X39024Y-44264D01*
X39025Y-44135D01*
X38975Y-44016D01*
X38959Y-44000D01*
X39129Y-44000D01*
X39184Y-43977D01*
X39227Y-43935D01*
X39249Y-43879D01*
X39250Y-43820D01*
X39250Y-43220D01*
X39227Y-43165D01*
X39185Y-43122D01*
X39129Y-43100D01*
X39070Y-43099D01*
X38990Y-43099D01*
X39007Y-43059D01*
X39007Y-43000D01*
X39007Y-42650D01*
X39600Y-42650D01*
X39692Y-42650D01*
X39692Y-42665D01*
X39692Y-43059D01*
X39709Y-43099D01*
X39570Y-43099D01*
X39515Y-43122D01*
X39472Y-43164D01*
X39450Y-43220D01*
X39449Y-43279D01*
X39449Y-43879D01*
X39472Y-43934D01*
X39514Y-43977D01*
X39570Y-43999D01*
X39629Y-44000D01*
X39740Y-44000D01*
X39724Y-44015D01*
X39675Y-44135D01*
X39674Y-44264D01*
X39724Y-44383D01*
X39740Y-44399D01*
X39570Y-44399D01*
X39515Y-44422D01*
X39472Y-44464D01*
X39450Y-44520D01*
X39449Y-44579D01*
X39449Y-45179D01*
X39472Y-45234D01*
X39514Y-45277D01*
X39570Y-45299D01*
X39629Y-45300D01*
X40429Y-45300D01*
X40484Y-45277D01*
X40527Y-45235D01*
X40549Y-45179D01*
X40550Y-45120D01*
X40550Y-44520D01*
X40527Y-44465D01*
X40485Y-44422D01*
X40429Y-44400D01*
X40370Y-44399D01*
X40259Y-44399D01*
X40275Y-44384D01*
X40324Y-44264D01*
X40325Y-44135D01*
X40275Y-44016D01*
X40259Y-44000D01*
X40429Y-44000D01*
X40484Y-43977D01*
X40527Y-43935D01*
X40549Y-43879D01*
X40550Y-43820D01*
X40550Y-43220D01*
X40527Y-43165D01*
X40485Y-43122D01*
X40429Y-43100D01*
X40370Y-43099D01*
X40290Y-43099D01*
X40307Y-43059D01*
X40307Y-43000D01*
X40307Y-42650D01*
X40900Y-42650D01*
X40992Y-42650D01*
X40992Y-42665D01*
X40992Y-43059D01*
X41009Y-43099D01*
X40870Y-43099D01*
X40815Y-43122D01*
X40772Y-43164D01*
X40750Y-43220D01*
X40749Y-43279D01*
X40749Y-43879D01*
X40772Y-43934D01*
X40814Y-43977D01*
X40870Y-43999D01*
X40929Y-44000D01*
X41040Y-44000D01*
X41024Y-44015D01*
X40975Y-44135D01*
X40974Y-44264D01*
X41024Y-44383D01*
X41040Y-44399D01*
X40870Y-44399D01*
X40815Y-44422D01*
X40772Y-44464D01*
X40750Y-44520D01*
X40749Y-44579D01*
X40749Y-45179D01*
X40772Y-45234D01*
X40814Y-45277D01*
X40870Y-45299D01*
X40929Y-45300D01*
X41729Y-45300D01*
X41784Y-45277D01*
X41827Y-45235D01*
X41849Y-45179D01*
X41850Y-45120D01*
X41850Y-44520D01*
X41827Y-44465D01*
X41785Y-44422D01*
X41729Y-44400D01*
X41670Y-44399D01*
X41559Y-44399D01*
X41575Y-44384D01*
X41624Y-44264D01*
X41625Y-44135D01*
X41575Y-44016D01*
X41559Y-44000D01*
X41729Y-44000D01*
X41784Y-43977D01*
X41827Y-43935D01*
X41849Y-43879D01*
X41850Y-43820D01*
X41850Y-43220D01*
X41827Y-43165D01*
X41785Y-43122D01*
X41729Y-43100D01*
X41670Y-43099D01*
X41590Y-43099D01*
X41607Y-43059D01*
X41607Y-43000D01*
X41607Y-42650D01*
X42200Y-42650D01*
X42292Y-42650D01*
X42292Y-42665D01*
X42292Y-43059D01*
X42309Y-43099D01*
X42170Y-43099D01*
X42115Y-43122D01*
X42072Y-43164D01*
X42050Y-43220D01*
X42049Y-43279D01*
X42049Y-43879D01*
X42072Y-43934D01*
X42114Y-43977D01*
X42170Y-43999D01*
X42229Y-44000D01*
X42340Y-44000D01*
X42324Y-44015D01*
X42275Y-44135D01*
X42274Y-44264D01*
X42324Y-44383D01*
X42340Y-44399D01*
X42170Y-44399D01*
X42115Y-44422D01*
X42072Y-44464D01*
X42050Y-44520D01*
X42049Y-44579D01*
X42049Y-45179D01*
X42072Y-45234D01*
X42114Y-45277D01*
X42170Y-45299D01*
X42229Y-45300D01*
X43029Y-45300D01*
X43084Y-45277D01*
X43127Y-45235D01*
X43149Y-45179D01*
X43150Y-45120D01*
X43150Y-44520D01*
X43127Y-44465D01*
X43085Y-44422D01*
X43029Y-44400D01*
X42970Y-44399D01*
X42859Y-44399D01*
X42875Y-44384D01*
X42924Y-44264D01*
X42925Y-44135D01*
X42875Y-44016D01*
X42859Y-44000D01*
X43029Y-44000D01*
X43084Y-43977D01*
X43127Y-43935D01*
X43149Y-43879D01*
X43150Y-43820D01*
X43150Y-43220D01*
X43127Y-43165D01*
X43085Y-43122D01*
X43029Y-43100D01*
X42970Y-43099D01*
X42890Y-43099D01*
X42907Y-43059D01*
X42907Y-43000D01*
X42907Y-42650D01*
X43500Y-42650D01*
X43592Y-42650D01*
X43592Y-42665D01*
X43592Y-43059D01*
X43609Y-43099D01*
X43470Y-43099D01*
X43415Y-43122D01*
X43372Y-43164D01*
X43350Y-43220D01*
X43349Y-43279D01*
X43349Y-43879D01*
X43372Y-43934D01*
X43414Y-43977D01*
X43470Y-43999D01*
X43529Y-44000D01*
X43640Y-44000D01*
X43624Y-44015D01*
X43575Y-44135D01*
X43574Y-44264D01*
X43624Y-44383D01*
X43640Y-44399D01*
X43470Y-44399D01*
X43415Y-44422D01*
X43372Y-44464D01*
X43350Y-44520D01*
X43349Y-44579D01*
X43349Y-45179D01*
X43372Y-45234D01*
X43414Y-45277D01*
X43470Y-45299D01*
X43529Y-45300D01*
X44329Y-45300D01*
X44384Y-45277D01*
X44427Y-45235D01*
X44449Y-45179D01*
X44450Y-45120D01*
X44450Y-44520D01*
X44427Y-44465D01*
X44385Y-44422D01*
X44329Y-44400D01*
X44270Y-44399D01*
X44159Y-44399D01*
X44175Y-44384D01*
X44224Y-44264D01*
X44225Y-44135D01*
X44175Y-44016D01*
X44159Y-44000D01*
X44329Y-44000D01*
X44384Y-43977D01*
X44427Y-43935D01*
X44449Y-43879D01*
X44450Y-43820D01*
X44450Y-43220D01*
X44427Y-43165D01*
X44385Y-43122D01*
X44329Y-43100D01*
X44270Y-43099D01*
X44190Y-43099D01*
X44207Y-43059D01*
X44207Y-43000D01*
X44207Y-42650D01*
X44800Y-42650D01*
X44892Y-42650D01*
X44892Y-42665D01*
X44892Y-43059D01*
X44909Y-43099D01*
X44770Y-43099D01*
X44715Y-43122D01*
X44672Y-43164D01*
X44650Y-43220D01*
X44649Y-43279D01*
X44649Y-43879D01*
X44672Y-43934D01*
X44714Y-43977D01*
X44770Y-43999D01*
X44829Y-44000D01*
X44940Y-44000D01*
X44924Y-44015D01*
X44875Y-44135D01*
X44874Y-44264D01*
X44924Y-44383D01*
X44940Y-44399D01*
X44770Y-44399D01*
X44715Y-44422D01*
X44672Y-44464D01*
X44650Y-44520D01*
X44649Y-44579D01*
X44649Y-45179D01*
X44672Y-45234D01*
X44714Y-45277D01*
X44770Y-45299D01*
X44829Y-45300D01*
X45629Y-45300D01*
X45684Y-45277D01*
X45727Y-45235D01*
X45749Y-45179D01*
X45750Y-45120D01*
X45750Y-44520D01*
X45727Y-44465D01*
X45685Y-44422D01*
X45629Y-44400D01*
X45570Y-44399D01*
X45459Y-44399D01*
X45475Y-44384D01*
X45524Y-44264D01*
X45525Y-44135D01*
X45475Y-44016D01*
X45459Y-44000D01*
X45629Y-44000D01*
X45684Y-43977D01*
X45727Y-43935D01*
X45749Y-43879D01*
X45750Y-43820D01*
X45750Y-43220D01*
X45727Y-43165D01*
X45685Y-43122D01*
X45629Y-43100D01*
X45570Y-43099D01*
X45490Y-43099D01*
X45507Y-43059D01*
X45507Y-43000D01*
X45507Y-42650D01*
X46100Y-42650D01*
X46192Y-42650D01*
X46192Y-42665D01*
X46192Y-43059D01*
X46209Y-43099D01*
X46070Y-43099D01*
X46015Y-43122D01*
X45972Y-43164D01*
X45950Y-43220D01*
X45949Y-43279D01*
X45949Y-43879D01*
X45972Y-43934D01*
X46014Y-43977D01*
X46070Y-43999D01*
X46129Y-44000D01*
X46240Y-44000D01*
X46224Y-44015D01*
X46175Y-44135D01*
X46174Y-44264D01*
X46224Y-44383D01*
X46240Y-44399D01*
X46070Y-44399D01*
X46015Y-44422D01*
X45972Y-44464D01*
X45950Y-44520D01*
X45949Y-44579D01*
X45949Y-45179D01*
X45972Y-45234D01*
X46014Y-45277D01*
X46070Y-45299D01*
X46129Y-45300D01*
X46929Y-45300D01*
X46984Y-45277D01*
X47027Y-45235D01*
X47049Y-45179D01*
X47050Y-45120D01*
X47050Y-44520D01*
X47027Y-44465D01*
X46985Y-44422D01*
X46929Y-44400D01*
X46870Y-44399D01*
X46759Y-44399D01*
X46775Y-44384D01*
X46824Y-44264D01*
X46825Y-44135D01*
X46775Y-44016D01*
X46759Y-44000D01*
X46929Y-44000D01*
X46984Y-43977D01*
X47027Y-43935D01*
X47049Y-43879D01*
X47050Y-43820D01*
X47050Y-43220D01*
X47027Y-43165D01*
X46985Y-43122D01*
X46929Y-43100D01*
X46870Y-43099D01*
X46790Y-43099D01*
X46807Y-43059D01*
X46807Y-43000D01*
X46807Y-42650D01*
X47425Y-42650D01*
X47492Y-42650D01*
X47492Y-42665D01*
X47492Y-43059D01*
X47509Y-43099D01*
X47370Y-43099D01*
X47315Y-43122D01*
X47272Y-43164D01*
X47250Y-43220D01*
X47249Y-43279D01*
X47249Y-43879D01*
X47272Y-43934D01*
X47314Y-43977D01*
X47370Y-43999D01*
X47429Y-44000D01*
X48229Y-44000D01*
X48284Y-43977D01*
X48327Y-43935D01*
X48349Y-43879D01*
X48350Y-43820D01*
X48350Y-43220D01*
X48327Y-43165D01*
X48285Y-43122D01*
X48229Y-43100D01*
X48170Y-43099D01*
X48090Y-43099D01*
X48107Y-43059D01*
X48107Y-43000D01*
X48107Y-42650D01*
X48700Y-42650D01*
X48925Y-42650D01*
X48942Y-42692D01*
X48984Y-42734D01*
X49040Y-42757D01*
X49099Y-42757D01*
X49493Y-42757D01*
X49548Y-42734D01*
X49552Y-42731D01*
X49558Y-42741D01*
X49783Y-42966D01*
X49785Y-42968D01*
X49785Y-43012D01*
X49808Y-43067D01*
X49850Y-43109D01*
X49906Y-43132D01*
X49965Y-43132D01*
X50359Y-43132D01*
X50414Y-43109D01*
X50457Y-43067D01*
X50479Y-43012D01*
X50480Y-42952D01*
X50480Y-42637D01*
X50457Y-42582D01*
X50415Y-42540D01*
X50359Y-42517D01*
X50300Y-42517D01*
X49906Y-42517D01*
X49902Y-42519D01*
X49900Y-42517D01*
X49900Y-42379D01*
X49906Y-42382D01*
X49965Y-42382D01*
X50359Y-42382D01*
X50414Y-42359D01*
X50457Y-42317D01*
X50474Y-42275D01*
X51725Y-42275D01*
X51801Y-42259D01*
X51866Y-42216D01*
X52235Y-41847D01*
X52250Y-41850D01*
X52326Y-41834D01*
X52391Y-41791D01*
X52434Y-41726D01*
X52450Y-41650D01*
X52450Y-41550D01*
X52450Y-35950D01*
X52579Y-35950D01*
X52634Y-35927D01*
X52677Y-35885D01*
X52699Y-35829D01*
X52700Y-35770D01*
X52700Y-35369D01*
X52741Y-35341D01*
X52784Y-35276D01*
X52800Y-35200D01*
X52784Y-35123D01*
X52741Y-35058D01*
X52700Y-35030D01*
X52700Y-34970D01*
X52677Y-34915D01*
X52635Y-34872D01*
X52579Y-34850D01*
X52520Y-34849D01*
X52300Y-34849D01*
X52300Y-33987D01*
X52300Y-33450D01*
X52300Y-33350D01*
X52300Y-32812D01*
X52237Y-32750D01*
X52000Y-32749D01*
X51908Y-32787D01*
X51838Y-32858D01*
X51800Y-32950D01*
X51799Y-33049D01*
X51800Y-33287D01*
X51862Y-33350D01*
X52300Y-33350D01*
X52300Y-33450D01*
X51862Y-33450D01*
X51800Y-33512D01*
X51799Y-33750D01*
X51800Y-33849D01*
X51838Y-33941D01*
X51908Y-34012D01*
X52000Y-34050D01*
X52237Y-34050D01*
X52300Y-33987D01*
X52300Y-34849D01*
X51920Y-34849D01*
X51865Y-34872D01*
X51822Y-34914D01*
X51800Y-34970D01*
X51799Y-35029D01*
X51799Y-35829D01*
X51822Y-35884D01*
X51864Y-35927D01*
X51920Y-35949D01*
X51979Y-35950D01*
X52050Y-35950D01*
X52050Y-41467D01*
X51642Y-41875D01*
X50474Y-41875D01*
X50457Y-41832D01*
X50415Y-41790D01*
X50359Y-41767D01*
X50300Y-41767D01*
X49906Y-41767D01*
X49860Y-41786D01*
X49841Y-41758D01*
X49841Y-41758D01*
X49700Y-41617D01*
X49700Y-41600D01*
X49929Y-41600D01*
X49984Y-41577D01*
X50027Y-41535D01*
X50049Y-41479D01*
X50050Y-41420D01*
X50050Y-40820D01*
X50027Y-40765D01*
X49985Y-40722D01*
X49929Y-40700D01*
X49900Y-40700D01*
X50150Y-40700D01*
X50245Y-40680D01*
X50326Y-40626D01*
X50526Y-40426D01*
X50526Y-40426D01*
X50526Y-40426D01*
X50559Y-40378D01*
X50580Y-40345D01*
X50580Y-40345D01*
X50600Y-40250D01*
X50600Y-40150D01*
X50600Y-38650D01*
X50600Y-38400D01*
X50600Y-38350D01*
X50600Y-35750D01*
X50700Y-35750D01*
X50795Y-35730D01*
X50876Y-35676D01*
X51176Y-35376D01*
X51176Y-35376D01*
X51176Y-35376D01*
X51230Y-35295D01*
X51230Y-35295D01*
X51246Y-35219D01*
X51250Y-35200D01*
X51249Y-35200D01*
X51250Y-35200D01*
X51250Y-34809D01*
X51275Y-34784D01*
X51324Y-34664D01*
X51325Y-34535D01*
X51275Y-34416D01*
X51184Y-34324D01*
X51150Y-34310D01*
X51150Y-32720D01*
X51150Y-32120D01*
X51150Y-31420D01*
X51150Y-30820D01*
X51127Y-30765D01*
X51085Y-30722D01*
X51050Y-30708D01*
X51075Y-30684D01*
X51124Y-30564D01*
X51125Y-30435D01*
X51075Y-30316D01*
X50984Y-30224D01*
X50864Y-30175D01*
X50735Y-30174D01*
X50616Y-30224D01*
X50524Y-30315D01*
X50475Y-30435D01*
X50474Y-30542D01*
X50458Y-30558D01*
X50415Y-30623D01*
X50400Y-30699D01*
X50170Y-30699D01*
X50115Y-30722D01*
X50072Y-30764D01*
X50050Y-30820D01*
X50049Y-30879D01*
X50049Y-31479D01*
X50072Y-31534D01*
X50114Y-31577D01*
X50170Y-31599D01*
X50229Y-31600D01*
X51029Y-31600D01*
X51084Y-31577D01*
X51127Y-31535D01*
X51149Y-31479D01*
X51150Y-31420D01*
X51150Y-32120D01*
X51127Y-32065D01*
X51085Y-32022D01*
X51029Y-32000D01*
X50970Y-31999D01*
X50170Y-31999D01*
X50115Y-32022D01*
X50072Y-32064D01*
X50050Y-32120D01*
X50049Y-32179D01*
X50049Y-32250D01*
X49925Y-32250D01*
X49925Y-30885D01*
X49875Y-30766D01*
X49784Y-30674D01*
X49664Y-30625D01*
X49535Y-30624D01*
X49416Y-30674D01*
X49340Y-30750D01*
X49112Y-30750D01*
X49085Y-30722D01*
X49029Y-30700D01*
X48970Y-30699D01*
X48170Y-30699D01*
X48115Y-30722D01*
X48072Y-30764D01*
X48050Y-30820D01*
X48049Y-30879D01*
X48049Y-31479D01*
X48072Y-31534D01*
X48114Y-31577D01*
X48170Y-31599D01*
X48229Y-31600D01*
X49029Y-31600D01*
X49084Y-31577D01*
X49127Y-31535D01*
X49149Y-31479D01*
X49150Y-31420D01*
X49150Y-31150D01*
X49340Y-31150D01*
X49415Y-31225D01*
X49535Y-31274D01*
X49664Y-31275D01*
X49783Y-31225D01*
X49875Y-31134D01*
X49924Y-31014D01*
X49925Y-30885D01*
X49925Y-32250D01*
X49900Y-32250D01*
X49823Y-32265D01*
X49801Y-32279D01*
X49758Y-32308D01*
X49408Y-32658D01*
X49365Y-32723D01*
X49350Y-32800D01*
X49350Y-32917D01*
X49206Y-32917D01*
X49151Y-32940D01*
X49150Y-32941D01*
X49150Y-32720D01*
X49150Y-32120D01*
X49127Y-32065D01*
X49085Y-32022D01*
X49029Y-32000D01*
X48970Y-31999D01*
X48170Y-31999D01*
X48115Y-32022D01*
X48072Y-32064D01*
X48050Y-32120D01*
X48049Y-32179D01*
X48049Y-32250D01*
X47925Y-32250D01*
X47925Y-31035D01*
X47875Y-30916D01*
X47784Y-30824D01*
X47664Y-30775D01*
X47535Y-30774D01*
X47416Y-30824D01*
X47324Y-30915D01*
X47310Y-30950D01*
X47150Y-30950D01*
X47150Y-30820D01*
X47127Y-30765D01*
X47085Y-30722D01*
X47029Y-30700D01*
X46970Y-30699D01*
X46170Y-30699D01*
X46115Y-30722D01*
X46072Y-30764D01*
X46050Y-30820D01*
X46049Y-30879D01*
X46049Y-31479D01*
X46072Y-31534D01*
X46114Y-31577D01*
X46170Y-31599D01*
X46229Y-31600D01*
X47029Y-31600D01*
X47084Y-31577D01*
X47127Y-31535D01*
X47149Y-31479D01*
X47150Y-31420D01*
X47150Y-31350D01*
X47390Y-31350D01*
X47415Y-31375D01*
X47535Y-31424D01*
X47664Y-31425D01*
X47783Y-31375D01*
X47875Y-31284D01*
X47924Y-31164D01*
X47925Y-31035D01*
X47925Y-32250D01*
X47900Y-32250D01*
X47823Y-32265D01*
X47801Y-32279D01*
X47758Y-32308D01*
X47408Y-32658D01*
X47365Y-32723D01*
X47350Y-32800D01*
X47350Y-32917D01*
X47206Y-32917D01*
X47151Y-32940D01*
X47150Y-32941D01*
X47150Y-32720D01*
X47150Y-32120D01*
X47127Y-32065D01*
X47085Y-32022D01*
X47029Y-32000D01*
X46970Y-31999D01*
X46170Y-31999D01*
X46115Y-32022D01*
X46072Y-32064D01*
X46050Y-32120D01*
X46049Y-32179D01*
X46049Y-32250D01*
X45950Y-32250D01*
X45925Y-32254D01*
X45925Y-31135D01*
X45875Y-31016D01*
X45784Y-30924D01*
X45664Y-30875D01*
X45535Y-30874D01*
X45416Y-30924D01*
X45340Y-31000D01*
X45150Y-31000D01*
X45150Y-30820D01*
X45127Y-30765D01*
X45085Y-30722D01*
X45029Y-30700D01*
X44970Y-30699D01*
X44170Y-30699D01*
X44115Y-30722D01*
X44072Y-30764D01*
X44050Y-30820D01*
X44049Y-30879D01*
X44049Y-31479D01*
X44072Y-31534D01*
X44114Y-31577D01*
X44170Y-31599D01*
X44229Y-31600D01*
X45029Y-31600D01*
X45084Y-31577D01*
X45127Y-31535D01*
X45149Y-31479D01*
X45150Y-31420D01*
X45150Y-31400D01*
X45340Y-31400D01*
X45415Y-31475D01*
X45535Y-31524D01*
X45664Y-31525D01*
X45783Y-31475D01*
X45875Y-31384D01*
X45924Y-31264D01*
X45925Y-31135D01*
X45925Y-32254D01*
X45873Y-32265D01*
X45851Y-32279D01*
X45808Y-32308D01*
X45408Y-32708D01*
X45365Y-32773D01*
X45350Y-32850D01*
X45350Y-32917D01*
X45206Y-32917D01*
X45151Y-32940D01*
X45150Y-32941D01*
X45150Y-32720D01*
X45150Y-32120D01*
X45127Y-32065D01*
X45085Y-32022D01*
X45029Y-32000D01*
X44970Y-31999D01*
X44170Y-31999D01*
X44115Y-32022D01*
X44072Y-32064D01*
X44050Y-32120D01*
X44049Y-32179D01*
X44049Y-32250D01*
X43950Y-32250D01*
X43925Y-32254D01*
X43925Y-31135D01*
X43875Y-31016D01*
X43784Y-30924D01*
X43664Y-30875D01*
X43535Y-30874D01*
X43416Y-30924D01*
X43340Y-31000D01*
X43150Y-31000D01*
X43150Y-30820D01*
X43127Y-30765D01*
X43085Y-30722D01*
X43029Y-30700D01*
X42970Y-30699D01*
X42170Y-30699D01*
X42115Y-30722D01*
X42072Y-30764D01*
X42050Y-30820D01*
X42049Y-30879D01*
X42049Y-31479D01*
X42072Y-31534D01*
X42114Y-31577D01*
X42170Y-31599D01*
X42229Y-31600D01*
X43029Y-31600D01*
X43084Y-31577D01*
X43127Y-31535D01*
X43149Y-31479D01*
X43150Y-31420D01*
X43150Y-31400D01*
X43340Y-31400D01*
X43415Y-31475D01*
X43535Y-31524D01*
X43664Y-31525D01*
X43783Y-31475D01*
X43875Y-31384D01*
X43924Y-31264D01*
X43925Y-31135D01*
X43925Y-32254D01*
X43873Y-32265D01*
X43851Y-32279D01*
X43808Y-32308D01*
X43408Y-32708D01*
X43365Y-32773D01*
X43350Y-32850D01*
X43350Y-32917D01*
X43206Y-32917D01*
X43151Y-32940D01*
X43150Y-32941D01*
X43150Y-32720D01*
X43150Y-32120D01*
X43127Y-32065D01*
X43085Y-32022D01*
X43029Y-32000D01*
X42970Y-31999D01*
X42170Y-31999D01*
X42115Y-32022D01*
X42072Y-32064D01*
X42050Y-32120D01*
X42049Y-32179D01*
X42049Y-32250D01*
X41925Y-32250D01*
X41925Y-31135D01*
X41875Y-31016D01*
X41784Y-30924D01*
X41664Y-30875D01*
X41535Y-30874D01*
X41416Y-30924D01*
X41390Y-30950D01*
X41150Y-30950D01*
X41150Y-30820D01*
X41127Y-30765D01*
X41085Y-30722D01*
X41029Y-30700D01*
X40970Y-30699D01*
X40170Y-30699D01*
X40115Y-30722D01*
X40072Y-30764D01*
X40050Y-30820D01*
X40049Y-30879D01*
X40049Y-31479D01*
X40072Y-31534D01*
X40114Y-31577D01*
X40170Y-31599D01*
X40229Y-31600D01*
X41029Y-31600D01*
X41084Y-31577D01*
X41127Y-31535D01*
X41149Y-31479D01*
X41150Y-31420D01*
X41150Y-31350D01*
X41310Y-31350D01*
X41324Y-31383D01*
X41415Y-31475D01*
X41535Y-31524D01*
X41664Y-31525D01*
X41783Y-31475D01*
X41875Y-31384D01*
X41924Y-31264D01*
X41925Y-31135D01*
X41925Y-32250D01*
X41900Y-32250D01*
X41823Y-32265D01*
X41801Y-32279D01*
X41758Y-32308D01*
X41408Y-32658D01*
X41365Y-32723D01*
X41350Y-32800D01*
X41350Y-32917D01*
X41206Y-32917D01*
X41151Y-32940D01*
X41150Y-32941D01*
X41150Y-32720D01*
X41150Y-32120D01*
X41127Y-32065D01*
X41085Y-32022D01*
X41029Y-32000D01*
X40970Y-31999D01*
X40170Y-31999D01*
X40115Y-32022D01*
X40072Y-32064D01*
X40050Y-32120D01*
X40049Y-32179D01*
X40049Y-32250D01*
X39900Y-32250D01*
X39825Y-32264D01*
X39825Y-31135D01*
X39775Y-31016D01*
X39684Y-30924D01*
X39564Y-30875D01*
X39435Y-30874D01*
X39316Y-30924D01*
X39290Y-30950D01*
X39150Y-30950D01*
X39150Y-30820D01*
X39127Y-30765D01*
X39085Y-30722D01*
X39029Y-30700D01*
X38970Y-30699D01*
X38170Y-30699D01*
X38115Y-30722D01*
X38072Y-30764D01*
X38050Y-30820D01*
X38049Y-30879D01*
X38049Y-31479D01*
X38072Y-31534D01*
X38114Y-31577D01*
X38170Y-31599D01*
X38229Y-31600D01*
X39029Y-31600D01*
X39084Y-31577D01*
X39127Y-31535D01*
X39149Y-31479D01*
X39150Y-31420D01*
X39150Y-31350D01*
X39210Y-31350D01*
X39224Y-31383D01*
X39315Y-31475D01*
X39435Y-31524D01*
X39564Y-31525D01*
X39683Y-31475D01*
X39775Y-31384D01*
X39824Y-31264D01*
X39825Y-31135D01*
X39825Y-32264D01*
X39823Y-32265D01*
X39801Y-32279D01*
X39758Y-32308D01*
X39408Y-32658D01*
X39365Y-32723D01*
X39350Y-32800D01*
X39350Y-32917D01*
X39206Y-32917D01*
X39151Y-32940D01*
X39150Y-32941D01*
X39150Y-32720D01*
X39150Y-32120D01*
X39127Y-32065D01*
X39085Y-32022D01*
X39029Y-32000D01*
X38970Y-31999D01*
X38170Y-31999D01*
X38115Y-32022D01*
X38072Y-32064D01*
X38050Y-32120D01*
X38049Y-32179D01*
X38049Y-32250D01*
X38000Y-32250D01*
X37936Y-32262D01*
X37923Y-32265D01*
X37858Y-32308D01*
X37825Y-32342D01*
X37825Y-31135D01*
X37775Y-31016D01*
X37684Y-30924D01*
X37564Y-30875D01*
X37435Y-30874D01*
X37316Y-30924D01*
X37290Y-30950D01*
X36150Y-30950D01*
X36150Y-30820D01*
X36127Y-30765D01*
X36085Y-30722D01*
X36029Y-30700D01*
X35970Y-30699D01*
X35170Y-30699D01*
X35115Y-30722D01*
X35072Y-30764D01*
X35050Y-30820D01*
X35049Y-30879D01*
X35049Y-31479D01*
X35072Y-31534D01*
X35114Y-31577D01*
X35170Y-31599D01*
X35229Y-31600D01*
X36029Y-31600D01*
X36084Y-31577D01*
X36127Y-31535D01*
X36149Y-31479D01*
X36150Y-31420D01*
X36150Y-31350D01*
X37210Y-31350D01*
X37224Y-31383D01*
X37315Y-31475D01*
X37435Y-31524D01*
X37564Y-31525D01*
X37683Y-31475D01*
X37775Y-31384D01*
X37824Y-31264D01*
X37825Y-31135D01*
X37825Y-32342D01*
X37358Y-32808D01*
X37315Y-32873D01*
X37306Y-32917D01*
X37206Y-32917D01*
X37151Y-32940D01*
X37108Y-32982D01*
X37086Y-33037D01*
X37085Y-33097D01*
X37085Y-33412D01*
X37108Y-33467D01*
X37150Y-33509D01*
X37206Y-33532D01*
X37265Y-33532D01*
X37659Y-33532D01*
X37714Y-33509D01*
X37757Y-33467D01*
X37779Y-33412D01*
X37780Y-33352D01*
X37780Y-33037D01*
X37757Y-32982D01*
X37753Y-32979D01*
X38049Y-32682D01*
X38049Y-32779D01*
X38072Y-32834D01*
X38114Y-32877D01*
X38170Y-32899D01*
X38229Y-32900D01*
X39029Y-32900D01*
X39084Y-32877D01*
X39127Y-32835D01*
X39149Y-32779D01*
X39150Y-32720D01*
X39150Y-32941D01*
X39108Y-32982D01*
X39086Y-33037D01*
X39085Y-33097D01*
X39085Y-33412D01*
X39108Y-33467D01*
X39150Y-33509D01*
X39206Y-33532D01*
X39265Y-33532D01*
X39659Y-33532D01*
X39714Y-33509D01*
X39757Y-33467D01*
X39779Y-33412D01*
X39780Y-33352D01*
X39780Y-33037D01*
X39757Y-32982D01*
X39750Y-32975D01*
X39750Y-32882D01*
X39982Y-32650D01*
X40049Y-32650D01*
X40049Y-32779D01*
X40072Y-32834D01*
X40114Y-32877D01*
X40170Y-32899D01*
X40229Y-32900D01*
X41029Y-32900D01*
X41084Y-32877D01*
X41127Y-32835D01*
X41149Y-32779D01*
X41150Y-32720D01*
X41150Y-32941D01*
X41108Y-32982D01*
X41086Y-33037D01*
X41085Y-33097D01*
X41085Y-33412D01*
X41108Y-33467D01*
X41150Y-33509D01*
X41206Y-33532D01*
X41265Y-33532D01*
X41659Y-33532D01*
X41714Y-33509D01*
X41757Y-33467D01*
X41779Y-33412D01*
X41780Y-33352D01*
X41780Y-33037D01*
X41757Y-32982D01*
X41750Y-32975D01*
X41750Y-32882D01*
X41982Y-32650D01*
X42049Y-32650D01*
X42049Y-32779D01*
X42072Y-32834D01*
X42114Y-32877D01*
X42170Y-32899D01*
X42229Y-32900D01*
X43029Y-32900D01*
X43084Y-32877D01*
X43127Y-32835D01*
X43149Y-32779D01*
X43150Y-32720D01*
X43150Y-32941D01*
X43108Y-32982D01*
X43086Y-33037D01*
X43085Y-33097D01*
X43085Y-33412D01*
X43108Y-33467D01*
X43150Y-33509D01*
X43206Y-33532D01*
X43265Y-33532D01*
X43659Y-33532D01*
X43714Y-33509D01*
X43757Y-33467D01*
X43779Y-33412D01*
X43780Y-33352D01*
X43780Y-33037D01*
X43757Y-32982D01*
X43750Y-32975D01*
X43750Y-32932D01*
X44032Y-32650D01*
X44049Y-32650D01*
X44049Y-32779D01*
X44072Y-32834D01*
X44114Y-32877D01*
X44170Y-32899D01*
X44229Y-32900D01*
X45029Y-32900D01*
X45084Y-32877D01*
X45127Y-32835D01*
X45149Y-32779D01*
X45150Y-32720D01*
X45150Y-32941D01*
X45108Y-32982D01*
X45086Y-33037D01*
X45085Y-33097D01*
X45085Y-33412D01*
X45108Y-33467D01*
X45150Y-33509D01*
X45206Y-33532D01*
X45265Y-33532D01*
X45659Y-33532D01*
X45714Y-33509D01*
X45757Y-33467D01*
X45779Y-33412D01*
X45780Y-33352D01*
X45780Y-33037D01*
X45757Y-32982D01*
X45750Y-32975D01*
X45750Y-32932D01*
X46032Y-32650D01*
X46049Y-32650D01*
X46049Y-32779D01*
X46072Y-32834D01*
X46114Y-32877D01*
X46170Y-32899D01*
X46229Y-32900D01*
X47029Y-32900D01*
X47084Y-32877D01*
X47127Y-32835D01*
X47149Y-32779D01*
X47150Y-32720D01*
X47150Y-32941D01*
X47108Y-32982D01*
X47086Y-33037D01*
X47085Y-33097D01*
X47085Y-33412D01*
X47108Y-33467D01*
X47150Y-33509D01*
X47206Y-33532D01*
X47265Y-33532D01*
X47659Y-33532D01*
X47714Y-33509D01*
X47757Y-33467D01*
X47779Y-33412D01*
X47780Y-33352D01*
X47780Y-33037D01*
X47757Y-32982D01*
X47750Y-32975D01*
X47750Y-32882D01*
X47982Y-32650D01*
X48049Y-32650D01*
X48049Y-32779D01*
X48072Y-32834D01*
X48114Y-32877D01*
X48170Y-32899D01*
X48229Y-32900D01*
X49029Y-32900D01*
X49084Y-32877D01*
X49127Y-32835D01*
X49149Y-32779D01*
X49150Y-32720D01*
X49150Y-32941D01*
X49108Y-32982D01*
X49086Y-33037D01*
X49085Y-33097D01*
X49085Y-33412D01*
X49108Y-33467D01*
X49150Y-33509D01*
X49206Y-33532D01*
X49265Y-33532D01*
X49659Y-33532D01*
X49714Y-33509D01*
X49757Y-33467D01*
X49779Y-33412D01*
X49780Y-33352D01*
X49780Y-33037D01*
X49757Y-32982D01*
X49750Y-32975D01*
X49750Y-32882D01*
X49982Y-32650D01*
X50049Y-32650D01*
X50049Y-32779D01*
X50072Y-32834D01*
X50114Y-32877D01*
X50170Y-32899D01*
X50229Y-32900D01*
X51029Y-32900D01*
X51084Y-32877D01*
X51127Y-32835D01*
X51149Y-32779D01*
X51150Y-32720D01*
X51150Y-34310D01*
X51064Y-34275D01*
X50935Y-34274D01*
X50816Y-34324D01*
X50724Y-34415D01*
X50675Y-34535D01*
X50674Y-34664D01*
X50724Y-34783D01*
X50750Y-34809D01*
X50750Y-35096D01*
X50596Y-35250D01*
X50400Y-35250D01*
X50350Y-35250D01*
X49812Y-35250D01*
X49827Y-35235D01*
X49849Y-35179D01*
X49850Y-35120D01*
X49850Y-34520D01*
X49827Y-34465D01*
X49785Y-34422D01*
X49729Y-34400D01*
X49670Y-34399D01*
X49500Y-34399D01*
X49500Y-34282D01*
X49659Y-34282D01*
X49714Y-34259D01*
X49757Y-34217D01*
X49779Y-34162D01*
X49780Y-34102D01*
X49780Y-33787D01*
X49757Y-33732D01*
X49715Y-33690D01*
X49659Y-33667D01*
X49600Y-33667D01*
X49206Y-33667D01*
X49151Y-33690D01*
X49108Y-33732D01*
X49086Y-33787D01*
X49085Y-33847D01*
X49085Y-34162D01*
X49100Y-34196D01*
X49100Y-34399D01*
X48870Y-34399D01*
X48815Y-34422D01*
X48772Y-34464D01*
X48750Y-34520D01*
X48750Y-34549D01*
X48750Y-33907D01*
X48793Y-33907D01*
X48848Y-33884D01*
X48891Y-33842D01*
X48913Y-33787D01*
X48914Y-33727D01*
X48914Y-33412D01*
X48891Y-33357D01*
X48849Y-33315D01*
X48793Y-33292D01*
X48734Y-33292D01*
X48340Y-33292D01*
X48285Y-33315D01*
X48242Y-33357D01*
X48220Y-33412D01*
X48219Y-33472D01*
X48219Y-33787D01*
X48242Y-33842D01*
X48250Y-33849D01*
X48250Y-35250D01*
X47812Y-35250D01*
X47827Y-35235D01*
X47849Y-35179D01*
X47850Y-35120D01*
X47850Y-34520D01*
X47827Y-34465D01*
X47785Y-34422D01*
X47729Y-34400D01*
X47670Y-34399D01*
X47500Y-34399D01*
X47500Y-34282D01*
X47500Y-34282D01*
X47659Y-34282D01*
X47714Y-34259D01*
X47757Y-34217D01*
X47779Y-34162D01*
X47780Y-34102D01*
X47780Y-33787D01*
X47757Y-33732D01*
X47715Y-33690D01*
X47659Y-33667D01*
X47600Y-33667D01*
X47206Y-33667D01*
X47151Y-33690D01*
X47108Y-33732D01*
X47086Y-33787D01*
X47085Y-33847D01*
X47085Y-34162D01*
X47100Y-34197D01*
X47100Y-34200D01*
X47100Y-34399D01*
X46870Y-34399D01*
X46815Y-34422D01*
X46772Y-34464D01*
X46750Y-34520D01*
X46750Y-34549D01*
X46750Y-33907D01*
X46793Y-33907D01*
X46848Y-33884D01*
X46891Y-33842D01*
X46913Y-33787D01*
X46914Y-33727D01*
X46914Y-33412D01*
X46891Y-33357D01*
X46849Y-33315D01*
X46793Y-33292D01*
X46734Y-33292D01*
X46340Y-33292D01*
X46285Y-33315D01*
X46242Y-33357D01*
X46220Y-33412D01*
X46219Y-33472D01*
X46219Y-33787D01*
X46242Y-33842D01*
X46250Y-33849D01*
X46250Y-35250D01*
X45812Y-35250D01*
X45827Y-35235D01*
X45849Y-35179D01*
X45850Y-35120D01*
X45850Y-34520D01*
X45827Y-34465D01*
X45785Y-34422D01*
X45729Y-34400D01*
X45670Y-34399D01*
X45500Y-34399D01*
X45500Y-34282D01*
X45500Y-34282D01*
X45659Y-34282D01*
X45714Y-34259D01*
X45757Y-34217D01*
X45779Y-34162D01*
X45780Y-34102D01*
X45780Y-33787D01*
X45757Y-33732D01*
X45715Y-33690D01*
X45659Y-33667D01*
X45600Y-33667D01*
X45206Y-33667D01*
X45151Y-33690D01*
X45108Y-33732D01*
X45086Y-33787D01*
X45085Y-33847D01*
X45085Y-34162D01*
X45100Y-34197D01*
X45100Y-34200D01*
X45100Y-34399D01*
X44870Y-34399D01*
X44815Y-34422D01*
X44772Y-34464D01*
X44750Y-34520D01*
X44750Y-34549D01*
X44750Y-33907D01*
X44793Y-33907D01*
X44848Y-33884D01*
X44891Y-33842D01*
X44913Y-33787D01*
X44914Y-33727D01*
X44914Y-33412D01*
X44891Y-33357D01*
X44849Y-33315D01*
X44793Y-33292D01*
X44734Y-33292D01*
X44340Y-33292D01*
X44285Y-33315D01*
X44242Y-33357D01*
X44220Y-33412D01*
X44219Y-33472D01*
X44219Y-33787D01*
X44242Y-33842D01*
X44250Y-33849D01*
X44250Y-35250D01*
X43812Y-35250D01*
X43827Y-35235D01*
X43849Y-35179D01*
X43850Y-35120D01*
X43850Y-34520D01*
X43827Y-34465D01*
X43785Y-34422D01*
X43729Y-34400D01*
X43670Y-34399D01*
X43500Y-34399D01*
X43500Y-34282D01*
X43500Y-34282D01*
X43659Y-34282D01*
X43714Y-34259D01*
X43757Y-34217D01*
X43779Y-34162D01*
X43780Y-34102D01*
X43780Y-33787D01*
X43757Y-33732D01*
X43715Y-33690D01*
X43659Y-33667D01*
X43600Y-33667D01*
X43206Y-33667D01*
X43151Y-33690D01*
X43108Y-33732D01*
X43086Y-33787D01*
X43085Y-33847D01*
X43085Y-34162D01*
X43100Y-34197D01*
X43100Y-34200D01*
X43100Y-34399D01*
X42870Y-34399D01*
X42815Y-34422D01*
X42772Y-34464D01*
X42750Y-34520D01*
X42750Y-34549D01*
X42750Y-33907D01*
X42793Y-33907D01*
X42848Y-33884D01*
X42891Y-33842D01*
X42913Y-33787D01*
X42914Y-33727D01*
X42914Y-33412D01*
X42891Y-33357D01*
X42849Y-33315D01*
X42793Y-33292D01*
X42734Y-33292D01*
X42340Y-33292D01*
X42285Y-33315D01*
X42242Y-33357D01*
X42220Y-33412D01*
X42219Y-33472D01*
X42219Y-33787D01*
X42242Y-33842D01*
X42250Y-33849D01*
X42250Y-35250D01*
X41812Y-35250D01*
X41827Y-35235D01*
X41849Y-35179D01*
X41850Y-35120D01*
X41850Y-34520D01*
X41827Y-34465D01*
X41785Y-34422D01*
X41729Y-34400D01*
X41670Y-34399D01*
X41500Y-34399D01*
X41500Y-34282D01*
X41500Y-34282D01*
X41659Y-34282D01*
X41714Y-34259D01*
X41757Y-34217D01*
X41779Y-34162D01*
X41780Y-34102D01*
X41780Y-33787D01*
X41757Y-33732D01*
X41715Y-33690D01*
X41659Y-33667D01*
X41600Y-33667D01*
X41206Y-33667D01*
X41151Y-33690D01*
X41108Y-33732D01*
X41086Y-33787D01*
X41085Y-33847D01*
X41085Y-34162D01*
X41100Y-34197D01*
X41100Y-34200D01*
X41100Y-34399D01*
X40870Y-34399D01*
X40815Y-34422D01*
X40772Y-34464D01*
X40750Y-34520D01*
X40750Y-34549D01*
X40750Y-33907D01*
X40793Y-33907D01*
X40848Y-33884D01*
X40891Y-33842D01*
X40913Y-33787D01*
X40914Y-33727D01*
X40914Y-33412D01*
X40891Y-33357D01*
X40849Y-33315D01*
X40793Y-33292D01*
X40734Y-33292D01*
X40340Y-33292D01*
X40285Y-33315D01*
X40242Y-33357D01*
X40220Y-33412D01*
X40219Y-33472D01*
X40219Y-33787D01*
X40242Y-33842D01*
X40250Y-33849D01*
X40250Y-35250D01*
X39812Y-35250D01*
X39827Y-35235D01*
X39849Y-35179D01*
X39850Y-35120D01*
X39850Y-34520D01*
X39827Y-34465D01*
X39785Y-34422D01*
X39729Y-34400D01*
X39670Y-34399D01*
X39500Y-34399D01*
X39500Y-34282D01*
X39500Y-34282D01*
X39659Y-34282D01*
X39714Y-34259D01*
X39757Y-34217D01*
X39779Y-34162D01*
X39780Y-34102D01*
X39780Y-33787D01*
X39757Y-33732D01*
X39715Y-33690D01*
X39659Y-33667D01*
X39600Y-33667D01*
X39206Y-33667D01*
X39151Y-33690D01*
X39108Y-33732D01*
X39086Y-33787D01*
X39085Y-33847D01*
X39085Y-34162D01*
X39100Y-34197D01*
X39100Y-34200D01*
X39100Y-34399D01*
X38870Y-34399D01*
X38815Y-34422D01*
X38772Y-34464D01*
X38750Y-34520D01*
X38750Y-34549D01*
X38750Y-33907D01*
X38793Y-33907D01*
X38848Y-33884D01*
X38891Y-33842D01*
X38913Y-33787D01*
X38914Y-33727D01*
X38914Y-33412D01*
X38891Y-33357D01*
X38849Y-33315D01*
X38793Y-33292D01*
X38734Y-33292D01*
X38340Y-33292D01*
X38285Y-33315D01*
X38242Y-33357D01*
X38220Y-33412D01*
X38219Y-33472D01*
X38219Y-33787D01*
X38242Y-33842D01*
X38250Y-33849D01*
X38250Y-35250D01*
X37812Y-35250D01*
X37827Y-35235D01*
X37849Y-35179D01*
X37850Y-35120D01*
X37850Y-34520D01*
X37827Y-34465D01*
X37785Y-34422D01*
X37729Y-34400D01*
X37670Y-34399D01*
X37500Y-34399D01*
X37500Y-34282D01*
X37659Y-34282D01*
X37714Y-34259D01*
X37757Y-34217D01*
X37779Y-34162D01*
X37780Y-34102D01*
X37780Y-33787D01*
X37757Y-33732D01*
X37715Y-33690D01*
X37659Y-33667D01*
X37600Y-33667D01*
X37206Y-33667D01*
X37151Y-33690D01*
X37108Y-33732D01*
X37086Y-33787D01*
X37085Y-33847D01*
X37085Y-34162D01*
X37100Y-34196D01*
X37100Y-34399D01*
X36870Y-34399D01*
X36815Y-34422D01*
X36772Y-34464D01*
X36750Y-34520D01*
X36750Y-34549D01*
X36750Y-33907D01*
X36793Y-33907D01*
X36848Y-33884D01*
X36891Y-33842D01*
X36913Y-33787D01*
X36914Y-33727D01*
X36914Y-33412D01*
X36891Y-33357D01*
X36849Y-33315D01*
X36793Y-33292D01*
X36734Y-33292D01*
X36340Y-33292D01*
X36285Y-33315D01*
X36242Y-33357D01*
X36220Y-33412D01*
X36219Y-33472D01*
X36219Y-33787D01*
X36242Y-33842D01*
X36250Y-33849D01*
X36250Y-35250D01*
X36150Y-35250D01*
X36150Y-32720D01*
X36150Y-32120D01*
X36127Y-32065D01*
X36085Y-32022D01*
X36029Y-32000D01*
X35970Y-31999D01*
X35170Y-31999D01*
X35115Y-32022D01*
X35072Y-32064D01*
X35050Y-32120D01*
X35049Y-32179D01*
X35049Y-32779D01*
X35072Y-32834D01*
X35114Y-32877D01*
X35170Y-32899D01*
X35229Y-32900D01*
X35400Y-32900D01*
X35400Y-32917D01*
X35206Y-32917D01*
X35151Y-32940D01*
X35108Y-32982D01*
X35086Y-33037D01*
X35085Y-33097D01*
X35085Y-33412D01*
X35108Y-33467D01*
X35150Y-33509D01*
X35206Y-33532D01*
X35265Y-33532D01*
X35659Y-33532D01*
X35714Y-33509D01*
X35757Y-33467D01*
X35779Y-33412D01*
X35780Y-33352D01*
X35780Y-33133D01*
X35784Y-33126D01*
X35784Y-33126D01*
X35799Y-33050D01*
X35800Y-33050D01*
X35800Y-32900D01*
X36029Y-32900D01*
X36084Y-32877D01*
X36127Y-32835D01*
X36149Y-32779D01*
X36150Y-32720D01*
X36150Y-35250D01*
X35812Y-35250D01*
X35827Y-35235D01*
X35849Y-35179D01*
X35850Y-35120D01*
X35850Y-34520D01*
X35827Y-34465D01*
X35785Y-34422D01*
X35729Y-34400D01*
X35670Y-34399D01*
X35500Y-34399D01*
X35500Y-34282D01*
X35659Y-34282D01*
X35714Y-34259D01*
X35757Y-34217D01*
X35779Y-34162D01*
X35780Y-34102D01*
X35780Y-33787D01*
X35757Y-33732D01*
X35715Y-33690D01*
X35659Y-33667D01*
X35600Y-33667D01*
X35206Y-33667D01*
X35151Y-33690D01*
X35108Y-33732D01*
X35086Y-33787D01*
X35085Y-33847D01*
X35085Y-34162D01*
X35100Y-34196D01*
X35100Y-34399D01*
X34870Y-34399D01*
X34817Y-34421D01*
X34817Y-33897D01*
X34848Y-33884D01*
X34891Y-33842D01*
X34913Y-33787D01*
X34914Y-33727D01*
X34914Y-33412D01*
X34891Y-33357D01*
X34849Y-33315D01*
X34793Y-33292D01*
X34734Y-33292D01*
X34340Y-33292D01*
X34285Y-33315D01*
X34250Y-33350D01*
X34250Y-29350D01*
X73700Y-29350D01*
X73700Y-45450D01*
X73700Y-45450D01*
G37*
G54D19*
X73700Y-45450D02*
X54925Y-45450D01*
X54925Y-35335D01*
X54925Y-33335D01*
X54875Y-33216D01*
X54784Y-33124D01*
X54664Y-33075D01*
X54535Y-33074D01*
X54416Y-33124D01*
X54340Y-33200D01*
X54100Y-33200D01*
X54100Y-32970D01*
X54077Y-32915D01*
X54035Y-32872D01*
X53979Y-32850D01*
X53920Y-32849D01*
X53320Y-32849D01*
X53265Y-32872D01*
X53222Y-32914D01*
X53200Y-32970D01*
X53199Y-33029D01*
X53199Y-33829D01*
X53222Y-33884D01*
X53264Y-33927D01*
X53320Y-33949D01*
X53379Y-33950D01*
X53979Y-33950D01*
X54034Y-33927D01*
X54077Y-33885D01*
X54099Y-33829D01*
X54100Y-33770D01*
X54100Y-33600D01*
X54340Y-33600D01*
X54415Y-33675D01*
X54535Y-33724D01*
X54664Y-33725D01*
X54783Y-33675D01*
X54875Y-33584D01*
X54924Y-33464D01*
X54925Y-33335D01*
X54925Y-35335D01*
X54875Y-35216D01*
X54784Y-35124D01*
X54664Y-35075D01*
X54535Y-35074D01*
X54416Y-35124D01*
X54340Y-35200D01*
X54000Y-35200D01*
X54000Y-34970D01*
X53977Y-34915D01*
X53935Y-34872D01*
X53879Y-34850D01*
X53820Y-34849D01*
X53220Y-34849D01*
X53165Y-34872D01*
X53122Y-34914D01*
X53100Y-34970D01*
X53099Y-35029D01*
X53099Y-35829D01*
X53122Y-35884D01*
X53164Y-35927D01*
X53220Y-35949D01*
X53279Y-35950D01*
X53879Y-35950D01*
X53934Y-35927D01*
X53977Y-35885D01*
X53999Y-35829D01*
X54000Y-35770D01*
X54000Y-35600D01*
X54340Y-35600D01*
X54415Y-35675D01*
X54535Y-35724D01*
X54664Y-35725D01*
X54783Y-35675D01*
X54875Y-35584D01*
X54924Y-35464D01*
X54925Y-35335D01*
X54925Y-45450D01*
X52900Y-45450D01*
X52900Y-33750D01*
X52900Y-33049D01*
X52899Y-32950D01*
X52861Y-32858D01*
X52791Y-32787D01*
X52699Y-32749D01*
X52462Y-32750D01*
X52400Y-32812D01*
X52400Y-33350D01*
X52837Y-33350D01*
X52900Y-33287D01*
X52900Y-33049D01*
X52900Y-33750D01*
X52900Y-33512D01*
X52837Y-33450D01*
X52400Y-33450D01*
X52400Y-33987D01*
X52462Y-34050D01*
X52699Y-34050D01*
X52791Y-34012D01*
X52861Y-33941D01*
X52899Y-33849D01*
X52900Y-33750D01*
X52900Y-45450D01*
X49525Y-45450D01*
X49525Y-44685D01*
X49475Y-44566D01*
X49384Y-44474D01*
X49264Y-44425D01*
X49135Y-44424D01*
X49016Y-44474D01*
X48924Y-44565D01*
X48889Y-44650D01*
X48350Y-44650D01*
X48350Y-44520D01*
X48327Y-44465D01*
X48285Y-44422D01*
X48229Y-44400D01*
X48170Y-44399D01*
X47370Y-44399D01*
X47315Y-44422D01*
X47272Y-44464D01*
X47250Y-44520D01*
X47249Y-44579D01*
X47249Y-45179D01*
X47272Y-45234D01*
X47314Y-45277D01*
X47370Y-45299D01*
X47429Y-45300D01*
X48229Y-45300D01*
X48284Y-45277D01*
X48327Y-45235D01*
X48349Y-45179D01*
X48350Y-45120D01*
X48350Y-45050D01*
X49074Y-45050D01*
X49135Y-45074D01*
X49264Y-45075D01*
X49383Y-45025D01*
X49475Y-44934D01*
X49524Y-44814D01*
X49525Y-44685D01*
X49525Y-45450D01*
X34250Y-45450D01*
X34250Y-33849D01*
X34284Y-33884D01*
X34317Y-33897D01*
X34317Y-35367D01*
X34336Y-35462D01*
X34390Y-35543D01*
X34523Y-35676D01*
X34523Y-35676D01*
X34604Y-35730D01*
X34604Y-35730D01*
X34700Y-35750D01*
X34787Y-35750D01*
X34772Y-35764D01*
X34750Y-35820D01*
X34749Y-35879D01*
X34749Y-36479D01*
X34772Y-36534D01*
X34814Y-36577D01*
X34870Y-36599D01*
X34929Y-36600D01*
X35729Y-36600D01*
X35784Y-36577D01*
X35827Y-36535D01*
X35849Y-36479D01*
X35850Y-36420D01*
X35850Y-36350D01*
X36267Y-36350D01*
X36300Y-36382D01*
X36300Y-36800D01*
X36315Y-36876D01*
X36358Y-36941D01*
X38208Y-38791D01*
X38208Y-38791D01*
X38251Y-38820D01*
X38273Y-38834D01*
X38273Y-38834D01*
X38350Y-38850D01*
X39295Y-38850D01*
X39318Y-38904D01*
X39444Y-39031D01*
X39610Y-39099D01*
X39789Y-39100D01*
X39954Y-39031D01*
X40081Y-38905D01*
X40149Y-38739D01*
X40150Y-38560D01*
X40081Y-38395D01*
X40036Y-38350D01*
X40117Y-38350D01*
X40272Y-38505D01*
X40250Y-38560D01*
X40249Y-38739D01*
X40318Y-38904D01*
X40444Y-39031D01*
X40610Y-39099D01*
X40789Y-39100D01*
X40954Y-39031D01*
X41081Y-38905D01*
X41149Y-38739D01*
X41150Y-38560D01*
X41081Y-38395D01*
X40955Y-38268D01*
X40789Y-38200D01*
X40610Y-38199D01*
X40555Y-38222D01*
X40341Y-38008D01*
X40276Y-37965D01*
X40200Y-37950D01*
X40150Y-37950D01*
X40150Y-37920D01*
X40150Y-37320D01*
X40127Y-37265D01*
X40085Y-37222D01*
X40029Y-37200D01*
X39970Y-37199D01*
X39370Y-37199D01*
X39315Y-37222D01*
X39272Y-37264D01*
X39250Y-37320D01*
X39249Y-37379D01*
X39249Y-37950D01*
X38382Y-37950D01*
X37500Y-37067D01*
X37500Y-36600D01*
X37729Y-36600D01*
X37784Y-36577D01*
X37827Y-36535D01*
X37849Y-36479D01*
X37850Y-36420D01*
X37850Y-35820D01*
X37827Y-35765D01*
X37812Y-35750D01*
X38500Y-35750D01*
X38787Y-35750D01*
X38772Y-35764D01*
X38750Y-35820D01*
X38749Y-35879D01*
X38749Y-36479D01*
X38772Y-36534D01*
X38814Y-36577D01*
X38870Y-36599D01*
X38929Y-36600D01*
X39729Y-36600D01*
X39784Y-36577D01*
X39827Y-36535D01*
X39849Y-36479D01*
X39850Y-36420D01*
X39850Y-36350D01*
X39917Y-36350D01*
X40767Y-37200D01*
X40610Y-37199D01*
X40445Y-37268D01*
X40318Y-37394D01*
X40250Y-37560D01*
X40249Y-37739D01*
X40318Y-37904D01*
X40444Y-38031D01*
X40610Y-38099D01*
X40789Y-38100D01*
X40954Y-38031D01*
X41000Y-37986D01*
X41000Y-38150D01*
X41015Y-38226D01*
X41058Y-38291D01*
X41272Y-38505D01*
X41250Y-38560D01*
X41249Y-38739D01*
X41318Y-38904D01*
X41444Y-39031D01*
X41610Y-39099D01*
X41789Y-39100D01*
X41954Y-39031D01*
X42081Y-38905D01*
X42149Y-38739D01*
X42150Y-38560D01*
X42081Y-38395D01*
X41955Y-38268D01*
X41789Y-38200D01*
X41610Y-38199D01*
X41555Y-38222D01*
X41400Y-38067D01*
X41400Y-37986D01*
X41444Y-38031D01*
X41610Y-38099D01*
X41789Y-38100D01*
X41954Y-38031D01*
X42000Y-37986D01*
X42000Y-38150D01*
X42015Y-38226D01*
X42058Y-38291D01*
X42272Y-38505D01*
X42250Y-38560D01*
X42249Y-38739D01*
X42318Y-38904D01*
X42444Y-39031D01*
X42610Y-39099D01*
X42789Y-39100D01*
X42954Y-39031D01*
X43081Y-38905D01*
X43149Y-38739D01*
X43150Y-38560D01*
X43081Y-38395D01*
X42955Y-38268D01*
X42789Y-38200D01*
X42610Y-38199D01*
X42555Y-38222D01*
X42400Y-38067D01*
X42400Y-37986D01*
X42444Y-38031D01*
X42610Y-38099D01*
X42789Y-38100D01*
X42954Y-38031D01*
X43000Y-37986D01*
X43000Y-38200D01*
X43015Y-38276D01*
X43058Y-38341D01*
X43258Y-38540D01*
X43250Y-38560D01*
X43249Y-38739D01*
X43318Y-38904D01*
X43444Y-39031D01*
X43610Y-39099D01*
X43789Y-39100D01*
X43954Y-39031D01*
X44006Y-38980D01*
X44015Y-39026D01*
X44058Y-39091D01*
X44649Y-39682D01*
X44649Y-40179D01*
X44672Y-40234D01*
X44714Y-40277D01*
X44770Y-40299D01*
X44829Y-40300D01*
X45629Y-40300D01*
X45684Y-40277D01*
X45727Y-40235D01*
X45749Y-40179D01*
X45750Y-40120D01*
X45750Y-39520D01*
X45727Y-39465D01*
X45685Y-39422D01*
X45629Y-39400D01*
X45570Y-39399D01*
X44932Y-39399D01*
X44632Y-39099D01*
X44789Y-39100D01*
X44954Y-39031D01*
X45081Y-38905D01*
X45149Y-38739D01*
X45150Y-38560D01*
X45112Y-38470D01*
X45341Y-38241D01*
X45384Y-38176D01*
X45384Y-38176D01*
X45387Y-38163D01*
X45399Y-38100D01*
X45400Y-38100D01*
X45400Y-37986D01*
X45444Y-38031D01*
X45610Y-38099D01*
X45789Y-38100D01*
X45954Y-38031D01*
X46000Y-37986D01*
X46000Y-38017D01*
X45809Y-38208D01*
X45789Y-38200D01*
X45610Y-38199D01*
X45445Y-38268D01*
X45318Y-38394D01*
X45250Y-38560D01*
X45249Y-38739D01*
X45318Y-38904D01*
X45444Y-39031D01*
X45610Y-39099D01*
X45789Y-39100D01*
X45954Y-39031D01*
X46081Y-38905D01*
X46149Y-38739D01*
X46150Y-38560D01*
X46112Y-38470D01*
X46341Y-38241D01*
X46384Y-38176D01*
X46384Y-38176D01*
X46387Y-38163D01*
X46399Y-38100D01*
X46400Y-38100D01*
X46400Y-37986D01*
X46444Y-38031D01*
X46610Y-38099D01*
X46789Y-38100D01*
X46954Y-38031D01*
X47000Y-37986D01*
X47000Y-38067D01*
X46844Y-38222D01*
X46789Y-38200D01*
X46610Y-38199D01*
X46445Y-38268D01*
X46318Y-38394D01*
X46250Y-38560D01*
X46249Y-38739D01*
X46318Y-38904D01*
X46444Y-39031D01*
X46610Y-39099D01*
X46789Y-39100D01*
X46954Y-39031D01*
X47081Y-38905D01*
X47149Y-38739D01*
X47150Y-38560D01*
X47127Y-38505D01*
X47341Y-38291D01*
X47384Y-38226D01*
X47384Y-38226D01*
X47387Y-38213D01*
X47399Y-38150D01*
X47400Y-38150D01*
X47400Y-37986D01*
X47444Y-38031D01*
X47610Y-38099D01*
X47789Y-38100D01*
X47954Y-38031D01*
X48081Y-37905D01*
X48149Y-37739D01*
X48149Y-37663D01*
X48156Y-37786D01*
X48218Y-37937D01*
X48314Y-37965D01*
X48629Y-37650D01*
X48314Y-37334D01*
X48218Y-37362D01*
X48148Y-37557D01*
X48081Y-37395D01*
X47955Y-37268D01*
X47789Y-37200D01*
X47610Y-37199D01*
X47445Y-37268D01*
X47400Y-37313D01*
X47400Y-37232D01*
X47532Y-37100D01*
X48550Y-37100D01*
X48626Y-37084D01*
X48691Y-37041D01*
X49132Y-36600D01*
X49729Y-36600D01*
X49784Y-36577D01*
X49827Y-36535D01*
X49849Y-36479D01*
X49850Y-36420D01*
X49850Y-35820D01*
X49827Y-35765D01*
X49812Y-35750D01*
X50100Y-35750D01*
X50100Y-38350D01*
X50100Y-38400D01*
X49254Y-38400D01*
X49254Y-37731D01*
X49243Y-37513D01*
X49181Y-37362D01*
X49085Y-37334D01*
X49015Y-37405D01*
X49015Y-37264D01*
X48987Y-37168D01*
X48781Y-37095D01*
X48563Y-37106D01*
X48412Y-37168D01*
X48384Y-37264D01*
X48700Y-37579D01*
X49015Y-37264D01*
X49015Y-37405D01*
X48770Y-37650D01*
X49085Y-37965D01*
X49181Y-37937D01*
X49254Y-37731D01*
X49254Y-38400D01*
X49083Y-38400D01*
X49081Y-38395D01*
X48955Y-38268D01*
X48789Y-38200D01*
X48713Y-38200D01*
X48836Y-38193D01*
X48987Y-38131D01*
X49015Y-38035D01*
X48700Y-37720D01*
X48384Y-38035D01*
X48412Y-38131D01*
X48607Y-38201D01*
X48445Y-38268D01*
X48318Y-38394D01*
X48250Y-38560D01*
X48249Y-38739D01*
X48269Y-38786D01*
X48149Y-38667D01*
X48150Y-38560D01*
X48081Y-38395D01*
X47955Y-38268D01*
X47789Y-38200D01*
X47610Y-38199D01*
X47445Y-38268D01*
X47318Y-38394D01*
X47250Y-38560D01*
X47249Y-38739D01*
X47318Y-38904D01*
X47444Y-39031D01*
X47610Y-39099D01*
X47789Y-39100D01*
X47950Y-39033D01*
X48908Y-39991D01*
X48908Y-39991D01*
X48949Y-40019D01*
X48949Y-40179D01*
X48965Y-40216D01*
X48954Y-40219D01*
X48873Y-40273D01*
X48873Y-40273D01*
X48523Y-40623D01*
X48469Y-40704D01*
X48450Y-40800D01*
X48450Y-41250D01*
X48450Y-41675D01*
X48417Y-41642D01*
X48375Y-41625D01*
X48375Y-41525D01*
X48362Y-41461D01*
X48359Y-41448D01*
X48359Y-41448D01*
X48350Y-41433D01*
X48350Y-41433D01*
X48350Y-41420D01*
X48350Y-40820D01*
X48327Y-40765D01*
X48285Y-40722D01*
X48229Y-40700D01*
X48170Y-40699D01*
X48059Y-40699D01*
X48075Y-40684D01*
X48124Y-40564D01*
X48125Y-40435D01*
X48075Y-40316D01*
X48059Y-40300D01*
X48229Y-40300D01*
X48284Y-40277D01*
X48327Y-40235D01*
X48349Y-40179D01*
X48350Y-40120D01*
X48350Y-39520D01*
X48327Y-39465D01*
X48285Y-39422D01*
X48229Y-39400D01*
X48170Y-39399D01*
X47370Y-39399D01*
X47315Y-39422D01*
X47272Y-39464D01*
X47250Y-39520D01*
X47249Y-39579D01*
X47249Y-40179D01*
X47272Y-40234D01*
X47314Y-40277D01*
X47370Y-40299D01*
X47429Y-40300D01*
X47540Y-40300D01*
X47524Y-40315D01*
X47475Y-40435D01*
X47474Y-40564D01*
X47524Y-40683D01*
X47540Y-40699D01*
X47370Y-40699D01*
X47315Y-40722D01*
X47272Y-40764D01*
X47250Y-40820D01*
X47249Y-40879D01*
X47249Y-41479D01*
X47272Y-41534D01*
X47314Y-41577D01*
X47370Y-41599D01*
X47429Y-41600D01*
X47967Y-41600D01*
X47975Y-41607D01*
X47975Y-41625D01*
X47932Y-41642D01*
X47890Y-41684D01*
X47867Y-41740D01*
X47867Y-41799D01*
X47867Y-42150D01*
X47732Y-42150D01*
X47732Y-42134D01*
X47732Y-41740D01*
X47709Y-41685D01*
X47667Y-41642D01*
X47612Y-41620D01*
X47552Y-41619D01*
X47237Y-41619D01*
X47182Y-41642D01*
X47149Y-41675D01*
X47117Y-41642D01*
X47075Y-41625D01*
X47075Y-41525D01*
X47062Y-41461D01*
X47059Y-41448D01*
X47059Y-41448D01*
X47050Y-41433D01*
X47050Y-41433D01*
X47050Y-41420D01*
X47050Y-40820D01*
X47027Y-40765D01*
X46985Y-40722D01*
X46929Y-40700D01*
X46870Y-40699D01*
X46759Y-40699D01*
X46775Y-40684D01*
X46824Y-40564D01*
X46825Y-40435D01*
X46775Y-40316D01*
X46759Y-40300D01*
X46929Y-40300D01*
X46984Y-40277D01*
X47027Y-40235D01*
X47049Y-40179D01*
X47050Y-40120D01*
X47050Y-39520D01*
X47027Y-39465D01*
X46985Y-39422D01*
X46929Y-39400D01*
X46870Y-39399D01*
X46070Y-39399D01*
X46015Y-39422D01*
X45972Y-39464D01*
X45950Y-39520D01*
X45949Y-39579D01*
X45949Y-40179D01*
X45972Y-40234D01*
X46014Y-40277D01*
X46070Y-40299D01*
X46129Y-40300D01*
X46240Y-40300D01*
X46224Y-40315D01*
X46175Y-40435D01*
X46174Y-40564D01*
X46224Y-40683D01*
X46240Y-40699D01*
X46070Y-40699D01*
X46015Y-40722D01*
X45972Y-40764D01*
X45950Y-40820D01*
X45949Y-40879D01*
X45949Y-41479D01*
X45972Y-41534D01*
X46014Y-41577D01*
X46070Y-41599D01*
X46129Y-41600D01*
X46667Y-41600D01*
X46675Y-41607D01*
X46675Y-41625D01*
X46632Y-41642D01*
X46590Y-41684D01*
X46567Y-41740D01*
X46567Y-41799D01*
X46567Y-42150D01*
X46432Y-42150D01*
X46432Y-42134D01*
X46432Y-41740D01*
X46409Y-41685D01*
X46367Y-41642D01*
X46312Y-41620D01*
X46252Y-41619D01*
X45937Y-41619D01*
X45882Y-41642D01*
X45849Y-41675D01*
X45817Y-41642D01*
X45775Y-41625D01*
X45775Y-41525D01*
X45762Y-41461D01*
X45759Y-41448D01*
X45759Y-41448D01*
X45750Y-41433D01*
X45750Y-41433D01*
X45750Y-41420D01*
X45750Y-40820D01*
X45727Y-40765D01*
X45685Y-40722D01*
X45629Y-40700D01*
X45570Y-40699D01*
X44770Y-40699D01*
X44715Y-40722D01*
X44672Y-40764D01*
X44650Y-40820D01*
X44649Y-40879D01*
X44649Y-41479D01*
X44672Y-41534D01*
X44714Y-41577D01*
X44770Y-41599D01*
X44829Y-41600D01*
X45367Y-41600D01*
X45375Y-41607D01*
X45375Y-41625D01*
X45332Y-41642D01*
X45290Y-41684D01*
X45267Y-41740D01*
X45267Y-41799D01*
X45267Y-42150D01*
X45132Y-42150D01*
X45132Y-42134D01*
X45132Y-41740D01*
X45109Y-41685D01*
X45067Y-41642D01*
X45012Y-41620D01*
X44952Y-41619D01*
X44637Y-41619D01*
X44582Y-41642D01*
X44549Y-41675D01*
X44517Y-41642D01*
X44475Y-41625D01*
X44475Y-41525D01*
X44462Y-41461D01*
X44459Y-41448D01*
X44459Y-41448D01*
X44450Y-41433D01*
X44450Y-41433D01*
X44450Y-41420D01*
X44450Y-40820D01*
X44427Y-40765D01*
X44385Y-40722D01*
X44329Y-40700D01*
X44270Y-40699D01*
X44159Y-40699D01*
X44175Y-40684D01*
X44224Y-40564D01*
X44225Y-40435D01*
X44175Y-40316D01*
X44159Y-40300D01*
X44329Y-40300D01*
X44384Y-40277D01*
X44427Y-40235D01*
X44449Y-40179D01*
X44450Y-40120D01*
X44450Y-39520D01*
X44427Y-39465D01*
X44385Y-39422D01*
X44329Y-39400D01*
X44270Y-39399D01*
X43470Y-39399D01*
X43415Y-39422D01*
X43372Y-39464D01*
X43350Y-39520D01*
X43349Y-39579D01*
X43349Y-40179D01*
X43372Y-40234D01*
X43414Y-40277D01*
X43470Y-40299D01*
X43529Y-40300D01*
X43640Y-40300D01*
X43624Y-40315D01*
X43575Y-40435D01*
X43574Y-40564D01*
X43624Y-40683D01*
X43640Y-40699D01*
X43470Y-40699D01*
X43415Y-40722D01*
X43372Y-40764D01*
X43350Y-40820D01*
X43349Y-40879D01*
X43349Y-41479D01*
X43372Y-41534D01*
X43414Y-41577D01*
X43470Y-41599D01*
X43529Y-41600D01*
X44067Y-41600D01*
X44075Y-41607D01*
X44075Y-41625D01*
X44032Y-41642D01*
X43990Y-41684D01*
X43967Y-41740D01*
X43967Y-41799D01*
X43967Y-42150D01*
X43832Y-42150D01*
X43832Y-42134D01*
X43832Y-41740D01*
X43809Y-41685D01*
X43767Y-41642D01*
X43712Y-41620D01*
X43652Y-41619D01*
X43337Y-41619D01*
X43282Y-41642D01*
X43249Y-41675D01*
X43217Y-41642D01*
X43175Y-41625D01*
X43175Y-41525D01*
X43162Y-41461D01*
X43159Y-41448D01*
X43159Y-41448D01*
X43150Y-41433D01*
X43150Y-41433D01*
X43150Y-41420D01*
X43150Y-40820D01*
X43127Y-40765D01*
X43085Y-40722D01*
X43029Y-40700D01*
X42970Y-40699D01*
X42859Y-40699D01*
X42875Y-40684D01*
X42924Y-40564D01*
X42925Y-40435D01*
X42875Y-40316D01*
X42859Y-40300D01*
X43029Y-40300D01*
X43084Y-40277D01*
X43127Y-40235D01*
X43149Y-40179D01*
X43150Y-40120D01*
X43150Y-39520D01*
X43127Y-39465D01*
X43085Y-39422D01*
X43029Y-39400D01*
X42970Y-39399D01*
X42170Y-39399D01*
X42115Y-39422D01*
X42072Y-39464D01*
X42050Y-39520D01*
X42049Y-39579D01*
X42049Y-40179D01*
X42072Y-40234D01*
X42114Y-40277D01*
X42170Y-40299D01*
X42229Y-40300D01*
X42340Y-40300D01*
X42324Y-40315D01*
X42275Y-40435D01*
X42274Y-40564D01*
X42324Y-40683D01*
X42340Y-40699D01*
X42170Y-40699D01*
X42115Y-40722D01*
X42072Y-40764D01*
X42050Y-40820D01*
X42049Y-40879D01*
X42049Y-41479D01*
X42072Y-41534D01*
X42114Y-41577D01*
X42170Y-41599D01*
X42229Y-41600D01*
X42767Y-41600D01*
X42775Y-41607D01*
X42775Y-41625D01*
X42732Y-41642D01*
X42690Y-41684D01*
X42667Y-41740D01*
X42667Y-41799D01*
X42667Y-42150D01*
X42532Y-42150D01*
X42532Y-42134D01*
X42532Y-41740D01*
X42509Y-41685D01*
X42467Y-41642D01*
X42412Y-41620D01*
X42352Y-41619D01*
X42037Y-41619D01*
X41982Y-41642D01*
X41949Y-41675D01*
X41917Y-41642D01*
X41875Y-41625D01*
X41875Y-41525D01*
X41862Y-41461D01*
X41859Y-41448D01*
X41859Y-41448D01*
X41850Y-41433D01*
X41850Y-41433D01*
X41850Y-41420D01*
X41850Y-40820D01*
X41827Y-40765D01*
X41785Y-40722D01*
X41729Y-40700D01*
X41670Y-40699D01*
X41559Y-40699D01*
X41575Y-40684D01*
X41624Y-40564D01*
X41625Y-40435D01*
X41575Y-40316D01*
X41559Y-40300D01*
X41729Y-40300D01*
X41784Y-40277D01*
X41827Y-40235D01*
X41849Y-40179D01*
X41850Y-40120D01*
X41850Y-39520D01*
X41827Y-39465D01*
X41785Y-39422D01*
X41729Y-39400D01*
X41670Y-39399D01*
X40870Y-39399D01*
X40815Y-39422D01*
X40772Y-39464D01*
X40750Y-39520D01*
X40749Y-39579D01*
X40749Y-40179D01*
X40772Y-40234D01*
X40814Y-40277D01*
X40870Y-40299D01*
X40929Y-40300D01*
X41040Y-40300D01*
X41024Y-40315D01*
X40975Y-40435D01*
X40974Y-40564D01*
X41024Y-40683D01*
X41040Y-40699D01*
X40870Y-40699D01*
X40815Y-40722D01*
X40772Y-40764D01*
X40750Y-40820D01*
X40749Y-40879D01*
X40749Y-41479D01*
X40772Y-41534D01*
X40814Y-41577D01*
X40870Y-41599D01*
X40929Y-41600D01*
X41467Y-41600D01*
X41475Y-41607D01*
X41475Y-41625D01*
X41432Y-41642D01*
X41390Y-41684D01*
X41367Y-41740D01*
X41367Y-41799D01*
X41367Y-42150D01*
X41232Y-42150D01*
X41232Y-42134D01*
X41232Y-41740D01*
X41209Y-41685D01*
X41167Y-41642D01*
X41112Y-41620D01*
X41052Y-41619D01*
X40737Y-41619D01*
X40682Y-41642D01*
X40649Y-41675D01*
X40617Y-41642D01*
X40575Y-41625D01*
X40575Y-41525D01*
X40562Y-41461D01*
X40559Y-41448D01*
X40559Y-41448D01*
X40550Y-41433D01*
X40550Y-41433D01*
X40550Y-41420D01*
X40550Y-40820D01*
X40527Y-40765D01*
X40485Y-40722D01*
X40429Y-40700D01*
X40370Y-40699D01*
X40259Y-40699D01*
X40275Y-40684D01*
X40324Y-40564D01*
X40325Y-40435D01*
X40275Y-40316D01*
X40259Y-40300D01*
X40429Y-40300D01*
X40484Y-40277D01*
X40527Y-40235D01*
X40549Y-40179D01*
X40550Y-40120D01*
X40550Y-39520D01*
X40527Y-39465D01*
X40485Y-39422D01*
X40429Y-39400D01*
X40370Y-39399D01*
X39570Y-39399D01*
X39515Y-39422D01*
X39472Y-39464D01*
X39450Y-39520D01*
X39449Y-39579D01*
X39449Y-40179D01*
X39472Y-40234D01*
X39514Y-40277D01*
X39570Y-40299D01*
X39629Y-40300D01*
X39740Y-40300D01*
X39724Y-40315D01*
X39675Y-40435D01*
X39674Y-40564D01*
X39724Y-40683D01*
X39740Y-40699D01*
X39570Y-40699D01*
X39515Y-40722D01*
X39472Y-40764D01*
X39450Y-40820D01*
X39449Y-40879D01*
X39449Y-41479D01*
X39472Y-41534D01*
X39514Y-41577D01*
X39570Y-41599D01*
X39629Y-41600D01*
X40167Y-41600D01*
X40175Y-41607D01*
X40175Y-41625D01*
X40132Y-41642D01*
X40090Y-41684D01*
X40067Y-41740D01*
X40067Y-41799D01*
X40067Y-42150D01*
X39932Y-42150D01*
X39932Y-42134D01*
X39932Y-41740D01*
X39909Y-41685D01*
X39867Y-41642D01*
X39812Y-41620D01*
X39752Y-41619D01*
X39437Y-41619D01*
X39382Y-41642D01*
X39349Y-41675D01*
X39317Y-41642D01*
X39275Y-41625D01*
X39275Y-41525D01*
X39262Y-41461D01*
X39259Y-41448D01*
X39259Y-41448D01*
X39250Y-41433D01*
X39250Y-41433D01*
X39250Y-41420D01*
X39250Y-40820D01*
X39227Y-40765D01*
X39185Y-40722D01*
X39129Y-40700D01*
X39070Y-40699D01*
X39039Y-40699D01*
X39074Y-40614D01*
X39075Y-40485D01*
X39025Y-40366D01*
X38959Y-40300D01*
X39129Y-40300D01*
X39184Y-40277D01*
X39227Y-40235D01*
X39249Y-40179D01*
X39250Y-40120D01*
X39250Y-39520D01*
X39227Y-39465D01*
X39185Y-39422D01*
X39129Y-39400D01*
X39070Y-39399D01*
X38270Y-39399D01*
X38215Y-39422D01*
X38172Y-39464D01*
X38150Y-39520D01*
X38149Y-39579D01*
X38149Y-40179D01*
X38172Y-40234D01*
X38214Y-40277D01*
X38270Y-40299D01*
X38329Y-40300D01*
X38500Y-40300D01*
X38500Y-40340D01*
X38474Y-40365D01*
X38425Y-40485D01*
X38424Y-40614D01*
X38460Y-40699D01*
X38270Y-40699D01*
X38215Y-40722D01*
X38172Y-40764D01*
X38150Y-40820D01*
X38149Y-40879D01*
X38149Y-41479D01*
X38172Y-41534D01*
X38214Y-41577D01*
X38270Y-41599D01*
X38329Y-41600D01*
X38867Y-41600D01*
X38875Y-41607D01*
X38875Y-41625D01*
X38832Y-41642D01*
X38790Y-41684D01*
X38767Y-41740D01*
X38767Y-41799D01*
X38767Y-42150D01*
X38632Y-42150D01*
X38632Y-42134D01*
X38632Y-41740D01*
X38609Y-41685D01*
X38567Y-41642D01*
X38512Y-41620D01*
X38452Y-41619D01*
X38137Y-41619D01*
X38082Y-41642D01*
X38040Y-41684D01*
X38017Y-41740D01*
X38017Y-41799D01*
X38017Y-42193D01*
X38040Y-42248D01*
X38075Y-42283D01*
X38075Y-42325D01*
X38094Y-42420D01*
X38148Y-42501D01*
X38223Y-42576D01*
X38223Y-42576D01*
X38304Y-42630D01*
X38304Y-42630D01*
X38392Y-42648D01*
X38392Y-42665D01*
X38392Y-43059D01*
X38409Y-43099D01*
X38270Y-43099D01*
X38215Y-43122D01*
X38172Y-43164D01*
X38150Y-43220D01*
X38149Y-43279D01*
X38149Y-43879D01*
X38172Y-43934D01*
X38214Y-43977D01*
X38270Y-43999D01*
X38329Y-44000D01*
X38440Y-44000D01*
X38424Y-44015D01*
X38375Y-44135D01*
X38374Y-44264D01*
X38424Y-44383D01*
X38440Y-44399D01*
X38270Y-44399D01*
X38215Y-44422D01*
X38172Y-44464D01*
X38150Y-44520D01*
X38149Y-44579D01*
X38149Y-45179D01*
X38172Y-45234D01*
X38214Y-45277D01*
X38270Y-45299D01*
X38329Y-45300D01*
X39129Y-45300D01*
X39184Y-45277D01*
X39227Y-45235D01*
X39249Y-45179D01*
X39250Y-45120D01*
X39250Y-44520D01*
X39227Y-44465D01*
X39185Y-44422D01*
X39129Y-44400D01*
X39070Y-44399D01*
X38959Y-44399D01*
X38975Y-44384D01*
X39024Y-44264D01*
X39025Y-44135D01*
X38975Y-44016D01*
X38959Y-44000D01*
X39129Y-44000D01*
X39184Y-43977D01*
X39227Y-43935D01*
X39249Y-43879D01*
X39250Y-43820D01*
X39250Y-43220D01*
X39227Y-43165D01*
X39185Y-43122D01*
X39129Y-43100D01*
X39070Y-43099D01*
X38990Y-43099D01*
X39007Y-43059D01*
X39007Y-43000D01*
X39007Y-42650D01*
X39600Y-42650D01*
X39692Y-42650D01*
X39692Y-42665D01*
X39692Y-43059D01*
X39709Y-43099D01*
X39570Y-43099D01*
X39515Y-43122D01*
X39472Y-43164D01*
X39450Y-43220D01*
X39449Y-43279D01*
X39449Y-43879D01*
X39472Y-43934D01*
X39514Y-43977D01*
X39570Y-43999D01*
X39629Y-44000D01*
X39740Y-44000D01*
X39724Y-44015D01*
X39675Y-44135D01*
X39674Y-44264D01*
X39724Y-44383D01*
X39740Y-44399D01*
X39570Y-44399D01*
X39515Y-44422D01*
X39472Y-44464D01*
X39450Y-44520D01*
X39449Y-44579D01*
X39449Y-45179D01*
X39472Y-45234D01*
X39514Y-45277D01*
X39570Y-45299D01*
X39629Y-45300D01*
X40429Y-45300D01*
X40484Y-45277D01*
X40527Y-45235D01*
X40549Y-45179D01*
X40550Y-45120D01*
X40550Y-44520D01*
X40527Y-44465D01*
X40485Y-44422D01*
X40429Y-44400D01*
X40370Y-44399D01*
X40259Y-44399D01*
X40275Y-44384D01*
X40324Y-44264D01*
X40325Y-44135D01*
X40275Y-44016D01*
X40259Y-44000D01*
X40429Y-44000D01*
X40484Y-43977D01*
X40527Y-43935D01*
X40549Y-43879D01*
X40550Y-43820D01*
X40550Y-43220D01*
X40527Y-43165D01*
X40485Y-43122D01*
X40429Y-43100D01*
X40370Y-43099D01*
X40290Y-43099D01*
X40307Y-43059D01*
X40307Y-43000D01*
X40307Y-42650D01*
X40900Y-42650D01*
X40992Y-42650D01*
X40992Y-42665D01*
X40992Y-43059D01*
X41009Y-43099D01*
X40870Y-43099D01*
X40815Y-43122D01*
X40772Y-43164D01*
X40750Y-43220D01*
X40749Y-43279D01*
X40749Y-43879D01*
X40772Y-43934D01*
X40814Y-43977D01*
X40870Y-43999D01*
X40929Y-44000D01*
X41040Y-44000D01*
X41024Y-44015D01*
X40975Y-44135D01*
X40974Y-44264D01*
X41024Y-44383D01*
X41040Y-44399D01*
X40870Y-44399D01*
X40815Y-44422D01*
X40772Y-44464D01*
X40750Y-44520D01*
X40749Y-44579D01*
X40749Y-45179D01*
X40772Y-45234D01*
X40814Y-45277D01*
X40870Y-45299D01*
X40929Y-45300D01*
X41729Y-45300D01*
X41784Y-45277D01*
X41827Y-45235D01*
X41849Y-45179D01*
X41850Y-45120D01*
X41850Y-44520D01*
X41827Y-44465D01*
X41785Y-44422D01*
X41729Y-44400D01*
X41670Y-44399D01*
X41559Y-44399D01*
X41575Y-44384D01*
X41624Y-44264D01*
X41625Y-44135D01*
X41575Y-44016D01*
X41559Y-44000D01*
X41729Y-44000D01*
X41784Y-43977D01*
X41827Y-43935D01*
X41849Y-43879D01*
X41850Y-43820D01*
X41850Y-43220D01*
X41827Y-43165D01*
X41785Y-43122D01*
X41729Y-43100D01*
X41670Y-43099D01*
X41590Y-43099D01*
X41607Y-43059D01*
X41607Y-43000D01*
X41607Y-42650D01*
X42200Y-42650D01*
X42292Y-42650D01*
X42292Y-42665D01*
X42292Y-43059D01*
X42309Y-43099D01*
X42170Y-43099D01*
X42115Y-43122D01*
X42072Y-43164D01*
X42050Y-43220D01*
X42049Y-43279D01*
X42049Y-43879D01*
X42072Y-43934D01*
X42114Y-43977D01*
X42170Y-43999D01*
X42229Y-44000D01*
X42340Y-44000D01*
X42324Y-44015D01*
X42275Y-44135D01*
X42274Y-44264D01*
X42324Y-44383D01*
X42340Y-44399D01*
X42170Y-44399D01*
X42115Y-44422D01*
X42072Y-44464D01*
X42050Y-44520D01*
X42049Y-44579D01*
X42049Y-45179D01*
X42072Y-45234D01*
X42114Y-45277D01*
X42170Y-45299D01*
X42229Y-45300D01*
X43029Y-45300D01*
X43084Y-45277D01*
X43127Y-45235D01*
X43149Y-45179D01*
X43150Y-45120D01*
X43150Y-44520D01*
X43127Y-44465D01*
X43085Y-44422D01*
X43029Y-44400D01*
X42970Y-44399D01*
X42859Y-44399D01*
X42875Y-44384D01*
X42924Y-44264D01*
X42925Y-44135D01*
X42875Y-44016D01*
X42859Y-44000D01*
X43029Y-44000D01*
X43084Y-43977D01*
X43127Y-43935D01*
X43149Y-43879D01*
X43150Y-43820D01*
X43150Y-43220D01*
X43127Y-43165D01*
X43085Y-43122D01*
X43029Y-43100D01*
X42970Y-43099D01*
X42890Y-43099D01*
X42907Y-43059D01*
X42907Y-43000D01*
X42907Y-42650D01*
X43500Y-42650D01*
X43592Y-42650D01*
X43592Y-42665D01*
X43592Y-43059D01*
X43609Y-43099D01*
X43470Y-43099D01*
X43415Y-43122D01*
X43372Y-43164D01*
X43350Y-43220D01*
X43349Y-43279D01*
X43349Y-43879D01*
X43372Y-43934D01*
X43414Y-43977D01*
X43470Y-43999D01*
X43529Y-44000D01*
X43640Y-44000D01*
X43624Y-44015D01*
X43575Y-44135D01*
X43574Y-44264D01*
X43624Y-44383D01*
X43640Y-44399D01*
X43470Y-44399D01*
X43415Y-44422D01*
X43372Y-44464D01*
X43350Y-44520D01*
X43349Y-44579D01*
X43349Y-45179D01*
X43372Y-45234D01*
X43414Y-45277D01*
X43470Y-45299D01*
X43529Y-45300D01*
X44329Y-45300D01*
X44384Y-45277D01*
X44427Y-45235D01*
X44449Y-45179D01*
X44450Y-45120D01*
X44450Y-44520D01*
X44427Y-44465D01*
X44385Y-44422D01*
X44329Y-44400D01*
X44270Y-44399D01*
X44159Y-44399D01*
X44175Y-44384D01*
X44224Y-44264D01*
X44225Y-44135D01*
X44175Y-44016D01*
X44159Y-44000D01*
X44329Y-44000D01*
X44384Y-43977D01*
X44427Y-43935D01*
X44449Y-43879D01*
X44450Y-43820D01*
X44450Y-43220D01*
X44427Y-43165D01*
X44385Y-43122D01*
X44329Y-43100D01*
X44270Y-43099D01*
X44190Y-43099D01*
X44207Y-43059D01*
X44207Y-43000D01*
X44207Y-42650D01*
X44800Y-42650D01*
X44892Y-42650D01*
X44892Y-42665D01*
X44892Y-43059D01*
X44909Y-43099D01*
X44770Y-43099D01*
X44715Y-43122D01*
X44672Y-43164D01*
X44650Y-43220D01*
X44649Y-43279D01*
X44649Y-43879D01*
X44672Y-43934D01*
X44714Y-43977D01*
X44770Y-43999D01*
X44829Y-44000D01*
X44940Y-44000D01*
X44924Y-44015D01*
X44875Y-44135D01*
X44874Y-44264D01*
X44924Y-44383D01*
X44940Y-44399D01*
X44770Y-44399D01*
X44715Y-44422D01*
X44672Y-44464D01*
X44650Y-44520D01*
X44649Y-44579D01*
X44649Y-45179D01*
X44672Y-45234D01*
X44714Y-45277D01*
X44770Y-45299D01*
X44829Y-45300D01*
X45629Y-45300D01*
X45684Y-45277D01*
X45727Y-45235D01*
X45749Y-45179D01*
X45750Y-45120D01*
X45750Y-44520D01*
X45727Y-44465D01*
X45685Y-44422D01*
X45629Y-44400D01*
X45570Y-44399D01*
X45459Y-44399D01*
X45475Y-44384D01*
X45524Y-44264D01*
X45525Y-44135D01*
X45475Y-44016D01*
X45459Y-44000D01*
X45629Y-44000D01*
X45684Y-43977D01*
X45727Y-43935D01*
X45749Y-43879D01*
X45750Y-43820D01*
X45750Y-43220D01*
X45727Y-43165D01*
X45685Y-43122D01*
X45629Y-43100D01*
X45570Y-43099D01*
X45490Y-43099D01*
X45507Y-43059D01*
X45507Y-43000D01*
X45507Y-42650D01*
X46100Y-42650D01*
X46192Y-42650D01*
X46192Y-42665D01*
X46192Y-43059D01*
X46209Y-43099D01*
X46070Y-43099D01*
X46015Y-43122D01*
X45972Y-43164D01*
X45950Y-43220D01*
X45949Y-43279D01*
X45949Y-43879D01*
X45972Y-43934D01*
X46014Y-43977D01*
X46070Y-43999D01*
X46129Y-44000D01*
X46240Y-44000D01*
X46224Y-44015D01*
X46175Y-44135D01*
X46174Y-44264D01*
X46224Y-44383D01*
X46240Y-44399D01*
X46070Y-44399D01*
X46015Y-44422D01*
X45972Y-44464D01*
X45950Y-44520D01*
X45949Y-44579D01*
X45949Y-45179D01*
X45972Y-45234D01*
X46014Y-45277D01*
X46070Y-45299D01*
X46129Y-45300D01*
X46929Y-45300D01*
X46984Y-45277D01*
X47027Y-45235D01*
X47049Y-45179D01*
X47050Y-45120D01*
X47050Y-44520D01*
X47027Y-44465D01*
X46985Y-44422D01*
X46929Y-44400D01*
X46870Y-44399D01*
X46759Y-44399D01*
X46775Y-44384D01*
X46824Y-44264D01*
X46825Y-44135D01*
X46775Y-44016D01*
X46759Y-44000D01*
X46929Y-44000D01*
X46984Y-43977D01*
X47027Y-43935D01*
X47049Y-43879D01*
X47050Y-43820D01*
X47050Y-43220D01*
X47027Y-43165D01*
X46985Y-43122D01*
X46929Y-43100D01*
X46870Y-43099D01*
X46790Y-43099D01*
X46807Y-43059D01*
X46807Y-43000D01*
X46807Y-42650D01*
X47425Y-42650D01*
X47492Y-42650D01*
X47492Y-42665D01*
X47492Y-43059D01*
X47509Y-43099D01*
X47370Y-43099D01*
X47315Y-43122D01*
X47272Y-43164D01*
X47250Y-43220D01*
X47249Y-43279D01*
X47249Y-43879D01*
X47272Y-43934D01*
X47314Y-43977D01*
X47370Y-43999D01*
X47429Y-44000D01*
X48229Y-44000D01*
X48284Y-43977D01*
X48327Y-43935D01*
X48349Y-43879D01*
X48350Y-43820D01*
X48350Y-43220D01*
X48327Y-43165D01*
X48285Y-43122D01*
X48229Y-43100D01*
X48170Y-43099D01*
X48090Y-43099D01*
X48107Y-43059D01*
X48107Y-43000D01*
X48107Y-42650D01*
X48700Y-42650D01*
X48925Y-42650D01*
X48942Y-42692D01*
X48984Y-42734D01*
X49040Y-42757D01*
X49099Y-42757D01*
X49493Y-42757D01*
X49548Y-42734D01*
X49552Y-42731D01*
X49558Y-42741D01*
X49783Y-42966D01*
X49785Y-42968D01*
X49785Y-43012D01*
X49808Y-43067D01*
X49850Y-43109D01*
X49906Y-43132D01*
X49965Y-43132D01*
X50359Y-43132D01*
X50414Y-43109D01*
X50457Y-43067D01*
X50479Y-43012D01*
X50480Y-42952D01*
X50480Y-42637D01*
X50457Y-42582D01*
X50415Y-42540D01*
X50359Y-42517D01*
X50300Y-42517D01*
X49906Y-42517D01*
X49902Y-42519D01*
X49900Y-42517D01*
X49900Y-42379D01*
X49906Y-42382D01*
X49965Y-42382D01*
X50359Y-42382D01*
X50414Y-42359D01*
X50457Y-42317D01*
X50474Y-42275D01*
X51725Y-42275D01*
X51801Y-42259D01*
X51866Y-42216D01*
X52235Y-41847D01*
X52250Y-41850D01*
X52326Y-41834D01*
X52391Y-41791D01*
X52434Y-41726D01*
X52450Y-41650D01*
X52450Y-41550D01*
X52450Y-35950D01*
X52579Y-35950D01*
X52634Y-35927D01*
X52677Y-35885D01*
X52699Y-35829D01*
X52700Y-35770D01*
X52700Y-35369D01*
X52741Y-35341D01*
X52784Y-35276D01*
X52800Y-35200D01*
X52784Y-35123D01*
X52741Y-35058D01*
X52700Y-35030D01*
X52700Y-34970D01*
X52677Y-34915D01*
X52635Y-34872D01*
X52579Y-34850D01*
X52520Y-34849D01*
X52300Y-34849D01*
X52300Y-33987D01*
X52300Y-33450D01*
X52300Y-33350D01*
X52300Y-32812D01*
X52237Y-32750D01*
X52000Y-32749D01*
X51908Y-32787D01*
X51838Y-32858D01*
X51800Y-32950D01*
X51799Y-33049D01*
X51800Y-33287D01*
X51862Y-33350D01*
X52300Y-33350D01*
X52300Y-33450D01*
X51862Y-33450D01*
X51800Y-33512D01*
X51799Y-33750D01*
X51800Y-33849D01*
X51838Y-33941D01*
X51908Y-34012D01*
X52000Y-34050D01*
X52237Y-34050D01*
X52300Y-33987D01*
X52300Y-34849D01*
X51920Y-34849D01*
X51865Y-34872D01*
X51822Y-34914D01*
X51800Y-34970D01*
X51799Y-35029D01*
X51799Y-35829D01*
X51822Y-35884D01*
X51864Y-35927D01*
X51920Y-35949D01*
X51979Y-35950D01*
X52050Y-35950D01*
X52050Y-41467D01*
X51642Y-41875D01*
X50474Y-41875D01*
X50457Y-41832D01*
X50415Y-41790D01*
X50359Y-41767D01*
X50300Y-41767D01*
X49906Y-41767D01*
X49860Y-41786D01*
X49841Y-41758D01*
X49841Y-41758D01*
X49700Y-41617D01*
X49700Y-41600D01*
X49929Y-41600D01*
X49984Y-41577D01*
X50027Y-41535D01*
X50049Y-41479D01*
X50050Y-41420D01*
X50050Y-40820D01*
X50027Y-40765D01*
X49985Y-40722D01*
X49929Y-40700D01*
X49900Y-40700D01*
X50150Y-40700D01*
X50245Y-40680D01*
X50326Y-40626D01*
X50526Y-40426D01*
X50526Y-40426D01*
X50526Y-40426D01*
X50559Y-40378D01*
X50580Y-40345D01*
X50580Y-40345D01*
X50600Y-40250D01*
X50600Y-40150D01*
X50600Y-38650D01*
X50600Y-38400D01*
X50600Y-38350D01*
X50600Y-35750D01*
X50700Y-35750D01*
X50795Y-35730D01*
X50876Y-35676D01*
X51176Y-35376D01*
X51176Y-35376D01*
X51176Y-35376D01*
X51230Y-35295D01*
X51230Y-35295D01*
X51246Y-35219D01*
X51250Y-35200D01*
X51249Y-35200D01*
X51250Y-35200D01*
X51250Y-34809D01*
X51275Y-34784D01*
X51324Y-34664D01*
X51325Y-34535D01*
X51275Y-34416D01*
X51184Y-34324D01*
X51150Y-34310D01*
X51150Y-32720D01*
X51150Y-32120D01*
X51150Y-31420D01*
X51150Y-30820D01*
X51127Y-30765D01*
X51085Y-30722D01*
X51050Y-30708D01*
X51075Y-30684D01*
X51124Y-30564D01*
X51125Y-30435D01*
X51075Y-30316D01*
X50984Y-30224D01*
X50864Y-30175D01*
X50735Y-30174D01*
X50616Y-30224D01*
X50524Y-30315D01*
X50475Y-30435D01*
X50474Y-30542D01*
X50458Y-30558D01*
X50415Y-30623D01*
X50400Y-30699D01*
X50170Y-30699D01*
X50115Y-30722D01*
X50072Y-30764D01*
X50050Y-30820D01*
X50049Y-30879D01*
X50049Y-31479D01*
X50072Y-31534D01*
X50114Y-31577D01*
X50170Y-31599D01*
X50229Y-31600D01*
X51029Y-31600D01*
X51084Y-31577D01*
X51127Y-31535D01*
X51149Y-31479D01*
X51150Y-31420D01*
X51150Y-32120D01*
X51127Y-32065D01*
X51085Y-32022D01*
X51029Y-32000D01*
X50970Y-31999D01*
X50170Y-31999D01*
X50115Y-32022D01*
X50072Y-32064D01*
X50050Y-32120D01*
X50049Y-32179D01*
X50049Y-32250D01*
X49925Y-32250D01*
X49925Y-30885D01*
X49875Y-30766D01*
X49784Y-30674D01*
X49664Y-30625D01*
X49535Y-30624D01*
X49416Y-30674D01*
X49340Y-30750D01*
X49112Y-30750D01*
X49085Y-30722D01*
X49029Y-30700D01*
X48970Y-30699D01*
X48170Y-30699D01*
X48115Y-30722D01*
X48072Y-30764D01*
X48050Y-30820D01*
X48049Y-30879D01*
X48049Y-31479D01*
X48072Y-31534D01*
X48114Y-31577D01*
X48170Y-31599D01*
X48229Y-31600D01*
X49029Y-31600D01*
X49084Y-31577D01*
X49127Y-31535D01*
X49149Y-31479D01*
X49150Y-31420D01*
X49150Y-31150D01*
X49340Y-31150D01*
X49415Y-31225D01*
X49535Y-31274D01*
X49664Y-31275D01*
X49783Y-31225D01*
X49875Y-31134D01*
X49924Y-31014D01*
X49925Y-30885D01*
X49925Y-32250D01*
X49900Y-32250D01*
X49823Y-32265D01*
X49801Y-32279D01*
X49758Y-32308D01*
X49408Y-32658D01*
X49365Y-32723D01*
X49350Y-32800D01*
X49350Y-32917D01*
X49206Y-32917D01*
X49151Y-32940D01*
X49150Y-32941D01*
X49150Y-32720D01*
X49150Y-32120D01*
X49127Y-32065D01*
X49085Y-32022D01*
X49029Y-32000D01*
X48970Y-31999D01*
X48170Y-31999D01*
X48115Y-32022D01*
X48072Y-32064D01*
X48050Y-32120D01*
X48049Y-32179D01*
X48049Y-32250D01*
X47925Y-32250D01*
X47925Y-31035D01*
X47875Y-30916D01*
X47784Y-30824D01*
X47664Y-30775D01*
X47535Y-30774D01*
X47416Y-30824D01*
X47324Y-30915D01*
X47310Y-30950D01*
X47150Y-30950D01*
X47150Y-30820D01*
X47127Y-30765D01*
X47085Y-30722D01*
X47029Y-30700D01*
X46970Y-30699D01*
X46170Y-30699D01*
X46115Y-30722D01*
X46072Y-30764D01*
X46050Y-30820D01*
X46049Y-30879D01*
X46049Y-31479D01*
X46072Y-31534D01*
X46114Y-31577D01*
X46170Y-31599D01*
X46229Y-31600D01*
X47029Y-31600D01*
X47084Y-31577D01*
X47127Y-31535D01*
X47149Y-31479D01*
X47150Y-31420D01*
X47150Y-31350D01*
X47390Y-31350D01*
X47415Y-31375D01*
X47535Y-31424D01*
X47664Y-31425D01*
X47783Y-31375D01*
X47875Y-31284D01*
X47924Y-31164D01*
X47925Y-31035D01*
X47925Y-32250D01*
X47900Y-32250D01*
X47823Y-32265D01*
X47801Y-32279D01*
X47758Y-32308D01*
X47408Y-32658D01*
X47365Y-32723D01*
X47350Y-32800D01*
X47350Y-32917D01*
X47206Y-32917D01*
X47151Y-32940D01*
X47150Y-32941D01*
X47150Y-32720D01*
X47150Y-32120D01*
X47127Y-32065D01*
X47085Y-32022D01*
X47029Y-32000D01*
X46970Y-31999D01*
X46170Y-31999D01*
X46115Y-32022D01*
X46072Y-32064D01*
X46050Y-32120D01*
X46049Y-32179D01*
X46049Y-32250D01*
X45950Y-32250D01*
X45925Y-32254D01*
X45925Y-31135D01*
X45875Y-31016D01*
X45784Y-30924D01*
X45664Y-30875D01*
X45535Y-30874D01*
X45416Y-30924D01*
X45340Y-31000D01*
X45150Y-31000D01*
X45150Y-30820D01*
X45127Y-30765D01*
X45085Y-30722D01*
X45029Y-30700D01*
X44970Y-30699D01*
X44170Y-30699D01*
X44115Y-30722D01*
X44072Y-30764D01*
X44050Y-30820D01*
X44049Y-30879D01*
X44049Y-31479D01*
X44072Y-31534D01*
X44114Y-31577D01*
X44170Y-31599D01*
X44229Y-31600D01*
X45029Y-31600D01*
X45084Y-31577D01*
X45127Y-31535D01*
X45149Y-31479D01*
X45150Y-31420D01*
X45150Y-31400D01*
X45340Y-31400D01*
X45415Y-31475D01*
X45535Y-31524D01*
X45664Y-31525D01*
X45783Y-31475D01*
X45875Y-31384D01*
X45924Y-31264D01*
X45925Y-31135D01*
X45925Y-32254D01*
X45873Y-32265D01*
X45851Y-32279D01*
X45808Y-32308D01*
X45408Y-32708D01*
X45365Y-32773D01*
X45350Y-32850D01*
X45350Y-32917D01*
X45206Y-32917D01*
X45151Y-32940D01*
X45150Y-32941D01*
X45150Y-32720D01*
X45150Y-32120D01*
X45127Y-32065D01*
X45085Y-32022D01*
X45029Y-32000D01*
X44970Y-31999D01*
X44170Y-31999D01*
X44115Y-32022D01*
X44072Y-32064D01*
X44050Y-32120D01*
X44049Y-32179D01*
X44049Y-32250D01*
X43950Y-32250D01*
X43925Y-32254D01*
X43925Y-31135D01*
X43875Y-31016D01*
X43784Y-30924D01*
X43664Y-30875D01*
X43535Y-30874D01*
X43416Y-30924D01*
X43340Y-31000D01*
X43150Y-31000D01*
X43150Y-30820D01*
X43127Y-30765D01*
X43085Y-30722D01*
X43029Y-30700D01*
X42970Y-30699D01*
X42170Y-30699D01*
X42115Y-30722D01*
X42072Y-30764D01*
X42050Y-30820D01*
X42049Y-30879D01*
X42049Y-31479D01*
X42072Y-31534D01*
X42114Y-31577D01*
X42170Y-31599D01*
X42229Y-31600D01*
X43029Y-31600D01*
X43084Y-31577D01*
X43127Y-31535D01*
X43149Y-31479D01*
X43150Y-31420D01*
X43150Y-31400D01*
X43340Y-31400D01*
X43415Y-31475D01*
X43535Y-31524D01*
X43664Y-31525D01*
X43783Y-31475D01*
X43875Y-31384D01*
X43924Y-31264D01*
X43925Y-31135D01*
X43925Y-32254D01*
X43873Y-32265D01*
X43851Y-32279D01*
X43808Y-32308D01*
X43408Y-32708D01*
X43365Y-32773D01*
X43350Y-32850D01*
X43350Y-32917D01*
X43206Y-32917D01*
X43151Y-32940D01*
X43150Y-32941D01*
X43150Y-32720D01*
X43150Y-32120D01*
X43127Y-32065D01*
X43085Y-32022D01*
X43029Y-32000D01*
X42970Y-31999D01*
X42170Y-31999D01*
X42115Y-32022D01*
X42072Y-32064D01*
X42050Y-32120D01*
X42049Y-32179D01*
X42049Y-32250D01*
X41925Y-32250D01*
X41925Y-31135D01*
X41875Y-31016D01*
X41784Y-30924D01*
X41664Y-30875D01*
X41535Y-30874D01*
X41416Y-30924D01*
X41390Y-30950D01*
X41150Y-30950D01*
X41150Y-30820D01*
X41127Y-30765D01*
X41085Y-30722D01*
X41029Y-30700D01*
X40970Y-30699D01*
X40170Y-30699D01*
X40115Y-30722D01*
X40072Y-30764D01*
X40050Y-30820D01*
X40049Y-30879D01*
X40049Y-31479D01*
X40072Y-31534D01*
X40114Y-31577D01*
X40170Y-31599D01*
X40229Y-31600D01*
X41029Y-31600D01*
X41084Y-31577D01*
X41127Y-31535D01*
X41149Y-31479D01*
X41150Y-31420D01*
X41150Y-31350D01*
X41310Y-31350D01*
X41324Y-31383D01*
X41415Y-31475D01*
X41535Y-31524D01*
X41664Y-31525D01*
X41783Y-31475D01*
X41875Y-31384D01*
X41924Y-31264D01*
X41925Y-31135D01*
X41925Y-32250D01*
X41900Y-32250D01*
X41823Y-32265D01*
X41801Y-32279D01*
X41758Y-32308D01*
X41408Y-32658D01*
X41365Y-32723D01*
X41350Y-32800D01*
X41350Y-32917D01*
X41206Y-32917D01*
X41151Y-32940D01*
X41150Y-32941D01*
X41150Y-32720D01*
X41150Y-32120D01*
X41127Y-32065D01*
X41085Y-32022D01*
X41029Y-32000D01*
X40970Y-31999D01*
X40170Y-31999D01*
X40115Y-32022D01*
X40072Y-32064D01*
X40050Y-32120D01*
X40049Y-32179D01*
X40049Y-32250D01*
X39900Y-32250D01*
X39825Y-32264D01*
X39825Y-31135D01*
X39775Y-31016D01*
X39684Y-30924D01*
X39564Y-30875D01*
X39435Y-30874D01*
X39316Y-30924D01*
X39290Y-30950D01*
X39150Y-30950D01*
X39150Y-30820D01*
X39127Y-30765D01*
X39085Y-30722D01*
X39029Y-30700D01*
X38970Y-30699D01*
X38170Y-30699D01*
X38115Y-30722D01*
X38072Y-30764D01*
X38050Y-30820D01*
X38049Y-30879D01*
X38049Y-31479D01*
X38072Y-31534D01*
X38114Y-31577D01*
X38170Y-31599D01*
X38229Y-31600D01*
X39029Y-31600D01*
X39084Y-31577D01*
X39127Y-31535D01*
X39149Y-31479D01*
X39150Y-31420D01*
X39150Y-31350D01*
X39210Y-31350D01*
X39224Y-31383D01*
X39315Y-31475D01*
X39435Y-31524D01*
X39564Y-31525D01*
X39683Y-31475D01*
X39775Y-31384D01*
X39824Y-31264D01*
X39825Y-31135D01*
X39825Y-32264D01*
X39823Y-32265D01*
X39801Y-32279D01*
X39758Y-32308D01*
X39408Y-32658D01*
X39365Y-32723D01*
X39350Y-32800D01*
X39350Y-32917D01*
X39206Y-32917D01*
X39151Y-32940D01*
X39150Y-32941D01*
X39150Y-32720D01*
X39150Y-32120D01*
X39127Y-32065D01*
X39085Y-32022D01*
X39029Y-32000D01*
X38970Y-31999D01*
X38170Y-31999D01*
X38115Y-32022D01*
X38072Y-32064D01*
X38050Y-32120D01*
X38049Y-32179D01*
X38049Y-32250D01*
X38000Y-32250D01*
X37936Y-32262D01*
X37923Y-32265D01*
X37858Y-32308D01*
X37825Y-32342D01*
X37825Y-31135D01*
X37775Y-31016D01*
X37684Y-30924D01*
X37564Y-30875D01*
X37435Y-30874D01*
X37316Y-30924D01*
X37290Y-30950D01*
X36150Y-30950D01*
X36150Y-30820D01*
X36127Y-30765D01*
X36085Y-30722D01*
X36029Y-30700D01*
X35970Y-30699D01*
X35170Y-30699D01*
X35115Y-30722D01*
X35072Y-30764D01*
X35050Y-30820D01*
X35049Y-30879D01*
X35049Y-31479D01*
X35072Y-31534D01*
X35114Y-31577D01*
X35170Y-31599D01*
X35229Y-31600D01*
X36029Y-31600D01*
X36084Y-31577D01*
X36127Y-31535D01*
X36149Y-31479D01*
X36150Y-31420D01*
X36150Y-31350D01*
X37210Y-31350D01*
X37224Y-31383D01*
X37315Y-31475D01*
X37435Y-31524D01*
X37564Y-31525D01*
X37683Y-31475D01*
X37775Y-31384D01*
X37824Y-31264D01*
X37825Y-31135D01*
X37825Y-32342D01*
X37358Y-32808D01*
X37315Y-32873D01*
X37306Y-32917D01*
X37206Y-32917D01*
X37151Y-32940D01*
X37108Y-32982D01*
X37086Y-33037D01*
X37085Y-33097D01*
X37085Y-33412D01*
X37108Y-33467D01*
X37150Y-33509D01*
X37206Y-33532D01*
X37265Y-33532D01*
X37659Y-33532D01*
X37714Y-33509D01*
X37757Y-33467D01*
X37779Y-33412D01*
X37780Y-33352D01*
X37780Y-33037D01*
X37757Y-32982D01*
X37753Y-32979D01*
X38049Y-32682D01*
X38049Y-32779D01*
X38072Y-32834D01*
X38114Y-32877D01*
X38170Y-32899D01*
X38229Y-32900D01*
X39029Y-32900D01*
X39084Y-32877D01*
X39127Y-32835D01*
X39149Y-32779D01*
X39150Y-32720D01*
X39150Y-32941D01*
X39108Y-32982D01*
X39086Y-33037D01*
X39085Y-33097D01*
X39085Y-33412D01*
X39108Y-33467D01*
X39150Y-33509D01*
X39206Y-33532D01*
X39265Y-33532D01*
X39659Y-33532D01*
X39714Y-33509D01*
X39757Y-33467D01*
X39779Y-33412D01*
X39780Y-33352D01*
X39780Y-33037D01*
X39757Y-32982D01*
X39750Y-32975D01*
X39750Y-32882D01*
X39982Y-32650D01*
X40049Y-32650D01*
X40049Y-32779D01*
X40072Y-32834D01*
X40114Y-32877D01*
X40170Y-32899D01*
X40229Y-32900D01*
X41029Y-32900D01*
X41084Y-32877D01*
X41127Y-32835D01*
X41149Y-32779D01*
X41150Y-32720D01*
X41150Y-32941D01*
X41108Y-32982D01*
X41086Y-33037D01*
X41085Y-33097D01*
X41085Y-33412D01*
X41108Y-33467D01*
X41150Y-33509D01*
X41206Y-33532D01*
X41265Y-33532D01*
X41659Y-33532D01*
X41714Y-33509D01*
X41757Y-33467D01*
X41779Y-33412D01*
X41780Y-33352D01*
X41780Y-33037D01*
X41757Y-32982D01*
X41750Y-32975D01*
X41750Y-32882D01*
X41982Y-32650D01*
X42049Y-32650D01*
X42049Y-32779D01*
X42072Y-32834D01*
X42114Y-32877D01*
X42170Y-32899D01*
X42229Y-32900D01*
X43029Y-32900D01*
X43084Y-32877D01*
X43127Y-32835D01*
X43149Y-32779D01*
X43150Y-32720D01*
X43150Y-32941D01*
X43108Y-32982D01*
X43086Y-33037D01*
X43085Y-33097D01*
X43085Y-33412D01*
X43108Y-33467D01*
X43150Y-33509D01*
X43206Y-33532D01*
X43265Y-33532D01*
X43659Y-33532D01*
X43714Y-33509D01*
X43757Y-33467D01*
X43779Y-33412D01*
X43780Y-33352D01*
X43780Y-33037D01*
X43757Y-32982D01*
X43750Y-32975D01*
X43750Y-32932D01*
X44032Y-32650D01*
X44049Y-32650D01*
X44049Y-32779D01*
X44072Y-32834D01*
X44114Y-32877D01*
X44170Y-32899D01*
X44229Y-32900D01*
X45029Y-32900D01*
X45084Y-32877D01*
X45127Y-32835D01*
X45149Y-32779D01*
X45150Y-32720D01*
X45150Y-32941D01*
X45108Y-32982D01*
X45086Y-33037D01*
X45085Y-33097D01*
X45085Y-33412D01*
X45108Y-33467D01*
X45150Y-33509D01*
X45206Y-33532D01*
X45265Y-33532D01*
X45659Y-33532D01*
X45714Y-33509D01*
X45757Y-33467D01*
X45779Y-33412D01*
X45780Y-33352D01*
X45780Y-33037D01*
X45757Y-32982D01*
X45750Y-32975D01*
X45750Y-32932D01*
X46032Y-32650D01*
X46049Y-32650D01*
X46049Y-32779D01*
X46072Y-32834D01*
X46114Y-32877D01*
X46170Y-32899D01*
X46229Y-32900D01*
X47029Y-32900D01*
X47084Y-32877D01*
X47127Y-32835D01*
X47149Y-32779D01*
X47150Y-32720D01*
X47150Y-32941D01*
X47108Y-32982D01*
X47086Y-33037D01*
X47085Y-33097D01*
X47085Y-33412D01*
X47108Y-33467D01*
X47150Y-33509D01*
X47206Y-33532D01*
X47265Y-33532D01*
X47659Y-33532D01*
X47714Y-33509D01*
X47757Y-33467D01*
X47779Y-33412D01*
X47780Y-33352D01*
X47780Y-33037D01*
X47757Y-32982D01*
X47750Y-32975D01*
X47750Y-32882D01*
X47982Y-32650D01*
X48049Y-32650D01*
X48049Y-32779D01*
X48072Y-32834D01*
X48114Y-32877D01*
X48170Y-32899D01*
X48229Y-32900D01*
X49029Y-32900D01*
X49084Y-32877D01*
X49127Y-32835D01*
X49149Y-32779D01*
X49150Y-32720D01*
X49150Y-32941D01*
X49108Y-32982D01*
X49086Y-33037D01*
X49085Y-33097D01*
X49085Y-33412D01*
X49108Y-33467D01*
X49150Y-33509D01*
X49206Y-33532D01*
X49265Y-33532D01*
X49659Y-33532D01*
X49714Y-33509D01*
X49757Y-33467D01*
X49779Y-33412D01*
X49780Y-33352D01*
X49780Y-33037D01*
X49757Y-32982D01*
X49750Y-32975D01*
X49750Y-32882D01*
X49982Y-32650D01*
X50049Y-32650D01*
X50049Y-32779D01*
X50072Y-32834D01*
X50114Y-32877D01*
X50170Y-32899D01*
X50229Y-32900D01*
X51029Y-32900D01*
X51084Y-32877D01*
X51127Y-32835D01*
X51149Y-32779D01*
X51150Y-32720D01*
X51150Y-34310D01*
X51064Y-34275D01*
X50935Y-34274D01*
X50816Y-34324D01*
X50724Y-34415D01*
X50675Y-34535D01*
X50674Y-34664D01*
X50724Y-34783D01*
X50750Y-34809D01*
X50750Y-35096D01*
X50596Y-35250D01*
X50400Y-35250D01*
X50350Y-35250D01*
X49812Y-35250D01*
X49827Y-35235D01*
X49849Y-35179D01*
X49850Y-35120D01*
X49850Y-34520D01*
X49827Y-34465D01*
X49785Y-34422D01*
X49729Y-34400D01*
X49670Y-34399D01*
X49500Y-34399D01*
X49500Y-34282D01*
X49659Y-34282D01*
X49714Y-34259D01*
X49757Y-34217D01*
X49779Y-34162D01*
X49780Y-34102D01*
X49780Y-33787D01*
X49757Y-33732D01*
X49715Y-33690D01*
X49659Y-33667D01*
X49600Y-33667D01*
X49206Y-33667D01*
X49151Y-33690D01*
X49108Y-33732D01*
X49086Y-33787D01*
X49085Y-33847D01*
X49085Y-34162D01*
X49100Y-34196D01*
X49100Y-34399D01*
X48870Y-34399D01*
X48815Y-34422D01*
X48772Y-34464D01*
X48750Y-34520D01*
X48750Y-34549D01*
X48750Y-33907D01*
X48793Y-33907D01*
X48848Y-33884D01*
X48891Y-33842D01*
X48913Y-33787D01*
X48914Y-33727D01*
X48914Y-33412D01*
X48891Y-33357D01*
X48849Y-33315D01*
X48793Y-33292D01*
X48734Y-33292D01*
X48340Y-33292D01*
X48285Y-33315D01*
X48242Y-33357D01*
X48220Y-33412D01*
X48219Y-33472D01*
X48219Y-33787D01*
X48242Y-33842D01*
X48250Y-33849D01*
X48250Y-35250D01*
X47812Y-35250D01*
X47827Y-35235D01*
X47849Y-35179D01*
X47850Y-35120D01*
X47850Y-34520D01*
X47827Y-34465D01*
X47785Y-34422D01*
X47729Y-34400D01*
X47670Y-34399D01*
X47500Y-34399D01*
X47500Y-34282D01*
X47500Y-34282D01*
X47659Y-34282D01*
X47714Y-34259D01*
X47757Y-34217D01*
X47779Y-34162D01*
X47780Y-34102D01*
X47780Y-33787D01*
X47757Y-33732D01*
X47715Y-33690D01*
X47659Y-33667D01*
X47600Y-33667D01*
X47206Y-33667D01*
X47151Y-33690D01*
X47108Y-33732D01*
X47086Y-33787D01*
X47085Y-33847D01*
X47085Y-34162D01*
X47100Y-34197D01*
X47100Y-34200D01*
X47100Y-34399D01*
X46870Y-34399D01*
X46815Y-34422D01*
X46772Y-34464D01*
X46750Y-34520D01*
X46750Y-34549D01*
X46750Y-33907D01*
X46793Y-33907D01*
X46848Y-33884D01*
X46891Y-33842D01*
X46913Y-33787D01*
X46914Y-33727D01*
X46914Y-33412D01*
X46891Y-33357D01*
X46849Y-33315D01*
X46793Y-33292D01*
X46734Y-33292D01*
X46340Y-33292D01*
X46285Y-33315D01*
X46242Y-33357D01*
X46220Y-33412D01*
X46219Y-33472D01*
X46219Y-33787D01*
X46242Y-33842D01*
X46250Y-33849D01*
X46250Y-35250D01*
X45812Y-35250D01*
X45827Y-35235D01*
X45849Y-35179D01*
X45850Y-35120D01*
X45850Y-34520D01*
X45827Y-34465D01*
X45785Y-34422D01*
X45729Y-34400D01*
X45670Y-34399D01*
X45500Y-34399D01*
X45500Y-34282D01*
X45500Y-34282D01*
X45659Y-34282D01*
X45714Y-34259D01*
X45757Y-34217D01*
X45779Y-34162D01*
X45780Y-34102D01*
X45780Y-33787D01*
X45757Y-33732D01*
X45715Y-33690D01*
X45659Y-33667D01*
X45600Y-33667D01*
X45206Y-33667D01*
X45151Y-33690D01*
X45108Y-33732D01*
X45086Y-33787D01*
X45085Y-33847D01*
X45085Y-34162D01*
X45100Y-34197D01*
X45100Y-34200D01*
X45100Y-34399D01*
X44870Y-34399D01*
X44815Y-34422D01*
X44772Y-34464D01*
X44750Y-34520D01*
X44750Y-34549D01*
X44750Y-33907D01*
X44793Y-33907D01*
X44848Y-33884D01*
X44891Y-33842D01*
X44913Y-33787D01*
X44914Y-33727D01*
X44914Y-33412D01*
X44891Y-33357D01*
X44849Y-33315D01*
X44793Y-33292D01*
X44734Y-33292D01*
X44340Y-33292D01*
X44285Y-33315D01*
X44242Y-33357D01*
X44220Y-33412D01*
X44219Y-33472D01*
X44219Y-33787D01*
X44242Y-33842D01*
X44250Y-33849D01*
X44250Y-35250D01*
X43812Y-35250D01*
X43827Y-35235D01*
X43849Y-35179D01*
X43850Y-35120D01*
X43850Y-34520D01*
X43827Y-34465D01*
X43785Y-34422D01*
X43729Y-34400D01*
X43670Y-34399D01*
X43500Y-34399D01*
X43500Y-34282D01*
X43500Y-34282D01*
X43659Y-34282D01*
X43714Y-34259D01*
X43757Y-34217D01*
X43779Y-34162D01*
X43780Y-34102D01*
X43780Y-33787D01*
X43757Y-33732D01*
X43715Y-33690D01*
X43659Y-33667D01*
X43600Y-33667D01*
X43206Y-33667D01*
X43151Y-33690D01*
X43108Y-33732D01*
X43086Y-33787D01*
X43085Y-33847D01*
X43085Y-34162D01*
X43100Y-34197D01*
X43100Y-34200D01*
X43100Y-34399D01*
X42870Y-34399D01*
X42815Y-34422D01*
X42772Y-34464D01*
X42750Y-34520D01*
X42750Y-34549D01*
X42750Y-33907D01*
X42793Y-33907D01*
X42848Y-33884D01*
X42891Y-33842D01*
X42913Y-33787D01*
X42914Y-33727D01*
X42914Y-33412D01*
X42891Y-33357D01*
X42849Y-33315D01*
X42793Y-33292D01*
X42734Y-33292D01*
X42340Y-33292D01*
X42285Y-33315D01*
X42242Y-33357D01*
X42220Y-33412D01*
X42219Y-33472D01*
X42219Y-33787D01*
X42242Y-33842D01*
X42250Y-33849D01*
X42250Y-35250D01*
X41812Y-35250D01*
X41827Y-35235D01*
X41849Y-35179D01*
X41850Y-35120D01*
X41850Y-34520D01*
X41827Y-34465D01*
X41785Y-34422D01*
X41729Y-34400D01*
X41670Y-34399D01*
X41500Y-34399D01*
X41500Y-34282D01*
X41500Y-34282D01*
X41659Y-34282D01*
X41714Y-34259D01*
X41757Y-34217D01*
X41779Y-34162D01*
X41780Y-34102D01*
X41780Y-33787D01*
X41757Y-33732D01*
X41715Y-33690D01*
X41659Y-33667D01*
X41600Y-33667D01*
X41206Y-33667D01*
X41151Y-33690D01*
X41108Y-33732D01*
X41086Y-33787D01*
X41085Y-33847D01*
X41085Y-34162D01*
X41100Y-34197D01*
X41100Y-34200D01*
X41100Y-34399D01*
X40870Y-34399D01*
X40815Y-34422D01*
X40772Y-34464D01*
X40750Y-34520D01*
X40750Y-34549D01*
X40750Y-33907D01*
X40793Y-33907D01*
X40848Y-33884D01*
X40891Y-33842D01*
X40913Y-33787D01*
X40914Y-33727D01*
X40914Y-33412D01*
X40891Y-33357D01*
X40849Y-33315D01*
X40793Y-33292D01*
X40734Y-33292D01*
X40340Y-33292D01*
X40285Y-33315D01*
X40242Y-33357D01*
X40220Y-33412D01*
X40219Y-33472D01*
X40219Y-33787D01*
X40242Y-33842D01*
X40250Y-33849D01*
X40250Y-35250D01*
X39812Y-35250D01*
X39827Y-35235D01*
X39849Y-35179D01*
X39850Y-35120D01*
X39850Y-34520D01*
X39827Y-34465D01*
X39785Y-34422D01*
X39729Y-34400D01*
X39670Y-34399D01*
X39500Y-34399D01*
X39500Y-34282D01*
X39500Y-34282D01*
X39659Y-34282D01*
X39714Y-34259D01*
X39757Y-34217D01*
X39779Y-34162D01*
X39780Y-34102D01*
X39780Y-33787D01*
X39757Y-33732D01*
X39715Y-33690D01*
X39659Y-33667D01*
X39600Y-33667D01*
X39206Y-33667D01*
X39151Y-33690D01*
X39108Y-33732D01*
X39086Y-33787D01*
X39085Y-33847D01*
X39085Y-34162D01*
X39100Y-34197D01*
X39100Y-34200D01*
X39100Y-34399D01*
X38870Y-34399D01*
X38815Y-34422D01*
X38772Y-34464D01*
X38750Y-34520D01*
X38750Y-34549D01*
X38750Y-33907D01*
X38793Y-33907D01*
X38848Y-33884D01*
X38891Y-33842D01*
X38913Y-33787D01*
X38914Y-33727D01*
X38914Y-33412D01*
X38891Y-33357D01*
X38849Y-33315D01*
X38793Y-33292D01*
X38734Y-33292D01*
X38340Y-33292D01*
X38285Y-33315D01*
X38242Y-33357D01*
X38220Y-33412D01*
X38219Y-33472D01*
X38219Y-33787D01*
X38242Y-33842D01*
X38250Y-33849D01*
X38250Y-35250D01*
X37812Y-35250D01*
X37827Y-35235D01*
X37849Y-35179D01*
X37850Y-35120D01*
X37850Y-34520D01*
X37827Y-34465D01*
X37785Y-34422D01*
X37729Y-34400D01*
X37670Y-34399D01*
X37500Y-34399D01*
X37500Y-34282D01*
X37659Y-34282D01*
X37714Y-34259D01*
X37757Y-34217D01*
X37779Y-34162D01*
X37780Y-34102D01*
X37780Y-33787D01*
X37757Y-33732D01*
X37715Y-33690D01*
X37659Y-33667D01*
X37600Y-33667D01*
X37206Y-33667D01*
X37151Y-33690D01*
X37108Y-33732D01*
X37086Y-33787D01*
X37085Y-33847D01*
X37085Y-34162D01*
X37100Y-34196D01*
X37100Y-34399D01*
X36870Y-34399D01*
X36815Y-34422D01*
X36772Y-34464D01*
X36750Y-34520D01*
X36750Y-34549D01*
X36750Y-33907D01*
X36793Y-33907D01*
X36848Y-33884D01*
X36891Y-33842D01*
X36913Y-33787D01*
X36914Y-33727D01*
X36914Y-33412D01*
X36891Y-33357D01*
X36849Y-33315D01*
X36793Y-33292D01*
X36734Y-33292D01*
X36340Y-33292D01*
X36285Y-33315D01*
X36242Y-33357D01*
X36220Y-33412D01*
X36219Y-33472D01*
X36219Y-33787D01*
X36242Y-33842D01*
X36250Y-33849D01*
X36250Y-35250D01*
X36150Y-35250D01*
X36150Y-32720D01*
X36150Y-32120D01*
X36127Y-32065D01*
X36085Y-32022D01*
X36029Y-32000D01*
X35970Y-31999D01*
X35170Y-31999D01*
X35115Y-32022D01*
X35072Y-32064D01*
X35050Y-32120D01*
X35049Y-32179D01*
X35049Y-32779D01*
X35072Y-32834D01*
X35114Y-32877D01*
X35170Y-32899D01*
X35229Y-32900D01*
X35400Y-32900D01*
X35400Y-32917D01*
X35206Y-32917D01*
X35151Y-32940D01*
X35108Y-32982D01*
X35086Y-33037D01*
X35085Y-33097D01*
X35085Y-33412D01*
X35108Y-33467D01*
X35150Y-33509D01*
X35206Y-33532D01*
X35265Y-33532D01*
X35659Y-33532D01*
X35714Y-33509D01*
X35757Y-33467D01*
X35779Y-33412D01*
X35780Y-33352D01*
X35780Y-33133D01*
X35784Y-33126D01*
X35784Y-33126D01*
X35799Y-33050D01*
X35800Y-33050D01*
X35800Y-32900D01*
X36029Y-32900D01*
X36084Y-32877D01*
X36127Y-32835D01*
X36149Y-32779D01*
X36150Y-32720D01*
X36150Y-35250D01*
X35812Y-35250D01*
X35827Y-35235D01*
X35849Y-35179D01*
X35850Y-35120D01*
X35850Y-34520D01*
X35827Y-34465D01*
X35785Y-34422D01*
X35729Y-34400D01*
X35670Y-34399D01*
X35500Y-34399D01*
X35500Y-34282D01*
X35659Y-34282D01*
X35714Y-34259D01*
X35757Y-34217D01*
X35779Y-34162D01*
X35780Y-34102D01*
X35780Y-33787D01*
X35757Y-33732D01*
X35715Y-33690D01*
X35659Y-33667D01*
X35600Y-33667D01*
X35206Y-33667D01*
X35151Y-33690D01*
X35108Y-33732D01*
X35086Y-33787D01*
X35085Y-33847D01*
X35085Y-34162D01*
X35100Y-34196D01*
X35100Y-34399D01*
X34870Y-34399D01*
X34817Y-34421D01*
X34817Y-33897D01*
X34848Y-33884D01*
X34891Y-33842D01*
X34913Y-33787D01*
X34914Y-33727D01*
X34914Y-33412D01*
X34891Y-33357D01*
X34849Y-33315D01*
X34793Y-33292D01*
X34734Y-33292D01*
X34340Y-33292D01*
X34285Y-33315D01*
X34250Y-33350D01*
X34250Y-29350D01*
X73700Y-29350D01*
X73700Y-45450D01*
M02*
