G04 (created by PCBNEW (2013-jul-07)-stable) date ven. 28 nov. 2014 16:43:25 CET*
%MOIN*%
G04 Gerber Fmt 3.4, Leading zero omitted, Abs format*
%FSLAX34Y34*%
G01*
G70*
G90*
G04 APERTURE LIST*
%ADD10C,0.00590551*%
%ADD11R,0.06X0.06*%
%ADD12C,0.06*%
%ADD13R,0.0709X0.0433*%
%ADD14R,0.0709X0.0629*%
%ADD15R,0.0629X0.0709*%
G04 APERTURE END LIST*
G54D10*
X74000Y-29100D02*
X74000Y-45650D01*
X73400Y-29100D02*
X74000Y-29100D01*
X73400Y-45650D02*
X74000Y-45650D01*
X34000Y-29100D02*
X34000Y-45600D01*
X34000Y-29100D02*
X73400Y-29100D01*
X34000Y-45650D02*
X34000Y-45600D01*
X73400Y-45650D02*
X34000Y-45650D01*
X34000Y-45800D02*
G75*
G03X34000Y-45800I0J0D01*
G74*
G01*
X33999Y-45800D02*
X34000Y-45800D01*
X34000Y-45799D02*
X34000Y-45800D01*
G54D11*
X39700Y-37650D03*
G54D12*
X39700Y-38650D03*
X40700Y-37650D03*
X40700Y-38650D03*
X41700Y-37650D03*
X41700Y-38650D03*
X42700Y-37650D03*
X42700Y-38650D03*
X43700Y-37650D03*
X43700Y-38650D03*
X44700Y-37650D03*
X44700Y-38650D03*
X45700Y-37650D03*
X45700Y-38650D03*
X46700Y-37650D03*
X46700Y-38650D03*
X47700Y-37650D03*
X47700Y-38650D03*
X48700Y-37650D03*
X48700Y-38650D03*
G54D13*
X56020Y-41528D03*
X53580Y-41528D03*
X53580Y-40072D03*
X56020Y-40072D03*
G54D14*
X69400Y-37359D03*
X69400Y-36241D03*
X57400Y-37359D03*
X57400Y-36241D03*
X59400Y-37359D03*
X59400Y-36241D03*
G54D15*
X53559Y-35300D03*
X52441Y-35300D03*
G54D14*
X61400Y-37359D03*
X61400Y-36241D03*
G54D15*
X52441Y-33200D03*
X53559Y-33200D03*
G54D14*
X63400Y-37359D03*
X63400Y-36241D03*
X65400Y-37359D03*
X65400Y-36241D03*
X67400Y-37359D03*
X67400Y-36241D03*
X63400Y-33241D03*
X63400Y-34359D03*
X71400Y-37359D03*
X71400Y-36241D03*
X57400Y-33241D03*
X57400Y-34359D03*
X59400Y-33241D03*
X59400Y-34359D03*
X61400Y-33241D03*
X61400Y-34359D03*
X71400Y-33241D03*
X71400Y-34359D03*
X69400Y-33241D03*
X69400Y-34359D03*
X67400Y-33241D03*
X67400Y-34359D03*
X65400Y-33241D03*
X65400Y-34359D03*
M02*
