G04 (created by PCBNEW (2013-jul-07)-stable) date ven. 28 nov. 2014 17:47:18 CET*
%MOIN*%
G04 Gerber Fmt 3.4, Leading zero omitted, Abs format*
%FSLAX34Y34*%
G01*
G70*
G90*
G04 APERTURE LIST*
%ADD10C,0.00590551*%
%ADD11C,0.015*%
%ADD12R,0.06X0.06*%
%ADD13C,0.06*%
%ADD14R,0.038X0.05*%
%ADD15O,0.078X0.156*%
%ADD16C,0.1417*%
%ADD17R,0.07X0.07*%
%ADD18C,0.08*%
%ADD19C,0.1*%
%ADD20C,0.052*%
%ADD21C,0.1437*%
%ADD22R,0.0591X0.0591*%
%ADD23C,0.0591*%
%ADD24C,0.0787402*%
%ADD25C,0.07*%
%ADD26C,0.0314961*%
%ADD27C,0.035*%
%ADD28C,0.02*%
%ADD29C,0.011811*%
%ADD30C,0.005*%
G04 APERTURE END LIST*
G54D10*
G54D11*
X52362Y-44488D02*
X12992Y-44488D01*
X52362Y-10629D02*
X52362Y-44488D01*
X52362Y-10629D02*
X12992Y-10629D01*
X12992Y-44488D02*
X12992Y-10629D01*
G54D12*
X44000Y-31000D03*
G54D13*
X43000Y-31000D03*
X42000Y-31000D03*
X41000Y-31000D03*
X40000Y-31000D03*
G54D12*
X50000Y-24000D03*
G54D13*
X50000Y-25000D03*
X50000Y-26000D03*
X50000Y-27000D03*
X50000Y-28000D03*
G54D12*
X34850Y-42150D03*
G54D13*
X35850Y-42150D03*
G54D12*
X37975Y-42550D03*
G54D13*
X38975Y-42550D03*
X39975Y-42550D03*
X40975Y-42550D03*
X41975Y-42550D03*
X42975Y-42550D03*
G54D12*
X47400Y-34700D03*
G54D13*
X47400Y-33700D03*
X48400Y-34700D03*
X48400Y-33700D03*
X49400Y-34700D03*
X49400Y-33700D03*
G54D14*
X48010Y-32560D03*
X47510Y-32560D03*
G54D12*
X33150Y-21070D03*
G54D13*
X33150Y-20070D03*
X34150Y-21070D03*
X34150Y-20070D03*
X35150Y-21070D03*
X35150Y-20070D03*
G54D12*
X14755Y-37204D03*
G54D13*
X15755Y-37204D03*
G54D15*
X14998Y-42125D03*
X16513Y-42125D03*
G54D16*
X15256Y-13898D03*
X19744Y-13879D03*
G54D17*
X19232Y-16379D03*
G54D18*
X18760Y-17383D03*
X18248Y-16379D03*
X17736Y-17383D03*
X17264Y-16379D03*
X16752Y-17383D03*
X16240Y-16379D03*
X15768Y-17383D03*
X20118Y-12304D03*
X19114Y-12304D03*
X15886Y-12304D03*
X14882Y-12304D03*
G54D19*
X20512Y-15060D03*
X14449Y-15060D03*
G54D15*
X37893Y-12893D03*
X36377Y-12893D03*
X34862Y-12893D03*
G54D12*
X34550Y-17250D03*
G54D13*
X34550Y-18250D03*
G54D15*
X50118Y-12913D03*
X48602Y-12913D03*
X47086Y-12913D03*
G54D12*
X33150Y-35700D03*
G54D13*
X33150Y-34700D03*
X34150Y-35700D03*
X34150Y-34700D03*
X35150Y-35700D03*
X35150Y-34700D03*
X36150Y-35700D03*
X36150Y-34700D03*
X37150Y-35700D03*
X37150Y-34700D03*
X38150Y-35700D03*
X38150Y-34700D03*
X39150Y-35700D03*
X39150Y-34700D03*
X40150Y-35700D03*
X40150Y-34700D03*
X41150Y-35700D03*
X41150Y-34700D03*
X42150Y-35700D03*
X42150Y-34700D03*
G54D20*
X49075Y-18525D03*
X48075Y-18525D03*
X47075Y-18525D03*
G54D12*
X40000Y-20000D03*
G54D13*
X41000Y-20000D03*
X42000Y-20000D03*
X43000Y-20000D03*
X44000Y-20000D03*
G54D15*
X43996Y-12893D03*
X42480Y-12893D03*
X40964Y-12893D03*
G54D21*
X50838Y-40700D03*
X46165Y-40700D03*
G54D22*
X46750Y-38200D03*
G54D23*
X47250Y-37200D03*
X47750Y-38200D03*
X48250Y-37200D03*
X48750Y-38200D03*
X49250Y-37200D03*
X49750Y-38200D03*
X50250Y-37200D03*
G54D24*
X45500Y-42700D03*
X51500Y-42700D03*
G54D12*
X38550Y-19150D03*
G54D13*
X38550Y-18150D03*
X38550Y-17150D03*
G54D12*
X36750Y-19150D03*
G54D13*
X36750Y-18150D03*
X36750Y-17150D03*
G54D17*
X41300Y-23500D03*
G54D25*
X43300Y-23500D03*
G54D26*
X41200Y-27000D03*
X41200Y-26600D03*
G54D12*
X23050Y-17650D03*
G54D13*
X22050Y-17650D03*
G54D27*
X27350Y-34800D03*
X30325Y-28225D03*
X35196Y-26889D03*
X35225Y-29825D03*
X33307Y-23070D03*
X44750Y-35600D03*
X36500Y-27350D03*
X33937Y-27401D03*
X31062Y-34724D03*
X32200Y-27400D03*
X25200Y-23200D03*
X27300Y-14850D03*
X26600Y-17800D03*
X20078Y-20767D03*
X39750Y-17150D03*
X28050Y-15950D03*
X28100Y-20650D03*
X32950Y-26000D03*
X30000Y-17625D03*
X34600Y-29900D03*
X30700Y-29050D03*
X31610Y-21040D03*
X30400Y-33700D03*
X31496Y-23326D03*
X20708Y-22677D03*
X19400Y-24200D03*
X28600Y-16350D03*
X28700Y-23300D03*
X27500Y-16400D03*
X28110Y-21417D03*
X45400Y-32270D03*
X23050Y-22200D03*
X22500Y-42300D03*
X20950Y-40850D03*
X37450Y-25850D03*
X40050Y-27700D03*
X39400Y-27700D03*
X36650Y-28050D03*
X38300Y-27675D03*
X36775Y-29050D03*
X34800Y-28450D03*
X36200Y-29350D03*
X36318Y-29921D03*
X34050Y-28800D03*
G54D28*
X47075Y-18525D02*
X47075Y-22825D01*
X49250Y-25000D02*
X50000Y-25000D01*
X47075Y-22825D02*
X49250Y-25000D01*
X33800Y-29400D02*
X34300Y-29400D01*
X34550Y-29150D02*
X35225Y-29150D01*
X34300Y-29400D02*
X34550Y-29150D01*
X33000Y-28600D02*
X33000Y-29200D01*
X33200Y-29400D02*
X33800Y-29400D01*
X33000Y-29200D02*
X33200Y-29400D01*
X33150Y-35700D02*
X33150Y-34700D01*
X33150Y-30900D02*
X33450Y-30600D01*
X33150Y-30900D02*
X33150Y-34700D01*
X34500Y-30600D02*
X34900Y-30600D01*
X33450Y-30600D02*
X34500Y-30600D01*
X35225Y-29825D02*
X35225Y-30275D01*
X34900Y-30600D02*
X35225Y-30275D01*
X28250Y-35700D02*
X33150Y-35700D01*
X27350Y-34800D02*
X28250Y-35700D01*
X35225Y-29300D02*
X35225Y-29300D01*
X32700Y-27900D02*
X33000Y-27900D01*
X30325Y-28225D02*
X30325Y-28175D01*
X30600Y-27900D02*
X32700Y-27900D01*
X30325Y-28175D02*
X30600Y-27900D01*
X33450Y-26200D02*
X33450Y-26600D01*
X33000Y-27050D02*
X33000Y-28600D01*
X33450Y-26600D02*
X33000Y-27050D01*
X33450Y-23627D02*
X33307Y-23485D01*
X33450Y-26200D02*
X33450Y-23627D01*
X33150Y-35700D02*
X33150Y-42650D01*
X40975Y-43025D02*
X40975Y-42550D01*
X40400Y-43600D02*
X40975Y-43025D01*
X34100Y-43600D02*
X40400Y-43600D01*
X33150Y-42650D02*
X34100Y-43600D01*
X35225Y-26917D02*
X35225Y-29150D01*
X35196Y-26889D02*
X35225Y-26917D01*
X35225Y-29150D02*
X35225Y-29200D01*
X35225Y-29200D02*
X35225Y-29300D01*
X35225Y-29300D02*
X35225Y-29825D01*
X33307Y-23070D02*
X33307Y-23485D01*
X33307Y-23485D02*
X33307Y-23464D01*
X33307Y-23464D02*
X33307Y-23485D01*
X33307Y-23485D02*
X32900Y-23485D01*
X32340Y-22925D02*
X32340Y-20540D01*
X32340Y-20540D02*
X32810Y-20070D01*
X32810Y-20070D02*
X33150Y-20070D01*
X32900Y-23485D02*
X32340Y-22925D01*
X33150Y-20070D02*
X32950Y-20070D01*
X49750Y-38200D02*
X49875Y-38200D01*
X50250Y-37825D02*
X50250Y-37200D01*
X49875Y-38200D02*
X50250Y-37825D01*
G54D29*
X44750Y-35600D02*
X44700Y-35600D01*
X44700Y-26250D02*
X44300Y-25850D01*
X38000Y-25850D02*
X44000Y-25850D01*
X36500Y-27350D02*
X38000Y-25850D01*
X44000Y-25850D02*
X44300Y-25850D01*
X44700Y-35600D02*
X44700Y-26250D01*
X28600Y-30950D02*
X31062Y-33412D01*
X31062Y-33412D02*
X31062Y-34724D01*
X33976Y-27362D02*
X33976Y-26889D01*
X33937Y-27401D02*
X33976Y-27362D01*
X28600Y-27400D02*
X28600Y-29925D01*
X28600Y-29925D02*
X28600Y-30950D01*
X33976Y-24555D02*
X33976Y-24418D01*
X35270Y-21190D02*
X35150Y-21070D01*
X35250Y-23145D02*
X35270Y-21190D01*
X33976Y-24418D02*
X35250Y-23145D01*
X33976Y-25400D02*
X33976Y-24555D01*
X33976Y-26889D02*
X33976Y-25400D01*
X32200Y-27400D02*
X28600Y-27400D01*
X28600Y-27400D02*
X28600Y-27350D01*
X28600Y-25100D02*
X26700Y-23200D01*
X28600Y-27350D02*
X28600Y-25100D01*
X25200Y-23200D02*
X26700Y-23200D01*
X35150Y-35700D02*
X35150Y-35575D01*
X49400Y-33700D02*
X49400Y-33120D01*
X48840Y-32560D02*
X48010Y-32560D01*
X49400Y-33120D02*
X48840Y-32560D01*
G54D28*
X26600Y-16925D02*
X26600Y-16050D01*
X26600Y-16050D02*
X27300Y-15350D01*
X27300Y-15350D02*
X27300Y-14850D01*
X27300Y-15350D02*
X27300Y-14850D01*
X26600Y-17800D02*
X26600Y-16925D01*
X25100Y-20767D02*
X25582Y-20767D01*
X26600Y-19750D02*
X26600Y-17800D01*
X25582Y-20767D02*
X26600Y-19750D01*
X20078Y-20767D02*
X25100Y-20767D01*
G54D29*
X38550Y-17150D02*
X39750Y-17150D01*
X34550Y-17250D02*
X34550Y-14600D01*
X34977Y-14172D02*
X36377Y-14172D01*
X34550Y-14600D02*
X34977Y-14172D01*
X38550Y-17150D02*
X38550Y-14550D01*
X38550Y-14550D02*
X38172Y-14172D01*
X38172Y-14172D02*
X36377Y-14172D01*
X36377Y-14172D02*
X36377Y-12893D01*
X28100Y-20650D02*
X28100Y-20475D01*
X28075Y-15975D02*
X28050Y-15950D01*
X28075Y-20450D02*
X28075Y-15975D01*
X28100Y-20475D02*
X28075Y-20450D01*
X30800Y-18050D02*
X30375Y-17625D01*
X30800Y-25350D02*
X30800Y-18050D01*
X31450Y-26000D02*
X30800Y-25350D01*
X32950Y-26000D02*
X31450Y-26000D01*
X30000Y-17625D02*
X30375Y-17625D01*
X30700Y-29050D02*
X30700Y-29550D01*
X31050Y-29900D02*
X34600Y-29900D01*
X30700Y-29550D02*
X31050Y-29900D01*
G54D28*
X45500Y-42700D02*
X51500Y-42700D01*
G54D29*
X28543Y-17050D02*
X28543Y-16406D01*
X28543Y-16406D02*
X28600Y-16350D01*
X28543Y-23143D02*
X28700Y-23300D01*
X28543Y-17027D02*
X28543Y-17050D01*
X28543Y-17050D02*
X28543Y-22834D01*
X28600Y-16350D02*
X28600Y-16448D01*
X28543Y-22834D02*
X28543Y-23143D01*
X28110Y-21417D02*
X28042Y-21417D01*
X27500Y-20875D02*
X27500Y-16400D01*
X28042Y-21417D02*
X27500Y-20875D01*
X27500Y-16400D02*
X27598Y-16400D01*
X42480Y-12893D02*
X42480Y-13031D01*
X42992Y-18992D02*
X44000Y-20000D01*
X42992Y-13543D02*
X42992Y-18992D01*
X42480Y-13031D02*
X42992Y-13543D01*
X40964Y-12893D02*
X40964Y-12933D01*
X41496Y-19496D02*
X42000Y-20000D01*
X41496Y-13464D02*
X41496Y-19496D01*
X40964Y-12933D02*
X41496Y-13464D01*
X45690Y-32560D02*
X47510Y-32560D01*
X45400Y-32270D02*
X45690Y-32560D01*
X16752Y-17383D02*
X16752Y-20652D01*
X18300Y-22200D02*
X23050Y-22200D01*
X16752Y-20652D02*
X18300Y-22200D01*
X20950Y-40850D02*
X20950Y-40875D01*
X22375Y-42300D02*
X22500Y-42300D01*
X20950Y-40875D02*
X22375Y-42300D01*
X50000Y-27800D02*
X50000Y-28000D01*
X47800Y-25600D02*
X50000Y-27800D01*
X37700Y-25600D02*
X47800Y-25600D01*
X37450Y-25850D02*
X37700Y-25600D01*
X40500Y-31000D02*
X40475Y-31000D01*
X40475Y-30975D02*
X40500Y-31000D01*
X40475Y-28125D02*
X40475Y-30975D01*
X40050Y-27700D02*
X40475Y-28125D01*
X40475Y-34375D02*
X40150Y-34700D01*
X40475Y-31000D02*
X40475Y-34375D01*
X39350Y-34500D02*
X39150Y-34700D01*
X39350Y-27750D02*
X39350Y-34500D01*
X39400Y-27700D02*
X39350Y-27750D01*
X38150Y-31050D02*
X37700Y-30600D01*
X37700Y-30600D02*
X37700Y-29100D01*
X38150Y-34700D02*
X38150Y-31050D01*
X36650Y-28050D02*
X37700Y-29100D01*
X38650Y-28025D02*
X38650Y-28250D01*
X38300Y-27675D02*
X38650Y-28025D01*
X38650Y-35200D02*
X39150Y-35700D01*
X38650Y-28250D02*
X38650Y-35200D01*
X37075Y-29350D02*
X37075Y-31675D01*
X37075Y-31675D02*
X37650Y-32250D01*
X37650Y-32250D02*
X37650Y-35200D01*
X37650Y-35200D02*
X38150Y-35700D01*
X36775Y-29050D02*
X37075Y-29350D01*
X34150Y-35700D02*
X34150Y-36550D01*
X39975Y-42375D02*
X39975Y-42550D01*
X34150Y-36550D02*
X39975Y-42375D01*
X37800Y-18900D02*
X38550Y-18150D01*
X34800Y-28450D02*
X34568Y-28268D01*
X34568Y-28268D02*
X34568Y-25340D01*
X34568Y-25340D02*
X37800Y-22108D01*
X37800Y-22108D02*
X37800Y-18900D01*
X35975Y-26800D02*
X35975Y-25783D01*
X49550Y-27000D02*
X50000Y-27000D01*
X47900Y-25350D02*
X49550Y-27000D01*
X36408Y-25350D02*
X47900Y-25350D01*
X35975Y-25783D02*
X36408Y-25350D01*
X41000Y-31000D02*
X41000Y-34550D01*
X41000Y-34550D02*
X41150Y-34700D01*
X40650Y-35910D02*
X40650Y-36330D01*
X47750Y-38815D02*
X47750Y-38200D01*
X47550Y-39015D02*
X47750Y-38815D01*
X43335Y-39015D02*
X47550Y-39015D01*
X40650Y-36330D02*
X43335Y-39015D01*
X35975Y-26950D02*
X35975Y-26800D01*
X35975Y-26950D02*
X35975Y-29125D01*
X35975Y-29125D02*
X36200Y-29350D01*
X40650Y-35200D02*
X41150Y-34700D01*
X40650Y-35910D02*
X40650Y-35200D01*
X41000Y-34550D02*
X41150Y-34700D01*
X48400Y-34700D02*
X48880Y-34220D01*
X48880Y-34220D02*
X49990Y-34220D01*
X51200Y-33010D02*
X51200Y-30950D01*
X49990Y-34220D02*
X51200Y-33010D01*
X51200Y-27325D02*
X51200Y-30950D01*
X50900Y-27025D02*
X51200Y-27325D01*
X50400Y-27025D02*
X50025Y-27025D01*
X50900Y-27025D02*
X50400Y-27025D01*
X50900Y-27025D02*
X50400Y-27025D01*
X47950Y-25100D02*
X48000Y-25100D01*
X48900Y-26000D02*
X50000Y-26000D01*
X48000Y-25100D02*
X48900Y-26000D01*
X35756Y-26450D02*
X35756Y-25693D01*
X35756Y-25693D02*
X36350Y-25100D01*
X35756Y-26500D02*
X35756Y-26450D01*
X36350Y-25100D02*
X47950Y-25100D01*
X41150Y-35700D02*
X41150Y-35660D01*
X41660Y-31340D02*
X42000Y-31000D01*
X41660Y-35150D02*
X41660Y-31340D01*
X41150Y-35660D02*
X41660Y-35150D01*
X46750Y-38200D02*
X46750Y-38300D01*
X41150Y-36100D02*
X41150Y-35700D01*
X43600Y-38550D02*
X41150Y-36100D01*
X46500Y-38550D02*
X43600Y-38550D01*
X46750Y-38300D02*
X46500Y-38550D01*
X35756Y-27050D02*
X35756Y-26500D01*
X36318Y-29921D02*
X36271Y-29921D01*
X35756Y-29406D02*
X35756Y-27050D01*
X36271Y-29921D02*
X35756Y-29406D01*
X36318Y-29921D02*
X36250Y-29852D01*
X36250Y-29852D02*
X36318Y-29921D01*
X34150Y-34700D02*
X34150Y-34800D01*
X34150Y-34800D02*
X33650Y-35300D01*
X33650Y-35300D02*
X33650Y-36750D01*
X33650Y-36750D02*
X38975Y-42075D01*
X38975Y-42075D02*
X38975Y-42550D01*
X34350Y-28500D02*
X34350Y-28250D01*
X34050Y-28800D02*
X34350Y-28500D01*
X36750Y-18150D02*
X37450Y-18850D01*
X34350Y-25250D02*
X34568Y-25031D01*
X36050Y-23550D02*
X34568Y-25031D01*
X34350Y-28250D02*
X34350Y-25250D01*
X37500Y-22100D02*
X36050Y-23550D01*
X37500Y-18900D02*
X37500Y-22100D01*
X37450Y-18850D02*
X37500Y-18900D01*
G54D10*
G36*
X52162Y-44288D02*
X51969Y-44288D01*
X51969Y-42610D01*
X51967Y-42603D01*
X51932Y-42545D01*
X51778Y-42700D01*
X51932Y-42854D01*
X51967Y-42796D01*
X51969Y-42610D01*
X51969Y-44288D01*
X51681Y-44288D01*
X51681Y-40532D01*
X51553Y-40222D01*
X51384Y-40053D01*
X51384Y-33010D01*
X51384Y-30950D01*
X51384Y-27325D01*
X51384Y-27324D01*
X51370Y-27254D01*
X51330Y-27194D01*
X51330Y-27194D01*
X51030Y-26894D01*
X50970Y-26854D01*
X50900Y-26840D01*
X50641Y-26840D01*
X50641Y-13219D01*
X50641Y-12607D01*
X50633Y-12401D01*
X50547Y-12213D01*
X50376Y-12136D01*
X50313Y-12121D01*
X50313Y-12688D01*
X50602Y-12688D01*
X50641Y-12607D01*
X50641Y-13219D01*
X50602Y-13138D01*
X50313Y-13138D01*
X50313Y-13704D01*
X50376Y-13689D01*
X50547Y-13613D01*
X50633Y-13425D01*
X50641Y-13219D01*
X50641Y-26840D01*
X50400Y-26840D01*
X50394Y-26840D01*
X50360Y-26759D01*
X50241Y-26639D01*
X50084Y-26575D01*
X49915Y-26574D01*
X49759Y-26639D01*
X49639Y-26758D01*
X49619Y-26808D01*
X48994Y-26184D01*
X49616Y-26184D01*
X49639Y-26240D01*
X49758Y-26360D01*
X49915Y-26424D01*
X50084Y-26425D01*
X50240Y-26360D01*
X50360Y-26241D01*
X50424Y-26084D01*
X50425Y-25915D01*
X50425Y-24915D01*
X50375Y-24794D01*
X50375Y-24314D01*
X50375Y-23685D01*
X50363Y-23657D01*
X50342Y-23636D01*
X50314Y-23625D01*
X50285Y-23624D01*
X50168Y-23625D01*
X50150Y-23643D01*
X50150Y-23850D01*
X50356Y-23850D01*
X50375Y-23831D01*
X50375Y-23685D01*
X50375Y-24314D01*
X50375Y-24168D01*
X50356Y-24150D01*
X50150Y-24150D01*
X50150Y-24356D01*
X50168Y-24375D01*
X50285Y-24375D01*
X50314Y-24374D01*
X50342Y-24363D01*
X50363Y-24342D01*
X50375Y-24314D01*
X50375Y-24794D01*
X50360Y-24759D01*
X50241Y-24639D01*
X50084Y-24575D01*
X49923Y-24574D01*
X49923Y-13704D01*
X49923Y-13138D01*
X49923Y-12688D01*
X49923Y-12121D01*
X49859Y-12136D01*
X49688Y-12213D01*
X49602Y-12401D01*
X49595Y-12607D01*
X49633Y-12688D01*
X49923Y-12688D01*
X49923Y-13138D01*
X49633Y-13138D01*
X49595Y-13219D01*
X49602Y-13425D01*
X49688Y-13613D01*
X49859Y-13689D01*
X49923Y-13704D01*
X49923Y-24574D01*
X49915Y-24574D01*
X49850Y-24602D01*
X49850Y-24356D01*
X49850Y-24150D01*
X49850Y-23850D01*
X49850Y-23643D01*
X49831Y-23625D01*
X49714Y-23624D01*
X49685Y-23625D01*
X49657Y-23636D01*
X49636Y-23657D01*
X49624Y-23685D01*
X49625Y-23831D01*
X49643Y-23850D01*
X49850Y-23850D01*
X49850Y-24150D01*
X49643Y-24150D01*
X49625Y-24168D01*
X49624Y-24314D01*
X49636Y-24342D01*
X49657Y-24363D01*
X49685Y-24374D01*
X49714Y-24375D01*
X49831Y-24375D01*
X49850Y-24356D01*
X49850Y-24602D01*
X49759Y-24639D01*
X49639Y-24758D01*
X49633Y-24775D01*
X49412Y-24775D01*
X49412Y-18472D01*
X49406Y-18444D01*
X49375Y-18407D01*
X49326Y-18592D01*
X49375Y-18642D01*
X49406Y-18605D01*
X49412Y-18472D01*
X49412Y-24775D01*
X49343Y-24775D01*
X49192Y-24623D01*
X49192Y-18825D01*
X49192Y-18224D01*
X49155Y-18193D01*
X49117Y-18191D01*
X49117Y-13321D01*
X49117Y-12505D01*
X49078Y-12308D01*
X48966Y-12141D01*
X48799Y-12029D01*
X48602Y-11990D01*
X48405Y-12029D01*
X48238Y-12141D01*
X48126Y-12308D01*
X48087Y-12505D01*
X48087Y-13321D01*
X48126Y-13518D01*
X48238Y-13685D01*
X48405Y-13796D01*
X48602Y-13836D01*
X48799Y-13796D01*
X48966Y-13685D01*
X49078Y-13518D01*
X49117Y-13321D01*
X49117Y-18191D01*
X49022Y-18187D01*
X48994Y-18193D01*
X48957Y-18224D01*
X49142Y-18273D01*
X49192Y-18224D01*
X49192Y-18825D01*
X49007Y-18776D01*
X48957Y-18825D01*
X48994Y-18856D01*
X49127Y-18862D01*
X49155Y-18856D01*
X49192Y-18825D01*
X49192Y-24623D01*
X48823Y-24255D01*
X48823Y-18457D01*
X48774Y-18407D01*
X48743Y-18444D01*
X48737Y-18577D01*
X48743Y-18605D01*
X48774Y-18642D01*
X48823Y-18457D01*
X48823Y-24255D01*
X48460Y-23891D01*
X48460Y-18448D01*
X48401Y-18307D01*
X48293Y-18198D01*
X48151Y-18140D01*
X47998Y-18139D01*
X47857Y-18198D01*
X47748Y-18306D01*
X47690Y-18448D01*
X47689Y-18601D01*
X47748Y-18742D01*
X47856Y-18851D01*
X47998Y-18909D01*
X48151Y-18910D01*
X48292Y-18851D01*
X48401Y-18743D01*
X48459Y-18601D01*
X48460Y-18448D01*
X48460Y-23891D01*
X47601Y-23033D01*
X47601Y-13321D01*
X47601Y-12505D01*
X47562Y-12308D01*
X47450Y-12141D01*
X47283Y-12029D01*
X47086Y-11990D01*
X46889Y-12029D01*
X46722Y-12141D01*
X46610Y-12308D01*
X46571Y-12505D01*
X46571Y-13321D01*
X46610Y-13518D01*
X46722Y-13685D01*
X46889Y-13796D01*
X47086Y-13836D01*
X47283Y-13796D01*
X47450Y-13685D01*
X47562Y-13518D01*
X47601Y-13321D01*
X47601Y-23033D01*
X47300Y-22731D01*
X47300Y-18844D01*
X47401Y-18743D01*
X47459Y-18601D01*
X47460Y-18448D01*
X47401Y-18307D01*
X47293Y-18198D01*
X47151Y-18140D01*
X46998Y-18139D01*
X46857Y-18198D01*
X46748Y-18306D01*
X46690Y-18448D01*
X46689Y-18601D01*
X46748Y-18742D01*
X46850Y-18844D01*
X46850Y-22824D01*
X46849Y-22825D01*
X46864Y-22896D01*
X46867Y-22911D01*
X46915Y-22984D01*
X49090Y-25159D01*
X49090Y-25159D01*
X49163Y-25207D01*
X49249Y-25225D01*
X49249Y-25224D01*
X49250Y-25225D01*
X49633Y-25225D01*
X49639Y-25240D01*
X49758Y-25360D01*
X49915Y-25424D01*
X50084Y-25425D01*
X50240Y-25360D01*
X50360Y-25241D01*
X50424Y-25084D01*
X50425Y-24915D01*
X50425Y-25915D01*
X50360Y-25759D01*
X50241Y-25639D01*
X50084Y-25575D01*
X49915Y-25574D01*
X49759Y-25639D01*
X49639Y-25758D01*
X49616Y-25815D01*
X48976Y-25815D01*
X48130Y-24969D01*
X48070Y-24929D01*
X48000Y-24915D01*
X47950Y-24915D01*
X44519Y-24915D01*
X44519Y-13199D01*
X44519Y-12587D01*
X44511Y-12381D01*
X44425Y-12193D01*
X44254Y-12117D01*
X44191Y-12102D01*
X44191Y-12668D01*
X44480Y-12668D01*
X44519Y-12587D01*
X44519Y-13199D01*
X44480Y-13118D01*
X44191Y-13118D01*
X44191Y-13685D01*
X44254Y-13670D01*
X44425Y-13593D01*
X44511Y-13406D01*
X44519Y-13199D01*
X44519Y-24915D01*
X44425Y-24915D01*
X44425Y-19915D01*
X44360Y-19759D01*
X44241Y-19639D01*
X44084Y-19575D01*
X43915Y-19574D01*
X43858Y-19598D01*
X43801Y-19540D01*
X43801Y-13685D01*
X43801Y-13118D01*
X43801Y-12668D01*
X43801Y-12102D01*
X43737Y-12117D01*
X43566Y-12193D01*
X43480Y-12381D01*
X43473Y-12587D01*
X43511Y-12668D01*
X43801Y-12668D01*
X43801Y-13118D01*
X43511Y-13118D01*
X43473Y-13199D01*
X43480Y-13406D01*
X43566Y-13593D01*
X43737Y-13670D01*
X43801Y-13685D01*
X43801Y-19540D01*
X43176Y-18915D01*
X43176Y-13543D01*
X43162Y-13472D01*
X43122Y-13413D01*
X43122Y-13413D01*
X42995Y-13286D01*
X42995Y-12485D01*
X42956Y-12288D01*
X42844Y-12121D01*
X42677Y-12010D01*
X42480Y-11970D01*
X42283Y-12010D01*
X42116Y-12121D01*
X42004Y-12288D01*
X41965Y-12485D01*
X41965Y-13301D01*
X42004Y-13498D01*
X42116Y-13665D01*
X42283Y-13777D01*
X42480Y-13816D01*
X42677Y-13777D01*
X42808Y-13689D01*
X42808Y-18992D01*
X42822Y-19062D01*
X42861Y-19122D01*
X43598Y-19858D01*
X43575Y-19915D01*
X43574Y-20084D01*
X43639Y-20240D01*
X43758Y-20360D01*
X43915Y-20424D01*
X44084Y-20425D01*
X44240Y-20360D01*
X44360Y-20241D01*
X44424Y-20084D01*
X44425Y-19915D01*
X44425Y-24915D01*
X43726Y-24915D01*
X43726Y-23422D01*
X43723Y-23408D01*
X43689Y-23357D01*
X43547Y-23500D01*
X43689Y-23642D01*
X43723Y-23591D01*
X43726Y-23422D01*
X43726Y-24915D01*
X43442Y-24915D01*
X43442Y-23889D01*
X43442Y-23110D01*
X43425Y-23099D01*
X43425Y-19915D01*
X43360Y-19759D01*
X43241Y-19639D01*
X43084Y-19575D01*
X42915Y-19574D01*
X42759Y-19639D01*
X42639Y-19758D01*
X42575Y-19915D01*
X42574Y-20084D01*
X42639Y-20240D01*
X42758Y-20360D01*
X42915Y-20424D01*
X43084Y-20425D01*
X43240Y-20360D01*
X43360Y-20241D01*
X43424Y-20084D01*
X43425Y-19915D01*
X43425Y-23099D01*
X43391Y-23076D01*
X43222Y-23073D01*
X43208Y-23076D01*
X43157Y-23110D01*
X43300Y-23252D01*
X43442Y-23110D01*
X43442Y-23889D01*
X43300Y-23747D01*
X43157Y-23889D01*
X43208Y-23923D01*
X43377Y-23926D01*
X43391Y-23923D01*
X43442Y-23889D01*
X43442Y-24915D01*
X43052Y-24915D01*
X43052Y-23500D01*
X42910Y-23357D01*
X42876Y-23408D01*
X42873Y-23577D01*
X42876Y-23591D01*
X42910Y-23642D01*
X43052Y-23500D01*
X43052Y-24915D01*
X42425Y-24915D01*
X42425Y-19915D01*
X42360Y-19759D01*
X42241Y-19639D01*
X42084Y-19575D01*
X41915Y-19574D01*
X41858Y-19598D01*
X41680Y-19419D01*
X41680Y-13464D01*
X41666Y-13394D01*
X41626Y-13334D01*
X41626Y-13334D01*
X41479Y-13187D01*
X41479Y-12485D01*
X41440Y-12288D01*
X41328Y-12121D01*
X41161Y-12010D01*
X40964Y-11970D01*
X40767Y-12010D01*
X40600Y-12121D01*
X40488Y-12288D01*
X40449Y-12485D01*
X40449Y-13301D01*
X40488Y-13498D01*
X40600Y-13665D01*
X40767Y-13777D01*
X40964Y-13816D01*
X41161Y-13777D01*
X41312Y-13676D01*
X41312Y-19496D01*
X41326Y-19566D01*
X41365Y-19626D01*
X41598Y-19858D01*
X41575Y-19915D01*
X41574Y-20084D01*
X41639Y-20240D01*
X41758Y-20360D01*
X41915Y-20424D01*
X42084Y-20425D01*
X42240Y-20360D01*
X42360Y-20241D01*
X42424Y-20084D01*
X42425Y-19915D01*
X42425Y-24915D01*
X41775Y-24915D01*
X41775Y-23825D01*
X41775Y-23125D01*
X41756Y-23079D01*
X41720Y-23044D01*
X41674Y-23025D01*
X41625Y-23024D01*
X41425Y-23024D01*
X41425Y-19915D01*
X41360Y-19759D01*
X41241Y-19639D01*
X41084Y-19575D01*
X40915Y-19574D01*
X40759Y-19639D01*
X40639Y-19758D01*
X40575Y-19915D01*
X40574Y-20084D01*
X40639Y-20240D01*
X40758Y-20360D01*
X40915Y-20424D01*
X41084Y-20425D01*
X41240Y-20360D01*
X41360Y-20241D01*
X41424Y-20084D01*
X41425Y-19915D01*
X41425Y-23024D01*
X40925Y-23024D01*
X40879Y-23043D01*
X40844Y-23079D01*
X40825Y-23125D01*
X40824Y-23174D01*
X40824Y-23874D01*
X40843Y-23920D01*
X40879Y-23955D01*
X40925Y-23974D01*
X40974Y-23975D01*
X41674Y-23975D01*
X41720Y-23956D01*
X41755Y-23920D01*
X41774Y-23874D01*
X41775Y-23825D01*
X41775Y-24915D01*
X40425Y-24915D01*
X40425Y-20275D01*
X40425Y-19675D01*
X40406Y-19629D01*
X40370Y-19594D01*
X40324Y-19575D01*
X40275Y-19574D01*
X40050Y-19574D01*
X40050Y-17090D01*
X40004Y-16980D01*
X39920Y-16895D01*
X39809Y-16850D01*
X39690Y-16849D01*
X39580Y-16895D01*
X39509Y-16965D01*
X38933Y-16965D01*
X38910Y-16909D01*
X38791Y-16789D01*
X38734Y-16766D01*
X38734Y-14550D01*
X38720Y-14479D01*
X38720Y-14479D01*
X38680Y-14419D01*
X38416Y-14156D01*
X38416Y-13199D01*
X38416Y-12587D01*
X38409Y-12381D01*
X38323Y-12193D01*
X38152Y-12117D01*
X38088Y-12102D01*
X38088Y-12668D01*
X38378Y-12668D01*
X38416Y-12587D01*
X38416Y-13199D01*
X38378Y-13118D01*
X38088Y-13118D01*
X38088Y-13685D01*
X38152Y-13670D01*
X38323Y-13593D01*
X38409Y-13406D01*
X38416Y-13199D01*
X38416Y-14156D01*
X38302Y-14041D01*
X38242Y-14002D01*
X38172Y-13987D01*
X37698Y-13987D01*
X37698Y-13685D01*
X37698Y-13118D01*
X37698Y-12668D01*
X37698Y-12102D01*
X37635Y-12117D01*
X37464Y-12193D01*
X37378Y-12381D01*
X37370Y-12587D01*
X37409Y-12668D01*
X37698Y-12668D01*
X37698Y-13118D01*
X37409Y-13118D01*
X37370Y-13199D01*
X37378Y-13406D01*
X37464Y-13593D01*
X37635Y-13670D01*
X37698Y-13685D01*
X37698Y-13987D01*
X36562Y-13987D01*
X36562Y-13779D01*
X36575Y-13777D01*
X36742Y-13665D01*
X36853Y-13498D01*
X36892Y-13301D01*
X36892Y-12485D01*
X36853Y-12288D01*
X36742Y-12121D01*
X36575Y-12010D01*
X36377Y-11970D01*
X36180Y-12010D01*
X36013Y-12121D01*
X35902Y-12288D01*
X35862Y-12485D01*
X35862Y-13301D01*
X35902Y-13498D01*
X36013Y-13665D01*
X36180Y-13777D01*
X36193Y-13779D01*
X36193Y-13987D01*
X35377Y-13987D01*
X35377Y-13301D01*
X35377Y-12485D01*
X35338Y-12288D01*
X35226Y-12121D01*
X35059Y-12010D01*
X34862Y-11970D01*
X34665Y-12010D01*
X34498Y-12121D01*
X34386Y-12288D01*
X34347Y-12485D01*
X34347Y-13301D01*
X34386Y-13498D01*
X34498Y-13665D01*
X34665Y-13777D01*
X34862Y-13816D01*
X35059Y-13777D01*
X35226Y-13665D01*
X35338Y-13498D01*
X35377Y-13301D01*
X35377Y-13987D01*
X34977Y-13987D01*
X34907Y-14002D01*
X34877Y-14021D01*
X34847Y-14041D01*
X34419Y-14469D01*
X34379Y-14529D01*
X34365Y-14600D01*
X34365Y-16824D01*
X34225Y-16824D01*
X34179Y-16843D01*
X34144Y-16879D01*
X34125Y-16925D01*
X34124Y-16974D01*
X34124Y-17574D01*
X34143Y-17620D01*
X34179Y-17655D01*
X34225Y-17674D01*
X34274Y-17675D01*
X34874Y-17675D01*
X34920Y-17656D01*
X34955Y-17620D01*
X34974Y-17574D01*
X34975Y-17525D01*
X34975Y-16925D01*
X34956Y-16879D01*
X34920Y-16844D01*
X34874Y-16825D01*
X34825Y-16824D01*
X34734Y-16824D01*
X34734Y-14676D01*
X35054Y-14356D01*
X36377Y-14356D01*
X38095Y-14356D01*
X38365Y-14626D01*
X38365Y-16766D01*
X38309Y-16789D01*
X38189Y-16908D01*
X38125Y-17065D01*
X38124Y-17234D01*
X38189Y-17390D01*
X38308Y-17510D01*
X38465Y-17574D01*
X38634Y-17575D01*
X38790Y-17510D01*
X38910Y-17391D01*
X38933Y-17334D01*
X39509Y-17334D01*
X39579Y-17404D01*
X39690Y-17449D01*
X39809Y-17450D01*
X39919Y-17404D01*
X40004Y-17320D01*
X40049Y-17209D01*
X40050Y-17090D01*
X40050Y-19574D01*
X39675Y-19574D01*
X39629Y-19593D01*
X39594Y-19629D01*
X39575Y-19675D01*
X39574Y-19724D01*
X39574Y-20324D01*
X39593Y-20370D01*
X39629Y-20405D01*
X39675Y-20424D01*
X39724Y-20425D01*
X40324Y-20425D01*
X40370Y-20406D01*
X40405Y-20370D01*
X40424Y-20324D01*
X40425Y-20275D01*
X40425Y-24915D01*
X36350Y-24915D01*
X36279Y-24929D01*
X36219Y-24969D01*
X35626Y-25562D01*
X35586Y-25622D01*
X35572Y-25693D01*
X35572Y-26450D01*
X35572Y-26500D01*
X35572Y-27050D01*
X35572Y-29406D01*
X35586Y-29477D01*
X35626Y-29537D01*
X36018Y-29929D01*
X36018Y-29980D01*
X36064Y-30090D01*
X36148Y-30175D01*
X36258Y-30221D01*
X36378Y-30221D01*
X36488Y-30175D01*
X36573Y-30091D01*
X36618Y-29981D01*
X36618Y-29861D01*
X36573Y-29751D01*
X36489Y-29667D01*
X36378Y-29621D01*
X36329Y-29621D01*
X36369Y-29604D01*
X36454Y-29520D01*
X36499Y-29409D01*
X36500Y-29290D01*
X36454Y-29180D01*
X36370Y-29095D01*
X36259Y-29050D01*
X36160Y-29049D01*
X36159Y-29048D01*
X36159Y-26950D01*
X36159Y-26800D01*
X36159Y-25859D01*
X36484Y-25534D01*
X37505Y-25534D01*
X37489Y-25550D01*
X37390Y-25549D01*
X37280Y-25595D01*
X37195Y-25679D01*
X37150Y-25790D01*
X37149Y-25909D01*
X37195Y-26019D01*
X37279Y-26104D01*
X37390Y-26149D01*
X37439Y-26149D01*
X36539Y-27050D01*
X36440Y-27049D01*
X36330Y-27095D01*
X36245Y-27179D01*
X36200Y-27290D01*
X36199Y-27409D01*
X36245Y-27519D01*
X36329Y-27604D01*
X36440Y-27649D01*
X36559Y-27650D01*
X36669Y-27604D01*
X36754Y-27520D01*
X36799Y-27409D01*
X36800Y-27310D01*
X38076Y-26034D01*
X44000Y-26034D01*
X44223Y-26034D01*
X44515Y-26326D01*
X44515Y-35409D01*
X44495Y-35429D01*
X44450Y-35540D01*
X44449Y-35659D01*
X44495Y-35769D01*
X44579Y-35854D01*
X44690Y-35899D01*
X44809Y-35900D01*
X44919Y-35854D01*
X45004Y-35770D01*
X45049Y-35659D01*
X45050Y-35540D01*
X45004Y-35430D01*
X44920Y-35345D01*
X44884Y-35330D01*
X44884Y-26250D01*
X44884Y-26249D01*
X44870Y-26179D01*
X44830Y-26119D01*
X44830Y-26119D01*
X44494Y-25784D01*
X47723Y-25784D01*
X49669Y-27729D01*
X49639Y-27758D01*
X49575Y-27915D01*
X49574Y-28084D01*
X49639Y-28240D01*
X49758Y-28360D01*
X49915Y-28424D01*
X50084Y-28425D01*
X50240Y-28360D01*
X50360Y-28241D01*
X50424Y-28084D01*
X50425Y-27915D01*
X50360Y-27759D01*
X50241Y-27639D01*
X50084Y-27575D01*
X50035Y-27575D01*
X49864Y-27403D01*
X49915Y-27424D01*
X50084Y-27425D01*
X50240Y-27360D01*
X50360Y-27241D01*
X50373Y-27209D01*
X50400Y-27209D01*
X50823Y-27209D01*
X51015Y-27401D01*
X51015Y-30950D01*
X51015Y-32933D01*
X49913Y-34035D01*
X49665Y-34035D01*
X49760Y-33941D01*
X49824Y-33784D01*
X49825Y-33615D01*
X49760Y-33459D01*
X49641Y-33339D01*
X49584Y-33316D01*
X49584Y-33120D01*
X49570Y-33049D01*
X49530Y-32989D01*
X49530Y-32989D01*
X48970Y-32429D01*
X48910Y-32389D01*
X48840Y-32375D01*
X48325Y-32375D01*
X48325Y-32285D01*
X48306Y-32239D01*
X48270Y-32204D01*
X48224Y-32185D01*
X48175Y-32184D01*
X47795Y-32184D01*
X47759Y-32199D01*
X47724Y-32185D01*
X47675Y-32184D01*
X47295Y-32184D01*
X47249Y-32203D01*
X47214Y-32239D01*
X47195Y-32285D01*
X47194Y-32334D01*
X47194Y-32375D01*
X45766Y-32375D01*
X45699Y-32309D01*
X45700Y-32210D01*
X45654Y-32100D01*
X45570Y-32015D01*
X45459Y-31970D01*
X45340Y-31969D01*
X45230Y-32015D01*
X45145Y-32099D01*
X45100Y-32210D01*
X45099Y-32329D01*
X45145Y-32439D01*
X45229Y-32524D01*
X45340Y-32569D01*
X45439Y-32570D01*
X45559Y-32690D01*
X45559Y-32690D01*
X45619Y-32730D01*
X45689Y-32744D01*
X45690Y-32744D01*
X47194Y-32744D01*
X47194Y-32834D01*
X47213Y-32880D01*
X47249Y-32915D01*
X47295Y-32934D01*
X47344Y-32935D01*
X47724Y-32935D01*
X47760Y-32920D01*
X47795Y-32934D01*
X47844Y-32935D01*
X48224Y-32935D01*
X48270Y-32916D01*
X48305Y-32880D01*
X48324Y-32834D01*
X48325Y-32785D01*
X48325Y-32744D01*
X48763Y-32744D01*
X49215Y-33196D01*
X49215Y-33316D01*
X49159Y-33339D01*
X49039Y-33458D01*
X48975Y-33615D01*
X48974Y-33784D01*
X49039Y-33940D01*
X49134Y-34035D01*
X48880Y-34035D01*
X48825Y-34046D01*
X48825Y-33615D01*
X48760Y-33459D01*
X48641Y-33339D01*
X48484Y-33275D01*
X48315Y-33274D01*
X48159Y-33339D01*
X48039Y-33458D01*
X47975Y-33615D01*
X47974Y-33784D01*
X48039Y-33940D01*
X48158Y-34060D01*
X48315Y-34124D01*
X48484Y-34125D01*
X48640Y-34060D01*
X48760Y-33941D01*
X48824Y-33784D01*
X48825Y-33615D01*
X48825Y-34046D01*
X48809Y-34049D01*
X48749Y-34089D01*
X48541Y-34298D01*
X48484Y-34275D01*
X48315Y-34274D01*
X48159Y-34339D01*
X48039Y-34458D01*
X47975Y-34615D01*
X47974Y-34784D01*
X48039Y-34940D01*
X48158Y-35060D01*
X48315Y-35124D01*
X48484Y-35125D01*
X48640Y-35060D01*
X48760Y-34941D01*
X48824Y-34784D01*
X48825Y-34615D01*
X48801Y-34558D01*
X48956Y-34404D01*
X49094Y-34404D01*
X49039Y-34458D01*
X48975Y-34615D01*
X48974Y-34784D01*
X49039Y-34940D01*
X49158Y-35060D01*
X49315Y-35124D01*
X49484Y-35125D01*
X49640Y-35060D01*
X49760Y-34941D01*
X49824Y-34784D01*
X49825Y-34615D01*
X49760Y-34459D01*
X49705Y-34404D01*
X49990Y-34404D01*
X49990Y-34404D01*
X50060Y-34390D01*
X50060Y-34390D01*
X50120Y-34350D01*
X51330Y-33140D01*
X51330Y-33140D01*
X51370Y-33080D01*
X51384Y-33010D01*
X51384Y-33010D01*
X51384Y-40053D01*
X51316Y-39985D01*
X51006Y-39856D01*
X50670Y-39856D01*
X50670Y-39856D01*
X50670Y-37116D01*
X50606Y-36962D01*
X50488Y-36843D01*
X50334Y-36779D01*
X50166Y-36779D01*
X50012Y-36843D01*
X49893Y-36961D01*
X49829Y-37115D01*
X49829Y-37283D01*
X49893Y-37437D01*
X50011Y-37556D01*
X50025Y-37561D01*
X50025Y-37731D01*
X49935Y-37821D01*
X49834Y-37779D01*
X49666Y-37779D01*
X49622Y-37797D01*
X49622Y-37137D01*
X49618Y-37115D01*
X49585Y-37073D01*
X49458Y-37200D01*
X49585Y-37326D01*
X49618Y-37284D01*
X49622Y-37137D01*
X49622Y-37797D01*
X49512Y-37843D01*
X49393Y-37961D01*
X49376Y-38002D01*
X49376Y-37535D01*
X49376Y-36864D01*
X49334Y-36831D01*
X49187Y-36827D01*
X49165Y-36831D01*
X49123Y-36864D01*
X49250Y-36991D01*
X49376Y-36864D01*
X49376Y-37535D01*
X49250Y-37408D01*
X49123Y-37535D01*
X49165Y-37568D01*
X49312Y-37572D01*
X49334Y-37568D01*
X49376Y-37535D01*
X49376Y-38002D01*
X49329Y-38115D01*
X49329Y-38283D01*
X49393Y-38437D01*
X49511Y-38556D01*
X49665Y-38620D01*
X49833Y-38620D01*
X49987Y-38556D01*
X50106Y-38438D01*
X50170Y-38284D01*
X50170Y-38222D01*
X50409Y-37984D01*
X50409Y-37984D01*
X50409Y-37984D01*
X50457Y-37911D01*
X50457Y-37911D01*
X50475Y-37825D01*
X50475Y-37562D01*
X50487Y-37556D01*
X50606Y-37438D01*
X50670Y-37284D01*
X50670Y-37116D01*
X50670Y-39856D01*
X50360Y-39984D01*
X50123Y-40221D01*
X49994Y-40531D01*
X49994Y-40867D01*
X50122Y-41177D01*
X50359Y-41414D01*
X50669Y-41543D01*
X51005Y-41543D01*
X51315Y-41415D01*
X51552Y-41178D01*
X51681Y-40868D01*
X51681Y-40532D01*
X51681Y-44288D01*
X51654Y-44288D01*
X51654Y-43132D01*
X51654Y-42267D01*
X51596Y-42232D01*
X51410Y-42230D01*
X51403Y-42232D01*
X51345Y-42267D01*
X51500Y-42421D01*
X51654Y-42267D01*
X51654Y-43132D01*
X51500Y-42978D01*
X51345Y-43132D01*
X51403Y-43167D01*
X51589Y-43169D01*
X51596Y-43167D01*
X51654Y-43132D01*
X51654Y-44288D01*
X51221Y-44288D01*
X51221Y-42700D01*
X51067Y-42545D01*
X51032Y-42603D01*
X51030Y-42789D01*
X51032Y-42796D01*
X51067Y-42854D01*
X51221Y-42700D01*
X51221Y-44288D01*
X49170Y-44288D01*
X49170Y-38116D01*
X49106Y-37962D01*
X49041Y-37896D01*
X49041Y-37200D01*
X48914Y-37073D01*
X48881Y-37115D01*
X48877Y-37262D01*
X48881Y-37284D01*
X48914Y-37326D01*
X49041Y-37200D01*
X49041Y-37896D01*
X48988Y-37843D01*
X48834Y-37779D01*
X48666Y-37779D01*
X48622Y-37797D01*
X48622Y-37137D01*
X48618Y-37115D01*
X48585Y-37073D01*
X48458Y-37200D01*
X48585Y-37326D01*
X48618Y-37284D01*
X48622Y-37137D01*
X48622Y-37797D01*
X48512Y-37843D01*
X48393Y-37961D01*
X48376Y-38002D01*
X48376Y-37535D01*
X48376Y-36864D01*
X48334Y-36831D01*
X48187Y-36827D01*
X48165Y-36831D01*
X48123Y-36864D01*
X48250Y-36991D01*
X48376Y-36864D01*
X48376Y-37535D01*
X48250Y-37408D01*
X48123Y-37535D01*
X48165Y-37568D01*
X48312Y-37572D01*
X48334Y-37568D01*
X48376Y-37535D01*
X48376Y-38002D01*
X48329Y-38115D01*
X48329Y-38283D01*
X48393Y-38437D01*
X48511Y-38556D01*
X48665Y-38620D01*
X48833Y-38620D01*
X48987Y-38556D01*
X49106Y-38438D01*
X49170Y-38284D01*
X49170Y-38116D01*
X49170Y-44288D01*
X48170Y-44288D01*
X48170Y-38116D01*
X48106Y-37962D01*
X48041Y-37896D01*
X48041Y-37200D01*
X47914Y-37073D01*
X47881Y-37115D01*
X47877Y-37262D01*
X47881Y-37284D01*
X47914Y-37326D01*
X48041Y-37200D01*
X48041Y-37896D01*
X47988Y-37843D01*
X47834Y-37779D01*
X47825Y-37779D01*
X47825Y-34975D01*
X47825Y-34375D01*
X47806Y-34329D01*
X47776Y-34300D01*
X47776Y-33636D01*
X47772Y-33614D01*
X47740Y-33571D01*
X47612Y-33700D01*
X47740Y-33828D01*
X47772Y-33785D01*
X47776Y-33636D01*
X47776Y-34300D01*
X47770Y-34294D01*
X47724Y-34275D01*
X47675Y-34274D01*
X47528Y-34274D01*
X47528Y-34040D01*
X47528Y-33359D01*
X47485Y-33327D01*
X47336Y-33323D01*
X47314Y-33327D01*
X47271Y-33359D01*
X47400Y-33487D01*
X47528Y-33359D01*
X47528Y-34040D01*
X47400Y-33912D01*
X47271Y-34040D01*
X47314Y-34072D01*
X47463Y-34076D01*
X47485Y-34072D01*
X47528Y-34040D01*
X47528Y-34274D01*
X47187Y-34274D01*
X47187Y-33700D01*
X47059Y-33571D01*
X47027Y-33614D01*
X47023Y-33763D01*
X47027Y-33785D01*
X47059Y-33828D01*
X47187Y-33700D01*
X47187Y-34274D01*
X47075Y-34274D01*
X47029Y-34293D01*
X46994Y-34329D01*
X46975Y-34375D01*
X46974Y-34424D01*
X46974Y-35024D01*
X46993Y-35070D01*
X47029Y-35105D01*
X47075Y-35124D01*
X47124Y-35125D01*
X47724Y-35125D01*
X47770Y-35106D01*
X47805Y-35070D01*
X47824Y-35024D01*
X47825Y-34975D01*
X47825Y-37779D01*
X47666Y-37779D01*
X47622Y-37797D01*
X47622Y-37137D01*
X47618Y-37115D01*
X47585Y-37073D01*
X47458Y-37200D01*
X47585Y-37326D01*
X47618Y-37284D01*
X47622Y-37137D01*
X47622Y-37797D01*
X47512Y-37843D01*
X47393Y-37961D01*
X47376Y-38002D01*
X47376Y-37535D01*
X47376Y-36864D01*
X47334Y-36831D01*
X47187Y-36827D01*
X47165Y-36831D01*
X47123Y-36864D01*
X47250Y-36991D01*
X47376Y-36864D01*
X47376Y-37535D01*
X47250Y-37408D01*
X47123Y-37535D01*
X47165Y-37568D01*
X47312Y-37572D01*
X47334Y-37568D01*
X47376Y-37535D01*
X47376Y-38002D01*
X47329Y-38115D01*
X47329Y-38283D01*
X47393Y-38437D01*
X47511Y-38556D01*
X47565Y-38578D01*
X47565Y-38738D01*
X47473Y-38830D01*
X43411Y-38830D01*
X40834Y-36253D01*
X40834Y-35985D01*
X40908Y-36060D01*
X40965Y-36083D01*
X40965Y-36100D01*
X40979Y-36170D01*
X41019Y-36230D01*
X43469Y-38680D01*
X43469Y-38680D01*
X43529Y-38720D01*
X43599Y-38734D01*
X43600Y-38734D01*
X46500Y-38734D01*
X46500Y-38734D01*
X46570Y-38720D01*
X46570Y-38720D01*
X46630Y-38680D01*
X46689Y-38620D01*
X47070Y-38620D01*
X47116Y-38601D01*
X47151Y-38566D01*
X47170Y-38520D01*
X47170Y-38470D01*
X47170Y-37879D01*
X47151Y-37833D01*
X47116Y-37798D01*
X47070Y-37779D01*
X47041Y-37779D01*
X47041Y-37200D01*
X46914Y-37073D01*
X46881Y-37115D01*
X46877Y-37262D01*
X46881Y-37284D01*
X46914Y-37326D01*
X47041Y-37200D01*
X47041Y-37779D01*
X47020Y-37779D01*
X46429Y-37779D01*
X46383Y-37798D01*
X46348Y-37833D01*
X46329Y-37879D01*
X46329Y-37929D01*
X46329Y-38365D01*
X44375Y-38365D01*
X44375Y-31285D01*
X44375Y-30714D01*
X44374Y-30685D01*
X44363Y-30657D01*
X44342Y-30636D01*
X44314Y-30624D01*
X44168Y-30625D01*
X44150Y-30643D01*
X44150Y-30850D01*
X44356Y-30850D01*
X44375Y-30831D01*
X44375Y-30714D01*
X44375Y-31285D01*
X44375Y-31168D01*
X44356Y-31150D01*
X44150Y-31150D01*
X44150Y-31356D01*
X44168Y-31375D01*
X44314Y-31375D01*
X44342Y-31363D01*
X44363Y-31342D01*
X44374Y-31314D01*
X44375Y-31285D01*
X44375Y-38365D01*
X43850Y-38365D01*
X43850Y-31356D01*
X43850Y-31150D01*
X43850Y-30850D01*
X43850Y-30643D01*
X43831Y-30625D01*
X43685Y-30624D01*
X43657Y-30636D01*
X43636Y-30657D01*
X43625Y-30685D01*
X43624Y-30714D01*
X43625Y-30831D01*
X43643Y-30850D01*
X43850Y-30850D01*
X43850Y-31150D01*
X43643Y-31150D01*
X43625Y-31168D01*
X43624Y-31285D01*
X43625Y-31314D01*
X43636Y-31342D01*
X43657Y-31363D01*
X43685Y-31375D01*
X43831Y-31375D01*
X43850Y-31356D01*
X43850Y-38365D01*
X43676Y-38365D01*
X43425Y-38114D01*
X43425Y-30915D01*
X43360Y-30759D01*
X43241Y-30639D01*
X43084Y-30575D01*
X42915Y-30574D01*
X42759Y-30639D01*
X42639Y-30758D01*
X42575Y-30915D01*
X42574Y-31084D01*
X42639Y-31240D01*
X42758Y-31360D01*
X42915Y-31424D01*
X43084Y-31425D01*
X43240Y-31360D01*
X43360Y-31241D01*
X43424Y-31084D01*
X43425Y-30915D01*
X43425Y-38114D01*
X42526Y-37216D01*
X42526Y-35636D01*
X42526Y-34636D01*
X42522Y-34614D01*
X42490Y-34571D01*
X42362Y-34700D01*
X42490Y-34828D01*
X42522Y-34785D01*
X42526Y-34636D01*
X42526Y-35636D01*
X42522Y-35614D01*
X42490Y-35571D01*
X42362Y-35700D01*
X42490Y-35828D01*
X42522Y-35785D01*
X42526Y-35636D01*
X42526Y-37216D01*
X42278Y-36967D01*
X42278Y-36040D01*
X42278Y-35359D01*
X42278Y-35040D01*
X42278Y-34359D01*
X42235Y-34327D01*
X42086Y-34323D01*
X42064Y-34327D01*
X42021Y-34359D01*
X42150Y-34487D01*
X42278Y-34359D01*
X42278Y-35040D01*
X42150Y-34912D01*
X42021Y-35040D01*
X42064Y-35072D01*
X42213Y-35076D01*
X42235Y-35072D01*
X42278Y-35040D01*
X42278Y-35359D01*
X42235Y-35327D01*
X42086Y-35323D01*
X42064Y-35327D01*
X42021Y-35359D01*
X42150Y-35487D01*
X42278Y-35359D01*
X42278Y-36040D01*
X42150Y-35912D01*
X42021Y-36040D01*
X42064Y-36072D01*
X42213Y-36076D01*
X42235Y-36072D01*
X42278Y-36040D01*
X42278Y-36967D01*
X41937Y-36627D01*
X41937Y-35700D01*
X41809Y-35571D01*
X41777Y-35614D01*
X41773Y-35763D01*
X41777Y-35785D01*
X41809Y-35828D01*
X41937Y-35700D01*
X41937Y-36627D01*
X41376Y-36066D01*
X41390Y-36060D01*
X41510Y-35941D01*
X41574Y-35784D01*
X41575Y-35615D01*
X41539Y-35530D01*
X41790Y-35280D01*
X41790Y-35280D01*
X41830Y-35220D01*
X41844Y-35150D01*
X41844Y-35150D01*
X41844Y-34793D01*
X41937Y-34700D01*
X41844Y-34606D01*
X41844Y-31416D01*
X41858Y-31401D01*
X41915Y-31424D01*
X42084Y-31425D01*
X42240Y-31360D01*
X42360Y-31241D01*
X42424Y-31084D01*
X42425Y-30915D01*
X42360Y-30759D01*
X42241Y-30639D01*
X42084Y-30575D01*
X41915Y-30574D01*
X41759Y-30639D01*
X41639Y-30758D01*
X41575Y-30915D01*
X41574Y-31084D01*
X41598Y-31141D01*
X41529Y-31209D01*
X41489Y-31269D01*
X41482Y-31306D01*
X41482Y-26944D01*
X41439Y-26840D01*
X41399Y-26799D01*
X41439Y-26760D01*
X41482Y-26656D01*
X41482Y-26544D01*
X41439Y-26440D01*
X41360Y-26360D01*
X41256Y-26317D01*
X41144Y-26317D01*
X41040Y-26360D01*
X40960Y-26439D01*
X40917Y-26543D01*
X40917Y-26655D01*
X40960Y-26759D01*
X41000Y-26800D01*
X40960Y-26839D01*
X40917Y-26943D01*
X40917Y-27055D01*
X40960Y-27159D01*
X41039Y-27239D01*
X41143Y-27282D01*
X41255Y-27282D01*
X41359Y-27239D01*
X41439Y-27160D01*
X41482Y-27056D01*
X41482Y-26944D01*
X41482Y-31306D01*
X41475Y-31340D01*
X41475Y-34424D01*
X41391Y-34339D01*
X41234Y-34275D01*
X41184Y-34275D01*
X41184Y-31383D01*
X41240Y-31360D01*
X41360Y-31241D01*
X41424Y-31084D01*
X41425Y-30915D01*
X41360Y-30759D01*
X41241Y-30639D01*
X41084Y-30575D01*
X40915Y-30574D01*
X40759Y-30639D01*
X40659Y-30739D01*
X40659Y-28125D01*
X40645Y-28054D01*
X40605Y-27994D01*
X40605Y-27994D01*
X40349Y-27739D01*
X40350Y-27640D01*
X40304Y-27530D01*
X40220Y-27445D01*
X40109Y-27400D01*
X39990Y-27399D01*
X39880Y-27445D01*
X39795Y-27529D01*
X39750Y-27640D01*
X39749Y-27759D01*
X39795Y-27869D01*
X39879Y-27954D01*
X39990Y-27999D01*
X40089Y-28000D01*
X40290Y-28201D01*
X40290Y-30689D01*
X40241Y-30639D01*
X40084Y-30575D01*
X39915Y-30574D01*
X39759Y-30639D01*
X39700Y-30698D01*
X39700Y-27640D01*
X39654Y-27530D01*
X39570Y-27445D01*
X39459Y-27400D01*
X39340Y-27399D01*
X39230Y-27445D01*
X39145Y-27529D01*
X39100Y-27640D01*
X39099Y-27759D01*
X39145Y-27869D01*
X39165Y-27890D01*
X39165Y-34275D01*
X39065Y-34274D01*
X38909Y-34339D01*
X38834Y-34414D01*
X38834Y-28250D01*
X38834Y-28025D01*
X38834Y-28024D01*
X38820Y-27954D01*
X38780Y-27894D01*
X38780Y-27894D01*
X38599Y-27714D01*
X38600Y-27615D01*
X38554Y-27505D01*
X38470Y-27420D01*
X38359Y-27375D01*
X38240Y-27374D01*
X38130Y-27420D01*
X38045Y-27504D01*
X38000Y-27615D01*
X37999Y-27734D01*
X38045Y-27844D01*
X38129Y-27929D01*
X38240Y-27974D01*
X38339Y-27975D01*
X38465Y-28101D01*
X38465Y-28250D01*
X38465Y-34414D01*
X38391Y-34339D01*
X38334Y-34316D01*
X38334Y-31050D01*
X38320Y-30979D01*
X38320Y-30979D01*
X38280Y-30919D01*
X37884Y-30523D01*
X37884Y-29100D01*
X37870Y-29029D01*
X37830Y-28969D01*
X37830Y-28969D01*
X36949Y-28089D01*
X36950Y-27990D01*
X36904Y-27880D01*
X36820Y-27795D01*
X36709Y-27750D01*
X36590Y-27749D01*
X36480Y-27795D01*
X36395Y-27879D01*
X36350Y-27990D01*
X36349Y-28109D01*
X36395Y-28219D01*
X36479Y-28304D01*
X36590Y-28349D01*
X36689Y-28350D01*
X37515Y-29176D01*
X37515Y-30600D01*
X37529Y-30670D01*
X37569Y-30730D01*
X37965Y-31126D01*
X37965Y-34316D01*
X37909Y-34339D01*
X37834Y-34414D01*
X37834Y-32250D01*
X37834Y-32249D01*
X37820Y-32179D01*
X37780Y-32119D01*
X37780Y-32119D01*
X37259Y-31598D01*
X37259Y-29350D01*
X37259Y-29349D01*
X37245Y-29279D01*
X37205Y-29219D01*
X37205Y-29219D01*
X37074Y-29089D01*
X37075Y-28990D01*
X37029Y-28880D01*
X36945Y-28795D01*
X36834Y-28750D01*
X36715Y-28749D01*
X36605Y-28795D01*
X36520Y-28879D01*
X36475Y-28990D01*
X36474Y-29109D01*
X36520Y-29219D01*
X36604Y-29304D01*
X36715Y-29349D01*
X36814Y-29350D01*
X36890Y-29426D01*
X36890Y-31675D01*
X36904Y-31745D01*
X36944Y-31805D01*
X37465Y-32326D01*
X37465Y-34414D01*
X37391Y-34339D01*
X37234Y-34275D01*
X37065Y-34274D01*
X36909Y-34339D01*
X36789Y-34458D01*
X36725Y-34615D01*
X36724Y-34784D01*
X36789Y-34940D01*
X36908Y-35060D01*
X37065Y-35124D01*
X37234Y-35125D01*
X37390Y-35060D01*
X37465Y-34985D01*
X37465Y-35200D01*
X37479Y-35270D01*
X37519Y-35330D01*
X37748Y-35558D01*
X37725Y-35615D01*
X37724Y-35784D01*
X37789Y-35940D01*
X37908Y-36060D01*
X38065Y-36124D01*
X38234Y-36125D01*
X38390Y-36060D01*
X38510Y-35941D01*
X38574Y-35784D01*
X38575Y-35615D01*
X38510Y-35459D01*
X38391Y-35339D01*
X38234Y-35275D01*
X38065Y-35274D01*
X38008Y-35298D01*
X37834Y-35123D01*
X37834Y-34985D01*
X37908Y-35060D01*
X38065Y-35124D01*
X38234Y-35125D01*
X38390Y-35060D01*
X38465Y-34985D01*
X38465Y-35200D01*
X38479Y-35270D01*
X38519Y-35330D01*
X38748Y-35558D01*
X38725Y-35615D01*
X38724Y-35784D01*
X38789Y-35940D01*
X38908Y-36060D01*
X39065Y-36124D01*
X39234Y-36125D01*
X39390Y-36060D01*
X39510Y-35941D01*
X39574Y-35784D01*
X39575Y-35615D01*
X39510Y-35459D01*
X39391Y-35339D01*
X39234Y-35275D01*
X39065Y-35274D01*
X39008Y-35298D01*
X38834Y-35123D01*
X38834Y-34985D01*
X38908Y-35060D01*
X39065Y-35124D01*
X39234Y-35125D01*
X39390Y-35060D01*
X39510Y-34941D01*
X39574Y-34784D01*
X39575Y-34615D01*
X39531Y-34511D01*
X39531Y-34511D01*
X39534Y-34500D01*
X39534Y-34500D01*
X39534Y-27969D01*
X39569Y-27954D01*
X39654Y-27870D01*
X39699Y-27759D01*
X39700Y-27640D01*
X39700Y-30698D01*
X39639Y-30758D01*
X39575Y-30915D01*
X39574Y-31084D01*
X39639Y-31240D01*
X39758Y-31360D01*
X39915Y-31424D01*
X40084Y-31425D01*
X40240Y-31360D01*
X40290Y-31310D01*
X40290Y-34298D01*
X40234Y-34275D01*
X40065Y-34274D01*
X39909Y-34339D01*
X39789Y-34458D01*
X39725Y-34615D01*
X39724Y-34784D01*
X39789Y-34940D01*
X39908Y-35060D01*
X40065Y-35124D01*
X40234Y-35125D01*
X40390Y-35060D01*
X40510Y-34941D01*
X40574Y-34784D01*
X40575Y-34615D01*
X40551Y-34558D01*
X40605Y-34505D01*
X40605Y-34505D01*
X40645Y-34445D01*
X40659Y-34375D01*
X40659Y-34375D01*
X40659Y-31260D01*
X40758Y-31360D01*
X40815Y-31383D01*
X40815Y-34432D01*
X40789Y-34458D01*
X40725Y-34615D01*
X40724Y-34784D01*
X40748Y-34841D01*
X40519Y-35069D01*
X40479Y-35129D01*
X40465Y-35200D01*
X40465Y-35414D01*
X40391Y-35339D01*
X40234Y-35275D01*
X40065Y-35274D01*
X39909Y-35339D01*
X39789Y-35458D01*
X39725Y-35615D01*
X39724Y-35784D01*
X39789Y-35940D01*
X39908Y-36060D01*
X40065Y-36124D01*
X40234Y-36125D01*
X40390Y-36060D01*
X40465Y-35985D01*
X40465Y-36330D01*
X40479Y-36400D01*
X40519Y-36460D01*
X43204Y-39145D01*
X43264Y-39185D01*
X43264Y-39185D01*
X43335Y-39199D01*
X47550Y-39199D01*
X47550Y-39199D01*
X47620Y-39185D01*
X47620Y-39185D01*
X47680Y-39145D01*
X47880Y-38945D01*
X47880Y-38945D01*
X47920Y-38885D01*
X47934Y-38815D01*
X47934Y-38815D01*
X47934Y-38578D01*
X47987Y-38556D01*
X48106Y-38438D01*
X48170Y-38284D01*
X48170Y-38116D01*
X48170Y-44288D01*
X47008Y-44288D01*
X47008Y-40532D01*
X46880Y-40222D01*
X46643Y-39985D01*
X46333Y-39856D01*
X45997Y-39856D01*
X45687Y-39984D01*
X45450Y-40221D01*
X45321Y-40531D01*
X45321Y-40867D01*
X45449Y-41177D01*
X45686Y-41414D01*
X45996Y-41543D01*
X46332Y-41543D01*
X46642Y-41415D01*
X46879Y-41178D01*
X47008Y-40868D01*
X47008Y-40532D01*
X47008Y-44288D01*
X45969Y-44288D01*
X45969Y-42610D01*
X45967Y-42603D01*
X45932Y-42545D01*
X45778Y-42700D01*
X45932Y-42854D01*
X45967Y-42796D01*
X45969Y-42610D01*
X45969Y-44288D01*
X45654Y-44288D01*
X45654Y-43132D01*
X45654Y-42267D01*
X45596Y-42232D01*
X45410Y-42230D01*
X45403Y-42232D01*
X45345Y-42267D01*
X45500Y-42421D01*
X45654Y-42267D01*
X45654Y-43132D01*
X45500Y-42978D01*
X45345Y-43132D01*
X45403Y-43167D01*
X45589Y-43169D01*
X45596Y-43167D01*
X45654Y-43132D01*
X45654Y-44288D01*
X45221Y-44288D01*
X45221Y-42700D01*
X45067Y-42545D01*
X45032Y-42603D01*
X45030Y-42789D01*
X45032Y-42796D01*
X45067Y-42854D01*
X45221Y-42700D01*
X45221Y-44288D01*
X43351Y-44288D01*
X43351Y-42486D01*
X43347Y-42464D01*
X43315Y-42421D01*
X43187Y-42550D01*
X43315Y-42678D01*
X43347Y-42635D01*
X43351Y-42486D01*
X43351Y-44288D01*
X43103Y-44288D01*
X43103Y-42890D01*
X43103Y-42209D01*
X43060Y-42177D01*
X42911Y-42173D01*
X42889Y-42177D01*
X42846Y-42209D01*
X42975Y-42337D01*
X43103Y-42209D01*
X43103Y-42890D01*
X42975Y-42762D01*
X42846Y-42890D01*
X42889Y-42922D01*
X43038Y-42926D01*
X43060Y-42922D01*
X43103Y-42890D01*
X43103Y-44288D01*
X42762Y-44288D01*
X42762Y-42550D01*
X42634Y-42421D01*
X42602Y-42464D01*
X42598Y-42613D01*
X42602Y-42635D01*
X42634Y-42678D01*
X42762Y-42550D01*
X42762Y-44288D01*
X42351Y-44288D01*
X42351Y-42486D01*
X42347Y-42464D01*
X42315Y-42421D01*
X42187Y-42550D01*
X42315Y-42678D01*
X42347Y-42635D01*
X42351Y-42486D01*
X42351Y-44288D01*
X42103Y-44288D01*
X42103Y-42890D01*
X42103Y-42209D01*
X42060Y-42177D01*
X41911Y-42173D01*
X41889Y-42177D01*
X41846Y-42209D01*
X41975Y-42337D01*
X42103Y-42209D01*
X42103Y-42890D01*
X41975Y-42762D01*
X41846Y-42890D01*
X41889Y-42922D01*
X42038Y-42926D01*
X42060Y-42922D01*
X42103Y-42890D01*
X42103Y-44288D01*
X41762Y-44288D01*
X41762Y-42550D01*
X41634Y-42421D01*
X41602Y-42464D01*
X41598Y-42613D01*
X41602Y-42635D01*
X41634Y-42678D01*
X41762Y-42550D01*
X41762Y-44288D01*
X41400Y-44288D01*
X41400Y-42465D01*
X41335Y-42309D01*
X41216Y-42189D01*
X41059Y-42125D01*
X40890Y-42124D01*
X40734Y-42189D01*
X40614Y-42308D01*
X40550Y-42465D01*
X40549Y-42634D01*
X40614Y-42790D01*
X40733Y-42910D01*
X40750Y-42916D01*
X40750Y-42931D01*
X40306Y-43375D01*
X38400Y-43375D01*
X38400Y-42825D01*
X38400Y-42225D01*
X38381Y-42179D01*
X38345Y-42144D01*
X38299Y-42125D01*
X38250Y-42124D01*
X37650Y-42124D01*
X37604Y-42143D01*
X37569Y-42179D01*
X37550Y-42225D01*
X37549Y-42274D01*
X37549Y-42874D01*
X37568Y-42920D01*
X37604Y-42955D01*
X37650Y-42974D01*
X37699Y-42975D01*
X38299Y-42975D01*
X38345Y-42956D01*
X38380Y-42920D01*
X38399Y-42874D01*
X38400Y-42825D01*
X38400Y-43375D01*
X36275Y-43375D01*
X36275Y-42065D01*
X36210Y-41909D01*
X36091Y-41789D01*
X35934Y-41725D01*
X35765Y-41724D01*
X35609Y-41789D01*
X35489Y-41908D01*
X35425Y-42065D01*
X35424Y-42234D01*
X35489Y-42390D01*
X35608Y-42510D01*
X35765Y-42574D01*
X35934Y-42575D01*
X36090Y-42510D01*
X36210Y-42391D01*
X36274Y-42234D01*
X36275Y-42065D01*
X36275Y-43375D01*
X35275Y-43375D01*
X35275Y-42425D01*
X35275Y-41825D01*
X35256Y-41779D01*
X35220Y-41744D01*
X35174Y-41725D01*
X35125Y-41724D01*
X34525Y-41724D01*
X34479Y-41743D01*
X34444Y-41779D01*
X34425Y-41825D01*
X34424Y-41874D01*
X34424Y-42474D01*
X34443Y-42520D01*
X34479Y-42555D01*
X34525Y-42574D01*
X34574Y-42575D01*
X35174Y-42575D01*
X35220Y-42556D01*
X35255Y-42520D01*
X35274Y-42474D01*
X35275Y-42425D01*
X35275Y-43375D01*
X34193Y-43375D01*
X33375Y-42556D01*
X33375Y-36125D01*
X33465Y-36125D01*
X33465Y-36750D01*
X33479Y-36820D01*
X33519Y-36880D01*
X38790Y-42151D01*
X38790Y-42166D01*
X38734Y-42189D01*
X38614Y-42308D01*
X38550Y-42465D01*
X38549Y-42634D01*
X38614Y-42790D01*
X38733Y-42910D01*
X38890Y-42974D01*
X39059Y-42975D01*
X39215Y-42910D01*
X39335Y-42791D01*
X39399Y-42634D01*
X39400Y-42465D01*
X39335Y-42309D01*
X39216Y-42189D01*
X39159Y-42166D01*
X39159Y-42075D01*
X39145Y-42004D01*
X39105Y-41944D01*
X39105Y-41944D01*
X33834Y-36673D01*
X33834Y-35985D01*
X33908Y-36060D01*
X33965Y-36083D01*
X33965Y-36550D01*
X33979Y-36620D01*
X34019Y-36680D01*
X39631Y-42292D01*
X39614Y-42308D01*
X39550Y-42465D01*
X39549Y-42634D01*
X39614Y-42790D01*
X39733Y-42910D01*
X39890Y-42974D01*
X40059Y-42975D01*
X40215Y-42910D01*
X40335Y-42791D01*
X40399Y-42634D01*
X40400Y-42465D01*
X40335Y-42309D01*
X40216Y-42189D01*
X40059Y-42125D01*
X39985Y-42125D01*
X37575Y-39714D01*
X37575Y-35615D01*
X37510Y-35459D01*
X37391Y-35339D01*
X37234Y-35275D01*
X37065Y-35274D01*
X36909Y-35339D01*
X36789Y-35458D01*
X36725Y-35615D01*
X36724Y-35784D01*
X36789Y-35940D01*
X36908Y-36060D01*
X37065Y-36124D01*
X37234Y-36125D01*
X37390Y-36060D01*
X37510Y-35941D01*
X37574Y-35784D01*
X37575Y-35615D01*
X37575Y-39714D01*
X36575Y-38714D01*
X36575Y-35615D01*
X36575Y-34615D01*
X36510Y-34459D01*
X36391Y-34339D01*
X36234Y-34275D01*
X36065Y-34274D01*
X35909Y-34339D01*
X35789Y-34458D01*
X35725Y-34615D01*
X35724Y-34784D01*
X35789Y-34940D01*
X35908Y-35060D01*
X36065Y-35124D01*
X36234Y-35125D01*
X36390Y-35060D01*
X36510Y-34941D01*
X36574Y-34784D01*
X36575Y-34615D01*
X36575Y-35615D01*
X36510Y-35459D01*
X36391Y-35339D01*
X36234Y-35275D01*
X36065Y-35274D01*
X35909Y-35339D01*
X35789Y-35458D01*
X35725Y-35615D01*
X35724Y-35784D01*
X35789Y-35940D01*
X35908Y-36060D01*
X36065Y-36124D01*
X36234Y-36125D01*
X36390Y-36060D01*
X36510Y-35941D01*
X36574Y-35784D01*
X36575Y-35615D01*
X36575Y-38714D01*
X35575Y-37714D01*
X35575Y-35615D01*
X35575Y-34615D01*
X35510Y-34459D01*
X35391Y-34339D01*
X35234Y-34275D01*
X35065Y-34274D01*
X34909Y-34339D01*
X34789Y-34458D01*
X34725Y-34615D01*
X34724Y-34784D01*
X34789Y-34940D01*
X34908Y-35060D01*
X35065Y-35124D01*
X35234Y-35125D01*
X35390Y-35060D01*
X35510Y-34941D01*
X35574Y-34784D01*
X35575Y-34615D01*
X35575Y-35615D01*
X35510Y-35459D01*
X35391Y-35339D01*
X35234Y-35275D01*
X35065Y-35274D01*
X34909Y-35339D01*
X34789Y-35458D01*
X34725Y-35615D01*
X34724Y-35784D01*
X34789Y-35940D01*
X34908Y-36060D01*
X35065Y-36124D01*
X35234Y-36125D01*
X35390Y-36060D01*
X35510Y-35941D01*
X35574Y-35784D01*
X35575Y-35615D01*
X35575Y-37714D01*
X34334Y-36473D01*
X34334Y-36083D01*
X34390Y-36060D01*
X34510Y-35941D01*
X34574Y-35784D01*
X34575Y-35615D01*
X34510Y-35459D01*
X34391Y-35339D01*
X34234Y-35275D01*
X34065Y-35274D01*
X33909Y-35339D01*
X33834Y-35414D01*
X33834Y-35376D01*
X34085Y-35124D01*
X34234Y-35125D01*
X34390Y-35060D01*
X34510Y-34941D01*
X34574Y-34784D01*
X34575Y-34615D01*
X34510Y-34459D01*
X34391Y-34339D01*
X34234Y-34275D01*
X34065Y-34274D01*
X33909Y-34339D01*
X33789Y-34458D01*
X33725Y-34615D01*
X33724Y-34784D01*
X33777Y-34911D01*
X33519Y-35169D01*
X33479Y-35229D01*
X33470Y-35275D01*
X33425Y-35274D01*
X33375Y-35274D01*
X33375Y-35066D01*
X33390Y-35060D01*
X33510Y-34941D01*
X33574Y-34784D01*
X33575Y-34615D01*
X33510Y-34459D01*
X33391Y-34339D01*
X33375Y-34333D01*
X33375Y-30993D01*
X33543Y-30825D01*
X34500Y-30825D01*
X34899Y-30825D01*
X34900Y-30825D01*
X34900Y-30825D01*
X34971Y-30810D01*
X34986Y-30807D01*
X34986Y-30807D01*
X35059Y-30759D01*
X35384Y-30434D01*
X35384Y-30434D01*
X35384Y-30434D01*
X35432Y-30361D01*
X35432Y-30361D01*
X35450Y-30275D01*
X35450Y-30024D01*
X35479Y-29995D01*
X35524Y-29884D01*
X35525Y-29765D01*
X35479Y-29655D01*
X35450Y-29625D01*
X35450Y-29300D01*
X35450Y-29200D01*
X35450Y-29150D01*
X35450Y-27060D01*
X35451Y-27059D01*
X35496Y-26949D01*
X35496Y-26830D01*
X35451Y-26720D01*
X35367Y-26635D01*
X35256Y-26589D01*
X35137Y-26589D01*
X35027Y-26635D01*
X34942Y-26719D01*
X34896Y-26829D01*
X34896Y-26949D01*
X34942Y-27059D01*
X35000Y-27117D01*
X35000Y-28225D01*
X34970Y-28195D01*
X34859Y-28150D01*
X34752Y-28149D01*
X34752Y-25416D01*
X37930Y-22238D01*
X37930Y-22238D01*
X37970Y-22178D01*
X37984Y-22108D01*
X37984Y-22108D01*
X37984Y-18976D01*
X38125Y-18835D01*
X38124Y-18874D01*
X38124Y-19474D01*
X38143Y-19520D01*
X38179Y-19555D01*
X38225Y-19574D01*
X38274Y-19575D01*
X38874Y-19575D01*
X38920Y-19556D01*
X38955Y-19520D01*
X38974Y-19474D01*
X38975Y-19425D01*
X38975Y-18825D01*
X38956Y-18779D01*
X38920Y-18744D01*
X38874Y-18725D01*
X38825Y-18724D01*
X38235Y-18724D01*
X38408Y-18551D01*
X38465Y-18574D01*
X38634Y-18575D01*
X38790Y-18510D01*
X38910Y-18391D01*
X38974Y-18234D01*
X38975Y-18065D01*
X38910Y-17909D01*
X38791Y-17789D01*
X38634Y-17725D01*
X38465Y-17724D01*
X38309Y-17789D01*
X38189Y-17908D01*
X38125Y-18065D01*
X38124Y-18234D01*
X38148Y-18291D01*
X37669Y-18769D01*
X37650Y-18799D01*
X37630Y-18769D01*
X37630Y-18769D01*
X37580Y-18719D01*
X37580Y-18719D01*
X37580Y-18719D01*
X37151Y-18291D01*
X37174Y-18234D01*
X37175Y-18065D01*
X37175Y-17065D01*
X37110Y-16909D01*
X36991Y-16789D01*
X36834Y-16725D01*
X36665Y-16724D01*
X36509Y-16789D01*
X36389Y-16908D01*
X36325Y-17065D01*
X36324Y-17234D01*
X36389Y-17390D01*
X36508Y-17510D01*
X36665Y-17574D01*
X36834Y-17575D01*
X36990Y-17510D01*
X37110Y-17391D01*
X37174Y-17234D01*
X37175Y-17065D01*
X37175Y-18065D01*
X37110Y-17909D01*
X36991Y-17789D01*
X36834Y-17725D01*
X36665Y-17724D01*
X36509Y-17789D01*
X36389Y-17908D01*
X36325Y-18065D01*
X36324Y-18234D01*
X36389Y-18390D01*
X36508Y-18510D01*
X36665Y-18574D01*
X36834Y-18575D01*
X36891Y-18551D01*
X37064Y-18725D01*
X37025Y-18724D01*
X36425Y-18724D01*
X36379Y-18743D01*
X36344Y-18779D01*
X36325Y-18825D01*
X36324Y-18874D01*
X36324Y-19474D01*
X36343Y-19520D01*
X36379Y-19555D01*
X36425Y-19574D01*
X36474Y-19575D01*
X37074Y-19575D01*
X37120Y-19556D01*
X37155Y-19520D01*
X37174Y-19474D01*
X37175Y-19425D01*
X37175Y-18835D01*
X37315Y-18976D01*
X37315Y-22023D01*
X35919Y-23419D01*
X34437Y-24901D01*
X34437Y-24901D01*
X34219Y-25119D01*
X34179Y-25179D01*
X34165Y-25250D01*
X34165Y-27206D01*
X34160Y-27200D01*
X34160Y-26889D01*
X34160Y-25400D01*
X34160Y-24555D01*
X34160Y-24494D01*
X35380Y-23275D01*
X35399Y-23246D01*
X35419Y-23217D01*
X35419Y-23216D01*
X35420Y-23215D01*
X35426Y-23181D01*
X35434Y-23146D01*
X35452Y-21368D01*
X35510Y-21311D01*
X35574Y-21154D01*
X35575Y-20985D01*
X35526Y-20869D01*
X35526Y-20006D01*
X35522Y-19984D01*
X35490Y-19941D01*
X35362Y-20070D01*
X35490Y-20198D01*
X35522Y-20155D01*
X35526Y-20006D01*
X35526Y-20869D01*
X35510Y-20829D01*
X35391Y-20709D01*
X35278Y-20663D01*
X35278Y-20410D01*
X35278Y-19729D01*
X35235Y-19697D01*
X35086Y-19693D01*
X35064Y-19697D01*
X35021Y-19729D01*
X35150Y-19857D01*
X35278Y-19729D01*
X35278Y-20410D01*
X35150Y-20282D01*
X35021Y-20410D01*
X35064Y-20442D01*
X35213Y-20446D01*
X35235Y-20442D01*
X35278Y-20410D01*
X35278Y-20663D01*
X35234Y-20645D01*
X35065Y-20644D01*
X34975Y-20682D01*
X34975Y-18165D01*
X34910Y-18009D01*
X34791Y-17889D01*
X34634Y-17825D01*
X34465Y-17824D01*
X34309Y-17889D01*
X34189Y-18008D01*
X34125Y-18165D01*
X34124Y-18334D01*
X34189Y-18490D01*
X34308Y-18610D01*
X34465Y-18674D01*
X34634Y-18675D01*
X34790Y-18610D01*
X34910Y-18491D01*
X34974Y-18334D01*
X34975Y-18165D01*
X34975Y-20682D01*
X34937Y-20697D01*
X34937Y-20070D01*
X34809Y-19941D01*
X34777Y-19984D01*
X34773Y-20133D01*
X34777Y-20155D01*
X34809Y-20198D01*
X34937Y-20070D01*
X34937Y-20697D01*
X34909Y-20709D01*
X34789Y-20828D01*
X34725Y-20985D01*
X34724Y-21154D01*
X34789Y-21310D01*
X34908Y-21430D01*
X35065Y-21494D01*
X35083Y-21494D01*
X35066Y-23067D01*
X34575Y-23559D01*
X34575Y-20985D01*
X34575Y-19985D01*
X34510Y-19829D01*
X34391Y-19709D01*
X34234Y-19645D01*
X34065Y-19644D01*
X33909Y-19709D01*
X33789Y-19828D01*
X33725Y-19985D01*
X33724Y-20154D01*
X33789Y-20310D01*
X33908Y-20430D01*
X34065Y-20494D01*
X34234Y-20495D01*
X34390Y-20430D01*
X34510Y-20311D01*
X34574Y-20154D01*
X34575Y-19985D01*
X34575Y-20985D01*
X34510Y-20829D01*
X34391Y-20709D01*
X34234Y-20645D01*
X34065Y-20644D01*
X33909Y-20709D01*
X33789Y-20828D01*
X33725Y-20985D01*
X33724Y-21154D01*
X33789Y-21310D01*
X33908Y-21430D01*
X34065Y-21494D01*
X34234Y-21495D01*
X34390Y-21430D01*
X34510Y-21311D01*
X34574Y-21154D01*
X34575Y-20985D01*
X34575Y-23559D01*
X33846Y-24288D01*
X33806Y-24348D01*
X33792Y-24418D01*
X33792Y-24555D01*
X33792Y-25400D01*
X33792Y-26889D01*
X33792Y-27136D01*
X33767Y-27147D01*
X33682Y-27231D01*
X33637Y-27341D01*
X33636Y-27460D01*
X33682Y-27571D01*
X33766Y-27655D01*
X33877Y-27701D01*
X33996Y-27701D01*
X34106Y-27656D01*
X34165Y-27596D01*
X34165Y-28250D01*
X34165Y-28423D01*
X34089Y-28500D01*
X33990Y-28499D01*
X33880Y-28545D01*
X33795Y-28629D01*
X33750Y-28740D01*
X33749Y-28859D01*
X33795Y-28969D01*
X33879Y-29054D01*
X33990Y-29099D01*
X34109Y-29100D01*
X34219Y-29054D01*
X34304Y-28970D01*
X34349Y-28859D01*
X34350Y-28760D01*
X34480Y-28630D01*
X34480Y-28630D01*
X34520Y-28570D01*
X34521Y-28562D01*
X34545Y-28619D01*
X34629Y-28704D01*
X34740Y-28749D01*
X34859Y-28750D01*
X34969Y-28704D01*
X35000Y-28674D01*
X35000Y-28925D01*
X34550Y-28925D01*
X34463Y-28942D01*
X34390Y-28990D01*
X34390Y-28990D01*
X34206Y-29175D01*
X33800Y-29175D01*
X33293Y-29175D01*
X33225Y-29106D01*
X33225Y-28600D01*
X33225Y-27900D01*
X33225Y-27143D01*
X33609Y-26759D01*
X33609Y-26759D01*
X33609Y-26759D01*
X33657Y-26686D01*
X33657Y-26686D01*
X33660Y-26671D01*
X33675Y-26600D01*
X33675Y-26600D01*
X33675Y-26599D01*
X33675Y-26200D01*
X33675Y-23627D01*
X33657Y-23541D01*
X33609Y-23468D01*
X33609Y-23468D01*
X33532Y-23391D01*
X33532Y-23270D01*
X33561Y-23241D01*
X33607Y-23130D01*
X33607Y-23011D01*
X33575Y-22933D01*
X33575Y-21345D01*
X33575Y-20745D01*
X33556Y-20699D01*
X33520Y-20664D01*
X33474Y-20645D01*
X33425Y-20644D01*
X32825Y-20644D01*
X32779Y-20663D01*
X32744Y-20699D01*
X32725Y-20745D01*
X32724Y-20794D01*
X32724Y-21394D01*
X32743Y-21440D01*
X32779Y-21475D01*
X32825Y-21494D01*
X32874Y-21495D01*
X33474Y-21495D01*
X33520Y-21476D01*
X33555Y-21440D01*
X33574Y-21394D01*
X33575Y-21345D01*
X33575Y-22933D01*
X33561Y-22901D01*
X33477Y-22816D01*
X33367Y-22770D01*
X33247Y-22770D01*
X33137Y-22816D01*
X33052Y-22900D01*
X33007Y-23010D01*
X33007Y-23130D01*
X33052Y-23240D01*
X33071Y-23260D01*
X32993Y-23260D01*
X32565Y-22831D01*
X32565Y-20633D01*
X32838Y-20359D01*
X32908Y-20430D01*
X33065Y-20494D01*
X33234Y-20495D01*
X33390Y-20430D01*
X33510Y-20311D01*
X33574Y-20154D01*
X33575Y-19985D01*
X33510Y-19829D01*
X33391Y-19709D01*
X33234Y-19645D01*
X33065Y-19644D01*
X32909Y-19709D01*
X32789Y-19828D01*
X32780Y-19850D01*
X32780Y-19850D01*
X32738Y-19859D01*
X32723Y-19862D01*
X32650Y-19910D01*
X32650Y-19910D01*
X32180Y-20380D01*
X32132Y-20453D01*
X32129Y-20468D01*
X32114Y-20540D01*
X32115Y-20540D01*
X32115Y-22924D01*
X32114Y-22925D01*
X32129Y-22996D01*
X32132Y-23011D01*
X32180Y-23084D01*
X32740Y-23644D01*
X32740Y-23644D01*
X32813Y-23692D01*
X32813Y-23692D01*
X32900Y-23710D01*
X33213Y-23710D01*
X33225Y-23721D01*
X33225Y-25879D01*
X33204Y-25830D01*
X33120Y-25745D01*
X33009Y-25700D01*
X32890Y-25699D01*
X32780Y-25745D01*
X32709Y-25815D01*
X31526Y-25815D01*
X30984Y-25273D01*
X30984Y-18050D01*
X30970Y-17979D01*
X30930Y-17919D01*
X30930Y-17919D01*
X30505Y-17494D01*
X30445Y-17454D01*
X30375Y-17440D01*
X30240Y-17440D01*
X30170Y-17370D01*
X30059Y-17325D01*
X29940Y-17324D01*
X29830Y-17370D01*
X29745Y-17454D01*
X29700Y-17565D01*
X29699Y-17684D01*
X29745Y-17794D01*
X29829Y-17879D01*
X29940Y-17924D01*
X30059Y-17925D01*
X30169Y-17879D01*
X30240Y-17809D01*
X30298Y-17809D01*
X30615Y-18126D01*
X30615Y-25350D01*
X30629Y-25420D01*
X30669Y-25480D01*
X31319Y-26130D01*
X31319Y-26130D01*
X31379Y-26170D01*
X31450Y-26184D01*
X32709Y-26184D01*
X32779Y-26254D01*
X32890Y-26299D01*
X33009Y-26300D01*
X33119Y-26254D01*
X33204Y-26170D01*
X33225Y-26120D01*
X33225Y-26200D01*
X33225Y-26506D01*
X32840Y-26890D01*
X32792Y-26963D01*
X32789Y-26978D01*
X32774Y-27050D01*
X32775Y-27050D01*
X32775Y-27675D01*
X32700Y-27675D01*
X32320Y-27675D01*
X32369Y-27654D01*
X32454Y-27570D01*
X32499Y-27459D01*
X32500Y-27340D01*
X32454Y-27230D01*
X32370Y-27145D01*
X32259Y-27100D01*
X32140Y-27099D01*
X32030Y-27145D01*
X31959Y-27215D01*
X29000Y-27215D01*
X29000Y-23240D01*
X28954Y-23130D01*
X28870Y-23045D01*
X28759Y-23000D01*
X28727Y-23000D01*
X28727Y-22834D01*
X28727Y-17050D01*
X28727Y-17027D01*
X28727Y-16621D01*
X28769Y-16604D01*
X28854Y-16520D01*
X28899Y-16409D01*
X28900Y-16290D01*
X28854Y-16180D01*
X28770Y-16095D01*
X28659Y-16050D01*
X28540Y-16049D01*
X28430Y-16095D01*
X28345Y-16179D01*
X28300Y-16290D01*
X28299Y-16409D01*
X28345Y-16519D01*
X28359Y-16533D01*
X28359Y-17027D01*
X28359Y-17050D01*
X28359Y-20491D01*
X28354Y-20480D01*
X28270Y-20395D01*
X28261Y-20392D01*
X28259Y-20388D01*
X28259Y-16165D01*
X28304Y-16120D01*
X28349Y-16009D01*
X28350Y-15890D01*
X28304Y-15780D01*
X28220Y-15695D01*
X28109Y-15650D01*
X27990Y-15649D01*
X27880Y-15695D01*
X27795Y-15779D01*
X27750Y-15890D01*
X27749Y-16009D01*
X27795Y-16119D01*
X27879Y-16204D01*
X27890Y-16208D01*
X27890Y-20434D01*
X27845Y-20479D01*
X27800Y-20590D01*
X27799Y-20709D01*
X27845Y-20819D01*
X27929Y-20904D01*
X28040Y-20949D01*
X28159Y-20950D01*
X28269Y-20904D01*
X28354Y-20820D01*
X28359Y-20807D01*
X28359Y-21242D01*
X28280Y-21163D01*
X28170Y-21117D01*
X28050Y-21117D01*
X28016Y-21131D01*
X27684Y-20798D01*
X27684Y-16640D01*
X27754Y-16570D01*
X27799Y-16459D01*
X27800Y-16340D01*
X27754Y-16230D01*
X27670Y-16145D01*
X27600Y-16116D01*
X27600Y-14790D01*
X27554Y-14680D01*
X27470Y-14595D01*
X27359Y-14550D01*
X27240Y-14549D01*
X27130Y-14595D01*
X27045Y-14679D01*
X27000Y-14790D01*
X26999Y-14909D01*
X27045Y-15019D01*
X27075Y-15049D01*
X27075Y-15256D01*
X26440Y-15890D01*
X26392Y-15963D01*
X26389Y-15978D01*
X26374Y-16050D01*
X26375Y-16050D01*
X26375Y-16925D01*
X26375Y-17600D01*
X26345Y-17629D01*
X26300Y-17740D01*
X26299Y-17859D01*
X26345Y-17969D01*
X26375Y-17999D01*
X26375Y-19656D01*
X25489Y-20542D01*
X25100Y-20542D01*
X23475Y-20542D01*
X23475Y-17925D01*
X23475Y-17325D01*
X23456Y-17279D01*
X23420Y-17244D01*
X23374Y-17225D01*
X23325Y-17224D01*
X22725Y-17224D01*
X22679Y-17243D01*
X22644Y-17279D01*
X22625Y-17325D01*
X22624Y-17374D01*
X22624Y-17974D01*
X22643Y-18020D01*
X22679Y-18055D01*
X22725Y-18074D01*
X22774Y-18075D01*
X23374Y-18075D01*
X23420Y-18056D01*
X23455Y-18020D01*
X23474Y-17974D01*
X23475Y-17925D01*
X23475Y-20542D01*
X22426Y-20542D01*
X22426Y-17586D01*
X22422Y-17564D01*
X22390Y-17521D01*
X22262Y-17650D01*
X22390Y-17778D01*
X22422Y-17735D01*
X22426Y-17586D01*
X22426Y-20542D01*
X22178Y-20542D01*
X22178Y-17990D01*
X22178Y-17309D01*
X22135Y-17277D01*
X21986Y-17273D01*
X21964Y-17277D01*
X21921Y-17309D01*
X22050Y-17437D01*
X22178Y-17309D01*
X22178Y-17990D01*
X22050Y-17862D01*
X21921Y-17990D01*
X21964Y-18022D01*
X22113Y-18026D01*
X22135Y-18022D01*
X22178Y-17990D01*
X22178Y-20542D01*
X21837Y-20542D01*
X21837Y-17650D01*
X21709Y-17521D01*
X21677Y-17564D01*
X21673Y-17713D01*
X21677Y-17735D01*
X21709Y-17778D01*
X21837Y-17650D01*
X21837Y-20542D01*
X21090Y-20542D01*
X21090Y-14967D01*
X21082Y-14923D01*
X21039Y-14850D01*
X20830Y-15060D01*
X21039Y-15269D01*
X21082Y-15196D01*
X21090Y-14967D01*
X21090Y-20542D01*
X20721Y-20542D01*
X20721Y-15587D01*
X20721Y-14532D01*
X20648Y-14489D01*
X20643Y-14489D01*
X20643Y-12200D01*
X20563Y-12007D01*
X20415Y-11859D01*
X20222Y-11779D01*
X20014Y-11778D01*
X19821Y-11858D01*
X19673Y-12006D01*
X19593Y-12199D01*
X19592Y-12407D01*
X19672Y-12601D01*
X19820Y-12748D01*
X20013Y-12828D01*
X20221Y-12829D01*
X20415Y-12749D01*
X20562Y-12601D01*
X20642Y-12408D01*
X20643Y-12200D01*
X20643Y-14489D01*
X20577Y-14487D01*
X20577Y-13713D01*
X20451Y-13407D01*
X20216Y-13172D01*
X19910Y-13045D01*
X19589Y-13045D01*
X19589Y-12212D01*
X19588Y-12206D01*
X19552Y-12148D01*
X19396Y-12304D01*
X19552Y-12459D01*
X19588Y-12401D01*
X19589Y-12212D01*
X19589Y-13045D01*
X19578Y-13045D01*
X19272Y-13171D01*
X19269Y-13174D01*
X19269Y-12742D01*
X19269Y-11865D01*
X19211Y-11829D01*
X19022Y-11828D01*
X19016Y-11829D01*
X18958Y-11865D01*
X19114Y-12021D01*
X19269Y-11865D01*
X19269Y-12742D01*
X19114Y-12586D01*
X18958Y-12742D01*
X19016Y-12778D01*
X19205Y-12779D01*
X19211Y-12778D01*
X19269Y-12742D01*
X19269Y-13174D01*
X19037Y-13406D01*
X18910Y-13712D01*
X18910Y-14044D01*
X19036Y-14350D01*
X19271Y-14585D01*
X19577Y-14712D01*
X19909Y-14712D01*
X20215Y-14586D01*
X20450Y-14351D01*
X20577Y-14045D01*
X20577Y-13713D01*
X20577Y-14487D01*
X20419Y-14481D01*
X20375Y-14489D01*
X20302Y-14532D01*
X20512Y-14741D01*
X20721Y-14532D01*
X20721Y-15587D01*
X20512Y-15378D01*
X20302Y-15587D01*
X20375Y-15630D01*
X20604Y-15638D01*
X20648Y-15630D01*
X20721Y-15587D01*
X20721Y-20542D01*
X20278Y-20542D01*
X20248Y-20513D01*
X20193Y-20490D01*
X20193Y-15060D01*
X19984Y-14850D01*
X19941Y-14923D01*
X19933Y-15152D01*
X19941Y-15196D01*
X19984Y-15269D01*
X20193Y-15060D01*
X20193Y-20490D01*
X20138Y-20467D01*
X20019Y-20467D01*
X19909Y-20513D01*
X19824Y-20597D01*
X19778Y-20707D01*
X19778Y-20827D01*
X19824Y-20937D01*
X19908Y-21021D01*
X20018Y-21067D01*
X20138Y-21067D01*
X20248Y-21022D01*
X20277Y-20992D01*
X25100Y-20992D01*
X25582Y-20992D01*
X25582Y-20992D01*
X25582Y-20992D01*
X25654Y-20978D01*
X25668Y-20975D01*
X25668Y-20975D01*
X25741Y-20926D01*
X26759Y-19909D01*
X26759Y-19909D01*
X26759Y-19909D01*
X26807Y-19836D01*
X26807Y-19836D01*
X26810Y-19821D01*
X26825Y-19750D01*
X26825Y-19750D01*
X26825Y-19749D01*
X26825Y-17999D01*
X26854Y-17970D01*
X26899Y-17859D01*
X26900Y-17740D01*
X26854Y-17630D01*
X26825Y-17600D01*
X26825Y-16925D01*
X26825Y-16143D01*
X27459Y-15509D01*
X27459Y-15509D01*
X27459Y-15509D01*
X27507Y-15436D01*
X27525Y-15350D01*
X27524Y-15350D01*
X27525Y-15350D01*
X27525Y-15049D01*
X27554Y-15020D01*
X27599Y-14909D01*
X27600Y-14790D01*
X27600Y-16116D01*
X27559Y-16100D01*
X27440Y-16099D01*
X27330Y-16145D01*
X27245Y-16229D01*
X27200Y-16340D01*
X27199Y-16459D01*
X27245Y-16569D01*
X27315Y-16640D01*
X27315Y-20875D01*
X27329Y-20945D01*
X27369Y-21005D01*
X27810Y-21445D01*
X27810Y-21476D01*
X27855Y-21587D01*
X27940Y-21671D01*
X28050Y-21717D01*
X28169Y-21717D01*
X28279Y-21671D01*
X28359Y-21592D01*
X28359Y-22834D01*
X28359Y-23143D01*
X28373Y-23213D01*
X28400Y-23253D01*
X28399Y-23359D01*
X28445Y-23469D01*
X28529Y-23554D01*
X28640Y-23599D01*
X28759Y-23600D01*
X28869Y-23554D01*
X28954Y-23470D01*
X28999Y-23359D01*
X29000Y-23240D01*
X29000Y-27215D01*
X28784Y-27215D01*
X28784Y-25100D01*
X28770Y-25029D01*
X28730Y-24969D01*
X28730Y-24969D01*
X26830Y-23069D01*
X26770Y-23029D01*
X26700Y-23015D01*
X25440Y-23015D01*
X25370Y-22945D01*
X25259Y-22900D01*
X25140Y-22899D01*
X25030Y-22945D01*
X24945Y-23029D01*
X24900Y-23140D01*
X24899Y-23259D01*
X24945Y-23369D01*
X25029Y-23454D01*
X25140Y-23499D01*
X25259Y-23500D01*
X25369Y-23454D01*
X25440Y-23384D01*
X26623Y-23384D01*
X28415Y-25176D01*
X28415Y-27350D01*
X28415Y-27400D01*
X28415Y-29925D01*
X28415Y-30950D01*
X28429Y-31020D01*
X28469Y-31080D01*
X30878Y-33489D01*
X30878Y-34484D01*
X30808Y-34554D01*
X30763Y-34664D01*
X30762Y-34783D01*
X30808Y-34894D01*
X30892Y-34978D01*
X31003Y-35024D01*
X31122Y-35024D01*
X31232Y-34978D01*
X31317Y-34894D01*
X31362Y-34784D01*
X31363Y-34664D01*
X31317Y-34554D01*
X31247Y-34484D01*
X31247Y-33412D01*
X31233Y-33342D01*
X31233Y-33342D01*
X31193Y-33282D01*
X28784Y-30873D01*
X28784Y-29925D01*
X28784Y-27584D01*
X31959Y-27584D01*
X32029Y-27654D01*
X32079Y-27675D01*
X30600Y-27675D01*
X30600Y-27674D01*
X30528Y-27689D01*
X30513Y-27692D01*
X30440Y-27740D01*
X30440Y-27740D01*
X30250Y-27931D01*
X30155Y-27970D01*
X30070Y-28054D01*
X30025Y-28165D01*
X30024Y-28284D01*
X30070Y-28394D01*
X30154Y-28479D01*
X30265Y-28524D01*
X30384Y-28525D01*
X30494Y-28479D01*
X30579Y-28395D01*
X30624Y-28284D01*
X30625Y-28193D01*
X30693Y-28125D01*
X32700Y-28125D01*
X32775Y-28125D01*
X32775Y-28600D01*
X32775Y-29199D01*
X32774Y-29200D01*
X32789Y-29271D01*
X32792Y-29286D01*
X32840Y-29359D01*
X33040Y-29559D01*
X33040Y-29559D01*
X33113Y-29607D01*
X33200Y-29625D01*
X33800Y-29625D01*
X34299Y-29625D01*
X34300Y-29625D01*
X34300Y-29625D01*
X34371Y-29610D01*
X34386Y-29607D01*
X34386Y-29607D01*
X34459Y-29559D01*
X34643Y-29375D01*
X35000Y-29375D01*
X35000Y-29625D01*
X34970Y-29654D01*
X34925Y-29765D01*
X34924Y-29884D01*
X34970Y-29994D01*
X35000Y-30024D01*
X35000Y-30181D01*
X34900Y-30281D01*
X34900Y-29840D01*
X34854Y-29730D01*
X34770Y-29645D01*
X34659Y-29600D01*
X34540Y-29599D01*
X34430Y-29645D01*
X34359Y-29715D01*
X31126Y-29715D01*
X30884Y-29473D01*
X30884Y-29290D01*
X30954Y-29220D01*
X30999Y-29109D01*
X31000Y-28990D01*
X30954Y-28880D01*
X30870Y-28795D01*
X30759Y-28750D01*
X30640Y-28749D01*
X30530Y-28795D01*
X30445Y-28879D01*
X30400Y-28990D01*
X30399Y-29109D01*
X30445Y-29219D01*
X30515Y-29290D01*
X30515Y-29550D01*
X30529Y-29620D01*
X30569Y-29680D01*
X30919Y-30030D01*
X30919Y-30030D01*
X30979Y-30070D01*
X31049Y-30084D01*
X31050Y-30084D01*
X34359Y-30084D01*
X34429Y-30154D01*
X34540Y-30199D01*
X34659Y-30200D01*
X34769Y-30154D01*
X34854Y-30070D01*
X34899Y-29959D01*
X34900Y-29840D01*
X34900Y-30281D01*
X34806Y-30375D01*
X34500Y-30375D01*
X33450Y-30375D01*
X33449Y-30375D01*
X33363Y-30392D01*
X33290Y-30440D01*
X33290Y-30440D01*
X32990Y-30740D01*
X32942Y-30813D01*
X32939Y-30828D01*
X32924Y-30900D01*
X32925Y-30900D01*
X32925Y-34333D01*
X32909Y-34339D01*
X32789Y-34458D01*
X32725Y-34615D01*
X32724Y-34784D01*
X32789Y-34940D01*
X32908Y-35060D01*
X32925Y-35066D01*
X32925Y-35274D01*
X32825Y-35274D01*
X32779Y-35293D01*
X32744Y-35329D01*
X32725Y-35375D01*
X32724Y-35424D01*
X32724Y-35475D01*
X28343Y-35475D01*
X27650Y-34781D01*
X27650Y-34740D01*
X27604Y-34630D01*
X27520Y-34545D01*
X27409Y-34500D01*
X27290Y-34499D01*
X27180Y-34545D01*
X27095Y-34629D01*
X27050Y-34740D01*
X27049Y-34859D01*
X27095Y-34969D01*
X27179Y-35054D01*
X27290Y-35099D01*
X27331Y-35099D01*
X28090Y-35859D01*
X28090Y-35859D01*
X28163Y-35907D01*
X28163Y-35907D01*
X28178Y-35910D01*
X28250Y-35925D01*
X28250Y-35925D01*
X28250Y-35925D01*
X32724Y-35925D01*
X32724Y-36024D01*
X32743Y-36070D01*
X32779Y-36105D01*
X32825Y-36124D01*
X32874Y-36125D01*
X32925Y-36125D01*
X32925Y-42649D01*
X32924Y-42650D01*
X32939Y-42721D01*
X32942Y-42736D01*
X32990Y-42809D01*
X33940Y-43759D01*
X33940Y-43759D01*
X34013Y-43807D01*
X34013Y-43807D01*
X34100Y-43825D01*
X40399Y-43825D01*
X40400Y-43825D01*
X40400Y-43825D01*
X40471Y-43810D01*
X40486Y-43807D01*
X40486Y-43807D01*
X40559Y-43759D01*
X41134Y-43184D01*
X41134Y-43184D01*
X41134Y-43184D01*
X41182Y-43111D01*
X41200Y-43025D01*
X41199Y-43025D01*
X41200Y-43025D01*
X41200Y-42916D01*
X41215Y-42910D01*
X41335Y-42791D01*
X41399Y-42634D01*
X41400Y-42465D01*
X41400Y-44288D01*
X23350Y-44288D01*
X23350Y-22140D01*
X23304Y-22030D01*
X23220Y-21945D01*
X23109Y-21900D01*
X22990Y-21899D01*
X22880Y-21945D01*
X22809Y-22015D01*
X19707Y-22015D01*
X19707Y-16704D01*
X19707Y-16004D01*
X19688Y-15958D01*
X19652Y-15923D01*
X19606Y-15904D01*
X19557Y-15903D01*
X18857Y-15903D01*
X18831Y-15914D01*
X18831Y-12304D01*
X18675Y-12148D01*
X18639Y-12206D01*
X18638Y-12395D01*
X18639Y-12401D01*
X18675Y-12459D01*
X18831Y-12304D01*
X18831Y-15914D01*
X18811Y-15922D01*
X18776Y-15958D01*
X18757Y-16004D01*
X18756Y-16053D01*
X18756Y-16236D01*
X18693Y-16082D01*
X18545Y-15934D01*
X18352Y-15854D01*
X18144Y-15853D01*
X17951Y-15933D01*
X17803Y-16081D01*
X17755Y-16194D01*
X17709Y-16082D01*
X17561Y-15934D01*
X17368Y-15854D01*
X17160Y-15853D01*
X16967Y-15933D01*
X16819Y-16081D01*
X16751Y-16243D01*
X16685Y-16082D01*
X16537Y-15934D01*
X16361Y-15861D01*
X16361Y-12212D01*
X16360Y-12206D01*
X16324Y-12148D01*
X16168Y-12304D01*
X16324Y-12459D01*
X16360Y-12401D01*
X16361Y-12212D01*
X16361Y-15861D01*
X16344Y-15854D01*
X16136Y-15853D01*
X16089Y-15873D01*
X16089Y-13732D01*
X16041Y-13617D01*
X16041Y-12742D01*
X16041Y-11865D01*
X15983Y-11829D01*
X15794Y-11828D01*
X15788Y-11829D01*
X15730Y-11865D01*
X15886Y-12021D01*
X16041Y-11865D01*
X16041Y-12742D01*
X15886Y-12586D01*
X15730Y-12742D01*
X15788Y-12778D01*
X15977Y-12779D01*
X15983Y-12778D01*
X16041Y-12742D01*
X16041Y-13617D01*
X15963Y-13426D01*
X15728Y-13191D01*
X15603Y-13139D01*
X15603Y-12304D01*
X15447Y-12148D01*
X15411Y-12206D01*
X15410Y-12395D01*
X15411Y-12401D01*
X15447Y-12459D01*
X15603Y-12304D01*
X15603Y-13139D01*
X15422Y-13064D01*
X15407Y-13064D01*
X15407Y-12200D01*
X15327Y-12007D01*
X15179Y-11859D01*
X14986Y-11779D01*
X14778Y-11778D01*
X14585Y-11858D01*
X14437Y-12006D01*
X14357Y-12199D01*
X14356Y-12407D01*
X14436Y-12601D01*
X14584Y-12748D01*
X14777Y-12828D01*
X14985Y-12829D01*
X15179Y-12749D01*
X15326Y-12601D01*
X15406Y-12408D01*
X15407Y-12200D01*
X15407Y-13064D01*
X15090Y-13064D01*
X14784Y-13190D01*
X14549Y-13425D01*
X14422Y-13731D01*
X14422Y-14063D01*
X14548Y-14369D01*
X14783Y-14604D01*
X15089Y-14731D01*
X15421Y-14731D01*
X15727Y-14605D01*
X15962Y-14370D01*
X16089Y-14064D01*
X16089Y-13732D01*
X16089Y-15873D01*
X15943Y-15933D01*
X15795Y-16081D01*
X15715Y-16274D01*
X15714Y-16482D01*
X15794Y-16676D01*
X15942Y-16823D01*
X16135Y-16903D01*
X16343Y-16904D01*
X16537Y-16824D01*
X16684Y-16676D01*
X16752Y-16514D01*
X16818Y-16676D01*
X16966Y-16823D01*
X17159Y-16903D01*
X17367Y-16904D01*
X17561Y-16824D01*
X17708Y-16676D01*
X17756Y-16563D01*
X17802Y-16676D01*
X17950Y-16823D01*
X18143Y-16903D01*
X18351Y-16904D01*
X18545Y-16824D01*
X18692Y-16676D01*
X18756Y-16522D01*
X18756Y-16753D01*
X18775Y-16799D01*
X18811Y-16834D01*
X18857Y-16853D01*
X18906Y-16854D01*
X19606Y-16854D01*
X19652Y-16835D01*
X19687Y-16799D01*
X19706Y-16753D01*
X19707Y-16704D01*
X19707Y-22015D01*
X18376Y-22015D01*
X16936Y-20575D01*
X16936Y-17875D01*
X17049Y-17828D01*
X17196Y-17680D01*
X17244Y-17567D01*
X17290Y-17680D01*
X17438Y-17827D01*
X17631Y-17907D01*
X17839Y-17908D01*
X18033Y-17828D01*
X18180Y-17680D01*
X18248Y-17518D01*
X18314Y-17680D01*
X18462Y-17827D01*
X18655Y-17907D01*
X18863Y-17908D01*
X19057Y-17828D01*
X19204Y-17680D01*
X19284Y-17487D01*
X19285Y-17279D01*
X19205Y-17086D01*
X19057Y-16938D01*
X18864Y-16858D01*
X18656Y-16857D01*
X18463Y-16937D01*
X18315Y-17085D01*
X18247Y-17247D01*
X18181Y-17086D01*
X18033Y-16938D01*
X17840Y-16858D01*
X17632Y-16857D01*
X17439Y-16937D01*
X17291Y-17085D01*
X17243Y-17198D01*
X17197Y-17086D01*
X17049Y-16938D01*
X16856Y-16858D01*
X16648Y-16857D01*
X16455Y-16937D01*
X16307Y-17085D01*
X16259Y-17198D01*
X16213Y-17086D01*
X16065Y-16938D01*
X15872Y-16858D01*
X15664Y-16857D01*
X15471Y-16937D01*
X15323Y-17085D01*
X15243Y-17278D01*
X15242Y-17486D01*
X15322Y-17680D01*
X15470Y-17827D01*
X15663Y-17907D01*
X15871Y-17908D01*
X16065Y-17828D01*
X16212Y-17680D01*
X16260Y-17567D01*
X16306Y-17680D01*
X16454Y-17827D01*
X16567Y-17875D01*
X16567Y-20652D01*
X16581Y-20722D01*
X16621Y-20782D01*
X18169Y-22330D01*
X18169Y-22330D01*
X18229Y-22370D01*
X18300Y-22384D01*
X22809Y-22384D01*
X22879Y-22454D01*
X22990Y-22499D01*
X23109Y-22500D01*
X23219Y-22454D01*
X23304Y-22370D01*
X23349Y-22259D01*
X23350Y-22140D01*
X23350Y-44288D01*
X22800Y-44288D01*
X22800Y-42240D01*
X22754Y-42130D01*
X22670Y-42045D01*
X22559Y-42000D01*
X22440Y-41999D01*
X22366Y-42030D01*
X21248Y-40913D01*
X21249Y-40909D01*
X21250Y-40790D01*
X21204Y-40680D01*
X21120Y-40595D01*
X21009Y-40550D01*
X20890Y-40549D01*
X20780Y-40595D01*
X20695Y-40679D01*
X20650Y-40790D01*
X20649Y-40909D01*
X20695Y-41019D01*
X20779Y-41104D01*
X20890Y-41149D01*
X20964Y-41150D01*
X22218Y-42403D01*
X22245Y-42469D01*
X22329Y-42554D01*
X22440Y-42599D01*
X22559Y-42600D01*
X22669Y-42554D01*
X22754Y-42470D01*
X22799Y-42359D01*
X22800Y-42240D01*
X22800Y-44288D01*
X17036Y-44288D01*
X17036Y-42431D01*
X17036Y-41820D01*
X17029Y-41613D01*
X16943Y-41425D01*
X16772Y-41349D01*
X16708Y-41334D01*
X16708Y-41900D01*
X16998Y-41900D01*
X17036Y-41820D01*
X17036Y-42431D01*
X16998Y-42350D01*
X16708Y-42350D01*
X16708Y-42917D01*
X16772Y-42902D01*
X16943Y-42826D01*
X17029Y-42638D01*
X17036Y-42431D01*
X17036Y-44288D01*
X16318Y-44288D01*
X16318Y-42917D01*
X16318Y-42350D01*
X16318Y-41900D01*
X16318Y-41334D01*
X16255Y-41349D01*
X16132Y-41404D01*
X16132Y-37140D01*
X16128Y-37119D01*
X16096Y-37076D01*
X15968Y-37204D01*
X16096Y-37332D01*
X16128Y-37290D01*
X16132Y-37140D01*
X16132Y-41404D01*
X16084Y-41425D01*
X15998Y-41613D01*
X15990Y-41820D01*
X16029Y-41900D01*
X16318Y-41900D01*
X16318Y-42350D01*
X16029Y-42350D01*
X15990Y-42431D01*
X15998Y-42638D01*
X16084Y-42826D01*
X16255Y-42902D01*
X16318Y-42917D01*
X16318Y-44288D01*
X15884Y-44288D01*
X15884Y-37544D01*
X15884Y-36864D01*
X15841Y-36832D01*
X15692Y-36827D01*
X15670Y-36832D01*
X15627Y-36864D01*
X15755Y-36992D01*
X15884Y-36864D01*
X15884Y-37544D01*
X15755Y-37416D01*
X15627Y-37544D01*
X15670Y-37577D01*
X15819Y-37581D01*
X15841Y-37577D01*
X15884Y-37544D01*
X15884Y-44288D01*
X15543Y-44288D01*
X15543Y-37204D01*
X15415Y-37076D01*
X15383Y-37119D01*
X15378Y-37268D01*
X15383Y-37290D01*
X15415Y-37332D01*
X15543Y-37204D01*
X15543Y-44288D01*
X15513Y-44288D01*
X15513Y-42533D01*
X15513Y-41718D01*
X15473Y-41521D01*
X15362Y-41354D01*
X15195Y-41242D01*
X15180Y-41239D01*
X15180Y-37479D01*
X15180Y-36879D01*
X15161Y-36834D01*
X15126Y-36798D01*
X15080Y-36779D01*
X15031Y-36779D01*
X15027Y-36779D01*
X15027Y-14967D01*
X15019Y-14923D01*
X14976Y-14850D01*
X14767Y-15060D01*
X14976Y-15269D01*
X15019Y-15196D01*
X15027Y-14967D01*
X15027Y-36779D01*
X14658Y-36779D01*
X14658Y-15587D01*
X14658Y-14532D01*
X14585Y-14489D01*
X14356Y-14481D01*
X14312Y-14489D01*
X14239Y-14532D01*
X14449Y-14741D01*
X14658Y-14532D01*
X14658Y-15587D01*
X14449Y-15378D01*
X14239Y-15587D01*
X14312Y-15630D01*
X14541Y-15638D01*
X14585Y-15630D01*
X14658Y-15587D01*
X14658Y-36779D01*
X14431Y-36779D01*
X14385Y-36798D01*
X14349Y-36833D01*
X14330Y-36879D01*
X14330Y-36929D01*
X14330Y-37529D01*
X14349Y-37575D01*
X14385Y-37610D01*
X14430Y-37629D01*
X14480Y-37629D01*
X15080Y-37629D01*
X15126Y-37610D01*
X15161Y-37575D01*
X15180Y-37529D01*
X15180Y-37479D01*
X15180Y-41239D01*
X14998Y-41203D01*
X14800Y-41242D01*
X14633Y-41354D01*
X14522Y-41521D01*
X14483Y-41718D01*
X14483Y-42533D01*
X14522Y-42730D01*
X14633Y-42897D01*
X14800Y-43009D01*
X14998Y-43048D01*
X15195Y-43009D01*
X15362Y-42897D01*
X15473Y-42730D01*
X15513Y-42533D01*
X15513Y-44288D01*
X14130Y-44288D01*
X14130Y-15060D01*
X13921Y-14850D01*
X13878Y-14923D01*
X13870Y-15152D01*
X13878Y-15196D01*
X13921Y-15269D01*
X14130Y-15060D01*
X14130Y-44288D01*
X13192Y-44288D01*
X13192Y-10829D01*
X52162Y-10829D01*
X52162Y-44288D01*
X52162Y-44288D01*
G37*
G54D30*
X52162Y-44288D02*
X51969Y-44288D01*
X51969Y-42610D01*
X51967Y-42603D01*
X51932Y-42545D01*
X51778Y-42700D01*
X51932Y-42854D01*
X51967Y-42796D01*
X51969Y-42610D01*
X51969Y-44288D01*
X51681Y-44288D01*
X51681Y-40532D01*
X51553Y-40222D01*
X51384Y-40053D01*
X51384Y-33010D01*
X51384Y-30950D01*
X51384Y-27325D01*
X51384Y-27324D01*
X51370Y-27254D01*
X51330Y-27194D01*
X51330Y-27194D01*
X51030Y-26894D01*
X50970Y-26854D01*
X50900Y-26840D01*
X50641Y-26840D01*
X50641Y-13219D01*
X50641Y-12607D01*
X50633Y-12401D01*
X50547Y-12213D01*
X50376Y-12136D01*
X50313Y-12121D01*
X50313Y-12688D01*
X50602Y-12688D01*
X50641Y-12607D01*
X50641Y-13219D01*
X50602Y-13138D01*
X50313Y-13138D01*
X50313Y-13704D01*
X50376Y-13689D01*
X50547Y-13613D01*
X50633Y-13425D01*
X50641Y-13219D01*
X50641Y-26840D01*
X50400Y-26840D01*
X50394Y-26840D01*
X50360Y-26759D01*
X50241Y-26639D01*
X50084Y-26575D01*
X49915Y-26574D01*
X49759Y-26639D01*
X49639Y-26758D01*
X49619Y-26808D01*
X48994Y-26184D01*
X49616Y-26184D01*
X49639Y-26240D01*
X49758Y-26360D01*
X49915Y-26424D01*
X50084Y-26425D01*
X50240Y-26360D01*
X50360Y-26241D01*
X50424Y-26084D01*
X50425Y-25915D01*
X50425Y-24915D01*
X50375Y-24794D01*
X50375Y-24314D01*
X50375Y-23685D01*
X50363Y-23657D01*
X50342Y-23636D01*
X50314Y-23625D01*
X50285Y-23624D01*
X50168Y-23625D01*
X50150Y-23643D01*
X50150Y-23850D01*
X50356Y-23850D01*
X50375Y-23831D01*
X50375Y-23685D01*
X50375Y-24314D01*
X50375Y-24168D01*
X50356Y-24150D01*
X50150Y-24150D01*
X50150Y-24356D01*
X50168Y-24375D01*
X50285Y-24375D01*
X50314Y-24374D01*
X50342Y-24363D01*
X50363Y-24342D01*
X50375Y-24314D01*
X50375Y-24794D01*
X50360Y-24759D01*
X50241Y-24639D01*
X50084Y-24575D01*
X49923Y-24574D01*
X49923Y-13704D01*
X49923Y-13138D01*
X49923Y-12688D01*
X49923Y-12121D01*
X49859Y-12136D01*
X49688Y-12213D01*
X49602Y-12401D01*
X49595Y-12607D01*
X49633Y-12688D01*
X49923Y-12688D01*
X49923Y-13138D01*
X49633Y-13138D01*
X49595Y-13219D01*
X49602Y-13425D01*
X49688Y-13613D01*
X49859Y-13689D01*
X49923Y-13704D01*
X49923Y-24574D01*
X49915Y-24574D01*
X49850Y-24602D01*
X49850Y-24356D01*
X49850Y-24150D01*
X49850Y-23850D01*
X49850Y-23643D01*
X49831Y-23625D01*
X49714Y-23624D01*
X49685Y-23625D01*
X49657Y-23636D01*
X49636Y-23657D01*
X49624Y-23685D01*
X49625Y-23831D01*
X49643Y-23850D01*
X49850Y-23850D01*
X49850Y-24150D01*
X49643Y-24150D01*
X49625Y-24168D01*
X49624Y-24314D01*
X49636Y-24342D01*
X49657Y-24363D01*
X49685Y-24374D01*
X49714Y-24375D01*
X49831Y-24375D01*
X49850Y-24356D01*
X49850Y-24602D01*
X49759Y-24639D01*
X49639Y-24758D01*
X49633Y-24775D01*
X49412Y-24775D01*
X49412Y-18472D01*
X49406Y-18444D01*
X49375Y-18407D01*
X49326Y-18592D01*
X49375Y-18642D01*
X49406Y-18605D01*
X49412Y-18472D01*
X49412Y-24775D01*
X49343Y-24775D01*
X49192Y-24623D01*
X49192Y-18825D01*
X49192Y-18224D01*
X49155Y-18193D01*
X49117Y-18191D01*
X49117Y-13321D01*
X49117Y-12505D01*
X49078Y-12308D01*
X48966Y-12141D01*
X48799Y-12029D01*
X48602Y-11990D01*
X48405Y-12029D01*
X48238Y-12141D01*
X48126Y-12308D01*
X48087Y-12505D01*
X48087Y-13321D01*
X48126Y-13518D01*
X48238Y-13685D01*
X48405Y-13796D01*
X48602Y-13836D01*
X48799Y-13796D01*
X48966Y-13685D01*
X49078Y-13518D01*
X49117Y-13321D01*
X49117Y-18191D01*
X49022Y-18187D01*
X48994Y-18193D01*
X48957Y-18224D01*
X49142Y-18273D01*
X49192Y-18224D01*
X49192Y-18825D01*
X49007Y-18776D01*
X48957Y-18825D01*
X48994Y-18856D01*
X49127Y-18862D01*
X49155Y-18856D01*
X49192Y-18825D01*
X49192Y-24623D01*
X48823Y-24255D01*
X48823Y-18457D01*
X48774Y-18407D01*
X48743Y-18444D01*
X48737Y-18577D01*
X48743Y-18605D01*
X48774Y-18642D01*
X48823Y-18457D01*
X48823Y-24255D01*
X48460Y-23891D01*
X48460Y-18448D01*
X48401Y-18307D01*
X48293Y-18198D01*
X48151Y-18140D01*
X47998Y-18139D01*
X47857Y-18198D01*
X47748Y-18306D01*
X47690Y-18448D01*
X47689Y-18601D01*
X47748Y-18742D01*
X47856Y-18851D01*
X47998Y-18909D01*
X48151Y-18910D01*
X48292Y-18851D01*
X48401Y-18743D01*
X48459Y-18601D01*
X48460Y-18448D01*
X48460Y-23891D01*
X47601Y-23033D01*
X47601Y-13321D01*
X47601Y-12505D01*
X47562Y-12308D01*
X47450Y-12141D01*
X47283Y-12029D01*
X47086Y-11990D01*
X46889Y-12029D01*
X46722Y-12141D01*
X46610Y-12308D01*
X46571Y-12505D01*
X46571Y-13321D01*
X46610Y-13518D01*
X46722Y-13685D01*
X46889Y-13796D01*
X47086Y-13836D01*
X47283Y-13796D01*
X47450Y-13685D01*
X47562Y-13518D01*
X47601Y-13321D01*
X47601Y-23033D01*
X47300Y-22731D01*
X47300Y-18844D01*
X47401Y-18743D01*
X47459Y-18601D01*
X47460Y-18448D01*
X47401Y-18307D01*
X47293Y-18198D01*
X47151Y-18140D01*
X46998Y-18139D01*
X46857Y-18198D01*
X46748Y-18306D01*
X46690Y-18448D01*
X46689Y-18601D01*
X46748Y-18742D01*
X46850Y-18844D01*
X46850Y-22824D01*
X46849Y-22825D01*
X46864Y-22896D01*
X46867Y-22911D01*
X46915Y-22984D01*
X49090Y-25159D01*
X49090Y-25159D01*
X49163Y-25207D01*
X49249Y-25225D01*
X49249Y-25224D01*
X49250Y-25225D01*
X49633Y-25225D01*
X49639Y-25240D01*
X49758Y-25360D01*
X49915Y-25424D01*
X50084Y-25425D01*
X50240Y-25360D01*
X50360Y-25241D01*
X50424Y-25084D01*
X50425Y-24915D01*
X50425Y-25915D01*
X50360Y-25759D01*
X50241Y-25639D01*
X50084Y-25575D01*
X49915Y-25574D01*
X49759Y-25639D01*
X49639Y-25758D01*
X49616Y-25815D01*
X48976Y-25815D01*
X48130Y-24969D01*
X48070Y-24929D01*
X48000Y-24915D01*
X47950Y-24915D01*
X44519Y-24915D01*
X44519Y-13199D01*
X44519Y-12587D01*
X44511Y-12381D01*
X44425Y-12193D01*
X44254Y-12117D01*
X44191Y-12102D01*
X44191Y-12668D01*
X44480Y-12668D01*
X44519Y-12587D01*
X44519Y-13199D01*
X44480Y-13118D01*
X44191Y-13118D01*
X44191Y-13685D01*
X44254Y-13670D01*
X44425Y-13593D01*
X44511Y-13406D01*
X44519Y-13199D01*
X44519Y-24915D01*
X44425Y-24915D01*
X44425Y-19915D01*
X44360Y-19759D01*
X44241Y-19639D01*
X44084Y-19575D01*
X43915Y-19574D01*
X43858Y-19598D01*
X43801Y-19540D01*
X43801Y-13685D01*
X43801Y-13118D01*
X43801Y-12668D01*
X43801Y-12102D01*
X43737Y-12117D01*
X43566Y-12193D01*
X43480Y-12381D01*
X43473Y-12587D01*
X43511Y-12668D01*
X43801Y-12668D01*
X43801Y-13118D01*
X43511Y-13118D01*
X43473Y-13199D01*
X43480Y-13406D01*
X43566Y-13593D01*
X43737Y-13670D01*
X43801Y-13685D01*
X43801Y-19540D01*
X43176Y-18915D01*
X43176Y-13543D01*
X43162Y-13472D01*
X43122Y-13413D01*
X43122Y-13413D01*
X42995Y-13286D01*
X42995Y-12485D01*
X42956Y-12288D01*
X42844Y-12121D01*
X42677Y-12010D01*
X42480Y-11970D01*
X42283Y-12010D01*
X42116Y-12121D01*
X42004Y-12288D01*
X41965Y-12485D01*
X41965Y-13301D01*
X42004Y-13498D01*
X42116Y-13665D01*
X42283Y-13777D01*
X42480Y-13816D01*
X42677Y-13777D01*
X42808Y-13689D01*
X42808Y-18992D01*
X42822Y-19062D01*
X42861Y-19122D01*
X43598Y-19858D01*
X43575Y-19915D01*
X43574Y-20084D01*
X43639Y-20240D01*
X43758Y-20360D01*
X43915Y-20424D01*
X44084Y-20425D01*
X44240Y-20360D01*
X44360Y-20241D01*
X44424Y-20084D01*
X44425Y-19915D01*
X44425Y-24915D01*
X43726Y-24915D01*
X43726Y-23422D01*
X43723Y-23408D01*
X43689Y-23357D01*
X43547Y-23500D01*
X43689Y-23642D01*
X43723Y-23591D01*
X43726Y-23422D01*
X43726Y-24915D01*
X43442Y-24915D01*
X43442Y-23889D01*
X43442Y-23110D01*
X43425Y-23099D01*
X43425Y-19915D01*
X43360Y-19759D01*
X43241Y-19639D01*
X43084Y-19575D01*
X42915Y-19574D01*
X42759Y-19639D01*
X42639Y-19758D01*
X42575Y-19915D01*
X42574Y-20084D01*
X42639Y-20240D01*
X42758Y-20360D01*
X42915Y-20424D01*
X43084Y-20425D01*
X43240Y-20360D01*
X43360Y-20241D01*
X43424Y-20084D01*
X43425Y-19915D01*
X43425Y-23099D01*
X43391Y-23076D01*
X43222Y-23073D01*
X43208Y-23076D01*
X43157Y-23110D01*
X43300Y-23252D01*
X43442Y-23110D01*
X43442Y-23889D01*
X43300Y-23747D01*
X43157Y-23889D01*
X43208Y-23923D01*
X43377Y-23926D01*
X43391Y-23923D01*
X43442Y-23889D01*
X43442Y-24915D01*
X43052Y-24915D01*
X43052Y-23500D01*
X42910Y-23357D01*
X42876Y-23408D01*
X42873Y-23577D01*
X42876Y-23591D01*
X42910Y-23642D01*
X43052Y-23500D01*
X43052Y-24915D01*
X42425Y-24915D01*
X42425Y-19915D01*
X42360Y-19759D01*
X42241Y-19639D01*
X42084Y-19575D01*
X41915Y-19574D01*
X41858Y-19598D01*
X41680Y-19419D01*
X41680Y-13464D01*
X41666Y-13394D01*
X41626Y-13334D01*
X41626Y-13334D01*
X41479Y-13187D01*
X41479Y-12485D01*
X41440Y-12288D01*
X41328Y-12121D01*
X41161Y-12010D01*
X40964Y-11970D01*
X40767Y-12010D01*
X40600Y-12121D01*
X40488Y-12288D01*
X40449Y-12485D01*
X40449Y-13301D01*
X40488Y-13498D01*
X40600Y-13665D01*
X40767Y-13777D01*
X40964Y-13816D01*
X41161Y-13777D01*
X41312Y-13676D01*
X41312Y-19496D01*
X41326Y-19566D01*
X41365Y-19626D01*
X41598Y-19858D01*
X41575Y-19915D01*
X41574Y-20084D01*
X41639Y-20240D01*
X41758Y-20360D01*
X41915Y-20424D01*
X42084Y-20425D01*
X42240Y-20360D01*
X42360Y-20241D01*
X42424Y-20084D01*
X42425Y-19915D01*
X42425Y-24915D01*
X41775Y-24915D01*
X41775Y-23825D01*
X41775Y-23125D01*
X41756Y-23079D01*
X41720Y-23044D01*
X41674Y-23025D01*
X41625Y-23024D01*
X41425Y-23024D01*
X41425Y-19915D01*
X41360Y-19759D01*
X41241Y-19639D01*
X41084Y-19575D01*
X40915Y-19574D01*
X40759Y-19639D01*
X40639Y-19758D01*
X40575Y-19915D01*
X40574Y-20084D01*
X40639Y-20240D01*
X40758Y-20360D01*
X40915Y-20424D01*
X41084Y-20425D01*
X41240Y-20360D01*
X41360Y-20241D01*
X41424Y-20084D01*
X41425Y-19915D01*
X41425Y-23024D01*
X40925Y-23024D01*
X40879Y-23043D01*
X40844Y-23079D01*
X40825Y-23125D01*
X40824Y-23174D01*
X40824Y-23874D01*
X40843Y-23920D01*
X40879Y-23955D01*
X40925Y-23974D01*
X40974Y-23975D01*
X41674Y-23975D01*
X41720Y-23956D01*
X41755Y-23920D01*
X41774Y-23874D01*
X41775Y-23825D01*
X41775Y-24915D01*
X40425Y-24915D01*
X40425Y-20275D01*
X40425Y-19675D01*
X40406Y-19629D01*
X40370Y-19594D01*
X40324Y-19575D01*
X40275Y-19574D01*
X40050Y-19574D01*
X40050Y-17090D01*
X40004Y-16980D01*
X39920Y-16895D01*
X39809Y-16850D01*
X39690Y-16849D01*
X39580Y-16895D01*
X39509Y-16965D01*
X38933Y-16965D01*
X38910Y-16909D01*
X38791Y-16789D01*
X38734Y-16766D01*
X38734Y-14550D01*
X38720Y-14479D01*
X38720Y-14479D01*
X38680Y-14419D01*
X38416Y-14156D01*
X38416Y-13199D01*
X38416Y-12587D01*
X38409Y-12381D01*
X38323Y-12193D01*
X38152Y-12117D01*
X38088Y-12102D01*
X38088Y-12668D01*
X38378Y-12668D01*
X38416Y-12587D01*
X38416Y-13199D01*
X38378Y-13118D01*
X38088Y-13118D01*
X38088Y-13685D01*
X38152Y-13670D01*
X38323Y-13593D01*
X38409Y-13406D01*
X38416Y-13199D01*
X38416Y-14156D01*
X38302Y-14041D01*
X38242Y-14002D01*
X38172Y-13987D01*
X37698Y-13987D01*
X37698Y-13685D01*
X37698Y-13118D01*
X37698Y-12668D01*
X37698Y-12102D01*
X37635Y-12117D01*
X37464Y-12193D01*
X37378Y-12381D01*
X37370Y-12587D01*
X37409Y-12668D01*
X37698Y-12668D01*
X37698Y-13118D01*
X37409Y-13118D01*
X37370Y-13199D01*
X37378Y-13406D01*
X37464Y-13593D01*
X37635Y-13670D01*
X37698Y-13685D01*
X37698Y-13987D01*
X36562Y-13987D01*
X36562Y-13779D01*
X36575Y-13777D01*
X36742Y-13665D01*
X36853Y-13498D01*
X36892Y-13301D01*
X36892Y-12485D01*
X36853Y-12288D01*
X36742Y-12121D01*
X36575Y-12010D01*
X36377Y-11970D01*
X36180Y-12010D01*
X36013Y-12121D01*
X35902Y-12288D01*
X35862Y-12485D01*
X35862Y-13301D01*
X35902Y-13498D01*
X36013Y-13665D01*
X36180Y-13777D01*
X36193Y-13779D01*
X36193Y-13987D01*
X35377Y-13987D01*
X35377Y-13301D01*
X35377Y-12485D01*
X35338Y-12288D01*
X35226Y-12121D01*
X35059Y-12010D01*
X34862Y-11970D01*
X34665Y-12010D01*
X34498Y-12121D01*
X34386Y-12288D01*
X34347Y-12485D01*
X34347Y-13301D01*
X34386Y-13498D01*
X34498Y-13665D01*
X34665Y-13777D01*
X34862Y-13816D01*
X35059Y-13777D01*
X35226Y-13665D01*
X35338Y-13498D01*
X35377Y-13301D01*
X35377Y-13987D01*
X34977Y-13987D01*
X34907Y-14002D01*
X34877Y-14021D01*
X34847Y-14041D01*
X34419Y-14469D01*
X34379Y-14529D01*
X34365Y-14600D01*
X34365Y-16824D01*
X34225Y-16824D01*
X34179Y-16843D01*
X34144Y-16879D01*
X34125Y-16925D01*
X34124Y-16974D01*
X34124Y-17574D01*
X34143Y-17620D01*
X34179Y-17655D01*
X34225Y-17674D01*
X34274Y-17675D01*
X34874Y-17675D01*
X34920Y-17656D01*
X34955Y-17620D01*
X34974Y-17574D01*
X34975Y-17525D01*
X34975Y-16925D01*
X34956Y-16879D01*
X34920Y-16844D01*
X34874Y-16825D01*
X34825Y-16824D01*
X34734Y-16824D01*
X34734Y-14676D01*
X35054Y-14356D01*
X36377Y-14356D01*
X38095Y-14356D01*
X38365Y-14626D01*
X38365Y-16766D01*
X38309Y-16789D01*
X38189Y-16908D01*
X38125Y-17065D01*
X38124Y-17234D01*
X38189Y-17390D01*
X38308Y-17510D01*
X38465Y-17574D01*
X38634Y-17575D01*
X38790Y-17510D01*
X38910Y-17391D01*
X38933Y-17334D01*
X39509Y-17334D01*
X39579Y-17404D01*
X39690Y-17449D01*
X39809Y-17450D01*
X39919Y-17404D01*
X40004Y-17320D01*
X40049Y-17209D01*
X40050Y-17090D01*
X40050Y-19574D01*
X39675Y-19574D01*
X39629Y-19593D01*
X39594Y-19629D01*
X39575Y-19675D01*
X39574Y-19724D01*
X39574Y-20324D01*
X39593Y-20370D01*
X39629Y-20405D01*
X39675Y-20424D01*
X39724Y-20425D01*
X40324Y-20425D01*
X40370Y-20406D01*
X40405Y-20370D01*
X40424Y-20324D01*
X40425Y-20275D01*
X40425Y-24915D01*
X36350Y-24915D01*
X36279Y-24929D01*
X36219Y-24969D01*
X35626Y-25562D01*
X35586Y-25622D01*
X35572Y-25693D01*
X35572Y-26450D01*
X35572Y-26500D01*
X35572Y-27050D01*
X35572Y-29406D01*
X35586Y-29477D01*
X35626Y-29537D01*
X36018Y-29929D01*
X36018Y-29980D01*
X36064Y-30090D01*
X36148Y-30175D01*
X36258Y-30221D01*
X36378Y-30221D01*
X36488Y-30175D01*
X36573Y-30091D01*
X36618Y-29981D01*
X36618Y-29861D01*
X36573Y-29751D01*
X36489Y-29667D01*
X36378Y-29621D01*
X36329Y-29621D01*
X36369Y-29604D01*
X36454Y-29520D01*
X36499Y-29409D01*
X36500Y-29290D01*
X36454Y-29180D01*
X36370Y-29095D01*
X36259Y-29050D01*
X36160Y-29049D01*
X36159Y-29048D01*
X36159Y-26950D01*
X36159Y-26800D01*
X36159Y-25859D01*
X36484Y-25534D01*
X37505Y-25534D01*
X37489Y-25550D01*
X37390Y-25549D01*
X37280Y-25595D01*
X37195Y-25679D01*
X37150Y-25790D01*
X37149Y-25909D01*
X37195Y-26019D01*
X37279Y-26104D01*
X37390Y-26149D01*
X37439Y-26149D01*
X36539Y-27050D01*
X36440Y-27049D01*
X36330Y-27095D01*
X36245Y-27179D01*
X36200Y-27290D01*
X36199Y-27409D01*
X36245Y-27519D01*
X36329Y-27604D01*
X36440Y-27649D01*
X36559Y-27650D01*
X36669Y-27604D01*
X36754Y-27520D01*
X36799Y-27409D01*
X36800Y-27310D01*
X38076Y-26034D01*
X44000Y-26034D01*
X44223Y-26034D01*
X44515Y-26326D01*
X44515Y-35409D01*
X44495Y-35429D01*
X44450Y-35540D01*
X44449Y-35659D01*
X44495Y-35769D01*
X44579Y-35854D01*
X44690Y-35899D01*
X44809Y-35900D01*
X44919Y-35854D01*
X45004Y-35770D01*
X45049Y-35659D01*
X45050Y-35540D01*
X45004Y-35430D01*
X44920Y-35345D01*
X44884Y-35330D01*
X44884Y-26250D01*
X44884Y-26249D01*
X44870Y-26179D01*
X44830Y-26119D01*
X44830Y-26119D01*
X44494Y-25784D01*
X47723Y-25784D01*
X49669Y-27729D01*
X49639Y-27758D01*
X49575Y-27915D01*
X49574Y-28084D01*
X49639Y-28240D01*
X49758Y-28360D01*
X49915Y-28424D01*
X50084Y-28425D01*
X50240Y-28360D01*
X50360Y-28241D01*
X50424Y-28084D01*
X50425Y-27915D01*
X50360Y-27759D01*
X50241Y-27639D01*
X50084Y-27575D01*
X50035Y-27575D01*
X49864Y-27403D01*
X49915Y-27424D01*
X50084Y-27425D01*
X50240Y-27360D01*
X50360Y-27241D01*
X50373Y-27209D01*
X50400Y-27209D01*
X50823Y-27209D01*
X51015Y-27401D01*
X51015Y-30950D01*
X51015Y-32933D01*
X49913Y-34035D01*
X49665Y-34035D01*
X49760Y-33941D01*
X49824Y-33784D01*
X49825Y-33615D01*
X49760Y-33459D01*
X49641Y-33339D01*
X49584Y-33316D01*
X49584Y-33120D01*
X49570Y-33049D01*
X49530Y-32989D01*
X49530Y-32989D01*
X48970Y-32429D01*
X48910Y-32389D01*
X48840Y-32375D01*
X48325Y-32375D01*
X48325Y-32285D01*
X48306Y-32239D01*
X48270Y-32204D01*
X48224Y-32185D01*
X48175Y-32184D01*
X47795Y-32184D01*
X47759Y-32199D01*
X47724Y-32185D01*
X47675Y-32184D01*
X47295Y-32184D01*
X47249Y-32203D01*
X47214Y-32239D01*
X47195Y-32285D01*
X47194Y-32334D01*
X47194Y-32375D01*
X45766Y-32375D01*
X45699Y-32309D01*
X45700Y-32210D01*
X45654Y-32100D01*
X45570Y-32015D01*
X45459Y-31970D01*
X45340Y-31969D01*
X45230Y-32015D01*
X45145Y-32099D01*
X45100Y-32210D01*
X45099Y-32329D01*
X45145Y-32439D01*
X45229Y-32524D01*
X45340Y-32569D01*
X45439Y-32570D01*
X45559Y-32690D01*
X45559Y-32690D01*
X45619Y-32730D01*
X45689Y-32744D01*
X45690Y-32744D01*
X47194Y-32744D01*
X47194Y-32834D01*
X47213Y-32880D01*
X47249Y-32915D01*
X47295Y-32934D01*
X47344Y-32935D01*
X47724Y-32935D01*
X47760Y-32920D01*
X47795Y-32934D01*
X47844Y-32935D01*
X48224Y-32935D01*
X48270Y-32916D01*
X48305Y-32880D01*
X48324Y-32834D01*
X48325Y-32785D01*
X48325Y-32744D01*
X48763Y-32744D01*
X49215Y-33196D01*
X49215Y-33316D01*
X49159Y-33339D01*
X49039Y-33458D01*
X48975Y-33615D01*
X48974Y-33784D01*
X49039Y-33940D01*
X49134Y-34035D01*
X48880Y-34035D01*
X48825Y-34046D01*
X48825Y-33615D01*
X48760Y-33459D01*
X48641Y-33339D01*
X48484Y-33275D01*
X48315Y-33274D01*
X48159Y-33339D01*
X48039Y-33458D01*
X47975Y-33615D01*
X47974Y-33784D01*
X48039Y-33940D01*
X48158Y-34060D01*
X48315Y-34124D01*
X48484Y-34125D01*
X48640Y-34060D01*
X48760Y-33941D01*
X48824Y-33784D01*
X48825Y-33615D01*
X48825Y-34046D01*
X48809Y-34049D01*
X48749Y-34089D01*
X48541Y-34298D01*
X48484Y-34275D01*
X48315Y-34274D01*
X48159Y-34339D01*
X48039Y-34458D01*
X47975Y-34615D01*
X47974Y-34784D01*
X48039Y-34940D01*
X48158Y-35060D01*
X48315Y-35124D01*
X48484Y-35125D01*
X48640Y-35060D01*
X48760Y-34941D01*
X48824Y-34784D01*
X48825Y-34615D01*
X48801Y-34558D01*
X48956Y-34404D01*
X49094Y-34404D01*
X49039Y-34458D01*
X48975Y-34615D01*
X48974Y-34784D01*
X49039Y-34940D01*
X49158Y-35060D01*
X49315Y-35124D01*
X49484Y-35125D01*
X49640Y-35060D01*
X49760Y-34941D01*
X49824Y-34784D01*
X49825Y-34615D01*
X49760Y-34459D01*
X49705Y-34404D01*
X49990Y-34404D01*
X49990Y-34404D01*
X50060Y-34390D01*
X50060Y-34390D01*
X50120Y-34350D01*
X51330Y-33140D01*
X51330Y-33140D01*
X51370Y-33080D01*
X51384Y-33010D01*
X51384Y-33010D01*
X51384Y-40053D01*
X51316Y-39985D01*
X51006Y-39856D01*
X50670Y-39856D01*
X50670Y-39856D01*
X50670Y-37116D01*
X50606Y-36962D01*
X50488Y-36843D01*
X50334Y-36779D01*
X50166Y-36779D01*
X50012Y-36843D01*
X49893Y-36961D01*
X49829Y-37115D01*
X49829Y-37283D01*
X49893Y-37437D01*
X50011Y-37556D01*
X50025Y-37561D01*
X50025Y-37731D01*
X49935Y-37821D01*
X49834Y-37779D01*
X49666Y-37779D01*
X49622Y-37797D01*
X49622Y-37137D01*
X49618Y-37115D01*
X49585Y-37073D01*
X49458Y-37200D01*
X49585Y-37326D01*
X49618Y-37284D01*
X49622Y-37137D01*
X49622Y-37797D01*
X49512Y-37843D01*
X49393Y-37961D01*
X49376Y-38002D01*
X49376Y-37535D01*
X49376Y-36864D01*
X49334Y-36831D01*
X49187Y-36827D01*
X49165Y-36831D01*
X49123Y-36864D01*
X49250Y-36991D01*
X49376Y-36864D01*
X49376Y-37535D01*
X49250Y-37408D01*
X49123Y-37535D01*
X49165Y-37568D01*
X49312Y-37572D01*
X49334Y-37568D01*
X49376Y-37535D01*
X49376Y-38002D01*
X49329Y-38115D01*
X49329Y-38283D01*
X49393Y-38437D01*
X49511Y-38556D01*
X49665Y-38620D01*
X49833Y-38620D01*
X49987Y-38556D01*
X50106Y-38438D01*
X50170Y-38284D01*
X50170Y-38222D01*
X50409Y-37984D01*
X50409Y-37984D01*
X50409Y-37984D01*
X50457Y-37911D01*
X50457Y-37911D01*
X50475Y-37825D01*
X50475Y-37562D01*
X50487Y-37556D01*
X50606Y-37438D01*
X50670Y-37284D01*
X50670Y-37116D01*
X50670Y-39856D01*
X50360Y-39984D01*
X50123Y-40221D01*
X49994Y-40531D01*
X49994Y-40867D01*
X50122Y-41177D01*
X50359Y-41414D01*
X50669Y-41543D01*
X51005Y-41543D01*
X51315Y-41415D01*
X51552Y-41178D01*
X51681Y-40868D01*
X51681Y-40532D01*
X51681Y-44288D01*
X51654Y-44288D01*
X51654Y-43132D01*
X51654Y-42267D01*
X51596Y-42232D01*
X51410Y-42230D01*
X51403Y-42232D01*
X51345Y-42267D01*
X51500Y-42421D01*
X51654Y-42267D01*
X51654Y-43132D01*
X51500Y-42978D01*
X51345Y-43132D01*
X51403Y-43167D01*
X51589Y-43169D01*
X51596Y-43167D01*
X51654Y-43132D01*
X51654Y-44288D01*
X51221Y-44288D01*
X51221Y-42700D01*
X51067Y-42545D01*
X51032Y-42603D01*
X51030Y-42789D01*
X51032Y-42796D01*
X51067Y-42854D01*
X51221Y-42700D01*
X51221Y-44288D01*
X49170Y-44288D01*
X49170Y-38116D01*
X49106Y-37962D01*
X49041Y-37896D01*
X49041Y-37200D01*
X48914Y-37073D01*
X48881Y-37115D01*
X48877Y-37262D01*
X48881Y-37284D01*
X48914Y-37326D01*
X49041Y-37200D01*
X49041Y-37896D01*
X48988Y-37843D01*
X48834Y-37779D01*
X48666Y-37779D01*
X48622Y-37797D01*
X48622Y-37137D01*
X48618Y-37115D01*
X48585Y-37073D01*
X48458Y-37200D01*
X48585Y-37326D01*
X48618Y-37284D01*
X48622Y-37137D01*
X48622Y-37797D01*
X48512Y-37843D01*
X48393Y-37961D01*
X48376Y-38002D01*
X48376Y-37535D01*
X48376Y-36864D01*
X48334Y-36831D01*
X48187Y-36827D01*
X48165Y-36831D01*
X48123Y-36864D01*
X48250Y-36991D01*
X48376Y-36864D01*
X48376Y-37535D01*
X48250Y-37408D01*
X48123Y-37535D01*
X48165Y-37568D01*
X48312Y-37572D01*
X48334Y-37568D01*
X48376Y-37535D01*
X48376Y-38002D01*
X48329Y-38115D01*
X48329Y-38283D01*
X48393Y-38437D01*
X48511Y-38556D01*
X48665Y-38620D01*
X48833Y-38620D01*
X48987Y-38556D01*
X49106Y-38438D01*
X49170Y-38284D01*
X49170Y-38116D01*
X49170Y-44288D01*
X48170Y-44288D01*
X48170Y-38116D01*
X48106Y-37962D01*
X48041Y-37896D01*
X48041Y-37200D01*
X47914Y-37073D01*
X47881Y-37115D01*
X47877Y-37262D01*
X47881Y-37284D01*
X47914Y-37326D01*
X48041Y-37200D01*
X48041Y-37896D01*
X47988Y-37843D01*
X47834Y-37779D01*
X47825Y-37779D01*
X47825Y-34975D01*
X47825Y-34375D01*
X47806Y-34329D01*
X47776Y-34300D01*
X47776Y-33636D01*
X47772Y-33614D01*
X47740Y-33571D01*
X47612Y-33700D01*
X47740Y-33828D01*
X47772Y-33785D01*
X47776Y-33636D01*
X47776Y-34300D01*
X47770Y-34294D01*
X47724Y-34275D01*
X47675Y-34274D01*
X47528Y-34274D01*
X47528Y-34040D01*
X47528Y-33359D01*
X47485Y-33327D01*
X47336Y-33323D01*
X47314Y-33327D01*
X47271Y-33359D01*
X47400Y-33487D01*
X47528Y-33359D01*
X47528Y-34040D01*
X47400Y-33912D01*
X47271Y-34040D01*
X47314Y-34072D01*
X47463Y-34076D01*
X47485Y-34072D01*
X47528Y-34040D01*
X47528Y-34274D01*
X47187Y-34274D01*
X47187Y-33700D01*
X47059Y-33571D01*
X47027Y-33614D01*
X47023Y-33763D01*
X47027Y-33785D01*
X47059Y-33828D01*
X47187Y-33700D01*
X47187Y-34274D01*
X47075Y-34274D01*
X47029Y-34293D01*
X46994Y-34329D01*
X46975Y-34375D01*
X46974Y-34424D01*
X46974Y-35024D01*
X46993Y-35070D01*
X47029Y-35105D01*
X47075Y-35124D01*
X47124Y-35125D01*
X47724Y-35125D01*
X47770Y-35106D01*
X47805Y-35070D01*
X47824Y-35024D01*
X47825Y-34975D01*
X47825Y-37779D01*
X47666Y-37779D01*
X47622Y-37797D01*
X47622Y-37137D01*
X47618Y-37115D01*
X47585Y-37073D01*
X47458Y-37200D01*
X47585Y-37326D01*
X47618Y-37284D01*
X47622Y-37137D01*
X47622Y-37797D01*
X47512Y-37843D01*
X47393Y-37961D01*
X47376Y-38002D01*
X47376Y-37535D01*
X47376Y-36864D01*
X47334Y-36831D01*
X47187Y-36827D01*
X47165Y-36831D01*
X47123Y-36864D01*
X47250Y-36991D01*
X47376Y-36864D01*
X47376Y-37535D01*
X47250Y-37408D01*
X47123Y-37535D01*
X47165Y-37568D01*
X47312Y-37572D01*
X47334Y-37568D01*
X47376Y-37535D01*
X47376Y-38002D01*
X47329Y-38115D01*
X47329Y-38283D01*
X47393Y-38437D01*
X47511Y-38556D01*
X47565Y-38578D01*
X47565Y-38738D01*
X47473Y-38830D01*
X43411Y-38830D01*
X40834Y-36253D01*
X40834Y-35985D01*
X40908Y-36060D01*
X40965Y-36083D01*
X40965Y-36100D01*
X40979Y-36170D01*
X41019Y-36230D01*
X43469Y-38680D01*
X43469Y-38680D01*
X43529Y-38720D01*
X43599Y-38734D01*
X43600Y-38734D01*
X46500Y-38734D01*
X46500Y-38734D01*
X46570Y-38720D01*
X46570Y-38720D01*
X46630Y-38680D01*
X46689Y-38620D01*
X47070Y-38620D01*
X47116Y-38601D01*
X47151Y-38566D01*
X47170Y-38520D01*
X47170Y-38470D01*
X47170Y-37879D01*
X47151Y-37833D01*
X47116Y-37798D01*
X47070Y-37779D01*
X47041Y-37779D01*
X47041Y-37200D01*
X46914Y-37073D01*
X46881Y-37115D01*
X46877Y-37262D01*
X46881Y-37284D01*
X46914Y-37326D01*
X47041Y-37200D01*
X47041Y-37779D01*
X47020Y-37779D01*
X46429Y-37779D01*
X46383Y-37798D01*
X46348Y-37833D01*
X46329Y-37879D01*
X46329Y-37929D01*
X46329Y-38365D01*
X44375Y-38365D01*
X44375Y-31285D01*
X44375Y-30714D01*
X44374Y-30685D01*
X44363Y-30657D01*
X44342Y-30636D01*
X44314Y-30624D01*
X44168Y-30625D01*
X44150Y-30643D01*
X44150Y-30850D01*
X44356Y-30850D01*
X44375Y-30831D01*
X44375Y-30714D01*
X44375Y-31285D01*
X44375Y-31168D01*
X44356Y-31150D01*
X44150Y-31150D01*
X44150Y-31356D01*
X44168Y-31375D01*
X44314Y-31375D01*
X44342Y-31363D01*
X44363Y-31342D01*
X44374Y-31314D01*
X44375Y-31285D01*
X44375Y-38365D01*
X43850Y-38365D01*
X43850Y-31356D01*
X43850Y-31150D01*
X43850Y-30850D01*
X43850Y-30643D01*
X43831Y-30625D01*
X43685Y-30624D01*
X43657Y-30636D01*
X43636Y-30657D01*
X43625Y-30685D01*
X43624Y-30714D01*
X43625Y-30831D01*
X43643Y-30850D01*
X43850Y-30850D01*
X43850Y-31150D01*
X43643Y-31150D01*
X43625Y-31168D01*
X43624Y-31285D01*
X43625Y-31314D01*
X43636Y-31342D01*
X43657Y-31363D01*
X43685Y-31375D01*
X43831Y-31375D01*
X43850Y-31356D01*
X43850Y-38365D01*
X43676Y-38365D01*
X43425Y-38114D01*
X43425Y-30915D01*
X43360Y-30759D01*
X43241Y-30639D01*
X43084Y-30575D01*
X42915Y-30574D01*
X42759Y-30639D01*
X42639Y-30758D01*
X42575Y-30915D01*
X42574Y-31084D01*
X42639Y-31240D01*
X42758Y-31360D01*
X42915Y-31424D01*
X43084Y-31425D01*
X43240Y-31360D01*
X43360Y-31241D01*
X43424Y-31084D01*
X43425Y-30915D01*
X43425Y-38114D01*
X42526Y-37216D01*
X42526Y-35636D01*
X42526Y-34636D01*
X42522Y-34614D01*
X42490Y-34571D01*
X42362Y-34700D01*
X42490Y-34828D01*
X42522Y-34785D01*
X42526Y-34636D01*
X42526Y-35636D01*
X42522Y-35614D01*
X42490Y-35571D01*
X42362Y-35700D01*
X42490Y-35828D01*
X42522Y-35785D01*
X42526Y-35636D01*
X42526Y-37216D01*
X42278Y-36967D01*
X42278Y-36040D01*
X42278Y-35359D01*
X42278Y-35040D01*
X42278Y-34359D01*
X42235Y-34327D01*
X42086Y-34323D01*
X42064Y-34327D01*
X42021Y-34359D01*
X42150Y-34487D01*
X42278Y-34359D01*
X42278Y-35040D01*
X42150Y-34912D01*
X42021Y-35040D01*
X42064Y-35072D01*
X42213Y-35076D01*
X42235Y-35072D01*
X42278Y-35040D01*
X42278Y-35359D01*
X42235Y-35327D01*
X42086Y-35323D01*
X42064Y-35327D01*
X42021Y-35359D01*
X42150Y-35487D01*
X42278Y-35359D01*
X42278Y-36040D01*
X42150Y-35912D01*
X42021Y-36040D01*
X42064Y-36072D01*
X42213Y-36076D01*
X42235Y-36072D01*
X42278Y-36040D01*
X42278Y-36967D01*
X41937Y-36627D01*
X41937Y-35700D01*
X41809Y-35571D01*
X41777Y-35614D01*
X41773Y-35763D01*
X41777Y-35785D01*
X41809Y-35828D01*
X41937Y-35700D01*
X41937Y-36627D01*
X41376Y-36066D01*
X41390Y-36060D01*
X41510Y-35941D01*
X41574Y-35784D01*
X41575Y-35615D01*
X41539Y-35530D01*
X41790Y-35280D01*
X41790Y-35280D01*
X41830Y-35220D01*
X41844Y-35150D01*
X41844Y-35150D01*
X41844Y-34793D01*
X41937Y-34700D01*
X41844Y-34606D01*
X41844Y-31416D01*
X41858Y-31401D01*
X41915Y-31424D01*
X42084Y-31425D01*
X42240Y-31360D01*
X42360Y-31241D01*
X42424Y-31084D01*
X42425Y-30915D01*
X42360Y-30759D01*
X42241Y-30639D01*
X42084Y-30575D01*
X41915Y-30574D01*
X41759Y-30639D01*
X41639Y-30758D01*
X41575Y-30915D01*
X41574Y-31084D01*
X41598Y-31141D01*
X41529Y-31209D01*
X41489Y-31269D01*
X41482Y-31306D01*
X41482Y-26944D01*
X41439Y-26840D01*
X41399Y-26799D01*
X41439Y-26760D01*
X41482Y-26656D01*
X41482Y-26544D01*
X41439Y-26440D01*
X41360Y-26360D01*
X41256Y-26317D01*
X41144Y-26317D01*
X41040Y-26360D01*
X40960Y-26439D01*
X40917Y-26543D01*
X40917Y-26655D01*
X40960Y-26759D01*
X41000Y-26800D01*
X40960Y-26839D01*
X40917Y-26943D01*
X40917Y-27055D01*
X40960Y-27159D01*
X41039Y-27239D01*
X41143Y-27282D01*
X41255Y-27282D01*
X41359Y-27239D01*
X41439Y-27160D01*
X41482Y-27056D01*
X41482Y-26944D01*
X41482Y-31306D01*
X41475Y-31340D01*
X41475Y-34424D01*
X41391Y-34339D01*
X41234Y-34275D01*
X41184Y-34275D01*
X41184Y-31383D01*
X41240Y-31360D01*
X41360Y-31241D01*
X41424Y-31084D01*
X41425Y-30915D01*
X41360Y-30759D01*
X41241Y-30639D01*
X41084Y-30575D01*
X40915Y-30574D01*
X40759Y-30639D01*
X40659Y-30739D01*
X40659Y-28125D01*
X40645Y-28054D01*
X40605Y-27994D01*
X40605Y-27994D01*
X40349Y-27739D01*
X40350Y-27640D01*
X40304Y-27530D01*
X40220Y-27445D01*
X40109Y-27400D01*
X39990Y-27399D01*
X39880Y-27445D01*
X39795Y-27529D01*
X39750Y-27640D01*
X39749Y-27759D01*
X39795Y-27869D01*
X39879Y-27954D01*
X39990Y-27999D01*
X40089Y-28000D01*
X40290Y-28201D01*
X40290Y-30689D01*
X40241Y-30639D01*
X40084Y-30575D01*
X39915Y-30574D01*
X39759Y-30639D01*
X39700Y-30698D01*
X39700Y-27640D01*
X39654Y-27530D01*
X39570Y-27445D01*
X39459Y-27400D01*
X39340Y-27399D01*
X39230Y-27445D01*
X39145Y-27529D01*
X39100Y-27640D01*
X39099Y-27759D01*
X39145Y-27869D01*
X39165Y-27890D01*
X39165Y-34275D01*
X39065Y-34274D01*
X38909Y-34339D01*
X38834Y-34414D01*
X38834Y-28250D01*
X38834Y-28025D01*
X38834Y-28024D01*
X38820Y-27954D01*
X38780Y-27894D01*
X38780Y-27894D01*
X38599Y-27714D01*
X38600Y-27615D01*
X38554Y-27505D01*
X38470Y-27420D01*
X38359Y-27375D01*
X38240Y-27374D01*
X38130Y-27420D01*
X38045Y-27504D01*
X38000Y-27615D01*
X37999Y-27734D01*
X38045Y-27844D01*
X38129Y-27929D01*
X38240Y-27974D01*
X38339Y-27975D01*
X38465Y-28101D01*
X38465Y-28250D01*
X38465Y-34414D01*
X38391Y-34339D01*
X38334Y-34316D01*
X38334Y-31050D01*
X38320Y-30979D01*
X38320Y-30979D01*
X38280Y-30919D01*
X37884Y-30523D01*
X37884Y-29100D01*
X37870Y-29029D01*
X37830Y-28969D01*
X37830Y-28969D01*
X36949Y-28089D01*
X36950Y-27990D01*
X36904Y-27880D01*
X36820Y-27795D01*
X36709Y-27750D01*
X36590Y-27749D01*
X36480Y-27795D01*
X36395Y-27879D01*
X36350Y-27990D01*
X36349Y-28109D01*
X36395Y-28219D01*
X36479Y-28304D01*
X36590Y-28349D01*
X36689Y-28350D01*
X37515Y-29176D01*
X37515Y-30600D01*
X37529Y-30670D01*
X37569Y-30730D01*
X37965Y-31126D01*
X37965Y-34316D01*
X37909Y-34339D01*
X37834Y-34414D01*
X37834Y-32250D01*
X37834Y-32249D01*
X37820Y-32179D01*
X37780Y-32119D01*
X37780Y-32119D01*
X37259Y-31598D01*
X37259Y-29350D01*
X37259Y-29349D01*
X37245Y-29279D01*
X37205Y-29219D01*
X37205Y-29219D01*
X37074Y-29089D01*
X37075Y-28990D01*
X37029Y-28880D01*
X36945Y-28795D01*
X36834Y-28750D01*
X36715Y-28749D01*
X36605Y-28795D01*
X36520Y-28879D01*
X36475Y-28990D01*
X36474Y-29109D01*
X36520Y-29219D01*
X36604Y-29304D01*
X36715Y-29349D01*
X36814Y-29350D01*
X36890Y-29426D01*
X36890Y-31675D01*
X36904Y-31745D01*
X36944Y-31805D01*
X37465Y-32326D01*
X37465Y-34414D01*
X37391Y-34339D01*
X37234Y-34275D01*
X37065Y-34274D01*
X36909Y-34339D01*
X36789Y-34458D01*
X36725Y-34615D01*
X36724Y-34784D01*
X36789Y-34940D01*
X36908Y-35060D01*
X37065Y-35124D01*
X37234Y-35125D01*
X37390Y-35060D01*
X37465Y-34985D01*
X37465Y-35200D01*
X37479Y-35270D01*
X37519Y-35330D01*
X37748Y-35558D01*
X37725Y-35615D01*
X37724Y-35784D01*
X37789Y-35940D01*
X37908Y-36060D01*
X38065Y-36124D01*
X38234Y-36125D01*
X38390Y-36060D01*
X38510Y-35941D01*
X38574Y-35784D01*
X38575Y-35615D01*
X38510Y-35459D01*
X38391Y-35339D01*
X38234Y-35275D01*
X38065Y-35274D01*
X38008Y-35298D01*
X37834Y-35123D01*
X37834Y-34985D01*
X37908Y-35060D01*
X38065Y-35124D01*
X38234Y-35125D01*
X38390Y-35060D01*
X38465Y-34985D01*
X38465Y-35200D01*
X38479Y-35270D01*
X38519Y-35330D01*
X38748Y-35558D01*
X38725Y-35615D01*
X38724Y-35784D01*
X38789Y-35940D01*
X38908Y-36060D01*
X39065Y-36124D01*
X39234Y-36125D01*
X39390Y-36060D01*
X39510Y-35941D01*
X39574Y-35784D01*
X39575Y-35615D01*
X39510Y-35459D01*
X39391Y-35339D01*
X39234Y-35275D01*
X39065Y-35274D01*
X39008Y-35298D01*
X38834Y-35123D01*
X38834Y-34985D01*
X38908Y-35060D01*
X39065Y-35124D01*
X39234Y-35125D01*
X39390Y-35060D01*
X39510Y-34941D01*
X39574Y-34784D01*
X39575Y-34615D01*
X39531Y-34511D01*
X39531Y-34511D01*
X39534Y-34500D01*
X39534Y-34500D01*
X39534Y-27969D01*
X39569Y-27954D01*
X39654Y-27870D01*
X39699Y-27759D01*
X39700Y-27640D01*
X39700Y-30698D01*
X39639Y-30758D01*
X39575Y-30915D01*
X39574Y-31084D01*
X39639Y-31240D01*
X39758Y-31360D01*
X39915Y-31424D01*
X40084Y-31425D01*
X40240Y-31360D01*
X40290Y-31310D01*
X40290Y-34298D01*
X40234Y-34275D01*
X40065Y-34274D01*
X39909Y-34339D01*
X39789Y-34458D01*
X39725Y-34615D01*
X39724Y-34784D01*
X39789Y-34940D01*
X39908Y-35060D01*
X40065Y-35124D01*
X40234Y-35125D01*
X40390Y-35060D01*
X40510Y-34941D01*
X40574Y-34784D01*
X40575Y-34615D01*
X40551Y-34558D01*
X40605Y-34505D01*
X40605Y-34505D01*
X40645Y-34445D01*
X40659Y-34375D01*
X40659Y-34375D01*
X40659Y-31260D01*
X40758Y-31360D01*
X40815Y-31383D01*
X40815Y-34432D01*
X40789Y-34458D01*
X40725Y-34615D01*
X40724Y-34784D01*
X40748Y-34841D01*
X40519Y-35069D01*
X40479Y-35129D01*
X40465Y-35200D01*
X40465Y-35414D01*
X40391Y-35339D01*
X40234Y-35275D01*
X40065Y-35274D01*
X39909Y-35339D01*
X39789Y-35458D01*
X39725Y-35615D01*
X39724Y-35784D01*
X39789Y-35940D01*
X39908Y-36060D01*
X40065Y-36124D01*
X40234Y-36125D01*
X40390Y-36060D01*
X40465Y-35985D01*
X40465Y-36330D01*
X40479Y-36400D01*
X40519Y-36460D01*
X43204Y-39145D01*
X43264Y-39185D01*
X43264Y-39185D01*
X43335Y-39199D01*
X47550Y-39199D01*
X47550Y-39199D01*
X47620Y-39185D01*
X47620Y-39185D01*
X47680Y-39145D01*
X47880Y-38945D01*
X47880Y-38945D01*
X47920Y-38885D01*
X47934Y-38815D01*
X47934Y-38815D01*
X47934Y-38578D01*
X47987Y-38556D01*
X48106Y-38438D01*
X48170Y-38284D01*
X48170Y-38116D01*
X48170Y-44288D01*
X47008Y-44288D01*
X47008Y-40532D01*
X46880Y-40222D01*
X46643Y-39985D01*
X46333Y-39856D01*
X45997Y-39856D01*
X45687Y-39984D01*
X45450Y-40221D01*
X45321Y-40531D01*
X45321Y-40867D01*
X45449Y-41177D01*
X45686Y-41414D01*
X45996Y-41543D01*
X46332Y-41543D01*
X46642Y-41415D01*
X46879Y-41178D01*
X47008Y-40868D01*
X47008Y-40532D01*
X47008Y-44288D01*
X45969Y-44288D01*
X45969Y-42610D01*
X45967Y-42603D01*
X45932Y-42545D01*
X45778Y-42700D01*
X45932Y-42854D01*
X45967Y-42796D01*
X45969Y-42610D01*
X45969Y-44288D01*
X45654Y-44288D01*
X45654Y-43132D01*
X45654Y-42267D01*
X45596Y-42232D01*
X45410Y-42230D01*
X45403Y-42232D01*
X45345Y-42267D01*
X45500Y-42421D01*
X45654Y-42267D01*
X45654Y-43132D01*
X45500Y-42978D01*
X45345Y-43132D01*
X45403Y-43167D01*
X45589Y-43169D01*
X45596Y-43167D01*
X45654Y-43132D01*
X45654Y-44288D01*
X45221Y-44288D01*
X45221Y-42700D01*
X45067Y-42545D01*
X45032Y-42603D01*
X45030Y-42789D01*
X45032Y-42796D01*
X45067Y-42854D01*
X45221Y-42700D01*
X45221Y-44288D01*
X43351Y-44288D01*
X43351Y-42486D01*
X43347Y-42464D01*
X43315Y-42421D01*
X43187Y-42550D01*
X43315Y-42678D01*
X43347Y-42635D01*
X43351Y-42486D01*
X43351Y-44288D01*
X43103Y-44288D01*
X43103Y-42890D01*
X43103Y-42209D01*
X43060Y-42177D01*
X42911Y-42173D01*
X42889Y-42177D01*
X42846Y-42209D01*
X42975Y-42337D01*
X43103Y-42209D01*
X43103Y-42890D01*
X42975Y-42762D01*
X42846Y-42890D01*
X42889Y-42922D01*
X43038Y-42926D01*
X43060Y-42922D01*
X43103Y-42890D01*
X43103Y-44288D01*
X42762Y-44288D01*
X42762Y-42550D01*
X42634Y-42421D01*
X42602Y-42464D01*
X42598Y-42613D01*
X42602Y-42635D01*
X42634Y-42678D01*
X42762Y-42550D01*
X42762Y-44288D01*
X42351Y-44288D01*
X42351Y-42486D01*
X42347Y-42464D01*
X42315Y-42421D01*
X42187Y-42550D01*
X42315Y-42678D01*
X42347Y-42635D01*
X42351Y-42486D01*
X42351Y-44288D01*
X42103Y-44288D01*
X42103Y-42890D01*
X42103Y-42209D01*
X42060Y-42177D01*
X41911Y-42173D01*
X41889Y-42177D01*
X41846Y-42209D01*
X41975Y-42337D01*
X42103Y-42209D01*
X42103Y-42890D01*
X41975Y-42762D01*
X41846Y-42890D01*
X41889Y-42922D01*
X42038Y-42926D01*
X42060Y-42922D01*
X42103Y-42890D01*
X42103Y-44288D01*
X41762Y-44288D01*
X41762Y-42550D01*
X41634Y-42421D01*
X41602Y-42464D01*
X41598Y-42613D01*
X41602Y-42635D01*
X41634Y-42678D01*
X41762Y-42550D01*
X41762Y-44288D01*
X41400Y-44288D01*
X41400Y-42465D01*
X41335Y-42309D01*
X41216Y-42189D01*
X41059Y-42125D01*
X40890Y-42124D01*
X40734Y-42189D01*
X40614Y-42308D01*
X40550Y-42465D01*
X40549Y-42634D01*
X40614Y-42790D01*
X40733Y-42910D01*
X40750Y-42916D01*
X40750Y-42931D01*
X40306Y-43375D01*
X38400Y-43375D01*
X38400Y-42825D01*
X38400Y-42225D01*
X38381Y-42179D01*
X38345Y-42144D01*
X38299Y-42125D01*
X38250Y-42124D01*
X37650Y-42124D01*
X37604Y-42143D01*
X37569Y-42179D01*
X37550Y-42225D01*
X37549Y-42274D01*
X37549Y-42874D01*
X37568Y-42920D01*
X37604Y-42955D01*
X37650Y-42974D01*
X37699Y-42975D01*
X38299Y-42975D01*
X38345Y-42956D01*
X38380Y-42920D01*
X38399Y-42874D01*
X38400Y-42825D01*
X38400Y-43375D01*
X36275Y-43375D01*
X36275Y-42065D01*
X36210Y-41909D01*
X36091Y-41789D01*
X35934Y-41725D01*
X35765Y-41724D01*
X35609Y-41789D01*
X35489Y-41908D01*
X35425Y-42065D01*
X35424Y-42234D01*
X35489Y-42390D01*
X35608Y-42510D01*
X35765Y-42574D01*
X35934Y-42575D01*
X36090Y-42510D01*
X36210Y-42391D01*
X36274Y-42234D01*
X36275Y-42065D01*
X36275Y-43375D01*
X35275Y-43375D01*
X35275Y-42425D01*
X35275Y-41825D01*
X35256Y-41779D01*
X35220Y-41744D01*
X35174Y-41725D01*
X35125Y-41724D01*
X34525Y-41724D01*
X34479Y-41743D01*
X34444Y-41779D01*
X34425Y-41825D01*
X34424Y-41874D01*
X34424Y-42474D01*
X34443Y-42520D01*
X34479Y-42555D01*
X34525Y-42574D01*
X34574Y-42575D01*
X35174Y-42575D01*
X35220Y-42556D01*
X35255Y-42520D01*
X35274Y-42474D01*
X35275Y-42425D01*
X35275Y-43375D01*
X34193Y-43375D01*
X33375Y-42556D01*
X33375Y-36125D01*
X33465Y-36125D01*
X33465Y-36750D01*
X33479Y-36820D01*
X33519Y-36880D01*
X38790Y-42151D01*
X38790Y-42166D01*
X38734Y-42189D01*
X38614Y-42308D01*
X38550Y-42465D01*
X38549Y-42634D01*
X38614Y-42790D01*
X38733Y-42910D01*
X38890Y-42974D01*
X39059Y-42975D01*
X39215Y-42910D01*
X39335Y-42791D01*
X39399Y-42634D01*
X39400Y-42465D01*
X39335Y-42309D01*
X39216Y-42189D01*
X39159Y-42166D01*
X39159Y-42075D01*
X39145Y-42004D01*
X39105Y-41944D01*
X39105Y-41944D01*
X33834Y-36673D01*
X33834Y-35985D01*
X33908Y-36060D01*
X33965Y-36083D01*
X33965Y-36550D01*
X33979Y-36620D01*
X34019Y-36680D01*
X39631Y-42292D01*
X39614Y-42308D01*
X39550Y-42465D01*
X39549Y-42634D01*
X39614Y-42790D01*
X39733Y-42910D01*
X39890Y-42974D01*
X40059Y-42975D01*
X40215Y-42910D01*
X40335Y-42791D01*
X40399Y-42634D01*
X40400Y-42465D01*
X40335Y-42309D01*
X40216Y-42189D01*
X40059Y-42125D01*
X39985Y-42125D01*
X37575Y-39714D01*
X37575Y-35615D01*
X37510Y-35459D01*
X37391Y-35339D01*
X37234Y-35275D01*
X37065Y-35274D01*
X36909Y-35339D01*
X36789Y-35458D01*
X36725Y-35615D01*
X36724Y-35784D01*
X36789Y-35940D01*
X36908Y-36060D01*
X37065Y-36124D01*
X37234Y-36125D01*
X37390Y-36060D01*
X37510Y-35941D01*
X37574Y-35784D01*
X37575Y-35615D01*
X37575Y-39714D01*
X36575Y-38714D01*
X36575Y-35615D01*
X36575Y-34615D01*
X36510Y-34459D01*
X36391Y-34339D01*
X36234Y-34275D01*
X36065Y-34274D01*
X35909Y-34339D01*
X35789Y-34458D01*
X35725Y-34615D01*
X35724Y-34784D01*
X35789Y-34940D01*
X35908Y-35060D01*
X36065Y-35124D01*
X36234Y-35125D01*
X36390Y-35060D01*
X36510Y-34941D01*
X36574Y-34784D01*
X36575Y-34615D01*
X36575Y-35615D01*
X36510Y-35459D01*
X36391Y-35339D01*
X36234Y-35275D01*
X36065Y-35274D01*
X35909Y-35339D01*
X35789Y-35458D01*
X35725Y-35615D01*
X35724Y-35784D01*
X35789Y-35940D01*
X35908Y-36060D01*
X36065Y-36124D01*
X36234Y-36125D01*
X36390Y-36060D01*
X36510Y-35941D01*
X36574Y-35784D01*
X36575Y-35615D01*
X36575Y-38714D01*
X35575Y-37714D01*
X35575Y-35615D01*
X35575Y-34615D01*
X35510Y-34459D01*
X35391Y-34339D01*
X35234Y-34275D01*
X35065Y-34274D01*
X34909Y-34339D01*
X34789Y-34458D01*
X34725Y-34615D01*
X34724Y-34784D01*
X34789Y-34940D01*
X34908Y-35060D01*
X35065Y-35124D01*
X35234Y-35125D01*
X35390Y-35060D01*
X35510Y-34941D01*
X35574Y-34784D01*
X35575Y-34615D01*
X35575Y-35615D01*
X35510Y-35459D01*
X35391Y-35339D01*
X35234Y-35275D01*
X35065Y-35274D01*
X34909Y-35339D01*
X34789Y-35458D01*
X34725Y-35615D01*
X34724Y-35784D01*
X34789Y-35940D01*
X34908Y-36060D01*
X35065Y-36124D01*
X35234Y-36125D01*
X35390Y-36060D01*
X35510Y-35941D01*
X35574Y-35784D01*
X35575Y-35615D01*
X35575Y-37714D01*
X34334Y-36473D01*
X34334Y-36083D01*
X34390Y-36060D01*
X34510Y-35941D01*
X34574Y-35784D01*
X34575Y-35615D01*
X34510Y-35459D01*
X34391Y-35339D01*
X34234Y-35275D01*
X34065Y-35274D01*
X33909Y-35339D01*
X33834Y-35414D01*
X33834Y-35376D01*
X34085Y-35124D01*
X34234Y-35125D01*
X34390Y-35060D01*
X34510Y-34941D01*
X34574Y-34784D01*
X34575Y-34615D01*
X34510Y-34459D01*
X34391Y-34339D01*
X34234Y-34275D01*
X34065Y-34274D01*
X33909Y-34339D01*
X33789Y-34458D01*
X33725Y-34615D01*
X33724Y-34784D01*
X33777Y-34911D01*
X33519Y-35169D01*
X33479Y-35229D01*
X33470Y-35275D01*
X33425Y-35274D01*
X33375Y-35274D01*
X33375Y-35066D01*
X33390Y-35060D01*
X33510Y-34941D01*
X33574Y-34784D01*
X33575Y-34615D01*
X33510Y-34459D01*
X33391Y-34339D01*
X33375Y-34333D01*
X33375Y-30993D01*
X33543Y-30825D01*
X34500Y-30825D01*
X34899Y-30825D01*
X34900Y-30825D01*
X34900Y-30825D01*
X34971Y-30810D01*
X34986Y-30807D01*
X34986Y-30807D01*
X35059Y-30759D01*
X35384Y-30434D01*
X35384Y-30434D01*
X35384Y-30434D01*
X35432Y-30361D01*
X35432Y-30361D01*
X35450Y-30275D01*
X35450Y-30024D01*
X35479Y-29995D01*
X35524Y-29884D01*
X35525Y-29765D01*
X35479Y-29655D01*
X35450Y-29625D01*
X35450Y-29300D01*
X35450Y-29200D01*
X35450Y-29150D01*
X35450Y-27060D01*
X35451Y-27059D01*
X35496Y-26949D01*
X35496Y-26830D01*
X35451Y-26720D01*
X35367Y-26635D01*
X35256Y-26589D01*
X35137Y-26589D01*
X35027Y-26635D01*
X34942Y-26719D01*
X34896Y-26829D01*
X34896Y-26949D01*
X34942Y-27059D01*
X35000Y-27117D01*
X35000Y-28225D01*
X34970Y-28195D01*
X34859Y-28150D01*
X34752Y-28149D01*
X34752Y-25416D01*
X37930Y-22238D01*
X37930Y-22238D01*
X37970Y-22178D01*
X37984Y-22108D01*
X37984Y-22108D01*
X37984Y-18976D01*
X38125Y-18835D01*
X38124Y-18874D01*
X38124Y-19474D01*
X38143Y-19520D01*
X38179Y-19555D01*
X38225Y-19574D01*
X38274Y-19575D01*
X38874Y-19575D01*
X38920Y-19556D01*
X38955Y-19520D01*
X38974Y-19474D01*
X38975Y-19425D01*
X38975Y-18825D01*
X38956Y-18779D01*
X38920Y-18744D01*
X38874Y-18725D01*
X38825Y-18724D01*
X38235Y-18724D01*
X38408Y-18551D01*
X38465Y-18574D01*
X38634Y-18575D01*
X38790Y-18510D01*
X38910Y-18391D01*
X38974Y-18234D01*
X38975Y-18065D01*
X38910Y-17909D01*
X38791Y-17789D01*
X38634Y-17725D01*
X38465Y-17724D01*
X38309Y-17789D01*
X38189Y-17908D01*
X38125Y-18065D01*
X38124Y-18234D01*
X38148Y-18291D01*
X37669Y-18769D01*
X37650Y-18799D01*
X37630Y-18769D01*
X37630Y-18769D01*
X37580Y-18719D01*
X37580Y-18719D01*
X37580Y-18719D01*
X37151Y-18291D01*
X37174Y-18234D01*
X37175Y-18065D01*
X37175Y-17065D01*
X37110Y-16909D01*
X36991Y-16789D01*
X36834Y-16725D01*
X36665Y-16724D01*
X36509Y-16789D01*
X36389Y-16908D01*
X36325Y-17065D01*
X36324Y-17234D01*
X36389Y-17390D01*
X36508Y-17510D01*
X36665Y-17574D01*
X36834Y-17575D01*
X36990Y-17510D01*
X37110Y-17391D01*
X37174Y-17234D01*
X37175Y-17065D01*
X37175Y-18065D01*
X37110Y-17909D01*
X36991Y-17789D01*
X36834Y-17725D01*
X36665Y-17724D01*
X36509Y-17789D01*
X36389Y-17908D01*
X36325Y-18065D01*
X36324Y-18234D01*
X36389Y-18390D01*
X36508Y-18510D01*
X36665Y-18574D01*
X36834Y-18575D01*
X36891Y-18551D01*
X37064Y-18725D01*
X37025Y-18724D01*
X36425Y-18724D01*
X36379Y-18743D01*
X36344Y-18779D01*
X36325Y-18825D01*
X36324Y-18874D01*
X36324Y-19474D01*
X36343Y-19520D01*
X36379Y-19555D01*
X36425Y-19574D01*
X36474Y-19575D01*
X37074Y-19575D01*
X37120Y-19556D01*
X37155Y-19520D01*
X37174Y-19474D01*
X37175Y-19425D01*
X37175Y-18835D01*
X37315Y-18976D01*
X37315Y-22023D01*
X35919Y-23419D01*
X34437Y-24901D01*
X34437Y-24901D01*
X34219Y-25119D01*
X34179Y-25179D01*
X34165Y-25250D01*
X34165Y-27206D01*
X34160Y-27200D01*
X34160Y-26889D01*
X34160Y-25400D01*
X34160Y-24555D01*
X34160Y-24494D01*
X35380Y-23275D01*
X35399Y-23246D01*
X35419Y-23217D01*
X35419Y-23216D01*
X35420Y-23215D01*
X35426Y-23181D01*
X35434Y-23146D01*
X35452Y-21368D01*
X35510Y-21311D01*
X35574Y-21154D01*
X35575Y-20985D01*
X35526Y-20869D01*
X35526Y-20006D01*
X35522Y-19984D01*
X35490Y-19941D01*
X35362Y-20070D01*
X35490Y-20198D01*
X35522Y-20155D01*
X35526Y-20006D01*
X35526Y-20869D01*
X35510Y-20829D01*
X35391Y-20709D01*
X35278Y-20663D01*
X35278Y-20410D01*
X35278Y-19729D01*
X35235Y-19697D01*
X35086Y-19693D01*
X35064Y-19697D01*
X35021Y-19729D01*
X35150Y-19857D01*
X35278Y-19729D01*
X35278Y-20410D01*
X35150Y-20282D01*
X35021Y-20410D01*
X35064Y-20442D01*
X35213Y-20446D01*
X35235Y-20442D01*
X35278Y-20410D01*
X35278Y-20663D01*
X35234Y-20645D01*
X35065Y-20644D01*
X34975Y-20682D01*
X34975Y-18165D01*
X34910Y-18009D01*
X34791Y-17889D01*
X34634Y-17825D01*
X34465Y-17824D01*
X34309Y-17889D01*
X34189Y-18008D01*
X34125Y-18165D01*
X34124Y-18334D01*
X34189Y-18490D01*
X34308Y-18610D01*
X34465Y-18674D01*
X34634Y-18675D01*
X34790Y-18610D01*
X34910Y-18491D01*
X34974Y-18334D01*
X34975Y-18165D01*
X34975Y-20682D01*
X34937Y-20697D01*
X34937Y-20070D01*
X34809Y-19941D01*
X34777Y-19984D01*
X34773Y-20133D01*
X34777Y-20155D01*
X34809Y-20198D01*
X34937Y-20070D01*
X34937Y-20697D01*
X34909Y-20709D01*
X34789Y-20828D01*
X34725Y-20985D01*
X34724Y-21154D01*
X34789Y-21310D01*
X34908Y-21430D01*
X35065Y-21494D01*
X35083Y-21494D01*
X35066Y-23067D01*
X34575Y-23559D01*
X34575Y-20985D01*
X34575Y-19985D01*
X34510Y-19829D01*
X34391Y-19709D01*
X34234Y-19645D01*
X34065Y-19644D01*
X33909Y-19709D01*
X33789Y-19828D01*
X33725Y-19985D01*
X33724Y-20154D01*
X33789Y-20310D01*
X33908Y-20430D01*
X34065Y-20494D01*
X34234Y-20495D01*
X34390Y-20430D01*
X34510Y-20311D01*
X34574Y-20154D01*
X34575Y-19985D01*
X34575Y-20985D01*
X34510Y-20829D01*
X34391Y-20709D01*
X34234Y-20645D01*
X34065Y-20644D01*
X33909Y-20709D01*
X33789Y-20828D01*
X33725Y-20985D01*
X33724Y-21154D01*
X33789Y-21310D01*
X33908Y-21430D01*
X34065Y-21494D01*
X34234Y-21495D01*
X34390Y-21430D01*
X34510Y-21311D01*
X34574Y-21154D01*
X34575Y-20985D01*
X34575Y-23559D01*
X33846Y-24288D01*
X33806Y-24348D01*
X33792Y-24418D01*
X33792Y-24555D01*
X33792Y-25400D01*
X33792Y-26889D01*
X33792Y-27136D01*
X33767Y-27147D01*
X33682Y-27231D01*
X33637Y-27341D01*
X33636Y-27460D01*
X33682Y-27571D01*
X33766Y-27655D01*
X33877Y-27701D01*
X33996Y-27701D01*
X34106Y-27656D01*
X34165Y-27596D01*
X34165Y-28250D01*
X34165Y-28423D01*
X34089Y-28500D01*
X33990Y-28499D01*
X33880Y-28545D01*
X33795Y-28629D01*
X33750Y-28740D01*
X33749Y-28859D01*
X33795Y-28969D01*
X33879Y-29054D01*
X33990Y-29099D01*
X34109Y-29100D01*
X34219Y-29054D01*
X34304Y-28970D01*
X34349Y-28859D01*
X34350Y-28760D01*
X34480Y-28630D01*
X34480Y-28630D01*
X34520Y-28570D01*
X34521Y-28562D01*
X34545Y-28619D01*
X34629Y-28704D01*
X34740Y-28749D01*
X34859Y-28750D01*
X34969Y-28704D01*
X35000Y-28674D01*
X35000Y-28925D01*
X34550Y-28925D01*
X34463Y-28942D01*
X34390Y-28990D01*
X34390Y-28990D01*
X34206Y-29175D01*
X33800Y-29175D01*
X33293Y-29175D01*
X33225Y-29106D01*
X33225Y-28600D01*
X33225Y-27900D01*
X33225Y-27143D01*
X33609Y-26759D01*
X33609Y-26759D01*
X33609Y-26759D01*
X33657Y-26686D01*
X33657Y-26686D01*
X33660Y-26671D01*
X33675Y-26600D01*
X33675Y-26600D01*
X33675Y-26599D01*
X33675Y-26200D01*
X33675Y-23627D01*
X33657Y-23541D01*
X33609Y-23468D01*
X33609Y-23468D01*
X33532Y-23391D01*
X33532Y-23270D01*
X33561Y-23241D01*
X33607Y-23130D01*
X33607Y-23011D01*
X33575Y-22933D01*
X33575Y-21345D01*
X33575Y-20745D01*
X33556Y-20699D01*
X33520Y-20664D01*
X33474Y-20645D01*
X33425Y-20644D01*
X32825Y-20644D01*
X32779Y-20663D01*
X32744Y-20699D01*
X32725Y-20745D01*
X32724Y-20794D01*
X32724Y-21394D01*
X32743Y-21440D01*
X32779Y-21475D01*
X32825Y-21494D01*
X32874Y-21495D01*
X33474Y-21495D01*
X33520Y-21476D01*
X33555Y-21440D01*
X33574Y-21394D01*
X33575Y-21345D01*
X33575Y-22933D01*
X33561Y-22901D01*
X33477Y-22816D01*
X33367Y-22770D01*
X33247Y-22770D01*
X33137Y-22816D01*
X33052Y-22900D01*
X33007Y-23010D01*
X33007Y-23130D01*
X33052Y-23240D01*
X33071Y-23260D01*
X32993Y-23260D01*
X32565Y-22831D01*
X32565Y-20633D01*
X32838Y-20359D01*
X32908Y-20430D01*
X33065Y-20494D01*
X33234Y-20495D01*
X33390Y-20430D01*
X33510Y-20311D01*
X33574Y-20154D01*
X33575Y-19985D01*
X33510Y-19829D01*
X33391Y-19709D01*
X33234Y-19645D01*
X33065Y-19644D01*
X32909Y-19709D01*
X32789Y-19828D01*
X32780Y-19850D01*
X32780Y-19850D01*
X32738Y-19859D01*
X32723Y-19862D01*
X32650Y-19910D01*
X32650Y-19910D01*
X32180Y-20380D01*
X32132Y-20453D01*
X32129Y-20468D01*
X32114Y-20540D01*
X32115Y-20540D01*
X32115Y-22924D01*
X32114Y-22925D01*
X32129Y-22996D01*
X32132Y-23011D01*
X32180Y-23084D01*
X32740Y-23644D01*
X32740Y-23644D01*
X32813Y-23692D01*
X32813Y-23692D01*
X32900Y-23710D01*
X33213Y-23710D01*
X33225Y-23721D01*
X33225Y-25879D01*
X33204Y-25830D01*
X33120Y-25745D01*
X33009Y-25700D01*
X32890Y-25699D01*
X32780Y-25745D01*
X32709Y-25815D01*
X31526Y-25815D01*
X30984Y-25273D01*
X30984Y-18050D01*
X30970Y-17979D01*
X30930Y-17919D01*
X30930Y-17919D01*
X30505Y-17494D01*
X30445Y-17454D01*
X30375Y-17440D01*
X30240Y-17440D01*
X30170Y-17370D01*
X30059Y-17325D01*
X29940Y-17324D01*
X29830Y-17370D01*
X29745Y-17454D01*
X29700Y-17565D01*
X29699Y-17684D01*
X29745Y-17794D01*
X29829Y-17879D01*
X29940Y-17924D01*
X30059Y-17925D01*
X30169Y-17879D01*
X30240Y-17809D01*
X30298Y-17809D01*
X30615Y-18126D01*
X30615Y-25350D01*
X30629Y-25420D01*
X30669Y-25480D01*
X31319Y-26130D01*
X31319Y-26130D01*
X31379Y-26170D01*
X31450Y-26184D01*
X32709Y-26184D01*
X32779Y-26254D01*
X32890Y-26299D01*
X33009Y-26300D01*
X33119Y-26254D01*
X33204Y-26170D01*
X33225Y-26120D01*
X33225Y-26200D01*
X33225Y-26506D01*
X32840Y-26890D01*
X32792Y-26963D01*
X32789Y-26978D01*
X32774Y-27050D01*
X32775Y-27050D01*
X32775Y-27675D01*
X32700Y-27675D01*
X32320Y-27675D01*
X32369Y-27654D01*
X32454Y-27570D01*
X32499Y-27459D01*
X32500Y-27340D01*
X32454Y-27230D01*
X32370Y-27145D01*
X32259Y-27100D01*
X32140Y-27099D01*
X32030Y-27145D01*
X31959Y-27215D01*
X29000Y-27215D01*
X29000Y-23240D01*
X28954Y-23130D01*
X28870Y-23045D01*
X28759Y-23000D01*
X28727Y-23000D01*
X28727Y-22834D01*
X28727Y-17050D01*
X28727Y-17027D01*
X28727Y-16621D01*
X28769Y-16604D01*
X28854Y-16520D01*
X28899Y-16409D01*
X28900Y-16290D01*
X28854Y-16180D01*
X28770Y-16095D01*
X28659Y-16050D01*
X28540Y-16049D01*
X28430Y-16095D01*
X28345Y-16179D01*
X28300Y-16290D01*
X28299Y-16409D01*
X28345Y-16519D01*
X28359Y-16533D01*
X28359Y-17027D01*
X28359Y-17050D01*
X28359Y-20491D01*
X28354Y-20480D01*
X28270Y-20395D01*
X28261Y-20392D01*
X28259Y-20388D01*
X28259Y-16165D01*
X28304Y-16120D01*
X28349Y-16009D01*
X28350Y-15890D01*
X28304Y-15780D01*
X28220Y-15695D01*
X28109Y-15650D01*
X27990Y-15649D01*
X27880Y-15695D01*
X27795Y-15779D01*
X27750Y-15890D01*
X27749Y-16009D01*
X27795Y-16119D01*
X27879Y-16204D01*
X27890Y-16208D01*
X27890Y-20434D01*
X27845Y-20479D01*
X27800Y-20590D01*
X27799Y-20709D01*
X27845Y-20819D01*
X27929Y-20904D01*
X28040Y-20949D01*
X28159Y-20950D01*
X28269Y-20904D01*
X28354Y-20820D01*
X28359Y-20807D01*
X28359Y-21242D01*
X28280Y-21163D01*
X28170Y-21117D01*
X28050Y-21117D01*
X28016Y-21131D01*
X27684Y-20798D01*
X27684Y-16640D01*
X27754Y-16570D01*
X27799Y-16459D01*
X27800Y-16340D01*
X27754Y-16230D01*
X27670Y-16145D01*
X27600Y-16116D01*
X27600Y-14790D01*
X27554Y-14680D01*
X27470Y-14595D01*
X27359Y-14550D01*
X27240Y-14549D01*
X27130Y-14595D01*
X27045Y-14679D01*
X27000Y-14790D01*
X26999Y-14909D01*
X27045Y-15019D01*
X27075Y-15049D01*
X27075Y-15256D01*
X26440Y-15890D01*
X26392Y-15963D01*
X26389Y-15978D01*
X26374Y-16050D01*
X26375Y-16050D01*
X26375Y-16925D01*
X26375Y-17600D01*
X26345Y-17629D01*
X26300Y-17740D01*
X26299Y-17859D01*
X26345Y-17969D01*
X26375Y-17999D01*
X26375Y-19656D01*
X25489Y-20542D01*
X25100Y-20542D01*
X23475Y-20542D01*
X23475Y-17925D01*
X23475Y-17325D01*
X23456Y-17279D01*
X23420Y-17244D01*
X23374Y-17225D01*
X23325Y-17224D01*
X22725Y-17224D01*
X22679Y-17243D01*
X22644Y-17279D01*
X22625Y-17325D01*
X22624Y-17374D01*
X22624Y-17974D01*
X22643Y-18020D01*
X22679Y-18055D01*
X22725Y-18074D01*
X22774Y-18075D01*
X23374Y-18075D01*
X23420Y-18056D01*
X23455Y-18020D01*
X23474Y-17974D01*
X23475Y-17925D01*
X23475Y-20542D01*
X22426Y-20542D01*
X22426Y-17586D01*
X22422Y-17564D01*
X22390Y-17521D01*
X22262Y-17650D01*
X22390Y-17778D01*
X22422Y-17735D01*
X22426Y-17586D01*
X22426Y-20542D01*
X22178Y-20542D01*
X22178Y-17990D01*
X22178Y-17309D01*
X22135Y-17277D01*
X21986Y-17273D01*
X21964Y-17277D01*
X21921Y-17309D01*
X22050Y-17437D01*
X22178Y-17309D01*
X22178Y-17990D01*
X22050Y-17862D01*
X21921Y-17990D01*
X21964Y-18022D01*
X22113Y-18026D01*
X22135Y-18022D01*
X22178Y-17990D01*
X22178Y-20542D01*
X21837Y-20542D01*
X21837Y-17650D01*
X21709Y-17521D01*
X21677Y-17564D01*
X21673Y-17713D01*
X21677Y-17735D01*
X21709Y-17778D01*
X21837Y-17650D01*
X21837Y-20542D01*
X21090Y-20542D01*
X21090Y-14967D01*
X21082Y-14923D01*
X21039Y-14850D01*
X20830Y-15060D01*
X21039Y-15269D01*
X21082Y-15196D01*
X21090Y-14967D01*
X21090Y-20542D01*
X20721Y-20542D01*
X20721Y-15587D01*
X20721Y-14532D01*
X20648Y-14489D01*
X20643Y-14489D01*
X20643Y-12200D01*
X20563Y-12007D01*
X20415Y-11859D01*
X20222Y-11779D01*
X20014Y-11778D01*
X19821Y-11858D01*
X19673Y-12006D01*
X19593Y-12199D01*
X19592Y-12407D01*
X19672Y-12601D01*
X19820Y-12748D01*
X20013Y-12828D01*
X20221Y-12829D01*
X20415Y-12749D01*
X20562Y-12601D01*
X20642Y-12408D01*
X20643Y-12200D01*
X20643Y-14489D01*
X20577Y-14487D01*
X20577Y-13713D01*
X20451Y-13407D01*
X20216Y-13172D01*
X19910Y-13045D01*
X19589Y-13045D01*
X19589Y-12212D01*
X19588Y-12206D01*
X19552Y-12148D01*
X19396Y-12304D01*
X19552Y-12459D01*
X19588Y-12401D01*
X19589Y-12212D01*
X19589Y-13045D01*
X19578Y-13045D01*
X19272Y-13171D01*
X19269Y-13174D01*
X19269Y-12742D01*
X19269Y-11865D01*
X19211Y-11829D01*
X19022Y-11828D01*
X19016Y-11829D01*
X18958Y-11865D01*
X19114Y-12021D01*
X19269Y-11865D01*
X19269Y-12742D01*
X19114Y-12586D01*
X18958Y-12742D01*
X19016Y-12778D01*
X19205Y-12779D01*
X19211Y-12778D01*
X19269Y-12742D01*
X19269Y-13174D01*
X19037Y-13406D01*
X18910Y-13712D01*
X18910Y-14044D01*
X19036Y-14350D01*
X19271Y-14585D01*
X19577Y-14712D01*
X19909Y-14712D01*
X20215Y-14586D01*
X20450Y-14351D01*
X20577Y-14045D01*
X20577Y-13713D01*
X20577Y-14487D01*
X20419Y-14481D01*
X20375Y-14489D01*
X20302Y-14532D01*
X20512Y-14741D01*
X20721Y-14532D01*
X20721Y-15587D01*
X20512Y-15378D01*
X20302Y-15587D01*
X20375Y-15630D01*
X20604Y-15638D01*
X20648Y-15630D01*
X20721Y-15587D01*
X20721Y-20542D01*
X20278Y-20542D01*
X20248Y-20513D01*
X20193Y-20490D01*
X20193Y-15060D01*
X19984Y-14850D01*
X19941Y-14923D01*
X19933Y-15152D01*
X19941Y-15196D01*
X19984Y-15269D01*
X20193Y-15060D01*
X20193Y-20490D01*
X20138Y-20467D01*
X20019Y-20467D01*
X19909Y-20513D01*
X19824Y-20597D01*
X19778Y-20707D01*
X19778Y-20827D01*
X19824Y-20937D01*
X19908Y-21021D01*
X20018Y-21067D01*
X20138Y-21067D01*
X20248Y-21022D01*
X20277Y-20992D01*
X25100Y-20992D01*
X25582Y-20992D01*
X25582Y-20992D01*
X25582Y-20992D01*
X25654Y-20978D01*
X25668Y-20975D01*
X25668Y-20975D01*
X25741Y-20926D01*
X26759Y-19909D01*
X26759Y-19909D01*
X26759Y-19909D01*
X26807Y-19836D01*
X26807Y-19836D01*
X26810Y-19821D01*
X26825Y-19750D01*
X26825Y-19750D01*
X26825Y-19749D01*
X26825Y-17999D01*
X26854Y-17970D01*
X26899Y-17859D01*
X26900Y-17740D01*
X26854Y-17630D01*
X26825Y-17600D01*
X26825Y-16925D01*
X26825Y-16143D01*
X27459Y-15509D01*
X27459Y-15509D01*
X27459Y-15509D01*
X27507Y-15436D01*
X27525Y-15350D01*
X27524Y-15350D01*
X27525Y-15350D01*
X27525Y-15049D01*
X27554Y-15020D01*
X27599Y-14909D01*
X27600Y-14790D01*
X27600Y-16116D01*
X27559Y-16100D01*
X27440Y-16099D01*
X27330Y-16145D01*
X27245Y-16229D01*
X27200Y-16340D01*
X27199Y-16459D01*
X27245Y-16569D01*
X27315Y-16640D01*
X27315Y-20875D01*
X27329Y-20945D01*
X27369Y-21005D01*
X27810Y-21445D01*
X27810Y-21476D01*
X27855Y-21587D01*
X27940Y-21671D01*
X28050Y-21717D01*
X28169Y-21717D01*
X28279Y-21671D01*
X28359Y-21592D01*
X28359Y-22834D01*
X28359Y-23143D01*
X28373Y-23213D01*
X28400Y-23253D01*
X28399Y-23359D01*
X28445Y-23469D01*
X28529Y-23554D01*
X28640Y-23599D01*
X28759Y-23600D01*
X28869Y-23554D01*
X28954Y-23470D01*
X28999Y-23359D01*
X29000Y-23240D01*
X29000Y-27215D01*
X28784Y-27215D01*
X28784Y-25100D01*
X28770Y-25029D01*
X28730Y-24969D01*
X28730Y-24969D01*
X26830Y-23069D01*
X26770Y-23029D01*
X26700Y-23015D01*
X25440Y-23015D01*
X25370Y-22945D01*
X25259Y-22900D01*
X25140Y-22899D01*
X25030Y-22945D01*
X24945Y-23029D01*
X24900Y-23140D01*
X24899Y-23259D01*
X24945Y-23369D01*
X25029Y-23454D01*
X25140Y-23499D01*
X25259Y-23500D01*
X25369Y-23454D01*
X25440Y-23384D01*
X26623Y-23384D01*
X28415Y-25176D01*
X28415Y-27350D01*
X28415Y-27400D01*
X28415Y-29925D01*
X28415Y-30950D01*
X28429Y-31020D01*
X28469Y-31080D01*
X30878Y-33489D01*
X30878Y-34484D01*
X30808Y-34554D01*
X30763Y-34664D01*
X30762Y-34783D01*
X30808Y-34894D01*
X30892Y-34978D01*
X31003Y-35024D01*
X31122Y-35024D01*
X31232Y-34978D01*
X31317Y-34894D01*
X31362Y-34784D01*
X31363Y-34664D01*
X31317Y-34554D01*
X31247Y-34484D01*
X31247Y-33412D01*
X31233Y-33342D01*
X31233Y-33342D01*
X31193Y-33282D01*
X28784Y-30873D01*
X28784Y-29925D01*
X28784Y-27584D01*
X31959Y-27584D01*
X32029Y-27654D01*
X32079Y-27675D01*
X30600Y-27675D01*
X30600Y-27674D01*
X30528Y-27689D01*
X30513Y-27692D01*
X30440Y-27740D01*
X30440Y-27740D01*
X30250Y-27931D01*
X30155Y-27970D01*
X30070Y-28054D01*
X30025Y-28165D01*
X30024Y-28284D01*
X30070Y-28394D01*
X30154Y-28479D01*
X30265Y-28524D01*
X30384Y-28525D01*
X30494Y-28479D01*
X30579Y-28395D01*
X30624Y-28284D01*
X30625Y-28193D01*
X30693Y-28125D01*
X32700Y-28125D01*
X32775Y-28125D01*
X32775Y-28600D01*
X32775Y-29199D01*
X32774Y-29200D01*
X32789Y-29271D01*
X32792Y-29286D01*
X32840Y-29359D01*
X33040Y-29559D01*
X33040Y-29559D01*
X33113Y-29607D01*
X33200Y-29625D01*
X33800Y-29625D01*
X34299Y-29625D01*
X34300Y-29625D01*
X34300Y-29625D01*
X34371Y-29610D01*
X34386Y-29607D01*
X34386Y-29607D01*
X34459Y-29559D01*
X34643Y-29375D01*
X35000Y-29375D01*
X35000Y-29625D01*
X34970Y-29654D01*
X34925Y-29765D01*
X34924Y-29884D01*
X34970Y-29994D01*
X35000Y-30024D01*
X35000Y-30181D01*
X34900Y-30281D01*
X34900Y-29840D01*
X34854Y-29730D01*
X34770Y-29645D01*
X34659Y-29600D01*
X34540Y-29599D01*
X34430Y-29645D01*
X34359Y-29715D01*
X31126Y-29715D01*
X30884Y-29473D01*
X30884Y-29290D01*
X30954Y-29220D01*
X30999Y-29109D01*
X31000Y-28990D01*
X30954Y-28880D01*
X30870Y-28795D01*
X30759Y-28750D01*
X30640Y-28749D01*
X30530Y-28795D01*
X30445Y-28879D01*
X30400Y-28990D01*
X30399Y-29109D01*
X30445Y-29219D01*
X30515Y-29290D01*
X30515Y-29550D01*
X30529Y-29620D01*
X30569Y-29680D01*
X30919Y-30030D01*
X30919Y-30030D01*
X30979Y-30070D01*
X31049Y-30084D01*
X31050Y-30084D01*
X34359Y-30084D01*
X34429Y-30154D01*
X34540Y-30199D01*
X34659Y-30200D01*
X34769Y-30154D01*
X34854Y-30070D01*
X34899Y-29959D01*
X34900Y-29840D01*
X34900Y-30281D01*
X34806Y-30375D01*
X34500Y-30375D01*
X33450Y-30375D01*
X33449Y-30375D01*
X33363Y-30392D01*
X33290Y-30440D01*
X33290Y-30440D01*
X32990Y-30740D01*
X32942Y-30813D01*
X32939Y-30828D01*
X32924Y-30900D01*
X32925Y-30900D01*
X32925Y-34333D01*
X32909Y-34339D01*
X32789Y-34458D01*
X32725Y-34615D01*
X32724Y-34784D01*
X32789Y-34940D01*
X32908Y-35060D01*
X32925Y-35066D01*
X32925Y-35274D01*
X32825Y-35274D01*
X32779Y-35293D01*
X32744Y-35329D01*
X32725Y-35375D01*
X32724Y-35424D01*
X32724Y-35475D01*
X28343Y-35475D01*
X27650Y-34781D01*
X27650Y-34740D01*
X27604Y-34630D01*
X27520Y-34545D01*
X27409Y-34500D01*
X27290Y-34499D01*
X27180Y-34545D01*
X27095Y-34629D01*
X27050Y-34740D01*
X27049Y-34859D01*
X27095Y-34969D01*
X27179Y-35054D01*
X27290Y-35099D01*
X27331Y-35099D01*
X28090Y-35859D01*
X28090Y-35859D01*
X28163Y-35907D01*
X28163Y-35907D01*
X28178Y-35910D01*
X28250Y-35925D01*
X28250Y-35925D01*
X28250Y-35925D01*
X32724Y-35925D01*
X32724Y-36024D01*
X32743Y-36070D01*
X32779Y-36105D01*
X32825Y-36124D01*
X32874Y-36125D01*
X32925Y-36125D01*
X32925Y-42649D01*
X32924Y-42650D01*
X32939Y-42721D01*
X32942Y-42736D01*
X32990Y-42809D01*
X33940Y-43759D01*
X33940Y-43759D01*
X34013Y-43807D01*
X34013Y-43807D01*
X34100Y-43825D01*
X40399Y-43825D01*
X40400Y-43825D01*
X40400Y-43825D01*
X40471Y-43810D01*
X40486Y-43807D01*
X40486Y-43807D01*
X40559Y-43759D01*
X41134Y-43184D01*
X41134Y-43184D01*
X41134Y-43184D01*
X41182Y-43111D01*
X41200Y-43025D01*
X41199Y-43025D01*
X41200Y-43025D01*
X41200Y-42916D01*
X41215Y-42910D01*
X41335Y-42791D01*
X41399Y-42634D01*
X41400Y-42465D01*
X41400Y-44288D01*
X23350Y-44288D01*
X23350Y-22140D01*
X23304Y-22030D01*
X23220Y-21945D01*
X23109Y-21900D01*
X22990Y-21899D01*
X22880Y-21945D01*
X22809Y-22015D01*
X19707Y-22015D01*
X19707Y-16704D01*
X19707Y-16004D01*
X19688Y-15958D01*
X19652Y-15923D01*
X19606Y-15904D01*
X19557Y-15903D01*
X18857Y-15903D01*
X18831Y-15914D01*
X18831Y-12304D01*
X18675Y-12148D01*
X18639Y-12206D01*
X18638Y-12395D01*
X18639Y-12401D01*
X18675Y-12459D01*
X18831Y-12304D01*
X18831Y-15914D01*
X18811Y-15922D01*
X18776Y-15958D01*
X18757Y-16004D01*
X18756Y-16053D01*
X18756Y-16236D01*
X18693Y-16082D01*
X18545Y-15934D01*
X18352Y-15854D01*
X18144Y-15853D01*
X17951Y-15933D01*
X17803Y-16081D01*
X17755Y-16194D01*
X17709Y-16082D01*
X17561Y-15934D01*
X17368Y-15854D01*
X17160Y-15853D01*
X16967Y-15933D01*
X16819Y-16081D01*
X16751Y-16243D01*
X16685Y-16082D01*
X16537Y-15934D01*
X16361Y-15861D01*
X16361Y-12212D01*
X16360Y-12206D01*
X16324Y-12148D01*
X16168Y-12304D01*
X16324Y-12459D01*
X16360Y-12401D01*
X16361Y-12212D01*
X16361Y-15861D01*
X16344Y-15854D01*
X16136Y-15853D01*
X16089Y-15873D01*
X16089Y-13732D01*
X16041Y-13617D01*
X16041Y-12742D01*
X16041Y-11865D01*
X15983Y-11829D01*
X15794Y-11828D01*
X15788Y-11829D01*
X15730Y-11865D01*
X15886Y-12021D01*
X16041Y-11865D01*
X16041Y-12742D01*
X15886Y-12586D01*
X15730Y-12742D01*
X15788Y-12778D01*
X15977Y-12779D01*
X15983Y-12778D01*
X16041Y-12742D01*
X16041Y-13617D01*
X15963Y-13426D01*
X15728Y-13191D01*
X15603Y-13139D01*
X15603Y-12304D01*
X15447Y-12148D01*
X15411Y-12206D01*
X15410Y-12395D01*
X15411Y-12401D01*
X15447Y-12459D01*
X15603Y-12304D01*
X15603Y-13139D01*
X15422Y-13064D01*
X15407Y-13064D01*
X15407Y-12200D01*
X15327Y-12007D01*
X15179Y-11859D01*
X14986Y-11779D01*
X14778Y-11778D01*
X14585Y-11858D01*
X14437Y-12006D01*
X14357Y-12199D01*
X14356Y-12407D01*
X14436Y-12601D01*
X14584Y-12748D01*
X14777Y-12828D01*
X14985Y-12829D01*
X15179Y-12749D01*
X15326Y-12601D01*
X15406Y-12408D01*
X15407Y-12200D01*
X15407Y-13064D01*
X15090Y-13064D01*
X14784Y-13190D01*
X14549Y-13425D01*
X14422Y-13731D01*
X14422Y-14063D01*
X14548Y-14369D01*
X14783Y-14604D01*
X15089Y-14731D01*
X15421Y-14731D01*
X15727Y-14605D01*
X15962Y-14370D01*
X16089Y-14064D01*
X16089Y-13732D01*
X16089Y-15873D01*
X15943Y-15933D01*
X15795Y-16081D01*
X15715Y-16274D01*
X15714Y-16482D01*
X15794Y-16676D01*
X15942Y-16823D01*
X16135Y-16903D01*
X16343Y-16904D01*
X16537Y-16824D01*
X16684Y-16676D01*
X16752Y-16514D01*
X16818Y-16676D01*
X16966Y-16823D01*
X17159Y-16903D01*
X17367Y-16904D01*
X17561Y-16824D01*
X17708Y-16676D01*
X17756Y-16563D01*
X17802Y-16676D01*
X17950Y-16823D01*
X18143Y-16903D01*
X18351Y-16904D01*
X18545Y-16824D01*
X18692Y-16676D01*
X18756Y-16522D01*
X18756Y-16753D01*
X18775Y-16799D01*
X18811Y-16834D01*
X18857Y-16853D01*
X18906Y-16854D01*
X19606Y-16854D01*
X19652Y-16835D01*
X19687Y-16799D01*
X19706Y-16753D01*
X19707Y-16704D01*
X19707Y-22015D01*
X18376Y-22015D01*
X16936Y-20575D01*
X16936Y-17875D01*
X17049Y-17828D01*
X17196Y-17680D01*
X17244Y-17567D01*
X17290Y-17680D01*
X17438Y-17827D01*
X17631Y-17907D01*
X17839Y-17908D01*
X18033Y-17828D01*
X18180Y-17680D01*
X18248Y-17518D01*
X18314Y-17680D01*
X18462Y-17827D01*
X18655Y-17907D01*
X18863Y-17908D01*
X19057Y-17828D01*
X19204Y-17680D01*
X19284Y-17487D01*
X19285Y-17279D01*
X19205Y-17086D01*
X19057Y-16938D01*
X18864Y-16858D01*
X18656Y-16857D01*
X18463Y-16937D01*
X18315Y-17085D01*
X18247Y-17247D01*
X18181Y-17086D01*
X18033Y-16938D01*
X17840Y-16858D01*
X17632Y-16857D01*
X17439Y-16937D01*
X17291Y-17085D01*
X17243Y-17198D01*
X17197Y-17086D01*
X17049Y-16938D01*
X16856Y-16858D01*
X16648Y-16857D01*
X16455Y-16937D01*
X16307Y-17085D01*
X16259Y-17198D01*
X16213Y-17086D01*
X16065Y-16938D01*
X15872Y-16858D01*
X15664Y-16857D01*
X15471Y-16937D01*
X15323Y-17085D01*
X15243Y-17278D01*
X15242Y-17486D01*
X15322Y-17680D01*
X15470Y-17827D01*
X15663Y-17907D01*
X15871Y-17908D01*
X16065Y-17828D01*
X16212Y-17680D01*
X16260Y-17567D01*
X16306Y-17680D01*
X16454Y-17827D01*
X16567Y-17875D01*
X16567Y-20652D01*
X16581Y-20722D01*
X16621Y-20782D01*
X18169Y-22330D01*
X18169Y-22330D01*
X18229Y-22370D01*
X18300Y-22384D01*
X22809Y-22384D01*
X22879Y-22454D01*
X22990Y-22499D01*
X23109Y-22500D01*
X23219Y-22454D01*
X23304Y-22370D01*
X23349Y-22259D01*
X23350Y-22140D01*
X23350Y-44288D01*
X22800Y-44288D01*
X22800Y-42240D01*
X22754Y-42130D01*
X22670Y-42045D01*
X22559Y-42000D01*
X22440Y-41999D01*
X22366Y-42030D01*
X21248Y-40913D01*
X21249Y-40909D01*
X21250Y-40790D01*
X21204Y-40680D01*
X21120Y-40595D01*
X21009Y-40550D01*
X20890Y-40549D01*
X20780Y-40595D01*
X20695Y-40679D01*
X20650Y-40790D01*
X20649Y-40909D01*
X20695Y-41019D01*
X20779Y-41104D01*
X20890Y-41149D01*
X20964Y-41150D01*
X22218Y-42403D01*
X22245Y-42469D01*
X22329Y-42554D01*
X22440Y-42599D01*
X22559Y-42600D01*
X22669Y-42554D01*
X22754Y-42470D01*
X22799Y-42359D01*
X22800Y-42240D01*
X22800Y-44288D01*
X17036Y-44288D01*
X17036Y-42431D01*
X17036Y-41820D01*
X17029Y-41613D01*
X16943Y-41425D01*
X16772Y-41349D01*
X16708Y-41334D01*
X16708Y-41900D01*
X16998Y-41900D01*
X17036Y-41820D01*
X17036Y-42431D01*
X16998Y-42350D01*
X16708Y-42350D01*
X16708Y-42917D01*
X16772Y-42902D01*
X16943Y-42826D01*
X17029Y-42638D01*
X17036Y-42431D01*
X17036Y-44288D01*
X16318Y-44288D01*
X16318Y-42917D01*
X16318Y-42350D01*
X16318Y-41900D01*
X16318Y-41334D01*
X16255Y-41349D01*
X16132Y-41404D01*
X16132Y-37140D01*
X16128Y-37119D01*
X16096Y-37076D01*
X15968Y-37204D01*
X16096Y-37332D01*
X16128Y-37290D01*
X16132Y-37140D01*
X16132Y-41404D01*
X16084Y-41425D01*
X15998Y-41613D01*
X15990Y-41820D01*
X16029Y-41900D01*
X16318Y-41900D01*
X16318Y-42350D01*
X16029Y-42350D01*
X15990Y-42431D01*
X15998Y-42638D01*
X16084Y-42826D01*
X16255Y-42902D01*
X16318Y-42917D01*
X16318Y-44288D01*
X15884Y-44288D01*
X15884Y-37544D01*
X15884Y-36864D01*
X15841Y-36832D01*
X15692Y-36827D01*
X15670Y-36832D01*
X15627Y-36864D01*
X15755Y-36992D01*
X15884Y-36864D01*
X15884Y-37544D01*
X15755Y-37416D01*
X15627Y-37544D01*
X15670Y-37577D01*
X15819Y-37581D01*
X15841Y-37577D01*
X15884Y-37544D01*
X15884Y-44288D01*
X15543Y-44288D01*
X15543Y-37204D01*
X15415Y-37076D01*
X15383Y-37119D01*
X15378Y-37268D01*
X15383Y-37290D01*
X15415Y-37332D01*
X15543Y-37204D01*
X15543Y-44288D01*
X15513Y-44288D01*
X15513Y-42533D01*
X15513Y-41718D01*
X15473Y-41521D01*
X15362Y-41354D01*
X15195Y-41242D01*
X15180Y-41239D01*
X15180Y-37479D01*
X15180Y-36879D01*
X15161Y-36834D01*
X15126Y-36798D01*
X15080Y-36779D01*
X15031Y-36779D01*
X15027Y-36779D01*
X15027Y-14967D01*
X15019Y-14923D01*
X14976Y-14850D01*
X14767Y-15060D01*
X14976Y-15269D01*
X15019Y-15196D01*
X15027Y-14967D01*
X15027Y-36779D01*
X14658Y-36779D01*
X14658Y-15587D01*
X14658Y-14532D01*
X14585Y-14489D01*
X14356Y-14481D01*
X14312Y-14489D01*
X14239Y-14532D01*
X14449Y-14741D01*
X14658Y-14532D01*
X14658Y-15587D01*
X14449Y-15378D01*
X14239Y-15587D01*
X14312Y-15630D01*
X14541Y-15638D01*
X14585Y-15630D01*
X14658Y-15587D01*
X14658Y-36779D01*
X14431Y-36779D01*
X14385Y-36798D01*
X14349Y-36833D01*
X14330Y-36879D01*
X14330Y-36929D01*
X14330Y-37529D01*
X14349Y-37575D01*
X14385Y-37610D01*
X14430Y-37629D01*
X14480Y-37629D01*
X15080Y-37629D01*
X15126Y-37610D01*
X15161Y-37575D01*
X15180Y-37529D01*
X15180Y-37479D01*
X15180Y-41239D01*
X14998Y-41203D01*
X14800Y-41242D01*
X14633Y-41354D01*
X14522Y-41521D01*
X14483Y-41718D01*
X14483Y-42533D01*
X14522Y-42730D01*
X14633Y-42897D01*
X14800Y-43009D01*
X14998Y-43048D01*
X15195Y-43009D01*
X15362Y-42897D01*
X15473Y-42730D01*
X15513Y-42533D01*
X15513Y-44288D01*
X14130Y-44288D01*
X14130Y-15060D01*
X13921Y-14850D01*
X13878Y-14923D01*
X13870Y-15152D01*
X13878Y-15196D01*
X13921Y-15269D01*
X14130Y-15060D01*
X14130Y-44288D01*
X13192Y-44288D01*
X13192Y-10829D01*
X52162Y-10829D01*
X52162Y-44288D01*
M02*
