G04 (created by PCBNEW (2013-jul-07)-stable) date ven. 28 nov. 2014 17:47:18 CET*
%MOIN*%
G04 Gerber Fmt 3.4, Leading zero omitted, Abs format*
%FSLAX34Y34*%
G01*
G70*
G90*
G04 APERTURE LIST*
%ADD10C,0.00590551*%
%ADD11C,0.00984252*%
%ADD12C,0.00885827*%
%ADD13C,0.015*%
%ADD14C,0.012*%
%ADD15C,0.00787402*%
%ADD16C,0.003*%
%ADD17C,0.0059*%
%ADD18C,0.008*%
%ADD19C,0.005*%
%ADD20C,0.006*%
%ADD21C,0.0026*%
%ADD22C,0.004*%
%ADD23C,0.01*%
%ADD24C,0.002*%
%ADD25C,0.0039*%
%ADD26C,0.0031*%
%ADD27C,3.93701e-06*%
%ADD28C,0.0035*%
%ADD29C,0.00492126*%
%ADD30C,0.0108*%
%ADD31C,0.0047*%
G04 APERTURE END LIST*
G54D10*
G54D11*
X21500Y-16534D02*
X21462Y-16515D01*
X21406Y-16515D01*
X21350Y-16534D01*
X21312Y-16571D01*
X21293Y-16609D01*
X21275Y-16684D01*
X21275Y-16740D01*
X21293Y-16815D01*
X21312Y-16853D01*
X21350Y-16890D01*
X21406Y-16909D01*
X21443Y-16909D01*
X21500Y-16890D01*
X21518Y-16871D01*
X21518Y-16740D01*
X21443Y-16740D01*
X21687Y-16909D02*
X21687Y-16515D01*
X21912Y-16909D01*
X21912Y-16515D01*
X22099Y-16909D02*
X22099Y-16515D01*
X22193Y-16515D01*
X22249Y-16534D01*
X22287Y-16571D01*
X22306Y-16609D01*
X22324Y-16684D01*
X22324Y-16740D01*
X22306Y-16815D01*
X22287Y-16853D01*
X22249Y-16890D01*
X22193Y-16909D01*
X22099Y-16909D01*
X22718Y-16565D02*
X22962Y-16565D01*
X22831Y-16715D01*
X22887Y-16715D01*
X22925Y-16734D01*
X22943Y-16753D01*
X22962Y-16790D01*
X22962Y-16884D01*
X22943Y-16921D01*
X22925Y-16940D01*
X22887Y-16959D01*
X22775Y-16959D01*
X22737Y-16940D01*
X22718Y-16921D01*
X23131Y-16921D02*
X23150Y-16940D01*
X23131Y-16959D01*
X23112Y-16940D01*
X23131Y-16921D01*
X23131Y-16959D01*
X23281Y-16565D02*
X23524Y-16565D01*
X23393Y-16715D01*
X23449Y-16715D01*
X23487Y-16734D01*
X23506Y-16753D01*
X23524Y-16790D01*
X23524Y-16884D01*
X23506Y-16921D01*
X23487Y-16940D01*
X23449Y-16959D01*
X23337Y-16959D01*
X23300Y-16940D01*
X23281Y-16921D01*
X23637Y-16565D02*
X23768Y-16959D01*
X23899Y-16565D01*
X35615Y-18349D02*
X35615Y-18124D01*
X36009Y-18237D02*
X35615Y-18237D01*
X35615Y-18031D02*
X36009Y-17768D01*
X35615Y-17768D02*
X36009Y-18031D01*
X39609Y-18215D02*
X39421Y-18346D01*
X39609Y-18440D02*
X39215Y-18440D01*
X39215Y-18290D01*
X39234Y-18253D01*
X39253Y-18234D01*
X39290Y-18215D01*
X39346Y-18215D01*
X39384Y-18234D01*
X39403Y-18253D01*
X39421Y-18290D01*
X39421Y-18440D01*
X39215Y-18084D02*
X39609Y-17821D01*
X39215Y-17821D02*
X39609Y-18084D01*
G54D12*
X42691Y-15138D02*
X42710Y-15156D01*
X42729Y-15213D01*
X42729Y-15250D01*
X42710Y-15306D01*
X42673Y-15344D01*
X42635Y-15363D01*
X42560Y-15381D01*
X42504Y-15381D01*
X42429Y-15363D01*
X42391Y-15344D01*
X42354Y-15306D01*
X42335Y-15250D01*
X42335Y-15213D01*
X42354Y-15156D01*
X42373Y-15138D01*
X42335Y-14894D02*
X42335Y-14819D01*
X42354Y-14781D01*
X42391Y-14744D01*
X42466Y-14725D01*
X42598Y-14725D01*
X42673Y-14744D01*
X42710Y-14781D01*
X42729Y-14819D01*
X42729Y-14894D01*
X42710Y-14931D01*
X42673Y-14969D01*
X42598Y-14988D01*
X42466Y-14988D01*
X42391Y-14969D01*
X42354Y-14931D01*
X42335Y-14894D01*
X42729Y-14556D02*
X42335Y-14556D01*
X42729Y-14331D01*
X42335Y-14331D01*
X42373Y-14163D02*
X42354Y-14144D01*
X42335Y-14106D01*
X42335Y-14013D01*
X42354Y-13975D01*
X42373Y-13956D01*
X42410Y-13938D01*
X42448Y-13938D01*
X42504Y-13956D01*
X42729Y-14181D01*
X42729Y-13938D01*
X41211Y-15068D02*
X41230Y-15086D01*
X41249Y-15143D01*
X41249Y-15180D01*
X41230Y-15236D01*
X41193Y-15274D01*
X41155Y-15293D01*
X41080Y-15311D01*
X41024Y-15311D01*
X40949Y-15293D01*
X40911Y-15274D01*
X40874Y-15236D01*
X40855Y-15180D01*
X40855Y-15143D01*
X40874Y-15086D01*
X40893Y-15068D01*
X40855Y-14824D02*
X40855Y-14749D01*
X40874Y-14711D01*
X40911Y-14674D01*
X40986Y-14655D01*
X41118Y-14655D01*
X41193Y-14674D01*
X41230Y-14711D01*
X41249Y-14749D01*
X41249Y-14824D01*
X41230Y-14861D01*
X41193Y-14899D01*
X41118Y-14918D01*
X40986Y-14918D01*
X40911Y-14899D01*
X40874Y-14861D01*
X40855Y-14824D01*
X41249Y-14486D02*
X40855Y-14486D01*
X41249Y-14261D01*
X40855Y-14261D01*
X41249Y-13868D02*
X41249Y-14093D01*
X41249Y-13980D02*
X40855Y-13980D01*
X40911Y-14018D01*
X40949Y-14055D01*
X40968Y-14093D01*
G54D13*
X42992Y-13700D02*
X42992Y-17874D01*
X42913Y-13622D02*
X42992Y-13700D01*
X43543Y-19291D02*
X43622Y-19370D01*
X43543Y-19133D02*
X43543Y-19291D01*
X43543Y-18425D02*
X43543Y-19133D01*
X42992Y-17874D02*
X43543Y-18425D01*
X41496Y-13779D02*
X41417Y-13700D01*
X41496Y-19212D02*
X41496Y-13779D01*
X41574Y-19291D02*
X41496Y-19212D01*
G54D14*
X34514Y-15328D02*
X34514Y-15013D01*
X35065Y-15170D02*
X34514Y-15170D01*
X34514Y-14881D02*
X35065Y-14514D01*
X34514Y-14514D02*
X35065Y-14881D01*
X34855Y-14304D02*
X34855Y-13884D01*
X35065Y-14094D02*
X34645Y-14094D01*
X43792Y-15085D02*
X43766Y-15137D01*
X43766Y-15216D01*
X43792Y-15295D01*
X43845Y-15347D01*
X43897Y-15374D01*
X44002Y-15400D01*
X44081Y-15400D01*
X44186Y-15374D01*
X44238Y-15347D01*
X44291Y-15295D01*
X44317Y-15216D01*
X44317Y-15164D01*
X44291Y-15085D01*
X44265Y-15059D01*
X44081Y-15059D01*
X44081Y-15164D01*
X44317Y-14822D02*
X43766Y-14822D01*
X44317Y-14507D01*
X43766Y-14507D01*
X44317Y-14245D02*
X43766Y-14245D01*
X43766Y-14114D01*
X43792Y-14035D01*
X43845Y-13982D01*
X43897Y-13956D01*
X44002Y-13930D01*
X44081Y-13930D01*
X44186Y-13956D01*
X44238Y-13982D01*
X44291Y-14035D01*
X44317Y-14114D01*
X44317Y-14245D01*
X44059Y-34418D02*
X44059Y-33618D01*
X44317Y-33694D02*
X44345Y-33656D01*
X44402Y-33618D01*
X44545Y-33618D01*
X44602Y-33656D01*
X44631Y-33694D01*
X44659Y-33770D01*
X44659Y-33846D01*
X44631Y-33961D01*
X44288Y-34418D01*
X44659Y-34418D01*
X45259Y-34342D02*
X45231Y-34380D01*
X45145Y-34418D01*
X45088Y-34418D01*
X45002Y-34380D01*
X44945Y-34304D01*
X44917Y-34227D01*
X44888Y-34075D01*
X44888Y-33961D01*
X44917Y-33808D01*
X44945Y-33732D01*
X45002Y-33656D01*
X45088Y-33618D01*
X45145Y-33618D01*
X45231Y-33656D01*
X45259Y-33694D01*
G54D13*
X48000Y-20800D02*
X52000Y-20800D01*
X48000Y-31400D02*
X48000Y-20800D01*
X52000Y-31400D02*
X48000Y-31400D01*
X52000Y-20800D02*
X52000Y-31400D01*
G54D14*
X46514Y-20442D02*
X46514Y-19842D01*
X46657Y-19842D01*
X46742Y-19871D01*
X46799Y-19928D01*
X46828Y-19985D01*
X46857Y-20100D01*
X46857Y-20185D01*
X46828Y-20300D01*
X46799Y-20357D01*
X46742Y-20414D01*
X46657Y-20442D01*
X46514Y-20442D01*
X47085Y-20414D02*
X47171Y-20442D01*
X47314Y-20442D01*
X47371Y-20414D01*
X47399Y-20385D01*
X47428Y-20328D01*
X47428Y-20271D01*
X47399Y-20214D01*
X47371Y-20185D01*
X47314Y-20157D01*
X47199Y-20128D01*
X47142Y-20100D01*
X47114Y-20071D01*
X47085Y-20014D01*
X47085Y-19957D01*
X47114Y-19900D01*
X47142Y-19871D01*
X47199Y-19842D01*
X47342Y-19842D01*
X47428Y-19871D01*
X48000Y-20442D02*
X47657Y-20442D01*
X47828Y-20442D02*
X47828Y-19842D01*
X47771Y-19928D01*
X47714Y-19985D01*
X47657Y-20014D01*
X48342Y-20100D02*
X48285Y-20071D01*
X48257Y-20042D01*
X48228Y-19985D01*
X48228Y-19957D01*
X48257Y-19900D01*
X48285Y-19871D01*
X48342Y-19842D01*
X48457Y-19842D01*
X48514Y-19871D01*
X48542Y-19900D01*
X48571Y-19957D01*
X48571Y-19985D01*
X48542Y-20042D01*
X48514Y-20071D01*
X48457Y-20100D01*
X48342Y-20100D01*
X48285Y-20128D01*
X48257Y-20157D01*
X48228Y-20214D01*
X48228Y-20328D01*
X48257Y-20385D01*
X48285Y-20414D01*
X48342Y-20442D01*
X48457Y-20442D01*
X48514Y-20414D01*
X48542Y-20385D01*
X48571Y-20328D01*
X48571Y-20214D01*
X48542Y-20157D01*
X48514Y-20128D01*
X48457Y-20100D01*
X49028Y-20128D02*
X49114Y-20157D01*
X49142Y-20185D01*
X49171Y-20242D01*
X49171Y-20328D01*
X49142Y-20385D01*
X49114Y-20414D01*
X49057Y-20442D01*
X48828Y-20442D01*
X48828Y-19842D01*
X49028Y-19842D01*
X49085Y-19871D01*
X49114Y-19900D01*
X49142Y-19957D01*
X49142Y-20014D01*
X49114Y-20071D01*
X49085Y-20100D01*
X49028Y-20128D01*
X48828Y-20128D01*
X49400Y-19900D02*
X49428Y-19871D01*
X49485Y-19842D01*
X49628Y-19842D01*
X49685Y-19871D01*
X49714Y-19900D01*
X49742Y-19957D01*
X49742Y-20014D01*
X49714Y-20100D01*
X49371Y-20442D01*
X49742Y-20442D01*
X50114Y-19842D02*
X50171Y-19842D01*
X50228Y-19871D01*
X50257Y-19900D01*
X50285Y-19957D01*
X50314Y-20071D01*
X50314Y-20214D01*
X50285Y-20328D01*
X50257Y-20385D01*
X50228Y-20414D01*
X50171Y-20442D01*
X50114Y-20442D01*
X50057Y-20414D01*
X50028Y-20385D01*
X50000Y-20328D01*
X49971Y-20214D01*
X49971Y-20071D01*
X50000Y-19957D01*
X50028Y-19900D01*
X50057Y-19871D01*
X50114Y-19842D01*
G54D11*
X50740Y-28159D02*
X50740Y-27765D01*
X50890Y-27765D01*
X50928Y-27784D01*
X50946Y-27803D01*
X50965Y-27840D01*
X50965Y-27896D01*
X50946Y-27934D01*
X50928Y-27953D01*
X50890Y-27971D01*
X50740Y-27971D01*
X51115Y-28046D02*
X51303Y-28046D01*
X51078Y-28159D02*
X51209Y-27765D01*
X51340Y-28159D01*
X51434Y-27765D02*
X51678Y-27765D01*
X51546Y-27915D01*
X51603Y-27915D01*
X51640Y-27934D01*
X51659Y-27953D01*
X51678Y-27990D01*
X51678Y-28084D01*
X51659Y-28121D01*
X51640Y-28140D01*
X51603Y-28159D01*
X51490Y-28159D01*
X51453Y-28140D01*
X51434Y-28121D01*
X50731Y-27140D02*
X50787Y-27159D01*
X50881Y-27159D01*
X50918Y-27140D01*
X50937Y-27121D01*
X50956Y-27084D01*
X50956Y-27046D01*
X50937Y-27009D01*
X50918Y-26990D01*
X50881Y-26971D01*
X50806Y-26953D01*
X50768Y-26934D01*
X50750Y-26915D01*
X50731Y-26878D01*
X50731Y-26840D01*
X50750Y-26803D01*
X50768Y-26784D01*
X50806Y-26765D01*
X50900Y-26765D01*
X50956Y-26784D01*
X51349Y-27121D02*
X51331Y-27140D01*
X51274Y-27159D01*
X51237Y-27159D01*
X51181Y-27140D01*
X51143Y-27103D01*
X51125Y-27065D01*
X51106Y-26990D01*
X51106Y-26934D01*
X51125Y-26859D01*
X51143Y-26821D01*
X51181Y-26784D01*
X51237Y-26765D01*
X51274Y-26765D01*
X51331Y-26784D01*
X51349Y-26803D01*
X51706Y-27159D02*
X51518Y-27159D01*
X51518Y-26765D01*
X50721Y-26140D02*
X50778Y-26159D01*
X50871Y-26159D01*
X50909Y-26140D01*
X50928Y-26121D01*
X50946Y-26084D01*
X50946Y-26046D01*
X50928Y-26009D01*
X50909Y-25990D01*
X50871Y-25971D01*
X50796Y-25953D01*
X50759Y-25934D01*
X50740Y-25915D01*
X50721Y-25878D01*
X50721Y-25840D01*
X50740Y-25803D01*
X50759Y-25784D01*
X50796Y-25765D01*
X50890Y-25765D01*
X50946Y-25784D01*
X51115Y-26159D02*
X51115Y-25765D01*
X51209Y-25765D01*
X51265Y-25784D01*
X51303Y-25821D01*
X51321Y-25859D01*
X51340Y-25934D01*
X51340Y-25990D01*
X51321Y-26065D01*
X51303Y-26103D01*
X51265Y-26140D01*
X51209Y-26159D01*
X51115Y-26159D01*
X51490Y-26046D02*
X51678Y-26046D01*
X51453Y-26159D02*
X51584Y-25765D01*
X51715Y-26159D01*
X50925Y-24765D02*
X50737Y-24765D01*
X50718Y-24953D01*
X50737Y-24934D01*
X50775Y-24915D01*
X50868Y-24915D01*
X50906Y-24934D01*
X50925Y-24953D01*
X50943Y-24990D01*
X50943Y-25084D01*
X50925Y-25121D01*
X50906Y-25140D01*
X50868Y-25159D01*
X50775Y-25159D01*
X50737Y-25140D01*
X50718Y-25121D01*
X51056Y-24765D02*
X51187Y-25159D01*
X51318Y-24765D01*
X50900Y-23784D02*
X50862Y-23765D01*
X50806Y-23765D01*
X50750Y-23784D01*
X50712Y-23821D01*
X50693Y-23859D01*
X50675Y-23934D01*
X50675Y-23990D01*
X50693Y-24065D01*
X50712Y-24103D01*
X50750Y-24140D01*
X50806Y-24159D01*
X50843Y-24159D01*
X50900Y-24140D01*
X50918Y-24121D01*
X50918Y-23990D01*
X50843Y-23990D01*
X51087Y-24159D02*
X51087Y-23765D01*
X51312Y-24159D01*
X51312Y-23765D01*
X51499Y-24159D02*
X51499Y-23765D01*
X51593Y-23765D01*
X51649Y-23784D01*
X51687Y-23821D01*
X51706Y-23859D01*
X51724Y-23934D01*
X51724Y-23990D01*
X51706Y-24065D01*
X51687Y-24103D01*
X51649Y-24140D01*
X51593Y-24159D01*
X51499Y-24159D01*
X40189Y-19239D02*
X39795Y-19239D01*
X39795Y-19089D01*
X39814Y-19051D01*
X39833Y-19033D01*
X39870Y-19014D01*
X39926Y-19014D01*
X39964Y-19033D01*
X39983Y-19051D01*
X40001Y-19089D01*
X40001Y-19239D01*
X40076Y-18864D02*
X40076Y-18676D01*
X40189Y-18901D02*
X39795Y-18770D01*
X40189Y-18639D01*
X39795Y-18433D02*
X39795Y-18395D01*
X39814Y-18358D01*
X39833Y-18339D01*
X39870Y-18320D01*
X39945Y-18301D01*
X40039Y-18301D01*
X40114Y-18320D01*
X40151Y-18339D01*
X40170Y-18358D01*
X40189Y-18395D01*
X40189Y-18433D01*
X40170Y-18470D01*
X40151Y-18489D01*
X40114Y-18508D01*
X40039Y-18526D01*
X39945Y-18526D01*
X39870Y-18508D01*
X39833Y-18489D01*
X39814Y-18470D01*
X39795Y-18433D01*
X41179Y-19239D02*
X40785Y-19239D01*
X40785Y-19089D01*
X40804Y-19051D01*
X40823Y-19033D01*
X40860Y-19014D01*
X40916Y-19014D01*
X40954Y-19033D01*
X40973Y-19051D01*
X40991Y-19089D01*
X40991Y-19239D01*
X41066Y-18864D02*
X41066Y-18676D01*
X41179Y-18901D02*
X40785Y-18770D01*
X41179Y-18639D01*
X41179Y-18301D02*
X41179Y-18526D01*
X41179Y-18414D02*
X40785Y-18414D01*
X40841Y-18451D01*
X40879Y-18489D01*
X40898Y-18526D01*
G54D12*
X44131Y-19090D02*
X44150Y-19107D01*
X44169Y-19157D01*
X44169Y-19191D01*
X44150Y-19242D01*
X44113Y-19275D01*
X44075Y-19292D01*
X44000Y-19309D01*
X43944Y-19309D01*
X43869Y-19292D01*
X43831Y-19275D01*
X43794Y-19242D01*
X43775Y-19191D01*
X43775Y-19157D01*
X43794Y-19107D01*
X43813Y-19090D01*
X43775Y-18870D02*
X43775Y-18803D01*
X43794Y-18769D01*
X43831Y-18735D01*
X43906Y-18719D01*
X44038Y-18719D01*
X44113Y-18735D01*
X44150Y-18769D01*
X44169Y-18803D01*
X44169Y-18870D01*
X44150Y-18904D01*
X44113Y-18938D01*
X44038Y-18955D01*
X43906Y-18955D01*
X43831Y-18938D01*
X43794Y-18904D01*
X43775Y-18870D01*
X44169Y-18567D02*
X43775Y-18567D01*
X44169Y-18364D01*
X43775Y-18364D01*
X43813Y-18212D02*
X43794Y-18195D01*
X43775Y-18162D01*
X43775Y-18077D01*
X43794Y-18044D01*
X43813Y-18027D01*
X43850Y-18010D01*
X43888Y-18010D01*
X43944Y-18027D01*
X44169Y-18229D01*
X44169Y-18010D01*
G54D11*
X43149Y-19239D02*
X42755Y-19239D01*
X42755Y-19089D01*
X42774Y-19051D01*
X42793Y-19033D01*
X42830Y-19014D01*
X42886Y-19014D01*
X42924Y-19033D01*
X42943Y-19051D01*
X42961Y-19089D01*
X42961Y-19239D01*
X43036Y-18864D02*
X43036Y-18676D01*
X43149Y-18901D02*
X42755Y-18770D01*
X43149Y-18639D01*
X42793Y-18526D02*
X42774Y-18508D01*
X42755Y-18470D01*
X42755Y-18376D01*
X42774Y-18339D01*
X42793Y-18320D01*
X42830Y-18301D01*
X42868Y-18301D01*
X42924Y-18320D01*
X43149Y-18545D01*
X43149Y-18301D01*
G54D12*
X42161Y-19050D02*
X42180Y-19067D01*
X42199Y-19117D01*
X42199Y-19151D01*
X42180Y-19202D01*
X42143Y-19235D01*
X42105Y-19252D01*
X42030Y-19269D01*
X41974Y-19269D01*
X41899Y-19252D01*
X41861Y-19235D01*
X41824Y-19202D01*
X41805Y-19151D01*
X41805Y-19117D01*
X41824Y-19067D01*
X41843Y-19050D01*
X41805Y-18830D02*
X41805Y-18763D01*
X41824Y-18729D01*
X41861Y-18695D01*
X41936Y-18679D01*
X42068Y-18679D01*
X42143Y-18695D01*
X42180Y-18729D01*
X42199Y-18763D01*
X42199Y-18830D01*
X42180Y-18864D01*
X42143Y-18898D01*
X42068Y-18915D01*
X41936Y-18915D01*
X41861Y-18898D01*
X41824Y-18864D01*
X41805Y-18830D01*
X42199Y-18527D02*
X41805Y-18527D01*
X42199Y-18324D01*
X41805Y-18324D01*
X42199Y-17970D02*
X42199Y-18172D01*
X42199Y-18071D02*
X41805Y-18071D01*
X41861Y-18105D01*
X41899Y-18139D01*
X41918Y-18172D01*
G54D11*
X43784Y-32699D02*
X43765Y-32737D01*
X43765Y-32793D01*
X43784Y-32849D01*
X43821Y-32887D01*
X43859Y-32906D01*
X43934Y-32924D01*
X43990Y-32924D01*
X44065Y-32906D01*
X44103Y-32887D01*
X44140Y-32849D01*
X44159Y-32793D01*
X44159Y-32756D01*
X44140Y-32699D01*
X44121Y-32681D01*
X43990Y-32681D01*
X43990Y-32756D01*
X44159Y-32512D02*
X43765Y-32512D01*
X44159Y-32287D01*
X43765Y-32287D01*
X44159Y-32100D02*
X43765Y-32100D01*
X43765Y-32006D01*
X43784Y-31950D01*
X43821Y-31912D01*
X43859Y-31893D01*
X43934Y-31875D01*
X43990Y-31875D01*
X44065Y-31893D01*
X44103Y-31912D01*
X44140Y-31950D01*
X44159Y-32006D01*
X44159Y-32100D01*
X42765Y-32274D02*
X42765Y-32462D01*
X42953Y-32481D01*
X42934Y-32462D01*
X42915Y-32424D01*
X42915Y-32331D01*
X42934Y-32293D01*
X42953Y-32274D01*
X42990Y-32256D01*
X43084Y-32256D01*
X43121Y-32274D01*
X43140Y-32293D01*
X43159Y-32331D01*
X43159Y-32424D01*
X43140Y-32462D01*
X43121Y-32481D01*
X42765Y-32143D02*
X43159Y-32012D01*
X42765Y-31881D01*
X42140Y-32878D02*
X42159Y-32821D01*
X42159Y-32728D01*
X42140Y-32690D01*
X42121Y-32671D01*
X42084Y-32653D01*
X42046Y-32653D01*
X42009Y-32671D01*
X41990Y-32690D01*
X41971Y-32728D01*
X41953Y-32803D01*
X41934Y-32840D01*
X41915Y-32859D01*
X41878Y-32878D01*
X41840Y-32878D01*
X41803Y-32859D01*
X41784Y-32840D01*
X41765Y-32803D01*
X41765Y-32709D01*
X41784Y-32653D01*
X42159Y-32484D02*
X41765Y-32484D01*
X41765Y-32390D01*
X41784Y-32334D01*
X41821Y-32296D01*
X41859Y-32278D01*
X41934Y-32259D01*
X41990Y-32259D01*
X42065Y-32278D01*
X42103Y-32296D01*
X42140Y-32334D01*
X42159Y-32390D01*
X42159Y-32484D01*
X42046Y-32109D02*
X42046Y-31921D01*
X42159Y-32146D02*
X41765Y-32015D01*
X42159Y-31884D01*
X41140Y-32868D02*
X41159Y-32812D01*
X41159Y-32718D01*
X41140Y-32681D01*
X41121Y-32662D01*
X41084Y-32643D01*
X41046Y-32643D01*
X41009Y-32662D01*
X40990Y-32681D01*
X40971Y-32718D01*
X40953Y-32793D01*
X40934Y-32831D01*
X40915Y-32849D01*
X40878Y-32868D01*
X40840Y-32868D01*
X40803Y-32849D01*
X40784Y-32831D01*
X40765Y-32793D01*
X40765Y-32699D01*
X40784Y-32643D01*
X41121Y-32250D02*
X41140Y-32268D01*
X41159Y-32325D01*
X41159Y-32362D01*
X41140Y-32418D01*
X41103Y-32456D01*
X41065Y-32474D01*
X40990Y-32493D01*
X40934Y-32493D01*
X40859Y-32474D01*
X40821Y-32456D01*
X40784Y-32418D01*
X40765Y-32362D01*
X40765Y-32325D01*
X40784Y-32268D01*
X40803Y-32250D01*
X41159Y-31893D02*
X41159Y-32081D01*
X40765Y-32081D01*
X40159Y-32887D02*
X39765Y-32887D01*
X39765Y-32737D01*
X39784Y-32699D01*
X39803Y-32681D01*
X39840Y-32662D01*
X39896Y-32662D01*
X39934Y-32681D01*
X39953Y-32699D01*
X39971Y-32737D01*
X39971Y-32887D01*
X40121Y-32268D02*
X40140Y-32287D01*
X40159Y-32343D01*
X40159Y-32381D01*
X40140Y-32437D01*
X40103Y-32474D01*
X40065Y-32493D01*
X39990Y-32512D01*
X39934Y-32512D01*
X39859Y-32493D01*
X39821Y-32474D01*
X39784Y-32437D01*
X39765Y-32381D01*
X39765Y-32343D01*
X39784Y-32287D01*
X39803Y-32268D01*
X39765Y-31931D02*
X39765Y-32006D01*
X39784Y-32043D01*
X39803Y-32062D01*
X39859Y-32100D01*
X39934Y-32118D01*
X40084Y-32118D01*
X40121Y-32100D01*
X40140Y-32081D01*
X40159Y-32043D01*
X40159Y-31968D01*
X40140Y-31931D01*
X40121Y-31912D01*
X40084Y-31893D01*
X39990Y-31893D01*
X39953Y-31912D01*
X39934Y-31931D01*
X39915Y-31968D01*
X39915Y-32043D01*
X39934Y-32081D01*
X39953Y-32100D01*
X39990Y-32118D01*
G54D13*
X46130Y-31020D02*
X46130Y-27840D01*
X46080Y-31020D02*
X46130Y-31020D01*
X44660Y-31020D02*
X46080Y-31020D01*
X38050Y-29210D02*
X38050Y-30960D01*
X38050Y-30960D02*
X39270Y-30960D01*
G54D14*
X39242Y-30073D02*
X39242Y-29273D01*
X39442Y-29845D01*
X39642Y-29273D01*
X39642Y-30073D01*
X39871Y-29540D02*
X40014Y-30073D01*
X40157Y-29540D02*
X40014Y-30073D01*
X39957Y-30264D01*
X39928Y-30302D01*
X39871Y-30340D01*
X40814Y-30035D02*
X40900Y-30073D01*
X41042Y-30073D01*
X41100Y-30035D01*
X41128Y-29997D01*
X41157Y-29921D01*
X41157Y-29845D01*
X41128Y-29769D01*
X41100Y-29730D01*
X41042Y-29692D01*
X40928Y-29654D01*
X40871Y-29616D01*
X40842Y-29578D01*
X40814Y-29502D01*
X40814Y-29426D01*
X40842Y-29350D01*
X40871Y-29311D01*
X40928Y-29273D01*
X41071Y-29273D01*
X41157Y-29311D01*
X41414Y-30073D02*
X41414Y-29273D01*
X41414Y-29654D02*
X41757Y-29654D01*
X41757Y-30073D02*
X41757Y-29273D01*
X42042Y-30073D02*
X42042Y-29273D01*
X42328Y-29654D02*
X42528Y-29654D01*
X42614Y-30073D02*
X42328Y-30073D01*
X42328Y-29273D01*
X42614Y-29273D01*
X43157Y-30073D02*
X42871Y-30073D01*
X42871Y-29273D01*
X43357Y-30073D02*
X43357Y-29273D01*
X43500Y-29273D01*
X43585Y-29311D01*
X43642Y-29388D01*
X43671Y-29464D01*
X43700Y-29616D01*
X43700Y-29730D01*
X43671Y-29883D01*
X43642Y-29959D01*
X43585Y-30035D01*
X43500Y-30073D01*
X43357Y-30073D01*
X44414Y-29997D02*
X44442Y-30035D01*
X44414Y-30073D01*
X44385Y-30035D01*
X44414Y-29997D01*
X44414Y-30073D01*
X44414Y-29578D02*
X44442Y-29616D01*
X44414Y-29654D01*
X44385Y-29616D01*
X44414Y-29578D01*
X44414Y-29654D01*
X44700Y-29769D02*
X45157Y-29769D01*
X45385Y-30378D02*
X45414Y-30340D01*
X45471Y-30226D01*
X45500Y-30150D01*
X45528Y-30035D01*
X45557Y-29845D01*
X45557Y-29692D01*
X45528Y-29502D01*
X45500Y-29388D01*
X45471Y-29311D01*
X45414Y-29197D01*
X45385Y-29159D01*
G54D13*
X46125Y-19920D02*
X46125Y-23960D01*
X44655Y-19920D02*
X46125Y-19920D01*
X38045Y-19915D02*
X39295Y-19915D01*
X38045Y-19950D02*
X38045Y-19915D01*
X38045Y-27995D02*
X38045Y-19950D01*
X38535Y-19915D02*
X39305Y-19915D01*
G54D14*
X39665Y-13300D02*
X39691Y-13221D01*
X39691Y-13090D01*
X39665Y-13038D01*
X39639Y-13011D01*
X39586Y-12985D01*
X39534Y-12985D01*
X39481Y-13011D01*
X39455Y-13038D01*
X39429Y-13090D01*
X39402Y-13195D01*
X39376Y-13248D01*
X39350Y-13274D01*
X39297Y-13300D01*
X39245Y-13300D01*
X39192Y-13274D01*
X39166Y-13248D01*
X39140Y-13195D01*
X39140Y-13064D01*
X39166Y-12985D01*
X39691Y-12749D02*
X39140Y-12749D01*
X39140Y-12539D01*
X39166Y-12486D01*
X39192Y-12460D01*
X39245Y-12434D01*
X39324Y-12434D01*
X39376Y-12460D01*
X39402Y-12486D01*
X39429Y-12539D01*
X39429Y-12749D01*
X39534Y-12224D02*
X39534Y-11961D01*
X39691Y-12276D02*
X39140Y-12093D01*
X39691Y-11909D01*
X39691Y-11410D02*
X39429Y-11594D01*
X39691Y-11725D02*
X39140Y-11725D01*
X39140Y-11515D01*
X39166Y-11463D01*
X39192Y-11437D01*
X39245Y-11410D01*
X39324Y-11410D01*
X39376Y-11437D01*
X39402Y-11463D01*
X39429Y-11515D01*
X39429Y-11725D01*
X39402Y-11174D02*
X39402Y-10990D01*
X39691Y-10912D02*
X39691Y-11174D01*
X39140Y-11174D01*
X39140Y-10912D01*
G54D15*
X37290Y-41391D02*
X37290Y-40918D01*
X37440Y-40918D01*
X37478Y-40941D01*
X37496Y-40963D01*
X37515Y-41008D01*
X37515Y-41076D01*
X37496Y-41121D01*
X37478Y-41143D01*
X37440Y-41166D01*
X37290Y-41166D01*
X37759Y-40918D02*
X37834Y-40918D01*
X37871Y-40941D01*
X37909Y-40986D01*
X37928Y-41076D01*
X37928Y-41233D01*
X37909Y-41323D01*
X37871Y-41368D01*
X37834Y-41391D01*
X37759Y-41391D01*
X37721Y-41368D01*
X37684Y-41323D01*
X37665Y-41233D01*
X37665Y-41076D01*
X37684Y-40986D01*
X37721Y-40941D01*
X37759Y-40918D01*
X38059Y-40918D02*
X38153Y-41391D01*
X38228Y-41053D01*
X38303Y-41391D01*
X38396Y-40918D01*
X38546Y-41143D02*
X38678Y-41143D01*
X38734Y-41391D02*
X38546Y-41391D01*
X38546Y-40918D01*
X38734Y-40918D01*
X39128Y-41391D02*
X38996Y-41166D01*
X38903Y-41391D02*
X38903Y-40918D01*
X39053Y-40918D01*
X39090Y-40941D01*
X39109Y-40963D01*
X39128Y-41008D01*
X39128Y-41076D01*
X39109Y-41121D01*
X39090Y-41143D01*
X39053Y-41166D01*
X38903Y-41166D01*
X42571Y-41143D02*
X42440Y-41143D01*
X42440Y-41391D02*
X42440Y-40918D01*
X42628Y-40918D01*
X42759Y-41256D02*
X42946Y-41256D01*
X42721Y-41391D02*
X42853Y-40918D01*
X42984Y-41391D01*
X43115Y-40918D02*
X43115Y-41301D01*
X43134Y-41346D01*
X43153Y-41368D01*
X43190Y-41391D01*
X43265Y-41391D01*
X43303Y-41368D01*
X43321Y-41346D01*
X43340Y-41301D01*
X43340Y-40918D01*
X43715Y-41391D02*
X43528Y-41391D01*
X43528Y-40918D01*
X43790Y-40918D02*
X44015Y-40918D01*
X43903Y-41391D02*
X43903Y-40918D01*
G54D13*
X39480Y-40150D02*
G75*
G03X39480Y-40150I-55J0D01*
G74*
G01*
X42080Y-40175D02*
G75*
G03X42080Y-40175I-55J0D01*
G74*
G01*
G54D14*
X28214Y-36785D02*
X28157Y-36823D01*
X28042Y-36823D01*
X27985Y-36785D01*
X27957Y-36747D01*
X27928Y-36671D01*
X27928Y-36442D01*
X27957Y-36366D01*
X27985Y-36328D01*
X28042Y-36290D01*
X28157Y-36290D01*
X28214Y-36328D01*
X28557Y-36823D02*
X28500Y-36785D01*
X28471Y-36747D01*
X28442Y-36671D01*
X28442Y-36442D01*
X28471Y-36366D01*
X28500Y-36328D01*
X28557Y-36290D01*
X28642Y-36290D01*
X28700Y-36328D01*
X28728Y-36366D01*
X28757Y-36442D01*
X28757Y-36671D01*
X28728Y-36747D01*
X28700Y-36785D01*
X28642Y-36823D01*
X28557Y-36823D01*
X29014Y-36290D02*
X29014Y-36823D01*
X29014Y-36366D02*
X29042Y-36328D01*
X29099Y-36290D01*
X29185Y-36290D01*
X29242Y-36328D01*
X29271Y-36404D01*
X29271Y-36823D01*
X29471Y-36290D02*
X29699Y-36290D01*
X29557Y-36023D02*
X29557Y-36709D01*
X29585Y-36785D01*
X29642Y-36823D01*
X29699Y-36823D01*
X29899Y-36823D02*
X29899Y-36290D01*
X29899Y-36442D02*
X29928Y-36366D01*
X29957Y-36328D01*
X30014Y-36290D01*
X30071Y-36290D01*
X30357Y-36823D02*
X30300Y-36785D01*
X30271Y-36747D01*
X30242Y-36671D01*
X30242Y-36442D01*
X30271Y-36366D01*
X30300Y-36328D01*
X30357Y-36290D01*
X30442Y-36290D01*
X30500Y-36328D01*
X30528Y-36366D01*
X30557Y-36442D01*
X30557Y-36671D01*
X30528Y-36747D01*
X30500Y-36785D01*
X30442Y-36823D01*
X30357Y-36823D01*
X30899Y-36823D02*
X30842Y-36785D01*
X30814Y-36709D01*
X30814Y-36023D01*
X31214Y-36823D02*
X31157Y-36785D01*
X31128Y-36709D01*
X31128Y-36023D01*
X31671Y-36785D02*
X31614Y-36823D01*
X31500Y-36823D01*
X31442Y-36785D01*
X31414Y-36709D01*
X31414Y-36404D01*
X31442Y-36328D01*
X31500Y-36290D01*
X31614Y-36290D01*
X31671Y-36328D01*
X31700Y-36404D01*
X31700Y-36480D01*
X31414Y-36557D01*
X31957Y-36823D02*
X31957Y-36290D01*
X31957Y-36442D02*
X31985Y-36366D01*
X32014Y-36328D01*
X32071Y-36290D01*
X32128Y-36290D01*
X28064Y-37985D02*
X28150Y-38023D01*
X28292Y-38023D01*
X28350Y-37985D01*
X28378Y-37947D01*
X28407Y-37871D01*
X28407Y-37795D01*
X28378Y-37719D01*
X28350Y-37680D01*
X28292Y-37642D01*
X28178Y-37604D01*
X28121Y-37566D01*
X28092Y-37528D01*
X28064Y-37452D01*
X28064Y-37376D01*
X28092Y-37300D01*
X28121Y-37261D01*
X28178Y-37223D01*
X28321Y-37223D01*
X28407Y-37261D01*
X28664Y-38023D02*
X28664Y-37223D01*
X28864Y-37795D01*
X29064Y-37223D01*
X29064Y-38023D01*
X29550Y-37604D02*
X29635Y-37642D01*
X29664Y-37680D01*
X29692Y-37757D01*
X29692Y-37871D01*
X29664Y-37947D01*
X29635Y-37985D01*
X29578Y-38023D01*
X29350Y-38023D01*
X29350Y-37223D01*
X29550Y-37223D01*
X29607Y-37261D01*
X29635Y-37300D01*
X29664Y-37376D01*
X29664Y-37452D01*
X29635Y-37528D01*
X29607Y-37566D01*
X29550Y-37604D01*
X29350Y-37604D01*
X30350Y-37490D02*
X30492Y-38023D01*
X30635Y-37490D01*
X30978Y-37223D02*
X31035Y-37223D01*
X31092Y-37261D01*
X31121Y-37300D01*
X31150Y-37376D01*
X31178Y-37528D01*
X31178Y-37719D01*
X31150Y-37871D01*
X31121Y-37947D01*
X31092Y-37985D01*
X31035Y-38023D01*
X30978Y-38023D01*
X30921Y-37985D01*
X30892Y-37947D01*
X30864Y-37871D01*
X30835Y-37719D01*
X30835Y-37528D01*
X30864Y-37376D01*
X30892Y-37300D01*
X30921Y-37261D01*
X30978Y-37223D01*
X31435Y-37947D02*
X31464Y-37985D01*
X31435Y-38023D01*
X31407Y-37985D01*
X31435Y-37947D01*
X31435Y-38023D01*
X31692Y-37300D02*
X31721Y-37261D01*
X31778Y-37223D01*
X31921Y-37223D01*
X31978Y-37261D01*
X32007Y-37300D01*
X32035Y-37376D01*
X32035Y-37452D01*
X32007Y-37566D01*
X31664Y-38023D01*
X32035Y-38023D01*
G54D13*
X36975Y-36550D02*
X36975Y-36250D01*
X38475Y-36550D02*
X38475Y-36250D01*
X36975Y-36550D02*
X38475Y-36550D01*
X36930Y-40125D02*
G75*
G03X36930Y-40125I-55J0D01*
G74*
G01*
X23854Y-38950D02*
G75*
G03X23854Y-38950I-79J0D01*
G74*
G01*
X34405Y-21625D02*
X34405Y-21825D01*
X33870Y-21805D02*
X33870Y-21605D01*
X34400Y-21825D02*
X33875Y-21825D01*
G54D14*
X48823Y-14906D02*
X48271Y-14906D01*
X48271Y-14775D01*
X48298Y-14696D01*
X48350Y-14644D01*
X48403Y-14618D01*
X48508Y-14591D01*
X48586Y-14591D01*
X48691Y-14618D01*
X48744Y-14644D01*
X48796Y-14696D01*
X48823Y-14775D01*
X48823Y-14906D01*
X48796Y-14381D02*
X48823Y-14303D01*
X48823Y-14171D01*
X48796Y-14119D01*
X48770Y-14093D01*
X48718Y-14066D01*
X48665Y-14066D01*
X48613Y-14093D01*
X48586Y-14119D01*
X48560Y-14171D01*
X48534Y-14276D01*
X48508Y-14329D01*
X48481Y-14355D01*
X48429Y-14381D01*
X48376Y-14381D01*
X48324Y-14355D01*
X48298Y-14329D01*
X48271Y-14276D01*
X48271Y-14145D01*
X48298Y-14066D01*
X47073Y-15438D02*
X47073Y-15018D01*
X47283Y-15228D02*
X46863Y-15228D01*
X46731Y-14493D02*
X46731Y-14756D01*
X46994Y-14782D01*
X46968Y-14756D01*
X46941Y-14703D01*
X46941Y-14572D01*
X46968Y-14520D01*
X46994Y-14493D01*
X47046Y-14467D01*
X47178Y-14467D01*
X47230Y-14493D01*
X47256Y-14520D01*
X47283Y-14572D01*
X47283Y-14703D01*
X47256Y-14756D01*
X47230Y-14782D01*
X46731Y-14310D02*
X47283Y-14126D01*
X46731Y-13942D01*
X49798Y-15069D02*
X49771Y-15122D01*
X49771Y-15201D01*
X49798Y-15279D01*
X49850Y-15332D01*
X49903Y-15358D01*
X50008Y-15384D01*
X50086Y-15384D01*
X50191Y-15358D01*
X50244Y-15332D01*
X50296Y-15279D01*
X50323Y-15201D01*
X50323Y-15148D01*
X50296Y-15069D01*
X50270Y-15043D01*
X50086Y-15043D01*
X50086Y-15148D01*
X50323Y-14807D02*
X49771Y-14807D01*
X50323Y-14492D01*
X49771Y-14492D01*
X50323Y-14230D02*
X49771Y-14230D01*
X49771Y-14098D01*
X49798Y-14020D01*
X49850Y-13967D01*
X49903Y-13941D01*
X50008Y-13915D01*
X50086Y-13915D01*
X50191Y-13941D01*
X50244Y-13967D01*
X50296Y-14020D01*
X50323Y-14098D01*
X50323Y-14230D01*
X45793Y-12821D02*
X45793Y-13136D01*
X45793Y-12979D02*
X45242Y-12979D01*
X45321Y-13031D01*
X45374Y-13083D01*
X45400Y-13136D01*
X45242Y-12637D02*
X45793Y-12506D01*
X45400Y-12401D01*
X45793Y-12296D01*
X45242Y-12165D01*
X45793Y-11955D02*
X45242Y-11955D01*
X45793Y-11377D02*
X45531Y-11561D01*
X45793Y-11692D02*
X45242Y-11692D01*
X45242Y-11482D01*
X45269Y-11430D01*
X45295Y-11404D01*
X45347Y-11377D01*
X45426Y-11377D01*
X45479Y-11404D01*
X45505Y-11430D01*
X45531Y-11482D01*
X45531Y-11692D01*
X45505Y-11141D02*
X45505Y-10958D01*
X45793Y-10879D02*
X45793Y-11141D01*
X45242Y-11141D01*
X45242Y-10879D01*
X35014Y-37154D02*
X34814Y-37154D01*
X34814Y-37573D02*
X34814Y-36773D01*
X35100Y-36773D01*
X35671Y-37573D02*
X35471Y-37192D01*
X35328Y-37573D02*
X35328Y-36773D01*
X35557Y-36773D01*
X35614Y-36811D01*
X35642Y-36850D01*
X35671Y-36926D01*
X35671Y-37040D01*
X35642Y-37116D01*
X35614Y-37154D01*
X35557Y-37192D01*
X35328Y-37192D01*
X36042Y-36773D02*
X36157Y-36773D01*
X36214Y-36811D01*
X36271Y-36888D01*
X36300Y-37040D01*
X36300Y-37307D01*
X36271Y-37459D01*
X36214Y-37535D01*
X36157Y-37573D01*
X36042Y-37573D01*
X35985Y-37535D01*
X35928Y-37459D01*
X35900Y-37307D01*
X35900Y-37040D01*
X35928Y-36888D01*
X35985Y-36811D01*
X36042Y-36773D01*
X36557Y-37573D02*
X36557Y-36773D01*
X36900Y-37573D01*
X36900Y-36773D01*
X37100Y-36773D02*
X37442Y-36773D01*
X37271Y-37573D02*
X37271Y-36773D01*
X38100Y-37573D02*
X38100Y-36773D01*
X38328Y-36773D01*
X38385Y-36811D01*
X38414Y-36850D01*
X38442Y-36926D01*
X38442Y-37040D01*
X38414Y-37116D01*
X38385Y-37154D01*
X38328Y-37192D01*
X38100Y-37192D01*
X38671Y-37345D02*
X38957Y-37345D01*
X38614Y-37573D02*
X38814Y-36773D01*
X39014Y-37573D01*
X39214Y-37573D02*
X39214Y-36773D01*
X39557Y-37573D01*
X39557Y-36773D01*
X39842Y-37154D02*
X40042Y-37154D01*
X40128Y-37573D02*
X39842Y-37573D01*
X39842Y-36773D01*
X40128Y-36773D01*
X40671Y-37573D02*
X40385Y-37573D01*
X40385Y-36773D01*
X33687Y-12985D02*
X33425Y-13169D01*
X33687Y-13300D02*
X33136Y-13300D01*
X33136Y-13090D01*
X33162Y-13038D01*
X33188Y-13011D01*
X33241Y-12985D01*
X33320Y-12985D01*
X33372Y-13011D01*
X33398Y-13038D01*
X33425Y-13090D01*
X33425Y-13300D01*
X33661Y-12775D02*
X33687Y-12696D01*
X33687Y-12565D01*
X33661Y-12513D01*
X33635Y-12486D01*
X33582Y-12460D01*
X33530Y-12460D01*
X33477Y-12486D01*
X33451Y-12513D01*
X33425Y-12565D01*
X33398Y-12670D01*
X33372Y-12723D01*
X33346Y-12749D01*
X33293Y-12775D01*
X33241Y-12775D01*
X33188Y-12749D01*
X33162Y-12723D01*
X33136Y-12670D01*
X33136Y-12539D01*
X33162Y-12460D01*
X33320Y-11988D02*
X33687Y-11988D01*
X33110Y-12119D02*
X33503Y-12250D01*
X33503Y-11909D01*
X33372Y-11620D02*
X33346Y-11673D01*
X33320Y-11699D01*
X33267Y-11725D01*
X33241Y-11725D01*
X33188Y-11699D01*
X33162Y-11673D01*
X33136Y-11620D01*
X33136Y-11515D01*
X33162Y-11463D01*
X33188Y-11437D01*
X33241Y-11410D01*
X33267Y-11410D01*
X33320Y-11437D01*
X33346Y-11463D01*
X33372Y-11515D01*
X33372Y-11620D01*
X33398Y-11673D01*
X33425Y-11699D01*
X33477Y-11725D01*
X33582Y-11725D01*
X33635Y-11699D01*
X33661Y-11673D01*
X33687Y-11620D01*
X33687Y-11515D01*
X33661Y-11463D01*
X33635Y-11437D01*
X33582Y-11410D01*
X33477Y-11410D01*
X33425Y-11437D01*
X33398Y-11463D01*
X33372Y-11515D01*
X33136Y-10912D02*
X33136Y-11174D01*
X33398Y-11200D01*
X33372Y-11174D01*
X33346Y-11122D01*
X33346Y-10990D01*
X33372Y-10938D01*
X33398Y-10912D01*
X33451Y-10885D01*
X33582Y-10885D01*
X33635Y-10912D01*
X33661Y-10938D01*
X33687Y-10990D01*
X33687Y-11122D01*
X33661Y-11174D01*
X33635Y-11200D01*
X33171Y-18797D02*
X33171Y-18482D01*
X33723Y-18639D02*
X33171Y-18639D01*
X33434Y-18298D02*
X33434Y-18114D01*
X33723Y-18036D02*
X33723Y-18298D01*
X33171Y-18298D01*
X33171Y-18036D01*
X33723Y-17485D02*
X33460Y-17668D01*
X33723Y-17800D02*
X33171Y-17800D01*
X33171Y-17590D01*
X33198Y-17537D01*
X33224Y-17511D01*
X33276Y-17485D01*
X33355Y-17485D01*
X33408Y-17511D01*
X33434Y-17537D01*
X33460Y-17590D01*
X33460Y-17800D01*
X33723Y-17248D02*
X33171Y-17248D01*
X33565Y-17065D01*
X33171Y-16881D01*
X33723Y-16881D01*
X37591Y-15085D02*
X37565Y-15137D01*
X37565Y-15216D01*
X37591Y-15295D01*
X37644Y-15347D01*
X37696Y-15374D01*
X37801Y-15400D01*
X37880Y-15400D01*
X37985Y-15374D01*
X38038Y-15347D01*
X38090Y-15295D01*
X38116Y-15216D01*
X38116Y-15164D01*
X38090Y-15085D01*
X38064Y-15059D01*
X37880Y-15059D01*
X37880Y-15164D01*
X38116Y-14822D02*
X37565Y-14822D01*
X38116Y-14507D01*
X37565Y-14507D01*
X38116Y-14245D02*
X37565Y-14245D01*
X37565Y-14114D01*
X37591Y-14035D01*
X37644Y-13982D01*
X37696Y-13956D01*
X37801Y-13930D01*
X37880Y-13930D01*
X37985Y-13956D01*
X38038Y-13982D01*
X38090Y-14035D01*
X38116Y-14114D01*
X38116Y-14245D01*
X36089Y-15328D02*
X36089Y-15013D01*
X36640Y-15170D02*
X36089Y-15170D01*
X36089Y-14881D02*
X36640Y-14514D01*
X36089Y-14514D02*
X36640Y-14881D01*
X36430Y-14304D02*
X36430Y-13884D01*
G54D13*
X23600Y-12170D02*
X23220Y-12550D01*
X23600Y-12175D02*
X23975Y-12550D01*
X23600Y-13550D02*
X23600Y-12250D01*
G54D14*
X23746Y-15668D02*
X23773Y-15589D01*
X23773Y-15458D01*
X23746Y-15406D01*
X23720Y-15379D01*
X23668Y-15353D01*
X23615Y-15353D01*
X23563Y-15379D01*
X23536Y-15406D01*
X23510Y-15458D01*
X23484Y-15563D01*
X23458Y-15616D01*
X23431Y-15642D01*
X23379Y-15668D01*
X23326Y-15668D01*
X23274Y-15642D01*
X23248Y-15616D01*
X23221Y-15563D01*
X23221Y-15432D01*
X23248Y-15353D01*
X23773Y-15038D02*
X23746Y-15091D01*
X23694Y-15117D01*
X23221Y-15117D01*
X23773Y-14828D02*
X23405Y-14828D01*
X23221Y-14828D02*
X23248Y-14854D01*
X23274Y-14828D01*
X23248Y-14802D01*
X23221Y-14828D01*
X23274Y-14828D01*
X23773Y-14330D02*
X23221Y-14330D01*
X23746Y-14330D02*
X23773Y-14382D01*
X23773Y-14487D01*
X23746Y-14540D01*
X23720Y-14566D01*
X23668Y-14592D01*
X23510Y-14592D01*
X23458Y-14566D01*
X23431Y-14540D01*
X23405Y-14487D01*
X23405Y-14382D01*
X23431Y-14330D01*
X23746Y-13857D02*
X23773Y-13910D01*
X23773Y-14015D01*
X23746Y-14067D01*
X23694Y-14093D01*
X23484Y-14093D01*
X23431Y-14067D01*
X23405Y-14015D01*
X23405Y-13910D01*
X23431Y-13857D01*
X23484Y-13831D01*
X23536Y-13831D01*
X23589Y-14093D01*
X31023Y-15109D02*
X30471Y-15109D01*
X30865Y-14925D01*
X30471Y-14741D01*
X31023Y-14741D01*
X31023Y-14479D02*
X30655Y-14479D01*
X30471Y-14479D02*
X30498Y-14505D01*
X30524Y-14479D01*
X30498Y-14453D01*
X30471Y-14479D01*
X30524Y-14479D01*
X30996Y-13980D02*
X31023Y-14033D01*
X31023Y-14138D01*
X30996Y-14190D01*
X30970Y-14216D01*
X30918Y-14243D01*
X30760Y-14243D01*
X30708Y-14216D01*
X30681Y-14190D01*
X30655Y-14138D01*
X30655Y-14033D01*
X30681Y-13980D01*
X31023Y-13744D02*
X30655Y-13744D01*
X30760Y-13744D02*
X30708Y-13718D01*
X30681Y-13691D01*
X30655Y-13639D01*
X30655Y-13586D01*
X31023Y-13324D02*
X30996Y-13376D01*
X30970Y-13403D01*
X30918Y-13429D01*
X30760Y-13429D01*
X30708Y-13403D01*
X30681Y-13376D01*
X30655Y-13324D01*
X30655Y-13245D01*
X30681Y-13193D01*
X30708Y-13166D01*
X30760Y-13140D01*
X30918Y-13140D01*
X30970Y-13166D01*
X30996Y-13193D01*
X31023Y-13245D01*
X31023Y-13324D01*
X30996Y-12930D02*
X31023Y-12851D01*
X31023Y-12720D01*
X30996Y-12668D01*
X30970Y-12641D01*
X30918Y-12615D01*
X30865Y-12615D01*
X30813Y-12641D01*
X30786Y-12668D01*
X30760Y-12720D01*
X30734Y-12825D01*
X30708Y-12878D01*
X30681Y-12904D01*
X30629Y-12930D01*
X30576Y-12930D01*
X30524Y-12904D01*
X30498Y-12878D01*
X30471Y-12825D01*
X30471Y-12694D01*
X30498Y-12615D01*
X31023Y-12379D02*
X30471Y-12379D01*
X30471Y-12248D01*
X30498Y-12169D01*
X30550Y-12117D01*
X30603Y-12090D01*
X30708Y-12064D01*
X30786Y-12064D01*
X30891Y-12090D01*
X30944Y-12117D01*
X30996Y-12169D01*
X31023Y-12248D01*
X31023Y-12379D01*
X21884Y-15389D02*
X21884Y-15206D01*
X22173Y-15127D02*
X22173Y-15389D01*
X21621Y-15389D01*
X21621Y-15127D01*
X21621Y-14969D02*
X21621Y-14654D01*
X22173Y-14812D02*
X21621Y-14812D01*
X22173Y-14471D02*
X21621Y-14471D01*
X21884Y-14471D02*
X21884Y-14156D01*
X22173Y-14156D02*
X21621Y-14156D01*
X21884Y-13893D02*
X21884Y-13709D01*
X22173Y-13631D02*
X22173Y-13893D01*
X21621Y-13893D01*
X21621Y-13631D01*
X22173Y-13080D02*
X21910Y-13263D01*
X22173Y-13395D02*
X21621Y-13395D01*
X21621Y-13185D01*
X21648Y-13132D01*
X21674Y-13106D01*
X21726Y-13080D01*
X21805Y-13080D01*
X21858Y-13106D01*
X21884Y-13132D01*
X21910Y-13185D01*
X21910Y-13395D01*
X22173Y-12843D02*
X21621Y-12843D01*
X22173Y-12528D01*
X21621Y-12528D01*
X21884Y-12266D02*
X21884Y-12082D01*
X22173Y-12003D02*
X22173Y-12266D01*
X21621Y-12266D01*
X21621Y-12003D01*
X21621Y-11846D02*
X21621Y-11531D01*
X22173Y-11688D02*
X21621Y-11688D01*
G54D15*
X14868Y-36018D02*
X15000Y-36491D01*
X15131Y-36018D01*
X15262Y-36491D02*
X15262Y-36018D01*
X15449Y-36491D02*
X15449Y-36018D01*
X15674Y-36491D01*
X15674Y-36018D01*
X17099Y-36828D02*
X17118Y-36851D01*
X17156Y-36918D01*
X17174Y-36963D01*
X17193Y-37031D01*
X17212Y-37143D01*
X17212Y-37233D01*
X17193Y-37346D01*
X17174Y-37413D01*
X17156Y-37458D01*
X17118Y-37526D01*
X17099Y-37548D01*
X16949Y-37188D02*
X16650Y-37188D01*
X16500Y-36828D02*
X16481Y-36851D01*
X16443Y-36918D01*
X16425Y-36963D01*
X16406Y-37031D01*
X16387Y-37143D01*
X16387Y-37233D01*
X16406Y-37346D01*
X16425Y-37413D01*
X16443Y-37458D01*
X16481Y-37526D01*
X16500Y-37548D01*
X13899Y-36878D02*
X13918Y-36901D01*
X13956Y-36968D01*
X13974Y-37013D01*
X13993Y-37081D01*
X14012Y-37193D01*
X14012Y-37283D01*
X13993Y-37396D01*
X13974Y-37463D01*
X13956Y-37508D01*
X13918Y-37576D01*
X13899Y-37598D01*
X13749Y-37238D02*
X13450Y-37238D01*
X13599Y-37058D02*
X13599Y-37418D01*
X13300Y-36878D02*
X13281Y-36901D01*
X13243Y-36968D01*
X13225Y-37013D01*
X13206Y-37081D01*
X13187Y-37193D01*
X13187Y-37283D01*
X13206Y-37396D01*
X13225Y-37463D01*
X13243Y-37508D01*
X13281Y-37576D01*
X13300Y-37598D01*
X16835Y-43487D02*
X16854Y-43509D01*
X16891Y-43577D01*
X16910Y-43622D01*
X16929Y-43689D01*
X16947Y-43802D01*
X16947Y-43892D01*
X16929Y-44004D01*
X16910Y-44071D01*
X16891Y-44116D01*
X16854Y-44184D01*
X16835Y-44206D01*
X16685Y-43847D02*
X16385Y-43847D01*
X16235Y-43487D02*
X16216Y-43509D01*
X16179Y-43577D01*
X16160Y-43622D01*
X16141Y-43689D01*
X16122Y-43802D01*
X16122Y-43892D01*
X16141Y-44004D01*
X16160Y-44071D01*
X16179Y-44116D01*
X16216Y-44184D01*
X16235Y-44206D01*
X15339Y-43487D02*
X15358Y-43509D01*
X15395Y-43577D01*
X15414Y-43622D01*
X15433Y-43689D01*
X15451Y-43802D01*
X15451Y-43892D01*
X15433Y-44004D01*
X15414Y-44071D01*
X15395Y-44116D01*
X15358Y-44184D01*
X15339Y-44206D01*
X15189Y-43847D02*
X14889Y-43847D01*
X15039Y-43667D02*
X15039Y-44026D01*
X14739Y-43487D02*
X14720Y-43509D01*
X14683Y-43577D01*
X14664Y-43622D01*
X14645Y-43689D01*
X14626Y-43802D01*
X14626Y-43892D01*
X14645Y-44004D01*
X14664Y-44071D01*
X14683Y-44116D01*
X14720Y-44184D01*
X14739Y-44206D01*
X16799Y-40478D02*
X16818Y-40501D01*
X16856Y-40568D01*
X16874Y-40613D01*
X16893Y-40681D01*
X16912Y-40793D01*
X16912Y-40883D01*
X16893Y-40996D01*
X16874Y-41063D01*
X16856Y-41108D01*
X16818Y-41176D01*
X16799Y-41198D01*
X16649Y-40838D02*
X16350Y-40838D01*
X16200Y-40478D02*
X16181Y-40501D01*
X16143Y-40568D01*
X16125Y-40613D01*
X16106Y-40681D01*
X16087Y-40793D01*
X16087Y-40883D01*
X16106Y-40996D01*
X16125Y-41063D01*
X16143Y-41108D01*
X16181Y-41176D01*
X16200Y-41198D01*
X15249Y-40428D02*
X15268Y-40451D01*
X15306Y-40518D01*
X15324Y-40563D01*
X15343Y-40631D01*
X15362Y-40743D01*
X15362Y-40833D01*
X15343Y-40946D01*
X15324Y-41013D01*
X15306Y-41058D01*
X15268Y-41126D01*
X15249Y-41148D01*
X15099Y-40788D02*
X14800Y-40788D01*
X14949Y-40608D02*
X14949Y-40968D01*
X14650Y-40428D02*
X14631Y-40451D01*
X14593Y-40518D01*
X14575Y-40563D01*
X14556Y-40631D01*
X14537Y-40743D01*
X14537Y-40833D01*
X14556Y-40946D01*
X14575Y-41013D01*
X14593Y-41058D01*
X14631Y-41126D01*
X14650Y-41148D01*
X13791Y-43609D02*
X13318Y-43609D01*
X13318Y-43459D01*
X13341Y-43421D01*
X13363Y-43403D01*
X13408Y-43384D01*
X13476Y-43384D01*
X13521Y-43403D01*
X13543Y-43421D01*
X13566Y-43459D01*
X13566Y-43609D01*
X13318Y-43140D02*
X13318Y-43065D01*
X13341Y-43028D01*
X13386Y-42990D01*
X13476Y-42971D01*
X13633Y-42971D01*
X13723Y-42990D01*
X13768Y-43028D01*
X13791Y-43065D01*
X13791Y-43140D01*
X13768Y-43178D01*
X13723Y-43215D01*
X13633Y-43234D01*
X13476Y-43234D01*
X13386Y-43215D01*
X13341Y-43178D01*
X13318Y-43140D01*
X13318Y-42840D02*
X13791Y-42746D01*
X13453Y-42671D01*
X13791Y-42596D01*
X13318Y-42503D01*
X13543Y-42353D02*
X13543Y-42221D01*
X13791Y-42165D02*
X13791Y-42353D01*
X13318Y-42353D01*
X13318Y-42165D01*
X13791Y-41771D02*
X13566Y-41903D01*
X13791Y-41996D02*
X13318Y-41996D01*
X13318Y-41846D01*
X13341Y-41809D01*
X13363Y-41790D01*
X13408Y-41771D01*
X13476Y-41771D01*
X13521Y-41790D01*
X13543Y-41809D01*
X13566Y-41846D01*
X13566Y-41996D01*
X39725Y-41368D02*
X39781Y-41391D01*
X39875Y-41391D01*
X39912Y-41368D01*
X39931Y-41346D01*
X39950Y-41301D01*
X39950Y-41256D01*
X39931Y-41211D01*
X39912Y-41188D01*
X39875Y-41166D01*
X39800Y-41143D01*
X39762Y-41121D01*
X39743Y-41098D01*
X39725Y-41053D01*
X39725Y-41008D01*
X39743Y-40963D01*
X39762Y-40941D01*
X39800Y-40918D01*
X39893Y-40918D01*
X39950Y-40941D01*
X40062Y-40918D02*
X40287Y-40918D01*
X40175Y-41391D02*
X40175Y-40918D01*
X40400Y-41256D02*
X40587Y-41256D01*
X40362Y-41391D02*
X40493Y-40918D01*
X40625Y-41391D01*
X40700Y-40918D02*
X40924Y-40918D01*
X40812Y-41391D02*
X40812Y-40918D01*
X41056Y-40918D02*
X41056Y-41301D01*
X41074Y-41346D01*
X41093Y-41368D01*
X41131Y-41391D01*
X41206Y-41391D01*
X41243Y-41368D01*
X41262Y-41346D01*
X41281Y-41301D01*
X41281Y-40918D01*
X41449Y-41368D02*
X41506Y-41391D01*
X41599Y-41391D01*
X41637Y-41368D01*
X41656Y-41346D01*
X41674Y-41301D01*
X41674Y-41256D01*
X41656Y-41211D01*
X41637Y-41188D01*
X41599Y-41166D01*
X41524Y-41143D01*
X41487Y-41121D01*
X41468Y-41098D01*
X41449Y-41053D01*
X41449Y-41008D01*
X41468Y-40963D01*
X41487Y-40941D01*
X41524Y-40918D01*
X41618Y-40918D01*
X41674Y-40941D01*
X29328Y-43791D02*
X29196Y-43566D01*
X29103Y-43791D02*
X29103Y-43318D01*
X29253Y-43318D01*
X29290Y-43341D01*
X29309Y-43363D01*
X29328Y-43408D01*
X29328Y-43476D01*
X29309Y-43521D01*
X29290Y-43543D01*
X29253Y-43566D01*
X29103Y-43566D01*
X29496Y-43543D02*
X29628Y-43543D01*
X29684Y-43791D02*
X29496Y-43791D01*
X29496Y-43318D01*
X29684Y-43318D01*
X29834Y-43768D02*
X29890Y-43791D01*
X29984Y-43791D01*
X30021Y-43768D01*
X30040Y-43746D01*
X30059Y-43701D01*
X30059Y-43656D01*
X30040Y-43611D01*
X30021Y-43588D01*
X29984Y-43566D01*
X29909Y-43543D01*
X29871Y-43521D01*
X29853Y-43498D01*
X29834Y-43453D01*
X29834Y-43408D01*
X29853Y-43363D01*
X29871Y-43341D01*
X29909Y-43318D01*
X30003Y-43318D01*
X30059Y-43341D01*
X30228Y-43543D02*
X30359Y-43543D01*
X30415Y-43791D02*
X30228Y-43791D01*
X30228Y-43318D01*
X30415Y-43318D01*
X30528Y-43318D02*
X30753Y-43318D01*
X30640Y-43791D02*
X30640Y-43318D01*
X34643Y-40456D02*
X34831Y-40456D01*
X34606Y-40591D02*
X34737Y-40118D01*
X34868Y-40591D01*
X35000Y-40118D02*
X35000Y-40501D01*
X35018Y-40546D01*
X35037Y-40568D01*
X35075Y-40591D01*
X35150Y-40591D01*
X35187Y-40568D01*
X35206Y-40546D01*
X35225Y-40501D01*
X35225Y-40118D01*
X35356Y-40118D02*
X35581Y-40118D01*
X35468Y-40591D02*
X35468Y-40118D01*
X35787Y-40118D02*
X35862Y-40118D01*
X35899Y-40141D01*
X35937Y-40186D01*
X35956Y-40276D01*
X35956Y-40433D01*
X35937Y-40523D01*
X35899Y-40568D01*
X35862Y-40591D01*
X35787Y-40591D01*
X35749Y-40568D01*
X35712Y-40523D01*
X35693Y-40433D01*
X35693Y-40276D01*
X35712Y-40186D01*
X35749Y-40141D01*
X35787Y-40118D01*
X34728Y-41331D02*
X34596Y-41106D01*
X34503Y-41331D02*
X34503Y-40858D01*
X34653Y-40858D01*
X34690Y-40881D01*
X34709Y-40903D01*
X34728Y-40948D01*
X34728Y-41016D01*
X34709Y-41061D01*
X34690Y-41083D01*
X34653Y-41106D01*
X34503Y-41106D01*
X34896Y-41083D02*
X35028Y-41083D01*
X35084Y-41331D02*
X34896Y-41331D01*
X34896Y-40858D01*
X35084Y-40858D01*
X35234Y-41308D02*
X35290Y-41331D01*
X35384Y-41331D01*
X35421Y-41308D01*
X35440Y-41286D01*
X35459Y-41241D01*
X35459Y-41196D01*
X35440Y-41151D01*
X35421Y-41128D01*
X35384Y-41106D01*
X35309Y-41083D01*
X35271Y-41061D01*
X35253Y-41038D01*
X35234Y-40993D01*
X35234Y-40948D01*
X35253Y-40903D01*
X35271Y-40881D01*
X35309Y-40858D01*
X35403Y-40858D01*
X35459Y-40881D01*
X35628Y-41083D02*
X35759Y-41083D01*
X35815Y-41331D02*
X35628Y-41331D01*
X35628Y-40858D01*
X35815Y-40858D01*
X35928Y-40858D02*
X36153Y-40858D01*
X36040Y-41331D02*
X36040Y-40858D01*
G54D14*
X37375Y-43897D02*
X37454Y-43923D01*
X37585Y-43923D01*
X37637Y-43897D01*
X37664Y-43871D01*
X37690Y-43818D01*
X37690Y-43766D01*
X37664Y-43713D01*
X37637Y-43687D01*
X37585Y-43661D01*
X37480Y-43635D01*
X37427Y-43608D01*
X37401Y-43582D01*
X37375Y-43530D01*
X37375Y-43477D01*
X37401Y-43425D01*
X37427Y-43398D01*
X37480Y-43372D01*
X37611Y-43372D01*
X37690Y-43398D01*
X37926Y-43635D02*
X38110Y-43635D01*
X38188Y-43923D02*
X37926Y-43923D01*
X37926Y-43372D01*
X38188Y-43372D01*
X38740Y-43923D02*
X38556Y-43661D01*
X38425Y-43923D02*
X38425Y-43372D01*
X38635Y-43372D01*
X38687Y-43398D01*
X38713Y-43425D01*
X38740Y-43477D01*
X38740Y-43556D01*
X38713Y-43608D01*
X38687Y-43635D01*
X38635Y-43661D01*
X38425Y-43661D01*
X38976Y-43923D02*
X38976Y-43372D01*
X39212Y-43766D02*
X39475Y-43766D01*
X39160Y-43923D02*
X39343Y-43372D01*
X39527Y-43923D01*
X39973Y-43923D02*
X39711Y-43923D01*
X39711Y-43372D01*
X40892Y-43923D02*
X40708Y-43661D01*
X40577Y-43923D02*
X40577Y-43372D01*
X40787Y-43372D01*
X40839Y-43398D01*
X40866Y-43425D01*
X40892Y-43477D01*
X40892Y-43556D01*
X40866Y-43608D01*
X40839Y-43635D01*
X40787Y-43661D01*
X40577Y-43661D01*
X41128Y-43635D02*
X41312Y-43635D01*
X41391Y-43923D02*
X41128Y-43923D01*
X41128Y-43372D01*
X41391Y-43372D01*
X41627Y-43923D02*
X41627Y-43372D01*
X41837Y-43372D01*
X41889Y-43398D01*
X41916Y-43425D01*
X41942Y-43477D01*
X41942Y-43556D01*
X41916Y-43608D01*
X41889Y-43635D01*
X41837Y-43661D01*
X41627Y-43661D01*
X42493Y-43923D02*
X42309Y-43661D01*
X42178Y-43923D02*
X42178Y-43372D01*
X42388Y-43372D01*
X42440Y-43398D01*
X42467Y-43425D01*
X42493Y-43477D01*
X42493Y-43556D01*
X42467Y-43608D01*
X42440Y-43635D01*
X42388Y-43661D01*
X42178Y-43661D01*
X42834Y-43372D02*
X42939Y-43372D01*
X42992Y-43398D01*
X43044Y-43451D01*
X43070Y-43556D01*
X43070Y-43740D01*
X43044Y-43845D01*
X42992Y-43897D01*
X42939Y-43923D01*
X42834Y-43923D01*
X42782Y-43897D01*
X42729Y-43845D01*
X42703Y-43740D01*
X42703Y-43556D01*
X42729Y-43451D01*
X42782Y-43398D01*
X42834Y-43372D01*
X43595Y-43398D02*
X43543Y-43372D01*
X43464Y-43372D01*
X43385Y-43398D01*
X43333Y-43451D01*
X43307Y-43503D01*
X43280Y-43608D01*
X43280Y-43687D01*
X43307Y-43792D01*
X43333Y-43845D01*
X43385Y-43897D01*
X43464Y-43923D01*
X43517Y-43923D01*
X43595Y-43897D01*
X43622Y-43871D01*
X43622Y-43687D01*
X43517Y-43687D01*
X43858Y-43871D02*
X43884Y-43897D01*
X43858Y-43923D01*
X43832Y-43897D01*
X43858Y-43871D01*
X43858Y-43923D01*
X44973Y-42701D02*
X44421Y-42701D01*
X44474Y-42464D02*
X44448Y-42438D01*
X44421Y-42386D01*
X44421Y-42254D01*
X44448Y-42202D01*
X44474Y-42176D01*
X44526Y-42149D01*
X44579Y-42149D01*
X44658Y-42176D01*
X44973Y-42491D01*
X44973Y-42149D01*
X44920Y-41598D02*
X44946Y-41624D01*
X44973Y-41703D01*
X44973Y-41756D01*
X44946Y-41834D01*
X44894Y-41887D01*
X44841Y-41913D01*
X44736Y-41939D01*
X44658Y-41939D01*
X44553Y-41913D01*
X44500Y-41887D01*
X44448Y-41834D01*
X44421Y-41756D01*
X44421Y-41703D01*
X44448Y-41624D01*
X44474Y-41598D01*
X44684Y-40942D02*
X44684Y-40758D01*
X44973Y-40680D02*
X44973Y-40942D01*
X44421Y-40942D01*
X44421Y-40680D01*
X44421Y-40496D02*
X44973Y-40128D01*
X44421Y-40128D02*
X44973Y-40496D01*
X44421Y-39997D02*
X44421Y-39682D01*
X44973Y-39840D02*
X44421Y-39840D01*
X44920Y-39498D02*
X44946Y-39472D01*
X44973Y-39498D01*
X44946Y-39525D01*
X44920Y-39498D01*
X44973Y-39498D01*
X49507Y-30773D02*
X49307Y-30392D01*
X49164Y-30773D02*
X49164Y-29973D01*
X49392Y-29973D01*
X49450Y-30011D01*
X49478Y-30050D01*
X49507Y-30126D01*
X49507Y-30240D01*
X49478Y-30316D01*
X49450Y-30354D01*
X49392Y-30392D01*
X49164Y-30392D01*
X49678Y-29973D02*
X50021Y-29973D01*
X49850Y-30773D02*
X49850Y-29973D01*
X50564Y-30697D02*
X50535Y-30735D01*
X50450Y-30773D01*
X50392Y-30773D01*
X50307Y-30735D01*
X50250Y-30659D01*
X50221Y-30583D01*
X50192Y-30430D01*
X50192Y-30316D01*
X50221Y-30164D01*
X50250Y-30088D01*
X50307Y-30011D01*
X50392Y-29973D01*
X50450Y-29973D01*
X50535Y-30011D01*
X50564Y-30050D01*
G54D13*
X52362Y-44488D02*
X12992Y-44488D01*
X52362Y-10629D02*
X52362Y-44488D01*
X52362Y-10629D02*
X12992Y-10629D01*
X12992Y-44488D02*
X12992Y-10629D01*
G54D16*
X30085Y-12139D02*
X29612Y-12139D01*
X29612Y-12139D02*
X29612Y-13793D01*
X29612Y-13793D02*
X30085Y-13793D01*
X30085Y-13793D02*
X30085Y-12139D01*
X24219Y-12139D02*
X24967Y-12139D01*
X24967Y-12139D02*
X24967Y-13793D01*
X24967Y-13793D02*
X24219Y-13793D01*
X24219Y-13793D02*
X24219Y-12139D01*
G54D17*
X24533Y-16785D02*
X24533Y-11115D01*
X24533Y-11115D02*
X29967Y-11115D01*
X29967Y-11115D02*
X29967Y-16785D01*
X29967Y-16785D02*
X24533Y-16785D01*
G54D18*
X32017Y-27138D02*
X31867Y-27138D01*
X30717Y-27138D02*
X30867Y-27138D01*
X30717Y-31038D02*
X30867Y-31038D01*
X32017Y-31038D02*
X31867Y-31038D01*
X32367Y-31338D02*
X31867Y-31338D01*
X30367Y-31338D02*
X30867Y-31338D01*
X30367Y-26838D02*
X30867Y-26838D01*
X32367Y-26838D02*
X31867Y-26838D01*
X30717Y-27138D02*
X30467Y-27388D01*
X30467Y-27388D02*
X30467Y-30788D01*
X30467Y-30788D02*
X30717Y-31038D01*
X32017Y-31038D02*
X32267Y-30788D01*
X32267Y-30788D02*
X32267Y-27388D01*
X32267Y-27388D02*
X32017Y-27138D01*
X30367Y-31338D02*
X30367Y-26838D01*
X32367Y-26838D02*
X32367Y-31338D01*
G54D14*
X37195Y-26331D02*
X37195Y-30271D01*
X37195Y-30271D02*
X33255Y-30271D01*
X33255Y-26521D02*
X33255Y-30271D01*
X33445Y-26331D02*
X37195Y-26331D01*
X33255Y-26521D02*
X33445Y-26331D01*
G54D18*
X33975Y-26801D02*
G75*
G03X33975Y-26801I-250J0D01*
G74*
G01*
G54D19*
X49100Y-24300D02*
X48200Y-24300D01*
X48200Y-24300D02*
X48200Y-24950D01*
X49100Y-25650D02*
X49100Y-26300D01*
X49100Y-26300D02*
X48200Y-26300D01*
X48200Y-26300D02*
X48200Y-25650D01*
X49100Y-24950D02*
X49100Y-24300D01*
X48200Y-28700D02*
X49100Y-28700D01*
X49100Y-28700D02*
X49100Y-28050D01*
X48200Y-27350D02*
X48200Y-26700D01*
X48200Y-26700D02*
X49100Y-26700D01*
X49100Y-26700D02*
X49100Y-27350D01*
X48200Y-28050D02*
X48200Y-28700D01*
X34780Y-23094D02*
X33880Y-23094D01*
X33880Y-23094D02*
X33880Y-23744D01*
X34780Y-24444D02*
X34780Y-25094D01*
X34780Y-25094D02*
X33880Y-25094D01*
X33880Y-25094D02*
X33880Y-24444D01*
X34780Y-23744D02*
X34780Y-23094D01*
X35929Y-23959D02*
X35929Y-24859D01*
X35929Y-24859D02*
X36579Y-24859D01*
X37279Y-23959D02*
X37929Y-23959D01*
X37929Y-23959D02*
X37929Y-24859D01*
X37929Y-24859D02*
X37279Y-24859D01*
X36579Y-23959D02*
X35929Y-23959D01*
X42200Y-38250D02*
X42200Y-39150D01*
X42200Y-39150D02*
X42850Y-39150D01*
X43550Y-38250D02*
X44200Y-38250D01*
X44200Y-38250D02*
X44200Y-39150D01*
X44200Y-39150D02*
X43550Y-39150D01*
X42850Y-38250D02*
X42200Y-38250D01*
X34850Y-33250D02*
X35750Y-33250D01*
X35750Y-33250D02*
X35750Y-32600D01*
X34850Y-31900D02*
X34850Y-31250D01*
X34850Y-31250D02*
X35750Y-31250D01*
X35750Y-31250D02*
X35750Y-31900D01*
X34850Y-32600D02*
X34850Y-33250D01*
X31700Y-33100D02*
X31700Y-32200D01*
X31700Y-32200D02*
X31050Y-32200D01*
X30350Y-33100D02*
X29700Y-33100D01*
X29700Y-33100D02*
X29700Y-32200D01*
X29700Y-32200D02*
X30350Y-32200D01*
X31050Y-33100D02*
X31700Y-33100D01*
X31700Y-26000D02*
X31700Y-25100D01*
X31700Y-25100D02*
X31050Y-25100D01*
X30350Y-26000D02*
X29700Y-26000D01*
X29700Y-26000D02*
X29700Y-25100D01*
X29700Y-25100D02*
X30350Y-25100D01*
X31050Y-26000D02*
X31700Y-26000D01*
X38000Y-28150D02*
X38000Y-29050D01*
X38000Y-29050D02*
X38650Y-29050D01*
X39350Y-28150D02*
X40000Y-28150D01*
X40000Y-28150D02*
X40000Y-29050D01*
X40000Y-29050D02*
X39350Y-29050D01*
X38650Y-28150D02*
X38000Y-28150D01*
X29200Y-28650D02*
X30100Y-28650D01*
X30100Y-28650D02*
X30100Y-28000D01*
X29200Y-27300D02*
X29200Y-26650D01*
X29200Y-26650D02*
X30100Y-26650D01*
X30100Y-26650D02*
X30100Y-27300D01*
X29200Y-28000D02*
X29200Y-28650D01*
G54D14*
X44500Y-31500D02*
X44500Y-30500D01*
X39500Y-30500D02*
X39500Y-31500D01*
X44500Y-31500D02*
X39500Y-31500D01*
X39500Y-30500D02*
X44500Y-30500D01*
X50500Y-23500D02*
X49500Y-23500D01*
X49500Y-28500D02*
X50500Y-28500D01*
X50500Y-23500D02*
X50500Y-28500D01*
X49500Y-28500D02*
X49500Y-23500D01*
G54D20*
X34350Y-42650D02*
X34350Y-41650D01*
X34350Y-41650D02*
X36350Y-41650D01*
X36350Y-41650D02*
X36350Y-42650D01*
X36350Y-42650D02*
X34350Y-42650D01*
G54D14*
X37475Y-43050D02*
X37475Y-42050D01*
X37475Y-42050D02*
X43475Y-42050D01*
X43475Y-42050D02*
X43475Y-43050D01*
X43475Y-43050D02*
X37475Y-43050D01*
X38475Y-43050D02*
X38475Y-42050D01*
G54D21*
X43239Y-40261D02*
X43161Y-40261D01*
X43161Y-40261D02*
X43161Y-40339D01*
X43239Y-40339D02*
X43161Y-40339D01*
X43239Y-40261D02*
X43239Y-40339D01*
X43023Y-40025D02*
X42886Y-40025D01*
X42886Y-40025D02*
X42886Y-40123D01*
X43023Y-40123D02*
X42886Y-40123D01*
X43023Y-40025D02*
X43023Y-40123D01*
X42886Y-40025D02*
X42846Y-40025D01*
X42846Y-40025D02*
X42846Y-40496D01*
X42886Y-40496D02*
X42846Y-40496D01*
X42886Y-40025D02*
X42886Y-40496D01*
X42886Y-40516D02*
X42846Y-40516D01*
X42846Y-40516D02*
X42846Y-40575D01*
X42886Y-40575D02*
X42846Y-40575D01*
X42886Y-40516D02*
X42886Y-40575D01*
X43554Y-40025D02*
X43514Y-40025D01*
X43514Y-40025D02*
X43514Y-40496D01*
X43554Y-40496D02*
X43514Y-40496D01*
X43554Y-40025D02*
X43554Y-40496D01*
X43554Y-40516D02*
X43514Y-40516D01*
X43514Y-40516D02*
X43514Y-40575D01*
X43554Y-40575D02*
X43514Y-40575D01*
X43554Y-40516D02*
X43554Y-40575D01*
X43023Y-40025D02*
X42964Y-40025D01*
X42964Y-40025D02*
X42964Y-40123D01*
X43023Y-40123D02*
X42964Y-40123D01*
X43023Y-40025D02*
X43023Y-40123D01*
G54D22*
X42590Y-40005D02*
X43810Y-40005D01*
X43810Y-40005D02*
X43810Y-40595D01*
X43810Y-40595D02*
X42590Y-40595D01*
X42590Y-40595D02*
X42590Y-40005D01*
X43415Y-40103D02*
G75*
G03X42983Y-40104I-215J-196D01*
G74*
G01*
X43415Y-40496D02*
G75*
G03X43416Y-40104I-215J196D01*
G74*
G01*
X42984Y-40496D02*
G75*
G03X43416Y-40495I215J196D01*
G74*
G01*
X42984Y-40103D02*
G75*
G03X42983Y-40495I215J-196D01*
G74*
G01*
G54D13*
X45800Y-32500D02*
X50900Y-32500D01*
X50900Y-32500D02*
X51000Y-32500D01*
X51000Y-32500D02*
X51000Y-35900D01*
X51000Y-35900D02*
X49000Y-35900D01*
X49000Y-35900D02*
X48900Y-35600D01*
X48900Y-35600D02*
X48000Y-35600D01*
X48000Y-35600D02*
X47900Y-35900D01*
X47900Y-35900D02*
X45800Y-35900D01*
X45800Y-35900D02*
X45800Y-32500D01*
X51300Y-32200D02*
X51300Y-36200D01*
X51300Y-36200D02*
X45500Y-36200D01*
X45500Y-36200D02*
X45500Y-32200D01*
X45500Y-32200D02*
X51300Y-32200D01*
G54D18*
X49900Y-35200D02*
X46900Y-35200D01*
X46900Y-33200D02*
X49900Y-33200D01*
X49900Y-33200D02*
X49900Y-35200D01*
X46900Y-35200D02*
X46900Y-33200D01*
G54D16*
X27125Y-38149D02*
X22165Y-38149D01*
X22165Y-38149D02*
X22165Y-33189D01*
X22165Y-33189D02*
X27125Y-33189D01*
X27125Y-33189D02*
X27125Y-38149D01*
G54D18*
X15106Y-32668D02*
X15106Y-33868D01*
X15106Y-33868D02*
X17906Y-33868D01*
X17906Y-33868D02*
X17906Y-32668D01*
X15106Y-31468D02*
X15106Y-31168D01*
X15106Y-31168D02*
X15706Y-30268D01*
X15706Y-30268D02*
X17306Y-30268D01*
X17306Y-30268D02*
X17906Y-31168D01*
X17906Y-31168D02*
X17906Y-31468D01*
G54D19*
X21994Y-40323D02*
X21994Y-40273D01*
X21994Y-40273D02*
X19894Y-40273D01*
X19894Y-41773D02*
X21994Y-41773D01*
X21994Y-41773D02*
X21994Y-40323D01*
X21994Y-41223D02*
X21794Y-41223D01*
X21794Y-41223D02*
X21794Y-40823D01*
X21794Y-40823D02*
X21994Y-40823D01*
X19894Y-41773D02*
X19894Y-40273D01*
G54D18*
X28119Y-22134D02*
X31919Y-22134D01*
X31919Y-22134D02*
X31919Y-23634D01*
X31919Y-23634D02*
X28119Y-23634D01*
X28119Y-23634D02*
X28119Y-22134D01*
X28119Y-22634D02*
X28419Y-22634D01*
X28419Y-22634D02*
X28419Y-23034D01*
X28419Y-23034D02*
X28119Y-23034D01*
G54D19*
X21275Y-38737D02*
X21375Y-38737D01*
X21375Y-38737D02*
X21375Y-37837D01*
X21375Y-37837D02*
X21275Y-37837D01*
X21275Y-38737D02*
X21275Y-37837D01*
X21275Y-37837D02*
X20625Y-37837D01*
X19925Y-38737D02*
X19275Y-38737D01*
X19275Y-38737D02*
X19275Y-37837D01*
X19275Y-37837D02*
X19925Y-37837D01*
X20625Y-38737D02*
X21275Y-38737D01*
X18053Y-38696D02*
X18953Y-38696D01*
X18953Y-38696D02*
X18953Y-38046D01*
X18053Y-37346D02*
X18053Y-36696D01*
X18053Y-36696D02*
X18953Y-36696D01*
X18953Y-36696D02*
X18953Y-37346D01*
X18053Y-38046D02*
X18053Y-38696D01*
X18950Y-32975D02*
X18050Y-32975D01*
X18050Y-32975D02*
X18050Y-33625D01*
X18950Y-34325D02*
X18950Y-34975D01*
X18950Y-34975D02*
X18050Y-34975D01*
X18050Y-34975D02*
X18050Y-34325D01*
X18950Y-33625D02*
X18950Y-32975D01*
X23507Y-41282D02*
X23507Y-42182D01*
X23507Y-42182D02*
X24157Y-42182D01*
X24857Y-41282D02*
X25507Y-41282D01*
X25507Y-41282D02*
X25507Y-42182D01*
X25507Y-42182D02*
X24857Y-42182D01*
X24157Y-41282D02*
X23507Y-41282D01*
X19275Y-36754D02*
X19275Y-37654D01*
X19275Y-37654D02*
X19925Y-37654D01*
X20625Y-36754D02*
X21275Y-36754D01*
X21275Y-36754D02*
X21275Y-37654D01*
X21275Y-37654D02*
X20625Y-37654D01*
X19925Y-36754D02*
X19275Y-36754D01*
X19996Y-36473D02*
X19996Y-35573D01*
X19996Y-35573D02*
X19346Y-35573D01*
X18646Y-36473D02*
X17996Y-36473D01*
X17996Y-36473D02*
X17996Y-35573D01*
X17996Y-35573D02*
X18646Y-35573D01*
X19346Y-36473D02*
X19996Y-36473D01*
X20850Y-42758D02*
X20850Y-43658D01*
X20850Y-43658D02*
X21500Y-43658D01*
X22200Y-42758D02*
X22850Y-42758D01*
X22850Y-42758D02*
X22850Y-43658D01*
X22850Y-43658D02*
X22200Y-43658D01*
X21500Y-42758D02*
X20850Y-42758D01*
X23507Y-42463D02*
X23507Y-43363D01*
X23507Y-43363D02*
X24157Y-43363D01*
X24857Y-42463D02*
X25507Y-42463D01*
X25507Y-42463D02*
X25507Y-43363D01*
X25507Y-43363D02*
X24857Y-43363D01*
X24157Y-42463D02*
X23507Y-42463D01*
X27900Y-33250D02*
X27900Y-34150D01*
X27900Y-34150D02*
X28550Y-34150D01*
X29250Y-33250D02*
X29900Y-33250D01*
X29900Y-33250D02*
X29900Y-34150D01*
X29900Y-34150D02*
X29250Y-34150D01*
X28550Y-33250D02*
X27900Y-33250D01*
X20900Y-32900D02*
X21800Y-32900D01*
X21800Y-32900D02*
X21800Y-32250D01*
X20900Y-31550D02*
X20900Y-30900D01*
X20900Y-30900D02*
X21800Y-30900D01*
X21800Y-30900D02*
X21800Y-31550D01*
X20900Y-32250D02*
X20900Y-32900D01*
X27500Y-33050D02*
X28400Y-33050D01*
X28400Y-33050D02*
X28400Y-32400D01*
X27500Y-31700D02*
X27500Y-31050D01*
X27500Y-31050D02*
X28400Y-31050D01*
X28400Y-31050D02*
X28400Y-31700D01*
X27500Y-32400D02*
X27500Y-33050D01*
X24195Y-32653D02*
X25095Y-32653D01*
X25095Y-32653D02*
X25095Y-32003D01*
X24195Y-31303D02*
X24195Y-30653D01*
X24195Y-30653D02*
X25095Y-30653D01*
X25095Y-30653D02*
X25095Y-31303D01*
X24195Y-32003D02*
X24195Y-32653D01*
X16675Y-40271D02*
X17575Y-40271D01*
X17575Y-40271D02*
X17575Y-39621D01*
X16675Y-38921D02*
X16675Y-38271D01*
X16675Y-38271D02*
X17575Y-38271D01*
X17575Y-38271D02*
X17575Y-38921D01*
X16675Y-39621D02*
X16675Y-40271D01*
X17602Y-42364D02*
X17602Y-43264D01*
X17602Y-43264D02*
X18252Y-43264D01*
X18952Y-42364D02*
X19602Y-42364D01*
X19602Y-42364D02*
X19602Y-43264D01*
X19602Y-43264D02*
X18952Y-43264D01*
X18252Y-42364D02*
X17602Y-42364D01*
X24156Y-22751D02*
X25056Y-22751D01*
X25056Y-22751D02*
X25056Y-22101D01*
X24156Y-21401D02*
X24156Y-20751D01*
X24156Y-20751D02*
X25056Y-20751D01*
X25056Y-20751D02*
X25056Y-21401D01*
X24156Y-22101D02*
X24156Y-22751D01*
X17300Y-23514D02*
X16400Y-23514D01*
X16400Y-23514D02*
X16400Y-24164D01*
X17300Y-24864D02*
X17300Y-25514D01*
X17300Y-25514D02*
X16400Y-25514D01*
X16400Y-25514D02*
X16400Y-24864D01*
X17300Y-24164D02*
X17300Y-23514D01*
X16400Y-27876D02*
X17300Y-27876D01*
X17300Y-27876D02*
X17300Y-27226D01*
X16400Y-26526D02*
X16400Y-25876D01*
X16400Y-25876D02*
X17300Y-25876D01*
X17300Y-25876D02*
X17300Y-26526D01*
X16400Y-27226D02*
X16400Y-27876D01*
X19600Y-22500D02*
X19600Y-21600D01*
X19600Y-21600D02*
X18950Y-21600D01*
X18250Y-22500D02*
X17600Y-22500D01*
X17600Y-22500D02*
X17600Y-21600D01*
X17600Y-21600D02*
X18250Y-21600D01*
X18950Y-22500D02*
X19600Y-22500D01*
X19600Y-21500D02*
X19600Y-20600D01*
X19600Y-20600D02*
X18950Y-20600D01*
X18250Y-21500D02*
X17600Y-21500D01*
X17600Y-21500D02*
X17600Y-20600D01*
X17600Y-20600D02*
X18250Y-20600D01*
X18950Y-21500D02*
X19600Y-21500D01*
X19700Y-29250D02*
X19700Y-30150D01*
X19700Y-30150D02*
X20350Y-30150D01*
X21050Y-29250D02*
X21700Y-29250D01*
X21700Y-29250D02*
X21700Y-30150D01*
X21700Y-30150D02*
X21050Y-30150D01*
X20350Y-29250D02*
X19700Y-29250D01*
X16380Y-23047D02*
X17280Y-23047D01*
X17280Y-23047D02*
X17280Y-22397D01*
X16380Y-21697D02*
X16380Y-21047D01*
X16380Y-21047D02*
X17280Y-21047D01*
X17280Y-21047D02*
X17280Y-21697D01*
X16380Y-22397D02*
X16380Y-23047D01*
X21700Y-29100D02*
X21700Y-28200D01*
X21700Y-28200D02*
X21050Y-28200D01*
X20350Y-29100D02*
X19700Y-29100D01*
X19700Y-29100D02*
X19700Y-28200D01*
X19700Y-28200D02*
X20350Y-28200D01*
X21050Y-29100D02*
X21700Y-29100D01*
X23073Y-20586D02*
X23973Y-20586D01*
X23973Y-20586D02*
X23973Y-19936D01*
X23073Y-19236D02*
X23073Y-18586D01*
X23073Y-18586D02*
X23973Y-18586D01*
X23973Y-18586D02*
X23973Y-19236D01*
X23073Y-19936D02*
X23073Y-20586D01*
X25238Y-22751D02*
X26138Y-22751D01*
X26138Y-22751D02*
X26138Y-22101D01*
X25238Y-21401D02*
X25238Y-20751D01*
X25238Y-20751D02*
X26138Y-20751D01*
X26138Y-20751D02*
X26138Y-21401D01*
X25238Y-22101D02*
X25238Y-22751D01*
X20000Y-32975D02*
X19100Y-32975D01*
X19100Y-32975D02*
X19100Y-33625D01*
X20000Y-34325D02*
X20000Y-34975D01*
X20000Y-34975D02*
X19100Y-34975D01*
X19100Y-34975D02*
X19100Y-34325D01*
X20000Y-33625D02*
X20000Y-32975D01*
X24156Y-20586D02*
X25056Y-20586D01*
X25056Y-20586D02*
X25056Y-19936D01*
X24156Y-19236D02*
X24156Y-18586D01*
X24156Y-18586D02*
X25056Y-18586D01*
X25056Y-18586D02*
X25056Y-19236D01*
X24156Y-19936D02*
X24156Y-20586D01*
X16100Y-18850D02*
X15200Y-18850D01*
X15200Y-18850D02*
X15200Y-19500D01*
X16100Y-20200D02*
X16100Y-20850D01*
X16100Y-20850D02*
X15200Y-20850D01*
X15200Y-20850D02*
X15200Y-20200D01*
X16100Y-19500D02*
X16100Y-18850D01*
X16350Y-20850D02*
X17250Y-20850D01*
X17250Y-20850D02*
X17250Y-20200D01*
X16350Y-19500D02*
X16350Y-18850D01*
X16350Y-18850D02*
X17250Y-18850D01*
X17250Y-18850D02*
X17250Y-19500D01*
X16350Y-20200D02*
X16350Y-20850D01*
X17600Y-19300D02*
X17600Y-20200D01*
X17600Y-20200D02*
X18250Y-20200D01*
X18950Y-19300D02*
X19600Y-19300D01*
X19600Y-19300D02*
X19600Y-20200D01*
X19600Y-20200D02*
X18950Y-20200D01*
X18250Y-19300D02*
X17600Y-19300D01*
X17600Y-18300D02*
X17600Y-19200D01*
X17600Y-19200D02*
X18250Y-19200D01*
X18950Y-18300D02*
X19600Y-18300D01*
X19600Y-18300D02*
X19600Y-19200D01*
X19600Y-19200D02*
X18950Y-19200D01*
X18250Y-18300D02*
X17600Y-18300D01*
X13565Y-25672D02*
X14465Y-25672D01*
X14465Y-25672D02*
X14465Y-25022D01*
X13565Y-24322D02*
X13565Y-23672D01*
X13565Y-23672D02*
X14465Y-23672D01*
X14465Y-23672D02*
X14465Y-24322D01*
X13565Y-25022D02*
X13565Y-25672D01*
X14746Y-25672D02*
X15646Y-25672D01*
X15646Y-25672D02*
X15646Y-25022D01*
X14746Y-24322D02*
X14746Y-23672D01*
X14746Y-23672D02*
X15646Y-23672D01*
X15646Y-23672D02*
X15646Y-24322D01*
X14746Y-25022D02*
X14746Y-25672D01*
X15494Y-40271D02*
X16394Y-40271D01*
X16394Y-40271D02*
X16394Y-39621D01*
X15494Y-38921D02*
X15494Y-38271D01*
X15494Y-38271D02*
X16394Y-38271D01*
X16394Y-38271D02*
X16394Y-38921D01*
X15494Y-39621D02*
X15494Y-40271D01*
X18093Y-31354D02*
X18993Y-31354D01*
X18993Y-31354D02*
X18993Y-30704D01*
X18093Y-30004D02*
X18093Y-29354D01*
X18093Y-29354D02*
X18993Y-29354D01*
X18993Y-29354D02*
X18993Y-30004D01*
X18093Y-30704D02*
X18093Y-31354D01*
X17602Y-41085D02*
X17602Y-41985D01*
X17602Y-41985D02*
X18252Y-41985D01*
X18952Y-41085D02*
X19602Y-41085D01*
X19602Y-41085D02*
X19602Y-41985D01*
X19602Y-41985D02*
X18952Y-41985D01*
X18252Y-41085D02*
X17602Y-41085D01*
X33757Y-23330D02*
X32857Y-23330D01*
X32857Y-23330D02*
X32857Y-23980D01*
X33757Y-24680D02*
X33757Y-25330D01*
X33757Y-25330D02*
X32857Y-25330D01*
X32857Y-25330D02*
X32857Y-24680D01*
X33757Y-23980D02*
X33757Y-23330D01*
X32102Y-35174D02*
X32102Y-34274D01*
X32102Y-34274D02*
X31452Y-34274D01*
X30752Y-35174D02*
X30102Y-35174D01*
X30102Y-35174D02*
X30102Y-34274D01*
X30102Y-34274D02*
X30752Y-34274D01*
X31452Y-35174D02*
X32102Y-35174D01*
X27897Y-34274D02*
X27897Y-35174D01*
X27897Y-35174D02*
X28547Y-35174D01*
X29247Y-34274D02*
X29897Y-34274D01*
X29897Y-34274D02*
X29897Y-35174D01*
X29897Y-35174D02*
X29247Y-35174D01*
X28547Y-34274D02*
X27897Y-34274D01*
X14215Y-40271D02*
X15115Y-40271D01*
X15115Y-40271D02*
X15115Y-39621D01*
X14215Y-38921D02*
X14215Y-38271D01*
X14215Y-38271D02*
X15115Y-38271D01*
X15115Y-38271D02*
X15115Y-38921D01*
X14215Y-39621D02*
X14215Y-40271D01*
X21750Y-34400D02*
X20850Y-34400D01*
X20850Y-34400D02*
X20850Y-35050D01*
X21750Y-35750D02*
X21750Y-36400D01*
X21750Y-36400D02*
X20850Y-36400D01*
X20850Y-36400D02*
X20850Y-35750D01*
X21750Y-35050D02*
X21750Y-34400D01*
X22325Y-41900D02*
X23225Y-41900D01*
X23225Y-41900D02*
X23225Y-41250D01*
X22325Y-40550D02*
X22325Y-39900D01*
X22325Y-39900D02*
X23225Y-39900D01*
X23225Y-39900D02*
X23225Y-40550D01*
X22325Y-41250D02*
X22325Y-41900D01*
X27050Y-19500D02*
X27950Y-19500D01*
X27950Y-19500D02*
X27950Y-18850D01*
X27050Y-18150D02*
X27050Y-17500D01*
X27050Y-17500D02*
X27950Y-17500D01*
X27950Y-17500D02*
X27950Y-18150D01*
X27050Y-18850D02*
X27050Y-19500D01*
G54D16*
X29957Y-42294D02*
X29957Y-42609D01*
X29052Y-42609D02*
X30548Y-42609D01*
X29957Y-41506D02*
X29957Y-41191D01*
X29052Y-41191D02*
X30548Y-41191D01*
X30012Y-42294D02*
G75*
G03X30012Y-42294I-55J0D01*
G74*
G01*
X30013Y-41506D02*
G75*
G03X30013Y-41506I-56J0D01*
G74*
G01*
X29800Y-41900D02*
X29406Y-41900D01*
X29800Y-41467D02*
X29800Y-42333D01*
X28776Y-40876D02*
X30824Y-40876D01*
X30824Y-40876D02*
X30824Y-42924D01*
X30824Y-42924D02*
X28776Y-42924D01*
X28776Y-42924D02*
X28776Y-40876D01*
G54D18*
X19153Y-23745D02*
X19003Y-23745D01*
X17853Y-23745D02*
X18003Y-23745D01*
X17853Y-27645D02*
X18003Y-27645D01*
X19153Y-27645D02*
X19003Y-27645D01*
X19503Y-27945D02*
X19003Y-27945D01*
X17503Y-27945D02*
X18003Y-27945D01*
X17503Y-23445D02*
X18003Y-23445D01*
X19503Y-23445D02*
X19003Y-23445D01*
X17853Y-23745D02*
X17603Y-23995D01*
X17603Y-23995D02*
X17603Y-27395D01*
X17603Y-27395D02*
X17853Y-27645D01*
X19153Y-27645D02*
X19403Y-27395D01*
X19403Y-27395D02*
X19403Y-23995D01*
X19403Y-23995D02*
X19153Y-23745D01*
X17503Y-27945D02*
X17503Y-23445D01*
X19503Y-23445D02*
X19503Y-27945D01*
X35650Y-21570D02*
X32650Y-21570D01*
X32650Y-19570D02*
X35650Y-19570D01*
X35650Y-19570D02*
X35650Y-21570D01*
X32650Y-21570D02*
X32650Y-19570D01*
G54D20*
X14255Y-37704D02*
X14255Y-36704D01*
X14255Y-36704D02*
X16255Y-36704D01*
X16255Y-36704D02*
X16255Y-37704D01*
X16255Y-37704D02*
X14255Y-37704D01*
G54D23*
X17448Y-41525D02*
X17448Y-45075D01*
X14048Y-41525D02*
X14048Y-45075D01*
X14098Y-45075D02*
X17448Y-45075D01*
X17448Y-41525D02*
X14098Y-41525D01*
G54D19*
X20500Y-10700D02*
X14500Y-10700D01*
X14500Y-10700D02*
X14500Y-17800D01*
X14500Y-17800D02*
X20500Y-17800D01*
X20500Y-17800D02*
X20500Y-10700D01*
G54D16*
X24960Y-39606D02*
X24960Y-40236D01*
X24409Y-39921D02*
X24960Y-39606D01*
X24409Y-39921D02*
X24960Y-40236D01*
X24409Y-40236D02*
X24409Y-39606D01*
X25590Y-39330D02*
X23858Y-39330D01*
X25590Y-40512D02*
X23858Y-40512D01*
G54D21*
X38239Y-40261D02*
X38161Y-40261D01*
X38161Y-40261D02*
X38161Y-40339D01*
X38239Y-40339D02*
X38161Y-40339D01*
X38239Y-40261D02*
X38239Y-40339D01*
X38023Y-40025D02*
X37886Y-40025D01*
X37886Y-40025D02*
X37886Y-40123D01*
X38023Y-40123D02*
X37886Y-40123D01*
X38023Y-40025D02*
X38023Y-40123D01*
X37886Y-40025D02*
X37846Y-40025D01*
X37846Y-40025D02*
X37846Y-40496D01*
X37886Y-40496D02*
X37846Y-40496D01*
X37886Y-40025D02*
X37886Y-40496D01*
X37886Y-40516D02*
X37846Y-40516D01*
X37846Y-40516D02*
X37846Y-40575D01*
X37886Y-40575D02*
X37846Y-40575D01*
X37886Y-40516D02*
X37886Y-40575D01*
X38554Y-40025D02*
X38514Y-40025D01*
X38514Y-40025D02*
X38514Y-40496D01*
X38554Y-40496D02*
X38514Y-40496D01*
X38554Y-40025D02*
X38554Y-40496D01*
X38554Y-40516D02*
X38514Y-40516D01*
X38514Y-40516D02*
X38514Y-40575D01*
X38554Y-40575D02*
X38514Y-40575D01*
X38554Y-40516D02*
X38554Y-40575D01*
X38023Y-40025D02*
X37964Y-40025D01*
X37964Y-40025D02*
X37964Y-40123D01*
X38023Y-40123D02*
X37964Y-40123D01*
X38023Y-40025D02*
X38023Y-40123D01*
G54D22*
X37590Y-40005D02*
X38810Y-40005D01*
X38810Y-40005D02*
X38810Y-40595D01*
X38810Y-40595D02*
X37590Y-40595D01*
X37590Y-40595D02*
X37590Y-40005D01*
X38415Y-40103D02*
G75*
G03X37983Y-40104I-215J-196D01*
G74*
G01*
X38415Y-40496D02*
G75*
G03X38416Y-40104I-215J196D01*
G74*
G01*
X37984Y-40496D02*
G75*
G03X38416Y-40495I215J196D01*
G74*
G01*
X37984Y-40103D02*
G75*
G03X37983Y-40495I215J-196D01*
G74*
G01*
G54D19*
X37200Y-38250D02*
X37200Y-39150D01*
X37200Y-39150D02*
X37850Y-39150D01*
X38550Y-38250D02*
X39200Y-38250D01*
X39200Y-38250D02*
X39200Y-39150D01*
X39200Y-39150D02*
X38550Y-39150D01*
X37850Y-38250D02*
X37200Y-38250D01*
X38450Y-16250D02*
X38450Y-15350D01*
X38450Y-15350D02*
X37800Y-15350D01*
X37100Y-16250D02*
X36450Y-16250D01*
X36450Y-16250D02*
X36450Y-15350D01*
X36450Y-15350D02*
X37100Y-15350D01*
X37800Y-16250D02*
X38450Y-16250D01*
X40051Y-17574D02*
X41051Y-17574D01*
X41051Y-16874D02*
X40051Y-16874D01*
X41051Y-16874D02*
X41051Y-17574D01*
X40051Y-17574D02*
X40051Y-16874D01*
X39854Y-16590D02*
X40854Y-16590D01*
X40854Y-15890D02*
X39854Y-15890D01*
X40854Y-15890D02*
X40854Y-16590D01*
X39854Y-16590D02*
X39854Y-15890D01*
X41913Y-16951D02*
X41913Y-17851D01*
X41913Y-17851D02*
X42563Y-17851D01*
X43263Y-16951D02*
X43913Y-16951D01*
X43913Y-16951D02*
X43913Y-17851D01*
X43913Y-17851D02*
X43263Y-17851D01*
X42563Y-16951D02*
X41913Y-16951D01*
X41913Y-15888D02*
X41913Y-16788D01*
X41913Y-16788D02*
X42563Y-16788D01*
X43263Y-15888D02*
X43913Y-15888D01*
X43913Y-15888D02*
X43913Y-16788D01*
X43913Y-16788D02*
X43263Y-16788D01*
X42563Y-15888D02*
X41913Y-15888D01*
G54D18*
X28218Y-18591D02*
X32018Y-18591D01*
X32018Y-18591D02*
X32018Y-20091D01*
X32018Y-20091D02*
X28218Y-20091D01*
X28218Y-20091D02*
X28218Y-18591D01*
X28218Y-19091D02*
X28518Y-19091D01*
X28518Y-19091D02*
X28518Y-19491D01*
X28518Y-19491D02*
X28218Y-19491D01*
G54D19*
X24000Y-29100D02*
X24100Y-29100D01*
X24100Y-29100D02*
X24100Y-28200D01*
X24100Y-28200D02*
X24000Y-28200D01*
X24000Y-29100D02*
X24000Y-28200D01*
X24000Y-28200D02*
X23350Y-28200D01*
X22650Y-29100D02*
X22000Y-29100D01*
X22000Y-29100D02*
X22000Y-28200D01*
X22000Y-28200D02*
X22650Y-28200D01*
X23350Y-29100D02*
X24000Y-29100D01*
X13998Y-31314D02*
X13998Y-31414D01*
X13998Y-31414D02*
X14898Y-31414D01*
X14898Y-31414D02*
X14898Y-31314D01*
X13998Y-31314D02*
X14898Y-31314D01*
X14898Y-31314D02*
X14898Y-30664D01*
X13998Y-29964D02*
X13998Y-29314D01*
X13998Y-29314D02*
X14898Y-29314D01*
X14898Y-29314D02*
X14898Y-29964D01*
X13998Y-30664D02*
X13998Y-31314D01*
G54D21*
X47420Y-25180D02*
X47620Y-25180D01*
X47620Y-25180D02*
X47620Y-24730D01*
X47420Y-24730D02*
X47620Y-24730D01*
X47420Y-25180D02*
X47420Y-24730D01*
X45920Y-27170D02*
X46120Y-27170D01*
X46120Y-27170D02*
X46120Y-26720D01*
X45920Y-26720D02*
X46120Y-26720D01*
X45920Y-27170D02*
X45920Y-26720D01*
X46420Y-27170D02*
X46620Y-27170D01*
X46620Y-27170D02*
X46620Y-26720D01*
X46420Y-26720D02*
X46620Y-26720D01*
X46420Y-27170D02*
X46420Y-26720D01*
X46920Y-27160D02*
X47120Y-27160D01*
X47120Y-27160D02*
X47120Y-26710D01*
X46920Y-26710D02*
X47120Y-26710D01*
X46920Y-27160D02*
X46920Y-26710D01*
X47420Y-27170D02*
X47620Y-27170D01*
X47620Y-27170D02*
X47620Y-26720D01*
X47420Y-26720D02*
X47620Y-26720D01*
X47420Y-27170D02*
X47420Y-26720D01*
X46920Y-25180D02*
X47120Y-25180D01*
X47120Y-25180D02*
X47120Y-24730D01*
X46920Y-24730D02*
X47120Y-24730D01*
X46920Y-25180D02*
X46920Y-24730D01*
X46420Y-25180D02*
X46620Y-25180D01*
X46620Y-25180D02*
X46620Y-24730D01*
X46420Y-24730D02*
X46620Y-24730D01*
X46420Y-25180D02*
X46420Y-24730D01*
X45920Y-25180D02*
X46120Y-25180D01*
X46120Y-25180D02*
X46120Y-24730D01*
X45920Y-24730D02*
X46120Y-24730D01*
X45920Y-25180D02*
X45920Y-24730D01*
G54D20*
X47620Y-25180D02*
X45920Y-25180D01*
X45920Y-26720D02*
X47620Y-26720D01*
X47770Y-26570D02*
X47770Y-25330D01*
X45770Y-25330D02*
X45770Y-25750D01*
X45770Y-25750D02*
X45770Y-26150D01*
X45770Y-26150D02*
X45770Y-26570D01*
G54D24*
X45770Y-26580D02*
X47770Y-26580D01*
G54D20*
X47620Y-26720D02*
G75*
G03X47770Y-26570I0J150D01*
G74*
G01*
X45920Y-25180D02*
G75*
G03X45770Y-25330I0J-150D01*
G74*
G01*
X47770Y-25330D02*
G75*
G03X47620Y-25180I-150J0D01*
G74*
G01*
X45770Y-26570D02*
G75*
G03X45920Y-26720I150J0D01*
G74*
G01*
X45770Y-26150D02*
G75*
G03X45770Y-25750I0J200D01*
G74*
G01*
G54D19*
X46810Y-16710D02*
X46810Y-17610D01*
X46810Y-17610D02*
X47460Y-17610D01*
X48160Y-16710D02*
X48810Y-16710D01*
X48810Y-16710D02*
X48810Y-17610D01*
X48810Y-17610D02*
X48160Y-17610D01*
X47460Y-16710D02*
X46810Y-16710D01*
G54D16*
X38893Y-13493D02*
X33843Y-13493D01*
X38893Y-9993D02*
X33843Y-9993D01*
X33843Y-13493D02*
X33843Y-9993D01*
G54D25*
X38893Y-13493D02*
X38893Y-9993D01*
G54D20*
X34050Y-16750D02*
X35050Y-16750D01*
X35050Y-16750D02*
X35050Y-18750D01*
X35050Y-18750D02*
X34050Y-18750D01*
X34050Y-18750D02*
X34050Y-16750D01*
G54D16*
X51118Y-13513D02*
X46068Y-13513D01*
X51118Y-10013D02*
X46068Y-10013D01*
X46068Y-13513D02*
X46068Y-10013D01*
G54D25*
X51118Y-13513D02*
X51118Y-10013D01*
X32650Y-36200D02*
X42650Y-36200D01*
X32650Y-34200D02*
X42650Y-34200D01*
X32650Y-34200D02*
X32650Y-36200D01*
X42650Y-36200D02*
X42650Y-34200D01*
G54D20*
X48899Y-17875D02*
X47251Y-17875D01*
X47628Y-18475D02*
X48522Y-18475D01*
X48627Y-18475D02*
X49123Y-18475D01*
X48522Y-18475D02*
X48627Y-18475D01*
X47027Y-18475D02*
X47523Y-18475D01*
X47523Y-18475D02*
X47628Y-18475D01*
X47125Y-18973D02*
G75*
G03X49024Y-18972I949J448D01*
G74*
G01*
X49024Y-18972D02*
G75*
G03X49024Y-18077I-949J447D01*
G74*
G01*
X49023Y-18076D02*
G75*
G03X48898Y-17874I-948J-448D01*
G74*
G01*
X47125Y-18077D02*
G75*
G03X47125Y-18972I949J-447D01*
G74*
G01*
X47250Y-17876D02*
G75*
G03X47120Y-18088I824J-648D01*
G74*
G01*
G54D21*
X40739Y-40261D02*
X40661Y-40261D01*
X40661Y-40261D02*
X40661Y-40339D01*
X40739Y-40339D02*
X40661Y-40339D01*
X40739Y-40261D02*
X40739Y-40339D01*
X40523Y-40025D02*
X40386Y-40025D01*
X40386Y-40025D02*
X40386Y-40123D01*
X40523Y-40123D02*
X40386Y-40123D01*
X40523Y-40025D02*
X40523Y-40123D01*
X40386Y-40025D02*
X40346Y-40025D01*
X40346Y-40025D02*
X40346Y-40496D01*
X40386Y-40496D02*
X40346Y-40496D01*
X40386Y-40025D02*
X40386Y-40496D01*
X40386Y-40516D02*
X40346Y-40516D01*
X40346Y-40516D02*
X40346Y-40575D01*
X40386Y-40575D02*
X40346Y-40575D01*
X40386Y-40516D02*
X40386Y-40575D01*
X41054Y-40025D02*
X41014Y-40025D01*
X41014Y-40025D02*
X41014Y-40496D01*
X41054Y-40496D02*
X41014Y-40496D01*
X41054Y-40025D02*
X41054Y-40496D01*
X41054Y-40516D02*
X41014Y-40516D01*
X41014Y-40516D02*
X41014Y-40575D01*
X41054Y-40575D02*
X41014Y-40575D01*
X41054Y-40516D02*
X41054Y-40575D01*
X40523Y-40025D02*
X40464Y-40025D01*
X40464Y-40025D02*
X40464Y-40123D01*
X40523Y-40123D02*
X40464Y-40123D01*
X40523Y-40025D02*
X40523Y-40123D01*
G54D22*
X40090Y-40005D02*
X41310Y-40005D01*
X41310Y-40005D02*
X41310Y-40595D01*
X41310Y-40595D02*
X40090Y-40595D01*
X40090Y-40595D02*
X40090Y-40005D01*
X40915Y-40103D02*
G75*
G03X40483Y-40104I-215J-196D01*
G74*
G01*
X40915Y-40496D02*
G75*
G03X40916Y-40104I-215J196D01*
G74*
G01*
X40484Y-40496D02*
G75*
G03X40916Y-40495I215J196D01*
G74*
G01*
X40484Y-40103D02*
G75*
G03X40483Y-40495I215J-196D01*
G74*
G01*
G54D19*
X39700Y-38250D02*
X39700Y-39150D01*
X39700Y-39150D02*
X40350Y-39150D01*
X41050Y-38250D02*
X41700Y-38250D01*
X41700Y-38250D02*
X41700Y-39150D01*
X41700Y-39150D02*
X41050Y-39150D01*
X40350Y-38250D02*
X39700Y-38250D01*
G54D14*
X39500Y-19500D02*
X39500Y-20500D01*
X44500Y-20500D02*
X44500Y-19500D01*
X39500Y-19500D02*
X44500Y-19500D01*
X44500Y-20500D02*
X39500Y-20500D01*
G54D16*
X44996Y-13493D02*
X39946Y-13493D01*
X44996Y-9993D02*
X39946Y-9993D01*
X39946Y-13493D02*
X39946Y-9993D01*
G54D25*
X44996Y-13493D02*
X44996Y-9993D01*
G54D23*
X45500Y-36700D02*
X45500Y-44550D01*
X45500Y-44550D02*
X51500Y-44550D01*
X51500Y-44550D02*
X51500Y-36700D01*
X51500Y-36700D02*
X45500Y-36700D01*
G54D19*
X45500Y-43800D02*
X51500Y-43800D01*
X51500Y-43800D02*
X51500Y-36700D01*
X51500Y-36700D02*
X45500Y-36700D01*
X45500Y-36700D02*
X45500Y-43800D01*
X42600Y-26250D02*
X42550Y-26250D01*
X42550Y-26250D02*
X42550Y-28350D01*
X44050Y-28350D02*
X44050Y-26250D01*
X44050Y-26250D02*
X42600Y-26250D01*
X43500Y-26250D02*
X43500Y-26450D01*
X43500Y-26450D02*
X43100Y-26450D01*
X43100Y-26450D02*
X43100Y-26250D01*
X44050Y-28350D02*
X42550Y-28350D01*
G54D20*
X39050Y-19650D02*
X38050Y-19650D01*
X38050Y-19650D02*
X38050Y-16650D01*
X38050Y-16650D02*
X39050Y-16650D01*
X39050Y-16650D02*
X39050Y-19650D01*
X38050Y-18650D02*
X39050Y-18650D01*
X37250Y-19650D02*
X36250Y-19650D01*
X36250Y-19650D02*
X36250Y-16650D01*
X36250Y-16650D02*
X37250Y-16650D01*
X37250Y-16650D02*
X37250Y-19650D01*
X36250Y-18650D02*
X37250Y-18650D01*
G54D26*
X45600Y-23713D02*
G75*
G03X45600Y-23713I-62J0D01*
G74*
G01*
X45200Y-22750D02*
X45600Y-22750D01*
X45200Y-23775D02*
X45600Y-23775D01*
X45600Y-22750D02*
X45600Y-23775D01*
X45200Y-23775D02*
X45200Y-22750D01*
G54D14*
X44495Y-23500D02*
G75*
G03X44495Y-23500I-2195J0D01*
G74*
G01*
G54D16*
X41783Y-26800D02*
G75*
G03X41783Y-26800I-583J0D01*
G74*
G01*
G54D19*
X38700Y-21150D02*
X38700Y-21100D01*
X38700Y-21100D02*
X36600Y-21100D01*
X36600Y-22600D02*
X38700Y-22600D01*
X38700Y-22600D02*
X38700Y-21150D01*
X38700Y-22050D02*
X38500Y-22050D01*
X38500Y-22050D02*
X38500Y-21650D01*
X38500Y-21650D02*
X38700Y-21650D01*
X36600Y-22600D02*
X36600Y-21100D01*
G54D20*
X23550Y-17150D02*
X23550Y-18150D01*
X23550Y-18150D02*
X21550Y-18150D01*
X21550Y-18150D02*
X21550Y-17150D01*
X21550Y-17150D02*
X23550Y-17150D01*
G54D23*
X27300Y-29350D02*
X27300Y-26950D01*
X27300Y-26950D02*
X27500Y-26550D01*
X27500Y-26550D02*
X27500Y-25550D01*
X27500Y-25550D02*
X27300Y-25150D01*
X27100Y-29350D02*
X27100Y-26950D01*
X27100Y-26950D02*
X27300Y-26550D01*
X27300Y-26550D02*
X27300Y-25550D01*
X27300Y-25550D02*
X27100Y-25150D01*
X27100Y-25550D02*
X26900Y-25150D01*
X27100Y-26550D02*
X27100Y-25550D01*
X26900Y-26950D02*
X27100Y-26550D01*
X26900Y-29350D02*
X26900Y-26950D01*
X26900Y-29350D02*
X26900Y-26950D01*
X26900Y-26950D02*
X27100Y-26550D01*
X27100Y-26550D02*
X27100Y-25550D01*
X27100Y-25550D02*
X26900Y-25150D01*
X27100Y-25550D02*
X26900Y-25150D01*
X27100Y-26550D02*
X27100Y-25550D01*
X26900Y-26950D02*
X27100Y-26550D01*
X26900Y-29350D02*
X26900Y-26950D01*
X26900Y-29350D02*
X26900Y-26950D01*
X26900Y-26950D02*
X27100Y-26550D01*
X27100Y-26550D02*
X27100Y-25550D01*
X27100Y-25550D02*
X26900Y-25150D01*
X27100Y-25550D02*
X26900Y-25150D01*
X27100Y-26550D02*
X27100Y-25550D01*
X26900Y-26950D02*
X27100Y-26550D01*
X26900Y-29350D02*
X26900Y-26950D01*
X26900Y-29350D02*
X26900Y-26950D01*
X26900Y-26950D02*
X27100Y-26550D01*
X27100Y-26550D02*
X27100Y-25550D01*
X27100Y-25550D02*
X26900Y-25150D01*
X27100Y-25550D02*
X26900Y-25150D01*
X27100Y-26550D02*
X27100Y-25550D01*
X26900Y-26950D02*
X27100Y-26550D01*
X26900Y-29350D02*
X26900Y-26950D01*
X26900Y-29350D02*
X26900Y-26950D01*
X26900Y-26950D02*
X27100Y-26550D01*
X27100Y-26550D02*
X27100Y-25550D01*
X27100Y-25550D02*
X26900Y-25150D01*
X26600Y-25275D02*
X26525Y-25175D01*
X26500Y-25500D02*
X26600Y-25400D01*
X26600Y-26325D02*
X26600Y-26275D01*
X26600Y-26550D02*
X26600Y-26300D01*
X26000Y-26550D02*
X26000Y-26275D01*
X26575Y-26400D02*
X26050Y-26400D01*
X26400Y-25525D02*
X26500Y-25500D01*
X26600Y-25400D02*
X26600Y-25275D01*
X26375Y-25125D02*
X26500Y-25150D01*
X26175Y-25525D02*
X26075Y-25500D01*
X26075Y-25500D02*
X26000Y-25425D01*
X26000Y-25425D02*
X25975Y-25375D01*
X25975Y-25375D02*
X25975Y-25275D01*
X25975Y-25275D02*
X26000Y-25225D01*
X26000Y-25225D02*
X26025Y-25175D01*
X26025Y-25175D02*
X26075Y-25150D01*
X26075Y-25150D02*
X26150Y-25125D01*
X26150Y-25125D02*
X26200Y-25125D01*
X26200Y-25125D02*
X26375Y-25125D01*
X26200Y-25525D02*
X26400Y-25525D01*
X26600Y-26125D02*
X25975Y-26125D01*
X26000Y-26125D02*
X26600Y-25775D01*
X26600Y-25775D02*
X25975Y-25775D01*
X26000Y-27025D02*
X26475Y-27025D01*
X26475Y-27025D02*
X26525Y-27000D01*
X26525Y-27000D02*
X26550Y-26975D01*
X26550Y-26975D02*
X26575Y-26950D01*
X26575Y-26950D02*
X26600Y-26900D01*
X26600Y-26900D02*
X26600Y-26850D01*
X26600Y-26850D02*
X26600Y-26800D01*
X26600Y-26800D02*
X26575Y-26750D01*
X26575Y-26750D02*
X26550Y-26725D01*
X26550Y-26725D02*
X26525Y-26700D01*
X26525Y-26700D02*
X26475Y-26700D01*
X26475Y-26700D02*
X26000Y-26700D01*
X26000Y-27625D02*
X26000Y-27500D01*
X26000Y-27500D02*
X26025Y-27400D01*
X26025Y-27400D02*
X26075Y-27350D01*
X26075Y-27350D02*
X26150Y-27325D01*
X26150Y-27325D02*
X26250Y-27300D01*
X26250Y-27300D02*
X26325Y-27300D01*
X26325Y-27300D02*
X26375Y-27300D01*
X26375Y-27300D02*
X26450Y-27325D01*
X26450Y-27325D02*
X26500Y-27350D01*
X26500Y-27350D02*
X26550Y-27400D01*
X26550Y-27400D02*
X26600Y-27475D01*
X26600Y-27475D02*
X26600Y-27525D01*
X26600Y-27525D02*
X26600Y-27650D01*
X26600Y-27650D02*
X26000Y-27650D01*
X26000Y-28125D02*
X26600Y-28125D01*
X26600Y-28125D02*
X26600Y-27850D01*
X26000Y-28725D02*
X26000Y-28700D01*
X26000Y-28700D02*
X26000Y-28475D01*
X26000Y-28475D02*
X26025Y-28425D01*
X26025Y-28425D02*
X26050Y-28400D01*
X26050Y-28400D02*
X26100Y-28375D01*
X26100Y-28375D02*
X26150Y-28375D01*
X26150Y-28375D02*
X26200Y-28375D01*
X26200Y-28375D02*
X26250Y-28400D01*
X26250Y-28400D02*
X26275Y-28450D01*
X26275Y-28450D02*
X26300Y-28500D01*
X26300Y-28500D02*
X26300Y-28725D01*
X26575Y-28725D02*
X26000Y-28725D01*
X26200Y-29250D02*
X26600Y-28950D01*
X26600Y-29275D02*
X26200Y-28975D01*
G54D14*
X20889Y-20935D02*
X23389Y-20935D01*
X23389Y-20935D02*
X23389Y-27935D01*
X23389Y-27935D02*
X20389Y-27935D01*
X20389Y-27935D02*
X20389Y-20935D01*
X20389Y-20935D02*
X20889Y-20935D01*
X21639Y-27935D02*
X21639Y-27435D01*
X21639Y-27435D02*
X22139Y-27435D01*
X22139Y-27435D02*
X22139Y-27935D01*
G54D10*
X43729Y-30729D02*
X43729Y-31270D01*
X44270Y-31270D01*
X44270Y-30729D01*
X43729Y-30729D01*
X43270Y-31000D02*
G75*
G03X43270Y-31000I-270J0D01*
G74*
G01*
X42270Y-31000D02*
G75*
G03X42270Y-31000I-270J0D01*
G74*
G01*
X41270Y-31000D02*
G75*
G03X41270Y-31000I-270J0D01*
G74*
G01*
X40270Y-31000D02*
G75*
G03X40270Y-31000I-270J0D01*
G74*
G01*
X49729Y-23729D02*
X49729Y-24270D01*
X50270Y-24270D01*
X50270Y-23729D01*
X49729Y-23729D01*
X50270Y-25000D02*
G75*
G03X50270Y-25000I-270J0D01*
G74*
G01*
X50270Y-26000D02*
G75*
G03X50270Y-26000I-270J0D01*
G74*
G01*
X50270Y-27000D02*
G75*
G03X50270Y-27000I-270J0D01*
G74*
G01*
X50270Y-28000D02*
G75*
G03X50270Y-28000I-270J0D01*
G74*
G01*
X34579Y-41879D02*
X34579Y-42420D01*
X35120Y-42420D01*
X35120Y-41879D01*
X34579Y-41879D01*
X36120Y-42150D02*
G75*
G03X36120Y-42150I-270J0D01*
G74*
G01*
X37704Y-42279D02*
X37704Y-42820D01*
X38245Y-42820D01*
X38245Y-42279D01*
X37704Y-42279D01*
X39245Y-42550D02*
G75*
G03X39245Y-42550I-270J0D01*
G74*
G01*
X40245Y-42550D02*
G75*
G03X40245Y-42550I-270J0D01*
G74*
G01*
X41245Y-42550D02*
G75*
G03X41245Y-42550I-270J0D01*
G74*
G01*
X42245Y-42550D02*
G75*
G03X42245Y-42550I-270J0D01*
G74*
G01*
X43245Y-42550D02*
G75*
G03X43245Y-42550I-270J0D01*
G74*
G01*
X47129Y-34429D02*
X47129Y-34970D01*
X47670Y-34970D01*
X47670Y-34429D01*
X47129Y-34429D01*
X47670Y-33700D02*
G75*
G03X47670Y-33700I-270J0D01*
G74*
G01*
X48670Y-34700D02*
G75*
G03X48670Y-34700I-270J0D01*
G74*
G01*
X48670Y-33700D02*
G75*
G03X48670Y-33700I-270J0D01*
G74*
G01*
X49670Y-34700D02*
G75*
G03X49670Y-34700I-270J0D01*
G74*
G01*
X49670Y-33700D02*
G75*
G03X49670Y-33700I-270J0D01*
G74*
G01*
X32879Y-20799D02*
X32879Y-21340D01*
X33420Y-21340D01*
X33420Y-20799D01*
X32879Y-20799D01*
X33420Y-20070D02*
G75*
G03X33420Y-20070I-270J0D01*
G74*
G01*
X34420Y-21070D02*
G75*
G03X34420Y-21070I-270J0D01*
G74*
G01*
X34420Y-20070D02*
G75*
G03X34420Y-20070I-270J0D01*
G74*
G01*
X35420Y-21070D02*
G75*
G03X35420Y-21070I-270J0D01*
G74*
G01*
X35420Y-20070D02*
G75*
G03X35420Y-20070I-270J0D01*
G74*
G01*
X14485Y-36934D02*
X14485Y-37475D01*
X15026Y-37475D01*
X15026Y-36934D01*
X14485Y-36934D01*
X16026Y-37204D02*
G75*
G03X16026Y-37204I-270J0D01*
G74*
G01*
X14637Y-41735D02*
X14637Y-42515D01*
X15358Y-41735D02*
X15358Y-42515D01*
X14637Y-42515D02*
G75*
G03X15358Y-42515I360J0D01*
G74*
G01*
X15358Y-41735D02*
G75*
G03X14637Y-41735I-360J0D01*
G74*
G01*
X16153Y-41735D02*
X16153Y-42515D01*
X16874Y-41735D02*
X16874Y-42515D01*
X16153Y-42515D02*
G75*
G03X16874Y-42515I360J0D01*
G74*
G01*
X16874Y-41735D02*
G75*
G03X16153Y-41735I-360J0D01*
G74*
G01*
X15934Y-13898D02*
G75*
G03X15934Y-13898I-678J0D01*
G74*
G01*
X20422Y-13879D02*
G75*
G03X20422Y-13879I-678J0D01*
G74*
G01*
X18911Y-16058D02*
X18911Y-16699D01*
X19552Y-16699D01*
X19552Y-16058D01*
X18911Y-16058D01*
X19130Y-17383D02*
G75*
G03X19130Y-17383I-370J0D01*
G74*
G01*
X18618Y-16379D02*
G75*
G03X18618Y-16379I-370J0D01*
G74*
G01*
X18106Y-17383D02*
G75*
G03X18106Y-17383I-370J0D01*
G74*
G01*
X17634Y-16379D02*
G75*
G03X17634Y-16379I-370J0D01*
G74*
G01*
X17122Y-17383D02*
G75*
G03X17122Y-17383I-370J0D01*
G74*
G01*
X16610Y-16379D02*
G75*
G03X16610Y-16379I-370J0D01*
G74*
G01*
X16138Y-17383D02*
G75*
G03X16138Y-17383I-370J0D01*
G74*
G01*
X20488Y-12304D02*
G75*
G03X20488Y-12304I-370J0D01*
G74*
G01*
X19484Y-12304D02*
G75*
G03X19484Y-12304I-370J0D01*
G74*
G01*
X16256Y-12304D02*
G75*
G03X16256Y-12304I-370J0D01*
G74*
G01*
X15252Y-12304D02*
G75*
G03X15252Y-12304I-370J0D01*
G74*
G01*
X20982Y-15060D02*
G75*
G03X20982Y-15060I-470J0D01*
G74*
G01*
X14919Y-15060D02*
G75*
G03X14919Y-15060I-470J0D01*
G74*
G01*
X38254Y-13283D02*
X38254Y-12503D01*
X37533Y-13283D02*
X37533Y-12503D01*
X38254Y-12503D02*
G75*
G03X37533Y-12503I-360J0D01*
G74*
G01*
X37533Y-13283D02*
G75*
G03X38254Y-13283I360J0D01*
G74*
G01*
X36738Y-13283D02*
X36738Y-12503D01*
X36017Y-13283D02*
X36017Y-12503D01*
X36738Y-12503D02*
G75*
G03X36017Y-12503I-360J0D01*
G74*
G01*
X36017Y-13283D02*
G75*
G03X36738Y-13283I360J0D01*
G74*
G01*
X35222Y-13283D02*
X35222Y-12503D01*
X34501Y-13283D02*
X34501Y-12503D01*
X35222Y-12503D02*
G75*
G03X34501Y-12503I-360J0D01*
G74*
G01*
X34501Y-13283D02*
G75*
G03X35222Y-13283I360J0D01*
G74*
G01*
X34279Y-16979D02*
X34279Y-17520D01*
X34820Y-17520D01*
X34820Y-16979D01*
X34279Y-16979D01*
X34820Y-18250D02*
G75*
G03X34820Y-18250I-270J0D01*
G74*
G01*
X50478Y-13303D02*
X50478Y-12523D01*
X49757Y-13303D02*
X49757Y-12523D01*
X50478Y-12523D02*
G75*
G03X49757Y-12523I-360J0D01*
G74*
G01*
X49757Y-13303D02*
G75*
G03X50478Y-13303I360J0D01*
G74*
G01*
X48962Y-13303D02*
X48962Y-12523D01*
X48241Y-13303D02*
X48241Y-12523D01*
X48962Y-12523D02*
G75*
G03X48241Y-12523I-360J0D01*
G74*
G01*
X48241Y-13303D02*
G75*
G03X48962Y-13303I360J0D01*
G74*
G01*
X47447Y-13303D02*
X47447Y-12523D01*
X46726Y-13303D02*
X46726Y-12523D01*
X47447Y-12523D02*
G75*
G03X46726Y-12523I-360J0D01*
G74*
G01*
X46726Y-13303D02*
G75*
G03X47447Y-13303I360J0D01*
G74*
G01*
X32879Y-35429D02*
X32879Y-35970D01*
X33420Y-35970D01*
X33420Y-35429D01*
X32879Y-35429D01*
X33420Y-34700D02*
G75*
G03X33420Y-34700I-270J0D01*
G74*
G01*
X34420Y-35700D02*
G75*
G03X34420Y-35700I-270J0D01*
G74*
G01*
X34420Y-34700D02*
G75*
G03X34420Y-34700I-270J0D01*
G74*
G01*
X35420Y-35700D02*
G75*
G03X35420Y-35700I-270J0D01*
G74*
G01*
X35420Y-34700D02*
G75*
G03X35420Y-34700I-270J0D01*
G74*
G01*
X36420Y-35700D02*
G75*
G03X36420Y-35700I-270J0D01*
G74*
G01*
X36420Y-34700D02*
G75*
G03X36420Y-34700I-270J0D01*
G74*
G01*
X37420Y-35700D02*
G75*
G03X37420Y-35700I-270J0D01*
G74*
G01*
X37420Y-34700D02*
G75*
G03X37420Y-34700I-270J0D01*
G74*
G01*
X38420Y-35700D02*
G75*
G03X38420Y-35700I-270J0D01*
G74*
G01*
X38420Y-34700D02*
G75*
G03X38420Y-34700I-270J0D01*
G74*
G01*
X39420Y-35700D02*
G75*
G03X39420Y-35700I-270J0D01*
G74*
G01*
X39420Y-34700D02*
G75*
G03X39420Y-34700I-270J0D01*
G74*
G01*
X40420Y-35700D02*
G75*
G03X40420Y-35700I-270J0D01*
G74*
G01*
X40420Y-34700D02*
G75*
G03X40420Y-34700I-270J0D01*
G74*
G01*
X41420Y-35700D02*
G75*
G03X41420Y-35700I-270J0D01*
G74*
G01*
X41420Y-34700D02*
G75*
G03X41420Y-34700I-270J0D01*
G74*
G01*
X42420Y-35700D02*
G75*
G03X42420Y-35700I-270J0D01*
G74*
G01*
X42420Y-34700D02*
G75*
G03X42420Y-34700I-270J0D01*
G74*
G01*
X49305Y-18525D02*
G75*
G03X49305Y-18525I-230J0D01*
G74*
G01*
X48305Y-18525D02*
G75*
G03X48305Y-18525I-230J0D01*
G74*
G01*
X47305Y-18525D02*
G75*
G03X47305Y-18525I-230J0D01*
G74*
G01*
X39729Y-19729D02*
X39729Y-20270D01*
X40270Y-20270D01*
X40270Y-19729D01*
X39729Y-19729D01*
X41270Y-20000D02*
G75*
G03X41270Y-20000I-270J0D01*
G74*
G01*
X42270Y-20000D02*
G75*
G03X42270Y-20000I-270J0D01*
G74*
G01*
X43270Y-20000D02*
G75*
G03X43270Y-20000I-270J0D01*
G74*
G01*
X44270Y-20000D02*
G75*
G03X44270Y-20000I-270J0D01*
G74*
G01*
X44356Y-13283D02*
X44356Y-12503D01*
X43635Y-13283D02*
X43635Y-12503D01*
X44356Y-12503D02*
G75*
G03X43635Y-12503I-360J0D01*
G74*
G01*
X43635Y-13283D02*
G75*
G03X44356Y-13283I360J0D01*
G74*
G01*
X42840Y-13283D02*
X42840Y-12503D01*
X42119Y-13283D02*
X42119Y-12503D01*
X42840Y-12503D02*
G75*
G03X42119Y-12503I-360J0D01*
G74*
G01*
X42119Y-13283D02*
G75*
G03X42840Y-13283I360J0D01*
G74*
G01*
X41325Y-13283D02*
X41325Y-12503D01*
X40604Y-13283D02*
X40604Y-12503D01*
X41325Y-12503D02*
G75*
G03X40604Y-12503I-360J0D01*
G74*
G01*
X40604Y-13283D02*
G75*
G03X41325Y-13283I360J0D01*
G74*
G01*
X51526Y-40700D02*
G75*
G03X51526Y-40700I-688J0D01*
G74*
G01*
X46853Y-40700D02*
G75*
G03X46853Y-40700I-688J0D01*
G74*
G01*
X46484Y-37934D02*
X46484Y-38465D01*
X47015Y-38465D01*
X47015Y-37934D01*
X46484Y-37934D01*
X47515Y-37200D02*
G75*
G03X47515Y-37200I-265J0D01*
G74*
G01*
X48015Y-38200D02*
G75*
G03X48015Y-38200I-265J0D01*
G74*
G01*
X48515Y-37200D02*
G75*
G03X48515Y-37200I-265J0D01*
G74*
G01*
X49015Y-38200D02*
G75*
G03X49015Y-38200I-265J0D01*
G74*
G01*
X49515Y-37200D02*
G75*
G03X49515Y-37200I-265J0D01*
G74*
G01*
X50015Y-38200D02*
G75*
G03X50015Y-38200I-265J0D01*
G74*
G01*
X50515Y-37200D02*
G75*
G03X50515Y-37200I-265J0D01*
G74*
G01*
X45864Y-42700D02*
G75*
G03X45864Y-42700I-364J0D01*
G74*
G01*
X51864Y-42700D02*
G75*
G03X51864Y-42700I-364J0D01*
G74*
G01*
X38279Y-18879D02*
X38279Y-19420D01*
X38820Y-19420D01*
X38820Y-18879D01*
X38279Y-18879D01*
X38820Y-18150D02*
G75*
G03X38820Y-18150I-270J0D01*
G74*
G01*
X38820Y-17150D02*
G75*
G03X38820Y-17150I-270J0D01*
G74*
G01*
X36479Y-18879D02*
X36479Y-19420D01*
X37020Y-19420D01*
X37020Y-18879D01*
X36479Y-18879D01*
X37020Y-18150D02*
G75*
G03X37020Y-18150I-270J0D01*
G74*
G01*
X37020Y-17150D02*
G75*
G03X37020Y-17150I-270J0D01*
G74*
G01*
X40979Y-23179D02*
X40979Y-23820D01*
X41620Y-23820D01*
X41620Y-23179D01*
X40979Y-23179D01*
X43620Y-23500D02*
G75*
G03X43620Y-23500I-320J0D01*
G74*
G01*
X41327Y-27000D02*
G75*
G03X41327Y-27000I-127J0D01*
G74*
G01*
X41327Y-26600D02*
G75*
G03X41327Y-26600I-127J0D01*
G74*
G01*
X22779Y-17379D02*
X22779Y-17920D01*
X23320Y-17920D01*
X23320Y-17379D01*
X22779Y-17379D01*
X22320Y-17650D02*
G75*
G03X22320Y-17650I-270J0D01*
G74*
G01*
G54D27*
X27407Y-14028D02*
X27407Y-14028D01*
X27407Y-14028D01*
X27407Y-14028D01*
X27407Y-14028D01*
X27407Y-14028D01*
X27407Y-14028D02*
X27407Y-14028D01*
X27407Y-14028D01*
X27407Y-14028D01*
X27407Y-14028D01*
X27407Y-14028D01*
X27407Y-14028D01*
X27407Y-14028D01*
X27407Y-14028D01*
X27407Y-14028D01*
X27407Y-14028D01*
X27407Y-14028D02*
X27407Y-14028D01*
X27407Y-14028D01*
X27407Y-14028D01*
X27407Y-14028D01*
X27407Y-14028D01*
X27407Y-14028D01*
X27407Y-14028D01*
X27407Y-14028D01*
X27407Y-14028D01*
X27407Y-14028D01*
X27407Y-14028D01*
X27407Y-14028D01*
X27407Y-14028D01*
X27407Y-14028D01*
X27407Y-14028D01*
X27407Y-14028D01*
X27407Y-14028D01*
X27407Y-14028D01*
X27407Y-14028D01*
X27407Y-14028D01*
X27407Y-14028D02*
X27407Y-14028D01*
X27407Y-14028D01*
X27407Y-14028D01*
X27407Y-14028D01*
X27407Y-14028D01*
X27407Y-14028D01*
X27407Y-14028D01*
X27407Y-14028D01*
X27407Y-14028D01*
X27407Y-14028D01*
G54D14*
G54D18*
X30883Y-28791D02*
X31116Y-29141D01*
X31116Y-28791D02*
X30883Y-29141D01*
X31433Y-29141D02*
X31233Y-29141D01*
X31333Y-29141D02*
X31333Y-28791D01*
X31300Y-28841D01*
X31266Y-28875D01*
X31233Y-28891D01*
X31650Y-28791D02*
X31683Y-28791D01*
X31716Y-28808D01*
X31733Y-28825D01*
X31750Y-28858D01*
X31766Y-28925D01*
X31766Y-29008D01*
X31750Y-29075D01*
X31733Y-29108D01*
X31716Y-29125D01*
X31683Y-29141D01*
X31650Y-29141D01*
X31616Y-29125D01*
X31600Y-29108D01*
X31583Y-29075D01*
X31566Y-29008D01*
X31566Y-28925D01*
X31583Y-28858D01*
X31600Y-28825D01*
X31616Y-28808D01*
X31650Y-28791D01*
X32100Y-29141D02*
X31900Y-29141D01*
X32000Y-29141D02*
X32000Y-28791D01*
X31966Y-28841D01*
X31933Y-28875D01*
X31900Y-28891D01*
X34454Y-27794D02*
X34454Y-27194D01*
X34873Y-27737D02*
X34854Y-27765D01*
X34797Y-27794D01*
X34758Y-27794D01*
X34701Y-27765D01*
X34663Y-27708D01*
X34644Y-27651D01*
X34625Y-27537D01*
X34625Y-27451D01*
X34644Y-27337D01*
X34663Y-27280D01*
X34701Y-27223D01*
X34758Y-27194D01*
X34797Y-27194D01*
X34854Y-27223D01*
X34873Y-27251D01*
X35254Y-27794D02*
X35025Y-27794D01*
X35139Y-27794D02*
X35139Y-27194D01*
X35101Y-27280D01*
X35063Y-27337D01*
X35025Y-27365D01*
X35501Y-27194D02*
X35539Y-27194D01*
X35577Y-27223D01*
X35597Y-27251D01*
X35616Y-27308D01*
X35635Y-27423D01*
X35635Y-27565D01*
X35616Y-27680D01*
X35597Y-27737D01*
X35577Y-27765D01*
X35539Y-27794D01*
X35501Y-27794D01*
X35463Y-27765D01*
X35444Y-27737D01*
X35425Y-27680D01*
X35406Y-27565D01*
X35406Y-27423D01*
X35425Y-27308D01*
X35444Y-27251D01*
X35463Y-27223D01*
X35501Y-27194D01*
X36016Y-27794D02*
X35787Y-27794D01*
X35901Y-27794D02*
X35901Y-27194D01*
X35863Y-27280D01*
X35825Y-27337D01*
X35787Y-27365D01*
G54D19*
X48364Y-24021D02*
X48264Y-23878D01*
X48192Y-24021D02*
X48192Y-23721D01*
X48307Y-23721D01*
X48335Y-23735D01*
X48350Y-23750D01*
X48364Y-23778D01*
X48364Y-23821D01*
X48350Y-23850D01*
X48335Y-23864D01*
X48307Y-23878D01*
X48192Y-23878D01*
X48650Y-24021D02*
X48478Y-24021D01*
X48564Y-24021D02*
X48564Y-23721D01*
X48535Y-23764D01*
X48507Y-23792D01*
X48478Y-23807D01*
X48835Y-23721D02*
X48864Y-23721D01*
X48892Y-23735D01*
X48907Y-23750D01*
X48921Y-23778D01*
X48935Y-23835D01*
X48935Y-23907D01*
X48921Y-23964D01*
X48907Y-23992D01*
X48892Y-24007D01*
X48864Y-24021D01*
X48835Y-24021D01*
X48807Y-24007D01*
X48792Y-23992D01*
X48778Y-23964D01*
X48764Y-23907D01*
X48764Y-23835D01*
X48778Y-23778D01*
X48792Y-23750D01*
X48807Y-23735D01*
X48835Y-23721D01*
X49207Y-23721D02*
X49064Y-23721D01*
X49050Y-23864D01*
X49064Y-23850D01*
X49092Y-23835D01*
X49164Y-23835D01*
X49192Y-23850D01*
X49207Y-23864D01*
X49221Y-23892D01*
X49221Y-23964D01*
X49207Y-23992D01*
X49192Y-24007D01*
X49164Y-24021D01*
X49092Y-24021D01*
X49064Y-24007D01*
X49050Y-23992D01*
X48364Y-29221D02*
X48264Y-29078D01*
X48192Y-29221D02*
X48192Y-28921D01*
X48307Y-28921D01*
X48335Y-28935D01*
X48350Y-28950D01*
X48364Y-28978D01*
X48364Y-29021D01*
X48350Y-29050D01*
X48335Y-29064D01*
X48307Y-29078D01*
X48192Y-29078D01*
X48650Y-29221D02*
X48478Y-29221D01*
X48564Y-29221D02*
X48564Y-28921D01*
X48535Y-28964D01*
X48507Y-28992D01*
X48478Y-29007D01*
X48835Y-28921D02*
X48864Y-28921D01*
X48892Y-28935D01*
X48907Y-28950D01*
X48921Y-28978D01*
X48935Y-29035D01*
X48935Y-29107D01*
X48921Y-29164D01*
X48907Y-29192D01*
X48892Y-29207D01*
X48864Y-29221D01*
X48835Y-29221D01*
X48807Y-29207D01*
X48792Y-29192D01*
X48778Y-29164D01*
X48764Y-29107D01*
X48764Y-29035D01*
X48778Y-28978D01*
X48792Y-28950D01*
X48807Y-28935D01*
X48835Y-28921D01*
X49192Y-28921D02*
X49135Y-28921D01*
X49107Y-28935D01*
X49092Y-28950D01*
X49064Y-28992D01*
X49050Y-29050D01*
X49050Y-29164D01*
X49064Y-29192D01*
X49078Y-29207D01*
X49107Y-29221D01*
X49164Y-29221D01*
X49192Y-29207D01*
X49207Y-29192D01*
X49221Y-29164D01*
X49221Y-29092D01*
X49207Y-29064D01*
X49192Y-29050D01*
X49164Y-29035D01*
X49107Y-29035D01*
X49078Y-29050D01*
X49064Y-29064D01*
X49050Y-29092D01*
X35207Y-24435D02*
X35064Y-24535D01*
X35207Y-24606D02*
X34907Y-24606D01*
X34907Y-24492D01*
X34921Y-24463D01*
X34935Y-24449D01*
X34964Y-24435D01*
X35007Y-24435D01*
X35035Y-24449D01*
X35049Y-24463D01*
X35064Y-24492D01*
X35064Y-24606D01*
X35207Y-24149D02*
X35207Y-24320D01*
X35207Y-24235D02*
X34907Y-24235D01*
X34949Y-24263D01*
X34978Y-24292D01*
X34992Y-24320D01*
X34907Y-23963D02*
X34907Y-23935D01*
X34921Y-23906D01*
X34935Y-23892D01*
X34964Y-23878D01*
X35021Y-23863D01*
X35092Y-23863D01*
X35149Y-23878D01*
X35178Y-23892D01*
X35192Y-23906D01*
X35207Y-23935D01*
X35207Y-23963D01*
X35192Y-23992D01*
X35178Y-24006D01*
X35149Y-24020D01*
X35092Y-24035D01*
X35021Y-24035D01*
X34964Y-24020D01*
X34935Y-24006D01*
X34921Y-23992D01*
X34907Y-23963D01*
X34907Y-23763D02*
X34907Y-23578D01*
X35021Y-23678D01*
X35021Y-23635D01*
X35035Y-23606D01*
X35049Y-23592D01*
X35078Y-23578D01*
X35149Y-23578D01*
X35178Y-23592D01*
X35192Y-23606D01*
X35207Y-23635D01*
X35207Y-23720D01*
X35192Y-23749D01*
X35178Y-23763D01*
X36583Y-25292D02*
X36569Y-25306D01*
X36526Y-25320D01*
X36497Y-25320D01*
X36454Y-25306D01*
X36426Y-25278D01*
X36411Y-25249D01*
X36397Y-25192D01*
X36397Y-25149D01*
X36411Y-25092D01*
X36426Y-25063D01*
X36454Y-25035D01*
X36497Y-25020D01*
X36526Y-25020D01*
X36569Y-25035D01*
X36583Y-25049D01*
X36869Y-25320D02*
X36697Y-25320D01*
X36783Y-25320D02*
X36783Y-25020D01*
X36754Y-25063D01*
X36726Y-25092D01*
X36697Y-25106D01*
X37054Y-25020D02*
X37083Y-25020D01*
X37111Y-25035D01*
X37126Y-25049D01*
X37140Y-25078D01*
X37154Y-25135D01*
X37154Y-25206D01*
X37140Y-25263D01*
X37126Y-25292D01*
X37111Y-25306D01*
X37083Y-25320D01*
X37054Y-25320D01*
X37026Y-25306D01*
X37011Y-25292D01*
X36997Y-25263D01*
X36983Y-25206D01*
X36983Y-25135D01*
X36997Y-25078D01*
X37011Y-25049D01*
X37026Y-25035D01*
X37054Y-25020D01*
X37254Y-25020D02*
X37440Y-25020D01*
X37340Y-25135D01*
X37383Y-25135D01*
X37411Y-25149D01*
X37426Y-25163D01*
X37440Y-25192D01*
X37440Y-25263D01*
X37426Y-25292D01*
X37411Y-25306D01*
X37383Y-25320D01*
X37297Y-25320D01*
X37269Y-25306D01*
X37254Y-25292D01*
X42889Y-38046D02*
X42789Y-37903D01*
X42717Y-38046D02*
X42717Y-37746D01*
X42832Y-37746D01*
X42860Y-37760D01*
X42875Y-37775D01*
X42889Y-37803D01*
X42889Y-37846D01*
X42875Y-37875D01*
X42860Y-37889D01*
X42832Y-37903D01*
X42717Y-37903D01*
X43175Y-38046D02*
X43003Y-38046D01*
X43089Y-38046D02*
X43089Y-37746D01*
X43060Y-37789D01*
X43032Y-37817D01*
X43003Y-37832D01*
X43360Y-37746D02*
X43389Y-37746D01*
X43417Y-37760D01*
X43432Y-37775D01*
X43446Y-37803D01*
X43460Y-37860D01*
X43460Y-37932D01*
X43446Y-37989D01*
X43432Y-38017D01*
X43417Y-38032D01*
X43389Y-38046D01*
X43360Y-38046D01*
X43332Y-38032D01*
X43317Y-38017D01*
X43303Y-37989D01*
X43289Y-37932D01*
X43289Y-37860D01*
X43303Y-37803D01*
X43317Y-37775D01*
X43332Y-37760D01*
X43360Y-37746D01*
X43575Y-37775D02*
X43589Y-37760D01*
X43617Y-37746D01*
X43689Y-37746D01*
X43717Y-37760D01*
X43732Y-37775D01*
X43746Y-37803D01*
X43746Y-37832D01*
X43732Y-37875D01*
X43560Y-38046D01*
X43746Y-38046D01*
X34538Y-32569D02*
X34553Y-32584D01*
X34567Y-32627D01*
X34567Y-32655D01*
X34553Y-32698D01*
X34524Y-32727D01*
X34496Y-32741D01*
X34438Y-32755D01*
X34396Y-32755D01*
X34338Y-32741D01*
X34310Y-32727D01*
X34281Y-32698D01*
X34267Y-32655D01*
X34267Y-32627D01*
X34281Y-32584D01*
X34296Y-32569D01*
X34567Y-32284D02*
X34567Y-32455D01*
X34567Y-32369D02*
X34267Y-32369D01*
X34310Y-32398D01*
X34338Y-32427D01*
X34353Y-32455D01*
X34267Y-32098D02*
X34267Y-32069D01*
X34281Y-32041D01*
X34296Y-32027D01*
X34324Y-32012D01*
X34381Y-31998D01*
X34453Y-31998D01*
X34510Y-32012D01*
X34538Y-32027D01*
X34553Y-32041D01*
X34567Y-32069D01*
X34567Y-32098D01*
X34553Y-32127D01*
X34538Y-32141D01*
X34510Y-32155D01*
X34453Y-32169D01*
X34381Y-32169D01*
X34324Y-32155D01*
X34296Y-32141D01*
X34281Y-32127D01*
X34267Y-32098D01*
X34367Y-31741D02*
X34567Y-31741D01*
X34253Y-31812D02*
X34467Y-31884D01*
X34467Y-31698D01*
X32114Y-32742D02*
X32100Y-32757D01*
X32057Y-32771D01*
X32028Y-32771D01*
X31985Y-32757D01*
X31957Y-32728D01*
X31942Y-32700D01*
X31928Y-32642D01*
X31928Y-32600D01*
X31942Y-32542D01*
X31957Y-32514D01*
X31985Y-32485D01*
X32028Y-32471D01*
X32057Y-32471D01*
X32100Y-32485D01*
X32114Y-32500D01*
X32400Y-32771D02*
X32228Y-32771D01*
X32314Y-32771D02*
X32314Y-32471D01*
X32285Y-32514D01*
X32257Y-32542D01*
X32228Y-32557D01*
X32585Y-32471D02*
X32614Y-32471D01*
X32642Y-32485D01*
X32657Y-32500D01*
X32671Y-32528D01*
X32685Y-32585D01*
X32685Y-32657D01*
X32671Y-32714D01*
X32657Y-32742D01*
X32642Y-32757D01*
X32614Y-32771D01*
X32585Y-32771D01*
X32557Y-32757D01*
X32542Y-32742D01*
X32528Y-32714D01*
X32514Y-32657D01*
X32514Y-32585D01*
X32528Y-32528D01*
X32542Y-32500D01*
X32557Y-32485D01*
X32585Y-32471D01*
X32942Y-32471D02*
X32885Y-32471D01*
X32857Y-32485D01*
X32842Y-32500D01*
X32814Y-32542D01*
X32800Y-32600D01*
X32800Y-32714D01*
X32814Y-32742D01*
X32828Y-32757D01*
X32857Y-32771D01*
X32914Y-32771D01*
X32942Y-32757D01*
X32957Y-32742D01*
X32971Y-32714D01*
X32971Y-32642D01*
X32957Y-32614D01*
X32942Y-32600D01*
X32914Y-32585D01*
X32857Y-32585D01*
X32828Y-32600D01*
X32814Y-32614D01*
X32800Y-32642D01*
X30364Y-24842D02*
X30350Y-24857D01*
X30307Y-24871D01*
X30278Y-24871D01*
X30235Y-24857D01*
X30207Y-24828D01*
X30192Y-24800D01*
X30178Y-24742D01*
X30178Y-24700D01*
X30192Y-24642D01*
X30207Y-24614D01*
X30235Y-24585D01*
X30278Y-24571D01*
X30307Y-24571D01*
X30350Y-24585D01*
X30364Y-24600D01*
X30650Y-24871D02*
X30478Y-24871D01*
X30564Y-24871D02*
X30564Y-24571D01*
X30535Y-24614D01*
X30507Y-24642D01*
X30478Y-24657D01*
X30835Y-24571D02*
X30864Y-24571D01*
X30892Y-24585D01*
X30907Y-24600D01*
X30921Y-24628D01*
X30935Y-24685D01*
X30935Y-24757D01*
X30921Y-24814D01*
X30907Y-24842D01*
X30892Y-24857D01*
X30864Y-24871D01*
X30835Y-24871D01*
X30807Y-24857D01*
X30792Y-24842D01*
X30778Y-24814D01*
X30764Y-24757D01*
X30764Y-24685D01*
X30778Y-24628D01*
X30792Y-24600D01*
X30807Y-24585D01*
X30835Y-24571D01*
X31207Y-24571D02*
X31064Y-24571D01*
X31050Y-24714D01*
X31064Y-24700D01*
X31092Y-24685D01*
X31164Y-24685D01*
X31192Y-24700D01*
X31207Y-24714D01*
X31221Y-24742D01*
X31221Y-24814D01*
X31207Y-24842D01*
X31192Y-24857D01*
X31164Y-24871D01*
X31092Y-24871D01*
X31064Y-24857D01*
X31050Y-24842D01*
X40434Y-28532D02*
X40420Y-28547D01*
X40377Y-28561D01*
X40348Y-28561D01*
X40305Y-28547D01*
X40277Y-28518D01*
X40262Y-28490D01*
X40248Y-28432D01*
X40248Y-28390D01*
X40262Y-28332D01*
X40277Y-28304D01*
X40305Y-28275D01*
X40348Y-28261D01*
X40377Y-28261D01*
X40420Y-28275D01*
X40434Y-28290D01*
X40720Y-28561D02*
X40548Y-28561D01*
X40634Y-28561D02*
X40634Y-28261D01*
X40605Y-28304D01*
X40577Y-28332D01*
X40548Y-28347D01*
X40905Y-28261D02*
X40934Y-28261D01*
X40962Y-28275D01*
X40977Y-28290D01*
X40991Y-28318D01*
X41005Y-28375D01*
X41005Y-28447D01*
X40991Y-28504D01*
X40977Y-28532D01*
X40962Y-28547D01*
X40934Y-28561D01*
X40905Y-28561D01*
X40877Y-28547D01*
X40862Y-28532D01*
X40848Y-28504D01*
X40834Y-28447D01*
X40834Y-28375D01*
X40848Y-28318D01*
X40862Y-28290D01*
X40877Y-28275D01*
X40905Y-28261D01*
X41120Y-28290D02*
X41134Y-28275D01*
X41162Y-28261D01*
X41234Y-28261D01*
X41262Y-28275D01*
X41277Y-28290D01*
X41291Y-28318D01*
X41291Y-28347D01*
X41277Y-28390D01*
X41105Y-28561D01*
X41291Y-28561D01*
X29339Y-29067D02*
X29325Y-29082D01*
X29282Y-29096D01*
X29253Y-29096D01*
X29210Y-29082D01*
X29182Y-29053D01*
X29167Y-29025D01*
X29153Y-28967D01*
X29153Y-28925D01*
X29167Y-28867D01*
X29182Y-28839D01*
X29210Y-28810D01*
X29253Y-28796D01*
X29282Y-28796D01*
X29325Y-28810D01*
X29339Y-28825D01*
X29625Y-29096D02*
X29453Y-29096D01*
X29539Y-29096D02*
X29539Y-28796D01*
X29510Y-28839D01*
X29482Y-28867D01*
X29453Y-28882D01*
X29810Y-28796D02*
X29839Y-28796D01*
X29867Y-28810D01*
X29882Y-28825D01*
X29896Y-28853D01*
X29910Y-28910D01*
X29910Y-28982D01*
X29896Y-29039D01*
X29882Y-29067D01*
X29867Y-29082D01*
X29839Y-29096D01*
X29810Y-29096D01*
X29782Y-29082D01*
X29767Y-29067D01*
X29753Y-29039D01*
X29739Y-28982D01*
X29739Y-28910D01*
X29753Y-28853D01*
X29767Y-28825D01*
X29782Y-28810D01*
X29810Y-28796D01*
X30196Y-29096D02*
X30025Y-29096D01*
X30110Y-29096D02*
X30110Y-28796D01*
X30082Y-28839D01*
X30053Y-28867D01*
X30025Y-28882D01*
G54D18*
X37623Y-31711D02*
X37623Y-31311D01*
X37776Y-31311D01*
X37814Y-31330D01*
X37833Y-31350D01*
X37852Y-31388D01*
X37852Y-31445D01*
X37833Y-31483D01*
X37814Y-31502D01*
X37776Y-31521D01*
X37623Y-31521D01*
X38233Y-31711D02*
X38004Y-31711D01*
X38119Y-31711D02*
X38119Y-31311D01*
X38080Y-31369D01*
X38042Y-31407D01*
X38004Y-31426D01*
X38480Y-31311D02*
X38519Y-31311D01*
X38557Y-31330D01*
X38576Y-31350D01*
X38595Y-31388D01*
X38614Y-31464D01*
X38614Y-31559D01*
X38595Y-31635D01*
X38576Y-31673D01*
X38557Y-31692D01*
X38519Y-31711D01*
X38480Y-31711D01*
X38442Y-31692D01*
X38423Y-31673D01*
X38404Y-31635D01*
X38385Y-31559D01*
X38385Y-31464D01*
X38404Y-31388D01*
X38423Y-31350D01*
X38442Y-31330D01*
X38480Y-31311D01*
X38842Y-31483D02*
X38804Y-31464D01*
X38785Y-31445D01*
X38766Y-31407D01*
X38766Y-31388D01*
X38785Y-31350D01*
X38804Y-31330D01*
X38842Y-31311D01*
X38919Y-31311D01*
X38957Y-31330D01*
X38976Y-31350D01*
X38995Y-31388D01*
X38995Y-31407D01*
X38976Y-31445D01*
X38957Y-31464D01*
X38919Y-31483D01*
X38842Y-31483D01*
X38804Y-31502D01*
X38785Y-31521D01*
X38766Y-31559D01*
X38766Y-31635D01*
X38785Y-31673D01*
X38804Y-31692D01*
X38842Y-31711D01*
X38919Y-31711D01*
X38957Y-31692D01*
X38976Y-31673D01*
X38995Y-31635D01*
X38995Y-31559D01*
X38976Y-31521D01*
X38957Y-31502D01*
X38919Y-31483D01*
X50161Y-23276D02*
X49761Y-23276D01*
X49761Y-23123D01*
X49780Y-23085D01*
X49800Y-23066D01*
X49838Y-23047D01*
X49895Y-23047D01*
X49933Y-23066D01*
X49952Y-23085D01*
X49971Y-23123D01*
X49971Y-23276D01*
X50161Y-22666D02*
X50161Y-22895D01*
X50161Y-22780D02*
X49761Y-22780D01*
X49819Y-22819D01*
X49857Y-22857D01*
X49876Y-22895D01*
X49761Y-22419D02*
X49761Y-22380D01*
X49780Y-22342D01*
X49800Y-22323D01*
X49838Y-22304D01*
X49914Y-22285D01*
X50009Y-22285D01*
X50085Y-22304D01*
X50123Y-22323D01*
X50142Y-22342D01*
X50161Y-22380D01*
X50161Y-22419D01*
X50142Y-22457D01*
X50123Y-22476D01*
X50085Y-22495D01*
X50009Y-22514D01*
X49914Y-22514D01*
X49838Y-22495D01*
X49800Y-22476D01*
X49780Y-22457D01*
X49761Y-22419D01*
X49761Y-21923D02*
X49761Y-22114D01*
X49952Y-22133D01*
X49933Y-22114D01*
X49914Y-22076D01*
X49914Y-21980D01*
X49933Y-21942D01*
X49952Y-21923D01*
X49990Y-21904D01*
X50085Y-21904D01*
X50123Y-21923D01*
X50142Y-21942D01*
X50161Y-21980D01*
X50161Y-22076D01*
X50142Y-22114D01*
X50123Y-22133D01*
G54D20*
X33911Y-42496D02*
X34125Y-42496D01*
X34168Y-42510D01*
X34197Y-42539D01*
X34211Y-42582D01*
X34211Y-42610D01*
X34211Y-42196D02*
X34211Y-42367D01*
X34211Y-42282D02*
X33911Y-42282D01*
X33954Y-42310D01*
X33983Y-42339D01*
X33997Y-42367D01*
X33911Y-42010D02*
X33911Y-41982D01*
X33925Y-41953D01*
X33940Y-41939D01*
X33968Y-41924D01*
X34025Y-41910D01*
X34097Y-41910D01*
X34154Y-41924D01*
X34183Y-41939D01*
X34197Y-41953D01*
X34211Y-41982D01*
X34211Y-42010D01*
X34197Y-42039D01*
X34183Y-42053D01*
X34154Y-42067D01*
X34097Y-42082D01*
X34025Y-42082D01*
X33968Y-42067D01*
X33940Y-42053D01*
X33925Y-42039D01*
X33911Y-42010D01*
X33940Y-41796D02*
X33925Y-41782D01*
X33911Y-41753D01*
X33911Y-41682D01*
X33925Y-41653D01*
X33940Y-41639D01*
X33968Y-41624D01*
X33997Y-41624D01*
X34040Y-41639D01*
X34211Y-41810D01*
X34211Y-41624D01*
G54D18*
X43636Y-43014D02*
X43922Y-43014D01*
X43979Y-43033D01*
X44017Y-43071D01*
X44036Y-43128D01*
X44036Y-43166D01*
X44036Y-42614D02*
X44036Y-42842D01*
X44036Y-42728D02*
X43636Y-42728D01*
X43694Y-42766D01*
X43732Y-42804D01*
X43751Y-42842D01*
X43636Y-42366D02*
X43636Y-42328D01*
X43655Y-42290D01*
X43675Y-42271D01*
X43713Y-42252D01*
X43789Y-42233D01*
X43884Y-42233D01*
X43960Y-42252D01*
X43998Y-42271D01*
X44017Y-42290D01*
X44036Y-42328D01*
X44036Y-42366D01*
X44017Y-42404D01*
X43998Y-42423D01*
X43960Y-42442D01*
X43884Y-42461D01*
X43789Y-42461D01*
X43713Y-42442D01*
X43675Y-42423D01*
X43655Y-42404D01*
X43636Y-42366D01*
X43770Y-41890D02*
X44036Y-41890D01*
X43617Y-41985D02*
X43903Y-42080D01*
X43903Y-41833D01*
G54D28*
X42692Y-39671D02*
X42692Y-39371D01*
X42764Y-39371D01*
X42807Y-39385D01*
X42835Y-39414D01*
X42850Y-39442D01*
X42864Y-39500D01*
X42864Y-39542D01*
X42850Y-39600D01*
X42835Y-39628D01*
X42807Y-39657D01*
X42764Y-39671D01*
X42692Y-39671D01*
X43150Y-39671D02*
X42978Y-39671D01*
X43064Y-39671D02*
X43064Y-39371D01*
X43035Y-39414D01*
X43007Y-39442D01*
X42978Y-39457D01*
X43335Y-39371D02*
X43364Y-39371D01*
X43392Y-39385D01*
X43407Y-39400D01*
X43421Y-39428D01*
X43435Y-39485D01*
X43435Y-39557D01*
X43421Y-39614D01*
X43407Y-39642D01*
X43392Y-39657D01*
X43364Y-39671D01*
X43335Y-39671D01*
X43307Y-39657D01*
X43292Y-39642D01*
X43278Y-39614D01*
X43264Y-39557D01*
X43264Y-39485D01*
X43278Y-39428D01*
X43292Y-39400D01*
X43307Y-39385D01*
X43335Y-39371D01*
X43721Y-39671D02*
X43550Y-39671D01*
X43635Y-39671D02*
X43635Y-39371D01*
X43607Y-39414D01*
X43578Y-39442D01*
X43550Y-39457D01*
G54D18*
X50476Y-34888D02*
X50076Y-34888D01*
X50076Y-34736D01*
X50095Y-34698D01*
X50114Y-34679D01*
X50153Y-34660D01*
X50210Y-34660D01*
X50248Y-34679D01*
X50267Y-34698D01*
X50286Y-34736D01*
X50286Y-34888D01*
X50476Y-34279D02*
X50476Y-34507D01*
X50476Y-34393D02*
X50076Y-34393D01*
X50134Y-34431D01*
X50172Y-34469D01*
X50191Y-34507D01*
X50076Y-34031D02*
X50076Y-33993D01*
X50095Y-33955D01*
X50114Y-33936D01*
X50153Y-33917D01*
X50229Y-33898D01*
X50324Y-33898D01*
X50400Y-33917D01*
X50438Y-33936D01*
X50457Y-33955D01*
X50476Y-33993D01*
X50476Y-34031D01*
X50457Y-34069D01*
X50438Y-34088D01*
X50400Y-34107D01*
X50324Y-34126D01*
X50229Y-34126D01*
X50153Y-34107D01*
X50114Y-34088D01*
X50095Y-34069D01*
X50076Y-34031D01*
X50476Y-33517D02*
X50476Y-33745D01*
X50476Y-33631D02*
X50076Y-33631D01*
X50134Y-33669D01*
X50172Y-33707D01*
X50191Y-33745D01*
G54D19*
X26164Y-33071D02*
X26021Y-33071D01*
X26021Y-32771D01*
X26235Y-32771D02*
X26421Y-32771D01*
X26321Y-32885D01*
X26364Y-32885D01*
X26392Y-32900D01*
X26407Y-32914D01*
X26421Y-32942D01*
X26421Y-33014D01*
X26407Y-33042D01*
X26392Y-33057D01*
X26364Y-33071D01*
X26278Y-33071D01*
X26250Y-33057D01*
X26235Y-33042D01*
X26607Y-32771D02*
X26635Y-32771D01*
X26664Y-32785D01*
X26678Y-32800D01*
X26692Y-32828D01*
X26707Y-32885D01*
X26707Y-32957D01*
X26692Y-33014D01*
X26678Y-33042D01*
X26664Y-33057D01*
X26635Y-33071D01*
X26607Y-33071D01*
X26578Y-33057D01*
X26564Y-33042D01*
X26550Y-33014D01*
X26535Y-32957D01*
X26535Y-32885D01*
X26550Y-32828D01*
X26564Y-32800D01*
X26578Y-32785D01*
X26607Y-32771D01*
X26992Y-33071D02*
X26821Y-33071D01*
X26907Y-33071D02*
X26907Y-32771D01*
X26878Y-32814D01*
X26850Y-32842D01*
X26821Y-32857D01*
G54D18*
X15814Y-34211D02*
X15814Y-34535D01*
X15833Y-34573D01*
X15852Y-34592D01*
X15890Y-34611D01*
X15966Y-34611D01*
X16004Y-34592D01*
X16023Y-34573D01*
X16042Y-34535D01*
X16042Y-34211D01*
X16214Y-34250D02*
X16233Y-34230D01*
X16271Y-34211D01*
X16366Y-34211D01*
X16404Y-34230D01*
X16423Y-34250D01*
X16442Y-34288D01*
X16442Y-34326D01*
X16423Y-34383D01*
X16195Y-34611D01*
X16442Y-34611D01*
X16690Y-34211D02*
X16728Y-34211D01*
X16766Y-34230D01*
X16785Y-34250D01*
X16804Y-34288D01*
X16823Y-34364D01*
X16823Y-34459D01*
X16804Y-34535D01*
X16785Y-34573D01*
X16766Y-34592D01*
X16728Y-34611D01*
X16690Y-34611D01*
X16652Y-34592D01*
X16633Y-34573D01*
X16614Y-34535D01*
X16595Y-34459D01*
X16595Y-34364D01*
X16614Y-34288D01*
X16633Y-34250D01*
X16652Y-34230D01*
X16690Y-34211D01*
X16976Y-34250D02*
X16995Y-34230D01*
X17033Y-34211D01*
X17128Y-34211D01*
X17166Y-34230D01*
X17185Y-34250D01*
X17204Y-34288D01*
X17204Y-34326D01*
X17185Y-34383D01*
X16957Y-34611D01*
X17204Y-34611D01*
G54D20*
X20128Y-41082D02*
X20128Y-41446D01*
X20150Y-41489D01*
X20171Y-41510D01*
X20214Y-41532D01*
X20300Y-41532D01*
X20342Y-41510D01*
X20364Y-41489D01*
X20385Y-41446D01*
X20385Y-41082D01*
X20557Y-41082D02*
X20835Y-41082D01*
X20685Y-41253D01*
X20750Y-41253D01*
X20792Y-41275D01*
X20814Y-41296D01*
X20835Y-41339D01*
X20835Y-41446D01*
X20814Y-41489D01*
X20792Y-41510D01*
X20750Y-41532D01*
X20621Y-41532D01*
X20578Y-41510D01*
X20557Y-41489D01*
X21114Y-41082D02*
X21157Y-41082D01*
X21200Y-41103D01*
X21221Y-41125D01*
X21242Y-41167D01*
X21264Y-41253D01*
X21264Y-41360D01*
X21242Y-41446D01*
X21221Y-41489D01*
X21200Y-41510D01*
X21157Y-41532D01*
X21114Y-41532D01*
X21071Y-41510D01*
X21050Y-41489D01*
X21028Y-41446D01*
X21007Y-41360D01*
X21007Y-41253D01*
X21028Y-41167D01*
X21050Y-41125D01*
X21071Y-41103D01*
X21114Y-41082D01*
X21435Y-41125D02*
X21457Y-41103D01*
X21500Y-41082D01*
X21607Y-41082D01*
X21650Y-41103D01*
X21671Y-41125D01*
X21692Y-41167D01*
X21692Y-41210D01*
X21671Y-41275D01*
X21414Y-41532D01*
X21692Y-41532D01*
G54D19*
X29228Y-20911D02*
X29228Y-21235D01*
X29250Y-21273D01*
X29271Y-21292D01*
X29314Y-21311D01*
X29400Y-21311D01*
X29442Y-21292D01*
X29464Y-21273D01*
X29485Y-21235D01*
X29485Y-20911D01*
X29657Y-20911D02*
X29935Y-20911D01*
X29785Y-21064D01*
X29850Y-21064D01*
X29892Y-21083D01*
X29914Y-21102D01*
X29935Y-21140D01*
X29935Y-21235D01*
X29914Y-21273D01*
X29892Y-21292D01*
X29850Y-21311D01*
X29721Y-21311D01*
X29678Y-21292D01*
X29657Y-21273D01*
X30214Y-20911D02*
X30257Y-20911D01*
X30300Y-20930D01*
X30321Y-20950D01*
X30342Y-20988D01*
X30364Y-21064D01*
X30364Y-21159D01*
X30342Y-21235D01*
X30321Y-21273D01*
X30300Y-21292D01*
X30257Y-21311D01*
X30214Y-21311D01*
X30171Y-21292D01*
X30150Y-21273D01*
X30128Y-21235D01*
X30107Y-21159D01*
X30107Y-21064D01*
X30128Y-20988D01*
X30150Y-20950D01*
X30171Y-20930D01*
X30214Y-20911D01*
X30792Y-21311D02*
X30535Y-21311D01*
X30664Y-21311D02*
X30664Y-20911D01*
X30621Y-20969D01*
X30578Y-21007D01*
X30535Y-21026D01*
X21892Y-38885D02*
X21907Y-38900D01*
X21921Y-38942D01*
X21921Y-38971D01*
X21907Y-39014D01*
X21878Y-39042D01*
X21850Y-39057D01*
X21792Y-39071D01*
X21750Y-39071D01*
X21692Y-39057D01*
X21664Y-39042D01*
X21635Y-39014D01*
X21621Y-38971D01*
X21621Y-38942D01*
X21635Y-38900D01*
X21650Y-38885D01*
X21621Y-38785D02*
X21621Y-38600D01*
X21735Y-38700D01*
X21735Y-38657D01*
X21750Y-38628D01*
X21764Y-38614D01*
X21792Y-38600D01*
X21864Y-38600D01*
X21892Y-38614D01*
X21907Y-38628D01*
X21921Y-38657D01*
X21921Y-38742D01*
X21907Y-38771D01*
X21892Y-38785D01*
X21621Y-38414D02*
X21621Y-38385D01*
X21635Y-38357D01*
X21650Y-38342D01*
X21678Y-38328D01*
X21735Y-38314D01*
X21807Y-38314D01*
X21864Y-38328D01*
X21892Y-38342D01*
X21907Y-38357D01*
X21921Y-38385D01*
X21921Y-38414D01*
X21907Y-38442D01*
X21892Y-38457D01*
X21864Y-38471D01*
X21807Y-38485D01*
X21735Y-38485D01*
X21678Y-38471D01*
X21650Y-38457D01*
X21635Y-38442D01*
X21621Y-38414D01*
X21650Y-38200D02*
X21635Y-38185D01*
X21621Y-38157D01*
X21621Y-38085D01*
X21635Y-38057D01*
X21650Y-38042D01*
X21678Y-38028D01*
X21707Y-38028D01*
X21750Y-38042D01*
X21921Y-38214D01*
X21921Y-38028D01*
X17771Y-37835D02*
X17628Y-37935D01*
X17771Y-38007D02*
X17471Y-38007D01*
X17471Y-37892D01*
X17485Y-37864D01*
X17500Y-37850D01*
X17528Y-37835D01*
X17571Y-37835D01*
X17600Y-37850D01*
X17614Y-37864D01*
X17628Y-37892D01*
X17628Y-38007D01*
X17471Y-37735D02*
X17471Y-37550D01*
X17585Y-37650D01*
X17585Y-37607D01*
X17600Y-37578D01*
X17614Y-37564D01*
X17642Y-37550D01*
X17714Y-37550D01*
X17742Y-37564D01*
X17757Y-37578D01*
X17771Y-37607D01*
X17771Y-37692D01*
X17757Y-37721D01*
X17742Y-37735D01*
X17471Y-37364D02*
X17471Y-37335D01*
X17485Y-37307D01*
X17500Y-37292D01*
X17528Y-37278D01*
X17585Y-37264D01*
X17657Y-37264D01*
X17714Y-37278D01*
X17742Y-37292D01*
X17757Y-37307D01*
X17771Y-37335D01*
X17771Y-37364D01*
X17757Y-37392D01*
X17742Y-37407D01*
X17714Y-37421D01*
X17657Y-37435D01*
X17585Y-37435D01*
X17528Y-37421D01*
X17500Y-37407D01*
X17485Y-37392D01*
X17471Y-37364D01*
X17571Y-37007D02*
X17771Y-37007D01*
X17457Y-37078D02*
X17671Y-37150D01*
X17671Y-36964D01*
X18592Y-32535D02*
X18607Y-32550D01*
X18621Y-32592D01*
X18621Y-32621D01*
X18607Y-32664D01*
X18578Y-32692D01*
X18550Y-32707D01*
X18492Y-32721D01*
X18450Y-32721D01*
X18392Y-32707D01*
X18364Y-32692D01*
X18335Y-32664D01*
X18321Y-32621D01*
X18321Y-32592D01*
X18335Y-32550D01*
X18350Y-32535D01*
X18350Y-32421D02*
X18335Y-32407D01*
X18321Y-32378D01*
X18321Y-32307D01*
X18335Y-32278D01*
X18350Y-32264D01*
X18378Y-32250D01*
X18407Y-32250D01*
X18450Y-32264D01*
X18621Y-32435D01*
X18621Y-32250D01*
X18621Y-31964D02*
X18621Y-32135D01*
X18621Y-32050D02*
X18321Y-32050D01*
X18364Y-32078D01*
X18392Y-32107D01*
X18407Y-32135D01*
X18621Y-31678D02*
X18621Y-31850D01*
X18621Y-31764D02*
X18321Y-31764D01*
X18364Y-31792D01*
X18392Y-31821D01*
X18407Y-31850D01*
X25914Y-41871D02*
X25814Y-41728D01*
X25742Y-41871D02*
X25742Y-41571D01*
X25857Y-41571D01*
X25885Y-41585D01*
X25900Y-41600D01*
X25914Y-41628D01*
X25914Y-41671D01*
X25900Y-41700D01*
X25885Y-41714D01*
X25857Y-41728D01*
X25742Y-41728D01*
X26014Y-41571D02*
X26200Y-41571D01*
X26100Y-41685D01*
X26142Y-41685D01*
X26171Y-41700D01*
X26185Y-41714D01*
X26200Y-41742D01*
X26200Y-41814D01*
X26185Y-41842D01*
X26171Y-41857D01*
X26142Y-41871D01*
X26057Y-41871D01*
X26028Y-41857D01*
X26014Y-41842D01*
X26385Y-41571D02*
X26414Y-41571D01*
X26442Y-41585D01*
X26457Y-41600D01*
X26471Y-41628D01*
X26485Y-41685D01*
X26485Y-41757D01*
X26471Y-41814D01*
X26457Y-41842D01*
X26442Y-41857D01*
X26414Y-41871D01*
X26385Y-41871D01*
X26357Y-41857D01*
X26342Y-41842D01*
X26328Y-41814D01*
X26314Y-41757D01*
X26314Y-41685D01*
X26328Y-41628D01*
X26342Y-41600D01*
X26357Y-41585D01*
X26385Y-41571D01*
X26585Y-41571D02*
X26771Y-41571D01*
X26671Y-41685D01*
X26714Y-41685D01*
X26742Y-41700D01*
X26757Y-41714D01*
X26771Y-41742D01*
X26771Y-41814D01*
X26757Y-41842D01*
X26742Y-41857D01*
X26714Y-41871D01*
X26628Y-41871D01*
X26600Y-41857D01*
X26585Y-41842D01*
X21921Y-37585D02*
X21778Y-37685D01*
X21921Y-37757D02*
X21621Y-37757D01*
X21621Y-37642D01*
X21635Y-37614D01*
X21650Y-37600D01*
X21678Y-37585D01*
X21721Y-37585D01*
X21750Y-37600D01*
X21764Y-37614D01*
X21778Y-37642D01*
X21778Y-37757D01*
X21621Y-37485D02*
X21621Y-37300D01*
X21735Y-37400D01*
X21735Y-37357D01*
X21750Y-37328D01*
X21764Y-37314D01*
X21792Y-37300D01*
X21864Y-37300D01*
X21892Y-37314D01*
X21907Y-37328D01*
X21921Y-37357D01*
X21921Y-37442D01*
X21907Y-37471D01*
X21892Y-37485D01*
X21621Y-37114D02*
X21621Y-37085D01*
X21635Y-37057D01*
X21650Y-37042D01*
X21678Y-37028D01*
X21735Y-37014D01*
X21807Y-37014D01*
X21864Y-37028D01*
X21892Y-37042D01*
X21907Y-37057D01*
X21921Y-37085D01*
X21921Y-37114D01*
X21907Y-37142D01*
X21892Y-37157D01*
X21864Y-37171D01*
X21807Y-37185D01*
X21735Y-37185D01*
X21678Y-37171D01*
X21650Y-37157D01*
X21635Y-37142D01*
X21621Y-37114D01*
X21621Y-36757D02*
X21621Y-36814D01*
X21635Y-36842D01*
X21650Y-36857D01*
X21692Y-36885D01*
X21750Y-36900D01*
X21864Y-36900D01*
X21892Y-36885D01*
X21907Y-36871D01*
X21921Y-36842D01*
X21921Y-36785D01*
X21907Y-36757D01*
X21892Y-36742D01*
X21864Y-36728D01*
X21792Y-36728D01*
X21764Y-36742D01*
X21750Y-36757D01*
X21735Y-36785D01*
X21735Y-36842D01*
X21750Y-36871D01*
X21764Y-36885D01*
X21792Y-36900D01*
X16814Y-36171D02*
X16714Y-36028D01*
X16642Y-36171D02*
X16642Y-35871D01*
X16757Y-35871D01*
X16785Y-35885D01*
X16800Y-35900D01*
X16814Y-35928D01*
X16814Y-35971D01*
X16800Y-36000D01*
X16785Y-36014D01*
X16757Y-36028D01*
X16642Y-36028D01*
X16914Y-35871D02*
X17100Y-35871D01*
X17000Y-35985D01*
X17042Y-35985D01*
X17071Y-36000D01*
X17085Y-36014D01*
X17100Y-36042D01*
X17100Y-36114D01*
X17085Y-36142D01*
X17071Y-36157D01*
X17042Y-36171D01*
X16957Y-36171D01*
X16928Y-36157D01*
X16914Y-36142D01*
X17285Y-35871D02*
X17314Y-35871D01*
X17342Y-35885D01*
X17357Y-35900D01*
X17371Y-35928D01*
X17385Y-35985D01*
X17385Y-36057D01*
X17371Y-36114D01*
X17357Y-36142D01*
X17342Y-36157D01*
X17314Y-36171D01*
X17285Y-36171D01*
X17257Y-36157D01*
X17242Y-36142D01*
X17228Y-36114D01*
X17214Y-36057D01*
X17214Y-35985D01*
X17228Y-35928D01*
X17242Y-35900D01*
X17257Y-35885D01*
X17285Y-35871D01*
X17657Y-35871D02*
X17514Y-35871D01*
X17500Y-36014D01*
X17514Y-36000D01*
X17542Y-35985D01*
X17614Y-35985D01*
X17642Y-36000D01*
X17657Y-36014D01*
X17671Y-36042D01*
X17671Y-36114D01*
X17657Y-36142D01*
X17642Y-36157D01*
X17614Y-36171D01*
X17542Y-36171D01*
X17514Y-36157D01*
X17500Y-36142D01*
X21514Y-44171D02*
X21414Y-44028D01*
X21342Y-44171D02*
X21342Y-43871D01*
X21457Y-43871D01*
X21485Y-43885D01*
X21500Y-43900D01*
X21514Y-43928D01*
X21514Y-43971D01*
X21500Y-44000D01*
X21485Y-44014D01*
X21457Y-44028D01*
X21342Y-44028D01*
X21614Y-43871D02*
X21800Y-43871D01*
X21700Y-43985D01*
X21742Y-43985D01*
X21771Y-44000D01*
X21785Y-44014D01*
X21800Y-44042D01*
X21800Y-44114D01*
X21785Y-44142D01*
X21771Y-44157D01*
X21742Y-44171D01*
X21657Y-44171D01*
X21628Y-44157D01*
X21614Y-44142D01*
X21985Y-43871D02*
X22014Y-43871D01*
X22042Y-43885D01*
X22057Y-43900D01*
X22071Y-43928D01*
X22085Y-43985D01*
X22085Y-44057D01*
X22071Y-44114D01*
X22057Y-44142D01*
X22042Y-44157D01*
X22014Y-44171D01*
X21985Y-44171D01*
X21957Y-44157D01*
X21942Y-44142D01*
X21928Y-44114D01*
X21914Y-44057D01*
X21914Y-43985D01*
X21928Y-43928D01*
X21942Y-43900D01*
X21957Y-43885D01*
X21985Y-43871D01*
X22200Y-43900D02*
X22214Y-43885D01*
X22242Y-43871D01*
X22314Y-43871D01*
X22342Y-43885D01*
X22357Y-43900D01*
X22371Y-43928D01*
X22371Y-43957D01*
X22357Y-44000D01*
X22185Y-44171D01*
X22371Y-44171D01*
X25914Y-43071D02*
X25814Y-42928D01*
X25742Y-43071D02*
X25742Y-42771D01*
X25857Y-42771D01*
X25885Y-42785D01*
X25900Y-42800D01*
X25914Y-42828D01*
X25914Y-42871D01*
X25900Y-42900D01*
X25885Y-42914D01*
X25857Y-42928D01*
X25742Y-42928D01*
X26014Y-42771D02*
X26200Y-42771D01*
X26100Y-42885D01*
X26142Y-42885D01*
X26171Y-42900D01*
X26185Y-42914D01*
X26200Y-42942D01*
X26200Y-43014D01*
X26185Y-43042D01*
X26171Y-43057D01*
X26142Y-43071D01*
X26057Y-43071D01*
X26028Y-43057D01*
X26014Y-43042D01*
X26385Y-42771D02*
X26414Y-42771D01*
X26442Y-42785D01*
X26457Y-42800D01*
X26471Y-42828D01*
X26485Y-42885D01*
X26485Y-42957D01*
X26471Y-43014D01*
X26457Y-43042D01*
X26442Y-43057D01*
X26414Y-43071D01*
X26385Y-43071D01*
X26357Y-43057D01*
X26342Y-43042D01*
X26328Y-43014D01*
X26314Y-42957D01*
X26314Y-42885D01*
X26328Y-42828D01*
X26342Y-42800D01*
X26357Y-42785D01*
X26385Y-42771D01*
X26771Y-43071D02*
X26600Y-43071D01*
X26685Y-43071D02*
X26685Y-42771D01*
X26657Y-42814D01*
X26628Y-42842D01*
X26600Y-42857D01*
X27730Y-34075D02*
X27744Y-34090D01*
X27759Y-34133D01*
X27759Y-34161D01*
X27744Y-34204D01*
X27716Y-34233D01*
X27687Y-34247D01*
X27630Y-34261D01*
X27587Y-34261D01*
X27530Y-34247D01*
X27502Y-34233D01*
X27473Y-34204D01*
X27459Y-34161D01*
X27459Y-34133D01*
X27473Y-34090D01*
X27487Y-34075D01*
X27459Y-33975D02*
X27459Y-33790D01*
X27573Y-33890D01*
X27573Y-33847D01*
X27587Y-33818D01*
X27602Y-33804D01*
X27630Y-33790D01*
X27702Y-33790D01*
X27730Y-33804D01*
X27744Y-33818D01*
X27759Y-33847D01*
X27759Y-33933D01*
X27744Y-33961D01*
X27730Y-33975D01*
X27459Y-33604D02*
X27459Y-33575D01*
X27473Y-33547D01*
X27487Y-33533D01*
X27516Y-33518D01*
X27573Y-33504D01*
X27644Y-33504D01*
X27702Y-33518D01*
X27730Y-33533D01*
X27744Y-33547D01*
X27759Y-33575D01*
X27759Y-33604D01*
X27744Y-33633D01*
X27730Y-33647D01*
X27702Y-33661D01*
X27644Y-33675D01*
X27573Y-33675D01*
X27516Y-33661D01*
X27487Y-33647D01*
X27473Y-33633D01*
X27459Y-33604D01*
X27459Y-33233D02*
X27459Y-33375D01*
X27602Y-33390D01*
X27587Y-33375D01*
X27573Y-33347D01*
X27573Y-33275D01*
X27587Y-33247D01*
X27602Y-33233D01*
X27630Y-33218D01*
X27702Y-33218D01*
X27730Y-33233D01*
X27744Y-33247D01*
X27759Y-33275D01*
X27759Y-33347D01*
X27744Y-33375D01*
X27730Y-33390D01*
X20589Y-32217D02*
X20603Y-32231D01*
X20617Y-32274D01*
X20617Y-32302D01*
X20603Y-32345D01*
X20575Y-32374D01*
X20546Y-32388D01*
X20489Y-32402D01*
X20446Y-32402D01*
X20389Y-32388D01*
X20360Y-32374D01*
X20332Y-32345D01*
X20317Y-32302D01*
X20317Y-32274D01*
X20332Y-32231D01*
X20346Y-32217D01*
X20317Y-32117D02*
X20317Y-31931D01*
X20432Y-32031D01*
X20432Y-31988D01*
X20446Y-31960D01*
X20460Y-31945D01*
X20489Y-31931D01*
X20560Y-31931D01*
X20589Y-31945D01*
X20603Y-31960D01*
X20617Y-31988D01*
X20617Y-32074D01*
X20603Y-32102D01*
X20589Y-32117D01*
X20317Y-31745D02*
X20317Y-31717D01*
X20332Y-31688D01*
X20346Y-31674D01*
X20375Y-31660D01*
X20432Y-31645D01*
X20503Y-31645D01*
X20560Y-31660D01*
X20589Y-31674D01*
X20603Y-31688D01*
X20617Y-31717D01*
X20617Y-31745D01*
X20603Y-31774D01*
X20589Y-31788D01*
X20560Y-31802D01*
X20503Y-31817D01*
X20432Y-31817D01*
X20375Y-31802D01*
X20346Y-31788D01*
X20332Y-31774D01*
X20317Y-31745D01*
X20317Y-31388D02*
X20317Y-31445D01*
X20332Y-31474D01*
X20346Y-31488D01*
X20389Y-31517D01*
X20446Y-31531D01*
X20560Y-31531D01*
X20589Y-31517D01*
X20603Y-31502D01*
X20617Y-31474D01*
X20617Y-31417D01*
X20603Y-31388D01*
X20589Y-31374D01*
X20560Y-31360D01*
X20489Y-31360D01*
X20460Y-31374D01*
X20446Y-31388D01*
X20432Y-31417D01*
X20432Y-31474D01*
X20446Y-31502D01*
X20460Y-31517D01*
X20489Y-31531D01*
X28842Y-32385D02*
X28857Y-32400D01*
X28871Y-32442D01*
X28871Y-32471D01*
X28857Y-32514D01*
X28828Y-32542D01*
X28800Y-32557D01*
X28742Y-32571D01*
X28700Y-32571D01*
X28642Y-32557D01*
X28614Y-32542D01*
X28585Y-32514D01*
X28571Y-32471D01*
X28571Y-32442D01*
X28585Y-32400D01*
X28600Y-32385D01*
X28571Y-32285D02*
X28571Y-32100D01*
X28685Y-32200D01*
X28685Y-32157D01*
X28700Y-32128D01*
X28714Y-32114D01*
X28742Y-32100D01*
X28814Y-32100D01*
X28842Y-32114D01*
X28857Y-32128D01*
X28871Y-32157D01*
X28871Y-32242D01*
X28857Y-32271D01*
X28842Y-32285D01*
X28571Y-31914D02*
X28571Y-31885D01*
X28585Y-31857D01*
X28600Y-31842D01*
X28628Y-31828D01*
X28685Y-31814D01*
X28757Y-31814D01*
X28814Y-31828D01*
X28842Y-31842D01*
X28857Y-31857D01*
X28871Y-31885D01*
X28871Y-31914D01*
X28857Y-31942D01*
X28842Y-31957D01*
X28814Y-31971D01*
X28757Y-31985D01*
X28685Y-31985D01*
X28628Y-31971D01*
X28600Y-31957D01*
X28585Y-31942D01*
X28571Y-31914D01*
X28571Y-31714D02*
X28571Y-31514D01*
X28871Y-31642D01*
X25642Y-31985D02*
X25657Y-32000D01*
X25671Y-32042D01*
X25671Y-32071D01*
X25657Y-32114D01*
X25628Y-32142D01*
X25600Y-32157D01*
X25542Y-32171D01*
X25500Y-32171D01*
X25442Y-32157D01*
X25414Y-32142D01*
X25385Y-32114D01*
X25371Y-32071D01*
X25371Y-32042D01*
X25385Y-32000D01*
X25400Y-31985D01*
X25371Y-31885D02*
X25371Y-31700D01*
X25485Y-31800D01*
X25485Y-31757D01*
X25500Y-31728D01*
X25514Y-31714D01*
X25542Y-31700D01*
X25614Y-31700D01*
X25642Y-31714D01*
X25657Y-31728D01*
X25671Y-31757D01*
X25671Y-31842D01*
X25657Y-31871D01*
X25642Y-31885D01*
X25371Y-31514D02*
X25371Y-31485D01*
X25385Y-31457D01*
X25400Y-31442D01*
X25428Y-31428D01*
X25485Y-31414D01*
X25557Y-31414D01*
X25614Y-31428D01*
X25642Y-31442D01*
X25657Y-31457D01*
X25671Y-31485D01*
X25671Y-31514D01*
X25657Y-31542D01*
X25642Y-31557D01*
X25614Y-31571D01*
X25557Y-31585D01*
X25485Y-31585D01*
X25428Y-31571D01*
X25400Y-31557D01*
X25385Y-31542D01*
X25371Y-31514D01*
X25500Y-31242D02*
X25485Y-31271D01*
X25471Y-31285D01*
X25442Y-31300D01*
X25428Y-31300D01*
X25400Y-31285D01*
X25385Y-31271D01*
X25371Y-31242D01*
X25371Y-31185D01*
X25385Y-31157D01*
X25400Y-31142D01*
X25428Y-31128D01*
X25442Y-31128D01*
X25471Y-31142D01*
X25485Y-31157D01*
X25500Y-31185D01*
X25500Y-31242D01*
X25514Y-31271D01*
X25528Y-31285D01*
X25557Y-31300D01*
X25614Y-31300D01*
X25642Y-31285D01*
X25657Y-31271D01*
X25671Y-31242D01*
X25671Y-31185D01*
X25657Y-31157D01*
X25642Y-31142D01*
X25614Y-31128D01*
X25557Y-31128D01*
X25528Y-31142D01*
X25514Y-31157D01*
X25500Y-31185D01*
X17992Y-39785D02*
X18007Y-39800D01*
X18021Y-39842D01*
X18021Y-39871D01*
X18007Y-39914D01*
X17978Y-39942D01*
X17950Y-39957D01*
X17892Y-39971D01*
X17850Y-39971D01*
X17792Y-39957D01*
X17764Y-39942D01*
X17735Y-39914D01*
X17721Y-39871D01*
X17721Y-39842D01*
X17735Y-39800D01*
X17750Y-39785D01*
X17721Y-39685D02*
X17721Y-39500D01*
X17835Y-39600D01*
X17835Y-39557D01*
X17850Y-39528D01*
X17864Y-39514D01*
X17892Y-39500D01*
X17964Y-39500D01*
X17992Y-39514D01*
X18007Y-39528D01*
X18021Y-39557D01*
X18021Y-39642D01*
X18007Y-39671D01*
X17992Y-39685D01*
X17721Y-39314D02*
X17721Y-39285D01*
X17735Y-39257D01*
X17750Y-39242D01*
X17778Y-39228D01*
X17835Y-39214D01*
X17907Y-39214D01*
X17964Y-39228D01*
X17992Y-39242D01*
X18007Y-39257D01*
X18021Y-39285D01*
X18021Y-39314D01*
X18007Y-39342D01*
X17992Y-39357D01*
X17964Y-39371D01*
X17907Y-39385D01*
X17835Y-39385D01*
X17778Y-39371D01*
X17750Y-39357D01*
X17735Y-39342D01*
X17721Y-39314D01*
X18021Y-38928D02*
X18021Y-39100D01*
X18021Y-39014D02*
X17721Y-39014D01*
X17764Y-39042D01*
X17792Y-39071D01*
X17807Y-39100D01*
X18964Y-43742D02*
X18950Y-43757D01*
X18907Y-43771D01*
X18878Y-43771D01*
X18835Y-43757D01*
X18807Y-43728D01*
X18792Y-43700D01*
X18778Y-43642D01*
X18778Y-43600D01*
X18792Y-43542D01*
X18807Y-43514D01*
X18835Y-43485D01*
X18878Y-43471D01*
X18907Y-43471D01*
X18950Y-43485D01*
X18964Y-43500D01*
X19064Y-43471D02*
X19250Y-43471D01*
X19150Y-43585D01*
X19192Y-43585D01*
X19221Y-43600D01*
X19235Y-43614D01*
X19250Y-43642D01*
X19250Y-43714D01*
X19235Y-43742D01*
X19221Y-43757D01*
X19192Y-43771D01*
X19107Y-43771D01*
X19078Y-43757D01*
X19064Y-43742D01*
X19435Y-43471D02*
X19464Y-43471D01*
X19492Y-43485D01*
X19507Y-43500D01*
X19521Y-43528D01*
X19535Y-43585D01*
X19535Y-43657D01*
X19521Y-43714D01*
X19507Y-43742D01*
X19492Y-43757D01*
X19464Y-43771D01*
X19435Y-43771D01*
X19407Y-43757D01*
X19392Y-43742D01*
X19378Y-43714D01*
X19364Y-43657D01*
X19364Y-43585D01*
X19378Y-43528D01*
X19392Y-43500D01*
X19407Y-43485D01*
X19435Y-43471D01*
X19635Y-43471D02*
X19821Y-43471D01*
X19721Y-43585D01*
X19764Y-43585D01*
X19792Y-43600D01*
X19807Y-43614D01*
X19821Y-43642D01*
X19821Y-43714D01*
X19807Y-43742D01*
X19792Y-43757D01*
X19764Y-43771D01*
X19678Y-43771D01*
X19650Y-43757D01*
X19635Y-43742D01*
X24771Y-23935D02*
X24628Y-24035D01*
X24771Y-24107D02*
X24471Y-24107D01*
X24471Y-23992D01*
X24485Y-23964D01*
X24500Y-23950D01*
X24528Y-23935D01*
X24571Y-23935D01*
X24600Y-23950D01*
X24614Y-23964D01*
X24628Y-23992D01*
X24628Y-24107D01*
X24500Y-23821D02*
X24485Y-23807D01*
X24471Y-23778D01*
X24471Y-23707D01*
X24485Y-23678D01*
X24500Y-23664D01*
X24528Y-23650D01*
X24557Y-23650D01*
X24600Y-23664D01*
X24771Y-23835D01*
X24771Y-23650D01*
X24471Y-23464D02*
X24471Y-23435D01*
X24485Y-23407D01*
X24500Y-23392D01*
X24528Y-23378D01*
X24585Y-23364D01*
X24657Y-23364D01*
X24714Y-23378D01*
X24742Y-23392D01*
X24757Y-23407D01*
X24771Y-23435D01*
X24771Y-23464D01*
X24757Y-23492D01*
X24742Y-23507D01*
X24714Y-23521D01*
X24657Y-23535D01*
X24585Y-23535D01*
X24528Y-23521D01*
X24500Y-23507D01*
X24485Y-23492D01*
X24471Y-23464D01*
X24471Y-23107D02*
X24471Y-23164D01*
X24485Y-23192D01*
X24500Y-23207D01*
X24542Y-23235D01*
X24600Y-23250D01*
X24714Y-23250D01*
X24742Y-23235D01*
X24757Y-23221D01*
X24771Y-23192D01*
X24771Y-23135D01*
X24757Y-23107D01*
X24742Y-23092D01*
X24714Y-23078D01*
X24642Y-23078D01*
X24614Y-23092D01*
X24600Y-23107D01*
X24585Y-23135D01*
X24585Y-23192D01*
X24600Y-23221D01*
X24614Y-23235D01*
X24642Y-23250D01*
X16142Y-24835D02*
X16157Y-24850D01*
X16171Y-24892D01*
X16171Y-24921D01*
X16157Y-24964D01*
X16128Y-24992D01*
X16100Y-25007D01*
X16042Y-25021D01*
X16000Y-25021D01*
X15942Y-25007D01*
X15914Y-24992D01*
X15885Y-24964D01*
X15871Y-24921D01*
X15871Y-24892D01*
X15885Y-24850D01*
X15900Y-24835D01*
X15900Y-24721D02*
X15885Y-24707D01*
X15871Y-24678D01*
X15871Y-24607D01*
X15885Y-24578D01*
X15900Y-24564D01*
X15928Y-24550D01*
X15957Y-24550D01*
X16000Y-24564D01*
X16171Y-24735D01*
X16171Y-24550D01*
X15871Y-24364D02*
X15871Y-24335D01*
X15885Y-24307D01*
X15900Y-24292D01*
X15928Y-24278D01*
X15985Y-24264D01*
X16057Y-24264D01*
X16114Y-24278D01*
X16142Y-24292D01*
X16157Y-24307D01*
X16171Y-24335D01*
X16171Y-24364D01*
X16157Y-24392D01*
X16142Y-24407D01*
X16114Y-24421D01*
X16057Y-24435D01*
X15985Y-24435D01*
X15928Y-24421D01*
X15900Y-24407D01*
X15885Y-24392D01*
X15871Y-24364D01*
X16171Y-23978D02*
X16171Y-24150D01*
X16171Y-24064D02*
X15871Y-24064D01*
X15914Y-24092D01*
X15942Y-24121D01*
X15957Y-24150D01*
X16142Y-27235D02*
X16157Y-27250D01*
X16171Y-27292D01*
X16171Y-27321D01*
X16157Y-27364D01*
X16128Y-27392D01*
X16100Y-27407D01*
X16042Y-27421D01*
X16000Y-27421D01*
X15942Y-27407D01*
X15914Y-27392D01*
X15885Y-27364D01*
X15871Y-27321D01*
X15871Y-27292D01*
X15885Y-27250D01*
X15900Y-27235D01*
X15900Y-27121D02*
X15885Y-27107D01*
X15871Y-27078D01*
X15871Y-27007D01*
X15885Y-26978D01*
X15900Y-26964D01*
X15928Y-26950D01*
X15957Y-26950D01*
X16000Y-26964D01*
X16171Y-27135D01*
X16171Y-26950D01*
X15871Y-26764D02*
X15871Y-26735D01*
X15885Y-26707D01*
X15900Y-26692D01*
X15928Y-26678D01*
X15985Y-26664D01*
X16057Y-26664D01*
X16114Y-26678D01*
X16142Y-26692D01*
X16157Y-26707D01*
X16171Y-26735D01*
X16171Y-26764D01*
X16157Y-26792D01*
X16142Y-26807D01*
X16114Y-26821D01*
X16057Y-26835D01*
X15985Y-26835D01*
X15928Y-26821D01*
X15900Y-26807D01*
X15885Y-26792D01*
X15871Y-26764D01*
X15900Y-26550D02*
X15885Y-26535D01*
X15871Y-26507D01*
X15871Y-26435D01*
X15885Y-26407D01*
X15900Y-26392D01*
X15928Y-26378D01*
X15957Y-26378D01*
X16000Y-26392D01*
X16171Y-26564D01*
X16171Y-26378D01*
X18692Y-22385D02*
X18707Y-22400D01*
X18721Y-22442D01*
X18721Y-22471D01*
X18707Y-22514D01*
X18678Y-22542D01*
X18650Y-22557D01*
X18592Y-22571D01*
X18550Y-22571D01*
X18492Y-22557D01*
X18464Y-22542D01*
X18435Y-22514D01*
X18421Y-22471D01*
X18421Y-22442D01*
X18435Y-22400D01*
X18450Y-22385D01*
X18450Y-22271D02*
X18435Y-22257D01*
X18421Y-22228D01*
X18421Y-22157D01*
X18435Y-22128D01*
X18450Y-22114D01*
X18478Y-22100D01*
X18507Y-22100D01*
X18550Y-22114D01*
X18721Y-22285D01*
X18721Y-22100D01*
X18421Y-21914D02*
X18421Y-21885D01*
X18435Y-21857D01*
X18450Y-21842D01*
X18478Y-21828D01*
X18535Y-21814D01*
X18607Y-21814D01*
X18664Y-21828D01*
X18692Y-21842D01*
X18707Y-21857D01*
X18721Y-21885D01*
X18721Y-21914D01*
X18707Y-21942D01*
X18692Y-21957D01*
X18664Y-21971D01*
X18607Y-21985D01*
X18535Y-21985D01*
X18478Y-21971D01*
X18450Y-21957D01*
X18435Y-21942D01*
X18421Y-21914D01*
X18421Y-21542D02*
X18421Y-21685D01*
X18564Y-21700D01*
X18550Y-21685D01*
X18535Y-21657D01*
X18535Y-21585D01*
X18550Y-21557D01*
X18564Y-21542D01*
X18592Y-21528D01*
X18664Y-21528D01*
X18692Y-21542D01*
X18707Y-21557D01*
X18721Y-21585D01*
X18721Y-21657D01*
X18707Y-21685D01*
X18692Y-21700D01*
X18692Y-21185D02*
X18707Y-21200D01*
X18721Y-21242D01*
X18721Y-21271D01*
X18707Y-21314D01*
X18678Y-21342D01*
X18650Y-21357D01*
X18592Y-21371D01*
X18550Y-21371D01*
X18492Y-21357D01*
X18464Y-21342D01*
X18435Y-21314D01*
X18421Y-21271D01*
X18421Y-21242D01*
X18435Y-21200D01*
X18450Y-21185D01*
X18450Y-21071D02*
X18435Y-21057D01*
X18421Y-21028D01*
X18421Y-20957D01*
X18435Y-20928D01*
X18450Y-20914D01*
X18478Y-20900D01*
X18507Y-20900D01*
X18550Y-20914D01*
X18721Y-21085D01*
X18721Y-20900D01*
X18421Y-20714D02*
X18421Y-20685D01*
X18435Y-20657D01*
X18450Y-20642D01*
X18478Y-20628D01*
X18535Y-20614D01*
X18607Y-20614D01*
X18664Y-20628D01*
X18692Y-20642D01*
X18707Y-20657D01*
X18721Y-20685D01*
X18721Y-20714D01*
X18707Y-20742D01*
X18692Y-20757D01*
X18664Y-20771D01*
X18607Y-20785D01*
X18535Y-20785D01*
X18478Y-20771D01*
X18450Y-20757D01*
X18435Y-20742D01*
X18421Y-20714D01*
X18421Y-20357D02*
X18421Y-20414D01*
X18435Y-20442D01*
X18450Y-20457D01*
X18492Y-20485D01*
X18550Y-20500D01*
X18664Y-20500D01*
X18692Y-20485D01*
X18707Y-20471D01*
X18721Y-20442D01*
X18721Y-20385D01*
X18707Y-20357D01*
X18692Y-20342D01*
X18664Y-20328D01*
X18592Y-20328D01*
X18564Y-20342D01*
X18550Y-20357D01*
X18535Y-20385D01*
X18535Y-20442D01*
X18550Y-20471D01*
X18564Y-20485D01*
X18592Y-20500D01*
X22114Y-29892D02*
X22100Y-29907D01*
X22057Y-29921D01*
X22028Y-29921D01*
X21985Y-29907D01*
X21957Y-29878D01*
X21942Y-29850D01*
X21928Y-29792D01*
X21928Y-29750D01*
X21942Y-29692D01*
X21957Y-29664D01*
X21985Y-29635D01*
X22028Y-29621D01*
X22057Y-29621D01*
X22100Y-29635D01*
X22114Y-29650D01*
X22228Y-29650D02*
X22242Y-29635D01*
X22271Y-29621D01*
X22342Y-29621D01*
X22371Y-29635D01*
X22385Y-29650D01*
X22400Y-29678D01*
X22400Y-29707D01*
X22385Y-29750D01*
X22214Y-29921D01*
X22400Y-29921D01*
X22585Y-29621D02*
X22614Y-29621D01*
X22642Y-29635D01*
X22657Y-29650D01*
X22671Y-29678D01*
X22685Y-29735D01*
X22685Y-29807D01*
X22671Y-29864D01*
X22657Y-29892D01*
X22642Y-29907D01*
X22614Y-29921D01*
X22585Y-29921D01*
X22557Y-29907D01*
X22542Y-29892D01*
X22528Y-29864D01*
X22514Y-29807D01*
X22514Y-29735D01*
X22528Y-29678D01*
X22542Y-29650D01*
X22557Y-29635D01*
X22585Y-29621D01*
X22785Y-29621D02*
X22985Y-29621D01*
X22857Y-29921D01*
X16092Y-22385D02*
X16107Y-22400D01*
X16121Y-22442D01*
X16121Y-22471D01*
X16107Y-22514D01*
X16078Y-22542D01*
X16050Y-22557D01*
X15992Y-22571D01*
X15950Y-22571D01*
X15892Y-22557D01*
X15864Y-22542D01*
X15835Y-22514D01*
X15821Y-22471D01*
X15821Y-22442D01*
X15835Y-22400D01*
X15850Y-22385D01*
X15850Y-22271D02*
X15835Y-22257D01*
X15821Y-22228D01*
X15821Y-22157D01*
X15835Y-22128D01*
X15850Y-22114D01*
X15878Y-22100D01*
X15907Y-22100D01*
X15950Y-22114D01*
X16121Y-22285D01*
X16121Y-22100D01*
X15821Y-21914D02*
X15821Y-21885D01*
X15835Y-21857D01*
X15850Y-21842D01*
X15878Y-21828D01*
X15935Y-21814D01*
X16007Y-21814D01*
X16064Y-21828D01*
X16092Y-21842D01*
X16107Y-21857D01*
X16121Y-21885D01*
X16121Y-21914D01*
X16107Y-21942D01*
X16092Y-21957D01*
X16064Y-21971D01*
X16007Y-21985D01*
X15935Y-21985D01*
X15878Y-21971D01*
X15850Y-21957D01*
X15835Y-21942D01*
X15821Y-21914D01*
X15921Y-21557D02*
X16121Y-21557D01*
X15807Y-21628D02*
X16021Y-21700D01*
X16021Y-21514D01*
X19442Y-28985D02*
X19457Y-29000D01*
X19471Y-29042D01*
X19471Y-29071D01*
X19457Y-29114D01*
X19428Y-29142D01*
X19400Y-29157D01*
X19342Y-29171D01*
X19300Y-29171D01*
X19242Y-29157D01*
X19214Y-29142D01*
X19185Y-29114D01*
X19171Y-29071D01*
X19171Y-29042D01*
X19185Y-29000D01*
X19200Y-28985D01*
X19200Y-28871D02*
X19185Y-28857D01*
X19171Y-28828D01*
X19171Y-28757D01*
X19185Y-28728D01*
X19200Y-28714D01*
X19228Y-28700D01*
X19257Y-28700D01*
X19300Y-28714D01*
X19471Y-28885D01*
X19471Y-28700D01*
X19171Y-28514D02*
X19171Y-28485D01*
X19185Y-28457D01*
X19200Y-28442D01*
X19228Y-28428D01*
X19285Y-28414D01*
X19357Y-28414D01*
X19414Y-28428D01*
X19442Y-28442D01*
X19457Y-28457D01*
X19471Y-28485D01*
X19471Y-28514D01*
X19457Y-28542D01*
X19442Y-28557D01*
X19414Y-28571D01*
X19357Y-28585D01*
X19285Y-28585D01*
X19228Y-28571D01*
X19200Y-28557D01*
X19185Y-28542D01*
X19171Y-28514D01*
X19171Y-28314D02*
X19171Y-28128D01*
X19285Y-28228D01*
X19285Y-28185D01*
X19300Y-28157D01*
X19314Y-28142D01*
X19342Y-28128D01*
X19414Y-28128D01*
X19442Y-28142D01*
X19457Y-28157D01*
X19471Y-28185D01*
X19471Y-28271D01*
X19457Y-28300D01*
X19442Y-28314D01*
X22821Y-19885D02*
X22678Y-19985D01*
X22821Y-20057D02*
X22521Y-20057D01*
X22521Y-19942D01*
X22535Y-19914D01*
X22550Y-19900D01*
X22578Y-19885D01*
X22621Y-19885D01*
X22650Y-19900D01*
X22664Y-19914D01*
X22678Y-19942D01*
X22678Y-20057D01*
X22550Y-19771D02*
X22535Y-19757D01*
X22521Y-19728D01*
X22521Y-19657D01*
X22535Y-19628D01*
X22550Y-19614D01*
X22578Y-19600D01*
X22607Y-19600D01*
X22650Y-19614D01*
X22821Y-19785D01*
X22821Y-19600D01*
X22521Y-19414D02*
X22521Y-19385D01*
X22535Y-19357D01*
X22550Y-19342D01*
X22578Y-19328D01*
X22635Y-19314D01*
X22707Y-19314D01*
X22764Y-19328D01*
X22792Y-19342D01*
X22807Y-19357D01*
X22821Y-19385D01*
X22821Y-19414D01*
X22807Y-19442D01*
X22792Y-19457D01*
X22764Y-19471D01*
X22707Y-19485D01*
X22635Y-19485D01*
X22578Y-19471D01*
X22550Y-19457D01*
X22535Y-19442D01*
X22521Y-19414D01*
X22821Y-19028D02*
X22821Y-19200D01*
X22821Y-19114D02*
X22521Y-19114D01*
X22564Y-19142D01*
X22592Y-19171D01*
X22607Y-19200D01*
X25821Y-23935D02*
X25678Y-24035D01*
X25821Y-24107D02*
X25521Y-24107D01*
X25521Y-23992D01*
X25535Y-23964D01*
X25550Y-23950D01*
X25578Y-23935D01*
X25621Y-23935D01*
X25650Y-23950D01*
X25664Y-23964D01*
X25678Y-23992D01*
X25678Y-24107D01*
X25550Y-23821D02*
X25535Y-23807D01*
X25521Y-23778D01*
X25521Y-23707D01*
X25535Y-23678D01*
X25550Y-23664D01*
X25578Y-23650D01*
X25607Y-23650D01*
X25650Y-23664D01*
X25821Y-23835D01*
X25821Y-23650D01*
X25521Y-23464D02*
X25521Y-23435D01*
X25535Y-23407D01*
X25550Y-23392D01*
X25578Y-23378D01*
X25635Y-23364D01*
X25707Y-23364D01*
X25764Y-23378D01*
X25792Y-23392D01*
X25807Y-23407D01*
X25821Y-23435D01*
X25821Y-23464D01*
X25807Y-23492D01*
X25792Y-23507D01*
X25764Y-23521D01*
X25707Y-23535D01*
X25635Y-23535D01*
X25578Y-23521D01*
X25550Y-23507D01*
X25535Y-23492D01*
X25521Y-23464D01*
X25521Y-23092D02*
X25521Y-23235D01*
X25664Y-23250D01*
X25650Y-23235D01*
X25635Y-23207D01*
X25635Y-23135D01*
X25650Y-23107D01*
X25664Y-23092D01*
X25692Y-23078D01*
X25764Y-23078D01*
X25792Y-23092D01*
X25807Y-23107D01*
X25821Y-23135D01*
X25821Y-23207D01*
X25807Y-23235D01*
X25792Y-23250D01*
X19642Y-32535D02*
X19657Y-32550D01*
X19671Y-32592D01*
X19671Y-32621D01*
X19657Y-32664D01*
X19628Y-32692D01*
X19600Y-32707D01*
X19542Y-32721D01*
X19500Y-32721D01*
X19442Y-32707D01*
X19414Y-32692D01*
X19385Y-32664D01*
X19371Y-32621D01*
X19371Y-32592D01*
X19385Y-32550D01*
X19400Y-32535D01*
X19400Y-32421D02*
X19385Y-32407D01*
X19371Y-32378D01*
X19371Y-32307D01*
X19385Y-32278D01*
X19400Y-32264D01*
X19428Y-32250D01*
X19457Y-32250D01*
X19500Y-32264D01*
X19671Y-32435D01*
X19671Y-32250D01*
X19671Y-31964D02*
X19671Y-32135D01*
X19671Y-32050D02*
X19371Y-32050D01*
X19414Y-32078D01*
X19442Y-32107D01*
X19457Y-32135D01*
X19400Y-31850D02*
X19385Y-31835D01*
X19371Y-31807D01*
X19371Y-31735D01*
X19385Y-31707D01*
X19400Y-31692D01*
X19428Y-31678D01*
X19457Y-31678D01*
X19500Y-31692D01*
X19671Y-31864D01*
X19671Y-31678D01*
X25492Y-19935D02*
X25507Y-19950D01*
X25521Y-19992D01*
X25521Y-20021D01*
X25507Y-20064D01*
X25478Y-20092D01*
X25450Y-20107D01*
X25392Y-20121D01*
X25350Y-20121D01*
X25292Y-20107D01*
X25264Y-20092D01*
X25235Y-20064D01*
X25221Y-20021D01*
X25221Y-19992D01*
X25235Y-19950D01*
X25250Y-19935D01*
X25250Y-19821D02*
X25235Y-19807D01*
X25221Y-19778D01*
X25221Y-19707D01*
X25235Y-19678D01*
X25250Y-19664D01*
X25278Y-19650D01*
X25307Y-19650D01*
X25350Y-19664D01*
X25521Y-19835D01*
X25521Y-19650D01*
X25221Y-19464D02*
X25221Y-19435D01*
X25235Y-19407D01*
X25250Y-19392D01*
X25278Y-19378D01*
X25335Y-19364D01*
X25407Y-19364D01*
X25464Y-19378D01*
X25492Y-19392D01*
X25507Y-19407D01*
X25521Y-19435D01*
X25521Y-19464D01*
X25507Y-19492D01*
X25492Y-19507D01*
X25464Y-19521D01*
X25407Y-19535D01*
X25335Y-19535D01*
X25278Y-19521D01*
X25250Y-19507D01*
X25235Y-19492D01*
X25221Y-19464D01*
X25521Y-19221D02*
X25521Y-19164D01*
X25507Y-19135D01*
X25492Y-19121D01*
X25450Y-19092D01*
X25392Y-19078D01*
X25278Y-19078D01*
X25250Y-19092D01*
X25235Y-19107D01*
X25221Y-19135D01*
X25221Y-19192D01*
X25235Y-19221D01*
X25250Y-19235D01*
X25278Y-19250D01*
X25350Y-19250D01*
X25378Y-19235D01*
X25392Y-19221D01*
X25407Y-19192D01*
X25407Y-19135D01*
X25392Y-19107D01*
X25378Y-19092D01*
X25350Y-19078D01*
X14892Y-20185D02*
X14907Y-20200D01*
X14921Y-20242D01*
X14921Y-20271D01*
X14907Y-20314D01*
X14878Y-20342D01*
X14850Y-20357D01*
X14792Y-20371D01*
X14750Y-20371D01*
X14692Y-20357D01*
X14664Y-20342D01*
X14635Y-20314D01*
X14621Y-20271D01*
X14621Y-20242D01*
X14635Y-20200D01*
X14650Y-20185D01*
X14650Y-20071D02*
X14635Y-20057D01*
X14621Y-20028D01*
X14621Y-19957D01*
X14635Y-19928D01*
X14650Y-19914D01*
X14678Y-19900D01*
X14707Y-19900D01*
X14750Y-19914D01*
X14921Y-20085D01*
X14921Y-19900D01*
X14921Y-19614D02*
X14921Y-19785D01*
X14921Y-19700D02*
X14621Y-19700D01*
X14664Y-19728D01*
X14692Y-19757D01*
X14707Y-19785D01*
X14621Y-19428D02*
X14621Y-19400D01*
X14635Y-19371D01*
X14650Y-19357D01*
X14678Y-19342D01*
X14735Y-19328D01*
X14807Y-19328D01*
X14864Y-19342D01*
X14892Y-19357D01*
X14907Y-19371D01*
X14921Y-19400D01*
X14921Y-19428D01*
X14907Y-19457D01*
X14892Y-19471D01*
X14864Y-19485D01*
X14807Y-19500D01*
X14735Y-19500D01*
X14678Y-19485D01*
X14650Y-19471D01*
X14635Y-19457D01*
X14621Y-19428D01*
X16464Y-18621D02*
X16321Y-18621D01*
X16321Y-18321D01*
X16550Y-18350D02*
X16564Y-18335D01*
X16592Y-18321D01*
X16664Y-18321D01*
X16692Y-18335D01*
X16707Y-18350D01*
X16721Y-18378D01*
X16721Y-18407D01*
X16707Y-18450D01*
X16535Y-18621D01*
X16721Y-18621D01*
X16907Y-18321D02*
X16935Y-18321D01*
X16964Y-18335D01*
X16978Y-18350D01*
X16992Y-18378D01*
X17007Y-18435D01*
X17007Y-18507D01*
X16992Y-18564D01*
X16978Y-18592D01*
X16964Y-18607D01*
X16935Y-18621D01*
X16907Y-18621D01*
X16878Y-18607D01*
X16864Y-18592D01*
X16850Y-18564D01*
X16835Y-18507D01*
X16835Y-18435D01*
X16850Y-18378D01*
X16864Y-18350D01*
X16878Y-18335D01*
X16907Y-18321D01*
X17292Y-18621D02*
X17121Y-18621D01*
X17207Y-18621D02*
X17207Y-18321D01*
X17178Y-18364D01*
X17150Y-18392D01*
X17121Y-18407D01*
X19964Y-19871D02*
X19864Y-19728D01*
X19792Y-19871D02*
X19792Y-19571D01*
X19907Y-19571D01*
X19935Y-19585D01*
X19950Y-19600D01*
X19964Y-19628D01*
X19964Y-19671D01*
X19950Y-19700D01*
X19935Y-19714D01*
X19907Y-19728D01*
X19792Y-19728D01*
X20078Y-19600D02*
X20092Y-19585D01*
X20121Y-19571D01*
X20192Y-19571D01*
X20221Y-19585D01*
X20235Y-19600D01*
X20250Y-19628D01*
X20250Y-19657D01*
X20235Y-19700D01*
X20064Y-19871D01*
X20250Y-19871D01*
X20435Y-19571D02*
X20464Y-19571D01*
X20492Y-19585D01*
X20507Y-19600D01*
X20521Y-19628D01*
X20535Y-19685D01*
X20535Y-19757D01*
X20521Y-19814D01*
X20507Y-19842D01*
X20492Y-19857D01*
X20464Y-19871D01*
X20435Y-19871D01*
X20407Y-19857D01*
X20392Y-19842D01*
X20378Y-19814D01*
X20364Y-19757D01*
X20364Y-19685D01*
X20378Y-19628D01*
X20392Y-19600D01*
X20407Y-19585D01*
X20435Y-19571D01*
X20635Y-19571D02*
X20821Y-19571D01*
X20721Y-19685D01*
X20764Y-19685D01*
X20792Y-19700D01*
X20807Y-19714D01*
X20821Y-19742D01*
X20821Y-19814D01*
X20807Y-19842D01*
X20792Y-19857D01*
X20764Y-19871D01*
X20678Y-19871D01*
X20650Y-19857D01*
X20635Y-19842D01*
X19964Y-18871D02*
X19864Y-18728D01*
X19792Y-18871D02*
X19792Y-18571D01*
X19907Y-18571D01*
X19935Y-18585D01*
X19950Y-18600D01*
X19964Y-18628D01*
X19964Y-18671D01*
X19950Y-18700D01*
X19935Y-18714D01*
X19907Y-18728D01*
X19792Y-18728D01*
X20078Y-18600D02*
X20092Y-18585D01*
X20121Y-18571D01*
X20192Y-18571D01*
X20221Y-18585D01*
X20235Y-18600D01*
X20250Y-18628D01*
X20250Y-18657D01*
X20235Y-18700D01*
X20064Y-18871D01*
X20250Y-18871D01*
X20435Y-18571D02*
X20464Y-18571D01*
X20492Y-18585D01*
X20507Y-18600D01*
X20521Y-18628D01*
X20535Y-18685D01*
X20535Y-18757D01*
X20521Y-18814D01*
X20507Y-18842D01*
X20492Y-18857D01*
X20464Y-18871D01*
X20435Y-18871D01*
X20407Y-18857D01*
X20392Y-18842D01*
X20378Y-18814D01*
X20364Y-18757D01*
X20364Y-18685D01*
X20378Y-18628D01*
X20392Y-18600D01*
X20407Y-18585D01*
X20435Y-18571D01*
X20792Y-18671D02*
X20792Y-18871D01*
X20721Y-18557D02*
X20650Y-18771D01*
X20835Y-18771D01*
X14121Y-26735D02*
X13978Y-26835D01*
X14121Y-26907D02*
X13821Y-26907D01*
X13821Y-26792D01*
X13835Y-26764D01*
X13850Y-26750D01*
X13878Y-26735D01*
X13921Y-26735D01*
X13950Y-26750D01*
X13964Y-26764D01*
X13978Y-26792D01*
X13978Y-26907D01*
X13921Y-26478D02*
X14121Y-26478D01*
X13807Y-26550D02*
X14021Y-26621D01*
X14021Y-26435D01*
X13821Y-26264D02*
X13821Y-26235D01*
X13835Y-26207D01*
X13850Y-26192D01*
X13878Y-26178D01*
X13935Y-26164D01*
X14007Y-26164D01*
X14064Y-26178D01*
X14092Y-26192D01*
X14107Y-26207D01*
X14121Y-26235D01*
X14121Y-26264D01*
X14107Y-26292D01*
X14092Y-26307D01*
X14064Y-26321D01*
X14007Y-26335D01*
X13935Y-26335D01*
X13878Y-26321D01*
X13850Y-26307D01*
X13835Y-26292D01*
X13821Y-26264D01*
X14121Y-25878D02*
X14121Y-26050D01*
X14121Y-25964D02*
X13821Y-25964D01*
X13864Y-25992D01*
X13892Y-26021D01*
X13907Y-26050D01*
X15271Y-26785D02*
X15128Y-26885D01*
X15271Y-26957D02*
X14971Y-26957D01*
X14971Y-26842D01*
X14985Y-26814D01*
X15000Y-26800D01*
X15028Y-26785D01*
X15071Y-26785D01*
X15100Y-26800D01*
X15114Y-26814D01*
X15128Y-26842D01*
X15128Y-26957D01*
X15071Y-26528D02*
X15271Y-26528D01*
X14957Y-26600D02*
X15171Y-26671D01*
X15171Y-26485D01*
X14971Y-26314D02*
X14971Y-26285D01*
X14985Y-26257D01*
X15000Y-26242D01*
X15028Y-26228D01*
X15085Y-26214D01*
X15157Y-26214D01*
X15214Y-26228D01*
X15242Y-26242D01*
X15257Y-26257D01*
X15271Y-26285D01*
X15271Y-26314D01*
X15257Y-26342D01*
X15242Y-26357D01*
X15214Y-26371D01*
X15157Y-26385D01*
X15085Y-26385D01*
X15028Y-26371D01*
X15000Y-26357D01*
X14985Y-26342D01*
X14971Y-26314D01*
X15000Y-26100D02*
X14985Y-26085D01*
X14971Y-26057D01*
X14971Y-25985D01*
X14985Y-25957D01*
X15000Y-25942D01*
X15028Y-25928D01*
X15057Y-25928D01*
X15100Y-25942D01*
X15271Y-26114D01*
X15271Y-25928D01*
X15564Y-38092D02*
X15550Y-38107D01*
X15507Y-38121D01*
X15478Y-38121D01*
X15435Y-38107D01*
X15407Y-38078D01*
X15392Y-38050D01*
X15378Y-37992D01*
X15378Y-37950D01*
X15392Y-37892D01*
X15407Y-37864D01*
X15435Y-37835D01*
X15478Y-37821D01*
X15507Y-37821D01*
X15550Y-37835D01*
X15564Y-37850D01*
X15664Y-37821D02*
X15850Y-37821D01*
X15750Y-37935D01*
X15792Y-37935D01*
X15821Y-37950D01*
X15835Y-37964D01*
X15850Y-37992D01*
X15850Y-38064D01*
X15835Y-38092D01*
X15821Y-38107D01*
X15792Y-38121D01*
X15707Y-38121D01*
X15678Y-38107D01*
X15664Y-38092D01*
X16135Y-38121D02*
X15964Y-38121D01*
X16050Y-38121D02*
X16050Y-37821D01*
X16021Y-37864D01*
X15992Y-37892D01*
X15964Y-37907D01*
X16321Y-37821D02*
X16350Y-37821D01*
X16378Y-37835D01*
X16392Y-37850D01*
X16407Y-37878D01*
X16421Y-37935D01*
X16421Y-38007D01*
X16407Y-38064D01*
X16392Y-38092D01*
X16378Y-38107D01*
X16350Y-38121D01*
X16321Y-38121D01*
X16292Y-38107D01*
X16278Y-38092D01*
X16264Y-38064D01*
X16250Y-38007D01*
X16250Y-37935D01*
X16264Y-37878D01*
X16278Y-37850D01*
X16292Y-37835D01*
X16321Y-37821D01*
X19492Y-30685D02*
X19507Y-30700D01*
X19521Y-30742D01*
X19521Y-30771D01*
X19507Y-30814D01*
X19478Y-30842D01*
X19450Y-30857D01*
X19392Y-30871D01*
X19350Y-30871D01*
X19292Y-30857D01*
X19264Y-30842D01*
X19235Y-30814D01*
X19221Y-30771D01*
X19221Y-30742D01*
X19235Y-30700D01*
X19250Y-30685D01*
X19250Y-30571D02*
X19235Y-30557D01*
X19221Y-30528D01*
X19221Y-30457D01*
X19235Y-30428D01*
X19250Y-30414D01*
X19278Y-30400D01*
X19307Y-30400D01*
X19350Y-30414D01*
X19521Y-30585D01*
X19521Y-30400D01*
X19521Y-30114D02*
X19521Y-30285D01*
X19521Y-30200D02*
X19221Y-30200D01*
X19264Y-30228D01*
X19292Y-30257D01*
X19307Y-30285D01*
X19321Y-29857D02*
X19521Y-29857D01*
X19207Y-29928D02*
X19421Y-30000D01*
X19421Y-29814D01*
X18914Y-40842D02*
X18900Y-40857D01*
X18857Y-40871D01*
X18828Y-40871D01*
X18785Y-40857D01*
X18757Y-40828D01*
X18742Y-40800D01*
X18728Y-40742D01*
X18728Y-40700D01*
X18742Y-40642D01*
X18757Y-40614D01*
X18785Y-40585D01*
X18828Y-40571D01*
X18857Y-40571D01*
X18900Y-40585D01*
X18914Y-40600D01*
X19014Y-40571D02*
X19200Y-40571D01*
X19100Y-40685D01*
X19142Y-40685D01*
X19171Y-40700D01*
X19185Y-40714D01*
X19200Y-40742D01*
X19200Y-40814D01*
X19185Y-40842D01*
X19171Y-40857D01*
X19142Y-40871D01*
X19057Y-40871D01*
X19028Y-40857D01*
X19014Y-40842D01*
X19385Y-40571D02*
X19414Y-40571D01*
X19442Y-40585D01*
X19457Y-40600D01*
X19471Y-40628D01*
X19485Y-40685D01*
X19485Y-40757D01*
X19471Y-40814D01*
X19457Y-40842D01*
X19442Y-40857D01*
X19414Y-40871D01*
X19385Y-40871D01*
X19357Y-40857D01*
X19342Y-40842D01*
X19328Y-40814D01*
X19314Y-40757D01*
X19314Y-40685D01*
X19328Y-40628D01*
X19342Y-40600D01*
X19357Y-40585D01*
X19385Y-40571D01*
X19742Y-40671D02*
X19742Y-40871D01*
X19671Y-40557D02*
X19600Y-40771D01*
X19785Y-40771D01*
X32653Y-24666D02*
X32510Y-24766D01*
X32653Y-24837D02*
X32353Y-24837D01*
X32353Y-24723D01*
X32367Y-24694D01*
X32382Y-24680D01*
X32410Y-24666D01*
X32453Y-24666D01*
X32482Y-24680D01*
X32496Y-24694D01*
X32510Y-24723D01*
X32510Y-24837D01*
X32653Y-24380D02*
X32653Y-24552D01*
X32653Y-24466D02*
X32353Y-24466D01*
X32396Y-24494D01*
X32424Y-24523D01*
X32439Y-24552D01*
X32353Y-24194D02*
X32353Y-24166D01*
X32367Y-24137D01*
X32382Y-24123D01*
X32410Y-24109D01*
X32467Y-24094D01*
X32539Y-24094D01*
X32596Y-24109D01*
X32624Y-24123D01*
X32639Y-24137D01*
X32653Y-24166D01*
X32653Y-24194D01*
X32639Y-24223D01*
X32624Y-24237D01*
X32596Y-24252D01*
X32539Y-24266D01*
X32467Y-24266D01*
X32410Y-24252D01*
X32382Y-24237D01*
X32367Y-24223D01*
X32353Y-24194D01*
X32653Y-23809D02*
X32653Y-23980D01*
X32653Y-23894D02*
X32353Y-23894D01*
X32396Y-23923D01*
X32424Y-23952D01*
X32439Y-23980D01*
X30828Y-35623D02*
X30813Y-35638D01*
X30770Y-35652D01*
X30742Y-35652D01*
X30699Y-35638D01*
X30670Y-35609D01*
X30656Y-35580D01*
X30642Y-35523D01*
X30642Y-35480D01*
X30656Y-35423D01*
X30670Y-35395D01*
X30699Y-35366D01*
X30742Y-35352D01*
X30770Y-35352D01*
X30813Y-35366D01*
X30828Y-35380D01*
X31113Y-35652D02*
X30942Y-35652D01*
X31028Y-35652D02*
X31028Y-35352D01*
X30999Y-35395D01*
X30970Y-35423D01*
X30942Y-35438D01*
X31299Y-35352D02*
X31328Y-35352D01*
X31356Y-35366D01*
X31370Y-35380D01*
X31385Y-35409D01*
X31399Y-35466D01*
X31399Y-35538D01*
X31385Y-35595D01*
X31370Y-35623D01*
X31356Y-35638D01*
X31328Y-35652D01*
X31299Y-35652D01*
X31270Y-35638D01*
X31256Y-35623D01*
X31242Y-35595D01*
X31228Y-35538D01*
X31228Y-35466D01*
X31242Y-35409D01*
X31256Y-35380D01*
X31270Y-35366D01*
X31299Y-35352D01*
X31499Y-35352D02*
X31699Y-35352D01*
X31570Y-35652D01*
X28561Y-35633D02*
X28461Y-35490D01*
X28390Y-35633D02*
X28390Y-35333D01*
X28504Y-35333D01*
X28533Y-35347D01*
X28547Y-35361D01*
X28561Y-35390D01*
X28561Y-35433D01*
X28547Y-35461D01*
X28533Y-35476D01*
X28504Y-35490D01*
X28390Y-35490D01*
X28847Y-35633D02*
X28676Y-35633D01*
X28761Y-35633D02*
X28761Y-35333D01*
X28733Y-35376D01*
X28704Y-35404D01*
X28676Y-35418D01*
X29033Y-35333D02*
X29061Y-35333D01*
X29090Y-35347D01*
X29104Y-35361D01*
X29119Y-35390D01*
X29133Y-35447D01*
X29133Y-35518D01*
X29119Y-35576D01*
X29104Y-35604D01*
X29090Y-35618D01*
X29061Y-35633D01*
X29033Y-35633D01*
X29004Y-35618D01*
X28990Y-35604D01*
X28976Y-35576D01*
X28961Y-35518D01*
X28961Y-35447D01*
X28976Y-35390D01*
X28990Y-35361D01*
X29004Y-35347D01*
X29033Y-35333D01*
X29390Y-35433D02*
X29390Y-35633D01*
X29319Y-35318D02*
X29247Y-35533D01*
X29433Y-35533D01*
X13992Y-39585D02*
X14007Y-39600D01*
X14021Y-39642D01*
X14021Y-39671D01*
X14007Y-39714D01*
X13978Y-39742D01*
X13950Y-39757D01*
X13892Y-39771D01*
X13850Y-39771D01*
X13792Y-39757D01*
X13764Y-39742D01*
X13735Y-39714D01*
X13721Y-39671D01*
X13721Y-39642D01*
X13735Y-39600D01*
X13750Y-39585D01*
X13721Y-39485D02*
X13721Y-39300D01*
X13835Y-39400D01*
X13835Y-39357D01*
X13850Y-39328D01*
X13864Y-39314D01*
X13892Y-39300D01*
X13964Y-39300D01*
X13992Y-39314D01*
X14007Y-39328D01*
X14021Y-39357D01*
X14021Y-39442D01*
X14007Y-39471D01*
X13992Y-39485D01*
X14021Y-39014D02*
X14021Y-39185D01*
X14021Y-39100D02*
X13721Y-39100D01*
X13764Y-39128D01*
X13792Y-39157D01*
X13807Y-39185D01*
X14021Y-38728D02*
X14021Y-38900D01*
X14021Y-38814D02*
X13721Y-38814D01*
X13764Y-38842D01*
X13792Y-38871D01*
X13807Y-38900D01*
X20592Y-35710D02*
X20607Y-35725D01*
X20621Y-35767D01*
X20621Y-35796D01*
X20607Y-35839D01*
X20578Y-35867D01*
X20550Y-35882D01*
X20492Y-35896D01*
X20450Y-35896D01*
X20392Y-35882D01*
X20364Y-35867D01*
X20335Y-35839D01*
X20321Y-35796D01*
X20321Y-35767D01*
X20335Y-35725D01*
X20350Y-35710D01*
X20321Y-35610D02*
X20321Y-35425D01*
X20435Y-35525D01*
X20435Y-35482D01*
X20450Y-35453D01*
X20464Y-35439D01*
X20492Y-35425D01*
X20564Y-35425D01*
X20592Y-35439D01*
X20607Y-35453D01*
X20621Y-35482D01*
X20621Y-35567D01*
X20607Y-35596D01*
X20592Y-35610D01*
X20621Y-35139D02*
X20621Y-35310D01*
X20621Y-35225D02*
X20321Y-35225D01*
X20364Y-35253D01*
X20392Y-35282D01*
X20407Y-35310D01*
X20350Y-35025D02*
X20335Y-35010D01*
X20321Y-34982D01*
X20321Y-34910D01*
X20335Y-34882D01*
X20350Y-34867D01*
X20378Y-34853D01*
X20407Y-34853D01*
X20450Y-34867D01*
X20621Y-35039D01*
X20621Y-34853D01*
X22383Y-39655D02*
X22369Y-39669D01*
X22326Y-39684D01*
X22297Y-39684D01*
X22254Y-39669D01*
X22226Y-39641D01*
X22211Y-39612D01*
X22197Y-39555D01*
X22197Y-39512D01*
X22211Y-39455D01*
X22226Y-39426D01*
X22254Y-39398D01*
X22297Y-39384D01*
X22326Y-39384D01*
X22369Y-39398D01*
X22383Y-39412D01*
X22483Y-39384D02*
X22669Y-39384D01*
X22569Y-39498D01*
X22611Y-39498D01*
X22640Y-39512D01*
X22654Y-39526D01*
X22669Y-39555D01*
X22669Y-39626D01*
X22654Y-39655D01*
X22640Y-39669D01*
X22611Y-39684D01*
X22526Y-39684D01*
X22497Y-39669D01*
X22483Y-39655D01*
X22854Y-39384D02*
X22883Y-39384D01*
X22911Y-39398D01*
X22926Y-39412D01*
X22940Y-39441D01*
X22954Y-39498D01*
X22954Y-39569D01*
X22940Y-39626D01*
X22926Y-39655D01*
X22911Y-39669D01*
X22883Y-39684D01*
X22854Y-39684D01*
X22826Y-39669D01*
X22811Y-39655D01*
X22797Y-39626D01*
X22783Y-39569D01*
X22783Y-39498D01*
X22797Y-39441D01*
X22811Y-39412D01*
X22826Y-39398D01*
X22854Y-39384D01*
X23097Y-39684D02*
X23154Y-39684D01*
X23183Y-39669D01*
X23197Y-39655D01*
X23226Y-39612D01*
X23240Y-39555D01*
X23240Y-39441D01*
X23226Y-39412D01*
X23211Y-39398D01*
X23183Y-39384D01*
X23126Y-39384D01*
X23097Y-39398D01*
X23083Y-39412D01*
X23069Y-39441D01*
X23069Y-39512D01*
X23083Y-39541D01*
X23097Y-39555D01*
X23126Y-39569D01*
X23183Y-39569D01*
X23211Y-39555D01*
X23226Y-39541D01*
X23240Y-39512D01*
X26733Y-19089D02*
X26748Y-19103D01*
X26762Y-19146D01*
X26762Y-19175D01*
X26748Y-19218D01*
X26719Y-19246D01*
X26690Y-19261D01*
X26633Y-19275D01*
X26590Y-19275D01*
X26533Y-19261D01*
X26505Y-19246D01*
X26476Y-19218D01*
X26462Y-19175D01*
X26462Y-19146D01*
X26476Y-19103D01*
X26490Y-19089D01*
X26490Y-18975D02*
X26476Y-18961D01*
X26462Y-18932D01*
X26462Y-18861D01*
X26476Y-18832D01*
X26490Y-18818D01*
X26519Y-18803D01*
X26548Y-18803D01*
X26590Y-18818D01*
X26762Y-18989D01*
X26762Y-18803D01*
X26762Y-18518D02*
X26762Y-18689D01*
X26762Y-18603D02*
X26462Y-18603D01*
X26505Y-18632D01*
X26533Y-18661D01*
X26548Y-18689D01*
X26462Y-18246D02*
X26462Y-18389D01*
X26605Y-18403D01*
X26590Y-18389D01*
X26576Y-18361D01*
X26576Y-18289D01*
X26590Y-18261D01*
X26605Y-18246D01*
X26633Y-18232D01*
X26705Y-18232D01*
X26733Y-18246D01*
X26748Y-18261D01*
X26762Y-18289D01*
X26762Y-18361D01*
X26748Y-18389D01*
X26733Y-18403D01*
G54D27*
X29760Y-40443D02*
X29760Y-40443D01*
X29760Y-40443D01*
X29760Y-40443D01*
X29760Y-40443D01*
X29760Y-40443D01*
X29760Y-40443D01*
X29760Y-40443D01*
X29760Y-40442D01*
X29760Y-40442D01*
X29760Y-40442D01*
X29760Y-40442D01*
X29760Y-40442D01*
X29760Y-40442D01*
X29760Y-40442D01*
X29760Y-40442D01*
X29760Y-40442D01*
X29760Y-40442D01*
X29760Y-40442D01*
X29760Y-40442D01*
X29760Y-40442D02*
X29760Y-40443D01*
X29760Y-40442D01*
X29760Y-40443D01*
X29760Y-40442D01*
X29761Y-40443D02*
X29760Y-40443D01*
X29761Y-40443D02*
X29761Y-40442D01*
X29761Y-40442D01*
X29760Y-40442D01*
X29760Y-40442D01*
X29761Y-40442D02*
X29761Y-40442D01*
X29761Y-40442D01*
X29761Y-40442D01*
X29761Y-40442D01*
X29761Y-40442D01*
X29761Y-40443D01*
X29761Y-40443D01*
X29761Y-40443D01*
X29761Y-40443D01*
X29761Y-40443D01*
X29761Y-40443D01*
X29761Y-40443D01*
X29761Y-40443D01*
X29761Y-40443D01*
X29761Y-40443D01*
X29761Y-40442D01*
X29761Y-40442D01*
X29761Y-40442D01*
X29761Y-40442D01*
X29761Y-40442D01*
X29761Y-40443D02*
X29761Y-40443D01*
X29761Y-40443D02*
X29761Y-40442D01*
X29761Y-40442D01*
X29761Y-40442D01*
X29761Y-40442D01*
G54D14*
G54D18*
X17933Y-25541D02*
X18166Y-25891D01*
X18166Y-25541D02*
X17933Y-25891D01*
X18283Y-25575D02*
X18300Y-25558D01*
X18333Y-25541D01*
X18416Y-25541D01*
X18450Y-25558D01*
X18466Y-25575D01*
X18483Y-25608D01*
X18483Y-25641D01*
X18466Y-25691D01*
X18266Y-25891D01*
X18483Y-25891D01*
X18700Y-25541D02*
X18733Y-25541D01*
X18766Y-25558D01*
X18783Y-25575D01*
X18800Y-25608D01*
X18816Y-25675D01*
X18816Y-25758D01*
X18800Y-25825D01*
X18783Y-25858D01*
X18766Y-25875D01*
X18733Y-25891D01*
X18700Y-25891D01*
X18666Y-25875D01*
X18650Y-25858D01*
X18633Y-25825D01*
X18616Y-25758D01*
X18616Y-25675D01*
X18633Y-25608D01*
X18650Y-25575D01*
X18666Y-25558D01*
X18700Y-25541D01*
X19150Y-25891D02*
X18950Y-25891D01*
X19050Y-25891D02*
X19050Y-25541D01*
X19016Y-25591D01*
X18983Y-25625D01*
X18950Y-25641D01*
X32685Y-18961D02*
X32685Y-19247D01*
X32666Y-19304D01*
X32628Y-19342D01*
X32571Y-19361D01*
X32533Y-19361D01*
X33085Y-19361D02*
X32857Y-19361D01*
X32971Y-19361D02*
X32971Y-18961D01*
X32933Y-19019D01*
X32895Y-19057D01*
X32857Y-19076D01*
X33333Y-18961D02*
X33371Y-18961D01*
X33409Y-18980D01*
X33428Y-19000D01*
X33447Y-19038D01*
X33466Y-19114D01*
X33466Y-19209D01*
X33447Y-19285D01*
X33428Y-19323D01*
X33409Y-19342D01*
X33371Y-19361D01*
X33333Y-19361D01*
X33295Y-19342D01*
X33276Y-19323D01*
X33257Y-19285D01*
X33238Y-19209D01*
X33238Y-19114D01*
X33257Y-19038D01*
X33276Y-19000D01*
X33295Y-18980D01*
X33333Y-18961D01*
X33600Y-18961D02*
X33847Y-18961D01*
X33714Y-19114D01*
X33771Y-19114D01*
X33809Y-19133D01*
X33828Y-19152D01*
X33847Y-19190D01*
X33847Y-19285D01*
X33828Y-19323D01*
X33809Y-19342D01*
X33771Y-19361D01*
X33657Y-19361D01*
X33619Y-19342D01*
X33600Y-19323D01*
G54D20*
X13828Y-36371D02*
X13828Y-36071D01*
X13942Y-36071D01*
X13971Y-36085D01*
X13985Y-36100D01*
X14000Y-36128D01*
X14000Y-36171D01*
X13985Y-36200D01*
X13971Y-36214D01*
X13942Y-36228D01*
X13828Y-36228D01*
X14285Y-36371D02*
X14114Y-36371D01*
X14200Y-36371D02*
X14200Y-36071D01*
X14171Y-36114D01*
X14142Y-36142D01*
X14114Y-36157D01*
G54D28*
X15121Y-43387D02*
X15121Y-42994D01*
X15271Y-42994D01*
X15309Y-43012D01*
X15328Y-43031D01*
X15346Y-43068D01*
X15346Y-43125D01*
X15328Y-43162D01*
X15309Y-43181D01*
X15271Y-43200D01*
X15121Y-43200D01*
X15478Y-42994D02*
X15721Y-42994D01*
X15590Y-43143D01*
X15646Y-43143D01*
X15684Y-43162D01*
X15703Y-43181D01*
X15721Y-43218D01*
X15721Y-43312D01*
X15703Y-43350D01*
X15684Y-43368D01*
X15646Y-43387D01*
X15534Y-43387D01*
X15496Y-43368D01*
X15478Y-43350D01*
X15965Y-42994D02*
X16003Y-42994D01*
X16040Y-43012D01*
X16059Y-43031D01*
X16077Y-43068D01*
X16096Y-43143D01*
X16096Y-43237D01*
X16077Y-43312D01*
X16059Y-43350D01*
X16040Y-43368D01*
X16003Y-43387D01*
X15965Y-43387D01*
X15928Y-43368D01*
X15909Y-43350D01*
X15890Y-43312D01*
X15871Y-43237D01*
X15871Y-43143D01*
X15890Y-43068D01*
X15909Y-43031D01*
X15928Y-43012D01*
X15965Y-42994D01*
X16471Y-43387D02*
X16246Y-43387D01*
X16359Y-43387D02*
X16359Y-42994D01*
X16321Y-43050D01*
X16284Y-43087D01*
X16246Y-43106D01*
G54D27*
X17519Y-11201D02*
X17519Y-11202D01*
X17519Y-11202D01*
X17519Y-11202D01*
X17519Y-11202D01*
X17519Y-11202D01*
X17519Y-11201D02*
X17519Y-11202D01*
X17519Y-11201D02*
X17519Y-11202D01*
X17519Y-11202D01*
X17520Y-11201D02*
X17520Y-11201D01*
X17520Y-11201D01*
X17520Y-11201D01*
X17520Y-11201D01*
X17520Y-11201D01*
X17520Y-11202D01*
X17520Y-11202D01*
X17520Y-11202D01*
X17520Y-11202D01*
X17520Y-11202D01*
X17520Y-11202D01*
X17520Y-11202D01*
X17520Y-11202D01*
X17520Y-11202D01*
X17520Y-11202D01*
X17520Y-11201D01*
X17520Y-11201D01*
X17520Y-11201D01*
X17520Y-11201D01*
X17520Y-11201D01*
X17520Y-11202D02*
X17520Y-11202D01*
X17520Y-11202D02*
X17520Y-11201D01*
X17520Y-11201D01*
X17520Y-11201D01*
X17520Y-11201D01*
G54D14*
G54D19*
X26571Y-40407D02*
X26271Y-40407D01*
X26271Y-40335D01*
X26285Y-40292D01*
X26314Y-40264D01*
X26342Y-40250D01*
X26400Y-40235D01*
X26442Y-40235D01*
X26500Y-40250D01*
X26528Y-40264D01*
X26557Y-40292D01*
X26571Y-40335D01*
X26571Y-40407D01*
X26271Y-40135D02*
X26271Y-39950D01*
X26385Y-40050D01*
X26385Y-40007D01*
X26400Y-39978D01*
X26414Y-39964D01*
X26442Y-39950D01*
X26514Y-39950D01*
X26542Y-39964D01*
X26557Y-39978D01*
X26571Y-40007D01*
X26571Y-40092D01*
X26557Y-40121D01*
X26542Y-40135D01*
X26271Y-39764D02*
X26271Y-39735D01*
X26285Y-39707D01*
X26300Y-39692D01*
X26328Y-39678D01*
X26385Y-39664D01*
X26457Y-39664D01*
X26514Y-39678D01*
X26542Y-39692D01*
X26557Y-39707D01*
X26571Y-39735D01*
X26571Y-39764D01*
X26557Y-39792D01*
X26542Y-39807D01*
X26514Y-39821D01*
X26457Y-39835D01*
X26385Y-39835D01*
X26328Y-39821D01*
X26300Y-39807D01*
X26285Y-39792D01*
X26271Y-39764D01*
X26571Y-39378D02*
X26571Y-39550D01*
X26571Y-39464D02*
X26271Y-39464D01*
X26314Y-39492D01*
X26342Y-39521D01*
X26357Y-39550D01*
G54D28*
X37692Y-39721D02*
X37692Y-39421D01*
X37764Y-39421D01*
X37807Y-39435D01*
X37835Y-39464D01*
X37850Y-39492D01*
X37864Y-39550D01*
X37864Y-39592D01*
X37850Y-39650D01*
X37835Y-39678D01*
X37807Y-39707D01*
X37764Y-39721D01*
X37692Y-39721D01*
X38150Y-39721D02*
X37978Y-39721D01*
X38064Y-39721D02*
X38064Y-39421D01*
X38035Y-39464D01*
X38007Y-39492D01*
X37978Y-39507D01*
X38335Y-39421D02*
X38364Y-39421D01*
X38392Y-39435D01*
X38407Y-39450D01*
X38421Y-39478D01*
X38435Y-39535D01*
X38435Y-39607D01*
X38421Y-39664D01*
X38407Y-39692D01*
X38392Y-39707D01*
X38364Y-39721D01*
X38335Y-39721D01*
X38307Y-39707D01*
X38292Y-39692D01*
X38278Y-39664D01*
X38264Y-39607D01*
X38264Y-39535D01*
X38278Y-39478D01*
X38292Y-39450D01*
X38307Y-39435D01*
X38335Y-39421D01*
X38550Y-39450D02*
X38564Y-39435D01*
X38592Y-39421D01*
X38664Y-39421D01*
X38692Y-39435D01*
X38707Y-39450D01*
X38721Y-39478D01*
X38721Y-39507D01*
X38707Y-39550D01*
X38535Y-39721D01*
X38721Y-39721D01*
G54D19*
X38150Y-38021D02*
X38050Y-37878D01*
X37978Y-38021D02*
X37978Y-37721D01*
X38092Y-37721D01*
X38121Y-37735D01*
X38135Y-37750D01*
X38150Y-37778D01*
X38150Y-37821D01*
X38135Y-37850D01*
X38121Y-37864D01*
X38092Y-37878D01*
X37978Y-37878D01*
X38435Y-38021D02*
X38264Y-38021D01*
X38350Y-38021D02*
X38350Y-37721D01*
X38321Y-37764D01*
X38292Y-37792D01*
X38264Y-37807D01*
X35982Y-16236D02*
X35882Y-16093D01*
X35811Y-16236D02*
X35811Y-15936D01*
X35925Y-15936D01*
X35954Y-15950D01*
X35968Y-15964D01*
X35982Y-15993D01*
X35982Y-16036D01*
X35968Y-16064D01*
X35954Y-16079D01*
X35925Y-16093D01*
X35811Y-16093D01*
X36096Y-15964D02*
X36111Y-15950D01*
X36139Y-15936D01*
X36211Y-15936D01*
X36239Y-15950D01*
X36254Y-15964D01*
X36268Y-15993D01*
X36268Y-16022D01*
X36254Y-16064D01*
X36082Y-16236D01*
X36268Y-16236D01*
G54D29*
X40808Y-17665D02*
X40790Y-17654D01*
X40762Y-17654D01*
X40733Y-17665D01*
X40715Y-17688D01*
X40705Y-17710D01*
X40696Y-17755D01*
X40696Y-17789D01*
X40705Y-17834D01*
X40715Y-17857D01*
X40733Y-17879D01*
X40762Y-17890D01*
X40780Y-17890D01*
X40808Y-17879D01*
X40818Y-17868D01*
X40818Y-17789D01*
X40780Y-17789D01*
X40893Y-17879D02*
X40921Y-17890D01*
X40968Y-17890D01*
X40987Y-17879D01*
X40996Y-17868D01*
X41005Y-17845D01*
X41005Y-17823D01*
X40996Y-17800D01*
X40987Y-17789D01*
X40968Y-17778D01*
X40930Y-17767D01*
X40912Y-17755D01*
X40902Y-17744D01*
X40893Y-17722D01*
X40893Y-17699D01*
X40902Y-17677D01*
X40912Y-17665D01*
X40930Y-17654D01*
X40977Y-17654D01*
X41005Y-17665D01*
X41080Y-17677D02*
X41090Y-17665D01*
X41108Y-17654D01*
X41155Y-17654D01*
X41174Y-17665D01*
X41183Y-17677D01*
X41193Y-17699D01*
X41193Y-17722D01*
X41183Y-17755D01*
X41071Y-17890D01*
X41193Y-17890D01*
X39391Y-16012D02*
X39372Y-16001D01*
X39344Y-16001D01*
X39316Y-16012D01*
X39297Y-16034D01*
X39288Y-16057D01*
X39279Y-16102D01*
X39279Y-16136D01*
X39288Y-16181D01*
X39297Y-16203D01*
X39316Y-16226D01*
X39344Y-16237D01*
X39363Y-16237D01*
X39391Y-16226D01*
X39401Y-16214D01*
X39401Y-16136D01*
X39363Y-16136D01*
X39476Y-16226D02*
X39504Y-16237D01*
X39550Y-16237D01*
X39569Y-16226D01*
X39579Y-16214D01*
X39588Y-16192D01*
X39588Y-16169D01*
X39579Y-16147D01*
X39569Y-16136D01*
X39550Y-16124D01*
X39513Y-16113D01*
X39494Y-16102D01*
X39485Y-16091D01*
X39476Y-16068D01*
X39476Y-16046D01*
X39485Y-16023D01*
X39494Y-16012D01*
X39513Y-16001D01*
X39560Y-16001D01*
X39588Y-16012D01*
X39654Y-16001D02*
X39775Y-16001D01*
X39710Y-16091D01*
X39738Y-16091D01*
X39757Y-16102D01*
X39766Y-16113D01*
X39775Y-16136D01*
X39775Y-16192D01*
X39766Y-16214D01*
X39757Y-16226D01*
X39738Y-16237D01*
X39682Y-16237D01*
X39663Y-16226D01*
X39654Y-16214D01*
G54D19*
X44241Y-17523D02*
X44141Y-17380D01*
X44069Y-17523D02*
X44069Y-17223D01*
X44184Y-17223D01*
X44212Y-17237D01*
X44227Y-17251D01*
X44241Y-17280D01*
X44241Y-17323D01*
X44227Y-17351D01*
X44212Y-17365D01*
X44184Y-17380D01*
X44069Y-17380D01*
X44341Y-17223D02*
X44527Y-17223D01*
X44427Y-17337D01*
X44469Y-17337D01*
X44498Y-17351D01*
X44512Y-17365D01*
X44527Y-17394D01*
X44527Y-17465D01*
X44512Y-17494D01*
X44498Y-17508D01*
X44469Y-17523D01*
X44384Y-17523D01*
X44355Y-17508D01*
X44341Y-17494D01*
X44241Y-16460D02*
X44141Y-16317D01*
X44069Y-16460D02*
X44069Y-16160D01*
X44184Y-16160D01*
X44212Y-16174D01*
X44227Y-16188D01*
X44241Y-16217D01*
X44241Y-16260D01*
X44227Y-16288D01*
X44212Y-16302D01*
X44184Y-16317D01*
X44069Y-16317D01*
X44498Y-16260D02*
X44498Y-16460D01*
X44427Y-16145D02*
X44355Y-16360D01*
X44541Y-16360D01*
X30628Y-17336D02*
X30628Y-17660D01*
X30650Y-17698D01*
X30671Y-17717D01*
X30714Y-17736D01*
X30800Y-17736D01*
X30842Y-17717D01*
X30864Y-17698D01*
X30885Y-17660D01*
X30885Y-17336D01*
X31057Y-17336D02*
X31335Y-17336D01*
X31185Y-17489D01*
X31250Y-17489D01*
X31292Y-17508D01*
X31314Y-17527D01*
X31335Y-17565D01*
X31335Y-17660D01*
X31314Y-17698D01*
X31292Y-17717D01*
X31250Y-17736D01*
X31121Y-17736D01*
X31078Y-17717D01*
X31057Y-17698D01*
X31614Y-17336D02*
X31657Y-17336D01*
X31700Y-17355D01*
X31721Y-17375D01*
X31742Y-17413D01*
X31764Y-17489D01*
X31764Y-17584D01*
X31742Y-17660D01*
X31721Y-17698D01*
X31700Y-17717D01*
X31657Y-17736D01*
X31614Y-17736D01*
X31571Y-17717D01*
X31550Y-17698D01*
X31528Y-17660D01*
X31507Y-17584D01*
X31507Y-17489D01*
X31528Y-17413D01*
X31550Y-17375D01*
X31571Y-17355D01*
X31614Y-17336D01*
X31914Y-17336D02*
X32192Y-17336D01*
X32042Y-17489D01*
X32107Y-17489D01*
X32150Y-17508D01*
X32171Y-17527D01*
X32192Y-17565D01*
X32192Y-17660D01*
X32171Y-17698D01*
X32150Y-17717D01*
X32107Y-17736D01*
X31978Y-17736D01*
X31935Y-17717D01*
X31914Y-17698D01*
X24464Y-29017D02*
X24450Y-29032D01*
X24407Y-29046D01*
X24378Y-29046D01*
X24335Y-29032D01*
X24307Y-29003D01*
X24292Y-28975D01*
X24278Y-28917D01*
X24278Y-28875D01*
X24292Y-28817D01*
X24307Y-28789D01*
X24335Y-28760D01*
X24378Y-28746D01*
X24407Y-28746D01*
X24450Y-28760D01*
X24464Y-28775D01*
X24578Y-28775D02*
X24592Y-28760D01*
X24621Y-28746D01*
X24692Y-28746D01*
X24721Y-28760D01*
X24735Y-28775D01*
X24750Y-28803D01*
X24750Y-28832D01*
X24735Y-28875D01*
X24564Y-29046D01*
X24750Y-29046D01*
X24935Y-28746D02*
X24964Y-28746D01*
X24992Y-28760D01*
X25007Y-28775D01*
X25021Y-28803D01*
X25035Y-28860D01*
X25035Y-28932D01*
X25021Y-28989D01*
X25007Y-29017D01*
X24992Y-29032D01*
X24964Y-29046D01*
X24935Y-29046D01*
X24907Y-29032D01*
X24892Y-29017D01*
X24878Y-28989D01*
X24864Y-28932D01*
X24864Y-28860D01*
X24878Y-28803D01*
X24892Y-28775D01*
X24907Y-28760D01*
X24935Y-28746D01*
X25207Y-28875D02*
X25178Y-28860D01*
X25164Y-28846D01*
X25150Y-28817D01*
X25150Y-28803D01*
X25164Y-28775D01*
X25178Y-28760D01*
X25207Y-28746D01*
X25264Y-28746D01*
X25292Y-28760D01*
X25307Y-28775D01*
X25321Y-28803D01*
X25321Y-28817D01*
X25307Y-28846D01*
X25292Y-28860D01*
X25264Y-28875D01*
X25207Y-28875D01*
X25178Y-28889D01*
X25164Y-28903D01*
X25150Y-28932D01*
X25150Y-28989D01*
X25164Y-29017D01*
X25178Y-29032D01*
X25207Y-29046D01*
X25264Y-29046D01*
X25292Y-29032D01*
X25307Y-29017D01*
X25321Y-28989D01*
X25321Y-28932D01*
X25307Y-28903D01*
X25292Y-28889D01*
X25264Y-28875D01*
X14541Y-30650D02*
X14555Y-30664D01*
X14570Y-30707D01*
X14570Y-30736D01*
X14555Y-30779D01*
X14527Y-30807D01*
X14498Y-30822D01*
X14441Y-30836D01*
X14398Y-30836D01*
X14341Y-30822D01*
X14313Y-30807D01*
X14284Y-30779D01*
X14270Y-30736D01*
X14270Y-30707D01*
X14284Y-30664D01*
X14298Y-30650D01*
X14298Y-30536D02*
X14284Y-30522D01*
X14270Y-30493D01*
X14270Y-30422D01*
X14284Y-30393D01*
X14298Y-30379D01*
X14327Y-30364D01*
X14355Y-30364D01*
X14398Y-30379D01*
X14570Y-30550D01*
X14570Y-30364D01*
X14570Y-30079D02*
X14570Y-30250D01*
X14570Y-30164D02*
X14270Y-30164D01*
X14313Y-30193D01*
X14341Y-30222D01*
X14355Y-30250D01*
X14270Y-29979D02*
X14270Y-29793D01*
X14384Y-29893D01*
X14384Y-29850D01*
X14398Y-29822D01*
X14413Y-29807D01*
X14441Y-29793D01*
X14513Y-29793D01*
X14541Y-29807D01*
X14555Y-29822D01*
X14570Y-29850D01*
X14570Y-29936D01*
X14555Y-29964D01*
X14541Y-29979D01*
X49113Y-17365D02*
X49013Y-17222D01*
X48941Y-17365D02*
X48941Y-17065D01*
X49055Y-17065D01*
X49084Y-17079D01*
X49098Y-17094D01*
X49113Y-17122D01*
X49113Y-17165D01*
X49098Y-17194D01*
X49084Y-17208D01*
X49055Y-17222D01*
X48941Y-17222D01*
X49227Y-17094D02*
X49241Y-17079D01*
X49270Y-17065D01*
X49341Y-17065D01*
X49370Y-17079D01*
X49384Y-17094D01*
X49398Y-17122D01*
X49398Y-17151D01*
X49384Y-17194D01*
X49213Y-17365D01*
X49398Y-17365D01*
X49584Y-17065D02*
X49613Y-17065D01*
X49641Y-17079D01*
X49655Y-17094D01*
X49670Y-17122D01*
X49684Y-17179D01*
X49684Y-17251D01*
X49670Y-17308D01*
X49655Y-17336D01*
X49641Y-17351D01*
X49613Y-17365D01*
X49584Y-17365D01*
X49555Y-17351D01*
X49541Y-17336D01*
X49527Y-17308D01*
X49513Y-17251D01*
X49513Y-17179D01*
X49527Y-17122D01*
X49541Y-17094D01*
X49555Y-17079D01*
X49584Y-17065D01*
X49870Y-17065D02*
X49898Y-17065D01*
X49927Y-17079D01*
X49941Y-17094D01*
X49955Y-17122D01*
X49970Y-17179D01*
X49970Y-17251D01*
X49955Y-17308D01*
X49941Y-17336D01*
X49927Y-17351D01*
X49898Y-17365D01*
X49870Y-17365D01*
X49841Y-17351D01*
X49827Y-17336D01*
X49813Y-17308D01*
X49798Y-17251D01*
X49798Y-17179D01*
X49813Y-17122D01*
X49827Y-17094D01*
X49841Y-17079D01*
X49870Y-17065D01*
G54D28*
X35115Y-11759D02*
X35115Y-11059D01*
X35382Y-11059D01*
X35449Y-11093D01*
X35482Y-11126D01*
X35515Y-11193D01*
X35515Y-11293D01*
X35482Y-11359D01*
X35449Y-11393D01*
X35382Y-11426D01*
X35115Y-11426D01*
X36182Y-11759D02*
X35782Y-11759D01*
X35982Y-11759D02*
X35982Y-11059D01*
X35915Y-11159D01*
X35849Y-11226D01*
X35782Y-11259D01*
X36615Y-11059D02*
X36682Y-11059D01*
X36749Y-11093D01*
X36782Y-11126D01*
X36815Y-11193D01*
X36849Y-11326D01*
X36849Y-11493D01*
X36815Y-11626D01*
X36782Y-11693D01*
X36749Y-11726D01*
X36682Y-11759D01*
X36615Y-11759D01*
X36549Y-11726D01*
X36515Y-11693D01*
X36482Y-11626D01*
X36449Y-11493D01*
X36449Y-11326D01*
X36482Y-11193D01*
X36515Y-11126D01*
X36549Y-11093D01*
X36615Y-11059D01*
X37082Y-11059D02*
X37549Y-11059D01*
X37249Y-11759D01*
G54D20*
X34592Y-16524D02*
X34292Y-16524D01*
X34292Y-16410D01*
X34306Y-16382D01*
X34321Y-16367D01*
X34349Y-16353D01*
X34392Y-16353D01*
X34421Y-16367D01*
X34435Y-16382D01*
X34449Y-16410D01*
X34449Y-16524D01*
X34592Y-16067D02*
X34592Y-16239D01*
X34592Y-16153D02*
X34292Y-16153D01*
X34335Y-16182D01*
X34364Y-16210D01*
X34378Y-16239D01*
X34292Y-15882D02*
X34292Y-15853D01*
X34306Y-15824D01*
X34321Y-15810D01*
X34349Y-15796D01*
X34406Y-15782D01*
X34478Y-15782D01*
X34535Y-15796D01*
X34564Y-15810D01*
X34578Y-15824D01*
X34592Y-15853D01*
X34592Y-15882D01*
X34578Y-15910D01*
X34564Y-15924D01*
X34535Y-15939D01*
X34478Y-15953D01*
X34406Y-15953D01*
X34349Y-15939D01*
X34321Y-15924D01*
X34306Y-15910D01*
X34292Y-15882D01*
X34592Y-15639D02*
X34592Y-15582D01*
X34578Y-15553D01*
X34564Y-15539D01*
X34521Y-15510D01*
X34464Y-15496D01*
X34349Y-15496D01*
X34321Y-15510D01*
X34306Y-15524D01*
X34292Y-15553D01*
X34292Y-15610D01*
X34306Y-15639D01*
X34321Y-15653D01*
X34349Y-15667D01*
X34421Y-15667D01*
X34449Y-15653D01*
X34464Y-15639D01*
X34478Y-15610D01*
X34478Y-15553D01*
X34464Y-15524D01*
X34449Y-15510D01*
X34421Y-15496D01*
G54D28*
X47340Y-11799D02*
X47340Y-11099D01*
X47606Y-11099D01*
X47673Y-11132D01*
X47706Y-11165D01*
X47740Y-11232D01*
X47740Y-11332D01*
X47706Y-11399D01*
X47673Y-11432D01*
X47606Y-11465D01*
X47340Y-11465D01*
X48406Y-11799D02*
X48006Y-11799D01*
X48206Y-11799D02*
X48206Y-11099D01*
X48140Y-11199D01*
X48073Y-11265D01*
X48006Y-11299D01*
X49073Y-11799D02*
X48673Y-11799D01*
X48873Y-11799D02*
X48873Y-11099D01*
X48806Y-11199D01*
X48740Y-11265D01*
X48673Y-11299D01*
X49506Y-11099D02*
X49573Y-11099D01*
X49640Y-11132D01*
X49673Y-11165D01*
X49706Y-11232D01*
X49740Y-11365D01*
X49740Y-11532D01*
X49706Y-11665D01*
X49673Y-11732D01*
X49640Y-11765D01*
X49573Y-11799D01*
X49506Y-11799D01*
X49440Y-11765D01*
X49406Y-11732D01*
X49373Y-11665D01*
X49340Y-11532D01*
X49340Y-11365D01*
X49373Y-11232D01*
X49406Y-11165D01*
X49440Y-11132D01*
X49506Y-11099D01*
G54D23*
X43261Y-35976D02*
X42861Y-35976D01*
X42861Y-35823D01*
X42880Y-35785D01*
X42900Y-35766D01*
X42938Y-35747D01*
X42995Y-35747D01*
X43033Y-35766D01*
X43052Y-35785D01*
X43071Y-35823D01*
X43071Y-35976D01*
X43261Y-35366D02*
X43261Y-35595D01*
X43261Y-35480D02*
X42861Y-35480D01*
X42919Y-35519D01*
X42957Y-35557D01*
X42976Y-35595D01*
X42861Y-35119D02*
X42861Y-35080D01*
X42880Y-35042D01*
X42900Y-35023D01*
X42938Y-35004D01*
X43014Y-34985D01*
X43109Y-34985D01*
X43185Y-35004D01*
X43223Y-35023D01*
X43242Y-35042D01*
X43261Y-35080D01*
X43261Y-35119D01*
X43242Y-35157D01*
X43223Y-35176D01*
X43185Y-35195D01*
X43109Y-35214D01*
X43014Y-35214D01*
X42938Y-35195D01*
X42900Y-35176D01*
X42880Y-35157D01*
X42861Y-35119D01*
X42900Y-34833D02*
X42880Y-34814D01*
X42861Y-34776D01*
X42861Y-34680D01*
X42880Y-34642D01*
X42900Y-34623D01*
X42938Y-34604D01*
X42976Y-34604D01*
X43033Y-34623D01*
X43261Y-34852D01*
X43261Y-34604D01*
G54D30*
G54D28*
X40192Y-39721D02*
X40192Y-39421D01*
X40264Y-39421D01*
X40307Y-39435D01*
X40335Y-39464D01*
X40350Y-39492D01*
X40364Y-39550D01*
X40364Y-39592D01*
X40350Y-39650D01*
X40335Y-39678D01*
X40307Y-39707D01*
X40264Y-39721D01*
X40192Y-39721D01*
X40650Y-39721D02*
X40478Y-39721D01*
X40564Y-39721D02*
X40564Y-39421D01*
X40535Y-39464D01*
X40507Y-39492D01*
X40478Y-39507D01*
X40835Y-39421D02*
X40864Y-39421D01*
X40892Y-39435D01*
X40907Y-39450D01*
X40921Y-39478D01*
X40935Y-39535D01*
X40935Y-39607D01*
X40921Y-39664D01*
X40907Y-39692D01*
X40892Y-39707D01*
X40864Y-39721D01*
X40835Y-39721D01*
X40807Y-39707D01*
X40792Y-39692D01*
X40778Y-39664D01*
X40764Y-39607D01*
X40764Y-39535D01*
X40778Y-39478D01*
X40792Y-39450D01*
X40807Y-39435D01*
X40835Y-39421D01*
X41035Y-39421D02*
X41221Y-39421D01*
X41121Y-39535D01*
X41164Y-39535D01*
X41192Y-39550D01*
X41207Y-39564D01*
X41221Y-39592D01*
X41221Y-39664D01*
X41207Y-39692D01*
X41192Y-39707D01*
X41164Y-39721D01*
X41078Y-39721D01*
X41050Y-39707D01*
X41035Y-39692D01*
G54D19*
X40675Y-38071D02*
X40575Y-37928D01*
X40503Y-38071D02*
X40503Y-37771D01*
X40617Y-37771D01*
X40646Y-37785D01*
X40660Y-37800D01*
X40675Y-37828D01*
X40675Y-37871D01*
X40660Y-37900D01*
X40646Y-37914D01*
X40617Y-37928D01*
X40503Y-37928D01*
X40946Y-37771D02*
X40803Y-37771D01*
X40789Y-37914D01*
X40803Y-37900D01*
X40832Y-37885D01*
X40903Y-37885D01*
X40932Y-37900D01*
X40946Y-37914D01*
X40960Y-37942D01*
X40960Y-38014D01*
X40946Y-38042D01*
X40932Y-38057D01*
X40903Y-38071D01*
X40832Y-38071D01*
X40803Y-38057D01*
X40789Y-38042D01*
G54D18*
X41292Y-21028D02*
X41292Y-20628D01*
X41444Y-20628D01*
X41482Y-20647D01*
X41501Y-20666D01*
X41520Y-20704D01*
X41520Y-20761D01*
X41501Y-20799D01*
X41482Y-20818D01*
X41444Y-20837D01*
X41292Y-20837D01*
X41901Y-21028D02*
X41673Y-21028D01*
X41787Y-21028D02*
X41787Y-20628D01*
X41749Y-20685D01*
X41711Y-20723D01*
X41673Y-20742D01*
X42149Y-20628D02*
X42187Y-20628D01*
X42225Y-20647D01*
X42244Y-20666D01*
X42263Y-20704D01*
X42282Y-20780D01*
X42282Y-20875D01*
X42263Y-20951D01*
X42244Y-20989D01*
X42225Y-21008D01*
X42187Y-21028D01*
X42149Y-21028D01*
X42111Y-21008D01*
X42092Y-20989D01*
X42073Y-20951D01*
X42054Y-20875D01*
X42054Y-20780D01*
X42073Y-20704D01*
X42092Y-20666D01*
X42111Y-20647D01*
X42149Y-20628D01*
X42416Y-20628D02*
X42663Y-20628D01*
X42530Y-20780D01*
X42587Y-20780D01*
X42625Y-20799D01*
X42644Y-20818D01*
X42663Y-20856D01*
X42663Y-20951D01*
X42644Y-20989D01*
X42625Y-21008D01*
X42587Y-21028D01*
X42473Y-21028D01*
X42435Y-21008D01*
X42416Y-20989D01*
G54D28*
X41296Y-11779D02*
X41296Y-11079D01*
X41563Y-11079D01*
X41630Y-11112D01*
X41663Y-11146D01*
X41696Y-11212D01*
X41696Y-11312D01*
X41663Y-11379D01*
X41630Y-11412D01*
X41563Y-11446D01*
X41296Y-11446D01*
X42363Y-11779D02*
X41963Y-11779D01*
X42163Y-11779D02*
X42163Y-11079D01*
X42096Y-11179D01*
X42030Y-11246D01*
X41963Y-11279D01*
X43030Y-11779D02*
X42630Y-11779D01*
X42830Y-11779D02*
X42830Y-11079D01*
X42763Y-11179D01*
X42696Y-11246D01*
X42630Y-11279D01*
X43296Y-11146D02*
X43330Y-11112D01*
X43396Y-11079D01*
X43563Y-11079D01*
X43630Y-11112D01*
X43663Y-11146D01*
X43696Y-11212D01*
X43696Y-11279D01*
X43663Y-11379D01*
X43263Y-11779D01*
X43696Y-11779D01*
G54D14*
X47828Y-42242D02*
X47828Y-42671D01*
X47799Y-42757D01*
X47742Y-42814D01*
X47657Y-42842D01*
X47599Y-42842D01*
X48428Y-42842D02*
X48085Y-42842D01*
X48257Y-42842D02*
X48257Y-42242D01*
X48199Y-42328D01*
X48142Y-42385D01*
X48085Y-42414D01*
X48800Y-42242D02*
X48857Y-42242D01*
X48914Y-42271D01*
X48942Y-42300D01*
X48971Y-42357D01*
X49000Y-42471D01*
X49000Y-42614D01*
X48971Y-42728D01*
X48942Y-42785D01*
X48914Y-42814D01*
X48857Y-42842D01*
X48800Y-42842D01*
X48742Y-42814D01*
X48714Y-42785D01*
X48685Y-42728D01*
X48657Y-42614D01*
X48657Y-42471D01*
X48685Y-42357D01*
X48714Y-42300D01*
X48742Y-42271D01*
X48800Y-42242D01*
X49571Y-42842D02*
X49228Y-42842D01*
X49400Y-42842D02*
X49400Y-42242D01*
X49342Y-42328D01*
X49285Y-42385D01*
X49228Y-42414D01*
G54D20*
X43182Y-27642D02*
X43546Y-27642D01*
X43589Y-27621D01*
X43610Y-27600D01*
X43632Y-27557D01*
X43632Y-27471D01*
X43610Y-27428D01*
X43589Y-27407D01*
X43546Y-27385D01*
X43182Y-27385D01*
X43632Y-26935D02*
X43632Y-27192D01*
X43632Y-27064D02*
X43182Y-27064D01*
X43246Y-27107D01*
X43289Y-27150D01*
X43310Y-27192D01*
X38254Y-20211D02*
X38254Y-19811D01*
X38407Y-19811D01*
X38445Y-19830D01*
X38464Y-19850D01*
X38483Y-19888D01*
X38483Y-19945D01*
X38464Y-19983D01*
X38445Y-20002D01*
X38407Y-20021D01*
X38254Y-20021D01*
X38616Y-19811D02*
X38864Y-19811D01*
X38730Y-19964D01*
X38788Y-19964D01*
X38826Y-19983D01*
X38845Y-20002D01*
X38864Y-20040D01*
X38864Y-20135D01*
X38845Y-20173D01*
X38826Y-20192D01*
X38788Y-20211D01*
X38673Y-20211D01*
X38635Y-20192D01*
X38616Y-20173D01*
X36454Y-20211D02*
X36454Y-19811D01*
X36607Y-19811D01*
X36645Y-19830D01*
X36664Y-19850D01*
X36683Y-19888D01*
X36683Y-19945D01*
X36664Y-19983D01*
X36645Y-20002D01*
X36607Y-20021D01*
X36454Y-20021D01*
X37026Y-19945D02*
X37026Y-20211D01*
X36930Y-19792D02*
X36835Y-20078D01*
X37083Y-20078D01*
G54D31*
X45332Y-22613D02*
X45303Y-22598D01*
X45275Y-22570D01*
X45232Y-22527D01*
X45203Y-22513D01*
X45175Y-22513D01*
X45189Y-22584D02*
X45161Y-22570D01*
X45132Y-22541D01*
X45118Y-22484D01*
X45118Y-22384D01*
X45132Y-22327D01*
X45161Y-22298D01*
X45189Y-22284D01*
X45246Y-22284D01*
X45275Y-22298D01*
X45303Y-22327D01*
X45318Y-22384D01*
X45318Y-22484D01*
X45303Y-22541D01*
X45275Y-22570D01*
X45246Y-22584D01*
X45189Y-22584D01*
X45603Y-22584D02*
X45432Y-22584D01*
X45518Y-22584D02*
X45518Y-22284D01*
X45489Y-22327D01*
X45461Y-22355D01*
X45432Y-22370D01*
G54D23*
X42216Y-24654D02*
X42192Y-24678D01*
X42121Y-24702D01*
X42073Y-24702D01*
X42002Y-24678D01*
X41954Y-24630D01*
X41930Y-24583D01*
X41907Y-24488D01*
X41907Y-24416D01*
X41930Y-24321D01*
X41954Y-24273D01*
X42002Y-24226D01*
X42073Y-24202D01*
X42121Y-24202D01*
X42192Y-24226D01*
X42216Y-24250D01*
X42692Y-24702D02*
X42407Y-24702D01*
X42550Y-24702D02*
X42550Y-24202D01*
X42502Y-24273D01*
X42454Y-24321D01*
X42407Y-24345D01*
G54D20*
X40271Y-27042D02*
X40571Y-26842D01*
X40271Y-26842D02*
X40571Y-27042D01*
X40571Y-26571D02*
X40571Y-26742D01*
X40571Y-26657D02*
X40271Y-26657D01*
X40314Y-26685D01*
X40342Y-26714D01*
X40357Y-26742D01*
X37210Y-22382D02*
X37210Y-21932D01*
X37682Y-22339D02*
X37660Y-22360D01*
X37596Y-22382D01*
X37553Y-22382D01*
X37489Y-22360D01*
X37446Y-22317D01*
X37425Y-22275D01*
X37403Y-22189D01*
X37403Y-22125D01*
X37425Y-22039D01*
X37446Y-21996D01*
X37489Y-21953D01*
X37553Y-21932D01*
X37596Y-21932D01*
X37660Y-21953D01*
X37682Y-21975D01*
X38110Y-22382D02*
X37853Y-22382D01*
X37982Y-22382D02*
X37982Y-21932D01*
X37939Y-21996D01*
X37896Y-22039D01*
X37853Y-22060D01*
X22328Y-18521D02*
X22328Y-18221D01*
X22442Y-18221D01*
X22471Y-18235D01*
X22485Y-18250D01*
X22500Y-18278D01*
X22500Y-18321D01*
X22485Y-18350D01*
X22471Y-18364D01*
X22442Y-18378D01*
X22328Y-18378D01*
X22771Y-18221D02*
X22628Y-18221D01*
X22614Y-18364D01*
X22628Y-18350D01*
X22657Y-18335D01*
X22728Y-18335D01*
X22757Y-18350D01*
X22771Y-18364D01*
X22785Y-18392D01*
X22785Y-18464D01*
X22771Y-18492D01*
X22757Y-18507D01*
X22728Y-18521D01*
X22657Y-18521D01*
X22628Y-18507D01*
X22614Y-18492D01*
G54D27*
X22047Y-24357D02*
X22047Y-24357D01*
X22047Y-24357D01*
X22047Y-24357D01*
X22047Y-24357D01*
X22047Y-24357D01*
X22047Y-24357D01*
X22047Y-24357D01*
X22047Y-24357D01*
X22047Y-24357D01*
X22047Y-24357D02*
X22047Y-24357D01*
X22047Y-24357D01*
X22047Y-24357D01*
X22047Y-24357D01*
X22047Y-24357D01*
X22047Y-24357D01*
X22047Y-24357D01*
X22047Y-24357D01*
X22047Y-24357D01*
X22047Y-24357D01*
X22047Y-24357D02*
X22047Y-24356D01*
X22047Y-24356D01*
X22047Y-24356D01*
X22047Y-24356D01*
X22047Y-24356D01*
X22047Y-24356D01*
X22047Y-24356D01*
X22047Y-24356D01*
X22047Y-24356D01*
X22047Y-24356D01*
X22047Y-24357D01*
X22047Y-24357D01*
X22047Y-24357D01*
X22047Y-24357D01*
X22047Y-24357D01*
X22047Y-24357D01*
X22047Y-24357D01*
X22047Y-24357D01*
X22047Y-24357D01*
X22047Y-24357D01*
X22047Y-24356D02*
X22047Y-24356D01*
X22047Y-24356D02*
X22047Y-24356D01*
X22047Y-24356D01*
X22047Y-24356D01*
X22047Y-24356D01*
G54D20*
M02*
