M48
;DRILL file {Pcbnew (2013-jul-07)-stable} date ven. 28 nov. 2014 17:47:21 CET
;FORMAT={-:-/ absolute / inch / decimal}
FMAT,2
INCH,TZ
T1C0.012
T2C0.025
T3C0.032
T4C0.035
T5C0.035
T6C0.039
T7C0.040
T8C0.052
T9C0.052
T10C0.055
T11C0.063
T12C0.128
T13C0.128
%
G90
G05
M72
T1
X4.12Y-2.66
X4.12Y-2.7
T2
X1.94Y-2.42
X2.0079Y-2.0768
X2.0709Y-2.2677
X2.095Y-4.085
X2.25Y-4.23
X2.305Y-2.22
X2.52Y-2.32
X2.66Y-1.78
X2.73Y-1.485
X2.735Y-3.48
X2.75Y-1.64
X2.805Y-1.595
X2.81Y-2.065
X2.811Y-2.1417
X2.86Y-1.635
X2.87Y-2.33
X3.Y-1.7625
X3.0325Y-2.8225
X3.04Y-3.37
X3.07Y-2.905
X3.1063Y-3.4724
X3.1496Y-2.3327
X3.161Y-2.104
X3.22Y-2.74
X3.295Y-2.6
X3.3307Y-2.3071
X3.3937Y-2.7402
X3.405Y-2.88
X3.46Y-2.99
X3.48Y-2.845
X3.5197Y-2.689
X3.5225Y-2.9825
X3.62Y-2.935
X3.6319Y-2.9921
X3.65Y-2.735
X3.665Y-2.805
X3.6775Y-2.905
X3.745Y-2.585
X3.83Y-2.7675
X3.94Y-2.77
X3.975Y-1.715
X4.005Y-2.77
X4.475Y-3.56
X4.54Y-3.227
T3
X4.7075Y-1.8525
X4.8075Y-1.8525
X4.9075Y-1.8525
T4
X1.5768Y-1.7383
X1.624Y-1.6379
X1.6752Y-1.7383
X1.7264Y-1.6379
X1.7736Y-1.7383
X1.8248Y-1.6379
X1.876Y-1.7383
X1.9232Y-1.6379
T5
X4.675Y-3.82
X4.725Y-3.72
X4.775Y-3.82
X4.825Y-3.72
X4.875Y-3.82
X4.925Y-3.72
X4.975Y-3.82
X5.025Y-3.72
T6
X1.4882Y-1.2304
X1.5886Y-1.2304
X1.9114Y-1.2304
X2.0118Y-1.2304
T7
X1.4756Y-3.7205
X1.5756Y-3.7205
X2.205Y-1.765
X2.305Y-1.765
X3.315Y-2.007
X3.315Y-2.107
X3.315Y-3.47
X3.315Y-3.57
X3.415Y-2.007
X3.415Y-2.107
X3.415Y-3.47
X3.415Y-3.57
X3.455Y-1.725
X3.455Y-1.825
X3.485Y-4.215
X3.515Y-2.007
X3.515Y-2.107
X3.515Y-3.47
X3.515Y-3.57
X3.585Y-4.215
X3.615Y-3.47
X3.615Y-3.57
X3.675Y-1.715
X3.675Y-1.815
X3.675Y-1.915
X3.715Y-3.47
X3.715Y-3.57
X3.7975Y-4.255
X3.815Y-3.47
X3.815Y-3.57
X3.855Y-1.715
X3.855Y-1.815
X3.855Y-1.915
X3.8975Y-4.255
X3.915Y-3.47
X3.915Y-3.57
X3.9975Y-4.255
X4.Y-2.
X4.Y-3.1
X4.015Y-3.47
X4.015Y-3.57
X4.0975Y-4.255
X4.1Y-2.
X4.1Y-3.1
X4.115Y-3.47
X4.115Y-3.57
X4.13Y-2.35
X4.1975Y-4.255
X4.2Y-2.
X4.2Y-3.1
X4.215Y-3.47
X4.215Y-3.57
X4.2975Y-4.255
X4.3Y-2.
X4.3Y-3.1
X4.33Y-2.35
X4.4Y-2.
X4.4Y-3.1
X4.74Y-3.37
X4.74Y-3.47
X4.84Y-3.37
X4.84Y-3.47
X4.94Y-3.37
X4.94Y-3.47
X5.Y-2.4
X5.Y-2.5
X5.Y-2.6
X5.Y-2.7
X5.Y-2.8
T8
X1.4998Y-4.2126
X1.6514Y-4.2126
X3.4862Y-1.2894
X3.6378Y-1.2894
X3.7894Y-1.2894
X4.7087Y-1.2913
X4.8602Y-1.2913
X5.0118Y-1.2913
T9
X4.0965Y-1.2894
X4.248Y-1.2894
X4.3996Y-1.2894
T10
X4.55Y-4.27
X5.15Y-4.27
T11
X1.4449Y-1.506
X2.0512Y-1.506
T12
X1.5256Y-1.3898
X1.9744Y-1.3879
T13
X4.6165Y-4.07
X5.0838Y-4.07
T0
M30
