G04 (created by PCBNEW (2011-nov-30)-testing) date jeu. 18 oct. 2012 20:37:39 CEST*
%MOIN*%
G04 Gerber Fmt 3.4, Leading zero omitted, Abs format*
%FSLAX34Y34*%
G01*
G70*
G90*
G04 APERTURE LIST*
%ADD10C,0.006*%
%ADD11C,0.01*%
%ADD12R,0.06X0.08*%
%ADD13R,0.06X0.06*%
%ADD14C,0.06*%
%ADD15C,0.055*%
%ADD16R,0.062X0.09*%
%ADD17R,0.0882X0.0882*%
%ADD18C,0.0882*%
%ADD19R,0.055X0.055*%
%ADD20O,0.0984X0.1575*%
%ADD21C,0.07*%
%ADD22R,0.08X0.06*%
%ADD23R,0.055X0.035*%
%ADD24C,0.16*%
%ADD25O,0.078X0.156*%
%ADD26C,0.035*%
%ADD27C,0.02*%
%ADD28C,0.1*%
G04 APERTURE END LIST*
G54D10*
G54D11*
X51100Y-61600D02*
X51100Y-61400D01*
X90550Y-61600D02*
X51100Y-61600D01*
X90550Y-27600D02*
X90550Y-61600D01*
X51100Y-27600D02*
X90550Y-27600D01*
X51100Y-61400D02*
X51100Y-27600D01*
G54D12*
X66250Y-39500D03*
X64950Y-39500D03*
X56550Y-39600D03*
X55250Y-39600D03*
X76150Y-39500D03*
X74850Y-39500D03*
X85850Y-39500D03*
X84550Y-39500D03*
G54D13*
X73500Y-53700D03*
G54D14*
X73500Y-54700D03*
X72500Y-53700D03*
X72500Y-54700D03*
X71500Y-53700D03*
X71500Y-54700D03*
G54D15*
X52300Y-43469D03*
X52300Y-39531D03*
X62200Y-43469D03*
X62200Y-39531D03*
X72000Y-43469D03*
X72000Y-39531D03*
X81700Y-43469D03*
X81700Y-39531D03*
G54D16*
X65700Y-48600D03*
X64700Y-48600D03*
X63700Y-48600D03*
X63700Y-45600D03*
X64700Y-45600D03*
X65700Y-45600D03*
X75700Y-48600D03*
X74700Y-48600D03*
X73700Y-48600D03*
X73700Y-45600D03*
X74700Y-45600D03*
X75700Y-45600D03*
X83500Y-48600D03*
X82500Y-48600D03*
X81500Y-48600D03*
X81500Y-45600D03*
X82500Y-45600D03*
X83500Y-45600D03*
X56200Y-48600D03*
X55200Y-48600D03*
X54200Y-48600D03*
X54200Y-45600D03*
X55200Y-45600D03*
X56200Y-45600D03*
G54D17*
X73324Y-41400D03*
G54D18*
X76276Y-41350D03*
G54D17*
X63524Y-41400D03*
G54D18*
X66476Y-41350D03*
G54D17*
X53624Y-41400D03*
G54D18*
X56576Y-41350D03*
G54D17*
X83024Y-41400D03*
G54D18*
X85976Y-41350D03*
G54D13*
X81650Y-58500D03*
G54D14*
X81650Y-59500D03*
X80650Y-58500D03*
X80650Y-59500D03*
X79650Y-58500D03*
X79650Y-59500D03*
G54D13*
X75750Y-58500D03*
G54D14*
X75750Y-59500D03*
X74750Y-58500D03*
X74750Y-59500D03*
X73750Y-58500D03*
X73750Y-59500D03*
G54D12*
X78350Y-55900D03*
X77050Y-55900D03*
X88050Y-50200D03*
X89350Y-50200D03*
X88050Y-49200D03*
X89350Y-49200D03*
X87500Y-51850D03*
X88800Y-51850D03*
X87500Y-52950D03*
X88800Y-52950D03*
G54D19*
X86400Y-51900D03*
X86400Y-52900D03*
X83400Y-52900D03*
X83400Y-51900D03*
G54D20*
X59100Y-36169D03*
X59100Y-44831D03*
X68900Y-36169D03*
X68900Y-44831D03*
X78700Y-36169D03*
X78700Y-44831D03*
X88500Y-36169D03*
X88500Y-44831D03*
G54D21*
X55300Y-35700D03*
X54300Y-37300D03*
X53300Y-35700D03*
X65000Y-35700D03*
X64000Y-37300D03*
X63000Y-35700D03*
X74900Y-35700D03*
X73900Y-37300D03*
X72900Y-35700D03*
X84600Y-35700D03*
X83600Y-37300D03*
X82600Y-35700D03*
G54D12*
X77050Y-54900D03*
X78350Y-54900D03*
X77050Y-53900D03*
X78350Y-53900D03*
G54D22*
X56600Y-37000D03*
X56600Y-35700D03*
X66300Y-37000D03*
X66300Y-35700D03*
X76200Y-37000D03*
X76200Y-35700D03*
X85900Y-37000D03*
X85900Y-35700D03*
G54D23*
X64600Y-52525D03*
X64600Y-51775D03*
X59800Y-52575D03*
X59800Y-51825D03*
X54900Y-52675D03*
X54900Y-51925D03*
X69450Y-52525D03*
X69450Y-51775D03*
G54D22*
X64600Y-56700D03*
X64600Y-55400D03*
X67400Y-53250D03*
X67400Y-54550D03*
X67000Y-52350D03*
X67000Y-51050D03*
X67400Y-56700D03*
X67400Y-55400D03*
X69400Y-56700D03*
X69400Y-55400D03*
X69400Y-53250D03*
X69400Y-54550D03*
X62600Y-53250D03*
X62600Y-54550D03*
X62350Y-52350D03*
X62350Y-51050D03*
X62600Y-56700D03*
X62600Y-55400D03*
X64600Y-53250D03*
X64600Y-54550D03*
X54900Y-53400D03*
X54900Y-54700D03*
X57800Y-53300D03*
X57800Y-54600D03*
X57750Y-52350D03*
X57750Y-51050D03*
X57800Y-56750D03*
X57800Y-55450D03*
X59800Y-53300D03*
X59800Y-54600D03*
X59800Y-56750D03*
X59800Y-55450D03*
X53000Y-53350D03*
X53000Y-54650D03*
X53000Y-52400D03*
X53000Y-51100D03*
X53000Y-56750D03*
X53000Y-55450D03*
X54900Y-56750D03*
X54900Y-55450D03*
G54D13*
X81600Y-55000D03*
G54D14*
X80600Y-55000D03*
G54D13*
X81600Y-54000D03*
G54D14*
X80600Y-54000D03*
G54D13*
X81600Y-52000D03*
G54D14*
X80600Y-52000D03*
G54D13*
X81600Y-53000D03*
G54D14*
X80600Y-53000D03*
G54D13*
X87650Y-47400D03*
G54D14*
X88650Y-47400D03*
G54D24*
X61300Y-29900D03*
X80850Y-29850D03*
X83900Y-55250D03*
G54D25*
X53010Y-58300D03*
X54980Y-58300D03*
X57810Y-58300D03*
X59780Y-58300D03*
X62610Y-58300D03*
X64580Y-58300D03*
X67410Y-58300D03*
X69380Y-58300D03*
X86010Y-58200D03*
X87980Y-58200D03*
X85990Y-31000D03*
X84020Y-31000D03*
X76990Y-31000D03*
X75020Y-31000D03*
X66990Y-31000D03*
X65020Y-31000D03*
X56990Y-31000D03*
X55020Y-31000D03*
G54D26*
X81100Y-49600D03*
X77050Y-53050D03*
X77050Y-50350D03*
X71500Y-49150D03*
X66350Y-48250D03*
X62500Y-48200D03*
X59000Y-42200D03*
X56200Y-44700D03*
X53400Y-45550D03*
X56550Y-38050D03*
X68800Y-42200D03*
X65800Y-44700D03*
X63000Y-45500D03*
X66300Y-38050D03*
X78700Y-42200D03*
X75700Y-44700D03*
X72950Y-45550D03*
X76150Y-37900D03*
X88500Y-42200D03*
X84300Y-45500D03*
X80750Y-45500D03*
X85900Y-38000D03*
X55700Y-53400D03*
X60600Y-53300D03*
X65400Y-53300D03*
X70200Y-53300D03*
X79050Y-55500D03*
X76100Y-54200D03*
X82600Y-52500D03*
X73100Y-50050D03*
X65200Y-50000D03*
X60600Y-50000D03*
X55950Y-50000D03*
X53000Y-50000D03*
X79000Y-50100D03*
X73400Y-47200D03*
X82900Y-47200D03*
X63300Y-47200D03*
X54200Y-52400D03*
X53900Y-47200D03*
X68100Y-52350D03*
X68000Y-51050D03*
X63450Y-52400D03*
X63350Y-51100D03*
X54050Y-51100D03*
X58900Y-52400D03*
X58800Y-51100D03*
X57000Y-53300D03*
X52300Y-53400D03*
X61800Y-53300D03*
X66600Y-53300D03*
G54D27*
X75750Y-57700D02*
X75750Y-58500D01*
X73500Y-55950D02*
X73500Y-56950D01*
X73500Y-54700D02*
X73500Y-55650D01*
X75550Y-57700D02*
X75750Y-57700D01*
X73500Y-55950D02*
X73500Y-55650D01*
X74250Y-57700D02*
X75550Y-57700D01*
X73500Y-56950D02*
X74250Y-57700D01*
X77300Y-56150D02*
X77300Y-57700D01*
X77050Y-54900D02*
X77050Y-55900D01*
X77050Y-53050D02*
X77050Y-53900D01*
X77050Y-55000D02*
X77050Y-53900D01*
X75750Y-57700D02*
X76200Y-57700D01*
X77300Y-57700D02*
X76200Y-57700D01*
X77300Y-57700D02*
X77300Y-57650D01*
X77300Y-57650D02*
X77300Y-57700D01*
X81650Y-58500D02*
X81650Y-58100D01*
X81650Y-58100D02*
X81250Y-57700D01*
X81250Y-57700D02*
X77300Y-57700D01*
X77050Y-49600D02*
X77050Y-50350D01*
X77000Y-49600D02*
X77050Y-49600D01*
X72700Y-49600D02*
X71950Y-49600D01*
X73700Y-49600D02*
X72800Y-49600D01*
X72800Y-49600D02*
X72700Y-49600D01*
X75700Y-49600D02*
X73700Y-49600D01*
X71950Y-49600D02*
X71500Y-49150D01*
X65700Y-48600D02*
X66000Y-48600D01*
X66000Y-48600D02*
X66350Y-48250D01*
X62100Y-48600D02*
X62500Y-48200D01*
X56200Y-48600D02*
X62100Y-48600D01*
X76950Y-55100D02*
X77050Y-55000D01*
X82900Y-49600D02*
X81100Y-49600D01*
X81100Y-49600D02*
X81000Y-49600D01*
X83500Y-49000D02*
X82900Y-49600D01*
X81000Y-49600D02*
X80300Y-49600D01*
X83500Y-48600D02*
X83500Y-49000D01*
X80300Y-49600D02*
X77000Y-49600D01*
X77000Y-49600D02*
X75700Y-49600D01*
X75700Y-48600D02*
X75700Y-49600D01*
X56550Y-39600D02*
X58100Y-39600D01*
X58100Y-39600D02*
X59000Y-40500D01*
X59000Y-40500D02*
X59000Y-42200D01*
X56200Y-44700D02*
X56200Y-45600D01*
X56600Y-37050D02*
X56600Y-38000D01*
X53450Y-45600D02*
X54200Y-45600D01*
X53400Y-45550D02*
X53450Y-45600D01*
X56600Y-38000D02*
X56550Y-38050D01*
X55300Y-35700D02*
X56550Y-35700D01*
X56550Y-35700D02*
X56600Y-35750D01*
X66250Y-39500D02*
X68000Y-39500D01*
X68000Y-39500D02*
X68800Y-40300D01*
X68800Y-40300D02*
X68800Y-42200D01*
X65800Y-44700D02*
X65700Y-44800D01*
X65700Y-44800D02*
X65700Y-45600D01*
X66300Y-37000D02*
X66300Y-38050D01*
X63100Y-45600D02*
X63700Y-45600D01*
X63000Y-45500D02*
X63100Y-45600D01*
X65000Y-35700D02*
X66300Y-35700D01*
X76150Y-39500D02*
X77800Y-39500D01*
X77800Y-39500D02*
X78700Y-40400D01*
X78700Y-40400D02*
X78700Y-42200D01*
X75700Y-44700D02*
X75700Y-45600D01*
X76200Y-37000D02*
X76200Y-37850D01*
X73000Y-45600D02*
X73700Y-45600D01*
X72950Y-45550D02*
X73000Y-45600D01*
X76200Y-37850D02*
X76150Y-37900D01*
X74900Y-35700D02*
X76200Y-35700D01*
X85850Y-39500D02*
X87500Y-39500D01*
X87500Y-39500D02*
X88500Y-40500D01*
X88500Y-40500D02*
X88500Y-42200D01*
X84300Y-45500D02*
X84200Y-45600D01*
X84200Y-45600D02*
X83500Y-45600D01*
X85900Y-37000D02*
X85900Y-38000D01*
X80850Y-45600D02*
X81500Y-45600D01*
X80750Y-45500D02*
X80850Y-45600D01*
X84600Y-35700D02*
X85900Y-35700D01*
G54D28*
X54300Y-39500D02*
X54300Y-40724D01*
X54300Y-40724D02*
X53624Y-41400D01*
G54D27*
X55250Y-39600D02*
X54300Y-39600D01*
X54500Y-39500D02*
X54300Y-39500D01*
X54400Y-39500D02*
X54500Y-39500D01*
X54300Y-39600D02*
X54400Y-39500D01*
G54D28*
X54300Y-37300D02*
X54300Y-39500D01*
X56576Y-41450D02*
X56576Y-43469D01*
X56600Y-43500D02*
X56600Y-43469D01*
X56600Y-43493D02*
X56600Y-43500D01*
X56576Y-43469D02*
X56600Y-43493D01*
X52300Y-43469D02*
X56600Y-43469D01*
X56600Y-43469D02*
X57738Y-43469D01*
X57738Y-43469D02*
X59100Y-44831D01*
X59100Y-36169D02*
X59100Y-32100D01*
X58000Y-31000D02*
X56990Y-31000D01*
X59100Y-32100D02*
X58000Y-31000D01*
X52300Y-39531D02*
X52300Y-36700D01*
X52300Y-36700D02*
X53300Y-35700D01*
X53300Y-35700D02*
X53300Y-31700D01*
X53300Y-31700D02*
X54000Y-31000D01*
X54000Y-31000D02*
X55020Y-31000D01*
G54D27*
X64950Y-39500D02*
X64000Y-39500D01*
X64000Y-39500D02*
X63800Y-39500D01*
X63800Y-39500D02*
X64000Y-39500D01*
G54D28*
X64000Y-37300D02*
X64000Y-39500D01*
X64000Y-39500D02*
X64000Y-40924D01*
X64000Y-40924D02*
X63524Y-41400D01*
X66476Y-41350D02*
X66476Y-43469D01*
X66500Y-43200D02*
X66500Y-43469D01*
X66500Y-43445D02*
X66500Y-43200D01*
X66476Y-43469D02*
X66500Y-43445D01*
X62200Y-43469D02*
X66500Y-43469D01*
X66500Y-43469D02*
X67538Y-43469D01*
X67538Y-43469D02*
X68900Y-44831D01*
X68900Y-36169D02*
X68900Y-31900D01*
X68000Y-31000D02*
X66990Y-31000D01*
X68900Y-31900D02*
X68000Y-31000D01*
X63000Y-35700D02*
X63000Y-32000D01*
X63000Y-32000D02*
X64000Y-31000D01*
X64000Y-31000D02*
X65020Y-31000D01*
X62200Y-39531D02*
X62200Y-36500D01*
X62200Y-36500D02*
X63000Y-35700D01*
G54D27*
X74850Y-39500D02*
X73900Y-39500D01*
X73900Y-39500D02*
X74000Y-39500D01*
X74000Y-39500D02*
X73900Y-39500D01*
G54D28*
X73900Y-37300D02*
X73900Y-39500D01*
X73900Y-39500D02*
X73900Y-40824D01*
X73900Y-40824D02*
X73324Y-41400D01*
X76276Y-41350D02*
X76276Y-43469D01*
X76300Y-43300D02*
X76300Y-43469D01*
X76300Y-43445D02*
X76300Y-43300D01*
X76276Y-43469D02*
X76300Y-43445D01*
X72000Y-43469D02*
X76300Y-43469D01*
X76300Y-43469D02*
X77338Y-43469D01*
X77338Y-43469D02*
X78700Y-44831D01*
X78700Y-36169D02*
X78700Y-31700D01*
X78000Y-31000D02*
X76990Y-31000D01*
X78700Y-31700D02*
X78000Y-31000D01*
X72900Y-35700D02*
X72900Y-32100D01*
X72900Y-32100D02*
X74000Y-31000D01*
X74000Y-31000D02*
X75020Y-31000D01*
X72000Y-39531D02*
X72000Y-36600D01*
X72000Y-36600D02*
X72900Y-35700D01*
G54D27*
X83600Y-39500D02*
X84550Y-39500D01*
G54D28*
X83600Y-37300D02*
X83600Y-39500D01*
X83600Y-39500D02*
X83600Y-40824D01*
X83600Y-40824D02*
X83024Y-41400D01*
X85976Y-43469D02*
X86000Y-43469D01*
X85976Y-41350D02*
X85976Y-43469D01*
X86000Y-43469D02*
X87138Y-43469D01*
X81700Y-43469D02*
X86000Y-43469D01*
X87138Y-43469D02*
X88500Y-44831D01*
X88500Y-36169D02*
X88500Y-32500D01*
X87000Y-31000D02*
X85990Y-31000D01*
X88500Y-32500D02*
X87000Y-31000D01*
X81700Y-39531D02*
X81700Y-36600D01*
X81700Y-36600D02*
X82600Y-35700D01*
X82600Y-35700D02*
X82600Y-31400D01*
X82600Y-31400D02*
X83000Y-31000D01*
X83000Y-31000D02*
X84020Y-31000D01*
G54D11*
X54900Y-53400D02*
X55700Y-53400D01*
X54980Y-58300D02*
X54980Y-56830D01*
X54980Y-56830D02*
X54900Y-56750D01*
X59800Y-53300D02*
X60600Y-53300D01*
X59780Y-58300D02*
X59780Y-56770D01*
X59780Y-56770D02*
X59800Y-56750D01*
X64600Y-53250D02*
X65350Y-53250D01*
X65350Y-53250D02*
X65400Y-53300D01*
X64580Y-58300D02*
X64580Y-56720D01*
X64580Y-56720D02*
X64600Y-56700D01*
X69400Y-53250D02*
X70150Y-53250D01*
X70150Y-53250D02*
X70200Y-53300D01*
X69380Y-58300D02*
X69380Y-56720D01*
X69380Y-56720D02*
X69400Y-56700D01*
X76700Y-52000D02*
X80600Y-52000D01*
X76250Y-52450D02*
X76700Y-52000D01*
X76250Y-53100D02*
X76250Y-52450D01*
X75650Y-53700D02*
X76250Y-53100D01*
X73500Y-53700D02*
X75650Y-53700D01*
G54D27*
X86010Y-54410D02*
X88390Y-54410D01*
X88800Y-54000D02*
X88800Y-52950D01*
X88390Y-54410D02*
X88800Y-54000D01*
X85450Y-50800D02*
X85450Y-53850D01*
X87650Y-47400D02*
X87650Y-47500D01*
X87650Y-47500D02*
X86700Y-48450D01*
X86700Y-48450D02*
X86700Y-49550D01*
X86700Y-49550D02*
X85450Y-50800D01*
X86010Y-54410D02*
X86010Y-56790D01*
X85450Y-53850D02*
X86010Y-54410D01*
X86010Y-57900D02*
X86010Y-56790D01*
X88800Y-51850D02*
X88800Y-52950D01*
X87980Y-56450D02*
X87980Y-55470D01*
X89800Y-54500D02*
X89800Y-50650D01*
X89800Y-50650D02*
X89350Y-50200D01*
X89100Y-55200D02*
X89800Y-54500D01*
X88250Y-55200D02*
X89100Y-55200D01*
X87980Y-55470D02*
X88250Y-55200D01*
X88650Y-47400D02*
X88850Y-47400D01*
X89350Y-47900D02*
X89350Y-49200D01*
X88850Y-47400D02*
X89350Y-47900D01*
X89350Y-50200D02*
X89350Y-49200D01*
X87980Y-57900D02*
X87980Y-56450D01*
X87980Y-56450D02*
X87980Y-56320D01*
G54D11*
X78350Y-55900D02*
X78650Y-55900D01*
X78650Y-55900D02*
X79050Y-55500D01*
X72000Y-54200D02*
X76100Y-54200D01*
X71500Y-53700D02*
X72000Y-54200D01*
X83400Y-51900D02*
X83200Y-51900D01*
X83200Y-51900D02*
X82600Y-52500D01*
G54D27*
X86400Y-52900D02*
X87450Y-52900D01*
X87450Y-52900D02*
X87500Y-52950D01*
X87500Y-51850D02*
X87500Y-52950D01*
G54D11*
X87450Y-51900D02*
X87500Y-51850D01*
G54D27*
X88050Y-50200D02*
X87100Y-50200D01*
X87100Y-50200D02*
X86400Y-50900D01*
X86400Y-50900D02*
X86400Y-51900D01*
X88050Y-49200D02*
X88050Y-50200D01*
X82350Y-56550D02*
X82350Y-59250D01*
X82350Y-56250D02*
X82100Y-56000D01*
X81600Y-56000D02*
X82100Y-56000D01*
X82350Y-56550D02*
X82350Y-56250D01*
X82350Y-59250D02*
X82100Y-59500D01*
X71500Y-54700D02*
X71500Y-59050D01*
X71750Y-59300D02*
X72700Y-60250D01*
X72700Y-60250D02*
X75750Y-60250D01*
X71500Y-59050D02*
X71750Y-59300D01*
X82100Y-59500D02*
X81650Y-59500D01*
X81600Y-56000D02*
X81600Y-55450D01*
X81600Y-55450D02*
X81600Y-55000D01*
X75750Y-60250D02*
X81250Y-60250D01*
X81250Y-60250D02*
X81650Y-59850D01*
X81650Y-59850D02*
X81650Y-59500D01*
X81600Y-56000D02*
X81050Y-56000D01*
X81600Y-53000D02*
X83300Y-53000D01*
X83300Y-53000D02*
X83400Y-52900D01*
X78350Y-54900D02*
X79100Y-54900D01*
X79100Y-54900D02*
X80200Y-56000D01*
X80200Y-56000D02*
X81050Y-56000D01*
X78350Y-53900D02*
X78350Y-55000D01*
X81600Y-55000D02*
X81600Y-54000D01*
X81600Y-53000D02*
X81600Y-54000D01*
X81600Y-52000D02*
X81600Y-53000D01*
X80100Y-50100D02*
X80850Y-50100D01*
X79000Y-50100D02*
X79600Y-50100D01*
X79600Y-50100D02*
X80100Y-50100D01*
X81600Y-50850D02*
X81600Y-52000D01*
X80850Y-50100D02*
X81600Y-50850D01*
X75750Y-60250D02*
X75750Y-59500D01*
X79000Y-50100D02*
X78350Y-50750D01*
X73800Y-50750D02*
X73100Y-50050D01*
X78350Y-50750D02*
X73800Y-50750D01*
X78950Y-50050D02*
X79000Y-50100D01*
X65200Y-50000D02*
X73050Y-50000D01*
X73050Y-50000D02*
X73100Y-50050D01*
X60600Y-50000D02*
X65200Y-50000D01*
X55950Y-50000D02*
X60600Y-50000D01*
X53000Y-50000D02*
X55950Y-50000D01*
G54D11*
X74700Y-48600D02*
X74700Y-47900D01*
X74000Y-47200D02*
X73400Y-47200D01*
X74700Y-47900D02*
X74000Y-47200D01*
X82500Y-48600D02*
X82500Y-47600D01*
X82500Y-47600D02*
X82900Y-47200D01*
X64700Y-48600D02*
X64700Y-47800D01*
X64100Y-47200D02*
X63300Y-47200D01*
X64700Y-47800D02*
X64100Y-47200D01*
X54200Y-52400D02*
X53000Y-52400D01*
X54900Y-51925D02*
X53475Y-51925D01*
X53475Y-51925D02*
X53000Y-52400D01*
X55200Y-48600D02*
X55200Y-47700D01*
X54700Y-47200D02*
X53900Y-47200D01*
X55200Y-47700D02*
X54700Y-47200D01*
X54900Y-54700D02*
X54650Y-54700D01*
X54375Y-52675D02*
X54900Y-52675D01*
X54100Y-52950D02*
X54375Y-52675D01*
X54100Y-54150D02*
X54100Y-52950D01*
X54650Y-54700D02*
X54100Y-54150D01*
X54900Y-55450D02*
X54900Y-54700D01*
X69450Y-51775D02*
X67575Y-51775D01*
X67575Y-51775D02*
X67000Y-52350D01*
X68100Y-52350D02*
X67000Y-52350D01*
X67000Y-51050D02*
X66250Y-51050D01*
X66100Y-54550D02*
X67400Y-54550D01*
X65950Y-54400D02*
X66100Y-54550D01*
X65950Y-51350D02*
X65950Y-54400D01*
X66250Y-51050D02*
X65950Y-51350D01*
X67400Y-55400D02*
X67400Y-54550D01*
X67000Y-51050D02*
X68000Y-51050D01*
X69450Y-52525D02*
X68875Y-52525D01*
X69000Y-54550D02*
X69400Y-54550D01*
X68550Y-54100D02*
X69000Y-54550D01*
X68550Y-52850D02*
X68550Y-54100D01*
X68875Y-52525D02*
X68550Y-52850D01*
X69400Y-55400D02*
X69400Y-54550D01*
X64600Y-51775D02*
X62925Y-51775D01*
X62925Y-51775D02*
X62350Y-52350D01*
X63400Y-52350D02*
X62350Y-52350D01*
X63450Y-52400D02*
X63400Y-52350D01*
X62350Y-51050D02*
X61750Y-51050D01*
X61500Y-54550D02*
X62600Y-54550D01*
X61300Y-54350D02*
X61500Y-54550D01*
X61300Y-51500D02*
X61300Y-54350D01*
X61750Y-51050D02*
X61300Y-51500D01*
X62600Y-55400D02*
X62600Y-54550D01*
X62350Y-51050D02*
X63300Y-51050D01*
X63300Y-51050D02*
X63350Y-51100D01*
X64600Y-52525D02*
X64125Y-52525D01*
X64200Y-54550D02*
X64600Y-54550D01*
X63800Y-54150D02*
X64200Y-54550D01*
X63800Y-52850D02*
X63800Y-54150D01*
X64125Y-52525D02*
X63800Y-52850D01*
X64600Y-55400D02*
X64600Y-54550D01*
X53000Y-54650D02*
X52200Y-54700D01*
X52300Y-51100D02*
X53000Y-51100D01*
X51850Y-51550D02*
X52300Y-51100D01*
X51850Y-54350D02*
X51850Y-51550D01*
X52200Y-54700D02*
X51850Y-54350D01*
X53000Y-51100D02*
X54050Y-51100D01*
X53000Y-55450D02*
X53000Y-54650D01*
X59800Y-52575D02*
X59375Y-52575D01*
X59450Y-54600D02*
X59800Y-54600D01*
X59000Y-54150D02*
X59450Y-54600D01*
X59000Y-52950D02*
X59000Y-54150D01*
X59375Y-52575D02*
X59000Y-52950D01*
X59800Y-55450D02*
X59800Y-54600D01*
X58850Y-52350D02*
X57750Y-52350D01*
X58900Y-52400D02*
X58850Y-52350D01*
X57750Y-52350D02*
X58200Y-51900D01*
X59725Y-51900D02*
X59800Y-51825D01*
X58200Y-51900D02*
X59725Y-51900D01*
X57750Y-51050D02*
X57100Y-51050D01*
X56800Y-54600D02*
X57800Y-54600D01*
X56500Y-54300D02*
X56800Y-54600D01*
X56500Y-51650D02*
X56500Y-54300D01*
X57100Y-51050D02*
X56500Y-51650D01*
X57800Y-55450D02*
X57800Y-54600D01*
X57750Y-51050D02*
X58750Y-51050D01*
X58750Y-51050D02*
X58800Y-51100D01*
X57800Y-53300D02*
X57000Y-53300D01*
X57810Y-58300D02*
X57810Y-56760D01*
X57810Y-56760D02*
X57800Y-56750D01*
X53000Y-53350D02*
X52350Y-53350D01*
X52350Y-53350D02*
X52300Y-53400D01*
X53010Y-58300D02*
X53010Y-56760D01*
X53010Y-56760D02*
X53000Y-56750D01*
X62600Y-53250D02*
X61850Y-53250D01*
X61850Y-53250D02*
X61800Y-53300D01*
X62610Y-58300D02*
X62610Y-56710D01*
X62610Y-56710D02*
X62600Y-56700D01*
X67400Y-53250D02*
X66650Y-53250D01*
X66650Y-53250D02*
X66600Y-53300D01*
X67410Y-58300D02*
X67410Y-56710D01*
X67410Y-56710D02*
X67400Y-56700D01*
M02*
