G04 (created by PCBNEW (2011-nov-30)-testing) date jeu. 18 oct. 2012 20:37:39 CEST*
%MOIN*%
G04 Gerber Fmt 3.4, Leading zero omitted, Abs format*
%FSLAX34Y34*%
G01*
G70*
G90*
G04 APERTURE LIST*
%ADD10C,0.006*%
%ADD11C,0.01*%
%ADD12R,0.05X0.02*%
%ADD13R,0.06X0.08*%
%ADD14R,0.06X0.06*%
%ADD15C,0.06*%
%ADD16R,0.0629X0.0709*%
%ADD17C,0.055*%
%ADD18R,0.09X0.062*%
%ADD19R,0.0882X0.0882*%
%ADD20C,0.0882*%
%ADD21O,0.0984X0.1575*%
%ADD22C,0.07*%
%ADD23C,0.16*%
%ADD24O,0.078X0.156*%
%ADD25C,0.035*%
%ADD26C,0.02*%
G04 APERTURE END LIST*
G54D10*
G54D11*
X51100Y-61600D02*
X51100Y-61400D01*
X90550Y-61600D02*
X51100Y-61600D01*
X90550Y-27600D02*
X90550Y-61600D01*
X51100Y-27600D02*
X90550Y-27600D01*
X51100Y-61400D02*
X51100Y-27600D01*
G54D12*
X75200Y-50550D03*
X75200Y-51050D03*
X75200Y-51550D03*
X75200Y-52050D03*
X75200Y-52550D03*
X75200Y-53050D03*
X75200Y-53550D03*
X75200Y-54050D03*
X75200Y-54550D03*
X75200Y-55050D03*
X79000Y-55050D03*
X79000Y-54550D03*
X79000Y-54050D03*
X79000Y-53550D03*
X79000Y-53050D03*
X79000Y-52550D03*
X79000Y-52050D03*
X79000Y-51550D03*
X79000Y-51050D03*
X79000Y-50550D03*
G54D13*
X53650Y-54250D03*
X52350Y-54250D03*
X67050Y-47200D03*
X68350Y-47200D03*
X58250Y-54300D03*
X56950Y-54300D03*
X77050Y-47200D03*
X78350Y-47200D03*
X67750Y-54300D03*
X66450Y-54300D03*
X57550Y-47200D03*
X58850Y-47200D03*
X63050Y-54300D03*
X61750Y-54300D03*
X80850Y-47200D03*
X79550Y-47200D03*
X80450Y-49750D03*
X81750Y-49750D03*
G54D14*
X73500Y-53700D03*
G54D15*
X73500Y-54700D03*
X72500Y-53700D03*
X72500Y-54700D03*
X71500Y-53700D03*
X71500Y-54700D03*
G54D16*
X54641Y-47200D03*
X55759Y-47200D03*
X81659Y-50750D03*
X80541Y-50750D03*
X64141Y-47200D03*
X65259Y-47200D03*
X55559Y-54250D03*
X54441Y-54250D03*
X60059Y-54300D03*
X58941Y-54300D03*
X83741Y-47200D03*
X84859Y-47200D03*
X64959Y-54300D03*
X63841Y-54300D03*
X74141Y-47200D03*
X75259Y-47200D03*
X69659Y-54300D03*
X68541Y-54300D03*
G54D17*
X52300Y-43469D03*
X52300Y-39531D03*
X62200Y-43469D03*
X62200Y-39531D03*
X72000Y-43469D03*
X72000Y-39531D03*
X81700Y-43469D03*
X81700Y-39531D03*
G54D18*
X69000Y-52000D03*
X69000Y-51000D03*
X69000Y-50000D03*
X66000Y-50000D03*
X66000Y-51000D03*
X66000Y-52000D03*
X59800Y-52000D03*
X59800Y-51000D03*
X59800Y-50000D03*
X56800Y-50000D03*
X56800Y-51000D03*
X56800Y-52000D03*
X64400Y-52000D03*
X64400Y-51000D03*
X64400Y-50000D03*
X61400Y-50000D03*
X61400Y-51000D03*
X61400Y-52000D03*
X55100Y-52000D03*
X55100Y-51000D03*
X55100Y-50000D03*
X52100Y-50000D03*
X52100Y-51000D03*
X52100Y-52000D03*
G54D19*
X73324Y-41400D03*
G54D20*
X76276Y-41350D03*
G54D19*
X63524Y-41400D03*
G54D20*
X66476Y-41350D03*
G54D19*
X53624Y-41400D03*
G54D20*
X56576Y-41350D03*
G54D19*
X83024Y-41400D03*
G54D20*
X85976Y-41350D03*
G54D14*
X81650Y-58500D03*
G54D15*
X81650Y-59500D03*
X80650Y-58500D03*
X80650Y-59500D03*
X79650Y-58500D03*
X79650Y-59500D03*
G54D14*
X75750Y-58500D03*
G54D15*
X75750Y-59500D03*
X74750Y-58500D03*
X74750Y-59500D03*
X73750Y-58500D03*
X73750Y-59500D03*
G54D13*
X75400Y-49600D03*
X74100Y-49600D03*
G54D16*
X77559Y-49600D03*
X76441Y-49600D03*
G54D21*
X59100Y-36169D03*
X59100Y-44831D03*
X68900Y-36169D03*
X68900Y-44831D03*
X78700Y-36169D03*
X78700Y-44831D03*
X88500Y-36169D03*
X88500Y-44831D03*
G54D22*
X55300Y-35700D03*
X54300Y-37300D03*
X53300Y-35700D03*
X65000Y-35700D03*
X64000Y-37300D03*
X63000Y-35700D03*
X74900Y-35700D03*
X73900Y-37300D03*
X72900Y-35700D03*
X84600Y-35700D03*
X83600Y-37300D03*
X82600Y-35700D03*
G54D14*
X81600Y-55000D03*
G54D15*
X80600Y-55000D03*
G54D14*
X81600Y-54000D03*
G54D15*
X80600Y-54000D03*
G54D14*
X81600Y-52000D03*
G54D15*
X80600Y-52000D03*
G54D14*
X81600Y-53000D03*
G54D15*
X80600Y-53000D03*
G54D14*
X87650Y-47400D03*
G54D15*
X88650Y-47400D03*
G54D23*
X61300Y-29900D03*
X80850Y-29850D03*
X83900Y-55250D03*
G54D24*
X53010Y-58300D03*
X54980Y-58300D03*
X57810Y-58300D03*
X59780Y-58300D03*
X62610Y-58300D03*
X64580Y-58300D03*
X67410Y-58300D03*
X69380Y-58300D03*
X86010Y-58200D03*
X87980Y-58200D03*
X85990Y-31000D03*
X84020Y-31000D03*
X76990Y-31000D03*
X75020Y-31000D03*
X66990Y-31000D03*
X65020Y-31000D03*
X56990Y-31000D03*
X55020Y-31000D03*
G54D25*
X81100Y-49600D03*
X77050Y-53050D03*
X77050Y-50350D03*
X71500Y-49150D03*
X66350Y-48250D03*
X62500Y-48200D03*
X59000Y-42200D03*
X56200Y-44700D03*
X53400Y-45550D03*
X56550Y-38050D03*
X68800Y-42200D03*
X65800Y-44700D03*
X63000Y-45500D03*
X66300Y-38050D03*
X78700Y-42200D03*
X75700Y-44700D03*
X72950Y-45550D03*
X76150Y-37900D03*
X88500Y-42200D03*
X84300Y-45500D03*
X80750Y-45500D03*
X85900Y-38000D03*
X55700Y-53400D03*
X60600Y-53300D03*
X65400Y-53300D03*
X70200Y-53300D03*
X79050Y-55500D03*
X76100Y-54200D03*
X82600Y-52500D03*
X73100Y-50050D03*
X65200Y-50000D03*
X60600Y-50000D03*
X55950Y-50000D03*
X53000Y-50000D03*
X79000Y-50100D03*
X73400Y-47200D03*
X82900Y-47200D03*
X63300Y-47200D03*
X54200Y-52400D03*
X53900Y-47200D03*
X68100Y-52350D03*
X68000Y-51050D03*
X63450Y-52400D03*
X63350Y-51100D03*
X54050Y-51100D03*
X58900Y-52400D03*
X58800Y-51100D03*
X57000Y-53300D03*
X52300Y-53400D03*
X61800Y-53300D03*
X66600Y-53300D03*
G54D26*
X81659Y-50750D02*
X81600Y-50750D01*
X81100Y-50250D02*
X81600Y-50750D01*
X81100Y-50250D02*
X81100Y-49600D01*
X77050Y-50350D02*
X77050Y-53050D01*
X70600Y-48250D02*
X71500Y-49150D01*
X70600Y-48250D02*
X66350Y-48250D01*
X66350Y-48250D02*
X66400Y-48300D01*
X62500Y-48200D02*
X62600Y-48300D01*
X62600Y-48300D02*
X66400Y-48300D01*
X73500Y-54700D02*
X73700Y-54700D01*
X74050Y-55050D02*
X74200Y-55050D01*
X74200Y-55050D02*
X74300Y-55050D01*
X74300Y-55050D02*
X75200Y-55050D01*
X73700Y-54700D02*
X74050Y-55050D01*
G54D11*
X75750Y-57800D02*
X75750Y-53600D01*
X75750Y-53600D02*
X75750Y-53300D01*
X75500Y-53050D02*
X75750Y-53300D01*
X75500Y-53050D02*
X75200Y-53050D01*
X73750Y-58500D02*
X73750Y-58100D01*
X79650Y-58100D02*
X79650Y-58500D01*
X79350Y-57800D02*
X79650Y-58100D01*
X74050Y-57800D02*
X75750Y-57800D01*
X75750Y-57800D02*
X76000Y-57800D01*
X76000Y-57800D02*
X79350Y-57800D01*
X73750Y-58100D02*
X74050Y-57800D01*
X79000Y-54550D02*
X80150Y-54550D01*
X80150Y-54550D02*
X80600Y-55000D01*
X79000Y-54050D02*
X80550Y-54050D01*
X80550Y-54050D02*
X80600Y-54000D01*
X79000Y-53550D02*
X79600Y-53550D01*
X80150Y-53000D02*
X80600Y-53000D01*
X79600Y-53550D02*
X80150Y-53000D01*
X60300Y-47200D02*
X61600Y-48500D01*
X58850Y-47200D02*
X60300Y-47200D01*
X71600Y-50550D02*
X75200Y-50550D01*
X71102Y-50052D02*
X71600Y-50550D01*
X71102Y-49302D02*
X71102Y-50052D01*
X70394Y-48594D02*
X71102Y-49302D01*
X61700Y-48594D02*
X70394Y-48594D01*
X61606Y-48500D02*
X61700Y-48594D01*
X61600Y-48500D02*
X61606Y-48500D01*
X68350Y-47200D02*
X70200Y-47200D01*
X71600Y-48600D02*
X72800Y-48600D01*
X70200Y-47200D02*
X71600Y-48600D01*
X79000Y-51550D02*
X78450Y-51550D01*
X77900Y-48600D02*
X72800Y-48600D01*
X72800Y-48600D02*
X72700Y-48600D01*
X78100Y-48800D02*
X77900Y-48600D01*
X78100Y-51200D02*
X78100Y-48800D01*
X78450Y-51550D02*
X78100Y-51200D01*
X79000Y-51050D02*
X78750Y-51050D01*
X78350Y-50650D02*
X78350Y-47200D01*
X78750Y-51050D02*
X78350Y-50650D01*
X79000Y-52050D02*
X79250Y-52050D01*
X79600Y-47250D02*
X79550Y-47200D01*
X79600Y-51700D02*
X79600Y-47250D01*
X79250Y-52050D02*
X79600Y-51700D01*
G54D26*
X59000Y-42200D02*
X56500Y-44700D01*
X56500Y-44700D02*
X56200Y-44700D01*
X55100Y-43850D02*
X53400Y-45550D01*
X55100Y-39500D02*
X55100Y-43850D01*
X56550Y-38050D02*
X55100Y-39500D01*
X68800Y-42200D02*
X66300Y-44700D01*
X66300Y-44700D02*
X65800Y-44700D01*
X65050Y-43450D02*
X63000Y-45500D01*
X65050Y-39300D02*
X65050Y-43450D01*
X66300Y-38050D02*
X65050Y-39300D01*
X78700Y-42200D02*
X76200Y-44700D01*
X76200Y-44700D02*
X75700Y-44700D01*
X74800Y-43700D02*
X72950Y-45550D01*
X74800Y-39250D02*
X74800Y-43700D01*
X76150Y-37900D02*
X74800Y-39250D01*
X88500Y-42200D02*
X85200Y-45500D01*
X85200Y-45500D02*
X84300Y-45500D01*
X82500Y-45500D02*
X80750Y-45500D01*
X84500Y-43500D02*
X82500Y-45500D01*
X84500Y-39400D02*
X84500Y-43500D01*
X85900Y-38000D02*
X84500Y-39400D01*
G54D11*
X54104Y-48796D02*
X53850Y-49050D01*
X71100Y-51050D02*
X70900Y-50850D01*
X70900Y-50850D02*
X70900Y-49400D01*
X70900Y-49400D02*
X70296Y-48796D01*
X70296Y-48796D02*
X54104Y-48796D01*
X75200Y-51050D02*
X71100Y-51050D01*
X53000Y-51000D02*
X52100Y-51000D01*
X53850Y-50150D02*
X53000Y-51000D01*
X53850Y-49050D02*
X53850Y-50150D01*
X52700Y-51000D02*
X52100Y-51000D01*
X75200Y-51550D02*
X70850Y-51550D01*
X57500Y-51000D02*
X56800Y-51000D01*
X57800Y-50700D02*
X57500Y-51000D01*
X57800Y-49650D02*
X57800Y-50700D01*
X58452Y-48998D02*
X57800Y-49650D01*
X70198Y-48998D02*
X58452Y-48998D01*
X70600Y-49400D02*
X70198Y-48998D01*
X70600Y-51300D02*
X70600Y-49400D01*
X70850Y-51550D02*
X70600Y-51300D01*
X75200Y-52050D02*
X70650Y-52050D01*
X62050Y-51000D02*
X61400Y-51000D01*
X62400Y-50650D02*
X62050Y-51000D01*
X62400Y-49850D02*
X62400Y-50650D01*
X63050Y-49200D02*
X62400Y-49850D01*
X69950Y-49200D02*
X63050Y-49200D01*
X70300Y-49550D02*
X69950Y-49200D01*
X70300Y-51700D02*
X70300Y-49550D01*
X70650Y-52050D02*
X70300Y-51700D01*
X75200Y-52550D02*
X70600Y-52550D01*
X66750Y-51000D02*
X66000Y-51000D01*
X67050Y-50700D02*
X66750Y-51000D01*
X67050Y-50000D02*
X67050Y-50700D01*
X67600Y-49450D02*
X67050Y-50000D01*
X69800Y-49450D02*
X67600Y-49450D01*
X69950Y-49600D02*
X69800Y-49450D01*
X69950Y-51900D02*
X69950Y-49600D01*
X70600Y-52550D02*
X69950Y-51900D01*
X55559Y-53541D02*
X55559Y-54250D01*
X55700Y-53400D02*
X55559Y-53541D01*
X54980Y-58300D02*
X54980Y-55320D01*
X55559Y-54741D02*
X55559Y-54250D01*
X54980Y-55320D02*
X55559Y-54741D01*
X60059Y-53341D02*
X60059Y-54300D01*
X60100Y-53300D02*
X60059Y-53341D01*
X60600Y-53300D02*
X60100Y-53300D01*
X59780Y-58300D02*
X59780Y-55120D01*
X60059Y-54841D02*
X60059Y-54300D01*
X59780Y-55120D02*
X60059Y-54841D01*
X64959Y-53741D02*
X64959Y-54300D01*
X65400Y-53300D02*
X64959Y-53741D01*
X64580Y-58300D02*
X64580Y-55320D01*
X64959Y-54941D02*
X64959Y-54300D01*
X64580Y-55320D02*
X64959Y-54941D01*
X69659Y-53841D02*
X69659Y-54300D01*
X70200Y-53300D02*
X69659Y-53841D01*
X69380Y-58300D02*
X69380Y-55020D01*
X69659Y-54741D02*
X69659Y-54300D01*
X69380Y-55020D02*
X69659Y-54741D01*
X77559Y-49600D02*
X77559Y-52659D01*
X77950Y-53050D02*
X79000Y-53050D01*
X77559Y-52659D02*
X77950Y-53050D01*
X73500Y-53700D02*
X74200Y-53700D01*
X74550Y-54050D02*
X75200Y-54050D01*
X74200Y-53700D02*
X74550Y-54050D01*
X72500Y-54700D02*
X72500Y-59450D01*
X72750Y-59700D02*
X73300Y-60250D01*
X73300Y-60250D02*
X74750Y-60250D01*
X72500Y-59450D02*
X72750Y-59700D01*
X74750Y-60250D02*
X74750Y-59500D01*
X79900Y-60250D02*
X80650Y-59500D01*
X74750Y-60250D02*
X79900Y-60250D01*
X72500Y-54700D02*
X72000Y-54200D01*
X72000Y-54200D02*
X72000Y-53400D01*
X72000Y-53400D02*
X72300Y-53100D01*
X72300Y-53100D02*
X74100Y-53100D01*
X74100Y-53100D02*
X74600Y-53600D01*
X74600Y-53600D02*
X75150Y-53600D01*
X75150Y-53600D02*
X75200Y-53550D01*
X79000Y-55450D02*
X79000Y-55050D01*
X79050Y-55500D02*
X79000Y-55450D01*
X76950Y-55050D02*
X79000Y-55050D01*
X76100Y-54200D02*
X76950Y-55050D01*
X73000Y-54500D02*
X73000Y-58500D01*
X73500Y-59000D02*
X74250Y-59000D01*
X73250Y-58750D02*
X73500Y-59000D01*
X74750Y-59000D02*
X74250Y-59000D01*
X73000Y-54500D02*
X73000Y-54200D01*
X73000Y-58500D02*
X73250Y-58750D01*
X74750Y-59000D02*
X74750Y-58500D01*
X74750Y-59000D02*
X80150Y-59000D01*
X80150Y-59000D02*
X80650Y-58500D01*
X72500Y-53700D02*
X72500Y-53800D01*
X72900Y-54200D02*
X73000Y-54200D01*
X72500Y-53800D02*
X72900Y-54200D01*
X74450Y-54550D02*
X75200Y-54550D01*
X74100Y-54200D02*
X74450Y-54550D01*
X73000Y-54200D02*
X74100Y-54200D01*
X79400Y-52500D02*
X82600Y-52500D01*
X79350Y-52550D02*
X79400Y-52500D01*
X79350Y-52550D02*
X79000Y-52550D01*
G54D26*
X81750Y-49750D02*
X82150Y-49750D01*
X82050Y-52000D02*
X81600Y-52000D01*
X82450Y-51600D02*
X82050Y-52000D01*
X82450Y-50050D02*
X82450Y-51600D01*
X82150Y-49750D02*
X82450Y-50050D01*
X73550Y-49600D02*
X74100Y-49600D01*
X73100Y-50050D02*
X73550Y-49600D01*
X65200Y-50000D02*
X66000Y-50000D01*
X60600Y-50000D02*
X61400Y-50000D01*
X52100Y-50000D02*
X53000Y-50000D01*
X55950Y-50000D02*
X56800Y-50000D01*
X79000Y-50550D02*
X79000Y-50100D01*
G54D11*
X73400Y-47200D02*
X74141Y-47200D01*
X82900Y-47200D02*
X83741Y-47200D01*
X63300Y-47200D02*
X64141Y-47200D01*
X75400Y-49600D02*
X76441Y-49600D01*
X55100Y-52000D02*
X54600Y-52000D01*
X54600Y-52000D02*
X54200Y-52400D01*
X53900Y-47200D02*
X54641Y-47200D01*
X69000Y-52000D02*
X68450Y-52000D01*
X68450Y-52000D02*
X68100Y-52350D01*
X68050Y-51000D02*
X69000Y-51000D01*
X68000Y-51050D02*
X68050Y-51000D01*
X64400Y-52000D02*
X63850Y-52000D01*
X63850Y-52000D02*
X63450Y-52400D01*
X63450Y-51000D02*
X64400Y-51000D01*
X63350Y-51100D02*
X63450Y-51000D01*
X54050Y-51100D02*
X54150Y-51000D01*
X54150Y-51000D02*
X55100Y-51000D01*
X59800Y-52000D02*
X59300Y-52000D01*
X59300Y-52000D02*
X58900Y-52400D01*
X58900Y-51000D02*
X59800Y-51000D01*
X58800Y-51100D02*
X58900Y-51000D01*
X58250Y-54300D02*
X58941Y-54300D01*
X57810Y-58300D02*
X57810Y-55610D01*
X56950Y-54750D02*
X56950Y-54300D01*
X57810Y-55610D02*
X56950Y-54750D01*
X57000Y-53300D02*
X56950Y-53350D01*
X56950Y-53350D02*
X56950Y-54300D01*
X53650Y-54250D02*
X54441Y-54250D01*
X53010Y-58300D02*
X53010Y-55310D01*
X52350Y-54650D02*
X52350Y-54250D01*
X53010Y-55310D02*
X52350Y-54650D01*
X52300Y-53400D02*
X52350Y-53450D01*
X52350Y-53450D02*
X52350Y-54250D01*
X55759Y-47200D02*
X57550Y-47200D01*
X80450Y-49750D02*
X80450Y-50659D01*
X80450Y-50659D02*
X80541Y-50750D01*
X68541Y-54300D02*
X67750Y-54300D01*
X63050Y-54300D02*
X63841Y-54300D01*
X62610Y-58300D02*
X62610Y-55810D01*
X61750Y-54950D02*
X61750Y-54300D01*
X62610Y-55810D02*
X61750Y-54950D01*
X61800Y-53300D02*
X61750Y-53350D01*
X61750Y-53350D02*
X61750Y-54300D01*
X67410Y-58300D02*
X67410Y-55810D01*
X66450Y-54850D02*
X66450Y-54300D01*
X67410Y-55810D02*
X66450Y-54850D01*
X66600Y-53300D02*
X66450Y-53450D01*
X66450Y-53450D02*
X66450Y-54300D01*
X75259Y-47200D02*
X77050Y-47200D01*
X65259Y-47200D02*
X67050Y-47200D01*
X80850Y-47200D02*
X82100Y-47200D01*
X84859Y-47741D02*
X84859Y-47200D01*
X84700Y-47900D02*
X84859Y-47741D01*
X82800Y-47900D02*
X84700Y-47900D01*
X82100Y-47200D02*
X82800Y-47900D01*
M02*
