G04 (created by PCBNEW-RS274X (2012-01-19 BZR 3256)-stable) date mar. 15 mai 2012 18:10:56 CEST*
G01*
G70*
G90*
%MOIN*%
G04 Gerber Fmt 3.4, Leading zero omitted, Abs format*
%FSLAX34Y34*%
G04 APERTURE LIST*
%ADD10C,0.006000*%
%ADD11C,0.015000*%
%ADD12R,0.080000X0.080000*%
%ADD13C,0.080000*%
%ADD14R,0.082000X0.110000*%
%ADD15O,0.082000X0.110000*%
%ADD16R,0.080000X0.100000*%
%ADD17C,0.180000*%
G04 APERTURE END LIST*
G54D10*
G54D11*
X90700Y-61700D02*
X90700Y-44800D01*
X29700Y-61700D02*
X90700Y-61700D01*
X29700Y-44800D02*
X29700Y-61700D01*
X90700Y-44800D02*
X29700Y-44800D01*
G54D12*
X67300Y-47800D03*
G54D13*
X68300Y-47800D03*
X69300Y-47800D03*
G54D12*
X67300Y-46800D03*
G54D13*
X68300Y-46800D03*
X69300Y-46800D03*
G54D12*
X67300Y-45800D03*
G54D13*
X68300Y-45800D03*
X69300Y-45800D03*
G54D14*
X61100Y-54500D03*
G54D15*
X62100Y-54500D03*
X63100Y-54500D03*
X63100Y-51500D03*
X62100Y-51500D03*
X61100Y-51500D03*
G54D14*
X64900Y-54500D03*
G54D15*
X65900Y-54500D03*
X66900Y-54500D03*
X66900Y-51500D03*
X65900Y-51500D03*
X64900Y-51500D03*
G54D14*
X68700Y-54500D03*
G54D15*
X69700Y-54500D03*
X70700Y-54500D03*
X70700Y-51500D03*
X69700Y-51500D03*
X68700Y-51500D03*
G54D14*
X72500Y-54500D03*
G54D15*
X73500Y-54500D03*
X74500Y-54500D03*
X74500Y-51500D03*
X73500Y-51500D03*
X72500Y-51500D03*
G54D14*
X76300Y-54500D03*
G54D15*
X77300Y-54500D03*
X78300Y-54500D03*
X78300Y-51500D03*
X77300Y-51500D03*
X76300Y-51500D03*
G54D14*
X80100Y-54500D03*
G54D15*
X81100Y-54500D03*
X82100Y-54500D03*
X82100Y-51500D03*
X81100Y-51500D03*
X80100Y-51500D03*
G54D14*
X83900Y-54500D03*
G54D15*
X84900Y-54500D03*
X85900Y-54500D03*
X85900Y-51500D03*
X84900Y-51500D03*
X83900Y-51500D03*
G54D14*
X87700Y-54500D03*
G54D15*
X88700Y-54500D03*
X89700Y-54500D03*
X89700Y-51500D03*
X88700Y-51500D03*
X87700Y-51500D03*
G54D14*
X30700Y-54500D03*
G54D15*
X31700Y-54500D03*
X32700Y-54500D03*
X32700Y-51500D03*
X31700Y-51500D03*
X30700Y-51500D03*
G54D14*
X34500Y-54500D03*
G54D15*
X35500Y-54500D03*
X36500Y-54500D03*
X36500Y-51500D03*
X35500Y-51500D03*
X34500Y-51500D03*
G54D14*
X38300Y-54500D03*
G54D15*
X39300Y-54500D03*
X40300Y-54500D03*
X40300Y-51500D03*
X39300Y-51500D03*
X38300Y-51500D03*
G54D14*
X42100Y-54500D03*
G54D15*
X43100Y-54500D03*
X44100Y-54500D03*
X44100Y-51500D03*
X43100Y-51500D03*
X42100Y-51500D03*
G54D14*
X45900Y-54500D03*
G54D15*
X46900Y-54500D03*
X47900Y-54500D03*
X47900Y-51500D03*
X46900Y-51500D03*
X45900Y-51500D03*
G54D14*
X49700Y-54500D03*
G54D15*
X50700Y-54500D03*
X51700Y-54500D03*
X51700Y-51500D03*
X50700Y-51500D03*
X49700Y-51500D03*
G54D14*
X53500Y-54500D03*
G54D15*
X54500Y-54500D03*
X55500Y-54500D03*
X55500Y-51500D03*
X54500Y-51500D03*
X53500Y-51500D03*
G54D14*
X57300Y-54500D03*
G54D15*
X58300Y-54500D03*
X59300Y-54500D03*
X59300Y-51500D03*
X58300Y-51500D03*
X57300Y-51500D03*
G54D12*
X31800Y-47500D03*
G54D13*
X31800Y-46500D03*
X32800Y-47500D03*
X32800Y-46500D03*
X33800Y-47500D03*
X33800Y-46500D03*
G54D12*
X88500Y-46500D03*
G54D13*
X88500Y-47500D03*
X87500Y-46500D03*
X87500Y-47500D03*
X86500Y-46500D03*
X86500Y-47500D03*
G54D12*
X38900Y-47800D03*
G54D13*
X39900Y-47800D03*
X40900Y-47800D03*
G54D12*
X38900Y-46800D03*
G54D13*
X39900Y-46800D03*
X40900Y-46800D03*
G54D12*
X38900Y-45800D03*
G54D13*
X39900Y-45800D03*
X40900Y-45800D03*
G54D16*
X58250Y-53400D03*
X59550Y-53400D03*
X54450Y-53400D03*
X55750Y-53400D03*
X50650Y-53400D03*
X51950Y-53400D03*
X46850Y-53400D03*
X48150Y-53400D03*
X43050Y-53400D03*
X44350Y-53400D03*
X39250Y-53400D03*
X40550Y-53400D03*
X35450Y-53400D03*
X36750Y-53400D03*
X31650Y-53400D03*
X32950Y-53400D03*
X88650Y-53400D03*
X89950Y-53400D03*
X84850Y-53400D03*
X86150Y-53400D03*
X81050Y-53400D03*
X82350Y-53400D03*
X77250Y-53400D03*
X78550Y-53400D03*
X73450Y-53400D03*
X74750Y-53400D03*
X69650Y-53400D03*
X70950Y-53400D03*
X65850Y-53400D03*
X67150Y-53400D03*
X62050Y-53400D03*
X63350Y-53400D03*
G54D17*
X37000Y-46600D03*
X82300Y-46600D03*
X70700Y-59500D03*
X49800Y-59500D03*
M02*
