M48
;DRILL file {Pcbnew (2012-01-19 BZR 3256)-stable} date mar. 15 mai 2012 18:11:06 CEST
;FORMAT={-:-/ absolute / inch / decimal}
FMAT,2
INCH,TZ
T1C0.025
T2C0.032
T3C0.040
T4C0.052
T5C0.120
%
G90
G05
M72
T1
X3.360Y5.340
X3.740Y5.340
X4.000Y5.030
X4.120Y5.340
X4.170Y5.660
X4.210Y4.820
X4.320Y4.780
X4.500Y5.340
X4.525Y4.960
X4.560Y4.550
X4.575Y4.925
X4.610Y4.880
X4.620Y4.550
X4.680Y4.550
X4.880Y5.340
X5.260Y5.340
X5.390Y5.790
X5.640Y5.340
X5.640Y5.600
X5.920Y4.890
X5.965Y4.855
X6.000Y4.815
X6.020Y5.340
X6.400Y5.340
X6.400Y5.700
X6.530Y5.600
X6.780Y5.340
X6.850Y5.700
X7.160Y5.340
X7.280Y5.020
X7.290Y4.790
X7.310Y5.700
X7.440Y4.790
X7.540Y5.340
X7.630Y4.940
X7.670Y4.550
X7.685Y4.940
X7.730Y4.550
X7.735Y4.940
X7.790Y4.550
X7.920Y5.340
X8.300Y5.340
X8.680Y5.340
X9.010Y5.530
T2
X3.070Y5.150
X3.070Y5.450
X3.170Y5.150
X3.170Y5.450
X3.270Y5.150
X3.270Y5.450
X3.450Y5.150
X3.450Y5.450
X3.550Y5.150
X3.550Y5.450
X3.650Y5.150
X3.650Y5.450
X3.830Y5.150
X3.830Y5.450
X3.930Y5.150
X3.930Y5.450
X4.030Y5.150
X4.030Y5.450
X4.210Y5.150
X4.210Y5.450
X4.310Y5.150
X4.310Y5.450
X4.410Y5.150
X4.410Y5.450
X4.590Y5.150
X4.590Y5.450
X4.690Y5.150
X4.690Y5.450
X4.790Y5.150
X4.790Y5.450
X4.970Y5.150
X4.970Y5.450
X5.070Y5.150
X5.070Y5.450
X5.170Y5.150
X5.170Y5.450
X5.350Y5.150
X5.350Y5.450
X5.450Y5.150
X5.450Y5.450
X5.550Y5.150
X5.550Y5.450
X5.730Y5.150
X5.730Y5.450
X5.830Y5.150
X5.830Y5.450
X5.930Y5.150
X5.930Y5.450
X6.110Y5.150
X6.110Y5.450
X6.210Y5.150
X6.210Y5.450
X6.310Y5.150
X6.310Y5.450
X6.490Y5.150
X6.490Y5.450
X6.590Y5.150
X6.590Y5.450
X6.690Y5.150
X6.690Y5.450
X6.870Y5.150
X6.870Y5.450
X6.970Y5.150
X6.970Y5.450
X7.070Y5.150
X7.070Y5.450
X7.250Y5.150
X7.250Y5.450
X7.350Y5.150
X7.350Y5.450
X7.450Y5.150
X7.450Y5.450
X7.630Y5.150
X7.630Y5.450
X7.730Y5.150
X7.730Y5.450
X7.830Y5.150
X7.830Y5.450
X8.010Y5.150
X8.010Y5.450
X8.110Y5.150
X8.110Y5.450
X8.210Y5.150
X8.210Y5.450
X8.390Y5.150
X8.390Y5.450
X8.490Y5.150
X8.490Y5.450
X8.590Y5.150
X8.590Y5.450
X8.770Y5.150
X8.770Y5.450
X8.870Y5.150
X8.870Y5.450
X8.970Y5.150
X8.970Y5.450
T3
X3.180Y4.650
X3.180Y4.750
X3.280Y4.650
X3.280Y4.750
X3.380Y4.650
X3.380Y4.750
X3.890Y4.580
X3.890Y4.680
X3.890Y4.780
X3.990Y4.580
X3.990Y4.680
X3.990Y4.780
X4.090Y4.580
X4.090Y4.680
X4.090Y4.780
X6.730Y4.580
X6.730Y4.680
X6.730Y4.780
X6.830Y4.580
X6.830Y4.680
X6.830Y4.780
X6.930Y4.580
X6.930Y4.680
X6.930Y4.780
X8.650Y4.650
X8.650Y4.750
X8.750Y4.650
X8.750Y4.750
X8.850Y4.650
X8.850Y4.750
T4
X3.261Y5.920
X3.458Y5.920
X3.841Y5.920
X4.038Y5.920
X4.421Y5.920
X4.618Y5.920
X5.291Y5.920
X5.488Y5.920
X5.911Y5.980
X6.108Y5.980
X6.521Y5.920
X6.718Y5.920
X7.421Y5.920
X7.618Y5.920
X8.001Y5.920
X8.198Y5.920
X8.581Y5.920
X8.778Y5.920
T5
X3.700Y4.660
X4.980Y5.950
X7.070Y5.950
X8.230Y4.660
T0
M30
