G04 (created by PCBNEW-RS274X (2012-01-19 BZR 3256)-stable) date mar. 15 mai 2012 18:10:56 CEST*
G01*
G70*
G90*
%MOIN*%
G04 Gerber Fmt 3.4, Leading zero omitted, Abs format*
%FSLAX34Y34*%
G04 APERTURE LIST*
%ADD10C,0.006000*%
%ADD11C,0.012000*%
%ADD12C,0.015000*%
%ADD13R,0.060000X0.060000*%
%ADD14C,0.060000*%
%ADD15R,0.062000X0.090000*%
%ADD16O,0.062000X0.090000*%
%ADD17O,0.078000X0.156000*%
%ADD18R,0.060000X0.080000*%
%ADD19C,0.160000*%
%ADD20C,0.035000*%
%ADD21C,0.015900*%
%ADD22C,0.008000*%
G04 APERTURE END LIST*
G54D10*
G54D11*
X62186Y-56962D02*
X62243Y-56924D01*
X62329Y-56924D01*
X62414Y-56962D01*
X62472Y-57038D01*
X62500Y-57114D01*
X62529Y-57267D01*
X62529Y-57381D01*
X62500Y-57533D01*
X62472Y-57610D01*
X62414Y-57686D01*
X62329Y-57724D01*
X62272Y-57724D01*
X62186Y-57686D01*
X62157Y-57648D01*
X62157Y-57381D01*
X62272Y-57381D01*
X61900Y-57724D02*
X61900Y-56924D01*
X61557Y-57724D01*
X61557Y-56924D01*
X61271Y-57724D02*
X61271Y-56924D01*
X61128Y-56924D01*
X61043Y-56962D01*
X60985Y-57038D01*
X60957Y-57114D01*
X60928Y-57267D01*
X60928Y-57381D01*
X60957Y-57533D01*
X60985Y-57610D01*
X61043Y-57686D01*
X61128Y-57724D01*
X61271Y-57724D01*
X60014Y-57305D02*
X59928Y-57343D01*
X59900Y-57381D01*
X59871Y-57457D01*
X59871Y-57571D01*
X59900Y-57648D01*
X59928Y-57686D01*
X59986Y-57724D01*
X60214Y-57724D01*
X60214Y-56924D01*
X60014Y-56924D01*
X59957Y-56962D01*
X59928Y-57000D01*
X59900Y-57076D01*
X59900Y-57152D01*
X59928Y-57229D01*
X59957Y-57267D01*
X60014Y-57305D01*
X60214Y-57305D01*
G54D12*
X90700Y-61700D02*
X90700Y-44800D01*
X29700Y-61700D02*
X90700Y-61700D01*
X29700Y-44800D02*
X29700Y-61700D01*
X90700Y-44800D02*
X29700Y-44800D01*
G54D13*
X67300Y-47800D03*
G54D14*
X68300Y-47800D03*
X69300Y-47800D03*
G54D13*
X67300Y-46800D03*
G54D14*
X68300Y-46800D03*
X69300Y-46800D03*
G54D13*
X67300Y-45800D03*
G54D14*
X68300Y-45800D03*
X69300Y-45800D03*
G54D15*
X61100Y-54500D03*
G54D16*
X62100Y-54500D03*
X63100Y-54500D03*
X63100Y-51500D03*
X62100Y-51500D03*
X61100Y-51500D03*
G54D15*
X64900Y-54500D03*
G54D16*
X65900Y-54500D03*
X66900Y-54500D03*
X66900Y-51500D03*
X65900Y-51500D03*
X64900Y-51500D03*
G54D15*
X68700Y-54500D03*
G54D16*
X69700Y-54500D03*
X70700Y-54500D03*
X70700Y-51500D03*
X69700Y-51500D03*
X68700Y-51500D03*
G54D15*
X72500Y-54500D03*
G54D16*
X73500Y-54500D03*
X74500Y-54500D03*
X74500Y-51500D03*
X73500Y-51500D03*
X72500Y-51500D03*
G54D15*
X76300Y-54500D03*
G54D16*
X77300Y-54500D03*
X78300Y-54500D03*
X78300Y-51500D03*
X77300Y-51500D03*
X76300Y-51500D03*
G54D15*
X80100Y-54500D03*
G54D16*
X81100Y-54500D03*
X82100Y-54500D03*
X82100Y-51500D03*
X81100Y-51500D03*
X80100Y-51500D03*
G54D15*
X83900Y-54500D03*
G54D16*
X84900Y-54500D03*
X85900Y-54500D03*
X85900Y-51500D03*
X84900Y-51500D03*
X83900Y-51500D03*
G54D15*
X87700Y-54500D03*
G54D16*
X88700Y-54500D03*
X89700Y-54500D03*
X89700Y-51500D03*
X88700Y-51500D03*
X87700Y-51500D03*
G54D15*
X30700Y-54500D03*
G54D16*
X31700Y-54500D03*
X32700Y-54500D03*
X32700Y-51500D03*
X31700Y-51500D03*
X30700Y-51500D03*
G54D15*
X34500Y-54500D03*
G54D16*
X35500Y-54500D03*
X36500Y-54500D03*
X36500Y-51500D03*
X35500Y-51500D03*
X34500Y-51500D03*
G54D15*
X38300Y-54500D03*
G54D16*
X39300Y-54500D03*
X40300Y-54500D03*
X40300Y-51500D03*
X39300Y-51500D03*
X38300Y-51500D03*
G54D15*
X42100Y-54500D03*
G54D16*
X43100Y-54500D03*
X44100Y-54500D03*
X44100Y-51500D03*
X43100Y-51500D03*
X42100Y-51500D03*
G54D15*
X45900Y-54500D03*
G54D16*
X46900Y-54500D03*
X47900Y-54500D03*
X47900Y-51500D03*
X46900Y-51500D03*
X45900Y-51500D03*
G54D15*
X49700Y-54500D03*
G54D16*
X50700Y-54500D03*
X51700Y-54500D03*
X51700Y-51500D03*
X50700Y-51500D03*
X49700Y-51500D03*
G54D15*
X53500Y-54500D03*
G54D16*
X54500Y-54500D03*
X55500Y-54500D03*
X55500Y-51500D03*
X54500Y-51500D03*
X53500Y-51500D03*
G54D15*
X57300Y-54500D03*
G54D16*
X58300Y-54500D03*
X59300Y-54500D03*
X59300Y-51500D03*
X58300Y-51500D03*
X57300Y-51500D03*
G54D17*
X52910Y-59200D03*
X54880Y-59200D03*
X44210Y-59200D03*
X46180Y-59200D03*
X38410Y-59200D03*
X40380Y-59200D03*
X32610Y-59200D03*
X34580Y-59200D03*
X85810Y-59200D03*
X87780Y-59200D03*
X80010Y-59200D03*
X81980Y-59200D03*
X74210Y-59200D03*
X76180Y-59200D03*
X65210Y-59200D03*
X67180Y-59200D03*
G54D13*
X31800Y-47500D03*
G54D14*
X31800Y-46500D03*
X32800Y-47500D03*
X32800Y-46500D03*
X33800Y-47500D03*
X33800Y-46500D03*
G54D13*
X88500Y-46500D03*
G54D14*
X88500Y-47500D03*
X87500Y-46500D03*
X87500Y-47500D03*
X86500Y-46500D03*
X86500Y-47500D03*
G54D17*
X59110Y-59800D03*
X61080Y-59800D03*
G54D13*
X38900Y-47800D03*
G54D14*
X39900Y-47800D03*
X40900Y-47800D03*
G54D13*
X38900Y-46800D03*
G54D14*
X39900Y-46800D03*
X40900Y-46800D03*
G54D13*
X38900Y-45800D03*
G54D14*
X39900Y-45800D03*
X40900Y-45800D03*
G54D18*
X58250Y-53400D03*
X59550Y-53400D03*
X54450Y-53400D03*
X55750Y-53400D03*
X50650Y-53400D03*
X51950Y-53400D03*
X46850Y-53400D03*
X48150Y-53400D03*
X43050Y-53400D03*
X44350Y-53400D03*
X39250Y-53400D03*
X40550Y-53400D03*
X35450Y-53400D03*
X36750Y-53400D03*
X31650Y-53400D03*
X32950Y-53400D03*
X88650Y-53400D03*
X89950Y-53400D03*
X84850Y-53400D03*
X86150Y-53400D03*
X81050Y-53400D03*
X82350Y-53400D03*
X77250Y-53400D03*
X78550Y-53400D03*
X73450Y-53400D03*
X74750Y-53400D03*
X69650Y-53400D03*
X70950Y-53400D03*
X65850Y-53400D03*
X67150Y-53400D03*
X62050Y-53400D03*
X63350Y-53400D03*
G54D19*
X37000Y-46600D03*
X82300Y-46600D03*
X70700Y-59500D03*
X49800Y-59500D03*
G54D20*
X72900Y-47900D03*
X72800Y-50200D03*
X40000Y-50300D03*
X42100Y-48200D03*
X59200Y-48900D03*
X45250Y-49600D03*
X76300Y-49400D03*
X73100Y-57000D03*
X64000Y-57000D03*
X41700Y-56600D03*
X45750Y-49250D03*
X59650Y-48550D03*
X76850Y-49400D03*
X60000Y-48150D03*
X77350Y-49400D03*
X46100Y-48800D03*
X43200Y-47800D03*
X74400Y-47900D03*
X45000Y-53400D03*
X60200Y-53400D03*
X33600Y-53400D03*
X71600Y-53400D03*
X90100Y-55300D03*
X83000Y-53400D03*
X41200Y-53400D03*
X79200Y-53400D03*
X75400Y-53400D03*
X67800Y-53400D03*
X64000Y-53400D03*
X86800Y-53400D03*
X37400Y-53400D03*
X48800Y-53400D03*
X56400Y-53400D03*
X52600Y-53400D03*
X68500Y-57000D03*
X65300Y-56000D03*
X46200Y-45500D03*
X77900Y-45500D03*
X76700Y-45500D03*
X56400Y-56000D03*
X53900Y-57900D03*
X77300Y-45500D03*
X45600Y-45500D03*
X46800Y-45500D03*
G54D21*
X72900Y-50100D02*
X72900Y-47900D01*
X72800Y-50200D02*
X72900Y-50100D01*
X40000Y-50300D02*
X40000Y-49700D01*
X40000Y-49700D02*
X40300Y-49400D01*
X40300Y-49400D02*
X41800Y-49400D01*
X41800Y-49400D02*
X42100Y-49100D01*
X42100Y-49100D02*
X42100Y-48200D01*
G54D22*
X58650Y-49600D02*
X59200Y-49050D01*
X59200Y-48900D02*
X59200Y-49050D01*
X58650Y-49600D02*
X45250Y-49600D01*
X76300Y-49400D02*
X76300Y-49200D01*
X86000Y-46500D02*
X86500Y-46500D01*
X85800Y-46700D02*
X86000Y-46500D01*
X85800Y-48000D02*
X85800Y-46700D01*
X85600Y-48200D02*
X85800Y-48000D01*
X77300Y-48200D02*
X85600Y-48200D01*
X76300Y-49200D02*
X77300Y-48200D01*
G54D21*
X57300Y-56780D02*
X54880Y-59200D01*
X57300Y-54500D02*
X57300Y-56780D01*
X53000Y-54500D02*
X50900Y-56600D01*
X52300Y-59200D02*
X52910Y-59200D01*
X50900Y-56600D02*
X50900Y-57800D01*
X50900Y-57800D02*
X52300Y-59200D01*
X53500Y-54500D02*
X53000Y-54500D01*
X81980Y-58780D02*
X80100Y-56900D01*
X80100Y-56900D02*
X80100Y-54500D01*
X81980Y-59200D02*
X81980Y-58780D01*
X77100Y-55500D02*
X76600Y-55500D01*
X80010Y-58410D02*
X77100Y-55500D01*
X76600Y-55500D02*
X76300Y-55200D01*
X76300Y-55200D02*
X76300Y-54500D01*
X80010Y-59200D02*
X80010Y-58410D01*
X76180Y-57880D02*
X74000Y-55700D01*
X73200Y-55700D02*
X72500Y-55000D01*
X76180Y-59200D02*
X76180Y-57880D01*
X72500Y-55000D02*
X72500Y-54500D01*
X74000Y-55700D02*
X73200Y-55700D01*
X74210Y-59200D02*
X74210Y-58310D01*
X73000Y-57600D02*
X70200Y-57600D01*
X73000Y-57100D02*
X73100Y-57000D01*
X74210Y-58310D02*
X73500Y-57600D01*
X68700Y-56100D02*
X68700Y-54500D01*
X70200Y-57600D02*
X68700Y-56100D01*
X73500Y-57600D02*
X73000Y-57600D01*
X73000Y-57600D02*
X73000Y-57100D01*
X67180Y-59200D02*
X67100Y-59200D01*
X67100Y-59200D02*
X64900Y-57000D01*
X64900Y-57000D02*
X64900Y-54500D01*
X62800Y-58200D02*
X64000Y-57000D01*
X62800Y-58200D02*
X61100Y-56500D01*
X63800Y-59200D02*
X62800Y-58200D01*
X65210Y-59200D02*
X63800Y-59200D01*
X61100Y-56500D02*
X61100Y-54500D01*
X46180Y-59200D02*
X46500Y-59200D01*
X49700Y-56000D02*
X49700Y-54500D01*
X46500Y-59200D02*
X49700Y-56000D01*
X45200Y-55200D02*
X45900Y-54500D01*
X44210Y-59190D02*
X45200Y-58200D01*
X45200Y-58200D02*
X45200Y-55200D01*
X44210Y-59200D02*
X44210Y-59190D01*
X41800Y-54500D02*
X41700Y-54600D01*
X41700Y-54600D02*
X41700Y-56600D01*
X42100Y-54500D02*
X41800Y-54500D01*
X37300Y-55300D02*
X37300Y-58090D01*
X38300Y-54500D02*
X38100Y-54500D01*
X37300Y-58090D02*
X38410Y-59200D01*
X38100Y-54500D02*
X37300Y-55300D01*
X34500Y-54500D02*
X34500Y-54700D01*
X33700Y-55500D02*
X33700Y-58320D01*
X33700Y-58320D02*
X34580Y-59200D01*
X34500Y-54700D02*
X33700Y-55500D01*
X30700Y-54500D02*
X30700Y-57290D01*
X30700Y-57290D02*
X32610Y-59200D01*
X87780Y-54580D02*
X87700Y-54500D01*
X87780Y-59200D02*
X87780Y-54580D01*
X85810Y-59200D02*
X85810Y-58510D01*
X83900Y-57400D02*
X83900Y-54500D01*
X85500Y-58200D02*
X84700Y-58200D01*
X84700Y-58200D02*
X83900Y-57400D01*
X85810Y-58510D02*
X85500Y-58200D01*
G54D22*
X59100Y-48550D02*
X59650Y-48550D01*
X58400Y-49250D02*
X45750Y-49250D01*
X58400Y-49250D02*
X59100Y-48550D01*
X76850Y-49400D02*
X76850Y-49050D01*
X87000Y-47000D02*
X87500Y-46500D01*
X87000Y-48200D02*
X87000Y-47000D01*
X86800Y-48400D02*
X87000Y-48200D01*
X77500Y-48400D02*
X86800Y-48400D01*
X76850Y-49050D02*
X77500Y-48400D01*
X77350Y-49400D02*
X77350Y-48950D01*
X87500Y-48400D02*
X87500Y-47500D01*
X87300Y-48600D02*
X87500Y-48400D01*
X77700Y-48600D02*
X87300Y-48600D01*
X77350Y-48950D02*
X77700Y-48600D01*
X60000Y-48150D02*
X58900Y-48150D01*
X58200Y-48850D02*
X46150Y-48850D01*
X46150Y-48850D02*
X46100Y-48800D01*
X58900Y-48150D02*
X58200Y-48850D01*
X77350Y-49400D02*
X77400Y-49400D01*
G54D21*
X44100Y-48700D02*
X44100Y-51500D01*
X30600Y-52700D02*
X30200Y-52300D01*
X82100Y-52700D02*
X85900Y-52700D01*
X78300Y-51500D02*
X78300Y-52700D01*
X38900Y-46800D02*
X38900Y-47800D01*
X37600Y-52700D02*
X40300Y-52700D01*
X44100Y-52700D02*
X47900Y-52700D01*
X74500Y-52700D02*
X78300Y-52700D01*
X63100Y-52700D02*
X63100Y-51500D01*
X63100Y-52700D02*
X66900Y-52700D01*
X78300Y-52700D02*
X82100Y-52700D01*
X59300Y-52700D02*
X63100Y-52700D01*
X40300Y-51500D02*
X40300Y-52700D01*
X36500Y-51500D02*
X36300Y-51300D01*
X38400Y-49000D02*
X38900Y-48500D01*
X74400Y-47900D02*
X74500Y-48000D01*
X40300Y-52700D02*
X44100Y-52700D01*
X36500Y-52700D02*
X36700Y-52700D01*
X67300Y-47800D02*
X66900Y-48200D01*
X59300Y-52700D02*
X59300Y-51500D01*
X66900Y-48200D02*
X66900Y-51500D01*
X47900Y-52700D02*
X51700Y-52700D01*
X85900Y-52700D02*
X89300Y-52700D01*
X89700Y-48000D02*
X89200Y-47500D01*
X30200Y-47200D02*
X30900Y-46500D01*
X47900Y-51500D02*
X47900Y-52700D01*
X74500Y-48000D02*
X74500Y-51500D01*
X30900Y-46500D02*
X31800Y-46500D01*
X32900Y-52700D02*
X36500Y-52700D01*
X32700Y-52700D02*
X30600Y-52700D01*
X55500Y-51500D02*
X55500Y-52700D01*
X70700Y-52700D02*
X70700Y-51500D01*
X66900Y-52700D02*
X70700Y-52700D01*
X36500Y-51500D02*
X36500Y-52700D01*
X70700Y-52700D02*
X74500Y-52700D01*
X36900Y-49000D02*
X38100Y-49000D01*
X85900Y-51500D02*
X85900Y-52700D01*
X38900Y-48500D02*
X38900Y-47800D01*
X66900Y-52700D02*
X66900Y-51500D01*
X51700Y-52700D02*
X55500Y-52700D01*
X51700Y-51500D02*
X51700Y-52700D01*
X67300Y-45800D02*
X67300Y-46800D01*
X36900Y-49000D02*
X36300Y-49600D01*
X32700Y-51500D02*
X32700Y-52700D01*
X89200Y-47500D02*
X88500Y-47500D01*
X89300Y-52700D02*
X89700Y-52300D01*
X32700Y-52700D02*
X32900Y-52700D01*
X44100Y-51500D02*
X44100Y-52700D01*
X43200Y-47800D02*
X44100Y-48700D01*
X89700Y-52300D02*
X89700Y-51500D01*
X82100Y-52700D02*
X82100Y-51500D01*
X36300Y-49600D02*
X36300Y-51300D01*
X38400Y-49000D02*
X38100Y-49000D01*
X36700Y-52700D02*
X37600Y-52700D01*
X30200Y-52300D02*
X30200Y-47200D01*
X89700Y-51500D02*
X89700Y-48000D01*
X38900Y-45800D02*
X38900Y-46800D01*
X55500Y-52700D02*
X59300Y-52700D01*
X74500Y-51500D02*
X74500Y-52700D01*
X67300Y-46800D02*
X67300Y-47800D01*
X45000Y-53400D02*
X44350Y-53400D01*
X32950Y-53400D02*
X33600Y-53400D01*
X59550Y-53400D02*
X60200Y-53400D01*
X86150Y-53400D02*
X86800Y-53400D01*
X90300Y-55100D02*
X90100Y-55300D01*
X90300Y-53600D02*
X90300Y-55100D01*
X90100Y-53400D02*
X90300Y-53600D01*
X74750Y-53400D02*
X75400Y-53400D01*
X70950Y-53400D02*
X71600Y-53400D01*
X67800Y-53400D02*
X67150Y-53400D01*
X82350Y-53400D02*
X83000Y-53400D01*
X64000Y-53400D02*
X63350Y-53400D01*
X78550Y-53400D02*
X79200Y-53400D01*
X40550Y-53400D02*
X41200Y-53400D01*
X36750Y-53400D02*
X37400Y-53400D01*
X89950Y-53400D02*
X90100Y-53400D01*
X55750Y-53400D02*
X56400Y-53400D01*
X48150Y-53400D02*
X48800Y-53400D01*
X51950Y-53400D02*
X52600Y-53400D01*
G54D22*
X77250Y-53400D02*
X77250Y-54450D01*
X77250Y-54450D02*
X77300Y-54500D01*
X88700Y-54500D02*
X88700Y-53450D01*
X88700Y-53450D02*
X88650Y-53400D01*
X65900Y-54500D02*
X65900Y-53450D01*
X65900Y-53450D02*
X65850Y-53400D01*
X65300Y-57000D02*
X66000Y-57700D01*
X65300Y-56000D02*
X65300Y-57000D01*
X67800Y-57700D02*
X68500Y-57000D01*
X66000Y-57700D02*
X67800Y-57700D01*
X40400Y-46300D02*
X45400Y-46300D01*
X39900Y-46800D02*
X40400Y-46300D01*
X46200Y-45500D02*
X45400Y-46300D01*
X77900Y-45500D02*
X76100Y-47300D01*
X68800Y-47300D02*
X68300Y-47800D01*
X76100Y-47300D02*
X68800Y-47300D01*
X76700Y-45500D02*
X76500Y-45300D01*
X68800Y-45300D02*
X68300Y-45800D01*
X76500Y-45300D02*
X68800Y-45300D01*
X56400Y-57000D02*
X56400Y-56000D01*
X54000Y-57800D02*
X55600Y-57800D01*
X55600Y-57800D02*
X56400Y-57000D01*
X53900Y-57900D02*
X54000Y-57800D01*
X69700Y-53450D02*
X69650Y-53400D01*
X69700Y-54500D02*
X69700Y-53450D01*
X31700Y-54500D02*
X31700Y-53450D01*
X31700Y-53450D02*
X31650Y-53400D01*
X43100Y-54500D02*
X43100Y-53450D01*
X43100Y-53450D02*
X43050Y-53400D01*
X73500Y-54500D02*
X73500Y-53450D01*
X73500Y-53450D02*
X73450Y-53400D01*
X35500Y-54500D02*
X35500Y-53450D01*
X35500Y-53450D02*
X35450Y-53400D01*
X39300Y-54500D02*
X39300Y-53450D01*
X39300Y-53450D02*
X39250Y-53400D01*
X84900Y-54500D02*
X84900Y-53450D01*
X84900Y-53450D02*
X84850Y-53400D01*
X62100Y-53450D02*
X62050Y-53400D01*
X62100Y-54500D02*
X62100Y-53450D01*
X81100Y-54500D02*
X81100Y-53450D01*
X81100Y-53450D02*
X81050Y-53400D01*
X50700Y-54500D02*
X50700Y-53450D01*
X50700Y-53450D02*
X50650Y-53400D01*
X54500Y-54500D02*
X54500Y-53450D01*
X54500Y-53450D02*
X54450Y-53400D01*
X68800Y-46300D02*
X68300Y-46800D01*
X69000Y-46300D02*
X68800Y-46300D01*
X76800Y-46000D02*
X76600Y-46200D01*
X76600Y-46200D02*
X76500Y-46300D01*
X76500Y-46300D02*
X69000Y-46300D01*
X77300Y-45500D02*
X76800Y-46000D01*
X40400Y-45300D02*
X45300Y-45300D01*
X45500Y-45500D02*
X45300Y-45300D01*
X39900Y-45800D02*
X40400Y-45300D01*
X45600Y-45500D02*
X45500Y-45500D01*
X39900Y-47800D02*
X40400Y-47300D01*
X46800Y-45500D02*
X45000Y-47300D01*
X45000Y-47300D02*
X40400Y-47300D01*
X46900Y-54500D02*
X46900Y-53450D01*
X46900Y-53450D02*
X46850Y-53400D01*
X58300Y-54500D02*
X58300Y-53450D01*
X58300Y-53450D02*
X58250Y-53400D01*
M02*
