G04 (created by PCBNEW-RS274X (2012-01-19 BZR 3256)-stable) date mar. 15 mai 2012 18:10:56 CEST*
G01*
G70*
G90*
%MOIN*%
G04 Gerber Fmt 3.4, Leading zero omitted, Abs format*
%FSLAX34Y34*%
G04 APERTURE LIST*
%ADD10C,0.006000*%
%ADD11C,0.012000*%
%ADD12C,0.015000*%
%ADD13C,0.005000*%
%ADD14C,0.010000*%
G04 APERTURE END LIST*
G54D10*
G54D11*
X48841Y-56724D02*
X49041Y-56343D01*
X49184Y-56724D02*
X49184Y-55924D01*
X48956Y-55924D01*
X48898Y-55962D01*
X48870Y-56000D01*
X48841Y-56076D01*
X48841Y-56190D01*
X48870Y-56267D01*
X48898Y-56305D01*
X48956Y-56343D01*
X49184Y-56343D01*
X48356Y-56686D02*
X48413Y-56724D01*
X48527Y-56724D01*
X48584Y-56686D01*
X48613Y-56610D01*
X48613Y-56305D01*
X48584Y-56229D01*
X48527Y-56190D01*
X48413Y-56190D01*
X48356Y-56229D01*
X48327Y-56305D01*
X48327Y-56381D01*
X48613Y-56457D01*
X48127Y-56190D02*
X47984Y-56724D01*
X47842Y-56190D01*
X47613Y-56724D02*
X47613Y-56190D01*
X47613Y-55924D02*
X47642Y-55962D01*
X47613Y-56000D01*
X47585Y-55962D01*
X47613Y-55924D01*
X47613Y-56000D01*
X47356Y-56686D02*
X47299Y-56724D01*
X47184Y-56724D01*
X47127Y-56686D01*
X47099Y-56610D01*
X47099Y-56571D01*
X47127Y-56495D01*
X47184Y-56457D01*
X47270Y-56457D01*
X47327Y-56419D01*
X47356Y-56343D01*
X47356Y-56305D01*
X47327Y-56229D01*
X47270Y-56190D01*
X47184Y-56190D01*
X47127Y-56229D01*
X46841Y-56724D02*
X46841Y-56190D01*
X46841Y-55924D02*
X46870Y-55962D01*
X46841Y-56000D01*
X46813Y-55962D01*
X46841Y-55924D01*
X46841Y-56000D01*
X46469Y-56724D02*
X46527Y-56686D01*
X46555Y-56648D01*
X46584Y-56571D01*
X46584Y-56343D01*
X46555Y-56267D01*
X46527Y-56229D01*
X46469Y-56190D01*
X46384Y-56190D01*
X46327Y-56229D01*
X46298Y-56267D01*
X46269Y-56343D01*
X46269Y-56571D01*
X46298Y-56648D01*
X46327Y-56686D01*
X46384Y-56724D01*
X46469Y-56724D01*
X46012Y-56190D02*
X46012Y-56724D01*
X46012Y-56267D02*
X45984Y-56229D01*
X45926Y-56190D01*
X45841Y-56190D01*
X45784Y-56229D01*
X45755Y-56305D01*
X45755Y-56724D01*
X44898Y-55924D02*
X44841Y-55924D01*
X44784Y-55962D01*
X44755Y-56000D01*
X44726Y-56076D01*
X44698Y-56229D01*
X44698Y-56419D01*
X44726Y-56571D01*
X44755Y-56648D01*
X44784Y-56686D01*
X44841Y-56724D01*
X44898Y-56724D01*
X44955Y-56686D01*
X44984Y-56648D01*
X45012Y-56571D01*
X45041Y-56419D01*
X45041Y-56229D01*
X45012Y-56076D01*
X44984Y-56000D01*
X44955Y-55962D01*
X44898Y-55924D01*
X43984Y-56419D02*
X43527Y-56419D01*
X42784Y-56724D02*
X42784Y-55924D01*
X42641Y-55924D01*
X42556Y-55962D01*
X42498Y-56038D01*
X42470Y-56114D01*
X42441Y-56267D01*
X42441Y-56381D01*
X42470Y-56533D01*
X42498Y-56610D01*
X42556Y-56686D01*
X42641Y-56724D01*
X42784Y-56724D01*
X41898Y-55924D02*
X42184Y-55924D01*
X42213Y-56305D01*
X42184Y-56267D01*
X42127Y-56229D01*
X41984Y-56229D01*
X41927Y-56267D01*
X41898Y-56305D01*
X41870Y-56381D01*
X41870Y-56571D01*
X41898Y-56648D01*
X41927Y-56686D01*
X41984Y-56724D01*
X42127Y-56724D01*
X42184Y-56686D01*
X42213Y-56648D01*
X41299Y-56724D02*
X41642Y-56724D01*
X41470Y-56724D02*
X41470Y-55924D01*
X41527Y-56038D01*
X41585Y-56114D01*
X41642Y-56152D01*
X40928Y-55924D02*
X40871Y-55924D01*
X40814Y-55962D01*
X40785Y-56000D01*
X40756Y-56076D01*
X40728Y-56229D01*
X40728Y-56419D01*
X40756Y-56571D01*
X40785Y-56648D01*
X40814Y-56686D01*
X40871Y-56724D01*
X40928Y-56724D01*
X40985Y-56686D01*
X41014Y-56648D01*
X41042Y-56571D01*
X41071Y-56419D01*
X41071Y-56229D01*
X41042Y-56076D01*
X41014Y-56000D01*
X40985Y-55962D01*
X40928Y-55924D01*
X40185Y-55924D02*
X40471Y-55924D01*
X40500Y-56305D01*
X40471Y-56267D01*
X40414Y-56229D01*
X40271Y-56229D01*
X40214Y-56267D01*
X40185Y-56305D01*
X40157Y-56381D01*
X40157Y-56571D01*
X40185Y-56648D01*
X40214Y-56686D01*
X40271Y-56724D01*
X40414Y-56724D01*
X40471Y-56686D01*
X40500Y-56648D01*
X39586Y-56724D02*
X39929Y-56724D01*
X39757Y-56724D02*
X39757Y-55924D01*
X39814Y-56038D01*
X39872Y-56114D01*
X39929Y-56152D01*
X54370Y-48624D02*
X54370Y-48090D01*
X54370Y-48243D02*
X54342Y-48167D01*
X54313Y-48129D01*
X54256Y-48090D01*
X54199Y-48090D01*
X53771Y-48586D02*
X53828Y-48624D01*
X53942Y-48624D01*
X53999Y-48586D01*
X54028Y-48510D01*
X54028Y-48205D01*
X53999Y-48129D01*
X53942Y-48090D01*
X53828Y-48090D01*
X53771Y-48129D01*
X53742Y-48205D01*
X53742Y-48281D01*
X54028Y-48357D01*
X53571Y-48090D02*
X53342Y-48090D01*
X53485Y-48624D02*
X53485Y-47938D01*
X53457Y-47862D01*
X53399Y-47824D01*
X53342Y-47824D01*
X53142Y-48548D02*
X53114Y-48586D01*
X53142Y-48624D01*
X53171Y-48586D01*
X53142Y-48548D01*
X53142Y-48624D01*
X53142Y-48129D02*
X53114Y-48167D01*
X53142Y-48205D01*
X53171Y-48167D01*
X53142Y-48129D01*
X53142Y-48205D01*
X52313Y-48624D02*
X52371Y-48586D01*
X52399Y-48510D01*
X52399Y-47824D01*
X52085Y-48624D02*
X52085Y-48090D01*
X52085Y-47824D02*
X52114Y-47862D01*
X52085Y-47900D01*
X52057Y-47862D01*
X52085Y-47824D01*
X52085Y-47900D01*
X51799Y-48090D02*
X51799Y-48624D01*
X51799Y-48167D02*
X51771Y-48129D01*
X51713Y-48090D01*
X51628Y-48090D01*
X51571Y-48129D01*
X51542Y-48205D01*
X51542Y-48624D01*
X50942Y-48624D02*
X51285Y-48624D01*
X51113Y-48624D02*
X51113Y-47824D01*
X51170Y-47938D01*
X51228Y-48014D01*
X51285Y-48052D01*
X50428Y-47824D02*
X50542Y-47824D01*
X50599Y-47862D01*
X50628Y-47900D01*
X50685Y-48014D01*
X50714Y-48167D01*
X50714Y-48471D01*
X50685Y-48548D01*
X50657Y-48586D01*
X50599Y-48624D01*
X50485Y-48624D01*
X50428Y-48586D01*
X50399Y-48548D01*
X50371Y-48471D01*
X50371Y-48281D01*
X50399Y-48205D01*
X50428Y-48167D01*
X50485Y-48129D01*
X50599Y-48129D01*
X50657Y-48167D01*
X50685Y-48205D01*
X50714Y-48281D01*
X50114Y-48624D02*
X50114Y-48090D01*
X50114Y-47824D02*
X50143Y-47862D01*
X50114Y-47900D01*
X50086Y-47862D01*
X50114Y-47824D01*
X50114Y-47900D01*
X49857Y-47900D02*
X49828Y-47862D01*
X49771Y-47824D01*
X49628Y-47824D01*
X49571Y-47862D01*
X49542Y-47900D01*
X49514Y-47976D01*
X49514Y-48052D01*
X49542Y-48167D01*
X49885Y-48624D01*
X49514Y-48624D01*
X49000Y-48586D02*
X49057Y-48624D01*
X49171Y-48624D01*
X49229Y-48586D01*
X49257Y-48548D01*
X49286Y-48471D01*
X49286Y-48243D01*
X49257Y-48167D01*
X49229Y-48129D01*
X49171Y-48090D01*
X49057Y-48090D01*
X49000Y-48129D01*
X61642Y-50524D02*
X61928Y-50524D01*
X61928Y-49724D01*
X61356Y-50524D02*
X61414Y-50486D01*
X61442Y-50448D01*
X61471Y-50371D01*
X61471Y-50143D01*
X61442Y-50067D01*
X61414Y-50029D01*
X61356Y-49990D01*
X61271Y-49990D01*
X61214Y-50029D01*
X61185Y-50067D01*
X61156Y-50143D01*
X61156Y-50371D01*
X61185Y-50448D01*
X61214Y-50486D01*
X61271Y-50524D01*
X61356Y-50524D01*
X60899Y-49990D02*
X60899Y-50524D01*
X60899Y-50067D02*
X60871Y-50029D01*
X60813Y-49990D01*
X60728Y-49990D01*
X60671Y-50029D01*
X60642Y-50105D01*
X60642Y-50524D01*
X60099Y-49990D02*
X60099Y-50638D01*
X60128Y-50714D01*
X60156Y-50752D01*
X60213Y-50790D01*
X60299Y-50790D01*
X60356Y-50752D01*
X60099Y-50486D02*
X60156Y-50524D01*
X60270Y-50524D01*
X60328Y-50486D01*
X60356Y-50448D01*
X60385Y-50371D01*
X60385Y-50143D01*
X60356Y-50067D01*
X60328Y-50029D01*
X60270Y-49990D01*
X60156Y-49990D01*
X60099Y-50029D01*
X59042Y-50524D02*
X59385Y-50524D01*
X59213Y-50524D02*
X59213Y-49724D01*
X59270Y-49838D01*
X59328Y-49914D01*
X59385Y-49952D01*
X58528Y-49724D02*
X58642Y-49724D01*
X58699Y-49762D01*
X58728Y-49800D01*
X58785Y-49914D01*
X58814Y-50067D01*
X58814Y-50371D01*
X58785Y-50448D01*
X58757Y-50486D01*
X58699Y-50524D01*
X58585Y-50524D01*
X58528Y-50486D01*
X58499Y-50448D01*
X58471Y-50371D01*
X58471Y-50181D01*
X58499Y-50105D01*
X58528Y-50067D01*
X58585Y-50029D01*
X58699Y-50029D01*
X58757Y-50067D01*
X58785Y-50105D01*
X58814Y-50181D01*
X57500Y-50524D02*
X57500Y-49724D01*
X57500Y-50486D02*
X57557Y-50524D01*
X57671Y-50524D01*
X57729Y-50486D01*
X57757Y-50448D01*
X57786Y-50371D01*
X57786Y-50143D01*
X57757Y-50067D01*
X57729Y-50029D01*
X57671Y-49990D01*
X57557Y-49990D01*
X57500Y-50029D01*
X57214Y-50524D02*
X57214Y-49990D01*
X57214Y-49724D02*
X57243Y-49762D01*
X57214Y-49800D01*
X57186Y-49762D01*
X57214Y-49724D01*
X57214Y-49800D01*
X56671Y-49990D02*
X56671Y-50638D01*
X56700Y-50714D01*
X56728Y-50752D01*
X56785Y-50790D01*
X56871Y-50790D01*
X56928Y-50752D01*
X56671Y-50486D02*
X56728Y-50524D01*
X56842Y-50524D01*
X56900Y-50486D01*
X56928Y-50448D01*
X56957Y-50371D01*
X56957Y-50143D01*
X56928Y-50067D01*
X56900Y-50029D01*
X56842Y-49990D01*
X56728Y-49990D01*
X56671Y-50029D01*
X56385Y-50524D02*
X56385Y-49990D01*
X56385Y-49724D02*
X56414Y-49762D01*
X56385Y-49800D01*
X56357Y-49762D01*
X56385Y-49724D01*
X56385Y-49800D01*
X56185Y-49990D02*
X55956Y-49990D01*
X56099Y-49724D02*
X56099Y-50410D01*
X56071Y-50486D01*
X56013Y-50524D01*
X55956Y-50524D01*
X55499Y-50524D02*
X55499Y-50105D01*
X55528Y-50029D01*
X55585Y-49990D01*
X55699Y-49990D01*
X55756Y-50029D01*
X55499Y-50486D02*
X55556Y-50524D01*
X55699Y-50524D01*
X55756Y-50486D01*
X55785Y-50410D01*
X55785Y-50333D01*
X55756Y-50257D01*
X55699Y-50219D01*
X55556Y-50219D01*
X55499Y-50181D01*
X55127Y-50524D02*
X55185Y-50486D01*
X55213Y-50410D01*
X55213Y-49724D01*
X54928Y-50486D02*
X54871Y-50524D01*
X54756Y-50524D01*
X54699Y-50486D01*
X54671Y-50410D01*
X54671Y-50371D01*
X54699Y-50295D01*
X54756Y-50257D01*
X54842Y-50257D01*
X54899Y-50219D01*
X54928Y-50143D01*
X54928Y-50105D01*
X54899Y-50029D01*
X54842Y-49990D01*
X54756Y-49990D01*
X54699Y-50029D01*
X53956Y-50524D02*
X53956Y-49990D01*
X53956Y-49724D02*
X53985Y-49762D01*
X53956Y-49800D01*
X53928Y-49762D01*
X53956Y-49724D01*
X53956Y-49800D01*
X53670Y-49990D02*
X53670Y-50524D01*
X53670Y-50067D02*
X53642Y-50029D01*
X53584Y-49990D01*
X53499Y-49990D01*
X53442Y-50029D01*
X53413Y-50105D01*
X53413Y-50524D01*
X53127Y-49990D02*
X53127Y-50790D01*
X53127Y-50029D02*
X53070Y-49990D01*
X52956Y-49990D01*
X52899Y-50029D01*
X52870Y-50067D01*
X52841Y-50143D01*
X52841Y-50371D01*
X52870Y-50448D01*
X52899Y-50486D01*
X52956Y-50524D01*
X53070Y-50524D01*
X53127Y-50486D01*
X52327Y-49990D02*
X52327Y-50524D01*
X52584Y-49990D02*
X52584Y-50410D01*
X52556Y-50486D01*
X52498Y-50524D01*
X52413Y-50524D01*
X52356Y-50486D01*
X52327Y-50448D01*
X52127Y-49990D02*
X51898Y-49990D01*
X52041Y-49724D02*
X52041Y-50410D01*
X52013Y-50486D01*
X51955Y-50524D01*
X51898Y-50524D01*
X51727Y-50486D02*
X51670Y-50524D01*
X51555Y-50524D01*
X51498Y-50486D01*
X51470Y-50410D01*
X51470Y-50371D01*
X51498Y-50295D01*
X51555Y-50257D01*
X51641Y-50257D01*
X51698Y-50219D01*
X51727Y-50143D01*
X51727Y-50105D01*
X51698Y-50029D01*
X51641Y-49990D01*
X51555Y-49990D01*
X51498Y-50029D01*
X50755Y-50524D02*
X50755Y-49724D01*
X50498Y-49800D02*
X50469Y-49762D01*
X50412Y-49724D01*
X50269Y-49724D01*
X50212Y-49762D01*
X50183Y-49800D01*
X50155Y-49876D01*
X50155Y-49952D01*
X50183Y-50067D01*
X50526Y-50524D01*
X50155Y-50524D01*
X49555Y-50448D02*
X49584Y-50486D01*
X49670Y-50524D01*
X49727Y-50524D01*
X49812Y-50486D01*
X49870Y-50410D01*
X49898Y-50333D01*
X49927Y-50181D01*
X49927Y-50067D01*
X49898Y-49914D01*
X49870Y-49838D01*
X49812Y-49762D01*
X49727Y-49724D01*
X49670Y-49724D01*
X49584Y-49762D01*
X49555Y-49800D01*
X48841Y-50524D02*
X48841Y-49724D01*
X48841Y-50029D02*
X48784Y-49990D01*
X48670Y-49990D01*
X48613Y-50029D01*
X48584Y-50067D01*
X48555Y-50143D01*
X48555Y-50371D01*
X48584Y-50448D01*
X48613Y-50486D01*
X48670Y-50524D01*
X48784Y-50524D01*
X48841Y-50486D01*
X48212Y-50524D02*
X48270Y-50486D01*
X48298Y-50448D01*
X48327Y-50371D01*
X48327Y-50143D01*
X48298Y-50067D01*
X48270Y-50029D01*
X48212Y-49990D01*
X48127Y-49990D01*
X48070Y-50029D01*
X48041Y-50067D01*
X48012Y-50143D01*
X48012Y-50371D01*
X48041Y-50448D01*
X48070Y-50486D01*
X48127Y-50524D01*
X48212Y-50524D01*
X47498Y-50524D02*
X47498Y-50105D01*
X47527Y-50029D01*
X47584Y-49990D01*
X47698Y-49990D01*
X47755Y-50029D01*
X47498Y-50486D02*
X47555Y-50524D01*
X47698Y-50524D01*
X47755Y-50486D01*
X47784Y-50410D01*
X47784Y-50333D01*
X47755Y-50257D01*
X47698Y-50219D01*
X47555Y-50219D01*
X47498Y-50181D01*
X47212Y-50524D02*
X47212Y-49990D01*
X47212Y-50143D02*
X47184Y-50067D01*
X47155Y-50029D01*
X47098Y-49990D01*
X47041Y-49990D01*
X46584Y-50524D02*
X46584Y-49724D01*
X46584Y-50486D02*
X46641Y-50524D01*
X46755Y-50524D01*
X46813Y-50486D01*
X46841Y-50448D01*
X46870Y-50371D01*
X46870Y-50143D01*
X46841Y-50067D01*
X46813Y-50029D01*
X46755Y-49990D01*
X46641Y-49990D01*
X46584Y-50029D01*
X45841Y-50219D02*
X45384Y-50219D01*
X44327Y-50524D02*
X44670Y-50524D01*
X44498Y-50524D02*
X44498Y-49724D01*
X44555Y-49838D01*
X44613Y-49914D01*
X44670Y-49952D01*
X44099Y-49800D02*
X44070Y-49762D01*
X44013Y-49724D01*
X43870Y-49724D01*
X43813Y-49762D01*
X43784Y-49800D01*
X43756Y-49876D01*
X43756Y-49952D01*
X43784Y-50067D01*
X44127Y-50524D01*
X43756Y-50524D01*
X43585Y-49724D02*
X43385Y-50524D01*
X43185Y-49724D01*
G54D12*
X90700Y-61700D02*
X90700Y-44800D01*
X29700Y-61700D02*
X90700Y-61700D01*
X29700Y-44800D02*
X29700Y-61700D01*
X90700Y-44800D02*
X29700Y-44800D01*
G54D13*
X57900Y-53850D02*
X57900Y-52950D01*
X57900Y-52950D02*
X58550Y-52950D01*
X59250Y-53850D02*
X59900Y-53850D01*
X59900Y-53850D02*
X59900Y-52950D01*
X59900Y-52950D02*
X59250Y-52950D01*
X58550Y-53850D02*
X57900Y-53850D01*
X54100Y-53850D02*
X54100Y-52950D01*
X54100Y-52950D02*
X54750Y-52950D01*
X55450Y-53850D02*
X56100Y-53850D01*
X56100Y-53850D02*
X56100Y-52950D01*
X56100Y-52950D02*
X55450Y-52950D01*
X54750Y-53850D02*
X54100Y-53850D01*
X50300Y-53850D02*
X50300Y-52950D01*
X50300Y-52950D02*
X50950Y-52950D01*
X51650Y-53850D02*
X52300Y-53850D01*
X52300Y-53850D02*
X52300Y-52950D01*
X52300Y-52950D02*
X51650Y-52950D01*
X50950Y-53850D02*
X50300Y-53850D01*
X46500Y-53850D02*
X46500Y-52950D01*
X46500Y-52950D02*
X47150Y-52950D01*
X47850Y-53850D02*
X48500Y-53850D01*
X48500Y-53850D02*
X48500Y-52950D01*
X48500Y-52950D02*
X47850Y-52950D01*
X47150Y-53850D02*
X46500Y-53850D01*
X42700Y-53850D02*
X42700Y-52950D01*
X42700Y-52950D02*
X43350Y-52950D01*
X44050Y-53850D02*
X44700Y-53850D01*
X44700Y-53850D02*
X44700Y-52950D01*
X44700Y-52950D02*
X44050Y-52950D01*
X43350Y-53850D02*
X42700Y-53850D01*
X38900Y-53850D02*
X38900Y-52950D01*
X38900Y-52950D02*
X39550Y-52950D01*
X40250Y-53850D02*
X40900Y-53850D01*
X40900Y-53850D02*
X40900Y-52950D01*
X40900Y-52950D02*
X40250Y-52950D01*
X39550Y-53850D02*
X38900Y-53850D01*
X35100Y-53850D02*
X35100Y-52950D01*
X35100Y-52950D02*
X35750Y-52950D01*
X36450Y-53850D02*
X37100Y-53850D01*
X37100Y-53850D02*
X37100Y-52950D01*
X37100Y-52950D02*
X36450Y-52950D01*
X35750Y-53850D02*
X35100Y-53850D01*
X31300Y-53850D02*
X31300Y-52950D01*
X31300Y-52950D02*
X31950Y-52950D01*
X32650Y-53850D02*
X33300Y-53850D01*
X33300Y-53850D02*
X33300Y-52950D01*
X33300Y-52950D02*
X32650Y-52950D01*
X31950Y-53850D02*
X31300Y-53850D01*
X88300Y-53850D02*
X88300Y-52950D01*
X88300Y-52950D02*
X88950Y-52950D01*
X89650Y-53850D02*
X90300Y-53850D01*
X90300Y-53850D02*
X90300Y-52950D01*
X90300Y-52950D02*
X89650Y-52950D01*
X88950Y-53850D02*
X88300Y-53850D01*
X84500Y-53850D02*
X84500Y-52950D01*
X84500Y-52950D02*
X85150Y-52950D01*
X85850Y-53850D02*
X86500Y-53850D01*
X86500Y-53850D02*
X86500Y-52950D01*
X86500Y-52950D02*
X85850Y-52950D01*
X85150Y-53850D02*
X84500Y-53850D01*
X80700Y-53850D02*
X80700Y-52950D01*
X80700Y-52950D02*
X81350Y-52950D01*
X82050Y-53850D02*
X82700Y-53850D01*
X82700Y-53850D02*
X82700Y-52950D01*
X82700Y-52950D02*
X82050Y-52950D01*
X81350Y-53850D02*
X80700Y-53850D01*
X76900Y-53850D02*
X76900Y-52950D01*
X76900Y-52950D02*
X77550Y-52950D01*
X78250Y-53850D02*
X78900Y-53850D01*
X78900Y-53850D02*
X78900Y-52950D01*
X78900Y-52950D02*
X78250Y-52950D01*
X77550Y-53850D02*
X76900Y-53850D01*
X73100Y-53850D02*
X73100Y-52950D01*
X73100Y-52950D02*
X73750Y-52950D01*
X74450Y-53850D02*
X75100Y-53850D01*
X75100Y-53850D02*
X75100Y-52950D01*
X75100Y-52950D02*
X74450Y-52950D01*
X73750Y-53850D02*
X73100Y-53850D01*
X69300Y-53850D02*
X69300Y-52950D01*
X69300Y-52950D02*
X69950Y-52950D01*
X70650Y-53850D02*
X71300Y-53850D01*
X71300Y-53850D02*
X71300Y-52950D01*
X71300Y-52950D02*
X70650Y-52950D01*
X69950Y-53850D02*
X69300Y-53850D01*
X65500Y-53850D02*
X65500Y-52950D01*
X65500Y-52950D02*
X66150Y-52950D01*
X66850Y-53850D02*
X67500Y-53850D01*
X67500Y-53850D02*
X67500Y-52950D01*
X67500Y-52950D02*
X66850Y-52950D01*
X66150Y-53850D02*
X65500Y-53850D01*
X61700Y-53850D02*
X61700Y-52950D01*
X61700Y-52950D02*
X62350Y-52950D01*
X63050Y-53850D02*
X63700Y-53850D01*
X63700Y-53850D02*
X63700Y-52950D01*
X63700Y-52950D02*
X63050Y-52950D01*
X62350Y-53850D02*
X61700Y-53850D01*
G54D14*
X54500Y-47000D02*
X52100Y-47000D01*
X52100Y-47000D02*
X51700Y-47200D01*
X51700Y-47200D02*
X50700Y-47200D01*
X50700Y-47200D02*
X50300Y-47000D01*
X54500Y-46800D02*
X52100Y-46800D01*
X52100Y-46800D02*
X51700Y-47000D01*
X51700Y-47000D02*
X50700Y-47000D01*
X50700Y-47000D02*
X50300Y-46800D01*
X50700Y-46800D02*
X50300Y-46600D01*
X51700Y-46800D02*
X50700Y-46800D01*
X52100Y-46600D02*
X51700Y-46800D01*
X54500Y-46600D02*
X52100Y-46600D01*
X54500Y-46600D02*
X52100Y-46600D01*
X52100Y-46600D02*
X51700Y-46800D01*
X51700Y-46800D02*
X50700Y-46800D01*
X50700Y-46800D02*
X50300Y-46600D01*
X50700Y-46800D02*
X50300Y-46600D01*
X51700Y-46800D02*
X50700Y-46800D01*
X52100Y-46600D02*
X51700Y-46800D01*
X54500Y-46600D02*
X52100Y-46600D01*
X54500Y-46600D02*
X52100Y-46600D01*
X52100Y-46600D02*
X51700Y-46800D01*
X51700Y-46800D02*
X50700Y-46800D01*
X50700Y-46800D02*
X50300Y-46600D01*
X50700Y-46800D02*
X50300Y-46600D01*
X51700Y-46800D02*
X50700Y-46800D01*
X52100Y-46600D02*
X51700Y-46800D01*
X54500Y-46600D02*
X52100Y-46600D01*
X54500Y-46600D02*
X52100Y-46600D01*
X52100Y-46600D02*
X51700Y-46800D01*
X51700Y-46800D02*
X50700Y-46800D01*
X50700Y-46800D02*
X50300Y-46600D01*
X50700Y-46800D02*
X50300Y-46600D01*
X51700Y-46800D02*
X50700Y-46800D01*
X52100Y-46600D02*
X51700Y-46800D01*
X54500Y-46600D02*
X52100Y-46600D01*
X54500Y-46600D02*
X52100Y-46600D01*
X52100Y-46600D02*
X51700Y-46800D01*
X51700Y-46800D02*
X50700Y-46800D01*
X50700Y-46800D02*
X50300Y-46600D01*
X50425Y-46300D02*
X50325Y-46225D01*
X50650Y-46200D02*
X50550Y-46300D01*
X51475Y-46300D02*
X51425Y-46300D01*
X51700Y-46300D02*
X51450Y-46300D01*
X51700Y-45700D02*
X51425Y-45700D01*
X51550Y-46275D02*
X51550Y-45750D01*
X50675Y-46100D02*
X50650Y-46200D01*
X50550Y-46300D02*
X50425Y-46300D01*
X50275Y-46075D02*
X50300Y-46200D01*
X50675Y-45875D02*
X50650Y-45775D01*
X50650Y-45775D02*
X50575Y-45700D01*
X50575Y-45700D02*
X50525Y-45675D01*
X50525Y-45675D02*
X50425Y-45675D01*
X50425Y-45675D02*
X50375Y-45700D01*
X50375Y-45700D02*
X50325Y-45725D01*
X50325Y-45725D02*
X50300Y-45775D01*
X50300Y-45775D02*
X50275Y-45850D01*
X50275Y-45850D02*
X50275Y-45900D01*
X50275Y-45900D02*
X50275Y-46075D01*
X50675Y-45900D02*
X50675Y-46100D01*
X51275Y-46300D02*
X51275Y-45675D01*
X51275Y-45700D02*
X50925Y-46300D01*
X50925Y-46300D02*
X50925Y-45675D01*
X52175Y-45700D02*
X52175Y-46175D01*
X52175Y-46175D02*
X52150Y-46225D01*
X52150Y-46225D02*
X52125Y-46250D01*
X52125Y-46250D02*
X52100Y-46275D01*
X52100Y-46275D02*
X52050Y-46300D01*
X52050Y-46300D02*
X52000Y-46300D01*
X52000Y-46300D02*
X51950Y-46300D01*
X51950Y-46300D02*
X51900Y-46275D01*
X51900Y-46275D02*
X51875Y-46250D01*
X51875Y-46250D02*
X51850Y-46225D01*
X51850Y-46225D02*
X51850Y-46175D01*
X51850Y-46175D02*
X51850Y-45700D01*
X52775Y-45700D02*
X52650Y-45700D01*
X52650Y-45700D02*
X52550Y-45725D01*
X52550Y-45725D02*
X52500Y-45775D01*
X52500Y-45775D02*
X52475Y-45850D01*
X52475Y-45850D02*
X52450Y-45950D01*
X52450Y-45950D02*
X52450Y-46025D01*
X52450Y-46025D02*
X52450Y-46075D01*
X52450Y-46075D02*
X52475Y-46150D01*
X52475Y-46150D02*
X52500Y-46200D01*
X52500Y-46200D02*
X52550Y-46250D01*
X52550Y-46250D02*
X52625Y-46300D01*
X52625Y-46300D02*
X52675Y-46300D01*
X52675Y-46300D02*
X52800Y-46300D01*
X52800Y-46300D02*
X52800Y-45700D01*
X53275Y-45700D02*
X53275Y-46300D01*
X53275Y-46300D02*
X53000Y-46300D01*
X53875Y-45700D02*
X53850Y-45700D01*
X53850Y-45700D02*
X53625Y-45700D01*
X53625Y-45700D02*
X53575Y-45725D01*
X53575Y-45725D02*
X53550Y-45750D01*
X53550Y-45750D02*
X53525Y-45800D01*
X53525Y-45800D02*
X53525Y-45850D01*
X53525Y-45850D02*
X53525Y-45900D01*
X53525Y-45900D02*
X53550Y-45950D01*
X53550Y-45950D02*
X53600Y-45975D01*
X53600Y-45975D02*
X53650Y-46000D01*
X53650Y-46000D02*
X53875Y-46000D01*
X53875Y-46275D02*
X53875Y-45700D01*
X54400Y-45900D02*
X54100Y-46300D01*
X54425Y-46300D02*
X54125Y-45900D01*
G54D13*
X57593Y-53521D02*
X57693Y-53379D01*
X57765Y-53521D02*
X57765Y-53221D01*
X57650Y-53221D01*
X57622Y-53236D01*
X57607Y-53250D01*
X57593Y-53279D01*
X57593Y-53321D01*
X57607Y-53350D01*
X57622Y-53364D01*
X57650Y-53379D01*
X57765Y-53379D01*
X57493Y-53221D02*
X57307Y-53221D01*
X57407Y-53336D01*
X57365Y-53336D01*
X57336Y-53350D01*
X57322Y-53364D01*
X57307Y-53393D01*
X57307Y-53464D01*
X57322Y-53493D01*
X57336Y-53507D01*
X57365Y-53521D01*
X57450Y-53521D01*
X57479Y-53507D01*
X57493Y-53493D01*
X57164Y-53521D02*
X57107Y-53521D01*
X57079Y-53507D01*
X57064Y-53493D01*
X57036Y-53450D01*
X57021Y-53393D01*
X57021Y-53279D01*
X57036Y-53250D01*
X57050Y-53236D01*
X57079Y-53221D01*
X57136Y-53221D01*
X57164Y-53236D01*
X57179Y-53250D01*
X57193Y-53279D01*
X57193Y-53350D01*
X57179Y-53379D01*
X57164Y-53393D01*
X57136Y-53407D01*
X57079Y-53407D01*
X57050Y-53393D01*
X57036Y-53379D01*
X57021Y-53350D01*
X53793Y-53521D02*
X53893Y-53379D01*
X53965Y-53521D02*
X53965Y-53221D01*
X53850Y-53221D01*
X53822Y-53236D01*
X53807Y-53250D01*
X53793Y-53279D01*
X53793Y-53321D01*
X53807Y-53350D01*
X53822Y-53364D01*
X53850Y-53379D01*
X53965Y-53379D01*
X53536Y-53321D02*
X53536Y-53521D01*
X53607Y-53207D02*
X53679Y-53421D01*
X53493Y-53421D01*
X53321Y-53221D02*
X53293Y-53221D01*
X53264Y-53236D01*
X53250Y-53250D01*
X53236Y-53279D01*
X53221Y-53336D01*
X53221Y-53407D01*
X53236Y-53464D01*
X53250Y-53493D01*
X53264Y-53507D01*
X53293Y-53521D01*
X53321Y-53521D01*
X53350Y-53507D01*
X53364Y-53493D01*
X53379Y-53464D01*
X53393Y-53407D01*
X53393Y-53336D01*
X53379Y-53279D01*
X53364Y-53250D01*
X53350Y-53236D01*
X53321Y-53221D01*
X49993Y-53521D02*
X50093Y-53379D01*
X50165Y-53521D02*
X50165Y-53221D01*
X50050Y-53221D01*
X50022Y-53236D01*
X50007Y-53250D01*
X49993Y-53279D01*
X49993Y-53321D01*
X50007Y-53350D01*
X50022Y-53364D01*
X50050Y-53379D01*
X50165Y-53379D01*
X49736Y-53321D02*
X49736Y-53521D01*
X49807Y-53207D02*
X49879Y-53421D01*
X49693Y-53421D01*
X49421Y-53521D02*
X49593Y-53521D01*
X49507Y-53521D02*
X49507Y-53221D01*
X49536Y-53264D01*
X49564Y-53293D01*
X49593Y-53307D01*
X46193Y-53521D02*
X46293Y-53379D01*
X46365Y-53521D02*
X46365Y-53221D01*
X46250Y-53221D01*
X46222Y-53236D01*
X46207Y-53250D01*
X46193Y-53279D01*
X46193Y-53321D01*
X46207Y-53350D01*
X46222Y-53364D01*
X46250Y-53379D01*
X46365Y-53379D01*
X45936Y-53321D02*
X45936Y-53521D01*
X46007Y-53207D02*
X46079Y-53421D01*
X45893Y-53421D01*
X45793Y-53250D02*
X45779Y-53236D01*
X45750Y-53221D01*
X45679Y-53221D01*
X45650Y-53236D01*
X45636Y-53250D01*
X45621Y-53279D01*
X45621Y-53307D01*
X45636Y-53350D01*
X45807Y-53521D01*
X45621Y-53521D01*
X42393Y-53521D02*
X42493Y-53379D01*
X42565Y-53521D02*
X42565Y-53221D01*
X42450Y-53221D01*
X42422Y-53236D01*
X42407Y-53250D01*
X42393Y-53279D01*
X42393Y-53321D01*
X42407Y-53350D01*
X42422Y-53364D01*
X42450Y-53379D01*
X42565Y-53379D01*
X42136Y-53321D02*
X42136Y-53521D01*
X42207Y-53207D02*
X42279Y-53421D01*
X42093Y-53421D01*
X42007Y-53221D02*
X41821Y-53221D01*
X41921Y-53336D01*
X41879Y-53336D01*
X41850Y-53350D01*
X41836Y-53364D01*
X41821Y-53393D01*
X41821Y-53464D01*
X41836Y-53493D01*
X41850Y-53507D01*
X41879Y-53521D01*
X41964Y-53521D01*
X41993Y-53507D01*
X42007Y-53493D01*
X38593Y-53521D02*
X38693Y-53379D01*
X38765Y-53521D02*
X38765Y-53221D01*
X38650Y-53221D01*
X38622Y-53236D01*
X38607Y-53250D01*
X38593Y-53279D01*
X38593Y-53321D01*
X38607Y-53350D01*
X38622Y-53364D01*
X38650Y-53379D01*
X38765Y-53379D01*
X38336Y-53321D02*
X38336Y-53521D01*
X38407Y-53207D02*
X38479Y-53421D01*
X38293Y-53421D01*
X38050Y-53321D02*
X38050Y-53521D01*
X38121Y-53207D02*
X38193Y-53421D01*
X38007Y-53421D01*
X34793Y-53521D02*
X34893Y-53379D01*
X34965Y-53521D02*
X34965Y-53221D01*
X34850Y-53221D01*
X34822Y-53236D01*
X34807Y-53250D01*
X34793Y-53279D01*
X34793Y-53321D01*
X34807Y-53350D01*
X34822Y-53364D01*
X34850Y-53379D01*
X34965Y-53379D01*
X34536Y-53321D02*
X34536Y-53521D01*
X34607Y-53207D02*
X34679Y-53421D01*
X34493Y-53421D01*
X34236Y-53221D02*
X34379Y-53221D01*
X34393Y-53364D01*
X34379Y-53350D01*
X34350Y-53336D01*
X34279Y-53336D01*
X34250Y-53350D01*
X34236Y-53364D01*
X34221Y-53393D01*
X34221Y-53464D01*
X34236Y-53493D01*
X34250Y-53507D01*
X34279Y-53521D01*
X34350Y-53521D01*
X34379Y-53507D01*
X34393Y-53493D01*
X30993Y-53521D02*
X31093Y-53379D01*
X31165Y-53521D02*
X31165Y-53221D01*
X31050Y-53221D01*
X31022Y-53236D01*
X31007Y-53250D01*
X30993Y-53279D01*
X30993Y-53321D01*
X31007Y-53350D01*
X31022Y-53364D01*
X31050Y-53379D01*
X31165Y-53379D01*
X30736Y-53321D02*
X30736Y-53521D01*
X30807Y-53207D02*
X30879Y-53421D01*
X30693Y-53421D01*
X30450Y-53221D02*
X30507Y-53221D01*
X30536Y-53236D01*
X30550Y-53250D01*
X30579Y-53293D01*
X30593Y-53350D01*
X30593Y-53464D01*
X30579Y-53493D01*
X30564Y-53507D01*
X30536Y-53521D01*
X30479Y-53521D01*
X30450Y-53507D01*
X30436Y-53493D01*
X30421Y-53464D01*
X30421Y-53393D01*
X30436Y-53364D01*
X30450Y-53350D01*
X30479Y-53336D01*
X30536Y-53336D01*
X30564Y-53350D01*
X30579Y-53364D01*
X30593Y-53393D01*
X87993Y-53521D02*
X88093Y-53379D01*
X88165Y-53521D02*
X88165Y-53221D01*
X88050Y-53221D01*
X88022Y-53236D01*
X88007Y-53250D01*
X87993Y-53279D01*
X87993Y-53321D01*
X88007Y-53350D01*
X88022Y-53364D01*
X88050Y-53379D01*
X88165Y-53379D01*
X87736Y-53321D02*
X87736Y-53521D01*
X87807Y-53207D02*
X87879Y-53421D01*
X87693Y-53421D01*
X87607Y-53221D02*
X87407Y-53221D01*
X87536Y-53521D01*
X84193Y-53521D02*
X84293Y-53379D01*
X84365Y-53521D02*
X84365Y-53221D01*
X84250Y-53221D01*
X84222Y-53236D01*
X84207Y-53250D01*
X84193Y-53279D01*
X84193Y-53321D01*
X84207Y-53350D01*
X84222Y-53364D01*
X84250Y-53379D01*
X84365Y-53379D01*
X83936Y-53321D02*
X83936Y-53521D01*
X84007Y-53207D02*
X84079Y-53421D01*
X83893Y-53421D01*
X83736Y-53350D02*
X83764Y-53336D01*
X83779Y-53321D01*
X83793Y-53293D01*
X83793Y-53279D01*
X83779Y-53250D01*
X83764Y-53236D01*
X83736Y-53221D01*
X83679Y-53221D01*
X83650Y-53236D01*
X83636Y-53250D01*
X83621Y-53279D01*
X83621Y-53293D01*
X83636Y-53321D01*
X83650Y-53336D01*
X83679Y-53350D01*
X83736Y-53350D01*
X83764Y-53364D01*
X83779Y-53379D01*
X83793Y-53407D01*
X83793Y-53464D01*
X83779Y-53493D01*
X83764Y-53507D01*
X83736Y-53521D01*
X83679Y-53521D01*
X83650Y-53507D01*
X83636Y-53493D01*
X83621Y-53464D01*
X83621Y-53407D01*
X83636Y-53379D01*
X83650Y-53364D01*
X83679Y-53350D01*
X80393Y-53521D02*
X80493Y-53379D01*
X80565Y-53521D02*
X80565Y-53221D01*
X80450Y-53221D01*
X80422Y-53236D01*
X80407Y-53250D01*
X80393Y-53279D01*
X80393Y-53321D01*
X80407Y-53350D01*
X80422Y-53364D01*
X80450Y-53379D01*
X80565Y-53379D01*
X80136Y-53321D02*
X80136Y-53521D01*
X80207Y-53207D02*
X80279Y-53421D01*
X80093Y-53421D01*
X79964Y-53521D02*
X79907Y-53521D01*
X79879Y-53507D01*
X79864Y-53493D01*
X79836Y-53450D01*
X79821Y-53393D01*
X79821Y-53279D01*
X79836Y-53250D01*
X79850Y-53236D01*
X79879Y-53221D01*
X79936Y-53221D01*
X79964Y-53236D01*
X79979Y-53250D01*
X79993Y-53279D01*
X79993Y-53350D01*
X79979Y-53379D01*
X79964Y-53393D01*
X79936Y-53407D01*
X79879Y-53407D01*
X79850Y-53393D01*
X79836Y-53379D01*
X79821Y-53350D01*
X76593Y-53521D02*
X76693Y-53379D01*
X76765Y-53521D02*
X76765Y-53221D01*
X76650Y-53221D01*
X76622Y-53236D01*
X76607Y-53250D01*
X76593Y-53279D01*
X76593Y-53321D01*
X76607Y-53350D01*
X76622Y-53364D01*
X76650Y-53379D01*
X76765Y-53379D01*
X76322Y-53221D02*
X76465Y-53221D01*
X76479Y-53364D01*
X76465Y-53350D01*
X76436Y-53336D01*
X76365Y-53336D01*
X76336Y-53350D01*
X76322Y-53364D01*
X76307Y-53393D01*
X76307Y-53464D01*
X76322Y-53493D01*
X76336Y-53507D01*
X76365Y-53521D01*
X76436Y-53521D01*
X76465Y-53507D01*
X76479Y-53493D01*
X76121Y-53221D02*
X76093Y-53221D01*
X76064Y-53236D01*
X76050Y-53250D01*
X76036Y-53279D01*
X76021Y-53336D01*
X76021Y-53407D01*
X76036Y-53464D01*
X76050Y-53493D01*
X76064Y-53507D01*
X76093Y-53521D01*
X76121Y-53521D01*
X76150Y-53507D01*
X76164Y-53493D01*
X76179Y-53464D01*
X76193Y-53407D01*
X76193Y-53336D01*
X76179Y-53279D01*
X76164Y-53250D01*
X76150Y-53236D01*
X76121Y-53221D01*
X72793Y-53521D02*
X72893Y-53379D01*
X72965Y-53521D02*
X72965Y-53221D01*
X72850Y-53221D01*
X72822Y-53236D01*
X72807Y-53250D01*
X72793Y-53279D01*
X72793Y-53321D01*
X72807Y-53350D01*
X72822Y-53364D01*
X72850Y-53379D01*
X72965Y-53379D01*
X72522Y-53221D02*
X72665Y-53221D01*
X72679Y-53364D01*
X72665Y-53350D01*
X72636Y-53336D01*
X72565Y-53336D01*
X72536Y-53350D01*
X72522Y-53364D01*
X72507Y-53393D01*
X72507Y-53464D01*
X72522Y-53493D01*
X72536Y-53507D01*
X72565Y-53521D01*
X72636Y-53521D01*
X72665Y-53507D01*
X72679Y-53493D01*
X72221Y-53521D02*
X72393Y-53521D01*
X72307Y-53521D02*
X72307Y-53221D01*
X72336Y-53264D01*
X72364Y-53293D01*
X72393Y-53307D01*
X68993Y-53521D02*
X69093Y-53379D01*
X69165Y-53521D02*
X69165Y-53221D01*
X69050Y-53221D01*
X69022Y-53236D01*
X69007Y-53250D01*
X68993Y-53279D01*
X68993Y-53321D01*
X69007Y-53350D01*
X69022Y-53364D01*
X69050Y-53379D01*
X69165Y-53379D01*
X68722Y-53221D02*
X68865Y-53221D01*
X68879Y-53364D01*
X68865Y-53350D01*
X68836Y-53336D01*
X68765Y-53336D01*
X68736Y-53350D01*
X68722Y-53364D01*
X68707Y-53393D01*
X68707Y-53464D01*
X68722Y-53493D01*
X68736Y-53507D01*
X68765Y-53521D01*
X68836Y-53521D01*
X68865Y-53507D01*
X68879Y-53493D01*
X68593Y-53250D02*
X68579Y-53236D01*
X68550Y-53221D01*
X68479Y-53221D01*
X68450Y-53236D01*
X68436Y-53250D01*
X68421Y-53279D01*
X68421Y-53307D01*
X68436Y-53350D01*
X68607Y-53521D01*
X68421Y-53521D01*
X65193Y-53521D02*
X65293Y-53379D01*
X65365Y-53521D02*
X65365Y-53221D01*
X65250Y-53221D01*
X65222Y-53236D01*
X65207Y-53250D01*
X65193Y-53279D01*
X65193Y-53321D01*
X65207Y-53350D01*
X65222Y-53364D01*
X65250Y-53379D01*
X65365Y-53379D01*
X64922Y-53221D02*
X65065Y-53221D01*
X65079Y-53364D01*
X65065Y-53350D01*
X65036Y-53336D01*
X64965Y-53336D01*
X64936Y-53350D01*
X64922Y-53364D01*
X64907Y-53393D01*
X64907Y-53464D01*
X64922Y-53493D01*
X64936Y-53507D01*
X64965Y-53521D01*
X65036Y-53521D01*
X65065Y-53507D01*
X65079Y-53493D01*
X64807Y-53221D02*
X64621Y-53221D01*
X64721Y-53336D01*
X64679Y-53336D01*
X64650Y-53350D01*
X64636Y-53364D01*
X64621Y-53393D01*
X64621Y-53464D01*
X64636Y-53493D01*
X64650Y-53507D01*
X64679Y-53521D01*
X64764Y-53521D01*
X64793Y-53507D01*
X64807Y-53493D01*
X61393Y-53521D02*
X61493Y-53379D01*
X61565Y-53521D02*
X61565Y-53221D01*
X61450Y-53221D01*
X61422Y-53236D01*
X61407Y-53250D01*
X61393Y-53279D01*
X61393Y-53321D01*
X61407Y-53350D01*
X61422Y-53364D01*
X61450Y-53379D01*
X61565Y-53379D01*
X61122Y-53221D02*
X61265Y-53221D01*
X61279Y-53364D01*
X61265Y-53350D01*
X61236Y-53336D01*
X61165Y-53336D01*
X61136Y-53350D01*
X61122Y-53364D01*
X61107Y-53393D01*
X61107Y-53464D01*
X61122Y-53493D01*
X61136Y-53507D01*
X61165Y-53521D01*
X61236Y-53521D01*
X61265Y-53507D01*
X61279Y-53493D01*
X60850Y-53321D02*
X60850Y-53521D01*
X60921Y-53207D02*
X60993Y-53421D01*
X60807Y-53421D01*
M02*
