M48
;DRILL file {Pcbnew (2013-mar-13)-testing} date mer. 23 oct. 2013 21:04:56 CEST
;FORMAT={-:-/ absolute / inch / decimal}
FMAT,2
INCH,TZ
T1C0.025
T2C0.031
T3C0.032
T4C0.040
%
G90
G05
M72
T1
X3.75Y-3.12
X3.87Y-4.42
X3.95Y-3.12
X4.Y-4.42
X4.13Y-4.42
X4.16Y-3.12
X4.26Y-4.42
X4.36Y-3.12
X4.39Y-4.42
X4.52Y-4.42
X4.56Y-3.12
X4.65Y-4.42
X4.76Y-3.12
X4.915Y-3.33
X4.92Y-4.475
X4.96Y-3.095
T2
X5.14Y-3.85
X5.14Y-4.05
T3
X5.14Y-3.4
X5.14Y-3.5
X5.14Y-3.64
X5.14Y-3.74
X5.393Y-3.997
X5.41Y-3.4
X5.493Y-3.997
X5.51Y-3.4
X5.623Y-3.997
X5.63Y-3.4
X5.723Y-3.997
X5.73Y-3.4
X5.843Y-3.997
X5.85Y-3.4
X5.943Y-3.997
X5.95Y-3.4
X6.063Y-3.997
X6.07Y-3.4
X6.163Y-3.997
X6.17Y-3.4
X6.283Y-3.997
X6.29Y-3.4
X6.383Y-3.997
X6.39Y-3.4
X6.503Y-3.997
X6.51Y-3.4
X6.603Y-3.997
X6.61Y-3.4
X6.723Y-3.997
X6.73Y-3.4
X6.823Y-3.997
X6.83Y-3.4
X6.943Y-3.997
X6.95Y-3.4
X7.043Y-3.997
X7.05Y-3.4
T4
X3.97Y-3.765
X3.97Y-3.865
X4.07Y-3.765
X4.07Y-3.865
X4.17Y-3.765
X4.17Y-3.865
X4.27Y-3.765
X4.27Y-3.865
X4.37Y-3.765
X4.37Y-3.865
X4.47Y-3.765
X4.47Y-3.865
X4.57Y-3.765
X4.57Y-3.865
X4.67Y-3.765
X4.67Y-3.865
X4.77Y-3.765
X4.77Y-3.865
X4.87Y-3.765
X4.87Y-3.865
T0
M30
