M48
;DRILL file {Pcbnew (2011-nov-30)-testing} date jeu. 13 sept. 2012 21:58:40 CEST
;FORMAT={-:-/ absolute / inch / decimal}
FMAT,2
INCH,TZ
T1C0.025
T2C0.032
T3C0.040
T4C0.047
T5C0.052
T6C0.059
%
G90
G05
M72
T1
X5.21Y5.565
X5.3Y5.23
X5.34Y4.555
X5.35Y5.04
X5.39Y4.72
X5.62Y4.47
X5.655Y3.805
X5.68Y5.56
X5.77Y5.21
X5.82Y5.05
X5.9Y4.22
X6.14Y5.56
X6.24Y5.17
X6.28Y5.05
X6.3Y4.55
X6.33Y4.72
X6.57Y5.56
X6.58Y4.47
X6.63Y3.805
X6.69Y5.13
X6.75Y5.05
X6.88Y4.22
X6.99Y5.05
X7.05Y5.31
X7.27Y5.03
X7.295Y4.555
X7.34Y4.72
X7.34Y5.02
X7.44Y5.1
X7.44Y5.16
X7.44Y5.21
X7.44Y5.27
X7.57Y4.47
X7.6Y5.41
X7.61Y5.51
X7.615Y3.79
X7.63Y5.32
X7.87Y4.22
X7.9Y5.01
X7.97Y5.61
X8.03Y4.92
X8.075Y4.55
X8.19Y5.61
X8.26Y5.25
X8.29Y4.72
X8.32Y5.11
X8.43Y4.55
X8.59Y3.8
X8.85Y4.22
T2
X5.23Y3.9531
X5.23Y4.3469
X5.3624Y4.14
X5.6576Y4.135
X6.22Y3.9531
X6.22Y4.3469
X6.3524Y4.14
X6.6476Y4.135
X7.2Y3.9531
X7.2Y4.3469
X7.3324Y4.14
X7.6276Y4.135
X8.17Y3.9531
X8.17Y4.3469
X8.3024Y4.14
X8.5976Y4.135
T3
X5.33Y3.57
X5.43Y3.73
X5.53Y3.57
X6.3Y3.57
X6.4Y3.73
X6.5Y3.57
X7.15Y5.37
X7.15Y5.47
X7.25Y5.37
X7.25Y5.47
X7.29Y3.57
X7.34Y5.83
X7.34Y5.93
X7.35Y5.37
X7.35Y5.47
X7.39Y3.73
X7.44Y5.83
X7.44Y5.93
X7.49Y3.57
X7.54Y5.83
X7.54Y5.93
X7.94Y5.83
X7.94Y5.93
X8.01Y5.2
X8.01Y5.3
X8.01Y5.4
X8.01Y5.5
X8.04Y5.83
X8.04Y5.93
X8.11Y5.2
X8.11Y5.3
X8.11Y5.4
X8.11Y5.5
X8.14Y5.83
X8.14Y5.93
X8.21Y5.2
X8.21Y5.3
X8.21Y5.4
X8.21Y5.5
X8.26Y3.57
X8.36Y3.73
X8.46Y3.57
T4
X5.3Y5.8
X5.5Y5.8
X5.7Y5.8
X5.9Y5.8
X6.1Y5.8
X6.3Y5.8
T5
X5.502Y3.1
X5.699Y3.1
X6.502Y3.1
X6.699Y3.1
X7.502Y3.1
X7.699Y3.1
X8.402Y3.1
X8.599Y3.1
X8.601Y5.79
X8.798Y5.79
T6
X5.91Y3.6169
X5.91Y4.4831
X6.89Y3.6169
X6.89Y4.4831
X7.87Y3.6169
X7.87Y4.4831
X8.85Y3.6169
X8.85Y4.4831
T0
M30
