G04 (created by PCBNEW (2011-nov-30)-testing) date jeu. 13 sept. 2012 21:58:41 CEST*
%MOIN*%
G04 Gerber Fmt 3.4, Leading zero omitted, Abs format*
%FSLAX34Y34*%
G01*
G70*
G90*
G04 APERTURE LIST*
%ADD10C,0.006*%
%ADD11C,0.01*%
%ADD12R,0.06X0.08*%
%ADD13R,0.06X0.06*%
%ADD14C,0.06*%
%ADD15O,0.078X0.156*%
%ADD16C,0.055*%
%ADD17R,0.062X0.09*%
%ADD18R,0.0882X0.0882*%
%ADD19C,0.0882*%
%ADD20R,0.055X0.055*%
%ADD21O,0.0984X0.1575*%
%ADD22C,0.07*%
%ADD23R,0.08X0.06*%
%ADD24C,0.1*%
%ADD25C,0.035*%
%ADD26C,0.02*%
%ADD27C,0.1*%
G04 APERTURE END LIST*
G54D10*
G54D11*
X51100Y-61600D02*
X51100Y-61400D01*
X90550Y-61600D02*
X51100Y-61600D01*
X90550Y-27600D02*
X90550Y-61600D01*
X51100Y-27600D02*
X90550Y-27600D01*
X51100Y-61400D02*
X51100Y-27600D01*
G54D12*
X66250Y-39500D03*
X64950Y-39500D03*
X56550Y-39600D03*
X55250Y-39600D03*
X76150Y-39500D03*
X74850Y-39500D03*
X85850Y-39500D03*
X84550Y-39500D03*
G54D13*
X73500Y-53700D03*
G54D14*
X73500Y-54700D03*
X72500Y-53700D03*
X72500Y-54700D03*
X71500Y-53700D03*
X71500Y-54700D03*
G54D15*
X66990Y-31000D03*
X65020Y-31000D03*
X76990Y-31000D03*
X75020Y-31000D03*
X56990Y-31000D03*
X55020Y-31000D03*
X85990Y-31000D03*
X84020Y-31000D03*
G54D16*
X52300Y-43469D03*
X52300Y-39531D03*
X62200Y-43469D03*
X62200Y-39531D03*
X72000Y-43469D03*
X72000Y-39531D03*
X81700Y-43469D03*
X81700Y-39531D03*
G54D17*
X65700Y-48600D03*
X64700Y-48600D03*
X63700Y-48600D03*
X63700Y-45600D03*
X64700Y-45600D03*
X65700Y-45600D03*
X75700Y-48600D03*
X74700Y-48600D03*
X73700Y-48600D03*
X73700Y-45600D03*
X74700Y-45600D03*
X75700Y-45600D03*
X83500Y-48600D03*
X82500Y-48600D03*
X81500Y-48600D03*
X81500Y-45600D03*
X82500Y-45600D03*
X83500Y-45600D03*
X56200Y-48600D03*
X55200Y-48600D03*
X54200Y-48600D03*
X54200Y-45600D03*
X55200Y-45600D03*
X56200Y-45600D03*
G54D18*
X73324Y-41400D03*
G54D19*
X76276Y-41350D03*
G54D18*
X63524Y-41400D03*
G54D19*
X66476Y-41350D03*
G54D18*
X53624Y-41400D03*
G54D19*
X56576Y-41350D03*
G54D18*
X83024Y-41400D03*
G54D19*
X85976Y-41350D03*
G54D13*
X81400Y-58300D03*
G54D14*
X81400Y-59300D03*
X80400Y-58300D03*
X80400Y-59300D03*
X79400Y-58300D03*
X79400Y-59300D03*
G54D13*
X75400Y-58300D03*
G54D14*
X75400Y-59300D03*
X74400Y-58300D03*
X74400Y-59300D03*
X73400Y-58300D03*
X73400Y-59300D03*
G54D12*
X88050Y-50200D03*
X89350Y-50200D03*
X88050Y-49200D03*
X89350Y-49200D03*
X87500Y-51850D03*
X88800Y-51850D03*
X87500Y-52950D03*
X88800Y-52950D03*
G54D15*
X86010Y-57900D03*
X87980Y-57900D03*
G54D20*
X86400Y-51900D03*
X86400Y-52900D03*
X83400Y-52900D03*
X83400Y-51900D03*
G54D21*
X59100Y-36169D03*
X59100Y-44831D03*
X68900Y-36169D03*
X68900Y-44831D03*
X78700Y-36169D03*
X78700Y-44831D03*
X88500Y-36169D03*
X88500Y-44831D03*
G54D13*
X80100Y-55000D03*
G54D14*
X81100Y-55000D03*
X82100Y-55000D03*
G54D13*
X80100Y-54000D03*
G54D14*
X81100Y-54000D03*
X82100Y-54000D03*
G54D13*
X80100Y-52000D03*
G54D14*
X81100Y-52000D03*
X82100Y-52000D03*
G54D13*
X80100Y-53000D03*
G54D14*
X81100Y-53000D03*
X82100Y-53000D03*
G54D22*
X55300Y-35700D03*
X54300Y-37300D03*
X53300Y-35700D03*
X65000Y-35700D03*
X64000Y-37300D03*
X63000Y-35700D03*
X74900Y-35700D03*
X73900Y-37300D03*
X72900Y-35700D03*
X84600Y-35700D03*
X83600Y-37300D03*
X82600Y-35700D03*
G54D12*
X77050Y-55000D03*
X78350Y-55000D03*
X77050Y-53900D03*
X78350Y-53900D03*
G54D23*
X56600Y-37000D03*
X56600Y-35700D03*
X66300Y-37000D03*
X66300Y-35700D03*
X76200Y-37000D03*
X76200Y-35700D03*
X85900Y-37000D03*
X85900Y-35700D03*
G54D24*
X53000Y-58000D03*
X55000Y-58000D03*
X57000Y-58000D03*
X59000Y-58000D03*
X61000Y-58000D03*
X63000Y-58000D03*
G54D25*
X76100Y-55100D03*
X80300Y-49200D03*
X70500Y-53100D03*
X61400Y-55600D03*
X56800Y-55600D03*
X65700Y-55600D03*
X52100Y-55650D03*
X72700Y-50300D03*
X59000Y-42200D03*
X56200Y-44700D03*
X53400Y-45550D03*
X56550Y-38050D03*
X68800Y-42200D03*
X65800Y-44700D03*
X63000Y-45500D03*
X66300Y-38050D03*
X78700Y-42200D03*
X75700Y-44700D03*
X72950Y-45550D03*
X76150Y-37900D03*
X88500Y-42200D03*
X84300Y-45500D03*
X80750Y-45500D03*
X85900Y-38000D03*
X53000Y-52300D03*
X74400Y-52700D03*
X57700Y-52100D03*
X74400Y-52100D03*
X62400Y-51700D03*
X74400Y-51600D03*
X66900Y-51300D03*
X74400Y-51000D03*
X76000Y-54100D03*
X79700Y-56100D03*
X81900Y-56100D03*
X76300Y-53200D03*
X82600Y-52500D03*
X83200Y-51100D03*
X79000Y-50100D03*
X73400Y-50200D03*
X69900Y-50500D03*
X67500Y-50500D03*
X62800Y-50500D03*
X58200Y-50500D03*
X53500Y-50400D03*
X73400Y-47200D03*
X53900Y-47200D03*
X63300Y-47200D03*
X82900Y-47200D03*
G54D26*
X76100Y-55100D02*
X76950Y-55100D01*
X77050Y-55000D02*
X77050Y-53900D01*
X77050Y-53900D02*
X77050Y-49600D01*
X77050Y-49600D02*
X77000Y-49600D01*
X76950Y-55100D02*
X77050Y-55000D01*
X80300Y-49200D02*
X80300Y-49600D01*
X82900Y-49600D02*
X81000Y-49600D01*
X83500Y-49000D02*
X82900Y-49600D01*
X81000Y-49600D02*
X80300Y-49600D01*
X83500Y-48600D02*
X83500Y-49000D01*
X65700Y-55600D02*
X69750Y-55600D01*
X70500Y-54850D02*
X70500Y-53100D01*
X69750Y-55600D02*
X70500Y-54850D01*
X52150Y-55600D02*
X56800Y-55600D01*
X56800Y-55600D02*
X61400Y-55600D01*
X61400Y-55600D02*
X65700Y-55600D01*
X52100Y-55650D02*
X52150Y-55600D01*
X72700Y-50300D02*
X72700Y-49600D01*
X72700Y-49600D02*
X72700Y-49700D01*
X72700Y-49700D02*
X72700Y-49600D01*
X80300Y-49600D02*
X77000Y-49600D01*
X77000Y-49600D02*
X75700Y-49600D01*
X81400Y-58300D02*
X81400Y-57500D01*
X75400Y-58000D02*
X75400Y-58300D01*
X75900Y-57500D02*
X75400Y-58000D01*
X81400Y-57500D02*
X75900Y-57500D01*
X65700Y-48600D02*
X65700Y-49600D01*
X71700Y-49600D02*
X65700Y-49600D01*
X65700Y-49600D02*
X57200Y-49600D01*
X57200Y-49600D02*
X56200Y-48600D01*
X75700Y-48600D02*
X75700Y-49600D01*
X75700Y-49600D02*
X73700Y-49600D01*
X73700Y-49600D02*
X72800Y-49600D01*
X72800Y-49600D02*
X72700Y-49600D01*
X72700Y-49600D02*
X71700Y-49600D01*
X71700Y-49600D02*
X71600Y-49600D01*
G54D11*
X73400Y-58300D02*
X73400Y-58400D01*
X78900Y-58800D02*
X79400Y-58300D01*
X73800Y-58800D02*
X78900Y-58800D01*
X73400Y-58400D02*
X73800Y-58800D01*
G54D26*
X56550Y-39600D02*
X58100Y-39600D01*
X58100Y-39600D02*
X59000Y-40500D01*
X59000Y-40500D02*
X59000Y-42200D01*
X56200Y-44700D02*
X56200Y-45600D01*
X56600Y-37050D02*
X56600Y-38000D01*
X53450Y-45600D02*
X54200Y-45600D01*
X53400Y-45550D02*
X53450Y-45600D01*
X56600Y-38000D02*
X56550Y-38050D01*
X55300Y-35700D02*
X56550Y-35700D01*
X56550Y-35700D02*
X56600Y-35750D01*
X66250Y-39500D02*
X68000Y-39500D01*
X68000Y-39500D02*
X68800Y-40300D01*
X68800Y-40300D02*
X68800Y-42200D01*
X65800Y-44700D02*
X65700Y-44800D01*
X65700Y-44800D02*
X65700Y-45600D01*
X66300Y-37000D02*
X66300Y-38050D01*
X63100Y-45600D02*
X63700Y-45600D01*
X63000Y-45500D02*
X63100Y-45600D01*
X65000Y-35700D02*
X66300Y-35700D01*
X76150Y-39500D02*
X77800Y-39500D01*
X77800Y-39500D02*
X78700Y-40400D01*
X78700Y-40400D02*
X78700Y-42200D01*
X75700Y-44700D02*
X75700Y-45600D01*
X76200Y-37000D02*
X76200Y-37850D01*
X73000Y-45600D02*
X73700Y-45600D01*
X72950Y-45550D02*
X73000Y-45600D01*
X76200Y-37850D02*
X76150Y-37900D01*
X74900Y-35700D02*
X76200Y-35700D01*
X85850Y-39500D02*
X87500Y-39500D01*
X87500Y-39500D02*
X88500Y-40500D01*
X88500Y-40500D02*
X88500Y-42200D01*
X84300Y-45500D02*
X84200Y-45600D01*
X84200Y-45600D02*
X83500Y-45600D01*
X85900Y-37000D02*
X85900Y-38000D01*
X80850Y-45600D02*
X81500Y-45600D01*
X80750Y-45500D02*
X80850Y-45600D01*
X84600Y-35700D02*
X85900Y-35700D01*
G54D27*
X54300Y-39500D02*
X54300Y-40724D01*
X54300Y-40724D02*
X53624Y-41400D01*
G54D26*
X55250Y-39600D02*
X54300Y-39600D01*
X54500Y-39500D02*
X54300Y-39500D01*
X54400Y-39500D02*
X54500Y-39500D01*
X54300Y-39600D02*
X54400Y-39500D01*
G54D27*
X54300Y-37300D02*
X54300Y-39500D01*
X56576Y-41450D02*
X56576Y-43469D01*
X56600Y-43500D02*
X56600Y-43469D01*
X56600Y-43493D02*
X56600Y-43500D01*
X56576Y-43469D02*
X56600Y-43493D01*
X52300Y-43469D02*
X56600Y-43469D01*
X56600Y-43469D02*
X57738Y-43469D01*
X57738Y-43469D02*
X59100Y-44831D01*
X59100Y-36169D02*
X59100Y-32100D01*
X58000Y-31000D02*
X56990Y-31000D01*
X59100Y-32100D02*
X58000Y-31000D01*
X52300Y-39531D02*
X52300Y-36700D01*
X52300Y-36700D02*
X53300Y-35700D01*
X53300Y-35700D02*
X53300Y-31700D01*
X53300Y-31700D02*
X54000Y-31000D01*
X54000Y-31000D02*
X55020Y-31000D01*
G54D26*
X64950Y-39500D02*
X64000Y-39500D01*
X64000Y-39500D02*
X63800Y-39500D01*
X63800Y-39500D02*
X64000Y-39500D01*
G54D27*
X64000Y-37300D02*
X64000Y-39500D01*
X64000Y-39500D02*
X64000Y-40924D01*
X64000Y-40924D02*
X63524Y-41400D01*
X66476Y-41350D02*
X66476Y-43469D01*
X66500Y-43200D02*
X66500Y-43469D01*
X66500Y-43445D02*
X66500Y-43200D01*
X66476Y-43469D02*
X66500Y-43445D01*
X62200Y-43469D02*
X66500Y-43469D01*
X66500Y-43469D02*
X67538Y-43469D01*
X67538Y-43469D02*
X68900Y-44831D01*
X68900Y-36169D02*
X68900Y-31900D01*
X68000Y-31000D02*
X66990Y-31000D01*
X68900Y-31900D02*
X68000Y-31000D01*
X63000Y-35700D02*
X63000Y-32000D01*
X63000Y-32000D02*
X64000Y-31000D01*
X64000Y-31000D02*
X65020Y-31000D01*
X62200Y-39531D02*
X62200Y-36500D01*
X62200Y-36500D02*
X63000Y-35700D01*
G54D26*
X74850Y-39500D02*
X73900Y-39500D01*
X73900Y-39500D02*
X74000Y-39500D01*
X74000Y-39500D02*
X73900Y-39500D01*
G54D27*
X73900Y-37300D02*
X73900Y-39500D01*
X73900Y-39500D02*
X73900Y-40824D01*
X73900Y-40824D02*
X73324Y-41400D01*
X76276Y-41350D02*
X76276Y-43469D01*
X76300Y-43300D02*
X76300Y-43469D01*
X76300Y-43445D02*
X76300Y-43300D01*
X76276Y-43469D02*
X76300Y-43445D01*
X72000Y-43469D02*
X76300Y-43469D01*
X76300Y-43469D02*
X77338Y-43469D01*
X77338Y-43469D02*
X78700Y-44831D01*
X78700Y-36169D02*
X78700Y-31700D01*
X78000Y-31000D02*
X76990Y-31000D01*
X78700Y-31700D02*
X78000Y-31000D01*
X72900Y-35700D02*
X72900Y-32100D01*
X72900Y-32100D02*
X74000Y-31000D01*
X74000Y-31000D02*
X75020Y-31000D01*
X72000Y-39531D02*
X72000Y-36600D01*
X72000Y-36600D02*
X72900Y-35700D01*
G54D26*
X83600Y-39500D02*
X84550Y-39500D01*
G54D27*
X83600Y-37300D02*
X83600Y-39500D01*
X83600Y-39500D02*
X83600Y-40824D01*
X83600Y-40824D02*
X83024Y-41400D01*
X85976Y-43469D02*
X86000Y-43469D01*
X85976Y-41350D02*
X85976Y-43469D01*
X86000Y-43469D02*
X87138Y-43469D01*
X81700Y-43469D02*
X86000Y-43469D01*
X87138Y-43469D02*
X88500Y-44831D01*
X88500Y-36169D02*
X88500Y-32500D01*
X87000Y-31000D02*
X85990Y-31000D01*
X88500Y-32500D02*
X87000Y-31000D01*
X81700Y-39531D02*
X81700Y-36600D01*
X81700Y-36600D02*
X82600Y-35700D01*
X82600Y-35700D02*
X82600Y-31400D01*
X82600Y-31400D02*
X83000Y-31000D01*
X83000Y-31000D02*
X84020Y-31000D01*
G54D11*
X53500Y-52500D02*
X53200Y-52500D01*
X53200Y-52500D02*
X53000Y-52300D01*
X74200Y-52500D02*
X53500Y-52500D01*
X74400Y-52700D02*
X74200Y-52500D01*
X58000Y-52100D02*
X74400Y-52100D01*
X57700Y-52100D02*
X58000Y-52100D01*
X74300Y-51700D02*
X62400Y-51700D01*
X74400Y-51600D02*
X74300Y-51700D01*
X74100Y-51300D02*
X66900Y-51300D01*
X74400Y-51000D02*
X74100Y-51300D01*
X81100Y-52000D02*
X81200Y-52000D01*
X75700Y-54400D02*
X76000Y-54100D01*
X75700Y-55800D02*
X75700Y-54400D01*
X75800Y-55900D02*
X75700Y-55800D01*
X76000Y-56100D02*
X75800Y-55900D01*
X76400Y-56100D02*
X76000Y-56100D01*
X79700Y-56100D02*
X76400Y-56100D01*
X81600Y-55800D02*
X81900Y-56100D01*
X81600Y-52400D02*
X81600Y-55800D01*
X81200Y-52000D02*
X81600Y-52400D01*
X86010Y-57900D02*
X86010Y-56790D01*
X88800Y-54000D02*
X88800Y-52950D01*
X86010Y-56790D02*
X88800Y-54000D01*
X88800Y-51850D02*
X88800Y-52950D01*
X89350Y-50200D02*
X89350Y-49200D01*
X87980Y-57900D02*
X87980Y-56320D01*
X89800Y-50650D02*
X89350Y-50200D01*
X89800Y-54500D02*
X89800Y-50650D01*
X87980Y-56320D02*
X89800Y-54500D01*
X76200Y-53100D02*
X76300Y-53200D01*
X71800Y-53100D02*
X76200Y-53100D01*
X71500Y-53400D02*
X71800Y-53100D01*
X71500Y-53700D02*
X71500Y-53400D01*
X83400Y-51900D02*
X83200Y-51900D01*
X83200Y-51900D02*
X82600Y-52500D01*
X83400Y-51900D02*
X83400Y-51300D01*
X83400Y-51300D02*
X83200Y-51100D01*
G54D26*
X78350Y-53900D02*
X80000Y-53900D01*
X78350Y-55000D02*
X80100Y-55000D01*
X80000Y-53900D02*
X80100Y-54000D01*
X79600Y-50100D02*
X80100Y-50100D01*
X79600Y-50100D02*
X79000Y-50100D01*
X80100Y-51600D02*
X80100Y-52000D01*
X80400Y-51300D02*
X80100Y-51600D01*
X80400Y-50400D02*
X80400Y-51300D01*
X80100Y-50100D02*
X80400Y-50400D01*
X80100Y-52000D02*
X80100Y-53000D01*
X83400Y-56600D02*
X80800Y-56600D01*
X80100Y-55900D02*
X80100Y-55000D01*
X80400Y-56200D02*
X80800Y-56600D01*
X80100Y-55900D02*
X80400Y-56200D01*
X83400Y-52900D02*
X83400Y-56600D01*
X83400Y-56600D02*
X83400Y-59800D01*
X83000Y-60200D02*
X81400Y-60200D01*
X83400Y-59800D02*
X83000Y-60200D01*
X71500Y-54700D02*
X71800Y-55000D01*
X73000Y-60200D02*
X75350Y-60200D01*
X71800Y-59000D02*
X73000Y-60200D01*
X71800Y-55000D02*
X71800Y-59000D01*
X70250Y-50850D02*
X72750Y-50850D01*
X69900Y-50500D02*
X70250Y-50850D01*
X72750Y-50850D02*
X73400Y-50200D01*
X75400Y-59300D02*
X75400Y-60150D01*
X75400Y-60150D02*
X75350Y-60200D01*
X67500Y-50500D02*
X69900Y-50500D01*
X81400Y-59300D02*
X81400Y-60200D01*
X75350Y-60200D02*
X81400Y-60200D01*
X80100Y-54000D02*
X80100Y-55000D01*
X80100Y-53000D02*
X80100Y-54000D01*
X53600Y-50500D02*
X58200Y-50500D01*
X58200Y-50500D02*
X62800Y-50500D01*
X62800Y-50500D02*
X67500Y-50500D01*
X53500Y-50400D02*
X53600Y-50500D01*
G54D11*
X82100Y-53000D02*
X82100Y-52000D01*
X87500Y-52950D02*
X86450Y-52950D01*
X86450Y-52950D02*
X86400Y-52900D01*
X87500Y-51850D02*
X87500Y-52950D01*
X87450Y-51900D02*
X87500Y-51850D01*
X88050Y-50200D02*
X87100Y-50200D01*
X86400Y-50900D02*
X86400Y-51900D01*
X87100Y-50200D02*
X86400Y-50900D01*
X88050Y-49200D02*
X88050Y-50200D01*
X74700Y-48600D02*
X74700Y-47900D01*
X74000Y-47200D02*
X73400Y-47200D01*
X74700Y-47900D02*
X74000Y-47200D01*
X55200Y-48600D02*
X55200Y-47700D01*
X54700Y-47200D02*
X53900Y-47200D01*
X55200Y-47700D02*
X54700Y-47200D01*
X64700Y-48600D02*
X64700Y-47800D01*
X64100Y-47200D02*
X63300Y-47200D01*
X64700Y-47800D02*
X64100Y-47200D01*
X82500Y-48600D02*
X82500Y-47600D01*
X82500Y-47600D02*
X82900Y-47200D01*
M02*
