G04 (created by PCBNEW (2011-nov-30)-testing) date jeu. 13 sept. 2012 21:58:41 CEST*
%MOIN*%
G04 Gerber Fmt 3.4, Leading zero omitted, Abs format*
%FSLAX34Y34*%
G01*
G70*
G90*
G04 APERTURE LIST*
%ADD10C,0.006*%
%ADD11C,0.01*%
%ADD12R,0.09X0.11*%
%ADD13R,0.09X0.09*%
%ADD14C,0.09*%
%ADD15C,0.085*%
%ADD16R,0.092X0.12*%
%ADD17R,0.1182X0.1182*%
%ADD18C,0.1182*%
%ADD19R,0.085X0.085*%
%ADD20O,0.1284X0.1875*%
%ADD21C,0.1*%
%ADD22R,0.11X0.09*%
%ADD23C,0.13*%
G04 APERTURE END LIST*
G54D10*
G54D11*
X51100Y-61600D02*
X51100Y-61400D01*
X90550Y-61600D02*
X51100Y-61600D01*
X90550Y-27600D02*
X90550Y-61600D01*
X51100Y-27600D02*
X90550Y-27600D01*
X51100Y-61400D02*
X51100Y-27600D01*
G54D12*
X66250Y-39500D03*
X64950Y-39500D03*
X56550Y-39600D03*
X55250Y-39600D03*
X76150Y-39500D03*
X74850Y-39500D03*
X85850Y-39500D03*
X84550Y-39500D03*
G54D13*
X73500Y-53700D03*
G54D14*
X73500Y-54700D03*
X72500Y-53700D03*
X72500Y-54700D03*
X71500Y-53700D03*
X71500Y-54700D03*
G54D15*
X52300Y-43469D03*
X52300Y-39531D03*
X62200Y-43469D03*
X62200Y-39531D03*
X72000Y-43469D03*
X72000Y-39531D03*
X81700Y-43469D03*
X81700Y-39531D03*
G54D16*
X65700Y-48600D03*
X64700Y-48600D03*
X63700Y-48600D03*
X63700Y-45600D03*
X64700Y-45600D03*
X65700Y-45600D03*
X75700Y-48600D03*
X74700Y-48600D03*
X73700Y-48600D03*
X73700Y-45600D03*
X74700Y-45600D03*
X75700Y-45600D03*
X83500Y-48600D03*
X82500Y-48600D03*
X81500Y-48600D03*
X81500Y-45600D03*
X82500Y-45600D03*
X83500Y-45600D03*
X56200Y-48600D03*
X55200Y-48600D03*
X54200Y-48600D03*
X54200Y-45600D03*
X55200Y-45600D03*
X56200Y-45600D03*
G54D17*
X73324Y-41400D03*
G54D18*
X76276Y-41350D03*
G54D17*
X63524Y-41400D03*
G54D18*
X66476Y-41350D03*
G54D17*
X53624Y-41400D03*
G54D18*
X56576Y-41350D03*
G54D17*
X83024Y-41400D03*
G54D18*
X85976Y-41350D03*
G54D13*
X81400Y-58300D03*
G54D14*
X81400Y-59300D03*
X80400Y-58300D03*
X80400Y-59300D03*
X79400Y-58300D03*
X79400Y-59300D03*
G54D13*
X75400Y-58300D03*
G54D14*
X75400Y-59300D03*
X74400Y-58300D03*
X74400Y-59300D03*
X73400Y-58300D03*
X73400Y-59300D03*
G54D12*
X88050Y-50200D03*
X89350Y-50200D03*
X88050Y-49200D03*
X89350Y-49200D03*
X87500Y-51850D03*
X88800Y-51850D03*
X87500Y-52950D03*
X88800Y-52950D03*
G54D19*
X86400Y-51900D03*
X86400Y-52900D03*
X83400Y-52900D03*
X83400Y-51900D03*
G54D20*
X59100Y-36169D03*
X59100Y-44831D03*
X68900Y-36169D03*
X68900Y-44831D03*
X78700Y-36169D03*
X78700Y-44831D03*
X88500Y-36169D03*
X88500Y-44831D03*
G54D13*
X80100Y-55000D03*
G54D14*
X81100Y-55000D03*
X82100Y-55000D03*
G54D13*
X80100Y-54000D03*
G54D14*
X81100Y-54000D03*
X82100Y-54000D03*
G54D13*
X80100Y-52000D03*
G54D14*
X81100Y-52000D03*
X82100Y-52000D03*
G54D13*
X80100Y-53000D03*
G54D14*
X81100Y-53000D03*
X82100Y-53000D03*
G54D21*
X55300Y-35700D03*
X54300Y-37300D03*
X53300Y-35700D03*
X65000Y-35700D03*
X64000Y-37300D03*
X63000Y-35700D03*
X74900Y-35700D03*
X73900Y-37300D03*
X72900Y-35700D03*
X84600Y-35700D03*
X83600Y-37300D03*
X82600Y-35700D03*
G54D12*
X77050Y-55000D03*
X78350Y-55000D03*
X77050Y-53900D03*
X78350Y-53900D03*
G54D22*
X56600Y-37000D03*
X56600Y-35700D03*
X66300Y-37000D03*
X66300Y-35700D03*
X76200Y-37000D03*
X76200Y-35700D03*
X85900Y-37000D03*
X85900Y-35700D03*
G54D23*
X53000Y-58000D03*
X55000Y-58000D03*
X57000Y-58000D03*
X59000Y-58000D03*
X61000Y-58000D03*
X63000Y-58000D03*
M02*
