G04 (created by PCBNEW (2011-nov-30)-testing) date jeu. 13 sept. 2012 21:58:41 CEST*
%MOIN*%
G04 Gerber Fmt 3.4, Leading zero omitted, Abs format*
%FSLAX34Y34*%
G01*
G70*
G90*
G04 APERTURE LIST*
%ADD10C,0.006*%
%ADD11C,0.01*%
%ADD12R,0.05X0.02*%
%ADD13R,0.06X0.08*%
%ADD14R,0.08X0.06*%
%ADD15R,0.06X0.06*%
%ADD16C,0.06*%
%ADD17O,0.078X0.156*%
%ADD18R,0.0629X0.0709*%
%ADD19R,0.0709X0.0629*%
%ADD20C,0.055*%
%ADD21R,0.09X0.062*%
%ADD22R,0.0882X0.0882*%
%ADD23C,0.0882*%
%ADD24O,0.0984X0.1575*%
%ADD25C,0.07*%
%ADD26C,0.1*%
%ADD27C,0.035*%
%ADD28C,0.02*%
G04 APERTURE END LIST*
G54D10*
G54D11*
X51100Y-61600D02*
X51100Y-61400D01*
X90550Y-61600D02*
X51100Y-61600D01*
X90550Y-27600D02*
X90550Y-61600D01*
X51100Y-27600D02*
X90550Y-27600D01*
X51100Y-61400D02*
X51100Y-27600D01*
G54D12*
X75200Y-50550D03*
X75200Y-51050D03*
X75200Y-51550D03*
X75200Y-52050D03*
X75200Y-52550D03*
X75200Y-53050D03*
X75200Y-53550D03*
X75200Y-54050D03*
X75200Y-54550D03*
X75200Y-55050D03*
X79000Y-55050D03*
X79000Y-54550D03*
X79000Y-54050D03*
X79000Y-53550D03*
X79000Y-53050D03*
X79000Y-52550D03*
X79000Y-52050D03*
X79000Y-51550D03*
X79000Y-51050D03*
X79000Y-50550D03*
G54D13*
X55350Y-54800D03*
X54050Y-54800D03*
G54D14*
X52100Y-54850D03*
X52100Y-53550D03*
G54D13*
X67050Y-47200D03*
X68350Y-47200D03*
G54D14*
X56800Y-54850D03*
X56800Y-53550D03*
G54D13*
X60050Y-54800D03*
X58750Y-54800D03*
X77050Y-47200D03*
X78350Y-47200D03*
X69250Y-54800D03*
X67950Y-54800D03*
G54D14*
X66000Y-54850D03*
X66000Y-53550D03*
G54D13*
X57550Y-47200D03*
X58850Y-47200D03*
G54D14*
X61400Y-54850D03*
X61400Y-53550D03*
G54D13*
X64650Y-54800D03*
X63350Y-54800D03*
X80850Y-47200D03*
X79550Y-47200D03*
G54D14*
X70600Y-48850D03*
X70600Y-50150D03*
X67000Y-53550D03*
X67000Y-54850D03*
X62400Y-53550D03*
X62400Y-54850D03*
G54D13*
X81150Y-49700D03*
X82450Y-49700D03*
G54D14*
X53100Y-53550D03*
X53100Y-54850D03*
X57800Y-53550D03*
X57800Y-54850D03*
G54D15*
X73500Y-53700D03*
G54D16*
X73500Y-54700D03*
X72500Y-53700D03*
X72500Y-54700D03*
X71500Y-53700D03*
X71500Y-54700D03*
G54D17*
X66990Y-31000D03*
X65020Y-31000D03*
X76990Y-31000D03*
X75020Y-31000D03*
X56990Y-31000D03*
X55020Y-31000D03*
G54D18*
X54641Y-47200D03*
X55759Y-47200D03*
G54D19*
X71600Y-49959D03*
X71600Y-48841D03*
G54D18*
X64141Y-47200D03*
X65259Y-47200D03*
X54141Y-53600D03*
X55259Y-53600D03*
X58841Y-53600D03*
X59959Y-53600D03*
X83741Y-47200D03*
X84859Y-47200D03*
X63441Y-53600D03*
X64559Y-53600D03*
X74141Y-47200D03*
X75259Y-47200D03*
X68041Y-53600D03*
X69159Y-53600D03*
G54D17*
X85990Y-31000D03*
X84020Y-31000D03*
G54D20*
X52300Y-43469D03*
X52300Y-39531D03*
X62200Y-43469D03*
X62200Y-39531D03*
X72000Y-43469D03*
X72000Y-39531D03*
X81700Y-43469D03*
X81700Y-39531D03*
G54D21*
X69000Y-52000D03*
X69000Y-51000D03*
X69000Y-50000D03*
X66000Y-50000D03*
X66000Y-51000D03*
X66000Y-52000D03*
X59800Y-52000D03*
X59800Y-51000D03*
X59800Y-50000D03*
X56800Y-50000D03*
X56800Y-51000D03*
X56800Y-52000D03*
X64400Y-52000D03*
X64400Y-51000D03*
X64400Y-50000D03*
X61400Y-50000D03*
X61400Y-51000D03*
X61400Y-52000D03*
X55100Y-52000D03*
X55100Y-51000D03*
X55100Y-50000D03*
X52100Y-50000D03*
X52100Y-51000D03*
X52100Y-52000D03*
G54D22*
X73324Y-41400D03*
G54D23*
X76276Y-41350D03*
G54D22*
X63524Y-41400D03*
G54D23*
X66476Y-41350D03*
G54D22*
X53624Y-41400D03*
G54D23*
X56576Y-41350D03*
G54D22*
X83024Y-41400D03*
G54D23*
X85976Y-41350D03*
G54D15*
X81400Y-58300D03*
G54D16*
X81400Y-59300D03*
X80400Y-58300D03*
X80400Y-59300D03*
X79400Y-58300D03*
X79400Y-59300D03*
G54D15*
X75400Y-58300D03*
G54D16*
X75400Y-59300D03*
X74400Y-58300D03*
X74400Y-59300D03*
X73400Y-58300D03*
X73400Y-59300D03*
G54D13*
X71450Y-52200D03*
X72750Y-52200D03*
X82450Y-50700D03*
X81150Y-50700D03*
G54D17*
X86010Y-57900D03*
X87980Y-57900D03*
G54D13*
X75400Y-49600D03*
X74100Y-49600D03*
G54D18*
X77559Y-49600D03*
X76441Y-49600D03*
G54D24*
X59100Y-36169D03*
X59100Y-44831D03*
X68900Y-36169D03*
X68900Y-44831D03*
X78700Y-36169D03*
X78700Y-44831D03*
X88500Y-36169D03*
X88500Y-44831D03*
G54D15*
X80100Y-55000D03*
G54D16*
X81100Y-55000D03*
X82100Y-55000D03*
G54D15*
X80100Y-54000D03*
G54D16*
X81100Y-54000D03*
X82100Y-54000D03*
G54D15*
X80100Y-52000D03*
G54D16*
X81100Y-52000D03*
X82100Y-52000D03*
G54D15*
X80100Y-53000D03*
G54D16*
X81100Y-53000D03*
X82100Y-53000D03*
G54D25*
X55300Y-35700D03*
X54300Y-37300D03*
X53300Y-35700D03*
X65000Y-35700D03*
X64000Y-37300D03*
X63000Y-35700D03*
X74900Y-35700D03*
X73900Y-37300D03*
X72900Y-35700D03*
X84600Y-35700D03*
X83600Y-37300D03*
X82600Y-35700D03*
G54D26*
X53000Y-58000D03*
X55000Y-58000D03*
X57000Y-58000D03*
X59000Y-58000D03*
X61000Y-58000D03*
X63000Y-58000D03*
G54D27*
X76100Y-55100D03*
X80300Y-49200D03*
X70500Y-53100D03*
X61400Y-55600D03*
X56800Y-55600D03*
X65700Y-55600D03*
X52100Y-55650D03*
X72700Y-50300D03*
X59000Y-42200D03*
X56200Y-44700D03*
X53400Y-45550D03*
X56550Y-38050D03*
X68800Y-42200D03*
X65800Y-44700D03*
X63000Y-45500D03*
X66300Y-38050D03*
X78700Y-42200D03*
X75700Y-44700D03*
X72950Y-45550D03*
X76150Y-37900D03*
X88500Y-42200D03*
X84300Y-45500D03*
X80750Y-45500D03*
X85900Y-38000D03*
X53000Y-52300D03*
X74400Y-52700D03*
X57700Y-52100D03*
X74400Y-52100D03*
X62400Y-51700D03*
X74400Y-51600D03*
X66900Y-51300D03*
X74400Y-51000D03*
X76000Y-54100D03*
X79700Y-56100D03*
X81900Y-56100D03*
X76300Y-53200D03*
X82600Y-52500D03*
X83200Y-51100D03*
X79000Y-50100D03*
X73400Y-50200D03*
X69900Y-50500D03*
X67500Y-50500D03*
X62800Y-50500D03*
X58200Y-50500D03*
X53500Y-50400D03*
X73400Y-47200D03*
X53900Y-47200D03*
X63300Y-47200D03*
X82900Y-47200D03*
G54D28*
X76100Y-55100D02*
X76050Y-55050D01*
X75200Y-55050D02*
X76050Y-55050D01*
X81150Y-49700D02*
X80800Y-49700D01*
X80800Y-49700D02*
X80300Y-49200D01*
X81150Y-50700D02*
X81150Y-49700D01*
X75400Y-55450D02*
X75400Y-55250D01*
X75400Y-58300D02*
X75400Y-57500D01*
X75400Y-57500D02*
X75400Y-55450D01*
X75400Y-55250D02*
X75200Y-55050D01*
X71400Y-50700D02*
X71700Y-50700D01*
X70500Y-51600D02*
X71400Y-50700D01*
X70500Y-53100D02*
X70500Y-51600D01*
X61400Y-54850D02*
X61400Y-55600D01*
X56800Y-54850D02*
X56800Y-55600D01*
X52100Y-54850D02*
X52100Y-55650D01*
X66000Y-55300D02*
X66000Y-54850D01*
X65700Y-55600D02*
X66000Y-55300D01*
X71600Y-49959D02*
X71600Y-50600D01*
X71600Y-50600D02*
X71700Y-50700D01*
X71700Y-50700D02*
X72750Y-50700D01*
X72750Y-52200D02*
X72750Y-50700D01*
X72750Y-50700D02*
X72750Y-50350D01*
X72750Y-50350D02*
X72700Y-50300D01*
X73500Y-54700D02*
X73700Y-54700D01*
X74050Y-55050D02*
X74200Y-55050D01*
X74200Y-55050D02*
X74300Y-55050D01*
X74300Y-55050D02*
X75200Y-55050D01*
X73700Y-54700D02*
X74050Y-55050D01*
G54D11*
X78700Y-56200D02*
X78400Y-55900D01*
X75550Y-53050D02*
X78400Y-55900D01*
X75550Y-53050D02*
X75200Y-53050D01*
X78700Y-56200D02*
X78700Y-56300D01*
X78700Y-57600D02*
X79400Y-58300D01*
X78700Y-56200D02*
X78700Y-56300D01*
X78700Y-56300D02*
X78700Y-57600D01*
X79000Y-54550D02*
X79250Y-54550D01*
X81100Y-55300D02*
X81100Y-55000D01*
X80800Y-55600D02*
X81100Y-55300D01*
X79700Y-55600D02*
X80800Y-55600D01*
X79500Y-55400D02*
X79700Y-55600D01*
X79500Y-54800D02*
X79500Y-55400D01*
X79250Y-54550D02*
X79500Y-54800D01*
X79000Y-54050D02*
X79150Y-54050D01*
X80600Y-54500D02*
X81100Y-54000D01*
X79600Y-54500D02*
X80600Y-54500D01*
X79150Y-54050D02*
X79600Y-54500D01*
X79000Y-53550D02*
X79250Y-53550D01*
X80600Y-53500D02*
X81100Y-53000D01*
X79300Y-53500D02*
X80600Y-53500D01*
X79250Y-53550D02*
X79300Y-53500D01*
X72300Y-49400D02*
X72850Y-49400D01*
X60300Y-47200D02*
X62500Y-49400D01*
X58850Y-47200D02*
X60300Y-47200D01*
X62500Y-49400D02*
X72300Y-49400D01*
X73250Y-50550D02*
X75200Y-50550D01*
X73050Y-50350D02*
X73250Y-50550D01*
X73050Y-49600D02*
X73050Y-50350D01*
X72850Y-49400D02*
X73050Y-49600D01*
X79000Y-51550D02*
X78450Y-51550D01*
X71300Y-47200D02*
X68350Y-47200D01*
X72700Y-48600D02*
X71300Y-47200D01*
X77900Y-48600D02*
X72700Y-48600D01*
X78100Y-48800D02*
X77900Y-48600D01*
X78100Y-51200D02*
X78100Y-48800D01*
X78450Y-51550D02*
X78100Y-51200D01*
X79000Y-51050D02*
X78750Y-51050D01*
X78350Y-50650D02*
X78350Y-47200D01*
X78750Y-51050D02*
X78350Y-50650D01*
X79000Y-52050D02*
X79250Y-52050D01*
X79600Y-47250D02*
X79550Y-47200D01*
X79600Y-51700D02*
X79600Y-47250D01*
X79250Y-52050D02*
X79600Y-51700D01*
G54D28*
X59000Y-42200D02*
X56500Y-44700D01*
X56500Y-44700D02*
X56200Y-44700D01*
X55100Y-43850D02*
X53400Y-45550D01*
X55100Y-39500D02*
X55100Y-43850D01*
X56550Y-38050D02*
X55100Y-39500D01*
X68800Y-42200D02*
X66300Y-44700D01*
X66300Y-44700D02*
X65800Y-44700D01*
X65050Y-43450D02*
X63000Y-45500D01*
X65050Y-39300D02*
X65050Y-43450D01*
X66300Y-38050D02*
X65050Y-39300D01*
X78700Y-42200D02*
X76200Y-44700D01*
X76200Y-44700D02*
X75700Y-44700D01*
X74800Y-43700D02*
X72950Y-45550D01*
X74800Y-39250D02*
X74800Y-43700D01*
X76150Y-37900D02*
X74800Y-39250D01*
X88500Y-42200D02*
X85200Y-45500D01*
X85200Y-45500D02*
X84300Y-45500D01*
X82500Y-45500D02*
X80750Y-45500D01*
X84500Y-43500D02*
X82500Y-45500D01*
X84500Y-39400D02*
X84500Y-43500D01*
X85900Y-38000D02*
X84500Y-39400D01*
G54D11*
X75200Y-52550D02*
X74550Y-52550D01*
X74550Y-52550D02*
X74400Y-52700D01*
X52100Y-53550D02*
X52100Y-53200D01*
X52700Y-51000D02*
X52100Y-51000D01*
X53000Y-51300D02*
X52700Y-51000D01*
X53000Y-52300D02*
X53000Y-52100D01*
X53000Y-52100D02*
X53000Y-52000D01*
X53000Y-52000D02*
X53000Y-51300D01*
X52100Y-53200D02*
X53000Y-52300D01*
X74450Y-52050D02*
X75200Y-52050D01*
X74400Y-52100D02*
X74450Y-52050D01*
X56800Y-51000D02*
X57500Y-51000D01*
X56800Y-53300D02*
X56800Y-53550D01*
X57700Y-52400D02*
X56800Y-53300D01*
X57700Y-51200D02*
X57700Y-51500D01*
X57700Y-51500D02*
X57700Y-52100D01*
X57700Y-52100D02*
X57700Y-52400D01*
X57500Y-51000D02*
X57700Y-51200D01*
X75200Y-51550D02*
X74450Y-51550D01*
X74450Y-51550D02*
X74400Y-51600D01*
X61400Y-53550D02*
X61400Y-53400D01*
X62000Y-51000D02*
X61400Y-51000D01*
X62400Y-51400D02*
X62000Y-51000D01*
X62400Y-52400D02*
X62400Y-51700D01*
X62400Y-51700D02*
X62400Y-51400D01*
X61400Y-53400D02*
X62400Y-52400D01*
X75200Y-51050D02*
X74450Y-51050D01*
X74450Y-51050D02*
X74400Y-51000D01*
X66500Y-51000D02*
X66000Y-51000D01*
X66000Y-51000D02*
X66600Y-51000D01*
X66000Y-53550D02*
X66000Y-53300D01*
X67000Y-51400D02*
X66900Y-51300D01*
X66900Y-51300D02*
X66600Y-51000D01*
X67000Y-52300D02*
X67000Y-51400D01*
X66000Y-53300D02*
X67000Y-52300D01*
X53000Y-58000D02*
X53000Y-57900D01*
X54700Y-54159D02*
X54141Y-53600D01*
X54700Y-56200D02*
X54700Y-54159D01*
X53000Y-57900D02*
X54700Y-56200D01*
X55100Y-52000D02*
X55100Y-52641D01*
X55100Y-52641D02*
X54141Y-53600D01*
X59800Y-52000D02*
X59800Y-52641D01*
X59800Y-52641D02*
X58841Y-53600D01*
X55000Y-58000D02*
X55000Y-57200D01*
X58241Y-54200D02*
X58841Y-53600D01*
X56300Y-54200D02*
X58241Y-54200D01*
X56000Y-54500D02*
X56300Y-54200D01*
X56000Y-56200D02*
X56000Y-54500D01*
X55000Y-57200D02*
X56000Y-56200D01*
X60700Y-54300D02*
X60700Y-55600D01*
X60700Y-54300D02*
X60800Y-54200D01*
X60800Y-54200D02*
X62841Y-54200D01*
X63441Y-53600D02*
X62841Y-54200D01*
X59000Y-57300D02*
X59000Y-58000D01*
X60700Y-55600D02*
X59000Y-57300D01*
X64400Y-52000D02*
X64400Y-52641D01*
X64400Y-52641D02*
X63441Y-53600D01*
X65300Y-55400D02*
X65300Y-55800D01*
X65300Y-55400D02*
X65300Y-54400D01*
X65300Y-54400D02*
X65500Y-54200D01*
X65500Y-54200D02*
X67441Y-54200D01*
X68041Y-53600D02*
X67441Y-54200D01*
X61800Y-57200D02*
X61000Y-58000D01*
X63900Y-57200D02*
X61800Y-57200D01*
X65300Y-55800D02*
X63900Y-57200D01*
X69000Y-52000D02*
X69000Y-52641D01*
X69000Y-52641D02*
X68041Y-53600D01*
X77559Y-49600D02*
X77559Y-52659D01*
X77950Y-53050D02*
X79000Y-53050D01*
X77559Y-52659D02*
X77950Y-53050D01*
X75950Y-54050D02*
X75200Y-54050D01*
X76000Y-54100D02*
X75950Y-54050D01*
X81900Y-56100D02*
X79700Y-56100D01*
X73500Y-53700D02*
X74200Y-53700D01*
X74550Y-54050D02*
X75200Y-54050D01*
X74200Y-53700D02*
X74550Y-54050D01*
X73100Y-56000D02*
X72500Y-55400D01*
X73900Y-56800D02*
X73100Y-56000D01*
X74400Y-59300D02*
X73900Y-58800D01*
X72500Y-55400D02*
X72500Y-54700D01*
X73900Y-58800D02*
X73900Y-56800D01*
X74400Y-59300D02*
X74400Y-59800D01*
X74400Y-59800D02*
X74700Y-60100D01*
X74700Y-60100D02*
X80100Y-60100D01*
X80100Y-60100D02*
X80400Y-59800D01*
X80400Y-59800D02*
X80400Y-59300D01*
X72500Y-54700D02*
X72000Y-54200D01*
X72000Y-54200D02*
X72000Y-53400D01*
X72000Y-53400D02*
X72300Y-53100D01*
X72300Y-53100D02*
X74100Y-53100D01*
X74100Y-53100D02*
X74600Y-53600D01*
X74600Y-53600D02*
X75150Y-53600D01*
X75150Y-53600D02*
X75200Y-53550D01*
X71500Y-53700D02*
X71500Y-52250D01*
X71500Y-52250D02*
X71450Y-52200D01*
X76300Y-53200D02*
X78150Y-55050D01*
X78150Y-55050D02*
X79000Y-55050D01*
X71450Y-53650D02*
X71500Y-53700D01*
X78100Y-55000D02*
X78150Y-55050D01*
X73600Y-55900D02*
X73000Y-55300D01*
X74400Y-56700D02*
X73600Y-55900D01*
X73000Y-54200D02*
X73000Y-55300D01*
X74400Y-56700D02*
X74400Y-58300D01*
X74400Y-58300D02*
X74900Y-58800D01*
X74900Y-58800D02*
X80000Y-58800D01*
X80000Y-58800D02*
X80400Y-58400D01*
X80400Y-58400D02*
X80400Y-58300D01*
X72500Y-53700D02*
X72500Y-53800D01*
X72900Y-54200D02*
X73000Y-54200D01*
X72500Y-53800D02*
X72900Y-54200D01*
X74450Y-54550D02*
X75200Y-54550D01*
X74100Y-54200D02*
X74450Y-54550D01*
X73000Y-54200D02*
X74100Y-54200D01*
X79400Y-52500D02*
X82600Y-52500D01*
X79350Y-52550D02*
X79400Y-52500D01*
X79350Y-52550D02*
X79000Y-52550D01*
X82800Y-50700D02*
X82450Y-50700D01*
X83200Y-51100D02*
X82800Y-50700D01*
G54D28*
X79000Y-50550D02*
X79000Y-50100D01*
X74000Y-49600D02*
X74100Y-49600D01*
X73400Y-50200D02*
X74000Y-49600D01*
X70600Y-50150D02*
X70250Y-50150D01*
X70250Y-50150D02*
X69900Y-50500D01*
X70600Y-54700D02*
X71500Y-54700D01*
X69900Y-52400D02*
X69900Y-54000D01*
X69900Y-54000D02*
X70600Y-54700D01*
X69900Y-50500D02*
X69900Y-52400D01*
X67600Y-50600D02*
X67500Y-50500D01*
X66000Y-50000D02*
X67000Y-50000D01*
X67000Y-50000D02*
X67500Y-50500D01*
X61400Y-50000D02*
X62300Y-50000D01*
X62300Y-50000D02*
X62800Y-50500D01*
X56800Y-50000D02*
X57700Y-50000D01*
X57700Y-50000D02*
X58200Y-50500D01*
X52100Y-50000D02*
X53100Y-50000D01*
X53100Y-50000D02*
X53500Y-50400D01*
X62400Y-55350D02*
X62300Y-55350D01*
X62400Y-54850D02*
X62400Y-55350D01*
X63000Y-58250D02*
X63000Y-58000D01*
X62500Y-58750D02*
X63000Y-58250D01*
X62100Y-59150D02*
X62500Y-58750D01*
X60550Y-59150D02*
X62100Y-59150D01*
X60050Y-58650D02*
X60550Y-59150D01*
X60050Y-57600D02*
X60050Y-58650D01*
X62300Y-55350D02*
X60050Y-57600D01*
X57000Y-58000D02*
X57000Y-58550D01*
X53100Y-55900D02*
X53100Y-54850D01*
X52250Y-56750D02*
X53100Y-55900D01*
X52050Y-56950D02*
X52250Y-56750D01*
X52050Y-58650D02*
X52050Y-56950D01*
X52550Y-59150D02*
X52050Y-58650D01*
X56400Y-59150D02*
X52550Y-59150D01*
X57000Y-58550D02*
X56400Y-59150D01*
X57000Y-58000D02*
X57000Y-56500D01*
X57000Y-56500D02*
X57800Y-55700D01*
X57800Y-55700D02*
X57800Y-54850D01*
X63350Y-54800D02*
X62450Y-54800D01*
X62450Y-54800D02*
X62400Y-54850D01*
X58750Y-54800D02*
X57850Y-54800D01*
X57850Y-54800D02*
X57800Y-54850D01*
X54050Y-54800D02*
X53150Y-54800D01*
X53150Y-54800D02*
X53100Y-54850D01*
X67000Y-54850D02*
X67000Y-55200D01*
X64200Y-58000D02*
X63000Y-58000D01*
X67000Y-55200D02*
X64200Y-58000D01*
X67950Y-54800D02*
X67050Y-54800D01*
X67050Y-54800D02*
X67000Y-54850D01*
G54D11*
X58700Y-54850D02*
X58750Y-54800D01*
X53150Y-54800D02*
X53100Y-54850D01*
X67900Y-54850D02*
X67950Y-54800D01*
X63300Y-54850D02*
X63350Y-54800D01*
X62400Y-53550D02*
X62400Y-53400D01*
X63500Y-51000D02*
X64400Y-51000D01*
X62900Y-51600D02*
X63500Y-51000D01*
X62900Y-52900D02*
X62900Y-51600D01*
X62400Y-53400D02*
X62900Y-52900D01*
X59800Y-51000D02*
X59400Y-51000D01*
X58900Y-52450D02*
X57800Y-53550D01*
X58900Y-51500D02*
X58900Y-52450D01*
X59400Y-51000D02*
X58900Y-51500D01*
X75400Y-49600D02*
X76441Y-49600D01*
X55100Y-51000D02*
X54600Y-51000D01*
X54200Y-52450D02*
X53100Y-53550D01*
X54200Y-51400D02*
X54200Y-52450D01*
X54600Y-51000D02*
X54200Y-51400D01*
X82100Y-53000D02*
X82100Y-54000D01*
X82100Y-55000D02*
X82100Y-54000D01*
X82450Y-49700D02*
X82100Y-49700D01*
X81800Y-51700D02*
X82100Y-52000D01*
X81800Y-50000D02*
X81800Y-51700D01*
X82100Y-49700D02*
X81800Y-50000D01*
X67000Y-53550D02*
X67000Y-53300D01*
X68100Y-51000D02*
X69000Y-51000D01*
X67600Y-51500D02*
X68100Y-51000D01*
X67600Y-52700D02*
X67600Y-51500D01*
X67000Y-53300D02*
X67600Y-52700D01*
X73400Y-47200D02*
X74141Y-47200D01*
X53900Y-47200D02*
X54641Y-47200D01*
X63300Y-47200D02*
X64141Y-47200D01*
X82900Y-47200D02*
X83741Y-47200D01*
X64559Y-53600D02*
X64559Y-54709D01*
X64559Y-54709D02*
X64650Y-54800D01*
X69159Y-53600D02*
X69159Y-54709D01*
X69159Y-54709D02*
X69250Y-54800D01*
X59959Y-53600D02*
X59959Y-54709D01*
X59959Y-54709D02*
X60050Y-54800D01*
X55259Y-53600D02*
X55259Y-54709D01*
X55259Y-54709D02*
X55350Y-54800D01*
X70600Y-48850D02*
X71591Y-48850D01*
X71591Y-48850D02*
X71600Y-48841D01*
X75259Y-47200D02*
X77050Y-47200D01*
X80850Y-47200D02*
X82100Y-47200D01*
X84859Y-47741D02*
X84859Y-47200D01*
X84700Y-47900D02*
X84859Y-47741D01*
X82800Y-47900D02*
X84700Y-47900D01*
X82100Y-47200D02*
X82800Y-47900D01*
X55759Y-47200D02*
X57550Y-47200D01*
X65259Y-47200D02*
X67050Y-47200D01*
M02*
