M48
;DRILL file {Pcbnew (2013-mar-13)-testing} date jeu. 09 mai 2013 09:34:08 CEST
;FORMAT={-:-/ absolute / inch / decimal}
FMAT,2
INCH,TZ
T1C0.025
T2C0.035
T3C0.040
T4C0.043
T5C0.052
%
G90
G05
M72
T1
X7.35Y-4.675
X7.5Y-5.1
X7.6Y-5.75
X7.775Y-5.1
X7.85Y-5.75
X8.1Y-5.1
X8.375Y-5.1
X8.65Y-5.6
X8.75Y-5.19
X8.84Y-5.555
X8.88Y-4.275
X8.93Y-4.275
X8.98Y-4.275
X9.03Y-4.275
X9.075Y-5.195
X9.08Y-4.425
X9.13Y-4.425
X9.175Y-5.65
X9.18Y-4.425
X9.23Y-4.425
X9.25Y-4.81
X9.25Y-5.525
X9.32Y-5.06
X9.35Y-4.
X9.35Y-4.39
X9.37Y-5.06
X9.375Y-4.71
X9.375Y-5.275
X9.39Y-4.9
X9.44Y-4.76
X9.53Y-4.98
X9.74Y-4.68
X9.99Y-4.755
X10.115Y-4.93
X10.18Y-4.865
X10.36Y-4.66
X10.55Y-5.37
T2
X9.865Y-5.64
X9.915Y-5.54
X9.965Y-5.64
X10.015Y-5.54
X10.065Y-5.64
X10.115Y-5.54
X10.165Y-5.64
X10.215Y-5.54
X10.525Y-5.64
X10.575Y-5.54
X10.625Y-5.64
X10.675Y-5.54
X10.725Y-5.64
X10.775Y-5.54
X10.825Y-5.64
X10.875Y-5.54
T3
X7.715Y-4.69
X7.715Y-4.79
X7.815Y-4.69
X7.815Y-4.79
X7.915Y-4.69
X7.915Y-4.79
X8.015Y-4.69
X8.015Y-4.79
X8.115Y-4.69
X8.115Y-4.79
X8.215Y-4.69
X8.215Y-4.79
X8.315Y-4.69
X8.315Y-4.79
X8.415Y-4.69
X8.415Y-4.79
X8.515Y-4.69
X8.515Y-4.79
X8.615Y-4.69
X8.615Y-4.79
X8.79Y-4.695
X8.79Y-4.795
X8.89Y-4.695
X8.89Y-4.795
X8.99Y-4.695
X8.99Y-4.795
X9.695Y-4.93
X9.695Y-5.03
X9.76Y-5.27
X9.795Y-4.93
X9.795Y-5.03
X9.86Y-5.27
X9.895Y-4.93
X9.895Y-5.03
X9.96Y-5.27
X9.995Y-4.93
X9.995Y-5.03
X10.16Y-5.27
X10.26Y-5.27
X10.54Y-5.19
X10.54Y-5.29
X10.64Y-5.19
X10.64Y-5.29
X10.74Y-5.19
X10.74Y-5.29
X10.82Y-4.355
X10.92Y-4.355
T4
X7.3453Y-3.4303
X7.3453Y-4.1587
X7.5303Y-3.5681
X7.5303Y-4.1587
X7.7453Y-3.4303
X7.7453Y-4.1587
X7.9303Y-3.5681
X7.9303Y-4.1587
X8.1453Y-3.4303
X8.1453Y-4.1587
X8.3303Y-3.5681
X8.3303Y-4.1587
X8.5453Y-3.4303
X8.5453Y-4.1587
X8.7303Y-3.5681
X8.7303Y-4.1587
X9.4953Y-3.4303
X9.4953Y-4.1587
X9.6803Y-3.5681
X9.6803Y-4.1587
X9.8953Y-3.4303
X9.8953Y-4.1587
X10.0803Y-3.5681
X10.0803Y-4.1587
X10.2953Y-3.4303
X10.2953Y-4.1587
X10.4803Y-3.5681
X10.4803Y-4.1587
X10.6953Y-3.4303
X10.6953Y-4.1587
X10.8803Y-3.5681
X10.8803Y-4.1587
T5
X7.302Y-3.1
X7.35Y-5.9
X7.499Y-3.1
X7.5016Y-5.9
X7.6531Y-5.9
X7.782Y-3.1
X7.8047Y-5.9
X7.9563Y-5.9
X7.979Y-3.1
X8.2Y-5.9
X8.262Y-3.1
X8.3516Y-5.9
X8.459Y-3.1
X8.5031Y-5.9
X8.6547Y-5.9
X8.742Y-3.1
X8.8063Y-5.9
X8.939Y-3.1
X9.302Y-3.1
X9.435Y-5.895
X9.499Y-3.1
X9.5866Y-5.895
X9.782Y-3.1
X9.979Y-3.1
X10.262Y-3.1
X10.459Y-3.1
X10.742Y-3.1
X10.939Y-3.1
T0
M30
