G04 (created by PCBNEW (2013-mar-13)-testing) date jeu. 09 mai 2013 09:34:03 CEST*
%MOIN*%
G04 Gerber Fmt 3.4, Leading zero omitted, Abs format*
%FSLAX34Y34*%
G01*
G70*
G90*
G04 APERTURE LIST*
%ADD10C,2.3622e-06*%
%ADD11C,0.015*%
%ADD12R,0.06X0.06*%
%ADD13C,0.06*%
%ADD14O,0.078X0.156*%
%ADD15C,0.1437*%
%ADD16R,0.0591X0.0591*%
%ADD17C,0.0591*%
%ADD18C,0.07*%
%ADD19R,0.07X0.07*%
%ADD20C,0.063*%
%ADD21C,0.1*%
%ADD22C,0.035*%
%ADD23C,0.0197*%
%ADD24C,0.1*%
%ADD25C,0.01*%
G04 APERTURE END LIST*
G54D10*
G54D11*
X71500Y-62000D02*
X110900Y-62000D01*
X71500Y-28000D02*
X110900Y-28000D01*
X110900Y-28000D02*
X110800Y-28000D01*
X110900Y-62000D02*
X110900Y-28000D01*
X71500Y-62000D02*
X71500Y-28000D01*
G54D12*
X77150Y-47900D03*
G54D13*
X77150Y-46900D03*
X78150Y-47900D03*
X78150Y-46900D03*
X79150Y-47900D03*
X79150Y-46900D03*
X80150Y-47900D03*
X80150Y-46900D03*
X81150Y-47900D03*
X81150Y-46900D03*
X82150Y-47900D03*
X82150Y-46900D03*
X83150Y-47900D03*
X83150Y-46900D03*
X84150Y-47900D03*
X84150Y-46900D03*
X85150Y-47900D03*
X85150Y-46900D03*
X86150Y-47900D03*
X86150Y-46900D03*
G54D12*
X102600Y-52700D03*
G54D13*
X101600Y-52700D03*
G54D14*
X82000Y-59000D03*
X83515Y-59000D03*
X85031Y-59000D03*
X86547Y-59000D03*
X88062Y-59000D03*
X73500Y-59000D03*
X75015Y-59000D03*
X76531Y-59000D03*
X78047Y-59000D03*
X79562Y-59000D03*
G54D12*
X107400Y-51900D03*
G54D13*
X107400Y-52900D03*
X106400Y-51900D03*
X106400Y-52900D03*
X105400Y-51900D03*
X105400Y-52900D03*
G54D14*
X89390Y-31000D03*
X87420Y-31000D03*
X84590Y-31000D03*
X82620Y-31000D03*
X79790Y-31000D03*
X77820Y-31000D03*
X94990Y-31000D03*
X93020Y-31000D03*
X74990Y-31000D03*
X73020Y-31000D03*
X99790Y-31000D03*
X97820Y-31000D03*
X109390Y-31000D03*
X107420Y-31000D03*
X104590Y-31000D03*
X102620Y-31000D03*
G54D12*
X99950Y-50300D03*
G54D13*
X99950Y-49300D03*
G54D12*
X98950Y-50300D03*
G54D13*
X98950Y-49300D03*
G54D12*
X96950Y-50300D03*
G54D13*
X96950Y-49300D03*
G54D12*
X108200Y-43550D03*
G54D13*
X109200Y-43550D03*
G54D12*
X97950Y-50300D03*
G54D13*
X97950Y-49300D03*
G54D15*
X102738Y-58900D03*
X98065Y-58900D03*
G54D16*
X98650Y-56400D03*
G54D17*
X99150Y-55400D03*
X99650Y-56400D03*
X100150Y-55400D03*
X100650Y-56400D03*
X101150Y-55400D03*
X101650Y-56400D03*
X102150Y-55400D03*
G54D15*
X109338Y-58900D03*
X104665Y-58900D03*
G54D16*
X105250Y-56400D03*
G54D17*
X105750Y-55400D03*
X106250Y-56400D03*
X106750Y-55400D03*
X107250Y-56400D03*
X107750Y-55400D03*
X108250Y-56400D03*
X108750Y-55400D03*
G54D12*
X89900Y-46950D03*
G54D13*
X89900Y-47950D03*
X88900Y-46950D03*
X88900Y-47950D03*
X87900Y-46950D03*
X87900Y-47950D03*
G54D18*
X97600Y-52700D03*
X98600Y-52700D03*
G54D19*
X99600Y-52700D03*
G54D20*
X73453Y-41587D03*
X75303Y-41587D03*
G54D21*
X75303Y-35681D03*
X73453Y-34303D03*
G54D20*
X77453Y-41587D03*
X79303Y-41587D03*
G54D21*
X79303Y-35681D03*
X77453Y-34303D03*
G54D20*
X81453Y-41587D03*
X83303Y-41587D03*
G54D21*
X83303Y-35681D03*
X81453Y-34303D03*
G54D20*
X85453Y-41587D03*
X87303Y-41587D03*
G54D21*
X87303Y-35681D03*
X85453Y-34303D03*
G54D20*
X94953Y-41587D03*
X96803Y-41587D03*
G54D21*
X96803Y-35681D03*
X94953Y-34303D03*
G54D20*
X98953Y-41587D03*
X100803Y-41587D03*
G54D21*
X100803Y-35681D03*
X98953Y-34303D03*
G54D20*
X102953Y-41587D03*
X104803Y-41587D03*
G54D21*
X104803Y-35681D03*
X102953Y-34303D03*
G54D20*
X106953Y-41587D03*
X108803Y-41587D03*
G54D21*
X108803Y-35681D03*
X106953Y-34303D03*
G54D14*
X94350Y-58950D03*
X95865Y-58950D03*
G54D22*
X93500Y-40000D03*
X93750Y-47100D03*
X99900Y-47550D03*
X75000Y-51000D03*
X77750Y-51000D03*
X81000Y-51000D03*
X83750Y-51000D03*
X87500Y-51900D03*
X90750Y-51950D03*
X93750Y-52750D03*
X78500Y-57500D03*
X76000Y-57500D03*
X91750Y-56500D03*
X103600Y-46600D03*
X92500Y-48100D03*
X94400Y-47600D03*
X93500Y-43900D03*
X73500Y-46750D03*
X86500Y-56000D03*
X88400Y-55550D03*
X92500Y-55250D03*
X95300Y-49800D03*
X101150Y-49300D03*
X101800Y-48650D03*
X88800Y-42750D03*
X89300Y-42750D03*
X89800Y-42750D03*
X90300Y-42750D03*
X90800Y-44250D03*
X91300Y-44250D03*
X91800Y-44250D03*
X92300Y-44250D03*
X97400Y-46800D03*
X93900Y-49000D03*
X93700Y-50600D03*
X105500Y-53700D03*
X93200Y-50600D03*
G54D23*
X93500Y-40000D02*
X93500Y-41587D01*
X93500Y-41587D02*
X93500Y-41500D01*
X93500Y-41500D02*
X93500Y-41587D01*
X100700Y-42450D02*
X100700Y-42700D01*
X100700Y-42700D02*
X100700Y-43400D01*
X100700Y-42450D02*
X100700Y-42500D01*
X100700Y-42500D02*
X100700Y-42450D01*
X97600Y-52700D02*
X97600Y-52000D01*
X97600Y-52000D02*
X98200Y-51400D01*
X98200Y-51400D02*
X100300Y-51400D01*
X100300Y-51400D02*
X100700Y-51000D01*
X100700Y-51000D02*
X100700Y-43400D01*
X100700Y-43400D02*
X100700Y-43334D01*
X94953Y-41587D02*
X95816Y-42450D01*
X96050Y-42450D02*
X98900Y-42450D01*
X96050Y-42450D02*
X95816Y-42450D01*
X98900Y-42450D02*
X98900Y-41640D01*
X98900Y-41640D02*
X98953Y-41587D01*
X107000Y-42450D02*
X107000Y-41634D01*
X107000Y-41634D02*
X106953Y-41587D01*
X103000Y-42450D02*
X103000Y-41634D01*
X103000Y-41634D02*
X102953Y-41587D01*
X98900Y-41640D02*
X98953Y-41587D01*
X85400Y-42450D02*
X85400Y-41640D01*
X85400Y-41640D02*
X85453Y-41587D01*
X81400Y-42450D02*
X81400Y-41640D01*
X81400Y-41640D02*
X81453Y-41587D01*
X99400Y-42450D02*
X98900Y-42450D01*
X99400Y-42450D02*
X100700Y-42450D01*
X100700Y-42450D02*
X100950Y-42450D01*
X100950Y-42450D02*
X101150Y-42450D01*
X101150Y-42450D02*
X103000Y-42450D01*
X77500Y-42450D02*
X81400Y-42450D01*
X81400Y-42450D02*
X85400Y-42450D01*
X85400Y-42450D02*
X88150Y-42450D01*
X88150Y-42450D02*
X89013Y-41587D01*
X89013Y-41587D02*
X93500Y-41587D01*
X93500Y-41587D02*
X93900Y-41587D01*
X93900Y-41587D02*
X94953Y-41587D01*
X77500Y-42450D02*
X77500Y-41634D01*
X77500Y-41634D02*
X77453Y-41587D01*
X76453Y-42450D02*
X73850Y-42450D01*
X77500Y-42450D02*
X76500Y-42450D01*
X76453Y-42450D02*
X76500Y-42450D01*
X73453Y-42053D02*
X73453Y-41587D01*
X73850Y-42450D02*
X73453Y-42053D01*
X103500Y-42450D02*
X107000Y-42450D01*
X107000Y-42450D02*
X107450Y-42450D01*
X107450Y-42450D02*
X107850Y-42450D01*
X108200Y-42800D02*
X108200Y-43550D01*
X107850Y-42450D02*
X108200Y-42800D01*
X103000Y-42450D02*
X103500Y-42450D01*
X99600Y-52700D02*
X101600Y-52700D01*
X93300Y-46450D02*
X93450Y-46450D01*
X93750Y-46750D02*
X93750Y-47100D01*
X93450Y-46450D02*
X93750Y-46750D01*
X87900Y-47950D02*
X87400Y-47950D01*
X87100Y-47650D02*
X87100Y-46450D01*
X87400Y-47950D02*
X87100Y-47650D01*
X86150Y-46900D02*
X86600Y-46450D01*
X86600Y-46450D02*
X87100Y-46450D01*
X87100Y-46450D02*
X93300Y-46450D01*
X93300Y-46450D02*
X93350Y-46450D01*
G54D24*
X75303Y-35681D02*
X75303Y-31313D01*
X75303Y-31313D02*
X74990Y-31000D01*
X73020Y-31000D02*
X73020Y-33870D01*
X73020Y-33870D02*
X73453Y-34303D01*
X79303Y-35681D02*
X79303Y-32597D01*
X79790Y-32110D02*
X79790Y-31000D01*
X79303Y-32597D02*
X79790Y-32110D01*
X77453Y-34303D02*
X77453Y-31367D01*
X77453Y-31367D02*
X77820Y-31000D01*
X83303Y-35681D02*
X83303Y-34097D01*
X84590Y-32810D02*
X84590Y-31000D01*
X83303Y-34097D02*
X84590Y-32810D01*
X81453Y-34303D02*
X81453Y-33047D01*
X82620Y-31880D02*
X82620Y-31000D01*
X81453Y-33047D02*
X82620Y-31880D01*
X87303Y-35681D02*
X87303Y-35597D01*
X89390Y-33510D02*
X89390Y-31000D01*
X87303Y-35597D02*
X89390Y-33510D01*
X85453Y-34303D02*
X85453Y-34247D01*
X87420Y-32280D02*
X87420Y-31000D01*
X85453Y-34247D02*
X87420Y-32280D01*
X94990Y-31000D02*
X94990Y-31490D01*
X96803Y-33303D02*
X96803Y-35681D01*
X94990Y-31490D02*
X96803Y-33303D01*
X93020Y-31000D02*
X93020Y-33020D01*
X94303Y-34303D02*
X94953Y-34303D01*
X93020Y-33020D02*
X94303Y-34303D01*
X99790Y-31000D02*
X99800Y-31000D01*
X100803Y-32003D02*
X100803Y-35681D01*
X99800Y-31000D02*
X100803Y-32003D01*
X97820Y-31000D02*
X97820Y-32020D01*
X98953Y-33153D02*
X98953Y-34303D01*
X97820Y-32020D02*
X98953Y-33153D01*
X104803Y-35681D02*
X104803Y-31213D01*
X104803Y-31213D02*
X104590Y-31000D01*
X102620Y-31000D02*
X102620Y-33970D01*
X102620Y-33970D02*
X102953Y-34303D01*
X109390Y-31000D02*
X109390Y-35094D01*
X109390Y-35094D02*
X108803Y-35681D01*
X106953Y-34303D02*
X106953Y-31467D01*
X106953Y-31467D02*
X107420Y-31000D01*
G54D25*
X105400Y-51900D02*
X105450Y-51900D01*
X107250Y-54800D02*
X107250Y-56400D01*
X105900Y-53450D02*
X107250Y-54800D01*
X105900Y-52350D02*
X105900Y-53450D01*
X105450Y-51900D02*
X105900Y-52350D01*
G54D23*
X102600Y-52700D02*
X102600Y-51600D01*
X107400Y-51300D02*
X107400Y-51900D01*
X106900Y-50800D02*
X107400Y-51300D01*
X103400Y-50800D02*
X106900Y-50800D01*
X102600Y-51600D02*
X103400Y-50800D01*
X108750Y-55400D02*
X108750Y-52650D01*
X108750Y-52650D02*
X108000Y-51900D01*
X108000Y-51900D02*
X107400Y-51900D01*
X108750Y-55400D02*
X108750Y-55900D01*
X108750Y-55900D02*
X108250Y-56400D01*
X102600Y-52700D02*
X102600Y-54950D01*
X102600Y-54950D02*
X102150Y-55400D01*
X101650Y-56400D02*
X101650Y-56350D01*
X102150Y-55850D02*
X102150Y-55400D01*
X101650Y-56350D02*
X102150Y-55850D01*
G54D25*
X99950Y-47600D02*
X99950Y-49300D01*
X99900Y-47550D02*
X99950Y-47600D01*
X75000Y-51000D02*
X75500Y-51000D01*
X78150Y-47900D02*
X78150Y-48350D01*
X78150Y-48350D02*
X75500Y-51000D01*
X79150Y-49600D02*
X79150Y-47900D01*
X77750Y-51000D02*
X79150Y-49600D01*
X80150Y-50150D02*
X80150Y-47900D01*
X81000Y-51000D02*
X80150Y-50150D01*
X81150Y-48400D02*
X81150Y-47900D01*
X83750Y-51000D02*
X81150Y-48400D01*
X87000Y-50750D02*
X87150Y-50750D01*
X87000Y-50750D02*
X84500Y-50750D01*
X84500Y-50750D02*
X82150Y-48400D01*
X82150Y-47900D02*
X82150Y-48400D01*
X87500Y-51100D02*
X87500Y-51900D01*
X87150Y-50750D02*
X87500Y-51100D01*
X90000Y-50500D02*
X90150Y-50500D01*
X90000Y-50500D02*
X85250Y-50500D01*
X85250Y-50500D02*
X83150Y-48400D01*
X83150Y-47900D02*
X83150Y-48400D01*
X90750Y-51100D02*
X90750Y-51950D01*
X90150Y-50500D02*
X90750Y-51100D01*
X84150Y-48400D02*
X84150Y-47900D01*
X86000Y-50250D02*
X84150Y-48400D01*
X91250Y-50250D02*
X86000Y-50250D01*
X93750Y-52750D02*
X91250Y-50250D01*
G54D23*
X79562Y-58562D02*
X79562Y-59000D01*
X78500Y-57500D02*
X79562Y-58562D01*
X76000Y-57500D02*
X78500Y-57500D01*
X88062Y-59000D02*
X89250Y-59000D01*
X91750Y-56500D02*
X89250Y-59000D01*
G54D25*
X103600Y-46600D02*
X105200Y-46600D01*
X105200Y-46600D02*
X105300Y-46600D01*
X94400Y-47600D02*
X93200Y-47600D01*
X92700Y-48100D02*
X92500Y-48100D01*
X93200Y-47600D02*
X92700Y-48100D01*
X94400Y-44800D02*
X94400Y-47600D01*
X93500Y-43900D02*
X94400Y-44800D01*
G54D23*
X73500Y-46750D02*
X73500Y-59000D01*
X83515Y-59000D02*
X83515Y-58984D01*
X83515Y-58984D02*
X86500Y-56000D01*
X85031Y-58718D02*
X87500Y-56250D01*
X85031Y-58718D02*
X85031Y-59000D01*
X88150Y-55600D02*
X87500Y-56250D01*
X88350Y-55600D02*
X88150Y-55600D01*
X88400Y-55550D02*
X88350Y-55600D01*
X89547Y-56000D02*
X86547Y-59000D01*
X91750Y-56000D02*
X89547Y-56000D01*
X92000Y-55750D02*
X91750Y-56000D01*
X92500Y-55250D02*
X92000Y-55750D01*
G54D25*
X94150Y-49750D02*
X95250Y-49750D01*
X95250Y-49750D02*
X95300Y-49800D01*
X101150Y-49300D02*
X101800Y-48650D01*
X86050Y-49750D02*
X94150Y-49750D01*
X94150Y-49750D02*
X94200Y-49750D01*
X85150Y-46900D02*
X85150Y-46950D01*
X84650Y-48350D02*
X86050Y-49750D01*
X84650Y-47450D02*
X84650Y-48350D01*
X85150Y-46950D02*
X84650Y-47450D01*
X87650Y-44400D02*
X88450Y-44400D01*
X77150Y-46900D02*
X77150Y-45100D01*
X88800Y-44050D02*
X88800Y-42750D01*
X88450Y-44400D02*
X88800Y-44050D01*
X77850Y-44400D02*
X87650Y-44400D01*
X77150Y-45100D02*
X77850Y-44400D01*
X88200Y-44650D02*
X89000Y-44650D01*
X78150Y-45250D02*
X78750Y-44650D01*
X78750Y-44650D02*
X88200Y-44650D01*
X89000Y-44650D02*
X89300Y-44350D01*
X89300Y-44350D02*
X89300Y-42750D01*
X78150Y-45250D02*
X78150Y-46900D01*
X89500Y-44900D02*
X88700Y-44900D01*
X79150Y-45400D02*
X79650Y-44900D01*
X79650Y-44900D02*
X88700Y-44900D01*
X79150Y-45400D02*
X79150Y-46900D01*
X89500Y-44900D02*
X89550Y-44850D01*
X89800Y-44600D02*
X89800Y-42750D01*
X89500Y-44900D02*
X89550Y-44850D01*
X89550Y-44850D02*
X89800Y-44600D01*
X89200Y-45150D02*
X90000Y-45150D01*
X80150Y-46900D02*
X80150Y-45550D01*
X80150Y-45550D02*
X80550Y-45150D01*
X80550Y-45150D02*
X89200Y-45150D01*
X90000Y-45150D02*
X90300Y-44850D01*
X90300Y-44850D02*
X90300Y-42750D01*
X89500Y-45400D02*
X90350Y-45400D01*
X90350Y-45400D02*
X90800Y-44950D01*
X90800Y-44950D02*
X90800Y-44250D01*
X81150Y-46900D02*
X81150Y-45800D01*
X81550Y-45400D02*
X89500Y-45400D01*
X89500Y-45400D02*
X89550Y-45400D01*
X81150Y-45800D02*
X81550Y-45400D01*
X90150Y-45650D02*
X90950Y-45650D01*
X82150Y-45950D02*
X82450Y-45650D01*
X82450Y-45650D02*
X90150Y-45650D01*
X90950Y-45650D02*
X91300Y-45300D01*
X91300Y-45300D02*
X91300Y-44250D01*
X82150Y-45950D02*
X82150Y-46900D01*
X90550Y-45900D02*
X91350Y-45900D01*
X83150Y-46200D02*
X83450Y-45900D01*
X83450Y-45900D02*
X90550Y-45900D01*
X91350Y-45900D02*
X91800Y-45450D01*
X91800Y-45450D02*
X91800Y-44250D01*
X83150Y-46200D02*
X83150Y-46900D01*
X90800Y-46150D02*
X91600Y-46150D01*
X84150Y-46400D02*
X84400Y-46150D01*
X84400Y-46150D02*
X90800Y-46150D01*
X91600Y-46150D02*
X92300Y-45450D01*
X92300Y-45450D02*
X92300Y-44250D01*
X84150Y-46400D02*
X84150Y-46900D01*
X97400Y-46800D02*
X95200Y-49000D01*
X95200Y-49000D02*
X93900Y-49000D01*
X93100Y-49000D02*
X93200Y-49000D01*
X93100Y-49000D02*
X90850Y-49000D01*
X93200Y-49000D02*
X93900Y-49000D01*
X89900Y-46950D02*
X90350Y-46950D01*
X90850Y-47450D02*
X90850Y-49000D01*
X90350Y-46950D02*
X90850Y-47450D01*
X90850Y-49000D02*
X85600Y-49000D01*
X85150Y-48550D02*
X85150Y-47900D01*
X85600Y-49000D02*
X85150Y-48550D01*
X104400Y-57000D02*
X104400Y-56100D01*
X106400Y-51700D02*
X106400Y-51900D01*
X105900Y-51200D02*
X106400Y-51700D01*
X104900Y-51200D02*
X105900Y-51200D01*
X104400Y-51700D02*
X104900Y-51200D01*
X104400Y-56100D02*
X104400Y-51700D01*
X104400Y-57000D02*
X104400Y-56950D01*
X104400Y-56950D02*
X104400Y-57000D01*
X106250Y-56400D02*
X106250Y-56750D01*
X106000Y-57000D02*
X104400Y-57000D01*
X104400Y-57000D02*
X104350Y-57000D01*
X104350Y-57000D02*
X103500Y-57000D01*
X106250Y-56750D02*
X106000Y-57000D01*
X97400Y-54300D02*
X98850Y-55750D01*
X93700Y-50600D02*
X94700Y-51600D01*
X94700Y-51600D02*
X97400Y-54300D01*
X99650Y-56150D02*
X99650Y-56400D01*
X99350Y-55850D02*
X99650Y-56150D01*
X98950Y-55850D02*
X99350Y-55850D01*
X98850Y-55750D02*
X98950Y-55850D01*
X99650Y-56400D02*
X99650Y-56650D01*
X100000Y-57000D02*
X103500Y-57000D01*
X99650Y-56650D02*
X100000Y-57000D01*
X105250Y-56400D02*
X105250Y-54350D01*
X105500Y-53750D02*
X105500Y-53700D01*
X105250Y-54000D02*
X105500Y-53750D01*
X105250Y-54350D02*
X105250Y-54000D01*
X98650Y-56400D02*
X98650Y-56050D01*
X98650Y-56050D02*
X97175Y-54575D01*
X93200Y-50600D02*
X96300Y-53700D01*
X96300Y-53700D02*
X97175Y-54575D01*
X97175Y-54575D02*
X97200Y-54600D01*
G54D10*
G36*
X90550Y-48700D02*
X90454Y-48700D01*
X90454Y-48031D01*
X90443Y-47813D01*
X90381Y-47662D01*
X90285Y-47634D01*
X89970Y-47950D01*
X90285Y-48265D01*
X90381Y-48237D01*
X90454Y-48031D01*
X90454Y-48700D01*
X90215Y-48700D01*
X90215Y-48335D01*
X89900Y-48020D01*
X89584Y-48335D01*
X89612Y-48431D01*
X89818Y-48504D01*
X90036Y-48493D01*
X90187Y-48431D01*
X90215Y-48335D01*
X90215Y-48700D01*
X86704Y-48700D01*
X86704Y-47981D01*
X86693Y-47763D01*
X86631Y-47612D01*
X86535Y-47584D01*
X86220Y-47900D01*
X86535Y-48215D01*
X86631Y-48187D01*
X86704Y-47981D01*
X86704Y-48700D01*
X86465Y-48700D01*
X86465Y-48285D01*
X86150Y-47970D01*
X85834Y-48285D01*
X85862Y-48381D01*
X86068Y-48454D01*
X86286Y-48443D01*
X86437Y-48381D01*
X86465Y-48285D01*
X86465Y-48700D01*
X85724Y-48700D01*
X85450Y-48425D01*
X85450Y-48371D01*
X85461Y-48366D01*
X85615Y-48211D01*
X85647Y-48136D01*
X85668Y-48187D01*
X85764Y-48215D01*
X86079Y-47900D01*
X85764Y-47584D01*
X85668Y-47612D01*
X85649Y-47667D01*
X85616Y-47588D01*
X85461Y-47434D01*
X85380Y-47400D01*
X85461Y-47366D01*
X85615Y-47211D01*
X85649Y-47130D01*
X85683Y-47211D01*
X85838Y-47365D01*
X85913Y-47397D01*
X85862Y-47418D01*
X85834Y-47514D01*
X86150Y-47829D01*
X86465Y-47514D01*
X86437Y-47418D01*
X86382Y-47399D01*
X86461Y-47366D01*
X86615Y-47211D01*
X86699Y-47009D01*
X86700Y-46842D01*
X86744Y-46798D01*
X86751Y-46798D01*
X86751Y-47650D01*
X86778Y-47783D01*
X86853Y-47896D01*
X87153Y-48196D01*
X87153Y-48196D01*
X87266Y-48271D01*
X87399Y-48298D01*
X87399Y-48298D01*
X87400Y-48298D01*
X87470Y-48298D01*
X87588Y-48415D01*
X87790Y-48499D01*
X88008Y-48500D01*
X88211Y-48416D01*
X88365Y-48261D01*
X88399Y-48180D01*
X88433Y-48261D01*
X88588Y-48415D01*
X88790Y-48499D01*
X89008Y-48500D01*
X89211Y-48416D01*
X89365Y-48261D01*
X89397Y-48186D01*
X89418Y-48237D01*
X89514Y-48265D01*
X89829Y-47950D01*
X89514Y-47634D01*
X89418Y-47662D01*
X89399Y-47717D01*
X89366Y-47638D01*
X89211Y-47484D01*
X89130Y-47450D01*
X89211Y-47416D01*
X89349Y-47277D01*
X89349Y-47299D01*
X89387Y-47391D01*
X89458Y-47461D01*
X89550Y-47499D01*
X89603Y-47500D01*
X89584Y-47564D01*
X89900Y-47879D01*
X90215Y-47564D01*
X90196Y-47500D01*
X90249Y-47500D01*
X90341Y-47462D01*
X90389Y-47413D01*
X90550Y-47574D01*
X90550Y-48700D01*
X90550Y-48700D01*
G37*
G54D25*
X90550Y-48700D02*
X90454Y-48700D01*
X90454Y-48031D01*
X90443Y-47813D01*
X90381Y-47662D01*
X90285Y-47634D01*
X89970Y-47950D01*
X90285Y-48265D01*
X90381Y-48237D01*
X90454Y-48031D01*
X90454Y-48700D01*
X90215Y-48700D01*
X90215Y-48335D01*
X89900Y-48020D01*
X89584Y-48335D01*
X89612Y-48431D01*
X89818Y-48504D01*
X90036Y-48493D01*
X90187Y-48431D01*
X90215Y-48335D01*
X90215Y-48700D01*
X86704Y-48700D01*
X86704Y-47981D01*
X86693Y-47763D01*
X86631Y-47612D01*
X86535Y-47584D01*
X86220Y-47900D01*
X86535Y-48215D01*
X86631Y-48187D01*
X86704Y-47981D01*
X86704Y-48700D01*
X86465Y-48700D01*
X86465Y-48285D01*
X86150Y-47970D01*
X85834Y-48285D01*
X85862Y-48381D01*
X86068Y-48454D01*
X86286Y-48443D01*
X86437Y-48381D01*
X86465Y-48285D01*
X86465Y-48700D01*
X85724Y-48700D01*
X85450Y-48425D01*
X85450Y-48371D01*
X85461Y-48366D01*
X85615Y-48211D01*
X85647Y-48136D01*
X85668Y-48187D01*
X85764Y-48215D01*
X86079Y-47900D01*
X85764Y-47584D01*
X85668Y-47612D01*
X85649Y-47667D01*
X85616Y-47588D01*
X85461Y-47434D01*
X85380Y-47400D01*
X85461Y-47366D01*
X85615Y-47211D01*
X85649Y-47130D01*
X85683Y-47211D01*
X85838Y-47365D01*
X85913Y-47397D01*
X85862Y-47418D01*
X85834Y-47514D01*
X86150Y-47829D01*
X86465Y-47514D01*
X86437Y-47418D01*
X86382Y-47399D01*
X86461Y-47366D01*
X86615Y-47211D01*
X86699Y-47009D01*
X86700Y-46842D01*
X86744Y-46798D01*
X86751Y-46798D01*
X86751Y-47650D01*
X86778Y-47783D01*
X86853Y-47896D01*
X87153Y-48196D01*
X87153Y-48196D01*
X87266Y-48271D01*
X87399Y-48298D01*
X87399Y-48298D01*
X87400Y-48298D01*
X87470Y-48298D01*
X87588Y-48415D01*
X87790Y-48499D01*
X88008Y-48500D01*
X88211Y-48416D01*
X88365Y-48261D01*
X88399Y-48180D01*
X88433Y-48261D01*
X88588Y-48415D01*
X88790Y-48499D01*
X89008Y-48500D01*
X89211Y-48416D01*
X89365Y-48261D01*
X89397Y-48186D01*
X89418Y-48237D01*
X89514Y-48265D01*
X89829Y-47950D01*
X89514Y-47634D01*
X89418Y-47662D01*
X89399Y-47717D01*
X89366Y-47638D01*
X89211Y-47484D01*
X89130Y-47450D01*
X89211Y-47416D01*
X89349Y-47277D01*
X89349Y-47299D01*
X89387Y-47391D01*
X89458Y-47461D01*
X89550Y-47499D01*
X89603Y-47500D01*
X89584Y-47564D01*
X89900Y-47879D01*
X90215Y-47564D01*
X90196Y-47500D01*
X90249Y-47500D01*
X90341Y-47462D01*
X90389Y-47413D01*
X90550Y-47574D01*
X90550Y-48700D01*
G54D10*
G36*
X106950Y-55933D02*
X106941Y-55937D01*
X106787Y-56090D01*
X106750Y-56181D01*
X106712Y-56091D01*
X106559Y-55937D01*
X106358Y-55854D01*
X106141Y-55854D01*
X105941Y-55937D01*
X105795Y-56082D01*
X105795Y-56054D01*
X105757Y-55963D01*
X105741Y-55946D01*
X105886Y-55939D01*
X106035Y-55877D01*
X106061Y-55782D01*
X105750Y-55470D01*
X105744Y-55476D01*
X105673Y-55405D01*
X105679Y-55400D01*
X105673Y-55394D01*
X105744Y-55323D01*
X105750Y-55329D01*
X106061Y-55017D01*
X106035Y-54922D01*
X105830Y-54849D01*
X105613Y-54860D01*
X105550Y-54887D01*
X105550Y-54350D01*
X105550Y-54125D01*
X105584Y-54125D01*
X105740Y-54060D01*
X105860Y-53941D01*
X105891Y-53865D01*
X106900Y-54874D01*
X106830Y-54849D01*
X106613Y-54860D01*
X106464Y-54922D01*
X106438Y-55017D01*
X106750Y-55329D01*
X106755Y-55323D01*
X106826Y-55394D01*
X106820Y-55400D01*
X106826Y-55405D01*
X106755Y-55476D01*
X106750Y-55470D01*
X106679Y-55541D01*
X106679Y-55400D01*
X106367Y-55088D01*
X106272Y-55114D01*
X106251Y-55173D01*
X106227Y-55114D01*
X106132Y-55088D01*
X105820Y-55400D01*
X106132Y-55711D01*
X106227Y-55685D01*
X106248Y-55626D01*
X106272Y-55685D01*
X106367Y-55711D01*
X106679Y-55400D01*
X106679Y-55541D01*
X106438Y-55782D01*
X106464Y-55877D01*
X106669Y-55950D01*
X106886Y-55939D01*
X106950Y-55912D01*
X106950Y-55933D01*
X106950Y-55933D01*
G37*
G54D25*
X106950Y-55933D02*
X106941Y-55937D01*
X106787Y-56090D01*
X106750Y-56181D01*
X106712Y-56091D01*
X106559Y-55937D01*
X106358Y-55854D01*
X106141Y-55854D01*
X105941Y-55937D01*
X105795Y-56082D01*
X105795Y-56054D01*
X105757Y-55963D01*
X105741Y-55946D01*
X105886Y-55939D01*
X106035Y-55877D01*
X106061Y-55782D01*
X105750Y-55470D01*
X105744Y-55476D01*
X105673Y-55405D01*
X105679Y-55400D01*
X105673Y-55394D01*
X105744Y-55323D01*
X105750Y-55329D01*
X106061Y-55017D01*
X106035Y-54922D01*
X105830Y-54849D01*
X105613Y-54860D01*
X105550Y-54887D01*
X105550Y-54350D01*
X105550Y-54125D01*
X105584Y-54125D01*
X105740Y-54060D01*
X105860Y-53941D01*
X105891Y-53865D01*
X106900Y-54874D01*
X106830Y-54849D01*
X106613Y-54860D01*
X106464Y-54922D01*
X106438Y-55017D01*
X106750Y-55329D01*
X106755Y-55323D01*
X106826Y-55394D01*
X106820Y-55400D01*
X106826Y-55405D01*
X106755Y-55476D01*
X106750Y-55470D01*
X106679Y-55541D01*
X106679Y-55400D01*
X106367Y-55088D01*
X106272Y-55114D01*
X106251Y-55173D01*
X106227Y-55114D01*
X106132Y-55088D01*
X105820Y-55400D01*
X106132Y-55711D01*
X106227Y-55685D01*
X106248Y-55626D01*
X106272Y-55685D01*
X106367Y-55711D01*
X106679Y-55400D01*
X106679Y-55541D01*
X106438Y-55782D01*
X106464Y-55877D01*
X106669Y-55950D01*
X106886Y-55939D01*
X106950Y-55912D01*
X106950Y-55933D01*
G54D10*
G36*
X108401Y-54977D02*
X108287Y-55090D01*
X108252Y-55175D01*
X108227Y-55114D01*
X108132Y-55088D01*
X107820Y-55400D01*
X108132Y-55711D01*
X108227Y-55685D01*
X108250Y-55620D01*
X108287Y-55708D01*
X108367Y-55789D01*
X108302Y-55854D01*
X108141Y-55854D01*
X107941Y-55937D01*
X107787Y-56090D01*
X107750Y-56181D01*
X107712Y-56091D01*
X107559Y-55937D01*
X107550Y-55933D01*
X107550Y-55907D01*
X107669Y-55950D01*
X107886Y-55939D01*
X108035Y-55877D01*
X108061Y-55782D01*
X107750Y-55470D01*
X107744Y-55476D01*
X107673Y-55405D01*
X107679Y-55400D01*
X107673Y-55394D01*
X107744Y-55323D01*
X107750Y-55329D01*
X108061Y-55017D01*
X108035Y-54922D01*
X107954Y-54893D01*
X107954Y-52981D01*
X107943Y-52763D01*
X107881Y-52612D01*
X107785Y-52584D01*
X107470Y-52900D01*
X107785Y-53215D01*
X107881Y-53187D01*
X107954Y-52981D01*
X107954Y-54893D01*
X107830Y-54849D01*
X107715Y-54855D01*
X107715Y-53285D01*
X107400Y-52970D01*
X107084Y-53285D01*
X107112Y-53381D01*
X107318Y-53454D01*
X107536Y-53443D01*
X107687Y-53381D01*
X107715Y-53285D01*
X107715Y-54855D01*
X107613Y-54860D01*
X107550Y-54887D01*
X107550Y-54800D01*
X107527Y-54685D01*
X107462Y-54587D01*
X107462Y-54587D01*
X106324Y-53449D01*
X106508Y-53450D01*
X106711Y-53366D01*
X106865Y-53211D01*
X106897Y-53136D01*
X106918Y-53187D01*
X107014Y-53215D01*
X107329Y-52900D01*
X107014Y-52584D01*
X106918Y-52612D01*
X106899Y-52667D01*
X106866Y-52588D01*
X106711Y-52434D01*
X106630Y-52400D01*
X106711Y-52366D01*
X106849Y-52227D01*
X106849Y-52249D01*
X106887Y-52341D01*
X106958Y-52411D01*
X107050Y-52449D01*
X107103Y-52450D01*
X107084Y-52514D01*
X107400Y-52829D01*
X107715Y-52514D01*
X107696Y-52450D01*
X107749Y-52450D01*
X107841Y-52412D01*
X107911Y-52341D01*
X107922Y-52315D01*
X108401Y-52794D01*
X108401Y-54977D01*
X108401Y-54977D01*
G37*
G54D25*
X108401Y-54977D02*
X108287Y-55090D01*
X108252Y-55175D01*
X108227Y-55114D01*
X108132Y-55088D01*
X107820Y-55400D01*
X108132Y-55711D01*
X108227Y-55685D01*
X108250Y-55620D01*
X108287Y-55708D01*
X108367Y-55789D01*
X108302Y-55854D01*
X108141Y-55854D01*
X107941Y-55937D01*
X107787Y-56090D01*
X107750Y-56181D01*
X107712Y-56091D01*
X107559Y-55937D01*
X107550Y-55933D01*
X107550Y-55907D01*
X107669Y-55950D01*
X107886Y-55939D01*
X108035Y-55877D01*
X108061Y-55782D01*
X107750Y-55470D01*
X107744Y-55476D01*
X107673Y-55405D01*
X107679Y-55400D01*
X107673Y-55394D01*
X107744Y-55323D01*
X107750Y-55329D01*
X108061Y-55017D01*
X108035Y-54922D01*
X107954Y-54893D01*
X107954Y-52981D01*
X107943Y-52763D01*
X107881Y-52612D01*
X107785Y-52584D01*
X107470Y-52900D01*
X107785Y-53215D01*
X107881Y-53187D01*
X107954Y-52981D01*
X107954Y-54893D01*
X107830Y-54849D01*
X107715Y-54855D01*
X107715Y-53285D01*
X107400Y-52970D01*
X107084Y-53285D01*
X107112Y-53381D01*
X107318Y-53454D01*
X107536Y-53443D01*
X107687Y-53381D01*
X107715Y-53285D01*
X107715Y-54855D01*
X107613Y-54860D01*
X107550Y-54887D01*
X107550Y-54800D01*
X107527Y-54685D01*
X107462Y-54587D01*
X107462Y-54587D01*
X106324Y-53449D01*
X106508Y-53450D01*
X106711Y-53366D01*
X106865Y-53211D01*
X106897Y-53136D01*
X106918Y-53187D01*
X107014Y-53215D01*
X107329Y-52900D01*
X107014Y-52584D01*
X106918Y-52612D01*
X106899Y-52667D01*
X106866Y-52588D01*
X106711Y-52434D01*
X106630Y-52400D01*
X106711Y-52366D01*
X106849Y-52227D01*
X106849Y-52249D01*
X106887Y-52341D01*
X106958Y-52411D01*
X107050Y-52449D01*
X107103Y-52450D01*
X107084Y-52514D01*
X107400Y-52829D01*
X107715Y-52514D01*
X107696Y-52450D01*
X107749Y-52450D01*
X107841Y-52412D01*
X107911Y-52341D01*
X107922Y-52315D01*
X108401Y-52794D01*
X108401Y-54977D01*
G54D10*
G36*
X110550Y-61550D02*
X110306Y-61550D01*
X110306Y-58708D01*
X110159Y-58352D01*
X109887Y-58079D01*
X109754Y-58024D01*
X109754Y-43631D01*
X109743Y-43413D01*
X109681Y-43262D01*
X109585Y-43234D01*
X109515Y-43305D01*
X109515Y-43164D01*
X109487Y-43068D01*
X109368Y-43026D01*
X109368Y-41475D01*
X109282Y-41267D01*
X109123Y-41108D01*
X108915Y-41022D01*
X108691Y-41021D01*
X108483Y-41107D01*
X108324Y-41266D01*
X108238Y-41474D01*
X108237Y-41698D01*
X108323Y-41906D01*
X108482Y-42065D01*
X108690Y-42151D01*
X108914Y-42152D01*
X109122Y-42066D01*
X109281Y-41907D01*
X109367Y-41699D01*
X109368Y-41475D01*
X109368Y-43026D01*
X109281Y-42995D01*
X109063Y-43006D01*
X108912Y-43068D01*
X108884Y-43164D01*
X109200Y-43479D01*
X109515Y-43164D01*
X109515Y-43305D01*
X109270Y-43550D01*
X109585Y-43865D01*
X109681Y-43837D01*
X109754Y-43631D01*
X109754Y-58024D01*
X109531Y-57931D01*
X109515Y-57931D01*
X109515Y-43935D01*
X109200Y-43620D01*
X108884Y-43935D01*
X108912Y-44031D01*
X109118Y-44104D01*
X109336Y-44093D01*
X109487Y-44031D01*
X109515Y-43935D01*
X109515Y-57931D01*
X109146Y-57931D01*
X108790Y-58078D01*
X108517Y-58350D01*
X108369Y-58706D01*
X108369Y-59091D01*
X108516Y-59447D01*
X108788Y-59720D01*
X109144Y-59868D01*
X109529Y-59868D01*
X109885Y-59721D01*
X110158Y-59449D01*
X110306Y-59093D01*
X110306Y-58708D01*
X110306Y-61550D01*
X105633Y-61550D01*
X105633Y-58708D01*
X105486Y-58352D01*
X105214Y-58079D01*
X104858Y-57931D01*
X104473Y-57931D01*
X104117Y-58078D01*
X103844Y-58350D01*
X103701Y-58695D01*
X103559Y-58352D01*
X103287Y-58079D01*
X102931Y-57931D01*
X102546Y-57931D01*
X102190Y-58078D01*
X101917Y-58350D01*
X101769Y-58706D01*
X101769Y-59091D01*
X101916Y-59447D01*
X102188Y-59720D01*
X102544Y-59868D01*
X102929Y-59868D01*
X103285Y-59721D01*
X103558Y-59449D01*
X103701Y-59104D01*
X103843Y-59447D01*
X104115Y-59720D01*
X104471Y-59868D01*
X104856Y-59868D01*
X105212Y-59721D01*
X105485Y-59449D01*
X105633Y-59093D01*
X105633Y-58708D01*
X105633Y-61550D01*
X99033Y-61550D01*
X99033Y-58708D01*
X98886Y-58352D01*
X98614Y-58079D01*
X98258Y-57931D01*
X97873Y-57931D01*
X97517Y-58078D01*
X97244Y-58350D01*
X97096Y-58706D01*
X97096Y-59091D01*
X97243Y-59447D01*
X97515Y-59720D01*
X97871Y-59868D01*
X98256Y-59868D01*
X98612Y-59721D01*
X98885Y-59449D01*
X99033Y-59093D01*
X99033Y-58708D01*
X99033Y-61550D01*
X96505Y-61550D01*
X96505Y-59390D01*
X96505Y-59000D01*
X96505Y-58900D01*
X96505Y-58510D01*
X96437Y-58268D01*
X96282Y-58072D01*
X96064Y-57949D01*
X96014Y-57937D01*
X95915Y-57984D01*
X95915Y-58900D01*
X96505Y-58900D01*
X96505Y-59000D01*
X95915Y-59000D01*
X95915Y-59915D01*
X96014Y-59962D01*
X96064Y-59950D01*
X96282Y-59827D01*
X96437Y-59631D01*
X96505Y-59390D01*
X96505Y-61550D01*
X95815Y-61550D01*
X95815Y-59915D01*
X95815Y-59000D01*
X95815Y-58900D01*
X95815Y-57984D01*
X95716Y-57937D01*
X95667Y-57949D01*
X95448Y-58072D01*
X95293Y-58268D01*
X95225Y-58510D01*
X95225Y-58900D01*
X95815Y-58900D01*
X95815Y-59000D01*
X95225Y-59000D01*
X95225Y-59390D01*
X95293Y-59631D01*
X95448Y-59827D01*
X95667Y-59950D01*
X95716Y-59962D01*
X95815Y-59915D01*
X95815Y-61550D01*
X94990Y-61550D01*
X94990Y-59360D01*
X94990Y-58539D01*
X94941Y-58294D01*
X94802Y-58087D01*
X94594Y-57948D01*
X94350Y-57899D01*
X94105Y-57948D01*
X93897Y-58087D01*
X93758Y-58294D01*
X93710Y-58539D01*
X93710Y-59360D01*
X93758Y-59605D01*
X93897Y-59812D01*
X94105Y-59951D01*
X94350Y-60000D01*
X94594Y-59951D01*
X94802Y-59812D01*
X94941Y-59605D01*
X94990Y-59360D01*
X94990Y-61550D01*
X93050Y-61550D01*
X93050Y-57650D01*
X96050Y-57650D01*
X96050Y-53874D01*
X96087Y-53912D01*
X96087Y-53912D01*
X96087Y-53912D01*
X96962Y-54787D01*
X96962Y-54787D01*
X96962Y-54787D01*
X96987Y-54812D01*
X96987Y-54812D01*
X98141Y-55965D01*
X98104Y-56054D01*
X98104Y-56154D01*
X98104Y-56745D01*
X98142Y-56836D01*
X98212Y-56907D01*
X98304Y-56945D01*
X98404Y-56945D01*
X98995Y-56945D01*
X99086Y-56907D01*
X99157Y-56837D01*
X99195Y-56745D01*
X99195Y-56716D01*
X99340Y-56862D01*
X99507Y-56931D01*
X99787Y-57212D01*
X99787Y-57212D01*
X99885Y-57277D01*
X99999Y-57299D01*
X100000Y-57300D01*
X103500Y-57300D01*
X104350Y-57300D01*
X104400Y-57300D01*
X106000Y-57300D01*
X106000Y-57299D01*
X106114Y-57277D01*
X106114Y-57277D01*
X106212Y-57212D01*
X106462Y-56962D01*
X106462Y-56962D01*
X106517Y-56879D01*
X106558Y-56862D01*
X106712Y-56709D01*
X106749Y-56618D01*
X106787Y-56708D01*
X106940Y-56862D01*
X107141Y-56945D01*
X107358Y-56945D01*
X107558Y-56862D01*
X107712Y-56709D01*
X107749Y-56618D01*
X107787Y-56708D01*
X107940Y-56862D01*
X108141Y-56945D01*
X108358Y-56945D01*
X108558Y-56862D01*
X108712Y-56709D01*
X108795Y-56508D01*
X108795Y-56347D01*
X108996Y-56146D01*
X109071Y-56033D01*
X109071Y-56033D01*
X109098Y-55900D01*
X109098Y-55822D01*
X109212Y-55709D01*
X109295Y-55508D01*
X109295Y-55291D01*
X109212Y-55091D01*
X109098Y-54976D01*
X109098Y-52650D01*
X109098Y-52649D01*
X109098Y-52649D01*
X109071Y-52516D01*
X108996Y-52403D01*
X108996Y-52403D01*
X108246Y-51653D01*
X108133Y-51578D01*
X108000Y-51551D01*
X107950Y-51551D01*
X107950Y-51550D01*
X107912Y-51458D01*
X107841Y-51388D01*
X107749Y-51350D01*
X107748Y-51350D01*
X107748Y-51300D01*
X107721Y-51166D01*
X107721Y-51166D01*
X107646Y-51053D01*
X107146Y-50553D01*
X107033Y-50478D01*
X106900Y-50451D01*
X103400Y-50451D01*
X103399Y-50451D01*
X103266Y-50478D01*
X103153Y-50553D01*
X103153Y-50553D01*
X103153Y-50553D01*
X102353Y-51353D01*
X102278Y-51466D01*
X102251Y-51600D01*
X102251Y-52149D01*
X102250Y-52149D01*
X102158Y-52187D01*
X102088Y-52258D01*
X102050Y-52350D01*
X102050Y-52372D01*
X101911Y-52234D01*
X101709Y-52150D01*
X101491Y-52149D01*
X101288Y-52233D01*
X101170Y-52351D01*
X100200Y-52351D01*
X100200Y-52300D01*
X100162Y-52208D01*
X100091Y-52138D01*
X99999Y-52100D01*
X99900Y-52099D01*
X99200Y-52099D01*
X99108Y-52137D01*
X99038Y-52208D01*
X99018Y-52254D01*
X98996Y-52232D01*
X98951Y-52277D01*
X98917Y-52177D01*
X98693Y-52095D01*
X98455Y-52105D01*
X98282Y-52177D01*
X98248Y-52277D01*
X98600Y-52629D01*
X98605Y-52623D01*
X98676Y-52694D01*
X98670Y-52700D01*
X98676Y-52705D01*
X98605Y-52776D01*
X98600Y-52770D01*
X98248Y-53122D01*
X98282Y-53222D01*
X98506Y-53304D01*
X98744Y-53294D01*
X98917Y-53222D01*
X98951Y-53122D01*
X98951Y-53122D01*
X98996Y-53167D01*
X99018Y-53145D01*
X99037Y-53191D01*
X99108Y-53261D01*
X99200Y-53299D01*
X99299Y-53300D01*
X99999Y-53300D01*
X100091Y-53262D01*
X100161Y-53191D01*
X100199Y-53099D01*
X100200Y-53048D01*
X101170Y-53048D01*
X101288Y-53165D01*
X101490Y-53249D01*
X101708Y-53250D01*
X101911Y-53166D01*
X102049Y-53027D01*
X102049Y-53049D01*
X102087Y-53141D01*
X102158Y-53211D01*
X102250Y-53249D01*
X102251Y-53249D01*
X102251Y-54805D01*
X102202Y-54854D01*
X102041Y-54854D01*
X101841Y-54937D01*
X101687Y-55090D01*
X101652Y-55175D01*
X101627Y-55114D01*
X101532Y-55088D01*
X101461Y-55158D01*
X101461Y-55017D01*
X101435Y-54922D01*
X101230Y-54849D01*
X101013Y-54860D01*
X100864Y-54922D01*
X100838Y-55017D01*
X101150Y-55329D01*
X101461Y-55017D01*
X101461Y-55158D01*
X101220Y-55400D01*
X101532Y-55711D01*
X101627Y-55685D01*
X101650Y-55620D01*
X101687Y-55708D01*
X101742Y-55764D01*
X101652Y-55854D01*
X101541Y-55854D01*
X101461Y-55887D01*
X101461Y-55782D01*
X101150Y-55470D01*
X101079Y-55541D01*
X101079Y-55400D01*
X100767Y-55088D01*
X100672Y-55114D01*
X100651Y-55173D01*
X100627Y-55114D01*
X100532Y-55088D01*
X100461Y-55158D01*
X100461Y-55017D01*
X100435Y-54922D01*
X100230Y-54849D01*
X100013Y-54860D01*
X99864Y-54922D01*
X99838Y-55017D01*
X100150Y-55329D01*
X100461Y-55017D01*
X100461Y-55158D01*
X100220Y-55400D01*
X100532Y-55711D01*
X100627Y-55685D01*
X100648Y-55626D01*
X100672Y-55685D01*
X100767Y-55711D01*
X101079Y-55400D01*
X101079Y-55541D01*
X100838Y-55782D01*
X100864Y-55877D01*
X101069Y-55950D01*
X101286Y-55939D01*
X101435Y-55877D01*
X101461Y-55782D01*
X101461Y-55887D01*
X101341Y-55937D01*
X101187Y-56090D01*
X101150Y-56181D01*
X101112Y-56091D01*
X100959Y-55937D01*
X100758Y-55854D01*
X100541Y-55854D01*
X100461Y-55887D01*
X100461Y-55782D01*
X100150Y-55470D01*
X99838Y-55782D01*
X99864Y-55877D01*
X100069Y-55950D01*
X100286Y-55939D01*
X100435Y-55877D01*
X100461Y-55782D01*
X100461Y-55887D01*
X100341Y-55937D01*
X100187Y-56090D01*
X100150Y-56181D01*
X100112Y-56091D01*
X99959Y-55937D01*
X99792Y-55868D01*
X99613Y-55689D01*
X99627Y-55685D01*
X99648Y-55626D01*
X99672Y-55685D01*
X99767Y-55711D01*
X100079Y-55400D01*
X99767Y-55088D01*
X99672Y-55114D01*
X99651Y-55173D01*
X99627Y-55114D01*
X99532Y-55088D01*
X99461Y-55158D01*
X99461Y-55017D01*
X99435Y-54922D01*
X99230Y-54849D01*
X99013Y-54860D01*
X98951Y-54886D01*
X98864Y-54922D01*
X98838Y-55017D01*
X99150Y-55329D01*
X99461Y-55017D01*
X99461Y-55158D01*
X99220Y-55400D01*
X99226Y-55405D01*
X99155Y-55476D01*
X99150Y-55470D01*
X99144Y-55476D01*
X99073Y-55405D01*
X99079Y-55400D01*
X98767Y-55088D01*
X98672Y-55114D01*
X98663Y-55139D01*
X97612Y-54087D01*
X97612Y-54087D01*
X97612Y-54087D01*
X96900Y-53375D01*
X96900Y-50787D01*
X96900Y-50350D01*
X96462Y-50350D01*
X96400Y-50412D01*
X96399Y-50649D01*
X96437Y-50741D01*
X96508Y-50811D01*
X96600Y-50849D01*
X96699Y-50850D01*
X96837Y-50850D01*
X96900Y-50787D01*
X96900Y-53375D01*
X94912Y-51387D01*
X94912Y-51387D01*
X94912Y-51387D01*
X94124Y-50600D01*
X94125Y-50515D01*
X94060Y-50359D01*
X93941Y-50239D01*
X93784Y-50175D01*
X93615Y-50174D01*
X93459Y-50239D01*
X93450Y-50248D01*
X93441Y-50239D01*
X93284Y-50175D01*
X93115Y-50174D01*
X92959Y-50239D01*
X92839Y-50358D01*
X92775Y-50515D01*
X92774Y-50684D01*
X92839Y-50840D01*
X92958Y-50960D01*
X93115Y-51024D01*
X93200Y-51025D01*
X95525Y-53350D01*
X93270Y-53350D01*
X92470Y-52550D01*
X91900Y-52550D01*
X91800Y-52550D01*
X86450Y-52550D01*
X86200Y-52550D01*
X85830Y-52550D01*
X84980Y-53350D01*
X73848Y-53350D01*
X73848Y-50850D01*
X74602Y-50850D01*
X74575Y-50915D01*
X74574Y-51084D01*
X74639Y-51240D01*
X74758Y-51360D01*
X74915Y-51424D01*
X75084Y-51425D01*
X75240Y-51360D01*
X75301Y-51300D01*
X75500Y-51300D01*
X75500Y-51299D01*
X75614Y-51277D01*
X75614Y-51277D01*
X75712Y-51212D01*
X78362Y-48562D01*
X78362Y-48562D01*
X78427Y-48464D01*
X78445Y-48373D01*
X78461Y-48366D01*
X78615Y-48211D01*
X78649Y-48130D01*
X78683Y-48211D01*
X78838Y-48365D01*
X78850Y-48370D01*
X78850Y-49475D01*
X77750Y-50575D01*
X77665Y-50574D01*
X77509Y-50639D01*
X77389Y-50758D01*
X77325Y-50915D01*
X77324Y-51084D01*
X77389Y-51240D01*
X77508Y-51360D01*
X77665Y-51424D01*
X77834Y-51425D01*
X77990Y-51360D01*
X78110Y-51241D01*
X78174Y-51084D01*
X78175Y-50999D01*
X79362Y-49812D01*
X79362Y-49812D01*
X79427Y-49714D01*
X79449Y-49600D01*
X79450Y-49600D01*
X79450Y-48371D01*
X79461Y-48366D01*
X79615Y-48211D01*
X79649Y-48130D01*
X79683Y-48211D01*
X79838Y-48365D01*
X79850Y-48370D01*
X79850Y-50150D01*
X79872Y-50264D01*
X79937Y-50362D01*
X80575Y-50999D01*
X80574Y-51084D01*
X80639Y-51240D01*
X80758Y-51360D01*
X80915Y-51424D01*
X81084Y-51425D01*
X81240Y-51360D01*
X81360Y-51241D01*
X81424Y-51084D01*
X81425Y-50915D01*
X81360Y-50759D01*
X81241Y-50639D01*
X81084Y-50575D01*
X80999Y-50574D01*
X80450Y-50025D01*
X80450Y-48371D01*
X80461Y-48366D01*
X80615Y-48211D01*
X80649Y-48130D01*
X80683Y-48211D01*
X80838Y-48365D01*
X80850Y-48370D01*
X80850Y-48400D01*
X80872Y-48514D01*
X80937Y-48612D01*
X83325Y-50999D01*
X83324Y-51084D01*
X83389Y-51240D01*
X83508Y-51360D01*
X83665Y-51424D01*
X83834Y-51425D01*
X83990Y-51360D01*
X84110Y-51241D01*
X84174Y-51084D01*
X84175Y-50915D01*
X84128Y-50802D01*
X84287Y-50962D01*
X84287Y-50962D01*
X84385Y-51027D01*
X84499Y-51049D01*
X84500Y-51050D01*
X87000Y-51050D01*
X87025Y-51050D01*
X87200Y-51224D01*
X87200Y-51598D01*
X87139Y-51658D01*
X87075Y-51815D01*
X87074Y-51984D01*
X87139Y-52140D01*
X87258Y-52260D01*
X87415Y-52324D01*
X87584Y-52325D01*
X87740Y-52260D01*
X87860Y-52141D01*
X87924Y-51984D01*
X87925Y-51815D01*
X87860Y-51659D01*
X87800Y-51598D01*
X87800Y-51100D01*
X87799Y-51099D01*
X87777Y-50985D01*
X87712Y-50887D01*
X87712Y-50887D01*
X87624Y-50800D01*
X90000Y-50800D01*
X90025Y-50800D01*
X90450Y-51224D01*
X90450Y-51648D01*
X90389Y-51708D01*
X90325Y-51865D01*
X90324Y-52034D01*
X90389Y-52190D01*
X90508Y-52310D01*
X90665Y-52374D01*
X90834Y-52375D01*
X90990Y-52310D01*
X91110Y-52191D01*
X91174Y-52034D01*
X91175Y-51865D01*
X91110Y-51709D01*
X91050Y-51648D01*
X91050Y-51100D01*
X91027Y-50985D01*
X90962Y-50887D01*
X90962Y-50887D01*
X90624Y-50550D01*
X91125Y-50550D01*
X93325Y-52749D01*
X93324Y-52834D01*
X93389Y-52990D01*
X93508Y-53110D01*
X93665Y-53174D01*
X93834Y-53175D01*
X93990Y-53110D01*
X94110Y-52991D01*
X94174Y-52834D01*
X94175Y-52665D01*
X94110Y-52509D01*
X93991Y-52389D01*
X93834Y-52325D01*
X93749Y-52324D01*
X91474Y-50050D01*
X94150Y-50050D01*
X94200Y-50050D01*
X94949Y-50050D01*
X95058Y-50160D01*
X95215Y-50224D01*
X95384Y-50225D01*
X95540Y-50160D01*
X95660Y-50041D01*
X95724Y-49884D01*
X95725Y-49715D01*
X95660Y-49559D01*
X95541Y-49439D01*
X95384Y-49375D01*
X95215Y-49374D01*
X95059Y-49439D01*
X95049Y-49450D01*
X94200Y-49450D01*
X94150Y-49450D01*
X86174Y-49450D01*
X86024Y-49300D01*
X90850Y-49300D01*
X93100Y-49300D01*
X93200Y-49300D01*
X93598Y-49300D01*
X93658Y-49360D01*
X93815Y-49424D01*
X93984Y-49425D01*
X94140Y-49360D01*
X94201Y-49300D01*
X95200Y-49300D01*
X95200Y-49299D01*
X95314Y-49277D01*
X95314Y-49277D01*
X95412Y-49212D01*
X97399Y-47224D01*
X97484Y-47225D01*
X97640Y-47160D01*
X97760Y-47041D01*
X97824Y-46884D01*
X97825Y-46715D01*
X97760Y-46559D01*
X97641Y-46439D01*
X97484Y-46375D01*
X97315Y-46374D01*
X97159Y-46439D01*
X97039Y-46558D01*
X96975Y-46715D01*
X96974Y-46800D01*
X95075Y-48700D01*
X94201Y-48700D01*
X94141Y-48639D01*
X93984Y-48575D01*
X93815Y-48574D01*
X93659Y-48639D01*
X93598Y-48700D01*
X93200Y-48700D01*
X93100Y-48700D01*
X91150Y-48700D01*
X91150Y-47450D01*
X91127Y-47335D01*
X91062Y-47237D01*
X91062Y-47237D01*
X90622Y-46798D01*
X93300Y-46798D01*
X93305Y-46798D01*
X93382Y-46875D01*
X93325Y-47015D01*
X93324Y-47184D01*
X93389Y-47340D01*
X93508Y-47460D01*
X93665Y-47524D01*
X93834Y-47525D01*
X93990Y-47460D01*
X94110Y-47341D01*
X94174Y-47184D01*
X94175Y-47015D01*
X94110Y-46859D01*
X94098Y-46847D01*
X94098Y-46750D01*
X94098Y-46749D01*
X94098Y-46749D01*
X94071Y-46616D01*
X93996Y-46503D01*
X93996Y-46503D01*
X93696Y-46203D01*
X93583Y-46128D01*
X93450Y-46101D01*
X93350Y-46101D01*
X93300Y-46101D01*
X92072Y-46101D01*
X92512Y-45662D01*
X92512Y-45662D01*
X92577Y-45564D01*
X92599Y-45450D01*
X92600Y-45450D01*
X92600Y-44551D01*
X92660Y-44491D01*
X92724Y-44334D01*
X92725Y-44165D01*
X92660Y-44009D01*
X92541Y-43889D01*
X92384Y-43825D01*
X92215Y-43824D01*
X92059Y-43889D01*
X92050Y-43898D01*
X92041Y-43889D01*
X91884Y-43825D01*
X91715Y-43824D01*
X91559Y-43889D01*
X91550Y-43898D01*
X91541Y-43889D01*
X91384Y-43825D01*
X91215Y-43824D01*
X91059Y-43889D01*
X91050Y-43898D01*
X91041Y-43889D01*
X90884Y-43825D01*
X90715Y-43824D01*
X90600Y-43872D01*
X90600Y-43051D01*
X90660Y-42991D01*
X90724Y-42834D01*
X90725Y-42665D01*
X90660Y-42509D01*
X90541Y-42389D01*
X90384Y-42325D01*
X90215Y-42324D01*
X90059Y-42389D01*
X90050Y-42398D01*
X90041Y-42389D01*
X89884Y-42325D01*
X89715Y-42324D01*
X89559Y-42389D01*
X89550Y-42398D01*
X89541Y-42389D01*
X89384Y-42325D01*
X89215Y-42324D01*
X89059Y-42389D01*
X89050Y-42398D01*
X89041Y-42389D01*
X88884Y-42325D01*
X88767Y-42324D01*
X89157Y-41935D01*
X93500Y-41935D01*
X93900Y-41935D01*
X94502Y-41935D01*
X94632Y-42065D01*
X94840Y-42151D01*
X95025Y-42152D01*
X95569Y-42696D01*
X95682Y-42771D01*
X95816Y-42798D01*
X96050Y-42798D01*
X98900Y-42798D01*
X99400Y-42798D01*
X100351Y-42798D01*
X100351Y-43334D01*
X100351Y-43400D01*
X100351Y-48923D01*
X100261Y-48834D01*
X100250Y-48829D01*
X100250Y-47801D01*
X100260Y-47791D01*
X100324Y-47634D01*
X100325Y-47465D01*
X100260Y-47309D01*
X100141Y-47189D01*
X99984Y-47125D01*
X99815Y-47124D01*
X99659Y-47189D01*
X99539Y-47308D01*
X99475Y-47465D01*
X99474Y-47634D01*
X99539Y-47790D01*
X99650Y-47901D01*
X99650Y-48828D01*
X99638Y-48833D01*
X99484Y-48988D01*
X99450Y-49069D01*
X99416Y-48988D01*
X99261Y-48834D01*
X99059Y-48750D01*
X98841Y-48749D01*
X98638Y-48833D01*
X98484Y-48988D01*
X98450Y-49069D01*
X98416Y-48988D01*
X98261Y-48834D01*
X98059Y-48750D01*
X97841Y-48749D01*
X97638Y-48833D01*
X97484Y-48988D01*
X97450Y-49069D01*
X97416Y-48988D01*
X97261Y-48834D01*
X97059Y-48750D01*
X96841Y-48749D01*
X96638Y-48833D01*
X96484Y-48988D01*
X96400Y-49190D01*
X96399Y-49408D01*
X96483Y-49611D01*
X96622Y-49750D01*
X96600Y-49750D01*
X96508Y-49788D01*
X96437Y-49858D01*
X96399Y-49950D01*
X96400Y-50187D01*
X96462Y-50250D01*
X96900Y-50250D01*
X96900Y-50242D01*
X97000Y-50242D01*
X97000Y-50250D01*
X97437Y-50250D01*
X97450Y-50237D01*
X97462Y-50250D01*
X97900Y-50250D01*
X97900Y-50242D01*
X98000Y-50242D01*
X98000Y-50250D01*
X98437Y-50250D01*
X98450Y-50237D01*
X98462Y-50250D01*
X98900Y-50250D01*
X98900Y-50242D01*
X99000Y-50242D01*
X99000Y-50250D01*
X99437Y-50250D01*
X99450Y-50237D01*
X99462Y-50250D01*
X99900Y-50250D01*
X99900Y-50242D01*
X100000Y-50242D01*
X100000Y-50250D01*
X100007Y-50250D01*
X100007Y-50350D01*
X100000Y-50350D01*
X100000Y-50787D01*
X100062Y-50850D01*
X100200Y-50850D01*
X100299Y-50849D01*
X100351Y-50828D01*
X100351Y-50855D01*
X100155Y-51051D01*
X99900Y-51051D01*
X99900Y-50787D01*
X99900Y-50350D01*
X99462Y-50350D01*
X99450Y-50362D01*
X99437Y-50350D01*
X99000Y-50350D01*
X99000Y-50787D01*
X99062Y-50850D01*
X99200Y-50850D01*
X99299Y-50849D01*
X99391Y-50811D01*
X99450Y-50753D01*
X99508Y-50811D01*
X99600Y-50849D01*
X99699Y-50850D01*
X99837Y-50850D01*
X99900Y-50787D01*
X99900Y-51051D01*
X98900Y-51051D01*
X98900Y-50787D01*
X98900Y-50350D01*
X98462Y-50350D01*
X98450Y-50362D01*
X98437Y-50350D01*
X98000Y-50350D01*
X98000Y-50787D01*
X98062Y-50850D01*
X98200Y-50850D01*
X98299Y-50849D01*
X98391Y-50811D01*
X98450Y-50753D01*
X98508Y-50811D01*
X98600Y-50849D01*
X98699Y-50850D01*
X98837Y-50850D01*
X98900Y-50787D01*
X98900Y-51051D01*
X98200Y-51051D01*
X98066Y-51078D01*
X97953Y-51153D01*
X97900Y-51207D01*
X97900Y-50787D01*
X97900Y-50350D01*
X97462Y-50350D01*
X97450Y-50362D01*
X97437Y-50350D01*
X97000Y-50350D01*
X97000Y-50787D01*
X97062Y-50850D01*
X97200Y-50850D01*
X97299Y-50849D01*
X97391Y-50811D01*
X97450Y-50753D01*
X97508Y-50811D01*
X97600Y-50849D01*
X97699Y-50850D01*
X97837Y-50850D01*
X97900Y-50787D01*
X97900Y-51207D01*
X97353Y-51753D01*
X97278Y-51866D01*
X97251Y-52000D01*
X97251Y-52200D01*
X97091Y-52359D01*
X97000Y-52580D01*
X96999Y-52818D01*
X97091Y-53039D01*
X97259Y-53208D01*
X97480Y-53299D01*
X97718Y-53300D01*
X97939Y-53208D01*
X98108Y-53040D01*
X98112Y-53029D01*
X98177Y-53051D01*
X98529Y-52700D01*
X98177Y-52348D01*
X98112Y-52370D01*
X98108Y-52360D01*
X97948Y-52199D01*
X97948Y-52144D01*
X98344Y-51748D01*
X100300Y-51748D01*
X100433Y-51721D01*
X100433Y-51721D01*
X100546Y-51646D01*
X100946Y-51246D01*
X100946Y-51246D01*
X100946Y-51246D01*
X101021Y-51133D01*
X101048Y-51000D01*
X101048Y-51000D01*
X101048Y-51000D01*
X101048Y-49718D01*
X101065Y-49724D01*
X101234Y-49725D01*
X101390Y-49660D01*
X101510Y-49541D01*
X101574Y-49384D01*
X101575Y-49299D01*
X101799Y-49074D01*
X101884Y-49075D01*
X102040Y-49010D01*
X102160Y-48891D01*
X102224Y-48734D01*
X102225Y-48565D01*
X102160Y-48409D01*
X102041Y-48289D01*
X101884Y-48225D01*
X101715Y-48224D01*
X101559Y-48289D01*
X101439Y-48408D01*
X101375Y-48565D01*
X101374Y-48650D01*
X101150Y-48875D01*
X101065Y-48874D01*
X101048Y-48882D01*
X101048Y-43400D01*
X101048Y-43334D01*
X101048Y-42798D01*
X101150Y-42798D01*
X103000Y-42798D01*
X103500Y-42798D01*
X107000Y-42798D01*
X107450Y-42798D01*
X107705Y-42798D01*
X107851Y-42944D01*
X107851Y-42999D01*
X107850Y-42999D01*
X107758Y-43037D01*
X107688Y-43108D01*
X107650Y-43200D01*
X107649Y-43299D01*
X107649Y-43899D01*
X107687Y-43991D01*
X107758Y-44061D01*
X107850Y-44099D01*
X107949Y-44100D01*
X108549Y-44100D01*
X108641Y-44062D01*
X108711Y-43991D01*
X108749Y-43899D01*
X108750Y-43846D01*
X108814Y-43865D01*
X109129Y-43550D01*
X108814Y-43234D01*
X108750Y-43253D01*
X108750Y-43200D01*
X108712Y-43108D01*
X108641Y-43038D01*
X108549Y-43000D01*
X108548Y-43000D01*
X108548Y-42800D01*
X108548Y-42799D01*
X108548Y-42799D01*
X108521Y-42666D01*
X108446Y-42553D01*
X108446Y-42553D01*
X108096Y-42203D01*
X107983Y-42128D01*
X107850Y-42101D01*
X107450Y-42101D01*
X107348Y-42101D01*
X107348Y-41990D01*
X107431Y-41907D01*
X107517Y-41699D01*
X107518Y-41475D01*
X107432Y-41267D01*
X107273Y-41108D01*
X107065Y-41022D01*
X106841Y-41021D01*
X106633Y-41107D01*
X106474Y-41266D01*
X106388Y-41474D01*
X106387Y-41698D01*
X106473Y-41906D01*
X106632Y-42065D01*
X106651Y-42073D01*
X106651Y-42101D01*
X105037Y-42101D01*
X105122Y-42066D01*
X105281Y-41907D01*
X105367Y-41699D01*
X105368Y-41475D01*
X105282Y-41267D01*
X105123Y-41108D01*
X104915Y-41022D01*
X104691Y-41021D01*
X104483Y-41107D01*
X104324Y-41266D01*
X104238Y-41474D01*
X104237Y-41698D01*
X104323Y-41906D01*
X104482Y-42065D01*
X104568Y-42101D01*
X103500Y-42101D01*
X103348Y-42101D01*
X103348Y-41990D01*
X103431Y-41907D01*
X103517Y-41699D01*
X103518Y-41475D01*
X103432Y-41267D01*
X103273Y-41108D01*
X103065Y-41022D01*
X102841Y-41021D01*
X102633Y-41107D01*
X102474Y-41266D01*
X102388Y-41474D01*
X102387Y-41698D01*
X102473Y-41906D01*
X102632Y-42065D01*
X102651Y-42073D01*
X102651Y-42101D01*
X101150Y-42101D01*
X101037Y-42101D01*
X101122Y-42066D01*
X101281Y-41907D01*
X101367Y-41699D01*
X101368Y-41475D01*
X101282Y-41267D01*
X101123Y-41108D01*
X100915Y-41022D01*
X100691Y-41021D01*
X100483Y-41107D01*
X100324Y-41266D01*
X100238Y-41474D01*
X100237Y-41698D01*
X100323Y-41906D01*
X100482Y-42065D01*
X100568Y-42101D01*
X99400Y-42101D01*
X99248Y-42101D01*
X99248Y-42076D01*
X99272Y-42066D01*
X99431Y-41907D01*
X99517Y-41699D01*
X99518Y-41475D01*
X99432Y-41267D01*
X99273Y-41108D01*
X99065Y-41022D01*
X98841Y-41021D01*
X98633Y-41107D01*
X98474Y-41266D01*
X98388Y-41474D01*
X98387Y-41698D01*
X98473Y-41906D01*
X98551Y-41984D01*
X98551Y-42101D01*
X97037Y-42101D01*
X97122Y-42066D01*
X97281Y-41907D01*
X97367Y-41699D01*
X97368Y-41475D01*
X97282Y-41267D01*
X97123Y-41108D01*
X96915Y-41022D01*
X96691Y-41021D01*
X96483Y-41107D01*
X96324Y-41266D01*
X96238Y-41474D01*
X96237Y-41698D01*
X96323Y-41906D01*
X96482Y-42065D01*
X96568Y-42101D01*
X96050Y-42101D01*
X95960Y-42101D01*
X95517Y-41659D01*
X95518Y-41475D01*
X95432Y-41267D01*
X95273Y-41108D01*
X95065Y-41022D01*
X94841Y-41021D01*
X94633Y-41107D01*
X94502Y-41238D01*
X93900Y-41238D01*
X93848Y-41238D01*
X93848Y-40252D01*
X93860Y-40241D01*
X93924Y-40084D01*
X93925Y-39915D01*
X93860Y-39759D01*
X93741Y-39639D01*
X93584Y-39575D01*
X93415Y-39574D01*
X93259Y-39639D01*
X93139Y-39758D01*
X93075Y-39915D01*
X93074Y-40084D01*
X93139Y-40240D01*
X93151Y-40252D01*
X93151Y-41238D01*
X89013Y-41238D01*
X88879Y-41265D01*
X88766Y-41340D01*
X88005Y-42101D01*
X87537Y-42101D01*
X87622Y-42066D01*
X87781Y-41907D01*
X87867Y-41699D01*
X87868Y-41475D01*
X87782Y-41267D01*
X87623Y-41108D01*
X87415Y-41022D01*
X87191Y-41021D01*
X86983Y-41107D01*
X86824Y-41266D01*
X86738Y-41474D01*
X86737Y-41698D01*
X86823Y-41906D01*
X86982Y-42065D01*
X87068Y-42101D01*
X85748Y-42101D01*
X85748Y-42076D01*
X85772Y-42066D01*
X85931Y-41907D01*
X86017Y-41699D01*
X86018Y-41475D01*
X85932Y-41267D01*
X85773Y-41108D01*
X85565Y-41022D01*
X85341Y-41021D01*
X85133Y-41107D01*
X84974Y-41266D01*
X84888Y-41474D01*
X84887Y-41698D01*
X84973Y-41906D01*
X85051Y-41984D01*
X85051Y-42101D01*
X83537Y-42101D01*
X83622Y-42066D01*
X83781Y-41907D01*
X83867Y-41699D01*
X83868Y-41475D01*
X83782Y-41267D01*
X83623Y-41108D01*
X83415Y-41022D01*
X83191Y-41021D01*
X82983Y-41107D01*
X82824Y-41266D01*
X82738Y-41474D01*
X82737Y-41698D01*
X82823Y-41906D01*
X82982Y-42065D01*
X83068Y-42101D01*
X81748Y-42101D01*
X81748Y-42076D01*
X81772Y-42066D01*
X81931Y-41907D01*
X82017Y-41699D01*
X82018Y-41475D01*
X81932Y-41267D01*
X81773Y-41108D01*
X81565Y-41022D01*
X81341Y-41021D01*
X81133Y-41107D01*
X80974Y-41266D01*
X80888Y-41474D01*
X80887Y-41698D01*
X80973Y-41906D01*
X81051Y-41984D01*
X81051Y-42101D01*
X79537Y-42101D01*
X79622Y-42066D01*
X79781Y-41907D01*
X79867Y-41699D01*
X79868Y-41475D01*
X79782Y-41267D01*
X79623Y-41108D01*
X79415Y-41022D01*
X79191Y-41021D01*
X78983Y-41107D01*
X78824Y-41266D01*
X78738Y-41474D01*
X78737Y-41698D01*
X78823Y-41906D01*
X78982Y-42065D01*
X79068Y-42101D01*
X77848Y-42101D01*
X77848Y-41990D01*
X77931Y-41907D01*
X78017Y-41699D01*
X78018Y-41475D01*
X77932Y-41267D01*
X77773Y-41108D01*
X77565Y-41022D01*
X77341Y-41021D01*
X77133Y-41107D01*
X76974Y-41266D01*
X76888Y-41474D01*
X76887Y-41698D01*
X76973Y-41906D01*
X77132Y-42065D01*
X77151Y-42073D01*
X77151Y-42101D01*
X76500Y-42101D01*
X76453Y-42101D01*
X75537Y-42101D01*
X75622Y-42066D01*
X75781Y-41907D01*
X75867Y-41699D01*
X75868Y-41475D01*
X75782Y-41267D01*
X75623Y-41108D01*
X75415Y-41022D01*
X75191Y-41021D01*
X74983Y-41107D01*
X74824Y-41266D01*
X74738Y-41474D01*
X74737Y-41698D01*
X74823Y-41906D01*
X74982Y-42065D01*
X75068Y-42101D01*
X73994Y-42101D01*
X73865Y-41973D01*
X73931Y-41907D01*
X74017Y-41699D01*
X74018Y-41475D01*
X73932Y-41267D01*
X73773Y-41108D01*
X73565Y-41022D01*
X73341Y-41021D01*
X73133Y-41107D01*
X72974Y-41266D01*
X72888Y-41474D01*
X72887Y-41698D01*
X72973Y-41906D01*
X73104Y-42037D01*
X73104Y-42053D01*
X73131Y-42186D01*
X73206Y-42299D01*
X73603Y-42696D01*
X73603Y-42696D01*
X73716Y-42771D01*
X73850Y-42798D01*
X76453Y-42798D01*
X76500Y-42798D01*
X77500Y-42798D01*
X81400Y-42798D01*
X85400Y-42798D01*
X88150Y-42798D01*
X88283Y-42771D01*
X88283Y-42771D01*
X88375Y-42710D01*
X88374Y-42834D01*
X88439Y-42990D01*
X88500Y-43051D01*
X88500Y-43925D01*
X88325Y-44100D01*
X87650Y-44100D01*
X77850Y-44100D01*
X77735Y-44122D01*
X77637Y-44187D01*
X76937Y-44887D01*
X76872Y-44985D01*
X76850Y-45100D01*
X76850Y-46428D01*
X76838Y-46433D01*
X76684Y-46588D01*
X76600Y-46790D01*
X76599Y-47008D01*
X76683Y-47211D01*
X76822Y-47349D01*
X76800Y-47349D01*
X76708Y-47387D01*
X76638Y-47458D01*
X76600Y-47550D01*
X76599Y-47649D01*
X76599Y-48249D01*
X76637Y-48341D01*
X76708Y-48411D01*
X76800Y-48449D01*
X76899Y-48450D01*
X77499Y-48450D01*
X77591Y-48412D01*
X77661Y-48341D01*
X77699Y-48249D01*
X77699Y-48227D01*
X77773Y-48301D01*
X75375Y-50700D01*
X75301Y-50700D01*
X75241Y-50639D01*
X75084Y-50575D01*
X74915Y-50574D01*
X74850Y-50602D01*
X74850Y-45150D01*
X71850Y-45150D01*
X71850Y-39050D01*
X110550Y-39050D01*
X110550Y-61550D01*
X110550Y-61550D01*
G37*
G54D25*
X110550Y-61550D02*
X110306Y-61550D01*
X110306Y-58708D01*
X110159Y-58352D01*
X109887Y-58079D01*
X109754Y-58024D01*
X109754Y-43631D01*
X109743Y-43413D01*
X109681Y-43262D01*
X109585Y-43234D01*
X109515Y-43305D01*
X109515Y-43164D01*
X109487Y-43068D01*
X109368Y-43026D01*
X109368Y-41475D01*
X109282Y-41267D01*
X109123Y-41108D01*
X108915Y-41022D01*
X108691Y-41021D01*
X108483Y-41107D01*
X108324Y-41266D01*
X108238Y-41474D01*
X108237Y-41698D01*
X108323Y-41906D01*
X108482Y-42065D01*
X108690Y-42151D01*
X108914Y-42152D01*
X109122Y-42066D01*
X109281Y-41907D01*
X109367Y-41699D01*
X109368Y-41475D01*
X109368Y-43026D01*
X109281Y-42995D01*
X109063Y-43006D01*
X108912Y-43068D01*
X108884Y-43164D01*
X109200Y-43479D01*
X109515Y-43164D01*
X109515Y-43305D01*
X109270Y-43550D01*
X109585Y-43865D01*
X109681Y-43837D01*
X109754Y-43631D01*
X109754Y-58024D01*
X109531Y-57931D01*
X109515Y-57931D01*
X109515Y-43935D01*
X109200Y-43620D01*
X108884Y-43935D01*
X108912Y-44031D01*
X109118Y-44104D01*
X109336Y-44093D01*
X109487Y-44031D01*
X109515Y-43935D01*
X109515Y-57931D01*
X109146Y-57931D01*
X108790Y-58078D01*
X108517Y-58350D01*
X108369Y-58706D01*
X108369Y-59091D01*
X108516Y-59447D01*
X108788Y-59720D01*
X109144Y-59868D01*
X109529Y-59868D01*
X109885Y-59721D01*
X110158Y-59449D01*
X110306Y-59093D01*
X110306Y-58708D01*
X110306Y-61550D01*
X105633Y-61550D01*
X105633Y-58708D01*
X105486Y-58352D01*
X105214Y-58079D01*
X104858Y-57931D01*
X104473Y-57931D01*
X104117Y-58078D01*
X103844Y-58350D01*
X103701Y-58695D01*
X103559Y-58352D01*
X103287Y-58079D01*
X102931Y-57931D01*
X102546Y-57931D01*
X102190Y-58078D01*
X101917Y-58350D01*
X101769Y-58706D01*
X101769Y-59091D01*
X101916Y-59447D01*
X102188Y-59720D01*
X102544Y-59868D01*
X102929Y-59868D01*
X103285Y-59721D01*
X103558Y-59449D01*
X103701Y-59104D01*
X103843Y-59447D01*
X104115Y-59720D01*
X104471Y-59868D01*
X104856Y-59868D01*
X105212Y-59721D01*
X105485Y-59449D01*
X105633Y-59093D01*
X105633Y-58708D01*
X105633Y-61550D01*
X99033Y-61550D01*
X99033Y-58708D01*
X98886Y-58352D01*
X98614Y-58079D01*
X98258Y-57931D01*
X97873Y-57931D01*
X97517Y-58078D01*
X97244Y-58350D01*
X97096Y-58706D01*
X97096Y-59091D01*
X97243Y-59447D01*
X97515Y-59720D01*
X97871Y-59868D01*
X98256Y-59868D01*
X98612Y-59721D01*
X98885Y-59449D01*
X99033Y-59093D01*
X99033Y-58708D01*
X99033Y-61550D01*
X96505Y-61550D01*
X96505Y-59390D01*
X96505Y-59000D01*
X96505Y-58900D01*
X96505Y-58510D01*
X96437Y-58268D01*
X96282Y-58072D01*
X96064Y-57949D01*
X96014Y-57937D01*
X95915Y-57984D01*
X95915Y-58900D01*
X96505Y-58900D01*
X96505Y-59000D01*
X95915Y-59000D01*
X95915Y-59915D01*
X96014Y-59962D01*
X96064Y-59950D01*
X96282Y-59827D01*
X96437Y-59631D01*
X96505Y-59390D01*
X96505Y-61550D01*
X95815Y-61550D01*
X95815Y-59915D01*
X95815Y-59000D01*
X95815Y-58900D01*
X95815Y-57984D01*
X95716Y-57937D01*
X95667Y-57949D01*
X95448Y-58072D01*
X95293Y-58268D01*
X95225Y-58510D01*
X95225Y-58900D01*
X95815Y-58900D01*
X95815Y-59000D01*
X95225Y-59000D01*
X95225Y-59390D01*
X95293Y-59631D01*
X95448Y-59827D01*
X95667Y-59950D01*
X95716Y-59962D01*
X95815Y-59915D01*
X95815Y-61550D01*
X94990Y-61550D01*
X94990Y-59360D01*
X94990Y-58539D01*
X94941Y-58294D01*
X94802Y-58087D01*
X94594Y-57948D01*
X94350Y-57899D01*
X94105Y-57948D01*
X93897Y-58087D01*
X93758Y-58294D01*
X93710Y-58539D01*
X93710Y-59360D01*
X93758Y-59605D01*
X93897Y-59812D01*
X94105Y-59951D01*
X94350Y-60000D01*
X94594Y-59951D01*
X94802Y-59812D01*
X94941Y-59605D01*
X94990Y-59360D01*
X94990Y-61550D01*
X93050Y-61550D01*
X93050Y-57650D01*
X96050Y-57650D01*
X96050Y-53874D01*
X96087Y-53912D01*
X96087Y-53912D01*
X96087Y-53912D01*
X96962Y-54787D01*
X96962Y-54787D01*
X96962Y-54787D01*
X96987Y-54812D01*
X96987Y-54812D01*
X98141Y-55965D01*
X98104Y-56054D01*
X98104Y-56154D01*
X98104Y-56745D01*
X98142Y-56836D01*
X98212Y-56907D01*
X98304Y-56945D01*
X98404Y-56945D01*
X98995Y-56945D01*
X99086Y-56907D01*
X99157Y-56837D01*
X99195Y-56745D01*
X99195Y-56716D01*
X99340Y-56862D01*
X99507Y-56931D01*
X99787Y-57212D01*
X99787Y-57212D01*
X99885Y-57277D01*
X99999Y-57299D01*
X100000Y-57300D01*
X103500Y-57300D01*
X104350Y-57300D01*
X104400Y-57300D01*
X106000Y-57300D01*
X106000Y-57299D01*
X106114Y-57277D01*
X106114Y-57277D01*
X106212Y-57212D01*
X106462Y-56962D01*
X106462Y-56962D01*
X106517Y-56879D01*
X106558Y-56862D01*
X106712Y-56709D01*
X106749Y-56618D01*
X106787Y-56708D01*
X106940Y-56862D01*
X107141Y-56945D01*
X107358Y-56945D01*
X107558Y-56862D01*
X107712Y-56709D01*
X107749Y-56618D01*
X107787Y-56708D01*
X107940Y-56862D01*
X108141Y-56945D01*
X108358Y-56945D01*
X108558Y-56862D01*
X108712Y-56709D01*
X108795Y-56508D01*
X108795Y-56347D01*
X108996Y-56146D01*
X109071Y-56033D01*
X109071Y-56033D01*
X109098Y-55900D01*
X109098Y-55822D01*
X109212Y-55709D01*
X109295Y-55508D01*
X109295Y-55291D01*
X109212Y-55091D01*
X109098Y-54976D01*
X109098Y-52650D01*
X109098Y-52649D01*
X109098Y-52649D01*
X109071Y-52516D01*
X108996Y-52403D01*
X108996Y-52403D01*
X108246Y-51653D01*
X108133Y-51578D01*
X108000Y-51551D01*
X107950Y-51551D01*
X107950Y-51550D01*
X107912Y-51458D01*
X107841Y-51388D01*
X107749Y-51350D01*
X107748Y-51350D01*
X107748Y-51300D01*
X107721Y-51166D01*
X107721Y-51166D01*
X107646Y-51053D01*
X107146Y-50553D01*
X107033Y-50478D01*
X106900Y-50451D01*
X103400Y-50451D01*
X103399Y-50451D01*
X103266Y-50478D01*
X103153Y-50553D01*
X103153Y-50553D01*
X103153Y-50553D01*
X102353Y-51353D01*
X102278Y-51466D01*
X102251Y-51600D01*
X102251Y-52149D01*
X102250Y-52149D01*
X102158Y-52187D01*
X102088Y-52258D01*
X102050Y-52350D01*
X102050Y-52372D01*
X101911Y-52234D01*
X101709Y-52150D01*
X101491Y-52149D01*
X101288Y-52233D01*
X101170Y-52351D01*
X100200Y-52351D01*
X100200Y-52300D01*
X100162Y-52208D01*
X100091Y-52138D01*
X99999Y-52100D01*
X99900Y-52099D01*
X99200Y-52099D01*
X99108Y-52137D01*
X99038Y-52208D01*
X99018Y-52254D01*
X98996Y-52232D01*
X98951Y-52277D01*
X98917Y-52177D01*
X98693Y-52095D01*
X98455Y-52105D01*
X98282Y-52177D01*
X98248Y-52277D01*
X98600Y-52629D01*
X98605Y-52623D01*
X98676Y-52694D01*
X98670Y-52700D01*
X98676Y-52705D01*
X98605Y-52776D01*
X98600Y-52770D01*
X98248Y-53122D01*
X98282Y-53222D01*
X98506Y-53304D01*
X98744Y-53294D01*
X98917Y-53222D01*
X98951Y-53122D01*
X98951Y-53122D01*
X98996Y-53167D01*
X99018Y-53145D01*
X99037Y-53191D01*
X99108Y-53261D01*
X99200Y-53299D01*
X99299Y-53300D01*
X99999Y-53300D01*
X100091Y-53262D01*
X100161Y-53191D01*
X100199Y-53099D01*
X100200Y-53048D01*
X101170Y-53048D01*
X101288Y-53165D01*
X101490Y-53249D01*
X101708Y-53250D01*
X101911Y-53166D01*
X102049Y-53027D01*
X102049Y-53049D01*
X102087Y-53141D01*
X102158Y-53211D01*
X102250Y-53249D01*
X102251Y-53249D01*
X102251Y-54805D01*
X102202Y-54854D01*
X102041Y-54854D01*
X101841Y-54937D01*
X101687Y-55090D01*
X101652Y-55175D01*
X101627Y-55114D01*
X101532Y-55088D01*
X101461Y-55158D01*
X101461Y-55017D01*
X101435Y-54922D01*
X101230Y-54849D01*
X101013Y-54860D01*
X100864Y-54922D01*
X100838Y-55017D01*
X101150Y-55329D01*
X101461Y-55017D01*
X101461Y-55158D01*
X101220Y-55400D01*
X101532Y-55711D01*
X101627Y-55685D01*
X101650Y-55620D01*
X101687Y-55708D01*
X101742Y-55764D01*
X101652Y-55854D01*
X101541Y-55854D01*
X101461Y-55887D01*
X101461Y-55782D01*
X101150Y-55470D01*
X101079Y-55541D01*
X101079Y-55400D01*
X100767Y-55088D01*
X100672Y-55114D01*
X100651Y-55173D01*
X100627Y-55114D01*
X100532Y-55088D01*
X100461Y-55158D01*
X100461Y-55017D01*
X100435Y-54922D01*
X100230Y-54849D01*
X100013Y-54860D01*
X99864Y-54922D01*
X99838Y-55017D01*
X100150Y-55329D01*
X100461Y-55017D01*
X100461Y-55158D01*
X100220Y-55400D01*
X100532Y-55711D01*
X100627Y-55685D01*
X100648Y-55626D01*
X100672Y-55685D01*
X100767Y-55711D01*
X101079Y-55400D01*
X101079Y-55541D01*
X100838Y-55782D01*
X100864Y-55877D01*
X101069Y-55950D01*
X101286Y-55939D01*
X101435Y-55877D01*
X101461Y-55782D01*
X101461Y-55887D01*
X101341Y-55937D01*
X101187Y-56090D01*
X101150Y-56181D01*
X101112Y-56091D01*
X100959Y-55937D01*
X100758Y-55854D01*
X100541Y-55854D01*
X100461Y-55887D01*
X100461Y-55782D01*
X100150Y-55470D01*
X99838Y-55782D01*
X99864Y-55877D01*
X100069Y-55950D01*
X100286Y-55939D01*
X100435Y-55877D01*
X100461Y-55782D01*
X100461Y-55887D01*
X100341Y-55937D01*
X100187Y-56090D01*
X100150Y-56181D01*
X100112Y-56091D01*
X99959Y-55937D01*
X99792Y-55868D01*
X99613Y-55689D01*
X99627Y-55685D01*
X99648Y-55626D01*
X99672Y-55685D01*
X99767Y-55711D01*
X100079Y-55400D01*
X99767Y-55088D01*
X99672Y-55114D01*
X99651Y-55173D01*
X99627Y-55114D01*
X99532Y-55088D01*
X99461Y-55158D01*
X99461Y-55017D01*
X99435Y-54922D01*
X99230Y-54849D01*
X99013Y-54860D01*
X98951Y-54886D01*
X98864Y-54922D01*
X98838Y-55017D01*
X99150Y-55329D01*
X99461Y-55017D01*
X99461Y-55158D01*
X99220Y-55400D01*
X99226Y-55405D01*
X99155Y-55476D01*
X99150Y-55470D01*
X99144Y-55476D01*
X99073Y-55405D01*
X99079Y-55400D01*
X98767Y-55088D01*
X98672Y-55114D01*
X98663Y-55139D01*
X97612Y-54087D01*
X97612Y-54087D01*
X97612Y-54087D01*
X96900Y-53375D01*
X96900Y-50787D01*
X96900Y-50350D01*
X96462Y-50350D01*
X96400Y-50412D01*
X96399Y-50649D01*
X96437Y-50741D01*
X96508Y-50811D01*
X96600Y-50849D01*
X96699Y-50850D01*
X96837Y-50850D01*
X96900Y-50787D01*
X96900Y-53375D01*
X94912Y-51387D01*
X94912Y-51387D01*
X94912Y-51387D01*
X94124Y-50600D01*
X94125Y-50515D01*
X94060Y-50359D01*
X93941Y-50239D01*
X93784Y-50175D01*
X93615Y-50174D01*
X93459Y-50239D01*
X93450Y-50248D01*
X93441Y-50239D01*
X93284Y-50175D01*
X93115Y-50174D01*
X92959Y-50239D01*
X92839Y-50358D01*
X92775Y-50515D01*
X92774Y-50684D01*
X92839Y-50840D01*
X92958Y-50960D01*
X93115Y-51024D01*
X93200Y-51025D01*
X95525Y-53350D01*
X93270Y-53350D01*
X92470Y-52550D01*
X91900Y-52550D01*
X91800Y-52550D01*
X86450Y-52550D01*
X86200Y-52550D01*
X85830Y-52550D01*
X84980Y-53350D01*
X73848Y-53350D01*
X73848Y-50850D01*
X74602Y-50850D01*
X74575Y-50915D01*
X74574Y-51084D01*
X74639Y-51240D01*
X74758Y-51360D01*
X74915Y-51424D01*
X75084Y-51425D01*
X75240Y-51360D01*
X75301Y-51300D01*
X75500Y-51300D01*
X75500Y-51299D01*
X75614Y-51277D01*
X75614Y-51277D01*
X75712Y-51212D01*
X78362Y-48562D01*
X78362Y-48562D01*
X78427Y-48464D01*
X78445Y-48373D01*
X78461Y-48366D01*
X78615Y-48211D01*
X78649Y-48130D01*
X78683Y-48211D01*
X78838Y-48365D01*
X78850Y-48370D01*
X78850Y-49475D01*
X77750Y-50575D01*
X77665Y-50574D01*
X77509Y-50639D01*
X77389Y-50758D01*
X77325Y-50915D01*
X77324Y-51084D01*
X77389Y-51240D01*
X77508Y-51360D01*
X77665Y-51424D01*
X77834Y-51425D01*
X77990Y-51360D01*
X78110Y-51241D01*
X78174Y-51084D01*
X78175Y-50999D01*
X79362Y-49812D01*
X79362Y-49812D01*
X79427Y-49714D01*
X79449Y-49600D01*
X79450Y-49600D01*
X79450Y-48371D01*
X79461Y-48366D01*
X79615Y-48211D01*
X79649Y-48130D01*
X79683Y-48211D01*
X79838Y-48365D01*
X79850Y-48370D01*
X79850Y-50150D01*
X79872Y-50264D01*
X79937Y-50362D01*
X80575Y-50999D01*
X80574Y-51084D01*
X80639Y-51240D01*
X80758Y-51360D01*
X80915Y-51424D01*
X81084Y-51425D01*
X81240Y-51360D01*
X81360Y-51241D01*
X81424Y-51084D01*
X81425Y-50915D01*
X81360Y-50759D01*
X81241Y-50639D01*
X81084Y-50575D01*
X80999Y-50574D01*
X80450Y-50025D01*
X80450Y-48371D01*
X80461Y-48366D01*
X80615Y-48211D01*
X80649Y-48130D01*
X80683Y-48211D01*
X80838Y-48365D01*
X80850Y-48370D01*
X80850Y-48400D01*
X80872Y-48514D01*
X80937Y-48612D01*
X83325Y-50999D01*
X83324Y-51084D01*
X83389Y-51240D01*
X83508Y-51360D01*
X83665Y-51424D01*
X83834Y-51425D01*
X83990Y-51360D01*
X84110Y-51241D01*
X84174Y-51084D01*
X84175Y-50915D01*
X84128Y-50802D01*
X84287Y-50962D01*
X84287Y-50962D01*
X84385Y-51027D01*
X84499Y-51049D01*
X84500Y-51050D01*
X87000Y-51050D01*
X87025Y-51050D01*
X87200Y-51224D01*
X87200Y-51598D01*
X87139Y-51658D01*
X87075Y-51815D01*
X87074Y-51984D01*
X87139Y-52140D01*
X87258Y-52260D01*
X87415Y-52324D01*
X87584Y-52325D01*
X87740Y-52260D01*
X87860Y-52141D01*
X87924Y-51984D01*
X87925Y-51815D01*
X87860Y-51659D01*
X87800Y-51598D01*
X87800Y-51100D01*
X87799Y-51099D01*
X87777Y-50985D01*
X87712Y-50887D01*
X87712Y-50887D01*
X87624Y-50800D01*
X90000Y-50800D01*
X90025Y-50800D01*
X90450Y-51224D01*
X90450Y-51648D01*
X90389Y-51708D01*
X90325Y-51865D01*
X90324Y-52034D01*
X90389Y-52190D01*
X90508Y-52310D01*
X90665Y-52374D01*
X90834Y-52375D01*
X90990Y-52310D01*
X91110Y-52191D01*
X91174Y-52034D01*
X91175Y-51865D01*
X91110Y-51709D01*
X91050Y-51648D01*
X91050Y-51100D01*
X91027Y-50985D01*
X90962Y-50887D01*
X90962Y-50887D01*
X90624Y-50550D01*
X91125Y-50550D01*
X93325Y-52749D01*
X93324Y-52834D01*
X93389Y-52990D01*
X93508Y-53110D01*
X93665Y-53174D01*
X93834Y-53175D01*
X93990Y-53110D01*
X94110Y-52991D01*
X94174Y-52834D01*
X94175Y-52665D01*
X94110Y-52509D01*
X93991Y-52389D01*
X93834Y-52325D01*
X93749Y-52324D01*
X91474Y-50050D01*
X94150Y-50050D01*
X94200Y-50050D01*
X94949Y-50050D01*
X95058Y-50160D01*
X95215Y-50224D01*
X95384Y-50225D01*
X95540Y-50160D01*
X95660Y-50041D01*
X95724Y-49884D01*
X95725Y-49715D01*
X95660Y-49559D01*
X95541Y-49439D01*
X95384Y-49375D01*
X95215Y-49374D01*
X95059Y-49439D01*
X95049Y-49450D01*
X94200Y-49450D01*
X94150Y-49450D01*
X86174Y-49450D01*
X86024Y-49300D01*
X90850Y-49300D01*
X93100Y-49300D01*
X93200Y-49300D01*
X93598Y-49300D01*
X93658Y-49360D01*
X93815Y-49424D01*
X93984Y-49425D01*
X94140Y-49360D01*
X94201Y-49300D01*
X95200Y-49300D01*
X95200Y-49299D01*
X95314Y-49277D01*
X95314Y-49277D01*
X95412Y-49212D01*
X97399Y-47224D01*
X97484Y-47225D01*
X97640Y-47160D01*
X97760Y-47041D01*
X97824Y-46884D01*
X97825Y-46715D01*
X97760Y-46559D01*
X97641Y-46439D01*
X97484Y-46375D01*
X97315Y-46374D01*
X97159Y-46439D01*
X97039Y-46558D01*
X96975Y-46715D01*
X96974Y-46800D01*
X95075Y-48700D01*
X94201Y-48700D01*
X94141Y-48639D01*
X93984Y-48575D01*
X93815Y-48574D01*
X93659Y-48639D01*
X93598Y-48700D01*
X93200Y-48700D01*
X93100Y-48700D01*
X91150Y-48700D01*
X91150Y-47450D01*
X91127Y-47335D01*
X91062Y-47237D01*
X91062Y-47237D01*
X90622Y-46798D01*
X93300Y-46798D01*
X93305Y-46798D01*
X93382Y-46875D01*
X93325Y-47015D01*
X93324Y-47184D01*
X93389Y-47340D01*
X93508Y-47460D01*
X93665Y-47524D01*
X93834Y-47525D01*
X93990Y-47460D01*
X94110Y-47341D01*
X94174Y-47184D01*
X94175Y-47015D01*
X94110Y-46859D01*
X94098Y-46847D01*
X94098Y-46750D01*
X94098Y-46749D01*
X94098Y-46749D01*
X94071Y-46616D01*
X93996Y-46503D01*
X93996Y-46503D01*
X93696Y-46203D01*
X93583Y-46128D01*
X93450Y-46101D01*
X93350Y-46101D01*
X93300Y-46101D01*
X92072Y-46101D01*
X92512Y-45662D01*
X92512Y-45662D01*
X92577Y-45564D01*
X92599Y-45450D01*
X92600Y-45450D01*
X92600Y-44551D01*
X92660Y-44491D01*
X92724Y-44334D01*
X92725Y-44165D01*
X92660Y-44009D01*
X92541Y-43889D01*
X92384Y-43825D01*
X92215Y-43824D01*
X92059Y-43889D01*
X92050Y-43898D01*
X92041Y-43889D01*
X91884Y-43825D01*
X91715Y-43824D01*
X91559Y-43889D01*
X91550Y-43898D01*
X91541Y-43889D01*
X91384Y-43825D01*
X91215Y-43824D01*
X91059Y-43889D01*
X91050Y-43898D01*
X91041Y-43889D01*
X90884Y-43825D01*
X90715Y-43824D01*
X90600Y-43872D01*
X90600Y-43051D01*
X90660Y-42991D01*
X90724Y-42834D01*
X90725Y-42665D01*
X90660Y-42509D01*
X90541Y-42389D01*
X90384Y-42325D01*
X90215Y-42324D01*
X90059Y-42389D01*
X90050Y-42398D01*
X90041Y-42389D01*
X89884Y-42325D01*
X89715Y-42324D01*
X89559Y-42389D01*
X89550Y-42398D01*
X89541Y-42389D01*
X89384Y-42325D01*
X89215Y-42324D01*
X89059Y-42389D01*
X89050Y-42398D01*
X89041Y-42389D01*
X88884Y-42325D01*
X88767Y-42324D01*
X89157Y-41935D01*
X93500Y-41935D01*
X93900Y-41935D01*
X94502Y-41935D01*
X94632Y-42065D01*
X94840Y-42151D01*
X95025Y-42152D01*
X95569Y-42696D01*
X95682Y-42771D01*
X95816Y-42798D01*
X96050Y-42798D01*
X98900Y-42798D01*
X99400Y-42798D01*
X100351Y-42798D01*
X100351Y-43334D01*
X100351Y-43400D01*
X100351Y-48923D01*
X100261Y-48834D01*
X100250Y-48829D01*
X100250Y-47801D01*
X100260Y-47791D01*
X100324Y-47634D01*
X100325Y-47465D01*
X100260Y-47309D01*
X100141Y-47189D01*
X99984Y-47125D01*
X99815Y-47124D01*
X99659Y-47189D01*
X99539Y-47308D01*
X99475Y-47465D01*
X99474Y-47634D01*
X99539Y-47790D01*
X99650Y-47901D01*
X99650Y-48828D01*
X99638Y-48833D01*
X99484Y-48988D01*
X99450Y-49069D01*
X99416Y-48988D01*
X99261Y-48834D01*
X99059Y-48750D01*
X98841Y-48749D01*
X98638Y-48833D01*
X98484Y-48988D01*
X98450Y-49069D01*
X98416Y-48988D01*
X98261Y-48834D01*
X98059Y-48750D01*
X97841Y-48749D01*
X97638Y-48833D01*
X97484Y-48988D01*
X97450Y-49069D01*
X97416Y-48988D01*
X97261Y-48834D01*
X97059Y-48750D01*
X96841Y-48749D01*
X96638Y-48833D01*
X96484Y-48988D01*
X96400Y-49190D01*
X96399Y-49408D01*
X96483Y-49611D01*
X96622Y-49750D01*
X96600Y-49750D01*
X96508Y-49788D01*
X96437Y-49858D01*
X96399Y-49950D01*
X96400Y-50187D01*
X96462Y-50250D01*
X96900Y-50250D01*
X96900Y-50242D01*
X97000Y-50242D01*
X97000Y-50250D01*
X97437Y-50250D01*
X97450Y-50237D01*
X97462Y-50250D01*
X97900Y-50250D01*
X97900Y-50242D01*
X98000Y-50242D01*
X98000Y-50250D01*
X98437Y-50250D01*
X98450Y-50237D01*
X98462Y-50250D01*
X98900Y-50250D01*
X98900Y-50242D01*
X99000Y-50242D01*
X99000Y-50250D01*
X99437Y-50250D01*
X99450Y-50237D01*
X99462Y-50250D01*
X99900Y-50250D01*
X99900Y-50242D01*
X100000Y-50242D01*
X100000Y-50250D01*
X100007Y-50250D01*
X100007Y-50350D01*
X100000Y-50350D01*
X100000Y-50787D01*
X100062Y-50850D01*
X100200Y-50850D01*
X100299Y-50849D01*
X100351Y-50828D01*
X100351Y-50855D01*
X100155Y-51051D01*
X99900Y-51051D01*
X99900Y-50787D01*
X99900Y-50350D01*
X99462Y-50350D01*
X99450Y-50362D01*
X99437Y-50350D01*
X99000Y-50350D01*
X99000Y-50787D01*
X99062Y-50850D01*
X99200Y-50850D01*
X99299Y-50849D01*
X99391Y-50811D01*
X99450Y-50753D01*
X99508Y-50811D01*
X99600Y-50849D01*
X99699Y-50850D01*
X99837Y-50850D01*
X99900Y-50787D01*
X99900Y-51051D01*
X98900Y-51051D01*
X98900Y-50787D01*
X98900Y-50350D01*
X98462Y-50350D01*
X98450Y-50362D01*
X98437Y-50350D01*
X98000Y-50350D01*
X98000Y-50787D01*
X98062Y-50850D01*
X98200Y-50850D01*
X98299Y-50849D01*
X98391Y-50811D01*
X98450Y-50753D01*
X98508Y-50811D01*
X98600Y-50849D01*
X98699Y-50850D01*
X98837Y-50850D01*
X98900Y-50787D01*
X98900Y-51051D01*
X98200Y-51051D01*
X98066Y-51078D01*
X97953Y-51153D01*
X97900Y-51207D01*
X97900Y-50787D01*
X97900Y-50350D01*
X97462Y-50350D01*
X97450Y-50362D01*
X97437Y-50350D01*
X97000Y-50350D01*
X97000Y-50787D01*
X97062Y-50850D01*
X97200Y-50850D01*
X97299Y-50849D01*
X97391Y-50811D01*
X97450Y-50753D01*
X97508Y-50811D01*
X97600Y-50849D01*
X97699Y-50850D01*
X97837Y-50850D01*
X97900Y-50787D01*
X97900Y-51207D01*
X97353Y-51753D01*
X97278Y-51866D01*
X97251Y-52000D01*
X97251Y-52200D01*
X97091Y-52359D01*
X97000Y-52580D01*
X96999Y-52818D01*
X97091Y-53039D01*
X97259Y-53208D01*
X97480Y-53299D01*
X97718Y-53300D01*
X97939Y-53208D01*
X98108Y-53040D01*
X98112Y-53029D01*
X98177Y-53051D01*
X98529Y-52700D01*
X98177Y-52348D01*
X98112Y-52370D01*
X98108Y-52360D01*
X97948Y-52199D01*
X97948Y-52144D01*
X98344Y-51748D01*
X100300Y-51748D01*
X100433Y-51721D01*
X100433Y-51721D01*
X100546Y-51646D01*
X100946Y-51246D01*
X100946Y-51246D01*
X100946Y-51246D01*
X101021Y-51133D01*
X101048Y-51000D01*
X101048Y-51000D01*
X101048Y-51000D01*
X101048Y-49718D01*
X101065Y-49724D01*
X101234Y-49725D01*
X101390Y-49660D01*
X101510Y-49541D01*
X101574Y-49384D01*
X101575Y-49299D01*
X101799Y-49074D01*
X101884Y-49075D01*
X102040Y-49010D01*
X102160Y-48891D01*
X102224Y-48734D01*
X102225Y-48565D01*
X102160Y-48409D01*
X102041Y-48289D01*
X101884Y-48225D01*
X101715Y-48224D01*
X101559Y-48289D01*
X101439Y-48408D01*
X101375Y-48565D01*
X101374Y-48650D01*
X101150Y-48875D01*
X101065Y-48874D01*
X101048Y-48882D01*
X101048Y-43400D01*
X101048Y-43334D01*
X101048Y-42798D01*
X101150Y-42798D01*
X103000Y-42798D01*
X103500Y-42798D01*
X107000Y-42798D01*
X107450Y-42798D01*
X107705Y-42798D01*
X107851Y-42944D01*
X107851Y-42999D01*
X107850Y-42999D01*
X107758Y-43037D01*
X107688Y-43108D01*
X107650Y-43200D01*
X107649Y-43299D01*
X107649Y-43899D01*
X107687Y-43991D01*
X107758Y-44061D01*
X107850Y-44099D01*
X107949Y-44100D01*
X108549Y-44100D01*
X108641Y-44062D01*
X108711Y-43991D01*
X108749Y-43899D01*
X108750Y-43846D01*
X108814Y-43865D01*
X109129Y-43550D01*
X108814Y-43234D01*
X108750Y-43253D01*
X108750Y-43200D01*
X108712Y-43108D01*
X108641Y-43038D01*
X108549Y-43000D01*
X108548Y-43000D01*
X108548Y-42800D01*
X108548Y-42799D01*
X108548Y-42799D01*
X108521Y-42666D01*
X108446Y-42553D01*
X108446Y-42553D01*
X108096Y-42203D01*
X107983Y-42128D01*
X107850Y-42101D01*
X107450Y-42101D01*
X107348Y-42101D01*
X107348Y-41990D01*
X107431Y-41907D01*
X107517Y-41699D01*
X107518Y-41475D01*
X107432Y-41267D01*
X107273Y-41108D01*
X107065Y-41022D01*
X106841Y-41021D01*
X106633Y-41107D01*
X106474Y-41266D01*
X106388Y-41474D01*
X106387Y-41698D01*
X106473Y-41906D01*
X106632Y-42065D01*
X106651Y-42073D01*
X106651Y-42101D01*
X105037Y-42101D01*
X105122Y-42066D01*
X105281Y-41907D01*
X105367Y-41699D01*
X105368Y-41475D01*
X105282Y-41267D01*
X105123Y-41108D01*
X104915Y-41022D01*
X104691Y-41021D01*
X104483Y-41107D01*
X104324Y-41266D01*
X104238Y-41474D01*
X104237Y-41698D01*
X104323Y-41906D01*
X104482Y-42065D01*
X104568Y-42101D01*
X103500Y-42101D01*
X103348Y-42101D01*
X103348Y-41990D01*
X103431Y-41907D01*
X103517Y-41699D01*
X103518Y-41475D01*
X103432Y-41267D01*
X103273Y-41108D01*
X103065Y-41022D01*
X102841Y-41021D01*
X102633Y-41107D01*
X102474Y-41266D01*
X102388Y-41474D01*
X102387Y-41698D01*
X102473Y-41906D01*
X102632Y-42065D01*
X102651Y-42073D01*
X102651Y-42101D01*
X101150Y-42101D01*
X101037Y-42101D01*
X101122Y-42066D01*
X101281Y-41907D01*
X101367Y-41699D01*
X101368Y-41475D01*
X101282Y-41267D01*
X101123Y-41108D01*
X100915Y-41022D01*
X100691Y-41021D01*
X100483Y-41107D01*
X100324Y-41266D01*
X100238Y-41474D01*
X100237Y-41698D01*
X100323Y-41906D01*
X100482Y-42065D01*
X100568Y-42101D01*
X99400Y-42101D01*
X99248Y-42101D01*
X99248Y-42076D01*
X99272Y-42066D01*
X99431Y-41907D01*
X99517Y-41699D01*
X99518Y-41475D01*
X99432Y-41267D01*
X99273Y-41108D01*
X99065Y-41022D01*
X98841Y-41021D01*
X98633Y-41107D01*
X98474Y-41266D01*
X98388Y-41474D01*
X98387Y-41698D01*
X98473Y-41906D01*
X98551Y-41984D01*
X98551Y-42101D01*
X97037Y-42101D01*
X97122Y-42066D01*
X97281Y-41907D01*
X97367Y-41699D01*
X97368Y-41475D01*
X97282Y-41267D01*
X97123Y-41108D01*
X96915Y-41022D01*
X96691Y-41021D01*
X96483Y-41107D01*
X96324Y-41266D01*
X96238Y-41474D01*
X96237Y-41698D01*
X96323Y-41906D01*
X96482Y-42065D01*
X96568Y-42101D01*
X96050Y-42101D01*
X95960Y-42101D01*
X95517Y-41659D01*
X95518Y-41475D01*
X95432Y-41267D01*
X95273Y-41108D01*
X95065Y-41022D01*
X94841Y-41021D01*
X94633Y-41107D01*
X94502Y-41238D01*
X93900Y-41238D01*
X93848Y-41238D01*
X93848Y-40252D01*
X93860Y-40241D01*
X93924Y-40084D01*
X93925Y-39915D01*
X93860Y-39759D01*
X93741Y-39639D01*
X93584Y-39575D01*
X93415Y-39574D01*
X93259Y-39639D01*
X93139Y-39758D01*
X93075Y-39915D01*
X93074Y-40084D01*
X93139Y-40240D01*
X93151Y-40252D01*
X93151Y-41238D01*
X89013Y-41238D01*
X88879Y-41265D01*
X88766Y-41340D01*
X88005Y-42101D01*
X87537Y-42101D01*
X87622Y-42066D01*
X87781Y-41907D01*
X87867Y-41699D01*
X87868Y-41475D01*
X87782Y-41267D01*
X87623Y-41108D01*
X87415Y-41022D01*
X87191Y-41021D01*
X86983Y-41107D01*
X86824Y-41266D01*
X86738Y-41474D01*
X86737Y-41698D01*
X86823Y-41906D01*
X86982Y-42065D01*
X87068Y-42101D01*
X85748Y-42101D01*
X85748Y-42076D01*
X85772Y-42066D01*
X85931Y-41907D01*
X86017Y-41699D01*
X86018Y-41475D01*
X85932Y-41267D01*
X85773Y-41108D01*
X85565Y-41022D01*
X85341Y-41021D01*
X85133Y-41107D01*
X84974Y-41266D01*
X84888Y-41474D01*
X84887Y-41698D01*
X84973Y-41906D01*
X85051Y-41984D01*
X85051Y-42101D01*
X83537Y-42101D01*
X83622Y-42066D01*
X83781Y-41907D01*
X83867Y-41699D01*
X83868Y-41475D01*
X83782Y-41267D01*
X83623Y-41108D01*
X83415Y-41022D01*
X83191Y-41021D01*
X82983Y-41107D01*
X82824Y-41266D01*
X82738Y-41474D01*
X82737Y-41698D01*
X82823Y-41906D01*
X82982Y-42065D01*
X83068Y-42101D01*
X81748Y-42101D01*
X81748Y-42076D01*
X81772Y-42066D01*
X81931Y-41907D01*
X82017Y-41699D01*
X82018Y-41475D01*
X81932Y-41267D01*
X81773Y-41108D01*
X81565Y-41022D01*
X81341Y-41021D01*
X81133Y-41107D01*
X80974Y-41266D01*
X80888Y-41474D01*
X80887Y-41698D01*
X80973Y-41906D01*
X81051Y-41984D01*
X81051Y-42101D01*
X79537Y-42101D01*
X79622Y-42066D01*
X79781Y-41907D01*
X79867Y-41699D01*
X79868Y-41475D01*
X79782Y-41267D01*
X79623Y-41108D01*
X79415Y-41022D01*
X79191Y-41021D01*
X78983Y-41107D01*
X78824Y-41266D01*
X78738Y-41474D01*
X78737Y-41698D01*
X78823Y-41906D01*
X78982Y-42065D01*
X79068Y-42101D01*
X77848Y-42101D01*
X77848Y-41990D01*
X77931Y-41907D01*
X78017Y-41699D01*
X78018Y-41475D01*
X77932Y-41267D01*
X77773Y-41108D01*
X77565Y-41022D01*
X77341Y-41021D01*
X77133Y-41107D01*
X76974Y-41266D01*
X76888Y-41474D01*
X76887Y-41698D01*
X76973Y-41906D01*
X77132Y-42065D01*
X77151Y-42073D01*
X77151Y-42101D01*
X76500Y-42101D01*
X76453Y-42101D01*
X75537Y-42101D01*
X75622Y-42066D01*
X75781Y-41907D01*
X75867Y-41699D01*
X75868Y-41475D01*
X75782Y-41267D01*
X75623Y-41108D01*
X75415Y-41022D01*
X75191Y-41021D01*
X74983Y-41107D01*
X74824Y-41266D01*
X74738Y-41474D01*
X74737Y-41698D01*
X74823Y-41906D01*
X74982Y-42065D01*
X75068Y-42101D01*
X73994Y-42101D01*
X73865Y-41973D01*
X73931Y-41907D01*
X74017Y-41699D01*
X74018Y-41475D01*
X73932Y-41267D01*
X73773Y-41108D01*
X73565Y-41022D01*
X73341Y-41021D01*
X73133Y-41107D01*
X72974Y-41266D01*
X72888Y-41474D01*
X72887Y-41698D01*
X72973Y-41906D01*
X73104Y-42037D01*
X73104Y-42053D01*
X73131Y-42186D01*
X73206Y-42299D01*
X73603Y-42696D01*
X73603Y-42696D01*
X73716Y-42771D01*
X73850Y-42798D01*
X76453Y-42798D01*
X76500Y-42798D01*
X77500Y-42798D01*
X81400Y-42798D01*
X85400Y-42798D01*
X88150Y-42798D01*
X88283Y-42771D01*
X88283Y-42771D01*
X88375Y-42710D01*
X88374Y-42834D01*
X88439Y-42990D01*
X88500Y-43051D01*
X88500Y-43925D01*
X88325Y-44100D01*
X87650Y-44100D01*
X77850Y-44100D01*
X77735Y-44122D01*
X77637Y-44187D01*
X76937Y-44887D01*
X76872Y-44985D01*
X76850Y-45100D01*
X76850Y-46428D01*
X76838Y-46433D01*
X76684Y-46588D01*
X76600Y-46790D01*
X76599Y-47008D01*
X76683Y-47211D01*
X76822Y-47349D01*
X76800Y-47349D01*
X76708Y-47387D01*
X76638Y-47458D01*
X76600Y-47550D01*
X76599Y-47649D01*
X76599Y-48249D01*
X76637Y-48341D01*
X76708Y-48411D01*
X76800Y-48449D01*
X76899Y-48450D01*
X77499Y-48450D01*
X77591Y-48412D01*
X77661Y-48341D01*
X77699Y-48249D01*
X77699Y-48227D01*
X77773Y-48301D01*
X75375Y-50700D01*
X75301Y-50700D01*
X75241Y-50639D01*
X75084Y-50575D01*
X74915Y-50574D01*
X74850Y-50602D01*
X74850Y-45150D01*
X71850Y-45150D01*
X71850Y-39050D01*
X110550Y-39050D01*
X110550Y-61550D01*
M02*
