M48
;DRILL file {Pcbnew (2013-mar-13)-testing} date jeu. 20 juin 2013 21:38:17 CEST
;FORMAT={-:-/ absolute / inch / decimal}
FMAT,2
INCH,TZ
T1C0.025
T2C0.035
T3C0.040
T4C0.043
T5C0.052
T6C0.128
%
G90
G05
M72
T1
X7.35Y-4.675
X7.55Y-5.3
X7.6Y-5.75
X7.85Y-5.75
X8.48Y-5.29
X8.65Y-5.6
X8.67Y-4.505
X8.77Y-4.54
X8.825Y-4.57
X8.84Y-5.555
X8.87Y-4.595
X8.92Y-4.62
X8.97Y-4.645
X9.02Y-4.67
X9.07Y-4.705
X9.175Y-5.65
X9.18Y-4.94
X9.19Y-4.45
X9.25Y-5.525
X9.252Y-4.94
X9.325Y-4.98
X9.4Y-6.115
X9.401Y-4.802
X9.425Y-4.665
X9.44Y-4.71
X9.49Y-5.05
X9.495Y-4.495
X9.525Y-4.88
X9.5325Y-4.6625
X9.535Y-4.745
X9.54Y-5.05
X9.58Y-5.075
X9.5875Y-4.785
X9.59Y-4.7275
X9.62Y-5.105
X9.66Y-4.995
X9.66Y-5.065
X9.725Y-4.925
X9.73Y-4.99
X9.75Y-4.72
X9.755Y-4.86
X9.855Y-4.75
X10.225Y-4.97
T2
X9.865Y-5.5613
X9.915Y-5.4613
X9.965Y-5.5613
X10.015Y-5.4613
X10.065Y-5.5613
X10.115Y-5.4613
X10.165Y-5.5613
X10.215Y-5.4613
X10.525Y-5.5613
X10.575Y-5.4613
X10.625Y-5.5613
X10.675Y-5.4613
X10.725Y-5.5613
X10.775Y-5.4613
X10.825Y-5.5613
X10.875Y-5.4613
T3
X7.71Y-4.82
X7.71Y-4.92
X7.81Y-4.82
X7.81Y-4.92
X7.91Y-4.82
X7.91Y-4.92
X8.01Y-4.82
X8.01Y-4.92
X8.11Y-4.82
X8.11Y-4.92
X8.21Y-4.82
X8.21Y-4.92
X8.31Y-4.82
X8.31Y-4.92
X8.41Y-4.82
X8.41Y-4.92
X8.51Y-4.82
X8.51Y-4.92
X8.61Y-4.82
X8.61Y-4.92
X9.7775Y-5.245
X9.835Y-4.575
X9.835Y-4.675
X9.8725Y-4.915
X9.8725Y-5.015
X9.8775Y-5.245
X9.935Y-4.575
X9.935Y-4.675
X9.9725Y-4.915
X9.9725Y-5.015
X9.9775Y-5.245
X10.035Y-4.575
X10.035Y-4.675
X10.0725Y-4.915
X10.0725Y-5.015
X10.135Y-4.575
X10.135Y-4.675
X10.1625Y-5.24
X10.2625Y-5.24
X10.54Y-5.1113
X10.54Y-5.2113
X10.5725Y-4.5
X10.5725Y-4.6
X10.64Y-5.1113
X10.64Y-5.2113
X10.74Y-5.1113
X10.74Y-5.2113
T4
X7.245Y-3.535
X7.245Y-4.135
X7.5442Y-3.635
X7.5442Y-4.135
X7.735Y-3.535
X7.735Y-4.135
X8.0342Y-3.635
X8.0342Y-4.135
X8.225Y-3.535
X8.225Y-4.135
X8.5242Y-3.635
X8.5242Y-4.135
X8.715Y-3.535
X8.715Y-4.135
X9.0142Y-3.635
X9.0142Y-4.135
X9.225Y-3.535
X9.225Y-4.135
X9.5242Y-3.635
X9.5242Y-4.135
X9.71Y-3.535
X9.71Y-4.135
X10.0092Y-3.635
X10.0092Y-4.135
X10.195Y-3.535
X10.195Y-4.135
X10.4942Y-3.635
X10.4942Y-4.135
X10.68Y-3.535
X10.68Y-4.135
X10.9792Y-3.635
X10.9792Y-4.135
T5
X7.302Y-3.189
X7.35Y-5.9646
X7.499Y-3.189
X7.5016Y-5.9646
X7.6531Y-5.9646
X7.782Y-3.189
X7.8047Y-5.9646
X7.9563Y-5.9646
X7.979Y-3.189
X8.2Y-5.9646
X8.262Y-3.189
X8.3516Y-5.9646
X8.459Y-3.189
X8.5031Y-5.9646
X8.6547Y-5.9646
X8.742Y-3.189
X8.8063Y-5.9646
X8.939Y-3.189
X9.302Y-3.189
X9.44Y-5.9646
X9.499Y-3.189
X9.5916Y-5.9646
X9.782Y-3.189
X9.979Y-3.189
X10.262Y-3.189
X10.459Y-3.189
X10.742Y-3.189
X10.939Y-3.189
T6
X9.8065Y-5.8113
X10.2738Y-5.8113
X10.4665Y-5.8113
X10.9338Y-5.8113
T0
M30
