G04 (created by PCBNEW (2013-mar-13)-testing) date jeu. 20 juin 2013 21:39:05 CEST*
%MOIN*%
G04 Gerber Fmt 3.4, Leading zero omitted, Abs format*
%FSLAX34Y34*%
G01*
G70*
G90*
G04 APERTURE LIST*
%ADD10C,0.005906*%
%ADD11C,0.015000*%
%ADD12C,0.083000*%
%ADD13C,0.120000*%
%ADD14O,0.098000X0.176000*%
%ADD15R,0.080000X0.100000*%
%ADD16R,0.100000X0.080000*%
%ADD17C,0.090000*%
%ADD18R,0.090000X0.090000*%
%ADD19R,0.110000X0.082000*%
%ADD20R,0.080000X0.080000*%
%ADD21C,0.080000*%
%ADD22R,0.090900X0.082900*%
%ADD23R,0.082000X0.110000*%
%ADD24R,0.037700X0.098700*%
%ADD25R,0.098700X0.037700*%
%ADD26R,0.050000X0.098740*%
%ADD27C,0.163700*%
%ADD28R,0.079100X0.079100*%
%ADD29C,0.079100*%
G04 APERTURE END LIST*
G54D10*
G54D11*
X71500Y-62000D02*
X110900Y-62000D01*
X71500Y-28000D02*
X110900Y-28000D01*
X110900Y-28000D02*
X110800Y-28000D01*
X110900Y-62000D02*
X110900Y-28000D01*
X71500Y-62000D02*
X71500Y-28000D01*
G54D12*
X92250Y-41350D03*
X95242Y-41350D03*
G54D13*
X95242Y-36350D03*
X92250Y-35350D03*
G54D12*
X97100Y-41350D03*
X100092Y-41350D03*
G54D13*
X100092Y-36350D03*
X97100Y-35350D03*
G54D12*
X101950Y-41350D03*
X104942Y-41350D03*
G54D13*
X104942Y-36350D03*
X101950Y-35350D03*
G54D12*
X106800Y-41350D03*
X109792Y-41350D03*
G54D13*
X109792Y-36350D03*
X106800Y-35350D03*
G54D14*
X109390Y-31889D03*
X107420Y-31889D03*
X104590Y-31889D03*
X102620Y-31889D03*
X99790Y-31889D03*
X97820Y-31889D03*
X94990Y-31889D03*
X93020Y-31889D03*
X89390Y-31889D03*
X87420Y-31889D03*
X84590Y-31889D03*
X82620Y-31889D03*
X79790Y-31889D03*
X77820Y-31889D03*
X74990Y-31889D03*
X73020Y-31889D03*
G54D12*
X87150Y-41350D03*
X90142Y-41350D03*
G54D13*
X90142Y-36350D03*
X87150Y-35350D03*
G54D12*
X82250Y-41350D03*
X85242Y-41350D03*
G54D13*
X85242Y-36350D03*
X82250Y-35350D03*
G54D12*
X77350Y-41350D03*
X80342Y-41350D03*
G54D13*
X80342Y-36350D03*
X77350Y-35350D03*
G54D12*
X72450Y-41350D03*
X75442Y-41350D03*
G54D13*
X75442Y-36350D03*
X72450Y-35350D03*
G54D15*
X93900Y-50700D03*
X92600Y-50700D03*
G54D14*
X94400Y-59645D03*
X95915Y-59645D03*
G54D16*
X106600Y-47350D03*
X106600Y-48650D03*
X107600Y-47350D03*
X107600Y-48650D03*
G54D17*
X97775Y-52450D03*
X98775Y-52450D03*
G54D18*
X99775Y-52450D03*
G54D15*
X73650Y-49750D03*
X72350Y-49750D03*
G54D19*
X72550Y-46600D03*
X72550Y-47600D03*
X72550Y-48500D03*
X75750Y-48500D03*
X75750Y-47500D03*
X75750Y-46500D03*
G54D20*
X100725Y-49150D03*
G54D21*
X100725Y-50150D03*
X99725Y-49150D03*
X99725Y-50150D03*
X98725Y-49150D03*
X98725Y-50150D03*
G54D15*
X91150Y-55500D03*
X89850Y-55500D03*
X87450Y-56500D03*
X88750Y-56500D03*
X95000Y-56300D03*
X93700Y-56300D03*
X81050Y-56500D03*
X82350Y-56500D03*
X74600Y-56500D03*
X75900Y-56500D03*
G54D16*
X108550Y-48650D03*
X108550Y-47350D03*
G54D15*
X77850Y-56500D03*
X79150Y-56500D03*
G54D16*
X107050Y-44825D03*
X107050Y-46125D03*
G54D15*
X94150Y-44800D03*
X92850Y-44800D03*
G54D16*
X102450Y-48600D03*
X102450Y-47300D03*
X104600Y-48650D03*
X104600Y-47350D03*
X105600Y-48650D03*
X105600Y-47350D03*
G54D15*
X84350Y-56500D03*
X85650Y-56500D03*
G54D20*
X99350Y-46750D03*
G54D21*
X99350Y-45750D03*
G54D20*
X105725Y-45000D03*
G54D21*
X105725Y-46000D03*
G54D20*
X98350Y-46750D03*
G54D21*
X98350Y-45750D03*
G54D20*
X100350Y-46750D03*
G54D21*
X100350Y-45750D03*
G54D20*
X101350Y-46750D03*
G54D21*
X101350Y-45750D03*
G54D22*
X103500Y-47441D03*
X103500Y-48559D03*
X108200Y-46059D03*
X108200Y-44941D03*
X109100Y-46059D03*
X109100Y-44941D03*
G54D20*
X107400Y-51112D03*
G54D21*
X107400Y-52112D03*
X106400Y-51112D03*
X106400Y-52112D03*
X105400Y-51112D03*
X105400Y-52112D03*
G54D14*
X73500Y-59645D03*
X75015Y-59645D03*
X76531Y-59645D03*
X78047Y-59645D03*
X79562Y-59645D03*
X82000Y-59645D03*
X83515Y-59645D03*
X85031Y-59645D03*
X86547Y-59645D03*
X88062Y-59645D03*
G54D23*
X73600Y-55100D03*
X74600Y-55100D03*
X75500Y-55100D03*
X75500Y-51900D03*
X74500Y-51900D03*
X73500Y-51900D03*
X76850Y-55100D03*
X77850Y-55100D03*
X78750Y-55100D03*
X78750Y-51900D03*
X77750Y-51900D03*
X76750Y-51900D03*
X80100Y-55100D03*
X81100Y-55100D03*
X82000Y-55100D03*
X82000Y-51900D03*
X81000Y-51900D03*
X80000Y-51900D03*
X83350Y-55100D03*
X84350Y-55100D03*
X85250Y-55100D03*
X85250Y-51900D03*
X84250Y-51900D03*
X83250Y-51900D03*
X86600Y-54200D03*
X87600Y-54200D03*
X88500Y-54200D03*
X88500Y-51000D03*
X87500Y-51000D03*
X86500Y-51000D03*
X93100Y-55100D03*
X94100Y-55100D03*
X95000Y-55100D03*
X95000Y-51900D03*
X94000Y-51900D03*
X93000Y-51900D03*
X89850Y-54200D03*
X90850Y-54200D03*
X91750Y-54200D03*
X91750Y-51000D03*
X90750Y-51000D03*
X89750Y-51000D03*
G54D24*
X93657Y-45854D03*
X93972Y-45854D03*
X94287Y-45854D03*
X94602Y-45854D03*
X94917Y-45854D03*
X95232Y-45854D03*
X95547Y-45854D03*
X95862Y-45854D03*
X95860Y-49620D03*
X93650Y-49620D03*
X93970Y-49620D03*
X94290Y-49620D03*
X94600Y-49620D03*
X94920Y-49620D03*
X95230Y-49620D03*
X95550Y-49620D03*
G54D25*
X96650Y-46638D03*
X96650Y-46952D03*
X96650Y-47268D03*
X96650Y-47582D03*
X96650Y-47898D03*
X96650Y-48212D03*
X96650Y-48528D03*
X96650Y-48842D03*
X92870Y-46640D03*
X92870Y-46950D03*
X92870Y-47270D03*
X92870Y-47580D03*
X92870Y-47890D03*
X92870Y-48210D03*
X92870Y-48530D03*
X92870Y-48850D03*
G54D20*
X102625Y-52400D03*
G54D21*
X101625Y-52400D03*
G54D20*
X77100Y-49200D03*
G54D21*
X77100Y-48200D03*
X78100Y-49200D03*
X78100Y-48200D03*
X79100Y-49200D03*
X79100Y-48200D03*
X80100Y-49200D03*
X80100Y-48200D03*
X81100Y-49200D03*
X81100Y-48200D03*
X82100Y-49200D03*
X82100Y-48200D03*
X83100Y-49200D03*
X83100Y-48200D03*
X84100Y-49200D03*
X84100Y-48200D03*
X85100Y-49200D03*
X85100Y-48200D03*
X86100Y-49200D03*
X86100Y-48200D03*
G54D26*
X87200Y-48150D03*
X87700Y-48150D03*
X88200Y-48150D03*
X88700Y-48150D03*
X89200Y-48150D03*
X89700Y-48150D03*
X90200Y-48150D03*
X90700Y-48150D03*
X91200Y-48150D03*
X91200Y-44450D03*
X90700Y-44450D03*
X90200Y-44450D03*
X87200Y-44449D03*
X87700Y-44450D03*
X88200Y-44450D03*
X88700Y-44450D03*
X89200Y-44450D03*
X89700Y-44450D03*
G54D27*
X109338Y-58112D03*
X104665Y-58112D03*
G54D28*
X105250Y-55612D03*
G54D29*
X105750Y-54612D03*
X106250Y-55612D03*
X106750Y-54612D03*
X107250Y-55612D03*
X107750Y-54612D03*
X108250Y-55612D03*
X108750Y-54612D03*
G54D27*
X102738Y-58112D03*
X98065Y-58112D03*
G54D28*
X98650Y-55612D03*
G54D29*
X99150Y-54612D03*
X99650Y-55612D03*
X100150Y-54612D03*
X100650Y-55612D03*
X101150Y-54612D03*
X101650Y-55612D03*
X102150Y-54612D03*
M02*
