G04 (created by PCBNEW (2013-mar-13)-testing) date mer. 23 oct. 2013 17:58:57 CEST*
%MOIN*%
G04 Gerber Fmt 3.4, Leading zero omitted, Abs format*
%FSLAX34Y34*%
G01*
G70*
G90*
G04 APERTURE LIST*
%ADD10C,0.005906*%
%ADD11C,0.015000*%
%ADD12R,0.060000X0.060000*%
%ADD13C,0.060000*%
%ADD14O,0.078000X0.156000*%
%ADD15C,0.063000*%
%ADD16C,0.100000*%
%ADD17C,0.143700*%
%ADD18R,0.059100X0.059100*%
%ADD19C,0.059100*%
%ADD20C,0.078740*%
%ADD21R,0.050000X0.038000*%
%ADD22C,0.070000*%
%ADD23C,0.035000*%
%ADD24C,0.019700*%
%ADD25C,0.011811*%
%ADD26C,0.010000*%
G04 APERTURE END LIST*
G54D10*
G54D11*
X71500Y-62000D02*
X110900Y-62000D01*
X71500Y-28000D02*
X110900Y-28000D01*
X110900Y-28000D02*
X110800Y-28000D01*
X110900Y-62000D02*
X110900Y-28000D01*
X71500Y-62000D02*
X71500Y-28000D01*
G54D12*
X77100Y-49200D03*
G54D13*
X77100Y-48200D03*
X78100Y-49200D03*
X78100Y-48200D03*
X79100Y-49200D03*
X79100Y-48200D03*
X80100Y-49200D03*
X80100Y-48200D03*
X81100Y-49200D03*
X81100Y-48200D03*
X82100Y-49200D03*
X82100Y-48200D03*
X83100Y-49200D03*
X83100Y-48200D03*
X84100Y-49200D03*
X84100Y-48200D03*
X85100Y-49200D03*
X85100Y-48200D03*
X86100Y-49200D03*
X86100Y-48200D03*
G54D14*
X82000Y-59645D03*
X83515Y-59645D03*
X85031Y-59645D03*
X86547Y-59645D03*
X88062Y-59645D03*
X73500Y-59645D03*
X75015Y-59645D03*
X76531Y-59645D03*
X78047Y-59645D03*
X79562Y-59645D03*
G54D12*
X107400Y-51112D03*
G54D13*
X107400Y-52112D03*
X106400Y-51112D03*
X106400Y-52112D03*
X105400Y-51112D03*
X105400Y-52112D03*
G54D12*
X101375Y-46175D03*
G54D13*
X101375Y-45175D03*
G54D12*
X100375Y-46175D03*
G54D13*
X100375Y-45175D03*
G54D12*
X98375Y-46175D03*
G54D13*
X98375Y-45175D03*
G54D12*
X105725Y-45000D03*
G54D13*
X105725Y-46000D03*
G54D12*
X99375Y-46175D03*
G54D13*
X99375Y-45175D03*
G54D12*
X100725Y-48525D03*
G54D13*
X100725Y-49525D03*
X99725Y-48525D03*
X99725Y-49525D03*
X98725Y-48525D03*
X98725Y-49525D03*
G54D14*
X94400Y-59645D03*
X95915Y-59645D03*
G54D15*
X72450Y-41350D03*
X75442Y-41350D03*
G54D16*
X75442Y-36350D03*
X72450Y-35350D03*
G54D15*
X77350Y-41350D03*
X80342Y-41350D03*
G54D16*
X80342Y-36350D03*
X77350Y-35350D03*
G54D15*
X82250Y-41350D03*
X85242Y-41350D03*
G54D16*
X85242Y-36350D03*
X82250Y-35350D03*
G54D15*
X87150Y-41350D03*
X90142Y-41350D03*
G54D16*
X90142Y-36350D03*
X87150Y-35350D03*
G54D14*
X74990Y-31889D03*
X73020Y-31889D03*
X79790Y-31889D03*
X77820Y-31889D03*
X84590Y-31889D03*
X82620Y-31889D03*
X89390Y-31889D03*
X87420Y-31889D03*
X94990Y-31889D03*
X93020Y-31889D03*
X99790Y-31889D03*
X97820Y-31889D03*
X104590Y-31889D03*
X102620Y-31889D03*
X109390Y-31889D03*
X107420Y-31889D03*
G54D15*
X106800Y-41350D03*
X109792Y-41350D03*
G54D16*
X109792Y-36350D03*
X106800Y-35350D03*
G54D15*
X101950Y-41350D03*
X104942Y-41350D03*
G54D16*
X104942Y-36350D03*
X101950Y-35350D03*
G54D15*
X97100Y-41350D03*
X100092Y-41350D03*
G54D16*
X100092Y-36350D03*
X97100Y-35350D03*
G54D15*
X92250Y-41350D03*
X95242Y-41350D03*
G54D16*
X95242Y-36350D03*
X92250Y-35350D03*
G54D17*
X102738Y-58112D03*
X98065Y-58112D03*
G54D18*
X98650Y-55612D03*
G54D19*
X99150Y-54612D03*
X99650Y-55612D03*
X100150Y-54612D03*
X100650Y-55612D03*
X101150Y-54612D03*
X101650Y-55612D03*
X102150Y-54612D03*
G54D20*
X97650Y-60112D03*
X103100Y-60112D03*
G54D17*
X109338Y-58112D03*
X104665Y-58112D03*
G54D18*
X105250Y-55612D03*
G54D19*
X105750Y-54612D03*
X106250Y-55612D03*
X106750Y-54612D03*
X107250Y-55612D03*
X107750Y-54612D03*
X108250Y-55612D03*
X108750Y-54612D03*
G54D20*
X104250Y-60112D03*
X109700Y-60112D03*
G54D21*
X102600Y-52250D03*
X102600Y-52750D03*
G54D22*
X98700Y-51575D03*
X99700Y-51575D03*
X100700Y-51575D03*
G54D23*
X91850Y-44050D03*
X93950Y-47150D03*
X95450Y-44450D03*
X102250Y-49700D03*
X97525Y-46875D03*
X95900Y-47275D03*
X97550Y-48600D03*
X96800Y-50825D03*
X96275Y-50775D03*
X95800Y-50750D03*
X95400Y-50500D03*
X94900Y-50500D03*
X91750Y-47900D03*
X92650Y-45000D03*
X94500Y-46625D03*
X95250Y-48800D03*
X75500Y-53000D03*
X84800Y-52900D03*
X72400Y-43650D03*
X76950Y-56450D03*
X80200Y-56500D03*
X86500Y-56000D03*
X88400Y-55550D03*
X92150Y-55550D03*
X95350Y-47450D03*
X92650Y-49300D03*
X97300Y-49300D03*
X91850Y-49350D03*
X97200Y-50500D03*
X87200Y-45350D03*
X87700Y-45600D03*
X88200Y-45850D03*
X88700Y-46050D03*
X89200Y-46300D03*
X89700Y-46550D03*
X90150Y-46900D03*
X95875Y-47850D03*
X98950Y-46950D03*
X93210Y-49540D03*
X97300Y-49775D03*
G54D24*
X91900Y-43740D02*
X91900Y-44000D01*
X91900Y-44000D02*
X91850Y-44050D01*
X92640Y-43740D02*
X91900Y-43740D01*
X91900Y-43740D02*
X87150Y-43740D01*
X72450Y-41350D02*
X74050Y-41350D01*
X74050Y-41350D02*
X76440Y-43740D01*
X97120Y-43740D02*
X97120Y-41370D01*
X97120Y-41370D02*
X97100Y-41350D01*
X92640Y-43740D02*
X92640Y-41740D01*
X92640Y-41740D02*
X92250Y-41350D01*
X87150Y-41350D02*
X87150Y-43740D01*
X87150Y-43740D02*
X87150Y-43680D01*
X87150Y-43680D02*
X87150Y-43740D01*
X82250Y-41350D02*
X82250Y-43740D01*
X77350Y-41350D02*
X77350Y-43740D01*
X77350Y-43740D02*
X77350Y-43660D01*
X77350Y-43660D02*
X77350Y-43740D01*
X101950Y-41350D02*
X101950Y-43740D01*
X102040Y-43720D02*
X102040Y-43740D01*
X101970Y-43720D02*
X102040Y-43720D01*
X101950Y-43740D02*
X101970Y-43720D01*
X105725Y-45000D02*
X105725Y-43740D01*
X105730Y-43790D02*
X105730Y-43740D01*
X105730Y-43745D02*
X105730Y-43790D01*
X105725Y-43740D02*
X105730Y-43745D01*
X76440Y-43740D02*
X77350Y-43740D01*
X77350Y-43740D02*
X82250Y-43740D01*
X82250Y-43740D02*
X87150Y-43740D01*
X92640Y-43740D02*
X97120Y-43740D01*
X97120Y-43740D02*
X102040Y-43740D01*
X102040Y-43740D02*
X105730Y-43740D01*
X106260Y-43740D02*
X106800Y-43200D01*
X105730Y-43740D02*
X106260Y-43740D01*
X106800Y-43200D02*
X106800Y-42800D01*
X106800Y-42050D02*
X106800Y-42800D01*
X106800Y-42050D02*
X106800Y-41350D01*
X106800Y-41950D02*
X106800Y-42050D01*
X86100Y-48200D02*
X86150Y-48200D01*
X92150Y-47350D02*
X92450Y-47050D01*
X87000Y-47350D02*
X92150Y-47350D01*
X86150Y-48200D02*
X87000Y-47350D01*
X93850Y-47050D02*
X93950Y-47150D01*
X92450Y-47050D02*
X93850Y-47050D01*
X102250Y-50425D02*
X102250Y-51550D01*
X102600Y-51900D02*
X102600Y-52250D01*
X102250Y-51550D02*
X102600Y-51900D01*
X102250Y-49450D02*
X102250Y-49700D01*
X102250Y-45650D02*
X102250Y-49450D01*
X102025Y-44525D02*
X102250Y-44750D01*
X102250Y-44750D02*
X102250Y-45650D01*
X101900Y-44400D02*
X102025Y-44525D01*
X95500Y-44400D02*
X101900Y-44400D01*
X95450Y-44450D02*
X95500Y-44400D01*
X100700Y-50425D02*
X102250Y-50425D01*
X102250Y-50425D02*
X102225Y-50425D01*
X102225Y-50425D02*
X102250Y-50425D01*
X100700Y-51575D02*
X100700Y-50425D01*
X100700Y-50425D02*
X100700Y-49550D01*
X100700Y-49550D02*
X100725Y-49525D01*
X100725Y-49525D02*
X100775Y-49575D01*
X102250Y-50425D02*
X102250Y-50200D01*
X102250Y-50200D02*
X102250Y-49700D01*
G54D25*
X98150Y-50850D02*
X98150Y-50900D01*
X98150Y-50900D02*
X97600Y-51450D01*
X97600Y-54750D02*
X97975Y-55125D01*
X97600Y-51450D02*
X97600Y-54750D01*
X98150Y-47925D02*
X98150Y-47700D01*
X97525Y-47075D02*
X97525Y-46875D01*
X98150Y-47700D02*
X97525Y-47075D01*
X100162Y-55125D02*
X100650Y-55612D01*
X97975Y-55125D02*
X100162Y-55125D01*
X98150Y-47925D02*
X98150Y-50850D01*
G54D24*
X102600Y-52750D02*
X102600Y-54162D01*
X102600Y-54162D02*
X102150Y-54612D01*
X102600Y-52750D02*
X103150Y-52750D01*
X103150Y-52750D02*
X103350Y-52550D01*
X103350Y-52550D02*
X103350Y-50750D01*
X104325Y-49775D02*
X107025Y-49775D01*
X107025Y-49775D02*
X107400Y-50150D01*
X107400Y-50150D02*
X107400Y-51112D01*
X103350Y-50750D02*
X104325Y-49775D01*
X107400Y-51112D02*
X108062Y-51112D01*
X108750Y-51800D02*
X108750Y-54612D01*
X108062Y-51112D02*
X108750Y-51800D01*
X108750Y-54612D02*
X108750Y-55112D01*
X108750Y-55112D02*
X108250Y-55612D01*
X101650Y-55612D02*
X101912Y-55612D01*
X102150Y-55375D02*
X102150Y-54612D01*
X101912Y-55612D02*
X102150Y-55375D01*
G54D25*
X95900Y-47275D02*
X96875Y-47275D01*
X96875Y-47275D02*
X97900Y-48300D01*
X97900Y-48300D02*
X97900Y-49950D01*
X97900Y-48650D02*
X97900Y-48300D01*
X97900Y-50750D02*
X97900Y-49950D01*
X95200Y-52400D02*
X96250Y-52400D01*
X77100Y-51450D02*
X78050Y-52400D01*
X78050Y-52400D02*
X95200Y-52400D01*
X77100Y-49200D02*
X77100Y-51450D01*
X96250Y-52400D02*
X97900Y-50750D01*
X97900Y-49950D02*
X97900Y-48650D01*
X97900Y-48300D02*
X97900Y-48300D01*
X95100Y-52150D02*
X96150Y-52150D01*
X97650Y-48700D02*
X97550Y-48600D01*
X97650Y-50650D02*
X97650Y-48700D01*
X96150Y-52150D02*
X97650Y-50650D01*
X78100Y-49200D02*
X78100Y-51650D01*
X78600Y-52150D02*
X95100Y-52150D01*
X78100Y-51650D02*
X78600Y-52150D01*
X96800Y-50975D02*
X96675Y-51100D01*
X96800Y-50825D02*
X96800Y-50975D01*
X95675Y-51850D02*
X95925Y-51850D01*
X95925Y-51850D02*
X96650Y-51125D01*
X96650Y-51125D02*
X96712Y-51062D01*
X79100Y-49200D02*
X79100Y-51550D01*
X95100Y-51850D02*
X95675Y-51850D01*
X79100Y-51550D02*
X79400Y-51850D01*
X79400Y-51850D02*
X95100Y-51850D01*
X96200Y-51050D02*
X96200Y-50850D01*
X80350Y-51600D02*
X94850Y-51600D01*
X80100Y-51349D02*
X80350Y-51600D01*
X80100Y-49200D02*
X80100Y-51349D01*
X94850Y-51600D02*
X95650Y-51600D01*
X95650Y-51600D02*
X96200Y-51050D01*
X96200Y-50850D02*
X96275Y-50775D01*
X94500Y-51350D02*
X95350Y-51350D01*
X95800Y-50900D02*
X95800Y-50750D01*
X95350Y-51350D02*
X95800Y-50900D01*
X81100Y-49200D02*
X81100Y-50950D01*
X81500Y-51350D02*
X94500Y-51350D01*
X81100Y-50950D02*
X81500Y-51350D01*
X94350Y-51100D02*
X95150Y-51100D01*
X95400Y-50850D02*
X95400Y-50500D01*
X95150Y-51100D02*
X95400Y-50850D01*
X82100Y-49200D02*
X82100Y-50800D01*
X82100Y-50800D02*
X82400Y-51100D01*
X82400Y-51100D02*
X94350Y-51100D01*
X94050Y-50850D02*
X94550Y-50850D01*
X94550Y-50850D02*
X94900Y-50500D01*
X83100Y-49200D02*
X83100Y-50550D01*
X83400Y-50850D02*
X94050Y-50850D01*
X83100Y-50550D02*
X83400Y-50850D01*
X95865Y-58950D02*
X95865Y-59284D01*
G54D24*
X72075Y-43975D02*
X72400Y-43650D01*
X72075Y-46065D02*
X72075Y-48180D01*
X72075Y-46065D02*
X72075Y-43975D01*
X72075Y-58900D02*
X72075Y-48180D01*
X73500Y-59645D02*
X72820Y-59645D01*
X72075Y-48180D02*
X72075Y-48175D01*
X72820Y-59645D02*
X72075Y-58900D01*
X76531Y-56868D02*
X76531Y-59645D01*
X76950Y-56450D02*
X76531Y-56868D01*
X78047Y-58652D02*
X78047Y-59645D01*
X80200Y-56500D02*
X78047Y-58652D01*
X84125Y-58375D02*
X83515Y-58984D01*
X83515Y-58984D02*
X83515Y-59645D01*
X83515Y-59000D02*
X83515Y-58984D01*
X84125Y-58375D02*
X86500Y-56000D01*
X85850Y-57900D02*
X85031Y-58718D01*
X85031Y-58718D02*
X85031Y-59645D01*
X85850Y-57900D02*
X87500Y-56250D01*
X85031Y-58718D02*
X85031Y-59000D01*
X88150Y-55600D02*
X87500Y-56250D01*
X88350Y-55600D02*
X88150Y-55600D01*
X88400Y-55550D02*
X88350Y-55600D01*
X90225Y-55250D02*
X91850Y-55250D01*
X91850Y-55250D02*
X92150Y-55550D01*
X86547Y-58927D02*
X90225Y-55250D01*
X86547Y-59645D02*
X86547Y-58927D01*
G54D25*
X91575Y-48325D02*
X93075Y-48325D01*
X93075Y-48325D02*
X93600Y-47800D01*
X95000Y-47800D02*
X95350Y-47450D01*
X93600Y-47800D02*
X95000Y-47800D01*
X88750Y-50081D02*
X89818Y-50081D01*
X89818Y-50081D02*
X91575Y-48325D01*
X86131Y-50081D02*
X88750Y-50081D01*
X85600Y-49550D02*
X86131Y-50081D01*
X85600Y-48700D02*
X85600Y-49550D01*
X85100Y-48200D02*
X85600Y-48700D01*
X92650Y-49300D02*
X92700Y-49300D01*
X97200Y-49200D02*
X97300Y-49300D01*
X92800Y-49200D02*
X97200Y-49200D01*
X92700Y-49300D02*
X92800Y-49200D01*
X92850Y-50150D02*
X92650Y-50150D01*
X92650Y-50150D02*
X91850Y-49350D01*
X93000Y-50150D02*
X92850Y-50150D01*
X93000Y-50150D02*
X95750Y-50150D01*
X97125Y-50425D02*
X97200Y-50500D01*
X96025Y-50425D02*
X97125Y-50425D01*
X95750Y-50150D02*
X96025Y-50425D01*
X77100Y-48200D02*
X77100Y-46400D01*
X87100Y-45450D02*
X87200Y-45350D01*
X78050Y-45450D02*
X87100Y-45450D01*
X77100Y-46400D02*
X78050Y-45450D01*
X78100Y-48200D02*
X78100Y-46850D01*
X87600Y-45700D02*
X87700Y-45600D01*
X79250Y-45700D02*
X87600Y-45700D01*
X78100Y-46850D02*
X79250Y-45700D01*
X79100Y-48200D02*
X79100Y-47100D01*
X88100Y-45950D02*
X88200Y-45850D01*
X80250Y-45950D02*
X88100Y-45950D01*
X79100Y-47100D02*
X80250Y-45950D01*
X80100Y-48200D02*
X80100Y-47450D01*
X88550Y-46200D02*
X88700Y-46050D01*
X81350Y-46200D02*
X88550Y-46200D01*
X80100Y-47450D02*
X81350Y-46200D01*
X81100Y-48200D02*
X81100Y-47550D01*
X89050Y-46450D02*
X89200Y-46300D01*
X82200Y-46450D02*
X89050Y-46450D01*
X81100Y-47550D02*
X82200Y-46450D01*
X82100Y-48200D02*
X82100Y-47500D01*
X89550Y-46700D02*
X89700Y-46550D01*
X82900Y-46700D02*
X89550Y-46700D01*
X82100Y-47500D02*
X82900Y-46700D01*
X83100Y-48200D02*
X83100Y-47750D01*
X90100Y-46950D02*
X90150Y-46900D01*
X83900Y-46950D02*
X90100Y-46950D01*
X83100Y-47750D02*
X83900Y-46950D01*
G54D26*
X84100Y-48200D02*
X84100Y-48250D01*
G54D25*
X91725Y-48575D02*
X93175Y-48575D01*
X93175Y-48575D02*
X93700Y-48050D01*
X85100Y-49200D02*
X85100Y-49450D01*
X85100Y-49450D02*
X85950Y-50300D01*
X91675Y-48625D02*
X91725Y-48575D01*
X95675Y-48050D02*
X95875Y-47850D01*
X93700Y-48050D02*
X95675Y-48050D01*
X89400Y-50300D02*
X90000Y-50300D01*
X90000Y-50300D02*
X91675Y-48625D01*
X85950Y-50300D02*
X89400Y-50300D01*
X98725Y-48075D02*
X98725Y-47175D01*
X98725Y-47175D02*
X98950Y-46950D01*
X98725Y-48525D02*
X98725Y-48075D01*
X93210Y-49540D02*
X93360Y-49540D01*
X96975Y-49450D02*
X97300Y-49775D01*
X93450Y-49450D02*
X96975Y-49450D01*
X93360Y-49540D02*
X93450Y-49450D01*
X97200Y-49675D02*
X97300Y-49775D01*
X97200Y-49675D02*
X97300Y-49775D01*
X97200Y-49675D02*
X97300Y-49775D01*
X104400Y-52400D02*
X104400Y-50800D01*
X105662Y-50375D02*
X106400Y-51112D01*
X104825Y-50375D02*
X105662Y-50375D01*
X104400Y-50800D02*
X104825Y-50375D01*
X104400Y-55900D02*
X104400Y-56625D01*
X104400Y-54475D02*
X104400Y-52400D01*
X104400Y-54475D02*
X104400Y-55900D01*
X99650Y-55612D02*
X99650Y-56100D01*
X99650Y-56100D02*
X100175Y-56625D01*
X100175Y-56625D02*
X104400Y-56625D01*
X104400Y-56625D02*
X105500Y-56625D01*
X106250Y-56150D02*
X106250Y-55612D01*
X105500Y-56625D02*
X105775Y-56625D01*
X105775Y-56625D02*
X106250Y-56150D01*
X105250Y-55612D02*
X105250Y-53400D01*
X106400Y-52250D02*
X106400Y-52112D01*
X105250Y-53400D02*
X106400Y-52250D01*
G54D10*
G36*
X110550Y-61550D02*
X110354Y-61550D01*
X110354Y-41238D01*
X110268Y-41032D01*
X110110Y-40873D01*
X109904Y-40788D01*
X109680Y-40787D01*
X109474Y-40873D01*
X109315Y-41031D01*
X109230Y-41237D01*
X109230Y-41461D01*
X109315Y-41667D01*
X109473Y-41826D01*
X109679Y-41911D01*
X109903Y-41912D01*
X110110Y-41826D01*
X110268Y-41668D01*
X110354Y-41462D01*
X110354Y-41238D01*
X110354Y-61550D01*
X110206Y-61550D01*
X110206Y-57940D01*
X110074Y-57621D01*
X109830Y-57376D01*
X109511Y-57244D01*
X109195Y-57243D01*
X109195Y-54524D01*
X109127Y-54360D01*
X109002Y-54235D01*
X108998Y-54233D01*
X108998Y-51800D01*
X108979Y-51704D01*
X108925Y-51624D01*
X108238Y-50936D01*
X108157Y-50883D01*
X108062Y-50864D01*
X107850Y-50864D01*
X107850Y-50782D01*
X107827Y-50727D01*
X107784Y-50685D01*
X107729Y-50662D01*
X107670Y-50662D01*
X107648Y-50662D01*
X107648Y-50150D01*
X107629Y-50054D01*
X107629Y-50054D01*
X107608Y-50022D01*
X107575Y-49974D01*
X107575Y-49974D01*
X107362Y-49760D01*
X107362Y-41238D01*
X107276Y-41032D01*
X107118Y-40873D01*
X106912Y-40788D01*
X106688Y-40787D01*
X106482Y-40873D01*
X106323Y-41031D01*
X106238Y-41237D01*
X106237Y-41461D01*
X106323Y-41667D01*
X106454Y-41799D01*
X106454Y-41950D01*
X106454Y-42050D01*
X106454Y-42800D01*
X106454Y-43056D01*
X106116Y-43394D01*
X105730Y-43394D01*
X105725Y-43394D01*
X105504Y-43394D01*
X105504Y-41238D01*
X105418Y-41032D01*
X105260Y-40873D01*
X105054Y-40788D01*
X104830Y-40787D01*
X104624Y-40873D01*
X104465Y-41031D01*
X104380Y-41237D01*
X104380Y-41461D01*
X104465Y-41667D01*
X104623Y-41826D01*
X104829Y-41911D01*
X105053Y-41912D01*
X105260Y-41826D01*
X105418Y-41668D01*
X105504Y-41462D01*
X105504Y-41238D01*
X105504Y-43394D01*
X102295Y-43394D01*
X102295Y-41799D01*
X102426Y-41668D01*
X102511Y-41462D01*
X102512Y-41238D01*
X102426Y-41032D01*
X102268Y-40873D01*
X102062Y-40788D01*
X101838Y-40787D01*
X101632Y-40873D01*
X101473Y-41031D01*
X101388Y-41237D01*
X101387Y-41461D01*
X101473Y-41667D01*
X101604Y-41799D01*
X101604Y-43394D01*
X100654Y-43394D01*
X100654Y-41238D01*
X100568Y-41032D01*
X100410Y-40873D01*
X100204Y-40788D01*
X99980Y-40787D01*
X99774Y-40873D01*
X99615Y-41031D01*
X99530Y-41237D01*
X99530Y-41461D01*
X99615Y-41667D01*
X99773Y-41826D01*
X99979Y-41911D01*
X100203Y-41912D01*
X100410Y-41826D01*
X100568Y-41668D01*
X100654Y-41462D01*
X100654Y-41238D01*
X100654Y-43394D01*
X97465Y-43394D01*
X97465Y-41779D01*
X97576Y-41668D01*
X97661Y-41462D01*
X97662Y-41238D01*
X97576Y-41032D01*
X97418Y-40873D01*
X97212Y-40788D01*
X96988Y-40787D01*
X96782Y-40873D01*
X96623Y-41031D01*
X96538Y-41237D01*
X96537Y-41461D01*
X96623Y-41667D01*
X96774Y-41819D01*
X96774Y-43394D01*
X95804Y-43394D01*
X95804Y-41238D01*
X95718Y-41032D01*
X95560Y-40873D01*
X95354Y-40788D01*
X95130Y-40787D01*
X94924Y-40873D01*
X94765Y-41031D01*
X94680Y-41237D01*
X94680Y-41461D01*
X94765Y-41667D01*
X94923Y-41826D01*
X95129Y-41911D01*
X95353Y-41912D01*
X95560Y-41826D01*
X95718Y-41668D01*
X95804Y-41462D01*
X95804Y-41238D01*
X95804Y-43394D01*
X92985Y-43394D01*
X92985Y-41740D01*
X92959Y-41607D01*
X92959Y-41607D01*
X92884Y-41495D01*
X92811Y-41423D01*
X92812Y-41238D01*
X92726Y-41032D01*
X92568Y-40873D01*
X92362Y-40788D01*
X92138Y-40787D01*
X91932Y-40873D01*
X91773Y-41031D01*
X91688Y-41237D01*
X91687Y-41461D01*
X91773Y-41667D01*
X91931Y-41826D01*
X92137Y-41911D01*
X92294Y-41912D01*
X92294Y-43394D01*
X91900Y-43394D01*
X90704Y-43394D01*
X90704Y-41238D01*
X90618Y-41032D01*
X90460Y-40873D01*
X90254Y-40788D01*
X90030Y-40787D01*
X89824Y-40873D01*
X89665Y-41031D01*
X89580Y-41237D01*
X89580Y-41461D01*
X89665Y-41667D01*
X89823Y-41826D01*
X90029Y-41911D01*
X90253Y-41912D01*
X90460Y-41826D01*
X90618Y-41668D01*
X90704Y-41462D01*
X90704Y-41238D01*
X90704Y-43394D01*
X87495Y-43394D01*
X87495Y-41799D01*
X87626Y-41668D01*
X87711Y-41462D01*
X87712Y-41238D01*
X87626Y-41032D01*
X87468Y-40873D01*
X87262Y-40788D01*
X87038Y-40787D01*
X86832Y-40873D01*
X86673Y-41031D01*
X86588Y-41237D01*
X86587Y-41461D01*
X86673Y-41667D01*
X86804Y-41799D01*
X86804Y-43394D01*
X85804Y-43394D01*
X85804Y-41238D01*
X85718Y-41032D01*
X85560Y-40873D01*
X85354Y-40788D01*
X85130Y-40787D01*
X84924Y-40873D01*
X84765Y-41031D01*
X84680Y-41237D01*
X84680Y-41461D01*
X84765Y-41667D01*
X84923Y-41826D01*
X85129Y-41911D01*
X85353Y-41912D01*
X85560Y-41826D01*
X85718Y-41668D01*
X85804Y-41462D01*
X85804Y-41238D01*
X85804Y-43394D01*
X82595Y-43394D01*
X82595Y-41799D01*
X82726Y-41668D01*
X82811Y-41462D01*
X82812Y-41238D01*
X82726Y-41032D01*
X82568Y-40873D01*
X82362Y-40788D01*
X82138Y-40787D01*
X81932Y-40873D01*
X81773Y-41031D01*
X81688Y-41237D01*
X81687Y-41461D01*
X81773Y-41667D01*
X81904Y-41799D01*
X81904Y-43394D01*
X80904Y-43394D01*
X80904Y-41238D01*
X80818Y-41032D01*
X80660Y-40873D01*
X80454Y-40788D01*
X80230Y-40787D01*
X80024Y-40873D01*
X79865Y-41031D01*
X79780Y-41237D01*
X79780Y-41461D01*
X79865Y-41667D01*
X80023Y-41826D01*
X80229Y-41911D01*
X80453Y-41912D01*
X80660Y-41826D01*
X80818Y-41668D01*
X80904Y-41462D01*
X80904Y-41238D01*
X80904Y-43394D01*
X77695Y-43394D01*
X77695Y-41799D01*
X77826Y-41668D01*
X77911Y-41462D01*
X77912Y-41238D01*
X77826Y-41032D01*
X77668Y-40873D01*
X77462Y-40788D01*
X77238Y-40787D01*
X77032Y-40873D01*
X76873Y-41031D01*
X76788Y-41237D01*
X76787Y-41461D01*
X76873Y-41667D01*
X77004Y-41799D01*
X77004Y-43394D01*
X76583Y-43394D01*
X76004Y-42815D01*
X76004Y-41238D01*
X75918Y-41032D01*
X75760Y-40873D01*
X75554Y-40788D01*
X75330Y-40787D01*
X75124Y-40873D01*
X74965Y-41031D01*
X74880Y-41237D01*
X74880Y-41461D01*
X74965Y-41667D01*
X75123Y-41826D01*
X75329Y-41911D01*
X75553Y-41912D01*
X75760Y-41826D01*
X75918Y-41668D01*
X76004Y-41462D01*
X76004Y-41238D01*
X76004Y-42815D01*
X74294Y-41105D01*
X74182Y-41030D01*
X74050Y-41004D01*
X72899Y-41004D01*
X72768Y-40873D01*
X72562Y-40788D01*
X72338Y-40787D01*
X72132Y-40873D01*
X71973Y-41031D01*
X71888Y-41237D01*
X71887Y-41461D01*
X71973Y-41667D01*
X72131Y-41826D01*
X72337Y-41911D01*
X72561Y-41912D01*
X72767Y-41826D01*
X72899Y-41695D01*
X73906Y-41695D01*
X76195Y-43984D01*
X76307Y-44059D01*
X76307Y-44059D01*
X76440Y-44085D01*
X76440Y-44085D01*
X76440Y-44085D01*
X77350Y-44085D01*
X82250Y-44085D01*
X87150Y-44085D01*
X91427Y-44085D01*
X91427Y-44133D01*
X91492Y-44288D01*
X91610Y-44407D01*
X91765Y-44471D01*
X91933Y-44472D01*
X92088Y-44407D01*
X92207Y-44289D01*
X92271Y-44134D01*
X92271Y-44085D01*
X92640Y-44085D01*
X97120Y-44085D01*
X101950Y-44085D01*
X102040Y-44085D01*
X105379Y-44085D01*
X105379Y-44453D01*
X105375Y-44453D01*
X105285Y-44490D01*
X105215Y-44560D01*
X105178Y-44650D01*
X105178Y-44749D01*
X105178Y-45349D01*
X105215Y-45439D01*
X105285Y-45509D01*
X105375Y-45547D01*
X105474Y-45547D01*
X106074Y-45547D01*
X106164Y-45509D01*
X106234Y-45439D01*
X106272Y-45349D01*
X106272Y-45250D01*
X106272Y-44650D01*
X106234Y-44560D01*
X106164Y-44490D01*
X106074Y-44453D01*
X106070Y-44453D01*
X106070Y-44085D01*
X106260Y-44085D01*
X106392Y-44059D01*
X106392Y-44059D01*
X106504Y-43984D01*
X107044Y-43444D01*
X107044Y-43444D01*
X107044Y-43444D01*
X107119Y-43332D01*
X107119Y-43332D01*
X107145Y-43200D01*
X107145Y-42800D01*
X107145Y-42050D01*
X107145Y-41950D01*
X107145Y-41799D01*
X107276Y-41668D01*
X107361Y-41462D01*
X107362Y-41238D01*
X107362Y-49760D01*
X107200Y-49599D01*
X107120Y-49545D01*
X107025Y-49526D01*
X106080Y-49526D01*
X106080Y-46033D01*
X106066Y-45895D01*
X106040Y-45832D01*
X106001Y-45794D01*
X105930Y-45865D01*
X105930Y-45723D01*
X105892Y-45684D01*
X105758Y-45644D01*
X105620Y-45658D01*
X105557Y-45684D01*
X105519Y-45723D01*
X105725Y-45929D01*
X105930Y-45723D01*
X105930Y-45865D01*
X105795Y-46000D01*
X106001Y-46205D01*
X106040Y-46167D01*
X106080Y-46033D01*
X106080Y-49526D01*
X105930Y-49526D01*
X105930Y-46276D01*
X105725Y-46070D01*
X105654Y-46141D01*
X105654Y-46000D01*
X105448Y-45794D01*
X105409Y-45832D01*
X105369Y-45966D01*
X105383Y-46104D01*
X105409Y-46167D01*
X105448Y-46205D01*
X105654Y-46000D01*
X105654Y-46141D01*
X105519Y-46276D01*
X105557Y-46315D01*
X105691Y-46355D01*
X105829Y-46341D01*
X105892Y-46315D01*
X105930Y-46276D01*
X105930Y-49526D01*
X104325Y-49526D01*
X104229Y-49545D01*
X104149Y-49599D01*
X103174Y-50574D01*
X103120Y-50654D01*
X103101Y-50750D01*
X103101Y-52447D01*
X103047Y-52501D01*
X102988Y-52501D01*
X102987Y-52499D01*
X103000Y-52469D01*
X103000Y-52410D01*
X103000Y-52030D01*
X102977Y-51975D01*
X102934Y-51932D01*
X102879Y-51910D01*
X102848Y-51910D01*
X102848Y-51900D01*
X102829Y-51804D01*
X102775Y-51724D01*
X102498Y-51447D01*
X102498Y-50425D01*
X102498Y-50200D01*
X102498Y-49911D01*
X102525Y-49884D01*
X102574Y-49764D01*
X102575Y-49635D01*
X102525Y-49516D01*
X102498Y-49488D01*
X102498Y-49450D01*
X102498Y-45650D01*
X102498Y-44750D01*
X102479Y-44654D01*
X102425Y-44574D01*
X102200Y-44349D01*
X102075Y-44224D01*
X101995Y-44170D01*
X101900Y-44151D01*
X95578Y-44151D01*
X95514Y-44125D01*
X95385Y-44124D01*
X95266Y-44174D01*
X95174Y-44265D01*
X95125Y-44385D01*
X95124Y-44514D01*
X95174Y-44633D01*
X95265Y-44725D01*
X95385Y-44774D01*
X95514Y-44775D01*
X95633Y-44725D01*
X95711Y-44648D01*
X101797Y-44648D01*
X101849Y-44700D01*
X102001Y-44852D01*
X102001Y-45650D01*
X102001Y-49450D01*
X102001Y-49488D01*
X101974Y-49515D01*
X101925Y-49635D01*
X101924Y-49764D01*
X101974Y-49883D01*
X102001Y-49911D01*
X102001Y-50176D01*
X101825Y-50176D01*
X101825Y-45085D01*
X101756Y-44920D01*
X101630Y-44793D01*
X101464Y-44725D01*
X101285Y-44724D01*
X101120Y-44793D01*
X100993Y-44919D01*
X100925Y-45085D01*
X100924Y-45264D01*
X100993Y-45429D01*
X101119Y-45556D01*
X101285Y-45624D01*
X101464Y-45625D01*
X101629Y-45556D01*
X101756Y-45430D01*
X101824Y-45264D01*
X101825Y-45085D01*
X101825Y-50176D01*
X101725Y-50176D01*
X101725Y-46484D01*
X101725Y-46237D01*
X101725Y-46112D01*
X101725Y-45865D01*
X101717Y-45846D01*
X101703Y-45832D01*
X101684Y-45825D01*
X101665Y-45825D01*
X101437Y-45825D01*
X101425Y-45837D01*
X101425Y-46125D01*
X101712Y-46125D01*
X101725Y-46112D01*
X101725Y-46237D01*
X101712Y-46225D01*
X101425Y-46225D01*
X101425Y-46512D01*
X101437Y-46525D01*
X101665Y-46525D01*
X101684Y-46525D01*
X101703Y-46517D01*
X101717Y-46503D01*
X101725Y-46484D01*
X101725Y-50176D01*
X101325Y-50176D01*
X101325Y-46512D01*
X101325Y-46225D01*
X101325Y-46125D01*
X101325Y-45837D01*
X101312Y-45825D01*
X101084Y-45825D01*
X101065Y-45825D01*
X101046Y-45832D01*
X101032Y-45846D01*
X101025Y-45865D01*
X101025Y-46112D01*
X101037Y-46125D01*
X101325Y-46125D01*
X101325Y-46225D01*
X101037Y-46225D01*
X101025Y-46237D01*
X101025Y-46484D01*
X101032Y-46503D01*
X101046Y-46517D01*
X101065Y-46525D01*
X101084Y-46525D01*
X101312Y-46525D01*
X101325Y-46512D01*
X101325Y-50176D01*
X100948Y-50176D01*
X100948Y-49919D01*
X100979Y-49906D01*
X101106Y-49780D01*
X101174Y-49614D01*
X101175Y-49435D01*
X101175Y-49435D01*
X101175Y-48854D01*
X101175Y-48795D01*
X101175Y-48195D01*
X101152Y-48140D01*
X101109Y-48097D01*
X101054Y-48075D01*
X100995Y-48075D01*
X100825Y-48075D01*
X100825Y-45085D01*
X100756Y-44920D01*
X100630Y-44793D01*
X100464Y-44725D01*
X100285Y-44724D01*
X100120Y-44793D01*
X99993Y-44919D01*
X99925Y-45085D01*
X99924Y-45264D01*
X99993Y-45429D01*
X100119Y-45556D01*
X100285Y-45624D01*
X100464Y-45625D01*
X100629Y-45556D01*
X100756Y-45430D01*
X100824Y-45264D01*
X100825Y-45085D01*
X100825Y-48075D01*
X100725Y-48075D01*
X100725Y-46484D01*
X100725Y-46237D01*
X100725Y-46112D01*
X100725Y-45865D01*
X100717Y-45846D01*
X100703Y-45832D01*
X100684Y-45825D01*
X100665Y-45825D01*
X100437Y-45825D01*
X100425Y-45837D01*
X100425Y-46125D01*
X100712Y-46125D01*
X100725Y-46112D01*
X100725Y-46237D01*
X100712Y-46225D01*
X100425Y-46225D01*
X100425Y-46512D01*
X100437Y-46525D01*
X100665Y-46525D01*
X100684Y-46525D01*
X100703Y-46517D01*
X100717Y-46503D01*
X100725Y-46484D01*
X100725Y-48075D01*
X100395Y-48075D01*
X100340Y-48097D01*
X100325Y-48112D01*
X100325Y-46512D01*
X100325Y-46225D01*
X100325Y-46125D01*
X100325Y-45837D01*
X100312Y-45825D01*
X100084Y-45825D01*
X100065Y-45825D01*
X100046Y-45832D01*
X100032Y-45846D01*
X100025Y-45865D01*
X100025Y-46112D01*
X100037Y-46125D01*
X100325Y-46125D01*
X100325Y-46225D01*
X100037Y-46225D01*
X100025Y-46237D01*
X100025Y-46484D01*
X100032Y-46503D01*
X100046Y-46517D01*
X100065Y-46525D01*
X100084Y-46525D01*
X100312Y-46525D01*
X100325Y-46512D01*
X100325Y-48112D01*
X100297Y-48140D01*
X100275Y-48195D01*
X100275Y-48254D01*
X100275Y-48854D01*
X100297Y-48909D01*
X100340Y-48952D01*
X100395Y-48975D01*
X100454Y-48975D01*
X101054Y-48975D01*
X101109Y-48952D01*
X101152Y-48909D01*
X101175Y-48854D01*
X101175Y-49435D01*
X101106Y-49270D01*
X100980Y-49143D01*
X100814Y-49075D01*
X100635Y-49074D01*
X100470Y-49143D01*
X100343Y-49269D01*
X100275Y-49435D01*
X100274Y-49614D01*
X100343Y-49779D01*
X100451Y-49887D01*
X100451Y-50425D01*
X100451Y-51136D01*
X100417Y-51150D01*
X100276Y-51291D01*
X100200Y-51475D01*
X100199Y-51674D01*
X100275Y-51857D01*
X100416Y-51998D01*
X100600Y-52074D01*
X100799Y-52075D01*
X100982Y-51999D01*
X101123Y-51858D01*
X101199Y-51674D01*
X101200Y-51475D01*
X101124Y-51292D01*
X100983Y-51151D01*
X100948Y-51136D01*
X100948Y-50673D01*
X102001Y-50673D01*
X102001Y-51550D01*
X102020Y-51645D01*
X102074Y-51725D01*
X102276Y-51928D01*
X102265Y-51932D01*
X102222Y-51975D01*
X102200Y-52030D01*
X102200Y-52089D01*
X102200Y-52469D01*
X102212Y-52500D01*
X102200Y-52530D01*
X102200Y-52589D01*
X102200Y-52969D01*
X102222Y-53024D01*
X102265Y-53067D01*
X102320Y-53090D01*
X102351Y-53090D01*
X102351Y-54059D01*
X102242Y-54168D01*
X102239Y-54167D01*
X102061Y-54167D01*
X101897Y-54234D01*
X101772Y-54359D01*
X101704Y-54523D01*
X101704Y-54700D01*
X101772Y-54864D01*
X101897Y-54990D01*
X101901Y-54991D01*
X101901Y-55234D01*
X101739Y-55167D01*
X101561Y-55167D01*
X101500Y-55192D01*
X101500Y-54645D01*
X101486Y-54508D01*
X101461Y-54448D01*
X101422Y-54410D01*
X101352Y-54481D01*
X101352Y-54339D01*
X101314Y-54301D01*
X101182Y-54261D01*
X101046Y-54276D01*
X100985Y-54301D01*
X100947Y-54339D01*
X101150Y-54541D01*
X101352Y-54339D01*
X101352Y-54481D01*
X101220Y-54612D01*
X101422Y-54814D01*
X101461Y-54777D01*
X101500Y-54645D01*
X101500Y-55192D01*
X101397Y-55234D01*
X101352Y-55280D01*
X101352Y-54885D01*
X101150Y-54683D01*
X101079Y-54754D01*
X101079Y-54612D01*
X100877Y-54410D01*
X100838Y-54448D01*
X100799Y-54579D01*
X100813Y-54716D01*
X100838Y-54777D01*
X100877Y-54814D01*
X101079Y-54612D01*
X101079Y-54754D01*
X100947Y-54885D01*
X100985Y-54924D01*
X101117Y-54963D01*
X101253Y-54949D01*
X101314Y-54924D01*
X101352Y-54885D01*
X101352Y-55280D01*
X101272Y-55359D01*
X101204Y-55523D01*
X101204Y-55700D01*
X101272Y-55864D01*
X101397Y-55990D01*
X101560Y-56058D01*
X101738Y-56058D01*
X101902Y-55990D01*
X102027Y-55865D01*
X102048Y-55814D01*
X102088Y-55788D01*
X102325Y-55550D01*
X102379Y-55470D01*
X102398Y-55375D01*
X102398Y-54991D01*
X102402Y-54990D01*
X102527Y-54865D01*
X102595Y-54701D01*
X102595Y-54524D01*
X102593Y-54520D01*
X102775Y-54338D01*
X102829Y-54257D01*
X102848Y-54162D01*
X102848Y-53090D01*
X102879Y-53090D01*
X102934Y-53067D01*
X102977Y-53024D01*
X102988Y-52998D01*
X103150Y-52998D01*
X103245Y-52979D01*
X103325Y-52925D01*
X103525Y-52725D01*
X103525Y-52725D01*
X103525Y-52725D01*
X103558Y-52677D01*
X103579Y-52645D01*
X103579Y-52645D01*
X103598Y-52550D01*
X103598Y-50852D01*
X104427Y-50023D01*
X106922Y-50023D01*
X107151Y-50252D01*
X107151Y-50662D01*
X107070Y-50662D01*
X107015Y-50685D01*
X106972Y-50727D01*
X106950Y-50782D01*
X106950Y-50842D01*
X106950Y-51442D01*
X106972Y-51497D01*
X107015Y-51539D01*
X107070Y-51562D01*
X107129Y-51562D01*
X107729Y-51562D01*
X107784Y-51539D01*
X107827Y-51497D01*
X107850Y-51442D01*
X107850Y-51382D01*
X107850Y-51361D01*
X107959Y-51361D01*
X108501Y-51902D01*
X108501Y-54233D01*
X108497Y-54234D01*
X108372Y-54359D01*
X108304Y-54523D01*
X108304Y-54700D01*
X108372Y-54864D01*
X108497Y-54990D01*
X108501Y-54991D01*
X108501Y-55009D01*
X108342Y-55168D01*
X108339Y-55167D01*
X108161Y-55167D01*
X108100Y-55192D01*
X108100Y-54645D01*
X108086Y-54508D01*
X108061Y-54448D01*
X108022Y-54410D01*
X107952Y-54481D01*
X107952Y-54339D01*
X107914Y-54301D01*
X107782Y-54261D01*
X107755Y-54264D01*
X107755Y-52146D01*
X107741Y-52007D01*
X107715Y-51945D01*
X107676Y-51907D01*
X107605Y-51977D01*
X107605Y-51836D01*
X107567Y-51797D01*
X107433Y-51757D01*
X107295Y-51771D01*
X107232Y-51797D01*
X107194Y-51836D01*
X107400Y-52041D01*
X107605Y-51836D01*
X107605Y-51977D01*
X107470Y-52112D01*
X107676Y-52318D01*
X107715Y-52279D01*
X107755Y-52146D01*
X107755Y-54264D01*
X107646Y-54276D01*
X107605Y-54292D01*
X107605Y-52388D01*
X107400Y-52183D01*
X107329Y-52254D01*
X107329Y-52112D01*
X107123Y-51907D01*
X107084Y-51945D01*
X107044Y-52078D01*
X107058Y-52217D01*
X107084Y-52279D01*
X107123Y-52318D01*
X107329Y-52112D01*
X107329Y-52254D01*
X107194Y-52388D01*
X107232Y-52427D01*
X107366Y-52467D01*
X107504Y-52453D01*
X107567Y-52427D01*
X107605Y-52388D01*
X107605Y-54292D01*
X107585Y-54301D01*
X107547Y-54339D01*
X107750Y-54541D01*
X107952Y-54339D01*
X107952Y-54481D01*
X107820Y-54612D01*
X108022Y-54814D01*
X108061Y-54777D01*
X108100Y-54645D01*
X108100Y-55192D01*
X107997Y-55234D01*
X107952Y-55280D01*
X107952Y-54885D01*
X107750Y-54683D01*
X107679Y-54754D01*
X107679Y-54612D01*
X107477Y-54410D01*
X107438Y-54448D01*
X107399Y-54579D01*
X107413Y-54716D01*
X107438Y-54777D01*
X107477Y-54814D01*
X107679Y-54612D01*
X107679Y-54754D01*
X107547Y-54885D01*
X107585Y-54924D01*
X107717Y-54963D01*
X107853Y-54949D01*
X107914Y-54924D01*
X107952Y-54885D01*
X107952Y-55280D01*
X107872Y-55359D01*
X107804Y-55523D01*
X107804Y-55700D01*
X107872Y-55864D01*
X107997Y-55990D01*
X108160Y-56058D01*
X108338Y-56058D01*
X108502Y-55990D01*
X108627Y-55865D01*
X108695Y-55701D01*
X108695Y-55524D01*
X108693Y-55520D01*
X108925Y-55288D01*
X108979Y-55207D01*
X108998Y-55112D01*
X108998Y-54991D01*
X109002Y-54990D01*
X109127Y-54865D01*
X109195Y-54701D01*
X109195Y-54524D01*
X109195Y-57243D01*
X109166Y-57243D01*
X108846Y-57375D01*
X108602Y-57619D01*
X108469Y-57939D01*
X108469Y-58284D01*
X108601Y-58603D01*
X108845Y-58848D01*
X109164Y-58980D01*
X109509Y-58981D01*
X109829Y-58849D01*
X110073Y-58605D01*
X110206Y-58286D01*
X110206Y-57940D01*
X110206Y-61550D01*
X110148Y-61550D01*
X110148Y-60168D01*
X110136Y-59992D01*
X110093Y-59888D01*
X110044Y-59838D01*
X109973Y-59909D01*
X109973Y-59768D01*
X109923Y-59719D01*
X109756Y-59663D01*
X109580Y-59676D01*
X109476Y-59719D01*
X109426Y-59768D01*
X109700Y-60041D01*
X109973Y-59768D01*
X109973Y-59909D01*
X109770Y-60112D01*
X110044Y-60386D01*
X110093Y-60336D01*
X110148Y-60168D01*
X110148Y-61550D01*
X109973Y-61550D01*
X109973Y-60456D01*
X109700Y-60183D01*
X109629Y-60254D01*
X109629Y-60112D01*
X109355Y-59838D01*
X109306Y-59888D01*
X109251Y-60056D01*
X109263Y-60232D01*
X109306Y-60336D01*
X109355Y-60386D01*
X109629Y-60112D01*
X109629Y-60254D01*
X109426Y-60456D01*
X109476Y-60505D01*
X109643Y-60561D01*
X109819Y-60548D01*
X109923Y-60505D01*
X109973Y-60456D01*
X109973Y-61550D01*
X107695Y-61550D01*
X107695Y-55524D01*
X107627Y-55360D01*
X107502Y-55235D01*
X107339Y-55167D01*
X107161Y-55167D01*
X107100Y-55192D01*
X107100Y-54645D01*
X107086Y-54508D01*
X107061Y-54448D01*
X107022Y-54410D01*
X106952Y-54481D01*
X106952Y-54339D01*
X106914Y-54301D01*
X106850Y-54281D01*
X106850Y-52023D01*
X106781Y-51858D01*
X106655Y-51731D01*
X106489Y-51662D01*
X106310Y-51662D01*
X106145Y-51730D01*
X106018Y-51857D01*
X105950Y-52022D01*
X105949Y-52201D01*
X106009Y-52345D01*
X105850Y-52504D01*
X105850Y-52023D01*
X105850Y-51023D01*
X105781Y-50858D01*
X105655Y-50731D01*
X105489Y-50662D01*
X105310Y-50662D01*
X105145Y-50730D01*
X105018Y-50857D01*
X104950Y-51022D01*
X104949Y-51201D01*
X105018Y-51367D01*
X105144Y-51493D01*
X105310Y-51562D01*
X105489Y-51562D01*
X105654Y-51494D01*
X105781Y-51367D01*
X105849Y-51202D01*
X105850Y-51023D01*
X105850Y-52023D01*
X105781Y-51858D01*
X105655Y-51731D01*
X105489Y-51662D01*
X105310Y-51662D01*
X105145Y-51730D01*
X105018Y-51857D01*
X104950Y-52022D01*
X104949Y-52201D01*
X105018Y-52367D01*
X105144Y-52493D01*
X105310Y-52562D01*
X105489Y-52562D01*
X105654Y-52494D01*
X105781Y-52367D01*
X105849Y-52202D01*
X105850Y-52023D01*
X105850Y-52504D01*
X105102Y-53252D01*
X105056Y-53319D01*
X105040Y-53400D01*
X105040Y-55167D01*
X104924Y-55167D01*
X104869Y-55189D01*
X104827Y-55232D01*
X104804Y-55287D01*
X104804Y-55346D01*
X104804Y-55937D01*
X104827Y-55993D01*
X104869Y-56035D01*
X104924Y-56058D01*
X104984Y-56058D01*
X105575Y-56058D01*
X105630Y-56035D01*
X105672Y-55993D01*
X105695Y-55937D01*
X105695Y-55878D01*
X105695Y-55287D01*
X105672Y-55232D01*
X105630Y-55189D01*
X105575Y-55167D01*
X105515Y-55167D01*
X105459Y-55167D01*
X105459Y-54797D01*
X105477Y-54814D01*
X105679Y-54612D01*
X105477Y-54410D01*
X105459Y-54427D01*
X105459Y-53486D01*
X106383Y-52562D01*
X106489Y-52562D01*
X106654Y-52494D01*
X106781Y-52367D01*
X106849Y-52202D01*
X106850Y-52023D01*
X106850Y-54281D01*
X106782Y-54261D01*
X106646Y-54276D01*
X106585Y-54301D01*
X106547Y-54339D01*
X106750Y-54541D01*
X106952Y-54339D01*
X106952Y-54481D01*
X106820Y-54612D01*
X107022Y-54814D01*
X107061Y-54777D01*
X107100Y-54645D01*
X107100Y-55192D01*
X106997Y-55234D01*
X106952Y-55280D01*
X106952Y-54885D01*
X106750Y-54683D01*
X106679Y-54754D01*
X106679Y-54612D01*
X106477Y-54410D01*
X106438Y-54448D01*
X106399Y-54579D01*
X106413Y-54716D01*
X106438Y-54777D01*
X106477Y-54814D01*
X106679Y-54612D01*
X106679Y-54754D01*
X106547Y-54885D01*
X106585Y-54924D01*
X106717Y-54963D01*
X106853Y-54949D01*
X106914Y-54924D01*
X106952Y-54885D01*
X106952Y-55280D01*
X106872Y-55359D01*
X106804Y-55523D01*
X106804Y-55700D01*
X106872Y-55864D01*
X106997Y-55990D01*
X107160Y-56058D01*
X107338Y-56058D01*
X107502Y-55990D01*
X107627Y-55865D01*
X107695Y-55701D01*
X107695Y-55524D01*
X107695Y-61550D01*
X105533Y-61550D01*
X105533Y-57940D01*
X105401Y-57621D01*
X105157Y-57376D01*
X104838Y-57244D01*
X104493Y-57243D01*
X104173Y-57375D01*
X103929Y-57619D01*
X103796Y-57939D01*
X103796Y-58284D01*
X103928Y-58603D01*
X104172Y-58848D01*
X104491Y-58980D01*
X104836Y-58981D01*
X105156Y-58849D01*
X105400Y-58605D01*
X105533Y-58286D01*
X105533Y-57940D01*
X105533Y-61550D01*
X104698Y-61550D01*
X104698Y-60168D01*
X104686Y-59992D01*
X104643Y-59888D01*
X104594Y-59838D01*
X104523Y-59909D01*
X104523Y-59768D01*
X104473Y-59719D01*
X104306Y-59663D01*
X104130Y-59676D01*
X104026Y-59719D01*
X103976Y-59768D01*
X104250Y-60041D01*
X104523Y-59768D01*
X104523Y-59909D01*
X104320Y-60112D01*
X104594Y-60386D01*
X104643Y-60336D01*
X104698Y-60168D01*
X104698Y-61550D01*
X104523Y-61550D01*
X104523Y-60456D01*
X104250Y-60183D01*
X104179Y-60254D01*
X104179Y-60112D01*
X103905Y-59838D01*
X103856Y-59888D01*
X103801Y-60056D01*
X103813Y-60232D01*
X103856Y-60336D01*
X103905Y-60386D01*
X104179Y-60112D01*
X104179Y-60254D01*
X103976Y-60456D01*
X104026Y-60505D01*
X104193Y-60561D01*
X104369Y-60548D01*
X104473Y-60505D01*
X104523Y-60456D01*
X104523Y-61550D01*
X103606Y-61550D01*
X103606Y-57940D01*
X103474Y-57621D01*
X103230Y-57376D01*
X102911Y-57244D01*
X102566Y-57243D01*
X102246Y-57375D01*
X102002Y-57619D01*
X101869Y-57939D01*
X101869Y-58284D01*
X102001Y-58603D01*
X102245Y-58848D01*
X102564Y-58980D01*
X102909Y-58981D01*
X103229Y-58849D01*
X103473Y-58605D01*
X103606Y-58286D01*
X103606Y-57940D01*
X103606Y-61550D01*
X103548Y-61550D01*
X103548Y-60168D01*
X103536Y-59992D01*
X103493Y-59888D01*
X103444Y-59838D01*
X103373Y-59909D01*
X103373Y-59768D01*
X103323Y-59719D01*
X103156Y-59663D01*
X102980Y-59676D01*
X102876Y-59719D01*
X102826Y-59768D01*
X103100Y-60041D01*
X103373Y-59768D01*
X103373Y-59909D01*
X103170Y-60112D01*
X103444Y-60386D01*
X103493Y-60336D01*
X103548Y-60168D01*
X103548Y-61550D01*
X103373Y-61550D01*
X103373Y-60456D01*
X103100Y-60183D01*
X103029Y-60254D01*
X103029Y-60112D01*
X102755Y-59838D01*
X102706Y-59888D01*
X102651Y-60056D01*
X102663Y-60232D01*
X102706Y-60336D01*
X102755Y-60386D01*
X103029Y-60112D01*
X103029Y-60254D01*
X102826Y-60456D01*
X102876Y-60505D01*
X103043Y-60561D01*
X103219Y-60548D01*
X103323Y-60505D01*
X103373Y-60456D01*
X103373Y-61550D01*
X98933Y-61550D01*
X98933Y-57940D01*
X98801Y-57621D01*
X98557Y-57376D01*
X98238Y-57244D01*
X97893Y-57243D01*
X97573Y-57375D01*
X97329Y-57619D01*
X97196Y-57939D01*
X97196Y-58284D01*
X97328Y-58603D01*
X97572Y-58848D01*
X97891Y-58980D01*
X98236Y-58981D01*
X98556Y-58849D01*
X98800Y-58605D01*
X98933Y-58286D01*
X98933Y-57940D01*
X98933Y-61550D01*
X98098Y-61550D01*
X98098Y-60168D01*
X98086Y-59992D01*
X98043Y-59888D01*
X97994Y-59838D01*
X97923Y-59909D01*
X97923Y-59768D01*
X97873Y-59719D01*
X97706Y-59663D01*
X97530Y-59676D01*
X97426Y-59719D01*
X97376Y-59768D01*
X97650Y-60041D01*
X97923Y-59768D01*
X97923Y-59909D01*
X97720Y-60112D01*
X97994Y-60386D01*
X98043Y-60336D01*
X98098Y-60168D01*
X98098Y-61550D01*
X97923Y-61550D01*
X97923Y-60456D01*
X97650Y-60183D01*
X97579Y-60254D01*
X97579Y-60112D01*
X97305Y-59838D01*
X97256Y-59888D01*
X97201Y-60056D01*
X97213Y-60232D01*
X97256Y-60336D01*
X97305Y-60386D01*
X97579Y-60112D01*
X97579Y-60254D01*
X97376Y-60456D01*
X97426Y-60505D01*
X97593Y-60561D01*
X97769Y-60548D01*
X97873Y-60505D01*
X97923Y-60456D01*
X97923Y-61550D01*
X96355Y-61550D01*
X96355Y-60085D01*
X96355Y-59695D01*
X96355Y-59595D01*
X96355Y-59205D01*
X96303Y-59041D01*
X96191Y-58909D01*
X96033Y-58831D01*
X95965Y-58831D01*
X95965Y-59595D01*
X96355Y-59595D01*
X96355Y-59695D01*
X95965Y-59695D01*
X95965Y-60460D01*
X96033Y-60459D01*
X96191Y-60382D01*
X96303Y-60250D01*
X96355Y-60085D01*
X96355Y-61550D01*
X95865Y-61550D01*
X95865Y-60460D01*
X95865Y-59695D01*
X95865Y-59595D01*
X95865Y-58831D01*
X95797Y-58831D01*
X95639Y-58909D01*
X95528Y-59041D01*
X95475Y-59205D01*
X95475Y-59595D01*
X95865Y-59595D01*
X95865Y-59695D01*
X95475Y-59695D01*
X95475Y-60085D01*
X95528Y-60250D01*
X95639Y-60382D01*
X95797Y-60459D01*
X95865Y-60460D01*
X95865Y-61550D01*
X95037Y-61550D01*
X95037Y-60055D01*
X95037Y-59235D01*
X94988Y-58991D01*
X94850Y-58785D01*
X94643Y-58647D01*
X94400Y-58598D01*
X94156Y-58647D01*
X93949Y-58785D01*
X93811Y-58991D01*
X93763Y-59235D01*
X93763Y-60055D01*
X93811Y-60299D01*
X93949Y-60506D01*
X94156Y-60644D01*
X94400Y-60692D01*
X94643Y-60644D01*
X94850Y-60506D01*
X94988Y-60299D01*
X95037Y-60055D01*
X95037Y-61550D01*
X93050Y-61550D01*
X93050Y-58500D01*
X96450Y-58500D01*
X96450Y-57600D01*
X96450Y-53350D01*
X93341Y-53350D01*
X92600Y-52609D01*
X95200Y-52609D01*
X96250Y-52609D01*
X96330Y-52593D01*
X96397Y-52547D01*
X97390Y-51554D01*
X97390Y-54750D01*
X97406Y-54830D01*
X97452Y-54897D01*
X97827Y-55272D01*
X97827Y-55272D01*
X97894Y-55318D01*
X97975Y-55334D01*
X98204Y-55334D01*
X98204Y-55346D01*
X98204Y-55937D01*
X98227Y-55993D01*
X98269Y-56035D01*
X98324Y-56058D01*
X98384Y-56058D01*
X98975Y-56058D01*
X99030Y-56035D01*
X99072Y-55993D01*
X99095Y-55937D01*
X99095Y-55878D01*
X99095Y-55334D01*
X99298Y-55334D01*
X99272Y-55359D01*
X99204Y-55523D01*
X99204Y-55700D01*
X99272Y-55864D01*
X99397Y-55990D01*
X99440Y-56008D01*
X99440Y-56100D01*
X99456Y-56180D01*
X99502Y-56247D01*
X100027Y-56772D01*
X100094Y-56818D01*
X100175Y-56834D01*
X100175Y-56834D01*
X100175Y-56834D01*
X104400Y-56834D01*
X105500Y-56834D01*
X105775Y-56834D01*
X105855Y-56818D01*
X105922Y-56772D01*
X106397Y-56297D01*
X106397Y-56297D01*
X106397Y-56297D01*
X106443Y-56230D01*
X106459Y-56150D01*
X106459Y-56150D01*
X106459Y-56149D01*
X106459Y-56008D01*
X106502Y-55990D01*
X106627Y-55865D01*
X106695Y-55701D01*
X106695Y-55524D01*
X106627Y-55360D01*
X106502Y-55235D01*
X106339Y-55167D01*
X106161Y-55167D01*
X106100Y-55192D01*
X106100Y-54645D01*
X106086Y-54508D01*
X106061Y-54448D01*
X106022Y-54410D01*
X105952Y-54481D01*
X105952Y-54339D01*
X105914Y-54301D01*
X105782Y-54261D01*
X105646Y-54276D01*
X105585Y-54301D01*
X105547Y-54339D01*
X105750Y-54541D01*
X105952Y-54339D01*
X105952Y-54481D01*
X105820Y-54612D01*
X106022Y-54814D01*
X106061Y-54777D01*
X106100Y-54645D01*
X106100Y-55192D01*
X105997Y-55234D01*
X105952Y-55280D01*
X105952Y-54885D01*
X105750Y-54683D01*
X105547Y-54885D01*
X105585Y-54924D01*
X105717Y-54963D01*
X105853Y-54949D01*
X105914Y-54924D01*
X105952Y-54885D01*
X105952Y-55280D01*
X105872Y-55359D01*
X105804Y-55523D01*
X105804Y-55700D01*
X105872Y-55864D01*
X105997Y-55990D01*
X106040Y-56008D01*
X106040Y-56063D01*
X105688Y-56415D01*
X105500Y-56415D01*
X104609Y-56415D01*
X104609Y-55900D01*
X104609Y-54475D01*
X104609Y-52400D01*
X104609Y-50886D01*
X104911Y-50584D01*
X105575Y-50584D01*
X105968Y-50977D01*
X105950Y-51022D01*
X105949Y-51201D01*
X106018Y-51367D01*
X106144Y-51493D01*
X106310Y-51562D01*
X106489Y-51562D01*
X106654Y-51494D01*
X106781Y-51367D01*
X106849Y-51202D01*
X106850Y-51023D01*
X106781Y-50858D01*
X106655Y-50731D01*
X106489Y-50662D01*
X106310Y-50662D01*
X106264Y-50681D01*
X105810Y-50227D01*
X105742Y-50181D01*
X105662Y-50165D01*
X104825Y-50165D01*
X104825Y-50165D01*
X104758Y-50179D01*
X104744Y-50181D01*
X104677Y-50227D01*
X104677Y-50227D01*
X104252Y-50652D01*
X104206Y-50719D01*
X104190Y-50800D01*
X104190Y-52400D01*
X104190Y-54475D01*
X104190Y-55900D01*
X104190Y-56415D01*
X100261Y-56415D01*
X99859Y-56013D01*
X99859Y-56008D01*
X99902Y-55990D01*
X100027Y-55865D01*
X100095Y-55701D01*
X100095Y-55524D01*
X100027Y-55360D01*
X100001Y-55334D01*
X100075Y-55334D01*
X100222Y-55480D01*
X100204Y-55523D01*
X100204Y-55700D01*
X100272Y-55864D01*
X100397Y-55990D01*
X100560Y-56058D01*
X100738Y-56058D01*
X100902Y-55990D01*
X101027Y-55865D01*
X101095Y-55701D01*
X101095Y-55524D01*
X101027Y-55360D01*
X100902Y-55235D01*
X100739Y-55167D01*
X100561Y-55167D01*
X100518Y-55185D01*
X100500Y-55167D01*
X100500Y-54645D01*
X100486Y-54508D01*
X100461Y-54448D01*
X100422Y-54410D01*
X100352Y-54481D01*
X100352Y-54339D01*
X100314Y-54301D01*
X100182Y-54261D01*
X100175Y-54262D01*
X100175Y-49435D01*
X100175Y-48435D01*
X100106Y-48270D01*
X99980Y-48143D01*
X99825Y-48079D01*
X99825Y-45085D01*
X99756Y-44920D01*
X99630Y-44793D01*
X99464Y-44725D01*
X99285Y-44724D01*
X99120Y-44793D01*
X98993Y-44919D01*
X98925Y-45085D01*
X98924Y-45264D01*
X98993Y-45429D01*
X99119Y-45556D01*
X99285Y-45624D01*
X99464Y-45625D01*
X99629Y-45556D01*
X99756Y-45430D01*
X99824Y-45264D01*
X99825Y-45085D01*
X99825Y-48079D01*
X99814Y-48075D01*
X99725Y-48074D01*
X99725Y-46484D01*
X99725Y-46237D01*
X99725Y-46112D01*
X99725Y-45865D01*
X99717Y-45846D01*
X99703Y-45832D01*
X99684Y-45825D01*
X99665Y-45825D01*
X99437Y-45825D01*
X99425Y-45837D01*
X99425Y-46125D01*
X99712Y-46125D01*
X99725Y-46112D01*
X99725Y-46237D01*
X99712Y-46225D01*
X99425Y-46225D01*
X99425Y-46512D01*
X99437Y-46525D01*
X99665Y-46525D01*
X99684Y-46525D01*
X99703Y-46517D01*
X99717Y-46503D01*
X99725Y-46484D01*
X99725Y-48074D01*
X99635Y-48074D01*
X99470Y-48143D01*
X99343Y-48269D01*
X99325Y-48314D01*
X99325Y-46512D01*
X99325Y-46225D01*
X99325Y-46125D01*
X99325Y-45837D01*
X99312Y-45825D01*
X99084Y-45825D01*
X99065Y-45825D01*
X99046Y-45832D01*
X99032Y-45846D01*
X99025Y-45865D01*
X99025Y-46112D01*
X99037Y-46125D01*
X99325Y-46125D01*
X99325Y-46225D01*
X99037Y-46225D01*
X99025Y-46237D01*
X99025Y-46484D01*
X99032Y-46503D01*
X99046Y-46517D01*
X99065Y-46525D01*
X99084Y-46525D01*
X99312Y-46525D01*
X99325Y-46512D01*
X99325Y-48314D01*
X99275Y-48435D01*
X99274Y-48614D01*
X99343Y-48779D01*
X99469Y-48906D01*
X99635Y-48974D01*
X99814Y-48975D01*
X99979Y-48906D01*
X100106Y-48780D01*
X100174Y-48614D01*
X100175Y-48435D01*
X100175Y-49435D01*
X100106Y-49270D01*
X99980Y-49143D01*
X99814Y-49075D01*
X99635Y-49074D01*
X99470Y-49143D01*
X99343Y-49269D01*
X99275Y-49435D01*
X99274Y-49614D01*
X99343Y-49779D01*
X99469Y-49906D01*
X99635Y-49974D01*
X99814Y-49975D01*
X99979Y-49906D01*
X100106Y-49780D01*
X100174Y-49614D01*
X100175Y-49435D01*
X100175Y-54262D01*
X100105Y-54269D01*
X100105Y-51620D01*
X100091Y-51462D01*
X100056Y-51377D01*
X100012Y-51333D01*
X99941Y-51403D01*
X99941Y-51262D01*
X99897Y-51218D01*
X99745Y-51169D01*
X99587Y-51183D01*
X99502Y-51218D01*
X99458Y-51262D01*
X99700Y-51504D01*
X99941Y-51262D01*
X99941Y-51403D01*
X99770Y-51575D01*
X100012Y-51816D01*
X100056Y-51772D01*
X100105Y-51620D01*
X100105Y-54269D01*
X100046Y-54276D01*
X99985Y-54301D01*
X99947Y-54339D01*
X100150Y-54541D01*
X100352Y-54339D01*
X100352Y-54481D01*
X100220Y-54612D01*
X100422Y-54814D01*
X100461Y-54777D01*
X100500Y-54645D01*
X100500Y-55167D01*
X100310Y-54977D01*
X100262Y-54945D01*
X100314Y-54924D01*
X100352Y-54885D01*
X100150Y-54683D01*
X100079Y-54754D01*
X100079Y-54612D01*
X99941Y-54475D01*
X99941Y-51887D01*
X99700Y-51645D01*
X99629Y-51716D01*
X99629Y-51575D01*
X99387Y-51333D01*
X99343Y-51377D01*
X99297Y-51521D01*
X99297Y-51456D01*
X99206Y-51237D01*
X99080Y-51110D01*
X99080Y-49558D01*
X99066Y-49420D01*
X99040Y-49357D01*
X99001Y-49319D01*
X98930Y-49390D01*
X98930Y-49248D01*
X98892Y-49209D01*
X98758Y-49169D01*
X98620Y-49183D01*
X98557Y-49209D01*
X98519Y-49248D01*
X98725Y-49454D01*
X98930Y-49248D01*
X98930Y-49390D01*
X98795Y-49525D01*
X99001Y-49730D01*
X99040Y-49692D01*
X99080Y-49558D01*
X99080Y-51110D01*
X99038Y-51069D01*
X98930Y-51024D01*
X98930Y-49801D01*
X98725Y-49595D01*
X98654Y-49666D01*
X98654Y-49525D01*
X98448Y-49319D01*
X98409Y-49357D01*
X98369Y-49491D01*
X98383Y-49629D01*
X98409Y-49692D01*
X98448Y-49730D01*
X98654Y-49525D01*
X98654Y-49666D01*
X98519Y-49801D01*
X98557Y-49840D01*
X98691Y-49880D01*
X98829Y-49866D01*
X98892Y-49840D01*
X98930Y-49801D01*
X98930Y-51024D01*
X98819Y-50978D01*
X98581Y-50977D01*
X98362Y-51068D01*
X98194Y-51236D01*
X98103Y-51455D01*
X98102Y-51693D01*
X98193Y-51912D01*
X98361Y-52080D01*
X98580Y-52171D01*
X98818Y-52172D01*
X99037Y-52081D01*
X99205Y-51913D01*
X99296Y-51694D01*
X99297Y-51556D01*
X99308Y-51687D01*
X99343Y-51772D01*
X99387Y-51816D01*
X99629Y-51575D01*
X99629Y-51716D01*
X99458Y-51887D01*
X99502Y-51931D01*
X99654Y-51980D01*
X99812Y-51966D01*
X99897Y-51931D01*
X99941Y-51887D01*
X99941Y-54475D01*
X99877Y-54410D01*
X99838Y-54448D01*
X99799Y-54579D01*
X99813Y-54716D01*
X99838Y-54777D01*
X99877Y-54814D01*
X100079Y-54612D01*
X100079Y-54754D01*
X99947Y-54885D01*
X99977Y-54915D01*
X99500Y-54915D01*
X99500Y-54645D01*
X99486Y-54508D01*
X99461Y-54448D01*
X99422Y-54410D01*
X99352Y-54481D01*
X99352Y-54339D01*
X99314Y-54301D01*
X99182Y-54261D01*
X99046Y-54276D01*
X98985Y-54301D01*
X98947Y-54339D01*
X99150Y-54541D01*
X99352Y-54339D01*
X99352Y-54481D01*
X99220Y-54612D01*
X99422Y-54814D01*
X99461Y-54777D01*
X99500Y-54645D01*
X99500Y-54915D01*
X99322Y-54915D01*
X99352Y-54885D01*
X99150Y-54683D01*
X99079Y-54754D01*
X99079Y-54612D01*
X98877Y-54410D01*
X98838Y-54448D01*
X98799Y-54579D01*
X98813Y-54716D01*
X98838Y-54777D01*
X98877Y-54814D01*
X99079Y-54612D01*
X99079Y-54754D01*
X98947Y-54885D01*
X98977Y-54915D01*
X98061Y-54915D01*
X97809Y-54663D01*
X97809Y-51536D01*
X98297Y-51047D01*
X98297Y-51047D01*
X98297Y-51047D01*
X98343Y-50980D01*
X98359Y-50900D01*
X98359Y-50850D01*
X98359Y-48795D01*
X98469Y-48906D01*
X98635Y-48974D01*
X98814Y-48975D01*
X98979Y-48906D01*
X99106Y-48780D01*
X99174Y-48614D01*
X99175Y-48435D01*
X99106Y-48270D01*
X98980Y-48143D01*
X98934Y-48124D01*
X98934Y-48075D01*
X98934Y-47274D01*
X99014Y-47275D01*
X99133Y-47225D01*
X99225Y-47134D01*
X99274Y-47014D01*
X99275Y-46885D01*
X99225Y-46766D01*
X99134Y-46674D01*
X99014Y-46625D01*
X98885Y-46624D01*
X98825Y-46649D01*
X98825Y-45085D01*
X98756Y-44920D01*
X98630Y-44793D01*
X98464Y-44725D01*
X98285Y-44724D01*
X98120Y-44793D01*
X97993Y-44919D01*
X97925Y-45085D01*
X97924Y-45264D01*
X97993Y-45429D01*
X98119Y-45556D01*
X98285Y-45624D01*
X98464Y-45625D01*
X98629Y-45556D01*
X98756Y-45430D01*
X98824Y-45264D01*
X98825Y-45085D01*
X98825Y-46649D01*
X98766Y-46674D01*
X98725Y-46715D01*
X98725Y-46484D01*
X98725Y-46237D01*
X98725Y-46112D01*
X98725Y-45865D01*
X98717Y-45846D01*
X98703Y-45832D01*
X98684Y-45825D01*
X98665Y-45825D01*
X98437Y-45825D01*
X98425Y-45837D01*
X98425Y-46125D01*
X98712Y-46125D01*
X98725Y-46112D01*
X98725Y-46237D01*
X98712Y-46225D01*
X98425Y-46225D01*
X98425Y-46512D01*
X98437Y-46525D01*
X98665Y-46525D01*
X98684Y-46525D01*
X98703Y-46517D01*
X98717Y-46503D01*
X98725Y-46484D01*
X98725Y-46715D01*
X98674Y-46765D01*
X98625Y-46885D01*
X98624Y-46979D01*
X98577Y-47027D01*
X98531Y-47094D01*
X98515Y-47175D01*
X98515Y-48075D01*
X98515Y-48124D01*
X98470Y-48143D01*
X98359Y-48254D01*
X98359Y-47925D01*
X98359Y-47700D01*
X98343Y-47619D01*
X98325Y-47592D01*
X98325Y-46512D01*
X98325Y-46225D01*
X98325Y-46125D01*
X98325Y-45837D01*
X98312Y-45825D01*
X98084Y-45825D01*
X98065Y-45825D01*
X98046Y-45832D01*
X98032Y-45846D01*
X98025Y-45865D01*
X98025Y-46112D01*
X98037Y-46125D01*
X98325Y-46125D01*
X98325Y-46225D01*
X98037Y-46225D01*
X98025Y-46237D01*
X98025Y-46484D01*
X98032Y-46503D01*
X98046Y-46517D01*
X98065Y-46525D01*
X98084Y-46525D01*
X98312Y-46525D01*
X98325Y-46512D01*
X98325Y-47592D01*
X98297Y-47552D01*
X97801Y-47056D01*
X97849Y-46939D01*
X97850Y-46810D01*
X97800Y-46691D01*
X97709Y-46599D01*
X97589Y-46550D01*
X97460Y-46549D01*
X97341Y-46599D01*
X97249Y-46690D01*
X97200Y-46810D01*
X97199Y-46939D01*
X97249Y-47058D01*
X97328Y-47138D01*
X97331Y-47155D01*
X97377Y-47222D01*
X97940Y-47786D01*
X97940Y-47925D01*
X97940Y-48045D01*
X97022Y-47127D01*
X96955Y-47081D01*
X96875Y-47065D01*
X96150Y-47065D01*
X96084Y-46999D01*
X95964Y-46950D01*
X95835Y-46949D01*
X95716Y-46999D01*
X95624Y-47090D01*
X95575Y-47210D01*
X95575Y-47215D01*
X95534Y-47174D01*
X95414Y-47125D01*
X95285Y-47124D01*
X95166Y-47174D01*
X95074Y-47265D01*
X95025Y-47385D01*
X95024Y-47479D01*
X94913Y-47590D01*
X94275Y-47590D01*
X94275Y-47085D01*
X94225Y-46966D01*
X94134Y-46874D01*
X94014Y-46825D01*
X93951Y-46825D01*
X93945Y-46820D01*
X93850Y-46801D01*
X92450Y-46801D01*
X92450Y-46801D01*
X92354Y-46820D01*
X92274Y-46874D01*
X92047Y-47101D01*
X90408Y-47101D01*
X90425Y-47084D01*
X90474Y-46964D01*
X90475Y-46835D01*
X90425Y-46716D01*
X90334Y-46624D01*
X90214Y-46575D01*
X90085Y-46574D01*
X90024Y-46600D01*
X90025Y-46485D01*
X89975Y-46366D01*
X89884Y-46274D01*
X89764Y-46225D01*
X89635Y-46224D01*
X89525Y-46270D01*
X89525Y-46235D01*
X89475Y-46116D01*
X89384Y-46024D01*
X89264Y-45975D01*
X89135Y-45974D01*
X89025Y-46020D01*
X89025Y-45985D01*
X88975Y-45866D01*
X88884Y-45774D01*
X88764Y-45725D01*
X88635Y-45724D01*
X88519Y-45772D01*
X88475Y-45666D01*
X88384Y-45574D01*
X88264Y-45525D01*
X88135Y-45524D01*
X88025Y-45570D01*
X88025Y-45535D01*
X87975Y-45416D01*
X87884Y-45324D01*
X87764Y-45275D01*
X87635Y-45274D01*
X87525Y-45320D01*
X87525Y-45285D01*
X87475Y-45166D01*
X87384Y-45074D01*
X87264Y-45025D01*
X87135Y-45024D01*
X87016Y-45074D01*
X86924Y-45165D01*
X86893Y-45240D01*
X78050Y-45240D01*
X77969Y-45256D01*
X77902Y-45302D01*
X77902Y-45302D01*
X76952Y-46252D01*
X76906Y-46319D01*
X76890Y-46400D01*
X76890Y-47799D01*
X76845Y-47818D01*
X76718Y-47944D01*
X76650Y-48110D01*
X76649Y-48289D01*
X76718Y-48454D01*
X76844Y-48581D01*
X77010Y-48649D01*
X77189Y-48650D01*
X77354Y-48581D01*
X77481Y-48455D01*
X77549Y-48289D01*
X77550Y-48110D01*
X77481Y-47945D01*
X77355Y-47818D01*
X77309Y-47799D01*
X77309Y-46486D01*
X78136Y-45659D01*
X78995Y-45659D01*
X77952Y-46702D01*
X77906Y-46769D01*
X77890Y-46850D01*
X77890Y-47799D01*
X77845Y-47818D01*
X77718Y-47944D01*
X77650Y-48110D01*
X77649Y-48289D01*
X77718Y-48454D01*
X77844Y-48581D01*
X78010Y-48649D01*
X78189Y-48650D01*
X78354Y-48581D01*
X78481Y-48455D01*
X78549Y-48289D01*
X78550Y-48110D01*
X78481Y-47945D01*
X78355Y-47818D01*
X78309Y-47799D01*
X78309Y-46936D01*
X79336Y-45909D01*
X79995Y-45909D01*
X78952Y-46952D01*
X78906Y-47019D01*
X78890Y-47100D01*
X78890Y-47799D01*
X78845Y-47818D01*
X78718Y-47944D01*
X78650Y-48110D01*
X78649Y-48289D01*
X78718Y-48454D01*
X78844Y-48581D01*
X79010Y-48649D01*
X79189Y-48650D01*
X79354Y-48581D01*
X79481Y-48455D01*
X79549Y-48289D01*
X79550Y-48110D01*
X79481Y-47945D01*
X79355Y-47818D01*
X79309Y-47799D01*
X79309Y-47186D01*
X80336Y-46159D01*
X81095Y-46159D01*
X79952Y-47302D01*
X79906Y-47369D01*
X79890Y-47450D01*
X79890Y-47799D01*
X79845Y-47818D01*
X79718Y-47944D01*
X79650Y-48110D01*
X79649Y-48289D01*
X79718Y-48454D01*
X79844Y-48581D01*
X80010Y-48649D01*
X80189Y-48650D01*
X80354Y-48581D01*
X80481Y-48455D01*
X80549Y-48289D01*
X80550Y-48110D01*
X80481Y-47945D01*
X80355Y-47818D01*
X80309Y-47799D01*
X80309Y-47536D01*
X81436Y-46409D01*
X81945Y-46409D01*
X80952Y-47402D01*
X80906Y-47469D01*
X80890Y-47550D01*
X80890Y-47799D01*
X80845Y-47818D01*
X80718Y-47944D01*
X80650Y-48110D01*
X80649Y-48289D01*
X80718Y-48454D01*
X80844Y-48581D01*
X81010Y-48649D01*
X81189Y-48650D01*
X81354Y-48581D01*
X81481Y-48455D01*
X81549Y-48289D01*
X81550Y-48110D01*
X81481Y-47945D01*
X81355Y-47818D01*
X81309Y-47799D01*
X81309Y-47636D01*
X82286Y-46659D01*
X82645Y-46659D01*
X81952Y-47352D01*
X81906Y-47419D01*
X81890Y-47500D01*
X81890Y-47799D01*
X81845Y-47818D01*
X81718Y-47944D01*
X81650Y-48110D01*
X81649Y-48289D01*
X81718Y-48454D01*
X81844Y-48581D01*
X82010Y-48649D01*
X82189Y-48650D01*
X82354Y-48581D01*
X82481Y-48455D01*
X82549Y-48289D01*
X82550Y-48110D01*
X82481Y-47945D01*
X82355Y-47818D01*
X82309Y-47799D01*
X82309Y-47586D01*
X82986Y-46909D01*
X83645Y-46909D01*
X82952Y-47602D01*
X82906Y-47669D01*
X82890Y-47750D01*
X82890Y-47799D01*
X82845Y-47818D01*
X82718Y-47944D01*
X82650Y-48110D01*
X82649Y-48289D01*
X82718Y-48454D01*
X82844Y-48581D01*
X83010Y-48649D01*
X83189Y-48650D01*
X83354Y-48581D01*
X83481Y-48455D01*
X83549Y-48289D01*
X83550Y-48110D01*
X83481Y-47945D01*
X83355Y-47818D01*
X83335Y-47810D01*
X83986Y-47159D01*
X86847Y-47159D01*
X86824Y-47174D01*
X86231Y-47767D01*
X86189Y-47750D01*
X86010Y-47749D01*
X85845Y-47818D01*
X85718Y-47944D01*
X85650Y-48110D01*
X85649Y-48289D01*
X85718Y-48454D01*
X85844Y-48581D01*
X86010Y-48649D01*
X86189Y-48650D01*
X86354Y-48581D01*
X86481Y-48455D01*
X86549Y-48289D01*
X86550Y-48151D01*
X87102Y-47598D01*
X92150Y-47598D01*
X92245Y-47579D01*
X92325Y-47525D01*
X92552Y-47298D01*
X93659Y-47298D01*
X93674Y-47333D01*
X93765Y-47425D01*
X93885Y-47474D01*
X94014Y-47475D01*
X94133Y-47425D01*
X94225Y-47334D01*
X94274Y-47214D01*
X94275Y-47085D01*
X94275Y-47590D01*
X93600Y-47590D01*
X93600Y-47590D01*
X93519Y-47606D01*
X93452Y-47652D01*
X92988Y-48115D01*
X91575Y-48115D01*
X91494Y-48131D01*
X91427Y-48177D01*
X89731Y-49872D01*
X88750Y-49872D01*
X86455Y-49872D01*
X86455Y-49233D01*
X86441Y-49095D01*
X86415Y-49032D01*
X86376Y-48994D01*
X86305Y-49065D01*
X86305Y-48923D01*
X86267Y-48884D01*
X86133Y-48844D01*
X85995Y-48858D01*
X85932Y-48884D01*
X85894Y-48923D01*
X86100Y-49129D01*
X86305Y-48923D01*
X86305Y-49065D01*
X86170Y-49200D01*
X86376Y-49405D01*
X86415Y-49367D01*
X86455Y-49233D01*
X86455Y-49872D01*
X86305Y-49872D01*
X86305Y-49476D01*
X86100Y-49270D01*
X85894Y-49476D01*
X85932Y-49515D01*
X86066Y-49555D01*
X86204Y-49541D01*
X86267Y-49515D01*
X86305Y-49476D01*
X86305Y-49872D01*
X86218Y-49872D01*
X85809Y-49463D01*
X85809Y-49391D01*
X85823Y-49405D01*
X86029Y-49200D01*
X85823Y-48994D01*
X85809Y-49008D01*
X85809Y-48700D01*
X85793Y-48619D01*
X85747Y-48552D01*
X85531Y-48335D01*
X85549Y-48289D01*
X85550Y-48110D01*
X85481Y-47945D01*
X85355Y-47818D01*
X85189Y-47750D01*
X85010Y-47749D01*
X84845Y-47818D01*
X84718Y-47944D01*
X84650Y-48110D01*
X84649Y-48289D01*
X84718Y-48454D01*
X84844Y-48581D01*
X85010Y-48649D01*
X85189Y-48650D01*
X85235Y-48630D01*
X85390Y-48786D01*
X85390Y-48854D01*
X85355Y-48818D01*
X85189Y-48750D01*
X85010Y-48749D01*
X84845Y-48818D01*
X84718Y-48944D01*
X84650Y-49110D01*
X84649Y-49289D01*
X84718Y-49454D01*
X84844Y-49581D01*
X85000Y-49645D01*
X85802Y-50447D01*
X85869Y-50493D01*
X85950Y-50509D01*
X89400Y-50509D01*
X90000Y-50509D01*
X90080Y-50493D01*
X90147Y-50447D01*
X91811Y-48784D01*
X93175Y-48784D01*
X93255Y-48768D01*
X93322Y-48722D01*
X93786Y-48259D01*
X95675Y-48259D01*
X95755Y-48243D01*
X95822Y-48197D01*
X95845Y-48174D01*
X95939Y-48175D01*
X96058Y-48125D01*
X96150Y-48034D01*
X96199Y-47914D01*
X96200Y-47785D01*
X96150Y-47666D01*
X96059Y-47574D01*
X96042Y-47567D01*
X96083Y-47550D01*
X96150Y-47484D01*
X96788Y-47484D01*
X97579Y-48275D01*
X97485Y-48274D01*
X97366Y-48324D01*
X97274Y-48415D01*
X97225Y-48535D01*
X97224Y-48664D01*
X97274Y-48783D01*
X97365Y-48875D01*
X97440Y-48906D01*
X97440Y-49006D01*
X97364Y-48975D01*
X97235Y-48974D01*
X97196Y-48990D01*
X92800Y-48990D01*
X92768Y-48997D01*
X92714Y-48975D01*
X92585Y-48974D01*
X92466Y-49024D01*
X92374Y-49115D01*
X92325Y-49235D01*
X92324Y-49364D01*
X92374Y-49483D01*
X92465Y-49575D01*
X92585Y-49624D01*
X92714Y-49625D01*
X92833Y-49575D01*
X92885Y-49524D01*
X92884Y-49604D01*
X92934Y-49723D01*
X93025Y-49815D01*
X93145Y-49864D01*
X93274Y-49865D01*
X93393Y-49815D01*
X93485Y-49724D01*
X93497Y-49694D01*
X93507Y-49687D01*
X93536Y-49659D01*
X96888Y-49659D01*
X96975Y-49745D01*
X96974Y-49839D01*
X97024Y-49958D01*
X97115Y-50050D01*
X97235Y-50099D01*
X97364Y-50100D01*
X97440Y-50068D01*
X97440Y-50281D01*
X97384Y-50224D01*
X97264Y-50175D01*
X97135Y-50174D01*
X97036Y-50215D01*
X96111Y-50215D01*
X95897Y-50002D01*
X95830Y-49956D01*
X95750Y-49940D01*
X93000Y-49940D01*
X92850Y-49940D01*
X92736Y-49940D01*
X92174Y-49379D01*
X92175Y-49285D01*
X92125Y-49166D01*
X92034Y-49074D01*
X91914Y-49025D01*
X91785Y-49024D01*
X91666Y-49074D01*
X91574Y-49165D01*
X91525Y-49285D01*
X91524Y-49414D01*
X91574Y-49533D01*
X91665Y-49625D01*
X91785Y-49674D01*
X91879Y-49675D01*
X92502Y-50297D01*
X92569Y-50343D01*
X92650Y-50359D01*
X92850Y-50359D01*
X93000Y-50359D01*
X94606Y-50359D01*
X94575Y-50435D01*
X94574Y-50529D01*
X94463Y-50640D01*
X94050Y-50640D01*
X84550Y-50640D01*
X84550Y-49110D01*
X84550Y-48110D01*
X84481Y-47945D01*
X84355Y-47818D01*
X84189Y-47750D01*
X84010Y-47749D01*
X83845Y-47818D01*
X83718Y-47944D01*
X83650Y-48110D01*
X83649Y-48289D01*
X83718Y-48454D01*
X83844Y-48581D01*
X84010Y-48649D01*
X84189Y-48650D01*
X84354Y-48581D01*
X84481Y-48455D01*
X84549Y-48289D01*
X84550Y-48110D01*
X84550Y-49110D01*
X84481Y-48945D01*
X84355Y-48818D01*
X84189Y-48750D01*
X84010Y-48749D01*
X83845Y-48818D01*
X83718Y-48944D01*
X83650Y-49110D01*
X83649Y-49289D01*
X83718Y-49454D01*
X83844Y-49581D01*
X84010Y-49649D01*
X84189Y-49650D01*
X84354Y-49581D01*
X84481Y-49455D01*
X84549Y-49289D01*
X84550Y-49110D01*
X84550Y-50640D01*
X83486Y-50640D01*
X83309Y-50463D01*
X83309Y-49600D01*
X83354Y-49581D01*
X83481Y-49455D01*
X83549Y-49289D01*
X83550Y-49110D01*
X83481Y-48945D01*
X83355Y-48818D01*
X83189Y-48750D01*
X83010Y-48749D01*
X82845Y-48818D01*
X82718Y-48944D01*
X82650Y-49110D01*
X82649Y-49289D01*
X82718Y-49454D01*
X82844Y-49581D01*
X82890Y-49600D01*
X82890Y-50550D01*
X82906Y-50630D01*
X82952Y-50697D01*
X83145Y-50890D01*
X82486Y-50890D01*
X82309Y-50713D01*
X82309Y-49600D01*
X82354Y-49581D01*
X82481Y-49455D01*
X82549Y-49289D01*
X82550Y-49110D01*
X82481Y-48945D01*
X82355Y-48818D01*
X82189Y-48750D01*
X82010Y-48749D01*
X81845Y-48818D01*
X81718Y-48944D01*
X81650Y-49110D01*
X81649Y-49289D01*
X81718Y-49454D01*
X81844Y-49581D01*
X81890Y-49600D01*
X81890Y-50800D01*
X81906Y-50880D01*
X81952Y-50947D01*
X82145Y-51140D01*
X81586Y-51140D01*
X81309Y-50863D01*
X81309Y-49600D01*
X81354Y-49581D01*
X81481Y-49455D01*
X81549Y-49289D01*
X81550Y-49110D01*
X81481Y-48945D01*
X81355Y-48818D01*
X81189Y-48750D01*
X81010Y-48749D01*
X80845Y-48818D01*
X80718Y-48944D01*
X80650Y-49110D01*
X80649Y-49289D01*
X80718Y-49454D01*
X80844Y-49581D01*
X80890Y-49600D01*
X80890Y-50950D01*
X80906Y-51030D01*
X80952Y-51097D01*
X81245Y-51390D01*
X80436Y-51390D01*
X80309Y-51263D01*
X80309Y-49600D01*
X80354Y-49581D01*
X80481Y-49455D01*
X80549Y-49289D01*
X80550Y-49110D01*
X80481Y-48945D01*
X80355Y-48818D01*
X80189Y-48750D01*
X80010Y-48749D01*
X79845Y-48818D01*
X79718Y-48944D01*
X79650Y-49110D01*
X79649Y-49289D01*
X79718Y-49454D01*
X79844Y-49581D01*
X79890Y-49600D01*
X79890Y-51349D01*
X79906Y-51430D01*
X79952Y-51497D01*
X80095Y-51640D01*
X79486Y-51640D01*
X79309Y-51463D01*
X79309Y-49600D01*
X79354Y-49581D01*
X79481Y-49455D01*
X79549Y-49289D01*
X79550Y-49110D01*
X79481Y-48945D01*
X79355Y-48818D01*
X79189Y-48750D01*
X79010Y-48749D01*
X78845Y-48818D01*
X78718Y-48944D01*
X78650Y-49110D01*
X78649Y-49289D01*
X78718Y-49454D01*
X78844Y-49581D01*
X78890Y-49600D01*
X78890Y-51550D01*
X78906Y-51630D01*
X78952Y-51697D01*
X79195Y-51940D01*
X78686Y-51940D01*
X78309Y-51563D01*
X78309Y-49600D01*
X78354Y-49581D01*
X78481Y-49455D01*
X78549Y-49289D01*
X78550Y-49110D01*
X78481Y-48945D01*
X78355Y-48818D01*
X78189Y-48750D01*
X78010Y-48749D01*
X77845Y-48818D01*
X77718Y-48944D01*
X77650Y-49110D01*
X77649Y-49289D01*
X77718Y-49454D01*
X77844Y-49581D01*
X77890Y-49600D01*
X77890Y-51650D01*
X77906Y-51730D01*
X77952Y-51797D01*
X78345Y-52190D01*
X78136Y-52190D01*
X77309Y-51363D01*
X77309Y-49650D01*
X77429Y-49650D01*
X77484Y-49627D01*
X77527Y-49584D01*
X77550Y-49529D01*
X77550Y-49470D01*
X77550Y-48870D01*
X77527Y-48815D01*
X77484Y-48772D01*
X77429Y-48750D01*
X77370Y-48750D01*
X76770Y-48750D01*
X76715Y-48772D01*
X76672Y-48815D01*
X76650Y-48870D01*
X76650Y-48929D01*
X76650Y-49529D01*
X76672Y-49584D01*
X76715Y-49627D01*
X76770Y-49650D01*
X76829Y-49650D01*
X76890Y-49650D01*
X76890Y-51450D01*
X76906Y-51530D01*
X76952Y-51597D01*
X77902Y-52547D01*
X77902Y-52547D01*
X77969Y-52593D01*
X78050Y-52609D01*
X85694Y-52609D01*
X84907Y-53350D01*
X73150Y-53350D01*
X73150Y-50850D01*
X74420Y-50850D01*
X74850Y-50420D01*
X74850Y-42830D01*
X74171Y-42100D01*
X71850Y-42100D01*
X71850Y-40350D01*
X110550Y-40350D01*
X110550Y-61550D01*
X110550Y-61550D01*
G37*
G54D26*
X110550Y-61550D02*
X110354Y-61550D01*
X110354Y-41238D01*
X110268Y-41032D01*
X110110Y-40873D01*
X109904Y-40788D01*
X109680Y-40787D01*
X109474Y-40873D01*
X109315Y-41031D01*
X109230Y-41237D01*
X109230Y-41461D01*
X109315Y-41667D01*
X109473Y-41826D01*
X109679Y-41911D01*
X109903Y-41912D01*
X110110Y-41826D01*
X110268Y-41668D01*
X110354Y-41462D01*
X110354Y-41238D01*
X110354Y-61550D01*
X110206Y-61550D01*
X110206Y-57940D01*
X110074Y-57621D01*
X109830Y-57376D01*
X109511Y-57244D01*
X109195Y-57243D01*
X109195Y-54524D01*
X109127Y-54360D01*
X109002Y-54235D01*
X108998Y-54233D01*
X108998Y-51800D01*
X108979Y-51704D01*
X108925Y-51624D01*
X108238Y-50936D01*
X108157Y-50883D01*
X108062Y-50864D01*
X107850Y-50864D01*
X107850Y-50782D01*
X107827Y-50727D01*
X107784Y-50685D01*
X107729Y-50662D01*
X107670Y-50662D01*
X107648Y-50662D01*
X107648Y-50150D01*
X107629Y-50054D01*
X107629Y-50054D01*
X107608Y-50022D01*
X107575Y-49974D01*
X107575Y-49974D01*
X107362Y-49760D01*
X107362Y-41238D01*
X107276Y-41032D01*
X107118Y-40873D01*
X106912Y-40788D01*
X106688Y-40787D01*
X106482Y-40873D01*
X106323Y-41031D01*
X106238Y-41237D01*
X106237Y-41461D01*
X106323Y-41667D01*
X106454Y-41799D01*
X106454Y-41950D01*
X106454Y-42050D01*
X106454Y-42800D01*
X106454Y-43056D01*
X106116Y-43394D01*
X105730Y-43394D01*
X105725Y-43394D01*
X105504Y-43394D01*
X105504Y-41238D01*
X105418Y-41032D01*
X105260Y-40873D01*
X105054Y-40788D01*
X104830Y-40787D01*
X104624Y-40873D01*
X104465Y-41031D01*
X104380Y-41237D01*
X104380Y-41461D01*
X104465Y-41667D01*
X104623Y-41826D01*
X104829Y-41911D01*
X105053Y-41912D01*
X105260Y-41826D01*
X105418Y-41668D01*
X105504Y-41462D01*
X105504Y-41238D01*
X105504Y-43394D01*
X102295Y-43394D01*
X102295Y-41799D01*
X102426Y-41668D01*
X102511Y-41462D01*
X102512Y-41238D01*
X102426Y-41032D01*
X102268Y-40873D01*
X102062Y-40788D01*
X101838Y-40787D01*
X101632Y-40873D01*
X101473Y-41031D01*
X101388Y-41237D01*
X101387Y-41461D01*
X101473Y-41667D01*
X101604Y-41799D01*
X101604Y-43394D01*
X100654Y-43394D01*
X100654Y-41238D01*
X100568Y-41032D01*
X100410Y-40873D01*
X100204Y-40788D01*
X99980Y-40787D01*
X99774Y-40873D01*
X99615Y-41031D01*
X99530Y-41237D01*
X99530Y-41461D01*
X99615Y-41667D01*
X99773Y-41826D01*
X99979Y-41911D01*
X100203Y-41912D01*
X100410Y-41826D01*
X100568Y-41668D01*
X100654Y-41462D01*
X100654Y-41238D01*
X100654Y-43394D01*
X97465Y-43394D01*
X97465Y-41779D01*
X97576Y-41668D01*
X97661Y-41462D01*
X97662Y-41238D01*
X97576Y-41032D01*
X97418Y-40873D01*
X97212Y-40788D01*
X96988Y-40787D01*
X96782Y-40873D01*
X96623Y-41031D01*
X96538Y-41237D01*
X96537Y-41461D01*
X96623Y-41667D01*
X96774Y-41819D01*
X96774Y-43394D01*
X95804Y-43394D01*
X95804Y-41238D01*
X95718Y-41032D01*
X95560Y-40873D01*
X95354Y-40788D01*
X95130Y-40787D01*
X94924Y-40873D01*
X94765Y-41031D01*
X94680Y-41237D01*
X94680Y-41461D01*
X94765Y-41667D01*
X94923Y-41826D01*
X95129Y-41911D01*
X95353Y-41912D01*
X95560Y-41826D01*
X95718Y-41668D01*
X95804Y-41462D01*
X95804Y-41238D01*
X95804Y-43394D01*
X92985Y-43394D01*
X92985Y-41740D01*
X92959Y-41607D01*
X92959Y-41607D01*
X92884Y-41495D01*
X92811Y-41423D01*
X92812Y-41238D01*
X92726Y-41032D01*
X92568Y-40873D01*
X92362Y-40788D01*
X92138Y-40787D01*
X91932Y-40873D01*
X91773Y-41031D01*
X91688Y-41237D01*
X91687Y-41461D01*
X91773Y-41667D01*
X91931Y-41826D01*
X92137Y-41911D01*
X92294Y-41912D01*
X92294Y-43394D01*
X91900Y-43394D01*
X90704Y-43394D01*
X90704Y-41238D01*
X90618Y-41032D01*
X90460Y-40873D01*
X90254Y-40788D01*
X90030Y-40787D01*
X89824Y-40873D01*
X89665Y-41031D01*
X89580Y-41237D01*
X89580Y-41461D01*
X89665Y-41667D01*
X89823Y-41826D01*
X90029Y-41911D01*
X90253Y-41912D01*
X90460Y-41826D01*
X90618Y-41668D01*
X90704Y-41462D01*
X90704Y-41238D01*
X90704Y-43394D01*
X87495Y-43394D01*
X87495Y-41799D01*
X87626Y-41668D01*
X87711Y-41462D01*
X87712Y-41238D01*
X87626Y-41032D01*
X87468Y-40873D01*
X87262Y-40788D01*
X87038Y-40787D01*
X86832Y-40873D01*
X86673Y-41031D01*
X86588Y-41237D01*
X86587Y-41461D01*
X86673Y-41667D01*
X86804Y-41799D01*
X86804Y-43394D01*
X85804Y-43394D01*
X85804Y-41238D01*
X85718Y-41032D01*
X85560Y-40873D01*
X85354Y-40788D01*
X85130Y-40787D01*
X84924Y-40873D01*
X84765Y-41031D01*
X84680Y-41237D01*
X84680Y-41461D01*
X84765Y-41667D01*
X84923Y-41826D01*
X85129Y-41911D01*
X85353Y-41912D01*
X85560Y-41826D01*
X85718Y-41668D01*
X85804Y-41462D01*
X85804Y-41238D01*
X85804Y-43394D01*
X82595Y-43394D01*
X82595Y-41799D01*
X82726Y-41668D01*
X82811Y-41462D01*
X82812Y-41238D01*
X82726Y-41032D01*
X82568Y-40873D01*
X82362Y-40788D01*
X82138Y-40787D01*
X81932Y-40873D01*
X81773Y-41031D01*
X81688Y-41237D01*
X81687Y-41461D01*
X81773Y-41667D01*
X81904Y-41799D01*
X81904Y-43394D01*
X80904Y-43394D01*
X80904Y-41238D01*
X80818Y-41032D01*
X80660Y-40873D01*
X80454Y-40788D01*
X80230Y-40787D01*
X80024Y-40873D01*
X79865Y-41031D01*
X79780Y-41237D01*
X79780Y-41461D01*
X79865Y-41667D01*
X80023Y-41826D01*
X80229Y-41911D01*
X80453Y-41912D01*
X80660Y-41826D01*
X80818Y-41668D01*
X80904Y-41462D01*
X80904Y-41238D01*
X80904Y-43394D01*
X77695Y-43394D01*
X77695Y-41799D01*
X77826Y-41668D01*
X77911Y-41462D01*
X77912Y-41238D01*
X77826Y-41032D01*
X77668Y-40873D01*
X77462Y-40788D01*
X77238Y-40787D01*
X77032Y-40873D01*
X76873Y-41031D01*
X76788Y-41237D01*
X76787Y-41461D01*
X76873Y-41667D01*
X77004Y-41799D01*
X77004Y-43394D01*
X76583Y-43394D01*
X76004Y-42815D01*
X76004Y-41238D01*
X75918Y-41032D01*
X75760Y-40873D01*
X75554Y-40788D01*
X75330Y-40787D01*
X75124Y-40873D01*
X74965Y-41031D01*
X74880Y-41237D01*
X74880Y-41461D01*
X74965Y-41667D01*
X75123Y-41826D01*
X75329Y-41911D01*
X75553Y-41912D01*
X75760Y-41826D01*
X75918Y-41668D01*
X76004Y-41462D01*
X76004Y-41238D01*
X76004Y-42815D01*
X74294Y-41105D01*
X74182Y-41030D01*
X74050Y-41004D01*
X72899Y-41004D01*
X72768Y-40873D01*
X72562Y-40788D01*
X72338Y-40787D01*
X72132Y-40873D01*
X71973Y-41031D01*
X71888Y-41237D01*
X71887Y-41461D01*
X71973Y-41667D01*
X72131Y-41826D01*
X72337Y-41911D01*
X72561Y-41912D01*
X72767Y-41826D01*
X72899Y-41695D01*
X73906Y-41695D01*
X76195Y-43984D01*
X76307Y-44059D01*
X76307Y-44059D01*
X76440Y-44085D01*
X76440Y-44085D01*
X76440Y-44085D01*
X77350Y-44085D01*
X82250Y-44085D01*
X87150Y-44085D01*
X91427Y-44085D01*
X91427Y-44133D01*
X91492Y-44288D01*
X91610Y-44407D01*
X91765Y-44471D01*
X91933Y-44472D01*
X92088Y-44407D01*
X92207Y-44289D01*
X92271Y-44134D01*
X92271Y-44085D01*
X92640Y-44085D01*
X97120Y-44085D01*
X101950Y-44085D01*
X102040Y-44085D01*
X105379Y-44085D01*
X105379Y-44453D01*
X105375Y-44453D01*
X105285Y-44490D01*
X105215Y-44560D01*
X105178Y-44650D01*
X105178Y-44749D01*
X105178Y-45349D01*
X105215Y-45439D01*
X105285Y-45509D01*
X105375Y-45547D01*
X105474Y-45547D01*
X106074Y-45547D01*
X106164Y-45509D01*
X106234Y-45439D01*
X106272Y-45349D01*
X106272Y-45250D01*
X106272Y-44650D01*
X106234Y-44560D01*
X106164Y-44490D01*
X106074Y-44453D01*
X106070Y-44453D01*
X106070Y-44085D01*
X106260Y-44085D01*
X106392Y-44059D01*
X106392Y-44059D01*
X106504Y-43984D01*
X107044Y-43444D01*
X107044Y-43444D01*
X107044Y-43444D01*
X107119Y-43332D01*
X107119Y-43332D01*
X107145Y-43200D01*
X107145Y-42800D01*
X107145Y-42050D01*
X107145Y-41950D01*
X107145Y-41799D01*
X107276Y-41668D01*
X107361Y-41462D01*
X107362Y-41238D01*
X107362Y-49760D01*
X107200Y-49599D01*
X107120Y-49545D01*
X107025Y-49526D01*
X106080Y-49526D01*
X106080Y-46033D01*
X106066Y-45895D01*
X106040Y-45832D01*
X106001Y-45794D01*
X105930Y-45865D01*
X105930Y-45723D01*
X105892Y-45684D01*
X105758Y-45644D01*
X105620Y-45658D01*
X105557Y-45684D01*
X105519Y-45723D01*
X105725Y-45929D01*
X105930Y-45723D01*
X105930Y-45865D01*
X105795Y-46000D01*
X106001Y-46205D01*
X106040Y-46167D01*
X106080Y-46033D01*
X106080Y-49526D01*
X105930Y-49526D01*
X105930Y-46276D01*
X105725Y-46070D01*
X105654Y-46141D01*
X105654Y-46000D01*
X105448Y-45794D01*
X105409Y-45832D01*
X105369Y-45966D01*
X105383Y-46104D01*
X105409Y-46167D01*
X105448Y-46205D01*
X105654Y-46000D01*
X105654Y-46141D01*
X105519Y-46276D01*
X105557Y-46315D01*
X105691Y-46355D01*
X105829Y-46341D01*
X105892Y-46315D01*
X105930Y-46276D01*
X105930Y-49526D01*
X104325Y-49526D01*
X104229Y-49545D01*
X104149Y-49599D01*
X103174Y-50574D01*
X103120Y-50654D01*
X103101Y-50750D01*
X103101Y-52447D01*
X103047Y-52501D01*
X102988Y-52501D01*
X102987Y-52499D01*
X103000Y-52469D01*
X103000Y-52410D01*
X103000Y-52030D01*
X102977Y-51975D01*
X102934Y-51932D01*
X102879Y-51910D01*
X102848Y-51910D01*
X102848Y-51900D01*
X102829Y-51804D01*
X102775Y-51724D01*
X102498Y-51447D01*
X102498Y-50425D01*
X102498Y-50200D01*
X102498Y-49911D01*
X102525Y-49884D01*
X102574Y-49764D01*
X102575Y-49635D01*
X102525Y-49516D01*
X102498Y-49488D01*
X102498Y-49450D01*
X102498Y-45650D01*
X102498Y-44750D01*
X102479Y-44654D01*
X102425Y-44574D01*
X102200Y-44349D01*
X102075Y-44224D01*
X101995Y-44170D01*
X101900Y-44151D01*
X95578Y-44151D01*
X95514Y-44125D01*
X95385Y-44124D01*
X95266Y-44174D01*
X95174Y-44265D01*
X95125Y-44385D01*
X95124Y-44514D01*
X95174Y-44633D01*
X95265Y-44725D01*
X95385Y-44774D01*
X95514Y-44775D01*
X95633Y-44725D01*
X95711Y-44648D01*
X101797Y-44648D01*
X101849Y-44700D01*
X102001Y-44852D01*
X102001Y-45650D01*
X102001Y-49450D01*
X102001Y-49488D01*
X101974Y-49515D01*
X101925Y-49635D01*
X101924Y-49764D01*
X101974Y-49883D01*
X102001Y-49911D01*
X102001Y-50176D01*
X101825Y-50176D01*
X101825Y-45085D01*
X101756Y-44920D01*
X101630Y-44793D01*
X101464Y-44725D01*
X101285Y-44724D01*
X101120Y-44793D01*
X100993Y-44919D01*
X100925Y-45085D01*
X100924Y-45264D01*
X100993Y-45429D01*
X101119Y-45556D01*
X101285Y-45624D01*
X101464Y-45625D01*
X101629Y-45556D01*
X101756Y-45430D01*
X101824Y-45264D01*
X101825Y-45085D01*
X101825Y-50176D01*
X101725Y-50176D01*
X101725Y-46484D01*
X101725Y-46237D01*
X101725Y-46112D01*
X101725Y-45865D01*
X101717Y-45846D01*
X101703Y-45832D01*
X101684Y-45825D01*
X101665Y-45825D01*
X101437Y-45825D01*
X101425Y-45837D01*
X101425Y-46125D01*
X101712Y-46125D01*
X101725Y-46112D01*
X101725Y-46237D01*
X101712Y-46225D01*
X101425Y-46225D01*
X101425Y-46512D01*
X101437Y-46525D01*
X101665Y-46525D01*
X101684Y-46525D01*
X101703Y-46517D01*
X101717Y-46503D01*
X101725Y-46484D01*
X101725Y-50176D01*
X101325Y-50176D01*
X101325Y-46512D01*
X101325Y-46225D01*
X101325Y-46125D01*
X101325Y-45837D01*
X101312Y-45825D01*
X101084Y-45825D01*
X101065Y-45825D01*
X101046Y-45832D01*
X101032Y-45846D01*
X101025Y-45865D01*
X101025Y-46112D01*
X101037Y-46125D01*
X101325Y-46125D01*
X101325Y-46225D01*
X101037Y-46225D01*
X101025Y-46237D01*
X101025Y-46484D01*
X101032Y-46503D01*
X101046Y-46517D01*
X101065Y-46525D01*
X101084Y-46525D01*
X101312Y-46525D01*
X101325Y-46512D01*
X101325Y-50176D01*
X100948Y-50176D01*
X100948Y-49919D01*
X100979Y-49906D01*
X101106Y-49780D01*
X101174Y-49614D01*
X101175Y-49435D01*
X101175Y-49435D01*
X101175Y-48854D01*
X101175Y-48795D01*
X101175Y-48195D01*
X101152Y-48140D01*
X101109Y-48097D01*
X101054Y-48075D01*
X100995Y-48075D01*
X100825Y-48075D01*
X100825Y-45085D01*
X100756Y-44920D01*
X100630Y-44793D01*
X100464Y-44725D01*
X100285Y-44724D01*
X100120Y-44793D01*
X99993Y-44919D01*
X99925Y-45085D01*
X99924Y-45264D01*
X99993Y-45429D01*
X100119Y-45556D01*
X100285Y-45624D01*
X100464Y-45625D01*
X100629Y-45556D01*
X100756Y-45430D01*
X100824Y-45264D01*
X100825Y-45085D01*
X100825Y-48075D01*
X100725Y-48075D01*
X100725Y-46484D01*
X100725Y-46237D01*
X100725Y-46112D01*
X100725Y-45865D01*
X100717Y-45846D01*
X100703Y-45832D01*
X100684Y-45825D01*
X100665Y-45825D01*
X100437Y-45825D01*
X100425Y-45837D01*
X100425Y-46125D01*
X100712Y-46125D01*
X100725Y-46112D01*
X100725Y-46237D01*
X100712Y-46225D01*
X100425Y-46225D01*
X100425Y-46512D01*
X100437Y-46525D01*
X100665Y-46525D01*
X100684Y-46525D01*
X100703Y-46517D01*
X100717Y-46503D01*
X100725Y-46484D01*
X100725Y-48075D01*
X100395Y-48075D01*
X100340Y-48097D01*
X100325Y-48112D01*
X100325Y-46512D01*
X100325Y-46225D01*
X100325Y-46125D01*
X100325Y-45837D01*
X100312Y-45825D01*
X100084Y-45825D01*
X100065Y-45825D01*
X100046Y-45832D01*
X100032Y-45846D01*
X100025Y-45865D01*
X100025Y-46112D01*
X100037Y-46125D01*
X100325Y-46125D01*
X100325Y-46225D01*
X100037Y-46225D01*
X100025Y-46237D01*
X100025Y-46484D01*
X100032Y-46503D01*
X100046Y-46517D01*
X100065Y-46525D01*
X100084Y-46525D01*
X100312Y-46525D01*
X100325Y-46512D01*
X100325Y-48112D01*
X100297Y-48140D01*
X100275Y-48195D01*
X100275Y-48254D01*
X100275Y-48854D01*
X100297Y-48909D01*
X100340Y-48952D01*
X100395Y-48975D01*
X100454Y-48975D01*
X101054Y-48975D01*
X101109Y-48952D01*
X101152Y-48909D01*
X101175Y-48854D01*
X101175Y-49435D01*
X101106Y-49270D01*
X100980Y-49143D01*
X100814Y-49075D01*
X100635Y-49074D01*
X100470Y-49143D01*
X100343Y-49269D01*
X100275Y-49435D01*
X100274Y-49614D01*
X100343Y-49779D01*
X100451Y-49887D01*
X100451Y-50425D01*
X100451Y-51136D01*
X100417Y-51150D01*
X100276Y-51291D01*
X100200Y-51475D01*
X100199Y-51674D01*
X100275Y-51857D01*
X100416Y-51998D01*
X100600Y-52074D01*
X100799Y-52075D01*
X100982Y-51999D01*
X101123Y-51858D01*
X101199Y-51674D01*
X101200Y-51475D01*
X101124Y-51292D01*
X100983Y-51151D01*
X100948Y-51136D01*
X100948Y-50673D01*
X102001Y-50673D01*
X102001Y-51550D01*
X102020Y-51645D01*
X102074Y-51725D01*
X102276Y-51928D01*
X102265Y-51932D01*
X102222Y-51975D01*
X102200Y-52030D01*
X102200Y-52089D01*
X102200Y-52469D01*
X102212Y-52500D01*
X102200Y-52530D01*
X102200Y-52589D01*
X102200Y-52969D01*
X102222Y-53024D01*
X102265Y-53067D01*
X102320Y-53090D01*
X102351Y-53090D01*
X102351Y-54059D01*
X102242Y-54168D01*
X102239Y-54167D01*
X102061Y-54167D01*
X101897Y-54234D01*
X101772Y-54359D01*
X101704Y-54523D01*
X101704Y-54700D01*
X101772Y-54864D01*
X101897Y-54990D01*
X101901Y-54991D01*
X101901Y-55234D01*
X101739Y-55167D01*
X101561Y-55167D01*
X101500Y-55192D01*
X101500Y-54645D01*
X101486Y-54508D01*
X101461Y-54448D01*
X101422Y-54410D01*
X101352Y-54481D01*
X101352Y-54339D01*
X101314Y-54301D01*
X101182Y-54261D01*
X101046Y-54276D01*
X100985Y-54301D01*
X100947Y-54339D01*
X101150Y-54541D01*
X101352Y-54339D01*
X101352Y-54481D01*
X101220Y-54612D01*
X101422Y-54814D01*
X101461Y-54777D01*
X101500Y-54645D01*
X101500Y-55192D01*
X101397Y-55234D01*
X101352Y-55280D01*
X101352Y-54885D01*
X101150Y-54683D01*
X101079Y-54754D01*
X101079Y-54612D01*
X100877Y-54410D01*
X100838Y-54448D01*
X100799Y-54579D01*
X100813Y-54716D01*
X100838Y-54777D01*
X100877Y-54814D01*
X101079Y-54612D01*
X101079Y-54754D01*
X100947Y-54885D01*
X100985Y-54924D01*
X101117Y-54963D01*
X101253Y-54949D01*
X101314Y-54924D01*
X101352Y-54885D01*
X101352Y-55280D01*
X101272Y-55359D01*
X101204Y-55523D01*
X101204Y-55700D01*
X101272Y-55864D01*
X101397Y-55990D01*
X101560Y-56058D01*
X101738Y-56058D01*
X101902Y-55990D01*
X102027Y-55865D01*
X102048Y-55814D01*
X102088Y-55788D01*
X102325Y-55550D01*
X102379Y-55470D01*
X102398Y-55375D01*
X102398Y-54991D01*
X102402Y-54990D01*
X102527Y-54865D01*
X102595Y-54701D01*
X102595Y-54524D01*
X102593Y-54520D01*
X102775Y-54338D01*
X102829Y-54257D01*
X102848Y-54162D01*
X102848Y-53090D01*
X102879Y-53090D01*
X102934Y-53067D01*
X102977Y-53024D01*
X102988Y-52998D01*
X103150Y-52998D01*
X103245Y-52979D01*
X103325Y-52925D01*
X103525Y-52725D01*
X103525Y-52725D01*
X103525Y-52725D01*
X103558Y-52677D01*
X103579Y-52645D01*
X103579Y-52645D01*
X103598Y-52550D01*
X103598Y-50852D01*
X104427Y-50023D01*
X106922Y-50023D01*
X107151Y-50252D01*
X107151Y-50662D01*
X107070Y-50662D01*
X107015Y-50685D01*
X106972Y-50727D01*
X106950Y-50782D01*
X106950Y-50842D01*
X106950Y-51442D01*
X106972Y-51497D01*
X107015Y-51539D01*
X107070Y-51562D01*
X107129Y-51562D01*
X107729Y-51562D01*
X107784Y-51539D01*
X107827Y-51497D01*
X107850Y-51442D01*
X107850Y-51382D01*
X107850Y-51361D01*
X107959Y-51361D01*
X108501Y-51902D01*
X108501Y-54233D01*
X108497Y-54234D01*
X108372Y-54359D01*
X108304Y-54523D01*
X108304Y-54700D01*
X108372Y-54864D01*
X108497Y-54990D01*
X108501Y-54991D01*
X108501Y-55009D01*
X108342Y-55168D01*
X108339Y-55167D01*
X108161Y-55167D01*
X108100Y-55192D01*
X108100Y-54645D01*
X108086Y-54508D01*
X108061Y-54448D01*
X108022Y-54410D01*
X107952Y-54481D01*
X107952Y-54339D01*
X107914Y-54301D01*
X107782Y-54261D01*
X107755Y-54264D01*
X107755Y-52146D01*
X107741Y-52007D01*
X107715Y-51945D01*
X107676Y-51907D01*
X107605Y-51977D01*
X107605Y-51836D01*
X107567Y-51797D01*
X107433Y-51757D01*
X107295Y-51771D01*
X107232Y-51797D01*
X107194Y-51836D01*
X107400Y-52041D01*
X107605Y-51836D01*
X107605Y-51977D01*
X107470Y-52112D01*
X107676Y-52318D01*
X107715Y-52279D01*
X107755Y-52146D01*
X107755Y-54264D01*
X107646Y-54276D01*
X107605Y-54292D01*
X107605Y-52388D01*
X107400Y-52183D01*
X107329Y-52254D01*
X107329Y-52112D01*
X107123Y-51907D01*
X107084Y-51945D01*
X107044Y-52078D01*
X107058Y-52217D01*
X107084Y-52279D01*
X107123Y-52318D01*
X107329Y-52112D01*
X107329Y-52254D01*
X107194Y-52388D01*
X107232Y-52427D01*
X107366Y-52467D01*
X107504Y-52453D01*
X107567Y-52427D01*
X107605Y-52388D01*
X107605Y-54292D01*
X107585Y-54301D01*
X107547Y-54339D01*
X107750Y-54541D01*
X107952Y-54339D01*
X107952Y-54481D01*
X107820Y-54612D01*
X108022Y-54814D01*
X108061Y-54777D01*
X108100Y-54645D01*
X108100Y-55192D01*
X107997Y-55234D01*
X107952Y-55280D01*
X107952Y-54885D01*
X107750Y-54683D01*
X107679Y-54754D01*
X107679Y-54612D01*
X107477Y-54410D01*
X107438Y-54448D01*
X107399Y-54579D01*
X107413Y-54716D01*
X107438Y-54777D01*
X107477Y-54814D01*
X107679Y-54612D01*
X107679Y-54754D01*
X107547Y-54885D01*
X107585Y-54924D01*
X107717Y-54963D01*
X107853Y-54949D01*
X107914Y-54924D01*
X107952Y-54885D01*
X107952Y-55280D01*
X107872Y-55359D01*
X107804Y-55523D01*
X107804Y-55700D01*
X107872Y-55864D01*
X107997Y-55990D01*
X108160Y-56058D01*
X108338Y-56058D01*
X108502Y-55990D01*
X108627Y-55865D01*
X108695Y-55701D01*
X108695Y-55524D01*
X108693Y-55520D01*
X108925Y-55288D01*
X108979Y-55207D01*
X108998Y-55112D01*
X108998Y-54991D01*
X109002Y-54990D01*
X109127Y-54865D01*
X109195Y-54701D01*
X109195Y-54524D01*
X109195Y-57243D01*
X109166Y-57243D01*
X108846Y-57375D01*
X108602Y-57619D01*
X108469Y-57939D01*
X108469Y-58284D01*
X108601Y-58603D01*
X108845Y-58848D01*
X109164Y-58980D01*
X109509Y-58981D01*
X109829Y-58849D01*
X110073Y-58605D01*
X110206Y-58286D01*
X110206Y-57940D01*
X110206Y-61550D01*
X110148Y-61550D01*
X110148Y-60168D01*
X110136Y-59992D01*
X110093Y-59888D01*
X110044Y-59838D01*
X109973Y-59909D01*
X109973Y-59768D01*
X109923Y-59719D01*
X109756Y-59663D01*
X109580Y-59676D01*
X109476Y-59719D01*
X109426Y-59768D01*
X109700Y-60041D01*
X109973Y-59768D01*
X109973Y-59909D01*
X109770Y-60112D01*
X110044Y-60386D01*
X110093Y-60336D01*
X110148Y-60168D01*
X110148Y-61550D01*
X109973Y-61550D01*
X109973Y-60456D01*
X109700Y-60183D01*
X109629Y-60254D01*
X109629Y-60112D01*
X109355Y-59838D01*
X109306Y-59888D01*
X109251Y-60056D01*
X109263Y-60232D01*
X109306Y-60336D01*
X109355Y-60386D01*
X109629Y-60112D01*
X109629Y-60254D01*
X109426Y-60456D01*
X109476Y-60505D01*
X109643Y-60561D01*
X109819Y-60548D01*
X109923Y-60505D01*
X109973Y-60456D01*
X109973Y-61550D01*
X107695Y-61550D01*
X107695Y-55524D01*
X107627Y-55360D01*
X107502Y-55235D01*
X107339Y-55167D01*
X107161Y-55167D01*
X107100Y-55192D01*
X107100Y-54645D01*
X107086Y-54508D01*
X107061Y-54448D01*
X107022Y-54410D01*
X106952Y-54481D01*
X106952Y-54339D01*
X106914Y-54301D01*
X106850Y-54281D01*
X106850Y-52023D01*
X106781Y-51858D01*
X106655Y-51731D01*
X106489Y-51662D01*
X106310Y-51662D01*
X106145Y-51730D01*
X106018Y-51857D01*
X105950Y-52022D01*
X105949Y-52201D01*
X106009Y-52345D01*
X105850Y-52504D01*
X105850Y-52023D01*
X105850Y-51023D01*
X105781Y-50858D01*
X105655Y-50731D01*
X105489Y-50662D01*
X105310Y-50662D01*
X105145Y-50730D01*
X105018Y-50857D01*
X104950Y-51022D01*
X104949Y-51201D01*
X105018Y-51367D01*
X105144Y-51493D01*
X105310Y-51562D01*
X105489Y-51562D01*
X105654Y-51494D01*
X105781Y-51367D01*
X105849Y-51202D01*
X105850Y-51023D01*
X105850Y-52023D01*
X105781Y-51858D01*
X105655Y-51731D01*
X105489Y-51662D01*
X105310Y-51662D01*
X105145Y-51730D01*
X105018Y-51857D01*
X104950Y-52022D01*
X104949Y-52201D01*
X105018Y-52367D01*
X105144Y-52493D01*
X105310Y-52562D01*
X105489Y-52562D01*
X105654Y-52494D01*
X105781Y-52367D01*
X105849Y-52202D01*
X105850Y-52023D01*
X105850Y-52504D01*
X105102Y-53252D01*
X105056Y-53319D01*
X105040Y-53400D01*
X105040Y-55167D01*
X104924Y-55167D01*
X104869Y-55189D01*
X104827Y-55232D01*
X104804Y-55287D01*
X104804Y-55346D01*
X104804Y-55937D01*
X104827Y-55993D01*
X104869Y-56035D01*
X104924Y-56058D01*
X104984Y-56058D01*
X105575Y-56058D01*
X105630Y-56035D01*
X105672Y-55993D01*
X105695Y-55937D01*
X105695Y-55878D01*
X105695Y-55287D01*
X105672Y-55232D01*
X105630Y-55189D01*
X105575Y-55167D01*
X105515Y-55167D01*
X105459Y-55167D01*
X105459Y-54797D01*
X105477Y-54814D01*
X105679Y-54612D01*
X105477Y-54410D01*
X105459Y-54427D01*
X105459Y-53486D01*
X106383Y-52562D01*
X106489Y-52562D01*
X106654Y-52494D01*
X106781Y-52367D01*
X106849Y-52202D01*
X106850Y-52023D01*
X106850Y-54281D01*
X106782Y-54261D01*
X106646Y-54276D01*
X106585Y-54301D01*
X106547Y-54339D01*
X106750Y-54541D01*
X106952Y-54339D01*
X106952Y-54481D01*
X106820Y-54612D01*
X107022Y-54814D01*
X107061Y-54777D01*
X107100Y-54645D01*
X107100Y-55192D01*
X106997Y-55234D01*
X106952Y-55280D01*
X106952Y-54885D01*
X106750Y-54683D01*
X106679Y-54754D01*
X106679Y-54612D01*
X106477Y-54410D01*
X106438Y-54448D01*
X106399Y-54579D01*
X106413Y-54716D01*
X106438Y-54777D01*
X106477Y-54814D01*
X106679Y-54612D01*
X106679Y-54754D01*
X106547Y-54885D01*
X106585Y-54924D01*
X106717Y-54963D01*
X106853Y-54949D01*
X106914Y-54924D01*
X106952Y-54885D01*
X106952Y-55280D01*
X106872Y-55359D01*
X106804Y-55523D01*
X106804Y-55700D01*
X106872Y-55864D01*
X106997Y-55990D01*
X107160Y-56058D01*
X107338Y-56058D01*
X107502Y-55990D01*
X107627Y-55865D01*
X107695Y-55701D01*
X107695Y-55524D01*
X107695Y-61550D01*
X105533Y-61550D01*
X105533Y-57940D01*
X105401Y-57621D01*
X105157Y-57376D01*
X104838Y-57244D01*
X104493Y-57243D01*
X104173Y-57375D01*
X103929Y-57619D01*
X103796Y-57939D01*
X103796Y-58284D01*
X103928Y-58603D01*
X104172Y-58848D01*
X104491Y-58980D01*
X104836Y-58981D01*
X105156Y-58849D01*
X105400Y-58605D01*
X105533Y-58286D01*
X105533Y-57940D01*
X105533Y-61550D01*
X104698Y-61550D01*
X104698Y-60168D01*
X104686Y-59992D01*
X104643Y-59888D01*
X104594Y-59838D01*
X104523Y-59909D01*
X104523Y-59768D01*
X104473Y-59719D01*
X104306Y-59663D01*
X104130Y-59676D01*
X104026Y-59719D01*
X103976Y-59768D01*
X104250Y-60041D01*
X104523Y-59768D01*
X104523Y-59909D01*
X104320Y-60112D01*
X104594Y-60386D01*
X104643Y-60336D01*
X104698Y-60168D01*
X104698Y-61550D01*
X104523Y-61550D01*
X104523Y-60456D01*
X104250Y-60183D01*
X104179Y-60254D01*
X104179Y-60112D01*
X103905Y-59838D01*
X103856Y-59888D01*
X103801Y-60056D01*
X103813Y-60232D01*
X103856Y-60336D01*
X103905Y-60386D01*
X104179Y-60112D01*
X104179Y-60254D01*
X103976Y-60456D01*
X104026Y-60505D01*
X104193Y-60561D01*
X104369Y-60548D01*
X104473Y-60505D01*
X104523Y-60456D01*
X104523Y-61550D01*
X103606Y-61550D01*
X103606Y-57940D01*
X103474Y-57621D01*
X103230Y-57376D01*
X102911Y-57244D01*
X102566Y-57243D01*
X102246Y-57375D01*
X102002Y-57619D01*
X101869Y-57939D01*
X101869Y-58284D01*
X102001Y-58603D01*
X102245Y-58848D01*
X102564Y-58980D01*
X102909Y-58981D01*
X103229Y-58849D01*
X103473Y-58605D01*
X103606Y-58286D01*
X103606Y-57940D01*
X103606Y-61550D01*
X103548Y-61550D01*
X103548Y-60168D01*
X103536Y-59992D01*
X103493Y-59888D01*
X103444Y-59838D01*
X103373Y-59909D01*
X103373Y-59768D01*
X103323Y-59719D01*
X103156Y-59663D01*
X102980Y-59676D01*
X102876Y-59719D01*
X102826Y-59768D01*
X103100Y-60041D01*
X103373Y-59768D01*
X103373Y-59909D01*
X103170Y-60112D01*
X103444Y-60386D01*
X103493Y-60336D01*
X103548Y-60168D01*
X103548Y-61550D01*
X103373Y-61550D01*
X103373Y-60456D01*
X103100Y-60183D01*
X103029Y-60254D01*
X103029Y-60112D01*
X102755Y-59838D01*
X102706Y-59888D01*
X102651Y-60056D01*
X102663Y-60232D01*
X102706Y-60336D01*
X102755Y-60386D01*
X103029Y-60112D01*
X103029Y-60254D01*
X102826Y-60456D01*
X102876Y-60505D01*
X103043Y-60561D01*
X103219Y-60548D01*
X103323Y-60505D01*
X103373Y-60456D01*
X103373Y-61550D01*
X98933Y-61550D01*
X98933Y-57940D01*
X98801Y-57621D01*
X98557Y-57376D01*
X98238Y-57244D01*
X97893Y-57243D01*
X97573Y-57375D01*
X97329Y-57619D01*
X97196Y-57939D01*
X97196Y-58284D01*
X97328Y-58603D01*
X97572Y-58848D01*
X97891Y-58980D01*
X98236Y-58981D01*
X98556Y-58849D01*
X98800Y-58605D01*
X98933Y-58286D01*
X98933Y-57940D01*
X98933Y-61550D01*
X98098Y-61550D01*
X98098Y-60168D01*
X98086Y-59992D01*
X98043Y-59888D01*
X97994Y-59838D01*
X97923Y-59909D01*
X97923Y-59768D01*
X97873Y-59719D01*
X97706Y-59663D01*
X97530Y-59676D01*
X97426Y-59719D01*
X97376Y-59768D01*
X97650Y-60041D01*
X97923Y-59768D01*
X97923Y-59909D01*
X97720Y-60112D01*
X97994Y-60386D01*
X98043Y-60336D01*
X98098Y-60168D01*
X98098Y-61550D01*
X97923Y-61550D01*
X97923Y-60456D01*
X97650Y-60183D01*
X97579Y-60254D01*
X97579Y-60112D01*
X97305Y-59838D01*
X97256Y-59888D01*
X97201Y-60056D01*
X97213Y-60232D01*
X97256Y-60336D01*
X97305Y-60386D01*
X97579Y-60112D01*
X97579Y-60254D01*
X97376Y-60456D01*
X97426Y-60505D01*
X97593Y-60561D01*
X97769Y-60548D01*
X97873Y-60505D01*
X97923Y-60456D01*
X97923Y-61550D01*
X96355Y-61550D01*
X96355Y-60085D01*
X96355Y-59695D01*
X96355Y-59595D01*
X96355Y-59205D01*
X96303Y-59041D01*
X96191Y-58909D01*
X96033Y-58831D01*
X95965Y-58831D01*
X95965Y-59595D01*
X96355Y-59595D01*
X96355Y-59695D01*
X95965Y-59695D01*
X95965Y-60460D01*
X96033Y-60459D01*
X96191Y-60382D01*
X96303Y-60250D01*
X96355Y-60085D01*
X96355Y-61550D01*
X95865Y-61550D01*
X95865Y-60460D01*
X95865Y-59695D01*
X95865Y-59595D01*
X95865Y-58831D01*
X95797Y-58831D01*
X95639Y-58909D01*
X95528Y-59041D01*
X95475Y-59205D01*
X95475Y-59595D01*
X95865Y-59595D01*
X95865Y-59695D01*
X95475Y-59695D01*
X95475Y-60085D01*
X95528Y-60250D01*
X95639Y-60382D01*
X95797Y-60459D01*
X95865Y-60460D01*
X95865Y-61550D01*
X95037Y-61550D01*
X95037Y-60055D01*
X95037Y-59235D01*
X94988Y-58991D01*
X94850Y-58785D01*
X94643Y-58647D01*
X94400Y-58598D01*
X94156Y-58647D01*
X93949Y-58785D01*
X93811Y-58991D01*
X93763Y-59235D01*
X93763Y-60055D01*
X93811Y-60299D01*
X93949Y-60506D01*
X94156Y-60644D01*
X94400Y-60692D01*
X94643Y-60644D01*
X94850Y-60506D01*
X94988Y-60299D01*
X95037Y-60055D01*
X95037Y-61550D01*
X93050Y-61550D01*
X93050Y-58500D01*
X96450Y-58500D01*
X96450Y-57600D01*
X96450Y-53350D01*
X93341Y-53350D01*
X92600Y-52609D01*
X95200Y-52609D01*
X96250Y-52609D01*
X96330Y-52593D01*
X96397Y-52547D01*
X97390Y-51554D01*
X97390Y-54750D01*
X97406Y-54830D01*
X97452Y-54897D01*
X97827Y-55272D01*
X97827Y-55272D01*
X97894Y-55318D01*
X97975Y-55334D01*
X98204Y-55334D01*
X98204Y-55346D01*
X98204Y-55937D01*
X98227Y-55993D01*
X98269Y-56035D01*
X98324Y-56058D01*
X98384Y-56058D01*
X98975Y-56058D01*
X99030Y-56035D01*
X99072Y-55993D01*
X99095Y-55937D01*
X99095Y-55878D01*
X99095Y-55334D01*
X99298Y-55334D01*
X99272Y-55359D01*
X99204Y-55523D01*
X99204Y-55700D01*
X99272Y-55864D01*
X99397Y-55990D01*
X99440Y-56008D01*
X99440Y-56100D01*
X99456Y-56180D01*
X99502Y-56247D01*
X100027Y-56772D01*
X100094Y-56818D01*
X100175Y-56834D01*
X100175Y-56834D01*
X100175Y-56834D01*
X104400Y-56834D01*
X105500Y-56834D01*
X105775Y-56834D01*
X105855Y-56818D01*
X105922Y-56772D01*
X106397Y-56297D01*
X106397Y-56297D01*
X106397Y-56297D01*
X106443Y-56230D01*
X106459Y-56150D01*
X106459Y-56150D01*
X106459Y-56149D01*
X106459Y-56008D01*
X106502Y-55990D01*
X106627Y-55865D01*
X106695Y-55701D01*
X106695Y-55524D01*
X106627Y-55360D01*
X106502Y-55235D01*
X106339Y-55167D01*
X106161Y-55167D01*
X106100Y-55192D01*
X106100Y-54645D01*
X106086Y-54508D01*
X106061Y-54448D01*
X106022Y-54410D01*
X105952Y-54481D01*
X105952Y-54339D01*
X105914Y-54301D01*
X105782Y-54261D01*
X105646Y-54276D01*
X105585Y-54301D01*
X105547Y-54339D01*
X105750Y-54541D01*
X105952Y-54339D01*
X105952Y-54481D01*
X105820Y-54612D01*
X106022Y-54814D01*
X106061Y-54777D01*
X106100Y-54645D01*
X106100Y-55192D01*
X105997Y-55234D01*
X105952Y-55280D01*
X105952Y-54885D01*
X105750Y-54683D01*
X105547Y-54885D01*
X105585Y-54924D01*
X105717Y-54963D01*
X105853Y-54949D01*
X105914Y-54924D01*
X105952Y-54885D01*
X105952Y-55280D01*
X105872Y-55359D01*
X105804Y-55523D01*
X105804Y-55700D01*
X105872Y-55864D01*
X105997Y-55990D01*
X106040Y-56008D01*
X106040Y-56063D01*
X105688Y-56415D01*
X105500Y-56415D01*
X104609Y-56415D01*
X104609Y-55900D01*
X104609Y-54475D01*
X104609Y-52400D01*
X104609Y-50886D01*
X104911Y-50584D01*
X105575Y-50584D01*
X105968Y-50977D01*
X105950Y-51022D01*
X105949Y-51201D01*
X106018Y-51367D01*
X106144Y-51493D01*
X106310Y-51562D01*
X106489Y-51562D01*
X106654Y-51494D01*
X106781Y-51367D01*
X106849Y-51202D01*
X106850Y-51023D01*
X106781Y-50858D01*
X106655Y-50731D01*
X106489Y-50662D01*
X106310Y-50662D01*
X106264Y-50681D01*
X105810Y-50227D01*
X105742Y-50181D01*
X105662Y-50165D01*
X104825Y-50165D01*
X104825Y-50165D01*
X104758Y-50179D01*
X104744Y-50181D01*
X104677Y-50227D01*
X104677Y-50227D01*
X104252Y-50652D01*
X104206Y-50719D01*
X104190Y-50800D01*
X104190Y-52400D01*
X104190Y-54475D01*
X104190Y-55900D01*
X104190Y-56415D01*
X100261Y-56415D01*
X99859Y-56013D01*
X99859Y-56008D01*
X99902Y-55990D01*
X100027Y-55865D01*
X100095Y-55701D01*
X100095Y-55524D01*
X100027Y-55360D01*
X100001Y-55334D01*
X100075Y-55334D01*
X100222Y-55480D01*
X100204Y-55523D01*
X100204Y-55700D01*
X100272Y-55864D01*
X100397Y-55990D01*
X100560Y-56058D01*
X100738Y-56058D01*
X100902Y-55990D01*
X101027Y-55865D01*
X101095Y-55701D01*
X101095Y-55524D01*
X101027Y-55360D01*
X100902Y-55235D01*
X100739Y-55167D01*
X100561Y-55167D01*
X100518Y-55185D01*
X100500Y-55167D01*
X100500Y-54645D01*
X100486Y-54508D01*
X100461Y-54448D01*
X100422Y-54410D01*
X100352Y-54481D01*
X100352Y-54339D01*
X100314Y-54301D01*
X100182Y-54261D01*
X100175Y-54262D01*
X100175Y-49435D01*
X100175Y-48435D01*
X100106Y-48270D01*
X99980Y-48143D01*
X99825Y-48079D01*
X99825Y-45085D01*
X99756Y-44920D01*
X99630Y-44793D01*
X99464Y-44725D01*
X99285Y-44724D01*
X99120Y-44793D01*
X98993Y-44919D01*
X98925Y-45085D01*
X98924Y-45264D01*
X98993Y-45429D01*
X99119Y-45556D01*
X99285Y-45624D01*
X99464Y-45625D01*
X99629Y-45556D01*
X99756Y-45430D01*
X99824Y-45264D01*
X99825Y-45085D01*
X99825Y-48079D01*
X99814Y-48075D01*
X99725Y-48074D01*
X99725Y-46484D01*
X99725Y-46237D01*
X99725Y-46112D01*
X99725Y-45865D01*
X99717Y-45846D01*
X99703Y-45832D01*
X99684Y-45825D01*
X99665Y-45825D01*
X99437Y-45825D01*
X99425Y-45837D01*
X99425Y-46125D01*
X99712Y-46125D01*
X99725Y-46112D01*
X99725Y-46237D01*
X99712Y-46225D01*
X99425Y-46225D01*
X99425Y-46512D01*
X99437Y-46525D01*
X99665Y-46525D01*
X99684Y-46525D01*
X99703Y-46517D01*
X99717Y-46503D01*
X99725Y-46484D01*
X99725Y-48074D01*
X99635Y-48074D01*
X99470Y-48143D01*
X99343Y-48269D01*
X99325Y-48314D01*
X99325Y-46512D01*
X99325Y-46225D01*
X99325Y-46125D01*
X99325Y-45837D01*
X99312Y-45825D01*
X99084Y-45825D01*
X99065Y-45825D01*
X99046Y-45832D01*
X99032Y-45846D01*
X99025Y-45865D01*
X99025Y-46112D01*
X99037Y-46125D01*
X99325Y-46125D01*
X99325Y-46225D01*
X99037Y-46225D01*
X99025Y-46237D01*
X99025Y-46484D01*
X99032Y-46503D01*
X99046Y-46517D01*
X99065Y-46525D01*
X99084Y-46525D01*
X99312Y-46525D01*
X99325Y-46512D01*
X99325Y-48314D01*
X99275Y-48435D01*
X99274Y-48614D01*
X99343Y-48779D01*
X99469Y-48906D01*
X99635Y-48974D01*
X99814Y-48975D01*
X99979Y-48906D01*
X100106Y-48780D01*
X100174Y-48614D01*
X100175Y-48435D01*
X100175Y-49435D01*
X100106Y-49270D01*
X99980Y-49143D01*
X99814Y-49075D01*
X99635Y-49074D01*
X99470Y-49143D01*
X99343Y-49269D01*
X99275Y-49435D01*
X99274Y-49614D01*
X99343Y-49779D01*
X99469Y-49906D01*
X99635Y-49974D01*
X99814Y-49975D01*
X99979Y-49906D01*
X100106Y-49780D01*
X100174Y-49614D01*
X100175Y-49435D01*
X100175Y-54262D01*
X100105Y-54269D01*
X100105Y-51620D01*
X100091Y-51462D01*
X100056Y-51377D01*
X100012Y-51333D01*
X99941Y-51403D01*
X99941Y-51262D01*
X99897Y-51218D01*
X99745Y-51169D01*
X99587Y-51183D01*
X99502Y-51218D01*
X99458Y-51262D01*
X99700Y-51504D01*
X99941Y-51262D01*
X99941Y-51403D01*
X99770Y-51575D01*
X100012Y-51816D01*
X100056Y-51772D01*
X100105Y-51620D01*
X100105Y-54269D01*
X100046Y-54276D01*
X99985Y-54301D01*
X99947Y-54339D01*
X100150Y-54541D01*
X100352Y-54339D01*
X100352Y-54481D01*
X100220Y-54612D01*
X100422Y-54814D01*
X100461Y-54777D01*
X100500Y-54645D01*
X100500Y-55167D01*
X100310Y-54977D01*
X100262Y-54945D01*
X100314Y-54924D01*
X100352Y-54885D01*
X100150Y-54683D01*
X100079Y-54754D01*
X100079Y-54612D01*
X99941Y-54475D01*
X99941Y-51887D01*
X99700Y-51645D01*
X99629Y-51716D01*
X99629Y-51575D01*
X99387Y-51333D01*
X99343Y-51377D01*
X99297Y-51521D01*
X99297Y-51456D01*
X99206Y-51237D01*
X99080Y-51110D01*
X99080Y-49558D01*
X99066Y-49420D01*
X99040Y-49357D01*
X99001Y-49319D01*
X98930Y-49390D01*
X98930Y-49248D01*
X98892Y-49209D01*
X98758Y-49169D01*
X98620Y-49183D01*
X98557Y-49209D01*
X98519Y-49248D01*
X98725Y-49454D01*
X98930Y-49248D01*
X98930Y-49390D01*
X98795Y-49525D01*
X99001Y-49730D01*
X99040Y-49692D01*
X99080Y-49558D01*
X99080Y-51110D01*
X99038Y-51069D01*
X98930Y-51024D01*
X98930Y-49801D01*
X98725Y-49595D01*
X98654Y-49666D01*
X98654Y-49525D01*
X98448Y-49319D01*
X98409Y-49357D01*
X98369Y-49491D01*
X98383Y-49629D01*
X98409Y-49692D01*
X98448Y-49730D01*
X98654Y-49525D01*
X98654Y-49666D01*
X98519Y-49801D01*
X98557Y-49840D01*
X98691Y-49880D01*
X98829Y-49866D01*
X98892Y-49840D01*
X98930Y-49801D01*
X98930Y-51024D01*
X98819Y-50978D01*
X98581Y-50977D01*
X98362Y-51068D01*
X98194Y-51236D01*
X98103Y-51455D01*
X98102Y-51693D01*
X98193Y-51912D01*
X98361Y-52080D01*
X98580Y-52171D01*
X98818Y-52172D01*
X99037Y-52081D01*
X99205Y-51913D01*
X99296Y-51694D01*
X99297Y-51556D01*
X99308Y-51687D01*
X99343Y-51772D01*
X99387Y-51816D01*
X99629Y-51575D01*
X99629Y-51716D01*
X99458Y-51887D01*
X99502Y-51931D01*
X99654Y-51980D01*
X99812Y-51966D01*
X99897Y-51931D01*
X99941Y-51887D01*
X99941Y-54475D01*
X99877Y-54410D01*
X99838Y-54448D01*
X99799Y-54579D01*
X99813Y-54716D01*
X99838Y-54777D01*
X99877Y-54814D01*
X100079Y-54612D01*
X100079Y-54754D01*
X99947Y-54885D01*
X99977Y-54915D01*
X99500Y-54915D01*
X99500Y-54645D01*
X99486Y-54508D01*
X99461Y-54448D01*
X99422Y-54410D01*
X99352Y-54481D01*
X99352Y-54339D01*
X99314Y-54301D01*
X99182Y-54261D01*
X99046Y-54276D01*
X98985Y-54301D01*
X98947Y-54339D01*
X99150Y-54541D01*
X99352Y-54339D01*
X99352Y-54481D01*
X99220Y-54612D01*
X99422Y-54814D01*
X99461Y-54777D01*
X99500Y-54645D01*
X99500Y-54915D01*
X99322Y-54915D01*
X99352Y-54885D01*
X99150Y-54683D01*
X99079Y-54754D01*
X99079Y-54612D01*
X98877Y-54410D01*
X98838Y-54448D01*
X98799Y-54579D01*
X98813Y-54716D01*
X98838Y-54777D01*
X98877Y-54814D01*
X99079Y-54612D01*
X99079Y-54754D01*
X98947Y-54885D01*
X98977Y-54915D01*
X98061Y-54915D01*
X97809Y-54663D01*
X97809Y-51536D01*
X98297Y-51047D01*
X98297Y-51047D01*
X98297Y-51047D01*
X98343Y-50980D01*
X98359Y-50900D01*
X98359Y-50850D01*
X98359Y-48795D01*
X98469Y-48906D01*
X98635Y-48974D01*
X98814Y-48975D01*
X98979Y-48906D01*
X99106Y-48780D01*
X99174Y-48614D01*
X99175Y-48435D01*
X99106Y-48270D01*
X98980Y-48143D01*
X98934Y-48124D01*
X98934Y-48075D01*
X98934Y-47274D01*
X99014Y-47275D01*
X99133Y-47225D01*
X99225Y-47134D01*
X99274Y-47014D01*
X99275Y-46885D01*
X99225Y-46766D01*
X99134Y-46674D01*
X99014Y-46625D01*
X98885Y-46624D01*
X98825Y-46649D01*
X98825Y-45085D01*
X98756Y-44920D01*
X98630Y-44793D01*
X98464Y-44725D01*
X98285Y-44724D01*
X98120Y-44793D01*
X97993Y-44919D01*
X97925Y-45085D01*
X97924Y-45264D01*
X97993Y-45429D01*
X98119Y-45556D01*
X98285Y-45624D01*
X98464Y-45625D01*
X98629Y-45556D01*
X98756Y-45430D01*
X98824Y-45264D01*
X98825Y-45085D01*
X98825Y-46649D01*
X98766Y-46674D01*
X98725Y-46715D01*
X98725Y-46484D01*
X98725Y-46237D01*
X98725Y-46112D01*
X98725Y-45865D01*
X98717Y-45846D01*
X98703Y-45832D01*
X98684Y-45825D01*
X98665Y-45825D01*
X98437Y-45825D01*
X98425Y-45837D01*
X98425Y-46125D01*
X98712Y-46125D01*
X98725Y-46112D01*
X98725Y-46237D01*
X98712Y-46225D01*
X98425Y-46225D01*
X98425Y-46512D01*
X98437Y-46525D01*
X98665Y-46525D01*
X98684Y-46525D01*
X98703Y-46517D01*
X98717Y-46503D01*
X98725Y-46484D01*
X98725Y-46715D01*
X98674Y-46765D01*
X98625Y-46885D01*
X98624Y-46979D01*
X98577Y-47027D01*
X98531Y-47094D01*
X98515Y-47175D01*
X98515Y-48075D01*
X98515Y-48124D01*
X98470Y-48143D01*
X98359Y-48254D01*
X98359Y-47925D01*
X98359Y-47700D01*
X98343Y-47619D01*
X98325Y-47592D01*
X98325Y-46512D01*
X98325Y-46225D01*
X98325Y-46125D01*
X98325Y-45837D01*
X98312Y-45825D01*
X98084Y-45825D01*
X98065Y-45825D01*
X98046Y-45832D01*
X98032Y-45846D01*
X98025Y-45865D01*
X98025Y-46112D01*
X98037Y-46125D01*
X98325Y-46125D01*
X98325Y-46225D01*
X98037Y-46225D01*
X98025Y-46237D01*
X98025Y-46484D01*
X98032Y-46503D01*
X98046Y-46517D01*
X98065Y-46525D01*
X98084Y-46525D01*
X98312Y-46525D01*
X98325Y-46512D01*
X98325Y-47592D01*
X98297Y-47552D01*
X97801Y-47056D01*
X97849Y-46939D01*
X97850Y-46810D01*
X97800Y-46691D01*
X97709Y-46599D01*
X97589Y-46550D01*
X97460Y-46549D01*
X97341Y-46599D01*
X97249Y-46690D01*
X97200Y-46810D01*
X97199Y-46939D01*
X97249Y-47058D01*
X97328Y-47138D01*
X97331Y-47155D01*
X97377Y-47222D01*
X97940Y-47786D01*
X97940Y-47925D01*
X97940Y-48045D01*
X97022Y-47127D01*
X96955Y-47081D01*
X96875Y-47065D01*
X96150Y-47065D01*
X96084Y-46999D01*
X95964Y-46950D01*
X95835Y-46949D01*
X95716Y-46999D01*
X95624Y-47090D01*
X95575Y-47210D01*
X95575Y-47215D01*
X95534Y-47174D01*
X95414Y-47125D01*
X95285Y-47124D01*
X95166Y-47174D01*
X95074Y-47265D01*
X95025Y-47385D01*
X95024Y-47479D01*
X94913Y-47590D01*
X94275Y-47590D01*
X94275Y-47085D01*
X94225Y-46966D01*
X94134Y-46874D01*
X94014Y-46825D01*
X93951Y-46825D01*
X93945Y-46820D01*
X93850Y-46801D01*
X92450Y-46801D01*
X92450Y-46801D01*
X92354Y-46820D01*
X92274Y-46874D01*
X92047Y-47101D01*
X90408Y-47101D01*
X90425Y-47084D01*
X90474Y-46964D01*
X90475Y-46835D01*
X90425Y-46716D01*
X90334Y-46624D01*
X90214Y-46575D01*
X90085Y-46574D01*
X90024Y-46600D01*
X90025Y-46485D01*
X89975Y-46366D01*
X89884Y-46274D01*
X89764Y-46225D01*
X89635Y-46224D01*
X89525Y-46270D01*
X89525Y-46235D01*
X89475Y-46116D01*
X89384Y-46024D01*
X89264Y-45975D01*
X89135Y-45974D01*
X89025Y-46020D01*
X89025Y-45985D01*
X88975Y-45866D01*
X88884Y-45774D01*
X88764Y-45725D01*
X88635Y-45724D01*
X88519Y-45772D01*
X88475Y-45666D01*
X88384Y-45574D01*
X88264Y-45525D01*
X88135Y-45524D01*
X88025Y-45570D01*
X88025Y-45535D01*
X87975Y-45416D01*
X87884Y-45324D01*
X87764Y-45275D01*
X87635Y-45274D01*
X87525Y-45320D01*
X87525Y-45285D01*
X87475Y-45166D01*
X87384Y-45074D01*
X87264Y-45025D01*
X87135Y-45024D01*
X87016Y-45074D01*
X86924Y-45165D01*
X86893Y-45240D01*
X78050Y-45240D01*
X77969Y-45256D01*
X77902Y-45302D01*
X77902Y-45302D01*
X76952Y-46252D01*
X76906Y-46319D01*
X76890Y-46400D01*
X76890Y-47799D01*
X76845Y-47818D01*
X76718Y-47944D01*
X76650Y-48110D01*
X76649Y-48289D01*
X76718Y-48454D01*
X76844Y-48581D01*
X77010Y-48649D01*
X77189Y-48650D01*
X77354Y-48581D01*
X77481Y-48455D01*
X77549Y-48289D01*
X77550Y-48110D01*
X77481Y-47945D01*
X77355Y-47818D01*
X77309Y-47799D01*
X77309Y-46486D01*
X78136Y-45659D01*
X78995Y-45659D01*
X77952Y-46702D01*
X77906Y-46769D01*
X77890Y-46850D01*
X77890Y-47799D01*
X77845Y-47818D01*
X77718Y-47944D01*
X77650Y-48110D01*
X77649Y-48289D01*
X77718Y-48454D01*
X77844Y-48581D01*
X78010Y-48649D01*
X78189Y-48650D01*
X78354Y-48581D01*
X78481Y-48455D01*
X78549Y-48289D01*
X78550Y-48110D01*
X78481Y-47945D01*
X78355Y-47818D01*
X78309Y-47799D01*
X78309Y-46936D01*
X79336Y-45909D01*
X79995Y-45909D01*
X78952Y-46952D01*
X78906Y-47019D01*
X78890Y-47100D01*
X78890Y-47799D01*
X78845Y-47818D01*
X78718Y-47944D01*
X78650Y-48110D01*
X78649Y-48289D01*
X78718Y-48454D01*
X78844Y-48581D01*
X79010Y-48649D01*
X79189Y-48650D01*
X79354Y-48581D01*
X79481Y-48455D01*
X79549Y-48289D01*
X79550Y-48110D01*
X79481Y-47945D01*
X79355Y-47818D01*
X79309Y-47799D01*
X79309Y-47186D01*
X80336Y-46159D01*
X81095Y-46159D01*
X79952Y-47302D01*
X79906Y-47369D01*
X79890Y-47450D01*
X79890Y-47799D01*
X79845Y-47818D01*
X79718Y-47944D01*
X79650Y-48110D01*
X79649Y-48289D01*
X79718Y-48454D01*
X79844Y-48581D01*
X80010Y-48649D01*
X80189Y-48650D01*
X80354Y-48581D01*
X80481Y-48455D01*
X80549Y-48289D01*
X80550Y-48110D01*
X80481Y-47945D01*
X80355Y-47818D01*
X80309Y-47799D01*
X80309Y-47536D01*
X81436Y-46409D01*
X81945Y-46409D01*
X80952Y-47402D01*
X80906Y-47469D01*
X80890Y-47550D01*
X80890Y-47799D01*
X80845Y-47818D01*
X80718Y-47944D01*
X80650Y-48110D01*
X80649Y-48289D01*
X80718Y-48454D01*
X80844Y-48581D01*
X81010Y-48649D01*
X81189Y-48650D01*
X81354Y-48581D01*
X81481Y-48455D01*
X81549Y-48289D01*
X81550Y-48110D01*
X81481Y-47945D01*
X81355Y-47818D01*
X81309Y-47799D01*
X81309Y-47636D01*
X82286Y-46659D01*
X82645Y-46659D01*
X81952Y-47352D01*
X81906Y-47419D01*
X81890Y-47500D01*
X81890Y-47799D01*
X81845Y-47818D01*
X81718Y-47944D01*
X81650Y-48110D01*
X81649Y-48289D01*
X81718Y-48454D01*
X81844Y-48581D01*
X82010Y-48649D01*
X82189Y-48650D01*
X82354Y-48581D01*
X82481Y-48455D01*
X82549Y-48289D01*
X82550Y-48110D01*
X82481Y-47945D01*
X82355Y-47818D01*
X82309Y-47799D01*
X82309Y-47586D01*
X82986Y-46909D01*
X83645Y-46909D01*
X82952Y-47602D01*
X82906Y-47669D01*
X82890Y-47750D01*
X82890Y-47799D01*
X82845Y-47818D01*
X82718Y-47944D01*
X82650Y-48110D01*
X82649Y-48289D01*
X82718Y-48454D01*
X82844Y-48581D01*
X83010Y-48649D01*
X83189Y-48650D01*
X83354Y-48581D01*
X83481Y-48455D01*
X83549Y-48289D01*
X83550Y-48110D01*
X83481Y-47945D01*
X83355Y-47818D01*
X83335Y-47810D01*
X83986Y-47159D01*
X86847Y-47159D01*
X86824Y-47174D01*
X86231Y-47767D01*
X86189Y-47750D01*
X86010Y-47749D01*
X85845Y-47818D01*
X85718Y-47944D01*
X85650Y-48110D01*
X85649Y-48289D01*
X85718Y-48454D01*
X85844Y-48581D01*
X86010Y-48649D01*
X86189Y-48650D01*
X86354Y-48581D01*
X86481Y-48455D01*
X86549Y-48289D01*
X86550Y-48151D01*
X87102Y-47598D01*
X92150Y-47598D01*
X92245Y-47579D01*
X92325Y-47525D01*
X92552Y-47298D01*
X93659Y-47298D01*
X93674Y-47333D01*
X93765Y-47425D01*
X93885Y-47474D01*
X94014Y-47475D01*
X94133Y-47425D01*
X94225Y-47334D01*
X94274Y-47214D01*
X94275Y-47085D01*
X94275Y-47590D01*
X93600Y-47590D01*
X93600Y-47590D01*
X93519Y-47606D01*
X93452Y-47652D01*
X92988Y-48115D01*
X91575Y-48115D01*
X91494Y-48131D01*
X91427Y-48177D01*
X89731Y-49872D01*
X88750Y-49872D01*
X86455Y-49872D01*
X86455Y-49233D01*
X86441Y-49095D01*
X86415Y-49032D01*
X86376Y-48994D01*
X86305Y-49065D01*
X86305Y-48923D01*
X86267Y-48884D01*
X86133Y-48844D01*
X85995Y-48858D01*
X85932Y-48884D01*
X85894Y-48923D01*
X86100Y-49129D01*
X86305Y-48923D01*
X86305Y-49065D01*
X86170Y-49200D01*
X86376Y-49405D01*
X86415Y-49367D01*
X86455Y-49233D01*
X86455Y-49872D01*
X86305Y-49872D01*
X86305Y-49476D01*
X86100Y-49270D01*
X85894Y-49476D01*
X85932Y-49515D01*
X86066Y-49555D01*
X86204Y-49541D01*
X86267Y-49515D01*
X86305Y-49476D01*
X86305Y-49872D01*
X86218Y-49872D01*
X85809Y-49463D01*
X85809Y-49391D01*
X85823Y-49405D01*
X86029Y-49200D01*
X85823Y-48994D01*
X85809Y-49008D01*
X85809Y-48700D01*
X85793Y-48619D01*
X85747Y-48552D01*
X85531Y-48335D01*
X85549Y-48289D01*
X85550Y-48110D01*
X85481Y-47945D01*
X85355Y-47818D01*
X85189Y-47750D01*
X85010Y-47749D01*
X84845Y-47818D01*
X84718Y-47944D01*
X84650Y-48110D01*
X84649Y-48289D01*
X84718Y-48454D01*
X84844Y-48581D01*
X85010Y-48649D01*
X85189Y-48650D01*
X85235Y-48630D01*
X85390Y-48786D01*
X85390Y-48854D01*
X85355Y-48818D01*
X85189Y-48750D01*
X85010Y-48749D01*
X84845Y-48818D01*
X84718Y-48944D01*
X84650Y-49110D01*
X84649Y-49289D01*
X84718Y-49454D01*
X84844Y-49581D01*
X85000Y-49645D01*
X85802Y-50447D01*
X85869Y-50493D01*
X85950Y-50509D01*
X89400Y-50509D01*
X90000Y-50509D01*
X90080Y-50493D01*
X90147Y-50447D01*
X91811Y-48784D01*
X93175Y-48784D01*
X93255Y-48768D01*
X93322Y-48722D01*
X93786Y-48259D01*
X95675Y-48259D01*
X95755Y-48243D01*
X95822Y-48197D01*
X95845Y-48174D01*
X95939Y-48175D01*
X96058Y-48125D01*
X96150Y-48034D01*
X96199Y-47914D01*
X96200Y-47785D01*
X96150Y-47666D01*
X96059Y-47574D01*
X96042Y-47567D01*
X96083Y-47550D01*
X96150Y-47484D01*
X96788Y-47484D01*
X97579Y-48275D01*
X97485Y-48274D01*
X97366Y-48324D01*
X97274Y-48415D01*
X97225Y-48535D01*
X97224Y-48664D01*
X97274Y-48783D01*
X97365Y-48875D01*
X97440Y-48906D01*
X97440Y-49006D01*
X97364Y-48975D01*
X97235Y-48974D01*
X97196Y-48990D01*
X92800Y-48990D01*
X92768Y-48997D01*
X92714Y-48975D01*
X92585Y-48974D01*
X92466Y-49024D01*
X92374Y-49115D01*
X92325Y-49235D01*
X92324Y-49364D01*
X92374Y-49483D01*
X92465Y-49575D01*
X92585Y-49624D01*
X92714Y-49625D01*
X92833Y-49575D01*
X92885Y-49524D01*
X92884Y-49604D01*
X92934Y-49723D01*
X93025Y-49815D01*
X93145Y-49864D01*
X93274Y-49865D01*
X93393Y-49815D01*
X93485Y-49724D01*
X93497Y-49694D01*
X93507Y-49687D01*
X93536Y-49659D01*
X96888Y-49659D01*
X96975Y-49745D01*
X96974Y-49839D01*
X97024Y-49958D01*
X97115Y-50050D01*
X97235Y-50099D01*
X97364Y-50100D01*
X97440Y-50068D01*
X97440Y-50281D01*
X97384Y-50224D01*
X97264Y-50175D01*
X97135Y-50174D01*
X97036Y-50215D01*
X96111Y-50215D01*
X95897Y-50002D01*
X95830Y-49956D01*
X95750Y-49940D01*
X93000Y-49940D01*
X92850Y-49940D01*
X92736Y-49940D01*
X92174Y-49379D01*
X92175Y-49285D01*
X92125Y-49166D01*
X92034Y-49074D01*
X91914Y-49025D01*
X91785Y-49024D01*
X91666Y-49074D01*
X91574Y-49165D01*
X91525Y-49285D01*
X91524Y-49414D01*
X91574Y-49533D01*
X91665Y-49625D01*
X91785Y-49674D01*
X91879Y-49675D01*
X92502Y-50297D01*
X92569Y-50343D01*
X92650Y-50359D01*
X92850Y-50359D01*
X93000Y-50359D01*
X94606Y-50359D01*
X94575Y-50435D01*
X94574Y-50529D01*
X94463Y-50640D01*
X94050Y-50640D01*
X84550Y-50640D01*
X84550Y-49110D01*
X84550Y-48110D01*
X84481Y-47945D01*
X84355Y-47818D01*
X84189Y-47750D01*
X84010Y-47749D01*
X83845Y-47818D01*
X83718Y-47944D01*
X83650Y-48110D01*
X83649Y-48289D01*
X83718Y-48454D01*
X83844Y-48581D01*
X84010Y-48649D01*
X84189Y-48650D01*
X84354Y-48581D01*
X84481Y-48455D01*
X84549Y-48289D01*
X84550Y-48110D01*
X84550Y-49110D01*
X84481Y-48945D01*
X84355Y-48818D01*
X84189Y-48750D01*
X84010Y-48749D01*
X83845Y-48818D01*
X83718Y-48944D01*
X83650Y-49110D01*
X83649Y-49289D01*
X83718Y-49454D01*
X83844Y-49581D01*
X84010Y-49649D01*
X84189Y-49650D01*
X84354Y-49581D01*
X84481Y-49455D01*
X84549Y-49289D01*
X84550Y-49110D01*
X84550Y-50640D01*
X83486Y-50640D01*
X83309Y-50463D01*
X83309Y-49600D01*
X83354Y-49581D01*
X83481Y-49455D01*
X83549Y-49289D01*
X83550Y-49110D01*
X83481Y-48945D01*
X83355Y-48818D01*
X83189Y-48750D01*
X83010Y-48749D01*
X82845Y-48818D01*
X82718Y-48944D01*
X82650Y-49110D01*
X82649Y-49289D01*
X82718Y-49454D01*
X82844Y-49581D01*
X82890Y-49600D01*
X82890Y-50550D01*
X82906Y-50630D01*
X82952Y-50697D01*
X83145Y-50890D01*
X82486Y-50890D01*
X82309Y-50713D01*
X82309Y-49600D01*
X82354Y-49581D01*
X82481Y-49455D01*
X82549Y-49289D01*
X82550Y-49110D01*
X82481Y-48945D01*
X82355Y-48818D01*
X82189Y-48750D01*
X82010Y-48749D01*
X81845Y-48818D01*
X81718Y-48944D01*
X81650Y-49110D01*
X81649Y-49289D01*
X81718Y-49454D01*
X81844Y-49581D01*
X81890Y-49600D01*
X81890Y-50800D01*
X81906Y-50880D01*
X81952Y-50947D01*
X82145Y-51140D01*
X81586Y-51140D01*
X81309Y-50863D01*
X81309Y-49600D01*
X81354Y-49581D01*
X81481Y-49455D01*
X81549Y-49289D01*
X81550Y-49110D01*
X81481Y-48945D01*
X81355Y-48818D01*
X81189Y-48750D01*
X81010Y-48749D01*
X80845Y-48818D01*
X80718Y-48944D01*
X80650Y-49110D01*
X80649Y-49289D01*
X80718Y-49454D01*
X80844Y-49581D01*
X80890Y-49600D01*
X80890Y-50950D01*
X80906Y-51030D01*
X80952Y-51097D01*
X81245Y-51390D01*
X80436Y-51390D01*
X80309Y-51263D01*
X80309Y-49600D01*
X80354Y-49581D01*
X80481Y-49455D01*
X80549Y-49289D01*
X80550Y-49110D01*
X80481Y-48945D01*
X80355Y-48818D01*
X80189Y-48750D01*
X80010Y-48749D01*
X79845Y-48818D01*
X79718Y-48944D01*
X79650Y-49110D01*
X79649Y-49289D01*
X79718Y-49454D01*
X79844Y-49581D01*
X79890Y-49600D01*
X79890Y-51349D01*
X79906Y-51430D01*
X79952Y-51497D01*
X80095Y-51640D01*
X79486Y-51640D01*
X79309Y-51463D01*
X79309Y-49600D01*
X79354Y-49581D01*
X79481Y-49455D01*
X79549Y-49289D01*
X79550Y-49110D01*
X79481Y-48945D01*
X79355Y-48818D01*
X79189Y-48750D01*
X79010Y-48749D01*
X78845Y-48818D01*
X78718Y-48944D01*
X78650Y-49110D01*
X78649Y-49289D01*
X78718Y-49454D01*
X78844Y-49581D01*
X78890Y-49600D01*
X78890Y-51550D01*
X78906Y-51630D01*
X78952Y-51697D01*
X79195Y-51940D01*
X78686Y-51940D01*
X78309Y-51563D01*
X78309Y-49600D01*
X78354Y-49581D01*
X78481Y-49455D01*
X78549Y-49289D01*
X78550Y-49110D01*
X78481Y-48945D01*
X78355Y-48818D01*
X78189Y-48750D01*
X78010Y-48749D01*
X77845Y-48818D01*
X77718Y-48944D01*
X77650Y-49110D01*
X77649Y-49289D01*
X77718Y-49454D01*
X77844Y-49581D01*
X77890Y-49600D01*
X77890Y-51650D01*
X77906Y-51730D01*
X77952Y-51797D01*
X78345Y-52190D01*
X78136Y-52190D01*
X77309Y-51363D01*
X77309Y-49650D01*
X77429Y-49650D01*
X77484Y-49627D01*
X77527Y-49584D01*
X77550Y-49529D01*
X77550Y-49470D01*
X77550Y-48870D01*
X77527Y-48815D01*
X77484Y-48772D01*
X77429Y-48750D01*
X77370Y-48750D01*
X76770Y-48750D01*
X76715Y-48772D01*
X76672Y-48815D01*
X76650Y-48870D01*
X76650Y-48929D01*
X76650Y-49529D01*
X76672Y-49584D01*
X76715Y-49627D01*
X76770Y-49650D01*
X76829Y-49650D01*
X76890Y-49650D01*
X76890Y-51450D01*
X76906Y-51530D01*
X76952Y-51597D01*
X77902Y-52547D01*
X77902Y-52547D01*
X77969Y-52593D01*
X78050Y-52609D01*
X85694Y-52609D01*
X84907Y-53350D01*
X73150Y-53350D01*
X73150Y-50850D01*
X74420Y-50850D01*
X74850Y-50420D01*
X74850Y-42830D01*
X74171Y-42100D01*
X71850Y-42100D01*
X71850Y-40350D01*
X110550Y-40350D01*
X110550Y-61550D01*
X72666Y-31850D02*
X73350Y-31850D01*
X72650Y-31930D02*
X73350Y-31930D01*
X72635Y-32010D02*
X73350Y-32010D01*
X72619Y-32090D02*
X73350Y-32090D01*
X72604Y-32170D02*
X73350Y-32170D01*
X72589Y-32250D02*
X73350Y-32250D01*
X72573Y-32330D02*
X73350Y-32330D01*
X72558Y-32410D02*
X73344Y-32410D01*
X72542Y-32490D02*
X73331Y-32490D01*
X72527Y-32570D02*
X73319Y-32570D01*
X72511Y-32650D02*
X73307Y-32650D01*
X72496Y-32730D02*
X73295Y-32730D01*
X72481Y-32810D02*
X73283Y-32810D01*
X72465Y-32890D02*
X73271Y-32890D01*
X72450Y-32970D02*
X73258Y-32970D01*
X72434Y-33050D02*
X73246Y-33050D01*
X72419Y-33130D02*
X73234Y-33130D01*
X72403Y-33210D02*
X73222Y-33210D01*
X72388Y-33290D02*
X73210Y-33290D01*
X72373Y-33370D02*
X73198Y-33370D01*
X72357Y-33450D02*
X73186Y-33450D01*
X72342Y-33530D02*
X73173Y-33530D01*
X72326Y-33610D02*
X73161Y-33610D01*
X72311Y-33690D02*
X73149Y-33690D01*
X72295Y-33770D02*
X73137Y-33770D01*
X72280Y-33850D02*
X73125Y-33850D01*
X72265Y-33930D02*
X73113Y-33930D01*
X72249Y-34010D02*
X73100Y-34010D01*
X72234Y-34090D02*
X73088Y-34090D01*
X72218Y-34170D02*
X73076Y-34170D01*
X72203Y-34250D02*
X73064Y-34250D01*
X72187Y-34330D02*
X73052Y-34330D01*
X72172Y-34410D02*
X73040Y-34410D01*
X72157Y-34490D02*
X73027Y-34490D01*
X72141Y-34570D02*
X73015Y-34570D01*
X72126Y-34650D02*
X73003Y-34650D01*
X72110Y-34730D02*
X72991Y-34730D01*
X72095Y-34810D02*
X72979Y-34810D01*
X72079Y-34890D02*
X72967Y-34890D01*
X72064Y-34970D02*
X72954Y-34970D01*
X72049Y-35050D02*
X72942Y-35050D01*
X72033Y-35130D02*
X72930Y-35130D01*
X72018Y-35210D02*
X72918Y-35210D01*
X72150Y-35290D02*
X72906Y-35290D01*
X72540Y-35370D02*
X72894Y-35370D01*
X73350Y-32371D02*
X72883Y-35440D01*
X72008Y-35260D01*
X72666Y-31850D01*
X73350Y-31850D01*
X73350Y-32371D01*
X74650Y-31750D02*
X75355Y-31750D01*
X74650Y-31830D02*
X75365Y-31830D01*
X74650Y-31910D02*
X75374Y-31910D01*
X74650Y-31990D02*
X75383Y-31990D01*
X74650Y-32070D02*
X75393Y-32070D01*
X74650Y-32150D02*
X75402Y-32150D01*
X74650Y-32230D02*
X75412Y-32230D01*
X74650Y-32310D02*
X75421Y-32310D01*
X74653Y-32390D02*
X75431Y-32390D01*
X74660Y-32470D02*
X75440Y-32470D01*
X74667Y-32550D02*
X75450Y-32550D01*
X74673Y-32630D02*
X75459Y-32630D01*
X74680Y-32710D02*
X75469Y-32710D01*
X74687Y-32790D02*
X75478Y-32790D01*
X74694Y-32870D02*
X75488Y-32870D01*
X74700Y-32950D02*
X75497Y-32950D01*
X74707Y-33030D02*
X75506Y-33030D01*
X74714Y-33110D02*
X75516Y-33110D01*
X74721Y-33190D02*
X75525Y-33190D01*
X74727Y-33270D02*
X75535Y-33270D01*
X74734Y-33350D02*
X75544Y-33350D01*
X74741Y-33430D02*
X75554Y-33430D01*
X74748Y-33510D02*
X75563Y-33510D01*
X74754Y-33590D02*
X75573Y-33590D01*
X74761Y-33670D02*
X75582Y-33670D01*
X74768Y-33750D02*
X75592Y-33750D01*
X74774Y-33830D02*
X75601Y-33830D01*
X74781Y-33910D02*
X75611Y-33910D01*
X74788Y-33990D02*
X75620Y-33990D01*
X74795Y-34070D02*
X75629Y-34070D01*
X74801Y-34150D02*
X75639Y-34150D01*
X74808Y-34230D02*
X75648Y-34230D01*
X74815Y-34310D02*
X75658Y-34310D01*
X74822Y-34390D02*
X75667Y-34390D01*
X74828Y-34470D02*
X75677Y-34470D01*
X74835Y-34550D02*
X75686Y-34550D01*
X74842Y-34630D02*
X75696Y-34630D01*
X74849Y-34710D02*
X75705Y-34710D01*
X74855Y-34790D02*
X75715Y-34790D01*
X74862Y-34870D02*
X75724Y-34870D01*
X74869Y-34950D02*
X75734Y-34950D01*
X74876Y-35030D02*
X75743Y-35030D01*
X74882Y-35110D02*
X75752Y-35110D01*
X74889Y-35190D02*
X75762Y-35190D01*
X74896Y-35270D02*
X75771Y-35270D01*
X74903Y-35350D02*
X75781Y-35350D01*
X74909Y-35430D02*
X75790Y-35430D01*
X74916Y-35510D02*
X75800Y-35510D01*
X74923Y-35590D02*
X75809Y-35590D01*
X74930Y-35670D02*
X75819Y-35670D01*
X74936Y-35750D02*
X75828Y-35750D01*
X74943Y-35830D02*
X75838Y-35830D01*
X74950Y-35910D02*
X75847Y-35910D01*
X74957Y-35990D02*
X75857Y-35990D01*
X74963Y-36070D02*
X75866Y-36070D01*
X74970Y-36150D02*
X75875Y-36150D01*
X74977Y-36230D02*
X75885Y-36230D01*
X74984Y-36310D02*
X75879Y-36310D01*
X74990Y-36390D02*
X75346Y-36390D01*
X75894Y-36307D02*
X74995Y-36442D01*
X74650Y-32347D01*
X74650Y-31750D01*
X75355Y-31750D01*
X75894Y-36307D01*
X77468Y-31675D02*
X78150Y-31675D01*
X77456Y-31755D02*
X78150Y-31755D01*
X77443Y-31835D02*
X78150Y-31835D01*
X77431Y-31915D02*
X78150Y-31915D01*
X77419Y-31995D02*
X78150Y-31995D01*
X77407Y-32075D02*
X78150Y-32075D01*
X77395Y-32155D02*
X78150Y-32155D01*
X77383Y-32235D02*
X78150Y-32235D01*
X77370Y-32315D02*
X78150Y-32315D01*
X77358Y-32395D02*
X78144Y-32395D01*
X77345Y-32475D02*
X78135Y-32475D01*
X77332Y-32555D02*
X78125Y-32555D01*
X77319Y-32635D02*
X78116Y-32635D01*
X77307Y-32715D02*
X78106Y-32715D01*
X77294Y-32795D02*
X78097Y-32795D01*
X77281Y-32875D02*
X78088Y-32875D01*
X77269Y-32955D02*
X78078Y-32955D01*
X77256Y-33035D02*
X78069Y-33035D01*
X77243Y-33115D02*
X78060Y-33115D01*
X77230Y-33195D02*
X78050Y-33195D01*
X77218Y-33275D02*
X78041Y-33275D01*
X77205Y-33355D02*
X78031Y-33355D01*
X77192Y-33435D02*
X78022Y-33435D01*
X77180Y-33515D02*
X78013Y-33515D01*
X77167Y-33595D02*
X78003Y-33595D01*
X77154Y-33675D02*
X77994Y-33675D01*
X77142Y-33755D02*
X77985Y-33755D01*
X77129Y-33835D02*
X77975Y-33835D01*
X77116Y-33915D02*
X77966Y-33915D01*
X77103Y-33995D02*
X77956Y-33995D01*
X77091Y-34075D02*
X77947Y-34075D01*
X77078Y-34155D02*
X77938Y-34155D01*
X77065Y-34235D02*
X77928Y-34235D01*
X77053Y-34315D02*
X77919Y-34315D01*
X77040Y-34395D02*
X77910Y-34395D01*
X77027Y-34475D02*
X77900Y-34475D01*
X77014Y-34555D02*
X77891Y-34555D01*
X77002Y-34635D02*
X77881Y-34635D01*
X76989Y-34715D02*
X77872Y-34715D01*
X76976Y-34795D02*
X77863Y-34795D01*
X76964Y-34875D02*
X77853Y-34875D01*
X76951Y-34955D02*
X77844Y-34955D01*
X76938Y-35035D02*
X77835Y-35035D01*
X76926Y-35115D02*
X77825Y-35115D01*
X76913Y-35195D02*
X77816Y-35195D01*
X76900Y-35275D02*
X77806Y-35275D01*
X76900Y-35355D02*
X77797Y-35355D01*
X77193Y-35435D02*
X77788Y-35435D01*
X78150Y-32347D02*
X77781Y-35495D01*
X76900Y-35404D01*
X76900Y-35278D01*
X77389Y-32197D01*
X77468Y-31675D01*
X78150Y-31675D01*
X78150Y-32347D01*
X82283Y-31540D02*
X82960Y-31540D01*
X82273Y-31620D02*
X82960Y-31620D01*
X82263Y-31700D02*
X82960Y-31700D01*
X82253Y-31780D02*
X82960Y-31780D01*
X82242Y-31860D02*
X82960Y-31860D01*
X82232Y-31940D02*
X82960Y-31940D01*
X82222Y-32020D02*
X82960Y-32020D01*
X82211Y-32100D02*
X82960Y-32100D01*
X82201Y-32180D02*
X82960Y-32180D01*
X82191Y-32260D02*
X82960Y-32260D01*
X82181Y-32340D02*
X82958Y-32340D01*
X82170Y-32420D02*
X82950Y-32420D01*
X82160Y-32500D02*
X82943Y-32500D01*
X82150Y-32580D02*
X82936Y-32580D01*
X82139Y-32660D02*
X82929Y-32660D01*
X82129Y-32740D02*
X82922Y-32740D01*
X82119Y-32820D02*
X82915Y-32820D01*
X82109Y-32900D02*
X82908Y-32900D01*
X82098Y-32980D02*
X82901Y-32980D01*
X82088Y-33060D02*
X82894Y-33060D01*
X82078Y-33140D02*
X82887Y-33140D01*
X82067Y-33220D02*
X82880Y-33220D01*
X82057Y-33300D02*
X82872Y-33300D01*
X82047Y-33380D02*
X82865Y-33380D01*
X82037Y-33460D02*
X82858Y-33460D01*
X82026Y-33540D02*
X82851Y-33540D01*
X82016Y-33620D02*
X82844Y-33620D01*
X82006Y-33700D02*
X82837Y-33700D01*
X81995Y-33780D02*
X82830Y-33780D01*
X81985Y-33860D02*
X82823Y-33860D01*
X81975Y-33940D02*
X82816Y-33940D01*
X81965Y-34020D02*
X82809Y-34020D01*
X81954Y-34100D02*
X82802Y-34100D01*
X81944Y-34180D02*
X82794Y-34180D01*
X81934Y-34260D02*
X82787Y-34260D01*
X81923Y-34340D02*
X82780Y-34340D01*
X81913Y-34420D02*
X82773Y-34420D01*
X81903Y-34500D02*
X82766Y-34500D01*
X81893Y-34580D02*
X82759Y-34580D01*
X81882Y-34660D02*
X82752Y-34660D01*
X81872Y-34740D02*
X82745Y-34740D01*
X81862Y-34820D02*
X82738Y-34820D01*
X81851Y-34900D02*
X82731Y-34900D01*
X81841Y-34980D02*
X82724Y-34980D01*
X81831Y-35060D02*
X82717Y-35060D01*
X81820Y-35140D02*
X82709Y-35140D01*
X81810Y-35220D02*
X82702Y-35220D01*
X81802Y-35300D02*
X82695Y-35300D01*
X81824Y-35380D02*
X82688Y-35380D01*
X81865Y-35460D02*
X82679Y-35460D01*
X81922Y-35540D02*
X82602Y-35540D01*
X81979Y-35620D02*
X82525Y-35620D01*
X82035Y-35700D02*
X82448Y-35700D01*
X82960Y-32317D02*
X82681Y-35457D01*
X82429Y-35719D01*
X82036Y-35701D01*
X81835Y-35418D01*
X81800Y-35296D01*
X82283Y-31540D01*
X82960Y-31540D01*
X82960Y-32317D01*
X79450Y-31580D02*
X80136Y-31580D01*
X79450Y-31660D02*
X80147Y-31660D01*
X79450Y-31740D02*
X80158Y-31740D01*
X79450Y-31820D02*
X80169Y-31820D01*
X79450Y-31900D02*
X80180Y-31900D01*
X79450Y-31980D02*
X80191Y-31980D01*
X79450Y-32060D02*
X80202Y-32060D01*
X79450Y-32140D02*
X80213Y-32140D01*
X79450Y-32220D02*
X80224Y-32220D01*
X79451Y-32300D02*
X80235Y-32300D01*
X79459Y-32380D02*
X80246Y-32380D01*
X79468Y-32460D02*
X80257Y-32460D01*
X79477Y-32540D02*
X80268Y-32540D01*
X79485Y-32620D02*
X80280Y-32620D01*
X79494Y-32700D02*
X80291Y-32700D01*
X79502Y-32780D02*
X80302Y-32780D01*
X79511Y-32860D02*
X80313Y-32860D01*
X79520Y-32940D02*
X80324Y-32940D01*
X79528Y-33020D02*
X80335Y-33020D01*
X79537Y-33100D02*
X80346Y-33100D01*
X79545Y-33180D02*
X80357Y-33180D01*
X79554Y-33260D02*
X80368Y-33260D01*
X79562Y-33340D02*
X80379Y-33340D01*
X79571Y-33420D02*
X80390Y-33420D01*
X79580Y-33500D02*
X80401Y-33500D01*
X79588Y-33580D02*
X80412Y-33580D01*
X79597Y-33660D02*
X80423Y-33660D01*
X79605Y-33740D02*
X80434Y-33740D01*
X79614Y-33820D02*
X80445Y-33820D01*
X79623Y-33900D02*
X80456Y-33900D01*
X79631Y-33980D02*
X80467Y-33980D01*
X79640Y-34060D02*
X80478Y-34060D01*
X79648Y-34140D02*
X80489Y-34140D01*
X79657Y-34220D02*
X80500Y-34220D01*
X79665Y-34300D02*
X80511Y-34300D01*
X79674Y-34380D02*
X80523Y-34380D01*
X79683Y-34460D02*
X80534Y-34460D01*
X79691Y-34540D02*
X80545Y-34540D01*
X79700Y-34620D02*
X80556Y-34620D01*
X79708Y-34700D02*
X80567Y-34700D01*
X79717Y-34780D02*
X80578Y-34780D01*
X79726Y-34860D02*
X80589Y-34860D01*
X79734Y-34940D02*
X80600Y-34940D01*
X79743Y-35020D02*
X80611Y-35020D01*
X79751Y-35100D02*
X80622Y-35100D01*
X79760Y-35180D02*
X80633Y-35180D01*
X79769Y-35260D02*
X80644Y-35260D01*
X79777Y-35340D02*
X80655Y-35340D01*
X79786Y-35420D02*
X80666Y-35420D01*
X79794Y-35500D02*
X80677Y-35500D01*
X79803Y-35580D02*
X80688Y-35580D01*
X79811Y-35660D02*
X80699Y-35660D01*
X79820Y-35740D02*
X80710Y-35740D01*
X79829Y-35820D02*
X80721Y-35820D01*
X79837Y-35900D02*
X80732Y-35900D01*
X79846Y-35980D02*
X80743Y-35980D01*
X79854Y-36060D02*
X80755Y-36060D01*
X79863Y-36140D02*
X80766Y-36140D01*
X79872Y-36220D02*
X80777Y-36220D01*
X79880Y-36300D02*
X80788Y-36300D01*
X79892Y-36380D02*
X80749Y-36380D01*
X79951Y-36460D02*
X80709Y-36460D01*
X80017Y-36540D02*
X80669Y-36540D01*
X80788Y-36301D02*
X80648Y-36581D01*
X80082Y-36618D01*
X79910Y-36411D01*
X79888Y-36373D01*
X79450Y-32287D01*
X79450Y-31580D01*
X80136Y-31580D01*
X80788Y-36301D01*
X84250Y-31560D02*
X84930Y-31560D01*
X84250Y-31640D02*
X84930Y-31640D01*
X84250Y-31720D02*
X84930Y-31720D01*
X84250Y-31800D02*
X84930Y-31800D01*
X84250Y-31880D02*
X84930Y-31880D01*
X84250Y-31960D02*
X84930Y-31960D01*
X84250Y-32040D02*
X84930Y-32040D01*
X84250Y-32120D02*
X84930Y-32120D01*
X84250Y-32200D02*
X84930Y-32200D01*
X84250Y-32280D02*
X84930Y-32280D01*
X84254Y-32360D02*
X84934Y-32360D01*
X84265Y-32440D02*
X84950Y-32440D01*
X84275Y-32520D02*
X84965Y-32520D01*
X84286Y-32600D02*
X84980Y-32600D01*
X84296Y-32680D02*
X84996Y-32680D01*
X84307Y-32760D02*
X85011Y-32760D01*
X84318Y-32840D02*
X85026Y-32840D01*
X84328Y-32920D02*
X85042Y-32920D01*
X84339Y-33000D02*
X85057Y-33000D01*
X84350Y-33080D02*
X85072Y-33080D01*
X84360Y-33160D02*
X85087Y-33160D01*
X84371Y-33240D02*
X85103Y-33240D01*
X84382Y-33320D02*
X85118Y-33320D01*
X84392Y-33400D02*
X85133Y-33400D01*
X84403Y-33480D02*
X85149Y-33480D01*
X84414Y-33560D02*
X85164Y-33560D01*
X84424Y-33640D02*
X85179Y-33640D01*
X84435Y-33720D02*
X85195Y-33720D01*
X84445Y-33800D02*
X85210Y-33800D01*
X84456Y-33880D02*
X85225Y-33880D01*
X84467Y-33960D02*
X85241Y-33960D01*
X84477Y-34040D02*
X85256Y-34040D01*
X84488Y-34120D02*
X85271Y-34120D01*
X84499Y-34200D02*
X85287Y-34200D01*
X84509Y-34280D02*
X85302Y-34280D01*
X84520Y-34360D02*
X85317Y-34360D01*
X84531Y-34440D02*
X85333Y-34440D01*
X84541Y-34520D02*
X85348Y-34520D01*
X84552Y-34600D02*
X85363Y-34600D01*
X84563Y-34680D02*
X85378Y-34680D01*
X84573Y-34760D02*
X85394Y-34760D01*
X84584Y-34840D02*
X85409Y-34840D01*
X84594Y-34920D02*
X85424Y-34920D01*
X84605Y-35000D02*
X85440Y-35000D01*
X84616Y-35080D02*
X85455Y-35080D01*
X84626Y-35160D02*
X85470Y-35160D01*
X84637Y-35240D02*
X85486Y-35240D01*
X84648Y-35320D02*
X85501Y-35320D01*
X84658Y-35400D02*
X85516Y-35400D01*
X84669Y-35480D02*
X85532Y-35480D01*
X84680Y-35560D02*
X85547Y-35560D01*
X84690Y-35640D02*
X85562Y-35640D01*
X84701Y-35720D02*
X85578Y-35720D01*
X84711Y-35800D02*
X85593Y-35800D01*
X84722Y-35880D02*
X85608Y-35880D01*
X84733Y-35960D02*
X85624Y-35960D01*
X84743Y-36040D02*
X85639Y-36040D01*
X84754Y-36120D02*
X85654Y-36120D01*
X84765Y-36200D02*
X85669Y-36200D01*
X84775Y-36280D02*
X85685Y-36280D01*
X84786Y-36360D02*
X85667Y-36360D01*
X84816Y-36440D02*
X85640Y-36440D01*
X84954Y-36520D02*
X85575Y-36520D01*
X85097Y-36600D02*
X85375Y-36600D01*
X85688Y-36296D02*
X85619Y-36502D01*
X85213Y-36664D01*
X84818Y-36444D01*
X84788Y-36376D01*
X84250Y-32326D01*
X84250Y-31560D01*
X84930Y-31560D01*
X84930Y-32334D01*
X85688Y-36296D01*
X87080Y-31570D02*
X87760Y-31570D01*
X87080Y-31650D02*
X87760Y-31650D01*
X87080Y-31730D02*
X87760Y-31730D01*
X87080Y-31810D02*
X87760Y-31810D01*
X87080Y-31890D02*
X87760Y-31890D01*
X87080Y-31970D02*
X87760Y-31970D01*
X87080Y-32050D02*
X87760Y-32050D01*
X87080Y-32130D02*
X87760Y-32130D01*
X87080Y-32210D02*
X87760Y-32210D01*
X87070Y-32290D02*
X87760Y-32290D01*
X87060Y-32370D02*
X87756Y-32370D01*
X87051Y-32450D02*
X87751Y-32450D01*
X87041Y-32530D02*
X87747Y-32530D01*
X87031Y-32610D02*
X87743Y-32610D01*
X87021Y-32690D02*
X87738Y-32690D01*
X87012Y-32770D02*
X87734Y-32770D01*
X87002Y-32850D02*
X87730Y-32850D01*
X86992Y-32930D02*
X87725Y-32930D01*
X86982Y-33010D02*
X87721Y-33010D01*
X86973Y-33090D02*
X87717Y-33090D01*
X86963Y-33170D02*
X87712Y-33170D01*
X86953Y-33250D02*
X87708Y-33250D01*
X86943Y-33330D02*
X87704Y-33330D01*
X86934Y-33410D02*
X87700Y-33410D01*
X86924Y-33490D02*
X87695Y-33490D01*
X86914Y-33570D02*
X87691Y-33570D01*
X86904Y-33650D02*
X87687Y-33650D01*
X86895Y-33730D02*
X87682Y-33730D01*
X86885Y-33810D02*
X87678Y-33810D01*
X86875Y-33890D02*
X87674Y-33890D01*
X86866Y-33970D02*
X87669Y-33970D01*
X86856Y-34050D02*
X87665Y-34050D01*
X86846Y-34130D02*
X87661Y-34130D01*
X86836Y-34210D02*
X87656Y-34210D01*
X86827Y-34290D02*
X87652Y-34290D01*
X86817Y-34370D02*
X87648Y-34370D01*
X86807Y-34450D02*
X87643Y-34450D01*
X86797Y-34530D02*
X87639Y-34530D01*
X86788Y-34610D02*
X87635Y-34610D01*
X86778Y-34690D02*
X87630Y-34690D01*
X86768Y-34770D02*
X87626Y-34770D01*
X86758Y-34850D02*
X87622Y-34850D01*
X86749Y-34930D02*
X87617Y-34930D01*
X86739Y-35010D02*
X87613Y-35010D01*
X86729Y-35090D02*
X87609Y-35090D01*
X86719Y-35170D02*
X87605Y-35170D01*
X86710Y-35250D02*
X87600Y-35250D01*
X86700Y-35330D02*
X87596Y-35330D01*
X86713Y-35410D02*
X87592Y-35410D01*
X86725Y-35490D02*
X87549Y-35490D01*
X86818Y-35570D02*
X87491Y-35570D01*
X86914Y-35650D02*
X87433Y-35650D01*
X87760Y-32298D02*
X87590Y-35432D01*
X87405Y-35688D01*
X86938Y-35670D01*
X86726Y-35493D01*
X86700Y-35329D01*
X87080Y-32213D01*
X87080Y-31570D01*
X87760Y-31570D01*
X87760Y-32298D01*
X89050Y-31570D02*
X89738Y-31570D01*
X89050Y-31650D02*
X89752Y-31650D01*
X89050Y-31730D02*
X89767Y-31730D01*
X89050Y-31810D02*
X89781Y-31810D01*
X89050Y-31890D02*
X89795Y-31890D01*
X89050Y-31970D02*
X89810Y-31970D01*
X89050Y-32050D02*
X89824Y-32050D01*
X89050Y-32130D02*
X89839Y-32130D01*
X89050Y-32210D02*
X89853Y-32210D01*
X89050Y-32290D02*
X89868Y-32290D01*
X89063Y-32370D02*
X89882Y-32370D01*
X89075Y-32450D02*
X89897Y-32450D01*
X89087Y-32530D02*
X89911Y-32530D01*
X89100Y-32610D02*
X89925Y-32610D01*
X89112Y-32690D02*
X89940Y-32690D01*
X89125Y-32770D02*
X89954Y-32770D01*
X89137Y-32850D02*
X89969Y-32850D01*
X89150Y-32930D02*
X89983Y-32930D01*
X89162Y-33010D02*
X89998Y-33010D01*
X89175Y-33090D02*
X90012Y-33090D01*
X89187Y-33170D02*
X90026Y-33170D01*
X89200Y-33250D02*
X90041Y-33250D01*
X89212Y-33330D02*
X90055Y-33330D01*
X89225Y-33410D02*
X90070Y-33410D01*
X89237Y-33490D02*
X90084Y-33490D01*
X89249Y-33570D02*
X90099Y-33570D01*
X89262Y-33650D02*
X90113Y-33650D01*
X89274Y-33730D02*
X90128Y-33730D01*
X89287Y-33810D02*
X90142Y-33810D01*
X89299Y-33890D02*
X90156Y-33890D01*
X89312Y-33970D02*
X90171Y-33970D01*
X89324Y-34050D02*
X90185Y-34050D01*
X89337Y-34130D02*
X90200Y-34130D01*
X89349Y-34210D02*
X90214Y-34210D01*
X89362Y-34290D02*
X90229Y-34290D01*
X89374Y-34370D02*
X90243Y-34370D01*
X89386Y-34450D02*
X90257Y-34450D01*
X89399Y-34530D02*
X90272Y-34530D01*
X89411Y-34610D02*
X90286Y-34610D01*
X89424Y-34690D02*
X90301Y-34690D01*
X89436Y-34770D02*
X90315Y-34770D01*
X89449Y-34850D02*
X90330Y-34850D01*
X89461Y-34930D02*
X90344Y-34930D01*
X89474Y-35010D02*
X90359Y-35010D01*
X89486Y-35090D02*
X90373Y-35090D01*
X89499Y-35170D02*
X90387Y-35170D01*
X89511Y-35250D02*
X90402Y-35250D01*
X89523Y-35330D02*
X90416Y-35330D01*
X89536Y-35410D02*
X90431Y-35410D01*
X89548Y-35490D02*
X90445Y-35490D01*
X89561Y-35570D02*
X90460Y-35570D01*
X89573Y-35650D02*
X90474Y-35650D01*
X89586Y-35730D02*
X90488Y-35730D01*
X89598Y-35810D02*
X90503Y-35810D01*
X89611Y-35890D02*
X90517Y-35890D01*
X89623Y-35970D02*
X90532Y-35970D01*
X89636Y-36050D02*
X90546Y-36050D01*
X89648Y-36130D02*
X90561Y-36130D01*
X89661Y-36210D02*
X90575Y-36210D01*
X89673Y-36290D02*
X90584Y-36290D01*
X89685Y-36370D02*
X90571Y-36370D01*
X89744Y-36450D02*
X90495Y-36450D01*
X89858Y-36530D02*
X90420Y-36530D01*
X90098Y-36610D02*
X90344Y-36610D01*
X90588Y-36351D02*
X90285Y-36672D01*
X89789Y-36507D01*
X89687Y-36379D01*
X89050Y-32286D01*
X89050Y-31570D01*
X89738Y-31570D01*
X90580Y-36236D01*
X90588Y-36351D01*
X92669Y-31590D02*
X93360Y-31590D01*
X92650Y-31670D02*
X93360Y-31670D01*
X92631Y-31750D02*
X93360Y-31750D01*
X92612Y-31830D02*
X93360Y-31830D01*
X92594Y-31910D02*
X93360Y-31910D01*
X92575Y-31990D02*
X93360Y-31990D01*
X92556Y-32070D02*
X93360Y-32070D01*
X92537Y-32150D02*
X93360Y-32150D01*
X92518Y-32230D02*
X93360Y-32230D01*
X92499Y-32310D02*
X93359Y-32310D01*
X92480Y-32390D02*
X93348Y-32390D01*
X92462Y-32470D02*
X93331Y-32470D01*
X92443Y-32550D02*
X93314Y-32550D01*
X92424Y-32630D02*
X93297Y-32630D01*
X92405Y-32710D02*
X93280Y-32710D01*
X92386Y-32790D02*
X93262Y-32790D01*
X92367Y-32870D02*
X93245Y-32870D01*
X92348Y-32950D02*
X93228Y-32950D01*
X92330Y-33030D02*
X93211Y-33030D01*
X92311Y-33110D02*
X93194Y-33110D01*
X92292Y-33190D02*
X93177Y-33190D01*
X92273Y-33270D02*
X93159Y-33270D01*
X92254Y-33350D02*
X93142Y-33350D01*
X92235Y-33430D02*
X93125Y-33430D01*
X92216Y-33510D02*
X93108Y-33510D01*
X92198Y-33590D02*
X93091Y-33590D01*
X92179Y-33670D02*
X93073Y-33670D01*
X92160Y-33750D02*
X93056Y-33750D01*
X92141Y-33830D02*
X93039Y-33830D01*
X92122Y-33910D02*
X93022Y-33910D01*
X92103Y-33990D02*
X93005Y-33990D01*
X92084Y-34070D02*
X92988Y-34070D01*
X92066Y-34150D02*
X92970Y-34150D01*
X92047Y-34230D02*
X92953Y-34230D01*
X92028Y-34310D02*
X92936Y-34310D01*
X92009Y-34390D02*
X92919Y-34390D01*
X91990Y-34470D02*
X92902Y-34470D01*
X91971Y-34550D02*
X92885Y-34550D01*
X91952Y-34630D02*
X92867Y-34630D01*
X91933Y-34710D02*
X92850Y-34710D01*
X91915Y-34790D02*
X92833Y-34790D01*
X91896Y-34870D02*
X92816Y-34870D01*
X91877Y-34950D02*
X92799Y-34950D01*
X91858Y-35030D02*
X92781Y-35030D01*
X91839Y-35110D02*
X92764Y-35110D01*
X91820Y-35190D02*
X92747Y-35190D01*
X91806Y-35270D02*
X92730Y-35270D01*
X91819Y-35350D02*
X92713Y-35350D01*
X91896Y-35430D02*
X92696Y-35430D01*
X91972Y-35510D02*
X92647Y-35510D01*
X92296Y-35590D02*
X92542Y-35590D01*
X93360Y-32306D02*
X93350Y-32381D01*
X92684Y-35481D01*
X92506Y-35617D01*
X92013Y-35552D01*
X91801Y-35331D01*
X91809Y-35237D01*
X92669Y-31590D01*
X93360Y-31590D01*
X93360Y-32306D01*
X94650Y-31580D02*
X95333Y-31580D01*
X94650Y-31660D02*
X95339Y-31660D01*
X94650Y-31740D02*
X95345Y-31740D01*
X94650Y-31820D02*
X95351Y-31820D01*
X94650Y-31900D02*
X95357Y-31900D01*
X94650Y-31980D02*
X95363Y-31980D01*
X94650Y-32060D02*
X95370Y-32060D01*
X94650Y-32140D02*
X95376Y-32140D01*
X94650Y-32220D02*
X95382Y-32220D01*
X94650Y-32300D02*
X95388Y-32300D01*
X94653Y-32380D02*
X95394Y-32380D01*
X94656Y-32460D02*
X95400Y-32460D01*
X94658Y-32540D02*
X95406Y-32540D01*
X94661Y-32620D02*
X95412Y-32620D01*
X94664Y-32700D02*
X95418Y-32700D01*
X94667Y-32780D02*
X95424Y-32780D01*
X94669Y-32860D02*
X95430Y-32860D01*
X94672Y-32940D02*
X95436Y-32940D01*
X94675Y-33020D02*
X95442Y-33020D01*
X94678Y-33100D02*
X95448Y-33100D01*
X94680Y-33180D02*
X95454Y-33180D01*
X94683Y-33260D02*
X95460Y-33260D01*
X94686Y-33340D02*
X95467Y-33340D01*
X94688Y-33420D02*
X95473Y-33420D01*
X94691Y-33500D02*
X95479Y-33500D01*
X94694Y-33580D02*
X95485Y-33580D01*
X94697Y-33660D02*
X95491Y-33660D01*
X94699Y-33740D02*
X95497Y-33740D01*
X94702Y-33820D02*
X95503Y-33820D01*
X94705Y-33900D02*
X95509Y-33900D01*
X94708Y-33980D02*
X95515Y-33980D01*
X94710Y-34060D02*
X95521Y-34060D01*
X94713Y-34140D02*
X95527Y-34140D01*
X94716Y-34220D02*
X95533Y-34220D01*
X94719Y-34300D02*
X95539Y-34300D01*
X94721Y-34380D02*
X95545Y-34380D01*
X94724Y-34460D02*
X95551Y-34460D01*
X94727Y-34540D02*
X95557Y-34540D01*
X94729Y-34620D02*
X95564Y-34620D01*
X94732Y-34700D02*
X95570Y-34700D01*
X94735Y-34780D02*
X95576Y-34780D01*
X94738Y-34860D02*
X95582Y-34860D01*
X94740Y-34940D02*
X95588Y-34940D01*
X94743Y-35020D02*
X95594Y-35020D01*
X94746Y-35100D02*
X95600Y-35100D01*
X94749Y-35180D02*
X95606Y-35180D01*
X94751Y-35260D02*
X95612Y-35260D01*
X94754Y-35340D02*
X95618Y-35340D01*
X94757Y-35420D02*
X95624Y-35420D01*
X94759Y-35500D02*
X95630Y-35500D01*
X94762Y-35580D02*
X95636Y-35580D01*
X94765Y-35660D02*
X95642Y-35660D01*
X94768Y-35740D02*
X95648Y-35740D01*
X94770Y-35820D02*
X95654Y-35820D01*
X94773Y-35900D02*
X95661Y-35900D01*
X94776Y-35980D02*
X95667Y-35980D01*
X94779Y-36060D02*
X95673Y-36060D01*
X94781Y-36140D02*
X95679Y-36140D01*
X94784Y-36220D02*
X95685Y-36220D01*
X94787Y-36300D02*
X95670Y-36300D01*
X94801Y-36380D02*
X95624Y-36380D01*
X94857Y-36460D02*
X95577Y-36460D01*
X94913Y-36540D02*
X95531Y-36540D01*
X94969Y-36620D02*
X95484Y-36620D01*
X95688Y-36268D02*
X95462Y-36658D01*
X94977Y-36631D01*
X94789Y-36363D01*
X94650Y-32279D01*
X94650Y-31580D01*
X95333Y-31580D01*
X95688Y-36268D01*
X102270Y-31640D02*
X102960Y-31640D01*
X102253Y-31720D02*
X102960Y-31720D01*
X102236Y-31800D02*
X102960Y-31800D01*
X102219Y-31880D02*
X102960Y-31880D01*
X102203Y-31960D02*
X102960Y-31960D01*
X102186Y-32040D02*
X102960Y-32040D01*
X102169Y-32120D02*
X102960Y-32120D01*
X102152Y-32200D02*
X102960Y-32200D01*
X102135Y-32280D02*
X102960Y-32280D01*
X102118Y-32360D02*
X102951Y-32360D01*
X102101Y-32440D02*
X102937Y-32440D01*
X102084Y-32520D02*
X102923Y-32520D01*
X102068Y-32600D02*
X102908Y-32600D01*
X102051Y-32680D02*
X102894Y-32680D01*
X102034Y-32760D02*
X102879Y-32760D01*
X102017Y-32840D02*
X102865Y-32840D01*
X102000Y-32920D02*
X102850Y-32920D01*
X101983Y-33000D02*
X102836Y-33000D01*
X101966Y-33080D02*
X102821Y-33080D01*
X101949Y-33160D02*
X102807Y-33160D01*
X101933Y-33240D02*
X102792Y-33240D01*
X101916Y-33320D02*
X102778Y-33320D01*
X101899Y-33400D02*
X102764Y-33400D01*
X101882Y-33480D02*
X102749Y-33480D01*
X101865Y-33560D02*
X102735Y-33560D01*
X101848Y-33640D02*
X102720Y-33640D01*
X101831Y-33720D02*
X102706Y-33720D01*
X101814Y-33800D02*
X102691Y-33800D01*
X101798Y-33880D02*
X102677Y-33880D01*
X101781Y-33960D02*
X102662Y-33960D01*
X101764Y-34040D02*
X102648Y-34040D01*
X101747Y-34120D02*
X102634Y-34120D01*
X101730Y-34200D02*
X102619Y-34200D01*
X101713Y-34280D02*
X102605Y-34280D01*
X101696Y-34360D02*
X102590Y-34360D01*
X101679Y-34440D02*
X102576Y-34440D01*
X101662Y-34520D02*
X102561Y-34520D01*
X101646Y-34600D02*
X102547Y-34600D01*
X101629Y-34680D02*
X102532Y-34680D01*
X101612Y-34760D02*
X102518Y-34760D01*
X101595Y-34840D02*
X102503Y-34840D01*
X101578Y-34920D02*
X102489Y-34920D01*
X101561Y-35000D02*
X102475Y-35000D01*
X101544Y-35080D02*
X102460Y-35080D01*
X101527Y-35160D02*
X102446Y-35160D01*
X101511Y-35240D02*
X102431Y-35240D01*
X101502Y-35320D02*
X102417Y-35320D01*
X101551Y-35400D02*
X102402Y-35400D01*
X101605Y-35480D02*
X102338Y-35480D01*
X101659Y-35560D02*
X102275Y-35560D01*
X102960Y-32315D02*
X102403Y-35398D01*
X102236Y-35609D01*
X101686Y-35600D01*
X101501Y-35326D01*
X101509Y-35247D01*
X102270Y-31640D01*
X102960Y-31640D01*
X102960Y-32315D01*
X107080Y-31600D02*
X107760Y-31600D01*
X107078Y-31680D02*
X107760Y-31680D01*
X107062Y-31760D02*
X107760Y-31760D01*
X107046Y-31840D02*
X107760Y-31840D01*
X107030Y-31920D02*
X107760Y-31920D01*
X107014Y-32000D02*
X107760Y-32000D01*
X106998Y-32080D02*
X107760Y-32080D01*
X106982Y-32160D02*
X107760Y-32160D01*
X106966Y-32240D02*
X107760Y-32240D01*
X106950Y-32320D02*
X107759Y-32320D01*
X106934Y-32400D02*
X107745Y-32400D01*
X106918Y-32480D02*
X107732Y-32480D01*
X106902Y-32560D02*
X107719Y-32560D01*
X106885Y-32640D02*
X107705Y-32640D01*
X106869Y-32720D02*
X107692Y-32720D01*
X106853Y-32800D02*
X107679Y-32800D01*
X106837Y-32880D02*
X107665Y-32880D01*
X106821Y-32960D02*
X107652Y-32960D01*
X106805Y-33040D02*
X107639Y-33040D01*
X106789Y-33120D02*
X107625Y-33120D01*
X106773Y-33200D02*
X107612Y-33200D01*
X106757Y-33280D02*
X107599Y-33280D01*
X106741Y-33360D02*
X107585Y-33360D01*
X106725Y-33440D02*
X107572Y-33440D01*
X106708Y-33520D02*
X107559Y-33520D01*
X106692Y-33600D02*
X107545Y-33600D01*
X106676Y-33680D02*
X107532Y-33680D01*
X106660Y-33760D02*
X107519Y-33760D01*
X106644Y-33840D02*
X107505Y-33840D01*
X106628Y-33920D02*
X107492Y-33920D01*
X106612Y-34000D02*
X107479Y-34000D01*
X106596Y-34080D02*
X107465Y-34080D01*
X106580Y-34160D02*
X107452Y-34160D01*
X106564Y-34240D02*
X107439Y-34240D01*
X106548Y-34320D02*
X107425Y-34320D01*
X106531Y-34400D02*
X107412Y-34400D01*
X106515Y-34480D02*
X107399Y-34480D01*
X106499Y-34560D02*
X107385Y-34560D01*
X106483Y-34640D02*
X107372Y-34640D01*
X106467Y-34720D02*
X107359Y-34720D01*
X106451Y-34800D02*
X107345Y-34800D01*
X106435Y-34880D02*
X107332Y-34880D01*
X106419Y-34960D02*
X107319Y-34960D01*
X106403Y-35040D02*
X107305Y-35040D01*
X106387Y-35120D02*
X107292Y-35120D01*
X106371Y-35200D02*
X107279Y-35200D01*
X106355Y-35280D02*
X107265Y-35280D01*
X106393Y-35360D02*
X107252Y-35360D01*
X106440Y-35440D02*
X107220Y-35440D01*
X106487Y-35520D02*
X107142Y-35520D01*
X106534Y-35600D02*
X107065Y-35600D01*
X106791Y-35680D02*
X106987Y-35680D01*
X107760Y-32315D02*
X107243Y-35416D01*
X106962Y-35706D01*
X106561Y-35644D01*
X106352Y-35291D01*
X107080Y-31674D01*
X107080Y-31600D01*
X107760Y-31600D01*
X107760Y-32315D01*
X97472Y-31640D02*
X98160Y-31640D01*
X97454Y-31720D02*
X98160Y-31720D01*
X97436Y-31800D02*
X98160Y-31800D01*
X97418Y-31880D02*
X98160Y-31880D01*
X97400Y-31960D02*
X98160Y-31960D01*
X97382Y-32040D02*
X98160Y-32040D01*
X97364Y-32120D02*
X98160Y-32120D01*
X97346Y-32200D02*
X98160Y-32200D01*
X97328Y-32280D02*
X98160Y-32280D01*
X97310Y-32360D02*
X98147Y-32360D01*
X97292Y-32440D02*
X98131Y-32440D01*
X97274Y-32520D02*
X98115Y-32520D01*
X97256Y-32600D02*
X98100Y-32600D01*
X97238Y-32680D02*
X98084Y-32680D01*
X97220Y-32760D02*
X98068Y-32760D01*
X97202Y-32840D02*
X98053Y-32840D01*
X97184Y-32920D02*
X98037Y-32920D01*
X97166Y-33000D02*
X98021Y-33000D01*
X97148Y-33080D02*
X98006Y-33080D01*
X97130Y-33160D02*
X97990Y-33160D01*
X97112Y-33240D02*
X97974Y-33240D01*
X97094Y-33320D02*
X97958Y-33320D01*
X97076Y-33400D02*
X97943Y-33400D01*
X97058Y-33480D02*
X97927Y-33480D01*
X97040Y-33560D02*
X97911Y-33560D01*
X97022Y-33640D02*
X97896Y-33640D01*
X97004Y-33720D02*
X97880Y-33720D01*
X96986Y-33800D02*
X97864Y-33800D01*
X96969Y-33880D02*
X97849Y-33880D01*
X96951Y-33960D02*
X97833Y-33960D01*
X96933Y-34040D02*
X97817Y-34040D01*
X96915Y-34120D02*
X97801Y-34120D01*
X96897Y-34200D02*
X97786Y-34200D01*
X96879Y-34280D02*
X97770Y-34280D01*
X96861Y-34360D02*
X97754Y-34360D01*
X96843Y-34440D02*
X97739Y-34440D01*
X96825Y-34520D02*
X97723Y-34520D01*
X96807Y-34600D02*
X97707Y-34600D01*
X96789Y-34680D02*
X97692Y-34680D01*
X96771Y-34760D02*
X97676Y-34760D01*
X96753Y-34840D02*
X97660Y-34840D01*
X96735Y-34920D02*
X97644Y-34920D01*
X96717Y-35000D02*
X97629Y-35000D01*
X96699Y-35080D02*
X97613Y-35080D01*
X96681Y-35160D02*
X97597Y-35160D01*
X96663Y-35240D02*
X97582Y-35240D01*
X96695Y-35320D02*
X97566Y-35320D01*
X96730Y-35400D02*
X97550Y-35400D01*
X96766Y-35480D02*
X97505Y-35480D01*
X96801Y-35560D02*
X97435Y-35560D01*
X96991Y-35640D02*
X97364Y-35640D01*
X98160Y-32295D02*
X97543Y-35437D01*
X97348Y-35658D01*
X96833Y-35631D01*
X96662Y-35244D01*
X97472Y-31640D01*
X98160Y-31640D01*
X98160Y-32295D01*
X99450Y-31601D02*
X99450Y-31601D01*
X99450Y-31681D02*
X100138Y-31681D01*
X99450Y-31761D02*
X100145Y-31761D01*
X99450Y-31841D02*
X100152Y-31841D01*
X99450Y-31921D02*
X100159Y-31921D01*
X99450Y-32001D02*
X100166Y-32001D01*
X99450Y-32081D02*
X100173Y-32081D01*
X99450Y-32161D02*
X100180Y-32161D01*
X99450Y-32241D02*
X100187Y-32241D01*
X99452Y-32321D02*
X100194Y-32321D01*
X99456Y-32401D02*
X100201Y-32401D01*
X99460Y-32481D02*
X100208Y-32481D01*
X99464Y-32561D02*
X100215Y-32561D01*
X99467Y-32641D02*
X100222Y-32641D01*
X99471Y-32721D02*
X100229Y-32721D01*
X99475Y-32801D02*
X100235Y-32801D01*
X99478Y-32881D02*
X100242Y-32881D01*
X99482Y-32961D02*
X100249Y-32961D01*
X99486Y-33041D02*
X100256Y-33041D01*
X99489Y-33121D02*
X100263Y-33121D01*
X99493Y-33201D02*
X100270Y-33201D01*
X99497Y-33281D02*
X100277Y-33281D01*
X99500Y-33361D02*
X100284Y-33361D01*
X99504Y-33441D02*
X100291Y-33441D01*
X99508Y-33521D02*
X100298Y-33521D01*
X99512Y-33601D02*
X100305Y-33601D01*
X99515Y-33681D02*
X100312Y-33681D01*
X99519Y-33761D02*
X100319Y-33761D01*
X99523Y-33841D02*
X100326Y-33841D01*
X99526Y-33921D02*
X100333Y-33921D01*
X99530Y-34001D02*
X100340Y-34001D01*
X99534Y-34081D02*
X100347Y-34081D01*
X99537Y-34161D02*
X100354Y-34161D01*
X99541Y-34241D02*
X100361Y-34241D01*
X99545Y-34321D02*
X100367Y-34321D01*
X99549Y-34401D02*
X100374Y-34401D01*
X99552Y-34481D02*
X100381Y-34481D01*
X99556Y-34561D02*
X100388Y-34561D01*
X99560Y-34641D02*
X100395Y-34641D01*
X99563Y-34721D02*
X100402Y-34721D01*
X99567Y-34801D02*
X100409Y-34801D01*
X99571Y-34881D02*
X100416Y-34881D01*
X99574Y-34961D02*
X100423Y-34961D01*
X99578Y-35041D02*
X100430Y-35041D01*
X99582Y-35121D02*
X100437Y-35121D01*
X99586Y-35201D02*
X100444Y-35201D01*
X99589Y-35281D02*
X100451Y-35281D01*
X99593Y-35361D02*
X100458Y-35361D01*
X99597Y-35441D02*
X100465Y-35441D01*
X99600Y-35521D02*
X100472Y-35521D01*
X99604Y-35601D02*
X100479Y-35601D01*
X99608Y-35681D02*
X100486Y-35681D01*
X99611Y-35761D02*
X100493Y-35761D01*
X99615Y-35841D02*
X100500Y-35841D01*
X99619Y-35921D02*
X100506Y-35921D01*
X99623Y-36001D02*
X100513Y-36001D01*
X99626Y-36081D02*
X100520Y-36081D01*
X99630Y-36161D02*
X100527Y-36161D01*
X99634Y-36241D02*
X100534Y-36241D01*
X99637Y-36321D02*
X100498Y-36321D01*
X99681Y-36401D02*
X100420Y-36401D01*
X99748Y-36481D02*
X100342Y-36481D01*
X99815Y-36561D02*
X100264Y-36561D01*
X100123Y-36641D02*
X100186Y-36641D01*
X100538Y-36281D02*
X100174Y-36654D01*
X99817Y-36565D01*
X99639Y-36350D01*
X99450Y-32258D01*
X99450Y-31601D01*
X100134Y-31628D01*
X100538Y-36281D01*
X104250Y-31610D02*
X104934Y-31610D01*
X104250Y-31690D02*
X104942Y-31690D01*
X104250Y-31770D02*
X104950Y-31770D01*
X104250Y-31850D02*
X104957Y-31850D01*
X104250Y-31930D02*
X104965Y-31930D01*
X104250Y-32010D02*
X104973Y-32010D01*
X104250Y-32090D02*
X104981Y-32090D01*
X104250Y-32170D02*
X104988Y-32170D01*
X104250Y-32250D02*
X104996Y-32250D01*
X104253Y-32330D02*
X105004Y-32330D01*
X104257Y-32410D02*
X105012Y-32410D01*
X104262Y-32490D02*
X105019Y-32490D01*
X104267Y-32570D02*
X105027Y-32570D01*
X104271Y-32650D02*
X105035Y-32650D01*
X104276Y-32730D02*
X105043Y-32730D01*
X104281Y-32810D02*
X105050Y-32810D01*
X104286Y-32890D02*
X105058Y-32890D01*
X104290Y-32970D02*
X105066Y-32970D01*
X104295Y-33050D02*
X105074Y-33050D01*
X104300Y-33130D02*
X105081Y-33130D01*
X104304Y-33210D02*
X105089Y-33210D01*
X104309Y-33290D02*
X105097Y-33290D01*
X104314Y-33370D02*
X105105Y-33370D01*
X104319Y-33450D02*
X105112Y-33450D01*
X104323Y-33530D02*
X105120Y-33530D01*
X104328Y-33610D02*
X105128Y-33610D01*
X104333Y-33690D02*
X105136Y-33690D01*
X104337Y-33770D02*
X105143Y-33770D01*
X104342Y-33850D02*
X105151Y-33850D01*
X104347Y-33930D02*
X105159Y-33930D01*
X104352Y-34010D02*
X105167Y-34010D01*
X104356Y-34090D02*
X105174Y-34090D01*
X104361Y-34170D02*
X105182Y-34170D01*
X104366Y-34250D02*
X105190Y-34250D01*
X104370Y-34330D02*
X105198Y-34330D01*
X104375Y-34410D02*
X105205Y-34410D01*
X104380Y-34490D02*
X105213Y-34490D01*
X104385Y-34570D02*
X105221Y-34570D01*
X104389Y-34650D02*
X105229Y-34650D01*
X104394Y-34730D02*
X105236Y-34730D01*
X104399Y-34810D02*
X105244Y-34810D01*
X104403Y-34890D02*
X105252Y-34890D01*
X104408Y-34970D02*
X105259Y-34970D01*
X104413Y-35050D02*
X105267Y-35050D01*
X104418Y-35130D02*
X105275Y-35130D01*
X104422Y-35210D02*
X105283Y-35210D01*
X104427Y-35290D02*
X105290Y-35290D01*
X104432Y-35370D02*
X105298Y-35370D01*
X104437Y-35450D02*
X105306Y-35450D01*
X104441Y-35530D02*
X105314Y-35530D01*
X104446Y-35610D02*
X105321Y-35610D01*
X104451Y-35690D02*
X105329Y-35690D01*
X104455Y-35770D02*
X105337Y-35770D01*
X104460Y-35850D02*
X105345Y-35850D01*
X104465Y-35930D02*
X105352Y-35930D01*
X104470Y-36010D02*
X105360Y-36010D01*
X104474Y-36090D02*
X105368Y-36090D01*
X104479Y-36170D02*
X105376Y-36170D01*
X104484Y-36250D02*
X105383Y-36250D01*
X104488Y-36330D02*
X105372Y-36330D01*
X104552Y-36410D02*
X105329Y-36410D01*
X104656Y-36490D02*
X105286Y-36490D01*
X104760Y-36570D02*
X105202Y-36570D01*
X104864Y-36650D02*
X104994Y-36650D01*
X105388Y-36299D02*
X105254Y-36550D01*
X104908Y-36683D01*
X104509Y-36377D01*
X104489Y-36336D01*
X104250Y-32278D01*
X104250Y-31610D01*
X104934Y-31610D01*
X105388Y-36299D01*
X109050Y-31570D02*
X109735Y-31570D01*
X109050Y-31650D02*
X109743Y-31650D01*
X109050Y-31730D02*
X109752Y-31730D01*
X109050Y-31810D02*
X109760Y-31810D01*
X109050Y-31890D02*
X109769Y-31890D01*
X109050Y-31970D02*
X109778Y-31970D01*
X109050Y-32050D02*
X109786Y-32050D01*
X109050Y-32130D02*
X109795Y-32130D01*
X109050Y-32210D02*
X109803Y-32210D01*
X109050Y-32290D02*
X109812Y-32290D01*
X109055Y-32370D02*
X109821Y-32370D01*
X109060Y-32450D02*
X109829Y-32450D01*
X109066Y-32530D02*
X109838Y-32530D01*
X109072Y-32610D02*
X109846Y-32610D01*
X109077Y-32690D02*
X109855Y-32690D01*
X109083Y-32770D02*
X109864Y-32770D01*
X109089Y-32850D02*
X109872Y-32850D01*
X109094Y-32930D02*
X109881Y-32930D01*
X109100Y-33010D02*
X109890Y-33010D01*
X109106Y-33090D02*
X109898Y-33090D01*
X109111Y-33170D02*
X109907Y-33170D01*
X109117Y-33250D02*
X109915Y-33250D01*
X109123Y-33330D02*
X109924Y-33330D01*
X109128Y-33410D02*
X109933Y-33410D01*
X109134Y-33490D02*
X109941Y-33490D01*
X109140Y-33570D02*
X109950Y-33570D01*
X109145Y-33650D02*
X109958Y-33650D01*
X109151Y-33730D02*
X109967Y-33730D01*
X109157Y-33810D02*
X109976Y-33810D01*
X109162Y-33890D02*
X109984Y-33890D01*
X109168Y-33970D02*
X109993Y-33970D01*
X109174Y-34050D02*
X110001Y-34050D01*
X109179Y-34130D02*
X110010Y-34130D01*
X109185Y-34210D02*
X110019Y-34210D01*
X109191Y-34290D02*
X110027Y-34290D01*
X109196Y-34370D02*
X110036Y-34370D01*
X109202Y-34450D02*
X110044Y-34450D01*
X109208Y-34530D02*
X110053Y-34530D01*
X109213Y-34610D02*
X110062Y-34610D01*
X109219Y-34690D02*
X110070Y-34690D01*
X109225Y-34770D02*
X110079Y-34770D01*
X109230Y-34850D02*
X110088Y-34850D01*
X109236Y-34930D02*
X110096Y-34930D01*
X109242Y-35010D02*
X110105Y-35010D01*
X109247Y-35090D02*
X110113Y-35090D01*
X109253Y-35170D02*
X110122Y-35170D01*
X109259Y-35250D02*
X110131Y-35250D01*
X109264Y-35330D02*
X110139Y-35330D01*
X109270Y-35410D02*
X110148Y-35410D01*
X109276Y-35490D02*
X110156Y-35490D01*
X109281Y-35570D02*
X110165Y-35570D01*
X109287Y-35650D02*
X110174Y-35650D01*
X109293Y-35730D02*
X110182Y-35730D01*
X109299Y-35810D02*
X110191Y-35810D01*
X109304Y-35890D02*
X110199Y-35890D01*
X109310Y-35970D02*
X110208Y-35970D01*
X109316Y-36050D02*
X110217Y-36050D01*
X109321Y-36130D02*
X110225Y-36130D01*
X109327Y-36210D02*
X110234Y-36210D01*
X109333Y-36290D02*
X110240Y-36290D01*
X109338Y-36370D02*
X110213Y-36370D01*
X109378Y-36450D02*
X110139Y-36450D01*
X109420Y-36530D02*
X110066Y-36530D01*
X109752Y-36610D02*
X109993Y-36610D01*
X110240Y-36340D02*
X109952Y-36654D01*
X109423Y-36536D01*
X109339Y-36375D01*
X109050Y-32298D01*
X109050Y-31570D01*
X109735Y-31570D01*
X110240Y-36262D01*
X110240Y-36340D01*
M02*
