G04 (created by PCBNEW (2013-jul-07)-stable) date ven. 28 nov. 2014 17:15:50 CET*
%MOIN*%
G04 Gerber Fmt 3.4, Leading zero omitted, Abs format*
%FSLAX34Y34*%
G01*
G70*
G90*
G04 APERTURE LIST*
%ADD10C,0.00590551*%
%ADD11C,0.015*%
%ADD12C,0.005*%
%ADD13C,0.0059*%
%ADD14C,0.01*%
%ADD15C,0.012*%
G04 APERTURE END LIST*
G54D10*
G54D11*
X71500Y-62000D02*
X110900Y-62000D01*
X71500Y-28000D02*
X110900Y-28000D01*
X110900Y-28000D02*
X110800Y-28000D01*
X110900Y-62000D02*
X110900Y-28000D01*
X71500Y-62000D02*
X71500Y-28000D01*
G54D12*
X103300Y-42850D02*
X103300Y-43750D01*
X103300Y-43750D02*
X102650Y-43750D01*
X101950Y-42850D02*
X101300Y-42850D01*
X101300Y-42850D02*
X101300Y-43750D01*
X101300Y-43750D02*
X101950Y-43750D01*
X102650Y-42850D02*
X103300Y-42850D01*
X103300Y-41350D02*
X103300Y-42250D01*
X103300Y-42250D02*
X102650Y-42250D01*
X101950Y-41350D02*
X101300Y-41350D01*
X101300Y-41350D02*
X101300Y-42250D01*
X101300Y-42250D02*
X101950Y-42250D01*
X102650Y-41350D02*
X103300Y-41350D01*
G54D13*
X106325Y-42927D02*
X106325Y-41273D01*
X106207Y-42927D02*
X106207Y-41273D01*
X109593Y-42927D02*
X109593Y-41273D01*
X108686Y-41271D02*
X109586Y-41271D01*
X109586Y-42929D02*
X108686Y-42929D01*
X107113Y-42929D02*
X106213Y-42929D01*
X106214Y-41271D02*
X107114Y-41271D01*
X108673Y-43025D02*
X110327Y-43025D01*
X108673Y-42907D02*
X110327Y-42907D01*
X108673Y-46293D02*
X110327Y-46293D01*
X110329Y-45386D02*
X110329Y-46286D01*
X108671Y-46286D02*
X108671Y-45386D01*
X108671Y-43813D02*
X108671Y-42913D01*
X110329Y-42914D02*
X110329Y-43814D01*
G54D12*
X93900Y-42850D02*
X93900Y-43750D01*
X93900Y-43750D02*
X93250Y-43750D01*
X92550Y-42850D02*
X91900Y-42850D01*
X91900Y-42850D02*
X91900Y-43750D01*
X91900Y-43750D02*
X92550Y-43750D01*
X93250Y-42850D02*
X93900Y-42850D01*
X93900Y-41350D02*
X93900Y-42250D01*
X93900Y-42250D02*
X93250Y-42250D01*
X92550Y-41350D02*
X91900Y-41350D01*
X91900Y-41350D02*
X91900Y-42250D01*
X91900Y-42250D02*
X92550Y-42250D01*
X93250Y-41350D02*
X93900Y-41350D01*
G54D13*
X96925Y-42827D02*
X96925Y-41173D01*
X96807Y-42827D02*
X96807Y-41173D01*
X100193Y-42827D02*
X100193Y-41173D01*
X99286Y-41171D02*
X100186Y-41171D01*
X100186Y-42829D02*
X99286Y-42829D01*
X97713Y-42829D02*
X96813Y-42829D01*
X96814Y-41171D02*
X97714Y-41171D01*
X99073Y-42925D02*
X100727Y-42925D01*
X99073Y-42807D02*
X100727Y-42807D01*
X99073Y-46193D02*
X100727Y-46193D01*
X100729Y-45286D02*
X100729Y-46186D01*
X99071Y-46186D02*
X99071Y-45286D01*
X99071Y-43713D02*
X99071Y-42813D01*
X100729Y-42814D02*
X100729Y-43714D01*
G54D12*
X84300Y-42850D02*
X84300Y-43750D01*
X84300Y-43750D02*
X83650Y-43750D01*
X82950Y-42850D02*
X82300Y-42850D01*
X82300Y-42850D02*
X82300Y-43750D01*
X82300Y-43750D02*
X82950Y-43750D01*
X83650Y-42850D02*
X84300Y-42850D01*
X84300Y-41350D02*
X84300Y-42250D01*
X84300Y-42250D02*
X83650Y-42250D01*
X82950Y-41350D02*
X82300Y-41350D01*
X82300Y-41350D02*
X82300Y-42250D01*
X82300Y-42250D02*
X82950Y-42250D01*
X83650Y-41350D02*
X84300Y-41350D01*
X75680Y-42950D02*
X75680Y-43850D01*
X75680Y-43850D02*
X75030Y-43850D01*
X74330Y-42950D02*
X73680Y-42950D01*
X73680Y-42950D02*
X73680Y-43850D01*
X73680Y-43850D02*
X74330Y-43850D01*
X75030Y-42950D02*
X75680Y-42950D01*
X75700Y-41350D02*
X75700Y-42250D01*
X75700Y-42250D02*
X75050Y-42250D01*
X74350Y-41350D02*
X73700Y-41350D01*
X73700Y-41350D02*
X73700Y-42250D01*
X73700Y-42250D02*
X74350Y-42250D01*
X75050Y-41350D02*
X75700Y-41350D01*
G54D13*
X78025Y-42727D02*
X78025Y-41073D01*
X77907Y-42727D02*
X77907Y-41073D01*
X81293Y-42727D02*
X81293Y-41073D01*
X80386Y-41071D02*
X81286Y-41071D01*
X81286Y-42729D02*
X80386Y-42729D01*
X78813Y-42729D02*
X77913Y-42729D01*
X77914Y-41071D02*
X78814Y-41071D01*
X79973Y-42825D02*
X81627Y-42825D01*
X79973Y-42707D02*
X81627Y-42707D01*
X79973Y-46093D02*
X81627Y-46093D01*
X81629Y-45186D02*
X81629Y-46086D01*
X79971Y-46086D02*
X79971Y-45186D01*
X79971Y-43613D02*
X79971Y-42713D01*
X81629Y-42714D02*
X81629Y-43614D01*
G54D12*
X87600Y-55050D02*
X87600Y-54150D01*
X87600Y-54150D02*
X88250Y-54150D01*
X88950Y-55050D02*
X89600Y-55050D01*
X89600Y-55050D02*
X89600Y-54150D01*
X89600Y-54150D02*
X88950Y-54150D01*
X88250Y-55050D02*
X87600Y-55050D01*
X89700Y-55050D02*
X89700Y-54150D01*
X89700Y-54150D02*
X90350Y-54150D01*
X91050Y-55050D02*
X91700Y-55050D01*
X91700Y-55050D02*
X91700Y-54150D01*
X91700Y-54150D02*
X91050Y-54150D01*
X90350Y-55050D02*
X89700Y-55050D01*
X93800Y-54150D02*
X93800Y-55050D01*
X93800Y-55050D02*
X93150Y-55050D01*
X92450Y-54150D02*
X91800Y-54150D01*
X91800Y-54150D02*
X91800Y-55050D01*
X91800Y-55050D02*
X92450Y-55050D01*
X93150Y-54150D02*
X93800Y-54150D01*
X95900Y-54150D02*
X95900Y-55050D01*
X95900Y-55050D02*
X95250Y-55050D01*
X94550Y-54150D02*
X93900Y-54150D01*
X93900Y-54150D02*
X93900Y-55050D01*
X93900Y-55050D02*
X94550Y-55050D01*
X95250Y-54150D02*
X95900Y-54150D01*
G54D13*
X89473Y-42925D02*
X91127Y-42925D01*
X89473Y-42807D02*
X91127Y-42807D01*
X89473Y-46193D02*
X91127Y-46193D01*
X91129Y-45286D02*
X91129Y-46186D01*
X89471Y-46186D02*
X89471Y-45286D01*
X89471Y-43713D02*
X89471Y-42813D01*
X91129Y-42814D02*
X91129Y-43714D01*
X87325Y-42827D02*
X87325Y-41173D01*
X87207Y-42827D02*
X87207Y-41173D01*
X90593Y-42827D02*
X90593Y-41173D01*
X89686Y-41171D02*
X90586Y-41171D01*
X90586Y-42829D02*
X89686Y-42829D01*
X88113Y-42829D02*
X87213Y-42829D01*
X87214Y-41171D02*
X88114Y-41171D01*
G54D14*
X96000Y-51450D02*
X95500Y-51450D01*
X95500Y-51450D02*
X95500Y-51950D01*
X95500Y-51950D02*
X96000Y-51950D01*
X88000Y-50450D02*
X96000Y-50450D01*
X96000Y-50450D02*
X96000Y-52950D01*
X96000Y-52950D02*
X88000Y-52950D01*
X88000Y-52950D02*
X88000Y-50450D01*
X89600Y-57950D02*
X89100Y-57950D01*
X89100Y-57950D02*
X89100Y-58450D01*
X89100Y-58450D02*
X89600Y-58450D01*
X81600Y-56950D02*
X89600Y-56950D01*
X89600Y-56950D02*
X89600Y-59450D01*
X89600Y-59450D02*
X81600Y-59450D01*
X81600Y-59450D02*
X81600Y-56950D01*
X106000Y-51150D02*
X106500Y-51150D01*
X106500Y-51150D02*
X106500Y-50650D01*
X106500Y-50650D02*
X106000Y-50650D01*
X106000Y-49650D02*
X108000Y-49650D01*
X108000Y-49650D02*
X108000Y-52150D01*
X108000Y-52150D02*
X106000Y-52150D01*
X106000Y-52150D02*
X106000Y-49650D01*
X106500Y-51150D02*
X106500Y-50650D01*
G54D10*
X75850Y-32390D02*
X75850Y-31610D01*
X75129Y-32390D02*
X75129Y-31610D01*
X75850Y-31610D02*
G75*
G03X75129Y-31610I-360J0D01*
G74*
G01*
X75129Y-32390D02*
G75*
G03X75850Y-32390I360J0D01*
G74*
G01*
X108850Y-32390D02*
X108850Y-31610D01*
X108129Y-32390D02*
X108129Y-31610D01*
X108850Y-31610D02*
G75*
G03X108129Y-31610I-360J0D01*
G74*
G01*
X108129Y-32390D02*
G75*
G03X108850Y-32390I360J0D01*
G74*
G01*
X103350Y-32390D02*
X103350Y-31610D01*
X102629Y-32390D02*
X102629Y-31610D01*
X103350Y-31610D02*
G75*
G03X102629Y-31610I-360J0D01*
G74*
G01*
X102629Y-32390D02*
G75*
G03X103350Y-32390I360J0D01*
G74*
G01*
X97850Y-32390D02*
X97850Y-31610D01*
X97129Y-32390D02*
X97129Y-31610D01*
X97850Y-31610D02*
G75*
G03X97129Y-31610I-360J0D01*
G74*
G01*
X97129Y-32390D02*
G75*
G03X97850Y-32390I360J0D01*
G74*
G01*
X87850Y-32390D02*
X87850Y-31610D01*
X87129Y-32390D02*
X87129Y-31610D01*
X87850Y-31610D02*
G75*
G03X87129Y-31610I-360J0D01*
G74*
G01*
X87129Y-32390D02*
G75*
G03X87850Y-32390I360J0D01*
G74*
G01*
X73139Y-59255D02*
X73139Y-60035D01*
X73860Y-59255D02*
X73860Y-60035D01*
X73139Y-60035D02*
G75*
G03X73860Y-60035I360J0D01*
G74*
G01*
X73860Y-59255D02*
G75*
G03X73139Y-59255I-360J0D01*
G74*
G01*
X74655Y-59255D02*
X74655Y-60035D01*
X75376Y-59255D02*
X75376Y-60035D01*
X74655Y-60035D02*
G75*
G03X75376Y-60035I360J0D01*
G74*
G01*
X75376Y-59255D02*
G75*
G03X74655Y-59255I-360J0D01*
G74*
G01*
X76171Y-59255D02*
X76171Y-60035D01*
X76891Y-59255D02*
X76891Y-60035D01*
X76171Y-60035D02*
G75*
G03X76891Y-60035I360J0D01*
G74*
G01*
X76891Y-59255D02*
G75*
G03X76171Y-59255I-360J0D01*
G74*
G01*
X77686Y-59255D02*
X77686Y-60035D01*
X78407Y-59255D02*
X78407Y-60035D01*
X77686Y-60035D02*
G75*
G03X78407Y-60035I360J0D01*
G74*
G01*
X78407Y-59255D02*
G75*
G03X77686Y-59255I-360J0D01*
G74*
G01*
X79202Y-59255D02*
X79202Y-60035D01*
X79923Y-59255D02*
X79923Y-60035D01*
X79202Y-60035D02*
G75*
G03X79923Y-60035I360J0D01*
G74*
G01*
X79923Y-59255D02*
G75*
G03X79202Y-59255I-360J0D01*
G74*
G01*
G54D12*
X103771Y-42964D02*
X103628Y-42864D01*
X103771Y-42792D02*
X103471Y-42792D01*
X103471Y-42907D01*
X103485Y-42935D01*
X103500Y-42950D01*
X103528Y-42964D01*
X103571Y-42964D01*
X103600Y-42950D01*
X103614Y-42935D01*
X103628Y-42907D01*
X103628Y-42792D01*
X103771Y-43250D02*
X103771Y-43078D01*
X103771Y-43164D02*
X103471Y-43164D01*
X103514Y-43135D01*
X103542Y-43107D01*
X103557Y-43078D01*
X103571Y-43507D02*
X103771Y-43507D01*
X103457Y-43435D02*
X103671Y-43364D01*
X103671Y-43550D01*
X103571Y-43792D02*
X103771Y-43792D01*
X103457Y-43721D02*
X103671Y-43650D01*
X103671Y-43835D01*
X103771Y-41464D02*
X103628Y-41364D01*
X103771Y-41292D02*
X103471Y-41292D01*
X103471Y-41407D01*
X103485Y-41435D01*
X103500Y-41450D01*
X103528Y-41464D01*
X103571Y-41464D01*
X103600Y-41450D01*
X103614Y-41435D01*
X103628Y-41407D01*
X103628Y-41292D01*
X103771Y-41750D02*
X103771Y-41578D01*
X103771Y-41664D02*
X103471Y-41664D01*
X103514Y-41635D01*
X103542Y-41607D01*
X103557Y-41578D01*
X103571Y-42007D02*
X103771Y-42007D01*
X103457Y-41935D02*
X103671Y-41864D01*
X103671Y-42050D01*
X103471Y-42135D02*
X103471Y-42321D01*
X103585Y-42221D01*
X103585Y-42264D01*
X103600Y-42292D01*
X103614Y-42307D01*
X103642Y-42321D01*
X103714Y-42321D01*
X103742Y-42307D01*
X103757Y-42292D01*
X103771Y-42264D01*
X103771Y-42178D01*
X103757Y-42150D01*
X103742Y-42135D01*
X110091Y-41764D02*
X109925Y-41664D01*
X110091Y-41592D02*
X109741Y-41592D01*
X109741Y-41707D01*
X109758Y-41735D01*
X109775Y-41750D01*
X109808Y-41764D01*
X109858Y-41764D01*
X109891Y-41750D01*
X109908Y-41735D01*
X109925Y-41707D01*
X109925Y-41592D01*
X110091Y-42050D02*
X110091Y-41878D01*
X110091Y-41964D02*
X109741Y-41964D01*
X109791Y-41935D01*
X109825Y-41907D01*
X109841Y-41878D01*
X109858Y-42307D02*
X110091Y-42307D01*
X109725Y-42235D02*
X109975Y-42164D01*
X109975Y-42350D01*
X109775Y-42450D02*
X109758Y-42464D01*
X109741Y-42492D01*
X109741Y-42564D01*
X109758Y-42592D01*
X109775Y-42607D01*
X109808Y-42621D01*
X109841Y-42621D01*
X109891Y-42607D01*
X110091Y-42435D01*
X110091Y-42621D01*
G54D10*
X106193Y-43012D02*
X105984Y-43012D01*
X106089Y-43117D02*
X106089Y-42907D01*
G54D12*
X109835Y-47341D02*
X109935Y-47175D01*
X110007Y-47341D02*
X110007Y-46991D01*
X109892Y-46991D01*
X109864Y-47008D01*
X109850Y-47025D01*
X109835Y-47058D01*
X109835Y-47108D01*
X109850Y-47141D01*
X109864Y-47158D01*
X109892Y-47175D01*
X110007Y-47175D01*
X109550Y-47341D02*
X109721Y-47341D01*
X109635Y-47341D02*
X109635Y-46991D01*
X109664Y-47041D01*
X109692Y-47075D01*
X109721Y-47091D01*
X109292Y-47108D02*
X109292Y-47341D01*
X109364Y-46975D02*
X109435Y-47225D01*
X109250Y-47225D01*
X108978Y-47341D02*
X109150Y-47341D01*
X109064Y-47341D02*
X109064Y-46991D01*
X109092Y-47041D01*
X109121Y-47075D01*
X109150Y-47091D01*
G54D10*
X108600Y-42684D02*
X108600Y-42893D01*
X108705Y-42789D02*
X108495Y-42789D01*
G54D12*
X94371Y-42964D02*
X94228Y-42864D01*
X94371Y-42792D02*
X94071Y-42792D01*
X94071Y-42907D01*
X94085Y-42935D01*
X94100Y-42950D01*
X94128Y-42964D01*
X94171Y-42964D01*
X94200Y-42950D01*
X94214Y-42935D01*
X94228Y-42907D01*
X94228Y-42792D01*
X94371Y-43250D02*
X94371Y-43078D01*
X94371Y-43164D02*
X94071Y-43164D01*
X94114Y-43135D01*
X94142Y-43107D01*
X94157Y-43078D01*
X94071Y-43350D02*
X94071Y-43535D01*
X94185Y-43435D01*
X94185Y-43478D01*
X94200Y-43507D01*
X94214Y-43521D01*
X94242Y-43535D01*
X94314Y-43535D01*
X94342Y-43521D01*
X94357Y-43507D01*
X94371Y-43478D01*
X94371Y-43392D01*
X94357Y-43364D01*
X94342Y-43350D01*
X94171Y-43792D02*
X94371Y-43792D01*
X94057Y-43721D02*
X94271Y-43650D01*
X94271Y-43835D01*
X94621Y-41464D02*
X94478Y-41364D01*
X94621Y-41292D02*
X94321Y-41292D01*
X94321Y-41407D01*
X94335Y-41435D01*
X94350Y-41450D01*
X94378Y-41464D01*
X94421Y-41464D01*
X94450Y-41450D01*
X94464Y-41435D01*
X94478Y-41407D01*
X94478Y-41292D01*
X94621Y-41750D02*
X94621Y-41578D01*
X94621Y-41664D02*
X94321Y-41664D01*
X94364Y-41635D01*
X94392Y-41607D01*
X94407Y-41578D01*
X94321Y-41850D02*
X94321Y-42035D01*
X94435Y-41935D01*
X94435Y-41978D01*
X94450Y-42007D01*
X94464Y-42021D01*
X94492Y-42035D01*
X94564Y-42035D01*
X94592Y-42021D01*
X94607Y-42007D01*
X94621Y-41978D01*
X94621Y-41892D01*
X94607Y-41864D01*
X94592Y-41850D01*
X94321Y-42135D02*
X94321Y-42321D01*
X94435Y-42221D01*
X94435Y-42264D01*
X94450Y-42292D01*
X94464Y-42307D01*
X94492Y-42321D01*
X94564Y-42321D01*
X94592Y-42307D01*
X94607Y-42292D01*
X94621Y-42264D01*
X94621Y-42178D01*
X94607Y-42150D01*
X94592Y-42135D01*
X96541Y-41664D02*
X96375Y-41564D01*
X96541Y-41492D02*
X96191Y-41492D01*
X96191Y-41607D01*
X96208Y-41635D01*
X96225Y-41650D01*
X96258Y-41664D01*
X96308Y-41664D01*
X96341Y-41650D01*
X96358Y-41635D01*
X96375Y-41607D01*
X96375Y-41492D01*
X96541Y-41950D02*
X96541Y-41778D01*
X96541Y-41864D02*
X96191Y-41864D01*
X96241Y-41835D01*
X96275Y-41807D01*
X96291Y-41778D01*
X96191Y-42050D02*
X96191Y-42235D01*
X96325Y-42135D01*
X96325Y-42178D01*
X96341Y-42207D01*
X96358Y-42221D01*
X96391Y-42235D01*
X96475Y-42235D01*
X96508Y-42221D01*
X96525Y-42207D01*
X96541Y-42178D01*
X96541Y-42092D01*
X96525Y-42064D01*
X96508Y-42050D01*
X96225Y-42350D02*
X96208Y-42364D01*
X96191Y-42392D01*
X96191Y-42464D01*
X96208Y-42492D01*
X96225Y-42507D01*
X96258Y-42521D01*
X96291Y-42521D01*
X96341Y-42507D01*
X96541Y-42335D01*
X96541Y-42521D01*
G54D10*
X96793Y-42912D02*
X96584Y-42912D01*
X96689Y-43017D02*
X96689Y-42807D01*
G54D12*
X100235Y-46741D02*
X100335Y-46575D01*
X100407Y-46741D02*
X100407Y-46391D01*
X100292Y-46391D01*
X100264Y-46408D01*
X100250Y-46425D01*
X100235Y-46458D01*
X100235Y-46508D01*
X100250Y-46541D01*
X100264Y-46558D01*
X100292Y-46575D01*
X100407Y-46575D01*
X99950Y-46741D02*
X100121Y-46741D01*
X100035Y-46741D02*
X100035Y-46391D01*
X100064Y-46441D01*
X100092Y-46475D01*
X100121Y-46491D01*
X99850Y-46391D02*
X99664Y-46391D01*
X99764Y-46525D01*
X99721Y-46525D01*
X99692Y-46541D01*
X99678Y-46558D01*
X99664Y-46591D01*
X99664Y-46675D01*
X99678Y-46708D01*
X99692Y-46725D01*
X99721Y-46741D01*
X99807Y-46741D01*
X99835Y-46725D01*
X99850Y-46708D01*
X99378Y-46741D02*
X99550Y-46741D01*
X99464Y-46741D02*
X99464Y-46391D01*
X99492Y-46441D01*
X99521Y-46475D01*
X99550Y-46491D01*
G54D10*
X99000Y-42584D02*
X99000Y-42793D01*
X99105Y-42689D02*
X98895Y-42689D01*
G54D12*
X84871Y-43014D02*
X84728Y-42914D01*
X84871Y-42842D02*
X84571Y-42842D01*
X84571Y-42957D01*
X84585Y-42985D01*
X84600Y-43000D01*
X84628Y-43014D01*
X84671Y-43014D01*
X84700Y-43000D01*
X84714Y-42985D01*
X84728Y-42957D01*
X84728Y-42842D01*
X84871Y-43300D02*
X84871Y-43128D01*
X84871Y-43214D02*
X84571Y-43214D01*
X84614Y-43185D01*
X84642Y-43157D01*
X84657Y-43128D01*
X84600Y-43414D02*
X84585Y-43428D01*
X84571Y-43457D01*
X84571Y-43528D01*
X84585Y-43557D01*
X84600Y-43571D01*
X84628Y-43585D01*
X84657Y-43585D01*
X84700Y-43571D01*
X84871Y-43400D01*
X84871Y-43585D01*
X84671Y-43842D02*
X84871Y-43842D01*
X84557Y-43771D02*
X84771Y-43700D01*
X84771Y-43885D01*
X84871Y-41464D02*
X84728Y-41364D01*
X84871Y-41292D02*
X84571Y-41292D01*
X84571Y-41407D01*
X84585Y-41435D01*
X84600Y-41450D01*
X84628Y-41464D01*
X84671Y-41464D01*
X84700Y-41450D01*
X84714Y-41435D01*
X84728Y-41407D01*
X84728Y-41292D01*
X84871Y-41750D02*
X84871Y-41578D01*
X84871Y-41664D02*
X84571Y-41664D01*
X84614Y-41635D01*
X84642Y-41607D01*
X84657Y-41578D01*
X84600Y-41864D02*
X84585Y-41878D01*
X84571Y-41907D01*
X84571Y-41978D01*
X84585Y-42007D01*
X84600Y-42021D01*
X84628Y-42035D01*
X84657Y-42035D01*
X84700Y-42021D01*
X84871Y-41850D01*
X84871Y-42035D01*
X84571Y-42135D02*
X84571Y-42321D01*
X84685Y-42221D01*
X84685Y-42264D01*
X84700Y-42292D01*
X84714Y-42307D01*
X84742Y-42321D01*
X84814Y-42321D01*
X84842Y-42307D01*
X84857Y-42292D01*
X84871Y-42264D01*
X84871Y-42178D01*
X84857Y-42150D01*
X84842Y-42135D01*
X73285Y-43521D02*
X73385Y-43378D01*
X73457Y-43521D02*
X73457Y-43221D01*
X73342Y-43221D01*
X73314Y-43235D01*
X73300Y-43250D01*
X73285Y-43278D01*
X73285Y-43321D01*
X73300Y-43350D01*
X73314Y-43364D01*
X73342Y-43378D01*
X73457Y-43378D01*
X73000Y-43521D02*
X73171Y-43521D01*
X73085Y-43521D02*
X73085Y-43221D01*
X73114Y-43264D01*
X73142Y-43292D01*
X73171Y-43307D01*
X72714Y-43521D02*
X72885Y-43521D01*
X72800Y-43521D02*
X72800Y-43221D01*
X72828Y-43264D01*
X72857Y-43292D01*
X72885Y-43307D01*
X72457Y-43321D02*
X72457Y-43521D01*
X72528Y-43207D02*
X72600Y-43421D01*
X72414Y-43421D01*
X73285Y-41971D02*
X73385Y-41828D01*
X73457Y-41971D02*
X73457Y-41671D01*
X73342Y-41671D01*
X73314Y-41685D01*
X73300Y-41700D01*
X73285Y-41728D01*
X73285Y-41771D01*
X73300Y-41800D01*
X73314Y-41814D01*
X73342Y-41828D01*
X73457Y-41828D01*
X73000Y-41971D02*
X73171Y-41971D01*
X73085Y-41971D02*
X73085Y-41671D01*
X73114Y-41714D01*
X73142Y-41742D01*
X73171Y-41757D01*
X72714Y-41971D02*
X72885Y-41971D01*
X72800Y-41971D02*
X72800Y-41671D01*
X72828Y-41714D01*
X72857Y-41742D01*
X72885Y-41757D01*
X72614Y-41671D02*
X72428Y-41671D01*
X72528Y-41785D01*
X72485Y-41785D01*
X72457Y-41800D01*
X72442Y-41814D01*
X72428Y-41842D01*
X72428Y-41914D01*
X72442Y-41942D01*
X72457Y-41957D01*
X72485Y-41971D01*
X72571Y-41971D01*
X72600Y-41957D01*
X72614Y-41942D01*
X77591Y-41464D02*
X77425Y-41364D01*
X77591Y-41292D02*
X77241Y-41292D01*
X77241Y-41407D01*
X77258Y-41435D01*
X77275Y-41450D01*
X77308Y-41464D01*
X77358Y-41464D01*
X77391Y-41450D01*
X77408Y-41435D01*
X77425Y-41407D01*
X77425Y-41292D01*
X77591Y-41750D02*
X77591Y-41578D01*
X77591Y-41664D02*
X77241Y-41664D01*
X77291Y-41635D01*
X77325Y-41607D01*
X77341Y-41578D01*
X77591Y-42035D02*
X77591Y-41864D01*
X77591Y-41950D02*
X77241Y-41950D01*
X77291Y-41921D01*
X77325Y-41892D01*
X77341Y-41864D01*
X77275Y-42150D02*
X77258Y-42164D01*
X77241Y-42192D01*
X77241Y-42264D01*
X77258Y-42292D01*
X77275Y-42307D01*
X77308Y-42321D01*
X77341Y-42321D01*
X77391Y-42307D01*
X77591Y-42135D01*
X77591Y-42321D01*
G54D10*
X77893Y-42812D02*
X77684Y-42812D01*
X77789Y-42917D02*
X77789Y-42707D01*
G54D12*
X81285Y-46691D02*
X81385Y-46525D01*
X81457Y-46691D02*
X81457Y-46341D01*
X81342Y-46341D01*
X81314Y-46358D01*
X81300Y-46375D01*
X81285Y-46408D01*
X81285Y-46458D01*
X81300Y-46491D01*
X81314Y-46508D01*
X81342Y-46525D01*
X81457Y-46525D01*
X81000Y-46691D02*
X81171Y-46691D01*
X81085Y-46691D02*
X81085Y-46341D01*
X81114Y-46391D01*
X81142Y-46425D01*
X81171Y-46441D01*
X80714Y-46691D02*
X80885Y-46691D01*
X80800Y-46691D02*
X80800Y-46341D01*
X80828Y-46391D01*
X80857Y-46425D01*
X80885Y-46441D01*
X80428Y-46691D02*
X80600Y-46691D01*
X80514Y-46691D02*
X80514Y-46341D01*
X80542Y-46391D01*
X80571Y-46425D01*
X80600Y-46441D01*
G54D10*
X79900Y-42484D02*
X79900Y-42693D01*
X80005Y-42589D02*
X79795Y-42589D01*
G54D12*
X88792Y-55621D02*
X88892Y-55478D01*
X88964Y-55621D02*
X88964Y-55321D01*
X88850Y-55321D01*
X88821Y-55335D01*
X88807Y-55350D01*
X88792Y-55378D01*
X88792Y-55421D01*
X88807Y-55450D01*
X88821Y-55464D01*
X88850Y-55478D01*
X88964Y-55478D01*
X88507Y-55621D02*
X88678Y-55621D01*
X88592Y-55621D02*
X88592Y-55321D01*
X88621Y-55364D01*
X88650Y-55392D01*
X88678Y-55407D01*
X88364Y-55621D02*
X88307Y-55621D01*
X88278Y-55607D01*
X88264Y-55592D01*
X88235Y-55550D01*
X88221Y-55492D01*
X88221Y-55378D01*
X88235Y-55350D01*
X88250Y-55335D01*
X88278Y-55321D01*
X88335Y-55321D01*
X88364Y-55335D01*
X88378Y-55350D01*
X88392Y-55378D01*
X88392Y-55450D01*
X88378Y-55478D01*
X88364Y-55492D01*
X88335Y-55507D01*
X88278Y-55507D01*
X88250Y-55492D01*
X88235Y-55478D01*
X88221Y-55450D01*
X90892Y-55571D02*
X90992Y-55428D01*
X91064Y-55571D02*
X91064Y-55271D01*
X90950Y-55271D01*
X90921Y-55285D01*
X90907Y-55300D01*
X90892Y-55328D01*
X90892Y-55371D01*
X90907Y-55400D01*
X90921Y-55414D01*
X90950Y-55428D01*
X91064Y-55428D01*
X90607Y-55571D02*
X90778Y-55571D01*
X90692Y-55571D02*
X90692Y-55271D01*
X90721Y-55314D01*
X90750Y-55342D01*
X90778Y-55357D01*
X90435Y-55400D02*
X90464Y-55385D01*
X90478Y-55371D01*
X90492Y-55342D01*
X90492Y-55328D01*
X90478Y-55300D01*
X90464Y-55285D01*
X90435Y-55271D01*
X90378Y-55271D01*
X90350Y-55285D01*
X90335Y-55300D01*
X90321Y-55328D01*
X90321Y-55342D01*
X90335Y-55371D01*
X90350Y-55385D01*
X90378Y-55400D01*
X90435Y-55400D01*
X90464Y-55414D01*
X90478Y-55428D01*
X90492Y-55457D01*
X90492Y-55514D01*
X90478Y-55542D01*
X90464Y-55557D01*
X90435Y-55571D01*
X90378Y-55571D01*
X90350Y-55557D01*
X90335Y-55542D01*
X90321Y-55514D01*
X90321Y-55457D01*
X90335Y-55428D01*
X90350Y-55414D01*
X90378Y-55400D01*
X92992Y-55621D02*
X93092Y-55478D01*
X93164Y-55621D02*
X93164Y-55321D01*
X93050Y-55321D01*
X93021Y-55335D01*
X93007Y-55350D01*
X92992Y-55378D01*
X92992Y-55421D01*
X93007Y-55450D01*
X93021Y-55464D01*
X93050Y-55478D01*
X93164Y-55478D01*
X92707Y-55621D02*
X92878Y-55621D01*
X92792Y-55621D02*
X92792Y-55321D01*
X92821Y-55364D01*
X92850Y-55392D01*
X92878Y-55407D01*
X92607Y-55321D02*
X92407Y-55321D01*
X92535Y-55621D01*
X95092Y-55571D02*
X95192Y-55428D01*
X95264Y-55571D02*
X95264Y-55271D01*
X95150Y-55271D01*
X95121Y-55285D01*
X95107Y-55300D01*
X95092Y-55328D01*
X95092Y-55371D01*
X95107Y-55400D01*
X95121Y-55414D01*
X95150Y-55428D01*
X95264Y-55428D01*
X94807Y-55571D02*
X94978Y-55571D01*
X94892Y-55571D02*
X94892Y-55271D01*
X94921Y-55314D01*
X94950Y-55342D01*
X94978Y-55357D01*
X94550Y-55271D02*
X94607Y-55271D01*
X94635Y-55285D01*
X94650Y-55300D01*
X94678Y-55342D01*
X94692Y-55400D01*
X94692Y-55514D01*
X94678Y-55542D01*
X94664Y-55557D01*
X94635Y-55571D01*
X94578Y-55571D01*
X94550Y-55557D01*
X94535Y-55542D01*
X94521Y-55514D01*
X94521Y-55442D01*
X94535Y-55414D01*
X94550Y-55400D01*
X94578Y-55385D01*
X94635Y-55385D01*
X94664Y-55400D01*
X94678Y-55414D01*
X94692Y-55442D01*
X90635Y-46791D02*
X90735Y-46625D01*
X90807Y-46791D02*
X90807Y-46441D01*
X90692Y-46441D01*
X90664Y-46458D01*
X90650Y-46475D01*
X90635Y-46508D01*
X90635Y-46558D01*
X90650Y-46591D01*
X90664Y-46608D01*
X90692Y-46625D01*
X90807Y-46625D01*
X90350Y-46791D02*
X90521Y-46791D01*
X90435Y-46791D02*
X90435Y-46441D01*
X90464Y-46491D01*
X90492Y-46525D01*
X90521Y-46541D01*
X90235Y-46475D02*
X90221Y-46458D01*
X90192Y-46441D01*
X90121Y-46441D01*
X90092Y-46458D01*
X90078Y-46475D01*
X90064Y-46508D01*
X90064Y-46541D01*
X90078Y-46591D01*
X90250Y-46791D01*
X90064Y-46791D01*
X89778Y-46791D02*
X89950Y-46791D01*
X89864Y-46791D02*
X89864Y-46441D01*
X89892Y-46491D01*
X89921Y-46525D01*
X89950Y-46541D01*
G54D10*
X89400Y-42584D02*
X89400Y-42793D01*
X89505Y-42689D02*
X89295Y-42689D01*
G54D12*
X86941Y-41664D02*
X86775Y-41564D01*
X86941Y-41492D02*
X86591Y-41492D01*
X86591Y-41607D01*
X86608Y-41635D01*
X86625Y-41650D01*
X86658Y-41664D01*
X86708Y-41664D01*
X86741Y-41650D01*
X86758Y-41635D01*
X86775Y-41607D01*
X86775Y-41492D01*
X86941Y-41950D02*
X86941Y-41778D01*
X86941Y-41864D02*
X86591Y-41864D01*
X86641Y-41835D01*
X86675Y-41807D01*
X86691Y-41778D01*
X86625Y-42064D02*
X86608Y-42078D01*
X86591Y-42107D01*
X86591Y-42178D01*
X86608Y-42207D01*
X86625Y-42221D01*
X86658Y-42235D01*
X86691Y-42235D01*
X86741Y-42221D01*
X86941Y-42050D01*
X86941Y-42235D01*
X86625Y-42350D02*
X86608Y-42364D01*
X86591Y-42392D01*
X86591Y-42464D01*
X86608Y-42492D01*
X86625Y-42507D01*
X86658Y-42521D01*
X86691Y-42521D01*
X86741Y-42507D01*
X86941Y-42335D01*
X86941Y-42521D01*
G54D10*
X87193Y-42912D02*
X86984Y-42912D01*
X87089Y-43017D02*
X87089Y-42807D01*
G54D15*
X97257Y-51392D02*
X97257Y-51878D01*
X97228Y-51935D01*
X97200Y-51964D01*
X97142Y-51992D01*
X97028Y-51992D01*
X96971Y-51964D01*
X96942Y-51935D01*
X96914Y-51878D01*
X96914Y-51392D01*
X96685Y-51392D02*
X96314Y-51392D01*
X96514Y-51621D01*
X96428Y-51621D01*
X96371Y-51650D01*
X96342Y-51678D01*
X96314Y-51735D01*
X96314Y-51878D01*
X96342Y-51935D01*
X96371Y-51964D01*
X96428Y-51992D01*
X96600Y-51992D01*
X96657Y-51964D01*
X96685Y-51935D01*
X90857Y-57892D02*
X90857Y-58378D01*
X90828Y-58435D01*
X90800Y-58464D01*
X90742Y-58492D01*
X90628Y-58492D01*
X90571Y-58464D01*
X90542Y-58435D01*
X90514Y-58378D01*
X90514Y-57892D01*
X90257Y-57950D02*
X90228Y-57921D01*
X90171Y-57892D01*
X90028Y-57892D01*
X89971Y-57921D01*
X89942Y-57950D01*
X89914Y-58007D01*
X89914Y-58064D01*
X89942Y-58150D01*
X90285Y-58492D01*
X89914Y-58492D01*
X108892Y-50314D02*
X108292Y-50314D01*
X108835Y-50942D02*
X108864Y-50914D01*
X108892Y-50828D01*
X108892Y-50771D01*
X108864Y-50685D01*
X108807Y-50628D01*
X108750Y-50600D01*
X108635Y-50571D01*
X108550Y-50571D01*
X108435Y-50600D01*
X108378Y-50628D01*
X108321Y-50685D01*
X108292Y-50771D01*
X108292Y-50828D01*
X108321Y-50914D01*
X108350Y-50942D01*
X108892Y-51514D02*
X108892Y-51171D01*
X108892Y-51342D02*
X108292Y-51342D01*
X108378Y-51285D01*
X108435Y-51228D01*
X108464Y-51171D01*
M02*
