G04 (created by PCBNEW (2013-jul-07)-stable) date ven. 28 nov. 2014 17:15:50 CET*
%MOIN*%
G04 Gerber Fmt 3.4, Leading zero omitted, Abs format*
%FSLAX34Y34*%
G01*
G70*
G90*
G04 APERTURE LIST*
%ADD10C,0.00590551*%
%ADD11C,0.015*%
%ADD12R,0.1X0.08*%
%ADD13O,0.098X0.176*%
%ADD14C,0.12*%
%ADD15C,0.075*%
%ADD16R,0.075X0.075*%
%ADD17C,0.1637*%
%ADD18R,0.0791X0.0791*%
%ADD19C,0.0791*%
%ADD20C,0.0987402*%
%ADD21C,0.09*%
%ADD22R,0.09X0.09*%
%ADD23R,0.08X0.08*%
%ADD24C,0.08*%
%ADD25R,0.0987X0.1381*%
G04 APERTURE END LIST*
G54D10*
G54D11*
X71500Y-62000D02*
X110900Y-62000D01*
X71500Y-28000D02*
X110900Y-28000D01*
X110900Y-28000D02*
X110800Y-28000D01*
X110900Y-62000D02*
X110900Y-28000D01*
X71500Y-62000D02*
X71500Y-28000D01*
G54D12*
X74400Y-42850D03*
X74400Y-41550D03*
G54D13*
X75490Y-32000D03*
X73520Y-32000D03*
G54D14*
X105700Y-47300D03*
X105700Y-44300D03*
X107700Y-47300D03*
X107700Y-44300D03*
X96100Y-47300D03*
X96100Y-44300D03*
X98100Y-47300D03*
X98100Y-44300D03*
X86500Y-47300D03*
X86500Y-44300D03*
X88500Y-47300D03*
X88500Y-44300D03*
X77300Y-47300D03*
X77300Y-44300D03*
X79300Y-47300D03*
X79300Y-44300D03*
G54D12*
X103000Y-43850D03*
X103000Y-42550D03*
X101700Y-43850D03*
X101700Y-42550D03*
G54D14*
X102700Y-40100D03*
X104700Y-40100D03*
X106700Y-40100D03*
X108700Y-40100D03*
G54D12*
X93500Y-43650D03*
X93500Y-42350D03*
X92200Y-43650D03*
X92200Y-42350D03*
G54D14*
X93300Y-40100D03*
X95300Y-40100D03*
X97300Y-40100D03*
X99300Y-40100D03*
G54D12*
X83900Y-43650D03*
X83900Y-42350D03*
X82600Y-43650D03*
X82600Y-42350D03*
G54D14*
X83900Y-40100D03*
X85900Y-40100D03*
X87900Y-40100D03*
X89900Y-40100D03*
G54D12*
X74400Y-43650D03*
X74400Y-44950D03*
G54D14*
X74600Y-40100D03*
X76600Y-40100D03*
X78600Y-40100D03*
X80600Y-40100D03*
G54D15*
X101200Y-38600D03*
X103200Y-38600D03*
G54D16*
X101850Y-35400D03*
G54D15*
X103350Y-35400D03*
X101200Y-37700D03*
X103200Y-37700D03*
X91800Y-38600D03*
X93800Y-38600D03*
G54D16*
X92450Y-35400D03*
G54D15*
X93950Y-35400D03*
X91800Y-37700D03*
X93800Y-37700D03*
X82500Y-38600D03*
X84500Y-38600D03*
G54D16*
X83250Y-35400D03*
G54D15*
X84750Y-35400D03*
X82500Y-37700D03*
X84500Y-37700D03*
X73600Y-38600D03*
X75600Y-38600D03*
G54D16*
X74050Y-35400D03*
G54D15*
X75550Y-35400D03*
X73600Y-37700D03*
X75600Y-37700D03*
G54D17*
X109338Y-58112D03*
X104665Y-58112D03*
G54D18*
X105250Y-55612D03*
G54D19*
X105750Y-54612D03*
X106250Y-55612D03*
X106750Y-54612D03*
X107250Y-55612D03*
X107750Y-54612D03*
X108250Y-55612D03*
X108750Y-54612D03*
G54D20*
X104250Y-60112D03*
X109700Y-60112D03*
G54D17*
X102738Y-58112D03*
X98065Y-58112D03*
G54D18*
X98650Y-55612D03*
G54D19*
X99150Y-54612D03*
X99650Y-55612D03*
X100150Y-54612D03*
X100650Y-55612D03*
X101150Y-54612D03*
X101650Y-55612D03*
X102150Y-54612D03*
G54D20*
X97650Y-60112D03*
X103100Y-60112D03*
G54D13*
X108490Y-32000D03*
X106520Y-32000D03*
X102990Y-32000D03*
X101020Y-32000D03*
X97490Y-32000D03*
X95520Y-32000D03*
X87490Y-32000D03*
X85520Y-32000D03*
G54D12*
X73000Y-56850D03*
X73000Y-55550D03*
X76600Y-56850D03*
X76600Y-55550D03*
X74200Y-56850D03*
X74200Y-55550D03*
X75400Y-56850D03*
X75400Y-55550D03*
G54D13*
X73500Y-59645D03*
X75015Y-59645D03*
X76531Y-59645D03*
X78047Y-59645D03*
X79562Y-59645D03*
G54D21*
X78800Y-37300D03*
X77500Y-36300D03*
G54D22*
X78800Y-35300D03*
G54D21*
X88100Y-37400D03*
X86800Y-36400D03*
G54D22*
X88100Y-35400D03*
G54D21*
X107000Y-37300D03*
X105700Y-36300D03*
G54D22*
X107000Y-35300D03*
G54D23*
X79100Y-54400D03*
G54D24*
X79100Y-53400D03*
X80100Y-54400D03*
X80100Y-53400D03*
X81100Y-54400D03*
X81100Y-53400D03*
X82100Y-54400D03*
X82100Y-53400D03*
X83100Y-54400D03*
X83100Y-53400D03*
X84100Y-54400D03*
X84100Y-53400D03*
X85100Y-54400D03*
X85100Y-53400D03*
X86100Y-54400D03*
X86100Y-53400D03*
G54D21*
X97600Y-37400D03*
X96300Y-36400D03*
G54D22*
X97600Y-35400D03*
G54D25*
X109681Y-49800D03*
X107319Y-49800D03*
X106281Y-49800D03*
X103919Y-49800D03*
G54D24*
X101700Y-49100D03*
X101700Y-45100D03*
X102700Y-49100D03*
X102700Y-45100D03*
X93000Y-49100D03*
X93000Y-45100D03*
X92000Y-49100D03*
X92000Y-45100D03*
X73800Y-50000D03*
X73800Y-46000D03*
X74700Y-50000D03*
X74700Y-46000D03*
X83300Y-49100D03*
X83300Y-45100D03*
X82300Y-49100D03*
X82300Y-45100D03*
M02*
