M48
;DRILL file {Pcbnew (2013-jul-07)-stable} date ven. 28 nov. 2014 17:15:53 CET
;FORMAT={-:-/ absolute / inch / decimal}
FMAT,2
INCH,TZ
T1C0.025
T2C0.032
T3C0.035
T4C0.040
T5C0.050
T6C0.051
T7C0.052
T8C0.055
T9C0.128
%
G90
G05
M72
T1
X7.295Y-5.47
X7.425Y-5.47
X7.54Y-5.47
X7.57Y-4.58
X7.655Y-5.475
X7.94Y-4.21
X8.21Y-5.71
X8.32Y-5.71
X8.44Y-4.53
X8.68Y-5.72
X8.88Y-4.2
X8.91Y-5.72
X9.4Y-4.51
X9.84Y-4.2
X10.36Y-4.55
X10.41Y-5.59
X10.52Y-4.96
X10.78Y-4.22
X10.85Y-4.96
X10.95Y-4.67
T2
X7.36Y-3.77
X7.36Y-3.86
X7.38Y-4.6
X7.38Y-5.
X7.405Y-3.54
X7.47Y-4.6
X7.47Y-5.
X7.555Y-3.54
X7.56Y-3.77
X7.56Y-3.86
X8.23Y-4.51
X8.23Y-4.91
X8.25Y-3.77
X8.25Y-3.86
X8.325Y-3.54
X8.33Y-4.51
X8.33Y-4.91
X8.45Y-3.77
X8.45Y-3.86
X8.475Y-3.54
X9.18Y-3.77
X9.18Y-3.86
X9.2Y-4.51
X9.2Y-4.91
X9.245Y-3.54
X9.3Y-4.51
X9.3Y-4.91
X9.38Y-3.77
X9.38Y-3.86
X9.395Y-3.54
X10.12Y-3.77
X10.12Y-3.86
X10.17Y-4.51
X10.17Y-4.91
X10.185Y-3.54
X10.27Y-4.51
X10.27Y-4.91
X10.32Y-3.77
X10.32Y-3.86
X10.335Y-3.54
T3
X9.865Y-5.5613
X9.915Y-5.4613
X9.965Y-5.5613
X10.015Y-5.4613
X10.065Y-5.5613
X10.115Y-5.4613
X10.165Y-5.5613
X10.215Y-5.4613
X10.525Y-5.5613
X10.575Y-5.4613
X10.625Y-5.5613
X10.675Y-5.4613
X10.725Y-5.5613
X10.775Y-5.4613
X10.825Y-5.5613
X10.875Y-5.4613
T4
X7.75Y-3.63
X7.88Y-3.53
X7.88Y-3.73
X7.91Y-5.34
X7.91Y-5.44
X8.01Y-5.34
X8.01Y-5.44
X8.11Y-5.34
X8.11Y-5.44
X8.21Y-5.34
X8.21Y-5.44
X8.31Y-5.34
X8.31Y-5.44
X8.41Y-5.34
X8.41Y-5.44
X8.51Y-5.34
X8.51Y-5.44
X8.61Y-5.34
X8.61Y-5.44
X8.68Y-3.64
X8.81Y-3.54
X8.81Y-3.74
X9.63Y-3.64
X9.76Y-3.54
X9.76Y-3.74
X10.57Y-3.63
X10.7Y-3.53
X10.7Y-3.73
T5
X7.46Y-4.01
X7.66Y-4.01
X7.86Y-4.01
X8.06Y-4.01
X8.39Y-4.01
X8.59Y-4.01
X8.79Y-4.01
X8.99Y-4.01
X9.33Y-4.01
X9.53Y-4.01
X9.73Y-4.01
X9.93Y-4.01
X10.27Y-4.01
X10.47Y-4.01
X10.67Y-4.01
X10.87Y-4.01
T6
X7.73Y-4.43
X7.73Y-4.73
X7.93Y-4.43
X7.93Y-4.73
X8.65Y-4.43
X8.65Y-4.73
X8.85Y-4.43
X8.85Y-4.73
X9.61Y-4.43
X9.61Y-4.73
X9.81Y-4.43
X9.81Y-4.73
X10.57Y-4.43
X10.57Y-4.73
X10.77Y-4.43
X10.77Y-4.73
T7
X7.35Y-5.9646
X7.352Y-3.2
X7.5016Y-5.9646
X7.549Y-3.2
X7.6531Y-5.9646
X7.8047Y-5.9646
X7.9563Y-5.9646
X8.552Y-3.2
X8.749Y-3.2
X9.552Y-3.2
X9.749Y-3.2
X10.102Y-3.2
X10.299Y-3.2
X10.652Y-3.2
X10.849Y-3.2
T8
X9.765Y-6.0113
X10.31Y-6.0113
X10.425Y-6.0113
X10.97Y-6.0113
T9
X9.8065Y-5.8113
X10.2738Y-5.8113
X10.4665Y-5.8113
X10.9338Y-5.8113
T0
M30
