G04 (created by PCBNEW (2013-jul-07)-stable) date ven. 28 nov. 2014 17:15:50 CET*
%MOIN*%
G04 Gerber Fmt 3.4, Leading zero omitted, Abs format*
%FSLAX34Y34*%
G01*
G70*
G90*
G04 APERTURE LIST*
%ADD10C,0.00590551*%
%ADD11C,0.015*%
%ADD12O,0.078X0.156*%
%ADD13R,0.06X0.08*%
%ADD14R,0.0787X0.1181*%
%ADD15R,0.1181X0.0787*%
%ADD16C,0.1*%
%ADD17C,0.055*%
%ADD18R,0.055X0.055*%
%ADD19C,0.1437*%
%ADD20R,0.0591X0.0591*%
%ADD21C,0.0591*%
%ADD22C,0.0787402*%
%ADD23C,0.07*%
%ADD24R,0.07X0.07*%
%ADD25R,0.06X0.06*%
%ADD26C,0.06*%
%ADD27R,0.0590551X0.0551181*%
%ADD28C,0.035*%
%ADD29C,0.0197*%
%ADD30C,0.1*%
%ADD31C,0.011811*%
%ADD32C,0.005*%
G04 APERTURE END LIST*
G54D10*
G54D11*
X71500Y-62000D02*
X110900Y-62000D01*
X71500Y-28000D02*
X110900Y-28000D01*
X110900Y-28000D02*
X110800Y-28000D01*
X110900Y-62000D02*
X110900Y-28000D01*
X71500Y-62000D02*
X71500Y-28000D01*
G54D12*
X75490Y-32000D03*
X73520Y-32000D03*
G54D13*
X102950Y-43300D03*
X101650Y-43300D03*
X102950Y-41800D03*
X101650Y-41800D03*
G54D14*
X106719Y-42100D03*
X109081Y-42100D03*
G54D15*
X109500Y-43419D03*
X109500Y-45781D03*
G54D13*
X93550Y-43300D03*
X92250Y-43300D03*
X93550Y-41800D03*
X92250Y-41800D03*
G54D14*
X97319Y-42000D03*
X99681Y-42000D03*
G54D15*
X99900Y-43319D03*
X99900Y-45681D03*
G54D13*
X83950Y-43300D03*
X82650Y-43300D03*
X83950Y-41800D03*
X82650Y-41800D03*
X75330Y-43400D03*
X74030Y-43400D03*
X75350Y-41800D03*
X74050Y-41800D03*
G54D14*
X78419Y-41900D03*
X80781Y-41900D03*
G54D15*
X80800Y-43219D03*
X80800Y-45581D03*
G54D13*
X87950Y-54600D03*
X89250Y-54600D03*
X90050Y-54600D03*
X91350Y-54600D03*
X93450Y-54600D03*
X92150Y-54600D03*
X95550Y-54600D03*
X94250Y-54600D03*
G54D16*
X105700Y-47300D03*
X105700Y-44300D03*
X107700Y-47300D03*
X107700Y-44300D03*
X96100Y-47300D03*
X96100Y-44300D03*
X98100Y-47300D03*
X98100Y-44300D03*
X86500Y-47300D03*
X86500Y-44300D03*
X88500Y-47300D03*
X88500Y-44300D03*
X77300Y-47300D03*
X77300Y-44300D03*
X79300Y-47300D03*
X79300Y-44300D03*
X102700Y-40100D03*
X104700Y-40100D03*
X106700Y-40100D03*
X108700Y-40100D03*
X93300Y-40100D03*
X95300Y-40100D03*
X97300Y-40100D03*
X99300Y-40100D03*
X83900Y-40100D03*
X85900Y-40100D03*
X87900Y-40100D03*
X89900Y-40100D03*
X74600Y-40100D03*
X76600Y-40100D03*
X78600Y-40100D03*
X80600Y-40100D03*
G54D17*
X101200Y-38600D03*
X103200Y-38600D03*
G54D18*
X101850Y-35400D03*
G54D17*
X103350Y-35400D03*
X101200Y-37700D03*
X103200Y-37700D03*
X91800Y-38600D03*
X93800Y-38600D03*
G54D18*
X92450Y-35400D03*
G54D17*
X93950Y-35400D03*
X91800Y-37700D03*
X93800Y-37700D03*
X82500Y-38600D03*
X84500Y-38600D03*
G54D18*
X83250Y-35400D03*
G54D17*
X84750Y-35400D03*
X82500Y-37700D03*
X84500Y-37700D03*
X73600Y-38600D03*
X75600Y-38600D03*
G54D18*
X74050Y-35400D03*
G54D17*
X75550Y-35400D03*
X73600Y-37700D03*
X75600Y-37700D03*
G54D19*
X109338Y-58112D03*
X104665Y-58112D03*
G54D20*
X105250Y-55612D03*
G54D21*
X105750Y-54612D03*
X106250Y-55612D03*
X106750Y-54612D03*
X107250Y-55612D03*
X107750Y-54612D03*
X108250Y-55612D03*
X108750Y-54612D03*
G54D22*
X104250Y-60112D03*
X109700Y-60112D03*
G54D19*
X102738Y-58112D03*
X98065Y-58112D03*
G54D20*
X98650Y-55612D03*
G54D21*
X99150Y-54612D03*
X99650Y-55612D03*
X100150Y-54612D03*
X100650Y-55612D03*
X101150Y-54612D03*
X101650Y-55612D03*
X102150Y-54612D03*
G54D22*
X97650Y-60112D03*
X103100Y-60112D03*
G54D12*
X108490Y-32000D03*
X106520Y-32000D03*
X102990Y-32000D03*
X101020Y-32000D03*
X97490Y-32000D03*
X95520Y-32000D03*
X87490Y-32000D03*
X85520Y-32000D03*
X73500Y-59645D03*
X75015Y-59645D03*
X76531Y-59645D03*
X78047Y-59645D03*
X79562Y-59645D03*
G54D23*
X78800Y-37300D03*
X77500Y-36300D03*
G54D24*
X78800Y-35300D03*
G54D23*
X88100Y-37400D03*
X86800Y-36400D03*
G54D24*
X88100Y-35400D03*
G54D23*
X107000Y-37300D03*
X105700Y-36300D03*
G54D24*
X107000Y-35300D03*
G54D25*
X79100Y-54400D03*
G54D26*
X79100Y-53400D03*
X80100Y-54400D03*
X80100Y-53400D03*
X81100Y-54400D03*
X81100Y-53400D03*
X82100Y-54400D03*
X82100Y-53400D03*
X83100Y-54400D03*
X83100Y-53400D03*
X84100Y-54400D03*
X84100Y-53400D03*
X85100Y-54400D03*
X85100Y-53400D03*
X86100Y-54400D03*
X86100Y-53400D03*
G54D15*
X90300Y-43319D03*
X90300Y-45681D03*
G54D14*
X87719Y-42000D03*
X90081Y-42000D03*
G54D23*
X97600Y-37400D03*
X96300Y-36400D03*
G54D24*
X97600Y-35400D03*
G54D27*
X95500Y-53450D03*
X94500Y-53450D03*
X93500Y-53450D03*
X92500Y-53450D03*
X91500Y-53450D03*
X90500Y-53450D03*
X89500Y-53450D03*
X88500Y-53450D03*
X88500Y-49950D03*
X89500Y-49950D03*
X90500Y-49950D03*
X91500Y-49950D03*
X92500Y-49950D03*
X93500Y-49950D03*
X94500Y-49950D03*
X95500Y-49950D03*
X89100Y-59950D03*
X88100Y-59950D03*
X87100Y-59950D03*
X86100Y-59950D03*
X85100Y-59950D03*
X84100Y-59950D03*
X83100Y-59950D03*
X82100Y-59950D03*
X82100Y-56450D03*
X83100Y-56450D03*
X84100Y-56450D03*
X85100Y-56450D03*
X86100Y-56450D03*
X87100Y-56450D03*
X88100Y-56450D03*
X89100Y-56450D03*
X106500Y-49150D03*
X107500Y-49150D03*
X107500Y-52650D03*
X106500Y-52650D03*
G54D26*
X101700Y-49100D03*
X101700Y-45100D03*
X102700Y-49100D03*
X102700Y-45100D03*
X93000Y-49100D03*
X93000Y-45100D03*
X92000Y-49100D03*
X92000Y-45100D03*
X73800Y-50000D03*
X73800Y-46000D03*
X74700Y-50000D03*
X74700Y-46000D03*
X83300Y-49100D03*
X83300Y-45100D03*
X82300Y-49100D03*
X82300Y-45100D03*
G54D28*
X89100Y-57200D03*
X86800Y-57200D03*
X83200Y-57100D03*
X82100Y-57100D03*
X109500Y-46700D03*
X75700Y-45800D03*
X108500Y-49600D03*
X105200Y-49600D03*
X103600Y-45500D03*
X107800Y-42200D03*
X84400Y-45300D03*
X88800Y-42000D03*
X94000Y-45100D03*
X98400Y-42000D03*
X72950Y-54700D03*
X74250Y-54700D03*
X75400Y-54700D03*
X76550Y-54750D03*
X79400Y-42100D03*
X104100Y-55900D03*
G54D29*
X86100Y-53400D02*
X86100Y-52800D01*
X86500Y-52800D02*
X86100Y-52800D01*
X86100Y-52800D02*
X85200Y-52800D01*
X85200Y-52800D02*
X85100Y-52900D01*
X85100Y-52900D02*
X85100Y-53400D01*
X89500Y-53450D02*
X89500Y-52800D01*
X91500Y-53450D02*
X91500Y-52800D01*
X93500Y-53450D02*
X93500Y-52800D01*
X95500Y-53000D02*
X95500Y-53450D01*
X95300Y-52800D02*
X95500Y-53000D01*
X86500Y-52800D02*
X89500Y-52800D01*
X89500Y-52800D02*
X91500Y-52800D01*
X91500Y-52800D02*
X93500Y-52800D01*
X93500Y-52800D02*
X95300Y-52800D01*
G54D30*
X78600Y-40100D02*
X78600Y-39500D01*
X77500Y-38400D02*
X77500Y-36300D01*
X78600Y-39500D02*
X77500Y-38400D01*
X76600Y-40100D02*
X76600Y-43800D01*
X76600Y-43800D02*
X77300Y-44300D01*
X79300Y-44300D02*
X77300Y-44300D01*
X80600Y-40100D02*
X80600Y-34000D01*
X82600Y-32000D02*
X85520Y-32000D01*
X80600Y-34000D02*
X82600Y-32000D01*
X78200Y-34700D02*
X78800Y-35300D01*
X76000Y-34700D02*
X78200Y-34700D01*
X75550Y-35150D02*
X76000Y-34700D01*
X75550Y-35400D02*
X75550Y-35150D01*
X75550Y-35400D02*
X75550Y-37650D01*
X75550Y-37650D02*
X75600Y-37700D01*
X75600Y-37700D02*
X75600Y-38600D01*
G54D31*
X75350Y-41800D02*
X75350Y-40850D01*
X75350Y-40850D02*
X74600Y-40100D01*
G54D30*
X75600Y-38600D02*
X75600Y-37700D01*
X75550Y-35350D02*
X75550Y-35400D01*
X75550Y-35400D02*
X75550Y-35350D01*
X86800Y-36400D02*
X86800Y-38200D01*
X87900Y-39300D02*
X87900Y-40100D01*
X86800Y-38200D02*
X87900Y-39300D01*
X86500Y-44300D02*
X86500Y-44100D01*
X85900Y-43500D02*
X85900Y-40100D01*
X86500Y-44100D02*
X85900Y-43500D01*
X86500Y-44300D02*
X88500Y-44300D01*
X90100Y-33900D02*
X90100Y-39900D01*
X90100Y-39900D02*
X89900Y-40100D01*
X91700Y-32000D02*
X95520Y-32000D01*
X90100Y-33900D02*
X90100Y-33600D01*
X90100Y-33600D02*
X91700Y-32000D01*
G54D31*
X83950Y-41800D02*
X83950Y-40150D01*
X83950Y-40150D02*
X83900Y-40100D01*
G54D30*
X84500Y-38600D02*
X84500Y-37700D01*
G54D31*
X83950Y-41500D02*
X83950Y-40150D01*
X83950Y-40150D02*
X83900Y-40100D01*
X83950Y-40150D02*
X83900Y-40100D01*
X83950Y-40150D02*
X83900Y-40100D01*
G54D30*
X97300Y-40100D02*
X97300Y-39500D01*
X96300Y-38500D02*
X96300Y-36400D01*
X97300Y-39500D02*
X96300Y-38500D01*
X96100Y-44300D02*
X98100Y-44300D01*
X95300Y-40100D02*
X95300Y-43500D01*
X95300Y-43500D02*
X96100Y-44300D01*
X101020Y-32000D02*
X100900Y-32000D01*
X99600Y-39800D02*
X99300Y-40100D01*
X99600Y-33300D02*
X99600Y-39800D01*
X100900Y-32000D02*
X99600Y-33300D01*
X93950Y-35400D02*
X94650Y-34700D01*
X94900Y-34700D02*
X96900Y-34700D01*
X96900Y-34700D02*
X97600Y-35400D01*
X94650Y-34700D02*
X94900Y-34700D01*
X93800Y-37700D02*
X93950Y-37550D01*
X93950Y-37550D02*
X93950Y-35400D01*
G54D31*
X93550Y-41600D02*
X93550Y-40350D01*
X93550Y-40350D02*
X93300Y-40100D01*
G54D30*
X93800Y-38600D02*
X93800Y-37700D01*
X93300Y-40100D02*
X93300Y-39800D01*
X93800Y-39300D02*
X93800Y-38600D01*
X93300Y-39800D02*
X93800Y-39300D01*
X105700Y-36300D02*
X105700Y-38300D01*
X106700Y-39300D02*
X106700Y-40100D01*
X105700Y-38300D02*
X106700Y-39300D01*
X105700Y-44400D02*
X107700Y-44400D01*
X104700Y-40100D02*
X104700Y-43400D01*
X104700Y-43400D02*
X105700Y-44400D01*
X108700Y-40100D02*
X108700Y-34700D01*
X108700Y-34700D02*
X108700Y-34800D01*
X108700Y-34800D02*
X108700Y-34700D01*
X106520Y-32520D02*
X106520Y-32000D01*
X108700Y-34700D02*
X106520Y-32520D01*
X103350Y-35400D02*
X104150Y-34600D01*
X104600Y-34600D02*
X106300Y-34600D01*
X106300Y-34600D02*
X107000Y-35300D01*
X104150Y-34600D02*
X104600Y-34600D01*
X103350Y-35400D02*
X103200Y-35550D01*
X103200Y-35550D02*
X103200Y-37700D01*
G54D31*
X103200Y-38600D02*
X103200Y-37700D01*
X102950Y-41700D02*
X102950Y-40350D01*
X102950Y-40350D02*
X102700Y-40100D01*
G54D30*
X102700Y-40100D02*
X102700Y-39800D01*
X103200Y-39300D02*
X103200Y-37700D01*
X102700Y-39800D02*
X103200Y-39300D01*
X103200Y-37700D02*
X103130Y-37630D01*
G54D31*
X89100Y-57200D02*
X89100Y-56450D01*
X87100Y-56450D02*
X87100Y-56900D01*
X87100Y-56900D02*
X86800Y-57200D01*
X85100Y-56450D02*
X85100Y-56900D01*
X84900Y-57100D02*
X83200Y-57100D01*
X85100Y-56900D02*
X84900Y-57100D01*
X83100Y-56450D02*
X83100Y-56600D01*
X82600Y-57100D02*
X82100Y-57100D01*
X83100Y-56600D02*
X82600Y-57100D01*
G54D29*
X86100Y-59950D02*
X86100Y-59300D01*
X84100Y-59950D02*
X84100Y-59400D01*
X88100Y-59500D02*
X88100Y-59950D01*
X87900Y-59300D02*
X88100Y-59500D01*
X84200Y-59300D02*
X86100Y-59300D01*
X86100Y-59300D02*
X87900Y-59300D01*
X84100Y-59400D02*
X84200Y-59300D01*
X82100Y-59950D02*
X82100Y-60245D01*
X84100Y-60200D02*
X84100Y-59950D01*
X83754Y-60545D02*
X84100Y-60200D01*
X82400Y-60545D02*
X83754Y-60545D01*
X82100Y-60245D02*
X82400Y-60545D01*
X82100Y-59950D02*
X79867Y-59950D01*
X79867Y-59950D02*
X79562Y-59645D01*
G54D30*
X72400Y-45800D02*
X72400Y-47200D01*
X76700Y-47900D02*
X77300Y-47300D01*
X73100Y-47900D02*
X76700Y-47900D01*
X72400Y-47200D02*
X73100Y-47900D01*
X98100Y-47300D02*
X105700Y-47300D01*
X105700Y-47300D02*
X107700Y-47300D01*
X88500Y-47300D02*
X96100Y-47300D01*
X96100Y-47300D02*
X98100Y-47300D01*
X79300Y-47300D02*
X86500Y-47300D01*
X72400Y-45800D02*
X72400Y-33120D01*
X72400Y-33120D02*
X73520Y-32000D01*
X87200Y-47300D02*
X79300Y-47300D01*
X79300Y-47300D02*
X77300Y-47300D01*
X86500Y-47300D02*
X88500Y-47300D01*
G54D29*
X95100Y-45800D02*
X94810Y-45800D01*
X90729Y-46110D02*
X90300Y-45681D01*
X94500Y-46110D02*
X90729Y-46110D01*
X94810Y-45800D02*
X94500Y-46110D01*
X90300Y-45681D02*
X85429Y-45681D01*
X85429Y-45681D02*
X85000Y-46110D01*
X85000Y-46110D02*
X81329Y-46110D01*
X81329Y-46110D02*
X80800Y-45581D01*
X105400Y-45750D02*
X104460Y-45750D01*
X100329Y-46110D02*
X99900Y-45681D01*
X104100Y-46110D02*
X100329Y-46110D01*
X104460Y-45750D02*
X104100Y-46110D01*
X109469Y-45750D02*
X109500Y-45781D01*
X105400Y-45750D02*
X109469Y-45750D01*
X99781Y-45800D02*
X99900Y-45681D01*
X95100Y-45800D02*
X99781Y-45800D01*
X109500Y-46700D02*
X109500Y-45781D01*
G54D30*
X75490Y-32000D02*
X75490Y-31510D01*
X77200Y-29800D02*
X87490Y-29800D01*
X75490Y-31510D02*
X77200Y-29800D01*
X102990Y-32000D02*
X102990Y-29800D01*
X102900Y-30000D02*
X102900Y-29800D01*
X102900Y-29890D02*
X102900Y-30000D01*
X102990Y-29800D02*
X102900Y-29890D01*
X97490Y-32000D02*
X97490Y-29800D01*
X97400Y-30100D02*
X97400Y-29800D01*
X97400Y-29890D02*
X97400Y-30100D01*
X97490Y-29800D02*
X97400Y-29890D01*
X87490Y-32000D02*
X87490Y-29800D01*
X87400Y-30000D02*
X87400Y-29800D01*
X87490Y-29800D02*
X87400Y-29890D01*
X87400Y-29890D02*
X87400Y-30000D01*
X108490Y-32000D02*
X108490Y-30690D01*
X107600Y-29800D02*
X102900Y-29800D01*
X102900Y-29800D02*
X97400Y-29800D01*
X97400Y-29800D02*
X87400Y-29800D01*
X108490Y-30690D02*
X107600Y-29800D01*
G54D29*
X81000Y-45481D02*
X81000Y-45901D01*
G54D31*
X93500Y-49950D02*
X93500Y-49600D01*
X93500Y-49600D02*
X93000Y-49100D01*
X100100Y-50600D02*
X101600Y-50600D01*
X102700Y-49500D02*
X102700Y-49100D01*
X101600Y-50600D02*
X102700Y-49500D01*
X94500Y-49950D02*
X94500Y-50300D01*
X94500Y-50300D02*
X94800Y-50600D01*
X94800Y-50600D02*
X100100Y-50600D01*
X95500Y-49950D02*
X100850Y-49950D01*
X100850Y-49950D02*
X101700Y-49100D01*
X92500Y-49950D02*
X92500Y-49600D01*
X92500Y-49600D02*
X92000Y-49100D01*
X92500Y-49600D02*
X92000Y-49100D01*
X82300Y-49100D02*
X82300Y-49400D01*
X90200Y-49300D02*
X90500Y-49600D01*
X90500Y-49600D02*
X90500Y-49950D01*
X85300Y-49300D02*
X90200Y-49300D01*
X84900Y-49700D02*
X85300Y-49300D01*
X82600Y-49700D02*
X84900Y-49700D01*
X82300Y-49400D02*
X82600Y-49700D01*
X91500Y-49400D02*
X91500Y-49950D01*
X91100Y-49000D02*
X91500Y-49400D01*
X83500Y-49000D02*
X91100Y-49000D01*
X75330Y-43400D02*
X75330Y-45430D01*
X75330Y-45430D02*
X75700Y-45800D01*
X75450Y-45550D02*
X75700Y-45800D01*
X75450Y-45550D02*
X75700Y-45800D01*
G54D29*
X108050Y-49150D02*
X107500Y-49150D01*
X108500Y-49600D02*
X108050Y-49150D01*
X106350Y-49300D02*
X106500Y-49150D01*
X105500Y-49300D02*
X106350Y-49300D01*
X105200Y-49600D02*
X105500Y-49300D01*
G54D31*
X102950Y-43300D02*
X102950Y-43850D01*
X103600Y-44500D02*
X103600Y-45500D01*
X102950Y-43850D02*
X103600Y-44500D01*
X107700Y-42100D02*
X106719Y-42100D01*
X107800Y-42200D02*
X107700Y-42100D01*
X83950Y-43000D02*
X83950Y-44850D01*
X83950Y-44850D02*
X84400Y-45300D01*
X88800Y-42000D02*
X87719Y-42000D01*
X87700Y-42000D02*
X87719Y-42000D01*
X93550Y-43000D02*
X93550Y-44650D01*
X93550Y-44650D02*
X94000Y-45100D01*
X98400Y-42000D02*
X97319Y-42000D01*
X94500Y-53450D02*
X94500Y-54350D01*
X94500Y-54350D02*
X94250Y-54600D01*
X92500Y-53450D02*
X92500Y-54300D01*
X92500Y-54300D02*
X92100Y-54700D01*
X90500Y-53450D02*
X90500Y-53850D01*
X90500Y-53850D02*
X91300Y-54650D01*
X88500Y-53450D02*
X88500Y-53950D01*
X88500Y-53950D02*
X89200Y-54650D01*
X72400Y-57750D02*
X72400Y-55250D01*
X72400Y-55250D02*
X72950Y-54700D01*
X89100Y-61000D02*
X89100Y-59950D01*
X88600Y-61500D02*
X89100Y-61000D01*
X73500Y-61500D02*
X88600Y-61500D01*
X72400Y-60400D02*
X73500Y-61500D01*
X72400Y-57750D02*
X72400Y-60400D01*
X74300Y-56250D02*
X74300Y-54750D01*
X74300Y-54750D02*
X74250Y-54700D01*
X87100Y-60800D02*
X87100Y-59950D01*
X86700Y-61200D02*
X87100Y-60800D01*
X74700Y-61200D02*
X86700Y-61200D01*
X74300Y-60800D02*
X74700Y-61200D01*
X74300Y-56250D02*
X74300Y-60800D01*
X75800Y-57650D02*
X75800Y-55100D01*
X75800Y-55100D02*
X75400Y-54700D01*
X85100Y-60500D02*
X85100Y-59950D01*
X84700Y-60900D02*
X85100Y-60500D01*
X76000Y-60900D02*
X84700Y-60900D01*
X75800Y-60700D02*
X76000Y-60900D01*
X75800Y-57650D02*
X75800Y-60700D01*
X76600Y-57400D02*
X76600Y-58100D01*
X80100Y-58400D02*
X80850Y-59150D01*
X76900Y-58400D02*
X80100Y-58400D01*
X76600Y-58100D02*
X76900Y-58400D01*
X76600Y-57400D02*
X76600Y-54800D01*
X76600Y-54800D02*
X76550Y-54750D01*
X83100Y-59600D02*
X83100Y-59950D01*
X82700Y-59200D02*
X83100Y-59600D01*
X80900Y-59200D02*
X82700Y-59200D01*
X80850Y-59150D02*
X80900Y-59200D01*
X81000Y-43119D02*
X81000Y-42119D01*
X81000Y-42119D02*
X80781Y-41900D01*
X109081Y-42100D02*
X109081Y-43000D01*
X109081Y-43000D02*
X109500Y-43419D01*
X78419Y-41900D02*
X79200Y-41900D01*
X79200Y-41900D02*
X79400Y-42100D01*
X90300Y-43319D02*
X90300Y-42219D01*
X90300Y-42219D02*
X90081Y-42000D01*
X99681Y-42000D02*
X99681Y-43100D01*
X99681Y-43100D02*
X99900Y-43319D01*
X88500Y-49950D02*
X88350Y-49950D01*
X74800Y-50100D02*
X74700Y-50000D01*
X88200Y-50100D02*
X74800Y-50100D01*
X88350Y-49950D02*
X88200Y-50100D01*
X74600Y-50600D02*
X74400Y-50600D01*
X89100Y-50600D02*
X74600Y-50600D01*
X89500Y-50200D02*
X89100Y-50600D01*
X89500Y-49950D02*
X89500Y-50200D01*
X74400Y-50600D02*
X73800Y-50000D01*
X81000Y-55800D02*
X80300Y-55800D01*
X79100Y-54600D02*
X79100Y-54400D01*
X80300Y-55800D02*
X79100Y-54600D01*
X93800Y-55800D02*
X95000Y-55800D01*
X81000Y-55800D02*
X93800Y-55800D01*
X95550Y-55250D02*
X95550Y-54600D01*
X95000Y-55800D02*
X95550Y-55250D01*
X74050Y-35400D02*
X74050Y-37150D01*
X74050Y-37150D02*
X73600Y-37700D01*
X74030Y-43400D02*
X74030Y-44030D01*
X74700Y-44700D02*
X74700Y-46000D01*
X74030Y-44030D02*
X74700Y-44700D01*
X73600Y-38600D02*
X73600Y-41350D01*
X73600Y-41350D02*
X74050Y-41800D01*
X74050Y-41800D02*
X74050Y-43380D01*
X74050Y-43380D02*
X74030Y-43400D01*
X80100Y-54400D02*
X80100Y-55000D01*
X80100Y-55000D02*
X80650Y-55550D01*
X92550Y-55550D02*
X93400Y-54700D01*
X80650Y-55550D02*
X92550Y-55550D01*
X82500Y-37400D02*
X82500Y-36150D01*
X82500Y-36150D02*
X83250Y-35400D01*
X82500Y-37700D02*
X82500Y-37400D01*
X82650Y-43300D02*
X82650Y-44750D01*
X82650Y-44750D02*
X82300Y-45100D01*
X82500Y-38600D02*
X82500Y-41650D01*
X82500Y-41650D02*
X82650Y-41800D01*
X82650Y-43300D02*
X82650Y-41800D01*
X81100Y-54400D02*
X81100Y-55000D01*
X90000Y-55100D02*
X90000Y-54650D01*
X89800Y-55300D02*
X90000Y-55100D01*
X81400Y-55300D02*
X89800Y-55300D01*
X81100Y-55000D02*
X81400Y-55300D01*
X92450Y-35400D02*
X91800Y-36050D01*
X91800Y-36050D02*
X91800Y-37700D01*
X92250Y-43300D02*
X92250Y-44850D01*
X92250Y-44850D02*
X92000Y-45100D01*
X91800Y-38600D02*
X91800Y-41350D01*
X91800Y-41350D02*
X92250Y-41800D01*
X92250Y-41800D02*
X92250Y-43300D01*
X82100Y-54400D02*
X82100Y-54700D01*
X87550Y-55000D02*
X87950Y-54600D01*
X82400Y-55000D02*
X87550Y-55000D01*
X82100Y-54700D02*
X82400Y-55000D01*
X101850Y-35400D02*
X101200Y-36050D01*
X101200Y-36050D02*
X101200Y-37700D01*
X101650Y-43300D02*
X101650Y-44050D01*
X101650Y-44050D02*
X102700Y-45100D01*
X101200Y-41250D02*
X101650Y-41700D01*
X101200Y-38600D02*
X101200Y-41250D01*
X101650Y-41700D02*
X101650Y-43100D01*
X99650Y-55612D02*
X99650Y-56050D01*
X103800Y-56200D02*
X104100Y-55900D01*
X99800Y-56200D02*
X103800Y-56200D01*
X99650Y-56050D02*
X99800Y-56200D01*
X98650Y-55612D02*
X98650Y-55850D01*
X104362Y-56500D02*
X105250Y-55612D01*
X99300Y-56500D02*
X104362Y-56500D01*
X98650Y-55850D02*
X99300Y-56500D01*
X83100Y-53400D02*
X83100Y-53000D01*
X106350Y-52500D02*
X106500Y-52650D01*
X83600Y-52500D02*
X106350Y-52500D01*
X83100Y-53000D02*
X83600Y-52500D01*
G54D10*
G36*
X110375Y-60675D02*
X110181Y-60675D01*
X110181Y-57945D01*
X110053Y-57635D01*
X109816Y-57397D01*
X109506Y-57269D01*
X109170Y-57268D01*
X109170Y-57269D01*
X109170Y-54529D01*
X109106Y-54374D01*
X108988Y-54256D01*
X108834Y-54192D01*
X108666Y-54192D01*
X108512Y-54255D01*
X108393Y-54374D01*
X108329Y-54528D01*
X108329Y-54695D01*
X108393Y-54850D01*
X108511Y-54968D01*
X108665Y-55033D01*
X108833Y-55033D01*
X108987Y-54969D01*
X109106Y-54851D01*
X109170Y-54696D01*
X109170Y-54529D01*
X109170Y-57269D01*
X108860Y-57397D01*
X108670Y-57587D01*
X108670Y-55529D01*
X108606Y-55374D01*
X108488Y-55256D01*
X108334Y-55192D01*
X108166Y-55192D01*
X108012Y-55255D01*
X107893Y-55374D01*
X107829Y-55528D01*
X107829Y-55695D01*
X107893Y-55850D01*
X108011Y-55968D01*
X108165Y-56033D01*
X108333Y-56033D01*
X108487Y-55969D01*
X108606Y-55851D01*
X108670Y-55696D01*
X108670Y-55529D01*
X108670Y-57587D01*
X108623Y-57634D01*
X108494Y-57944D01*
X108494Y-58279D01*
X108622Y-58589D01*
X108859Y-58827D01*
X109169Y-58955D01*
X109505Y-58956D01*
X109815Y-58828D01*
X110052Y-58591D01*
X110181Y-58281D01*
X110181Y-57945D01*
X110181Y-60675D01*
X107670Y-60675D01*
X107670Y-55529D01*
X107606Y-55374D01*
X107488Y-55256D01*
X107334Y-55192D01*
X107166Y-55192D01*
X107012Y-55255D01*
X106893Y-55374D01*
X106829Y-55528D01*
X106829Y-55695D01*
X106893Y-55850D01*
X107011Y-55968D01*
X107165Y-56033D01*
X107333Y-56033D01*
X107487Y-55969D01*
X107606Y-55851D01*
X107670Y-55696D01*
X107670Y-55529D01*
X107670Y-60675D01*
X106670Y-60675D01*
X106670Y-55529D01*
X106606Y-55374D01*
X106488Y-55256D01*
X106334Y-55192D01*
X106166Y-55192D01*
X106012Y-55255D01*
X105893Y-55374D01*
X105829Y-55528D01*
X105829Y-55695D01*
X105893Y-55850D01*
X106011Y-55968D01*
X106165Y-56033D01*
X106333Y-56033D01*
X106487Y-55969D01*
X106606Y-55851D01*
X106670Y-55696D01*
X106670Y-55529D01*
X106670Y-60675D01*
X105670Y-60675D01*
X105670Y-55883D01*
X105670Y-55292D01*
X105651Y-55246D01*
X105616Y-55211D01*
X105570Y-55192D01*
X105520Y-55192D01*
X104929Y-55192D01*
X104883Y-55211D01*
X104848Y-55246D01*
X104829Y-55292D01*
X104829Y-55341D01*
X104829Y-55772D01*
X104286Y-56315D01*
X103944Y-56315D01*
X104060Y-56199D01*
X104159Y-56200D01*
X104269Y-56154D01*
X104354Y-56070D01*
X104399Y-55959D01*
X104400Y-55840D01*
X104354Y-55730D01*
X104270Y-55645D01*
X104159Y-55600D01*
X104040Y-55599D01*
X103930Y-55645D01*
X103845Y-55729D01*
X103800Y-55840D01*
X103799Y-55939D01*
X103723Y-56015D01*
X102570Y-56015D01*
X102570Y-54529D01*
X102506Y-54374D01*
X102388Y-54256D01*
X102234Y-54192D01*
X102066Y-54192D01*
X101912Y-54255D01*
X101793Y-54374D01*
X101729Y-54528D01*
X101729Y-54695D01*
X101793Y-54850D01*
X101911Y-54968D01*
X102065Y-55033D01*
X102233Y-55033D01*
X102387Y-54969D01*
X102506Y-54851D01*
X102570Y-54696D01*
X102570Y-54529D01*
X102570Y-56015D01*
X101774Y-56015D01*
X101887Y-55969D01*
X102006Y-55851D01*
X102070Y-55696D01*
X102070Y-55529D01*
X102006Y-55374D01*
X101888Y-55256D01*
X101734Y-55192D01*
X101566Y-55192D01*
X101412Y-55255D01*
X101293Y-55374D01*
X101229Y-55528D01*
X101229Y-55695D01*
X101293Y-55850D01*
X101411Y-55968D01*
X101524Y-56015D01*
X100774Y-56015D01*
X100887Y-55969D01*
X101006Y-55851D01*
X101070Y-55696D01*
X101070Y-55529D01*
X101006Y-55374D01*
X100888Y-55256D01*
X100734Y-55192D01*
X100566Y-55192D01*
X100412Y-55255D01*
X100293Y-55374D01*
X100229Y-55528D01*
X100229Y-55695D01*
X100293Y-55850D01*
X100411Y-55968D01*
X100524Y-56015D01*
X99876Y-56015D01*
X99846Y-55986D01*
X99887Y-55969D01*
X100006Y-55851D01*
X100070Y-55696D01*
X100070Y-55529D01*
X100006Y-55374D01*
X99888Y-55256D01*
X99734Y-55192D01*
X99566Y-55192D01*
X99412Y-55255D01*
X99293Y-55374D01*
X99229Y-55528D01*
X99229Y-55695D01*
X99293Y-55850D01*
X99411Y-55968D01*
X99465Y-55991D01*
X99465Y-56050D01*
X99479Y-56120D01*
X99519Y-56180D01*
X99655Y-56315D01*
X99376Y-56315D01*
X99045Y-55985D01*
X99051Y-55978D01*
X99070Y-55933D01*
X99070Y-55883D01*
X99070Y-55292D01*
X99051Y-55246D01*
X99016Y-55211D01*
X98970Y-55192D01*
X98920Y-55192D01*
X98329Y-55192D01*
X98283Y-55211D01*
X98248Y-55246D01*
X98229Y-55292D01*
X98229Y-55341D01*
X98229Y-55932D01*
X98248Y-55978D01*
X98283Y-56014D01*
X98329Y-56033D01*
X98379Y-56033D01*
X98572Y-56033D01*
X99169Y-56630D01*
X99169Y-56630D01*
X99229Y-56670D01*
X99300Y-56684D01*
X104362Y-56684D01*
X104362Y-56684D01*
X104433Y-56670D01*
X104433Y-56670D01*
X104492Y-56630D01*
X105089Y-56033D01*
X105570Y-56033D01*
X105616Y-56014D01*
X105651Y-55978D01*
X105670Y-55933D01*
X105670Y-55883D01*
X105670Y-60675D01*
X105508Y-60675D01*
X105508Y-57945D01*
X105380Y-57635D01*
X105143Y-57397D01*
X104833Y-57269D01*
X104497Y-57268D01*
X104187Y-57397D01*
X103950Y-57634D01*
X103821Y-57944D01*
X103821Y-58279D01*
X103949Y-58589D01*
X104186Y-58827D01*
X104496Y-58955D01*
X104832Y-58956D01*
X105142Y-58828D01*
X105379Y-58591D01*
X105508Y-58281D01*
X105508Y-57945D01*
X105508Y-60675D01*
X103581Y-60675D01*
X103581Y-57945D01*
X103453Y-57635D01*
X103216Y-57397D01*
X102906Y-57269D01*
X102570Y-57268D01*
X102260Y-57397D01*
X102023Y-57634D01*
X101894Y-57944D01*
X101894Y-58279D01*
X102022Y-58589D01*
X102259Y-58827D01*
X102569Y-58955D01*
X102905Y-58956D01*
X103215Y-58828D01*
X103452Y-58591D01*
X103581Y-58281D01*
X103581Y-57945D01*
X103581Y-60675D01*
X98908Y-60675D01*
X98908Y-57945D01*
X98780Y-57635D01*
X98543Y-57397D01*
X98233Y-57269D01*
X97897Y-57268D01*
X97587Y-57397D01*
X97350Y-57634D01*
X97221Y-57944D01*
X97221Y-58279D01*
X97349Y-58589D01*
X97586Y-58827D01*
X97896Y-58955D01*
X98232Y-58956D01*
X98542Y-58828D01*
X98779Y-58591D01*
X98908Y-58281D01*
X98908Y-57945D01*
X98908Y-60675D01*
X95975Y-60675D01*
X95975Y-54975D01*
X95975Y-54175D01*
X95956Y-54129D01*
X95920Y-54094D01*
X95874Y-54075D01*
X95825Y-54074D01*
X95225Y-54074D01*
X95179Y-54093D01*
X95144Y-54129D01*
X95125Y-54175D01*
X95124Y-54224D01*
X95124Y-55024D01*
X95143Y-55070D01*
X95179Y-55105D01*
X95225Y-55124D01*
X95274Y-55125D01*
X95365Y-55125D01*
X95365Y-55173D01*
X94923Y-55615D01*
X93800Y-55615D01*
X92744Y-55615D01*
X93235Y-55125D01*
X93774Y-55125D01*
X93820Y-55106D01*
X93850Y-55076D01*
X93879Y-55105D01*
X93925Y-55124D01*
X93974Y-55125D01*
X94574Y-55125D01*
X94620Y-55106D01*
X94655Y-55070D01*
X94674Y-55024D01*
X94675Y-54975D01*
X94675Y-54395D01*
X94675Y-54395D01*
X94684Y-54350D01*
X94684Y-54350D01*
X94684Y-53850D01*
X94820Y-53850D01*
X94865Y-53831D01*
X94901Y-53796D01*
X94920Y-53750D01*
X94920Y-53700D01*
X94920Y-53149D01*
X94901Y-53103D01*
X94866Y-53068D01*
X94820Y-53049D01*
X94770Y-53049D01*
X94179Y-53049D01*
X94134Y-53068D01*
X94098Y-53103D01*
X94079Y-53149D01*
X94079Y-53199D01*
X94079Y-53750D01*
X94098Y-53796D01*
X94133Y-53831D01*
X94179Y-53850D01*
X94229Y-53850D01*
X94315Y-53850D01*
X94315Y-54074D01*
X93925Y-54074D01*
X93879Y-54093D01*
X93849Y-54123D01*
X93820Y-54094D01*
X93774Y-54075D01*
X93725Y-54074D01*
X93125Y-54074D01*
X93079Y-54093D01*
X93044Y-54129D01*
X93025Y-54175D01*
X93024Y-54224D01*
X93024Y-54814D01*
X92920Y-54919D01*
X92920Y-53700D01*
X92920Y-53149D01*
X92901Y-53103D01*
X92866Y-53068D01*
X92820Y-53049D01*
X92770Y-53049D01*
X92179Y-53049D01*
X92134Y-53068D01*
X92098Y-53103D01*
X92079Y-53149D01*
X92079Y-53199D01*
X92079Y-53750D01*
X92098Y-53796D01*
X92133Y-53831D01*
X92179Y-53850D01*
X92229Y-53850D01*
X92315Y-53850D01*
X92315Y-54074D01*
X91825Y-54074D01*
X91779Y-54093D01*
X91749Y-54123D01*
X91720Y-54094D01*
X91674Y-54075D01*
X91625Y-54074D01*
X91025Y-54074D01*
X90996Y-54086D01*
X90760Y-53850D01*
X90820Y-53850D01*
X90865Y-53831D01*
X90901Y-53796D01*
X90920Y-53750D01*
X90920Y-53700D01*
X90920Y-53149D01*
X90901Y-53103D01*
X90866Y-53068D01*
X90820Y-53049D01*
X90770Y-53049D01*
X90179Y-53049D01*
X90134Y-53068D01*
X90098Y-53103D01*
X90079Y-53149D01*
X90079Y-53199D01*
X90079Y-53750D01*
X90098Y-53796D01*
X90133Y-53831D01*
X90179Y-53850D01*
X90229Y-53850D01*
X90316Y-53850D01*
X90329Y-53920D01*
X90369Y-53980D01*
X90924Y-54535D01*
X90924Y-55024D01*
X90943Y-55070D01*
X90979Y-55105D01*
X91025Y-55124D01*
X91074Y-55125D01*
X91674Y-55125D01*
X91720Y-55106D01*
X91750Y-55076D01*
X91779Y-55105D01*
X91825Y-55124D01*
X91874Y-55125D01*
X92474Y-55125D01*
X92520Y-55106D01*
X92555Y-55070D01*
X92574Y-55024D01*
X92575Y-54975D01*
X92575Y-54485D01*
X92630Y-54430D01*
X92630Y-54430D01*
X92670Y-54370D01*
X92684Y-54300D01*
X92684Y-54300D01*
X92684Y-53850D01*
X92820Y-53850D01*
X92865Y-53831D01*
X92901Y-53796D01*
X92920Y-53750D01*
X92920Y-53700D01*
X92920Y-54919D01*
X92473Y-55365D01*
X89994Y-55365D01*
X90130Y-55230D01*
X90130Y-55230D01*
X90170Y-55170D01*
X90179Y-55125D01*
X90374Y-55125D01*
X90420Y-55106D01*
X90455Y-55070D01*
X90474Y-55024D01*
X90475Y-54975D01*
X90475Y-54175D01*
X90456Y-54129D01*
X90420Y-54094D01*
X90374Y-54075D01*
X90325Y-54074D01*
X89725Y-54074D01*
X89679Y-54093D01*
X89649Y-54123D01*
X89620Y-54094D01*
X89574Y-54075D01*
X89525Y-54074D01*
X88925Y-54074D01*
X88896Y-54086D01*
X88684Y-53873D01*
X88684Y-53850D01*
X88820Y-53850D01*
X88865Y-53831D01*
X88901Y-53796D01*
X88920Y-53750D01*
X88920Y-53700D01*
X88920Y-53149D01*
X88901Y-53103D01*
X88866Y-53068D01*
X88820Y-53049D01*
X88770Y-53049D01*
X88179Y-53049D01*
X88134Y-53068D01*
X88098Y-53103D01*
X88079Y-53149D01*
X88079Y-53199D01*
X88079Y-53750D01*
X88098Y-53796D01*
X88133Y-53831D01*
X88179Y-53850D01*
X88229Y-53850D01*
X88315Y-53850D01*
X88315Y-53950D01*
X88329Y-54020D01*
X88369Y-54080D01*
X88824Y-54535D01*
X88824Y-55024D01*
X88843Y-55070D01*
X88879Y-55105D01*
X88903Y-55115D01*
X88296Y-55115D01*
X88320Y-55106D01*
X88355Y-55070D01*
X88374Y-55024D01*
X88375Y-54975D01*
X88375Y-54175D01*
X88356Y-54129D01*
X88320Y-54094D01*
X88274Y-54075D01*
X88225Y-54074D01*
X87625Y-54074D01*
X87579Y-54093D01*
X87544Y-54129D01*
X87525Y-54175D01*
X87524Y-54224D01*
X87524Y-54764D01*
X87473Y-54815D01*
X84206Y-54815D01*
X84340Y-54760D01*
X84460Y-54641D01*
X84524Y-54484D01*
X84525Y-54315D01*
X84525Y-53315D01*
X84460Y-53159D01*
X84341Y-53039D01*
X84184Y-52975D01*
X84015Y-52974D01*
X83859Y-53039D01*
X83739Y-53158D01*
X83675Y-53315D01*
X83674Y-53484D01*
X83739Y-53640D01*
X83858Y-53760D01*
X84015Y-53824D01*
X84184Y-53825D01*
X84340Y-53760D01*
X84460Y-53641D01*
X84524Y-53484D01*
X84525Y-53315D01*
X84525Y-54315D01*
X84460Y-54159D01*
X84341Y-54039D01*
X84184Y-53975D01*
X84015Y-53974D01*
X83859Y-54039D01*
X83739Y-54158D01*
X83675Y-54315D01*
X83674Y-54484D01*
X83739Y-54640D01*
X83858Y-54760D01*
X83993Y-54815D01*
X83206Y-54815D01*
X83340Y-54760D01*
X83460Y-54641D01*
X83524Y-54484D01*
X83525Y-54315D01*
X83460Y-54159D01*
X83341Y-54039D01*
X83184Y-53975D01*
X83015Y-53974D01*
X82859Y-54039D01*
X82739Y-54158D01*
X82675Y-54315D01*
X82674Y-54484D01*
X82739Y-54640D01*
X82858Y-54760D01*
X82993Y-54815D01*
X82476Y-54815D01*
X82380Y-54720D01*
X82460Y-54641D01*
X82524Y-54484D01*
X82525Y-54315D01*
X82525Y-53315D01*
X82460Y-53159D01*
X82341Y-53039D01*
X82184Y-52975D01*
X82015Y-52974D01*
X81859Y-53039D01*
X81739Y-53158D01*
X81675Y-53315D01*
X81674Y-53484D01*
X81739Y-53640D01*
X81858Y-53760D01*
X82015Y-53824D01*
X82184Y-53825D01*
X82340Y-53760D01*
X82460Y-53641D01*
X82524Y-53484D01*
X82525Y-53315D01*
X82525Y-54315D01*
X82460Y-54159D01*
X82341Y-54039D01*
X82184Y-53975D01*
X82015Y-53974D01*
X81859Y-54039D01*
X81739Y-54158D01*
X81675Y-54315D01*
X81674Y-54484D01*
X81739Y-54640D01*
X81858Y-54760D01*
X81947Y-54796D01*
X81947Y-54796D01*
X81969Y-54830D01*
X82255Y-55115D01*
X81476Y-55115D01*
X81284Y-54923D01*
X81284Y-54783D01*
X81340Y-54760D01*
X81460Y-54641D01*
X81524Y-54484D01*
X81525Y-54315D01*
X81525Y-53315D01*
X81460Y-53159D01*
X81341Y-53039D01*
X81184Y-52975D01*
X81015Y-52974D01*
X80859Y-53039D01*
X80739Y-53158D01*
X80675Y-53315D01*
X80674Y-53484D01*
X80739Y-53640D01*
X80858Y-53760D01*
X81015Y-53824D01*
X81184Y-53825D01*
X81340Y-53760D01*
X81460Y-53641D01*
X81524Y-53484D01*
X81525Y-53315D01*
X81525Y-54315D01*
X81460Y-54159D01*
X81341Y-54039D01*
X81184Y-53975D01*
X81015Y-53974D01*
X80859Y-54039D01*
X80739Y-54158D01*
X80675Y-54315D01*
X80674Y-54484D01*
X80739Y-54640D01*
X80858Y-54760D01*
X80915Y-54783D01*
X80915Y-55000D01*
X80929Y-55070D01*
X80969Y-55130D01*
X81205Y-55365D01*
X80726Y-55365D01*
X80284Y-54923D01*
X80284Y-54783D01*
X80340Y-54760D01*
X80460Y-54641D01*
X80524Y-54484D01*
X80525Y-54315D01*
X80525Y-53315D01*
X80460Y-53159D01*
X80341Y-53039D01*
X80184Y-52975D01*
X80015Y-52974D01*
X79859Y-53039D01*
X79739Y-53158D01*
X79675Y-53315D01*
X79674Y-53484D01*
X79739Y-53640D01*
X79858Y-53760D01*
X80015Y-53824D01*
X80184Y-53825D01*
X80340Y-53760D01*
X80460Y-53641D01*
X80524Y-53484D01*
X80525Y-53315D01*
X80525Y-54315D01*
X80460Y-54159D01*
X80341Y-54039D01*
X80184Y-53975D01*
X80015Y-53974D01*
X79859Y-54039D01*
X79739Y-54158D01*
X79675Y-54315D01*
X79674Y-54484D01*
X79739Y-54640D01*
X79858Y-54760D01*
X79915Y-54783D01*
X79915Y-55000D01*
X79929Y-55070D01*
X79969Y-55130D01*
X80455Y-55615D01*
X80376Y-55615D01*
X79525Y-54764D01*
X79525Y-53315D01*
X79460Y-53159D01*
X79341Y-53039D01*
X79184Y-52975D01*
X79015Y-52974D01*
X78859Y-53039D01*
X78739Y-53158D01*
X78675Y-53315D01*
X78674Y-53484D01*
X78739Y-53640D01*
X78858Y-53760D01*
X79015Y-53824D01*
X79184Y-53825D01*
X79340Y-53760D01*
X79460Y-53641D01*
X79524Y-53484D01*
X79525Y-53315D01*
X79525Y-54764D01*
X79513Y-54753D01*
X79524Y-54724D01*
X79525Y-54675D01*
X79525Y-54075D01*
X79506Y-54029D01*
X79470Y-53994D01*
X79424Y-53975D01*
X79375Y-53974D01*
X78775Y-53974D01*
X78729Y-53993D01*
X78694Y-54029D01*
X78675Y-54075D01*
X78674Y-54124D01*
X78674Y-54724D01*
X78693Y-54770D01*
X78729Y-54805D01*
X78775Y-54824D01*
X78824Y-54825D01*
X79064Y-54825D01*
X80169Y-55930D01*
X80169Y-55930D01*
X80229Y-55970D01*
X80299Y-55984D01*
X80300Y-55984D01*
X81000Y-55984D01*
X93800Y-55984D01*
X95000Y-55984D01*
X95000Y-55984D01*
X95070Y-55970D01*
X95070Y-55970D01*
X95130Y-55930D01*
X95680Y-55380D01*
X95680Y-55380D01*
X95720Y-55320D01*
X95734Y-55250D01*
X95734Y-55250D01*
X95734Y-55125D01*
X95874Y-55125D01*
X95920Y-55106D01*
X95955Y-55070D01*
X95974Y-55024D01*
X95975Y-54975D01*
X95975Y-60675D01*
X93125Y-60675D01*
X93125Y-56875D01*
X89284Y-56875D01*
X89284Y-56850D01*
X89420Y-56850D01*
X89465Y-56831D01*
X89501Y-56796D01*
X89520Y-56750D01*
X89520Y-56700D01*
X89520Y-56149D01*
X89501Y-56103D01*
X89466Y-56068D01*
X89420Y-56049D01*
X89370Y-56049D01*
X88779Y-56049D01*
X88734Y-56068D01*
X88698Y-56103D01*
X88679Y-56149D01*
X88679Y-56199D01*
X88679Y-56750D01*
X88698Y-56796D01*
X88733Y-56831D01*
X88779Y-56850D01*
X88829Y-56850D01*
X88915Y-56850D01*
X88915Y-56875D01*
X87284Y-56875D01*
X87284Y-56850D01*
X87420Y-56850D01*
X87465Y-56831D01*
X87501Y-56796D01*
X87520Y-56750D01*
X87520Y-56700D01*
X87520Y-56149D01*
X87501Y-56103D01*
X87466Y-56068D01*
X87420Y-56049D01*
X87370Y-56049D01*
X86779Y-56049D01*
X86734Y-56068D01*
X86698Y-56103D01*
X86679Y-56149D01*
X86679Y-56199D01*
X86679Y-56750D01*
X86698Y-56796D01*
X86733Y-56831D01*
X86779Y-56850D01*
X86829Y-56850D01*
X86889Y-56850D01*
X86864Y-56875D01*
X85284Y-56875D01*
X85284Y-56850D01*
X85420Y-56850D01*
X85465Y-56831D01*
X85501Y-56796D01*
X85520Y-56750D01*
X85520Y-56700D01*
X85520Y-56149D01*
X85501Y-56103D01*
X85466Y-56068D01*
X85420Y-56049D01*
X85370Y-56049D01*
X84779Y-56049D01*
X84734Y-56068D01*
X84698Y-56103D01*
X84679Y-56149D01*
X84679Y-56199D01*
X84679Y-56750D01*
X84698Y-56796D01*
X84733Y-56831D01*
X84779Y-56850D01*
X84829Y-56850D01*
X84889Y-56850D01*
X84864Y-56875D01*
X83399Y-56875D01*
X83374Y-56850D01*
X83420Y-56850D01*
X83465Y-56831D01*
X83501Y-56796D01*
X83520Y-56750D01*
X83520Y-56700D01*
X83520Y-56149D01*
X83501Y-56103D01*
X83466Y-56068D01*
X83420Y-56049D01*
X83370Y-56049D01*
X82779Y-56049D01*
X82734Y-56068D01*
X82698Y-56103D01*
X82679Y-56149D01*
X82679Y-56199D01*
X82679Y-56750D01*
X82682Y-56757D01*
X82564Y-56875D01*
X82299Y-56875D01*
X82270Y-56845D01*
X82159Y-56800D01*
X82040Y-56799D01*
X81930Y-56845D01*
X81900Y-56875D01*
X81510Y-56875D01*
X80810Y-56175D01*
X79760Y-56175D01*
X78625Y-54989D01*
X78625Y-52810D01*
X79010Y-52425D01*
X83414Y-52425D01*
X82969Y-52869D01*
X82929Y-52929D01*
X82915Y-53000D01*
X82915Y-53016D01*
X82859Y-53039D01*
X82739Y-53158D01*
X82675Y-53315D01*
X82674Y-53484D01*
X82739Y-53640D01*
X82858Y-53760D01*
X83015Y-53824D01*
X83184Y-53825D01*
X83340Y-53760D01*
X83460Y-53641D01*
X83524Y-53484D01*
X83525Y-53315D01*
X83460Y-53159D01*
X83341Y-53039D01*
X83326Y-53033D01*
X83676Y-52684D01*
X84999Y-52684D01*
X84941Y-52741D01*
X84893Y-52814D01*
X84876Y-52900D01*
X84876Y-53032D01*
X84859Y-53039D01*
X84739Y-53158D01*
X84675Y-53315D01*
X84674Y-53484D01*
X84739Y-53640D01*
X84858Y-53760D01*
X85015Y-53824D01*
X85184Y-53825D01*
X85340Y-53760D01*
X85460Y-53641D01*
X85524Y-53484D01*
X85525Y-53315D01*
X85460Y-53159D01*
X85341Y-53039D01*
X85323Y-53032D01*
X85323Y-53023D01*
X85876Y-53023D01*
X85876Y-53032D01*
X85859Y-53039D01*
X85739Y-53158D01*
X85675Y-53315D01*
X85674Y-53484D01*
X85739Y-53640D01*
X85858Y-53760D01*
X86015Y-53824D01*
X86184Y-53825D01*
X86340Y-53760D01*
X86460Y-53641D01*
X86524Y-53484D01*
X86525Y-53315D01*
X86460Y-53159D01*
X86341Y-53039D01*
X86323Y-53032D01*
X86323Y-53023D01*
X86500Y-53023D01*
X89276Y-53023D01*
X89276Y-53049D01*
X89179Y-53049D01*
X89134Y-53068D01*
X89098Y-53103D01*
X89079Y-53149D01*
X89079Y-53199D01*
X89079Y-53750D01*
X89098Y-53796D01*
X89133Y-53831D01*
X89179Y-53850D01*
X89229Y-53850D01*
X89820Y-53850D01*
X89865Y-53831D01*
X89901Y-53796D01*
X89920Y-53750D01*
X89920Y-53700D01*
X89920Y-53149D01*
X89901Y-53103D01*
X89866Y-53068D01*
X89820Y-53049D01*
X89770Y-53049D01*
X89723Y-53049D01*
X89723Y-53023D01*
X91276Y-53023D01*
X91276Y-53049D01*
X91179Y-53049D01*
X91134Y-53068D01*
X91098Y-53103D01*
X91079Y-53149D01*
X91079Y-53199D01*
X91079Y-53750D01*
X91098Y-53796D01*
X91133Y-53831D01*
X91179Y-53850D01*
X91229Y-53850D01*
X91820Y-53850D01*
X91865Y-53831D01*
X91901Y-53796D01*
X91920Y-53750D01*
X91920Y-53700D01*
X91920Y-53149D01*
X91901Y-53103D01*
X91866Y-53068D01*
X91820Y-53049D01*
X91770Y-53049D01*
X91723Y-53049D01*
X91723Y-53023D01*
X93276Y-53023D01*
X93276Y-53049D01*
X93179Y-53049D01*
X93134Y-53068D01*
X93098Y-53103D01*
X93079Y-53149D01*
X93079Y-53199D01*
X93079Y-53750D01*
X93098Y-53796D01*
X93133Y-53831D01*
X93179Y-53850D01*
X93229Y-53850D01*
X93820Y-53850D01*
X93865Y-53831D01*
X93901Y-53796D01*
X93920Y-53750D01*
X93920Y-53700D01*
X93920Y-53149D01*
X93901Y-53103D01*
X93866Y-53068D01*
X93820Y-53049D01*
X93770Y-53049D01*
X93723Y-53049D01*
X93723Y-53023D01*
X95207Y-53023D01*
X95233Y-53049D01*
X95179Y-53049D01*
X95134Y-53068D01*
X95098Y-53103D01*
X95079Y-53149D01*
X95079Y-53199D01*
X95079Y-53750D01*
X95098Y-53796D01*
X95133Y-53831D01*
X95179Y-53850D01*
X95229Y-53850D01*
X95820Y-53850D01*
X95865Y-53831D01*
X95901Y-53796D01*
X95920Y-53750D01*
X95920Y-53700D01*
X95920Y-53149D01*
X95901Y-53103D01*
X95866Y-53068D01*
X95820Y-53049D01*
X95770Y-53049D01*
X95723Y-53049D01*
X95723Y-53000D01*
X95706Y-52914D01*
X95706Y-52914D01*
X95682Y-52878D01*
X95658Y-52841D01*
X95658Y-52841D01*
X95500Y-52684D01*
X106079Y-52684D01*
X106079Y-52950D01*
X106098Y-52996D01*
X106133Y-53031D01*
X106179Y-53050D01*
X106229Y-53050D01*
X106820Y-53050D01*
X106865Y-53031D01*
X106901Y-52996D01*
X106920Y-52950D01*
X106920Y-52900D01*
X106920Y-52425D01*
X110375Y-52425D01*
X110375Y-60675D01*
X110375Y-60675D01*
G37*
G54D32*
X110375Y-60675D02*
X110181Y-60675D01*
X110181Y-57945D01*
X110053Y-57635D01*
X109816Y-57397D01*
X109506Y-57269D01*
X109170Y-57268D01*
X109170Y-57269D01*
X109170Y-54529D01*
X109106Y-54374D01*
X108988Y-54256D01*
X108834Y-54192D01*
X108666Y-54192D01*
X108512Y-54255D01*
X108393Y-54374D01*
X108329Y-54528D01*
X108329Y-54695D01*
X108393Y-54850D01*
X108511Y-54968D01*
X108665Y-55033D01*
X108833Y-55033D01*
X108987Y-54969D01*
X109106Y-54851D01*
X109170Y-54696D01*
X109170Y-54529D01*
X109170Y-57269D01*
X108860Y-57397D01*
X108670Y-57587D01*
X108670Y-55529D01*
X108606Y-55374D01*
X108488Y-55256D01*
X108334Y-55192D01*
X108166Y-55192D01*
X108012Y-55255D01*
X107893Y-55374D01*
X107829Y-55528D01*
X107829Y-55695D01*
X107893Y-55850D01*
X108011Y-55968D01*
X108165Y-56033D01*
X108333Y-56033D01*
X108487Y-55969D01*
X108606Y-55851D01*
X108670Y-55696D01*
X108670Y-55529D01*
X108670Y-57587D01*
X108623Y-57634D01*
X108494Y-57944D01*
X108494Y-58279D01*
X108622Y-58589D01*
X108859Y-58827D01*
X109169Y-58955D01*
X109505Y-58956D01*
X109815Y-58828D01*
X110052Y-58591D01*
X110181Y-58281D01*
X110181Y-57945D01*
X110181Y-60675D01*
X107670Y-60675D01*
X107670Y-55529D01*
X107606Y-55374D01*
X107488Y-55256D01*
X107334Y-55192D01*
X107166Y-55192D01*
X107012Y-55255D01*
X106893Y-55374D01*
X106829Y-55528D01*
X106829Y-55695D01*
X106893Y-55850D01*
X107011Y-55968D01*
X107165Y-56033D01*
X107333Y-56033D01*
X107487Y-55969D01*
X107606Y-55851D01*
X107670Y-55696D01*
X107670Y-55529D01*
X107670Y-60675D01*
X106670Y-60675D01*
X106670Y-55529D01*
X106606Y-55374D01*
X106488Y-55256D01*
X106334Y-55192D01*
X106166Y-55192D01*
X106012Y-55255D01*
X105893Y-55374D01*
X105829Y-55528D01*
X105829Y-55695D01*
X105893Y-55850D01*
X106011Y-55968D01*
X106165Y-56033D01*
X106333Y-56033D01*
X106487Y-55969D01*
X106606Y-55851D01*
X106670Y-55696D01*
X106670Y-55529D01*
X106670Y-60675D01*
X105670Y-60675D01*
X105670Y-55883D01*
X105670Y-55292D01*
X105651Y-55246D01*
X105616Y-55211D01*
X105570Y-55192D01*
X105520Y-55192D01*
X104929Y-55192D01*
X104883Y-55211D01*
X104848Y-55246D01*
X104829Y-55292D01*
X104829Y-55341D01*
X104829Y-55772D01*
X104286Y-56315D01*
X103944Y-56315D01*
X104060Y-56199D01*
X104159Y-56200D01*
X104269Y-56154D01*
X104354Y-56070D01*
X104399Y-55959D01*
X104400Y-55840D01*
X104354Y-55730D01*
X104270Y-55645D01*
X104159Y-55600D01*
X104040Y-55599D01*
X103930Y-55645D01*
X103845Y-55729D01*
X103800Y-55840D01*
X103799Y-55939D01*
X103723Y-56015D01*
X102570Y-56015D01*
X102570Y-54529D01*
X102506Y-54374D01*
X102388Y-54256D01*
X102234Y-54192D01*
X102066Y-54192D01*
X101912Y-54255D01*
X101793Y-54374D01*
X101729Y-54528D01*
X101729Y-54695D01*
X101793Y-54850D01*
X101911Y-54968D01*
X102065Y-55033D01*
X102233Y-55033D01*
X102387Y-54969D01*
X102506Y-54851D01*
X102570Y-54696D01*
X102570Y-54529D01*
X102570Y-56015D01*
X101774Y-56015D01*
X101887Y-55969D01*
X102006Y-55851D01*
X102070Y-55696D01*
X102070Y-55529D01*
X102006Y-55374D01*
X101888Y-55256D01*
X101734Y-55192D01*
X101566Y-55192D01*
X101412Y-55255D01*
X101293Y-55374D01*
X101229Y-55528D01*
X101229Y-55695D01*
X101293Y-55850D01*
X101411Y-55968D01*
X101524Y-56015D01*
X100774Y-56015D01*
X100887Y-55969D01*
X101006Y-55851D01*
X101070Y-55696D01*
X101070Y-55529D01*
X101006Y-55374D01*
X100888Y-55256D01*
X100734Y-55192D01*
X100566Y-55192D01*
X100412Y-55255D01*
X100293Y-55374D01*
X100229Y-55528D01*
X100229Y-55695D01*
X100293Y-55850D01*
X100411Y-55968D01*
X100524Y-56015D01*
X99876Y-56015D01*
X99846Y-55986D01*
X99887Y-55969D01*
X100006Y-55851D01*
X100070Y-55696D01*
X100070Y-55529D01*
X100006Y-55374D01*
X99888Y-55256D01*
X99734Y-55192D01*
X99566Y-55192D01*
X99412Y-55255D01*
X99293Y-55374D01*
X99229Y-55528D01*
X99229Y-55695D01*
X99293Y-55850D01*
X99411Y-55968D01*
X99465Y-55991D01*
X99465Y-56050D01*
X99479Y-56120D01*
X99519Y-56180D01*
X99655Y-56315D01*
X99376Y-56315D01*
X99045Y-55985D01*
X99051Y-55978D01*
X99070Y-55933D01*
X99070Y-55883D01*
X99070Y-55292D01*
X99051Y-55246D01*
X99016Y-55211D01*
X98970Y-55192D01*
X98920Y-55192D01*
X98329Y-55192D01*
X98283Y-55211D01*
X98248Y-55246D01*
X98229Y-55292D01*
X98229Y-55341D01*
X98229Y-55932D01*
X98248Y-55978D01*
X98283Y-56014D01*
X98329Y-56033D01*
X98379Y-56033D01*
X98572Y-56033D01*
X99169Y-56630D01*
X99169Y-56630D01*
X99229Y-56670D01*
X99300Y-56684D01*
X104362Y-56684D01*
X104362Y-56684D01*
X104433Y-56670D01*
X104433Y-56670D01*
X104492Y-56630D01*
X105089Y-56033D01*
X105570Y-56033D01*
X105616Y-56014D01*
X105651Y-55978D01*
X105670Y-55933D01*
X105670Y-55883D01*
X105670Y-60675D01*
X105508Y-60675D01*
X105508Y-57945D01*
X105380Y-57635D01*
X105143Y-57397D01*
X104833Y-57269D01*
X104497Y-57268D01*
X104187Y-57397D01*
X103950Y-57634D01*
X103821Y-57944D01*
X103821Y-58279D01*
X103949Y-58589D01*
X104186Y-58827D01*
X104496Y-58955D01*
X104832Y-58956D01*
X105142Y-58828D01*
X105379Y-58591D01*
X105508Y-58281D01*
X105508Y-57945D01*
X105508Y-60675D01*
X103581Y-60675D01*
X103581Y-57945D01*
X103453Y-57635D01*
X103216Y-57397D01*
X102906Y-57269D01*
X102570Y-57268D01*
X102260Y-57397D01*
X102023Y-57634D01*
X101894Y-57944D01*
X101894Y-58279D01*
X102022Y-58589D01*
X102259Y-58827D01*
X102569Y-58955D01*
X102905Y-58956D01*
X103215Y-58828D01*
X103452Y-58591D01*
X103581Y-58281D01*
X103581Y-57945D01*
X103581Y-60675D01*
X98908Y-60675D01*
X98908Y-57945D01*
X98780Y-57635D01*
X98543Y-57397D01*
X98233Y-57269D01*
X97897Y-57268D01*
X97587Y-57397D01*
X97350Y-57634D01*
X97221Y-57944D01*
X97221Y-58279D01*
X97349Y-58589D01*
X97586Y-58827D01*
X97896Y-58955D01*
X98232Y-58956D01*
X98542Y-58828D01*
X98779Y-58591D01*
X98908Y-58281D01*
X98908Y-57945D01*
X98908Y-60675D01*
X95975Y-60675D01*
X95975Y-54975D01*
X95975Y-54175D01*
X95956Y-54129D01*
X95920Y-54094D01*
X95874Y-54075D01*
X95825Y-54074D01*
X95225Y-54074D01*
X95179Y-54093D01*
X95144Y-54129D01*
X95125Y-54175D01*
X95124Y-54224D01*
X95124Y-55024D01*
X95143Y-55070D01*
X95179Y-55105D01*
X95225Y-55124D01*
X95274Y-55125D01*
X95365Y-55125D01*
X95365Y-55173D01*
X94923Y-55615D01*
X93800Y-55615D01*
X92744Y-55615D01*
X93235Y-55125D01*
X93774Y-55125D01*
X93820Y-55106D01*
X93850Y-55076D01*
X93879Y-55105D01*
X93925Y-55124D01*
X93974Y-55125D01*
X94574Y-55125D01*
X94620Y-55106D01*
X94655Y-55070D01*
X94674Y-55024D01*
X94675Y-54975D01*
X94675Y-54395D01*
X94675Y-54395D01*
X94684Y-54350D01*
X94684Y-54350D01*
X94684Y-53850D01*
X94820Y-53850D01*
X94865Y-53831D01*
X94901Y-53796D01*
X94920Y-53750D01*
X94920Y-53700D01*
X94920Y-53149D01*
X94901Y-53103D01*
X94866Y-53068D01*
X94820Y-53049D01*
X94770Y-53049D01*
X94179Y-53049D01*
X94134Y-53068D01*
X94098Y-53103D01*
X94079Y-53149D01*
X94079Y-53199D01*
X94079Y-53750D01*
X94098Y-53796D01*
X94133Y-53831D01*
X94179Y-53850D01*
X94229Y-53850D01*
X94315Y-53850D01*
X94315Y-54074D01*
X93925Y-54074D01*
X93879Y-54093D01*
X93849Y-54123D01*
X93820Y-54094D01*
X93774Y-54075D01*
X93725Y-54074D01*
X93125Y-54074D01*
X93079Y-54093D01*
X93044Y-54129D01*
X93025Y-54175D01*
X93024Y-54224D01*
X93024Y-54814D01*
X92920Y-54919D01*
X92920Y-53700D01*
X92920Y-53149D01*
X92901Y-53103D01*
X92866Y-53068D01*
X92820Y-53049D01*
X92770Y-53049D01*
X92179Y-53049D01*
X92134Y-53068D01*
X92098Y-53103D01*
X92079Y-53149D01*
X92079Y-53199D01*
X92079Y-53750D01*
X92098Y-53796D01*
X92133Y-53831D01*
X92179Y-53850D01*
X92229Y-53850D01*
X92315Y-53850D01*
X92315Y-54074D01*
X91825Y-54074D01*
X91779Y-54093D01*
X91749Y-54123D01*
X91720Y-54094D01*
X91674Y-54075D01*
X91625Y-54074D01*
X91025Y-54074D01*
X90996Y-54086D01*
X90760Y-53850D01*
X90820Y-53850D01*
X90865Y-53831D01*
X90901Y-53796D01*
X90920Y-53750D01*
X90920Y-53700D01*
X90920Y-53149D01*
X90901Y-53103D01*
X90866Y-53068D01*
X90820Y-53049D01*
X90770Y-53049D01*
X90179Y-53049D01*
X90134Y-53068D01*
X90098Y-53103D01*
X90079Y-53149D01*
X90079Y-53199D01*
X90079Y-53750D01*
X90098Y-53796D01*
X90133Y-53831D01*
X90179Y-53850D01*
X90229Y-53850D01*
X90316Y-53850D01*
X90329Y-53920D01*
X90369Y-53980D01*
X90924Y-54535D01*
X90924Y-55024D01*
X90943Y-55070D01*
X90979Y-55105D01*
X91025Y-55124D01*
X91074Y-55125D01*
X91674Y-55125D01*
X91720Y-55106D01*
X91750Y-55076D01*
X91779Y-55105D01*
X91825Y-55124D01*
X91874Y-55125D01*
X92474Y-55125D01*
X92520Y-55106D01*
X92555Y-55070D01*
X92574Y-55024D01*
X92575Y-54975D01*
X92575Y-54485D01*
X92630Y-54430D01*
X92630Y-54430D01*
X92670Y-54370D01*
X92684Y-54300D01*
X92684Y-54300D01*
X92684Y-53850D01*
X92820Y-53850D01*
X92865Y-53831D01*
X92901Y-53796D01*
X92920Y-53750D01*
X92920Y-53700D01*
X92920Y-54919D01*
X92473Y-55365D01*
X89994Y-55365D01*
X90130Y-55230D01*
X90130Y-55230D01*
X90170Y-55170D01*
X90179Y-55125D01*
X90374Y-55125D01*
X90420Y-55106D01*
X90455Y-55070D01*
X90474Y-55024D01*
X90475Y-54975D01*
X90475Y-54175D01*
X90456Y-54129D01*
X90420Y-54094D01*
X90374Y-54075D01*
X90325Y-54074D01*
X89725Y-54074D01*
X89679Y-54093D01*
X89649Y-54123D01*
X89620Y-54094D01*
X89574Y-54075D01*
X89525Y-54074D01*
X88925Y-54074D01*
X88896Y-54086D01*
X88684Y-53873D01*
X88684Y-53850D01*
X88820Y-53850D01*
X88865Y-53831D01*
X88901Y-53796D01*
X88920Y-53750D01*
X88920Y-53700D01*
X88920Y-53149D01*
X88901Y-53103D01*
X88866Y-53068D01*
X88820Y-53049D01*
X88770Y-53049D01*
X88179Y-53049D01*
X88134Y-53068D01*
X88098Y-53103D01*
X88079Y-53149D01*
X88079Y-53199D01*
X88079Y-53750D01*
X88098Y-53796D01*
X88133Y-53831D01*
X88179Y-53850D01*
X88229Y-53850D01*
X88315Y-53850D01*
X88315Y-53950D01*
X88329Y-54020D01*
X88369Y-54080D01*
X88824Y-54535D01*
X88824Y-55024D01*
X88843Y-55070D01*
X88879Y-55105D01*
X88903Y-55115D01*
X88296Y-55115D01*
X88320Y-55106D01*
X88355Y-55070D01*
X88374Y-55024D01*
X88375Y-54975D01*
X88375Y-54175D01*
X88356Y-54129D01*
X88320Y-54094D01*
X88274Y-54075D01*
X88225Y-54074D01*
X87625Y-54074D01*
X87579Y-54093D01*
X87544Y-54129D01*
X87525Y-54175D01*
X87524Y-54224D01*
X87524Y-54764D01*
X87473Y-54815D01*
X84206Y-54815D01*
X84340Y-54760D01*
X84460Y-54641D01*
X84524Y-54484D01*
X84525Y-54315D01*
X84525Y-53315D01*
X84460Y-53159D01*
X84341Y-53039D01*
X84184Y-52975D01*
X84015Y-52974D01*
X83859Y-53039D01*
X83739Y-53158D01*
X83675Y-53315D01*
X83674Y-53484D01*
X83739Y-53640D01*
X83858Y-53760D01*
X84015Y-53824D01*
X84184Y-53825D01*
X84340Y-53760D01*
X84460Y-53641D01*
X84524Y-53484D01*
X84525Y-53315D01*
X84525Y-54315D01*
X84460Y-54159D01*
X84341Y-54039D01*
X84184Y-53975D01*
X84015Y-53974D01*
X83859Y-54039D01*
X83739Y-54158D01*
X83675Y-54315D01*
X83674Y-54484D01*
X83739Y-54640D01*
X83858Y-54760D01*
X83993Y-54815D01*
X83206Y-54815D01*
X83340Y-54760D01*
X83460Y-54641D01*
X83524Y-54484D01*
X83525Y-54315D01*
X83460Y-54159D01*
X83341Y-54039D01*
X83184Y-53975D01*
X83015Y-53974D01*
X82859Y-54039D01*
X82739Y-54158D01*
X82675Y-54315D01*
X82674Y-54484D01*
X82739Y-54640D01*
X82858Y-54760D01*
X82993Y-54815D01*
X82476Y-54815D01*
X82380Y-54720D01*
X82460Y-54641D01*
X82524Y-54484D01*
X82525Y-54315D01*
X82525Y-53315D01*
X82460Y-53159D01*
X82341Y-53039D01*
X82184Y-52975D01*
X82015Y-52974D01*
X81859Y-53039D01*
X81739Y-53158D01*
X81675Y-53315D01*
X81674Y-53484D01*
X81739Y-53640D01*
X81858Y-53760D01*
X82015Y-53824D01*
X82184Y-53825D01*
X82340Y-53760D01*
X82460Y-53641D01*
X82524Y-53484D01*
X82525Y-53315D01*
X82525Y-54315D01*
X82460Y-54159D01*
X82341Y-54039D01*
X82184Y-53975D01*
X82015Y-53974D01*
X81859Y-54039D01*
X81739Y-54158D01*
X81675Y-54315D01*
X81674Y-54484D01*
X81739Y-54640D01*
X81858Y-54760D01*
X81947Y-54796D01*
X81947Y-54796D01*
X81969Y-54830D01*
X82255Y-55115D01*
X81476Y-55115D01*
X81284Y-54923D01*
X81284Y-54783D01*
X81340Y-54760D01*
X81460Y-54641D01*
X81524Y-54484D01*
X81525Y-54315D01*
X81525Y-53315D01*
X81460Y-53159D01*
X81341Y-53039D01*
X81184Y-52975D01*
X81015Y-52974D01*
X80859Y-53039D01*
X80739Y-53158D01*
X80675Y-53315D01*
X80674Y-53484D01*
X80739Y-53640D01*
X80858Y-53760D01*
X81015Y-53824D01*
X81184Y-53825D01*
X81340Y-53760D01*
X81460Y-53641D01*
X81524Y-53484D01*
X81525Y-53315D01*
X81525Y-54315D01*
X81460Y-54159D01*
X81341Y-54039D01*
X81184Y-53975D01*
X81015Y-53974D01*
X80859Y-54039D01*
X80739Y-54158D01*
X80675Y-54315D01*
X80674Y-54484D01*
X80739Y-54640D01*
X80858Y-54760D01*
X80915Y-54783D01*
X80915Y-55000D01*
X80929Y-55070D01*
X80969Y-55130D01*
X81205Y-55365D01*
X80726Y-55365D01*
X80284Y-54923D01*
X80284Y-54783D01*
X80340Y-54760D01*
X80460Y-54641D01*
X80524Y-54484D01*
X80525Y-54315D01*
X80525Y-53315D01*
X80460Y-53159D01*
X80341Y-53039D01*
X80184Y-52975D01*
X80015Y-52974D01*
X79859Y-53039D01*
X79739Y-53158D01*
X79675Y-53315D01*
X79674Y-53484D01*
X79739Y-53640D01*
X79858Y-53760D01*
X80015Y-53824D01*
X80184Y-53825D01*
X80340Y-53760D01*
X80460Y-53641D01*
X80524Y-53484D01*
X80525Y-53315D01*
X80525Y-54315D01*
X80460Y-54159D01*
X80341Y-54039D01*
X80184Y-53975D01*
X80015Y-53974D01*
X79859Y-54039D01*
X79739Y-54158D01*
X79675Y-54315D01*
X79674Y-54484D01*
X79739Y-54640D01*
X79858Y-54760D01*
X79915Y-54783D01*
X79915Y-55000D01*
X79929Y-55070D01*
X79969Y-55130D01*
X80455Y-55615D01*
X80376Y-55615D01*
X79525Y-54764D01*
X79525Y-53315D01*
X79460Y-53159D01*
X79341Y-53039D01*
X79184Y-52975D01*
X79015Y-52974D01*
X78859Y-53039D01*
X78739Y-53158D01*
X78675Y-53315D01*
X78674Y-53484D01*
X78739Y-53640D01*
X78858Y-53760D01*
X79015Y-53824D01*
X79184Y-53825D01*
X79340Y-53760D01*
X79460Y-53641D01*
X79524Y-53484D01*
X79525Y-53315D01*
X79525Y-54764D01*
X79513Y-54753D01*
X79524Y-54724D01*
X79525Y-54675D01*
X79525Y-54075D01*
X79506Y-54029D01*
X79470Y-53994D01*
X79424Y-53975D01*
X79375Y-53974D01*
X78775Y-53974D01*
X78729Y-53993D01*
X78694Y-54029D01*
X78675Y-54075D01*
X78674Y-54124D01*
X78674Y-54724D01*
X78693Y-54770D01*
X78729Y-54805D01*
X78775Y-54824D01*
X78824Y-54825D01*
X79064Y-54825D01*
X80169Y-55930D01*
X80169Y-55930D01*
X80229Y-55970D01*
X80299Y-55984D01*
X80300Y-55984D01*
X81000Y-55984D01*
X93800Y-55984D01*
X95000Y-55984D01*
X95000Y-55984D01*
X95070Y-55970D01*
X95070Y-55970D01*
X95130Y-55930D01*
X95680Y-55380D01*
X95680Y-55380D01*
X95720Y-55320D01*
X95734Y-55250D01*
X95734Y-55250D01*
X95734Y-55125D01*
X95874Y-55125D01*
X95920Y-55106D01*
X95955Y-55070D01*
X95974Y-55024D01*
X95975Y-54975D01*
X95975Y-60675D01*
X93125Y-60675D01*
X93125Y-56875D01*
X89284Y-56875D01*
X89284Y-56850D01*
X89420Y-56850D01*
X89465Y-56831D01*
X89501Y-56796D01*
X89520Y-56750D01*
X89520Y-56700D01*
X89520Y-56149D01*
X89501Y-56103D01*
X89466Y-56068D01*
X89420Y-56049D01*
X89370Y-56049D01*
X88779Y-56049D01*
X88734Y-56068D01*
X88698Y-56103D01*
X88679Y-56149D01*
X88679Y-56199D01*
X88679Y-56750D01*
X88698Y-56796D01*
X88733Y-56831D01*
X88779Y-56850D01*
X88829Y-56850D01*
X88915Y-56850D01*
X88915Y-56875D01*
X87284Y-56875D01*
X87284Y-56850D01*
X87420Y-56850D01*
X87465Y-56831D01*
X87501Y-56796D01*
X87520Y-56750D01*
X87520Y-56700D01*
X87520Y-56149D01*
X87501Y-56103D01*
X87466Y-56068D01*
X87420Y-56049D01*
X87370Y-56049D01*
X86779Y-56049D01*
X86734Y-56068D01*
X86698Y-56103D01*
X86679Y-56149D01*
X86679Y-56199D01*
X86679Y-56750D01*
X86698Y-56796D01*
X86733Y-56831D01*
X86779Y-56850D01*
X86829Y-56850D01*
X86889Y-56850D01*
X86864Y-56875D01*
X85284Y-56875D01*
X85284Y-56850D01*
X85420Y-56850D01*
X85465Y-56831D01*
X85501Y-56796D01*
X85520Y-56750D01*
X85520Y-56700D01*
X85520Y-56149D01*
X85501Y-56103D01*
X85466Y-56068D01*
X85420Y-56049D01*
X85370Y-56049D01*
X84779Y-56049D01*
X84734Y-56068D01*
X84698Y-56103D01*
X84679Y-56149D01*
X84679Y-56199D01*
X84679Y-56750D01*
X84698Y-56796D01*
X84733Y-56831D01*
X84779Y-56850D01*
X84829Y-56850D01*
X84889Y-56850D01*
X84864Y-56875D01*
X83399Y-56875D01*
X83374Y-56850D01*
X83420Y-56850D01*
X83465Y-56831D01*
X83501Y-56796D01*
X83520Y-56750D01*
X83520Y-56700D01*
X83520Y-56149D01*
X83501Y-56103D01*
X83466Y-56068D01*
X83420Y-56049D01*
X83370Y-56049D01*
X82779Y-56049D01*
X82734Y-56068D01*
X82698Y-56103D01*
X82679Y-56149D01*
X82679Y-56199D01*
X82679Y-56750D01*
X82682Y-56757D01*
X82564Y-56875D01*
X82299Y-56875D01*
X82270Y-56845D01*
X82159Y-56800D01*
X82040Y-56799D01*
X81930Y-56845D01*
X81900Y-56875D01*
X81510Y-56875D01*
X80810Y-56175D01*
X79760Y-56175D01*
X78625Y-54989D01*
X78625Y-52810D01*
X79010Y-52425D01*
X83414Y-52425D01*
X82969Y-52869D01*
X82929Y-52929D01*
X82915Y-53000D01*
X82915Y-53016D01*
X82859Y-53039D01*
X82739Y-53158D01*
X82675Y-53315D01*
X82674Y-53484D01*
X82739Y-53640D01*
X82858Y-53760D01*
X83015Y-53824D01*
X83184Y-53825D01*
X83340Y-53760D01*
X83460Y-53641D01*
X83524Y-53484D01*
X83525Y-53315D01*
X83460Y-53159D01*
X83341Y-53039D01*
X83326Y-53033D01*
X83676Y-52684D01*
X84999Y-52684D01*
X84941Y-52741D01*
X84893Y-52814D01*
X84876Y-52900D01*
X84876Y-53032D01*
X84859Y-53039D01*
X84739Y-53158D01*
X84675Y-53315D01*
X84674Y-53484D01*
X84739Y-53640D01*
X84858Y-53760D01*
X85015Y-53824D01*
X85184Y-53825D01*
X85340Y-53760D01*
X85460Y-53641D01*
X85524Y-53484D01*
X85525Y-53315D01*
X85460Y-53159D01*
X85341Y-53039D01*
X85323Y-53032D01*
X85323Y-53023D01*
X85876Y-53023D01*
X85876Y-53032D01*
X85859Y-53039D01*
X85739Y-53158D01*
X85675Y-53315D01*
X85674Y-53484D01*
X85739Y-53640D01*
X85858Y-53760D01*
X86015Y-53824D01*
X86184Y-53825D01*
X86340Y-53760D01*
X86460Y-53641D01*
X86524Y-53484D01*
X86525Y-53315D01*
X86460Y-53159D01*
X86341Y-53039D01*
X86323Y-53032D01*
X86323Y-53023D01*
X86500Y-53023D01*
X89276Y-53023D01*
X89276Y-53049D01*
X89179Y-53049D01*
X89134Y-53068D01*
X89098Y-53103D01*
X89079Y-53149D01*
X89079Y-53199D01*
X89079Y-53750D01*
X89098Y-53796D01*
X89133Y-53831D01*
X89179Y-53850D01*
X89229Y-53850D01*
X89820Y-53850D01*
X89865Y-53831D01*
X89901Y-53796D01*
X89920Y-53750D01*
X89920Y-53700D01*
X89920Y-53149D01*
X89901Y-53103D01*
X89866Y-53068D01*
X89820Y-53049D01*
X89770Y-53049D01*
X89723Y-53049D01*
X89723Y-53023D01*
X91276Y-53023D01*
X91276Y-53049D01*
X91179Y-53049D01*
X91134Y-53068D01*
X91098Y-53103D01*
X91079Y-53149D01*
X91079Y-53199D01*
X91079Y-53750D01*
X91098Y-53796D01*
X91133Y-53831D01*
X91179Y-53850D01*
X91229Y-53850D01*
X91820Y-53850D01*
X91865Y-53831D01*
X91901Y-53796D01*
X91920Y-53750D01*
X91920Y-53700D01*
X91920Y-53149D01*
X91901Y-53103D01*
X91866Y-53068D01*
X91820Y-53049D01*
X91770Y-53049D01*
X91723Y-53049D01*
X91723Y-53023D01*
X93276Y-53023D01*
X93276Y-53049D01*
X93179Y-53049D01*
X93134Y-53068D01*
X93098Y-53103D01*
X93079Y-53149D01*
X93079Y-53199D01*
X93079Y-53750D01*
X93098Y-53796D01*
X93133Y-53831D01*
X93179Y-53850D01*
X93229Y-53850D01*
X93820Y-53850D01*
X93865Y-53831D01*
X93901Y-53796D01*
X93920Y-53750D01*
X93920Y-53700D01*
X93920Y-53149D01*
X93901Y-53103D01*
X93866Y-53068D01*
X93820Y-53049D01*
X93770Y-53049D01*
X93723Y-53049D01*
X93723Y-53023D01*
X95207Y-53023D01*
X95233Y-53049D01*
X95179Y-53049D01*
X95134Y-53068D01*
X95098Y-53103D01*
X95079Y-53149D01*
X95079Y-53199D01*
X95079Y-53750D01*
X95098Y-53796D01*
X95133Y-53831D01*
X95179Y-53850D01*
X95229Y-53850D01*
X95820Y-53850D01*
X95865Y-53831D01*
X95901Y-53796D01*
X95920Y-53750D01*
X95920Y-53700D01*
X95920Y-53149D01*
X95901Y-53103D01*
X95866Y-53068D01*
X95820Y-53049D01*
X95770Y-53049D01*
X95723Y-53049D01*
X95723Y-53000D01*
X95706Y-52914D01*
X95706Y-52914D01*
X95682Y-52878D01*
X95658Y-52841D01*
X95658Y-52841D01*
X95500Y-52684D01*
X106079Y-52684D01*
X106079Y-52950D01*
X106098Y-52996D01*
X106133Y-53031D01*
X106179Y-53050D01*
X106229Y-53050D01*
X106820Y-53050D01*
X106865Y-53031D01*
X106901Y-52996D01*
X106920Y-52950D01*
X106920Y-52900D01*
X106920Y-52425D01*
X110375Y-52425D01*
X110375Y-60675D01*
G54D10*
G36*
X88575Y-35495D02*
X88528Y-35636D01*
X88385Y-35779D01*
X88194Y-35875D01*
X88005Y-35875D01*
X87814Y-35779D01*
X87010Y-34975D01*
X85788Y-34975D01*
X85125Y-35790D01*
X84975Y-37598D01*
X84975Y-38647D01*
X84926Y-38892D01*
X84231Y-40480D01*
X83995Y-40575D01*
X83854Y-40575D01*
X83711Y-40527D01*
X83568Y-40431D01*
X83472Y-40288D01*
X83425Y-40145D01*
X83425Y-40004D01*
X83472Y-39860D01*
X84024Y-39008D01*
X84075Y-38550D01*
X84025Y-37700D01*
X84323Y-35211D01*
X85460Y-34074D01*
X87290Y-34025D01*
X88380Y-35016D01*
X88575Y-35307D01*
X88575Y-35495D01*
X88575Y-35495D01*
G37*
G54D32*
X88575Y-35495D02*
X88528Y-35636D01*
X88385Y-35779D01*
X88194Y-35875D01*
X88005Y-35875D01*
X87814Y-35779D01*
X87010Y-34975D01*
X85788Y-34975D01*
X85125Y-35790D01*
X84975Y-37598D01*
X84975Y-38647D01*
X84926Y-38892D01*
X84231Y-40480D01*
X83995Y-40575D01*
X83854Y-40575D01*
X83711Y-40527D01*
X83568Y-40431D01*
X83472Y-40288D01*
X83425Y-40145D01*
X83425Y-40004D01*
X83472Y-39860D01*
X84024Y-39008D01*
X84075Y-38550D01*
X84025Y-37700D01*
X84323Y-35211D01*
X85460Y-34074D01*
X87290Y-34025D01*
X88380Y-35016D01*
X88575Y-35307D01*
X88575Y-35495D01*
G54D10*
G36*
X85975Y-32294D02*
X85884Y-32475D01*
X82789Y-32475D01*
X81075Y-34189D01*
X81075Y-40097D01*
X81026Y-40337D01*
X80885Y-40479D01*
X80694Y-40575D01*
X80550Y-40575D01*
X80504Y-40575D01*
X80363Y-40528D01*
X80267Y-40432D01*
X80171Y-40336D01*
X80125Y-40195D01*
X80125Y-40100D01*
X80125Y-33954D01*
X80221Y-33714D01*
X82314Y-31620D01*
X82505Y-31525D01*
X85150Y-31525D01*
X85886Y-31525D01*
X85975Y-31657D01*
X85975Y-32050D01*
X85975Y-32294D01*
X85975Y-32294D01*
G37*
G54D32*
X85975Y-32294D02*
X85884Y-32475D01*
X82789Y-32475D01*
X81075Y-34189D01*
X81075Y-40097D01*
X81026Y-40337D01*
X80885Y-40479D01*
X80694Y-40575D01*
X80550Y-40575D01*
X80504Y-40575D01*
X80363Y-40528D01*
X80267Y-40432D01*
X80171Y-40336D01*
X80125Y-40195D01*
X80125Y-40100D01*
X80125Y-33954D01*
X80221Y-33714D01*
X82314Y-31620D01*
X82505Y-31525D01*
X85150Y-31525D01*
X85886Y-31525D01*
X85975Y-31657D01*
X85975Y-32050D01*
X85975Y-32294D01*
G54D10*
G36*
X75975Y-38892D02*
X75080Y-40284D01*
X74885Y-40479D01*
X74694Y-40575D01*
X74505Y-40575D01*
X74314Y-40479D01*
X74217Y-40382D01*
X74125Y-40289D01*
X74125Y-40000D01*
X74125Y-39909D01*
X74922Y-39012D01*
X75019Y-38625D01*
X75975Y-38625D01*
X75975Y-38892D01*
X75975Y-38892D01*
G37*
G54D32*
X75975Y-38892D02*
X75080Y-40284D01*
X74885Y-40479D01*
X74694Y-40575D01*
X74505Y-40575D01*
X74314Y-40479D01*
X74217Y-40382D01*
X74125Y-40289D01*
X74125Y-40000D01*
X74125Y-39909D01*
X74922Y-39012D01*
X75019Y-38625D01*
X75975Y-38625D01*
X75975Y-38892D01*
M02*
