G04 (created by PCBNEW (2013-jul-07)-stable) date mer. 26 nov. 2014 20:09:27 CET*
%MOIN*%
G04 Gerber Fmt 3.4, Leading zero omitted, Abs format*
%FSLAX34Y34*%
G01*
G70*
G90*
G04 APERTURE LIST*
%ADD10C,0.00590551*%
%ADD11C,0.00708661*%
%ADD12C,0.015*%
%ADD13C,0.005*%
%ADD14C,0.006*%
%ADD15C,0.012*%
%ADD16C,0.0031*%
%ADD17C,0.008*%
%ADD18C,0.0047*%
G04 APERTURE END LIST*
G54D10*
G54D11*
X52100Y-38100D02*
X52100Y-38500D01*
X51100Y-38500D02*
X51050Y-38500D01*
X51100Y-38100D02*
X51100Y-38500D01*
X52100Y-38100D02*
X51100Y-38100D01*
G54D12*
X79700Y-47800D02*
X79700Y-31300D01*
X40300Y-47800D02*
X40300Y-31300D01*
X40300Y-31300D02*
X79700Y-31300D01*
X40300Y-47800D02*
X79700Y-47800D01*
G54D13*
X64450Y-38300D02*
X65350Y-38300D01*
X65350Y-38300D02*
X65350Y-38950D01*
X64450Y-39650D02*
X64450Y-40300D01*
X64450Y-40300D02*
X65350Y-40300D01*
X65350Y-40300D02*
X65350Y-39650D01*
X64450Y-38950D02*
X64450Y-38300D01*
X58150Y-40300D02*
X57250Y-40300D01*
X57250Y-40300D02*
X57250Y-39650D01*
X58150Y-38950D02*
X58150Y-38300D01*
X58150Y-38300D02*
X57250Y-38300D01*
X57250Y-38300D02*
X57250Y-38950D01*
X58150Y-39650D02*
X58150Y-40300D01*
X65550Y-38300D02*
X66450Y-38300D01*
X66450Y-38300D02*
X66450Y-38950D01*
X65550Y-39650D02*
X65550Y-40300D01*
X65550Y-40300D02*
X66450Y-40300D01*
X66450Y-40300D02*
X66450Y-39650D01*
X65550Y-38950D02*
X65550Y-38300D01*
G54D14*
X63480Y-38410D02*
X63030Y-38410D01*
X63480Y-40590D02*
X63040Y-40590D01*
X63480Y-38410D02*
X63480Y-40590D01*
X62600Y-37940D02*
X62600Y-37510D01*
X60390Y-37930D02*
X60390Y-37510D01*
X60380Y-37510D02*
X62600Y-37500D01*
X60400Y-41480D02*
X62570Y-41490D01*
X59970Y-40790D02*
X59970Y-37960D01*
X62580Y-41480D02*
X62580Y-41070D01*
X60220Y-41030D02*
X63000Y-41030D01*
X63020Y-37950D02*
X63020Y-40990D01*
X59970Y-37950D02*
X62970Y-37950D01*
X59520Y-40620D02*
X59520Y-38400D01*
X59520Y-38400D02*
X59970Y-38400D01*
X59974Y-40800D02*
X60204Y-41030D01*
X59522Y-40620D02*
X59974Y-40620D01*
X60400Y-41030D02*
X60400Y-41482D01*
X60570Y-40626D02*
G75*
G03X60570Y-40626I-188J0D01*
G74*
G01*
G54D15*
X47600Y-38500D02*
X47600Y-40300D01*
X47600Y-40300D02*
X55400Y-40300D01*
X55400Y-40300D02*
X55400Y-38500D01*
X55400Y-38500D02*
X47600Y-38500D01*
G54D13*
X60950Y-34100D02*
X61850Y-34100D01*
X61850Y-34100D02*
X61850Y-34750D01*
X60950Y-35450D02*
X60950Y-36100D01*
X60950Y-36100D02*
X61850Y-36100D01*
X61850Y-36100D02*
X61850Y-35450D01*
X60950Y-34750D02*
X60950Y-34100D01*
X61150Y-46100D02*
X60250Y-46100D01*
X60250Y-46100D02*
X60250Y-45450D01*
X61150Y-44750D02*
X61150Y-44100D01*
X61150Y-44100D02*
X60250Y-44100D01*
X60250Y-44100D02*
X60250Y-44750D01*
X61150Y-45450D02*
X61150Y-46100D01*
X63150Y-46100D02*
X62250Y-46100D01*
X62250Y-46100D02*
X62250Y-45450D01*
X63150Y-44750D02*
X63150Y-44100D01*
X63150Y-44100D02*
X62250Y-44100D01*
X62250Y-44100D02*
X62250Y-44750D01*
X63150Y-45450D02*
X63150Y-46100D01*
X62150Y-46100D02*
X61250Y-46100D01*
X61250Y-46100D02*
X61250Y-45450D01*
X62150Y-44750D02*
X62150Y-44100D01*
X62150Y-44100D02*
X61250Y-44100D01*
X61250Y-44100D02*
X61250Y-44750D01*
X62150Y-45450D02*
X62150Y-46100D01*
X70550Y-44400D02*
X71450Y-44400D01*
X71450Y-44400D02*
X71450Y-45050D01*
X70550Y-45750D02*
X70550Y-46400D01*
X70550Y-46400D02*
X71450Y-46400D01*
X71450Y-46400D02*
X71450Y-45750D01*
X70550Y-45050D02*
X70550Y-44400D01*
X72550Y-44400D02*
X73450Y-44400D01*
X73450Y-44400D02*
X73450Y-45050D01*
X72550Y-45750D02*
X72550Y-46400D01*
X72550Y-46400D02*
X73450Y-46400D01*
X73450Y-46400D02*
X73450Y-45750D01*
X72550Y-45050D02*
X72550Y-44400D01*
X74550Y-44400D02*
X75450Y-44400D01*
X75450Y-44400D02*
X75450Y-45050D01*
X74550Y-45750D02*
X74550Y-46400D01*
X74550Y-46400D02*
X75450Y-46400D01*
X75450Y-46400D02*
X75450Y-45750D01*
X74550Y-45050D02*
X74550Y-44400D01*
X76550Y-44400D02*
X77450Y-44400D01*
X77450Y-44400D02*
X77450Y-45050D01*
X76550Y-45750D02*
X76550Y-46400D01*
X76550Y-46400D02*
X77450Y-46400D01*
X77450Y-46400D02*
X77450Y-45750D01*
X76550Y-45050D02*
X76550Y-44400D01*
X70550Y-40000D02*
X71450Y-40000D01*
X71450Y-40000D02*
X71450Y-40650D01*
X70550Y-41350D02*
X70550Y-42000D01*
X70550Y-42000D02*
X71450Y-42000D01*
X71450Y-42000D02*
X71450Y-41350D01*
X70550Y-40650D02*
X70550Y-40000D01*
X72550Y-40000D02*
X73450Y-40000D01*
X73450Y-40000D02*
X73450Y-40650D01*
X72550Y-41350D02*
X72550Y-42000D01*
X72550Y-42000D02*
X73450Y-42000D01*
X73450Y-42000D02*
X73450Y-41350D01*
X72550Y-40650D02*
X72550Y-40000D01*
X74550Y-40000D02*
X75450Y-40000D01*
X75450Y-40000D02*
X75450Y-40650D01*
X74550Y-41350D02*
X74550Y-42000D01*
X74550Y-42000D02*
X75450Y-42000D01*
X75450Y-42000D02*
X75450Y-41350D01*
X74550Y-40650D02*
X74550Y-40000D01*
X76550Y-40000D02*
X77450Y-40000D01*
X77450Y-40000D02*
X77450Y-40650D01*
X76550Y-41350D02*
X76550Y-42000D01*
X76550Y-42000D02*
X77450Y-42000D01*
X77450Y-42000D02*
X77450Y-41350D01*
X76550Y-40650D02*
X76550Y-40000D01*
X59550Y-36000D02*
X58650Y-36000D01*
X58650Y-36000D02*
X58650Y-35350D01*
X59550Y-34650D02*
X59550Y-34000D01*
X59550Y-34000D02*
X58650Y-34000D01*
X58650Y-34000D02*
X58650Y-34650D01*
X59550Y-35350D02*
X59550Y-36000D01*
G54D16*
X70199Y-42962D02*
G75*
G03X70199Y-42962I-62J0D01*
G74*
G01*
X71100Y-43300D02*
X71100Y-42900D01*
X70075Y-43300D02*
X70075Y-42900D01*
X71100Y-42900D02*
X70075Y-42900D01*
X70075Y-43300D02*
X71100Y-43300D01*
X72199Y-42962D02*
G75*
G03X72199Y-42962I-62J0D01*
G74*
G01*
X73100Y-43300D02*
X73100Y-42900D01*
X72075Y-43300D02*
X72075Y-42900D01*
X73100Y-42900D02*
X72075Y-42900D01*
X72075Y-43300D02*
X73100Y-43300D01*
X74199Y-42962D02*
G75*
G03X74199Y-42962I-62J0D01*
G74*
G01*
X75100Y-43300D02*
X75100Y-42900D01*
X74075Y-43300D02*
X74075Y-42900D01*
X75100Y-42900D02*
X74075Y-42900D01*
X74075Y-43300D02*
X75100Y-43300D01*
X76199Y-42962D02*
G75*
G03X76199Y-42962I-62J0D01*
G74*
G01*
X77100Y-43300D02*
X77100Y-42900D01*
X76075Y-43300D02*
X76075Y-42900D01*
X77100Y-42900D02*
X76075Y-42900D01*
X76075Y-43300D02*
X77100Y-43300D01*
G54D10*
X47729Y-38629D02*
X47729Y-39170D01*
X48270Y-39170D01*
X48270Y-38629D01*
X47729Y-38629D01*
X48270Y-39900D02*
G75*
G03X48270Y-39900I-270J0D01*
G74*
G01*
X49270Y-38900D02*
G75*
G03X49270Y-38900I-270J0D01*
G74*
G01*
X49270Y-39900D02*
G75*
G03X49270Y-39900I-270J0D01*
G74*
G01*
X50270Y-38900D02*
G75*
G03X50270Y-38900I-270J0D01*
G74*
G01*
X50270Y-39900D02*
G75*
G03X50270Y-39900I-270J0D01*
G74*
G01*
X51270Y-38900D02*
G75*
G03X51270Y-38900I-270J0D01*
G74*
G01*
X51270Y-39900D02*
G75*
G03X51270Y-39900I-270J0D01*
G74*
G01*
X52270Y-38900D02*
G75*
G03X52270Y-38900I-270J0D01*
G74*
G01*
X52270Y-39900D02*
G75*
G03X52270Y-39900I-270J0D01*
G74*
G01*
X53270Y-38900D02*
G75*
G03X53270Y-38900I-270J0D01*
G74*
G01*
X53270Y-39900D02*
G75*
G03X53270Y-39900I-270J0D01*
G74*
G01*
X54270Y-38900D02*
G75*
G03X54270Y-38900I-270J0D01*
G74*
G01*
X54270Y-39900D02*
G75*
G03X54270Y-39900I-270J0D01*
G74*
G01*
X55270Y-38900D02*
G75*
G03X55270Y-38900I-270J0D01*
G74*
G01*
X55270Y-39900D02*
G75*
G03X55270Y-39900I-270J0D01*
G74*
G01*
G54D13*
X64992Y-37800D02*
X65007Y-37785D01*
X65021Y-37742D01*
X65021Y-37714D01*
X65007Y-37671D01*
X64978Y-37642D01*
X64950Y-37628D01*
X64892Y-37614D01*
X64850Y-37614D01*
X64792Y-37628D01*
X64764Y-37642D01*
X64735Y-37671D01*
X64721Y-37714D01*
X64721Y-37742D01*
X64735Y-37785D01*
X64750Y-37800D01*
X65021Y-38085D02*
X65021Y-37914D01*
X65021Y-38000D02*
X64721Y-38000D01*
X64764Y-37971D01*
X64792Y-37942D01*
X64807Y-37914D01*
X56992Y-39250D02*
X57007Y-39235D01*
X57021Y-39192D01*
X57021Y-39164D01*
X57007Y-39121D01*
X56978Y-39092D01*
X56950Y-39078D01*
X56892Y-39064D01*
X56850Y-39064D01*
X56792Y-39078D01*
X56764Y-39092D01*
X56735Y-39121D01*
X56721Y-39164D01*
X56721Y-39192D01*
X56735Y-39235D01*
X56750Y-39250D01*
X56750Y-39364D02*
X56735Y-39378D01*
X56721Y-39407D01*
X56721Y-39478D01*
X56735Y-39507D01*
X56750Y-39521D01*
X56778Y-39535D01*
X56807Y-39535D01*
X56850Y-39521D01*
X57021Y-39350D01*
X57021Y-39535D01*
X66092Y-37750D02*
X66107Y-37735D01*
X66121Y-37692D01*
X66121Y-37664D01*
X66107Y-37621D01*
X66078Y-37592D01*
X66050Y-37578D01*
X65992Y-37564D01*
X65950Y-37564D01*
X65892Y-37578D01*
X65864Y-37592D01*
X65835Y-37621D01*
X65821Y-37664D01*
X65821Y-37692D01*
X65835Y-37735D01*
X65850Y-37750D01*
X65821Y-37850D02*
X65821Y-38035D01*
X65935Y-37935D01*
X65935Y-37978D01*
X65950Y-38007D01*
X65964Y-38021D01*
X65992Y-38035D01*
X66064Y-38035D01*
X66092Y-38021D01*
X66107Y-38007D01*
X66121Y-37978D01*
X66121Y-37892D01*
X66107Y-37864D01*
X66092Y-37850D01*
G54D17*
X62540Y-40302D02*
X62540Y-39802D01*
X62121Y-40254D02*
X62140Y-40278D01*
X62197Y-40302D01*
X62235Y-40302D01*
X62292Y-40278D01*
X62330Y-40230D01*
X62349Y-40183D01*
X62369Y-40088D01*
X62369Y-40016D01*
X62349Y-39921D01*
X62330Y-39873D01*
X62292Y-39826D01*
X62235Y-39802D01*
X62197Y-39802D01*
X62140Y-39826D01*
X62121Y-39850D01*
X61740Y-40302D02*
X61969Y-40302D01*
X61854Y-40302D02*
X61854Y-39802D01*
X61892Y-39873D01*
X61930Y-39921D01*
X61969Y-39945D01*
X51795Y-40861D02*
X51795Y-40461D01*
X51642Y-40461D01*
X51604Y-40480D01*
X51585Y-40500D01*
X51566Y-40538D01*
X51566Y-40595D01*
X51585Y-40633D01*
X51604Y-40652D01*
X51642Y-40671D01*
X51795Y-40671D01*
X51185Y-40861D02*
X51414Y-40861D01*
X51299Y-40861D02*
X51299Y-40461D01*
X51338Y-40519D01*
X51376Y-40557D01*
X51414Y-40576D01*
G54D13*
X61521Y-33500D02*
X61378Y-33400D01*
X61521Y-33328D02*
X61221Y-33328D01*
X61221Y-33442D01*
X61235Y-33471D01*
X61250Y-33485D01*
X61278Y-33500D01*
X61321Y-33500D01*
X61350Y-33485D01*
X61364Y-33471D01*
X61378Y-33442D01*
X61378Y-33328D01*
X61521Y-33785D02*
X61521Y-33614D01*
X61521Y-33700D02*
X61221Y-33700D01*
X61264Y-33671D01*
X61292Y-33642D01*
X61307Y-33614D01*
X60821Y-43650D02*
X60678Y-43550D01*
X60821Y-43478D02*
X60521Y-43478D01*
X60521Y-43592D01*
X60535Y-43621D01*
X60550Y-43635D01*
X60578Y-43650D01*
X60621Y-43650D01*
X60650Y-43635D01*
X60664Y-43621D01*
X60678Y-43592D01*
X60678Y-43478D01*
X60550Y-43764D02*
X60535Y-43778D01*
X60521Y-43807D01*
X60521Y-43878D01*
X60535Y-43907D01*
X60550Y-43921D01*
X60578Y-43935D01*
X60607Y-43935D01*
X60650Y-43921D01*
X60821Y-43750D01*
X60821Y-43935D01*
X62821Y-43650D02*
X62678Y-43550D01*
X62821Y-43478D02*
X62521Y-43478D01*
X62521Y-43592D01*
X62535Y-43621D01*
X62550Y-43635D01*
X62578Y-43650D01*
X62621Y-43650D01*
X62650Y-43635D01*
X62664Y-43621D01*
X62678Y-43592D01*
X62678Y-43478D01*
X62521Y-43750D02*
X62521Y-43935D01*
X62635Y-43835D01*
X62635Y-43878D01*
X62650Y-43907D01*
X62664Y-43921D01*
X62692Y-43935D01*
X62764Y-43935D01*
X62792Y-43921D01*
X62807Y-43907D01*
X62821Y-43878D01*
X62821Y-43792D01*
X62807Y-43764D01*
X62792Y-43750D01*
X61821Y-43650D02*
X61678Y-43550D01*
X61821Y-43478D02*
X61521Y-43478D01*
X61521Y-43592D01*
X61535Y-43621D01*
X61550Y-43635D01*
X61578Y-43650D01*
X61621Y-43650D01*
X61650Y-43635D01*
X61664Y-43621D01*
X61678Y-43592D01*
X61678Y-43478D01*
X61621Y-43907D02*
X61821Y-43907D01*
X61507Y-43835D02*
X61721Y-43764D01*
X61721Y-43950D01*
X70371Y-45350D02*
X70228Y-45250D01*
X70371Y-45178D02*
X70071Y-45178D01*
X70071Y-45292D01*
X70085Y-45321D01*
X70100Y-45335D01*
X70128Y-45350D01*
X70171Y-45350D01*
X70200Y-45335D01*
X70214Y-45321D01*
X70228Y-45292D01*
X70228Y-45178D01*
X70071Y-45621D02*
X70071Y-45478D01*
X70214Y-45464D01*
X70200Y-45478D01*
X70185Y-45507D01*
X70185Y-45578D01*
X70200Y-45607D01*
X70214Y-45621D01*
X70242Y-45635D01*
X70314Y-45635D01*
X70342Y-45621D01*
X70357Y-45607D01*
X70371Y-45578D01*
X70371Y-45507D01*
X70357Y-45478D01*
X70342Y-45464D01*
X72371Y-45350D02*
X72228Y-45250D01*
X72371Y-45178D02*
X72071Y-45178D01*
X72071Y-45292D01*
X72085Y-45321D01*
X72100Y-45335D01*
X72128Y-45350D01*
X72171Y-45350D01*
X72200Y-45335D01*
X72214Y-45321D01*
X72228Y-45292D01*
X72228Y-45178D01*
X72071Y-45607D02*
X72071Y-45550D01*
X72085Y-45521D01*
X72100Y-45507D01*
X72142Y-45478D01*
X72200Y-45464D01*
X72314Y-45464D01*
X72342Y-45478D01*
X72357Y-45492D01*
X72371Y-45521D01*
X72371Y-45578D01*
X72357Y-45607D01*
X72342Y-45621D01*
X72314Y-45635D01*
X72242Y-45635D01*
X72214Y-45621D01*
X72200Y-45607D01*
X72185Y-45578D01*
X72185Y-45521D01*
X72200Y-45492D01*
X72214Y-45478D01*
X72242Y-45464D01*
X74371Y-45350D02*
X74228Y-45250D01*
X74371Y-45178D02*
X74071Y-45178D01*
X74071Y-45292D01*
X74085Y-45321D01*
X74100Y-45335D01*
X74128Y-45350D01*
X74171Y-45350D01*
X74200Y-45335D01*
X74214Y-45321D01*
X74228Y-45292D01*
X74228Y-45178D01*
X74071Y-45450D02*
X74071Y-45650D01*
X74371Y-45521D01*
X76371Y-45350D02*
X76228Y-45250D01*
X76371Y-45178D02*
X76071Y-45178D01*
X76071Y-45292D01*
X76085Y-45321D01*
X76100Y-45335D01*
X76128Y-45350D01*
X76171Y-45350D01*
X76200Y-45335D01*
X76214Y-45321D01*
X76228Y-45292D01*
X76228Y-45178D01*
X76200Y-45521D02*
X76185Y-45492D01*
X76171Y-45478D01*
X76142Y-45464D01*
X76128Y-45464D01*
X76100Y-45478D01*
X76085Y-45492D01*
X76071Y-45521D01*
X76071Y-45578D01*
X76085Y-45607D01*
X76100Y-45621D01*
X76128Y-45635D01*
X76142Y-45635D01*
X76171Y-45621D01*
X76185Y-45607D01*
X76200Y-45578D01*
X76200Y-45521D01*
X76214Y-45492D01*
X76228Y-45478D01*
X76257Y-45464D01*
X76314Y-45464D01*
X76342Y-45478D01*
X76357Y-45492D01*
X76371Y-45521D01*
X76371Y-45578D01*
X76357Y-45607D01*
X76342Y-45621D01*
X76314Y-45635D01*
X76257Y-45635D01*
X76228Y-45621D01*
X76214Y-45607D01*
X76200Y-45578D01*
X70421Y-40950D02*
X70278Y-40850D01*
X70421Y-40778D02*
X70121Y-40778D01*
X70121Y-40892D01*
X70135Y-40921D01*
X70150Y-40935D01*
X70178Y-40950D01*
X70221Y-40950D01*
X70250Y-40935D01*
X70264Y-40921D01*
X70278Y-40892D01*
X70278Y-40778D01*
X70421Y-41092D02*
X70421Y-41150D01*
X70407Y-41178D01*
X70392Y-41192D01*
X70350Y-41221D01*
X70292Y-41235D01*
X70178Y-41235D01*
X70150Y-41221D01*
X70135Y-41207D01*
X70121Y-41178D01*
X70121Y-41121D01*
X70135Y-41092D01*
X70150Y-41078D01*
X70178Y-41064D01*
X70250Y-41064D01*
X70278Y-41078D01*
X70292Y-41092D01*
X70307Y-41121D01*
X70307Y-41178D01*
X70292Y-41207D01*
X70278Y-41221D01*
X70250Y-41235D01*
X72371Y-40807D02*
X72228Y-40707D01*
X72371Y-40635D02*
X72071Y-40635D01*
X72071Y-40750D01*
X72085Y-40778D01*
X72100Y-40792D01*
X72128Y-40807D01*
X72171Y-40807D01*
X72200Y-40792D01*
X72214Y-40778D01*
X72228Y-40750D01*
X72228Y-40635D01*
X72371Y-41092D02*
X72371Y-40921D01*
X72371Y-41007D02*
X72071Y-41007D01*
X72114Y-40978D01*
X72142Y-40950D01*
X72157Y-40921D01*
X72071Y-41278D02*
X72071Y-41307D01*
X72085Y-41335D01*
X72100Y-41350D01*
X72128Y-41364D01*
X72185Y-41378D01*
X72257Y-41378D01*
X72314Y-41364D01*
X72342Y-41350D01*
X72357Y-41335D01*
X72371Y-41307D01*
X72371Y-41278D01*
X72357Y-41250D01*
X72342Y-41235D01*
X72314Y-41221D01*
X72257Y-41207D01*
X72185Y-41207D01*
X72128Y-41221D01*
X72100Y-41235D01*
X72085Y-41250D01*
X72071Y-41278D01*
X74421Y-40807D02*
X74278Y-40707D01*
X74421Y-40635D02*
X74121Y-40635D01*
X74121Y-40750D01*
X74135Y-40778D01*
X74150Y-40792D01*
X74178Y-40807D01*
X74221Y-40807D01*
X74250Y-40792D01*
X74264Y-40778D01*
X74278Y-40750D01*
X74278Y-40635D01*
X74421Y-41092D02*
X74421Y-40921D01*
X74421Y-41007D02*
X74121Y-41007D01*
X74164Y-40978D01*
X74192Y-40950D01*
X74207Y-40921D01*
X74421Y-41378D02*
X74421Y-41207D01*
X74421Y-41292D02*
X74121Y-41292D01*
X74164Y-41264D01*
X74192Y-41235D01*
X74207Y-41207D01*
X76371Y-40807D02*
X76228Y-40707D01*
X76371Y-40635D02*
X76071Y-40635D01*
X76071Y-40750D01*
X76085Y-40778D01*
X76100Y-40792D01*
X76128Y-40807D01*
X76171Y-40807D01*
X76200Y-40792D01*
X76214Y-40778D01*
X76228Y-40750D01*
X76228Y-40635D01*
X76371Y-41092D02*
X76371Y-40921D01*
X76371Y-41007D02*
X76071Y-41007D01*
X76114Y-40978D01*
X76142Y-40950D01*
X76157Y-40921D01*
X76100Y-41207D02*
X76085Y-41221D01*
X76071Y-41250D01*
X76071Y-41321D01*
X76085Y-41350D01*
X76100Y-41364D01*
X76128Y-41378D01*
X76157Y-41378D01*
X76200Y-41364D01*
X76371Y-41192D01*
X76371Y-41378D01*
X59221Y-33207D02*
X59078Y-33107D01*
X59221Y-33035D02*
X58921Y-33035D01*
X58921Y-33150D01*
X58935Y-33178D01*
X58950Y-33192D01*
X58978Y-33207D01*
X59021Y-33207D01*
X59050Y-33192D01*
X59064Y-33178D01*
X59078Y-33150D01*
X59078Y-33035D01*
X59221Y-33492D02*
X59221Y-33321D01*
X59221Y-33407D02*
X58921Y-33407D01*
X58964Y-33378D01*
X58992Y-33350D01*
X59007Y-33321D01*
X58921Y-33592D02*
X58921Y-33778D01*
X59035Y-33678D01*
X59035Y-33721D01*
X59050Y-33750D01*
X59064Y-33764D01*
X59092Y-33778D01*
X59164Y-33778D01*
X59192Y-33764D01*
X59207Y-33750D01*
X59221Y-33721D01*
X59221Y-33635D01*
X59207Y-33607D01*
X59192Y-33592D01*
G54D18*
X71537Y-43110D02*
X71522Y-43081D01*
X71494Y-43053D01*
X71451Y-43010D01*
X71437Y-42981D01*
X71437Y-42953D01*
X71508Y-42967D02*
X71494Y-42939D01*
X71465Y-42910D01*
X71408Y-42896D01*
X71308Y-42896D01*
X71251Y-42910D01*
X71222Y-42939D01*
X71208Y-42967D01*
X71208Y-43024D01*
X71222Y-43053D01*
X71251Y-43081D01*
X71308Y-43096D01*
X71408Y-43096D01*
X71465Y-43081D01*
X71494Y-43053D01*
X71508Y-43024D01*
X71508Y-42967D01*
X71508Y-43381D02*
X71508Y-43210D01*
X71508Y-43296D02*
X71208Y-43296D01*
X71251Y-43267D01*
X71279Y-43239D01*
X71294Y-43210D01*
X73537Y-43110D02*
X73522Y-43081D01*
X73494Y-43053D01*
X73451Y-43010D01*
X73437Y-42981D01*
X73437Y-42953D01*
X73508Y-42967D02*
X73494Y-42939D01*
X73465Y-42910D01*
X73408Y-42896D01*
X73308Y-42896D01*
X73251Y-42910D01*
X73222Y-42939D01*
X73208Y-42967D01*
X73208Y-43024D01*
X73222Y-43053D01*
X73251Y-43081D01*
X73308Y-43096D01*
X73408Y-43096D01*
X73465Y-43081D01*
X73494Y-43053D01*
X73508Y-43024D01*
X73508Y-42967D01*
X73237Y-43210D02*
X73222Y-43224D01*
X73208Y-43253D01*
X73208Y-43324D01*
X73222Y-43353D01*
X73237Y-43367D01*
X73265Y-43381D01*
X73294Y-43381D01*
X73337Y-43367D01*
X73508Y-43196D01*
X73508Y-43381D01*
X75537Y-43110D02*
X75522Y-43081D01*
X75494Y-43053D01*
X75451Y-43010D01*
X75437Y-42981D01*
X75437Y-42953D01*
X75508Y-42967D02*
X75494Y-42939D01*
X75465Y-42910D01*
X75408Y-42896D01*
X75308Y-42896D01*
X75251Y-42910D01*
X75222Y-42939D01*
X75208Y-42967D01*
X75208Y-43024D01*
X75222Y-43053D01*
X75251Y-43081D01*
X75308Y-43096D01*
X75408Y-43096D01*
X75465Y-43081D01*
X75494Y-43053D01*
X75508Y-43024D01*
X75508Y-42967D01*
X75208Y-43196D02*
X75208Y-43381D01*
X75322Y-43281D01*
X75322Y-43324D01*
X75337Y-43353D01*
X75351Y-43367D01*
X75379Y-43381D01*
X75451Y-43381D01*
X75479Y-43367D01*
X75494Y-43353D01*
X75508Y-43324D01*
X75508Y-43239D01*
X75494Y-43210D01*
X75479Y-43196D01*
X77537Y-43110D02*
X77522Y-43081D01*
X77494Y-43053D01*
X77451Y-43010D01*
X77437Y-42981D01*
X77437Y-42953D01*
X77508Y-42967D02*
X77494Y-42939D01*
X77465Y-42910D01*
X77408Y-42896D01*
X77308Y-42896D01*
X77251Y-42910D01*
X77222Y-42939D01*
X77208Y-42967D01*
X77208Y-43024D01*
X77222Y-43053D01*
X77251Y-43081D01*
X77308Y-43096D01*
X77408Y-43096D01*
X77465Y-43081D01*
X77494Y-43053D01*
X77508Y-43024D01*
X77508Y-42967D01*
X77308Y-43353D02*
X77508Y-43353D01*
X77194Y-43281D02*
X77408Y-43210D01*
X77408Y-43396D01*
M02*
