G04 (created by PCBNEW (2013-jul-07)-stable) date mer. 26 nov. 2014 20:09:26 CET*
%MOIN*%
G04 Gerber Fmt 3.4, Leading zero omitted, Abs format*
%FSLAX34Y34*%
G01*
G70*
G90*
G04 APERTURE LIST*
%ADD10C,0.00590551*%
%ADD11C,0.015*%
%ADD12R,0.0709X0.0629*%
%ADD13R,0.06X0.06*%
%ADD14C,0.06*%
%ADD15R,0.0709X0.0433*%
%ADD16C,0.035*%
%ADD17C,0.0197*%
%ADD18C,0.011811*%
%ADD19C,0.01*%
G04 APERTURE END LIST*
G54D10*
G54D11*
X79700Y-47800D02*
X79700Y-31300D01*
X40300Y-47800D02*
X40300Y-31300D01*
X40300Y-31300D02*
X79700Y-31300D01*
X40300Y-47800D02*
X79700Y-47800D01*
G54D12*
X60300Y-35559D03*
X60300Y-34441D03*
X77000Y-36159D03*
X77000Y-35041D03*
X75000Y-36159D03*
X75000Y-35041D03*
X73000Y-36159D03*
X73000Y-35041D03*
X71000Y-36159D03*
X71000Y-35041D03*
X71000Y-39059D03*
X71000Y-37941D03*
X73000Y-39059D03*
X73000Y-37941D03*
X75000Y-39059D03*
X75000Y-37941D03*
X77000Y-39059D03*
X77000Y-37941D03*
X60300Y-37859D03*
X60300Y-36741D03*
G54D13*
X64000Y-36200D03*
G54D14*
X64000Y-35200D03*
X65000Y-36200D03*
X65000Y-35200D03*
X66000Y-36200D03*
X66000Y-35200D03*
G54D13*
X48000Y-38900D03*
G54D14*
X48000Y-39900D03*
X49000Y-38900D03*
X49000Y-39900D03*
X50000Y-38900D03*
X50000Y-39900D03*
X51000Y-38900D03*
X51000Y-39900D03*
X52000Y-38900D03*
X52000Y-39900D03*
X53000Y-38900D03*
X53000Y-39900D03*
X54000Y-38900D03*
X54000Y-39900D03*
X55000Y-38900D03*
X55000Y-39900D03*
G54D13*
X54800Y-44000D03*
G54D14*
X54800Y-43000D03*
G54D13*
X55800Y-44000D03*
G54D14*
X55800Y-43000D03*
G54D13*
X56800Y-44000D03*
G54D14*
X56800Y-43000D03*
G54D13*
X57800Y-44000D03*
G54D14*
X57800Y-43000D03*
G54D15*
X66270Y-44478D03*
X63830Y-44478D03*
X63830Y-43022D03*
X66270Y-43022D03*
G54D13*
X59400Y-42700D03*
G54D14*
X60400Y-42700D03*
G54D16*
X60800Y-39100D03*
X49300Y-47000D03*
X73000Y-46900D03*
X75000Y-46900D03*
X77000Y-46900D03*
X74350Y-33950D03*
X71650Y-33950D03*
X70400Y-33950D03*
X76350Y-33950D03*
X63700Y-37450D03*
X63500Y-34400D03*
X49450Y-35150D03*
X49500Y-37700D03*
X50450Y-35150D03*
X51900Y-35150D03*
X48550Y-35150D03*
X61450Y-39650D03*
X61500Y-38600D03*
X56250Y-40750D03*
X61600Y-36600D03*
X71800Y-40300D03*
X75800Y-40200D03*
X58200Y-35700D03*
X77800Y-40200D03*
X62400Y-34400D03*
X73800Y-40300D03*
X61300Y-43150D03*
X61400Y-40500D03*
X59700Y-41500D03*
X68050Y-39800D03*
X66500Y-40700D03*
X63600Y-41850D03*
X64250Y-41400D03*
G54D17*
X60300Y-37859D02*
X60300Y-38600D01*
X60300Y-38600D02*
X60800Y-39100D01*
X55000Y-39900D02*
X54000Y-39900D01*
G54D18*
X49300Y-47000D02*
X48000Y-45700D01*
X48000Y-45700D02*
X48000Y-39900D01*
X73000Y-46900D02*
X72900Y-47000D01*
X72900Y-47000D02*
X50800Y-47000D01*
X49000Y-45200D02*
X49000Y-39900D01*
X50800Y-47000D02*
X49000Y-45200D01*
X75000Y-46900D02*
X74100Y-46000D01*
X51200Y-46000D02*
X50000Y-44800D01*
X74100Y-46000D02*
X51200Y-46000D01*
X50000Y-39900D02*
X50000Y-44800D01*
X77000Y-46900D02*
X75300Y-45200D01*
X51800Y-45200D02*
X51000Y-44400D01*
X75300Y-45200D02*
X51800Y-45200D01*
X51000Y-43700D02*
X51000Y-44400D01*
X51000Y-39900D02*
X51000Y-43700D01*
G54D17*
X69650Y-33950D02*
X70400Y-33950D01*
X68800Y-35200D02*
X69650Y-33950D01*
X68800Y-35200D02*
X66000Y-35200D01*
X65700Y-34400D02*
X63500Y-34400D01*
X66000Y-34700D02*
X65700Y-34400D01*
X66000Y-35200D02*
X66000Y-34700D01*
X63450Y-34400D02*
X63050Y-34800D01*
X63050Y-34800D02*
X63050Y-36800D01*
X63050Y-36800D02*
X63700Y-37450D01*
X63500Y-34400D02*
X63450Y-34400D01*
X49450Y-35150D02*
X49450Y-37650D01*
X49450Y-37650D02*
X49500Y-37700D01*
X54000Y-35400D02*
X54000Y-38900D01*
X53750Y-35150D02*
X51900Y-35150D01*
X54000Y-35400D02*
X53750Y-35150D01*
X55000Y-38900D02*
X54000Y-38900D01*
X61450Y-39650D02*
X61450Y-38650D01*
X61450Y-38650D02*
X61500Y-38600D01*
X55000Y-38900D02*
X56000Y-38900D01*
X56250Y-39150D02*
X56250Y-40750D01*
X56000Y-38900D02*
X56250Y-39150D01*
G54D18*
X60300Y-35559D02*
X60559Y-35559D01*
X60559Y-35559D02*
X61600Y-36600D01*
X71000Y-39500D02*
X71000Y-39059D01*
X71800Y-40300D02*
X71000Y-39500D01*
X75000Y-39400D02*
X75000Y-39059D01*
X75800Y-40200D02*
X75000Y-39400D01*
X59141Y-36641D02*
X60200Y-36641D01*
X58200Y-35700D02*
X59141Y-36641D01*
X60200Y-36641D02*
X60300Y-36741D01*
X77000Y-39400D02*
X77000Y-39059D01*
X77800Y-40200D02*
X77000Y-39400D01*
X60300Y-34441D02*
X60341Y-34400D01*
X60341Y-34400D02*
X62400Y-34400D01*
X73000Y-39500D02*
X73000Y-39059D01*
X73800Y-40300D02*
X73000Y-39500D01*
X48000Y-38900D02*
X48100Y-38800D01*
X77000Y-32900D02*
X77000Y-35041D01*
X76500Y-32400D02*
X77000Y-32900D01*
X49400Y-32400D02*
X76500Y-32400D01*
X48100Y-33700D02*
X49400Y-32400D01*
X48100Y-38800D02*
X48100Y-33700D01*
X75000Y-35041D02*
X75000Y-33000D01*
X49000Y-33700D02*
X49000Y-38900D01*
X50000Y-32700D02*
X49000Y-33700D01*
X74700Y-32700D02*
X50000Y-32700D01*
X75000Y-33000D02*
X74700Y-32700D01*
X50000Y-38900D02*
X50000Y-33800D01*
X73000Y-33400D02*
X73000Y-35041D01*
X72600Y-33000D02*
X73000Y-33400D01*
X50800Y-33000D02*
X72600Y-33000D01*
X50000Y-33800D02*
X50800Y-33000D01*
X71000Y-35041D02*
X71000Y-33600D01*
X51000Y-33800D02*
X51000Y-38900D01*
X51500Y-33300D02*
X51000Y-33800D01*
X70700Y-33300D02*
X51500Y-33300D01*
X71000Y-33600D02*
X70700Y-33300D01*
X63830Y-43022D02*
X61428Y-43022D01*
X61428Y-43022D02*
X61300Y-43150D01*
X61400Y-40500D02*
X63100Y-40500D01*
X66000Y-37600D02*
X66000Y-36200D01*
X63100Y-40500D02*
X66000Y-37600D01*
X63830Y-43022D02*
X66270Y-43022D01*
X52000Y-39900D02*
X52000Y-40850D01*
X52650Y-41500D02*
X59700Y-41500D01*
X52000Y-40850D02*
X52650Y-41500D01*
X68050Y-39650D02*
X68550Y-39150D01*
X68050Y-39800D02*
X68050Y-39650D01*
X75759Y-37400D02*
X77000Y-36159D01*
X70300Y-37400D02*
X75759Y-37400D01*
X68550Y-39150D02*
X70300Y-37400D01*
X74059Y-37100D02*
X75000Y-36159D01*
X70100Y-37100D02*
X74059Y-37100D01*
X66500Y-40700D02*
X70100Y-37100D01*
X65225Y-41475D02*
X64850Y-41850D01*
X64850Y-41850D02*
X63600Y-41850D01*
X72359Y-36800D02*
X73000Y-36159D01*
X72300Y-36800D02*
X72359Y-36800D01*
X71200Y-36800D02*
X72300Y-36800D01*
X69900Y-36800D02*
X71200Y-36800D01*
X68900Y-37800D02*
X69900Y-36800D01*
X66900Y-39800D02*
X68900Y-37800D01*
X65225Y-41475D02*
X66900Y-39800D01*
X65300Y-41000D02*
X64900Y-41400D01*
X65550Y-40750D02*
X69500Y-36800D01*
X65300Y-41000D02*
X65550Y-40750D01*
X69800Y-36500D02*
X69500Y-36800D01*
X70659Y-36500D02*
X69800Y-36500D01*
X71000Y-36159D02*
X70659Y-36500D01*
X64900Y-41400D02*
X64250Y-41400D01*
G54D10*
G36*
X49553Y-32709D02*
X48781Y-33481D01*
X48714Y-33581D01*
X48690Y-33700D01*
X48690Y-38432D01*
X48688Y-38433D01*
X48550Y-38572D01*
X48550Y-38550D01*
X48512Y-38458D01*
X48441Y-38388D01*
X48409Y-38374D01*
X48409Y-33828D01*
X49528Y-32709D01*
X49553Y-32709D01*
X49553Y-32709D01*
G37*
G54D19*
X49553Y-32709D02*
X48781Y-33481D01*
X48714Y-33581D01*
X48690Y-33700D01*
X48690Y-38432D01*
X48688Y-38433D01*
X48550Y-38572D01*
X48550Y-38550D01*
X48512Y-38458D01*
X48441Y-38388D01*
X48409Y-38374D01*
X48409Y-33828D01*
X49528Y-32709D01*
X49553Y-32709D01*
G54D10*
G36*
X50353Y-33009D02*
X49781Y-33581D01*
X49714Y-33681D01*
X49690Y-33800D01*
X49690Y-38432D01*
X49688Y-38433D01*
X49534Y-38588D01*
X49500Y-38669D01*
X49466Y-38588D01*
X49311Y-38434D01*
X49309Y-38432D01*
X49309Y-33828D01*
X50128Y-33009D01*
X50353Y-33009D01*
X50353Y-33009D01*
G37*
G54D19*
X50353Y-33009D02*
X49781Y-33581D01*
X49714Y-33681D01*
X49690Y-33800D01*
X49690Y-38432D01*
X49688Y-38433D01*
X49534Y-38588D01*
X49500Y-38669D01*
X49466Y-38588D01*
X49311Y-38434D01*
X49309Y-38432D01*
X49309Y-33828D01*
X50128Y-33009D01*
X50353Y-33009D01*
G54D10*
G36*
X51053Y-33309D02*
X50781Y-33581D01*
X50714Y-33681D01*
X50690Y-33800D01*
X50690Y-38432D01*
X50688Y-38433D01*
X50534Y-38588D01*
X50500Y-38669D01*
X50466Y-38588D01*
X50311Y-38434D01*
X50309Y-38432D01*
X50309Y-33928D01*
X50928Y-33309D01*
X51053Y-33309D01*
X51053Y-33309D01*
G37*
G54D19*
X51053Y-33309D02*
X50781Y-33581D01*
X50714Y-33681D01*
X50690Y-33800D01*
X50690Y-38432D01*
X50688Y-38433D01*
X50534Y-38588D01*
X50500Y-38669D01*
X50466Y-38588D01*
X50311Y-38434D01*
X50309Y-38432D01*
X50309Y-33928D01*
X50928Y-33309D01*
X51053Y-33309D01*
G54D10*
G36*
X72690Y-34476D02*
X72595Y-34476D01*
X72504Y-34514D01*
X72433Y-34584D01*
X72395Y-34676D01*
X72395Y-34776D01*
X72395Y-35405D01*
X72433Y-35496D01*
X72503Y-35567D01*
X72582Y-35600D01*
X72504Y-35632D01*
X72433Y-35702D01*
X72395Y-35794D01*
X72395Y-35894D01*
X72395Y-36326D01*
X72230Y-36490D01*
X71604Y-36490D01*
X71604Y-36423D01*
X71604Y-35794D01*
X71566Y-35703D01*
X71496Y-35632D01*
X71417Y-35599D01*
X71495Y-35567D01*
X71566Y-35497D01*
X71604Y-35405D01*
X71604Y-35305D01*
X71604Y-34676D01*
X71566Y-34585D01*
X71496Y-34514D01*
X71404Y-34476D01*
X71309Y-34476D01*
X71309Y-33600D01*
X71309Y-33599D01*
X71309Y-33599D01*
X71304Y-33576D01*
X71285Y-33481D01*
X71285Y-33481D01*
X71218Y-33381D01*
X71218Y-33381D01*
X71146Y-33309D01*
X72471Y-33309D01*
X72690Y-33528D01*
X72690Y-34476D01*
X72690Y-34476D01*
G37*
G54D19*
X72690Y-34476D02*
X72595Y-34476D01*
X72504Y-34514D01*
X72433Y-34584D01*
X72395Y-34676D01*
X72395Y-34776D01*
X72395Y-35405D01*
X72433Y-35496D01*
X72503Y-35567D01*
X72582Y-35600D01*
X72504Y-35632D01*
X72433Y-35702D01*
X72395Y-35794D01*
X72395Y-35894D01*
X72395Y-36326D01*
X72230Y-36490D01*
X71604Y-36490D01*
X71604Y-36423D01*
X71604Y-35794D01*
X71566Y-35703D01*
X71496Y-35632D01*
X71417Y-35599D01*
X71495Y-35567D01*
X71566Y-35497D01*
X71604Y-35405D01*
X71604Y-35305D01*
X71604Y-34676D01*
X71566Y-34585D01*
X71496Y-34514D01*
X71404Y-34476D01*
X71309Y-34476D01*
X71309Y-33600D01*
X71309Y-33599D01*
X71309Y-33599D01*
X71304Y-33576D01*
X71285Y-33481D01*
X71285Y-33481D01*
X71218Y-33381D01*
X71218Y-33381D01*
X71146Y-33309D01*
X72471Y-33309D01*
X72690Y-33528D01*
X72690Y-34476D01*
G54D10*
G36*
X74690Y-34476D02*
X74595Y-34476D01*
X74504Y-34514D01*
X74433Y-34584D01*
X74395Y-34676D01*
X74395Y-34776D01*
X74395Y-35405D01*
X74433Y-35496D01*
X74503Y-35567D01*
X74582Y-35600D01*
X74504Y-35632D01*
X74433Y-35702D01*
X74395Y-35794D01*
X74395Y-35894D01*
X74395Y-36326D01*
X73930Y-36790D01*
X72805Y-36790D01*
X72872Y-36723D01*
X73404Y-36723D01*
X73495Y-36685D01*
X73566Y-36615D01*
X73604Y-36523D01*
X73604Y-36423D01*
X73604Y-35794D01*
X73566Y-35703D01*
X73496Y-35632D01*
X73417Y-35599D01*
X73495Y-35567D01*
X73566Y-35497D01*
X73604Y-35405D01*
X73604Y-35305D01*
X73604Y-34676D01*
X73566Y-34585D01*
X73496Y-34514D01*
X73404Y-34476D01*
X73309Y-34476D01*
X73309Y-33400D01*
X73309Y-33399D01*
X73309Y-33399D01*
X73304Y-33376D01*
X73285Y-33281D01*
X73285Y-33281D01*
X73218Y-33181D01*
X73218Y-33181D01*
X73046Y-33009D01*
X74571Y-33009D01*
X74690Y-33128D01*
X74690Y-34476D01*
X74690Y-34476D01*
G37*
G54D19*
X74690Y-34476D02*
X74595Y-34476D01*
X74504Y-34514D01*
X74433Y-34584D01*
X74395Y-34676D01*
X74395Y-34776D01*
X74395Y-35405D01*
X74433Y-35496D01*
X74503Y-35567D01*
X74582Y-35600D01*
X74504Y-35632D01*
X74433Y-35702D01*
X74395Y-35794D01*
X74395Y-35894D01*
X74395Y-36326D01*
X73930Y-36790D01*
X72805Y-36790D01*
X72872Y-36723D01*
X73404Y-36723D01*
X73495Y-36685D01*
X73566Y-36615D01*
X73604Y-36523D01*
X73604Y-36423D01*
X73604Y-35794D01*
X73566Y-35703D01*
X73496Y-35632D01*
X73417Y-35599D01*
X73495Y-35567D01*
X73566Y-35497D01*
X73604Y-35405D01*
X73604Y-35305D01*
X73604Y-34676D01*
X73566Y-34585D01*
X73496Y-34514D01*
X73404Y-34476D01*
X73309Y-34476D01*
X73309Y-33400D01*
X73309Y-33399D01*
X73309Y-33399D01*
X73304Y-33376D01*
X73285Y-33281D01*
X73285Y-33281D01*
X73218Y-33181D01*
X73218Y-33181D01*
X73046Y-33009D01*
X74571Y-33009D01*
X74690Y-33128D01*
X74690Y-34476D01*
G54D10*
G36*
X76690Y-34476D02*
X76595Y-34476D01*
X76504Y-34514D01*
X76433Y-34584D01*
X76395Y-34676D01*
X76395Y-34776D01*
X76395Y-35405D01*
X76433Y-35496D01*
X76503Y-35567D01*
X76582Y-35600D01*
X76504Y-35632D01*
X76433Y-35702D01*
X76395Y-35794D01*
X76395Y-35894D01*
X76395Y-36326D01*
X75630Y-37090D01*
X74505Y-37090D01*
X74872Y-36723D01*
X75404Y-36723D01*
X75495Y-36685D01*
X75566Y-36615D01*
X75604Y-36523D01*
X75604Y-36423D01*
X75604Y-35794D01*
X75566Y-35703D01*
X75496Y-35632D01*
X75417Y-35599D01*
X75495Y-35567D01*
X75566Y-35497D01*
X75604Y-35405D01*
X75604Y-35305D01*
X75604Y-34676D01*
X75566Y-34585D01*
X75496Y-34514D01*
X75404Y-34476D01*
X75309Y-34476D01*
X75309Y-33000D01*
X75309Y-32999D01*
X75309Y-32999D01*
X75304Y-32976D01*
X75285Y-32881D01*
X75285Y-32881D01*
X75218Y-32781D01*
X75218Y-32781D01*
X75146Y-32709D01*
X76371Y-32709D01*
X76690Y-33028D01*
X76690Y-34476D01*
X76690Y-34476D01*
G37*
G54D19*
X76690Y-34476D02*
X76595Y-34476D01*
X76504Y-34514D01*
X76433Y-34584D01*
X76395Y-34676D01*
X76395Y-34776D01*
X76395Y-35405D01*
X76433Y-35496D01*
X76503Y-35567D01*
X76582Y-35600D01*
X76504Y-35632D01*
X76433Y-35702D01*
X76395Y-35794D01*
X76395Y-35894D01*
X76395Y-36326D01*
X75630Y-37090D01*
X74505Y-37090D01*
X74872Y-36723D01*
X75404Y-36723D01*
X75495Y-36685D01*
X75566Y-36615D01*
X75604Y-36523D01*
X75604Y-36423D01*
X75604Y-35794D01*
X75566Y-35703D01*
X75496Y-35632D01*
X75417Y-35599D01*
X75495Y-35567D01*
X75566Y-35497D01*
X75604Y-35405D01*
X75604Y-35305D01*
X75604Y-34676D01*
X75566Y-34585D01*
X75496Y-34514D01*
X75404Y-34476D01*
X75309Y-34476D01*
X75309Y-33000D01*
X75309Y-32999D01*
X75309Y-32999D01*
X75304Y-32976D01*
X75285Y-32881D01*
X75285Y-32881D01*
X75218Y-32781D01*
X75218Y-32781D01*
X75146Y-32709D01*
X76371Y-32709D01*
X76690Y-33028D01*
X76690Y-34476D01*
G54D10*
G36*
X79375Y-47475D02*
X78225Y-47475D01*
X78225Y-40115D01*
X78160Y-39959D01*
X78041Y-39839D01*
X77884Y-39775D01*
X77812Y-39775D01*
X77559Y-39522D01*
X77566Y-39515D01*
X77604Y-39423D01*
X77604Y-39323D01*
X77604Y-38694D01*
X77604Y-36423D01*
X77604Y-35794D01*
X77566Y-35703D01*
X77496Y-35632D01*
X77417Y-35599D01*
X77495Y-35567D01*
X77566Y-35497D01*
X77604Y-35405D01*
X77604Y-35305D01*
X77604Y-34676D01*
X77566Y-34585D01*
X77496Y-34514D01*
X77404Y-34476D01*
X77309Y-34476D01*
X77309Y-32900D01*
X77285Y-32781D01*
X77285Y-32781D01*
X77218Y-32681D01*
X76718Y-32181D01*
X76618Y-32114D01*
X76500Y-32090D01*
X49400Y-32090D01*
X49281Y-32114D01*
X49181Y-32181D01*
X47881Y-33481D01*
X47814Y-33581D01*
X47790Y-33700D01*
X47790Y-38349D01*
X47650Y-38349D01*
X47558Y-38387D01*
X47488Y-38458D01*
X47450Y-38550D01*
X47449Y-38649D01*
X47449Y-39249D01*
X47487Y-39341D01*
X47558Y-39411D01*
X47650Y-39449D01*
X47672Y-39449D01*
X47534Y-39588D01*
X47450Y-39790D01*
X47449Y-40008D01*
X47533Y-40211D01*
X47688Y-40365D01*
X47690Y-40367D01*
X47690Y-45700D01*
X47714Y-45818D01*
X47781Y-45918D01*
X48874Y-47012D01*
X48874Y-47084D01*
X48939Y-47240D01*
X49058Y-47360D01*
X49215Y-47424D01*
X49384Y-47425D01*
X49540Y-47360D01*
X49660Y-47241D01*
X49724Y-47084D01*
X49725Y-46915D01*
X49660Y-46759D01*
X49541Y-46639D01*
X49384Y-46575D01*
X49312Y-46575D01*
X48309Y-45571D01*
X48309Y-40367D01*
X48311Y-40366D01*
X48465Y-40211D01*
X48499Y-40130D01*
X48533Y-40211D01*
X48688Y-40365D01*
X48690Y-40367D01*
X48690Y-45200D01*
X48714Y-45318D01*
X48781Y-45418D01*
X50581Y-47218D01*
X50681Y-47285D01*
X50681Y-47285D01*
X50800Y-47309D01*
X72876Y-47309D01*
X72915Y-47324D01*
X73084Y-47325D01*
X73240Y-47260D01*
X73360Y-47141D01*
X73424Y-46984D01*
X73425Y-46815D01*
X73360Y-46659D01*
X73241Y-46539D01*
X73084Y-46475D01*
X72915Y-46474D01*
X72759Y-46539D01*
X72639Y-46658D01*
X72626Y-46690D01*
X50928Y-46690D01*
X49309Y-45071D01*
X49309Y-40367D01*
X49311Y-40366D01*
X49465Y-40211D01*
X49499Y-40130D01*
X49533Y-40211D01*
X49688Y-40365D01*
X49690Y-40367D01*
X49690Y-44800D01*
X49714Y-44918D01*
X49781Y-45018D01*
X50981Y-46218D01*
X50981Y-46218D01*
X51081Y-46285D01*
X51081Y-46285D01*
X51176Y-46304D01*
X51199Y-46309D01*
X51199Y-46309D01*
X51200Y-46309D01*
X73971Y-46309D01*
X74574Y-46912D01*
X74574Y-46984D01*
X74639Y-47140D01*
X74758Y-47260D01*
X74915Y-47324D01*
X75084Y-47325D01*
X75240Y-47260D01*
X75360Y-47141D01*
X75424Y-46984D01*
X75425Y-46815D01*
X75360Y-46659D01*
X75241Y-46539D01*
X75084Y-46475D01*
X75012Y-46475D01*
X74318Y-45781D01*
X74218Y-45714D01*
X74100Y-45690D01*
X51328Y-45690D01*
X50309Y-44671D01*
X50309Y-40367D01*
X50311Y-40366D01*
X50465Y-40211D01*
X50499Y-40130D01*
X50533Y-40211D01*
X50688Y-40365D01*
X50690Y-40367D01*
X50690Y-43700D01*
X50690Y-44400D01*
X50714Y-44518D01*
X50781Y-44618D01*
X51581Y-45418D01*
X51581Y-45418D01*
X51681Y-45485D01*
X51681Y-45485D01*
X51776Y-45504D01*
X51799Y-45509D01*
X51799Y-45509D01*
X51800Y-45509D01*
X75171Y-45509D01*
X76574Y-46912D01*
X76574Y-46984D01*
X76639Y-47140D01*
X76758Y-47260D01*
X76915Y-47324D01*
X77084Y-47325D01*
X77240Y-47260D01*
X77360Y-47141D01*
X77424Y-46984D01*
X77425Y-46815D01*
X77360Y-46659D01*
X77241Y-46539D01*
X77084Y-46475D01*
X77012Y-46475D01*
X76225Y-45688D01*
X76225Y-40115D01*
X76160Y-39959D01*
X76041Y-39839D01*
X75884Y-39775D01*
X75812Y-39775D01*
X75559Y-39522D01*
X75566Y-39515D01*
X75604Y-39423D01*
X75604Y-39323D01*
X75604Y-38694D01*
X75566Y-38603D01*
X75496Y-38532D01*
X75404Y-38494D01*
X75304Y-38494D01*
X74595Y-38494D01*
X74504Y-38532D01*
X74433Y-38602D01*
X74395Y-38694D01*
X74395Y-38794D01*
X74395Y-39423D01*
X74433Y-39514D01*
X74503Y-39585D01*
X74595Y-39623D01*
X74695Y-39623D01*
X74786Y-39623D01*
X75374Y-40212D01*
X75374Y-40284D01*
X75439Y-40440D01*
X75558Y-40560D01*
X75715Y-40624D01*
X75884Y-40625D01*
X76040Y-40560D01*
X76160Y-40441D01*
X76224Y-40284D01*
X76225Y-40115D01*
X76225Y-45688D01*
X75518Y-44981D01*
X75418Y-44914D01*
X75300Y-44890D01*
X74225Y-44890D01*
X74225Y-40215D01*
X74160Y-40059D01*
X74041Y-39939D01*
X73884Y-39875D01*
X73812Y-39875D01*
X73509Y-39572D01*
X73566Y-39515D01*
X73604Y-39423D01*
X73604Y-39323D01*
X73604Y-38694D01*
X73566Y-38603D01*
X73496Y-38532D01*
X73404Y-38494D01*
X73304Y-38494D01*
X72595Y-38494D01*
X72504Y-38532D01*
X72433Y-38602D01*
X72395Y-38694D01*
X72395Y-38794D01*
X72395Y-39423D01*
X72433Y-39514D01*
X72503Y-39585D01*
X72595Y-39623D01*
X72695Y-39623D01*
X72717Y-39623D01*
X72717Y-39623D01*
X72781Y-39718D01*
X73374Y-40312D01*
X73374Y-40384D01*
X73439Y-40540D01*
X73558Y-40660D01*
X73715Y-40724D01*
X73884Y-40725D01*
X74040Y-40660D01*
X74160Y-40541D01*
X74224Y-40384D01*
X74225Y-40215D01*
X74225Y-44890D01*
X72225Y-44890D01*
X72225Y-40215D01*
X72160Y-40059D01*
X72041Y-39939D01*
X71884Y-39875D01*
X71812Y-39875D01*
X71509Y-39572D01*
X71566Y-39515D01*
X71604Y-39423D01*
X71604Y-39323D01*
X71604Y-38694D01*
X71566Y-38603D01*
X71496Y-38532D01*
X71404Y-38494D01*
X71304Y-38494D01*
X70595Y-38494D01*
X70504Y-38532D01*
X70433Y-38602D01*
X70395Y-38694D01*
X70395Y-38794D01*
X70395Y-39423D01*
X70433Y-39514D01*
X70503Y-39585D01*
X70595Y-39623D01*
X70695Y-39623D01*
X70717Y-39623D01*
X70717Y-39623D01*
X70781Y-39718D01*
X71374Y-40312D01*
X71374Y-40384D01*
X71439Y-40540D01*
X71558Y-40660D01*
X71715Y-40724D01*
X71884Y-40725D01*
X72040Y-40660D01*
X72160Y-40541D01*
X72224Y-40384D01*
X72225Y-40215D01*
X72225Y-44890D01*
X66874Y-44890D01*
X66874Y-43188D01*
X66874Y-42755D01*
X66836Y-42664D01*
X66766Y-42593D01*
X66674Y-42555D01*
X66574Y-42555D01*
X65865Y-42555D01*
X65774Y-42593D01*
X65703Y-42663D01*
X65683Y-42712D01*
X64416Y-42712D01*
X64396Y-42664D01*
X64326Y-42593D01*
X64234Y-42555D01*
X64134Y-42555D01*
X63425Y-42555D01*
X63334Y-42593D01*
X63263Y-42663D01*
X63243Y-42712D01*
X61428Y-42712D01*
X61367Y-42725D01*
X61367Y-42725D01*
X61215Y-42724D01*
X61059Y-42789D01*
X60950Y-42898D01*
X60950Y-42591D01*
X60866Y-42388D01*
X60711Y-42234D01*
X60509Y-42150D01*
X60291Y-42149D01*
X60088Y-42233D01*
X59950Y-42372D01*
X59950Y-42350D01*
X59912Y-42258D01*
X59841Y-42188D01*
X59749Y-42150D01*
X59650Y-42149D01*
X59050Y-42149D01*
X58958Y-42187D01*
X58888Y-42258D01*
X58850Y-42350D01*
X58849Y-42449D01*
X58849Y-43049D01*
X58887Y-43141D01*
X58958Y-43211D01*
X59050Y-43249D01*
X59149Y-43250D01*
X59749Y-43250D01*
X59841Y-43212D01*
X59911Y-43141D01*
X59949Y-43049D01*
X59949Y-43027D01*
X60088Y-43165D01*
X60290Y-43249D01*
X60508Y-43250D01*
X60711Y-43166D01*
X60865Y-43011D01*
X60949Y-42809D01*
X60950Y-42591D01*
X60950Y-42898D01*
X60939Y-42908D01*
X60875Y-43065D01*
X60874Y-43234D01*
X60939Y-43390D01*
X61058Y-43510D01*
X61215Y-43574D01*
X61384Y-43575D01*
X61540Y-43510D01*
X61660Y-43391D01*
X61685Y-43331D01*
X63243Y-43331D01*
X63263Y-43379D01*
X63333Y-43450D01*
X63425Y-43488D01*
X63525Y-43488D01*
X64234Y-43488D01*
X64325Y-43450D01*
X64396Y-43380D01*
X64416Y-43331D01*
X65683Y-43331D01*
X65703Y-43379D01*
X65773Y-43450D01*
X65865Y-43488D01*
X65965Y-43488D01*
X66674Y-43488D01*
X66765Y-43450D01*
X66836Y-43380D01*
X66874Y-43288D01*
X66874Y-43188D01*
X66874Y-44890D01*
X58350Y-44890D01*
X58350Y-42891D01*
X58266Y-42688D01*
X58111Y-42534D01*
X57909Y-42450D01*
X57691Y-42449D01*
X57488Y-42533D01*
X57334Y-42688D01*
X57300Y-42769D01*
X57266Y-42688D01*
X57111Y-42534D01*
X56909Y-42450D01*
X56691Y-42449D01*
X56488Y-42533D01*
X56334Y-42688D01*
X56300Y-42769D01*
X56266Y-42688D01*
X56111Y-42534D01*
X55909Y-42450D01*
X55691Y-42449D01*
X55488Y-42533D01*
X55334Y-42688D01*
X55300Y-42769D01*
X55266Y-42688D01*
X55111Y-42534D01*
X54909Y-42450D01*
X54691Y-42449D01*
X54488Y-42533D01*
X54334Y-42688D01*
X54250Y-42890D01*
X54249Y-43108D01*
X54333Y-43311D01*
X54472Y-43450D01*
X54450Y-43450D01*
X54358Y-43488D01*
X54287Y-43558D01*
X54249Y-43650D01*
X54250Y-43887D01*
X54312Y-43950D01*
X54750Y-43950D01*
X54750Y-43942D01*
X54850Y-43942D01*
X54850Y-43950D01*
X55287Y-43950D01*
X55300Y-43937D01*
X55312Y-43950D01*
X55750Y-43950D01*
X55750Y-43942D01*
X55850Y-43942D01*
X55850Y-43950D01*
X56287Y-43950D01*
X56300Y-43937D01*
X56312Y-43950D01*
X56750Y-43950D01*
X56750Y-43942D01*
X56850Y-43942D01*
X56850Y-43950D01*
X57287Y-43950D01*
X57300Y-43937D01*
X57312Y-43950D01*
X57750Y-43950D01*
X57750Y-43942D01*
X57850Y-43942D01*
X57850Y-43950D01*
X58287Y-43950D01*
X58350Y-43887D01*
X58350Y-43650D01*
X58312Y-43558D01*
X58241Y-43488D01*
X58149Y-43450D01*
X58127Y-43450D01*
X58265Y-43311D01*
X58349Y-43109D01*
X58350Y-42891D01*
X58350Y-44890D01*
X58350Y-44890D01*
X58350Y-44349D01*
X58350Y-44112D01*
X58287Y-44050D01*
X57850Y-44050D01*
X57850Y-44487D01*
X57912Y-44550D01*
X58050Y-44550D01*
X58149Y-44549D01*
X58241Y-44511D01*
X58312Y-44441D01*
X58350Y-44349D01*
X58350Y-44890D01*
X57750Y-44890D01*
X57750Y-44487D01*
X57750Y-44050D01*
X57312Y-44050D01*
X57300Y-44062D01*
X57287Y-44050D01*
X56850Y-44050D01*
X56850Y-44487D01*
X56912Y-44550D01*
X57050Y-44550D01*
X57149Y-44549D01*
X57241Y-44511D01*
X57300Y-44453D01*
X57358Y-44511D01*
X57450Y-44549D01*
X57549Y-44550D01*
X57687Y-44550D01*
X57750Y-44487D01*
X57750Y-44890D01*
X56750Y-44890D01*
X56750Y-44487D01*
X56750Y-44050D01*
X56312Y-44050D01*
X56300Y-44062D01*
X56287Y-44050D01*
X55850Y-44050D01*
X55850Y-44487D01*
X55912Y-44550D01*
X56050Y-44550D01*
X56149Y-44549D01*
X56241Y-44511D01*
X56300Y-44453D01*
X56358Y-44511D01*
X56450Y-44549D01*
X56549Y-44550D01*
X56687Y-44550D01*
X56750Y-44487D01*
X56750Y-44890D01*
X55750Y-44890D01*
X55750Y-44487D01*
X55750Y-44050D01*
X55312Y-44050D01*
X55300Y-44062D01*
X55287Y-44050D01*
X54850Y-44050D01*
X54850Y-44487D01*
X54912Y-44550D01*
X55050Y-44550D01*
X55149Y-44549D01*
X55241Y-44511D01*
X55300Y-44453D01*
X55358Y-44511D01*
X55450Y-44549D01*
X55549Y-44550D01*
X55687Y-44550D01*
X55750Y-44487D01*
X55750Y-44890D01*
X54750Y-44890D01*
X54750Y-44487D01*
X54750Y-44050D01*
X54312Y-44050D01*
X54250Y-44112D01*
X54249Y-44349D01*
X54287Y-44441D01*
X54358Y-44511D01*
X54450Y-44549D01*
X54549Y-44550D01*
X54687Y-44550D01*
X54750Y-44487D01*
X54750Y-44890D01*
X51928Y-44890D01*
X51309Y-44271D01*
X51309Y-43700D01*
X51309Y-40367D01*
X51311Y-40366D01*
X51465Y-40211D01*
X51499Y-40130D01*
X51533Y-40211D01*
X51688Y-40365D01*
X51690Y-40367D01*
X51690Y-40850D01*
X51714Y-40968D01*
X51781Y-41068D01*
X52431Y-41718D01*
X52431Y-41718D01*
X52531Y-41785D01*
X52531Y-41785D01*
X52650Y-41809D01*
X59407Y-41809D01*
X59458Y-41860D01*
X59615Y-41924D01*
X59784Y-41925D01*
X59940Y-41860D01*
X60060Y-41741D01*
X60124Y-41584D01*
X60125Y-41415D01*
X60060Y-41259D01*
X59941Y-41139D01*
X59784Y-41075D01*
X59615Y-41074D01*
X59459Y-41139D01*
X59408Y-41190D01*
X55554Y-41190D01*
X55554Y-38981D01*
X55543Y-38763D01*
X55481Y-38612D01*
X55385Y-38584D01*
X55315Y-38655D01*
X55315Y-38514D01*
X55287Y-38418D01*
X55081Y-38345D01*
X54863Y-38356D01*
X54712Y-38418D01*
X54684Y-38514D01*
X55000Y-38829D01*
X55315Y-38514D01*
X55315Y-38655D01*
X55070Y-38900D01*
X55385Y-39215D01*
X55481Y-39187D01*
X55554Y-38981D01*
X55554Y-41190D01*
X52778Y-41190D01*
X52309Y-40721D01*
X52309Y-40367D01*
X52311Y-40366D01*
X52465Y-40211D01*
X52499Y-40130D01*
X52533Y-40211D01*
X52688Y-40365D01*
X52890Y-40449D01*
X53108Y-40450D01*
X53311Y-40366D01*
X53465Y-40211D01*
X53499Y-40130D01*
X53533Y-40211D01*
X53688Y-40365D01*
X53890Y-40449D01*
X54108Y-40450D01*
X54311Y-40366D01*
X54429Y-40248D01*
X54570Y-40248D01*
X54688Y-40365D01*
X54890Y-40449D01*
X55108Y-40450D01*
X55311Y-40366D01*
X55465Y-40211D01*
X55549Y-40009D01*
X55550Y-39791D01*
X55466Y-39588D01*
X55311Y-39434D01*
X55236Y-39402D01*
X55287Y-39381D01*
X55315Y-39285D01*
X55000Y-38970D01*
X54929Y-39041D01*
X54929Y-38900D01*
X54614Y-38584D01*
X54518Y-38612D01*
X54501Y-38660D01*
X54481Y-38612D01*
X54385Y-38584D01*
X54315Y-38655D01*
X54315Y-38514D01*
X54287Y-38418D01*
X54081Y-38345D01*
X53863Y-38356D01*
X53712Y-38418D01*
X53684Y-38514D01*
X54000Y-38829D01*
X54315Y-38514D01*
X54315Y-38655D01*
X54070Y-38900D01*
X54385Y-39215D01*
X54481Y-39187D01*
X54498Y-39139D01*
X54518Y-39187D01*
X54614Y-39215D01*
X54929Y-38900D01*
X54929Y-39041D01*
X54684Y-39285D01*
X54712Y-39381D01*
X54767Y-39400D01*
X54688Y-39433D01*
X54570Y-39551D01*
X54429Y-39551D01*
X54311Y-39434D01*
X54236Y-39402D01*
X54287Y-39381D01*
X54315Y-39285D01*
X54000Y-38970D01*
X53684Y-39285D01*
X53712Y-39381D01*
X53767Y-39400D01*
X53688Y-39433D01*
X53534Y-39588D01*
X53500Y-39669D01*
X53466Y-39588D01*
X53311Y-39434D01*
X53230Y-39400D01*
X53311Y-39366D01*
X53465Y-39211D01*
X53497Y-39136D01*
X53518Y-39187D01*
X53614Y-39215D01*
X53929Y-38900D01*
X53614Y-38584D01*
X53518Y-38612D01*
X53499Y-38667D01*
X53466Y-38588D01*
X53311Y-38434D01*
X53109Y-38350D01*
X52891Y-38349D01*
X52688Y-38433D01*
X52534Y-38588D01*
X52500Y-38669D01*
X52466Y-38588D01*
X52311Y-38434D01*
X52109Y-38350D01*
X51891Y-38349D01*
X51688Y-38433D01*
X51534Y-38588D01*
X51500Y-38669D01*
X51466Y-38588D01*
X51311Y-38434D01*
X51309Y-38432D01*
X51309Y-33928D01*
X51628Y-33609D01*
X70571Y-33609D01*
X70690Y-33728D01*
X70690Y-34476D01*
X70595Y-34476D01*
X70504Y-34514D01*
X70433Y-34584D01*
X70395Y-34676D01*
X70395Y-34776D01*
X70395Y-35405D01*
X70433Y-35496D01*
X70503Y-35567D01*
X70582Y-35600D01*
X70504Y-35632D01*
X70433Y-35702D01*
X70395Y-35794D01*
X70395Y-35894D01*
X70395Y-36190D01*
X69800Y-36190D01*
X69799Y-36190D01*
X69776Y-36195D01*
X69681Y-36214D01*
X69581Y-36281D01*
X69581Y-36281D01*
X69281Y-36581D01*
X69281Y-36581D01*
X66554Y-39308D01*
X66554Y-35281D01*
X66543Y-35063D01*
X66481Y-34912D01*
X66385Y-34884D01*
X66315Y-34955D01*
X66315Y-34814D01*
X66287Y-34718D01*
X66081Y-34645D01*
X65863Y-34656D01*
X65712Y-34718D01*
X65684Y-34814D01*
X66000Y-35129D01*
X66315Y-34814D01*
X66315Y-34955D01*
X66070Y-35200D01*
X66385Y-35515D01*
X66481Y-35487D01*
X66554Y-35281D01*
X66554Y-39308D01*
X66550Y-39312D01*
X66550Y-36091D01*
X66466Y-35888D01*
X66311Y-35734D01*
X66236Y-35702D01*
X66287Y-35681D01*
X66315Y-35585D01*
X66000Y-35270D01*
X65684Y-35585D01*
X65712Y-35681D01*
X65767Y-35700D01*
X65688Y-35733D01*
X65534Y-35888D01*
X65500Y-35969D01*
X65466Y-35888D01*
X65311Y-35734D01*
X65230Y-35700D01*
X65311Y-35666D01*
X65465Y-35511D01*
X65497Y-35436D01*
X65518Y-35487D01*
X65614Y-35515D01*
X65929Y-35200D01*
X65614Y-34884D01*
X65518Y-34912D01*
X65499Y-34967D01*
X65466Y-34888D01*
X65311Y-34734D01*
X65109Y-34650D01*
X64891Y-34649D01*
X64688Y-34733D01*
X64534Y-34888D01*
X64500Y-34969D01*
X64466Y-34888D01*
X64311Y-34734D01*
X64109Y-34650D01*
X63891Y-34649D01*
X63688Y-34733D01*
X63534Y-34888D01*
X63450Y-35090D01*
X63449Y-35308D01*
X63533Y-35511D01*
X63672Y-35649D01*
X63650Y-35649D01*
X63558Y-35687D01*
X63488Y-35758D01*
X63450Y-35850D01*
X63449Y-35949D01*
X63449Y-36549D01*
X63487Y-36641D01*
X63558Y-36711D01*
X63650Y-36749D01*
X63749Y-36750D01*
X64349Y-36750D01*
X64441Y-36712D01*
X64511Y-36641D01*
X64549Y-36549D01*
X64549Y-36527D01*
X64688Y-36665D01*
X64890Y-36749D01*
X65108Y-36750D01*
X65311Y-36666D01*
X65465Y-36511D01*
X65499Y-36430D01*
X65533Y-36511D01*
X65688Y-36665D01*
X65690Y-36667D01*
X65690Y-37471D01*
X62971Y-40190D01*
X62825Y-40190D01*
X62825Y-34315D01*
X62760Y-34159D01*
X62641Y-34039D01*
X62484Y-33975D01*
X62315Y-33974D01*
X62159Y-34039D01*
X62108Y-34090D01*
X60904Y-34090D01*
X60904Y-34076D01*
X60866Y-33985D01*
X60796Y-33914D01*
X60704Y-33876D01*
X60604Y-33876D01*
X59895Y-33876D01*
X59804Y-33914D01*
X59733Y-33984D01*
X59695Y-34076D01*
X59695Y-34176D01*
X59695Y-34805D01*
X59733Y-34896D01*
X59803Y-34967D01*
X59882Y-35000D01*
X59804Y-35032D01*
X59733Y-35102D01*
X59695Y-35194D01*
X59695Y-35294D01*
X59695Y-35923D01*
X59733Y-36014D01*
X59803Y-36085D01*
X59895Y-36123D01*
X59995Y-36123D01*
X60686Y-36123D01*
X60764Y-36201D01*
X60704Y-36176D01*
X60604Y-36176D01*
X59895Y-36176D01*
X59804Y-36214D01*
X59733Y-36284D01*
X59714Y-36331D01*
X59269Y-36331D01*
X58625Y-35687D01*
X58625Y-35615D01*
X58560Y-35459D01*
X58441Y-35339D01*
X58284Y-35275D01*
X58115Y-35274D01*
X57959Y-35339D01*
X57839Y-35458D01*
X57775Y-35615D01*
X57774Y-35784D01*
X57839Y-35940D01*
X57958Y-36060D01*
X58115Y-36124D01*
X58187Y-36124D01*
X58922Y-36859D01*
X59022Y-36926D01*
X59022Y-36926D01*
X59141Y-36950D01*
X59695Y-36950D01*
X59695Y-37105D01*
X59733Y-37196D01*
X59803Y-37267D01*
X59882Y-37300D01*
X59804Y-37332D01*
X59733Y-37402D01*
X59695Y-37494D01*
X59695Y-37594D01*
X59695Y-38223D01*
X59733Y-38314D01*
X59803Y-38385D01*
X59895Y-38423D01*
X59951Y-38423D01*
X59951Y-38600D01*
X59978Y-38733D01*
X60053Y-38846D01*
X60374Y-39167D01*
X60374Y-39184D01*
X60439Y-39340D01*
X60558Y-39460D01*
X60715Y-39524D01*
X60884Y-39525D01*
X61040Y-39460D01*
X61160Y-39341D01*
X61224Y-39184D01*
X61225Y-39015D01*
X61160Y-38859D01*
X61041Y-38739D01*
X60884Y-38675D01*
X60867Y-38675D01*
X60648Y-38455D01*
X60648Y-38423D01*
X60704Y-38423D01*
X60795Y-38385D01*
X60866Y-38315D01*
X60904Y-38223D01*
X60904Y-38123D01*
X60904Y-37494D01*
X60866Y-37403D01*
X60796Y-37332D01*
X60717Y-37299D01*
X60795Y-37267D01*
X60866Y-37197D01*
X60904Y-37105D01*
X60904Y-37005D01*
X60904Y-36376D01*
X60879Y-36316D01*
X61174Y-36612D01*
X61174Y-36684D01*
X61239Y-36840D01*
X61358Y-36960D01*
X61515Y-37024D01*
X61684Y-37025D01*
X61840Y-36960D01*
X61960Y-36841D01*
X62024Y-36684D01*
X62025Y-36515D01*
X61960Y-36359D01*
X61841Y-36239D01*
X61684Y-36175D01*
X61612Y-36175D01*
X60904Y-35467D01*
X60904Y-35194D01*
X60866Y-35103D01*
X60796Y-35032D01*
X60717Y-34999D01*
X60795Y-34967D01*
X60866Y-34897D01*
X60904Y-34805D01*
X60904Y-34709D01*
X62107Y-34709D01*
X62158Y-34760D01*
X62315Y-34824D01*
X62484Y-34825D01*
X62640Y-34760D01*
X62760Y-34641D01*
X62824Y-34484D01*
X62825Y-34315D01*
X62825Y-40190D01*
X61692Y-40190D01*
X61641Y-40139D01*
X61484Y-40075D01*
X61315Y-40074D01*
X61159Y-40139D01*
X61039Y-40258D01*
X60975Y-40415D01*
X60974Y-40584D01*
X61039Y-40740D01*
X61158Y-40860D01*
X61315Y-40924D01*
X61484Y-40925D01*
X61640Y-40860D01*
X61691Y-40809D01*
X63100Y-40809D01*
X63218Y-40785D01*
X63218Y-40785D01*
X63318Y-40718D01*
X66218Y-37818D01*
X66285Y-37718D01*
X66285Y-37718D01*
X66309Y-37600D01*
X66309Y-36667D01*
X66311Y-36666D01*
X66465Y-36511D01*
X66549Y-36309D01*
X66550Y-36091D01*
X66550Y-39312D01*
X65331Y-40531D01*
X65331Y-40531D01*
X65081Y-40781D01*
X65081Y-40781D01*
X65081Y-40781D01*
X64771Y-41090D01*
X64542Y-41090D01*
X64491Y-41039D01*
X64334Y-40975D01*
X64165Y-40974D01*
X64009Y-41039D01*
X63889Y-41158D01*
X63825Y-41315D01*
X63824Y-41483D01*
X63684Y-41425D01*
X63515Y-41424D01*
X63359Y-41489D01*
X63239Y-41608D01*
X63175Y-41765D01*
X63174Y-41934D01*
X63239Y-42090D01*
X63358Y-42210D01*
X63515Y-42274D01*
X63684Y-42275D01*
X63840Y-42210D01*
X63891Y-42159D01*
X64850Y-42159D01*
X64968Y-42135D01*
X64968Y-42135D01*
X65068Y-42068D01*
X65443Y-41693D01*
X66168Y-40969D01*
X66258Y-41060D01*
X66415Y-41124D01*
X66584Y-41125D01*
X66740Y-41060D01*
X66860Y-40941D01*
X66924Y-40784D01*
X66924Y-40712D01*
X67662Y-39974D01*
X67689Y-40040D01*
X67808Y-40160D01*
X67965Y-40224D01*
X68134Y-40225D01*
X68290Y-40160D01*
X68410Y-40041D01*
X68474Y-39884D01*
X68475Y-39715D01*
X68459Y-39677D01*
X68768Y-39368D01*
X70428Y-37709D01*
X75759Y-37709D01*
X75877Y-37685D01*
X75877Y-37685D01*
X75977Y-37618D01*
X76872Y-36723D01*
X77404Y-36723D01*
X77495Y-36685D01*
X77566Y-36615D01*
X77604Y-36523D01*
X77604Y-36423D01*
X77604Y-38694D01*
X77566Y-38603D01*
X77496Y-38532D01*
X77404Y-38494D01*
X77304Y-38494D01*
X76595Y-38494D01*
X76504Y-38532D01*
X76433Y-38602D01*
X76395Y-38694D01*
X76395Y-38794D01*
X76395Y-39423D01*
X76433Y-39514D01*
X76503Y-39585D01*
X76595Y-39623D01*
X76695Y-39623D01*
X76786Y-39623D01*
X77374Y-40212D01*
X77374Y-40284D01*
X77439Y-40440D01*
X77558Y-40560D01*
X77715Y-40624D01*
X77884Y-40625D01*
X78040Y-40560D01*
X78160Y-40441D01*
X78224Y-40284D01*
X78225Y-40115D01*
X78225Y-47475D01*
X40625Y-47475D01*
X40625Y-31625D01*
X79375Y-31625D01*
X79375Y-47475D01*
X79375Y-47475D01*
G37*
G54D19*
X79375Y-47475D02*
X78225Y-47475D01*
X78225Y-40115D01*
X78160Y-39959D01*
X78041Y-39839D01*
X77884Y-39775D01*
X77812Y-39775D01*
X77559Y-39522D01*
X77566Y-39515D01*
X77604Y-39423D01*
X77604Y-39323D01*
X77604Y-38694D01*
X77604Y-36423D01*
X77604Y-35794D01*
X77566Y-35703D01*
X77496Y-35632D01*
X77417Y-35599D01*
X77495Y-35567D01*
X77566Y-35497D01*
X77604Y-35405D01*
X77604Y-35305D01*
X77604Y-34676D01*
X77566Y-34585D01*
X77496Y-34514D01*
X77404Y-34476D01*
X77309Y-34476D01*
X77309Y-32900D01*
X77285Y-32781D01*
X77285Y-32781D01*
X77218Y-32681D01*
X76718Y-32181D01*
X76618Y-32114D01*
X76500Y-32090D01*
X49400Y-32090D01*
X49281Y-32114D01*
X49181Y-32181D01*
X47881Y-33481D01*
X47814Y-33581D01*
X47790Y-33700D01*
X47790Y-38349D01*
X47650Y-38349D01*
X47558Y-38387D01*
X47488Y-38458D01*
X47450Y-38550D01*
X47449Y-38649D01*
X47449Y-39249D01*
X47487Y-39341D01*
X47558Y-39411D01*
X47650Y-39449D01*
X47672Y-39449D01*
X47534Y-39588D01*
X47450Y-39790D01*
X47449Y-40008D01*
X47533Y-40211D01*
X47688Y-40365D01*
X47690Y-40367D01*
X47690Y-45700D01*
X47714Y-45818D01*
X47781Y-45918D01*
X48874Y-47012D01*
X48874Y-47084D01*
X48939Y-47240D01*
X49058Y-47360D01*
X49215Y-47424D01*
X49384Y-47425D01*
X49540Y-47360D01*
X49660Y-47241D01*
X49724Y-47084D01*
X49725Y-46915D01*
X49660Y-46759D01*
X49541Y-46639D01*
X49384Y-46575D01*
X49312Y-46575D01*
X48309Y-45571D01*
X48309Y-40367D01*
X48311Y-40366D01*
X48465Y-40211D01*
X48499Y-40130D01*
X48533Y-40211D01*
X48688Y-40365D01*
X48690Y-40367D01*
X48690Y-45200D01*
X48714Y-45318D01*
X48781Y-45418D01*
X50581Y-47218D01*
X50681Y-47285D01*
X50681Y-47285D01*
X50800Y-47309D01*
X72876Y-47309D01*
X72915Y-47324D01*
X73084Y-47325D01*
X73240Y-47260D01*
X73360Y-47141D01*
X73424Y-46984D01*
X73425Y-46815D01*
X73360Y-46659D01*
X73241Y-46539D01*
X73084Y-46475D01*
X72915Y-46474D01*
X72759Y-46539D01*
X72639Y-46658D01*
X72626Y-46690D01*
X50928Y-46690D01*
X49309Y-45071D01*
X49309Y-40367D01*
X49311Y-40366D01*
X49465Y-40211D01*
X49499Y-40130D01*
X49533Y-40211D01*
X49688Y-40365D01*
X49690Y-40367D01*
X49690Y-44800D01*
X49714Y-44918D01*
X49781Y-45018D01*
X50981Y-46218D01*
X50981Y-46218D01*
X51081Y-46285D01*
X51081Y-46285D01*
X51176Y-46304D01*
X51199Y-46309D01*
X51199Y-46309D01*
X51200Y-46309D01*
X73971Y-46309D01*
X74574Y-46912D01*
X74574Y-46984D01*
X74639Y-47140D01*
X74758Y-47260D01*
X74915Y-47324D01*
X75084Y-47325D01*
X75240Y-47260D01*
X75360Y-47141D01*
X75424Y-46984D01*
X75425Y-46815D01*
X75360Y-46659D01*
X75241Y-46539D01*
X75084Y-46475D01*
X75012Y-46475D01*
X74318Y-45781D01*
X74218Y-45714D01*
X74100Y-45690D01*
X51328Y-45690D01*
X50309Y-44671D01*
X50309Y-40367D01*
X50311Y-40366D01*
X50465Y-40211D01*
X50499Y-40130D01*
X50533Y-40211D01*
X50688Y-40365D01*
X50690Y-40367D01*
X50690Y-43700D01*
X50690Y-44400D01*
X50714Y-44518D01*
X50781Y-44618D01*
X51581Y-45418D01*
X51581Y-45418D01*
X51681Y-45485D01*
X51681Y-45485D01*
X51776Y-45504D01*
X51799Y-45509D01*
X51799Y-45509D01*
X51800Y-45509D01*
X75171Y-45509D01*
X76574Y-46912D01*
X76574Y-46984D01*
X76639Y-47140D01*
X76758Y-47260D01*
X76915Y-47324D01*
X77084Y-47325D01*
X77240Y-47260D01*
X77360Y-47141D01*
X77424Y-46984D01*
X77425Y-46815D01*
X77360Y-46659D01*
X77241Y-46539D01*
X77084Y-46475D01*
X77012Y-46475D01*
X76225Y-45688D01*
X76225Y-40115D01*
X76160Y-39959D01*
X76041Y-39839D01*
X75884Y-39775D01*
X75812Y-39775D01*
X75559Y-39522D01*
X75566Y-39515D01*
X75604Y-39423D01*
X75604Y-39323D01*
X75604Y-38694D01*
X75566Y-38603D01*
X75496Y-38532D01*
X75404Y-38494D01*
X75304Y-38494D01*
X74595Y-38494D01*
X74504Y-38532D01*
X74433Y-38602D01*
X74395Y-38694D01*
X74395Y-38794D01*
X74395Y-39423D01*
X74433Y-39514D01*
X74503Y-39585D01*
X74595Y-39623D01*
X74695Y-39623D01*
X74786Y-39623D01*
X75374Y-40212D01*
X75374Y-40284D01*
X75439Y-40440D01*
X75558Y-40560D01*
X75715Y-40624D01*
X75884Y-40625D01*
X76040Y-40560D01*
X76160Y-40441D01*
X76224Y-40284D01*
X76225Y-40115D01*
X76225Y-45688D01*
X75518Y-44981D01*
X75418Y-44914D01*
X75300Y-44890D01*
X74225Y-44890D01*
X74225Y-40215D01*
X74160Y-40059D01*
X74041Y-39939D01*
X73884Y-39875D01*
X73812Y-39875D01*
X73509Y-39572D01*
X73566Y-39515D01*
X73604Y-39423D01*
X73604Y-39323D01*
X73604Y-38694D01*
X73566Y-38603D01*
X73496Y-38532D01*
X73404Y-38494D01*
X73304Y-38494D01*
X72595Y-38494D01*
X72504Y-38532D01*
X72433Y-38602D01*
X72395Y-38694D01*
X72395Y-38794D01*
X72395Y-39423D01*
X72433Y-39514D01*
X72503Y-39585D01*
X72595Y-39623D01*
X72695Y-39623D01*
X72717Y-39623D01*
X72717Y-39623D01*
X72781Y-39718D01*
X73374Y-40312D01*
X73374Y-40384D01*
X73439Y-40540D01*
X73558Y-40660D01*
X73715Y-40724D01*
X73884Y-40725D01*
X74040Y-40660D01*
X74160Y-40541D01*
X74224Y-40384D01*
X74225Y-40215D01*
X74225Y-44890D01*
X72225Y-44890D01*
X72225Y-40215D01*
X72160Y-40059D01*
X72041Y-39939D01*
X71884Y-39875D01*
X71812Y-39875D01*
X71509Y-39572D01*
X71566Y-39515D01*
X71604Y-39423D01*
X71604Y-39323D01*
X71604Y-38694D01*
X71566Y-38603D01*
X71496Y-38532D01*
X71404Y-38494D01*
X71304Y-38494D01*
X70595Y-38494D01*
X70504Y-38532D01*
X70433Y-38602D01*
X70395Y-38694D01*
X70395Y-38794D01*
X70395Y-39423D01*
X70433Y-39514D01*
X70503Y-39585D01*
X70595Y-39623D01*
X70695Y-39623D01*
X70717Y-39623D01*
X70717Y-39623D01*
X70781Y-39718D01*
X71374Y-40312D01*
X71374Y-40384D01*
X71439Y-40540D01*
X71558Y-40660D01*
X71715Y-40724D01*
X71884Y-40725D01*
X72040Y-40660D01*
X72160Y-40541D01*
X72224Y-40384D01*
X72225Y-40215D01*
X72225Y-44890D01*
X66874Y-44890D01*
X66874Y-43188D01*
X66874Y-42755D01*
X66836Y-42664D01*
X66766Y-42593D01*
X66674Y-42555D01*
X66574Y-42555D01*
X65865Y-42555D01*
X65774Y-42593D01*
X65703Y-42663D01*
X65683Y-42712D01*
X64416Y-42712D01*
X64396Y-42664D01*
X64326Y-42593D01*
X64234Y-42555D01*
X64134Y-42555D01*
X63425Y-42555D01*
X63334Y-42593D01*
X63263Y-42663D01*
X63243Y-42712D01*
X61428Y-42712D01*
X61367Y-42725D01*
X61367Y-42725D01*
X61215Y-42724D01*
X61059Y-42789D01*
X60950Y-42898D01*
X60950Y-42591D01*
X60866Y-42388D01*
X60711Y-42234D01*
X60509Y-42150D01*
X60291Y-42149D01*
X60088Y-42233D01*
X59950Y-42372D01*
X59950Y-42350D01*
X59912Y-42258D01*
X59841Y-42188D01*
X59749Y-42150D01*
X59650Y-42149D01*
X59050Y-42149D01*
X58958Y-42187D01*
X58888Y-42258D01*
X58850Y-42350D01*
X58849Y-42449D01*
X58849Y-43049D01*
X58887Y-43141D01*
X58958Y-43211D01*
X59050Y-43249D01*
X59149Y-43250D01*
X59749Y-43250D01*
X59841Y-43212D01*
X59911Y-43141D01*
X59949Y-43049D01*
X59949Y-43027D01*
X60088Y-43165D01*
X60290Y-43249D01*
X60508Y-43250D01*
X60711Y-43166D01*
X60865Y-43011D01*
X60949Y-42809D01*
X60950Y-42591D01*
X60950Y-42898D01*
X60939Y-42908D01*
X60875Y-43065D01*
X60874Y-43234D01*
X60939Y-43390D01*
X61058Y-43510D01*
X61215Y-43574D01*
X61384Y-43575D01*
X61540Y-43510D01*
X61660Y-43391D01*
X61685Y-43331D01*
X63243Y-43331D01*
X63263Y-43379D01*
X63333Y-43450D01*
X63425Y-43488D01*
X63525Y-43488D01*
X64234Y-43488D01*
X64325Y-43450D01*
X64396Y-43380D01*
X64416Y-43331D01*
X65683Y-43331D01*
X65703Y-43379D01*
X65773Y-43450D01*
X65865Y-43488D01*
X65965Y-43488D01*
X66674Y-43488D01*
X66765Y-43450D01*
X66836Y-43380D01*
X66874Y-43288D01*
X66874Y-43188D01*
X66874Y-44890D01*
X58350Y-44890D01*
X58350Y-42891D01*
X58266Y-42688D01*
X58111Y-42534D01*
X57909Y-42450D01*
X57691Y-42449D01*
X57488Y-42533D01*
X57334Y-42688D01*
X57300Y-42769D01*
X57266Y-42688D01*
X57111Y-42534D01*
X56909Y-42450D01*
X56691Y-42449D01*
X56488Y-42533D01*
X56334Y-42688D01*
X56300Y-42769D01*
X56266Y-42688D01*
X56111Y-42534D01*
X55909Y-42450D01*
X55691Y-42449D01*
X55488Y-42533D01*
X55334Y-42688D01*
X55300Y-42769D01*
X55266Y-42688D01*
X55111Y-42534D01*
X54909Y-42450D01*
X54691Y-42449D01*
X54488Y-42533D01*
X54334Y-42688D01*
X54250Y-42890D01*
X54249Y-43108D01*
X54333Y-43311D01*
X54472Y-43450D01*
X54450Y-43450D01*
X54358Y-43488D01*
X54287Y-43558D01*
X54249Y-43650D01*
X54250Y-43887D01*
X54312Y-43950D01*
X54750Y-43950D01*
X54750Y-43942D01*
X54850Y-43942D01*
X54850Y-43950D01*
X55287Y-43950D01*
X55300Y-43937D01*
X55312Y-43950D01*
X55750Y-43950D01*
X55750Y-43942D01*
X55850Y-43942D01*
X55850Y-43950D01*
X56287Y-43950D01*
X56300Y-43937D01*
X56312Y-43950D01*
X56750Y-43950D01*
X56750Y-43942D01*
X56850Y-43942D01*
X56850Y-43950D01*
X57287Y-43950D01*
X57300Y-43937D01*
X57312Y-43950D01*
X57750Y-43950D01*
X57750Y-43942D01*
X57850Y-43942D01*
X57850Y-43950D01*
X58287Y-43950D01*
X58350Y-43887D01*
X58350Y-43650D01*
X58312Y-43558D01*
X58241Y-43488D01*
X58149Y-43450D01*
X58127Y-43450D01*
X58265Y-43311D01*
X58349Y-43109D01*
X58350Y-42891D01*
X58350Y-44890D01*
X58350Y-44890D01*
X58350Y-44349D01*
X58350Y-44112D01*
X58287Y-44050D01*
X57850Y-44050D01*
X57850Y-44487D01*
X57912Y-44550D01*
X58050Y-44550D01*
X58149Y-44549D01*
X58241Y-44511D01*
X58312Y-44441D01*
X58350Y-44349D01*
X58350Y-44890D01*
X57750Y-44890D01*
X57750Y-44487D01*
X57750Y-44050D01*
X57312Y-44050D01*
X57300Y-44062D01*
X57287Y-44050D01*
X56850Y-44050D01*
X56850Y-44487D01*
X56912Y-44550D01*
X57050Y-44550D01*
X57149Y-44549D01*
X57241Y-44511D01*
X57300Y-44453D01*
X57358Y-44511D01*
X57450Y-44549D01*
X57549Y-44550D01*
X57687Y-44550D01*
X57750Y-44487D01*
X57750Y-44890D01*
X56750Y-44890D01*
X56750Y-44487D01*
X56750Y-44050D01*
X56312Y-44050D01*
X56300Y-44062D01*
X56287Y-44050D01*
X55850Y-44050D01*
X55850Y-44487D01*
X55912Y-44550D01*
X56050Y-44550D01*
X56149Y-44549D01*
X56241Y-44511D01*
X56300Y-44453D01*
X56358Y-44511D01*
X56450Y-44549D01*
X56549Y-44550D01*
X56687Y-44550D01*
X56750Y-44487D01*
X56750Y-44890D01*
X55750Y-44890D01*
X55750Y-44487D01*
X55750Y-44050D01*
X55312Y-44050D01*
X55300Y-44062D01*
X55287Y-44050D01*
X54850Y-44050D01*
X54850Y-44487D01*
X54912Y-44550D01*
X55050Y-44550D01*
X55149Y-44549D01*
X55241Y-44511D01*
X55300Y-44453D01*
X55358Y-44511D01*
X55450Y-44549D01*
X55549Y-44550D01*
X55687Y-44550D01*
X55750Y-44487D01*
X55750Y-44890D01*
X54750Y-44890D01*
X54750Y-44487D01*
X54750Y-44050D01*
X54312Y-44050D01*
X54250Y-44112D01*
X54249Y-44349D01*
X54287Y-44441D01*
X54358Y-44511D01*
X54450Y-44549D01*
X54549Y-44550D01*
X54687Y-44550D01*
X54750Y-44487D01*
X54750Y-44890D01*
X51928Y-44890D01*
X51309Y-44271D01*
X51309Y-43700D01*
X51309Y-40367D01*
X51311Y-40366D01*
X51465Y-40211D01*
X51499Y-40130D01*
X51533Y-40211D01*
X51688Y-40365D01*
X51690Y-40367D01*
X51690Y-40850D01*
X51714Y-40968D01*
X51781Y-41068D01*
X52431Y-41718D01*
X52431Y-41718D01*
X52531Y-41785D01*
X52531Y-41785D01*
X52650Y-41809D01*
X59407Y-41809D01*
X59458Y-41860D01*
X59615Y-41924D01*
X59784Y-41925D01*
X59940Y-41860D01*
X60060Y-41741D01*
X60124Y-41584D01*
X60125Y-41415D01*
X60060Y-41259D01*
X59941Y-41139D01*
X59784Y-41075D01*
X59615Y-41074D01*
X59459Y-41139D01*
X59408Y-41190D01*
X55554Y-41190D01*
X55554Y-38981D01*
X55543Y-38763D01*
X55481Y-38612D01*
X55385Y-38584D01*
X55315Y-38655D01*
X55315Y-38514D01*
X55287Y-38418D01*
X55081Y-38345D01*
X54863Y-38356D01*
X54712Y-38418D01*
X54684Y-38514D01*
X55000Y-38829D01*
X55315Y-38514D01*
X55315Y-38655D01*
X55070Y-38900D01*
X55385Y-39215D01*
X55481Y-39187D01*
X55554Y-38981D01*
X55554Y-41190D01*
X52778Y-41190D01*
X52309Y-40721D01*
X52309Y-40367D01*
X52311Y-40366D01*
X52465Y-40211D01*
X52499Y-40130D01*
X52533Y-40211D01*
X52688Y-40365D01*
X52890Y-40449D01*
X53108Y-40450D01*
X53311Y-40366D01*
X53465Y-40211D01*
X53499Y-40130D01*
X53533Y-40211D01*
X53688Y-40365D01*
X53890Y-40449D01*
X54108Y-40450D01*
X54311Y-40366D01*
X54429Y-40248D01*
X54570Y-40248D01*
X54688Y-40365D01*
X54890Y-40449D01*
X55108Y-40450D01*
X55311Y-40366D01*
X55465Y-40211D01*
X55549Y-40009D01*
X55550Y-39791D01*
X55466Y-39588D01*
X55311Y-39434D01*
X55236Y-39402D01*
X55287Y-39381D01*
X55315Y-39285D01*
X55000Y-38970D01*
X54929Y-39041D01*
X54929Y-38900D01*
X54614Y-38584D01*
X54518Y-38612D01*
X54501Y-38660D01*
X54481Y-38612D01*
X54385Y-38584D01*
X54315Y-38655D01*
X54315Y-38514D01*
X54287Y-38418D01*
X54081Y-38345D01*
X53863Y-38356D01*
X53712Y-38418D01*
X53684Y-38514D01*
X54000Y-38829D01*
X54315Y-38514D01*
X54315Y-38655D01*
X54070Y-38900D01*
X54385Y-39215D01*
X54481Y-39187D01*
X54498Y-39139D01*
X54518Y-39187D01*
X54614Y-39215D01*
X54929Y-38900D01*
X54929Y-39041D01*
X54684Y-39285D01*
X54712Y-39381D01*
X54767Y-39400D01*
X54688Y-39433D01*
X54570Y-39551D01*
X54429Y-39551D01*
X54311Y-39434D01*
X54236Y-39402D01*
X54287Y-39381D01*
X54315Y-39285D01*
X54000Y-38970D01*
X53684Y-39285D01*
X53712Y-39381D01*
X53767Y-39400D01*
X53688Y-39433D01*
X53534Y-39588D01*
X53500Y-39669D01*
X53466Y-39588D01*
X53311Y-39434D01*
X53230Y-39400D01*
X53311Y-39366D01*
X53465Y-39211D01*
X53497Y-39136D01*
X53518Y-39187D01*
X53614Y-39215D01*
X53929Y-38900D01*
X53614Y-38584D01*
X53518Y-38612D01*
X53499Y-38667D01*
X53466Y-38588D01*
X53311Y-38434D01*
X53109Y-38350D01*
X52891Y-38349D01*
X52688Y-38433D01*
X52534Y-38588D01*
X52500Y-38669D01*
X52466Y-38588D01*
X52311Y-38434D01*
X52109Y-38350D01*
X51891Y-38349D01*
X51688Y-38433D01*
X51534Y-38588D01*
X51500Y-38669D01*
X51466Y-38588D01*
X51311Y-38434D01*
X51309Y-38432D01*
X51309Y-33928D01*
X51628Y-33609D01*
X70571Y-33609D01*
X70690Y-33728D01*
X70690Y-34476D01*
X70595Y-34476D01*
X70504Y-34514D01*
X70433Y-34584D01*
X70395Y-34676D01*
X70395Y-34776D01*
X70395Y-35405D01*
X70433Y-35496D01*
X70503Y-35567D01*
X70582Y-35600D01*
X70504Y-35632D01*
X70433Y-35702D01*
X70395Y-35794D01*
X70395Y-35894D01*
X70395Y-36190D01*
X69800Y-36190D01*
X69799Y-36190D01*
X69776Y-36195D01*
X69681Y-36214D01*
X69581Y-36281D01*
X69581Y-36281D01*
X69281Y-36581D01*
X69281Y-36581D01*
X66554Y-39308D01*
X66554Y-35281D01*
X66543Y-35063D01*
X66481Y-34912D01*
X66385Y-34884D01*
X66315Y-34955D01*
X66315Y-34814D01*
X66287Y-34718D01*
X66081Y-34645D01*
X65863Y-34656D01*
X65712Y-34718D01*
X65684Y-34814D01*
X66000Y-35129D01*
X66315Y-34814D01*
X66315Y-34955D01*
X66070Y-35200D01*
X66385Y-35515D01*
X66481Y-35487D01*
X66554Y-35281D01*
X66554Y-39308D01*
X66550Y-39312D01*
X66550Y-36091D01*
X66466Y-35888D01*
X66311Y-35734D01*
X66236Y-35702D01*
X66287Y-35681D01*
X66315Y-35585D01*
X66000Y-35270D01*
X65684Y-35585D01*
X65712Y-35681D01*
X65767Y-35700D01*
X65688Y-35733D01*
X65534Y-35888D01*
X65500Y-35969D01*
X65466Y-35888D01*
X65311Y-35734D01*
X65230Y-35700D01*
X65311Y-35666D01*
X65465Y-35511D01*
X65497Y-35436D01*
X65518Y-35487D01*
X65614Y-35515D01*
X65929Y-35200D01*
X65614Y-34884D01*
X65518Y-34912D01*
X65499Y-34967D01*
X65466Y-34888D01*
X65311Y-34734D01*
X65109Y-34650D01*
X64891Y-34649D01*
X64688Y-34733D01*
X64534Y-34888D01*
X64500Y-34969D01*
X64466Y-34888D01*
X64311Y-34734D01*
X64109Y-34650D01*
X63891Y-34649D01*
X63688Y-34733D01*
X63534Y-34888D01*
X63450Y-35090D01*
X63449Y-35308D01*
X63533Y-35511D01*
X63672Y-35649D01*
X63650Y-35649D01*
X63558Y-35687D01*
X63488Y-35758D01*
X63450Y-35850D01*
X63449Y-35949D01*
X63449Y-36549D01*
X63487Y-36641D01*
X63558Y-36711D01*
X63650Y-36749D01*
X63749Y-36750D01*
X64349Y-36750D01*
X64441Y-36712D01*
X64511Y-36641D01*
X64549Y-36549D01*
X64549Y-36527D01*
X64688Y-36665D01*
X64890Y-36749D01*
X65108Y-36750D01*
X65311Y-36666D01*
X65465Y-36511D01*
X65499Y-36430D01*
X65533Y-36511D01*
X65688Y-36665D01*
X65690Y-36667D01*
X65690Y-37471D01*
X62971Y-40190D01*
X62825Y-40190D01*
X62825Y-34315D01*
X62760Y-34159D01*
X62641Y-34039D01*
X62484Y-33975D01*
X62315Y-33974D01*
X62159Y-34039D01*
X62108Y-34090D01*
X60904Y-34090D01*
X60904Y-34076D01*
X60866Y-33985D01*
X60796Y-33914D01*
X60704Y-33876D01*
X60604Y-33876D01*
X59895Y-33876D01*
X59804Y-33914D01*
X59733Y-33984D01*
X59695Y-34076D01*
X59695Y-34176D01*
X59695Y-34805D01*
X59733Y-34896D01*
X59803Y-34967D01*
X59882Y-35000D01*
X59804Y-35032D01*
X59733Y-35102D01*
X59695Y-35194D01*
X59695Y-35294D01*
X59695Y-35923D01*
X59733Y-36014D01*
X59803Y-36085D01*
X59895Y-36123D01*
X59995Y-36123D01*
X60686Y-36123D01*
X60764Y-36201D01*
X60704Y-36176D01*
X60604Y-36176D01*
X59895Y-36176D01*
X59804Y-36214D01*
X59733Y-36284D01*
X59714Y-36331D01*
X59269Y-36331D01*
X58625Y-35687D01*
X58625Y-35615D01*
X58560Y-35459D01*
X58441Y-35339D01*
X58284Y-35275D01*
X58115Y-35274D01*
X57959Y-35339D01*
X57839Y-35458D01*
X57775Y-35615D01*
X57774Y-35784D01*
X57839Y-35940D01*
X57958Y-36060D01*
X58115Y-36124D01*
X58187Y-36124D01*
X58922Y-36859D01*
X59022Y-36926D01*
X59022Y-36926D01*
X59141Y-36950D01*
X59695Y-36950D01*
X59695Y-37105D01*
X59733Y-37196D01*
X59803Y-37267D01*
X59882Y-37300D01*
X59804Y-37332D01*
X59733Y-37402D01*
X59695Y-37494D01*
X59695Y-37594D01*
X59695Y-38223D01*
X59733Y-38314D01*
X59803Y-38385D01*
X59895Y-38423D01*
X59951Y-38423D01*
X59951Y-38600D01*
X59978Y-38733D01*
X60053Y-38846D01*
X60374Y-39167D01*
X60374Y-39184D01*
X60439Y-39340D01*
X60558Y-39460D01*
X60715Y-39524D01*
X60884Y-39525D01*
X61040Y-39460D01*
X61160Y-39341D01*
X61224Y-39184D01*
X61225Y-39015D01*
X61160Y-38859D01*
X61041Y-38739D01*
X60884Y-38675D01*
X60867Y-38675D01*
X60648Y-38455D01*
X60648Y-38423D01*
X60704Y-38423D01*
X60795Y-38385D01*
X60866Y-38315D01*
X60904Y-38223D01*
X60904Y-38123D01*
X60904Y-37494D01*
X60866Y-37403D01*
X60796Y-37332D01*
X60717Y-37299D01*
X60795Y-37267D01*
X60866Y-37197D01*
X60904Y-37105D01*
X60904Y-37005D01*
X60904Y-36376D01*
X60879Y-36316D01*
X61174Y-36612D01*
X61174Y-36684D01*
X61239Y-36840D01*
X61358Y-36960D01*
X61515Y-37024D01*
X61684Y-37025D01*
X61840Y-36960D01*
X61960Y-36841D01*
X62024Y-36684D01*
X62025Y-36515D01*
X61960Y-36359D01*
X61841Y-36239D01*
X61684Y-36175D01*
X61612Y-36175D01*
X60904Y-35467D01*
X60904Y-35194D01*
X60866Y-35103D01*
X60796Y-35032D01*
X60717Y-34999D01*
X60795Y-34967D01*
X60866Y-34897D01*
X60904Y-34805D01*
X60904Y-34709D01*
X62107Y-34709D01*
X62158Y-34760D01*
X62315Y-34824D01*
X62484Y-34825D01*
X62640Y-34760D01*
X62760Y-34641D01*
X62824Y-34484D01*
X62825Y-34315D01*
X62825Y-40190D01*
X61692Y-40190D01*
X61641Y-40139D01*
X61484Y-40075D01*
X61315Y-40074D01*
X61159Y-40139D01*
X61039Y-40258D01*
X60975Y-40415D01*
X60974Y-40584D01*
X61039Y-40740D01*
X61158Y-40860D01*
X61315Y-40924D01*
X61484Y-40925D01*
X61640Y-40860D01*
X61691Y-40809D01*
X63100Y-40809D01*
X63218Y-40785D01*
X63218Y-40785D01*
X63318Y-40718D01*
X66218Y-37818D01*
X66285Y-37718D01*
X66285Y-37718D01*
X66309Y-37600D01*
X66309Y-36667D01*
X66311Y-36666D01*
X66465Y-36511D01*
X66549Y-36309D01*
X66550Y-36091D01*
X66550Y-39312D01*
X65331Y-40531D01*
X65331Y-40531D01*
X65081Y-40781D01*
X65081Y-40781D01*
X65081Y-40781D01*
X64771Y-41090D01*
X64542Y-41090D01*
X64491Y-41039D01*
X64334Y-40975D01*
X64165Y-40974D01*
X64009Y-41039D01*
X63889Y-41158D01*
X63825Y-41315D01*
X63824Y-41483D01*
X63684Y-41425D01*
X63515Y-41424D01*
X63359Y-41489D01*
X63239Y-41608D01*
X63175Y-41765D01*
X63174Y-41934D01*
X63239Y-42090D01*
X63358Y-42210D01*
X63515Y-42274D01*
X63684Y-42275D01*
X63840Y-42210D01*
X63891Y-42159D01*
X64850Y-42159D01*
X64968Y-42135D01*
X64968Y-42135D01*
X65068Y-42068D01*
X65443Y-41693D01*
X66168Y-40969D01*
X66258Y-41060D01*
X66415Y-41124D01*
X66584Y-41125D01*
X66740Y-41060D01*
X66860Y-40941D01*
X66924Y-40784D01*
X66924Y-40712D01*
X67662Y-39974D01*
X67689Y-40040D01*
X67808Y-40160D01*
X67965Y-40224D01*
X68134Y-40225D01*
X68290Y-40160D01*
X68410Y-40041D01*
X68474Y-39884D01*
X68475Y-39715D01*
X68459Y-39677D01*
X68768Y-39368D01*
X70428Y-37709D01*
X75759Y-37709D01*
X75877Y-37685D01*
X75877Y-37685D01*
X75977Y-37618D01*
X76872Y-36723D01*
X77404Y-36723D01*
X77495Y-36685D01*
X77566Y-36615D01*
X77604Y-36523D01*
X77604Y-36423D01*
X77604Y-38694D01*
X77566Y-38603D01*
X77496Y-38532D01*
X77404Y-38494D01*
X77304Y-38494D01*
X76595Y-38494D01*
X76504Y-38532D01*
X76433Y-38602D01*
X76395Y-38694D01*
X76395Y-38794D01*
X76395Y-39423D01*
X76433Y-39514D01*
X76503Y-39585D01*
X76595Y-39623D01*
X76695Y-39623D01*
X76786Y-39623D01*
X77374Y-40212D01*
X77374Y-40284D01*
X77439Y-40440D01*
X77558Y-40560D01*
X77715Y-40624D01*
X77884Y-40625D01*
X78040Y-40560D01*
X78160Y-40441D01*
X78224Y-40284D01*
X78225Y-40115D01*
X78225Y-47475D01*
X40625Y-47475D01*
X40625Y-31625D01*
X79375Y-31625D01*
X79375Y-47475D01*
M02*
