G04 (created by PCBNEW (2013-jul-07)-stable) date mer. 26 nov. 2014 20:09:27 CET*
%MOIN*%
G04 Gerber Fmt 3.4, Leading zero omitted, Abs format*
%FSLAX34Y34*%
G01*
G70*
G90*
G04 APERTURE LIST*
%ADD10C,0.00590551*%
%ADD11C,0.00708661*%
%ADD12C,0.012*%
%ADD13C,0.015*%
%ADD14C,0.011811*%
%ADD15C,0.0026*%
%ADD16C,0.004*%
%ADD17C,0.008*%
%ADD18C,0.006*%
%ADD19C,0.003*%
%ADD20C,0.01*%
%ADD21C,0.0035*%
G04 APERTURE END LIST*
G54D10*
G54D11*
X59300Y-33900D02*
X59300Y-38500D01*
X61200Y-33900D02*
X61200Y-38500D01*
X55700Y-38500D02*
X55700Y-33900D01*
X61200Y-38500D02*
X55700Y-38500D01*
X55700Y-33900D02*
X61200Y-33900D01*
X61200Y-36200D02*
X55800Y-36200D01*
X64600Y-36950D02*
X65500Y-36950D01*
X64600Y-36700D02*
X64650Y-36700D01*
X64600Y-36950D02*
X64600Y-36700D01*
X65500Y-36950D02*
X65500Y-36700D01*
G54D12*
X64178Y-45973D02*
X63978Y-45592D01*
X63835Y-45973D02*
X63835Y-45173D01*
X64064Y-45173D01*
X64121Y-45211D01*
X64150Y-45250D01*
X64178Y-45326D01*
X64178Y-45440D01*
X64150Y-45516D01*
X64121Y-45554D01*
X64064Y-45592D01*
X63835Y-45592D01*
X64435Y-45554D02*
X64635Y-45554D01*
X64721Y-45973D02*
X64435Y-45973D01*
X64435Y-45173D01*
X64721Y-45173D01*
X64950Y-45935D02*
X65035Y-45973D01*
X65178Y-45973D01*
X65235Y-45935D01*
X65264Y-45897D01*
X65292Y-45821D01*
X65292Y-45745D01*
X65264Y-45669D01*
X65235Y-45630D01*
X65178Y-45592D01*
X65064Y-45554D01*
X65007Y-45516D01*
X64978Y-45478D01*
X64950Y-45402D01*
X64950Y-45326D01*
X64978Y-45250D01*
X65007Y-45211D01*
X65064Y-45173D01*
X65207Y-45173D01*
X65292Y-45211D01*
X65550Y-45554D02*
X65750Y-45554D01*
X65835Y-45973D02*
X65550Y-45973D01*
X65550Y-45173D01*
X65835Y-45173D01*
X66007Y-45173D02*
X66350Y-45173D01*
X66178Y-45973D02*
X66178Y-45173D01*
X59057Y-43473D02*
X59400Y-43473D01*
X59228Y-44273D02*
X59228Y-43473D01*
X59600Y-43969D02*
X60057Y-43969D01*
X60685Y-44273D02*
X60485Y-43892D01*
X60342Y-44273D02*
X60342Y-43473D01*
X60571Y-43473D01*
X60628Y-43511D01*
X60657Y-43550D01*
X60685Y-43626D01*
X60685Y-43740D01*
X60657Y-43816D01*
X60628Y-43854D01*
X60571Y-43892D01*
X60342Y-43892D01*
X53442Y-44200D02*
X53404Y-44228D01*
X53366Y-44285D01*
X53366Y-44342D01*
X53404Y-44400D01*
X53442Y-44428D01*
X53519Y-44457D01*
X53595Y-44457D01*
X53671Y-44428D01*
X53709Y-44400D01*
X53747Y-44342D01*
X53747Y-44285D01*
X53709Y-44228D01*
X53671Y-44200D01*
X53366Y-44200D02*
X53671Y-44200D01*
X53709Y-44171D01*
X53709Y-44142D01*
X53671Y-44085D01*
X53595Y-44057D01*
X53404Y-44057D01*
X53290Y-44114D01*
X53214Y-44200D01*
X53176Y-44314D01*
X53214Y-44428D01*
X53290Y-44514D01*
X53404Y-44571D01*
X53557Y-44600D01*
X53709Y-44571D01*
X53823Y-44514D01*
X53900Y-44428D01*
X53938Y-44314D01*
X53900Y-44200D01*
X53823Y-44114D01*
X53823Y-43800D02*
X53023Y-43800D01*
X53100Y-43542D02*
X53061Y-43514D01*
X53023Y-43457D01*
X53023Y-43314D01*
X53061Y-43257D01*
X53100Y-43228D01*
X53176Y-43200D01*
X53252Y-43200D01*
X53366Y-43228D01*
X53823Y-43571D01*
X53823Y-43200D01*
X53747Y-42600D02*
X53785Y-42628D01*
X53823Y-42714D01*
X53823Y-42771D01*
X53785Y-42857D01*
X53709Y-42914D01*
X53633Y-42942D01*
X53480Y-42971D01*
X53366Y-42971D01*
X53214Y-42942D01*
X53138Y-42914D01*
X53061Y-42857D01*
X53023Y-42771D01*
X53023Y-42714D01*
X53061Y-42628D01*
X53100Y-42600D01*
X54600Y-44742D02*
X54971Y-44742D01*
X54771Y-44971D01*
X54857Y-44971D01*
X54914Y-45000D01*
X54942Y-45028D01*
X54971Y-45085D01*
X54971Y-45228D01*
X54942Y-45285D01*
X54914Y-45314D01*
X54857Y-45342D01*
X54685Y-45342D01*
X54628Y-45314D01*
X54600Y-45285D01*
X55628Y-44800D02*
X55657Y-44771D01*
X55714Y-44742D01*
X55857Y-44742D01*
X55914Y-44771D01*
X55942Y-44800D01*
X55971Y-44857D01*
X55971Y-44914D01*
X55942Y-45000D01*
X55600Y-45342D01*
X55971Y-45342D01*
X56971Y-45342D02*
X56628Y-45342D01*
X56800Y-45342D02*
X56800Y-44742D01*
X56742Y-44828D01*
X56685Y-44885D01*
X56628Y-44914D01*
G54D11*
X76000Y-39750D02*
X76000Y-33000D01*
X74000Y-33000D02*
X74000Y-39750D01*
X72000Y-39750D02*
X72000Y-33000D01*
X70000Y-33000D02*
X70000Y-39750D01*
X77750Y-33000D02*
X77750Y-39750D01*
X68500Y-33000D02*
X68500Y-39750D01*
X77750Y-33000D02*
X68500Y-33000D01*
X68500Y-37000D02*
X77750Y-37000D01*
X77750Y-34250D02*
X68500Y-34250D01*
X70000Y-39750D02*
X68500Y-39750D01*
X70000Y-39750D02*
X77750Y-39750D01*
G54D12*
X69623Y-38788D02*
X68823Y-38788D01*
X69623Y-38526D02*
X68823Y-38526D01*
X69623Y-38211D01*
X68823Y-38211D01*
X76800Y-33273D02*
X77171Y-33273D01*
X76971Y-33578D01*
X77057Y-33578D01*
X77114Y-33616D01*
X77142Y-33654D01*
X77171Y-33730D01*
X77171Y-33921D01*
X77142Y-33997D01*
X77114Y-34035D01*
X77057Y-34073D01*
X76885Y-34073D01*
X76828Y-34035D01*
X76800Y-33997D01*
X74828Y-33350D02*
X74857Y-33311D01*
X74914Y-33273D01*
X75057Y-33273D01*
X75114Y-33311D01*
X75142Y-33350D01*
X75171Y-33426D01*
X75171Y-33502D01*
X75142Y-33616D01*
X74800Y-34073D01*
X75171Y-34073D01*
X73171Y-34073D02*
X72828Y-34073D01*
X73000Y-34073D02*
X73000Y-33273D01*
X72942Y-33388D01*
X72885Y-33464D01*
X72828Y-33502D01*
X70971Y-33273D02*
X71028Y-33273D01*
X71085Y-33311D01*
X71114Y-33350D01*
X71142Y-33426D01*
X71171Y-33578D01*
X71171Y-33769D01*
X71142Y-33921D01*
X71114Y-33997D01*
X71085Y-34035D01*
X71028Y-34073D01*
X70971Y-34073D01*
X70914Y-34035D01*
X70885Y-33997D01*
X70857Y-33921D01*
X70828Y-33769D01*
X70828Y-33578D01*
X70857Y-33426D01*
X70885Y-33350D01*
X70914Y-33311D01*
X70971Y-33273D01*
X68823Y-36351D02*
X68823Y-36246D01*
X68861Y-36193D01*
X68938Y-36141D01*
X69090Y-36114D01*
X69357Y-36114D01*
X69509Y-36141D01*
X69585Y-36193D01*
X69623Y-36246D01*
X69623Y-36351D01*
X69585Y-36403D01*
X69509Y-36456D01*
X69357Y-36482D01*
X69090Y-36482D01*
X68938Y-36456D01*
X68861Y-36403D01*
X68823Y-36351D01*
X68823Y-35878D02*
X69471Y-35878D01*
X69547Y-35852D01*
X69585Y-35826D01*
X69623Y-35773D01*
X69623Y-35668D01*
X69585Y-35616D01*
X69547Y-35590D01*
X69471Y-35563D01*
X68823Y-35563D01*
X68823Y-35380D02*
X68823Y-35065D01*
X69623Y-35222D02*
X68823Y-35222D01*
X57871Y-44742D02*
X57928Y-44742D01*
X57985Y-44771D01*
X58014Y-44800D01*
X58042Y-44857D01*
X58071Y-44971D01*
X58071Y-45114D01*
X58042Y-45228D01*
X58014Y-45285D01*
X57985Y-45314D01*
X57928Y-45342D01*
X57871Y-45342D01*
X57814Y-45314D01*
X57785Y-45285D01*
X57757Y-45228D01*
X57728Y-45114D01*
X57728Y-44971D01*
X57757Y-44857D01*
X57785Y-44800D01*
X57814Y-44771D01*
X57871Y-44742D01*
X56014Y-37685D02*
X56100Y-37723D01*
X56242Y-37723D01*
X56300Y-37685D01*
X56328Y-37647D01*
X56357Y-37571D01*
X56357Y-37495D01*
X56328Y-37419D01*
X56300Y-37380D01*
X56242Y-37342D01*
X56128Y-37304D01*
X56071Y-37266D01*
X56042Y-37228D01*
X56014Y-37152D01*
X56014Y-37076D01*
X56042Y-37000D01*
X56071Y-36961D01*
X56128Y-36923D01*
X56271Y-36923D01*
X56357Y-36961D01*
X56528Y-36923D02*
X56871Y-36923D01*
X56700Y-37723D02*
X56700Y-36923D01*
X57042Y-37495D02*
X57328Y-37495D01*
X56985Y-37723D02*
X57185Y-36923D01*
X57385Y-37723D01*
X57500Y-36923D02*
X57842Y-36923D01*
X57671Y-37723D02*
X57671Y-36923D01*
X58042Y-36923D02*
X58042Y-37571D01*
X58071Y-37647D01*
X58100Y-37685D01*
X58157Y-37723D01*
X58271Y-37723D01*
X58328Y-37685D01*
X58357Y-37647D01*
X58385Y-37571D01*
X58385Y-36923D01*
X58642Y-37685D02*
X58728Y-37723D01*
X58871Y-37723D01*
X58928Y-37685D01*
X58957Y-37647D01*
X58985Y-37571D01*
X58985Y-37495D01*
X58957Y-37419D01*
X58928Y-37380D01*
X58871Y-37342D01*
X58757Y-37304D01*
X58700Y-37266D01*
X58671Y-37228D01*
X58642Y-37152D01*
X58642Y-37076D01*
X58671Y-37000D01*
X58700Y-36961D01*
X58757Y-36923D01*
X58900Y-36923D01*
X58985Y-36961D01*
X56014Y-35323D02*
X56014Y-34523D01*
X56242Y-34523D01*
X56300Y-34561D01*
X56328Y-34600D01*
X56357Y-34676D01*
X56357Y-34790D01*
X56328Y-34866D01*
X56300Y-34904D01*
X56242Y-34942D01*
X56014Y-34942D01*
X56728Y-34523D02*
X56842Y-34523D01*
X56900Y-34561D01*
X56957Y-34638D01*
X56985Y-34790D01*
X56985Y-35057D01*
X56957Y-35209D01*
X56900Y-35285D01*
X56842Y-35323D01*
X56728Y-35323D01*
X56671Y-35285D01*
X56614Y-35209D01*
X56585Y-35057D01*
X56585Y-34790D01*
X56614Y-34638D01*
X56671Y-34561D01*
X56728Y-34523D01*
X57185Y-34523D02*
X57328Y-35323D01*
X57442Y-34752D01*
X57557Y-35323D01*
X57700Y-34523D01*
X57928Y-34904D02*
X58128Y-34904D01*
X58214Y-35323D02*
X57928Y-35323D01*
X57928Y-34523D01*
X58214Y-34523D01*
X58814Y-35323D02*
X58614Y-34942D01*
X58471Y-35323D02*
X58471Y-34523D01*
X58700Y-34523D01*
X58757Y-34561D01*
X58785Y-34600D01*
X58814Y-34676D01*
X58814Y-34790D01*
X58785Y-34866D01*
X58757Y-34904D01*
X58700Y-34942D01*
X58471Y-34942D01*
G54D13*
X79700Y-47800D02*
X79700Y-31300D01*
X40300Y-47800D02*
X40300Y-31300D01*
X40300Y-31300D02*
X79700Y-31300D01*
G54D14*
X53585Y-32986D02*
X53585Y-32278D01*
X53866Y-32986D02*
X53866Y-32278D01*
X54203Y-32986D01*
X54203Y-32278D01*
X54738Y-32514D02*
X54738Y-32986D01*
X54597Y-32244D02*
X54456Y-32750D01*
X54822Y-32750D01*
X55047Y-32986D02*
X55047Y-32278D01*
X55188Y-32278D01*
X55272Y-32311D01*
X55328Y-32379D01*
X55356Y-32446D01*
X55384Y-32581D01*
X55384Y-32683D01*
X55356Y-32818D01*
X55328Y-32885D01*
X55272Y-32953D01*
X55188Y-32986D01*
X55047Y-32986D01*
X55638Y-32986D02*
X55638Y-32278D01*
X55919Y-32986D02*
X55919Y-32278D01*
X56116Y-32784D01*
X56312Y-32278D01*
X56312Y-32986D01*
X56847Y-32514D02*
X56847Y-32986D01*
X56706Y-32244D02*
X56566Y-32750D01*
X56931Y-32750D01*
X57606Y-32716D02*
X58056Y-32716D01*
X58984Y-32615D02*
X58787Y-32615D01*
X58787Y-32986D02*
X58787Y-32278D01*
X59068Y-32278D01*
X59293Y-32986D02*
X59293Y-32514D01*
X59293Y-32649D02*
X59321Y-32581D01*
X59350Y-32548D01*
X59406Y-32514D01*
X59462Y-32514D01*
X59743Y-32986D02*
X59687Y-32953D01*
X59659Y-32919D01*
X59631Y-32851D01*
X59631Y-32649D01*
X59659Y-32581D01*
X59687Y-32548D01*
X59743Y-32514D01*
X59828Y-32514D01*
X59884Y-32548D01*
X59912Y-32581D01*
X59940Y-32649D01*
X59940Y-32851D01*
X59912Y-32919D01*
X59884Y-32953D01*
X59828Y-32986D01*
X59743Y-32986D01*
X60193Y-32514D02*
X60193Y-32986D01*
X60193Y-32581D02*
X60221Y-32548D01*
X60278Y-32514D01*
X60362Y-32514D01*
X60418Y-32548D01*
X60446Y-32615D01*
X60446Y-32986D01*
X60643Y-32514D02*
X60868Y-32514D01*
X60728Y-32278D02*
X60728Y-32885D01*
X60756Y-32953D01*
X60812Y-32986D01*
X60868Y-32986D01*
X61515Y-32986D02*
X61515Y-32278D01*
X61740Y-32278D01*
X61796Y-32311D01*
X61824Y-32345D01*
X61852Y-32413D01*
X61852Y-32514D01*
X61824Y-32581D01*
X61796Y-32615D01*
X61740Y-32649D01*
X61515Y-32649D01*
X62359Y-32986D02*
X62359Y-32615D01*
X62330Y-32548D01*
X62274Y-32514D01*
X62162Y-32514D01*
X62105Y-32548D01*
X62359Y-32953D02*
X62302Y-32986D01*
X62162Y-32986D01*
X62105Y-32953D01*
X62077Y-32885D01*
X62077Y-32818D01*
X62105Y-32750D01*
X62162Y-32716D01*
X62302Y-32716D01*
X62359Y-32683D01*
X62640Y-32514D02*
X62640Y-32986D01*
X62640Y-32581D02*
X62668Y-32548D01*
X62724Y-32514D01*
X62808Y-32514D01*
X62865Y-32548D01*
X62893Y-32615D01*
X62893Y-32986D01*
X63399Y-32953D02*
X63343Y-32986D01*
X63230Y-32986D01*
X63174Y-32953D01*
X63146Y-32885D01*
X63146Y-32615D01*
X63174Y-32548D01*
X63230Y-32514D01*
X63343Y-32514D01*
X63399Y-32548D01*
X63427Y-32615D01*
X63427Y-32683D01*
X63146Y-32750D01*
X63765Y-32986D02*
X63708Y-32953D01*
X63680Y-32885D01*
X63680Y-32278D01*
X64383Y-32514D02*
X64524Y-32986D01*
X64665Y-32514D01*
X65002Y-32278D02*
X65058Y-32278D01*
X65114Y-32311D01*
X65143Y-32345D01*
X65171Y-32413D01*
X65199Y-32548D01*
X65199Y-32716D01*
X65171Y-32851D01*
X65143Y-32919D01*
X65114Y-32953D01*
X65058Y-32986D01*
X65002Y-32986D01*
X64946Y-32953D01*
X64918Y-32919D01*
X64889Y-32851D01*
X64861Y-32716D01*
X64861Y-32548D01*
X64889Y-32413D01*
X64918Y-32345D01*
X64946Y-32311D01*
X65002Y-32278D01*
X65452Y-32919D02*
X65480Y-32953D01*
X65452Y-32986D01*
X65424Y-32953D01*
X65452Y-32919D01*
X65452Y-32986D01*
X65846Y-32278D02*
X65902Y-32278D01*
X65958Y-32311D01*
X65986Y-32345D01*
X66014Y-32413D01*
X66042Y-32548D01*
X66042Y-32716D01*
X66014Y-32851D01*
X65986Y-32919D01*
X65958Y-32953D01*
X65902Y-32986D01*
X65846Y-32986D01*
X65789Y-32953D01*
X65761Y-32919D01*
X65733Y-32851D01*
X65705Y-32716D01*
X65705Y-32548D01*
X65733Y-32413D01*
X65761Y-32345D01*
X65789Y-32311D01*
X65846Y-32278D01*
G54D13*
X40300Y-47800D02*
X79700Y-47800D01*
G54D15*
X60339Y-35039D02*
X60339Y-34961D01*
X60339Y-34961D02*
X60261Y-34961D01*
X60261Y-35039D02*
X60261Y-34961D01*
X60339Y-35039D02*
X60261Y-35039D01*
X60575Y-34823D02*
X60575Y-34686D01*
X60575Y-34686D02*
X60477Y-34686D01*
X60477Y-34823D02*
X60477Y-34686D01*
X60575Y-34823D02*
X60477Y-34823D01*
X60575Y-34686D02*
X60575Y-34646D01*
X60575Y-34646D02*
X60104Y-34646D01*
X60104Y-34686D02*
X60104Y-34646D01*
X60575Y-34686D02*
X60104Y-34686D01*
X60084Y-34686D02*
X60084Y-34646D01*
X60084Y-34646D02*
X60025Y-34646D01*
X60025Y-34686D02*
X60025Y-34646D01*
X60084Y-34686D02*
X60025Y-34686D01*
X60575Y-35354D02*
X60575Y-35314D01*
X60575Y-35314D02*
X60104Y-35314D01*
X60104Y-35354D02*
X60104Y-35314D01*
X60575Y-35354D02*
X60104Y-35354D01*
X60084Y-35354D02*
X60084Y-35314D01*
X60084Y-35314D02*
X60025Y-35314D01*
X60025Y-35354D02*
X60025Y-35314D01*
X60084Y-35354D02*
X60025Y-35354D01*
X60575Y-34823D02*
X60575Y-34764D01*
X60575Y-34764D02*
X60477Y-34764D01*
X60477Y-34823D02*
X60477Y-34764D01*
X60575Y-34823D02*
X60477Y-34823D01*
G54D16*
X60595Y-34390D02*
X60595Y-35610D01*
X60595Y-35610D02*
X60005Y-35610D01*
X60005Y-35610D02*
X60005Y-34390D01*
X60005Y-34390D02*
X60595Y-34390D01*
X60496Y-35215D02*
G75*
G03X60495Y-34783I-196J215D01*
G74*
G01*
X60103Y-35215D02*
G75*
G03X60495Y-35216I196J215D01*
G74*
G01*
X60103Y-34784D02*
G75*
G03X60104Y-35216I196J-215D01*
G74*
G01*
X60496Y-34784D02*
G75*
G03X60104Y-34783I-196J-215D01*
G74*
G01*
G54D15*
X77039Y-35639D02*
X77039Y-35561D01*
X77039Y-35561D02*
X76961Y-35561D01*
X76961Y-35639D02*
X76961Y-35561D01*
X77039Y-35639D02*
X76961Y-35639D01*
X77275Y-35423D02*
X77275Y-35286D01*
X77275Y-35286D02*
X77177Y-35286D01*
X77177Y-35423D02*
X77177Y-35286D01*
X77275Y-35423D02*
X77177Y-35423D01*
X77275Y-35286D02*
X77275Y-35246D01*
X77275Y-35246D02*
X76804Y-35246D01*
X76804Y-35286D02*
X76804Y-35246D01*
X77275Y-35286D02*
X76804Y-35286D01*
X76784Y-35286D02*
X76784Y-35246D01*
X76784Y-35246D02*
X76725Y-35246D01*
X76725Y-35286D02*
X76725Y-35246D01*
X76784Y-35286D02*
X76725Y-35286D01*
X77275Y-35954D02*
X77275Y-35914D01*
X77275Y-35914D02*
X76804Y-35914D01*
X76804Y-35954D02*
X76804Y-35914D01*
X77275Y-35954D02*
X76804Y-35954D01*
X76784Y-35954D02*
X76784Y-35914D01*
X76784Y-35914D02*
X76725Y-35914D01*
X76725Y-35954D02*
X76725Y-35914D01*
X76784Y-35954D02*
X76725Y-35954D01*
X77275Y-35423D02*
X77275Y-35364D01*
X77275Y-35364D02*
X77177Y-35364D01*
X77177Y-35423D02*
X77177Y-35364D01*
X77275Y-35423D02*
X77177Y-35423D01*
G54D16*
X77295Y-34990D02*
X77295Y-36210D01*
X77295Y-36210D02*
X76705Y-36210D01*
X76705Y-36210D02*
X76705Y-34990D01*
X76705Y-34990D02*
X77295Y-34990D01*
X77196Y-35815D02*
G75*
G03X77195Y-35383I-196J215D01*
G74*
G01*
X76803Y-35815D02*
G75*
G03X77195Y-35816I196J215D01*
G74*
G01*
X76803Y-35384D02*
G75*
G03X76804Y-35816I196J-215D01*
G74*
G01*
X77196Y-35384D02*
G75*
G03X76804Y-35383I-196J-215D01*
G74*
G01*
G54D15*
X75039Y-35639D02*
X75039Y-35561D01*
X75039Y-35561D02*
X74961Y-35561D01*
X74961Y-35639D02*
X74961Y-35561D01*
X75039Y-35639D02*
X74961Y-35639D01*
X75275Y-35423D02*
X75275Y-35286D01*
X75275Y-35286D02*
X75177Y-35286D01*
X75177Y-35423D02*
X75177Y-35286D01*
X75275Y-35423D02*
X75177Y-35423D01*
X75275Y-35286D02*
X75275Y-35246D01*
X75275Y-35246D02*
X74804Y-35246D01*
X74804Y-35286D02*
X74804Y-35246D01*
X75275Y-35286D02*
X74804Y-35286D01*
X74784Y-35286D02*
X74784Y-35246D01*
X74784Y-35246D02*
X74725Y-35246D01*
X74725Y-35286D02*
X74725Y-35246D01*
X74784Y-35286D02*
X74725Y-35286D01*
X75275Y-35954D02*
X75275Y-35914D01*
X75275Y-35914D02*
X74804Y-35914D01*
X74804Y-35954D02*
X74804Y-35914D01*
X75275Y-35954D02*
X74804Y-35954D01*
X74784Y-35954D02*
X74784Y-35914D01*
X74784Y-35914D02*
X74725Y-35914D01*
X74725Y-35954D02*
X74725Y-35914D01*
X74784Y-35954D02*
X74725Y-35954D01*
X75275Y-35423D02*
X75275Y-35364D01*
X75275Y-35364D02*
X75177Y-35364D01*
X75177Y-35423D02*
X75177Y-35364D01*
X75275Y-35423D02*
X75177Y-35423D01*
G54D16*
X75295Y-34990D02*
X75295Y-36210D01*
X75295Y-36210D02*
X74705Y-36210D01*
X74705Y-36210D02*
X74705Y-34990D01*
X74705Y-34990D02*
X75295Y-34990D01*
X75196Y-35815D02*
G75*
G03X75195Y-35383I-196J215D01*
G74*
G01*
X74803Y-35815D02*
G75*
G03X75195Y-35816I196J215D01*
G74*
G01*
X74803Y-35384D02*
G75*
G03X74804Y-35816I196J-215D01*
G74*
G01*
X75196Y-35384D02*
G75*
G03X74804Y-35383I-196J-215D01*
G74*
G01*
G54D15*
X73039Y-35639D02*
X73039Y-35561D01*
X73039Y-35561D02*
X72961Y-35561D01*
X72961Y-35639D02*
X72961Y-35561D01*
X73039Y-35639D02*
X72961Y-35639D01*
X73275Y-35423D02*
X73275Y-35286D01*
X73275Y-35286D02*
X73177Y-35286D01*
X73177Y-35423D02*
X73177Y-35286D01*
X73275Y-35423D02*
X73177Y-35423D01*
X73275Y-35286D02*
X73275Y-35246D01*
X73275Y-35246D02*
X72804Y-35246D01*
X72804Y-35286D02*
X72804Y-35246D01*
X73275Y-35286D02*
X72804Y-35286D01*
X72784Y-35286D02*
X72784Y-35246D01*
X72784Y-35246D02*
X72725Y-35246D01*
X72725Y-35286D02*
X72725Y-35246D01*
X72784Y-35286D02*
X72725Y-35286D01*
X73275Y-35954D02*
X73275Y-35914D01*
X73275Y-35914D02*
X72804Y-35914D01*
X72804Y-35954D02*
X72804Y-35914D01*
X73275Y-35954D02*
X72804Y-35954D01*
X72784Y-35954D02*
X72784Y-35914D01*
X72784Y-35914D02*
X72725Y-35914D01*
X72725Y-35954D02*
X72725Y-35914D01*
X72784Y-35954D02*
X72725Y-35954D01*
X73275Y-35423D02*
X73275Y-35364D01*
X73275Y-35364D02*
X73177Y-35364D01*
X73177Y-35423D02*
X73177Y-35364D01*
X73275Y-35423D02*
X73177Y-35423D01*
G54D16*
X73295Y-34990D02*
X73295Y-36210D01*
X73295Y-36210D02*
X72705Y-36210D01*
X72705Y-36210D02*
X72705Y-34990D01*
X72705Y-34990D02*
X73295Y-34990D01*
X73196Y-35815D02*
G75*
G03X73195Y-35383I-196J215D01*
G74*
G01*
X72803Y-35815D02*
G75*
G03X73195Y-35816I196J215D01*
G74*
G01*
X72803Y-35384D02*
G75*
G03X72804Y-35816I196J-215D01*
G74*
G01*
X73196Y-35384D02*
G75*
G03X72804Y-35383I-196J-215D01*
G74*
G01*
G54D15*
X71039Y-35639D02*
X71039Y-35561D01*
X71039Y-35561D02*
X70961Y-35561D01*
X70961Y-35639D02*
X70961Y-35561D01*
X71039Y-35639D02*
X70961Y-35639D01*
X71275Y-35423D02*
X71275Y-35286D01*
X71275Y-35286D02*
X71177Y-35286D01*
X71177Y-35423D02*
X71177Y-35286D01*
X71275Y-35423D02*
X71177Y-35423D01*
X71275Y-35286D02*
X71275Y-35246D01*
X71275Y-35246D02*
X70804Y-35246D01*
X70804Y-35286D02*
X70804Y-35246D01*
X71275Y-35286D02*
X70804Y-35286D01*
X70784Y-35286D02*
X70784Y-35246D01*
X70784Y-35246D02*
X70725Y-35246D01*
X70725Y-35286D02*
X70725Y-35246D01*
X70784Y-35286D02*
X70725Y-35286D01*
X71275Y-35954D02*
X71275Y-35914D01*
X71275Y-35914D02*
X70804Y-35914D01*
X70804Y-35954D02*
X70804Y-35914D01*
X71275Y-35954D02*
X70804Y-35954D01*
X70784Y-35954D02*
X70784Y-35914D01*
X70784Y-35914D02*
X70725Y-35914D01*
X70725Y-35954D02*
X70725Y-35914D01*
X70784Y-35954D02*
X70725Y-35954D01*
X71275Y-35423D02*
X71275Y-35364D01*
X71275Y-35364D02*
X71177Y-35364D01*
X71177Y-35423D02*
X71177Y-35364D01*
X71275Y-35423D02*
X71177Y-35423D01*
G54D16*
X71295Y-34990D02*
X71295Y-36210D01*
X71295Y-36210D02*
X70705Y-36210D01*
X70705Y-36210D02*
X70705Y-34990D01*
X70705Y-34990D02*
X71295Y-34990D01*
X71196Y-35815D02*
G75*
G03X71195Y-35383I-196J215D01*
G74*
G01*
X70803Y-35815D02*
G75*
G03X71195Y-35816I196J215D01*
G74*
G01*
X70803Y-35384D02*
G75*
G03X70804Y-35816I196J-215D01*
G74*
G01*
X71196Y-35384D02*
G75*
G03X70804Y-35383I-196J-215D01*
G74*
G01*
G54D15*
X71039Y-38539D02*
X71039Y-38461D01*
X71039Y-38461D02*
X70961Y-38461D01*
X70961Y-38539D02*
X70961Y-38461D01*
X71039Y-38539D02*
X70961Y-38539D01*
X71275Y-38323D02*
X71275Y-38186D01*
X71275Y-38186D02*
X71177Y-38186D01*
X71177Y-38323D02*
X71177Y-38186D01*
X71275Y-38323D02*
X71177Y-38323D01*
X71275Y-38186D02*
X71275Y-38146D01*
X71275Y-38146D02*
X70804Y-38146D01*
X70804Y-38186D02*
X70804Y-38146D01*
X71275Y-38186D02*
X70804Y-38186D01*
X70784Y-38186D02*
X70784Y-38146D01*
X70784Y-38146D02*
X70725Y-38146D01*
X70725Y-38186D02*
X70725Y-38146D01*
X70784Y-38186D02*
X70725Y-38186D01*
X71275Y-38854D02*
X71275Y-38814D01*
X71275Y-38814D02*
X70804Y-38814D01*
X70804Y-38854D02*
X70804Y-38814D01*
X71275Y-38854D02*
X70804Y-38854D01*
X70784Y-38854D02*
X70784Y-38814D01*
X70784Y-38814D02*
X70725Y-38814D01*
X70725Y-38854D02*
X70725Y-38814D01*
X70784Y-38854D02*
X70725Y-38854D01*
X71275Y-38323D02*
X71275Y-38264D01*
X71275Y-38264D02*
X71177Y-38264D01*
X71177Y-38323D02*
X71177Y-38264D01*
X71275Y-38323D02*
X71177Y-38323D01*
G54D16*
X71295Y-37890D02*
X71295Y-39110D01*
X71295Y-39110D02*
X70705Y-39110D01*
X70705Y-39110D02*
X70705Y-37890D01*
X70705Y-37890D02*
X71295Y-37890D01*
X71196Y-38715D02*
G75*
G03X71195Y-38283I-196J215D01*
G74*
G01*
X70803Y-38715D02*
G75*
G03X71195Y-38716I196J215D01*
G74*
G01*
X70803Y-38284D02*
G75*
G03X70804Y-38716I196J-215D01*
G74*
G01*
X71196Y-38284D02*
G75*
G03X70804Y-38283I-196J-215D01*
G74*
G01*
G54D15*
X73039Y-38539D02*
X73039Y-38461D01*
X73039Y-38461D02*
X72961Y-38461D01*
X72961Y-38539D02*
X72961Y-38461D01*
X73039Y-38539D02*
X72961Y-38539D01*
X73275Y-38323D02*
X73275Y-38186D01*
X73275Y-38186D02*
X73177Y-38186D01*
X73177Y-38323D02*
X73177Y-38186D01*
X73275Y-38323D02*
X73177Y-38323D01*
X73275Y-38186D02*
X73275Y-38146D01*
X73275Y-38146D02*
X72804Y-38146D01*
X72804Y-38186D02*
X72804Y-38146D01*
X73275Y-38186D02*
X72804Y-38186D01*
X72784Y-38186D02*
X72784Y-38146D01*
X72784Y-38146D02*
X72725Y-38146D01*
X72725Y-38186D02*
X72725Y-38146D01*
X72784Y-38186D02*
X72725Y-38186D01*
X73275Y-38854D02*
X73275Y-38814D01*
X73275Y-38814D02*
X72804Y-38814D01*
X72804Y-38854D02*
X72804Y-38814D01*
X73275Y-38854D02*
X72804Y-38854D01*
X72784Y-38854D02*
X72784Y-38814D01*
X72784Y-38814D02*
X72725Y-38814D01*
X72725Y-38854D02*
X72725Y-38814D01*
X72784Y-38854D02*
X72725Y-38854D01*
X73275Y-38323D02*
X73275Y-38264D01*
X73275Y-38264D02*
X73177Y-38264D01*
X73177Y-38323D02*
X73177Y-38264D01*
X73275Y-38323D02*
X73177Y-38323D01*
G54D16*
X73295Y-37890D02*
X73295Y-39110D01*
X73295Y-39110D02*
X72705Y-39110D01*
X72705Y-39110D02*
X72705Y-37890D01*
X72705Y-37890D02*
X73295Y-37890D01*
X73196Y-38715D02*
G75*
G03X73195Y-38283I-196J215D01*
G74*
G01*
X72803Y-38715D02*
G75*
G03X73195Y-38716I196J215D01*
G74*
G01*
X72803Y-38284D02*
G75*
G03X72804Y-38716I196J-215D01*
G74*
G01*
X73196Y-38284D02*
G75*
G03X72804Y-38283I-196J-215D01*
G74*
G01*
G54D15*
X75039Y-38539D02*
X75039Y-38461D01*
X75039Y-38461D02*
X74961Y-38461D01*
X74961Y-38539D02*
X74961Y-38461D01*
X75039Y-38539D02*
X74961Y-38539D01*
X75275Y-38323D02*
X75275Y-38186D01*
X75275Y-38186D02*
X75177Y-38186D01*
X75177Y-38323D02*
X75177Y-38186D01*
X75275Y-38323D02*
X75177Y-38323D01*
X75275Y-38186D02*
X75275Y-38146D01*
X75275Y-38146D02*
X74804Y-38146D01*
X74804Y-38186D02*
X74804Y-38146D01*
X75275Y-38186D02*
X74804Y-38186D01*
X74784Y-38186D02*
X74784Y-38146D01*
X74784Y-38146D02*
X74725Y-38146D01*
X74725Y-38186D02*
X74725Y-38146D01*
X74784Y-38186D02*
X74725Y-38186D01*
X75275Y-38854D02*
X75275Y-38814D01*
X75275Y-38814D02*
X74804Y-38814D01*
X74804Y-38854D02*
X74804Y-38814D01*
X75275Y-38854D02*
X74804Y-38854D01*
X74784Y-38854D02*
X74784Y-38814D01*
X74784Y-38814D02*
X74725Y-38814D01*
X74725Y-38854D02*
X74725Y-38814D01*
X74784Y-38854D02*
X74725Y-38854D01*
X75275Y-38323D02*
X75275Y-38264D01*
X75275Y-38264D02*
X75177Y-38264D01*
X75177Y-38323D02*
X75177Y-38264D01*
X75275Y-38323D02*
X75177Y-38323D01*
G54D16*
X75295Y-37890D02*
X75295Y-39110D01*
X75295Y-39110D02*
X74705Y-39110D01*
X74705Y-39110D02*
X74705Y-37890D01*
X74705Y-37890D02*
X75295Y-37890D01*
X75196Y-38715D02*
G75*
G03X75195Y-38283I-196J215D01*
G74*
G01*
X74803Y-38715D02*
G75*
G03X75195Y-38716I196J215D01*
G74*
G01*
X74803Y-38284D02*
G75*
G03X74804Y-38716I196J-215D01*
G74*
G01*
X75196Y-38284D02*
G75*
G03X74804Y-38283I-196J-215D01*
G74*
G01*
G54D15*
X77039Y-38539D02*
X77039Y-38461D01*
X77039Y-38461D02*
X76961Y-38461D01*
X76961Y-38539D02*
X76961Y-38461D01*
X77039Y-38539D02*
X76961Y-38539D01*
X77275Y-38323D02*
X77275Y-38186D01*
X77275Y-38186D02*
X77177Y-38186D01*
X77177Y-38323D02*
X77177Y-38186D01*
X77275Y-38323D02*
X77177Y-38323D01*
X77275Y-38186D02*
X77275Y-38146D01*
X77275Y-38146D02*
X76804Y-38146D01*
X76804Y-38186D02*
X76804Y-38146D01*
X77275Y-38186D02*
X76804Y-38186D01*
X76784Y-38186D02*
X76784Y-38146D01*
X76784Y-38146D02*
X76725Y-38146D01*
X76725Y-38186D02*
X76725Y-38146D01*
X76784Y-38186D02*
X76725Y-38186D01*
X77275Y-38854D02*
X77275Y-38814D01*
X77275Y-38814D02*
X76804Y-38814D01*
X76804Y-38854D02*
X76804Y-38814D01*
X77275Y-38854D02*
X76804Y-38854D01*
X76784Y-38854D02*
X76784Y-38814D01*
X76784Y-38814D02*
X76725Y-38814D01*
X76725Y-38854D02*
X76725Y-38814D01*
X76784Y-38854D02*
X76725Y-38854D01*
X77275Y-38323D02*
X77275Y-38264D01*
X77275Y-38264D02*
X77177Y-38264D01*
X77177Y-38323D02*
X77177Y-38264D01*
X77275Y-38323D02*
X77177Y-38323D01*
G54D16*
X77295Y-37890D02*
X77295Y-39110D01*
X77295Y-39110D02*
X76705Y-39110D01*
X76705Y-39110D02*
X76705Y-37890D01*
X76705Y-37890D02*
X77295Y-37890D01*
X77196Y-38715D02*
G75*
G03X77195Y-38283I-196J215D01*
G74*
G01*
X76803Y-38715D02*
G75*
G03X77195Y-38716I196J215D01*
G74*
G01*
X76803Y-38284D02*
G75*
G03X76804Y-38716I196J-215D01*
G74*
G01*
X77196Y-38284D02*
G75*
G03X76804Y-38283I-196J-215D01*
G74*
G01*
G54D15*
X60339Y-37339D02*
X60339Y-37261D01*
X60339Y-37261D02*
X60261Y-37261D01*
X60261Y-37339D02*
X60261Y-37261D01*
X60339Y-37339D02*
X60261Y-37339D01*
X60575Y-37123D02*
X60575Y-36986D01*
X60575Y-36986D02*
X60477Y-36986D01*
X60477Y-37123D02*
X60477Y-36986D01*
X60575Y-37123D02*
X60477Y-37123D01*
X60575Y-36986D02*
X60575Y-36946D01*
X60575Y-36946D02*
X60104Y-36946D01*
X60104Y-36986D02*
X60104Y-36946D01*
X60575Y-36986D02*
X60104Y-36986D01*
X60084Y-36986D02*
X60084Y-36946D01*
X60084Y-36946D02*
X60025Y-36946D01*
X60025Y-36986D02*
X60025Y-36946D01*
X60084Y-36986D02*
X60025Y-36986D01*
X60575Y-37654D02*
X60575Y-37614D01*
X60575Y-37614D02*
X60104Y-37614D01*
X60104Y-37654D02*
X60104Y-37614D01*
X60575Y-37654D02*
X60104Y-37654D01*
X60084Y-37654D02*
X60084Y-37614D01*
X60084Y-37614D02*
X60025Y-37614D01*
X60025Y-37654D02*
X60025Y-37614D01*
X60084Y-37654D02*
X60025Y-37654D01*
X60575Y-37123D02*
X60575Y-37064D01*
X60575Y-37064D02*
X60477Y-37064D01*
X60477Y-37123D02*
X60477Y-37064D01*
X60575Y-37123D02*
X60477Y-37123D01*
G54D16*
X60595Y-36690D02*
X60595Y-37910D01*
X60595Y-37910D02*
X60005Y-37910D01*
X60005Y-37910D02*
X60005Y-36690D01*
X60005Y-36690D02*
X60595Y-36690D01*
X60496Y-37515D02*
G75*
G03X60495Y-37083I-196J215D01*
G74*
G01*
X60103Y-37515D02*
G75*
G03X60495Y-37516I196J215D01*
G74*
G01*
X60103Y-37084D02*
G75*
G03X60104Y-37516I196J-215D01*
G74*
G01*
X60496Y-37084D02*
G75*
G03X60104Y-37083I-196J-215D01*
G74*
G01*
G54D17*
X66500Y-36700D02*
X63500Y-36700D01*
X63500Y-34700D02*
X66500Y-34700D01*
X66500Y-34700D02*
X66500Y-36700D01*
X63500Y-36700D02*
X63500Y-34700D01*
G54D18*
X55300Y-44500D02*
X54300Y-44500D01*
X54300Y-44500D02*
X54300Y-42500D01*
X54300Y-42500D02*
X55300Y-42500D01*
X55300Y-42500D02*
X55300Y-44500D01*
X56300Y-44500D02*
X55300Y-44500D01*
X55300Y-44500D02*
X55300Y-42500D01*
X55300Y-42500D02*
X56300Y-42500D01*
X56300Y-42500D02*
X56300Y-44500D01*
X57300Y-44500D02*
X56300Y-44500D01*
X56300Y-44500D02*
X56300Y-42500D01*
X56300Y-42500D02*
X57300Y-42500D01*
X57300Y-42500D02*
X57300Y-44500D01*
X58300Y-44500D02*
X57300Y-44500D01*
X57300Y-44500D02*
X57300Y-42500D01*
X57300Y-42500D02*
X58300Y-42500D01*
X58300Y-42500D02*
X58300Y-44500D01*
G54D19*
X64893Y-43356D02*
X64893Y-43041D01*
X65798Y-43041D02*
X64302Y-43041D01*
X64893Y-44144D02*
X64893Y-44459D01*
X65798Y-44459D02*
X64302Y-44459D01*
X64948Y-43356D02*
G75*
G03X64948Y-43356I-55J0D01*
G74*
G01*
X64949Y-44144D02*
G75*
G03X64949Y-44144I-56J0D01*
G74*
G01*
X65050Y-43750D02*
X65444Y-43750D01*
X65050Y-44183D02*
X65050Y-43317D01*
X66074Y-44774D02*
X64026Y-44774D01*
X64026Y-44774D02*
X64026Y-42726D01*
X64026Y-42726D02*
X66074Y-42726D01*
X66074Y-42726D02*
X66074Y-44774D01*
G54D18*
X58900Y-43200D02*
X58900Y-42200D01*
X58900Y-42200D02*
X60900Y-42200D01*
X60900Y-42200D02*
X60900Y-43200D01*
X60900Y-43200D02*
X58900Y-43200D01*
G54D20*
X71300Y-44700D02*
X73700Y-44700D01*
X73700Y-44700D02*
X74100Y-44900D01*
X74100Y-44900D02*
X75100Y-44900D01*
X75100Y-44900D02*
X75500Y-44700D01*
X71300Y-44500D02*
X73700Y-44500D01*
X73700Y-44500D02*
X74100Y-44700D01*
X74100Y-44700D02*
X75100Y-44700D01*
X75100Y-44700D02*
X75500Y-44500D01*
X75100Y-44500D02*
X75500Y-44300D01*
X74100Y-44500D02*
X75100Y-44500D01*
X73700Y-44300D02*
X74100Y-44500D01*
X71300Y-44300D02*
X73700Y-44300D01*
X71300Y-44300D02*
X73700Y-44300D01*
X73700Y-44300D02*
X74100Y-44500D01*
X74100Y-44500D02*
X75100Y-44500D01*
X75100Y-44500D02*
X75500Y-44300D01*
X75100Y-44500D02*
X75500Y-44300D01*
X74100Y-44500D02*
X75100Y-44500D01*
X73700Y-44300D02*
X74100Y-44500D01*
X71300Y-44300D02*
X73700Y-44300D01*
X71300Y-44300D02*
X73700Y-44300D01*
X73700Y-44300D02*
X74100Y-44500D01*
X74100Y-44500D02*
X75100Y-44500D01*
X75100Y-44500D02*
X75500Y-44300D01*
X75100Y-44500D02*
X75500Y-44300D01*
X74100Y-44500D02*
X75100Y-44500D01*
X73700Y-44300D02*
X74100Y-44500D01*
X71300Y-44300D02*
X73700Y-44300D01*
X71300Y-44300D02*
X73700Y-44300D01*
X73700Y-44300D02*
X74100Y-44500D01*
X74100Y-44500D02*
X75100Y-44500D01*
X75100Y-44500D02*
X75500Y-44300D01*
X75100Y-44500D02*
X75500Y-44300D01*
X74100Y-44500D02*
X75100Y-44500D01*
X73700Y-44300D02*
X74100Y-44500D01*
X71300Y-44300D02*
X73700Y-44300D01*
X71300Y-44300D02*
X73700Y-44300D01*
X73700Y-44300D02*
X74100Y-44500D01*
X74100Y-44500D02*
X75100Y-44500D01*
X75100Y-44500D02*
X75500Y-44300D01*
X75375Y-44000D02*
X75475Y-43925D01*
X75150Y-43900D02*
X75250Y-44000D01*
X74325Y-44000D02*
X74375Y-44000D01*
X74100Y-44000D02*
X74350Y-44000D01*
X74100Y-43400D02*
X74375Y-43400D01*
X74250Y-43975D02*
X74250Y-43450D01*
X75125Y-43800D02*
X75150Y-43900D01*
X75250Y-44000D02*
X75375Y-44000D01*
X75525Y-43775D02*
X75500Y-43900D01*
X75125Y-43575D02*
X75150Y-43475D01*
X75150Y-43475D02*
X75225Y-43400D01*
X75225Y-43400D02*
X75275Y-43375D01*
X75275Y-43375D02*
X75375Y-43375D01*
X75375Y-43375D02*
X75425Y-43400D01*
X75425Y-43400D02*
X75475Y-43425D01*
X75475Y-43425D02*
X75500Y-43475D01*
X75500Y-43475D02*
X75525Y-43550D01*
X75525Y-43550D02*
X75525Y-43600D01*
X75525Y-43600D02*
X75525Y-43775D01*
X75125Y-43600D02*
X75125Y-43800D01*
X74525Y-44000D02*
X74525Y-43375D01*
X74525Y-43400D02*
X74875Y-44000D01*
X74875Y-44000D02*
X74875Y-43375D01*
X73625Y-43400D02*
X73625Y-43875D01*
X73625Y-43875D02*
X73650Y-43925D01*
X73650Y-43925D02*
X73675Y-43950D01*
X73675Y-43950D02*
X73700Y-43975D01*
X73700Y-43975D02*
X73750Y-44000D01*
X73750Y-44000D02*
X73800Y-44000D01*
X73800Y-44000D02*
X73850Y-44000D01*
X73850Y-44000D02*
X73900Y-43975D01*
X73900Y-43975D02*
X73925Y-43950D01*
X73925Y-43950D02*
X73950Y-43925D01*
X73950Y-43925D02*
X73950Y-43875D01*
X73950Y-43875D02*
X73950Y-43400D01*
X73025Y-43400D02*
X73150Y-43400D01*
X73150Y-43400D02*
X73250Y-43425D01*
X73250Y-43425D02*
X73300Y-43475D01*
X73300Y-43475D02*
X73325Y-43550D01*
X73325Y-43550D02*
X73350Y-43650D01*
X73350Y-43650D02*
X73350Y-43725D01*
X73350Y-43725D02*
X73350Y-43775D01*
X73350Y-43775D02*
X73325Y-43850D01*
X73325Y-43850D02*
X73300Y-43900D01*
X73300Y-43900D02*
X73250Y-43950D01*
X73250Y-43950D02*
X73175Y-44000D01*
X73175Y-44000D02*
X73125Y-44000D01*
X73125Y-44000D02*
X73000Y-44000D01*
X73000Y-44000D02*
X73000Y-43400D01*
X72525Y-43400D02*
X72525Y-44000D01*
X72525Y-44000D02*
X72800Y-44000D01*
X71925Y-43400D02*
X71950Y-43400D01*
X71950Y-43400D02*
X72175Y-43400D01*
X72175Y-43400D02*
X72225Y-43425D01*
X72225Y-43425D02*
X72250Y-43450D01*
X72250Y-43450D02*
X72275Y-43500D01*
X72275Y-43500D02*
X72275Y-43550D01*
X72275Y-43550D02*
X72275Y-43600D01*
X72275Y-43600D02*
X72250Y-43650D01*
X72250Y-43650D02*
X72200Y-43675D01*
X72200Y-43675D02*
X72150Y-43700D01*
X72150Y-43700D02*
X71925Y-43700D01*
X71925Y-43975D02*
X71925Y-43400D01*
X71400Y-43600D02*
X71700Y-44000D01*
X71375Y-44000D02*
X71675Y-43600D01*
G54D10*
X63729Y-35929D02*
X63729Y-36470D01*
X64270Y-36470D01*
X64270Y-35929D01*
X63729Y-35929D01*
X64270Y-35200D02*
G75*
G03X64270Y-35200I-270J0D01*
G74*
G01*
X65270Y-36200D02*
G75*
G03X65270Y-36200I-270J0D01*
G74*
G01*
X65270Y-35200D02*
G75*
G03X65270Y-35200I-270J0D01*
G74*
G01*
X66270Y-36200D02*
G75*
G03X66270Y-36200I-270J0D01*
G74*
G01*
X66270Y-35200D02*
G75*
G03X66270Y-35200I-270J0D01*
G74*
G01*
X54529Y-43729D02*
X54529Y-44270D01*
X55070Y-44270D01*
X55070Y-43729D01*
X54529Y-43729D01*
X55070Y-43000D02*
G75*
G03X55070Y-43000I-270J0D01*
G74*
G01*
X55529Y-43729D02*
X55529Y-44270D01*
X56070Y-44270D01*
X56070Y-43729D01*
X55529Y-43729D01*
X56070Y-43000D02*
G75*
G03X56070Y-43000I-270J0D01*
G74*
G01*
X56529Y-43729D02*
X56529Y-44270D01*
X57070Y-44270D01*
X57070Y-43729D01*
X56529Y-43729D01*
X57070Y-43000D02*
G75*
G03X57070Y-43000I-270J0D01*
G74*
G01*
X57529Y-43729D02*
X57529Y-44270D01*
X58070Y-44270D01*
X58070Y-43729D01*
X57529Y-43729D01*
X58070Y-43000D02*
G75*
G03X58070Y-43000I-270J0D01*
G74*
G01*
X59129Y-42429D02*
X59129Y-42970D01*
X59670Y-42970D01*
X59670Y-42429D01*
X59129Y-42429D01*
X60670Y-42700D02*
G75*
G03X60670Y-42700I-270J0D01*
G74*
G01*
G54D21*
X60078Y-33771D02*
X60078Y-33471D01*
X60150Y-33471D01*
X60192Y-33485D01*
X60221Y-33514D01*
X60235Y-33542D01*
X60250Y-33600D01*
X60250Y-33642D01*
X60235Y-33700D01*
X60221Y-33728D01*
X60192Y-33757D01*
X60150Y-33771D01*
X60078Y-33771D01*
X60535Y-33771D02*
X60364Y-33771D01*
X60450Y-33771D02*
X60450Y-33471D01*
X60421Y-33514D01*
X60392Y-33542D01*
X60364Y-33557D01*
X76521Y-35721D02*
X76221Y-35721D01*
X76221Y-35650D01*
X76235Y-35607D01*
X76264Y-35578D01*
X76292Y-35564D01*
X76350Y-35550D01*
X76392Y-35550D01*
X76450Y-35564D01*
X76478Y-35578D01*
X76507Y-35607D01*
X76521Y-35650D01*
X76521Y-35721D01*
X76250Y-35435D02*
X76235Y-35421D01*
X76221Y-35392D01*
X76221Y-35321D01*
X76235Y-35292D01*
X76250Y-35278D01*
X76278Y-35264D01*
X76307Y-35264D01*
X76350Y-35278D01*
X76521Y-35450D01*
X76521Y-35264D01*
X74521Y-35721D02*
X74221Y-35721D01*
X74221Y-35650D01*
X74235Y-35607D01*
X74264Y-35578D01*
X74292Y-35564D01*
X74350Y-35550D01*
X74392Y-35550D01*
X74450Y-35564D01*
X74478Y-35578D01*
X74507Y-35607D01*
X74521Y-35650D01*
X74521Y-35721D01*
X74221Y-35450D02*
X74221Y-35264D01*
X74335Y-35364D01*
X74335Y-35321D01*
X74350Y-35292D01*
X74364Y-35278D01*
X74392Y-35264D01*
X74464Y-35264D01*
X74492Y-35278D01*
X74507Y-35292D01*
X74521Y-35321D01*
X74521Y-35407D01*
X74507Y-35435D01*
X74492Y-35450D01*
X72521Y-35721D02*
X72221Y-35721D01*
X72221Y-35650D01*
X72235Y-35607D01*
X72264Y-35578D01*
X72292Y-35564D01*
X72350Y-35550D01*
X72392Y-35550D01*
X72450Y-35564D01*
X72478Y-35578D01*
X72507Y-35607D01*
X72521Y-35650D01*
X72521Y-35721D01*
X72321Y-35292D02*
X72521Y-35292D01*
X72207Y-35364D02*
X72421Y-35435D01*
X72421Y-35250D01*
X70521Y-35721D02*
X70221Y-35721D01*
X70221Y-35650D01*
X70235Y-35607D01*
X70264Y-35578D01*
X70292Y-35564D01*
X70350Y-35550D01*
X70392Y-35550D01*
X70450Y-35564D01*
X70478Y-35578D01*
X70507Y-35607D01*
X70521Y-35650D01*
X70521Y-35721D01*
X70221Y-35278D02*
X70221Y-35421D01*
X70364Y-35435D01*
X70350Y-35421D01*
X70335Y-35392D01*
X70335Y-35321D01*
X70350Y-35292D01*
X70364Y-35278D01*
X70392Y-35264D01*
X70464Y-35264D01*
X70492Y-35278D01*
X70507Y-35292D01*
X70521Y-35321D01*
X70521Y-35392D01*
X70507Y-35421D01*
X70492Y-35435D01*
X70521Y-38621D02*
X70221Y-38621D01*
X70221Y-38550D01*
X70235Y-38507D01*
X70264Y-38478D01*
X70292Y-38464D01*
X70350Y-38450D01*
X70392Y-38450D01*
X70450Y-38464D01*
X70478Y-38478D01*
X70507Y-38507D01*
X70521Y-38550D01*
X70521Y-38621D01*
X70221Y-38192D02*
X70221Y-38250D01*
X70235Y-38278D01*
X70250Y-38292D01*
X70292Y-38321D01*
X70350Y-38335D01*
X70464Y-38335D01*
X70492Y-38321D01*
X70507Y-38307D01*
X70521Y-38278D01*
X70521Y-38221D01*
X70507Y-38192D01*
X70492Y-38178D01*
X70464Y-38164D01*
X70392Y-38164D01*
X70364Y-38178D01*
X70350Y-38192D01*
X70335Y-38221D01*
X70335Y-38278D01*
X70350Y-38307D01*
X70364Y-38321D01*
X70392Y-38335D01*
X72521Y-38621D02*
X72221Y-38621D01*
X72221Y-38550D01*
X72235Y-38507D01*
X72264Y-38478D01*
X72292Y-38464D01*
X72350Y-38450D01*
X72392Y-38450D01*
X72450Y-38464D01*
X72478Y-38478D01*
X72507Y-38507D01*
X72521Y-38550D01*
X72521Y-38621D01*
X72221Y-38350D02*
X72221Y-38150D01*
X72521Y-38278D01*
X74521Y-38621D02*
X74221Y-38621D01*
X74221Y-38550D01*
X74235Y-38507D01*
X74264Y-38478D01*
X74292Y-38464D01*
X74350Y-38450D01*
X74392Y-38450D01*
X74450Y-38464D01*
X74478Y-38478D01*
X74507Y-38507D01*
X74521Y-38550D01*
X74521Y-38621D01*
X74350Y-38278D02*
X74335Y-38307D01*
X74321Y-38321D01*
X74292Y-38335D01*
X74278Y-38335D01*
X74250Y-38321D01*
X74235Y-38307D01*
X74221Y-38278D01*
X74221Y-38221D01*
X74235Y-38192D01*
X74250Y-38178D01*
X74278Y-38164D01*
X74292Y-38164D01*
X74321Y-38178D01*
X74335Y-38192D01*
X74350Y-38221D01*
X74350Y-38278D01*
X74364Y-38307D01*
X74378Y-38321D01*
X74407Y-38335D01*
X74464Y-38335D01*
X74492Y-38321D01*
X74507Y-38307D01*
X74521Y-38278D01*
X74521Y-38221D01*
X74507Y-38192D01*
X74492Y-38178D01*
X74464Y-38164D01*
X74407Y-38164D01*
X74378Y-38178D01*
X74364Y-38192D01*
X74350Y-38221D01*
X76521Y-38621D02*
X76221Y-38621D01*
X76221Y-38550D01*
X76235Y-38507D01*
X76264Y-38478D01*
X76292Y-38464D01*
X76350Y-38450D01*
X76392Y-38450D01*
X76450Y-38464D01*
X76478Y-38478D01*
X76507Y-38507D01*
X76521Y-38550D01*
X76521Y-38621D01*
X76521Y-38307D02*
X76521Y-38250D01*
X76507Y-38221D01*
X76492Y-38207D01*
X76450Y-38178D01*
X76392Y-38164D01*
X76278Y-38164D01*
X76250Y-38178D01*
X76235Y-38192D01*
X76221Y-38221D01*
X76221Y-38278D01*
X76235Y-38307D01*
X76250Y-38321D01*
X76278Y-38335D01*
X76350Y-38335D01*
X76378Y-38321D01*
X76392Y-38307D01*
X76407Y-38278D01*
X76407Y-38221D01*
X76392Y-38192D01*
X76378Y-38178D01*
X76350Y-38164D01*
X59821Y-37664D02*
X59521Y-37664D01*
X59521Y-37592D01*
X59535Y-37550D01*
X59564Y-37521D01*
X59592Y-37507D01*
X59650Y-37492D01*
X59692Y-37492D01*
X59750Y-37507D01*
X59778Y-37521D01*
X59807Y-37550D01*
X59821Y-37592D01*
X59821Y-37664D01*
X59821Y-37207D02*
X59821Y-37378D01*
X59821Y-37292D02*
X59521Y-37292D01*
X59564Y-37321D01*
X59592Y-37350D01*
X59607Y-37378D01*
X59521Y-37021D02*
X59521Y-36992D01*
X59535Y-36964D01*
X59550Y-36950D01*
X59578Y-36935D01*
X59635Y-36921D01*
X59707Y-36921D01*
X59764Y-36935D01*
X59792Y-36950D01*
X59807Y-36964D01*
X59821Y-36992D01*
X59821Y-37021D01*
X59807Y-37050D01*
X59792Y-37064D01*
X59764Y-37078D01*
X59707Y-37092D01*
X59635Y-37092D01*
X59578Y-37078D01*
X59550Y-37064D01*
X59535Y-37050D01*
X59521Y-37021D01*
G54D17*
X64419Y-34361D02*
X64419Y-33961D01*
X64590Y-34342D02*
X64647Y-34361D01*
X64742Y-34361D01*
X64780Y-34342D01*
X64800Y-34323D01*
X64819Y-34285D01*
X64819Y-34247D01*
X64800Y-34209D01*
X64780Y-34190D01*
X64742Y-34171D01*
X64666Y-34152D01*
X64628Y-34133D01*
X64609Y-34114D01*
X64590Y-34076D01*
X64590Y-34038D01*
X64609Y-34000D01*
X64628Y-33980D01*
X64666Y-33961D01*
X64761Y-33961D01*
X64819Y-33980D01*
X64990Y-34361D02*
X64990Y-33961D01*
X65142Y-33961D01*
X65180Y-33980D01*
X65200Y-34000D01*
X65219Y-34038D01*
X65219Y-34095D01*
X65200Y-34133D01*
X65180Y-34152D01*
X65142Y-34171D01*
X64990Y-34171D01*
X65600Y-34361D02*
X65371Y-34361D01*
X65485Y-34361D02*
X65485Y-33961D01*
X65447Y-34019D01*
X65409Y-34057D01*
X65371Y-34076D01*
G54D18*
X54971Y-43721D02*
X54671Y-43721D01*
X54671Y-43607D01*
X54685Y-43578D01*
X54700Y-43564D01*
X54728Y-43550D01*
X54771Y-43550D01*
X54800Y-43564D01*
X54814Y-43578D01*
X54828Y-43607D01*
X54828Y-43721D01*
X54700Y-43435D02*
X54685Y-43421D01*
X54671Y-43392D01*
X54671Y-43321D01*
X54685Y-43292D01*
X54700Y-43278D01*
X54728Y-43264D01*
X54757Y-43264D01*
X54800Y-43278D01*
X54971Y-43450D01*
X54971Y-43264D01*
X55871Y-43671D02*
X55571Y-43671D01*
X55571Y-43557D01*
X55585Y-43528D01*
X55600Y-43514D01*
X55628Y-43500D01*
X55671Y-43500D01*
X55700Y-43514D01*
X55714Y-43528D01*
X55728Y-43557D01*
X55728Y-43671D01*
X55571Y-43400D02*
X55571Y-43214D01*
X55685Y-43314D01*
X55685Y-43271D01*
X55700Y-43242D01*
X55714Y-43228D01*
X55742Y-43214D01*
X55814Y-43214D01*
X55842Y-43228D01*
X55857Y-43242D01*
X55871Y-43271D01*
X55871Y-43357D01*
X55857Y-43385D01*
X55842Y-43400D01*
X56921Y-43671D02*
X56621Y-43671D01*
X56621Y-43557D01*
X56635Y-43528D01*
X56650Y-43514D01*
X56678Y-43500D01*
X56721Y-43500D01*
X56750Y-43514D01*
X56764Y-43528D01*
X56778Y-43557D01*
X56778Y-43671D01*
X56721Y-43242D02*
X56921Y-43242D01*
X56607Y-43314D02*
X56821Y-43385D01*
X56821Y-43200D01*
X57921Y-43721D02*
X57621Y-43721D01*
X57621Y-43607D01*
X57635Y-43578D01*
X57650Y-43564D01*
X57678Y-43550D01*
X57721Y-43550D01*
X57750Y-43564D01*
X57764Y-43578D01*
X57778Y-43607D01*
X57778Y-43721D01*
X57621Y-43278D02*
X57621Y-43421D01*
X57764Y-43435D01*
X57750Y-43421D01*
X57735Y-43392D01*
X57735Y-43321D01*
X57750Y-43292D01*
X57764Y-43278D01*
X57792Y-43264D01*
X57864Y-43264D01*
X57892Y-43278D01*
X57907Y-43292D01*
X57921Y-43321D01*
X57921Y-43392D01*
X57907Y-43421D01*
X57892Y-43435D01*
G54D12*
X64300Y-44014D02*
X64385Y-44042D01*
X64528Y-44042D01*
X64585Y-44014D01*
X64614Y-43985D01*
X64642Y-43928D01*
X64642Y-43871D01*
X64614Y-43814D01*
X64585Y-43785D01*
X64528Y-43757D01*
X64414Y-43728D01*
X64357Y-43700D01*
X64328Y-43671D01*
X64300Y-43614D01*
X64300Y-43557D01*
X64328Y-43500D01*
X64357Y-43471D01*
X64414Y-43442D01*
X64557Y-43442D01*
X64642Y-43471D01*
X64842Y-43442D02*
X64985Y-44042D01*
X65100Y-43614D01*
X65214Y-44042D01*
X65357Y-43442D01*
X65900Y-44042D02*
X65557Y-44042D01*
X65728Y-44042D02*
X65728Y-43442D01*
X65671Y-43528D01*
X65614Y-43585D01*
X65557Y-43614D01*
G54D18*
X59678Y-42771D02*
X59678Y-42471D01*
X59792Y-42471D01*
X59821Y-42485D01*
X59835Y-42500D01*
X59850Y-42528D01*
X59850Y-42571D01*
X59835Y-42600D01*
X59821Y-42614D01*
X59792Y-42628D01*
X59678Y-42628D01*
X60107Y-42471D02*
X60050Y-42471D01*
X60021Y-42485D01*
X60007Y-42500D01*
X59978Y-42542D01*
X59964Y-42600D01*
X59964Y-42714D01*
X59978Y-42742D01*
X59992Y-42757D01*
X60021Y-42771D01*
X60078Y-42771D01*
X60107Y-42757D01*
X60121Y-42742D01*
X60135Y-42714D01*
X60135Y-42642D01*
X60121Y-42614D01*
X60107Y-42600D01*
X60078Y-42585D01*
X60021Y-42585D01*
X59992Y-42600D01*
X59978Y-42614D01*
X59964Y-42642D01*
M02*
