M48
;DRILL file {Pcbnew (2013-jul-07)-stable} date mer. 26 nov. 2014 20:09:33 CET
;FORMAT={-:-/ absolute / inch / decimal}
FMAT,2
INCH,TZ
T1C0.025
T2C0.040
%
G90
G05
M72
T1
X4.855Y-3.515
X4.93Y-4.7
X4.945Y-3.515
X4.95Y-3.77
X5.045Y-3.515
X5.19Y-3.515
X5.625Y-4.075
X5.82Y-3.57
X5.97Y-4.15
X6.08Y-3.91
X6.13Y-4.315
X6.14Y-4.05
X6.145Y-3.965
X6.15Y-3.86
X6.16Y-3.66
X6.24Y-3.44
X6.35Y-3.44
X6.36Y-4.185
X6.37Y-3.745
X6.425Y-4.14
X6.65Y-4.07
X6.805Y-3.98
X7.04Y-3.395
X7.165Y-3.395
X7.18Y-4.03
X7.3Y-4.69
X7.38Y-4.03
X7.435Y-3.395
X7.5Y-4.69
X7.58Y-4.02
X7.635Y-3.395
X7.7Y-4.69
X7.78Y-4.02
T2
X4.8Y-3.89
X4.8Y-3.99
X4.9Y-3.89
X4.9Y-3.99
X5.Y-3.89
X5.Y-3.99
X5.1Y-3.89
X5.1Y-3.99
X5.2Y-3.89
X5.2Y-3.99
X5.3Y-3.89
X5.3Y-3.99
X5.4Y-3.89
X5.4Y-3.99
X5.48Y-4.3
X5.48Y-4.4
X5.5Y-3.89
X5.5Y-3.99
X5.58Y-4.3
X5.58Y-4.4
X5.68Y-4.3
X5.68Y-4.4
X5.78Y-4.3
X5.78Y-4.4
X5.94Y-4.27
X6.04Y-4.27
X6.4Y-3.52
X6.4Y-3.62
X6.5Y-3.52
X6.5Y-3.62
X6.6Y-3.52
X6.6Y-3.62
T0
M30
