G04 (created by PCBNEW (2013-jul-07)-stable) date mer. 26 nov. 2014 20:09:27 CET*
%MOIN*%
G04 Gerber Fmt 3.4, Leading zero omitted, Abs format*
%FSLAX34Y34*%
G01*
G70*
G90*
G04 APERTURE LIST*
%ADD10C,0.00590551*%
%ADD11C,0.015*%
%ADD12R,0.1X0.08*%
%ADD13R,0.0987X0.0377*%
%ADD14R,0.0377X0.0987*%
%ADD15R,0.08X0.08*%
%ADD16C,0.08*%
%ADD17R,0.0515X0.0594*%
G04 APERTURE END LIST*
G54D10*
G54D11*
X79700Y-47800D02*
X79700Y-31300D01*
X40300Y-47800D02*
X40300Y-31300D01*
X40300Y-31300D02*
X79700Y-31300D01*
X40300Y-47800D02*
X79700Y-47800D01*
G54D12*
X64900Y-38650D03*
X64900Y-39950D03*
X57700Y-39950D03*
X57700Y-38650D03*
X66000Y-38650D03*
X66000Y-39950D03*
G54D13*
X59604Y-38407D03*
X59604Y-38722D03*
X59604Y-39037D03*
X59604Y-39352D03*
X59604Y-39667D03*
X59604Y-39982D03*
X59604Y-40297D03*
X59604Y-40612D03*
X63370Y-40610D03*
X63370Y-38400D03*
X63370Y-38720D03*
X63370Y-39040D03*
X63370Y-39350D03*
X63370Y-39670D03*
X63370Y-39980D03*
X63370Y-40300D03*
G54D14*
X60388Y-41400D03*
X60702Y-41400D03*
X61018Y-41400D03*
X61332Y-41400D03*
X61648Y-41400D03*
X61962Y-41400D03*
X62278Y-41400D03*
X62592Y-41400D03*
X60390Y-37620D03*
X60700Y-37620D03*
X61020Y-37620D03*
X61330Y-37620D03*
X61640Y-37620D03*
X61960Y-37620D03*
X62280Y-37620D03*
X62600Y-37620D03*
G54D15*
X64000Y-36200D03*
G54D16*
X64000Y-35200D03*
X65000Y-36200D03*
X65000Y-35200D03*
X66000Y-36200D03*
X66000Y-35200D03*
G54D15*
X48000Y-38900D03*
G54D16*
X48000Y-39900D03*
X49000Y-38900D03*
X49000Y-39900D03*
X50000Y-38900D03*
X50000Y-39900D03*
X51000Y-38900D03*
X51000Y-39900D03*
X52000Y-38900D03*
X52000Y-39900D03*
X53000Y-38900D03*
X53000Y-39900D03*
X54000Y-38900D03*
X54000Y-39900D03*
X55000Y-38900D03*
X55000Y-39900D03*
G54D15*
X54800Y-44000D03*
G54D16*
X54800Y-43000D03*
G54D15*
X55800Y-44000D03*
G54D16*
X55800Y-43000D03*
G54D15*
X56800Y-44000D03*
G54D16*
X56800Y-43000D03*
G54D15*
X57800Y-44000D03*
G54D16*
X57800Y-43000D03*
G54D12*
X61400Y-34450D03*
X61400Y-35750D03*
X60700Y-45750D03*
X60700Y-44450D03*
X62700Y-45750D03*
X62700Y-44450D03*
X61700Y-45750D03*
X61700Y-44450D03*
X71000Y-44750D03*
X71000Y-46050D03*
X73000Y-44750D03*
X73000Y-46050D03*
X75000Y-44750D03*
X75000Y-46050D03*
X77000Y-44750D03*
X77000Y-46050D03*
X71000Y-40350D03*
X71000Y-41650D03*
X73000Y-40350D03*
X73000Y-41650D03*
X75000Y-40350D03*
X75000Y-41650D03*
X77000Y-40350D03*
X77000Y-41650D03*
X59100Y-35650D03*
X59100Y-34350D03*
G54D15*
X59400Y-42700D03*
G54D16*
X60400Y-42700D03*
G54D17*
X70600Y-43533D03*
X70975Y-42667D03*
X70225Y-42667D03*
X72600Y-43533D03*
X72975Y-42667D03*
X72225Y-42667D03*
X74600Y-43533D03*
X74975Y-42667D03*
X74225Y-42667D03*
X76600Y-43533D03*
X76975Y-42667D03*
X76225Y-42667D03*
M02*
