G04 (created by PCBNEW (2013-mar-13)-testing) date mer. 23 oct. 2013 21:04:54 CEST*
%MOIN*%
G04 Gerber Fmt 3.4, Leading zero omitted, Abs format*
%FSLAX34Y34*%
G01*
G70*
G90*
G04 APERTURE LIST*
%ADD10C,0.005906*%
%ADD11C,0.007874*%
%ADD12C,0.005000*%
%ADD13C,0.003100*%
%ADD14C,0.004700*%
G04 APERTURE END LIST*
G54D10*
X74000Y-29100D02*
X74000Y-45650D01*
X73400Y-29100D02*
X74000Y-29100D01*
X73400Y-45650D02*
X74000Y-45650D01*
X34000Y-29100D02*
X34000Y-45600D01*
X34000Y-29100D02*
X73400Y-29100D01*
X34000Y-45650D02*
X34000Y-45600D01*
X73400Y-45650D02*
X34000Y-45650D01*
G54D11*
X43800Y-37100D02*
X43950Y-37100D01*
X44400Y-36500D02*
X44400Y-37000D01*
X44550Y-36500D02*
X44400Y-36500D01*
X43900Y-37100D02*
X44100Y-37100D01*
X44500Y-36500D02*
X44700Y-36500D01*
X44600Y-37100D02*
X44050Y-37100D01*
X45200Y-36500D02*
X45200Y-37000D01*
X44650Y-36500D02*
X45200Y-36500D01*
G54D10*
X34000Y-45800D02*
G75*
G03X34000Y-45800I0J0D01*
G74*
G01*
X33999Y-45800D02*
X34000Y-45800D01*
X34000Y-45799D02*
X34000Y-45800D01*
G54D12*
X38250Y-39500D02*
X39150Y-39500D01*
X39150Y-39500D02*
X39150Y-40150D01*
X38250Y-40850D02*
X38250Y-41500D01*
X38250Y-41500D02*
X39150Y-41500D01*
X39150Y-41500D02*
X39150Y-40850D01*
X38250Y-40150D02*
X38250Y-39500D01*
X40850Y-39500D02*
X41750Y-39500D01*
X41750Y-39500D02*
X41750Y-40150D01*
X40850Y-40850D02*
X40850Y-41500D01*
X40850Y-41500D02*
X41750Y-41500D01*
X41750Y-41500D02*
X41750Y-40850D01*
X40850Y-40150D02*
X40850Y-39500D01*
X43450Y-39500D02*
X44350Y-39500D01*
X44350Y-39500D02*
X44350Y-40150D01*
X43450Y-40850D02*
X43450Y-41500D01*
X43450Y-41500D02*
X44350Y-41500D01*
X44350Y-41500D02*
X44350Y-40850D01*
X43450Y-40150D02*
X43450Y-39500D01*
X46050Y-39500D02*
X46950Y-39500D01*
X46950Y-39500D02*
X46950Y-40150D01*
X46050Y-40850D02*
X46050Y-41500D01*
X46050Y-41500D02*
X46950Y-41500D01*
X46950Y-41500D02*
X46950Y-40850D01*
X46050Y-40150D02*
X46050Y-39500D01*
X47350Y-39500D02*
X48250Y-39500D01*
X48250Y-39500D02*
X48250Y-40150D01*
X47350Y-40850D02*
X47350Y-41500D01*
X47350Y-41500D02*
X48250Y-41500D01*
X48250Y-41500D02*
X48250Y-40850D01*
X47350Y-40150D02*
X47350Y-39500D01*
X44750Y-39500D02*
X45650Y-39500D01*
X45650Y-39500D02*
X45650Y-40150D01*
X44750Y-40850D02*
X44750Y-41500D01*
X44750Y-41500D02*
X45650Y-41500D01*
X45650Y-41500D02*
X45650Y-40850D01*
X44750Y-40150D02*
X44750Y-39500D01*
X42150Y-39500D02*
X43050Y-39500D01*
X43050Y-39500D02*
X43050Y-40150D01*
X42150Y-40850D02*
X42150Y-41500D01*
X42150Y-41500D02*
X43050Y-41500D01*
X43050Y-41500D02*
X43050Y-40850D01*
X42150Y-40150D02*
X42150Y-39500D01*
X39550Y-39500D02*
X40450Y-39500D01*
X40450Y-39500D02*
X40450Y-40150D01*
X39550Y-40850D02*
X39550Y-41500D01*
X39550Y-41500D02*
X40450Y-41500D01*
X40450Y-41500D02*
X40450Y-40850D01*
X39550Y-40150D02*
X39550Y-39500D01*
X39150Y-45200D02*
X38250Y-45200D01*
X38250Y-45200D02*
X38250Y-44550D01*
X39150Y-43850D02*
X39150Y-43200D01*
X39150Y-43200D02*
X38250Y-43200D01*
X38250Y-43200D02*
X38250Y-43850D01*
X39150Y-44550D02*
X39150Y-45200D01*
X40450Y-45200D02*
X39550Y-45200D01*
X39550Y-45200D02*
X39550Y-44550D01*
X40450Y-43850D02*
X40450Y-43200D01*
X40450Y-43200D02*
X39550Y-43200D01*
X39550Y-43200D02*
X39550Y-43850D01*
X40450Y-44550D02*
X40450Y-45200D01*
G54D13*
X38299Y-42262D02*
G75*
G03X38299Y-42262I-62J0D01*
G74*
G01*
X39200Y-42600D02*
X39200Y-42200D01*
X38175Y-42600D02*
X38175Y-42200D01*
X39200Y-42200D02*
X38175Y-42200D01*
X38175Y-42600D02*
X39200Y-42600D01*
X39599Y-42262D02*
G75*
G03X39599Y-42262I-62J0D01*
G74*
G01*
X40500Y-42600D02*
X40500Y-42200D01*
X39475Y-42600D02*
X39475Y-42200D01*
X40500Y-42200D02*
X39475Y-42200D01*
X39475Y-42600D02*
X40500Y-42600D01*
X40899Y-42262D02*
G75*
G03X40899Y-42262I-62J0D01*
G74*
G01*
X41800Y-42600D02*
X41800Y-42200D01*
X40775Y-42600D02*
X40775Y-42200D01*
X41800Y-42200D02*
X40775Y-42200D01*
X40775Y-42600D02*
X41800Y-42600D01*
X42199Y-42262D02*
G75*
G03X42199Y-42262I-62J0D01*
G74*
G01*
X43100Y-42600D02*
X43100Y-42200D01*
X42075Y-42600D02*
X42075Y-42200D01*
X43100Y-42200D02*
X42075Y-42200D01*
X42075Y-42600D02*
X43100Y-42600D01*
X43499Y-42262D02*
G75*
G03X43499Y-42262I-62J0D01*
G74*
G01*
X44400Y-42600D02*
X44400Y-42200D01*
X43375Y-42600D02*
X43375Y-42200D01*
X44400Y-42200D02*
X43375Y-42200D01*
X43375Y-42600D02*
X44400Y-42600D01*
X44799Y-42262D02*
G75*
G03X44799Y-42262I-62J0D01*
G74*
G01*
X45700Y-42600D02*
X45700Y-42200D01*
X44675Y-42600D02*
X44675Y-42200D01*
X45700Y-42200D02*
X44675Y-42200D01*
X44675Y-42600D02*
X45700Y-42600D01*
X46099Y-42262D02*
G75*
G03X46099Y-42262I-62J0D01*
G74*
G01*
X47000Y-42600D02*
X47000Y-42200D01*
X45975Y-42600D02*
X45975Y-42200D01*
X47000Y-42200D02*
X45975Y-42200D01*
X45975Y-42600D02*
X47000Y-42600D01*
X47399Y-42262D02*
G75*
G03X47399Y-42262I-62J0D01*
G74*
G01*
X48300Y-42600D02*
X48300Y-42200D01*
X47275Y-42600D02*
X47275Y-42200D01*
X48300Y-42200D02*
X47275Y-42200D01*
X47275Y-42600D02*
X48300Y-42600D01*
X36325Y-33838D02*
G75*
G03X36325Y-33838I-62J0D01*
G74*
G01*
X35300Y-33500D02*
X35300Y-33900D01*
X36325Y-33500D02*
X36325Y-33900D01*
X35300Y-33900D02*
X36325Y-33900D01*
X36325Y-33500D02*
X35300Y-33500D01*
X38325Y-33838D02*
G75*
G03X38325Y-33838I-62J0D01*
G74*
G01*
X37300Y-33500D02*
X37300Y-33900D01*
X38325Y-33500D02*
X38325Y-33900D01*
X37300Y-33900D02*
X38325Y-33900D01*
X38325Y-33500D02*
X37300Y-33500D01*
X40325Y-33838D02*
G75*
G03X40325Y-33838I-62J0D01*
G74*
G01*
X39300Y-33500D02*
X39300Y-33900D01*
X40325Y-33500D02*
X40325Y-33900D01*
X39300Y-33900D02*
X40325Y-33900D01*
X40325Y-33500D02*
X39300Y-33500D01*
X42325Y-33838D02*
G75*
G03X42325Y-33838I-62J0D01*
G74*
G01*
X41300Y-33500D02*
X41300Y-33900D01*
X42325Y-33500D02*
X42325Y-33900D01*
X41300Y-33900D02*
X42325Y-33900D01*
X42325Y-33500D02*
X41300Y-33500D01*
X44325Y-33838D02*
G75*
G03X44325Y-33838I-62J0D01*
G74*
G01*
X43300Y-33500D02*
X43300Y-33900D01*
X44325Y-33500D02*
X44325Y-33900D01*
X43300Y-33900D02*
X44325Y-33900D01*
X44325Y-33500D02*
X43300Y-33500D01*
X46325Y-33838D02*
G75*
G03X46325Y-33838I-62J0D01*
G74*
G01*
X45300Y-33500D02*
X45300Y-33900D01*
X46325Y-33500D02*
X46325Y-33900D01*
X45300Y-33900D02*
X46325Y-33900D01*
X46325Y-33500D02*
X45300Y-33500D01*
X48325Y-33838D02*
G75*
G03X48325Y-33838I-62J0D01*
G74*
G01*
X47300Y-33500D02*
X47300Y-33900D01*
X48325Y-33500D02*
X48325Y-33900D01*
X47300Y-33900D02*
X48325Y-33900D01*
X48325Y-33500D02*
X47300Y-33500D01*
X50325Y-33838D02*
G75*
G03X50325Y-33838I-62J0D01*
G74*
G01*
X49300Y-33500D02*
X49300Y-33900D01*
X50325Y-33500D02*
X50325Y-33900D01*
X49300Y-33900D02*
X50325Y-33900D01*
X50325Y-33500D02*
X49300Y-33500D01*
G54D12*
X41750Y-45200D02*
X40850Y-45200D01*
X40850Y-45200D02*
X40850Y-44550D01*
X41750Y-43850D02*
X41750Y-43200D01*
X41750Y-43200D02*
X40850Y-43200D01*
X40850Y-43200D02*
X40850Y-43850D01*
X41750Y-44550D02*
X41750Y-45200D01*
X43050Y-45200D02*
X42150Y-45200D01*
X42150Y-45200D02*
X42150Y-44550D01*
X43050Y-43850D02*
X43050Y-43200D01*
X43050Y-43200D02*
X42150Y-43200D01*
X42150Y-43200D02*
X42150Y-43850D01*
X43050Y-44550D02*
X43050Y-45200D01*
X44350Y-45200D02*
X43450Y-45200D01*
X43450Y-45200D02*
X43450Y-44550D01*
X44350Y-43850D02*
X44350Y-43200D01*
X44350Y-43200D02*
X43450Y-43200D01*
X43450Y-43200D02*
X43450Y-43850D01*
X44350Y-44550D02*
X44350Y-45200D01*
X45650Y-45200D02*
X44750Y-45200D01*
X44750Y-45200D02*
X44750Y-44550D01*
X45650Y-43850D02*
X45650Y-43200D01*
X45650Y-43200D02*
X44750Y-43200D01*
X44750Y-43200D02*
X44750Y-43850D01*
X45650Y-44550D02*
X45650Y-45200D01*
X46950Y-45200D02*
X46050Y-45200D01*
X46050Y-45200D02*
X46050Y-44550D01*
X46950Y-43850D02*
X46950Y-43200D01*
X46950Y-43200D02*
X46050Y-43200D01*
X46050Y-43200D02*
X46050Y-43850D01*
X46950Y-44550D02*
X46950Y-45200D01*
X48250Y-45200D02*
X47350Y-45200D01*
X47350Y-45200D02*
X47350Y-44550D01*
X48250Y-43850D02*
X48250Y-43200D01*
X48250Y-43200D02*
X47350Y-43200D01*
X47350Y-43200D02*
X47350Y-43850D01*
X48250Y-44550D02*
X48250Y-45200D01*
X35750Y-36500D02*
X34850Y-36500D01*
X34850Y-36500D02*
X34850Y-35850D01*
X35750Y-35150D02*
X35750Y-34500D01*
X35750Y-34500D02*
X34850Y-34500D01*
X34850Y-34500D02*
X34850Y-35150D01*
X35750Y-35850D02*
X35750Y-36500D01*
X37750Y-36500D02*
X36850Y-36500D01*
X36850Y-36500D02*
X36850Y-35850D01*
X37750Y-35150D02*
X37750Y-34500D01*
X37750Y-34500D02*
X36850Y-34500D01*
X36850Y-34500D02*
X36850Y-35150D01*
X37750Y-35850D02*
X37750Y-36500D01*
X39750Y-36500D02*
X38850Y-36500D01*
X38850Y-36500D02*
X38850Y-35850D01*
X39750Y-35150D02*
X39750Y-34500D01*
X39750Y-34500D02*
X38850Y-34500D01*
X38850Y-34500D02*
X38850Y-35150D01*
X39750Y-35850D02*
X39750Y-36500D01*
X41750Y-36500D02*
X40850Y-36500D01*
X40850Y-36500D02*
X40850Y-35850D01*
X41750Y-35150D02*
X41750Y-34500D01*
X41750Y-34500D02*
X40850Y-34500D01*
X40850Y-34500D02*
X40850Y-35150D01*
X41750Y-35850D02*
X41750Y-36500D01*
X43750Y-36500D02*
X42850Y-36500D01*
X42850Y-36500D02*
X42850Y-35850D01*
X43750Y-35150D02*
X43750Y-34500D01*
X43750Y-34500D02*
X42850Y-34500D01*
X42850Y-34500D02*
X42850Y-35150D01*
X43750Y-35850D02*
X43750Y-36500D01*
X45750Y-36500D02*
X44850Y-36500D01*
X44850Y-36500D02*
X44850Y-35850D01*
X45750Y-35150D02*
X45750Y-34500D01*
X45750Y-34500D02*
X44850Y-34500D01*
X44850Y-34500D02*
X44850Y-35150D01*
X45750Y-35850D02*
X45750Y-36500D01*
X47750Y-36500D02*
X46850Y-36500D01*
X46850Y-36500D02*
X46850Y-35850D01*
X47750Y-35150D02*
X47750Y-34500D01*
X47750Y-34500D02*
X46850Y-34500D01*
X46850Y-34500D02*
X46850Y-35150D01*
X47750Y-35850D02*
X47750Y-36500D01*
X49750Y-36500D02*
X48850Y-36500D01*
X48850Y-36500D02*
X48850Y-35850D01*
X49750Y-35150D02*
X49750Y-34500D01*
X49750Y-34500D02*
X48850Y-34500D01*
X48850Y-34500D02*
X48850Y-35150D01*
X49750Y-35850D02*
X49750Y-36500D01*
X36150Y-30800D02*
X37050Y-30800D01*
X37050Y-30800D02*
X37050Y-31450D01*
X36150Y-32150D02*
X36150Y-32800D01*
X36150Y-32800D02*
X37050Y-32800D01*
X37050Y-32800D02*
X37050Y-32150D01*
X36150Y-31450D02*
X36150Y-30800D01*
X38150Y-30800D02*
X39050Y-30800D01*
X39050Y-30800D02*
X39050Y-31450D01*
X38150Y-32150D02*
X38150Y-32800D01*
X38150Y-32800D02*
X39050Y-32800D01*
X39050Y-32800D02*
X39050Y-32150D01*
X38150Y-31450D02*
X38150Y-30800D01*
X40150Y-30800D02*
X41050Y-30800D01*
X41050Y-30800D02*
X41050Y-31450D01*
X40150Y-32150D02*
X40150Y-32800D01*
X40150Y-32800D02*
X41050Y-32800D01*
X41050Y-32800D02*
X41050Y-32150D01*
X40150Y-31450D02*
X40150Y-30800D01*
X42150Y-30800D02*
X43050Y-30800D01*
X43050Y-30800D02*
X43050Y-31450D01*
X42150Y-32150D02*
X42150Y-32800D01*
X42150Y-32800D02*
X43050Y-32800D01*
X43050Y-32800D02*
X43050Y-32150D01*
X42150Y-31450D02*
X42150Y-30800D01*
X44150Y-30800D02*
X45050Y-30800D01*
X45050Y-30800D02*
X45050Y-31450D01*
X44150Y-32150D02*
X44150Y-32800D01*
X44150Y-32800D02*
X45050Y-32800D01*
X45050Y-32800D02*
X45050Y-32150D01*
X44150Y-31450D02*
X44150Y-30800D01*
X46150Y-30800D02*
X47050Y-30800D01*
X47050Y-30800D02*
X47050Y-31450D01*
X46150Y-32150D02*
X46150Y-32800D01*
X46150Y-32800D02*
X47050Y-32800D01*
X47050Y-32800D02*
X47050Y-32150D01*
X46150Y-31450D02*
X46150Y-30800D01*
X48150Y-30800D02*
X49050Y-30800D01*
X49050Y-30800D02*
X49050Y-31450D01*
X48150Y-32150D02*
X48150Y-32800D01*
X48150Y-32800D02*
X49050Y-32800D01*
X49050Y-32800D02*
X49050Y-32150D01*
X48150Y-31450D02*
X48150Y-30800D01*
X50150Y-30800D02*
X51050Y-30800D01*
X51050Y-30800D02*
X51050Y-31450D01*
X50150Y-32150D02*
X50150Y-32800D01*
X50150Y-32800D02*
X51050Y-32800D01*
X51050Y-32800D02*
X51050Y-32150D01*
X50150Y-31450D02*
X50150Y-30800D01*
X55250Y-34750D02*
X55250Y-35650D01*
X55250Y-35650D02*
X54600Y-35650D01*
X53900Y-34750D02*
X53250Y-34750D01*
X53250Y-34750D02*
X53250Y-35650D01*
X53250Y-35650D02*
X53900Y-35650D01*
X54600Y-34750D02*
X55250Y-34750D01*
X53250Y-37450D02*
X53250Y-36550D01*
X53250Y-36550D02*
X53900Y-36550D01*
X54600Y-37450D02*
X55250Y-37450D01*
X55250Y-37450D02*
X55250Y-36550D01*
X55250Y-36550D02*
X54600Y-36550D01*
X53900Y-37450D02*
X53250Y-37450D01*
G54D13*
X50050Y-42987D02*
G75*
G03X50050Y-42987I-62J0D01*
G74*
G01*
X49650Y-43950D02*
X50050Y-43950D01*
X49650Y-42925D02*
X50050Y-42925D01*
X50050Y-43950D02*
X50050Y-42925D01*
X49650Y-42925D02*
X49650Y-43950D01*
G54D12*
X48600Y-42050D02*
X48600Y-41150D01*
X48600Y-41150D02*
X49250Y-41150D01*
X49950Y-42050D02*
X50600Y-42050D01*
X50600Y-42050D02*
X50600Y-41150D01*
X50600Y-41150D02*
X49950Y-41150D01*
X49250Y-42050D02*
X48600Y-42050D01*
X38810Y-38975D02*
X38667Y-38875D01*
X38810Y-38803D02*
X38510Y-38803D01*
X38510Y-38917D01*
X38525Y-38946D01*
X38539Y-38960D01*
X38567Y-38975D01*
X38610Y-38975D01*
X38639Y-38960D01*
X38653Y-38946D01*
X38667Y-38917D01*
X38667Y-38803D01*
X38810Y-39117D02*
X38810Y-39175D01*
X38796Y-39203D01*
X38782Y-39217D01*
X38739Y-39246D01*
X38682Y-39260D01*
X38567Y-39260D01*
X38539Y-39246D01*
X38525Y-39232D01*
X38510Y-39203D01*
X38510Y-39146D01*
X38525Y-39117D01*
X38539Y-39103D01*
X38567Y-39089D01*
X38639Y-39089D01*
X38667Y-39103D01*
X38682Y-39117D01*
X38696Y-39146D01*
X38696Y-39203D01*
X38682Y-39232D01*
X38667Y-39246D01*
X38639Y-39260D01*
X41410Y-38682D02*
X41267Y-38582D01*
X41410Y-38510D02*
X41110Y-38510D01*
X41110Y-38625D01*
X41125Y-38653D01*
X41139Y-38667D01*
X41167Y-38682D01*
X41210Y-38682D01*
X41239Y-38667D01*
X41253Y-38653D01*
X41267Y-38625D01*
X41267Y-38510D01*
X41410Y-38967D02*
X41410Y-38796D01*
X41410Y-38882D02*
X41110Y-38882D01*
X41153Y-38853D01*
X41182Y-38825D01*
X41196Y-38796D01*
X41410Y-39253D02*
X41410Y-39082D01*
X41410Y-39167D02*
X41110Y-39167D01*
X41153Y-39139D01*
X41182Y-39110D01*
X41196Y-39082D01*
X44060Y-38682D02*
X43917Y-38582D01*
X44060Y-38510D02*
X43760Y-38510D01*
X43760Y-38625D01*
X43775Y-38653D01*
X43789Y-38667D01*
X43817Y-38682D01*
X43860Y-38682D01*
X43889Y-38667D01*
X43903Y-38653D01*
X43917Y-38625D01*
X43917Y-38510D01*
X44060Y-38967D02*
X44060Y-38796D01*
X44060Y-38882D02*
X43760Y-38882D01*
X43803Y-38853D01*
X43832Y-38825D01*
X43846Y-38796D01*
X43760Y-39067D02*
X43760Y-39253D01*
X43875Y-39153D01*
X43875Y-39196D01*
X43889Y-39225D01*
X43903Y-39239D01*
X43932Y-39253D01*
X44003Y-39253D01*
X44032Y-39239D01*
X44046Y-39225D01*
X44060Y-39196D01*
X44060Y-39110D01*
X44046Y-39082D01*
X44032Y-39067D01*
X46660Y-38682D02*
X46517Y-38582D01*
X46660Y-38510D02*
X46360Y-38510D01*
X46360Y-38625D01*
X46375Y-38653D01*
X46389Y-38667D01*
X46417Y-38682D01*
X46460Y-38682D01*
X46489Y-38667D01*
X46503Y-38653D01*
X46517Y-38625D01*
X46517Y-38510D01*
X46660Y-38967D02*
X46660Y-38796D01*
X46660Y-38882D02*
X46360Y-38882D01*
X46403Y-38853D01*
X46432Y-38825D01*
X46446Y-38796D01*
X46360Y-39239D02*
X46360Y-39096D01*
X46503Y-39082D01*
X46489Y-39096D01*
X46475Y-39125D01*
X46475Y-39196D01*
X46489Y-39225D01*
X46503Y-39239D01*
X46532Y-39253D01*
X46603Y-39253D01*
X46632Y-39239D01*
X46646Y-39225D01*
X46660Y-39196D01*
X46660Y-39125D01*
X46646Y-39096D01*
X46632Y-39082D01*
X47885Y-41882D02*
X47742Y-41782D01*
X47885Y-41710D02*
X47585Y-41710D01*
X47585Y-41825D01*
X47600Y-41853D01*
X47614Y-41867D01*
X47642Y-41882D01*
X47685Y-41882D01*
X47714Y-41867D01*
X47728Y-41853D01*
X47742Y-41825D01*
X47742Y-41710D01*
X47885Y-42167D02*
X47885Y-41996D01*
X47885Y-42082D02*
X47585Y-42082D01*
X47628Y-42053D01*
X47657Y-42025D01*
X47671Y-41996D01*
X47585Y-42425D02*
X47585Y-42367D01*
X47600Y-42339D01*
X47614Y-42325D01*
X47657Y-42296D01*
X47714Y-42282D01*
X47828Y-42282D01*
X47857Y-42296D01*
X47871Y-42310D01*
X47885Y-42339D01*
X47885Y-42396D01*
X47871Y-42425D01*
X47857Y-42439D01*
X47828Y-42453D01*
X47757Y-42453D01*
X47728Y-42439D01*
X47714Y-42425D01*
X47700Y-42396D01*
X47700Y-42339D01*
X47714Y-42310D01*
X47728Y-42296D01*
X47757Y-42282D01*
X45335Y-41882D02*
X45192Y-41782D01*
X45335Y-41710D02*
X45035Y-41710D01*
X45035Y-41825D01*
X45050Y-41853D01*
X45064Y-41867D01*
X45092Y-41882D01*
X45135Y-41882D01*
X45164Y-41867D01*
X45178Y-41853D01*
X45192Y-41825D01*
X45192Y-41710D01*
X45335Y-42167D02*
X45335Y-41996D01*
X45335Y-42082D02*
X45035Y-42082D01*
X45078Y-42053D01*
X45107Y-42025D01*
X45121Y-41996D01*
X45135Y-42425D02*
X45335Y-42425D01*
X45021Y-42353D02*
X45235Y-42282D01*
X45235Y-42467D01*
X42735Y-41882D02*
X42592Y-41782D01*
X42735Y-41710D02*
X42435Y-41710D01*
X42435Y-41825D01*
X42450Y-41853D01*
X42464Y-41867D01*
X42492Y-41882D01*
X42535Y-41882D01*
X42564Y-41867D01*
X42578Y-41853D01*
X42592Y-41825D01*
X42592Y-41710D01*
X42735Y-42167D02*
X42735Y-41996D01*
X42735Y-42082D02*
X42435Y-42082D01*
X42478Y-42053D01*
X42507Y-42025D01*
X42521Y-41996D01*
X42464Y-42282D02*
X42450Y-42296D01*
X42435Y-42325D01*
X42435Y-42396D01*
X42450Y-42425D01*
X42464Y-42439D01*
X42492Y-42453D01*
X42521Y-42453D01*
X42564Y-42439D01*
X42735Y-42267D01*
X42735Y-42453D01*
X40135Y-41882D02*
X39992Y-41782D01*
X40135Y-41710D02*
X39835Y-41710D01*
X39835Y-41825D01*
X39850Y-41853D01*
X39864Y-41867D01*
X39892Y-41882D01*
X39935Y-41882D01*
X39964Y-41867D01*
X39978Y-41853D01*
X39992Y-41825D01*
X39992Y-41710D01*
X40135Y-42167D02*
X40135Y-41996D01*
X40135Y-42082D02*
X39835Y-42082D01*
X39878Y-42053D01*
X39907Y-42025D01*
X39921Y-41996D01*
X39835Y-42353D02*
X39835Y-42382D01*
X39850Y-42410D01*
X39864Y-42425D01*
X39892Y-42439D01*
X39950Y-42453D01*
X40021Y-42453D01*
X40078Y-42439D01*
X40107Y-42425D01*
X40121Y-42410D01*
X40135Y-42382D01*
X40135Y-42353D01*
X40121Y-42325D01*
X40107Y-42310D01*
X40078Y-42296D01*
X40021Y-42282D01*
X39950Y-42282D01*
X39892Y-42296D01*
X39864Y-42310D01*
X39850Y-42325D01*
X39835Y-42353D01*
X38835Y-44007D02*
X38692Y-43907D01*
X38835Y-43835D02*
X38535Y-43835D01*
X38535Y-43950D01*
X38550Y-43978D01*
X38564Y-43992D01*
X38592Y-44007D01*
X38635Y-44007D01*
X38664Y-43992D01*
X38678Y-43978D01*
X38692Y-43950D01*
X38692Y-43835D01*
X38835Y-44292D02*
X38835Y-44121D01*
X38835Y-44207D02*
X38535Y-44207D01*
X38578Y-44178D01*
X38607Y-44150D01*
X38621Y-44121D01*
X38535Y-44392D02*
X38535Y-44592D01*
X38835Y-44464D01*
X40135Y-44007D02*
X39992Y-43907D01*
X40135Y-43835D02*
X39835Y-43835D01*
X39835Y-43950D01*
X39850Y-43978D01*
X39864Y-43992D01*
X39892Y-44007D01*
X39935Y-44007D01*
X39964Y-43992D01*
X39978Y-43978D01*
X39992Y-43950D01*
X39992Y-43835D01*
X40135Y-44292D02*
X40135Y-44121D01*
X40135Y-44207D02*
X39835Y-44207D01*
X39878Y-44178D01*
X39907Y-44150D01*
X39921Y-44121D01*
X39964Y-44464D02*
X39950Y-44435D01*
X39935Y-44421D01*
X39907Y-44407D01*
X39892Y-44407D01*
X39864Y-44421D01*
X39850Y-44435D01*
X39835Y-44464D01*
X39835Y-44521D01*
X39850Y-44550D01*
X39864Y-44564D01*
X39892Y-44578D01*
X39907Y-44578D01*
X39935Y-44564D01*
X39950Y-44550D01*
X39964Y-44521D01*
X39964Y-44464D01*
X39978Y-44435D01*
X39992Y-44421D01*
X40021Y-44407D01*
X40078Y-44407D01*
X40107Y-44421D01*
X40121Y-44435D01*
X40135Y-44464D01*
X40135Y-44521D01*
X40121Y-44550D01*
X40107Y-44564D01*
X40078Y-44578D01*
X40021Y-44578D01*
X39992Y-44564D01*
X39978Y-44550D01*
X39964Y-44521D01*
G54D14*
X39651Y-42410D02*
X39637Y-42381D01*
X39608Y-42353D01*
X39565Y-42310D01*
X39551Y-42281D01*
X39551Y-42253D01*
X39622Y-42267D02*
X39608Y-42239D01*
X39579Y-42210D01*
X39522Y-42196D01*
X39422Y-42196D01*
X39365Y-42210D01*
X39337Y-42239D01*
X39322Y-42267D01*
X39322Y-42324D01*
X39337Y-42353D01*
X39365Y-42381D01*
X39422Y-42396D01*
X39522Y-42396D01*
X39579Y-42381D01*
X39608Y-42353D01*
X39622Y-42324D01*
X39622Y-42267D01*
X39622Y-42681D02*
X39622Y-42510D01*
X39622Y-42596D02*
X39322Y-42596D01*
X39365Y-42567D01*
X39394Y-42539D01*
X39408Y-42510D01*
X40951Y-42410D02*
X40937Y-42381D01*
X40908Y-42353D01*
X40865Y-42310D01*
X40851Y-42281D01*
X40851Y-42253D01*
X40922Y-42267D02*
X40908Y-42239D01*
X40879Y-42210D01*
X40822Y-42196D01*
X40722Y-42196D01*
X40665Y-42210D01*
X40637Y-42239D01*
X40622Y-42267D01*
X40622Y-42324D01*
X40637Y-42353D01*
X40665Y-42381D01*
X40722Y-42396D01*
X40822Y-42396D01*
X40879Y-42381D01*
X40908Y-42353D01*
X40922Y-42324D01*
X40922Y-42267D01*
X40651Y-42510D02*
X40637Y-42524D01*
X40622Y-42553D01*
X40622Y-42624D01*
X40637Y-42653D01*
X40651Y-42667D01*
X40679Y-42681D01*
X40708Y-42681D01*
X40751Y-42667D01*
X40922Y-42496D01*
X40922Y-42681D01*
X42251Y-42410D02*
X42237Y-42381D01*
X42208Y-42353D01*
X42165Y-42310D01*
X42151Y-42281D01*
X42151Y-42253D01*
X42222Y-42267D02*
X42208Y-42239D01*
X42179Y-42210D01*
X42122Y-42196D01*
X42022Y-42196D01*
X41965Y-42210D01*
X41937Y-42239D01*
X41922Y-42267D01*
X41922Y-42324D01*
X41937Y-42353D01*
X41965Y-42381D01*
X42022Y-42396D01*
X42122Y-42396D01*
X42179Y-42381D01*
X42208Y-42353D01*
X42222Y-42324D01*
X42222Y-42267D01*
X41922Y-42496D02*
X41922Y-42681D01*
X42037Y-42581D01*
X42037Y-42624D01*
X42051Y-42653D01*
X42065Y-42667D01*
X42094Y-42681D01*
X42165Y-42681D01*
X42194Y-42667D01*
X42208Y-42653D01*
X42222Y-42624D01*
X42222Y-42539D01*
X42208Y-42510D01*
X42194Y-42496D01*
X43551Y-42410D02*
X43537Y-42381D01*
X43508Y-42353D01*
X43465Y-42310D01*
X43451Y-42281D01*
X43451Y-42253D01*
X43522Y-42267D02*
X43508Y-42239D01*
X43479Y-42210D01*
X43422Y-42196D01*
X43322Y-42196D01*
X43265Y-42210D01*
X43237Y-42239D01*
X43222Y-42267D01*
X43222Y-42324D01*
X43237Y-42353D01*
X43265Y-42381D01*
X43322Y-42396D01*
X43422Y-42396D01*
X43479Y-42381D01*
X43508Y-42353D01*
X43522Y-42324D01*
X43522Y-42267D01*
X43322Y-42653D02*
X43522Y-42653D01*
X43208Y-42581D02*
X43422Y-42510D01*
X43422Y-42696D01*
X44851Y-42410D02*
X44837Y-42381D01*
X44808Y-42353D01*
X44765Y-42310D01*
X44751Y-42281D01*
X44751Y-42253D01*
X44822Y-42267D02*
X44808Y-42239D01*
X44779Y-42210D01*
X44722Y-42196D01*
X44622Y-42196D01*
X44565Y-42210D01*
X44537Y-42239D01*
X44522Y-42267D01*
X44522Y-42324D01*
X44537Y-42353D01*
X44565Y-42381D01*
X44622Y-42396D01*
X44722Y-42396D01*
X44779Y-42381D01*
X44808Y-42353D01*
X44822Y-42324D01*
X44822Y-42267D01*
X44522Y-42667D02*
X44522Y-42524D01*
X44665Y-42510D01*
X44651Y-42524D01*
X44637Y-42553D01*
X44637Y-42624D01*
X44651Y-42653D01*
X44665Y-42667D01*
X44694Y-42681D01*
X44765Y-42681D01*
X44794Y-42667D01*
X44808Y-42653D01*
X44822Y-42624D01*
X44822Y-42553D01*
X44808Y-42524D01*
X44794Y-42510D01*
X46151Y-42410D02*
X46137Y-42381D01*
X46108Y-42353D01*
X46065Y-42310D01*
X46051Y-42281D01*
X46051Y-42253D01*
X46122Y-42267D02*
X46108Y-42239D01*
X46079Y-42210D01*
X46022Y-42196D01*
X45922Y-42196D01*
X45865Y-42210D01*
X45837Y-42239D01*
X45822Y-42267D01*
X45822Y-42324D01*
X45837Y-42353D01*
X45865Y-42381D01*
X45922Y-42396D01*
X46022Y-42396D01*
X46079Y-42381D01*
X46108Y-42353D01*
X46122Y-42324D01*
X46122Y-42267D01*
X45822Y-42653D02*
X45822Y-42596D01*
X45837Y-42567D01*
X45851Y-42553D01*
X45894Y-42524D01*
X45951Y-42510D01*
X46065Y-42510D01*
X46094Y-42524D01*
X46108Y-42539D01*
X46122Y-42567D01*
X46122Y-42624D01*
X46108Y-42653D01*
X46094Y-42667D01*
X46065Y-42681D01*
X45994Y-42681D01*
X45965Y-42667D01*
X45951Y-42653D01*
X45937Y-42624D01*
X45937Y-42567D01*
X45951Y-42539D01*
X45965Y-42524D01*
X45994Y-42510D01*
X47451Y-42410D02*
X47437Y-42381D01*
X47408Y-42353D01*
X47365Y-42310D01*
X47351Y-42281D01*
X47351Y-42253D01*
X47422Y-42267D02*
X47408Y-42239D01*
X47379Y-42210D01*
X47322Y-42196D01*
X47222Y-42196D01*
X47165Y-42210D01*
X47137Y-42239D01*
X47122Y-42267D01*
X47122Y-42324D01*
X47137Y-42353D01*
X47165Y-42381D01*
X47222Y-42396D01*
X47322Y-42396D01*
X47379Y-42381D01*
X47408Y-42353D01*
X47422Y-42324D01*
X47422Y-42267D01*
X47122Y-42496D02*
X47122Y-42696D01*
X47422Y-42567D01*
X48751Y-42410D02*
X48737Y-42381D01*
X48708Y-42353D01*
X48665Y-42310D01*
X48651Y-42281D01*
X48651Y-42253D01*
X48722Y-42267D02*
X48708Y-42239D01*
X48679Y-42210D01*
X48622Y-42196D01*
X48522Y-42196D01*
X48465Y-42210D01*
X48437Y-42239D01*
X48422Y-42267D01*
X48422Y-42324D01*
X48437Y-42353D01*
X48465Y-42381D01*
X48522Y-42396D01*
X48622Y-42396D01*
X48679Y-42381D01*
X48708Y-42353D01*
X48722Y-42324D01*
X48722Y-42267D01*
X48551Y-42567D02*
X48537Y-42539D01*
X48522Y-42524D01*
X48494Y-42510D01*
X48479Y-42510D01*
X48451Y-42524D01*
X48437Y-42539D01*
X48422Y-42567D01*
X48422Y-42624D01*
X48437Y-42653D01*
X48451Y-42667D01*
X48479Y-42681D01*
X48494Y-42681D01*
X48522Y-42667D01*
X48537Y-42653D01*
X48551Y-42624D01*
X48551Y-42567D01*
X48565Y-42539D01*
X48579Y-42524D01*
X48608Y-42510D01*
X48665Y-42510D01*
X48694Y-42524D01*
X48708Y-42539D01*
X48722Y-42567D01*
X48722Y-42624D01*
X48708Y-42653D01*
X48694Y-42667D01*
X48665Y-42681D01*
X48608Y-42681D01*
X48579Y-42667D01*
X48565Y-42653D01*
X48551Y-42624D01*
X35177Y-33632D02*
X35163Y-33603D01*
X35134Y-33575D01*
X35091Y-33532D01*
X35077Y-33503D01*
X35077Y-33475D01*
X35148Y-33489D02*
X35134Y-33461D01*
X35105Y-33432D01*
X35048Y-33418D01*
X34948Y-33418D01*
X34891Y-33432D01*
X34863Y-33461D01*
X34848Y-33489D01*
X34848Y-33546D01*
X34863Y-33575D01*
X34891Y-33603D01*
X34948Y-33618D01*
X35048Y-33618D01*
X35105Y-33603D01*
X35134Y-33575D01*
X35148Y-33546D01*
X35148Y-33489D01*
X35148Y-33761D02*
X35148Y-33818D01*
X35134Y-33846D01*
X35120Y-33861D01*
X35077Y-33889D01*
X35020Y-33903D01*
X34905Y-33903D01*
X34877Y-33889D01*
X34863Y-33875D01*
X34848Y-33846D01*
X34848Y-33789D01*
X34863Y-33761D01*
X34877Y-33746D01*
X34905Y-33732D01*
X34977Y-33732D01*
X35005Y-33746D01*
X35020Y-33761D01*
X35034Y-33789D01*
X35034Y-33846D01*
X35020Y-33875D01*
X35005Y-33889D01*
X34977Y-33903D01*
X37177Y-33489D02*
X37163Y-33461D01*
X37134Y-33432D01*
X37091Y-33389D01*
X37077Y-33361D01*
X37077Y-33332D01*
X37148Y-33346D02*
X37134Y-33318D01*
X37105Y-33289D01*
X37048Y-33275D01*
X36948Y-33275D01*
X36891Y-33289D01*
X36863Y-33318D01*
X36848Y-33346D01*
X36848Y-33403D01*
X36863Y-33432D01*
X36891Y-33461D01*
X36948Y-33475D01*
X37048Y-33475D01*
X37105Y-33461D01*
X37134Y-33432D01*
X37148Y-33403D01*
X37148Y-33346D01*
X37148Y-33761D02*
X37148Y-33589D01*
X37148Y-33675D02*
X36848Y-33675D01*
X36891Y-33646D01*
X36920Y-33618D01*
X36934Y-33589D01*
X36848Y-33946D02*
X36848Y-33975D01*
X36863Y-34003D01*
X36877Y-34018D01*
X36905Y-34032D01*
X36963Y-34046D01*
X37034Y-34046D01*
X37091Y-34032D01*
X37120Y-34018D01*
X37134Y-34003D01*
X37148Y-33975D01*
X37148Y-33946D01*
X37134Y-33918D01*
X37120Y-33903D01*
X37091Y-33889D01*
X37034Y-33875D01*
X36963Y-33875D01*
X36905Y-33889D01*
X36877Y-33903D01*
X36863Y-33918D01*
X36848Y-33946D01*
X39177Y-33489D02*
X39163Y-33461D01*
X39134Y-33432D01*
X39091Y-33389D01*
X39077Y-33361D01*
X39077Y-33332D01*
X39148Y-33346D02*
X39134Y-33318D01*
X39105Y-33289D01*
X39048Y-33275D01*
X38948Y-33275D01*
X38891Y-33289D01*
X38863Y-33318D01*
X38848Y-33346D01*
X38848Y-33403D01*
X38863Y-33432D01*
X38891Y-33461D01*
X38948Y-33475D01*
X39048Y-33475D01*
X39105Y-33461D01*
X39134Y-33432D01*
X39148Y-33403D01*
X39148Y-33346D01*
X39148Y-33761D02*
X39148Y-33589D01*
X39148Y-33675D02*
X38848Y-33675D01*
X38891Y-33646D01*
X38920Y-33618D01*
X38934Y-33589D01*
X39148Y-34046D02*
X39148Y-33875D01*
X39148Y-33961D02*
X38848Y-33961D01*
X38891Y-33932D01*
X38920Y-33903D01*
X38934Y-33875D01*
X41177Y-33489D02*
X41163Y-33461D01*
X41134Y-33432D01*
X41091Y-33389D01*
X41077Y-33361D01*
X41077Y-33332D01*
X41148Y-33346D02*
X41134Y-33318D01*
X41105Y-33289D01*
X41048Y-33275D01*
X40948Y-33275D01*
X40891Y-33289D01*
X40863Y-33318D01*
X40848Y-33346D01*
X40848Y-33403D01*
X40863Y-33432D01*
X40891Y-33461D01*
X40948Y-33475D01*
X41048Y-33475D01*
X41105Y-33461D01*
X41134Y-33432D01*
X41148Y-33403D01*
X41148Y-33346D01*
X41148Y-33761D02*
X41148Y-33589D01*
X41148Y-33675D02*
X40848Y-33675D01*
X40891Y-33646D01*
X40920Y-33618D01*
X40934Y-33589D01*
X40877Y-33875D02*
X40863Y-33889D01*
X40848Y-33918D01*
X40848Y-33989D01*
X40863Y-34018D01*
X40877Y-34032D01*
X40905Y-34046D01*
X40934Y-34046D01*
X40977Y-34032D01*
X41148Y-33861D01*
X41148Y-34046D01*
X43177Y-33489D02*
X43163Y-33461D01*
X43134Y-33432D01*
X43091Y-33389D01*
X43077Y-33361D01*
X43077Y-33332D01*
X43148Y-33346D02*
X43134Y-33318D01*
X43105Y-33289D01*
X43048Y-33275D01*
X42948Y-33275D01*
X42891Y-33289D01*
X42863Y-33318D01*
X42848Y-33346D01*
X42848Y-33403D01*
X42863Y-33432D01*
X42891Y-33461D01*
X42948Y-33475D01*
X43048Y-33475D01*
X43105Y-33461D01*
X43134Y-33432D01*
X43148Y-33403D01*
X43148Y-33346D01*
X43148Y-33761D02*
X43148Y-33589D01*
X43148Y-33675D02*
X42848Y-33675D01*
X42891Y-33646D01*
X42920Y-33618D01*
X42934Y-33589D01*
X42848Y-33861D02*
X42848Y-34046D01*
X42963Y-33946D01*
X42963Y-33989D01*
X42977Y-34018D01*
X42991Y-34032D01*
X43020Y-34046D01*
X43091Y-34046D01*
X43120Y-34032D01*
X43134Y-34018D01*
X43148Y-33989D01*
X43148Y-33903D01*
X43134Y-33875D01*
X43120Y-33861D01*
X45177Y-33489D02*
X45163Y-33461D01*
X45134Y-33432D01*
X45091Y-33389D01*
X45077Y-33361D01*
X45077Y-33332D01*
X45148Y-33346D02*
X45134Y-33318D01*
X45105Y-33289D01*
X45048Y-33275D01*
X44948Y-33275D01*
X44891Y-33289D01*
X44863Y-33318D01*
X44848Y-33346D01*
X44848Y-33403D01*
X44863Y-33432D01*
X44891Y-33461D01*
X44948Y-33475D01*
X45048Y-33475D01*
X45105Y-33461D01*
X45134Y-33432D01*
X45148Y-33403D01*
X45148Y-33346D01*
X45148Y-33761D02*
X45148Y-33589D01*
X45148Y-33675D02*
X44848Y-33675D01*
X44891Y-33646D01*
X44920Y-33618D01*
X44934Y-33589D01*
X44948Y-34018D02*
X45148Y-34018D01*
X44834Y-33946D02*
X45048Y-33875D01*
X45048Y-34061D01*
X47177Y-33489D02*
X47163Y-33461D01*
X47134Y-33432D01*
X47091Y-33389D01*
X47077Y-33361D01*
X47077Y-33332D01*
X47148Y-33346D02*
X47134Y-33318D01*
X47105Y-33289D01*
X47048Y-33275D01*
X46948Y-33275D01*
X46891Y-33289D01*
X46863Y-33318D01*
X46848Y-33346D01*
X46848Y-33403D01*
X46863Y-33432D01*
X46891Y-33461D01*
X46948Y-33475D01*
X47048Y-33475D01*
X47105Y-33461D01*
X47134Y-33432D01*
X47148Y-33403D01*
X47148Y-33346D01*
X47148Y-33761D02*
X47148Y-33589D01*
X47148Y-33675D02*
X46848Y-33675D01*
X46891Y-33646D01*
X46920Y-33618D01*
X46934Y-33589D01*
X46848Y-34032D02*
X46848Y-33889D01*
X46991Y-33875D01*
X46977Y-33889D01*
X46963Y-33918D01*
X46963Y-33989D01*
X46977Y-34018D01*
X46991Y-34032D01*
X47020Y-34046D01*
X47091Y-34046D01*
X47120Y-34032D01*
X47134Y-34018D01*
X47148Y-33989D01*
X47148Y-33918D01*
X47134Y-33889D01*
X47120Y-33875D01*
X49177Y-33489D02*
X49163Y-33461D01*
X49134Y-33432D01*
X49091Y-33389D01*
X49077Y-33361D01*
X49077Y-33332D01*
X49148Y-33346D02*
X49134Y-33318D01*
X49105Y-33289D01*
X49048Y-33275D01*
X48948Y-33275D01*
X48891Y-33289D01*
X48863Y-33318D01*
X48848Y-33346D01*
X48848Y-33403D01*
X48863Y-33432D01*
X48891Y-33461D01*
X48948Y-33475D01*
X49048Y-33475D01*
X49105Y-33461D01*
X49134Y-33432D01*
X49148Y-33403D01*
X49148Y-33346D01*
X49148Y-33761D02*
X49148Y-33589D01*
X49148Y-33675D02*
X48848Y-33675D01*
X48891Y-33646D01*
X48920Y-33618D01*
X48934Y-33589D01*
X48848Y-34018D02*
X48848Y-33961D01*
X48863Y-33932D01*
X48877Y-33918D01*
X48920Y-33889D01*
X48977Y-33875D01*
X49091Y-33875D01*
X49120Y-33889D01*
X49134Y-33903D01*
X49148Y-33932D01*
X49148Y-33989D01*
X49134Y-34018D01*
X49120Y-34032D01*
X49091Y-34046D01*
X49020Y-34046D01*
X48991Y-34032D01*
X48977Y-34018D01*
X48963Y-33989D01*
X48963Y-33932D01*
X48977Y-33903D01*
X48991Y-33889D01*
X49020Y-33875D01*
G54D12*
X41435Y-44007D02*
X41292Y-43907D01*
X41435Y-43835D02*
X41135Y-43835D01*
X41135Y-43950D01*
X41150Y-43978D01*
X41164Y-43992D01*
X41192Y-44007D01*
X41235Y-44007D01*
X41264Y-43992D01*
X41278Y-43978D01*
X41292Y-43950D01*
X41292Y-43835D01*
X41435Y-44292D02*
X41435Y-44121D01*
X41435Y-44207D02*
X41135Y-44207D01*
X41178Y-44178D01*
X41207Y-44150D01*
X41221Y-44121D01*
X41435Y-44435D02*
X41435Y-44492D01*
X41421Y-44521D01*
X41407Y-44535D01*
X41364Y-44564D01*
X41307Y-44578D01*
X41192Y-44578D01*
X41164Y-44564D01*
X41150Y-44550D01*
X41135Y-44521D01*
X41135Y-44464D01*
X41150Y-44435D01*
X41164Y-44421D01*
X41192Y-44407D01*
X41264Y-44407D01*
X41292Y-44421D01*
X41307Y-44435D01*
X41321Y-44464D01*
X41321Y-44521D01*
X41307Y-44550D01*
X41292Y-44564D01*
X41264Y-44578D01*
X42735Y-44007D02*
X42592Y-43907D01*
X42735Y-43835D02*
X42435Y-43835D01*
X42435Y-43950D01*
X42450Y-43978D01*
X42464Y-43992D01*
X42492Y-44007D01*
X42535Y-44007D01*
X42564Y-43992D01*
X42578Y-43978D01*
X42592Y-43950D01*
X42592Y-43835D01*
X42464Y-44121D02*
X42450Y-44135D01*
X42435Y-44164D01*
X42435Y-44235D01*
X42450Y-44264D01*
X42464Y-44278D01*
X42492Y-44292D01*
X42521Y-44292D01*
X42564Y-44278D01*
X42735Y-44107D01*
X42735Y-44292D01*
X42435Y-44478D02*
X42435Y-44507D01*
X42450Y-44535D01*
X42464Y-44550D01*
X42492Y-44564D01*
X42550Y-44578D01*
X42621Y-44578D01*
X42678Y-44564D01*
X42707Y-44550D01*
X42721Y-44535D01*
X42735Y-44507D01*
X42735Y-44478D01*
X42721Y-44450D01*
X42707Y-44435D01*
X42678Y-44421D01*
X42621Y-44407D01*
X42550Y-44407D01*
X42492Y-44421D01*
X42464Y-44435D01*
X42450Y-44450D01*
X42435Y-44478D01*
X44035Y-44007D02*
X43892Y-43907D01*
X44035Y-43835D02*
X43735Y-43835D01*
X43735Y-43950D01*
X43750Y-43978D01*
X43764Y-43992D01*
X43792Y-44007D01*
X43835Y-44007D01*
X43864Y-43992D01*
X43878Y-43978D01*
X43892Y-43950D01*
X43892Y-43835D01*
X43764Y-44121D02*
X43750Y-44135D01*
X43735Y-44164D01*
X43735Y-44235D01*
X43750Y-44264D01*
X43764Y-44278D01*
X43792Y-44292D01*
X43821Y-44292D01*
X43864Y-44278D01*
X44035Y-44107D01*
X44035Y-44292D01*
X44035Y-44578D02*
X44035Y-44407D01*
X44035Y-44492D02*
X43735Y-44492D01*
X43778Y-44464D01*
X43807Y-44435D01*
X43821Y-44407D01*
X45335Y-44007D02*
X45192Y-43907D01*
X45335Y-43835D02*
X45035Y-43835D01*
X45035Y-43950D01*
X45050Y-43978D01*
X45064Y-43992D01*
X45092Y-44007D01*
X45135Y-44007D01*
X45164Y-43992D01*
X45178Y-43978D01*
X45192Y-43950D01*
X45192Y-43835D01*
X45064Y-44121D02*
X45050Y-44135D01*
X45035Y-44164D01*
X45035Y-44235D01*
X45050Y-44264D01*
X45064Y-44278D01*
X45092Y-44292D01*
X45121Y-44292D01*
X45164Y-44278D01*
X45335Y-44107D01*
X45335Y-44292D01*
X45064Y-44407D02*
X45050Y-44421D01*
X45035Y-44450D01*
X45035Y-44521D01*
X45050Y-44550D01*
X45064Y-44564D01*
X45092Y-44578D01*
X45121Y-44578D01*
X45164Y-44564D01*
X45335Y-44392D01*
X45335Y-44578D01*
X46635Y-44007D02*
X46492Y-43907D01*
X46635Y-43835D02*
X46335Y-43835D01*
X46335Y-43950D01*
X46350Y-43978D01*
X46364Y-43992D01*
X46392Y-44007D01*
X46435Y-44007D01*
X46464Y-43992D01*
X46478Y-43978D01*
X46492Y-43950D01*
X46492Y-43835D01*
X46364Y-44121D02*
X46350Y-44135D01*
X46335Y-44164D01*
X46335Y-44235D01*
X46350Y-44264D01*
X46364Y-44278D01*
X46392Y-44292D01*
X46421Y-44292D01*
X46464Y-44278D01*
X46635Y-44107D01*
X46635Y-44292D01*
X46335Y-44392D02*
X46335Y-44578D01*
X46450Y-44478D01*
X46450Y-44521D01*
X46464Y-44550D01*
X46478Y-44564D01*
X46507Y-44578D01*
X46578Y-44578D01*
X46607Y-44564D01*
X46621Y-44550D01*
X46635Y-44521D01*
X46635Y-44435D01*
X46621Y-44407D01*
X46607Y-44392D01*
X47935Y-44007D02*
X47792Y-43907D01*
X47935Y-43835D02*
X47635Y-43835D01*
X47635Y-43950D01*
X47650Y-43978D01*
X47664Y-43992D01*
X47692Y-44007D01*
X47735Y-44007D01*
X47764Y-43992D01*
X47778Y-43978D01*
X47792Y-43950D01*
X47792Y-43835D01*
X47664Y-44121D02*
X47650Y-44135D01*
X47635Y-44164D01*
X47635Y-44235D01*
X47650Y-44264D01*
X47664Y-44278D01*
X47692Y-44292D01*
X47721Y-44292D01*
X47764Y-44278D01*
X47935Y-44107D01*
X47935Y-44292D01*
X47735Y-44550D02*
X47935Y-44550D01*
X47621Y-44478D02*
X47835Y-44407D01*
X47835Y-44592D01*
X35435Y-35307D02*
X35292Y-35207D01*
X35435Y-35135D02*
X35135Y-35135D01*
X35135Y-35250D01*
X35150Y-35278D01*
X35164Y-35292D01*
X35192Y-35307D01*
X35235Y-35307D01*
X35264Y-35292D01*
X35278Y-35278D01*
X35292Y-35250D01*
X35292Y-35135D01*
X35164Y-35421D02*
X35150Y-35435D01*
X35135Y-35464D01*
X35135Y-35535D01*
X35150Y-35564D01*
X35164Y-35578D01*
X35192Y-35592D01*
X35221Y-35592D01*
X35264Y-35578D01*
X35435Y-35407D01*
X35435Y-35592D01*
X35135Y-35864D02*
X35135Y-35721D01*
X35278Y-35707D01*
X35264Y-35721D01*
X35250Y-35750D01*
X35250Y-35821D01*
X35264Y-35850D01*
X35278Y-35864D01*
X35307Y-35878D01*
X35378Y-35878D01*
X35407Y-35864D01*
X35421Y-35850D01*
X35435Y-35821D01*
X35435Y-35750D01*
X35421Y-35721D01*
X35407Y-35707D01*
X37435Y-35307D02*
X37292Y-35207D01*
X37435Y-35135D02*
X37135Y-35135D01*
X37135Y-35250D01*
X37150Y-35278D01*
X37164Y-35292D01*
X37192Y-35307D01*
X37235Y-35307D01*
X37264Y-35292D01*
X37278Y-35278D01*
X37292Y-35250D01*
X37292Y-35135D01*
X37164Y-35421D02*
X37150Y-35435D01*
X37135Y-35464D01*
X37135Y-35535D01*
X37150Y-35564D01*
X37164Y-35578D01*
X37192Y-35592D01*
X37221Y-35592D01*
X37264Y-35578D01*
X37435Y-35407D01*
X37435Y-35592D01*
X37135Y-35850D02*
X37135Y-35792D01*
X37150Y-35764D01*
X37164Y-35750D01*
X37207Y-35721D01*
X37264Y-35707D01*
X37378Y-35707D01*
X37407Y-35721D01*
X37421Y-35735D01*
X37435Y-35764D01*
X37435Y-35821D01*
X37421Y-35850D01*
X37407Y-35864D01*
X37378Y-35878D01*
X37307Y-35878D01*
X37278Y-35864D01*
X37264Y-35850D01*
X37250Y-35821D01*
X37250Y-35764D01*
X37264Y-35735D01*
X37278Y-35721D01*
X37307Y-35707D01*
X39435Y-35307D02*
X39292Y-35207D01*
X39435Y-35135D02*
X39135Y-35135D01*
X39135Y-35250D01*
X39150Y-35278D01*
X39164Y-35292D01*
X39192Y-35307D01*
X39235Y-35307D01*
X39264Y-35292D01*
X39278Y-35278D01*
X39292Y-35250D01*
X39292Y-35135D01*
X39164Y-35421D02*
X39150Y-35435D01*
X39135Y-35464D01*
X39135Y-35535D01*
X39150Y-35564D01*
X39164Y-35578D01*
X39192Y-35592D01*
X39221Y-35592D01*
X39264Y-35578D01*
X39435Y-35407D01*
X39435Y-35592D01*
X39135Y-35692D02*
X39135Y-35892D01*
X39435Y-35764D01*
X41435Y-35307D02*
X41292Y-35207D01*
X41435Y-35135D02*
X41135Y-35135D01*
X41135Y-35250D01*
X41150Y-35278D01*
X41164Y-35292D01*
X41192Y-35307D01*
X41235Y-35307D01*
X41264Y-35292D01*
X41278Y-35278D01*
X41292Y-35250D01*
X41292Y-35135D01*
X41164Y-35421D02*
X41150Y-35435D01*
X41135Y-35464D01*
X41135Y-35535D01*
X41150Y-35564D01*
X41164Y-35578D01*
X41192Y-35592D01*
X41221Y-35592D01*
X41264Y-35578D01*
X41435Y-35407D01*
X41435Y-35592D01*
X41264Y-35764D02*
X41250Y-35735D01*
X41235Y-35721D01*
X41207Y-35707D01*
X41192Y-35707D01*
X41164Y-35721D01*
X41150Y-35735D01*
X41135Y-35764D01*
X41135Y-35821D01*
X41150Y-35850D01*
X41164Y-35864D01*
X41192Y-35878D01*
X41207Y-35878D01*
X41235Y-35864D01*
X41250Y-35850D01*
X41264Y-35821D01*
X41264Y-35764D01*
X41278Y-35735D01*
X41292Y-35721D01*
X41321Y-35707D01*
X41378Y-35707D01*
X41407Y-35721D01*
X41421Y-35735D01*
X41435Y-35764D01*
X41435Y-35821D01*
X41421Y-35850D01*
X41407Y-35864D01*
X41378Y-35878D01*
X41321Y-35878D01*
X41292Y-35864D01*
X41278Y-35850D01*
X41264Y-35821D01*
X43435Y-35307D02*
X43292Y-35207D01*
X43435Y-35135D02*
X43135Y-35135D01*
X43135Y-35250D01*
X43150Y-35278D01*
X43164Y-35292D01*
X43192Y-35307D01*
X43235Y-35307D01*
X43264Y-35292D01*
X43278Y-35278D01*
X43292Y-35250D01*
X43292Y-35135D01*
X43164Y-35421D02*
X43150Y-35435D01*
X43135Y-35464D01*
X43135Y-35535D01*
X43150Y-35564D01*
X43164Y-35578D01*
X43192Y-35592D01*
X43221Y-35592D01*
X43264Y-35578D01*
X43435Y-35407D01*
X43435Y-35592D01*
X43435Y-35735D02*
X43435Y-35792D01*
X43421Y-35821D01*
X43407Y-35835D01*
X43364Y-35864D01*
X43307Y-35878D01*
X43192Y-35878D01*
X43164Y-35864D01*
X43150Y-35850D01*
X43135Y-35821D01*
X43135Y-35764D01*
X43150Y-35735D01*
X43164Y-35721D01*
X43192Y-35707D01*
X43264Y-35707D01*
X43292Y-35721D01*
X43307Y-35735D01*
X43321Y-35764D01*
X43321Y-35821D01*
X43307Y-35850D01*
X43292Y-35864D01*
X43264Y-35878D01*
X45435Y-35307D02*
X45292Y-35207D01*
X45435Y-35135D02*
X45135Y-35135D01*
X45135Y-35250D01*
X45150Y-35278D01*
X45164Y-35292D01*
X45192Y-35307D01*
X45235Y-35307D01*
X45264Y-35292D01*
X45278Y-35278D01*
X45292Y-35250D01*
X45292Y-35135D01*
X45135Y-35407D02*
X45135Y-35592D01*
X45250Y-35492D01*
X45250Y-35535D01*
X45264Y-35564D01*
X45278Y-35578D01*
X45307Y-35592D01*
X45378Y-35592D01*
X45407Y-35578D01*
X45421Y-35564D01*
X45435Y-35535D01*
X45435Y-35450D01*
X45421Y-35421D01*
X45407Y-35407D01*
X45135Y-35778D02*
X45135Y-35807D01*
X45150Y-35835D01*
X45164Y-35850D01*
X45192Y-35864D01*
X45250Y-35878D01*
X45321Y-35878D01*
X45378Y-35864D01*
X45407Y-35850D01*
X45421Y-35835D01*
X45435Y-35807D01*
X45435Y-35778D01*
X45421Y-35750D01*
X45407Y-35735D01*
X45378Y-35721D01*
X45321Y-35707D01*
X45250Y-35707D01*
X45192Y-35721D01*
X45164Y-35735D01*
X45150Y-35750D01*
X45135Y-35778D01*
X47435Y-35307D02*
X47292Y-35207D01*
X47435Y-35135D02*
X47135Y-35135D01*
X47135Y-35250D01*
X47150Y-35278D01*
X47164Y-35292D01*
X47192Y-35307D01*
X47235Y-35307D01*
X47264Y-35292D01*
X47278Y-35278D01*
X47292Y-35250D01*
X47292Y-35135D01*
X47135Y-35407D02*
X47135Y-35592D01*
X47250Y-35492D01*
X47250Y-35535D01*
X47264Y-35564D01*
X47278Y-35578D01*
X47307Y-35592D01*
X47378Y-35592D01*
X47407Y-35578D01*
X47421Y-35564D01*
X47435Y-35535D01*
X47435Y-35450D01*
X47421Y-35421D01*
X47407Y-35407D01*
X47435Y-35878D02*
X47435Y-35707D01*
X47435Y-35792D02*
X47135Y-35792D01*
X47178Y-35764D01*
X47207Y-35735D01*
X47221Y-35707D01*
X49435Y-35307D02*
X49292Y-35207D01*
X49435Y-35135D02*
X49135Y-35135D01*
X49135Y-35250D01*
X49150Y-35278D01*
X49164Y-35292D01*
X49192Y-35307D01*
X49235Y-35307D01*
X49264Y-35292D01*
X49278Y-35278D01*
X49292Y-35250D01*
X49292Y-35135D01*
X49135Y-35407D02*
X49135Y-35592D01*
X49250Y-35492D01*
X49250Y-35535D01*
X49264Y-35564D01*
X49278Y-35578D01*
X49307Y-35592D01*
X49378Y-35592D01*
X49407Y-35578D01*
X49421Y-35564D01*
X49435Y-35535D01*
X49435Y-35450D01*
X49421Y-35421D01*
X49407Y-35407D01*
X49164Y-35707D02*
X49150Y-35721D01*
X49135Y-35750D01*
X49135Y-35821D01*
X49150Y-35850D01*
X49164Y-35864D01*
X49192Y-35878D01*
X49221Y-35878D01*
X49264Y-35864D01*
X49435Y-35692D01*
X49435Y-35878D01*
X36735Y-31607D02*
X36592Y-31507D01*
X36735Y-31435D02*
X36435Y-31435D01*
X36435Y-31550D01*
X36450Y-31578D01*
X36464Y-31592D01*
X36492Y-31607D01*
X36535Y-31607D01*
X36564Y-31592D01*
X36578Y-31578D01*
X36592Y-31550D01*
X36592Y-31435D01*
X36435Y-31707D02*
X36435Y-31892D01*
X36550Y-31792D01*
X36550Y-31835D01*
X36564Y-31864D01*
X36578Y-31878D01*
X36607Y-31892D01*
X36678Y-31892D01*
X36707Y-31878D01*
X36721Y-31864D01*
X36735Y-31835D01*
X36735Y-31750D01*
X36721Y-31721D01*
X36707Y-31707D01*
X36435Y-31992D02*
X36435Y-32178D01*
X36550Y-32078D01*
X36550Y-32121D01*
X36564Y-32150D01*
X36578Y-32164D01*
X36607Y-32178D01*
X36678Y-32178D01*
X36707Y-32164D01*
X36721Y-32150D01*
X36735Y-32121D01*
X36735Y-32035D01*
X36721Y-32007D01*
X36707Y-31992D01*
X38735Y-31607D02*
X38592Y-31507D01*
X38735Y-31435D02*
X38435Y-31435D01*
X38435Y-31550D01*
X38450Y-31578D01*
X38464Y-31592D01*
X38492Y-31607D01*
X38535Y-31607D01*
X38564Y-31592D01*
X38578Y-31578D01*
X38592Y-31550D01*
X38592Y-31435D01*
X38435Y-31707D02*
X38435Y-31892D01*
X38550Y-31792D01*
X38550Y-31835D01*
X38564Y-31864D01*
X38578Y-31878D01*
X38607Y-31892D01*
X38678Y-31892D01*
X38707Y-31878D01*
X38721Y-31864D01*
X38735Y-31835D01*
X38735Y-31750D01*
X38721Y-31721D01*
X38707Y-31707D01*
X38535Y-32150D02*
X38735Y-32150D01*
X38421Y-32078D02*
X38635Y-32007D01*
X38635Y-32192D01*
X40735Y-31607D02*
X40592Y-31507D01*
X40735Y-31435D02*
X40435Y-31435D01*
X40435Y-31550D01*
X40450Y-31578D01*
X40464Y-31592D01*
X40492Y-31607D01*
X40535Y-31607D01*
X40564Y-31592D01*
X40578Y-31578D01*
X40592Y-31550D01*
X40592Y-31435D01*
X40435Y-31707D02*
X40435Y-31892D01*
X40550Y-31792D01*
X40550Y-31835D01*
X40564Y-31864D01*
X40578Y-31878D01*
X40607Y-31892D01*
X40678Y-31892D01*
X40707Y-31878D01*
X40721Y-31864D01*
X40735Y-31835D01*
X40735Y-31750D01*
X40721Y-31721D01*
X40707Y-31707D01*
X40435Y-32164D02*
X40435Y-32021D01*
X40578Y-32007D01*
X40564Y-32021D01*
X40550Y-32050D01*
X40550Y-32121D01*
X40564Y-32150D01*
X40578Y-32164D01*
X40607Y-32178D01*
X40678Y-32178D01*
X40707Y-32164D01*
X40721Y-32150D01*
X40735Y-32121D01*
X40735Y-32050D01*
X40721Y-32021D01*
X40707Y-32007D01*
X42735Y-31607D02*
X42592Y-31507D01*
X42735Y-31435D02*
X42435Y-31435D01*
X42435Y-31550D01*
X42450Y-31578D01*
X42464Y-31592D01*
X42492Y-31607D01*
X42535Y-31607D01*
X42564Y-31592D01*
X42578Y-31578D01*
X42592Y-31550D01*
X42592Y-31435D01*
X42435Y-31707D02*
X42435Y-31892D01*
X42550Y-31792D01*
X42550Y-31835D01*
X42564Y-31864D01*
X42578Y-31878D01*
X42607Y-31892D01*
X42678Y-31892D01*
X42707Y-31878D01*
X42721Y-31864D01*
X42735Y-31835D01*
X42735Y-31750D01*
X42721Y-31721D01*
X42707Y-31707D01*
X42435Y-32150D02*
X42435Y-32092D01*
X42450Y-32064D01*
X42464Y-32050D01*
X42507Y-32021D01*
X42564Y-32007D01*
X42678Y-32007D01*
X42707Y-32021D01*
X42721Y-32035D01*
X42735Y-32064D01*
X42735Y-32121D01*
X42721Y-32150D01*
X42707Y-32164D01*
X42678Y-32178D01*
X42607Y-32178D01*
X42578Y-32164D01*
X42564Y-32150D01*
X42550Y-32121D01*
X42550Y-32064D01*
X42564Y-32035D01*
X42578Y-32021D01*
X42607Y-32007D01*
X44735Y-31607D02*
X44592Y-31507D01*
X44735Y-31435D02*
X44435Y-31435D01*
X44435Y-31550D01*
X44450Y-31578D01*
X44464Y-31592D01*
X44492Y-31607D01*
X44535Y-31607D01*
X44564Y-31592D01*
X44578Y-31578D01*
X44592Y-31550D01*
X44592Y-31435D01*
X44435Y-31707D02*
X44435Y-31892D01*
X44550Y-31792D01*
X44550Y-31835D01*
X44564Y-31864D01*
X44578Y-31878D01*
X44607Y-31892D01*
X44678Y-31892D01*
X44707Y-31878D01*
X44721Y-31864D01*
X44735Y-31835D01*
X44735Y-31750D01*
X44721Y-31721D01*
X44707Y-31707D01*
X44435Y-31992D02*
X44435Y-32192D01*
X44735Y-32064D01*
X46735Y-31607D02*
X46592Y-31507D01*
X46735Y-31435D02*
X46435Y-31435D01*
X46435Y-31550D01*
X46450Y-31578D01*
X46464Y-31592D01*
X46492Y-31607D01*
X46535Y-31607D01*
X46564Y-31592D01*
X46578Y-31578D01*
X46592Y-31550D01*
X46592Y-31435D01*
X46435Y-31707D02*
X46435Y-31892D01*
X46550Y-31792D01*
X46550Y-31835D01*
X46564Y-31864D01*
X46578Y-31878D01*
X46607Y-31892D01*
X46678Y-31892D01*
X46707Y-31878D01*
X46721Y-31864D01*
X46735Y-31835D01*
X46735Y-31750D01*
X46721Y-31721D01*
X46707Y-31707D01*
X46564Y-32064D02*
X46550Y-32035D01*
X46535Y-32021D01*
X46507Y-32007D01*
X46492Y-32007D01*
X46464Y-32021D01*
X46450Y-32035D01*
X46435Y-32064D01*
X46435Y-32121D01*
X46450Y-32150D01*
X46464Y-32164D01*
X46492Y-32178D01*
X46507Y-32178D01*
X46535Y-32164D01*
X46550Y-32150D01*
X46564Y-32121D01*
X46564Y-32064D01*
X46578Y-32035D01*
X46592Y-32021D01*
X46621Y-32007D01*
X46678Y-32007D01*
X46707Y-32021D01*
X46721Y-32035D01*
X46735Y-32064D01*
X46735Y-32121D01*
X46721Y-32150D01*
X46707Y-32164D01*
X46678Y-32178D01*
X46621Y-32178D01*
X46592Y-32164D01*
X46578Y-32150D01*
X46564Y-32121D01*
X48735Y-31607D02*
X48592Y-31507D01*
X48735Y-31435D02*
X48435Y-31435D01*
X48435Y-31550D01*
X48450Y-31578D01*
X48464Y-31592D01*
X48492Y-31607D01*
X48535Y-31607D01*
X48564Y-31592D01*
X48578Y-31578D01*
X48592Y-31550D01*
X48592Y-31435D01*
X48435Y-31707D02*
X48435Y-31892D01*
X48550Y-31792D01*
X48550Y-31835D01*
X48564Y-31864D01*
X48578Y-31878D01*
X48607Y-31892D01*
X48678Y-31892D01*
X48707Y-31878D01*
X48721Y-31864D01*
X48735Y-31835D01*
X48735Y-31750D01*
X48721Y-31721D01*
X48707Y-31707D01*
X48735Y-32035D02*
X48735Y-32092D01*
X48721Y-32121D01*
X48707Y-32135D01*
X48664Y-32164D01*
X48607Y-32178D01*
X48492Y-32178D01*
X48464Y-32164D01*
X48450Y-32150D01*
X48435Y-32121D01*
X48435Y-32064D01*
X48450Y-32035D01*
X48464Y-32021D01*
X48492Y-32007D01*
X48564Y-32007D01*
X48592Y-32021D01*
X48607Y-32035D01*
X48621Y-32064D01*
X48621Y-32121D01*
X48607Y-32150D01*
X48592Y-32164D01*
X48564Y-32178D01*
X50735Y-31607D02*
X50592Y-31507D01*
X50735Y-31435D02*
X50435Y-31435D01*
X50435Y-31550D01*
X50450Y-31578D01*
X50464Y-31592D01*
X50492Y-31607D01*
X50535Y-31607D01*
X50564Y-31592D01*
X50578Y-31578D01*
X50592Y-31550D01*
X50592Y-31435D01*
X50535Y-31864D02*
X50735Y-31864D01*
X50421Y-31792D02*
X50635Y-31721D01*
X50635Y-31907D01*
X50435Y-32078D02*
X50435Y-32107D01*
X50450Y-32135D01*
X50464Y-32150D01*
X50492Y-32164D01*
X50550Y-32178D01*
X50621Y-32178D01*
X50678Y-32164D01*
X50707Y-32150D01*
X50721Y-32135D01*
X50735Y-32107D01*
X50735Y-32078D01*
X50721Y-32050D01*
X50707Y-32035D01*
X50678Y-32021D01*
X50621Y-32007D01*
X50550Y-32007D01*
X50492Y-32021D01*
X50464Y-32035D01*
X50450Y-32050D01*
X50435Y-32078D01*
X54442Y-35335D02*
X54542Y-35192D01*
X54614Y-35335D02*
X54614Y-35035D01*
X54500Y-35035D01*
X54471Y-35050D01*
X54457Y-35064D01*
X54442Y-35092D01*
X54442Y-35135D01*
X54457Y-35164D01*
X54471Y-35178D01*
X54500Y-35192D01*
X54614Y-35192D01*
X54185Y-35135D02*
X54185Y-35335D01*
X54257Y-35021D02*
X54328Y-35235D01*
X54142Y-35235D01*
X53871Y-35335D02*
X54042Y-35335D01*
X53957Y-35335D02*
X53957Y-35035D01*
X53985Y-35078D01*
X54014Y-35107D01*
X54042Y-35121D01*
X54442Y-37135D02*
X54542Y-36992D01*
X54614Y-37135D02*
X54614Y-36835D01*
X54500Y-36835D01*
X54471Y-36850D01*
X54457Y-36864D01*
X54442Y-36892D01*
X54442Y-36935D01*
X54457Y-36964D01*
X54471Y-36978D01*
X54500Y-36992D01*
X54614Y-36992D01*
X54185Y-36935D02*
X54185Y-37135D01*
X54257Y-36821D02*
X54328Y-37035D01*
X54142Y-37035D01*
X54042Y-36864D02*
X54028Y-36850D01*
X54000Y-36835D01*
X53928Y-36835D01*
X53900Y-36850D01*
X53885Y-36864D01*
X53871Y-36892D01*
X53871Y-36921D01*
X53885Y-36964D01*
X54057Y-37135D01*
X53871Y-37135D01*
G54D14*
X49982Y-44401D02*
X50011Y-44387D01*
X50039Y-44358D01*
X50082Y-44315D01*
X50111Y-44301D01*
X50139Y-44301D01*
X50125Y-44372D02*
X50153Y-44358D01*
X50182Y-44329D01*
X50196Y-44272D01*
X50196Y-44172D01*
X50182Y-44115D01*
X50153Y-44087D01*
X50125Y-44072D01*
X50068Y-44072D01*
X50039Y-44087D01*
X50011Y-44115D01*
X49996Y-44172D01*
X49996Y-44272D01*
X50011Y-44329D01*
X50039Y-44358D01*
X50068Y-44372D01*
X50125Y-44372D01*
X49711Y-44372D02*
X49882Y-44372D01*
X49796Y-44372D02*
X49796Y-44072D01*
X49825Y-44115D01*
X49853Y-44144D01*
X49882Y-44158D01*
X49568Y-44372D02*
X49511Y-44372D01*
X49482Y-44358D01*
X49468Y-44344D01*
X49439Y-44301D01*
X49425Y-44244D01*
X49425Y-44129D01*
X49439Y-44101D01*
X49453Y-44087D01*
X49482Y-44072D01*
X49539Y-44072D01*
X49568Y-44087D01*
X49582Y-44101D01*
X49596Y-44129D01*
X49596Y-44201D01*
X49582Y-44229D01*
X49568Y-44244D01*
X49539Y-44258D01*
X49482Y-44258D01*
X49453Y-44244D01*
X49439Y-44229D01*
X49425Y-44201D01*
G54D12*
X49792Y-41735D02*
X49892Y-41592D01*
X49964Y-41735D02*
X49964Y-41435D01*
X49850Y-41435D01*
X49821Y-41450D01*
X49807Y-41464D01*
X49792Y-41492D01*
X49792Y-41535D01*
X49807Y-41564D01*
X49821Y-41578D01*
X49850Y-41592D01*
X49964Y-41592D01*
X49535Y-41535D02*
X49535Y-41735D01*
X49607Y-41421D02*
X49678Y-41635D01*
X49492Y-41635D01*
X49407Y-41435D02*
X49221Y-41435D01*
X49321Y-41550D01*
X49278Y-41550D01*
X49250Y-41564D01*
X49235Y-41578D01*
X49221Y-41607D01*
X49221Y-41678D01*
X49235Y-41707D01*
X49250Y-41721D01*
X49278Y-41735D01*
X49364Y-41735D01*
X49392Y-41721D01*
X49407Y-41707D01*
M02*
